%
M48
M72
T01C0.03150
T02C0.02362
T03C0.03600
T04C0.03937
T05C0.05118
T06C0.04331
T07C0.03937
T08C0.06299
T09C0.10827
%
T01
X171700Y59929
X171700Y79929
X246504Y49457
X246504Y39457
X246504Y29457
X246504Y19457
X171700Y141819
X171700Y161819
X246504Y159457
X246504Y169457
X246504Y179457
X246504Y149457
T02
X221740Y146031
X221740Y156031
X209102Y164339
X201602Y169339
X195323Y169260
X195323Y161543
X195323Y151543
X209102Y174339
X195323Y179260
T03
X55559Y176228
X47685Y176228
X47685Y168354
X55559Y168354
X55559Y184102
X47685Y184102
T04
X82051Y161874
X82051Y151874
X68945Y151858
X68945Y121858
X82051Y119874
X82051Y109874
X68945Y109535
X68945Y79535
X82051Y79591
X82051Y69591
X82051Y37591
X82051Y27591
X155051Y27591
X155051Y37591
X155051Y69591
X155051Y79591
X155051Y109874
X155051Y119874
X155051Y151874
X155051Y161874
T05
X50637Y60087
X50637Y40402
T06
X172842Y100441
X172842Y128945
X232842Y128945
X232842Y100441
T07
X272094Y43354
T08
X262094Y33354
X282094Y33354
X282094Y53354
X262094Y53354
T09
X47685Y16780
X276031Y16780
X276031Y209693
X47685Y209693
M30
