%
M48
M72
T01C0.03150
T02C0.02362
T03C0.01969
T04C0.02756
T05C0.03937
T06C0.05118
T07C0.04331
T08C0.10827
%
T01
X242567Y19457
X242567Y29457
X242567Y39457
X242567Y49457
X242567Y149457
X242567Y159457
X242567Y169457
X242567Y179457
X73275Y149890
X73275Y119890
X73275Y110520
X73275Y80520
T02
X209102Y164339
X201602Y169339
X209102Y174339
T03
X214693Y154142
X204693Y154142
X209181Y185087
X199181Y185087
X225834Y149339
X225834Y139339
T04
X180756Y72134
X180756Y92134
X180756Y174811
X180756Y154811
X72094Y168354
X64220Y168354
X64220Y176228
X72094Y176228
X72094Y184102
X64220Y184102
T05
X93862Y161874
X93862Y151874
X93862Y109874
X93862Y119874
X93862Y79591
X93862Y69591
X93862Y37591
X93862Y27591
X166862Y27591
X166862Y37591
X166862Y69591
X166862Y79591
X166862Y109874
X166862Y119874
X166862Y151874
X166862Y161874
X272094Y43354
T06
X50637Y60087
X50637Y40402
X262094Y33354
X282094Y33354
X282094Y53354
X262094Y53354
T07
X193354Y14535
X193354Y74535
X193354Y97213
X193354Y157213
T08
X47685Y16780
X276031Y16780
X276031Y209693
X47685Y209693
M30
