G75*
%MOIN*%
%OFA0B0*%
%FSLAX25Y25*%
%IPPOS*%
%LPD*%
%AMOC8*
5,1,8,0,0,1.08239X$1,22.5*
%
%ADD10C,0.00000*%
%ADD11C,0.10000*%
%ADD12R,0.05400X0.05400*%
%ADD13C,0.05400*%
%ADD14C,0.07677*%
%ADD15C,0.08850*%
%ADD16C,0.07400*%
%ADD17OC8,0.04800*%
%ADD18R,0.09843X0.09843*%
%ADD19C,0.04800*%
%ADD20OC8,0.06300*%
%ADD21C,0.04724*%
%ADD22C,0.07000*%
D10*
X0033905Y0014811D02*
X0033905Y0071898D01*
X0033962Y0072141D01*
X0034025Y0072383D01*
X0034094Y0072624D01*
X0034169Y0072862D01*
X0034250Y0073099D01*
X0034336Y0073334D01*
X0034428Y0073566D01*
X0034525Y0073797D01*
X0034628Y0074025D01*
X0034736Y0074250D01*
X0034850Y0074473D01*
X0034969Y0074693D01*
X0035093Y0074910D01*
X0035223Y0075124D01*
X0035358Y0075334D01*
X0035497Y0075542D01*
X0035642Y0075746D01*
X0035791Y0075946D01*
X0035946Y0076143D01*
X0036105Y0076336D01*
X0036268Y0076525D01*
X0036436Y0076710D01*
X0036609Y0076891D01*
X0036786Y0077068D01*
X0036967Y0077241D01*
X0037152Y0077409D01*
X0037341Y0077572D01*
X0037534Y0077731D01*
X0037731Y0077886D01*
X0037931Y0078035D01*
X0038135Y0078180D01*
X0038343Y0078319D01*
X0038553Y0078454D01*
X0038767Y0078584D01*
X0038984Y0078708D01*
X0039204Y0078827D01*
X0039427Y0078941D01*
X0039652Y0079049D01*
X0039880Y0079152D01*
X0040111Y0079249D01*
X0040343Y0079341D01*
X0040578Y0079427D01*
X0040815Y0079508D01*
X0041053Y0079583D01*
X0041294Y0079652D01*
X0041536Y0079715D01*
X0041779Y0079772D01*
X0045716Y0079772D01*
X0045906Y0079774D01*
X0046096Y0079781D01*
X0046286Y0079793D01*
X0046476Y0079809D01*
X0046665Y0079829D01*
X0046854Y0079855D01*
X0047042Y0079884D01*
X0047229Y0079919D01*
X0047415Y0079958D01*
X0047600Y0080001D01*
X0047785Y0080049D01*
X0047968Y0080101D01*
X0048149Y0080157D01*
X0048329Y0080218D01*
X0048508Y0080284D01*
X0048685Y0080353D01*
X0048861Y0080427D01*
X0049034Y0080505D01*
X0049206Y0080588D01*
X0049375Y0080674D01*
X0049543Y0080764D01*
X0049708Y0080859D01*
X0049871Y0080957D01*
X0050031Y0081060D01*
X0050189Y0081166D01*
X0050344Y0081276D01*
X0050497Y0081389D01*
X0050647Y0081507D01*
X0050793Y0081628D01*
X0050937Y0081752D01*
X0051078Y0081880D01*
X0051216Y0082011D01*
X0051351Y0082146D01*
X0051482Y0082284D01*
X0051610Y0082425D01*
X0051734Y0082569D01*
X0051855Y0082715D01*
X0051973Y0082865D01*
X0052086Y0083018D01*
X0052196Y0083173D01*
X0052302Y0083331D01*
X0052405Y0083491D01*
X0052503Y0083654D01*
X0052598Y0083819D01*
X0052688Y0083987D01*
X0052774Y0084156D01*
X0052857Y0084328D01*
X0052935Y0084501D01*
X0053009Y0084677D01*
X0053078Y0084854D01*
X0053144Y0085033D01*
X0053205Y0085213D01*
X0053261Y0085394D01*
X0053313Y0085577D01*
X0053361Y0085762D01*
X0053404Y0085947D01*
X0053443Y0086133D01*
X0053478Y0086320D01*
X0053507Y0086508D01*
X0053533Y0086697D01*
X0053553Y0086886D01*
X0053569Y0087076D01*
X0053581Y0087266D01*
X0053588Y0087456D01*
X0053590Y0087646D01*
X0053590Y0138827D01*
X0053591Y0138827D02*
X0053522Y0139083D01*
X0053446Y0139338D01*
X0053365Y0139590D01*
X0053277Y0139841D01*
X0053184Y0140089D01*
X0053084Y0140336D01*
X0052978Y0140579D01*
X0052867Y0140820D01*
X0052749Y0141058D01*
X0052626Y0141294D01*
X0052498Y0141526D01*
X0052363Y0141755D01*
X0052223Y0141980D01*
X0052078Y0142203D01*
X0051927Y0142421D01*
X0051771Y0142636D01*
X0051610Y0142847D01*
X0051444Y0143054D01*
X0051273Y0143257D01*
X0051097Y0143456D01*
X0050916Y0143651D01*
X0050731Y0143841D01*
X0050541Y0144026D01*
X0050346Y0144207D01*
X0050147Y0144383D01*
X0049944Y0144554D01*
X0049737Y0144720D01*
X0049526Y0144881D01*
X0049311Y0145037D01*
X0049093Y0145188D01*
X0048870Y0145333D01*
X0048645Y0145473D01*
X0048416Y0145608D01*
X0048184Y0145736D01*
X0047948Y0145859D01*
X0047710Y0145977D01*
X0047469Y0146088D01*
X0047226Y0146194D01*
X0046979Y0146294D01*
X0046731Y0146387D01*
X0046480Y0146475D01*
X0046228Y0146556D01*
X0045973Y0146632D01*
X0045717Y0146701D01*
X0045716Y0146701D02*
X0041779Y0146701D01*
X0033905Y0154575D02*
X0033905Y0209693D01*
X0042272Y0209693D02*
X0042274Y0209840D01*
X0042280Y0209986D01*
X0042290Y0210132D01*
X0042304Y0210278D01*
X0042322Y0210424D01*
X0042343Y0210569D01*
X0042369Y0210713D01*
X0042399Y0210857D01*
X0042432Y0210999D01*
X0042469Y0211141D01*
X0042510Y0211282D01*
X0042555Y0211421D01*
X0042604Y0211560D01*
X0042656Y0211697D01*
X0042713Y0211832D01*
X0042772Y0211966D01*
X0042836Y0212098D01*
X0042903Y0212228D01*
X0042973Y0212357D01*
X0043047Y0212484D01*
X0043124Y0212608D01*
X0043205Y0212731D01*
X0043289Y0212851D01*
X0043376Y0212969D01*
X0043466Y0213084D01*
X0043559Y0213197D01*
X0043656Y0213308D01*
X0043755Y0213416D01*
X0043857Y0213521D01*
X0043962Y0213623D01*
X0044070Y0213722D01*
X0044181Y0213819D01*
X0044294Y0213912D01*
X0044409Y0214002D01*
X0044527Y0214089D01*
X0044647Y0214173D01*
X0044770Y0214254D01*
X0044894Y0214331D01*
X0045021Y0214405D01*
X0045150Y0214475D01*
X0045280Y0214542D01*
X0045412Y0214606D01*
X0045546Y0214665D01*
X0045681Y0214722D01*
X0045818Y0214774D01*
X0045957Y0214823D01*
X0046096Y0214868D01*
X0046237Y0214909D01*
X0046379Y0214946D01*
X0046521Y0214979D01*
X0046665Y0215009D01*
X0046809Y0215035D01*
X0046954Y0215056D01*
X0047100Y0215074D01*
X0047246Y0215088D01*
X0047392Y0215098D01*
X0047538Y0215104D01*
X0047685Y0215106D01*
X0047832Y0215104D01*
X0047978Y0215098D01*
X0048124Y0215088D01*
X0048270Y0215074D01*
X0048416Y0215056D01*
X0048561Y0215035D01*
X0048705Y0215009D01*
X0048849Y0214979D01*
X0048991Y0214946D01*
X0049133Y0214909D01*
X0049274Y0214868D01*
X0049413Y0214823D01*
X0049552Y0214774D01*
X0049689Y0214722D01*
X0049824Y0214665D01*
X0049958Y0214606D01*
X0050090Y0214542D01*
X0050220Y0214475D01*
X0050349Y0214405D01*
X0050476Y0214331D01*
X0050600Y0214254D01*
X0050723Y0214173D01*
X0050843Y0214089D01*
X0050961Y0214002D01*
X0051076Y0213912D01*
X0051189Y0213819D01*
X0051300Y0213722D01*
X0051408Y0213623D01*
X0051513Y0213521D01*
X0051615Y0213416D01*
X0051714Y0213308D01*
X0051811Y0213197D01*
X0051904Y0213084D01*
X0051994Y0212969D01*
X0052081Y0212851D01*
X0052165Y0212731D01*
X0052246Y0212608D01*
X0052323Y0212484D01*
X0052397Y0212357D01*
X0052467Y0212228D01*
X0052534Y0212098D01*
X0052598Y0211966D01*
X0052657Y0211832D01*
X0052714Y0211697D01*
X0052766Y0211560D01*
X0052815Y0211421D01*
X0052860Y0211282D01*
X0052901Y0211141D01*
X0052938Y0210999D01*
X0052971Y0210857D01*
X0053001Y0210713D01*
X0053027Y0210569D01*
X0053048Y0210424D01*
X0053066Y0210278D01*
X0053080Y0210132D01*
X0053090Y0209986D01*
X0053096Y0209840D01*
X0053098Y0209693D01*
X0053096Y0209546D01*
X0053090Y0209400D01*
X0053080Y0209254D01*
X0053066Y0209108D01*
X0053048Y0208962D01*
X0053027Y0208817D01*
X0053001Y0208673D01*
X0052971Y0208529D01*
X0052938Y0208387D01*
X0052901Y0208245D01*
X0052860Y0208104D01*
X0052815Y0207965D01*
X0052766Y0207826D01*
X0052714Y0207689D01*
X0052657Y0207554D01*
X0052598Y0207420D01*
X0052534Y0207288D01*
X0052467Y0207158D01*
X0052397Y0207029D01*
X0052323Y0206902D01*
X0052246Y0206778D01*
X0052165Y0206655D01*
X0052081Y0206535D01*
X0051994Y0206417D01*
X0051904Y0206302D01*
X0051811Y0206189D01*
X0051714Y0206078D01*
X0051615Y0205970D01*
X0051513Y0205865D01*
X0051408Y0205763D01*
X0051300Y0205664D01*
X0051189Y0205567D01*
X0051076Y0205474D01*
X0050961Y0205384D01*
X0050843Y0205297D01*
X0050723Y0205213D01*
X0050600Y0205132D01*
X0050476Y0205055D01*
X0050349Y0204981D01*
X0050220Y0204911D01*
X0050090Y0204844D01*
X0049958Y0204780D01*
X0049824Y0204721D01*
X0049689Y0204664D01*
X0049552Y0204612D01*
X0049413Y0204563D01*
X0049274Y0204518D01*
X0049133Y0204477D01*
X0048991Y0204440D01*
X0048849Y0204407D01*
X0048705Y0204377D01*
X0048561Y0204351D01*
X0048416Y0204330D01*
X0048270Y0204312D01*
X0048124Y0204298D01*
X0047978Y0204288D01*
X0047832Y0204282D01*
X0047685Y0204280D01*
X0047538Y0204282D01*
X0047392Y0204288D01*
X0047246Y0204298D01*
X0047100Y0204312D01*
X0046954Y0204330D01*
X0046809Y0204351D01*
X0046665Y0204377D01*
X0046521Y0204407D01*
X0046379Y0204440D01*
X0046237Y0204477D01*
X0046096Y0204518D01*
X0045957Y0204563D01*
X0045818Y0204612D01*
X0045681Y0204664D01*
X0045546Y0204721D01*
X0045412Y0204780D01*
X0045280Y0204844D01*
X0045150Y0204911D01*
X0045021Y0204981D01*
X0044894Y0205055D01*
X0044770Y0205132D01*
X0044647Y0205213D01*
X0044527Y0205297D01*
X0044409Y0205384D01*
X0044294Y0205474D01*
X0044181Y0205567D01*
X0044070Y0205664D01*
X0043962Y0205763D01*
X0043857Y0205865D01*
X0043755Y0205970D01*
X0043656Y0206078D01*
X0043559Y0206189D01*
X0043466Y0206302D01*
X0043376Y0206417D01*
X0043289Y0206535D01*
X0043205Y0206655D01*
X0043124Y0206778D01*
X0043047Y0206902D01*
X0042973Y0207029D01*
X0042903Y0207158D01*
X0042836Y0207288D01*
X0042772Y0207420D01*
X0042713Y0207554D01*
X0042656Y0207689D01*
X0042604Y0207826D01*
X0042555Y0207965D01*
X0042510Y0208104D01*
X0042469Y0208245D01*
X0042432Y0208387D01*
X0042399Y0208529D01*
X0042369Y0208673D01*
X0042343Y0208817D01*
X0042322Y0208962D01*
X0042304Y0209108D01*
X0042290Y0209254D01*
X0042280Y0209400D01*
X0042274Y0209546D01*
X0042272Y0209693D01*
X0033906Y0209693D02*
X0033862Y0210026D01*
X0033827Y0210361D01*
X0033800Y0210696D01*
X0033780Y0211032D01*
X0033769Y0211368D01*
X0033766Y0211704D01*
X0033771Y0212040D01*
X0033784Y0212377D01*
X0033806Y0212712D01*
X0033835Y0213047D01*
X0033873Y0213382D01*
X0033918Y0213715D01*
X0033972Y0214047D01*
X0034034Y0214378D01*
X0034103Y0214707D01*
X0034181Y0215034D01*
X0034266Y0215359D01*
X0034360Y0215682D01*
X0034461Y0216003D01*
X0034569Y0216321D01*
X0034686Y0216637D01*
X0034810Y0216950D01*
X0034941Y0217259D01*
X0035080Y0217566D01*
X0035227Y0217868D01*
X0035380Y0218168D01*
X0035541Y0218463D01*
X0035709Y0218755D01*
X0035884Y0219042D01*
X0036066Y0219325D01*
X0036254Y0219603D01*
X0036450Y0219877D01*
X0036652Y0220146D01*
X0036860Y0220410D01*
X0037074Y0220669D01*
X0037295Y0220923D01*
X0037522Y0221172D01*
X0037755Y0221414D01*
X0037993Y0221652D01*
X0038238Y0221883D01*
X0038487Y0222108D01*
X0038742Y0222327D01*
X0039003Y0222540D01*
X0039268Y0222747D01*
X0039539Y0222947D01*
X0039814Y0223141D01*
X0040093Y0223327D01*
X0040377Y0223507D01*
X0040666Y0223681D01*
X0040958Y0223847D01*
X0041255Y0224006D01*
X0041555Y0224157D01*
X0041859Y0224302D01*
X0042166Y0224439D01*
X0042476Y0224569D01*
X0042790Y0224691D01*
X0043106Y0224805D01*
X0043425Y0224912D01*
X0043746Y0225011D01*
X0044070Y0225102D01*
X0044396Y0225186D01*
X0044724Y0225261D01*
X0045053Y0225329D01*
X0045384Y0225389D01*
X0045717Y0225440D01*
X0045716Y0225441D02*
X0278000Y0225441D01*
X0277999Y0225440D02*
X0278332Y0225389D01*
X0278663Y0225329D01*
X0278992Y0225261D01*
X0279320Y0225186D01*
X0279646Y0225102D01*
X0279970Y0225011D01*
X0280291Y0224912D01*
X0280610Y0224805D01*
X0280926Y0224691D01*
X0281240Y0224569D01*
X0281550Y0224439D01*
X0281857Y0224302D01*
X0282161Y0224157D01*
X0282461Y0224006D01*
X0282758Y0223847D01*
X0283050Y0223681D01*
X0283339Y0223507D01*
X0283623Y0223327D01*
X0283902Y0223141D01*
X0284177Y0222947D01*
X0284448Y0222747D01*
X0284713Y0222540D01*
X0284974Y0222327D01*
X0285229Y0222108D01*
X0285478Y0221883D01*
X0285723Y0221652D01*
X0285961Y0221414D01*
X0286194Y0221172D01*
X0286421Y0220923D01*
X0286642Y0220669D01*
X0286856Y0220410D01*
X0287064Y0220146D01*
X0287266Y0219877D01*
X0287462Y0219603D01*
X0287650Y0219325D01*
X0287832Y0219042D01*
X0288007Y0218755D01*
X0288175Y0218463D01*
X0288336Y0218168D01*
X0288489Y0217868D01*
X0288636Y0217566D01*
X0288775Y0217259D01*
X0288906Y0216950D01*
X0289030Y0216637D01*
X0289147Y0216321D01*
X0289255Y0216003D01*
X0289356Y0215682D01*
X0289450Y0215359D01*
X0289535Y0215034D01*
X0289613Y0214707D01*
X0289682Y0214378D01*
X0289744Y0214047D01*
X0289798Y0213715D01*
X0289843Y0213382D01*
X0289881Y0213047D01*
X0289910Y0212712D01*
X0289932Y0212377D01*
X0289945Y0212040D01*
X0289950Y0211704D01*
X0289947Y0211368D01*
X0289936Y0211032D01*
X0289916Y0210696D01*
X0289889Y0210361D01*
X0289854Y0210026D01*
X0289810Y0209693D01*
X0289811Y0209693D02*
X0289811Y0014811D01*
X0289808Y0014526D01*
X0289797Y0014240D01*
X0289780Y0013955D01*
X0289756Y0013671D01*
X0289725Y0013387D01*
X0289687Y0013104D01*
X0289642Y0012823D01*
X0289591Y0012542D01*
X0289533Y0012262D01*
X0289468Y0011984D01*
X0289396Y0011708D01*
X0289318Y0011434D01*
X0289233Y0011161D01*
X0289141Y0010891D01*
X0289043Y0010623D01*
X0288939Y0010357D01*
X0288828Y0010094D01*
X0288711Y0009834D01*
X0288588Y0009576D01*
X0288458Y0009322D01*
X0288322Y0009071D01*
X0288181Y0008823D01*
X0288033Y0008579D01*
X0287880Y0008338D01*
X0287720Y0008102D01*
X0287555Y0007869D01*
X0287385Y0007640D01*
X0287209Y0007415D01*
X0287027Y0007195D01*
X0286841Y0006979D01*
X0286649Y0006768D01*
X0286452Y0006561D01*
X0286250Y0006359D01*
X0286043Y0006162D01*
X0285832Y0005970D01*
X0285616Y0005784D01*
X0285396Y0005602D01*
X0285171Y0005426D01*
X0284942Y0005256D01*
X0284709Y0005091D01*
X0284473Y0004931D01*
X0284232Y0004778D01*
X0283988Y0004630D01*
X0283740Y0004489D01*
X0283489Y0004353D01*
X0283235Y0004223D01*
X0282977Y0004100D01*
X0282717Y0003983D01*
X0282454Y0003872D01*
X0282188Y0003768D01*
X0281920Y0003670D01*
X0281650Y0003578D01*
X0281377Y0003493D01*
X0281103Y0003415D01*
X0280827Y0003343D01*
X0280549Y0003278D01*
X0280269Y0003220D01*
X0279988Y0003169D01*
X0279707Y0003124D01*
X0279424Y0003086D01*
X0279140Y0003055D01*
X0278856Y0003031D01*
X0278571Y0003014D01*
X0278285Y0003003D01*
X0278000Y0003000D01*
X0045716Y0003000D01*
X0045431Y0003003D01*
X0045145Y0003014D01*
X0044860Y0003031D01*
X0044576Y0003055D01*
X0044292Y0003086D01*
X0044009Y0003124D01*
X0043728Y0003169D01*
X0043447Y0003220D01*
X0043167Y0003278D01*
X0042889Y0003343D01*
X0042613Y0003415D01*
X0042339Y0003493D01*
X0042066Y0003578D01*
X0041796Y0003670D01*
X0041528Y0003768D01*
X0041262Y0003872D01*
X0040999Y0003983D01*
X0040739Y0004100D01*
X0040481Y0004223D01*
X0040227Y0004353D01*
X0039976Y0004489D01*
X0039728Y0004630D01*
X0039484Y0004778D01*
X0039243Y0004931D01*
X0039007Y0005091D01*
X0038774Y0005256D01*
X0038545Y0005426D01*
X0038320Y0005602D01*
X0038100Y0005784D01*
X0037884Y0005970D01*
X0037673Y0006162D01*
X0037466Y0006359D01*
X0037264Y0006561D01*
X0037067Y0006768D01*
X0036875Y0006979D01*
X0036689Y0007195D01*
X0036507Y0007415D01*
X0036331Y0007640D01*
X0036161Y0007869D01*
X0035996Y0008102D01*
X0035836Y0008338D01*
X0035683Y0008579D01*
X0035535Y0008823D01*
X0035394Y0009071D01*
X0035258Y0009322D01*
X0035128Y0009576D01*
X0035005Y0009834D01*
X0034888Y0010094D01*
X0034777Y0010357D01*
X0034673Y0010623D01*
X0034575Y0010891D01*
X0034483Y0011161D01*
X0034398Y0011434D01*
X0034320Y0011708D01*
X0034248Y0011984D01*
X0034183Y0012262D01*
X0034125Y0012542D01*
X0034074Y0012823D01*
X0034029Y0013104D01*
X0033991Y0013387D01*
X0033960Y0013671D01*
X0033936Y0013955D01*
X0033919Y0014240D01*
X0033908Y0014526D01*
X0033905Y0014811D01*
X0042272Y0016780D02*
X0042274Y0016927D01*
X0042280Y0017073D01*
X0042290Y0017219D01*
X0042304Y0017365D01*
X0042322Y0017511D01*
X0042343Y0017656D01*
X0042369Y0017800D01*
X0042399Y0017944D01*
X0042432Y0018086D01*
X0042469Y0018228D01*
X0042510Y0018369D01*
X0042555Y0018508D01*
X0042604Y0018647D01*
X0042656Y0018784D01*
X0042713Y0018919D01*
X0042772Y0019053D01*
X0042836Y0019185D01*
X0042903Y0019315D01*
X0042973Y0019444D01*
X0043047Y0019571D01*
X0043124Y0019695D01*
X0043205Y0019818D01*
X0043289Y0019938D01*
X0043376Y0020056D01*
X0043466Y0020171D01*
X0043559Y0020284D01*
X0043656Y0020395D01*
X0043755Y0020503D01*
X0043857Y0020608D01*
X0043962Y0020710D01*
X0044070Y0020809D01*
X0044181Y0020906D01*
X0044294Y0020999D01*
X0044409Y0021089D01*
X0044527Y0021176D01*
X0044647Y0021260D01*
X0044770Y0021341D01*
X0044894Y0021418D01*
X0045021Y0021492D01*
X0045150Y0021562D01*
X0045280Y0021629D01*
X0045412Y0021693D01*
X0045546Y0021752D01*
X0045681Y0021809D01*
X0045818Y0021861D01*
X0045957Y0021910D01*
X0046096Y0021955D01*
X0046237Y0021996D01*
X0046379Y0022033D01*
X0046521Y0022066D01*
X0046665Y0022096D01*
X0046809Y0022122D01*
X0046954Y0022143D01*
X0047100Y0022161D01*
X0047246Y0022175D01*
X0047392Y0022185D01*
X0047538Y0022191D01*
X0047685Y0022193D01*
X0047832Y0022191D01*
X0047978Y0022185D01*
X0048124Y0022175D01*
X0048270Y0022161D01*
X0048416Y0022143D01*
X0048561Y0022122D01*
X0048705Y0022096D01*
X0048849Y0022066D01*
X0048991Y0022033D01*
X0049133Y0021996D01*
X0049274Y0021955D01*
X0049413Y0021910D01*
X0049552Y0021861D01*
X0049689Y0021809D01*
X0049824Y0021752D01*
X0049958Y0021693D01*
X0050090Y0021629D01*
X0050220Y0021562D01*
X0050349Y0021492D01*
X0050476Y0021418D01*
X0050600Y0021341D01*
X0050723Y0021260D01*
X0050843Y0021176D01*
X0050961Y0021089D01*
X0051076Y0020999D01*
X0051189Y0020906D01*
X0051300Y0020809D01*
X0051408Y0020710D01*
X0051513Y0020608D01*
X0051615Y0020503D01*
X0051714Y0020395D01*
X0051811Y0020284D01*
X0051904Y0020171D01*
X0051994Y0020056D01*
X0052081Y0019938D01*
X0052165Y0019818D01*
X0052246Y0019695D01*
X0052323Y0019571D01*
X0052397Y0019444D01*
X0052467Y0019315D01*
X0052534Y0019185D01*
X0052598Y0019053D01*
X0052657Y0018919D01*
X0052714Y0018784D01*
X0052766Y0018647D01*
X0052815Y0018508D01*
X0052860Y0018369D01*
X0052901Y0018228D01*
X0052938Y0018086D01*
X0052971Y0017944D01*
X0053001Y0017800D01*
X0053027Y0017656D01*
X0053048Y0017511D01*
X0053066Y0017365D01*
X0053080Y0017219D01*
X0053090Y0017073D01*
X0053096Y0016927D01*
X0053098Y0016780D01*
X0053096Y0016633D01*
X0053090Y0016487D01*
X0053080Y0016341D01*
X0053066Y0016195D01*
X0053048Y0016049D01*
X0053027Y0015904D01*
X0053001Y0015760D01*
X0052971Y0015616D01*
X0052938Y0015474D01*
X0052901Y0015332D01*
X0052860Y0015191D01*
X0052815Y0015052D01*
X0052766Y0014913D01*
X0052714Y0014776D01*
X0052657Y0014641D01*
X0052598Y0014507D01*
X0052534Y0014375D01*
X0052467Y0014245D01*
X0052397Y0014116D01*
X0052323Y0013989D01*
X0052246Y0013865D01*
X0052165Y0013742D01*
X0052081Y0013622D01*
X0051994Y0013504D01*
X0051904Y0013389D01*
X0051811Y0013276D01*
X0051714Y0013165D01*
X0051615Y0013057D01*
X0051513Y0012952D01*
X0051408Y0012850D01*
X0051300Y0012751D01*
X0051189Y0012654D01*
X0051076Y0012561D01*
X0050961Y0012471D01*
X0050843Y0012384D01*
X0050723Y0012300D01*
X0050600Y0012219D01*
X0050476Y0012142D01*
X0050349Y0012068D01*
X0050220Y0011998D01*
X0050090Y0011931D01*
X0049958Y0011867D01*
X0049824Y0011808D01*
X0049689Y0011751D01*
X0049552Y0011699D01*
X0049413Y0011650D01*
X0049274Y0011605D01*
X0049133Y0011564D01*
X0048991Y0011527D01*
X0048849Y0011494D01*
X0048705Y0011464D01*
X0048561Y0011438D01*
X0048416Y0011417D01*
X0048270Y0011399D01*
X0048124Y0011385D01*
X0047978Y0011375D01*
X0047832Y0011369D01*
X0047685Y0011367D01*
X0047538Y0011369D01*
X0047392Y0011375D01*
X0047246Y0011385D01*
X0047100Y0011399D01*
X0046954Y0011417D01*
X0046809Y0011438D01*
X0046665Y0011464D01*
X0046521Y0011494D01*
X0046379Y0011527D01*
X0046237Y0011564D01*
X0046096Y0011605D01*
X0045957Y0011650D01*
X0045818Y0011699D01*
X0045681Y0011751D01*
X0045546Y0011808D01*
X0045412Y0011867D01*
X0045280Y0011931D01*
X0045150Y0011998D01*
X0045021Y0012068D01*
X0044894Y0012142D01*
X0044770Y0012219D01*
X0044647Y0012300D01*
X0044527Y0012384D01*
X0044409Y0012471D01*
X0044294Y0012561D01*
X0044181Y0012654D01*
X0044070Y0012751D01*
X0043962Y0012850D01*
X0043857Y0012952D01*
X0043755Y0013057D01*
X0043656Y0013165D01*
X0043559Y0013276D01*
X0043466Y0013389D01*
X0043376Y0013504D01*
X0043289Y0013622D01*
X0043205Y0013742D01*
X0043124Y0013865D01*
X0043047Y0013989D01*
X0042973Y0014116D01*
X0042903Y0014245D01*
X0042836Y0014375D01*
X0042772Y0014507D01*
X0042713Y0014641D01*
X0042656Y0014776D01*
X0042604Y0014913D01*
X0042555Y0015052D01*
X0042510Y0015191D01*
X0042469Y0015332D01*
X0042432Y0015474D01*
X0042399Y0015616D01*
X0042369Y0015760D01*
X0042343Y0015904D01*
X0042322Y0016049D01*
X0042304Y0016195D01*
X0042290Y0016341D01*
X0042280Y0016487D01*
X0042274Y0016633D01*
X0042272Y0016780D01*
X0207134Y0018748D02*
X0207134Y0077803D01*
X0207136Y0077927D01*
X0207142Y0078050D01*
X0207151Y0078174D01*
X0207165Y0078296D01*
X0207182Y0078419D01*
X0207204Y0078541D01*
X0207229Y0078662D01*
X0207258Y0078782D01*
X0207290Y0078901D01*
X0207327Y0079020D01*
X0207367Y0079137D01*
X0207410Y0079252D01*
X0207458Y0079367D01*
X0207509Y0079479D01*
X0207563Y0079590D01*
X0207621Y0079700D01*
X0207682Y0079807D01*
X0207747Y0079913D01*
X0207815Y0080016D01*
X0207886Y0080117D01*
X0207960Y0080216D01*
X0208037Y0080313D01*
X0208118Y0080407D01*
X0208201Y0080498D01*
X0208287Y0080587D01*
X0208376Y0080673D01*
X0208467Y0080756D01*
X0208561Y0080837D01*
X0208658Y0080914D01*
X0208757Y0080988D01*
X0208858Y0081059D01*
X0208961Y0081127D01*
X0209067Y0081192D01*
X0209174Y0081253D01*
X0209284Y0081311D01*
X0209395Y0081365D01*
X0209507Y0081416D01*
X0209622Y0081464D01*
X0209737Y0081507D01*
X0209854Y0081547D01*
X0209973Y0081584D01*
X0210092Y0081616D01*
X0210212Y0081645D01*
X0210333Y0081670D01*
X0210455Y0081692D01*
X0210578Y0081709D01*
X0210700Y0081723D01*
X0210824Y0081732D01*
X0210947Y0081738D01*
X0211071Y0081740D01*
X0211195Y0081738D01*
X0211318Y0081732D01*
X0211442Y0081723D01*
X0211564Y0081709D01*
X0211687Y0081692D01*
X0211809Y0081670D01*
X0211930Y0081645D01*
X0212050Y0081616D01*
X0212169Y0081584D01*
X0212288Y0081547D01*
X0212405Y0081507D01*
X0212520Y0081464D01*
X0212635Y0081416D01*
X0212747Y0081365D01*
X0212858Y0081311D01*
X0212968Y0081253D01*
X0213075Y0081192D01*
X0213181Y0081127D01*
X0213284Y0081059D01*
X0213385Y0080988D01*
X0213484Y0080914D01*
X0213581Y0080837D01*
X0213675Y0080756D01*
X0213766Y0080673D01*
X0213855Y0080587D01*
X0213941Y0080498D01*
X0214024Y0080407D01*
X0214105Y0080313D01*
X0214182Y0080216D01*
X0214256Y0080117D01*
X0214327Y0080016D01*
X0214395Y0079913D01*
X0214460Y0079807D01*
X0214521Y0079700D01*
X0214579Y0079590D01*
X0214633Y0079479D01*
X0214684Y0079367D01*
X0214732Y0079252D01*
X0214775Y0079137D01*
X0214815Y0079020D01*
X0214852Y0078901D01*
X0214884Y0078782D01*
X0214913Y0078662D01*
X0214938Y0078541D01*
X0214960Y0078419D01*
X0214977Y0078296D01*
X0214991Y0078174D01*
X0215000Y0078050D01*
X0215006Y0077927D01*
X0215008Y0077803D01*
X0215008Y0018748D01*
X0211071Y0014811D02*
X0210947Y0014813D01*
X0210824Y0014819D01*
X0210700Y0014828D01*
X0210578Y0014842D01*
X0210455Y0014859D01*
X0210333Y0014881D01*
X0210212Y0014906D01*
X0210092Y0014935D01*
X0209973Y0014967D01*
X0209854Y0015004D01*
X0209737Y0015044D01*
X0209622Y0015087D01*
X0209507Y0015135D01*
X0209395Y0015186D01*
X0209284Y0015240D01*
X0209174Y0015298D01*
X0209067Y0015359D01*
X0208961Y0015424D01*
X0208858Y0015492D01*
X0208757Y0015563D01*
X0208658Y0015637D01*
X0208561Y0015714D01*
X0208467Y0015795D01*
X0208376Y0015878D01*
X0208287Y0015964D01*
X0208201Y0016053D01*
X0208118Y0016144D01*
X0208037Y0016238D01*
X0207960Y0016335D01*
X0207886Y0016434D01*
X0207815Y0016535D01*
X0207747Y0016638D01*
X0207682Y0016744D01*
X0207621Y0016851D01*
X0207563Y0016961D01*
X0207509Y0017072D01*
X0207458Y0017184D01*
X0207410Y0017299D01*
X0207367Y0017414D01*
X0207327Y0017531D01*
X0207290Y0017650D01*
X0207258Y0017769D01*
X0207229Y0017889D01*
X0207204Y0018010D01*
X0207182Y0018132D01*
X0207165Y0018255D01*
X0207151Y0018377D01*
X0207142Y0018501D01*
X0207136Y0018624D01*
X0207134Y0018748D01*
X0211071Y0014811D02*
X0211195Y0014813D01*
X0211318Y0014819D01*
X0211442Y0014828D01*
X0211564Y0014842D01*
X0211687Y0014859D01*
X0211809Y0014881D01*
X0211930Y0014906D01*
X0212050Y0014935D01*
X0212169Y0014967D01*
X0212288Y0015004D01*
X0212405Y0015044D01*
X0212520Y0015087D01*
X0212635Y0015135D01*
X0212747Y0015186D01*
X0212858Y0015240D01*
X0212968Y0015298D01*
X0213075Y0015359D01*
X0213181Y0015424D01*
X0213284Y0015492D01*
X0213385Y0015563D01*
X0213484Y0015637D01*
X0213581Y0015714D01*
X0213675Y0015795D01*
X0213766Y0015878D01*
X0213855Y0015964D01*
X0213941Y0016053D01*
X0214024Y0016144D01*
X0214105Y0016238D01*
X0214182Y0016335D01*
X0214256Y0016434D01*
X0214327Y0016535D01*
X0214395Y0016638D01*
X0214460Y0016744D01*
X0214521Y0016851D01*
X0214579Y0016961D01*
X0214633Y0017072D01*
X0214684Y0017184D01*
X0214732Y0017299D01*
X0214775Y0017414D01*
X0214815Y0017531D01*
X0214852Y0017650D01*
X0214884Y0017769D01*
X0214913Y0017889D01*
X0214938Y0018010D01*
X0214960Y0018132D01*
X0214977Y0018255D01*
X0214991Y0018377D01*
X0215000Y0018501D01*
X0215006Y0018624D01*
X0215008Y0018748D01*
X0270618Y0016780D02*
X0270620Y0016927D01*
X0270626Y0017073D01*
X0270636Y0017219D01*
X0270650Y0017365D01*
X0270668Y0017511D01*
X0270689Y0017656D01*
X0270715Y0017800D01*
X0270745Y0017944D01*
X0270778Y0018086D01*
X0270815Y0018228D01*
X0270856Y0018369D01*
X0270901Y0018508D01*
X0270950Y0018647D01*
X0271002Y0018784D01*
X0271059Y0018919D01*
X0271118Y0019053D01*
X0271182Y0019185D01*
X0271249Y0019315D01*
X0271319Y0019444D01*
X0271393Y0019571D01*
X0271470Y0019695D01*
X0271551Y0019818D01*
X0271635Y0019938D01*
X0271722Y0020056D01*
X0271812Y0020171D01*
X0271905Y0020284D01*
X0272002Y0020395D01*
X0272101Y0020503D01*
X0272203Y0020608D01*
X0272308Y0020710D01*
X0272416Y0020809D01*
X0272527Y0020906D01*
X0272640Y0020999D01*
X0272755Y0021089D01*
X0272873Y0021176D01*
X0272993Y0021260D01*
X0273116Y0021341D01*
X0273240Y0021418D01*
X0273367Y0021492D01*
X0273496Y0021562D01*
X0273626Y0021629D01*
X0273758Y0021693D01*
X0273892Y0021752D01*
X0274027Y0021809D01*
X0274164Y0021861D01*
X0274303Y0021910D01*
X0274442Y0021955D01*
X0274583Y0021996D01*
X0274725Y0022033D01*
X0274867Y0022066D01*
X0275011Y0022096D01*
X0275155Y0022122D01*
X0275300Y0022143D01*
X0275446Y0022161D01*
X0275592Y0022175D01*
X0275738Y0022185D01*
X0275884Y0022191D01*
X0276031Y0022193D01*
X0276178Y0022191D01*
X0276324Y0022185D01*
X0276470Y0022175D01*
X0276616Y0022161D01*
X0276762Y0022143D01*
X0276907Y0022122D01*
X0277051Y0022096D01*
X0277195Y0022066D01*
X0277337Y0022033D01*
X0277479Y0021996D01*
X0277620Y0021955D01*
X0277759Y0021910D01*
X0277898Y0021861D01*
X0278035Y0021809D01*
X0278170Y0021752D01*
X0278304Y0021693D01*
X0278436Y0021629D01*
X0278566Y0021562D01*
X0278695Y0021492D01*
X0278822Y0021418D01*
X0278946Y0021341D01*
X0279069Y0021260D01*
X0279189Y0021176D01*
X0279307Y0021089D01*
X0279422Y0020999D01*
X0279535Y0020906D01*
X0279646Y0020809D01*
X0279754Y0020710D01*
X0279859Y0020608D01*
X0279961Y0020503D01*
X0280060Y0020395D01*
X0280157Y0020284D01*
X0280250Y0020171D01*
X0280340Y0020056D01*
X0280427Y0019938D01*
X0280511Y0019818D01*
X0280592Y0019695D01*
X0280669Y0019571D01*
X0280743Y0019444D01*
X0280813Y0019315D01*
X0280880Y0019185D01*
X0280944Y0019053D01*
X0281003Y0018919D01*
X0281060Y0018784D01*
X0281112Y0018647D01*
X0281161Y0018508D01*
X0281206Y0018369D01*
X0281247Y0018228D01*
X0281284Y0018086D01*
X0281317Y0017944D01*
X0281347Y0017800D01*
X0281373Y0017656D01*
X0281394Y0017511D01*
X0281412Y0017365D01*
X0281426Y0017219D01*
X0281436Y0017073D01*
X0281442Y0016927D01*
X0281444Y0016780D01*
X0281442Y0016633D01*
X0281436Y0016487D01*
X0281426Y0016341D01*
X0281412Y0016195D01*
X0281394Y0016049D01*
X0281373Y0015904D01*
X0281347Y0015760D01*
X0281317Y0015616D01*
X0281284Y0015474D01*
X0281247Y0015332D01*
X0281206Y0015191D01*
X0281161Y0015052D01*
X0281112Y0014913D01*
X0281060Y0014776D01*
X0281003Y0014641D01*
X0280944Y0014507D01*
X0280880Y0014375D01*
X0280813Y0014245D01*
X0280743Y0014116D01*
X0280669Y0013989D01*
X0280592Y0013865D01*
X0280511Y0013742D01*
X0280427Y0013622D01*
X0280340Y0013504D01*
X0280250Y0013389D01*
X0280157Y0013276D01*
X0280060Y0013165D01*
X0279961Y0013057D01*
X0279859Y0012952D01*
X0279754Y0012850D01*
X0279646Y0012751D01*
X0279535Y0012654D01*
X0279422Y0012561D01*
X0279307Y0012471D01*
X0279189Y0012384D01*
X0279069Y0012300D01*
X0278946Y0012219D01*
X0278822Y0012142D01*
X0278695Y0012068D01*
X0278566Y0011998D01*
X0278436Y0011931D01*
X0278304Y0011867D01*
X0278170Y0011808D01*
X0278035Y0011751D01*
X0277898Y0011699D01*
X0277759Y0011650D01*
X0277620Y0011605D01*
X0277479Y0011564D01*
X0277337Y0011527D01*
X0277195Y0011494D01*
X0277051Y0011464D01*
X0276907Y0011438D01*
X0276762Y0011417D01*
X0276616Y0011399D01*
X0276470Y0011385D01*
X0276324Y0011375D01*
X0276178Y0011369D01*
X0276031Y0011367D01*
X0275884Y0011369D01*
X0275738Y0011375D01*
X0275592Y0011385D01*
X0275446Y0011399D01*
X0275300Y0011417D01*
X0275155Y0011438D01*
X0275011Y0011464D01*
X0274867Y0011494D01*
X0274725Y0011527D01*
X0274583Y0011564D01*
X0274442Y0011605D01*
X0274303Y0011650D01*
X0274164Y0011699D01*
X0274027Y0011751D01*
X0273892Y0011808D01*
X0273758Y0011867D01*
X0273626Y0011931D01*
X0273496Y0011998D01*
X0273367Y0012068D01*
X0273240Y0012142D01*
X0273116Y0012219D01*
X0272993Y0012300D01*
X0272873Y0012384D01*
X0272755Y0012471D01*
X0272640Y0012561D01*
X0272527Y0012654D01*
X0272416Y0012751D01*
X0272308Y0012850D01*
X0272203Y0012952D01*
X0272101Y0013057D01*
X0272002Y0013165D01*
X0271905Y0013276D01*
X0271812Y0013389D01*
X0271722Y0013504D01*
X0271635Y0013622D01*
X0271551Y0013742D01*
X0271470Y0013865D01*
X0271393Y0013989D01*
X0271319Y0014116D01*
X0271249Y0014245D01*
X0271182Y0014375D01*
X0271118Y0014507D01*
X0271059Y0014641D01*
X0271002Y0014776D01*
X0270950Y0014913D01*
X0270901Y0015052D01*
X0270856Y0015191D01*
X0270815Y0015332D01*
X0270778Y0015474D01*
X0270745Y0015616D01*
X0270715Y0015760D01*
X0270689Y0015904D01*
X0270668Y0016049D01*
X0270650Y0016195D01*
X0270636Y0016341D01*
X0270626Y0016487D01*
X0270620Y0016633D01*
X0270618Y0016780D01*
X0041779Y0146700D02*
X0041523Y0146769D01*
X0041268Y0146845D01*
X0041016Y0146926D01*
X0040765Y0147014D01*
X0040517Y0147107D01*
X0040270Y0147207D01*
X0040027Y0147313D01*
X0039786Y0147424D01*
X0039548Y0147542D01*
X0039312Y0147665D01*
X0039080Y0147793D01*
X0038851Y0147928D01*
X0038626Y0148068D01*
X0038403Y0148213D01*
X0038185Y0148364D01*
X0037970Y0148520D01*
X0037759Y0148681D01*
X0037552Y0148847D01*
X0037349Y0149018D01*
X0037150Y0149194D01*
X0036955Y0149375D01*
X0036765Y0149560D01*
X0036580Y0149750D01*
X0036399Y0149945D01*
X0036223Y0150144D01*
X0036052Y0150347D01*
X0035886Y0150554D01*
X0035725Y0150765D01*
X0035569Y0150980D01*
X0035418Y0151198D01*
X0035273Y0151421D01*
X0035133Y0151646D01*
X0034998Y0151875D01*
X0034870Y0152107D01*
X0034747Y0152343D01*
X0034629Y0152581D01*
X0034518Y0152822D01*
X0034412Y0153065D01*
X0034312Y0153312D01*
X0034219Y0153560D01*
X0034131Y0153811D01*
X0034050Y0154063D01*
X0033974Y0154318D01*
X0033905Y0154574D01*
X0270618Y0209693D02*
X0270620Y0209840D01*
X0270626Y0209986D01*
X0270636Y0210132D01*
X0270650Y0210278D01*
X0270668Y0210424D01*
X0270689Y0210569D01*
X0270715Y0210713D01*
X0270745Y0210857D01*
X0270778Y0210999D01*
X0270815Y0211141D01*
X0270856Y0211282D01*
X0270901Y0211421D01*
X0270950Y0211560D01*
X0271002Y0211697D01*
X0271059Y0211832D01*
X0271118Y0211966D01*
X0271182Y0212098D01*
X0271249Y0212228D01*
X0271319Y0212357D01*
X0271393Y0212484D01*
X0271470Y0212608D01*
X0271551Y0212731D01*
X0271635Y0212851D01*
X0271722Y0212969D01*
X0271812Y0213084D01*
X0271905Y0213197D01*
X0272002Y0213308D01*
X0272101Y0213416D01*
X0272203Y0213521D01*
X0272308Y0213623D01*
X0272416Y0213722D01*
X0272527Y0213819D01*
X0272640Y0213912D01*
X0272755Y0214002D01*
X0272873Y0214089D01*
X0272993Y0214173D01*
X0273116Y0214254D01*
X0273240Y0214331D01*
X0273367Y0214405D01*
X0273496Y0214475D01*
X0273626Y0214542D01*
X0273758Y0214606D01*
X0273892Y0214665D01*
X0274027Y0214722D01*
X0274164Y0214774D01*
X0274303Y0214823D01*
X0274442Y0214868D01*
X0274583Y0214909D01*
X0274725Y0214946D01*
X0274867Y0214979D01*
X0275011Y0215009D01*
X0275155Y0215035D01*
X0275300Y0215056D01*
X0275446Y0215074D01*
X0275592Y0215088D01*
X0275738Y0215098D01*
X0275884Y0215104D01*
X0276031Y0215106D01*
X0276178Y0215104D01*
X0276324Y0215098D01*
X0276470Y0215088D01*
X0276616Y0215074D01*
X0276762Y0215056D01*
X0276907Y0215035D01*
X0277051Y0215009D01*
X0277195Y0214979D01*
X0277337Y0214946D01*
X0277479Y0214909D01*
X0277620Y0214868D01*
X0277759Y0214823D01*
X0277898Y0214774D01*
X0278035Y0214722D01*
X0278170Y0214665D01*
X0278304Y0214606D01*
X0278436Y0214542D01*
X0278566Y0214475D01*
X0278695Y0214405D01*
X0278822Y0214331D01*
X0278946Y0214254D01*
X0279069Y0214173D01*
X0279189Y0214089D01*
X0279307Y0214002D01*
X0279422Y0213912D01*
X0279535Y0213819D01*
X0279646Y0213722D01*
X0279754Y0213623D01*
X0279859Y0213521D01*
X0279961Y0213416D01*
X0280060Y0213308D01*
X0280157Y0213197D01*
X0280250Y0213084D01*
X0280340Y0212969D01*
X0280427Y0212851D01*
X0280511Y0212731D01*
X0280592Y0212608D01*
X0280669Y0212484D01*
X0280743Y0212357D01*
X0280813Y0212228D01*
X0280880Y0212098D01*
X0280944Y0211966D01*
X0281003Y0211832D01*
X0281060Y0211697D01*
X0281112Y0211560D01*
X0281161Y0211421D01*
X0281206Y0211282D01*
X0281247Y0211141D01*
X0281284Y0210999D01*
X0281317Y0210857D01*
X0281347Y0210713D01*
X0281373Y0210569D01*
X0281394Y0210424D01*
X0281412Y0210278D01*
X0281426Y0210132D01*
X0281436Y0209986D01*
X0281442Y0209840D01*
X0281444Y0209693D01*
X0281442Y0209546D01*
X0281436Y0209400D01*
X0281426Y0209254D01*
X0281412Y0209108D01*
X0281394Y0208962D01*
X0281373Y0208817D01*
X0281347Y0208673D01*
X0281317Y0208529D01*
X0281284Y0208387D01*
X0281247Y0208245D01*
X0281206Y0208104D01*
X0281161Y0207965D01*
X0281112Y0207826D01*
X0281060Y0207689D01*
X0281003Y0207554D01*
X0280944Y0207420D01*
X0280880Y0207288D01*
X0280813Y0207158D01*
X0280743Y0207029D01*
X0280669Y0206902D01*
X0280592Y0206778D01*
X0280511Y0206655D01*
X0280427Y0206535D01*
X0280340Y0206417D01*
X0280250Y0206302D01*
X0280157Y0206189D01*
X0280060Y0206078D01*
X0279961Y0205970D01*
X0279859Y0205865D01*
X0279754Y0205763D01*
X0279646Y0205664D01*
X0279535Y0205567D01*
X0279422Y0205474D01*
X0279307Y0205384D01*
X0279189Y0205297D01*
X0279069Y0205213D01*
X0278946Y0205132D01*
X0278822Y0205055D01*
X0278695Y0204981D01*
X0278566Y0204911D01*
X0278436Y0204844D01*
X0278304Y0204780D01*
X0278170Y0204721D01*
X0278035Y0204664D01*
X0277898Y0204612D01*
X0277759Y0204563D01*
X0277620Y0204518D01*
X0277479Y0204477D01*
X0277337Y0204440D01*
X0277195Y0204407D01*
X0277051Y0204377D01*
X0276907Y0204351D01*
X0276762Y0204330D01*
X0276616Y0204312D01*
X0276470Y0204298D01*
X0276324Y0204288D01*
X0276178Y0204282D01*
X0276031Y0204280D01*
X0275884Y0204282D01*
X0275738Y0204288D01*
X0275592Y0204298D01*
X0275446Y0204312D01*
X0275300Y0204330D01*
X0275155Y0204351D01*
X0275011Y0204377D01*
X0274867Y0204407D01*
X0274725Y0204440D01*
X0274583Y0204477D01*
X0274442Y0204518D01*
X0274303Y0204563D01*
X0274164Y0204612D01*
X0274027Y0204664D01*
X0273892Y0204721D01*
X0273758Y0204780D01*
X0273626Y0204844D01*
X0273496Y0204911D01*
X0273367Y0204981D01*
X0273240Y0205055D01*
X0273116Y0205132D01*
X0272993Y0205213D01*
X0272873Y0205297D01*
X0272755Y0205384D01*
X0272640Y0205474D01*
X0272527Y0205567D01*
X0272416Y0205664D01*
X0272308Y0205763D01*
X0272203Y0205865D01*
X0272101Y0205970D01*
X0272002Y0206078D01*
X0271905Y0206189D01*
X0271812Y0206302D01*
X0271722Y0206417D01*
X0271635Y0206535D01*
X0271551Y0206655D01*
X0271470Y0206778D01*
X0271393Y0206902D01*
X0271319Y0207029D01*
X0271249Y0207158D01*
X0271182Y0207288D01*
X0271118Y0207420D01*
X0271059Y0207554D01*
X0271002Y0207689D01*
X0270950Y0207826D01*
X0270901Y0207965D01*
X0270856Y0208104D01*
X0270815Y0208245D01*
X0270778Y0208387D01*
X0270745Y0208529D01*
X0270715Y0208673D01*
X0270689Y0208817D01*
X0270668Y0208962D01*
X0270650Y0209108D01*
X0270636Y0209254D01*
X0270626Y0209400D01*
X0270620Y0209546D01*
X0270618Y0209693D01*
D11*
X0262094Y0053354D03*
X0272094Y0043354D03*
X0262094Y0033354D03*
X0282094Y0033354D03*
X0282094Y0053354D03*
D12*
X0055559Y0184102D03*
D13*
X0047685Y0184102D03*
X0047685Y0176228D03*
X0055559Y0176228D03*
X0055559Y0168354D03*
X0047685Y0168354D03*
D14*
X0050637Y0060087D03*
X0050637Y0040402D03*
D15*
X0168417Y0100441D02*
X0177267Y0100441D01*
X0177267Y0128945D02*
X0168417Y0128945D01*
X0228417Y0128945D02*
X0237267Y0128945D01*
X0237267Y0100441D02*
X0228417Y0100441D01*
D16*
X0171700Y0079929D03*
X0171700Y0059929D03*
X0171700Y0141819D03*
X0171700Y0161819D03*
D17*
X0195323Y0161543D03*
X0195323Y0169260D03*
X0201602Y0169339D03*
X0209102Y0174339D03*
X0209102Y0164339D03*
X0195323Y0151543D03*
X0195323Y0179260D03*
D18*
X0155051Y0161874D03*
X0155051Y0151874D03*
X0155051Y0119874D03*
X0155051Y0109874D03*
X0155051Y0079591D03*
X0155051Y0069591D03*
X0155051Y0037591D03*
X0155051Y0027591D03*
X0082051Y0027591D03*
X0082051Y0037591D03*
X0082051Y0069591D03*
X0082051Y0079591D03*
X0082051Y0109874D03*
X0082051Y0119874D03*
X0082051Y0151874D03*
X0082051Y0161874D03*
D19*
X0068945Y0154258D02*
X0068945Y0149458D01*
X0068945Y0124258D02*
X0068945Y0119458D01*
X0068945Y0111935D02*
X0068945Y0107135D01*
X0068945Y0081935D02*
X0068945Y0077135D01*
D20*
X0221740Y0146031D03*
X0221740Y0156031D03*
D21*
X0244141Y0159457D02*
X0248866Y0159457D01*
X0248866Y0169457D02*
X0244141Y0169457D01*
X0244141Y0179457D02*
X0248866Y0179457D01*
X0248866Y0149457D02*
X0244141Y0149457D01*
X0244141Y0049457D02*
X0248866Y0049457D01*
X0248866Y0039457D02*
X0244141Y0039457D01*
X0244141Y0029457D02*
X0248866Y0029457D01*
D22*
X0246504Y0019457D03*
M02*
