%
M48
M72
T01C0.03150
T02C0.02362
T03C0.01969
T04C0.02756
T05C0.03937
T06C0.03543
T07C0.05118
T08C0.04331
T09C0.10827
%
T01
X73275Y138079
X73275Y98709
X73275Y108079
X73275Y68709
T02
X116386Y183272
X116386Y174772
X116386Y166272
X209102Y164339
X201602Y169339
X209102Y174339
T03
X96897Y166504
X96897Y186504
X133315Y186504
X133315Y166504
X199181Y185087
X209181Y185087
X217960Y149339
X217960Y139339
T04
X175441Y54457
X175441Y74457
X175441Y137213
X175441Y157213
X62449Y168354
X62449Y176228
X70323Y176228
X70323Y184102
X70323Y168354
X62449Y184102
T05
X87956Y154000
X87956Y144000
X87956Y112000
X87956Y102000
X87956Y71717
X87956Y61717
X87956Y29717
X87956Y19717
X160956Y19717
X160956Y29717
X160956Y61717
X160956Y71717
X160956Y102000
X160956Y112000
X160956Y144000
X160956Y154000
X272094Y43354
T06
X234693Y49457
X234693Y39457
X234693Y29457
X234693Y19457
X234693Y149457
X234693Y159457
X234693Y169457
X234693Y179457
T07
X48866Y60087
X48866Y40402
X262094Y33354
X282094Y33354
X282094Y53354
X262094Y53354
T08
X193354Y14535
X193354Y74535
X193354Y97213
X193354Y157213
T09
X47685Y16780
X276031Y16780
X276031Y209693
X47685Y209693
M30
