G04 This is an RS-274x file exported by *
G04 gerbv version 2.6A *
G04 More information is available about gerbv at *
G04 http://gerbv.geda-project.org/ *
G04 --End of header info--*
%MOIN*%
%FSLAX34Y34*%
%IPPOS*%
G04 --Define apertures--*
%ADD10C,0.0000*%
%ADD11C,0.1083*%
%ADD12C,0.2441*%
%ADD13C,0.1000*%
%ADD14R,0.0540X0.0540*%
%ADD15C,0.0540*%
%ADD16C,0.0768*%
%ADD17C,0.0885*%
%ADD18C,0.0740*%
%AMMACRO19*
5,1,8,0.000000,0.000000,0.051955,22.500000*
%
%ADD19MACRO19*%
%ADD20R,0.0984X0.0984*%
%ADD21C,0.0669*%
%AMMACRO22*
5,1,8,0.000000,0.000000,0.068191,22.500000*
%
%ADD22MACRO22*%
%ADD23C,0.0472*%
%ADD24C,0.0700*%
%AMMACRO25*
5,1,8,0.000000,0.000000,0.071438,22.500000*
%
%ADD25MACRO25*%
G04 --Start main section--*
G54D10*
G01X0003391Y0001481D02*
G01X0003391Y0007584D01*
G01X0003391Y0007584D02*
G01X0003391Y0007596D01*
G01X0003391Y0007596D02*
G01X0003391Y0007608D01*
G01X0003391Y0007608D02*
G01X0003392Y0007621D01*
G01X0003392Y0007621D02*
G01X0003394Y0007633D01*
G01X0003394Y0007633D02*
G01X0003395Y0007645D01*
G01X0003395Y0007645D02*
G01X0003398Y0007657D01*
G01X0003398Y0007657D02*
G01X0003400Y0007669D01*
G01X0003400Y0007669D02*
G01X0003403Y0007681D01*
G01X0003403Y0007681D02*
G01X0003406Y0007693D01*
G01X0003406Y0007693D02*
G01X0003410Y0007705D01*
G01X0003410Y0007705D02*
G01X0003414Y0007717D01*
G01X0003414Y0007717D02*
G01X0003418Y0007728D01*
G01X0003418Y0007728D02*
G01X0003423Y0007740D01*
G01X0003423Y0007740D02*
G01X0003428Y0007751D01*
G01X0003428Y0007751D02*
G01X0003433Y0007762D01*
G01X0003433Y0007762D02*
G01X0003439Y0007773D01*
G01X0003439Y0007773D02*
G01X0003445Y0007784D01*
G01X0003445Y0007784D02*
G01X0003452Y0007795D01*
G01X0003452Y0007795D02*
G01X0003459Y0007805D01*
G01X0003459Y0007805D02*
G01X0003466Y0007815D01*
G01X0003466Y0007815D02*
G01X0003473Y0007825D01*
G01X0003473Y0007825D02*
G01X0003481Y0007835D01*
G01X0003481Y0007835D02*
G01X0003489Y0007844D01*
G01X0003489Y0007844D02*
G01X0003497Y0007853D01*
G01X0003497Y0007853D02*
G01X0003506Y0007862D01*
G01X0003506Y0007862D02*
G01X0003515Y0007871D01*
G01X0003515Y0007871D02*
G01X0003524Y0007879D01*
G01X0003524Y0007879D02*
G01X0003533Y0007887D01*
G01X0003533Y0007887D02*
G01X0003543Y0007895D01*
G01X0003543Y0007895D02*
G01X0003553Y0007902D01*
G01X0003553Y0007902D02*
G01X0003563Y0007909D01*
G01X0003563Y0007909D02*
G01X0003573Y0007916D01*
G01X0003573Y0007916D02*
G01X0003584Y0007922D01*
G01X0003584Y0007922D02*
G01X0003595Y0007929D01*
G01X0003595Y0007929D02*
G01X0003606Y0007934D01*
G01X0003606Y0007934D02*
G01X0003617Y0007940D01*
G01X0003617Y0007940D02*
G01X0003628Y0007945D01*
G01X0003628Y0007945D02*
G01X0003639Y0007950D01*
G01X0003639Y0007950D02*
G01X0003651Y0007954D01*
G01X0003651Y0007954D02*
G01X0003663Y0007958D01*
G01X0003663Y0007958D02*
G01X0003674Y0007962D01*
G01X0003674Y0007962D02*
G01X0003686Y0007965D01*
G01X0003686Y0007965D02*
G01X0003698Y0007968D01*
G01X0003698Y0007968D02*
G01X0003710Y0007970D01*
G01X0003710Y0007970D02*
G01X0003723Y0007972D01*
G01X0003723Y0007972D02*
G01X0003735Y0007974D01*
G01X0003735Y0007974D02*
G01X0003747Y0007976D01*
G01X0003747Y0007976D02*
G01X0003760Y0007976D01*
G01X0003760Y0007976D02*
G01X0003772Y0007977D01*
G01X0003772Y0007977D02*
G01X0003784Y0007977D01*
G01X0003784Y0007977D02*
G01X0004965Y0007977D01*
G01X0004965Y0007977D02*
G01X0004978Y0007977D01*
G01X0004978Y0007977D02*
G01X0004990Y0007978D01*
G01X0004990Y0007978D02*
G01X0005002Y0007979D01*
G01X0005002Y0007979D02*
G01X0005015Y0007980D01*
G01X0005015Y0007980D02*
G01X0005027Y0007982D01*
G01X0005027Y0007982D02*
G01X0005039Y0007984D01*
G01X0005039Y0007984D02*
G01X0005051Y0007987D01*
G01X0005051Y0007987D02*
G01X0005063Y0007990D01*
G01X0005063Y0007990D02*
G01X0005075Y0007993D01*
G01X0005075Y0007993D02*
G01X0005087Y0007997D01*
G01X0005087Y0007997D02*
G01X0005099Y0008001D01*
G01X0005099Y0008001D02*
G01X0005110Y0008005D01*
G01X0005110Y0008005D02*
G01X0005122Y0008010D01*
G01X0005122Y0008010D02*
G01X0005133Y0008015D01*
G01X0005133Y0008015D02*
G01X0005144Y0008020D01*
G01X0005144Y0008020D02*
G01X0005155Y0008026D01*
G01X0005155Y0008026D02*
G01X0005166Y0008032D01*
G01X0005166Y0008032D02*
G01X0005176Y0008038D01*
G01X0005176Y0008038D02*
G01X0005187Y0008045D01*
G01X0005187Y0008045D02*
G01X0005197Y0008052D01*
G01X0005197Y0008052D02*
G01X0005207Y0008060D01*
G01X0005207Y0008060D02*
G01X0005216Y0008068D01*
G01X0005216Y0008068D02*
G01X0005226Y0008076D01*
G01X0005226Y0008076D02*
G01X0005235Y0008084D01*
G01X0005235Y0008084D02*
G01X0005244Y0008093D01*
G01X0005244Y0008093D02*
G01X0005252Y0008101D01*
G01X0005252Y0008101D02*
G01X0005261Y0008111D01*
G01X0005261Y0008111D02*
G01X0005269Y0008120D01*
G01X0005269Y0008120D02*
G01X0005276Y0008130D01*
G01X0005276Y0008130D02*
G01X0005284Y0008139D01*
G01X0005284Y0008139D02*
G01X0005291Y0008150D01*
G01X0005291Y0008150D02*
G01X0005298Y0008160D01*
G01X0005298Y0008160D02*
G01X0005304Y0008171D01*
G01X0005304Y0008171D02*
G01X0005310Y0008181D01*
G01X0005310Y0008181D02*
G01X0005316Y0008192D01*
G01X0005316Y0008192D02*
G01X0005322Y0008203D01*
G01X0005322Y0008203D02*
G01X0005327Y0008215D01*
G01X0005327Y0008215D02*
G01X0005331Y0008226D01*
G01X0005331Y0008226D02*
G01X0005336Y0008238D01*
G01X0005336Y0008238D02*
G01X0005340Y0008249D01*
G01X0005340Y0008249D02*
G01X0005343Y0008261D01*
G01X0005343Y0008261D02*
G01X0005347Y0008273D01*
G01X0005347Y0008273D02*
G01X0005350Y0008285D01*
G01X0005350Y0008285D02*
G01X0005352Y0008297D01*
G01X0005352Y0008297D02*
G01X0005354Y0008309D01*
G01X0005354Y0008309D02*
G01X0005356Y0008322D01*
G01X0005356Y0008322D02*
G01X0005357Y0008334D01*
G01X0005357Y0008334D02*
G01X0005358Y0008346D01*
G01X0005358Y0008346D02*
G01X0005359Y0008359D01*
G01X0005359Y0008359D02*
G01X0005359Y0008371D01*
G01X0005359Y0008371D02*
G01X0005359Y0014276D01*
G01X0005359Y0014276D02*
G01X0005359Y0014289D01*
G01X0005359Y0014289D02*
G01X0005358Y0014301D01*
G01X0005358Y0014301D02*
G01X0005357Y0014313D01*
G01X0005357Y0014313D02*
G01X0005356Y0014326D01*
G01X0005356Y0014326D02*
G01X0005354Y0014338D01*
G01X0005354Y0014338D02*
G01X0005352Y0014350D01*
G01X0005352Y0014350D02*
G01X0005350Y0014362D01*
G01X0005350Y0014362D02*
G01X0005347Y0014374D01*
G01X0005347Y0014374D02*
G01X0005343Y0014386D01*
G01X0005343Y0014386D02*
G01X0005340Y0014398D01*
G01X0005340Y0014398D02*
G01X0005336Y0014410D01*
G01X0005336Y0014410D02*
G01X0005331Y0014421D01*
G01X0005331Y0014421D02*
G01X0005327Y0014433D01*
G01X0005327Y0014433D02*
G01X0005322Y0014444D01*
G01X0005322Y0014444D02*
G01X0005316Y0014455D01*
G01X0005316Y0014455D02*
G01X0005310Y0014466D01*
G01X0005310Y0014466D02*
G01X0005304Y0014477D01*
G01X0005304Y0014477D02*
G01X0005298Y0014487D01*
G01X0005298Y0014487D02*
G01X0005291Y0014498D01*
G01X0005291Y0014498D02*
G01X0005284Y0014508D01*
G01X0005284Y0014508D02*
G01X0005276Y0014518D01*
G01X0005276Y0014518D02*
G01X0005269Y0014527D01*
G01X0005269Y0014527D02*
G01X0005261Y0014537D01*
G01X0005261Y0014537D02*
G01X0005252Y0014546D01*
G01X0005252Y0014546D02*
G01X0005244Y0014555D01*
G01X0005244Y0014555D02*
G01X0005235Y0014563D01*
G01X0005235Y0014563D02*
G01X0005226Y0014572D01*
G01X0005226Y0014572D02*
G01X0005216Y0014580D01*
G01X0005216Y0014580D02*
G01X0005207Y0014588D01*
G01X0005207Y0014588D02*
G01X0005197Y0014595D01*
G01X0005197Y0014595D02*
G01X0005187Y0014602D01*
G01X0005187Y0014602D02*
G01X0005176Y0014609D01*
G01X0005176Y0014609D02*
G01X0005166Y0014615D01*
G01X0005166Y0014615D02*
G01X0005155Y0014621D01*
G01X0005155Y0014621D02*
G01X0005144Y0014627D01*
G01X0005144Y0014627D02*
G01X0005133Y0014633D01*
G01X0005133Y0014633D02*
G01X0005122Y0014638D01*
G01X0005122Y0014638D02*
G01X0005110Y0014643D01*
G01X0005110Y0014643D02*
G01X0005099Y0014647D01*
G01X0005099Y0014647D02*
G01X0005087Y0014651D01*
G01X0005087Y0014651D02*
G01X0005075Y0014655D01*
G01X0005075Y0014655D02*
G01X0005063Y0014658D01*
G01X0005063Y0014658D02*
G01X0005051Y0014661D01*
G01X0005051Y0014661D02*
G01X0005039Y0014663D01*
G01X0005039Y0014663D02*
G01X0005027Y0014665D01*
G01X0005027Y0014665D02*
G01X0005015Y0014667D01*
G01X0005015Y0014667D02*
G01X0005002Y0014668D01*
G01X0005002Y0014668D02*
G01X0004990Y0014669D01*
G01X0004990Y0014669D02*
G01X0004978Y0014670D01*
G01X0004978Y0014670D02*
G01X0004965Y0014670D01*
G01X0004965Y0014670D02*
G01X0003784Y0014670D01*
G01X0003784Y0014670D02*
G01X0003772Y0014670D01*
G01X0003772Y0014670D02*
G01X0003760Y0014671D01*
G01X0003760Y0014671D02*
G01X0003747Y0014672D01*
G01X0003747Y0014672D02*
G01X0003735Y0014673D01*
G01X0003735Y0014673D02*
G01X0003723Y0014675D01*
G01X0003723Y0014675D02*
G01X0003710Y0014677D01*
G01X0003710Y0014677D02*
G01X0003698Y0014680D01*
G01X0003698Y0014680D02*
G01X0003686Y0014683D01*
G01X0003686Y0014683D02*
G01X0003674Y0014686D01*
G01X0003674Y0014686D02*
G01X0003663Y0014689D01*
G01X0003663Y0014689D02*
G01X0003651Y0014693D01*
G01X0003651Y0014693D02*
G01X0003639Y0014698D01*
G01X0003639Y0014698D02*
G01X0003628Y0014703D01*
G01X0003628Y0014703D02*
G01X0003617Y0014708D01*
G01X0003617Y0014708D02*
G01X0003606Y0014713D01*
G01X0003606Y0014713D02*
G01X0003595Y0014719D01*
G01X0003595Y0014719D02*
G01X0003584Y0014725D01*
G01X0003584Y0014725D02*
G01X0003573Y0014731D01*
G01X0003573Y0014731D02*
G01X0003563Y0014738D01*
G01X0003563Y0014738D02*
G01X0003553Y0014745D01*
G01X0003553Y0014745D02*
G01X0003543Y0014753D01*
G01X0003543Y0014753D02*
G01X0003533Y0014760D01*
G01X0003533Y0014760D02*
G01X0003524Y0014769D01*
G01X0003524Y0014769D02*
G01X0003515Y0014777D01*
G01X0003515Y0014777D02*
G01X0003506Y0014785D01*
G01X0003506Y0014785D02*
G01X0003497Y0014794D01*
G01X0003497Y0014794D02*
G01X0003489Y0014803D01*
G01X0003489Y0014803D02*
G01X0003481Y0014813D01*
G01X0003481Y0014813D02*
G01X0003473Y0014823D01*
G01X0003473Y0014823D02*
G01X0003466Y0014832D01*
G01X0003466Y0014832D02*
G01X0003459Y0014843D01*
G01X0003459Y0014843D02*
G01X0003452Y0014853D01*
G01X0003452Y0014853D02*
G01X0003445Y0014863D01*
G01X0003445Y0014863D02*
G01X0003439Y0014874D01*
G01X0003439Y0014874D02*
G01X0003433Y0014885D01*
G01X0003433Y0014885D02*
G01X0003428Y0014896D01*
G01X0003428Y0014896D02*
G01X0003423Y0014907D01*
G01X0003423Y0014907D02*
G01X0003418Y0014919D01*
G01X0003418Y0014919D02*
G01X0003414Y0014930D01*
G01X0003414Y0014930D02*
G01X0003410Y0014942D01*
G01X0003410Y0014942D02*
G01X0003406Y0014954D01*
G01X0003406Y0014954D02*
G01X0003403Y0014966D01*
G01X0003403Y0014966D02*
G01X0003400Y0014978D01*
G01X0003400Y0014978D02*
G01X0003398Y0014990D01*
G01X0003398Y0014990D02*
G01X0003395Y0015002D01*
G01X0003395Y0015002D02*
G01X0003394Y0015015D01*
G01X0003394Y0015015D02*
G01X0003392Y0015027D01*
G01X0003392Y0015027D02*
G01X0003391Y0015039D01*
G01X0003391Y0015039D02*
G01X0003391Y0015051D01*
G01X0003391Y0015051D02*
G01X0003391Y0015064D01*
G01X0003391Y0015064D02*
G01X0003391Y0021363D01*
G01X0003391Y0021363D02*
G01X0003391Y0021392D01*
G01X0003391Y0021392D02*
G01X0003392Y0021420D01*
G01X0003392Y0021420D02*
G01X0003394Y0021449D01*
G01X0003394Y0021449D02*
G01X0003396Y0021477D01*
G01X0003396Y0021477D02*
G01X0003399Y0021505D01*
G01X0003399Y0021505D02*
G01X0003403Y0021534D01*
G01X0003403Y0021534D02*
G01X0003407Y0021562D01*
G01X0003407Y0021562D02*
G01X0003413Y0021590D01*
G01X0003413Y0021590D02*
G01X0003418Y0021618D01*
G01X0003418Y0021618D02*
G01X0003425Y0021646D01*
G01X0003425Y0021646D02*
G01X0003432Y0021673D01*
G01X0003432Y0021673D02*
G01X0003440Y0021701D01*
G01X0003440Y0021701D02*
G01X0003448Y0021728D01*
G01X0003448Y0021728D02*
G01X0003458Y0021755D01*
G01X0003458Y0021755D02*
G01X0003467Y0021782D01*
G01X0003467Y0021782D02*
G01X0003478Y0021808D01*
G01X0003478Y0021808D02*
G01X0003489Y0021835D01*
G01X0003489Y0021835D02*
G01X0003500Y0021861D01*
G01X0003500Y0021861D02*
G01X0003513Y0021887D01*
G01X0003513Y0021887D02*
G01X0003526Y0021912D01*
G01X0003526Y0021912D02*
G01X0003539Y0021937D01*
G01X0003539Y0021937D02*
G01X0003554Y0021962D01*
G01X0003554Y0021962D02*
G01X0003568Y0021986D01*
G01X0003568Y0021986D02*
G01X0003584Y0022010D01*
G01X0003584Y0022010D02*
G01X0003600Y0022034D01*
G01X0003600Y0022034D02*
G01X0003616Y0022057D01*
G01X0003616Y0022057D02*
G01X0003633Y0022080D01*
G01X0003633Y0022080D02*
G01X0003651Y0022103D01*
G01X0003651Y0022103D02*
G01X0003669Y0022125D01*
G01X0003669Y0022125D02*
G01X0003688Y0022146D01*
G01X0003688Y0022146D02*
G01X0003707Y0022167D01*
G01X0003707Y0022167D02*
G01X0003726Y0022188D01*
G01X0003726Y0022188D02*
G01X0003747Y0022208D01*
G01X0003747Y0022208D02*
G01X0003767Y0022228D01*
G01X0003767Y0022228D02*
G01X0003788Y0022247D01*
G01X0003788Y0022247D02*
G01X0003810Y0022266D01*
G01X0003810Y0022266D02*
G01X0003832Y0022284D01*
G01X0003832Y0022284D02*
G01X0003855Y0022302D01*
G01X0003855Y0022302D02*
G01X0003877Y0022319D01*
G01X0003877Y0022319D02*
G01X0003901Y0022335D01*
G01X0003901Y0022335D02*
G01X0003924Y0022351D01*
G01X0003924Y0022351D02*
G01X0003948Y0022366D01*
G01X0003948Y0022366D02*
G01X0003973Y0022381D01*
G01X0003973Y0022381D02*
G01X0003998Y0022395D01*
G01X0003998Y0022395D02*
G01X0004023Y0022409D01*
G01X0004023Y0022409D02*
G01X0004048Y0022422D01*
G01X0004048Y0022422D02*
G01X0004074Y0022434D01*
G01X0004074Y0022434D02*
G01X0004100Y0022446D01*
G01X0004100Y0022446D02*
G01X0004126Y0022457D01*
G01X0004126Y0022457D02*
G01X0004153Y0022467D01*
G01X0004153Y0022467D02*
G01X0004180Y0022477D01*
G01X0004180Y0022477D02*
G01X0004207Y0022486D01*
G01X0004207Y0022486D02*
G01X0004234Y0022495D01*
G01X0004234Y0022495D02*
G01X0004261Y0022503D01*
G01X0004261Y0022503D02*
G01X0004289Y0022510D01*
G01X0004289Y0022510D02*
G01X0004317Y0022516D01*
G01X0004317Y0022516D02*
G01X0004345Y0022522D01*
G01X0004345Y0022522D02*
G01X0004373Y0022527D01*
G01X0004373Y0022527D02*
G01X0004401Y0022532D01*
G01X0004401Y0022532D02*
G01X0004429Y0022536D01*
G01X0004429Y0022536D02*
G01X0004458Y0022539D01*
G01X0004458Y0022539D02*
G01X0004486Y0022541D01*
G01X0004486Y0022541D02*
G01X0004515Y0022543D01*
G01X0004515Y0022543D02*
G01X0004543Y0022544D01*
G01X0004543Y0022544D02*
G01X0004572Y0022544D01*
G01X0004572Y0022544D02*
G01X0027800Y0022544D01*
G01X0027800Y0022544D02*
G01X0027829Y0022544D01*
G01X0027829Y0022544D02*
G01X0027857Y0022543D01*
G01X0027857Y0022543D02*
G01X0027886Y0022541D01*
G01X0027886Y0022541D02*
G01X0027914Y0022539D01*
G01X0027914Y0022539D02*
G01X0027942Y0022536D01*
G01X0027942Y0022536D02*
G01X0027971Y0022532D01*
G01X0027971Y0022532D02*
G01X0027999Y0022527D01*
G01X0027999Y0022527D02*
G01X0028027Y0022522D01*
G01X0028027Y0022522D02*
G01X0028055Y0022516D01*
G01X0028055Y0022516D02*
G01X0028083Y0022510D01*
G01X0028083Y0022510D02*
G01X0028110Y0022503D01*
G01X0028110Y0022503D02*
G01X0028138Y0022495D01*
G01X0028138Y0022495D02*
G01X0028165Y0022486D01*
G01X0028165Y0022486D02*
G01X0028192Y0022477D01*
G01X0028192Y0022477D02*
G01X0028219Y0022467D01*
G01X0028219Y0022467D02*
G01X0028245Y0022457D01*
G01X0028245Y0022457D02*
G01X0028272Y0022446D01*
G01X0028272Y0022446D02*
G01X0028298Y0022434D01*
G01X0028298Y0022434D02*
G01X0028324Y0022422D01*
G01X0028324Y0022422D02*
G01X0028349Y0022409D01*
G01X0028349Y0022409D02*
G01X0028374Y0022395D01*
G01X0028374Y0022395D02*
G01X0028399Y0022381D01*
G01X0028399Y0022381D02*
G01X0028423Y0022366D01*
G01X0028423Y0022366D02*
G01X0028447Y0022351D01*
G01X0028447Y0022351D02*
G01X0028471Y0022335D01*
G01X0028471Y0022335D02*
G01X0028494Y0022319D01*
G01X0028494Y0022319D02*
G01X0028517Y0022302D01*
G01X0028517Y0022302D02*
G01X0028540Y0022284D01*
G01X0028540Y0022284D02*
G01X0028562Y0022266D01*
G01X0028562Y0022266D02*
G01X0028583Y0022247D01*
G01X0028583Y0022247D02*
G01X0028604Y0022228D01*
G01X0028604Y0022228D02*
G01X0028625Y0022208D01*
G01X0028625Y0022208D02*
G01X0028645Y0022188D01*
G01X0028645Y0022188D02*
G01X0028665Y0022167D01*
G01X0028665Y0022167D02*
G01X0028684Y0022146D01*
G01X0028684Y0022146D02*
G01X0028703Y0022125D01*
G01X0028703Y0022125D02*
G01X0028721Y0022103D01*
G01X0028721Y0022103D02*
G01X0028739Y0022080D01*
G01X0028739Y0022080D02*
G01X0028756Y0022057D01*
G01X0028756Y0022057D02*
G01X0028772Y0022034D01*
G01X0028772Y0022034D02*
G01X0028788Y0022010D01*
G01X0028788Y0022010D02*
G01X0028803Y0021986D01*
G01X0028803Y0021986D02*
G01X0028818Y0021962D01*
G01X0028818Y0021962D02*
G01X0028832Y0021937D01*
G01X0028832Y0021937D02*
G01X0028846Y0021912D01*
G01X0028846Y0021912D02*
G01X0028859Y0021887D01*
G01X0028859Y0021887D02*
G01X0028871Y0021861D01*
G01X0028871Y0021861D02*
G01X0028883Y0021835D01*
G01X0028883Y0021835D02*
G01X0028894Y0021808D01*
G01X0028894Y0021808D02*
G01X0028904Y0021782D01*
G01X0028904Y0021782D02*
G01X0028914Y0021755D01*
G01X0028914Y0021755D02*
G01X0028923Y0021728D01*
G01X0028923Y0021728D02*
G01X0028932Y0021701D01*
G01X0028932Y0021701D02*
G01X0028940Y0021673D01*
G01X0028940Y0021673D02*
G01X0028947Y0021646D01*
G01X0028947Y0021646D02*
G01X0028953Y0021618D01*
G01X0028953Y0021618D02*
G01X0028959Y0021590D01*
G01X0028959Y0021590D02*
G01X0028964Y0021562D01*
G01X0028964Y0021562D02*
G01X0028969Y0021534D01*
G01X0028969Y0021534D02*
G01X0028973Y0021505D01*
G01X0028973Y0021505D02*
G01X0028976Y0021477D01*
G01X0028976Y0021477D02*
G01X0028978Y0021449D01*
G01X0028978Y0021449D02*
G01X0028980Y0021420D01*
G01X0028980Y0021420D02*
G01X0028981Y0021392D01*
G01X0028981Y0021392D02*
G01X0028981Y0021363D01*
G01X0028981Y0021363D02*
G01X0028981Y0001481D01*
G01X0028981Y0001481D02*
G01X0028981Y0001453D01*
G01X0028981Y0001453D02*
G01X0028980Y0001424D01*
G01X0028980Y0001424D02*
G01X0028978Y0001396D01*
G01X0028978Y0001396D02*
G01X0028976Y0001367D01*
G01X0028976Y0001367D02*
G01X0028973Y0001339D01*
G01X0028973Y0001339D02*
G01X0028969Y0001310D01*
G01X0028969Y0001310D02*
G01X0028964Y0001282D01*
G01X0028964Y0001282D02*
G01X0028959Y0001254D01*
G01X0028959Y0001254D02*
G01X0028953Y0001226D01*
G01X0028953Y0001226D02*
G01X0028947Y0001198D01*
G01X0028947Y0001198D02*
G01X0028940Y0001171D01*
G01X0028940Y0001171D02*
G01X0028932Y0001143D01*
G01X0028932Y0001143D02*
G01X0028923Y0001116D01*
G01X0028923Y0001116D02*
G01X0028914Y0001089D01*
G01X0028914Y0001089D02*
G01X0028904Y0001062D01*
G01X0028904Y0001062D02*
G01X0028894Y0001036D01*
G01X0028894Y0001036D02*
G01X0028883Y0001009D01*
G01X0028883Y0001009D02*
G01X0028871Y0000983D01*
G01X0028871Y0000983D02*
G01X0028859Y0000958D01*
G01X0028859Y0000958D02*
G01X0028846Y0000932D01*
G01X0028846Y0000932D02*
G01X0028832Y0000907D01*
G01X0028832Y0000907D02*
G01X0028818Y0000882D01*
G01X0028818Y0000882D02*
G01X0028803Y0000858D01*
G01X0028803Y0000858D02*
G01X0028788Y0000834D01*
G01X0028788Y0000834D02*
G01X0028772Y0000810D01*
G01X0028772Y0000810D02*
G01X0028756Y0000787D01*
G01X0028756Y0000787D02*
G01X0028739Y0000764D01*
G01X0028739Y0000764D02*
G01X0028721Y0000741D01*
G01X0028721Y0000741D02*
G01X0028703Y0000720D01*
G01X0028703Y0000720D02*
G01X0028684Y0000698D01*
G01X0028684Y0000698D02*
G01X0028665Y0000677D01*
G01X0028665Y0000677D02*
G01X0028645Y0000656D01*
G01X0028645Y0000656D02*
G01X0028625Y0000636D01*
G01X0028625Y0000636D02*
G01X0028604Y0000616D01*
G01X0028604Y0000616D02*
G01X0028583Y0000597D01*
G01X0028583Y0000597D02*
G01X0028562Y0000578D01*
G01X0028562Y0000578D02*
G01X0028540Y0000560D01*
G01X0028540Y0000560D02*
G01X0028517Y0000543D01*
G01X0028517Y0000543D02*
G01X0028494Y0000526D01*
G01X0028494Y0000526D02*
G01X0028471Y0000509D01*
G01X0028471Y0000509D02*
G01X0028447Y0000493D01*
G01X0028447Y0000493D02*
G01X0028423Y0000478D01*
G01X0028423Y0000478D02*
G01X0028399Y0000463D01*
G01X0028399Y0000463D02*
G01X0028374Y0000449D01*
G01X0028374Y0000449D02*
G01X0028349Y0000435D01*
G01X0028349Y0000435D02*
G01X0028324Y0000422D01*
G01X0028324Y0000422D02*
G01X0028298Y0000410D01*
G01X0028298Y0000410D02*
G01X0028272Y0000398D01*
G01X0028272Y0000398D02*
G01X0028245Y0000387D01*
G01X0028245Y0000387D02*
G01X0028219Y0000377D01*
G01X0028219Y0000377D02*
G01X0028192Y0000367D01*
G01X0028192Y0000367D02*
G01X0028165Y0000358D01*
G01X0028165Y0000358D02*
G01X0028138Y0000349D01*
G01X0028138Y0000349D02*
G01X0028110Y0000342D01*
G01X0028110Y0000342D02*
G01X0028083Y0000334D01*
G01X0028083Y0000334D02*
G01X0028055Y0000328D01*
G01X0028055Y0000328D02*
G01X0028027Y0000322D01*
G01X0028027Y0000322D02*
G01X0027999Y0000317D01*
G01X0027999Y0000317D02*
G01X0027971Y0000312D01*
G01X0027971Y0000312D02*
G01X0027942Y0000309D01*
G01X0027942Y0000309D02*
G01X0027914Y0000306D01*
G01X0027914Y0000306D02*
G01X0027886Y0000303D01*
G01X0027886Y0000303D02*
G01X0027857Y0000301D01*
G01X0027857Y0000301D02*
G01X0027829Y0000300D01*
G01X0027829Y0000300D02*
G01X0027800Y0000300D01*
G01X0027800Y0000300D02*
G01X0004572Y0000300D01*
G01X0004572Y0000300D02*
G01X0004543Y0000300D01*
G01X0004543Y0000300D02*
G01X0004515Y0000301D01*
G01X0004515Y0000301D02*
G01X0004486Y0000303D01*
G01X0004486Y0000303D02*
G01X0004458Y0000306D01*
G01X0004458Y0000306D02*
G01X0004429Y0000309D01*
G01X0004429Y0000309D02*
G01X0004401Y0000312D01*
G01X0004401Y0000312D02*
G01X0004373Y0000317D01*
G01X0004373Y0000317D02*
G01X0004345Y0000322D01*
G01X0004345Y0000322D02*
G01X0004317Y0000328D01*
G01X0004317Y0000328D02*
G01X0004289Y0000334D01*
G01X0004289Y0000334D02*
G01X0004261Y0000342D01*
G01X0004261Y0000342D02*
G01X0004234Y0000349D01*
G01X0004234Y0000349D02*
G01X0004207Y0000358D01*
G01X0004207Y0000358D02*
G01X0004180Y0000367D01*
G01X0004180Y0000367D02*
G01X0004153Y0000377D01*
G01X0004153Y0000377D02*
G01X0004126Y0000387D01*
G01X0004126Y0000387D02*
G01X0004100Y0000398D01*
G01X0004100Y0000398D02*
G01X0004074Y0000410D01*
G01X0004074Y0000410D02*
G01X0004048Y0000422D01*
G01X0004048Y0000422D02*
G01X0004023Y0000435D01*
G01X0004023Y0000435D02*
G01X0003998Y0000449D01*
G01X0003998Y0000449D02*
G01X0003973Y0000463D01*
G01X0003973Y0000463D02*
G01X0003948Y0000478D01*
G01X0003948Y0000478D02*
G01X0003924Y0000493D01*
G01X0003924Y0000493D02*
G01X0003901Y0000509D01*
G01X0003901Y0000509D02*
G01X0003877Y0000526D01*
G01X0003877Y0000526D02*
G01X0003855Y0000543D01*
G01X0003855Y0000543D02*
G01X0003832Y0000560D01*
G01X0003832Y0000560D02*
G01X0003810Y0000578D01*
G01X0003810Y0000578D02*
G01X0003788Y0000597D01*
G01X0003788Y0000597D02*
G01X0003767Y0000616D01*
G01X0003767Y0000616D02*
G01X0003747Y0000636D01*
G01X0003747Y0000636D02*
G01X0003726Y0000656D01*
G01X0003726Y0000656D02*
G01X0003707Y0000677D01*
G01X0003707Y0000677D02*
G01X0003688Y0000698D01*
G01X0003688Y0000698D02*
G01X0003669Y0000720D01*
G01X0003669Y0000720D02*
G01X0003651Y0000741D01*
G01X0003651Y0000741D02*
G01X0003633Y0000764D01*
G01X0003633Y0000764D02*
G01X0003616Y0000787D01*
G01X0003616Y0000787D02*
G01X0003600Y0000810D01*
G01X0003600Y0000810D02*
G01X0003584Y0000834D01*
G01X0003584Y0000834D02*
G01X0003568Y0000858D01*
G01X0003568Y0000858D02*
G01X0003554Y0000882D01*
G01X0003554Y0000882D02*
G01X0003539Y0000907D01*
G01X0003539Y0000907D02*
G01X0003526Y0000932D01*
G01X0003526Y0000932D02*
G01X0003513Y0000958D01*
G01X0003513Y0000958D02*
G01X0003500Y0000983D01*
G01X0003500Y0000983D02*
G01X0003489Y0001009D01*
G01X0003489Y0001009D02*
G01X0003478Y0001036D01*
G01X0003478Y0001036D02*
G01X0003467Y0001062D01*
G01X0003467Y0001062D02*
G01X0003458Y0001089D01*
G01X0003458Y0001089D02*
G01X0003448Y0001116D01*
G01X0003448Y0001116D02*
G01X0003440Y0001143D01*
G01X0003440Y0001143D02*
G01X0003432Y0001171D01*
G01X0003432Y0001171D02*
G01X0003425Y0001198D01*
G01X0003425Y0001198D02*
G01X0003418Y0001226D01*
G01X0003418Y0001226D02*
G01X0003413Y0001254D01*
G01X0003413Y0001254D02*
G01X0003407Y0001282D01*
G01X0003407Y0001282D02*
G01X0003403Y0001310D01*
G01X0003403Y0001310D02*
G01X0003399Y0001339D01*
G01X0003399Y0001339D02*
G01X0003396Y0001367D01*
G01X0003396Y0001367D02*
G01X0003394Y0001396D01*
G01X0003394Y0001396D02*
G01X0003392Y0001424D01*
G01X0003392Y0001424D02*
G01X0003391Y0001453D01*
G01X0003391Y0001453D02*
G01X0003391Y0001481D01*
G01X0004227Y0001678D02*
G01X0004227Y0001693D01*
G01X0004227Y0001693D02*
G01X0004228Y0001707D01*
G01X0004228Y0001707D02*
G01X0004229Y0001722D01*
G01X0004229Y0001722D02*
G01X0004230Y0001737D01*
G01X0004230Y0001737D02*
G01X0004232Y0001751D01*
G01X0004232Y0001751D02*
G01X0004234Y0001766D01*
G01X0004234Y0001766D02*
G01X0004237Y0001780D01*
G01X0004237Y0001780D02*
G01X0004240Y0001794D01*
G01X0004240Y0001794D02*
G01X0004243Y0001809D01*
G01X0004243Y0001809D02*
G01X0004247Y0001823D01*
G01X0004247Y0001823D02*
G01X0004251Y0001837D01*
G01X0004251Y0001837D02*
G01X0004256Y0001851D01*
G01X0004256Y0001851D02*
G01X0004260Y0001865D01*
G01X0004260Y0001865D02*
G01X0004266Y0001878D01*
G01X0004266Y0001878D02*
G01X0004271Y0001892D01*
G01X0004271Y0001892D02*
G01X0004277Y0001905D01*
G01X0004277Y0001905D02*
G01X0004284Y0001919D01*
G01X0004284Y0001919D02*
G01X0004290Y0001931D01*
G01X0004290Y0001931D02*
G01X0004297Y0001944D01*
G01X0004297Y0001944D02*
G01X0004305Y0001957D01*
G01X0004305Y0001957D02*
G01X0004312Y0001969D01*
G01X0004312Y0001969D02*
G01X0004321Y0001982D01*
G01X0004321Y0001982D02*
G01X0004329Y0001994D01*
G01X0004329Y0001994D02*
G01X0004338Y0002006D01*
G01X0004338Y0002006D02*
G01X0004347Y0002017D01*
G01X0004347Y0002017D02*
G01X0004356Y0002028D01*
G01X0004356Y0002028D02*
G01X0004366Y0002040D01*
G01X0004366Y0002040D02*
G01X0004376Y0002050D01*
G01X0004376Y0002050D02*
G01X0004386Y0002061D01*
G01X0004386Y0002061D02*
G01X0004396Y0002071D01*
G01X0004396Y0002071D02*
G01X0004407Y0002081D01*
G01X0004407Y0002081D02*
G01X0004418Y0002091D01*
G01X0004418Y0002091D02*
G01X0004429Y0002100D01*
G01X0004429Y0002100D02*
G01X0004441Y0002109D01*
G01X0004441Y0002109D02*
G01X0004453Y0002118D01*
G01X0004453Y0002118D02*
G01X0004465Y0002126D01*
G01X0004465Y0002126D02*
G01X0004477Y0002134D01*
G01X0004477Y0002134D02*
G01X0004489Y0002142D01*
G01X0004489Y0002142D02*
G01X0004502Y0002149D01*
G01X0004502Y0002149D02*
G01X0004515Y0002156D01*
G01X0004515Y0002156D02*
G01X0004528Y0002163D01*
G01X0004528Y0002163D02*
G01X0004541Y0002169D01*
G01X0004541Y0002169D02*
G01X0004555Y0002175D01*
G01X0004555Y0002175D02*
G01X0004568Y0002181D01*
G01X0004568Y0002181D02*
G01X0004582Y0002186D01*
G01X0004582Y0002186D02*
G01X0004596Y0002191D01*
G01X0004596Y0002191D02*
G01X0004610Y0002196D01*
G01X0004610Y0002196D02*
G01X0004624Y0002200D01*
G01X0004624Y0002200D02*
G01X0004638Y0002203D01*
G01X0004638Y0002203D02*
G01X0004652Y0002207D01*
G01X0004652Y0002207D02*
G01X0004667Y0002210D01*
G01X0004667Y0002210D02*
G01X0004681Y0002212D01*
G01X0004681Y0002212D02*
G01X0004695Y0002214D01*
G01X0004695Y0002214D02*
G01X0004710Y0002216D01*
G01X0004710Y0002216D02*
G01X0004725Y0002218D01*
G01X0004725Y0002218D02*
G01X0004739Y0002219D01*
G01X0004739Y0002219D02*
G01X0004754Y0002219D01*
G01X0004754Y0002219D02*
G01X0004769Y0002219D01*
G01X0004769Y0002219D02*
G01X0004783Y0002219D01*
G01X0004783Y0002219D02*
G01X0004798Y0002219D01*
G01X0004798Y0002219D02*
G01X0004812Y0002218D01*
G01X0004812Y0002218D02*
G01X0004827Y0002216D01*
G01X0004827Y0002216D02*
G01X0004842Y0002214D01*
G01X0004842Y0002214D02*
G01X0004856Y0002212D01*
G01X0004856Y0002212D02*
G01X0004871Y0002210D01*
G01X0004871Y0002210D02*
G01X0004885Y0002207D01*
G01X0004885Y0002207D02*
G01X0004899Y0002203D01*
G01X0004899Y0002203D02*
G01X0004913Y0002200D01*
G01X0004913Y0002200D02*
G01X0004927Y0002196D01*
G01X0004927Y0002196D02*
G01X0004941Y0002191D01*
G01X0004941Y0002191D02*
G01X0004955Y0002186D01*
G01X0004955Y0002186D02*
G01X0004969Y0002181D01*
G01X0004969Y0002181D02*
G01X0004982Y0002175D01*
G01X0004982Y0002175D02*
G01X0004996Y0002169D01*
G01X0004996Y0002169D02*
G01X0005009Y0002163D01*
G01X0005009Y0002163D02*
G01X0005022Y0002156D01*
G01X0005022Y0002156D02*
G01X0005035Y0002149D01*
G01X0005035Y0002149D02*
G01X0005048Y0002142D01*
G01X0005048Y0002142D02*
G01X0005060Y0002134D01*
G01X0005060Y0002134D02*
G01X0005072Y0002126D01*
G01X0005072Y0002126D02*
G01X0005084Y0002118D01*
G01X0005084Y0002118D02*
G01X0005096Y0002109D01*
G01X0005096Y0002109D02*
G01X0005108Y0002100D01*
G01X0005108Y0002100D02*
G01X0005119Y0002091D01*
G01X0005119Y0002091D02*
G01X0005130Y0002081D01*
G01X0005130Y0002081D02*
G01X0005141Y0002071D01*
G01X0005141Y0002071D02*
G01X0005151Y0002061D01*
G01X0005151Y0002061D02*
G01X0005162Y0002050D01*
G01X0005162Y0002050D02*
G01X0005171Y0002040D01*
G01X0005171Y0002040D02*
G01X0005181Y0002028D01*
G01X0005181Y0002028D02*
G01X0005190Y0002017D01*
G01X0005190Y0002017D02*
G01X0005199Y0002006D01*
G01X0005199Y0002006D02*
G01X0005208Y0001994D01*
G01X0005208Y0001994D02*
G01X0005216Y0001982D01*
G01X0005216Y0001982D02*
G01X0005225Y0001969D01*
G01X0005225Y0001969D02*
G01X0005232Y0001957D01*
G01X0005232Y0001957D02*
G01X0005240Y0001944D01*
G01X0005240Y0001944D02*
G01X0005247Y0001931D01*
G01X0005247Y0001931D02*
G01X0005253Y0001919D01*
G01X0005253Y0001919D02*
G01X0005260Y0001905D01*
G01X0005260Y0001905D02*
G01X0005266Y0001892D01*
G01X0005266Y0001892D02*
G01X0005271Y0001878D01*
G01X0005271Y0001878D02*
G01X0005277Y0001865D01*
G01X0005277Y0001865D02*
G01X0005282Y0001851D01*
G01X0005282Y0001851D02*
G01X0005286Y0001837D01*
G01X0005286Y0001837D02*
G01X0005290Y0001823D01*
G01X0005290Y0001823D02*
G01X0005294Y0001809D01*
G01X0005294Y0001809D02*
G01X0005297Y0001794D01*
G01X0005297Y0001794D02*
G01X0005300Y0001780D01*
G01X0005300Y0001780D02*
G01X0005303Y0001766D01*
G01X0005303Y0001766D02*
G01X0005305Y0001751D01*
G01X0005305Y0001751D02*
G01X0005307Y0001737D01*
G01X0005307Y0001737D02*
G01X0005308Y0001722D01*
G01X0005308Y0001722D02*
G01X0005309Y0001707D01*
G01X0005309Y0001707D02*
G01X0005310Y0001693D01*
G01X0005310Y0001693D02*
G01X0005310Y0001678D01*
G01X0005310Y0001678D02*
G01X0005310Y0001663D01*
G01X0005310Y0001663D02*
G01X0005309Y0001649D01*
G01X0005309Y0001649D02*
G01X0005308Y0001634D01*
G01X0005308Y0001634D02*
G01X0005307Y0001620D01*
G01X0005307Y0001620D02*
G01X0005305Y0001605D01*
G01X0005305Y0001605D02*
G01X0005303Y0001590D01*
G01X0005303Y0001590D02*
G01X0005300Y0001576D01*
G01X0005300Y0001576D02*
G01X0005297Y0001562D01*
G01X0005297Y0001562D02*
G01X0005294Y0001547D01*
G01X0005294Y0001547D02*
G01X0005290Y0001533D01*
G01X0005290Y0001533D02*
G01X0005286Y0001519D01*
G01X0005286Y0001519D02*
G01X0005282Y0001505D01*
G01X0005282Y0001505D02*
G01X0005277Y0001491D01*
G01X0005277Y0001491D02*
G01X0005271Y0001478D01*
G01X0005271Y0001478D02*
G01X0005266Y0001464D01*
G01X0005266Y0001464D02*
G01X0005260Y0001451D01*
G01X0005260Y0001451D02*
G01X0005253Y0001438D01*
G01X0005253Y0001438D02*
G01X0005247Y0001425D01*
G01X0005247Y0001425D02*
G01X0005240Y0001412D01*
G01X0005240Y0001412D02*
G01X0005232Y0001399D01*
G01X0005232Y0001399D02*
G01X0005225Y0001387D01*
G01X0005225Y0001387D02*
G01X0005216Y0001374D01*
G01X0005216Y0001374D02*
G01X0005208Y0001362D01*
G01X0005208Y0001362D02*
G01X0005199Y0001350D01*
G01X0005199Y0001350D02*
G01X0005190Y0001339D01*
G01X0005190Y0001339D02*
G01X0005181Y0001328D01*
G01X0005181Y0001328D02*
G01X0005171Y0001317D01*
G01X0005171Y0001317D02*
G01X0005162Y0001306D01*
G01X0005162Y0001306D02*
G01X0005151Y0001295D01*
G01X0005151Y0001295D02*
G01X0005141Y0001285D01*
G01X0005141Y0001285D02*
G01X0005130Y0001275D01*
G01X0005130Y0001275D02*
G01X0005119Y0001265D01*
G01X0005119Y0001265D02*
G01X0005108Y0001256D01*
G01X0005108Y0001256D02*
G01X0005096Y0001247D01*
G01X0005096Y0001247D02*
G01X0005084Y0001238D01*
G01X0005084Y0001238D02*
G01X0005072Y0001230D01*
G01X0005072Y0001230D02*
G01X0005060Y0001222D01*
G01X0005060Y0001222D02*
G01X0005048Y0001214D01*
G01X0005048Y0001214D02*
G01X0005035Y0001207D01*
G01X0005035Y0001207D02*
G01X0005022Y0001200D01*
G01X0005022Y0001200D02*
G01X0005009Y0001193D01*
G01X0005009Y0001193D02*
G01X0004996Y0001187D01*
G01X0004996Y0001187D02*
G01X0004982Y0001181D01*
G01X0004982Y0001181D02*
G01X0004969Y0001175D01*
G01X0004969Y0001175D02*
G01X0004955Y0001170D01*
G01X0004955Y0001170D02*
G01X0004941Y0001165D01*
G01X0004941Y0001165D02*
G01X0004927Y0001161D01*
G01X0004927Y0001161D02*
G01X0004913Y0001156D01*
G01X0004913Y0001156D02*
G01X0004899Y0001153D01*
G01X0004899Y0001153D02*
G01X0004885Y0001149D01*
G01X0004885Y0001149D02*
G01X0004871Y0001146D01*
G01X0004871Y0001146D02*
G01X0004856Y0001144D01*
G01X0004856Y0001144D02*
G01X0004842Y0001142D01*
G01X0004842Y0001142D02*
G01X0004827Y0001140D01*
G01X0004827Y0001140D02*
G01X0004812Y0001139D01*
G01X0004812Y0001139D02*
G01X0004798Y0001138D01*
G01X0004798Y0001138D02*
G01X0004783Y0001137D01*
G01X0004783Y0001137D02*
G01X0004769Y0001137D01*
G01X0004769Y0001137D02*
G01X0004754Y0001137D01*
G01X0004754Y0001137D02*
G01X0004739Y0001138D01*
G01X0004739Y0001138D02*
G01X0004725Y0001139D01*
G01X0004725Y0001139D02*
G01X0004710Y0001140D01*
G01X0004710Y0001140D02*
G01X0004695Y0001142D01*
G01X0004695Y0001142D02*
G01X0004681Y0001144D01*
G01X0004681Y0001144D02*
G01X0004667Y0001146D01*
G01X0004667Y0001146D02*
G01X0004652Y0001149D01*
G01X0004652Y0001149D02*
G01X0004638Y0001153D01*
G01X0004638Y0001153D02*
G01X0004624Y0001156D01*
G01X0004624Y0001156D02*
G01X0004610Y0001161D01*
G01X0004610Y0001161D02*
G01X0004596Y0001165D01*
G01X0004596Y0001165D02*
G01X0004582Y0001170D01*
G01X0004582Y0001170D02*
G01X0004568Y0001175D01*
G01X0004568Y0001175D02*
G01X0004555Y0001181D01*
G01X0004555Y0001181D02*
G01X0004541Y0001187D01*
G01X0004541Y0001187D02*
G01X0004528Y0001193D01*
G01X0004528Y0001193D02*
G01X0004515Y0001200D01*
G01X0004515Y0001200D02*
G01X0004502Y0001207D01*
G01X0004502Y0001207D02*
G01X0004489Y0001214D01*
G01X0004489Y0001214D02*
G01X0004477Y0001222D01*
G01X0004477Y0001222D02*
G01X0004465Y0001230D01*
G01X0004465Y0001230D02*
G01X0004453Y0001238D01*
G01X0004453Y0001238D02*
G01X0004441Y0001247D01*
G01X0004441Y0001247D02*
G01X0004429Y0001256D01*
G01X0004429Y0001256D02*
G01X0004418Y0001265D01*
G01X0004418Y0001265D02*
G01X0004407Y0001275D01*
G01X0004407Y0001275D02*
G01X0004396Y0001285D01*
G01X0004396Y0001285D02*
G01X0004386Y0001295D01*
G01X0004386Y0001295D02*
G01X0004376Y0001306D01*
G01X0004376Y0001306D02*
G01X0004366Y0001317D01*
G01X0004366Y0001317D02*
G01X0004356Y0001328D01*
G01X0004356Y0001328D02*
G01X0004347Y0001339D01*
G01X0004347Y0001339D02*
G01X0004338Y0001350D01*
G01X0004338Y0001350D02*
G01X0004329Y0001362D01*
G01X0004329Y0001362D02*
G01X0004321Y0001374D01*
G01X0004321Y0001374D02*
G01X0004312Y0001387D01*
G01X0004312Y0001387D02*
G01X0004305Y0001399D01*
G01X0004305Y0001399D02*
G01X0004297Y0001412D01*
G01X0004297Y0001412D02*
G01X0004290Y0001425D01*
G01X0004290Y0001425D02*
G01X0004284Y0001438D01*
G01X0004284Y0001438D02*
G01X0004277Y0001451D01*
G01X0004277Y0001451D02*
G01X0004271Y0001464D01*
G01X0004271Y0001464D02*
G01X0004266Y0001478D01*
G01X0004266Y0001478D02*
G01X0004260Y0001491D01*
G01X0004260Y0001491D02*
G01X0004256Y0001505D01*
G01X0004256Y0001505D02*
G01X0004251Y0001519D01*
G01X0004251Y0001519D02*
G01X0004247Y0001533D01*
G01X0004247Y0001533D02*
G01X0004243Y0001547D01*
G01X0004243Y0001547D02*
G01X0004240Y0001562D01*
G01X0004240Y0001562D02*
G01X0004237Y0001576D01*
G01X0004237Y0001576D02*
G01X0004234Y0001590D01*
G01X0004234Y0001590D02*
G01X0004232Y0001605D01*
G01X0004232Y0001605D02*
G01X0004230Y0001620D01*
G01X0004230Y0001620D02*
G01X0004229Y0001634D01*
G01X0004229Y0001634D02*
G01X0004228Y0001649D01*
G01X0004228Y0001649D02*
G01X0004227Y0001663D01*
G01X0004227Y0001663D02*
G01X0004227Y0001678D01*
G01X0020713Y0001875D02*
G01X0020713Y0007780D01*
G01X0020713Y0007780D02*
G01X0020714Y0007793D01*
G01X0020714Y0007793D02*
G01X0020714Y0007805D01*
G01X0020714Y0007805D02*
G01X0020715Y0007817D01*
G01X0020715Y0007817D02*
G01X0020717Y0007830D01*
G01X0020717Y0007830D02*
G01X0020718Y0007842D01*
G01X0020718Y0007842D02*
G01X0020720Y0007854D01*
G01X0020720Y0007854D02*
G01X0020723Y0007866D01*
G01X0020723Y0007866D02*
G01X0020726Y0007878D01*
G01X0020726Y0007878D02*
G01X0020729Y0007890D01*
G01X0020729Y0007890D02*
G01X0020733Y0007902D01*
G01X0020733Y0007902D02*
G01X0020737Y0007914D01*
G01X0020737Y0007914D02*
G01X0020741Y0007925D01*
G01X0020741Y0007925D02*
G01X0020746Y0007937D01*
G01X0020746Y0007937D02*
G01X0020751Y0007948D01*
G01X0020751Y0007948D02*
G01X0020756Y0007959D01*
G01X0020756Y0007959D02*
G01X0020762Y0007970D01*
G01X0020762Y0007970D02*
G01X0020768Y0007981D01*
G01X0020768Y0007981D02*
G01X0020775Y0007991D01*
G01X0020775Y0007991D02*
G01X0020782Y0008002D01*
G01X0020782Y0008002D02*
G01X0020789Y0008012D01*
G01X0020789Y0008012D02*
G01X0020796Y0008022D01*
G01X0020796Y0008022D02*
G01X0020804Y0008031D01*
G01X0020804Y0008031D02*
G01X0020812Y0008041D01*
G01X0020812Y0008041D02*
G01X0020820Y0008050D01*
G01X0020820Y0008050D02*
G01X0020829Y0008059D01*
G01X0020829Y0008059D02*
G01X0020838Y0008067D01*
G01X0020838Y0008067D02*
G01X0020847Y0008076D01*
G01X0020847Y0008076D02*
G01X0020856Y0008084D01*
G01X0020856Y0008084D02*
G01X0020866Y0008091D01*
G01X0020866Y0008091D02*
G01X0020876Y0008099D01*
G01X0020876Y0008099D02*
G01X0020886Y0008106D01*
G01X0020886Y0008106D02*
G01X0020896Y0008113D01*
G01X0020896Y0008113D02*
G01X0020907Y0008119D01*
G01X0020907Y0008119D02*
G01X0020917Y0008125D01*
G01X0020917Y0008125D02*
G01X0020928Y0008131D01*
G01X0020928Y0008131D02*
G01X0020940Y0008137D01*
G01X0020940Y0008137D02*
G01X0020951Y0008142D01*
G01X0020951Y0008142D02*
G01X0020962Y0008146D01*
G01X0020962Y0008146D02*
G01X0020974Y0008151D01*
G01X0020974Y0008151D02*
G01X0020985Y0008155D01*
G01X0020985Y0008155D02*
G01X0020997Y0008158D01*
G01X0020997Y0008158D02*
G01X0021009Y0008162D01*
G01X0021009Y0008162D02*
G01X0021021Y0008165D01*
G01X0021021Y0008165D02*
G01X0021033Y0008167D01*
G01X0021033Y0008167D02*
G01X0021046Y0008169D01*
G01X0021046Y0008169D02*
G01X0021058Y0008171D01*
G01X0021058Y0008171D02*
G01X0021070Y0008172D01*
G01X0021070Y0008172D02*
G01X0021082Y0008173D01*
G01X0021082Y0008173D02*
G01X0021095Y0008174D01*
G01X0021095Y0008174D02*
G01X0021107Y0008174D01*
G01X0021107Y0008174D02*
G01X0021120Y0008174D01*
G01X0021120Y0008174D02*
G01X0021132Y0008173D01*
G01X0021132Y0008173D02*
G01X0021144Y0008172D01*
G01X0021144Y0008172D02*
G01X0021156Y0008171D01*
G01X0021156Y0008171D02*
G01X0021169Y0008169D01*
G01X0021169Y0008169D02*
G01X0021181Y0008167D01*
G01X0021181Y0008167D02*
G01X0021193Y0008165D01*
G01X0021193Y0008165D02*
G01X0021205Y0008162D01*
G01X0021205Y0008162D02*
G01X0021217Y0008158D01*
G01X0021217Y0008158D02*
G01X0021229Y0008155D01*
G01X0021229Y0008155D02*
G01X0021241Y0008151D01*
G01X0021241Y0008151D02*
G01X0021252Y0008146D01*
G01X0021252Y0008146D02*
G01X0021264Y0008142D01*
G01X0021264Y0008142D02*
G01X0021275Y0008137D01*
G01X0021275Y0008137D02*
G01X0021286Y0008131D01*
G01X0021286Y0008131D02*
G01X0021297Y0008125D01*
G01X0021297Y0008125D02*
G01X0021308Y0008119D01*
G01X0021308Y0008119D02*
G01X0021318Y0008113D01*
G01X0021318Y0008113D02*
G01X0021328Y0008106D01*
G01X0021328Y0008106D02*
G01X0021338Y0008099D01*
G01X0021338Y0008099D02*
G01X0021348Y0008091D01*
G01X0021348Y0008091D02*
G01X0021358Y0008084D01*
G01X0021358Y0008084D02*
G01X0021368Y0008076D01*
G01X0021368Y0008076D02*
G01X0021377Y0008067D01*
G01X0021377Y0008067D02*
G01X0021386Y0008059D01*
G01X0021386Y0008059D02*
G01X0021394Y0008050D01*
G01X0021394Y0008050D02*
G01X0021402Y0008041D01*
G01X0021402Y0008041D02*
G01X0021411Y0008031D01*
G01X0021411Y0008031D02*
G01X0021418Y0008022D01*
G01X0021418Y0008022D02*
G01X0021426Y0008012D01*
G01X0021426Y0008012D02*
G01X0021433Y0008002D01*
G01X0021433Y0008002D02*
G01X0021439Y0007991D01*
G01X0021439Y0007991D02*
G01X0021446Y0007981D01*
G01X0021446Y0007981D02*
G01X0021452Y0007970D01*
G01X0021452Y0007970D02*
G01X0021458Y0007959D01*
G01X0021458Y0007959D02*
G01X0021463Y0007948D01*
G01X0021463Y0007948D02*
G01X0021468Y0007937D01*
G01X0021468Y0007937D02*
G01X0021473Y0007925D01*
G01X0021473Y0007925D02*
G01X0021478Y0007914D01*
G01X0021478Y0007914D02*
G01X0021481Y0007902D01*
G01X0021481Y0007902D02*
G01X0021485Y0007890D01*
G01X0021485Y0007890D02*
G01X0021488Y0007878D01*
G01X0021488Y0007878D02*
G01X0021491Y0007866D01*
G01X0021491Y0007866D02*
G01X0021494Y0007854D01*
G01X0021494Y0007854D02*
G01X0021496Y0007842D01*
G01X0021496Y0007842D02*
G01X0021498Y0007830D01*
G01X0021498Y0007830D02*
G01X0021499Y0007817D01*
G01X0021499Y0007817D02*
G01X0021500Y0007805D01*
G01X0021500Y0007805D02*
G01X0021501Y0007793D01*
G01X0021501Y0007793D02*
G01X0021501Y0007780D01*
G01X0021501Y0007780D02*
G01X0021501Y0001875D01*
G01X0021107Y0001481D02*
G01X0021095Y0001481D01*
G01X0021095Y0001481D02*
G01X0021082Y0001482D01*
G01X0021082Y0001482D02*
G01X0021070Y0001483D01*
G01X0021070Y0001483D02*
G01X0021058Y0001484D01*
G01X0021058Y0001484D02*
G01X0021046Y0001486D01*
G01X0021046Y0001486D02*
G01X0021033Y0001488D01*
G01X0021033Y0001488D02*
G01X0021021Y0001491D01*
G01X0021021Y0001491D02*
G01X0021009Y0001494D01*
G01X0021009Y0001494D02*
G01X0020997Y0001497D01*
G01X0020997Y0001497D02*
G01X0020985Y0001500D01*
G01X0020985Y0001500D02*
G01X0020974Y0001504D01*
G01X0020974Y0001504D02*
G01X0020962Y0001509D01*
G01X0020962Y0001509D02*
G01X0020951Y0001514D01*
G01X0020951Y0001514D02*
G01X0020940Y0001519D01*
G01X0020940Y0001519D02*
G01X0020928Y0001524D01*
G01X0020928Y0001524D02*
G01X0020917Y0001530D01*
G01X0020917Y0001530D02*
G01X0020907Y0001536D01*
G01X0020907Y0001536D02*
G01X0020896Y0001542D01*
G01X0020896Y0001542D02*
G01X0020886Y0001549D01*
G01X0020886Y0001549D02*
G01X0020876Y0001556D01*
G01X0020876Y0001556D02*
G01X0020866Y0001564D01*
G01X0020866Y0001564D02*
G01X0020856Y0001571D01*
G01X0020856Y0001571D02*
G01X0020847Y0001580D01*
G01X0020847Y0001580D02*
G01X0020838Y0001588D01*
G01X0020838Y0001588D02*
G01X0020829Y0001596D01*
G01X0020829Y0001596D02*
G01X0020820Y0001605D01*
G01X0020820Y0001605D02*
G01X0020812Y0001614D01*
G01X0020812Y0001614D02*
G01X0020804Y0001624D01*
G01X0020804Y0001624D02*
G01X0020796Y0001634D01*
G01X0020796Y0001634D02*
G01X0020789Y0001643D01*
G01X0020789Y0001643D02*
G01X0020782Y0001654D01*
G01X0020782Y0001654D02*
G01X0020775Y0001664D01*
G01X0020775Y0001664D02*
G01X0020768Y0001674D01*
G01X0020768Y0001674D02*
G01X0020762Y0001685D01*
G01X0020762Y0001685D02*
G01X0020756Y0001696D01*
G01X0020756Y0001696D02*
G01X0020751Y0001707D01*
G01X0020751Y0001707D02*
G01X0020746Y0001718D01*
G01X0020746Y0001718D02*
G01X0020741Y0001730D01*
G01X0020741Y0001730D02*
G01X0020737Y0001741D01*
G01X0020737Y0001741D02*
G01X0020733Y0001753D01*
G01X0020733Y0001753D02*
G01X0020729Y0001765D01*
G01X0020729Y0001765D02*
G01X0020726Y0001777D01*
G01X0020726Y0001777D02*
G01X0020723Y0001789D01*
G01X0020723Y0001789D02*
G01X0020720Y0001801D01*
G01X0020720Y0001801D02*
G01X0020718Y0001813D01*
G01X0020718Y0001813D02*
G01X0020717Y0001826D01*
G01X0020717Y0001826D02*
G01X0020715Y0001838D01*
G01X0020715Y0001838D02*
G01X0020714Y0001850D01*
G01X0020714Y0001850D02*
G01X0020714Y0001862D01*
G01X0020714Y0001862D02*
G01X0020713Y0001875D01*
G01X0021107Y0001481D02*
G01X0021120Y0001481D01*
G01X0021120Y0001481D02*
G01X0021132Y0001482D01*
G01X0021132Y0001482D02*
G01X0021144Y0001483D01*
G01X0021144Y0001483D02*
G01X0021156Y0001484D01*
G01X0021156Y0001484D02*
G01X0021169Y0001486D01*
G01X0021169Y0001486D02*
G01X0021181Y0001488D01*
G01X0021181Y0001488D02*
G01X0021193Y0001491D01*
G01X0021193Y0001491D02*
G01X0021205Y0001494D01*
G01X0021205Y0001494D02*
G01X0021217Y0001497D01*
G01X0021217Y0001497D02*
G01X0021229Y0001500D01*
G01X0021229Y0001500D02*
G01X0021241Y0001504D01*
G01X0021241Y0001504D02*
G01X0021252Y0001509D01*
G01X0021252Y0001509D02*
G01X0021264Y0001514D01*
G01X0021264Y0001514D02*
G01X0021275Y0001519D01*
G01X0021275Y0001519D02*
G01X0021286Y0001524D01*
G01X0021286Y0001524D02*
G01X0021297Y0001530D01*
G01X0021297Y0001530D02*
G01X0021308Y0001536D01*
G01X0021308Y0001536D02*
G01X0021318Y0001542D01*
G01X0021318Y0001542D02*
G01X0021328Y0001549D01*
G01X0021328Y0001549D02*
G01X0021338Y0001556D01*
G01X0021338Y0001556D02*
G01X0021348Y0001564D01*
G01X0021348Y0001564D02*
G01X0021358Y0001571D01*
G01X0021358Y0001571D02*
G01X0021368Y0001580D01*
G01X0021368Y0001580D02*
G01X0021377Y0001588D01*
G01X0021377Y0001588D02*
G01X0021386Y0001596D01*
G01X0021386Y0001596D02*
G01X0021394Y0001605D01*
G01X0021394Y0001605D02*
G01X0021402Y0001614D01*
G01X0021402Y0001614D02*
G01X0021411Y0001624D01*
G01X0021411Y0001624D02*
G01X0021418Y0001634D01*
G01X0021418Y0001634D02*
G01X0021426Y0001643D01*
G01X0021426Y0001643D02*
G01X0021433Y0001654D01*
G01X0021433Y0001654D02*
G01X0021439Y0001664D01*
G01X0021439Y0001664D02*
G01X0021446Y0001674D01*
G01X0021446Y0001674D02*
G01X0021452Y0001685D01*
G01X0021452Y0001685D02*
G01X0021458Y0001696D01*
G01X0021458Y0001696D02*
G01X0021463Y0001707D01*
G01X0021463Y0001707D02*
G01X0021468Y0001718D01*
G01X0021468Y0001718D02*
G01X0021473Y0001730D01*
G01X0021473Y0001730D02*
G01X0021478Y0001741D01*
G01X0021478Y0001741D02*
G01X0021481Y0001753D01*
G01X0021481Y0001753D02*
G01X0021485Y0001765D01*
G01X0021485Y0001765D02*
G01X0021488Y0001777D01*
G01X0021488Y0001777D02*
G01X0021491Y0001789D01*
G01X0021491Y0001789D02*
G01X0021494Y0001801D01*
G01X0021494Y0001801D02*
G01X0021496Y0001813D01*
G01X0021496Y0001813D02*
G01X0021498Y0001826D01*
G01X0021498Y0001826D02*
G01X0021499Y0001838D01*
G01X0021499Y0001838D02*
G01X0021500Y0001850D01*
G01X0021500Y0001850D02*
G01X0021501Y0001862D01*
G01X0021501Y0001862D02*
G01X0021501Y0001875D01*
G01X0027062Y0001678D02*
G01X0027062Y0001693D01*
G01X0027062Y0001693D02*
G01X0027063Y0001707D01*
G01X0027063Y0001707D02*
G01X0027064Y0001722D01*
G01X0027064Y0001722D02*
G01X0027065Y0001737D01*
G01X0027065Y0001737D02*
G01X0027067Y0001751D01*
G01X0027067Y0001751D02*
G01X0027069Y0001766D01*
G01X0027069Y0001766D02*
G01X0027072Y0001780D01*
G01X0027072Y0001780D02*
G01X0027075Y0001794D01*
G01X0027075Y0001794D02*
G01X0027078Y0001809D01*
G01X0027078Y0001809D02*
G01X0027082Y0001823D01*
G01X0027082Y0001823D02*
G01X0027086Y0001837D01*
G01X0027086Y0001837D02*
G01X0027090Y0001851D01*
G01X0027090Y0001851D02*
G01X0027095Y0001865D01*
G01X0027095Y0001865D02*
G01X0027100Y0001878D01*
G01X0027100Y0001878D02*
G01X0027106Y0001892D01*
G01X0027106Y0001892D02*
G01X0027112Y0001905D01*
G01X0027112Y0001905D02*
G01X0027118Y0001919D01*
G01X0027118Y0001919D02*
G01X0027125Y0001931D01*
G01X0027125Y0001931D02*
G01X0027132Y0001944D01*
G01X0027132Y0001944D02*
G01X0027139Y0001957D01*
G01X0027139Y0001957D02*
G01X0027147Y0001969D01*
G01X0027147Y0001969D02*
G01X0027155Y0001982D01*
G01X0027155Y0001982D02*
G01X0027164Y0001994D01*
G01X0027164Y0001994D02*
G01X0027172Y0002006D01*
G01X0027172Y0002006D02*
G01X0027181Y0002017D01*
G01X0027181Y0002017D02*
G01X0027191Y0002028D01*
G01X0027191Y0002028D02*
G01X0027200Y0002040D01*
G01X0027200Y0002040D02*
G01X0027210Y0002050D01*
G01X0027210Y0002050D02*
G01X0027220Y0002061D01*
G01X0027220Y0002061D02*
G01X0027231Y0002071D01*
G01X0027231Y0002071D02*
G01X0027242Y0002081D01*
G01X0027242Y0002081D02*
G01X0027253Y0002091D01*
G01X0027253Y0002091D02*
G01X0027264Y0002100D01*
G01X0027264Y0002100D02*
G01X0027276Y0002109D01*
G01X0027276Y0002109D02*
G01X0027287Y0002118D01*
G01X0027287Y0002118D02*
G01X0027299Y0002126D01*
G01X0027299Y0002126D02*
G01X0027312Y0002134D01*
G01X0027312Y0002134D02*
G01X0027324Y0002142D01*
G01X0027324Y0002142D02*
G01X0027337Y0002149D01*
G01X0027337Y0002149D02*
G01X0027350Y0002156D01*
G01X0027350Y0002156D02*
G01X0027363Y0002163D01*
G01X0027363Y0002163D02*
G01X0027376Y0002169D01*
G01X0027376Y0002169D02*
G01X0027389Y0002175D01*
G01X0027389Y0002175D02*
G01X0027403Y0002181D01*
G01X0027403Y0002181D02*
G01X0027416Y0002186D01*
G01X0027416Y0002186D02*
G01X0027430Y0002191D01*
G01X0027430Y0002191D02*
G01X0027444Y0002196D01*
G01X0027444Y0002196D02*
G01X0027458Y0002200D01*
G01X0027458Y0002200D02*
G01X0027473Y0002203D01*
G01X0027473Y0002203D02*
G01X0027487Y0002207D01*
G01X0027487Y0002207D02*
G01X0027501Y0002210D01*
G01X0027501Y0002210D02*
G01X0027516Y0002212D01*
G01X0027516Y0002212D02*
G01X0027530Y0002214D01*
G01X0027530Y0002214D02*
G01X0027545Y0002216D01*
G01X0027545Y0002216D02*
G01X0027559Y0002218D01*
G01X0027559Y0002218D02*
G01X0027574Y0002219D01*
G01X0027574Y0002219D02*
G01X0027588Y0002219D01*
G01X0027588Y0002219D02*
G01X0027603Y0002219D01*
G01X0027603Y0002219D02*
G01X0027618Y0002219D01*
G01X0027618Y0002219D02*
G01X0027632Y0002219D01*
G01X0027632Y0002219D02*
G01X0027647Y0002218D01*
G01X0027647Y0002218D02*
G01X0027662Y0002216D01*
G01X0027662Y0002216D02*
G01X0027676Y0002214D01*
G01X0027676Y0002214D02*
G01X0027691Y0002212D01*
G01X0027691Y0002212D02*
G01X0027705Y0002210D01*
G01X0027705Y0002210D02*
G01X0027720Y0002207D01*
G01X0027720Y0002207D02*
G01X0027734Y0002203D01*
G01X0027734Y0002203D02*
G01X0027748Y0002200D01*
G01X0027748Y0002200D02*
G01X0027762Y0002196D01*
G01X0027762Y0002196D02*
G01X0027776Y0002191D01*
G01X0027776Y0002191D02*
G01X0027790Y0002186D01*
G01X0027790Y0002186D02*
G01X0027804Y0002181D01*
G01X0027804Y0002181D02*
G01X0027817Y0002175D01*
G01X0027817Y0002175D02*
G01X0027830Y0002169D01*
G01X0027830Y0002169D02*
G01X0027844Y0002163D01*
G01X0027844Y0002163D02*
G01X0027857Y0002156D01*
G01X0027857Y0002156D02*
G01X0027870Y0002149D01*
G01X0027870Y0002149D02*
G01X0027882Y0002142D01*
G01X0027882Y0002142D02*
G01X0027895Y0002134D01*
G01X0027895Y0002134D02*
G01X0027907Y0002126D01*
G01X0027907Y0002126D02*
G01X0027919Y0002118D01*
G01X0027919Y0002118D02*
G01X0027931Y0002109D01*
G01X0027931Y0002109D02*
G01X0027942Y0002100D01*
G01X0027942Y0002100D02*
G01X0027954Y0002091D01*
G01X0027954Y0002091D02*
G01X0027965Y0002081D01*
G01X0027965Y0002081D02*
G01X0027975Y0002071D01*
G01X0027975Y0002071D02*
G01X0027986Y0002061D01*
G01X0027986Y0002061D02*
G01X0027996Y0002050D01*
G01X0027996Y0002050D02*
G01X0028006Y0002040D01*
G01X0028006Y0002040D02*
G01X0028016Y0002028D01*
G01X0028016Y0002028D02*
G01X0028025Y0002017D01*
G01X0028025Y0002017D02*
G01X0028034Y0002006D01*
G01X0028034Y0002006D02*
G01X0028043Y0001994D01*
G01X0028043Y0001994D02*
G01X0028051Y0001982D01*
G01X0028051Y0001982D02*
G01X0028059Y0001969D01*
G01X0028059Y0001969D02*
G01X0028067Y0001957D01*
G01X0028067Y0001957D02*
G01X0028074Y0001944D01*
G01X0028074Y0001944D02*
G01X0028081Y0001931D01*
G01X0028081Y0001931D02*
G01X0028088Y0001919D01*
G01X0028088Y0001919D02*
G01X0028094Y0001905D01*
G01X0028094Y0001905D02*
G01X0028100Y0001892D01*
G01X0028100Y0001892D02*
G01X0028106Y0001878D01*
G01X0028106Y0001878D02*
G01X0028111Y0001865D01*
G01X0028111Y0001865D02*
G01X0028116Y0001851D01*
G01X0028116Y0001851D02*
G01X0028121Y0001837D01*
G01X0028121Y0001837D02*
G01X0028125Y0001823D01*
G01X0028125Y0001823D02*
G01X0028128Y0001809D01*
G01X0028128Y0001809D02*
G01X0028132Y0001794D01*
G01X0028132Y0001794D02*
G01X0028135Y0001780D01*
G01X0028135Y0001780D02*
G01X0028137Y0001766D01*
G01X0028137Y0001766D02*
G01X0028139Y0001751D01*
G01X0028139Y0001751D02*
G01X0028141Y0001737D01*
G01X0028141Y0001737D02*
G01X0028143Y0001722D01*
G01X0028143Y0001722D02*
G01X0028144Y0001707D01*
G01X0028144Y0001707D02*
G01X0028144Y0001693D01*
G01X0028144Y0001693D02*
G01X0028144Y0001678D01*
G01X0028144Y0001678D02*
G01X0028144Y0001663D01*
G01X0028144Y0001663D02*
G01X0028144Y0001649D01*
G01X0028144Y0001649D02*
G01X0028143Y0001634D01*
G01X0028143Y0001634D02*
G01X0028141Y0001620D01*
G01X0028141Y0001620D02*
G01X0028139Y0001605D01*
G01X0028139Y0001605D02*
G01X0028137Y0001590D01*
G01X0028137Y0001590D02*
G01X0028135Y0001576D01*
G01X0028135Y0001576D02*
G01X0028132Y0001562D01*
G01X0028132Y0001562D02*
G01X0028128Y0001547D01*
G01X0028128Y0001547D02*
G01X0028125Y0001533D01*
G01X0028125Y0001533D02*
G01X0028121Y0001519D01*
G01X0028121Y0001519D02*
G01X0028116Y0001505D01*
G01X0028116Y0001505D02*
G01X0028111Y0001491D01*
G01X0028111Y0001491D02*
G01X0028106Y0001478D01*
G01X0028106Y0001478D02*
G01X0028100Y0001464D01*
G01X0028100Y0001464D02*
G01X0028094Y0001451D01*
G01X0028094Y0001451D02*
G01X0028088Y0001438D01*
G01X0028088Y0001438D02*
G01X0028081Y0001425D01*
G01X0028081Y0001425D02*
G01X0028074Y0001412D01*
G01X0028074Y0001412D02*
G01X0028067Y0001399D01*
G01X0028067Y0001399D02*
G01X0028059Y0001387D01*
G01X0028059Y0001387D02*
G01X0028051Y0001374D01*
G01X0028051Y0001374D02*
G01X0028043Y0001362D01*
G01X0028043Y0001362D02*
G01X0028034Y0001350D01*
G01X0028034Y0001350D02*
G01X0028025Y0001339D01*
G01X0028025Y0001339D02*
G01X0028016Y0001328D01*
G01X0028016Y0001328D02*
G01X0028006Y0001317D01*
G01X0028006Y0001317D02*
G01X0027996Y0001306D01*
G01X0027996Y0001306D02*
G01X0027986Y0001295D01*
G01X0027986Y0001295D02*
G01X0027975Y0001285D01*
G01X0027975Y0001285D02*
G01X0027965Y0001275D01*
G01X0027965Y0001275D02*
G01X0027954Y0001265D01*
G01X0027954Y0001265D02*
G01X0027942Y0001256D01*
G01X0027942Y0001256D02*
G01X0027931Y0001247D01*
G01X0027931Y0001247D02*
G01X0027919Y0001238D01*
G01X0027919Y0001238D02*
G01X0027907Y0001230D01*
G01X0027907Y0001230D02*
G01X0027895Y0001222D01*
G01X0027895Y0001222D02*
G01X0027882Y0001214D01*
G01X0027882Y0001214D02*
G01X0027870Y0001207D01*
G01X0027870Y0001207D02*
G01X0027857Y0001200D01*
G01X0027857Y0001200D02*
G01X0027844Y0001193D01*
G01X0027844Y0001193D02*
G01X0027830Y0001187D01*
G01X0027830Y0001187D02*
G01X0027817Y0001181D01*
G01X0027817Y0001181D02*
G01X0027804Y0001175D01*
G01X0027804Y0001175D02*
G01X0027790Y0001170D01*
G01X0027790Y0001170D02*
G01X0027776Y0001165D01*
G01X0027776Y0001165D02*
G01X0027762Y0001161D01*
G01X0027762Y0001161D02*
G01X0027748Y0001156D01*
G01X0027748Y0001156D02*
G01X0027734Y0001153D01*
G01X0027734Y0001153D02*
G01X0027720Y0001149D01*
G01X0027720Y0001149D02*
G01X0027705Y0001146D01*
G01X0027705Y0001146D02*
G01X0027691Y0001144D01*
G01X0027691Y0001144D02*
G01X0027676Y0001142D01*
G01X0027676Y0001142D02*
G01X0027662Y0001140D01*
G01X0027662Y0001140D02*
G01X0027647Y0001139D01*
G01X0027647Y0001139D02*
G01X0027632Y0001138D01*
G01X0027632Y0001138D02*
G01X0027618Y0001137D01*
G01X0027618Y0001137D02*
G01X0027603Y0001137D01*
G01X0027603Y0001137D02*
G01X0027588Y0001137D01*
G01X0027588Y0001137D02*
G01X0027574Y0001138D01*
G01X0027574Y0001138D02*
G01X0027559Y0001139D01*
G01X0027559Y0001139D02*
G01X0027545Y0001140D01*
G01X0027545Y0001140D02*
G01X0027530Y0001142D01*
G01X0027530Y0001142D02*
G01X0027516Y0001144D01*
G01X0027516Y0001144D02*
G01X0027501Y0001146D01*
G01X0027501Y0001146D02*
G01X0027487Y0001149D01*
G01X0027487Y0001149D02*
G01X0027473Y0001153D01*
G01X0027473Y0001153D02*
G01X0027458Y0001156D01*
G01X0027458Y0001156D02*
G01X0027444Y0001161D01*
G01X0027444Y0001161D02*
G01X0027430Y0001165D01*
G01X0027430Y0001165D02*
G01X0027416Y0001170D01*
G01X0027416Y0001170D02*
G01X0027403Y0001175D01*
G01X0027403Y0001175D02*
G01X0027389Y0001181D01*
G01X0027389Y0001181D02*
G01X0027376Y0001187D01*
G01X0027376Y0001187D02*
G01X0027363Y0001193D01*
G01X0027363Y0001193D02*
G01X0027350Y0001200D01*
G01X0027350Y0001200D02*
G01X0027337Y0001207D01*
G01X0027337Y0001207D02*
G01X0027324Y0001214D01*
G01X0027324Y0001214D02*
G01X0027312Y0001222D01*
G01X0027312Y0001222D02*
G01X0027299Y0001230D01*
G01X0027299Y0001230D02*
G01X0027287Y0001238D01*
G01X0027287Y0001238D02*
G01X0027276Y0001247D01*
G01X0027276Y0001247D02*
G01X0027264Y0001256D01*
G01X0027264Y0001256D02*
G01X0027253Y0001265D01*
G01X0027253Y0001265D02*
G01X0027242Y0001275D01*
G01X0027242Y0001275D02*
G01X0027231Y0001285D01*
G01X0027231Y0001285D02*
G01X0027220Y0001295D01*
G01X0027220Y0001295D02*
G01X0027210Y0001306D01*
G01X0027210Y0001306D02*
G01X0027200Y0001317D01*
G01X0027200Y0001317D02*
G01X0027191Y0001328D01*
G01X0027191Y0001328D02*
G01X0027181Y0001339D01*
G01X0027181Y0001339D02*
G01X0027172Y0001350D01*
G01X0027172Y0001350D02*
G01X0027164Y0001362D01*
G01X0027164Y0001362D02*
G01X0027155Y0001374D01*
G01X0027155Y0001374D02*
G01X0027147Y0001387D01*
G01X0027147Y0001387D02*
G01X0027139Y0001399D01*
G01X0027139Y0001399D02*
G01X0027132Y0001412D01*
G01X0027132Y0001412D02*
G01X0027125Y0001425D01*
G01X0027125Y0001425D02*
G01X0027118Y0001438D01*
G01X0027118Y0001438D02*
G01X0027112Y0001451D01*
G01X0027112Y0001451D02*
G01X0027106Y0001464D01*
G01X0027106Y0001464D02*
G01X0027100Y0001478D01*
G01X0027100Y0001478D02*
G01X0027095Y0001491D01*
G01X0027095Y0001491D02*
G01X0027090Y0001505D01*
G01X0027090Y0001505D02*
G01X0027086Y0001519D01*
G01X0027086Y0001519D02*
G01X0027082Y0001533D01*
G01X0027082Y0001533D02*
G01X0027078Y0001547D01*
G01X0027078Y0001547D02*
G01X0027075Y0001562D01*
G01X0027075Y0001562D02*
G01X0027072Y0001576D01*
G01X0027072Y0001576D02*
G01X0027069Y0001590D01*
G01X0027069Y0001590D02*
G01X0027067Y0001605D01*
G01X0027067Y0001605D02*
G01X0027065Y0001620D01*
G01X0027065Y0001620D02*
G01X0027064Y0001634D01*
G01X0027064Y0001634D02*
G01X0027063Y0001649D01*
G01X0027063Y0001649D02*
G01X0027062Y0001663D01*
G01X0027062Y0001663D02*
G01X0027062Y0001678D01*
G01X0027062Y0020969D02*
G01X0027062Y0020984D01*
G01X0027062Y0020984D02*
G01X0027063Y0020999D01*
G01X0027063Y0020999D02*
G01X0027064Y0021013D01*
G01X0027064Y0021013D02*
G01X0027065Y0021028D01*
G01X0027065Y0021028D02*
G01X0027067Y0021042D01*
G01X0027067Y0021042D02*
G01X0027069Y0021057D01*
G01X0027069Y0021057D02*
G01X0027072Y0021071D01*
G01X0027072Y0021071D02*
G01X0027075Y0021086D01*
G01X0027075Y0021086D02*
G01X0027078Y0021100D01*
G01X0027078Y0021100D02*
G01X0027082Y0021114D01*
G01X0027082Y0021114D02*
G01X0027086Y0021128D01*
G01X0027086Y0021128D02*
G01X0027090Y0021142D01*
G01X0027090Y0021142D02*
G01X0027095Y0021156D01*
G01X0027095Y0021156D02*
G01X0027100Y0021170D01*
G01X0027100Y0021170D02*
G01X0027106Y0021183D01*
G01X0027106Y0021183D02*
G01X0027112Y0021197D01*
G01X0027112Y0021197D02*
G01X0027118Y0021210D01*
G01X0027118Y0021210D02*
G01X0027125Y0021223D01*
G01X0027125Y0021223D02*
G01X0027132Y0021236D01*
G01X0027132Y0021236D02*
G01X0027139Y0021248D01*
G01X0027139Y0021248D02*
G01X0027147Y0021261D01*
G01X0027147Y0021261D02*
G01X0027155Y0021273D01*
G01X0027155Y0021273D02*
G01X0027164Y0021285D01*
G01X0027164Y0021285D02*
G01X0027172Y0021297D01*
G01X0027172Y0021297D02*
G01X0027181Y0021308D01*
G01X0027181Y0021308D02*
G01X0027191Y0021320D01*
G01X0027191Y0021320D02*
G01X0027200Y0021331D01*
G01X0027200Y0021331D02*
G01X0027210Y0021342D01*
G01X0027210Y0021342D02*
G01X0027220Y0021352D01*
G01X0027220Y0021352D02*
G01X0027231Y0021362D01*
G01X0027231Y0021362D02*
G01X0027242Y0021372D01*
G01X0027242Y0021372D02*
G01X0027253Y0021382D01*
G01X0027253Y0021382D02*
G01X0027264Y0021391D01*
G01X0027264Y0021391D02*
G01X0027276Y0021400D01*
G01X0027276Y0021400D02*
G01X0027287Y0021409D01*
G01X0027287Y0021409D02*
G01X0027299Y0021417D01*
G01X0027299Y0021417D02*
G01X0027312Y0021425D01*
G01X0027312Y0021425D02*
G01X0027324Y0021433D01*
G01X0027324Y0021433D02*
G01X0027337Y0021441D01*
G01X0027337Y0021441D02*
G01X0027350Y0021448D01*
G01X0027350Y0021448D02*
G01X0027363Y0021454D01*
G01X0027363Y0021454D02*
G01X0027376Y0021461D01*
G01X0027376Y0021461D02*
G01X0027389Y0021467D01*
G01X0027389Y0021467D02*
G01X0027403Y0021472D01*
G01X0027403Y0021472D02*
G01X0027416Y0021477D01*
G01X0027416Y0021477D02*
G01X0027430Y0021482D01*
G01X0027430Y0021482D02*
G01X0027444Y0021487D01*
G01X0027444Y0021487D02*
G01X0027458Y0021491D01*
G01X0027458Y0021491D02*
G01X0027473Y0021495D01*
G01X0027473Y0021495D02*
G01X0027487Y0021498D01*
G01X0027487Y0021498D02*
G01X0027501Y0021501D01*
G01X0027501Y0021501D02*
G01X0027516Y0021504D01*
G01X0027516Y0021504D02*
G01X0027530Y0021506D01*
G01X0027530Y0021506D02*
G01X0027545Y0021507D01*
G01X0027545Y0021507D02*
G01X0027559Y0021509D01*
G01X0027559Y0021509D02*
G01X0027574Y0021510D01*
G01X0027574Y0021510D02*
G01X0027588Y0021510D01*
G01X0027588Y0021510D02*
G01X0027603Y0021511D01*
G01X0027603Y0021511D02*
G01X0027618Y0021510D01*
G01X0027618Y0021510D02*
G01X0027632Y0021510D01*
G01X0027632Y0021510D02*
G01X0027647Y0021509D01*
G01X0027647Y0021509D02*
G01X0027662Y0021507D01*
G01X0027662Y0021507D02*
G01X0027676Y0021506D01*
G01X0027676Y0021506D02*
G01X0027691Y0021504D01*
G01X0027691Y0021504D02*
G01X0027705Y0021501D01*
G01X0027705Y0021501D02*
G01X0027720Y0021498D01*
G01X0027720Y0021498D02*
G01X0027734Y0021495D01*
G01X0027734Y0021495D02*
G01X0027748Y0021491D01*
G01X0027748Y0021491D02*
G01X0027762Y0021487D01*
G01X0027762Y0021487D02*
G01X0027776Y0021482D01*
G01X0027776Y0021482D02*
G01X0027790Y0021477D01*
G01X0027790Y0021477D02*
G01X0027804Y0021472D01*
G01X0027804Y0021472D02*
G01X0027817Y0021467D01*
G01X0027817Y0021467D02*
G01X0027830Y0021461D01*
G01X0027830Y0021461D02*
G01X0027844Y0021454D01*
G01X0027844Y0021454D02*
G01X0027857Y0021448D01*
G01X0027857Y0021448D02*
G01X0027870Y0021441D01*
G01X0027870Y0021441D02*
G01X0027882Y0021433D01*
G01X0027882Y0021433D02*
G01X0027895Y0021425D01*
G01X0027895Y0021425D02*
G01X0027907Y0021417D01*
G01X0027907Y0021417D02*
G01X0027919Y0021409D01*
G01X0027919Y0021409D02*
G01X0027931Y0021400D01*
G01X0027931Y0021400D02*
G01X0027942Y0021391D01*
G01X0027942Y0021391D02*
G01X0027954Y0021382D01*
G01X0027954Y0021382D02*
G01X0027965Y0021372D01*
G01X0027965Y0021372D02*
G01X0027975Y0021362D01*
G01X0027975Y0021362D02*
G01X0027986Y0021352D01*
G01X0027986Y0021352D02*
G01X0027996Y0021342D01*
G01X0027996Y0021342D02*
G01X0028006Y0021331D01*
G01X0028006Y0021331D02*
G01X0028016Y0021320D01*
G01X0028016Y0021320D02*
G01X0028025Y0021308D01*
G01X0028025Y0021308D02*
G01X0028034Y0021297D01*
G01X0028034Y0021297D02*
G01X0028043Y0021285D01*
G01X0028043Y0021285D02*
G01X0028051Y0021273D01*
G01X0028051Y0021273D02*
G01X0028059Y0021261D01*
G01X0028059Y0021261D02*
G01X0028067Y0021248D01*
G01X0028067Y0021248D02*
G01X0028074Y0021236D01*
G01X0028074Y0021236D02*
G01X0028081Y0021223D01*
G01X0028081Y0021223D02*
G01X0028088Y0021210D01*
G01X0028088Y0021210D02*
G01X0028094Y0021197D01*
G01X0028094Y0021197D02*
G01X0028100Y0021183D01*
G01X0028100Y0021183D02*
G01X0028106Y0021170D01*
G01X0028106Y0021170D02*
G01X0028111Y0021156D01*
G01X0028111Y0021156D02*
G01X0028116Y0021142D01*
G01X0028116Y0021142D02*
G01X0028121Y0021128D01*
G01X0028121Y0021128D02*
G01X0028125Y0021114D01*
G01X0028125Y0021114D02*
G01X0028128Y0021100D01*
G01X0028128Y0021100D02*
G01X0028132Y0021086D01*
G01X0028132Y0021086D02*
G01X0028135Y0021071D01*
G01X0028135Y0021071D02*
G01X0028137Y0021057D01*
G01X0028137Y0021057D02*
G01X0028139Y0021042D01*
G01X0028139Y0021042D02*
G01X0028141Y0021028D01*
G01X0028141Y0021028D02*
G01X0028143Y0021013D01*
G01X0028143Y0021013D02*
G01X0028144Y0020999D01*
G01X0028144Y0020999D02*
G01X0028144Y0020984D01*
G01X0028144Y0020984D02*
G01X0028144Y0020969D01*
G01X0028144Y0020969D02*
G01X0028144Y0020955D01*
G01X0028144Y0020955D02*
G01X0028144Y0020940D01*
G01X0028144Y0020940D02*
G01X0028143Y0020925D01*
G01X0028143Y0020925D02*
G01X0028141Y0020911D01*
G01X0028141Y0020911D02*
G01X0028139Y0020896D01*
G01X0028139Y0020896D02*
G01X0028137Y0020882D01*
G01X0028137Y0020882D02*
G01X0028135Y0020867D01*
G01X0028135Y0020867D02*
G01X0028132Y0020853D01*
G01X0028132Y0020853D02*
G01X0028128Y0020839D01*
G01X0028128Y0020839D02*
G01X0028125Y0020825D01*
G01X0028125Y0020825D02*
G01X0028121Y0020810D01*
G01X0028121Y0020810D02*
G01X0028116Y0020797D01*
G01X0028116Y0020797D02*
G01X0028111Y0020783D01*
G01X0028111Y0020783D02*
G01X0028106Y0020769D01*
G01X0028106Y0020769D02*
G01X0028100Y0020755D01*
G01X0028100Y0020755D02*
G01X0028094Y0020742D01*
G01X0028094Y0020742D02*
G01X0028088Y0020729D01*
G01X0028088Y0020729D02*
G01X0028081Y0020716D01*
G01X0028081Y0020716D02*
G01X0028074Y0020703D01*
G01X0028074Y0020703D02*
G01X0028067Y0020690D01*
G01X0028067Y0020690D02*
G01X0028059Y0020678D01*
G01X0028059Y0020678D02*
G01X0028051Y0020666D01*
G01X0028051Y0020666D02*
G01X0028043Y0020654D01*
G01X0028043Y0020654D02*
G01X0028034Y0020642D01*
G01X0028034Y0020642D02*
G01X0028025Y0020630D01*
G01X0028025Y0020630D02*
G01X0028016Y0020619D01*
G01X0028016Y0020619D02*
G01X0028006Y0020608D01*
G01X0028006Y0020608D02*
G01X0027996Y0020597D01*
G01X0027996Y0020597D02*
G01X0027986Y0020587D01*
G01X0027986Y0020587D02*
G01X0027975Y0020576D01*
G01X0027975Y0020576D02*
G01X0027965Y0020566D01*
G01X0027965Y0020566D02*
G01X0027954Y0020557D01*
G01X0027954Y0020557D02*
G01X0027942Y0020547D01*
G01X0027942Y0020547D02*
G01X0027931Y0020538D01*
G01X0027931Y0020538D02*
G01X0027919Y0020530D01*
G01X0027919Y0020530D02*
G01X0027907Y0020521D01*
G01X0027907Y0020521D02*
G01X0027895Y0020513D01*
G01X0027895Y0020513D02*
G01X0027882Y0020506D01*
G01X0027882Y0020506D02*
G01X0027870Y0020498D01*
G01X0027870Y0020498D02*
G01X0027857Y0020491D01*
G01X0027857Y0020491D02*
G01X0027844Y0020484D01*
G01X0027844Y0020484D02*
G01X0027830Y0020478D01*
G01X0027830Y0020478D02*
G01X0027817Y0020472D01*
G01X0027817Y0020472D02*
G01X0027804Y0020466D01*
G01X0027804Y0020466D02*
G01X0027790Y0020461D01*
G01X0027790Y0020461D02*
G01X0027776Y0020456D01*
G01X0027776Y0020456D02*
G01X0027762Y0020452D01*
G01X0027762Y0020452D02*
G01X0027748Y0020448D01*
G01X0027748Y0020448D02*
G01X0027734Y0020444D01*
G01X0027734Y0020444D02*
G01X0027720Y0020441D01*
G01X0027720Y0020441D02*
G01X0027705Y0020438D01*
G01X0027705Y0020438D02*
G01X0027691Y0020435D01*
G01X0027691Y0020435D02*
G01X0027676Y0020433D01*
G01X0027676Y0020433D02*
G01X0027662Y0020431D01*
G01X0027662Y0020431D02*
G01X0027647Y0020430D01*
G01X0027647Y0020430D02*
G01X0027632Y0020429D01*
G01X0027632Y0020429D02*
G01X0027618Y0020428D01*
G01X0027618Y0020428D02*
G01X0027603Y0020428D01*
G01X0027603Y0020428D02*
G01X0027588Y0020428D01*
G01X0027588Y0020428D02*
G01X0027574Y0020429D01*
G01X0027574Y0020429D02*
G01X0027559Y0020430D01*
G01X0027559Y0020430D02*
G01X0027545Y0020431D01*
G01X0027545Y0020431D02*
G01X0027530Y0020433D01*
G01X0027530Y0020433D02*
G01X0027516Y0020435D01*
G01X0027516Y0020435D02*
G01X0027501Y0020438D01*
G01X0027501Y0020438D02*
G01X0027487Y0020441D01*
G01X0027487Y0020441D02*
G01X0027473Y0020444D01*
G01X0027473Y0020444D02*
G01X0027458Y0020448D01*
G01X0027458Y0020448D02*
G01X0027444Y0020452D01*
G01X0027444Y0020452D02*
G01X0027430Y0020456D01*
G01X0027430Y0020456D02*
G01X0027416Y0020461D01*
G01X0027416Y0020461D02*
G01X0027403Y0020466D01*
G01X0027403Y0020466D02*
G01X0027389Y0020472D01*
G01X0027389Y0020472D02*
G01X0027376Y0020478D01*
G01X0027376Y0020478D02*
G01X0027363Y0020484D01*
G01X0027363Y0020484D02*
G01X0027350Y0020491D01*
G01X0027350Y0020491D02*
G01X0027337Y0020498D01*
G01X0027337Y0020498D02*
G01X0027324Y0020506D01*
G01X0027324Y0020506D02*
G01X0027312Y0020513D01*
G01X0027312Y0020513D02*
G01X0027299Y0020521D01*
G01X0027299Y0020521D02*
G01X0027287Y0020530D01*
G01X0027287Y0020530D02*
G01X0027276Y0020538D01*
G01X0027276Y0020538D02*
G01X0027264Y0020547D01*
G01X0027264Y0020547D02*
G01X0027253Y0020557D01*
G01X0027253Y0020557D02*
G01X0027242Y0020566D01*
G01X0027242Y0020566D02*
G01X0027231Y0020576D01*
G01X0027231Y0020576D02*
G01X0027220Y0020587D01*
G01X0027220Y0020587D02*
G01X0027210Y0020597D01*
G01X0027210Y0020597D02*
G01X0027200Y0020608D01*
G01X0027200Y0020608D02*
G01X0027191Y0020619D01*
G01X0027191Y0020619D02*
G01X0027181Y0020630D01*
G01X0027181Y0020630D02*
G01X0027172Y0020642D01*
G01X0027172Y0020642D02*
G01X0027164Y0020654D01*
G01X0027164Y0020654D02*
G01X0027155Y0020666D01*
G01X0027155Y0020666D02*
G01X0027147Y0020678D01*
G01X0027147Y0020678D02*
G01X0027139Y0020690D01*
G01X0027139Y0020690D02*
G01X0027132Y0020703D01*
G01X0027132Y0020703D02*
G01X0027125Y0020716D01*
G01X0027125Y0020716D02*
G01X0027118Y0020729D01*
G01X0027118Y0020729D02*
G01X0027112Y0020742D01*
G01X0027112Y0020742D02*
G01X0027106Y0020755D01*
G01X0027106Y0020755D02*
G01X0027100Y0020769D01*
G01X0027100Y0020769D02*
G01X0027095Y0020783D01*
G01X0027095Y0020783D02*
G01X0027090Y0020797D01*
G01X0027090Y0020797D02*
G01X0027086Y0020810D01*
G01X0027086Y0020810D02*
G01X0027082Y0020825D01*
G01X0027082Y0020825D02*
G01X0027078Y0020839D01*
G01X0027078Y0020839D02*
G01X0027075Y0020853D01*
G01X0027075Y0020853D02*
G01X0027072Y0020867D01*
G01X0027072Y0020867D02*
G01X0027069Y0020882D01*
G01X0027069Y0020882D02*
G01X0027067Y0020896D01*
G01X0027067Y0020896D02*
G01X0027065Y0020911D01*
G01X0027065Y0020911D02*
G01X0027064Y0020925D01*
G01X0027064Y0020925D02*
G01X0027063Y0020940D01*
G01X0027063Y0020940D02*
G01X0027062Y0020955D01*
G01X0027062Y0020955D02*
G01X0027062Y0020969D01*
G01X0004227Y0020969D02*
G01X0004227Y0020984D01*
G01X0004227Y0020984D02*
G01X0004228Y0020999D01*
G01X0004228Y0020999D02*
G01X0004229Y0021013D01*
G01X0004229Y0021013D02*
G01X0004230Y0021028D01*
G01X0004230Y0021028D02*
G01X0004232Y0021042D01*
G01X0004232Y0021042D02*
G01X0004234Y0021057D01*
G01X0004234Y0021057D02*
G01X0004237Y0021071D01*
G01X0004237Y0021071D02*
G01X0004240Y0021086D01*
G01X0004240Y0021086D02*
G01X0004243Y0021100D01*
G01X0004243Y0021100D02*
G01X0004247Y0021114D01*
G01X0004247Y0021114D02*
G01X0004251Y0021128D01*
G01X0004251Y0021128D02*
G01X0004256Y0021142D01*
G01X0004256Y0021142D02*
G01X0004260Y0021156D01*
G01X0004260Y0021156D02*
G01X0004266Y0021170D01*
G01X0004266Y0021170D02*
G01X0004271Y0021183D01*
G01X0004271Y0021183D02*
G01X0004277Y0021197D01*
G01X0004277Y0021197D02*
G01X0004284Y0021210D01*
G01X0004284Y0021210D02*
G01X0004290Y0021223D01*
G01X0004290Y0021223D02*
G01X0004297Y0021236D01*
G01X0004297Y0021236D02*
G01X0004305Y0021248D01*
G01X0004305Y0021248D02*
G01X0004312Y0021261D01*
G01X0004312Y0021261D02*
G01X0004321Y0021273D01*
G01X0004321Y0021273D02*
G01X0004329Y0021285D01*
G01X0004329Y0021285D02*
G01X0004338Y0021297D01*
G01X0004338Y0021297D02*
G01X0004347Y0021308D01*
G01X0004347Y0021308D02*
G01X0004356Y0021320D01*
G01X0004356Y0021320D02*
G01X0004366Y0021331D01*
G01X0004366Y0021331D02*
G01X0004376Y0021342D01*
G01X0004376Y0021342D02*
G01X0004386Y0021352D01*
G01X0004386Y0021352D02*
G01X0004396Y0021362D01*
G01X0004396Y0021362D02*
G01X0004407Y0021372D01*
G01X0004407Y0021372D02*
G01X0004418Y0021382D01*
G01X0004418Y0021382D02*
G01X0004429Y0021391D01*
G01X0004429Y0021391D02*
G01X0004441Y0021400D01*
G01X0004441Y0021400D02*
G01X0004453Y0021409D01*
G01X0004453Y0021409D02*
G01X0004465Y0021417D01*
G01X0004465Y0021417D02*
G01X0004477Y0021425D01*
G01X0004477Y0021425D02*
G01X0004489Y0021433D01*
G01X0004489Y0021433D02*
G01X0004502Y0021441D01*
G01X0004502Y0021441D02*
G01X0004515Y0021448D01*
G01X0004515Y0021448D02*
G01X0004528Y0021454D01*
G01X0004528Y0021454D02*
G01X0004541Y0021461D01*
G01X0004541Y0021461D02*
G01X0004555Y0021467D01*
G01X0004555Y0021467D02*
G01X0004568Y0021472D01*
G01X0004568Y0021472D02*
G01X0004582Y0021477D01*
G01X0004582Y0021477D02*
G01X0004596Y0021482D01*
G01X0004596Y0021482D02*
G01X0004610Y0021487D01*
G01X0004610Y0021487D02*
G01X0004624Y0021491D01*
G01X0004624Y0021491D02*
G01X0004638Y0021495D01*
G01X0004638Y0021495D02*
G01X0004652Y0021498D01*
G01X0004652Y0021498D02*
G01X0004667Y0021501D01*
G01X0004667Y0021501D02*
G01X0004681Y0021504D01*
G01X0004681Y0021504D02*
G01X0004695Y0021506D01*
G01X0004695Y0021506D02*
G01X0004710Y0021507D01*
G01X0004710Y0021507D02*
G01X0004725Y0021509D01*
G01X0004725Y0021509D02*
G01X0004739Y0021510D01*
G01X0004739Y0021510D02*
G01X0004754Y0021510D01*
G01X0004754Y0021510D02*
G01X0004769Y0021511D01*
G01X0004769Y0021511D02*
G01X0004783Y0021510D01*
G01X0004783Y0021510D02*
G01X0004798Y0021510D01*
G01X0004798Y0021510D02*
G01X0004812Y0021509D01*
G01X0004812Y0021509D02*
G01X0004827Y0021507D01*
G01X0004827Y0021507D02*
G01X0004842Y0021506D01*
G01X0004842Y0021506D02*
G01X0004856Y0021504D01*
G01X0004856Y0021504D02*
G01X0004871Y0021501D01*
G01X0004871Y0021501D02*
G01X0004885Y0021498D01*
G01X0004885Y0021498D02*
G01X0004899Y0021495D01*
G01X0004899Y0021495D02*
G01X0004913Y0021491D01*
G01X0004913Y0021491D02*
G01X0004927Y0021487D01*
G01X0004927Y0021487D02*
G01X0004941Y0021482D01*
G01X0004941Y0021482D02*
G01X0004955Y0021477D01*
G01X0004955Y0021477D02*
G01X0004969Y0021472D01*
G01X0004969Y0021472D02*
G01X0004982Y0021467D01*
G01X0004982Y0021467D02*
G01X0004996Y0021461D01*
G01X0004996Y0021461D02*
G01X0005009Y0021454D01*
G01X0005009Y0021454D02*
G01X0005022Y0021448D01*
G01X0005022Y0021448D02*
G01X0005035Y0021441D01*
G01X0005035Y0021441D02*
G01X0005048Y0021433D01*
G01X0005048Y0021433D02*
G01X0005060Y0021425D01*
G01X0005060Y0021425D02*
G01X0005072Y0021417D01*
G01X0005072Y0021417D02*
G01X0005084Y0021409D01*
G01X0005084Y0021409D02*
G01X0005096Y0021400D01*
G01X0005096Y0021400D02*
G01X0005108Y0021391D01*
G01X0005108Y0021391D02*
G01X0005119Y0021382D01*
G01X0005119Y0021382D02*
G01X0005130Y0021372D01*
G01X0005130Y0021372D02*
G01X0005141Y0021362D01*
G01X0005141Y0021362D02*
G01X0005151Y0021352D01*
G01X0005151Y0021352D02*
G01X0005162Y0021342D01*
G01X0005162Y0021342D02*
G01X0005171Y0021331D01*
G01X0005171Y0021331D02*
G01X0005181Y0021320D01*
G01X0005181Y0021320D02*
G01X0005190Y0021308D01*
G01X0005190Y0021308D02*
G01X0005199Y0021297D01*
G01X0005199Y0021297D02*
G01X0005208Y0021285D01*
G01X0005208Y0021285D02*
G01X0005216Y0021273D01*
G01X0005216Y0021273D02*
G01X0005225Y0021261D01*
G01X0005225Y0021261D02*
G01X0005232Y0021248D01*
G01X0005232Y0021248D02*
G01X0005240Y0021236D01*
G01X0005240Y0021236D02*
G01X0005247Y0021223D01*
G01X0005247Y0021223D02*
G01X0005253Y0021210D01*
G01X0005253Y0021210D02*
G01X0005260Y0021197D01*
G01X0005260Y0021197D02*
G01X0005266Y0021183D01*
G01X0005266Y0021183D02*
G01X0005271Y0021170D01*
G01X0005271Y0021170D02*
G01X0005277Y0021156D01*
G01X0005277Y0021156D02*
G01X0005282Y0021142D01*
G01X0005282Y0021142D02*
G01X0005286Y0021128D01*
G01X0005286Y0021128D02*
G01X0005290Y0021114D01*
G01X0005290Y0021114D02*
G01X0005294Y0021100D01*
G01X0005294Y0021100D02*
G01X0005297Y0021086D01*
G01X0005297Y0021086D02*
G01X0005300Y0021071D01*
G01X0005300Y0021071D02*
G01X0005303Y0021057D01*
G01X0005303Y0021057D02*
G01X0005305Y0021042D01*
G01X0005305Y0021042D02*
G01X0005307Y0021028D01*
G01X0005307Y0021028D02*
G01X0005308Y0021013D01*
G01X0005308Y0021013D02*
G01X0005309Y0020999D01*
G01X0005309Y0020999D02*
G01X0005310Y0020984D01*
G01X0005310Y0020984D02*
G01X0005310Y0020969D01*
G01X0005310Y0020969D02*
G01X0005310Y0020955D01*
G01X0005310Y0020955D02*
G01X0005309Y0020940D01*
G01X0005309Y0020940D02*
G01X0005308Y0020925D01*
G01X0005308Y0020925D02*
G01X0005307Y0020911D01*
G01X0005307Y0020911D02*
G01X0005305Y0020896D01*
G01X0005305Y0020896D02*
G01X0005303Y0020882D01*
G01X0005303Y0020882D02*
G01X0005300Y0020867D01*
G01X0005300Y0020867D02*
G01X0005297Y0020853D01*
G01X0005297Y0020853D02*
G01X0005294Y0020839D01*
G01X0005294Y0020839D02*
G01X0005290Y0020825D01*
G01X0005290Y0020825D02*
G01X0005286Y0020810D01*
G01X0005286Y0020810D02*
G01X0005282Y0020797D01*
G01X0005282Y0020797D02*
G01X0005277Y0020783D01*
G01X0005277Y0020783D02*
G01X0005271Y0020769D01*
G01X0005271Y0020769D02*
G01X0005266Y0020755D01*
G01X0005266Y0020755D02*
G01X0005260Y0020742D01*
G01X0005260Y0020742D02*
G01X0005253Y0020729D01*
G01X0005253Y0020729D02*
G01X0005247Y0020716D01*
G01X0005247Y0020716D02*
G01X0005240Y0020703D01*
G01X0005240Y0020703D02*
G01X0005232Y0020690D01*
G01X0005232Y0020690D02*
G01X0005225Y0020678D01*
G01X0005225Y0020678D02*
G01X0005216Y0020666D01*
G01X0005216Y0020666D02*
G01X0005208Y0020654D01*
G01X0005208Y0020654D02*
G01X0005199Y0020642D01*
G01X0005199Y0020642D02*
G01X0005190Y0020630D01*
G01X0005190Y0020630D02*
G01X0005181Y0020619D01*
G01X0005181Y0020619D02*
G01X0005171Y0020608D01*
G01X0005171Y0020608D02*
G01X0005162Y0020597D01*
G01X0005162Y0020597D02*
G01X0005151Y0020587D01*
G01X0005151Y0020587D02*
G01X0005141Y0020576D01*
G01X0005141Y0020576D02*
G01X0005130Y0020566D01*
G01X0005130Y0020566D02*
G01X0005119Y0020557D01*
G01X0005119Y0020557D02*
G01X0005108Y0020547D01*
G01X0005108Y0020547D02*
G01X0005096Y0020538D01*
G01X0005096Y0020538D02*
G01X0005084Y0020530D01*
G01X0005084Y0020530D02*
G01X0005072Y0020521D01*
G01X0005072Y0020521D02*
G01X0005060Y0020513D01*
G01X0005060Y0020513D02*
G01X0005048Y0020506D01*
G01X0005048Y0020506D02*
G01X0005035Y0020498D01*
G01X0005035Y0020498D02*
G01X0005022Y0020491D01*
G01X0005022Y0020491D02*
G01X0005009Y0020484D01*
G01X0005009Y0020484D02*
G01X0004996Y0020478D01*
G01X0004996Y0020478D02*
G01X0004982Y0020472D01*
G01X0004982Y0020472D02*
G01X0004969Y0020466D01*
G01X0004969Y0020466D02*
G01X0004955Y0020461D01*
G01X0004955Y0020461D02*
G01X0004941Y0020456D01*
G01X0004941Y0020456D02*
G01X0004927Y0020452D01*
G01X0004927Y0020452D02*
G01X0004913Y0020448D01*
G01X0004913Y0020448D02*
G01X0004899Y0020444D01*
G01X0004899Y0020444D02*
G01X0004885Y0020441D01*
G01X0004885Y0020441D02*
G01X0004871Y0020438D01*
G01X0004871Y0020438D02*
G01X0004856Y0020435D01*
G01X0004856Y0020435D02*
G01X0004842Y0020433D01*
G01X0004842Y0020433D02*
G01X0004827Y0020431D01*
G01X0004827Y0020431D02*
G01X0004812Y0020430D01*
G01X0004812Y0020430D02*
G01X0004798Y0020429D01*
G01X0004798Y0020429D02*
G01X0004783Y0020428D01*
G01X0004783Y0020428D02*
G01X0004769Y0020428D01*
G01X0004769Y0020428D02*
G01X0004754Y0020428D01*
G01X0004754Y0020428D02*
G01X0004739Y0020429D01*
G01X0004739Y0020429D02*
G01X0004725Y0020430D01*
G01X0004725Y0020430D02*
G01X0004710Y0020431D01*
G01X0004710Y0020431D02*
G01X0004695Y0020433D01*
G01X0004695Y0020433D02*
G01X0004681Y0020435D01*
G01X0004681Y0020435D02*
G01X0004667Y0020438D01*
G01X0004667Y0020438D02*
G01X0004652Y0020441D01*
G01X0004652Y0020441D02*
G01X0004638Y0020444D01*
G01X0004638Y0020444D02*
G01X0004624Y0020448D01*
G01X0004624Y0020448D02*
G01X0004610Y0020452D01*
G01X0004610Y0020452D02*
G01X0004596Y0020456D01*
G01X0004596Y0020456D02*
G01X0004582Y0020461D01*
G01X0004582Y0020461D02*
G01X0004568Y0020466D01*
G01X0004568Y0020466D02*
G01X0004555Y0020472D01*
G01X0004555Y0020472D02*
G01X0004541Y0020478D01*
G01X0004541Y0020478D02*
G01X0004528Y0020484D01*
G01X0004528Y0020484D02*
G01X0004515Y0020491D01*
G01X0004515Y0020491D02*
G01X0004502Y0020498D01*
G01X0004502Y0020498D02*
G01X0004489Y0020506D01*
G01X0004489Y0020506D02*
G01X0004477Y0020513D01*
G01X0004477Y0020513D02*
G01X0004465Y0020521D01*
G01X0004465Y0020521D02*
G01X0004453Y0020530D01*
G01X0004453Y0020530D02*
G01X0004441Y0020538D01*
G01X0004441Y0020538D02*
G01X0004429Y0020547D01*
G01X0004429Y0020547D02*
G01X0004418Y0020557D01*
G01X0004418Y0020557D02*
G01X0004407Y0020566D01*
G01X0004407Y0020566D02*
G01X0004396Y0020576D01*
G01X0004396Y0020576D02*
G01X0004386Y0020587D01*
G01X0004386Y0020587D02*
G01X0004376Y0020597D01*
G01X0004376Y0020597D02*
G01X0004366Y0020608D01*
G01X0004366Y0020608D02*
G01X0004356Y0020619D01*
G01X0004356Y0020619D02*
G01X0004347Y0020630D01*
G01X0004347Y0020630D02*
G01X0004338Y0020642D01*
G01X0004338Y0020642D02*
G01X0004329Y0020654D01*
G01X0004329Y0020654D02*
G01X0004321Y0020666D01*
G01X0004321Y0020666D02*
G01X0004312Y0020678D01*
G01X0004312Y0020678D02*
G01X0004305Y0020690D01*
G01X0004305Y0020690D02*
G01X0004297Y0020703D01*
G01X0004297Y0020703D02*
G01X0004290Y0020716D01*
G01X0004290Y0020716D02*
G01X0004284Y0020729D01*
G01X0004284Y0020729D02*
G01X0004277Y0020742D01*
G01X0004277Y0020742D02*
G01X0004271Y0020755D01*
G01X0004271Y0020755D02*
G01X0004266Y0020769D01*
G01X0004266Y0020769D02*
G01X0004260Y0020783D01*
G01X0004260Y0020783D02*
G01X0004256Y0020797D01*
G01X0004256Y0020797D02*
G01X0004251Y0020810D01*
G01X0004251Y0020810D02*
G01X0004247Y0020825D01*
G01X0004247Y0020825D02*
G01X0004243Y0020839D01*
G01X0004243Y0020839D02*
G01X0004240Y0020853D01*
G01X0004240Y0020853D02*
G01X0004237Y0020867D01*
G01X0004237Y0020867D02*
G01X0004234Y0020882D01*
G01X0004234Y0020882D02*
G01X0004232Y0020896D01*
G01X0004232Y0020896D02*
G01X0004230Y0020911D01*
G01X0004230Y0020911D02*
G01X0004229Y0020925D01*
G01X0004229Y0020925D02*
G01X0004228Y0020940D01*
G01X0004228Y0020940D02*
G01X0004227Y0020955D01*
G01X0004227Y0020955D02*
G01X0004227Y0020969D01*
G54D11*
G01X0004769Y0020969D03*
G01X0027603Y0020969D03*
G01X0027603Y0001678D03*
G01X0004769Y0001678D03*
G54D12*
G01X0004769Y0001678D03*
G01X0027603Y0001678D03*
G01X0027603Y0020969D03*
G01X0004769Y0020969D03*
M02*
