%
M48
M72
T01C0.03150
T02C0.03200
T03C0.03600
T04C0.04000
T05C0.04400
T06C0.05118
T07C0.05900
T08C0.05906
T09C0.06299
T10C0.10827
%
T01
X171700Y59890
X171700Y79890
X171700Y146150
X171700Y166150
T02
X195323Y169260
X201602Y169339
X209102Y174339
X209102Y164339
X195323Y161543
X195323Y151543
X221740Y156031
X221740Y146031
X195323Y179260
X68945Y155795
X68945Y125795
X68945Y109535
X68945Y79535
T03
X48472Y163236
X40598Y163236
X40598Y171110
X48472Y171110
X48472Y178984
X40598Y178984
T04
X82051Y166008
X82051Y156008
X82051Y124008
X82051Y114008
X82051Y79591
X82051Y69591
X82051Y37591
X82051Y27591
X155051Y27591
X155051Y37591
X155051Y69591
X155051Y79591
X155051Y114008
X155051Y124008
X155051Y156008
X155051Y166008
T05
X244535Y170638
X244535Y160638
X244535Y150638
X244535Y180638
X244535Y50717
X244535Y40717
X244535Y30717
X244535Y20717
T06
X50637Y38433
X50637Y58118
T07
X172842Y100441
X172842Y128945
X232842Y128945
X232842Y100441
T08
X272094Y87646
T09
X262094Y77646
X282094Y77646
X282094Y97646
X262094Y97646
T10
X47685Y16780
X276031Y16780
X276031Y209693
X47685Y209693
M30
