%
M48
M72
T01C0.03150
T02C0.02362
T03C0.03600
T04C0.03937
T05C0.05118
T06C0.04331
T07C0.03937
T08C0.06299
T09C0.10827
%
T01
X171700Y26465
X171700Y46465
X242567Y49457
X242567Y39457
X242567Y29457
X242567Y19457
X171700Y108748
X171700Y128748
X242567Y149457
X242567Y159457
X242567Y169457
X242567Y179457
T02
X214693Y154142
X204693Y154142
X209102Y164339
X201602Y169339
X209102Y174339
X209181Y185087
X199181Y185087
X225834Y149339
X225834Y139339
T03
X55559Y168354
X47685Y168354
X47685Y176228
X55559Y176228
X55559Y184102
X47685Y184102
T04
X82051Y161874
X82051Y151874
X69732Y149890
X69732Y119890
X69732Y110520
X82051Y109874
X82051Y119874
X69732Y80520
X82051Y79591
X82051Y69591
X82051Y37591
X82051Y27591
X155051Y27591
X155051Y37591
X155051Y69591
X155051Y79591
X155051Y109874
X155051Y119874
X155051Y151874
X155051Y161874
T05
X50637Y60087
X50637Y40402
T06
X192015Y14496
X192015Y74496
X192015Y96780
X192015Y156780
T07
X272094Y43354
T08
X262094Y33354
X282094Y33354
X282094Y53354
X262094Y53354
T09
X47685Y16780
X276031Y16780
X276031Y209693
X47685Y209693
M30
