G04 EAGLE Gerber RS-274X export*
G75*
%MOMM*%
%FSLAX34Y34*%
%LPD*%
%INPaste Mask Bottom*%
%IPPOS*%
%AMOC8*
5,1,8,0,0,1.08239X$1,22.5*%
G01*
%ADD10C,0.000000*%


D10*
X0Y0D02*
X670000Y0D01*
X670000Y580000D01*
X0Y580000D01*
X0Y0D01*
X40000Y520000D02*
X40008Y520614D01*
X40030Y521227D01*
X40068Y521839D01*
X40120Y522450D01*
X40188Y523060D01*
X40271Y523668D01*
X40368Y524274D01*
X40480Y524877D01*
X40607Y525478D01*
X40749Y526075D01*
X40906Y526668D01*
X41076Y527257D01*
X41262Y527842D01*
X41461Y528422D01*
X41675Y528997D01*
X41903Y529567D01*
X42145Y530131D01*
X42400Y530689D01*
X42669Y531240D01*
X42952Y531785D01*
X43248Y532322D01*
X43557Y532853D01*
X43879Y533375D01*
X44213Y533889D01*
X44560Y534395D01*
X44920Y534892D01*
X45291Y535381D01*
X45675Y535860D01*
X46070Y536329D01*
X46476Y536789D01*
X46894Y537239D01*
X47322Y537678D01*
X47761Y538106D01*
X48211Y538524D01*
X48671Y538930D01*
X49140Y539325D01*
X49619Y539709D01*
X50108Y540080D01*
X50605Y540440D01*
X51111Y540787D01*
X51625Y541121D01*
X52147Y541443D01*
X52678Y541752D01*
X53215Y542048D01*
X53760Y542331D01*
X54311Y542600D01*
X54869Y542855D01*
X55433Y543097D01*
X56003Y543325D01*
X56578Y543539D01*
X57158Y543738D01*
X57743Y543924D01*
X58332Y544094D01*
X58925Y544251D01*
X59522Y544393D01*
X60123Y544520D01*
X60726Y544632D01*
X61332Y544729D01*
X61940Y544812D01*
X62550Y544880D01*
X63161Y544932D01*
X63773Y544970D01*
X64386Y544992D01*
X65000Y545000D01*
X65614Y544992D01*
X66227Y544970D01*
X66839Y544932D01*
X67450Y544880D01*
X68060Y544812D01*
X68668Y544729D01*
X69274Y544632D01*
X69877Y544520D01*
X70478Y544393D01*
X71075Y544251D01*
X71668Y544094D01*
X72257Y543924D01*
X72842Y543738D01*
X73422Y543539D01*
X73997Y543325D01*
X74567Y543097D01*
X75131Y542855D01*
X75689Y542600D01*
X76240Y542331D01*
X76785Y542048D01*
X77322Y541752D01*
X77853Y541443D01*
X78375Y541121D01*
X78889Y540787D01*
X79395Y540440D01*
X79892Y540080D01*
X80381Y539709D01*
X80860Y539325D01*
X81329Y538930D01*
X81789Y538524D01*
X82239Y538106D01*
X82678Y537678D01*
X83106Y537239D01*
X83524Y536789D01*
X83930Y536329D01*
X84325Y535860D01*
X84709Y535381D01*
X85080Y534892D01*
X85440Y534395D01*
X85787Y533889D01*
X86121Y533375D01*
X86443Y532853D01*
X86752Y532322D01*
X87048Y531785D01*
X87331Y531240D01*
X87600Y530689D01*
X87855Y530131D01*
X88097Y529567D01*
X88325Y528997D01*
X88539Y528422D01*
X88738Y527842D01*
X88924Y527257D01*
X89094Y526668D01*
X89251Y526075D01*
X89393Y525478D01*
X89520Y524877D01*
X89632Y524274D01*
X89729Y523668D01*
X89812Y523060D01*
X89880Y522450D01*
X89932Y521839D01*
X89970Y521227D01*
X89992Y520614D01*
X90000Y520000D01*
X89992Y519386D01*
X89970Y518773D01*
X89932Y518161D01*
X89880Y517550D01*
X89812Y516940D01*
X89729Y516332D01*
X89632Y515726D01*
X89520Y515123D01*
X89393Y514522D01*
X89251Y513925D01*
X89094Y513332D01*
X88924Y512743D01*
X88738Y512158D01*
X88539Y511578D01*
X88325Y511003D01*
X88097Y510433D01*
X87855Y509869D01*
X87600Y509311D01*
X87331Y508760D01*
X87048Y508215D01*
X86752Y507678D01*
X86443Y507147D01*
X86121Y506625D01*
X85787Y506111D01*
X85440Y505605D01*
X85080Y505108D01*
X84709Y504619D01*
X84325Y504140D01*
X83930Y503671D01*
X83524Y503211D01*
X83106Y502761D01*
X82678Y502322D01*
X82239Y501894D01*
X81789Y501476D01*
X81329Y501070D01*
X80860Y500675D01*
X80381Y500291D01*
X79892Y499920D01*
X79395Y499560D01*
X78889Y499213D01*
X78375Y498879D01*
X77853Y498557D01*
X77322Y498248D01*
X76785Y497952D01*
X76240Y497669D01*
X75689Y497400D01*
X75131Y497145D01*
X74567Y496903D01*
X73997Y496675D01*
X73422Y496461D01*
X72842Y496262D01*
X72257Y496076D01*
X71668Y495906D01*
X71075Y495749D01*
X70478Y495607D01*
X69877Y495480D01*
X69274Y495368D01*
X68668Y495271D01*
X68060Y495188D01*
X67450Y495120D01*
X66839Y495068D01*
X66227Y495030D01*
X65614Y495008D01*
X65000Y495000D01*
X64386Y495008D01*
X63773Y495030D01*
X63161Y495068D01*
X62550Y495120D01*
X61940Y495188D01*
X61332Y495271D01*
X60726Y495368D01*
X60123Y495480D01*
X59522Y495607D01*
X58925Y495749D01*
X58332Y495906D01*
X57743Y496076D01*
X57158Y496262D01*
X56578Y496461D01*
X56003Y496675D01*
X55433Y496903D01*
X54869Y497145D01*
X54311Y497400D01*
X53760Y497669D01*
X53215Y497952D01*
X52678Y498248D01*
X52147Y498557D01*
X51625Y498879D01*
X51111Y499213D01*
X50605Y499560D01*
X50108Y499920D01*
X49619Y500291D01*
X49140Y500675D01*
X48671Y501070D01*
X48211Y501476D01*
X47761Y501894D01*
X47322Y502322D01*
X46894Y502761D01*
X46476Y503211D01*
X46070Y503671D01*
X45675Y504140D01*
X45291Y504619D01*
X44920Y505108D01*
X44560Y505605D01*
X44213Y506111D01*
X43879Y506625D01*
X43557Y507147D01*
X43248Y507678D01*
X42952Y508215D01*
X42669Y508760D01*
X42400Y509311D01*
X42145Y509869D01*
X41903Y510433D01*
X41675Y511003D01*
X41461Y511578D01*
X41262Y512158D01*
X41076Y512743D01*
X40906Y513332D01*
X40749Y513925D01*
X40607Y514522D01*
X40480Y515123D01*
X40368Y515726D01*
X40271Y516332D01*
X40188Y516940D01*
X40120Y517550D01*
X40068Y518161D01*
X40030Y518773D01*
X40008Y519386D01*
X40000Y520000D01*
X40000Y290000D02*
X40008Y290614D01*
X40030Y291227D01*
X40068Y291839D01*
X40120Y292450D01*
X40188Y293060D01*
X40271Y293668D01*
X40368Y294274D01*
X40480Y294877D01*
X40607Y295478D01*
X40749Y296075D01*
X40906Y296668D01*
X41076Y297257D01*
X41262Y297842D01*
X41461Y298422D01*
X41675Y298997D01*
X41903Y299567D01*
X42145Y300131D01*
X42400Y300689D01*
X42669Y301240D01*
X42952Y301785D01*
X43248Y302322D01*
X43557Y302853D01*
X43879Y303375D01*
X44213Y303889D01*
X44560Y304395D01*
X44920Y304892D01*
X45291Y305381D01*
X45675Y305860D01*
X46070Y306329D01*
X46476Y306789D01*
X46894Y307239D01*
X47322Y307678D01*
X47761Y308106D01*
X48211Y308524D01*
X48671Y308930D01*
X49140Y309325D01*
X49619Y309709D01*
X50108Y310080D01*
X50605Y310440D01*
X51111Y310787D01*
X51625Y311121D01*
X52147Y311443D01*
X52678Y311752D01*
X53215Y312048D01*
X53760Y312331D01*
X54311Y312600D01*
X54869Y312855D01*
X55433Y313097D01*
X56003Y313325D01*
X56578Y313539D01*
X57158Y313738D01*
X57743Y313924D01*
X58332Y314094D01*
X58925Y314251D01*
X59522Y314393D01*
X60123Y314520D01*
X60726Y314632D01*
X61332Y314729D01*
X61940Y314812D01*
X62550Y314880D01*
X63161Y314932D01*
X63773Y314970D01*
X64386Y314992D01*
X65000Y315000D01*
X65614Y314992D01*
X66227Y314970D01*
X66839Y314932D01*
X67450Y314880D01*
X68060Y314812D01*
X68668Y314729D01*
X69274Y314632D01*
X69877Y314520D01*
X70478Y314393D01*
X71075Y314251D01*
X71668Y314094D01*
X72257Y313924D01*
X72842Y313738D01*
X73422Y313539D01*
X73997Y313325D01*
X74567Y313097D01*
X75131Y312855D01*
X75689Y312600D01*
X76240Y312331D01*
X76785Y312048D01*
X77322Y311752D01*
X77853Y311443D01*
X78375Y311121D01*
X78889Y310787D01*
X79395Y310440D01*
X79892Y310080D01*
X80381Y309709D01*
X80860Y309325D01*
X81329Y308930D01*
X81789Y308524D01*
X82239Y308106D01*
X82678Y307678D01*
X83106Y307239D01*
X83524Y306789D01*
X83930Y306329D01*
X84325Y305860D01*
X84709Y305381D01*
X85080Y304892D01*
X85440Y304395D01*
X85787Y303889D01*
X86121Y303375D01*
X86443Y302853D01*
X86752Y302322D01*
X87048Y301785D01*
X87331Y301240D01*
X87600Y300689D01*
X87855Y300131D01*
X88097Y299567D01*
X88325Y298997D01*
X88539Y298422D01*
X88738Y297842D01*
X88924Y297257D01*
X89094Y296668D01*
X89251Y296075D01*
X89393Y295478D01*
X89520Y294877D01*
X89632Y294274D01*
X89729Y293668D01*
X89812Y293060D01*
X89880Y292450D01*
X89932Y291839D01*
X89970Y291227D01*
X89992Y290614D01*
X90000Y290000D01*
X89992Y289386D01*
X89970Y288773D01*
X89932Y288161D01*
X89880Y287550D01*
X89812Y286940D01*
X89729Y286332D01*
X89632Y285726D01*
X89520Y285123D01*
X89393Y284522D01*
X89251Y283925D01*
X89094Y283332D01*
X88924Y282743D01*
X88738Y282158D01*
X88539Y281578D01*
X88325Y281003D01*
X88097Y280433D01*
X87855Y279869D01*
X87600Y279311D01*
X87331Y278760D01*
X87048Y278215D01*
X86752Y277678D01*
X86443Y277147D01*
X86121Y276625D01*
X85787Y276111D01*
X85440Y275605D01*
X85080Y275108D01*
X84709Y274619D01*
X84325Y274140D01*
X83930Y273671D01*
X83524Y273211D01*
X83106Y272761D01*
X82678Y272322D01*
X82239Y271894D01*
X81789Y271476D01*
X81329Y271070D01*
X80860Y270675D01*
X80381Y270291D01*
X79892Y269920D01*
X79395Y269560D01*
X78889Y269213D01*
X78375Y268879D01*
X77853Y268557D01*
X77322Y268248D01*
X76785Y267952D01*
X76240Y267669D01*
X75689Y267400D01*
X75131Y267145D01*
X74567Y266903D01*
X73997Y266675D01*
X73422Y266461D01*
X72842Y266262D01*
X72257Y266076D01*
X71668Y265906D01*
X71075Y265749D01*
X70478Y265607D01*
X69877Y265480D01*
X69274Y265368D01*
X68668Y265271D01*
X68060Y265188D01*
X67450Y265120D01*
X66839Y265068D01*
X66227Y265030D01*
X65614Y265008D01*
X65000Y265000D01*
X64386Y265008D01*
X63773Y265030D01*
X63161Y265068D01*
X62550Y265120D01*
X61940Y265188D01*
X61332Y265271D01*
X60726Y265368D01*
X60123Y265480D01*
X59522Y265607D01*
X58925Y265749D01*
X58332Y265906D01*
X57743Y266076D01*
X57158Y266262D01*
X56578Y266461D01*
X56003Y266675D01*
X55433Y266903D01*
X54869Y267145D01*
X54311Y267400D01*
X53760Y267669D01*
X53215Y267952D01*
X52678Y268248D01*
X52147Y268557D01*
X51625Y268879D01*
X51111Y269213D01*
X50605Y269560D01*
X50108Y269920D01*
X49619Y270291D01*
X49140Y270675D01*
X48671Y271070D01*
X48211Y271476D01*
X47761Y271894D01*
X47322Y272322D01*
X46894Y272761D01*
X46476Y273211D01*
X46070Y273671D01*
X45675Y274140D01*
X45291Y274619D01*
X44920Y275108D01*
X44560Y275605D01*
X44213Y276111D01*
X43879Y276625D01*
X43557Y277147D01*
X43248Y277678D01*
X42952Y278215D01*
X42669Y278760D01*
X42400Y279311D01*
X42145Y279869D01*
X41903Y280433D01*
X41675Y281003D01*
X41461Y281578D01*
X41262Y282158D01*
X41076Y282743D01*
X40906Y283332D01*
X40749Y283925D01*
X40607Y284522D01*
X40480Y285123D01*
X40368Y285726D01*
X40271Y286332D01*
X40188Y286940D01*
X40120Y287550D01*
X40068Y288161D01*
X40030Y288773D01*
X40008Y289386D01*
X40000Y290000D01*
X40000Y60000D02*
X40008Y60614D01*
X40030Y61227D01*
X40068Y61839D01*
X40120Y62450D01*
X40188Y63060D01*
X40271Y63668D01*
X40368Y64274D01*
X40480Y64877D01*
X40607Y65478D01*
X40749Y66075D01*
X40906Y66668D01*
X41076Y67257D01*
X41262Y67842D01*
X41461Y68422D01*
X41675Y68997D01*
X41903Y69567D01*
X42145Y70131D01*
X42400Y70689D01*
X42669Y71240D01*
X42952Y71785D01*
X43248Y72322D01*
X43557Y72853D01*
X43879Y73375D01*
X44213Y73889D01*
X44560Y74395D01*
X44920Y74892D01*
X45291Y75381D01*
X45675Y75860D01*
X46070Y76329D01*
X46476Y76789D01*
X46894Y77239D01*
X47322Y77678D01*
X47761Y78106D01*
X48211Y78524D01*
X48671Y78930D01*
X49140Y79325D01*
X49619Y79709D01*
X50108Y80080D01*
X50605Y80440D01*
X51111Y80787D01*
X51625Y81121D01*
X52147Y81443D01*
X52678Y81752D01*
X53215Y82048D01*
X53760Y82331D01*
X54311Y82600D01*
X54869Y82855D01*
X55433Y83097D01*
X56003Y83325D01*
X56578Y83539D01*
X57158Y83738D01*
X57743Y83924D01*
X58332Y84094D01*
X58925Y84251D01*
X59522Y84393D01*
X60123Y84520D01*
X60726Y84632D01*
X61332Y84729D01*
X61940Y84812D01*
X62550Y84880D01*
X63161Y84932D01*
X63773Y84970D01*
X64386Y84992D01*
X65000Y85000D01*
X65614Y84992D01*
X66227Y84970D01*
X66839Y84932D01*
X67450Y84880D01*
X68060Y84812D01*
X68668Y84729D01*
X69274Y84632D01*
X69877Y84520D01*
X70478Y84393D01*
X71075Y84251D01*
X71668Y84094D01*
X72257Y83924D01*
X72842Y83738D01*
X73422Y83539D01*
X73997Y83325D01*
X74567Y83097D01*
X75131Y82855D01*
X75689Y82600D01*
X76240Y82331D01*
X76785Y82048D01*
X77322Y81752D01*
X77853Y81443D01*
X78375Y81121D01*
X78889Y80787D01*
X79395Y80440D01*
X79892Y80080D01*
X80381Y79709D01*
X80860Y79325D01*
X81329Y78930D01*
X81789Y78524D01*
X82239Y78106D01*
X82678Y77678D01*
X83106Y77239D01*
X83524Y76789D01*
X83930Y76329D01*
X84325Y75860D01*
X84709Y75381D01*
X85080Y74892D01*
X85440Y74395D01*
X85787Y73889D01*
X86121Y73375D01*
X86443Y72853D01*
X86752Y72322D01*
X87048Y71785D01*
X87331Y71240D01*
X87600Y70689D01*
X87855Y70131D01*
X88097Y69567D01*
X88325Y68997D01*
X88539Y68422D01*
X88738Y67842D01*
X88924Y67257D01*
X89094Y66668D01*
X89251Y66075D01*
X89393Y65478D01*
X89520Y64877D01*
X89632Y64274D01*
X89729Y63668D01*
X89812Y63060D01*
X89880Y62450D01*
X89932Y61839D01*
X89970Y61227D01*
X89992Y60614D01*
X90000Y60000D01*
X89992Y59386D01*
X89970Y58773D01*
X89932Y58161D01*
X89880Y57550D01*
X89812Y56940D01*
X89729Y56332D01*
X89632Y55726D01*
X89520Y55123D01*
X89393Y54522D01*
X89251Y53925D01*
X89094Y53332D01*
X88924Y52743D01*
X88738Y52158D01*
X88539Y51578D01*
X88325Y51003D01*
X88097Y50433D01*
X87855Y49869D01*
X87600Y49311D01*
X87331Y48760D01*
X87048Y48215D01*
X86752Y47678D01*
X86443Y47147D01*
X86121Y46625D01*
X85787Y46111D01*
X85440Y45605D01*
X85080Y45108D01*
X84709Y44619D01*
X84325Y44140D01*
X83930Y43671D01*
X83524Y43211D01*
X83106Y42761D01*
X82678Y42322D01*
X82239Y41894D01*
X81789Y41476D01*
X81329Y41070D01*
X80860Y40675D01*
X80381Y40291D01*
X79892Y39920D01*
X79395Y39560D01*
X78889Y39213D01*
X78375Y38879D01*
X77853Y38557D01*
X77322Y38248D01*
X76785Y37952D01*
X76240Y37669D01*
X75689Y37400D01*
X75131Y37145D01*
X74567Y36903D01*
X73997Y36675D01*
X73422Y36461D01*
X72842Y36262D01*
X72257Y36076D01*
X71668Y35906D01*
X71075Y35749D01*
X70478Y35607D01*
X69877Y35480D01*
X69274Y35368D01*
X68668Y35271D01*
X68060Y35188D01*
X67450Y35120D01*
X66839Y35068D01*
X66227Y35030D01*
X65614Y35008D01*
X65000Y35000D01*
X64386Y35008D01*
X63773Y35030D01*
X63161Y35068D01*
X62550Y35120D01*
X61940Y35188D01*
X61332Y35271D01*
X60726Y35368D01*
X60123Y35480D01*
X59522Y35607D01*
X58925Y35749D01*
X58332Y35906D01*
X57743Y36076D01*
X57158Y36262D01*
X56578Y36461D01*
X56003Y36675D01*
X55433Y36903D01*
X54869Y37145D01*
X54311Y37400D01*
X53760Y37669D01*
X53215Y37952D01*
X52678Y38248D01*
X52147Y38557D01*
X51625Y38879D01*
X51111Y39213D01*
X50605Y39560D01*
X50108Y39920D01*
X49619Y40291D01*
X49140Y40675D01*
X48671Y41070D01*
X48211Y41476D01*
X47761Y41894D01*
X47322Y42322D01*
X46894Y42761D01*
X46476Y43211D01*
X46070Y43671D01*
X45675Y44140D01*
X45291Y44619D01*
X44920Y45108D01*
X44560Y45605D01*
X44213Y46111D01*
X43879Y46625D01*
X43557Y47147D01*
X43248Y47678D01*
X42952Y48215D01*
X42669Y48760D01*
X42400Y49311D01*
X42145Y49869D01*
X41903Y50433D01*
X41675Y51003D01*
X41461Y51578D01*
X41262Y52158D01*
X41076Y52743D01*
X40906Y53332D01*
X40749Y53925D01*
X40607Y54522D01*
X40480Y55123D01*
X40368Y55726D01*
X40271Y56332D01*
X40188Y56940D01*
X40120Y57550D01*
X40068Y58161D01*
X40030Y58773D01*
X40008Y59386D01*
X40000Y60000D01*
M02*
