G75*
%MOIN*%
%OFA0B0*%
%FSLAX25Y25*%
%IPPOS*%
%LPD*%
%AMOC8*
5,1,8,0,0,1.08239X$1,22.5*
%
%ADD10C,0.00000*%
%ADD11C,0.09843*%
%ADD12C,0.10827*%
%ADD13OC8,0.06300*%
%ADD14OC8,0.04800*%
%ADD15C,0.04800*%
%ADD16C,0.04800*%
%ADD17C,0.05250*%
%ADD18C,0.05315*%
%ADD19C,0.07677*%
%ADD20C,0.07677*%
%ADD21R,0.05400X0.05400*%
%ADD22C,0.05400*%
%ADD23C,0.06000*%
D10*
X0001300Y0011772D02*
X0001300Y0334606D01*
X0253269Y0334606D01*
X0253269Y0011772D01*
X0001300Y0011772D01*
X0023938Y0074764D02*
X0023940Y0074904D01*
X0023946Y0075044D01*
X0023956Y0075183D01*
X0023970Y0075322D01*
X0023988Y0075461D01*
X0024009Y0075599D01*
X0024035Y0075737D01*
X0024065Y0075874D01*
X0024098Y0076009D01*
X0024136Y0076144D01*
X0024177Y0076278D01*
X0024222Y0076411D01*
X0024270Y0076542D01*
X0024323Y0076671D01*
X0024379Y0076800D01*
X0024438Y0076926D01*
X0024502Y0077051D01*
X0024568Y0077174D01*
X0024639Y0077295D01*
X0024712Y0077414D01*
X0024789Y0077531D01*
X0024870Y0077645D01*
X0024953Y0077757D01*
X0025040Y0077867D01*
X0025130Y0077975D01*
X0025222Y0078079D01*
X0025318Y0078181D01*
X0025417Y0078281D01*
X0025518Y0078377D01*
X0025622Y0078471D01*
X0025729Y0078561D01*
X0025838Y0078648D01*
X0025950Y0078733D01*
X0026064Y0078814D01*
X0026180Y0078892D01*
X0026298Y0078966D01*
X0026419Y0079037D01*
X0026541Y0079105D01*
X0026666Y0079169D01*
X0026792Y0079230D01*
X0026919Y0079287D01*
X0027049Y0079340D01*
X0027180Y0079390D01*
X0027312Y0079435D01*
X0027445Y0079478D01*
X0027580Y0079516D01*
X0027715Y0079550D01*
X0027852Y0079581D01*
X0027989Y0079608D01*
X0028127Y0079630D01*
X0028266Y0079649D01*
X0028405Y0079664D01*
X0028544Y0079675D01*
X0028684Y0079682D01*
X0028824Y0079685D01*
X0028964Y0079684D01*
X0029104Y0079679D01*
X0029243Y0079670D01*
X0029383Y0079657D01*
X0029522Y0079640D01*
X0029660Y0079619D01*
X0029798Y0079595D01*
X0029935Y0079566D01*
X0030071Y0079534D01*
X0030206Y0079497D01*
X0030340Y0079457D01*
X0030473Y0079413D01*
X0030604Y0079365D01*
X0030734Y0079314D01*
X0030863Y0079259D01*
X0030990Y0079200D01*
X0031115Y0079137D01*
X0031238Y0079072D01*
X0031360Y0079002D01*
X0031479Y0078929D01*
X0031597Y0078853D01*
X0031712Y0078774D01*
X0031825Y0078691D01*
X0031935Y0078605D01*
X0032043Y0078516D01*
X0032148Y0078424D01*
X0032251Y0078329D01*
X0032351Y0078231D01*
X0032448Y0078131D01*
X0032542Y0078027D01*
X0032634Y0077921D01*
X0032722Y0077813D01*
X0032807Y0077702D01*
X0032889Y0077588D01*
X0032968Y0077472D01*
X0033043Y0077355D01*
X0033115Y0077235D01*
X0033183Y0077113D01*
X0033248Y0076989D01*
X0033310Y0076863D01*
X0033368Y0076736D01*
X0033422Y0076607D01*
X0033473Y0076476D01*
X0033519Y0076344D01*
X0033562Y0076211D01*
X0033602Y0076077D01*
X0033637Y0075942D01*
X0033669Y0075805D01*
X0033696Y0075668D01*
X0033720Y0075530D01*
X0033740Y0075392D01*
X0033756Y0075253D01*
X0033768Y0075113D01*
X0033776Y0074974D01*
X0033780Y0074834D01*
X0033780Y0074694D01*
X0033776Y0074554D01*
X0033768Y0074415D01*
X0033756Y0074275D01*
X0033740Y0074136D01*
X0033720Y0073998D01*
X0033696Y0073860D01*
X0033669Y0073723D01*
X0033637Y0073586D01*
X0033602Y0073451D01*
X0033562Y0073317D01*
X0033519Y0073184D01*
X0033473Y0073052D01*
X0033422Y0072921D01*
X0033368Y0072792D01*
X0033310Y0072665D01*
X0033248Y0072539D01*
X0033183Y0072415D01*
X0033115Y0072293D01*
X0033043Y0072173D01*
X0032968Y0072056D01*
X0032889Y0071940D01*
X0032807Y0071826D01*
X0032722Y0071715D01*
X0032634Y0071607D01*
X0032542Y0071501D01*
X0032448Y0071397D01*
X0032351Y0071297D01*
X0032251Y0071199D01*
X0032148Y0071104D01*
X0032043Y0071012D01*
X0031935Y0070923D01*
X0031825Y0070837D01*
X0031712Y0070754D01*
X0031597Y0070675D01*
X0031479Y0070599D01*
X0031360Y0070526D01*
X0031238Y0070456D01*
X0031115Y0070391D01*
X0030990Y0070328D01*
X0030863Y0070269D01*
X0030734Y0070214D01*
X0030604Y0070163D01*
X0030473Y0070115D01*
X0030340Y0070071D01*
X0030206Y0070031D01*
X0030071Y0069994D01*
X0029935Y0069962D01*
X0029798Y0069933D01*
X0029660Y0069909D01*
X0029522Y0069888D01*
X0029383Y0069871D01*
X0029243Y0069858D01*
X0029104Y0069849D01*
X0028964Y0069844D01*
X0028824Y0069843D01*
X0028684Y0069846D01*
X0028544Y0069853D01*
X0028405Y0069864D01*
X0028266Y0069879D01*
X0028127Y0069898D01*
X0027989Y0069920D01*
X0027852Y0069947D01*
X0027715Y0069978D01*
X0027580Y0070012D01*
X0027445Y0070050D01*
X0027312Y0070093D01*
X0027180Y0070138D01*
X0027049Y0070188D01*
X0026919Y0070241D01*
X0026792Y0070298D01*
X0026666Y0070359D01*
X0026541Y0070423D01*
X0026419Y0070491D01*
X0026298Y0070562D01*
X0026180Y0070636D01*
X0026064Y0070714D01*
X0025950Y0070795D01*
X0025838Y0070880D01*
X0025729Y0070967D01*
X0025622Y0071057D01*
X0025518Y0071151D01*
X0025417Y0071247D01*
X0025318Y0071347D01*
X0025222Y0071449D01*
X0025130Y0071553D01*
X0025040Y0071661D01*
X0024953Y0071771D01*
X0024870Y0071883D01*
X0024789Y0071997D01*
X0024712Y0072114D01*
X0024639Y0072233D01*
X0024568Y0072354D01*
X0024502Y0072477D01*
X0024438Y0072602D01*
X0024379Y0072728D01*
X0024323Y0072857D01*
X0024270Y0072986D01*
X0024222Y0073117D01*
X0024177Y0073250D01*
X0024136Y0073384D01*
X0024098Y0073519D01*
X0024065Y0073654D01*
X0024035Y0073791D01*
X0024009Y0073929D01*
X0023988Y0074067D01*
X0023970Y0074206D01*
X0023956Y0074345D01*
X0023946Y0074484D01*
X0023940Y0074624D01*
X0023938Y0074764D01*
X0023446Y0101929D02*
X0023448Y0102076D01*
X0023454Y0102222D01*
X0023464Y0102368D01*
X0023478Y0102514D01*
X0023496Y0102660D01*
X0023517Y0102805D01*
X0023543Y0102949D01*
X0023573Y0103093D01*
X0023606Y0103235D01*
X0023643Y0103377D01*
X0023684Y0103518D01*
X0023729Y0103657D01*
X0023778Y0103796D01*
X0023830Y0103933D01*
X0023887Y0104068D01*
X0023946Y0104202D01*
X0024010Y0104334D01*
X0024077Y0104464D01*
X0024147Y0104593D01*
X0024221Y0104720D01*
X0024298Y0104844D01*
X0024379Y0104967D01*
X0024463Y0105087D01*
X0024550Y0105205D01*
X0024640Y0105320D01*
X0024733Y0105433D01*
X0024830Y0105544D01*
X0024929Y0105652D01*
X0025031Y0105757D01*
X0025136Y0105859D01*
X0025244Y0105958D01*
X0025355Y0106055D01*
X0025468Y0106148D01*
X0025583Y0106238D01*
X0025701Y0106325D01*
X0025821Y0106409D01*
X0025944Y0106490D01*
X0026068Y0106567D01*
X0026195Y0106641D01*
X0026324Y0106711D01*
X0026454Y0106778D01*
X0026586Y0106842D01*
X0026720Y0106901D01*
X0026855Y0106958D01*
X0026992Y0107010D01*
X0027131Y0107059D01*
X0027270Y0107104D01*
X0027411Y0107145D01*
X0027553Y0107182D01*
X0027695Y0107215D01*
X0027839Y0107245D01*
X0027983Y0107271D01*
X0028128Y0107292D01*
X0028274Y0107310D01*
X0028420Y0107324D01*
X0028566Y0107334D01*
X0028712Y0107340D01*
X0028859Y0107342D01*
X0029006Y0107340D01*
X0029152Y0107334D01*
X0029298Y0107324D01*
X0029444Y0107310D01*
X0029590Y0107292D01*
X0029735Y0107271D01*
X0029879Y0107245D01*
X0030023Y0107215D01*
X0030165Y0107182D01*
X0030307Y0107145D01*
X0030448Y0107104D01*
X0030587Y0107059D01*
X0030726Y0107010D01*
X0030863Y0106958D01*
X0030998Y0106901D01*
X0031132Y0106842D01*
X0031264Y0106778D01*
X0031394Y0106711D01*
X0031523Y0106641D01*
X0031650Y0106567D01*
X0031774Y0106490D01*
X0031897Y0106409D01*
X0032017Y0106325D01*
X0032135Y0106238D01*
X0032250Y0106148D01*
X0032363Y0106055D01*
X0032474Y0105958D01*
X0032582Y0105859D01*
X0032687Y0105757D01*
X0032789Y0105652D01*
X0032888Y0105544D01*
X0032985Y0105433D01*
X0033078Y0105320D01*
X0033168Y0105205D01*
X0033255Y0105087D01*
X0033339Y0104967D01*
X0033420Y0104844D01*
X0033497Y0104720D01*
X0033571Y0104593D01*
X0033641Y0104464D01*
X0033708Y0104334D01*
X0033772Y0104202D01*
X0033831Y0104068D01*
X0033888Y0103933D01*
X0033940Y0103796D01*
X0033989Y0103657D01*
X0034034Y0103518D01*
X0034075Y0103377D01*
X0034112Y0103235D01*
X0034145Y0103093D01*
X0034175Y0102949D01*
X0034201Y0102805D01*
X0034222Y0102660D01*
X0034240Y0102514D01*
X0034254Y0102368D01*
X0034264Y0102222D01*
X0034270Y0102076D01*
X0034272Y0101929D01*
X0034270Y0101782D01*
X0034264Y0101636D01*
X0034254Y0101490D01*
X0034240Y0101344D01*
X0034222Y0101198D01*
X0034201Y0101053D01*
X0034175Y0100909D01*
X0034145Y0100765D01*
X0034112Y0100623D01*
X0034075Y0100481D01*
X0034034Y0100340D01*
X0033989Y0100201D01*
X0033940Y0100062D01*
X0033888Y0099925D01*
X0033831Y0099790D01*
X0033772Y0099656D01*
X0033708Y0099524D01*
X0033641Y0099394D01*
X0033571Y0099265D01*
X0033497Y0099138D01*
X0033420Y0099014D01*
X0033339Y0098891D01*
X0033255Y0098771D01*
X0033168Y0098653D01*
X0033078Y0098538D01*
X0032985Y0098425D01*
X0032888Y0098314D01*
X0032789Y0098206D01*
X0032687Y0098101D01*
X0032582Y0097999D01*
X0032474Y0097900D01*
X0032363Y0097803D01*
X0032250Y0097710D01*
X0032135Y0097620D01*
X0032017Y0097533D01*
X0031897Y0097449D01*
X0031774Y0097368D01*
X0031650Y0097291D01*
X0031523Y0097217D01*
X0031394Y0097147D01*
X0031264Y0097080D01*
X0031132Y0097016D01*
X0030998Y0096957D01*
X0030863Y0096900D01*
X0030726Y0096848D01*
X0030587Y0096799D01*
X0030448Y0096754D01*
X0030307Y0096713D01*
X0030165Y0096676D01*
X0030023Y0096643D01*
X0029879Y0096613D01*
X0029735Y0096587D01*
X0029590Y0096566D01*
X0029444Y0096548D01*
X0029298Y0096534D01*
X0029152Y0096524D01*
X0029006Y0096518D01*
X0028859Y0096516D01*
X0028712Y0096518D01*
X0028566Y0096524D01*
X0028420Y0096534D01*
X0028274Y0096548D01*
X0028128Y0096566D01*
X0027983Y0096587D01*
X0027839Y0096613D01*
X0027695Y0096643D01*
X0027553Y0096676D01*
X0027411Y0096713D01*
X0027270Y0096754D01*
X0027131Y0096799D01*
X0026992Y0096848D01*
X0026855Y0096900D01*
X0026720Y0096957D01*
X0026586Y0097016D01*
X0026454Y0097080D01*
X0026324Y0097147D01*
X0026195Y0097217D01*
X0026068Y0097291D01*
X0025944Y0097368D01*
X0025821Y0097449D01*
X0025701Y0097533D01*
X0025583Y0097620D01*
X0025468Y0097710D01*
X0025355Y0097803D01*
X0025244Y0097900D01*
X0025136Y0097999D01*
X0025031Y0098101D01*
X0024929Y0098206D01*
X0024830Y0098314D01*
X0024733Y0098425D01*
X0024640Y0098538D01*
X0024550Y0098653D01*
X0024463Y0098771D01*
X0024379Y0098891D01*
X0024298Y0099014D01*
X0024221Y0099138D01*
X0024147Y0099265D01*
X0024077Y0099394D01*
X0024010Y0099524D01*
X0023946Y0099656D01*
X0023887Y0099790D01*
X0023830Y0099925D01*
X0023778Y0100062D01*
X0023729Y0100201D01*
X0023684Y0100340D01*
X0023643Y0100481D01*
X0023606Y0100623D01*
X0023573Y0100765D01*
X0023543Y0100909D01*
X0023517Y0101053D01*
X0023496Y0101198D01*
X0023478Y0101344D01*
X0023464Y0101490D01*
X0023454Y0101636D01*
X0023448Y0101782D01*
X0023446Y0101929D01*
X0023446Y0244449D02*
X0023448Y0244596D01*
X0023454Y0244742D01*
X0023464Y0244888D01*
X0023478Y0245034D01*
X0023496Y0245180D01*
X0023517Y0245325D01*
X0023543Y0245469D01*
X0023573Y0245613D01*
X0023606Y0245755D01*
X0023643Y0245897D01*
X0023684Y0246038D01*
X0023729Y0246177D01*
X0023778Y0246316D01*
X0023830Y0246453D01*
X0023887Y0246588D01*
X0023946Y0246722D01*
X0024010Y0246854D01*
X0024077Y0246984D01*
X0024147Y0247113D01*
X0024221Y0247240D01*
X0024298Y0247364D01*
X0024379Y0247487D01*
X0024463Y0247607D01*
X0024550Y0247725D01*
X0024640Y0247840D01*
X0024733Y0247953D01*
X0024830Y0248064D01*
X0024929Y0248172D01*
X0025031Y0248277D01*
X0025136Y0248379D01*
X0025244Y0248478D01*
X0025355Y0248575D01*
X0025468Y0248668D01*
X0025583Y0248758D01*
X0025701Y0248845D01*
X0025821Y0248929D01*
X0025944Y0249010D01*
X0026068Y0249087D01*
X0026195Y0249161D01*
X0026324Y0249231D01*
X0026454Y0249298D01*
X0026586Y0249362D01*
X0026720Y0249421D01*
X0026855Y0249478D01*
X0026992Y0249530D01*
X0027131Y0249579D01*
X0027270Y0249624D01*
X0027411Y0249665D01*
X0027553Y0249702D01*
X0027695Y0249735D01*
X0027839Y0249765D01*
X0027983Y0249791D01*
X0028128Y0249812D01*
X0028274Y0249830D01*
X0028420Y0249844D01*
X0028566Y0249854D01*
X0028712Y0249860D01*
X0028859Y0249862D01*
X0029006Y0249860D01*
X0029152Y0249854D01*
X0029298Y0249844D01*
X0029444Y0249830D01*
X0029590Y0249812D01*
X0029735Y0249791D01*
X0029879Y0249765D01*
X0030023Y0249735D01*
X0030165Y0249702D01*
X0030307Y0249665D01*
X0030448Y0249624D01*
X0030587Y0249579D01*
X0030726Y0249530D01*
X0030863Y0249478D01*
X0030998Y0249421D01*
X0031132Y0249362D01*
X0031264Y0249298D01*
X0031394Y0249231D01*
X0031523Y0249161D01*
X0031650Y0249087D01*
X0031774Y0249010D01*
X0031897Y0248929D01*
X0032017Y0248845D01*
X0032135Y0248758D01*
X0032250Y0248668D01*
X0032363Y0248575D01*
X0032474Y0248478D01*
X0032582Y0248379D01*
X0032687Y0248277D01*
X0032789Y0248172D01*
X0032888Y0248064D01*
X0032985Y0247953D01*
X0033078Y0247840D01*
X0033168Y0247725D01*
X0033255Y0247607D01*
X0033339Y0247487D01*
X0033420Y0247364D01*
X0033497Y0247240D01*
X0033571Y0247113D01*
X0033641Y0246984D01*
X0033708Y0246854D01*
X0033772Y0246722D01*
X0033831Y0246588D01*
X0033888Y0246453D01*
X0033940Y0246316D01*
X0033989Y0246177D01*
X0034034Y0246038D01*
X0034075Y0245897D01*
X0034112Y0245755D01*
X0034145Y0245613D01*
X0034175Y0245469D01*
X0034201Y0245325D01*
X0034222Y0245180D01*
X0034240Y0245034D01*
X0034254Y0244888D01*
X0034264Y0244742D01*
X0034270Y0244596D01*
X0034272Y0244449D01*
X0034270Y0244302D01*
X0034264Y0244156D01*
X0034254Y0244010D01*
X0034240Y0243864D01*
X0034222Y0243718D01*
X0034201Y0243573D01*
X0034175Y0243429D01*
X0034145Y0243285D01*
X0034112Y0243143D01*
X0034075Y0243001D01*
X0034034Y0242860D01*
X0033989Y0242721D01*
X0033940Y0242582D01*
X0033888Y0242445D01*
X0033831Y0242310D01*
X0033772Y0242176D01*
X0033708Y0242044D01*
X0033641Y0241914D01*
X0033571Y0241785D01*
X0033497Y0241658D01*
X0033420Y0241534D01*
X0033339Y0241411D01*
X0033255Y0241291D01*
X0033168Y0241173D01*
X0033078Y0241058D01*
X0032985Y0240945D01*
X0032888Y0240834D01*
X0032789Y0240726D01*
X0032687Y0240621D01*
X0032582Y0240519D01*
X0032474Y0240420D01*
X0032363Y0240323D01*
X0032250Y0240230D01*
X0032135Y0240140D01*
X0032017Y0240053D01*
X0031897Y0239969D01*
X0031774Y0239888D01*
X0031650Y0239811D01*
X0031523Y0239737D01*
X0031394Y0239667D01*
X0031264Y0239600D01*
X0031132Y0239536D01*
X0030998Y0239477D01*
X0030863Y0239420D01*
X0030726Y0239368D01*
X0030587Y0239319D01*
X0030448Y0239274D01*
X0030307Y0239233D01*
X0030165Y0239196D01*
X0030023Y0239163D01*
X0029879Y0239133D01*
X0029735Y0239107D01*
X0029590Y0239086D01*
X0029444Y0239068D01*
X0029298Y0239054D01*
X0029152Y0239044D01*
X0029006Y0239038D01*
X0028859Y0239036D01*
X0028712Y0239038D01*
X0028566Y0239044D01*
X0028420Y0239054D01*
X0028274Y0239068D01*
X0028128Y0239086D01*
X0027983Y0239107D01*
X0027839Y0239133D01*
X0027695Y0239163D01*
X0027553Y0239196D01*
X0027411Y0239233D01*
X0027270Y0239274D01*
X0027131Y0239319D01*
X0026992Y0239368D01*
X0026855Y0239420D01*
X0026720Y0239477D01*
X0026586Y0239536D01*
X0026454Y0239600D01*
X0026324Y0239667D01*
X0026195Y0239737D01*
X0026068Y0239811D01*
X0025944Y0239888D01*
X0025821Y0239969D01*
X0025701Y0240053D01*
X0025583Y0240140D01*
X0025468Y0240230D01*
X0025355Y0240323D01*
X0025244Y0240420D01*
X0025136Y0240519D01*
X0025031Y0240621D01*
X0024929Y0240726D01*
X0024830Y0240834D01*
X0024733Y0240945D01*
X0024640Y0241058D01*
X0024550Y0241173D01*
X0024463Y0241291D01*
X0024379Y0241411D01*
X0024298Y0241534D01*
X0024221Y0241658D01*
X0024147Y0241785D01*
X0024077Y0241914D01*
X0024010Y0242044D01*
X0023946Y0242176D01*
X0023887Y0242310D01*
X0023830Y0242445D01*
X0023778Y0242582D01*
X0023729Y0242721D01*
X0023684Y0242860D01*
X0023643Y0243001D01*
X0023606Y0243143D01*
X0023573Y0243285D01*
X0023543Y0243429D01*
X0023517Y0243573D01*
X0023496Y0243718D01*
X0023478Y0243864D01*
X0023464Y0244010D01*
X0023454Y0244156D01*
X0023448Y0244302D01*
X0023446Y0244449D01*
X0023938Y0271614D02*
X0023940Y0271754D01*
X0023946Y0271894D01*
X0023956Y0272033D01*
X0023970Y0272172D01*
X0023988Y0272311D01*
X0024009Y0272449D01*
X0024035Y0272587D01*
X0024065Y0272724D01*
X0024098Y0272859D01*
X0024136Y0272994D01*
X0024177Y0273128D01*
X0024222Y0273261D01*
X0024270Y0273392D01*
X0024323Y0273521D01*
X0024379Y0273650D01*
X0024438Y0273776D01*
X0024502Y0273901D01*
X0024568Y0274024D01*
X0024639Y0274145D01*
X0024712Y0274264D01*
X0024789Y0274381D01*
X0024870Y0274495D01*
X0024953Y0274607D01*
X0025040Y0274717D01*
X0025130Y0274825D01*
X0025222Y0274929D01*
X0025318Y0275031D01*
X0025417Y0275131D01*
X0025518Y0275227D01*
X0025622Y0275321D01*
X0025729Y0275411D01*
X0025838Y0275498D01*
X0025950Y0275583D01*
X0026064Y0275664D01*
X0026180Y0275742D01*
X0026298Y0275816D01*
X0026419Y0275887D01*
X0026541Y0275955D01*
X0026666Y0276019D01*
X0026792Y0276080D01*
X0026919Y0276137D01*
X0027049Y0276190D01*
X0027180Y0276240D01*
X0027312Y0276285D01*
X0027445Y0276328D01*
X0027580Y0276366D01*
X0027715Y0276400D01*
X0027852Y0276431D01*
X0027989Y0276458D01*
X0028127Y0276480D01*
X0028266Y0276499D01*
X0028405Y0276514D01*
X0028544Y0276525D01*
X0028684Y0276532D01*
X0028824Y0276535D01*
X0028964Y0276534D01*
X0029104Y0276529D01*
X0029243Y0276520D01*
X0029383Y0276507D01*
X0029522Y0276490D01*
X0029660Y0276469D01*
X0029798Y0276445D01*
X0029935Y0276416D01*
X0030071Y0276384D01*
X0030206Y0276347D01*
X0030340Y0276307D01*
X0030473Y0276263D01*
X0030604Y0276215D01*
X0030734Y0276164D01*
X0030863Y0276109D01*
X0030990Y0276050D01*
X0031115Y0275987D01*
X0031238Y0275922D01*
X0031360Y0275852D01*
X0031479Y0275779D01*
X0031597Y0275703D01*
X0031712Y0275624D01*
X0031825Y0275541D01*
X0031935Y0275455D01*
X0032043Y0275366D01*
X0032148Y0275274D01*
X0032251Y0275179D01*
X0032351Y0275081D01*
X0032448Y0274981D01*
X0032542Y0274877D01*
X0032634Y0274771D01*
X0032722Y0274663D01*
X0032807Y0274552D01*
X0032889Y0274438D01*
X0032968Y0274322D01*
X0033043Y0274205D01*
X0033115Y0274085D01*
X0033183Y0273963D01*
X0033248Y0273839D01*
X0033310Y0273713D01*
X0033368Y0273586D01*
X0033422Y0273457D01*
X0033473Y0273326D01*
X0033519Y0273194D01*
X0033562Y0273061D01*
X0033602Y0272927D01*
X0033637Y0272792D01*
X0033669Y0272655D01*
X0033696Y0272518D01*
X0033720Y0272380D01*
X0033740Y0272242D01*
X0033756Y0272103D01*
X0033768Y0271963D01*
X0033776Y0271824D01*
X0033780Y0271684D01*
X0033780Y0271544D01*
X0033776Y0271404D01*
X0033768Y0271265D01*
X0033756Y0271125D01*
X0033740Y0270986D01*
X0033720Y0270848D01*
X0033696Y0270710D01*
X0033669Y0270573D01*
X0033637Y0270436D01*
X0033602Y0270301D01*
X0033562Y0270167D01*
X0033519Y0270034D01*
X0033473Y0269902D01*
X0033422Y0269771D01*
X0033368Y0269642D01*
X0033310Y0269515D01*
X0033248Y0269389D01*
X0033183Y0269265D01*
X0033115Y0269143D01*
X0033043Y0269023D01*
X0032968Y0268906D01*
X0032889Y0268790D01*
X0032807Y0268676D01*
X0032722Y0268565D01*
X0032634Y0268457D01*
X0032542Y0268351D01*
X0032448Y0268247D01*
X0032351Y0268147D01*
X0032251Y0268049D01*
X0032148Y0267954D01*
X0032043Y0267862D01*
X0031935Y0267773D01*
X0031825Y0267687D01*
X0031712Y0267604D01*
X0031597Y0267525D01*
X0031479Y0267449D01*
X0031360Y0267376D01*
X0031238Y0267306D01*
X0031115Y0267241D01*
X0030990Y0267178D01*
X0030863Y0267119D01*
X0030734Y0267064D01*
X0030604Y0267013D01*
X0030473Y0266965D01*
X0030340Y0266921D01*
X0030206Y0266881D01*
X0030071Y0266844D01*
X0029935Y0266812D01*
X0029798Y0266783D01*
X0029660Y0266759D01*
X0029522Y0266738D01*
X0029383Y0266721D01*
X0029243Y0266708D01*
X0029104Y0266699D01*
X0028964Y0266694D01*
X0028824Y0266693D01*
X0028684Y0266696D01*
X0028544Y0266703D01*
X0028405Y0266714D01*
X0028266Y0266729D01*
X0028127Y0266748D01*
X0027989Y0266770D01*
X0027852Y0266797D01*
X0027715Y0266828D01*
X0027580Y0266862D01*
X0027445Y0266900D01*
X0027312Y0266943D01*
X0027180Y0266988D01*
X0027049Y0267038D01*
X0026919Y0267091D01*
X0026792Y0267148D01*
X0026666Y0267209D01*
X0026541Y0267273D01*
X0026419Y0267341D01*
X0026298Y0267412D01*
X0026180Y0267486D01*
X0026064Y0267564D01*
X0025950Y0267645D01*
X0025838Y0267730D01*
X0025729Y0267817D01*
X0025622Y0267907D01*
X0025518Y0268001D01*
X0025417Y0268097D01*
X0025318Y0268197D01*
X0025222Y0268299D01*
X0025130Y0268403D01*
X0025040Y0268511D01*
X0024953Y0268621D01*
X0024870Y0268733D01*
X0024789Y0268847D01*
X0024712Y0268964D01*
X0024639Y0269083D01*
X0024568Y0269204D01*
X0024502Y0269327D01*
X0024438Y0269452D01*
X0024379Y0269578D01*
X0024323Y0269707D01*
X0024270Y0269836D01*
X0024222Y0269967D01*
X0024177Y0270100D01*
X0024136Y0270234D01*
X0024098Y0270369D01*
X0024065Y0270504D01*
X0024035Y0270641D01*
X0024009Y0270779D01*
X0023988Y0270917D01*
X0023970Y0271056D01*
X0023956Y0271195D01*
X0023946Y0271334D01*
X0023940Y0271474D01*
X0023938Y0271614D01*
X0220296Y0244449D02*
X0220298Y0244596D01*
X0220304Y0244742D01*
X0220314Y0244888D01*
X0220328Y0245034D01*
X0220346Y0245180D01*
X0220367Y0245325D01*
X0220393Y0245469D01*
X0220423Y0245613D01*
X0220456Y0245755D01*
X0220493Y0245897D01*
X0220534Y0246038D01*
X0220579Y0246177D01*
X0220628Y0246316D01*
X0220680Y0246453D01*
X0220737Y0246588D01*
X0220796Y0246722D01*
X0220860Y0246854D01*
X0220927Y0246984D01*
X0220997Y0247113D01*
X0221071Y0247240D01*
X0221148Y0247364D01*
X0221229Y0247487D01*
X0221313Y0247607D01*
X0221400Y0247725D01*
X0221490Y0247840D01*
X0221583Y0247953D01*
X0221680Y0248064D01*
X0221779Y0248172D01*
X0221881Y0248277D01*
X0221986Y0248379D01*
X0222094Y0248478D01*
X0222205Y0248575D01*
X0222318Y0248668D01*
X0222433Y0248758D01*
X0222551Y0248845D01*
X0222671Y0248929D01*
X0222794Y0249010D01*
X0222918Y0249087D01*
X0223045Y0249161D01*
X0223174Y0249231D01*
X0223304Y0249298D01*
X0223436Y0249362D01*
X0223570Y0249421D01*
X0223705Y0249478D01*
X0223842Y0249530D01*
X0223981Y0249579D01*
X0224120Y0249624D01*
X0224261Y0249665D01*
X0224403Y0249702D01*
X0224545Y0249735D01*
X0224689Y0249765D01*
X0224833Y0249791D01*
X0224978Y0249812D01*
X0225124Y0249830D01*
X0225270Y0249844D01*
X0225416Y0249854D01*
X0225562Y0249860D01*
X0225709Y0249862D01*
X0225856Y0249860D01*
X0226002Y0249854D01*
X0226148Y0249844D01*
X0226294Y0249830D01*
X0226440Y0249812D01*
X0226585Y0249791D01*
X0226729Y0249765D01*
X0226873Y0249735D01*
X0227015Y0249702D01*
X0227157Y0249665D01*
X0227298Y0249624D01*
X0227437Y0249579D01*
X0227576Y0249530D01*
X0227713Y0249478D01*
X0227848Y0249421D01*
X0227982Y0249362D01*
X0228114Y0249298D01*
X0228244Y0249231D01*
X0228373Y0249161D01*
X0228500Y0249087D01*
X0228624Y0249010D01*
X0228747Y0248929D01*
X0228867Y0248845D01*
X0228985Y0248758D01*
X0229100Y0248668D01*
X0229213Y0248575D01*
X0229324Y0248478D01*
X0229432Y0248379D01*
X0229537Y0248277D01*
X0229639Y0248172D01*
X0229738Y0248064D01*
X0229835Y0247953D01*
X0229928Y0247840D01*
X0230018Y0247725D01*
X0230105Y0247607D01*
X0230189Y0247487D01*
X0230270Y0247364D01*
X0230347Y0247240D01*
X0230421Y0247113D01*
X0230491Y0246984D01*
X0230558Y0246854D01*
X0230622Y0246722D01*
X0230681Y0246588D01*
X0230738Y0246453D01*
X0230790Y0246316D01*
X0230839Y0246177D01*
X0230884Y0246038D01*
X0230925Y0245897D01*
X0230962Y0245755D01*
X0230995Y0245613D01*
X0231025Y0245469D01*
X0231051Y0245325D01*
X0231072Y0245180D01*
X0231090Y0245034D01*
X0231104Y0244888D01*
X0231114Y0244742D01*
X0231120Y0244596D01*
X0231122Y0244449D01*
X0231120Y0244302D01*
X0231114Y0244156D01*
X0231104Y0244010D01*
X0231090Y0243864D01*
X0231072Y0243718D01*
X0231051Y0243573D01*
X0231025Y0243429D01*
X0230995Y0243285D01*
X0230962Y0243143D01*
X0230925Y0243001D01*
X0230884Y0242860D01*
X0230839Y0242721D01*
X0230790Y0242582D01*
X0230738Y0242445D01*
X0230681Y0242310D01*
X0230622Y0242176D01*
X0230558Y0242044D01*
X0230491Y0241914D01*
X0230421Y0241785D01*
X0230347Y0241658D01*
X0230270Y0241534D01*
X0230189Y0241411D01*
X0230105Y0241291D01*
X0230018Y0241173D01*
X0229928Y0241058D01*
X0229835Y0240945D01*
X0229738Y0240834D01*
X0229639Y0240726D01*
X0229537Y0240621D01*
X0229432Y0240519D01*
X0229324Y0240420D01*
X0229213Y0240323D01*
X0229100Y0240230D01*
X0228985Y0240140D01*
X0228867Y0240053D01*
X0228747Y0239969D01*
X0228624Y0239888D01*
X0228500Y0239811D01*
X0228373Y0239737D01*
X0228244Y0239667D01*
X0228114Y0239600D01*
X0227982Y0239536D01*
X0227848Y0239477D01*
X0227713Y0239420D01*
X0227576Y0239368D01*
X0227437Y0239319D01*
X0227298Y0239274D01*
X0227157Y0239233D01*
X0227015Y0239196D01*
X0226873Y0239163D01*
X0226729Y0239133D01*
X0226585Y0239107D01*
X0226440Y0239086D01*
X0226294Y0239068D01*
X0226148Y0239054D01*
X0226002Y0239044D01*
X0225856Y0239038D01*
X0225709Y0239036D01*
X0225562Y0239038D01*
X0225416Y0239044D01*
X0225270Y0239054D01*
X0225124Y0239068D01*
X0224978Y0239086D01*
X0224833Y0239107D01*
X0224689Y0239133D01*
X0224545Y0239163D01*
X0224403Y0239196D01*
X0224261Y0239233D01*
X0224120Y0239274D01*
X0223981Y0239319D01*
X0223842Y0239368D01*
X0223705Y0239420D01*
X0223570Y0239477D01*
X0223436Y0239536D01*
X0223304Y0239600D01*
X0223174Y0239667D01*
X0223045Y0239737D01*
X0222918Y0239811D01*
X0222794Y0239888D01*
X0222671Y0239969D01*
X0222551Y0240053D01*
X0222433Y0240140D01*
X0222318Y0240230D01*
X0222205Y0240323D01*
X0222094Y0240420D01*
X0221986Y0240519D01*
X0221881Y0240621D01*
X0221779Y0240726D01*
X0221680Y0240834D01*
X0221583Y0240945D01*
X0221490Y0241058D01*
X0221400Y0241173D01*
X0221313Y0241291D01*
X0221229Y0241411D01*
X0221148Y0241534D01*
X0221071Y0241658D01*
X0220997Y0241785D01*
X0220927Y0241914D01*
X0220860Y0242044D01*
X0220796Y0242176D01*
X0220737Y0242310D01*
X0220680Y0242445D01*
X0220628Y0242582D01*
X0220579Y0242721D01*
X0220534Y0242860D01*
X0220493Y0243001D01*
X0220456Y0243143D01*
X0220423Y0243285D01*
X0220393Y0243429D01*
X0220367Y0243573D01*
X0220346Y0243718D01*
X0220328Y0243864D01*
X0220314Y0244010D01*
X0220304Y0244156D01*
X0220298Y0244302D01*
X0220296Y0244449D01*
X0220296Y0101929D02*
X0220298Y0102076D01*
X0220304Y0102222D01*
X0220314Y0102368D01*
X0220328Y0102514D01*
X0220346Y0102660D01*
X0220367Y0102805D01*
X0220393Y0102949D01*
X0220423Y0103093D01*
X0220456Y0103235D01*
X0220493Y0103377D01*
X0220534Y0103518D01*
X0220579Y0103657D01*
X0220628Y0103796D01*
X0220680Y0103933D01*
X0220737Y0104068D01*
X0220796Y0104202D01*
X0220860Y0104334D01*
X0220927Y0104464D01*
X0220997Y0104593D01*
X0221071Y0104720D01*
X0221148Y0104844D01*
X0221229Y0104967D01*
X0221313Y0105087D01*
X0221400Y0105205D01*
X0221490Y0105320D01*
X0221583Y0105433D01*
X0221680Y0105544D01*
X0221779Y0105652D01*
X0221881Y0105757D01*
X0221986Y0105859D01*
X0222094Y0105958D01*
X0222205Y0106055D01*
X0222318Y0106148D01*
X0222433Y0106238D01*
X0222551Y0106325D01*
X0222671Y0106409D01*
X0222794Y0106490D01*
X0222918Y0106567D01*
X0223045Y0106641D01*
X0223174Y0106711D01*
X0223304Y0106778D01*
X0223436Y0106842D01*
X0223570Y0106901D01*
X0223705Y0106958D01*
X0223842Y0107010D01*
X0223981Y0107059D01*
X0224120Y0107104D01*
X0224261Y0107145D01*
X0224403Y0107182D01*
X0224545Y0107215D01*
X0224689Y0107245D01*
X0224833Y0107271D01*
X0224978Y0107292D01*
X0225124Y0107310D01*
X0225270Y0107324D01*
X0225416Y0107334D01*
X0225562Y0107340D01*
X0225709Y0107342D01*
X0225856Y0107340D01*
X0226002Y0107334D01*
X0226148Y0107324D01*
X0226294Y0107310D01*
X0226440Y0107292D01*
X0226585Y0107271D01*
X0226729Y0107245D01*
X0226873Y0107215D01*
X0227015Y0107182D01*
X0227157Y0107145D01*
X0227298Y0107104D01*
X0227437Y0107059D01*
X0227576Y0107010D01*
X0227713Y0106958D01*
X0227848Y0106901D01*
X0227982Y0106842D01*
X0228114Y0106778D01*
X0228244Y0106711D01*
X0228373Y0106641D01*
X0228500Y0106567D01*
X0228624Y0106490D01*
X0228747Y0106409D01*
X0228867Y0106325D01*
X0228985Y0106238D01*
X0229100Y0106148D01*
X0229213Y0106055D01*
X0229324Y0105958D01*
X0229432Y0105859D01*
X0229537Y0105757D01*
X0229639Y0105652D01*
X0229738Y0105544D01*
X0229835Y0105433D01*
X0229928Y0105320D01*
X0230018Y0105205D01*
X0230105Y0105087D01*
X0230189Y0104967D01*
X0230270Y0104844D01*
X0230347Y0104720D01*
X0230421Y0104593D01*
X0230491Y0104464D01*
X0230558Y0104334D01*
X0230622Y0104202D01*
X0230681Y0104068D01*
X0230738Y0103933D01*
X0230790Y0103796D01*
X0230839Y0103657D01*
X0230884Y0103518D01*
X0230925Y0103377D01*
X0230962Y0103235D01*
X0230995Y0103093D01*
X0231025Y0102949D01*
X0231051Y0102805D01*
X0231072Y0102660D01*
X0231090Y0102514D01*
X0231104Y0102368D01*
X0231114Y0102222D01*
X0231120Y0102076D01*
X0231122Y0101929D01*
X0231120Y0101782D01*
X0231114Y0101636D01*
X0231104Y0101490D01*
X0231090Y0101344D01*
X0231072Y0101198D01*
X0231051Y0101053D01*
X0231025Y0100909D01*
X0230995Y0100765D01*
X0230962Y0100623D01*
X0230925Y0100481D01*
X0230884Y0100340D01*
X0230839Y0100201D01*
X0230790Y0100062D01*
X0230738Y0099925D01*
X0230681Y0099790D01*
X0230622Y0099656D01*
X0230558Y0099524D01*
X0230491Y0099394D01*
X0230421Y0099265D01*
X0230347Y0099138D01*
X0230270Y0099014D01*
X0230189Y0098891D01*
X0230105Y0098771D01*
X0230018Y0098653D01*
X0229928Y0098538D01*
X0229835Y0098425D01*
X0229738Y0098314D01*
X0229639Y0098206D01*
X0229537Y0098101D01*
X0229432Y0097999D01*
X0229324Y0097900D01*
X0229213Y0097803D01*
X0229100Y0097710D01*
X0228985Y0097620D01*
X0228867Y0097533D01*
X0228747Y0097449D01*
X0228624Y0097368D01*
X0228500Y0097291D01*
X0228373Y0097217D01*
X0228244Y0097147D01*
X0228114Y0097080D01*
X0227982Y0097016D01*
X0227848Y0096957D01*
X0227713Y0096900D01*
X0227576Y0096848D01*
X0227437Y0096799D01*
X0227298Y0096754D01*
X0227157Y0096713D01*
X0227015Y0096676D01*
X0226873Y0096643D01*
X0226729Y0096613D01*
X0226585Y0096587D01*
X0226440Y0096566D01*
X0226294Y0096548D01*
X0226148Y0096534D01*
X0226002Y0096524D01*
X0225856Y0096518D01*
X0225709Y0096516D01*
X0225562Y0096518D01*
X0225416Y0096524D01*
X0225270Y0096534D01*
X0225124Y0096548D01*
X0224978Y0096566D01*
X0224833Y0096587D01*
X0224689Y0096613D01*
X0224545Y0096643D01*
X0224403Y0096676D01*
X0224261Y0096713D01*
X0224120Y0096754D01*
X0223981Y0096799D01*
X0223842Y0096848D01*
X0223705Y0096900D01*
X0223570Y0096957D01*
X0223436Y0097016D01*
X0223304Y0097080D01*
X0223174Y0097147D01*
X0223045Y0097217D01*
X0222918Y0097291D01*
X0222794Y0097368D01*
X0222671Y0097449D01*
X0222551Y0097533D01*
X0222433Y0097620D01*
X0222318Y0097710D01*
X0222205Y0097803D01*
X0222094Y0097900D01*
X0221986Y0097999D01*
X0221881Y0098101D01*
X0221779Y0098206D01*
X0221680Y0098314D01*
X0221583Y0098425D01*
X0221490Y0098538D01*
X0221400Y0098653D01*
X0221313Y0098771D01*
X0221229Y0098891D01*
X0221148Y0099014D01*
X0221071Y0099138D01*
X0220997Y0099265D01*
X0220927Y0099394D01*
X0220860Y0099524D01*
X0220796Y0099656D01*
X0220737Y0099790D01*
X0220680Y0099925D01*
X0220628Y0100062D01*
X0220579Y0100201D01*
X0220534Y0100340D01*
X0220493Y0100481D01*
X0220456Y0100623D01*
X0220423Y0100765D01*
X0220393Y0100909D01*
X0220367Y0101053D01*
X0220346Y0101198D01*
X0220328Y0101344D01*
X0220314Y0101490D01*
X0220304Y0101636D01*
X0220298Y0101782D01*
X0220296Y0101929D01*
D11*
X0028859Y0074764D03*
X0028859Y0271614D03*
D12*
X0028859Y0244449D03*
X0028859Y0101929D03*
X0225709Y0101929D03*
X0225709Y0244449D03*
D13*
X0110867Y0212323D03*
X0100867Y0212323D03*
X0101379Y0159882D03*
X0111379Y0159882D03*
D14*
X0121103Y0158976D03*
X0131103Y0158976D03*
X0141221Y0158976D03*
X0151221Y0158976D03*
X0151182Y0207323D03*
X0157520Y0212283D03*
X0164174Y0217323D03*
X0157520Y0222283D03*
X0164174Y0227323D03*
X0151182Y0217323D03*
X0141221Y0217323D03*
X0141143Y0225276D03*
X0131182Y0217323D03*
X0131143Y0225276D03*
X0121412Y0225276D03*
X0111412Y0225276D03*
X0091221Y0217323D03*
X0091221Y0207323D03*
X0081182Y0207244D03*
X0071339Y0207323D03*
X0071339Y0217323D03*
X0081182Y0217244D03*
X0061103Y0217126D03*
X0061103Y0207126D03*
X0051143Y0207323D03*
X0051143Y0217323D03*
X0041221Y0217362D03*
X0041221Y0207362D03*
X0031064Y0207362D03*
X0021261Y0207283D03*
X0021261Y0217283D03*
X0031064Y0217362D03*
X0048269Y0281063D03*
X0048269Y0287087D03*
X0048269Y0297087D03*
X0058269Y0297087D03*
X0058269Y0287087D03*
X0058269Y0281063D03*
X0070316Y0281063D03*
X0070316Y0287087D03*
X0070316Y0297087D03*
X0080316Y0297087D03*
X0080316Y0287087D03*
X0080316Y0281063D03*
X0092363Y0281063D03*
X0092363Y0287087D03*
X0092363Y0297087D03*
X0102363Y0297087D03*
X0102363Y0287087D03*
X0102363Y0281063D03*
X0113623Y0281063D03*
X0113623Y0287087D03*
X0113623Y0297087D03*
X0123623Y0297087D03*
X0123623Y0287087D03*
X0123623Y0281063D03*
X0135670Y0281063D03*
X0135670Y0287087D03*
X0135670Y0297087D03*
X0145670Y0297087D03*
X0145670Y0287087D03*
X0145670Y0281063D03*
X0156930Y0281063D03*
X0156930Y0287087D03*
X0156930Y0297087D03*
X0166930Y0297087D03*
X0166930Y0287087D03*
X0166930Y0281063D03*
X0178190Y0281063D03*
X0178190Y0287087D03*
X0178190Y0297087D03*
X0188190Y0297087D03*
X0188190Y0287087D03*
X0188190Y0281063D03*
X0200237Y0281063D03*
X0200237Y0287087D03*
X0200237Y0297087D03*
X0210237Y0297087D03*
X0210237Y0287087D03*
X0210237Y0281063D03*
X0229174Y0223799D03*
X0224174Y0216299D03*
X0234174Y0216299D03*
X0229253Y0202874D03*
X0229213Y0195118D03*
X0229371Y0186319D03*
X0234371Y0178819D03*
X0224371Y0178819D03*
X0239213Y0195118D03*
X0239253Y0202874D03*
X0141221Y0207323D03*
X0131182Y0207323D03*
D15*
X0131221Y0201770D02*
X0131221Y0196970D01*
X0141221Y0196970D02*
X0141221Y0201770D01*
X0151221Y0201770D02*
X0151221Y0196970D01*
X0151221Y0171770D02*
X0151221Y0166970D01*
X0141221Y0166970D02*
X0141221Y0171770D01*
X0131221Y0171770D02*
X0131221Y0166970D01*
X0121221Y0166970D02*
X0121221Y0171770D01*
X0111221Y0171770D02*
X0111221Y0166970D01*
X0101221Y0166970D02*
X0101221Y0171770D01*
X0091221Y0171770D02*
X0091221Y0166970D01*
X0091280Y0162282D02*
X0091280Y0157482D01*
X0081280Y0157482D02*
X0081280Y0162282D01*
X0081221Y0166970D02*
X0081221Y0171770D01*
X0071221Y0171770D02*
X0071221Y0166970D01*
X0071280Y0162282D02*
X0071280Y0157482D01*
X0061280Y0157482D02*
X0061280Y0162282D01*
X0061221Y0166970D02*
X0061221Y0171770D01*
X0051221Y0171770D02*
X0051221Y0166970D01*
X0051280Y0162282D02*
X0051280Y0157482D01*
X0041280Y0157482D02*
X0041280Y0162282D01*
X0041221Y0166970D02*
X0041221Y0171770D01*
X0031221Y0171770D02*
X0031221Y0166970D01*
X0031280Y0162282D02*
X0031280Y0157482D01*
X0021280Y0157482D02*
X0021280Y0162282D01*
X0021221Y0166970D02*
X0021221Y0171770D01*
X0011280Y0162282D02*
X0011280Y0157482D01*
X0011280Y0132282D02*
X0011280Y0127482D01*
X0021280Y0127482D02*
X0021280Y0132282D01*
X0031280Y0132282D02*
X0031280Y0127482D01*
X0041280Y0127482D02*
X0041280Y0132282D01*
X0051280Y0132282D02*
X0051280Y0127482D01*
X0061280Y0127482D02*
X0061280Y0132282D01*
X0071280Y0132282D02*
X0071280Y0127482D01*
X0081280Y0127482D02*
X0081280Y0132282D01*
X0091280Y0132282D02*
X0091280Y0127482D01*
X0091221Y0196970D02*
X0091221Y0201770D01*
X0081221Y0201770D02*
X0081221Y0196970D01*
X0071221Y0196970D02*
X0071221Y0201770D01*
X0061221Y0201770D02*
X0061221Y0196970D01*
X0051221Y0196970D02*
X0051221Y0201770D01*
X0041221Y0201770D02*
X0041221Y0196970D01*
X0031221Y0196970D02*
X0031221Y0201770D01*
X0021221Y0201770D02*
X0021221Y0196970D01*
X0021221Y0222836D02*
X0021221Y0227636D01*
X0031221Y0227636D02*
X0031221Y0222836D01*
X0041221Y0222836D02*
X0041221Y0227636D01*
X0048269Y0237641D02*
X0048269Y0242441D01*
X0058269Y0242441D02*
X0058269Y0237641D01*
X0061221Y0227636D02*
X0061221Y0222836D01*
X0051221Y0222836D02*
X0051221Y0227636D01*
X0070316Y0237641D02*
X0070316Y0242441D01*
X0080316Y0242441D02*
X0080316Y0237641D01*
X0081221Y0227636D02*
X0081221Y0222836D01*
X0071221Y0222836D02*
X0071221Y0227636D01*
X0091221Y0227636D02*
X0091221Y0222836D01*
X0101221Y0222836D02*
X0101221Y0227636D01*
X0102363Y0237641D02*
X0102363Y0242441D01*
X0092363Y0242441D02*
X0092363Y0237641D01*
X0113623Y0237641D02*
X0113623Y0242441D01*
X0123623Y0242441D02*
X0123623Y0237641D01*
X0135670Y0237641D02*
X0135670Y0242441D01*
X0145670Y0242441D02*
X0145670Y0237641D01*
X0156930Y0237641D02*
X0156930Y0242441D01*
X0166930Y0242441D02*
X0166930Y0237641D01*
X0178190Y0237641D02*
X0178190Y0242441D01*
X0188190Y0242441D02*
X0188190Y0237641D01*
X0187048Y0228739D02*
X0187048Y0223939D01*
X0177048Y0223939D02*
X0177048Y0228739D01*
X0197048Y0228739D02*
X0197048Y0223939D01*
X0200237Y0237641D02*
X0200237Y0242441D01*
X0210237Y0242441D02*
X0210237Y0237641D01*
X0210237Y0272441D02*
X0210237Y0277241D01*
X0200237Y0277241D02*
X0200237Y0272441D01*
X0188190Y0272441D02*
X0188190Y0277241D01*
X0178190Y0277241D02*
X0178190Y0272441D01*
X0166930Y0272441D02*
X0166930Y0277241D01*
X0156930Y0277241D02*
X0156930Y0272441D01*
X0145670Y0272441D02*
X0145670Y0277241D01*
X0135670Y0277241D02*
X0135670Y0272441D01*
X0123623Y0272441D02*
X0123623Y0277241D01*
X0113623Y0277241D02*
X0113623Y0272441D01*
X0102363Y0272441D02*
X0102363Y0277241D01*
X0092363Y0277241D02*
X0092363Y0272441D01*
X0080316Y0272441D02*
X0080316Y0277241D01*
X0070316Y0277241D02*
X0070316Y0272441D01*
X0058269Y0272441D02*
X0058269Y0277241D01*
X0048269Y0277241D02*
X0048269Y0272441D01*
X0101221Y0201770D02*
X0101221Y0196970D01*
X0111221Y0196970D02*
X0111221Y0201770D01*
X0121221Y0201770D02*
X0121221Y0196970D01*
X0177048Y0198739D02*
X0177048Y0193939D01*
X0187048Y0193939D02*
X0187048Y0198739D01*
X0197048Y0198739D02*
X0197048Y0193939D01*
D16*
X0133780Y0099764D03*
X0120001Y0099764D03*
X0120001Y0081260D03*
X0120001Y0069843D03*
X0120001Y0051339D03*
X0133780Y0051339D03*
X0133780Y0069843D03*
X0133780Y0081260D03*
D17*
X0179056Y0081260D03*
X0179056Y0051339D03*
X0074725Y0069843D03*
X0074725Y0099764D03*
D18*
X0047166Y0099764D03*
X0047166Y0069843D03*
X0206615Y0081260D03*
X0206615Y0051339D03*
D19*
X0196831Y0181024D02*
X0189154Y0181024D01*
X0171241Y0181024D02*
X0163564Y0181024D01*
D20*
X0166261Y0319646D03*
X0185946Y0319646D03*
X0205631Y0319646D03*
X0146576Y0319646D03*
X0107599Y0319646D03*
X0087914Y0319646D03*
X0068229Y0319646D03*
X0048544Y0319646D03*
X0028859Y0319646D03*
X0028465Y0026732D03*
X0048150Y0026732D03*
X0087520Y0026732D03*
X0107206Y0026732D03*
X0147363Y0026732D03*
X0167048Y0026732D03*
X0206418Y0026732D03*
X0226103Y0026732D03*
D21*
X0242835Y0316102D03*
D22*
X0242835Y0323976D03*
X0234961Y0323976D03*
X0234961Y0316102D03*
X0227087Y0316102D03*
X0227087Y0323976D03*
D23*
X0051261Y0123236D02*
X0051261Y0117236D01*
X0041261Y0117236D02*
X0041261Y0123236D01*
X0031261Y0123236D02*
X0031261Y0117236D01*
X0021261Y0117236D02*
X0021261Y0123236D01*
X0011261Y0123236D02*
X0011261Y0117236D01*
M02*
