G75*
%MOIN*%
%OFA0B0*%
%FSLAX25Y25*%
%IPPOS*%
%LPD*%
%AMOC8*
5,1,8,0,0,1.08239X$1,22.5*
%
%ADD10C,0.00000*%
%ADD11C,0.09843*%
%ADD12C,0.10827*%
%ADD13C,0.06299*%
%ADD14C,0.02362*%
%ADD15C,0.03543*%
%ADD16OC8,0.06300*%
%ADD17OC8,0.04800*%
%ADD18C,0.04800*%
%ADD19C,0.04800*%
%ADD20C,0.05250*%
%ADD21C,0.05315*%
%ADD22C,0.07677*%
%ADD23C,0.07677*%
%ADD24R,0.05400X0.05400*%
%ADD25C,0.05400*%
%ADD26C,0.06000*%
D10*
X0001300Y0011772D02*
X0001300Y0334606D01*
X0253269Y0334606D01*
X0253269Y0011772D01*
X0001300Y0011772D01*
X0023938Y0074764D02*
X0023940Y0074904D01*
X0023946Y0075044D01*
X0023956Y0075183D01*
X0023970Y0075322D01*
X0023988Y0075461D01*
X0024009Y0075599D01*
X0024035Y0075737D01*
X0024065Y0075874D01*
X0024098Y0076009D01*
X0024136Y0076144D01*
X0024177Y0076278D01*
X0024222Y0076411D01*
X0024270Y0076542D01*
X0024323Y0076671D01*
X0024379Y0076800D01*
X0024438Y0076926D01*
X0024502Y0077051D01*
X0024568Y0077174D01*
X0024639Y0077295D01*
X0024712Y0077414D01*
X0024789Y0077531D01*
X0024870Y0077645D01*
X0024953Y0077757D01*
X0025040Y0077867D01*
X0025130Y0077975D01*
X0025222Y0078079D01*
X0025318Y0078181D01*
X0025417Y0078281D01*
X0025518Y0078377D01*
X0025622Y0078471D01*
X0025729Y0078561D01*
X0025838Y0078648D01*
X0025950Y0078733D01*
X0026064Y0078814D01*
X0026180Y0078892D01*
X0026298Y0078966D01*
X0026419Y0079037D01*
X0026541Y0079105D01*
X0026666Y0079169D01*
X0026792Y0079230D01*
X0026919Y0079287D01*
X0027049Y0079340D01*
X0027180Y0079390D01*
X0027312Y0079435D01*
X0027445Y0079478D01*
X0027580Y0079516D01*
X0027715Y0079550D01*
X0027852Y0079581D01*
X0027989Y0079608D01*
X0028127Y0079630D01*
X0028266Y0079649D01*
X0028405Y0079664D01*
X0028544Y0079675D01*
X0028684Y0079682D01*
X0028824Y0079685D01*
X0028964Y0079684D01*
X0029104Y0079679D01*
X0029243Y0079670D01*
X0029383Y0079657D01*
X0029522Y0079640D01*
X0029660Y0079619D01*
X0029798Y0079595D01*
X0029935Y0079566D01*
X0030071Y0079534D01*
X0030206Y0079497D01*
X0030340Y0079457D01*
X0030473Y0079413D01*
X0030604Y0079365D01*
X0030734Y0079314D01*
X0030863Y0079259D01*
X0030990Y0079200D01*
X0031115Y0079137D01*
X0031238Y0079072D01*
X0031360Y0079002D01*
X0031479Y0078929D01*
X0031597Y0078853D01*
X0031712Y0078774D01*
X0031825Y0078691D01*
X0031935Y0078605D01*
X0032043Y0078516D01*
X0032148Y0078424D01*
X0032251Y0078329D01*
X0032351Y0078231D01*
X0032448Y0078131D01*
X0032542Y0078027D01*
X0032634Y0077921D01*
X0032722Y0077813D01*
X0032807Y0077702D01*
X0032889Y0077588D01*
X0032968Y0077472D01*
X0033043Y0077355D01*
X0033115Y0077235D01*
X0033183Y0077113D01*
X0033248Y0076989D01*
X0033310Y0076863D01*
X0033368Y0076736D01*
X0033422Y0076607D01*
X0033473Y0076476D01*
X0033519Y0076344D01*
X0033562Y0076211D01*
X0033602Y0076077D01*
X0033637Y0075942D01*
X0033669Y0075805D01*
X0033696Y0075668D01*
X0033720Y0075530D01*
X0033740Y0075392D01*
X0033756Y0075253D01*
X0033768Y0075113D01*
X0033776Y0074974D01*
X0033780Y0074834D01*
X0033780Y0074694D01*
X0033776Y0074554D01*
X0033768Y0074415D01*
X0033756Y0074275D01*
X0033740Y0074136D01*
X0033720Y0073998D01*
X0033696Y0073860D01*
X0033669Y0073723D01*
X0033637Y0073586D01*
X0033602Y0073451D01*
X0033562Y0073317D01*
X0033519Y0073184D01*
X0033473Y0073052D01*
X0033422Y0072921D01*
X0033368Y0072792D01*
X0033310Y0072665D01*
X0033248Y0072539D01*
X0033183Y0072415D01*
X0033115Y0072293D01*
X0033043Y0072173D01*
X0032968Y0072056D01*
X0032889Y0071940D01*
X0032807Y0071826D01*
X0032722Y0071715D01*
X0032634Y0071607D01*
X0032542Y0071501D01*
X0032448Y0071397D01*
X0032351Y0071297D01*
X0032251Y0071199D01*
X0032148Y0071104D01*
X0032043Y0071012D01*
X0031935Y0070923D01*
X0031825Y0070837D01*
X0031712Y0070754D01*
X0031597Y0070675D01*
X0031479Y0070599D01*
X0031360Y0070526D01*
X0031238Y0070456D01*
X0031115Y0070391D01*
X0030990Y0070328D01*
X0030863Y0070269D01*
X0030734Y0070214D01*
X0030604Y0070163D01*
X0030473Y0070115D01*
X0030340Y0070071D01*
X0030206Y0070031D01*
X0030071Y0069994D01*
X0029935Y0069962D01*
X0029798Y0069933D01*
X0029660Y0069909D01*
X0029522Y0069888D01*
X0029383Y0069871D01*
X0029243Y0069858D01*
X0029104Y0069849D01*
X0028964Y0069844D01*
X0028824Y0069843D01*
X0028684Y0069846D01*
X0028544Y0069853D01*
X0028405Y0069864D01*
X0028266Y0069879D01*
X0028127Y0069898D01*
X0027989Y0069920D01*
X0027852Y0069947D01*
X0027715Y0069978D01*
X0027580Y0070012D01*
X0027445Y0070050D01*
X0027312Y0070093D01*
X0027180Y0070138D01*
X0027049Y0070188D01*
X0026919Y0070241D01*
X0026792Y0070298D01*
X0026666Y0070359D01*
X0026541Y0070423D01*
X0026419Y0070491D01*
X0026298Y0070562D01*
X0026180Y0070636D01*
X0026064Y0070714D01*
X0025950Y0070795D01*
X0025838Y0070880D01*
X0025729Y0070967D01*
X0025622Y0071057D01*
X0025518Y0071151D01*
X0025417Y0071247D01*
X0025318Y0071347D01*
X0025222Y0071449D01*
X0025130Y0071553D01*
X0025040Y0071661D01*
X0024953Y0071771D01*
X0024870Y0071883D01*
X0024789Y0071997D01*
X0024712Y0072114D01*
X0024639Y0072233D01*
X0024568Y0072354D01*
X0024502Y0072477D01*
X0024438Y0072602D01*
X0024379Y0072728D01*
X0024323Y0072857D01*
X0024270Y0072986D01*
X0024222Y0073117D01*
X0024177Y0073250D01*
X0024136Y0073384D01*
X0024098Y0073519D01*
X0024065Y0073654D01*
X0024035Y0073791D01*
X0024009Y0073929D01*
X0023988Y0074067D01*
X0023970Y0074206D01*
X0023956Y0074345D01*
X0023946Y0074484D01*
X0023940Y0074624D01*
X0023938Y0074764D01*
X0023446Y0101929D02*
X0023448Y0102076D01*
X0023454Y0102222D01*
X0023464Y0102368D01*
X0023478Y0102514D01*
X0023496Y0102660D01*
X0023517Y0102805D01*
X0023543Y0102949D01*
X0023573Y0103093D01*
X0023606Y0103235D01*
X0023643Y0103377D01*
X0023684Y0103518D01*
X0023729Y0103657D01*
X0023778Y0103796D01*
X0023830Y0103933D01*
X0023887Y0104068D01*
X0023946Y0104202D01*
X0024010Y0104334D01*
X0024077Y0104464D01*
X0024147Y0104593D01*
X0024221Y0104720D01*
X0024298Y0104844D01*
X0024379Y0104967D01*
X0024463Y0105087D01*
X0024550Y0105205D01*
X0024640Y0105320D01*
X0024733Y0105433D01*
X0024830Y0105544D01*
X0024929Y0105652D01*
X0025031Y0105757D01*
X0025136Y0105859D01*
X0025244Y0105958D01*
X0025355Y0106055D01*
X0025468Y0106148D01*
X0025583Y0106238D01*
X0025701Y0106325D01*
X0025821Y0106409D01*
X0025944Y0106490D01*
X0026068Y0106567D01*
X0026195Y0106641D01*
X0026324Y0106711D01*
X0026454Y0106778D01*
X0026586Y0106842D01*
X0026720Y0106901D01*
X0026855Y0106958D01*
X0026992Y0107010D01*
X0027131Y0107059D01*
X0027270Y0107104D01*
X0027411Y0107145D01*
X0027553Y0107182D01*
X0027695Y0107215D01*
X0027839Y0107245D01*
X0027983Y0107271D01*
X0028128Y0107292D01*
X0028274Y0107310D01*
X0028420Y0107324D01*
X0028566Y0107334D01*
X0028712Y0107340D01*
X0028859Y0107342D01*
X0029006Y0107340D01*
X0029152Y0107334D01*
X0029298Y0107324D01*
X0029444Y0107310D01*
X0029590Y0107292D01*
X0029735Y0107271D01*
X0029879Y0107245D01*
X0030023Y0107215D01*
X0030165Y0107182D01*
X0030307Y0107145D01*
X0030448Y0107104D01*
X0030587Y0107059D01*
X0030726Y0107010D01*
X0030863Y0106958D01*
X0030998Y0106901D01*
X0031132Y0106842D01*
X0031264Y0106778D01*
X0031394Y0106711D01*
X0031523Y0106641D01*
X0031650Y0106567D01*
X0031774Y0106490D01*
X0031897Y0106409D01*
X0032017Y0106325D01*
X0032135Y0106238D01*
X0032250Y0106148D01*
X0032363Y0106055D01*
X0032474Y0105958D01*
X0032582Y0105859D01*
X0032687Y0105757D01*
X0032789Y0105652D01*
X0032888Y0105544D01*
X0032985Y0105433D01*
X0033078Y0105320D01*
X0033168Y0105205D01*
X0033255Y0105087D01*
X0033339Y0104967D01*
X0033420Y0104844D01*
X0033497Y0104720D01*
X0033571Y0104593D01*
X0033641Y0104464D01*
X0033708Y0104334D01*
X0033772Y0104202D01*
X0033831Y0104068D01*
X0033888Y0103933D01*
X0033940Y0103796D01*
X0033989Y0103657D01*
X0034034Y0103518D01*
X0034075Y0103377D01*
X0034112Y0103235D01*
X0034145Y0103093D01*
X0034175Y0102949D01*
X0034201Y0102805D01*
X0034222Y0102660D01*
X0034240Y0102514D01*
X0034254Y0102368D01*
X0034264Y0102222D01*
X0034270Y0102076D01*
X0034272Y0101929D01*
X0034270Y0101782D01*
X0034264Y0101636D01*
X0034254Y0101490D01*
X0034240Y0101344D01*
X0034222Y0101198D01*
X0034201Y0101053D01*
X0034175Y0100909D01*
X0034145Y0100765D01*
X0034112Y0100623D01*
X0034075Y0100481D01*
X0034034Y0100340D01*
X0033989Y0100201D01*
X0033940Y0100062D01*
X0033888Y0099925D01*
X0033831Y0099790D01*
X0033772Y0099656D01*
X0033708Y0099524D01*
X0033641Y0099394D01*
X0033571Y0099265D01*
X0033497Y0099138D01*
X0033420Y0099014D01*
X0033339Y0098891D01*
X0033255Y0098771D01*
X0033168Y0098653D01*
X0033078Y0098538D01*
X0032985Y0098425D01*
X0032888Y0098314D01*
X0032789Y0098206D01*
X0032687Y0098101D01*
X0032582Y0097999D01*
X0032474Y0097900D01*
X0032363Y0097803D01*
X0032250Y0097710D01*
X0032135Y0097620D01*
X0032017Y0097533D01*
X0031897Y0097449D01*
X0031774Y0097368D01*
X0031650Y0097291D01*
X0031523Y0097217D01*
X0031394Y0097147D01*
X0031264Y0097080D01*
X0031132Y0097016D01*
X0030998Y0096957D01*
X0030863Y0096900D01*
X0030726Y0096848D01*
X0030587Y0096799D01*
X0030448Y0096754D01*
X0030307Y0096713D01*
X0030165Y0096676D01*
X0030023Y0096643D01*
X0029879Y0096613D01*
X0029735Y0096587D01*
X0029590Y0096566D01*
X0029444Y0096548D01*
X0029298Y0096534D01*
X0029152Y0096524D01*
X0029006Y0096518D01*
X0028859Y0096516D01*
X0028712Y0096518D01*
X0028566Y0096524D01*
X0028420Y0096534D01*
X0028274Y0096548D01*
X0028128Y0096566D01*
X0027983Y0096587D01*
X0027839Y0096613D01*
X0027695Y0096643D01*
X0027553Y0096676D01*
X0027411Y0096713D01*
X0027270Y0096754D01*
X0027131Y0096799D01*
X0026992Y0096848D01*
X0026855Y0096900D01*
X0026720Y0096957D01*
X0026586Y0097016D01*
X0026454Y0097080D01*
X0026324Y0097147D01*
X0026195Y0097217D01*
X0026068Y0097291D01*
X0025944Y0097368D01*
X0025821Y0097449D01*
X0025701Y0097533D01*
X0025583Y0097620D01*
X0025468Y0097710D01*
X0025355Y0097803D01*
X0025244Y0097900D01*
X0025136Y0097999D01*
X0025031Y0098101D01*
X0024929Y0098206D01*
X0024830Y0098314D01*
X0024733Y0098425D01*
X0024640Y0098538D01*
X0024550Y0098653D01*
X0024463Y0098771D01*
X0024379Y0098891D01*
X0024298Y0099014D01*
X0024221Y0099138D01*
X0024147Y0099265D01*
X0024077Y0099394D01*
X0024010Y0099524D01*
X0023946Y0099656D01*
X0023887Y0099790D01*
X0023830Y0099925D01*
X0023778Y0100062D01*
X0023729Y0100201D01*
X0023684Y0100340D01*
X0023643Y0100481D01*
X0023606Y0100623D01*
X0023573Y0100765D01*
X0023543Y0100909D01*
X0023517Y0101053D01*
X0023496Y0101198D01*
X0023478Y0101344D01*
X0023464Y0101490D01*
X0023454Y0101636D01*
X0023448Y0101782D01*
X0023446Y0101929D01*
X0023446Y0244449D02*
X0023448Y0244596D01*
X0023454Y0244742D01*
X0023464Y0244888D01*
X0023478Y0245034D01*
X0023496Y0245180D01*
X0023517Y0245325D01*
X0023543Y0245469D01*
X0023573Y0245613D01*
X0023606Y0245755D01*
X0023643Y0245897D01*
X0023684Y0246038D01*
X0023729Y0246177D01*
X0023778Y0246316D01*
X0023830Y0246453D01*
X0023887Y0246588D01*
X0023946Y0246722D01*
X0024010Y0246854D01*
X0024077Y0246984D01*
X0024147Y0247113D01*
X0024221Y0247240D01*
X0024298Y0247364D01*
X0024379Y0247487D01*
X0024463Y0247607D01*
X0024550Y0247725D01*
X0024640Y0247840D01*
X0024733Y0247953D01*
X0024830Y0248064D01*
X0024929Y0248172D01*
X0025031Y0248277D01*
X0025136Y0248379D01*
X0025244Y0248478D01*
X0025355Y0248575D01*
X0025468Y0248668D01*
X0025583Y0248758D01*
X0025701Y0248845D01*
X0025821Y0248929D01*
X0025944Y0249010D01*
X0026068Y0249087D01*
X0026195Y0249161D01*
X0026324Y0249231D01*
X0026454Y0249298D01*
X0026586Y0249362D01*
X0026720Y0249421D01*
X0026855Y0249478D01*
X0026992Y0249530D01*
X0027131Y0249579D01*
X0027270Y0249624D01*
X0027411Y0249665D01*
X0027553Y0249702D01*
X0027695Y0249735D01*
X0027839Y0249765D01*
X0027983Y0249791D01*
X0028128Y0249812D01*
X0028274Y0249830D01*
X0028420Y0249844D01*
X0028566Y0249854D01*
X0028712Y0249860D01*
X0028859Y0249862D01*
X0029006Y0249860D01*
X0029152Y0249854D01*
X0029298Y0249844D01*
X0029444Y0249830D01*
X0029590Y0249812D01*
X0029735Y0249791D01*
X0029879Y0249765D01*
X0030023Y0249735D01*
X0030165Y0249702D01*
X0030307Y0249665D01*
X0030448Y0249624D01*
X0030587Y0249579D01*
X0030726Y0249530D01*
X0030863Y0249478D01*
X0030998Y0249421D01*
X0031132Y0249362D01*
X0031264Y0249298D01*
X0031394Y0249231D01*
X0031523Y0249161D01*
X0031650Y0249087D01*
X0031774Y0249010D01*
X0031897Y0248929D01*
X0032017Y0248845D01*
X0032135Y0248758D01*
X0032250Y0248668D01*
X0032363Y0248575D01*
X0032474Y0248478D01*
X0032582Y0248379D01*
X0032687Y0248277D01*
X0032789Y0248172D01*
X0032888Y0248064D01*
X0032985Y0247953D01*
X0033078Y0247840D01*
X0033168Y0247725D01*
X0033255Y0247607D01*
X0033339Y0247487D01*
X0033420Y0247364D01*
X0033497Y0247240D01*
X0033571Y0247113D01*
X0033641Y0246984D01*
X0033708Y0246854D01*
X0033772Y0246722D01*
X0033831Y0246588D01*
X0033888Y0246453D01*
X0033940Y0246316D01*
X0033989Y0246177D01*
X0034034Y0246038D01*
X0034075Y0245897D01*
X0034112Y0245755D01*
X0034145Y0245613D01*
X0034175Y0245469D01*
X0034201Y0245325D01*
X0034222Y0245180D01*
X0034240Y0245034D01*
X0034254Y0244888D01*
X0034264Y0244742D01*
X0034270Y0244596D01*
X0034272Y0244449D01*
X0034270Y0244302D01*
X0034264Y0244156D01*
X0034254Y0244010D01*
X0034240Y0243864D01*
X0034222Y0243718D01*
X0034201Y0243573D01*
X0034175Y0243429D01*
X0034145Y0243285D01*
X0034112Y0243143D01*
X0034075Y0243001D01*
X0034034Y0242860D01*
X0033989Y0242721D01*
X0033940Y0242582D01*
X0033888Y0242445D01*
X0033831Y0242310D01*
X0033772Y0242176D01*
X0033708Y0242044D01*
X0033641Y0241914D01*
X0033571Y0241785D01*
X0033497Y0241658D01*
X0033420Y0241534D01*
X0033339Y0241411D01*
X0033255Y0241291D01*
X0033168Y0241173D01*
X0033078Y0241058D01*
X0032985Y0240945D01*
X0032888Y0240834D01*
X0032789Y0240726D01*
X0032687Y0240621D01*
X0032582Y0240519D01*
X0032474Y0240420D01*
X0032363Y0240323D01*
X0032250Y0240230D01*
X0032135Y0240140D01*
X0032017Y0240053D01*
X0031897Y0239969D01*
X0031774Y0239888D01*
X0031650Y0239811D01*
X0031523Y0239737D01*
X0031394Y0239667D01*
X0031264Y0239600D01*
X0031132Y0239536D01*
X0030998Y0239477D01*
X0030863Y0239420D01*
X0030726Y0239368D01*
X0030587Y0239319D01*
X0030448Y0239274D01*
X0030307Y0239233D01*
X0030165Y0239196D01*
X0030023Y0239163D01*
X0029879Y0239133D01*
X0029735Y0239107D01*
X0029590Y0239086D01*
X0029444Y0239068D01*
X0029298Y0239054D01*
X0029152Y0239044D01*
X0029006Y0239038D01*
X0028859Y0239036D01*
X0028712Y0239038D01*
X0028566Y0239044D01*
X0028420Y0239054D01*
X0028274Y0239068D01*
X0028128Y0239086D01*
X0027983Y0239107D01*
X0027839Y0239133D01*
X0027695Y0239163D01*
X0027553Y0239196D01*
X0027411Y0239233D01*
X0027270Y0239274D01*
X0027131Y0239319D01*
X0026992Y0239368D01*
X0026855Y0239420D01*
X0026720Y0239477D01*
X0026586Y0239536D01*
X0026454Y0239600D01*
X0026324Y0239667D01*
X0026195Y0239737D01*
X0026068Y0239811D01*
X0025944Y0239888D01*
X0025821Y0239969D01*
X0025701Y0240053D01*
X0025583Y0240140D01*
X0025468Y0240230D01*
X0025355Y0240323D01*
X0025244Y0240420D01*
X0025136Y0240519D01*
X0025031Y0240621D01*
X0024929Y0240726D01*
X0024830Y0240834D01*
X0024733Y0240945D01*
X0024640Y0241058D01*
X0024550Y0241173D01*
X0024463Y0241291D01*
X0024379Y0241411D01*
X0024298Y0241534D01*
X0024221Y0241658D01*
X0024147Y0241785D01*
X0024077Y0241914D01*
X0024010Y0242044D01*
X0023946Y0242176D01*
X0023887Y0242310D01*
X0023830Y0242445D01*
X0023778Y0242582D01*
X0023729Y0242721D01*
X0023684Y0242860D01*
X0023643Y0243001D01*
X0023606Y0243143D01*
X0023573Y0243285D01*
X0023543Y0243429D01*
X0023517Y0243573D01*
X0023496Y0243718D01*
X0023478Y0243864D01*
X0023464Y0244010D01*
X0023454Y0244156D01*
X0023448Y0244302D01*
X0023446Y0244449D01*
X0023938Y0271614D02*
X0023940Y0271754D01*
X0023946Y0271894D01*
X0023956Y0272033D01*
X0023970Y0272172D01*
X0023988Y0272311D01*
X0024009Y0272449D01*
X0024035Y0272587D01*
X0024065Y0272724D01*
X0024098Y0272859D01*
X0024136Y0272994D01*
X0024177Y0273128D01*
X0024222Y0273261D01*
X0024270Y0273392D01*
X0024323Y0273521D01*
X0024379Y0273650D01*
X0024438Y0273776D01*
X0024502Y0273901D01*
X0024568Y0274024D01*
X0024639Y0274145D01*
X0024712Y0274264D01*
X0024789Y0274381D01*
X0024870Y0274495D01*
X0024953Y0274607D01*
X0025040Y0274717D01*
X0025130Y0274825D01*
X0025222Y0274929D01*
X0025318Y0275031D01*
X0025417Y0275131D01*
X0025518Y0275227D01*
X0025622Y0275321D01*
X0025729Y0275411D01*
X0025838Y0275498D01*
X0025950Y0275583D01*
X0026064Y0275664D01*
X0026180Y0275742D01*
X0026298Y0275816D01*
X0026419Y0275887D01*
X0026541Y0275955D01*
X0026666Y0276019D01*
X0026792Y0276080D01*
X0026919Y0276137D01*
X0027049Y0276190D01*
X0027180Y0276240D01*
X0027312Y0276285D01*
X0027445Y0276328D01*
X0027580Y0276366D01*
X0027715Y0276400D01*
X0027852Y0276431D01*
X0027989Y0276458D01*
X0028127Y0276480D01*
X0028266Y0276499D01*
X0028405Y0276514D01*
X0028544Y0276525D01*
X0028684Y0276532D01*
X0028824Y0276535D01*
X0028964Y0276534D01*
X0029104Y0276529D01*
X0029243Y0276520D01*
X0029383Y0276507D01*
X0029522Y0276490D01*
X0029660Y0276469D01*
X0029798Y0276445D01*
X0029935Y0276416D01*
X0030071Y0276384D01*
X0030206Y0276347D01*
X0030340Y0276307D01*
X0030473Y0276263D01*
X0030604Y0276215D01*
X0030734Y0276164D01*
X0030863Y0276109D01*
X0030990Y0276050D01*
X0031115Y0275987D01*
X0031238Y0275922D01*
X0031360Y0275852D01*
X0031479Y0275779D01*
X0031597Y0275703D01*
X0031712Y0275624D01*
X0031825Y0275541D01*
X0031935Y0275455D01*
X0032043Y0275366D01*
X0032148Y0275274D01*
X0032251Y0275179D01*
X0032351Y0275081D01*
X0032448Y0274981D01*
X0032542Y0274877D01*
X0032634Y0274771D01*
X0032722Y0274663D01*
X0032807Y0274552D01*
X0032889Y0274438D01*
X0032968Y0274322D01*
X0033043Y0274205D01*
X0033115Y0274085D01*
X0033183Y0273963D01*
X0033248Y0273839D01*
X0033310Y0273713D01*
X0033368Y0273586D01*
X0033422Y0273457D01*
X0033473Y0273326D01*
X0033519Y0273194D01*
X0033562Y0273061D01*
X0033602Y0272927D01*
X0033637Y0272792D01*
X0033669Y0272655D01*
X0033696Y0272518D01*
X0033720Y0272380D01*
X0033740Y0272242D01*
X0033756Y0272103D01*
X0033768Y0271963D01*
X0033776Y0271824D01*
X0033780Y0271684D01*
X0033780Y0271544D01*
X0033776Y0271404D01*
X0033768Y0271265D01*
X0033756Y0271125D01*
X0033740Y0270986D01*
X0033720Y0270848D01*
X0033696Y0270710D01*
X0033669Y0270573D01*
X0033637Y0270436D01*
X0033602Y0270301D01*
X0033562Y0270167D01*
X0033519Y0270034D01*
X0033473Y0269902D01*
X0033422Y0269771D01*
X0033368Y0269642D01*
X0033310Y0269515D01*
X0033248Y0269389D01*
X0033183Y0269265D01*
X0033115Y0269143D01*
X0033043Y0269023D01*
X0032968Y0268906D01*
X0032889Y0268790D01*
X0032807Y0268676D01*
X0032722Y0268565D01*
X0032634Y0268457D01*
X0032542Y0268351D01*
X0032448Y0268247D01*
X0032351Y0268147D01*
X0032251Y0268049D01*
X0032148Y0267954D01*
X0032043Y0267862D01*
X0031935Y0267773D01*
X0031825Y0267687D01*
X0031712Y0267604D01*
X0031597Y0267525D01*
X0031479Y0267449D01*
X0031360Y0267376D01*
X0031238Y0267306D01*
X0031115Y0267241D01*
X0030990Y0267178D01*
X0030863Y0267119D01*
X0030734Y0267064D01*
X0030604Y0267013D01*
X0030473Y0266965D01*
X0030340Y0266921D01*
X0030206Y0266881D01*
X0030071Y0266844D01*
X0029935Y0266812D01*
X0029798Y0266783D01*
X0029660Y0266759D01*
X0029522Y0266738D01*
X0029383Y0266721D01*
X0029243Y0266708D01*
X0029104Y0266699D01*
X0028964Y0266694D01*
X0028824Y0266693D01*
X0028684Y0266696D01*
X0028544Y0266703D01*
X0028405Y0266714D01*
X0028266Y0266729D01*
X0028127Y0266748D01*
X0027989Y0266770D01*
X0027852Y0266797D01*
X0027715Y0266828D01*
X0027580Y0266862D01*
X0027445Y0266900D01*
X0027312Y0266943D01*
X0027180Y0266988D01*
X0027049Y0267038D01*
X0026919Y0267091D01*
X0026792Y0267148D01*
X0026666Y0267209D01*
X0026541Y0267273D01*
X0026419Y0267341D01*
X0026298Y0267412D01*
X0026180Y0267486D01*
X0026064Y0267564D01*
X0025950Y0267645D01*
X0025838Y0267730D01*
X0025729Y0267817D01*
X0025622Y0267907D01*
X0025518Y0268001D01*
X0025417Y0268097D01*
X0025318Y0268197D01*
X0025222Y0268299D01*
X0025130Y0268403D01*
X0025040Y0268511D01*
X0024953Y0268621D01*
X0024870Y0268733D01*
X0024789Y0268847D01*
X0024712Y0268964D01*
X0024639Y0269083D01*
X0024568Y0269204D01*
X0024502Y0269327D01*
X0024438Y0269452D01*
X0024379Y0269578D01*
X0024323Y0269707D01*
X0024270Y0269836D01*
X0024222Y0269967D01*
X0024177Y0270100D01*
X0024136Y0270234D01*
X0024098Y0270369D01*
X0024065Y0270504D01*
X0024035Y0270641D01*
X0024009Y0270779D01*
X0023988Y0270917D01*
X0023970Y0271056D01*
X0023956Y0271195D01*
X0023946Y0271334D01*
X0023940Y0271474D01*
X0023938Y0271614D01*
X0220296Y0244449D02*
X0220298Y0244596D01*
X0220304Y0244742D01*
X0220314Y0244888D01*
X0220328Y0245034D01*
X0220346Y0245180D01*
X0220367Y0245325D01*
X0220393Y0245469D01*
X0220423Y0245613D01*
X0220456Y0245755D01*
X0220493Y0245897D01*
X0220534Y0246038D01*
X0220579Y0246177D01*
X0220628Y0246316D01*
X0220680Y0246453D01*
X0220737Y0246588D01*
X0220796Y0246722D01*
X0220860Y0246854D01*
X0220927Y0246984D01*
X0220997Y0247113D01*
X0221071Y0247240D01*
X0221148Y0247364D01*
X0221229Y0247487D01*
X0221313Y0247607D01*
X0221400Y0247725D01*
X0221490Y0247840D01*
X0221583Y0247953D01*
X0221680Y0248064D01*
X0221779Y0248172D01*
X0221881Y0248277D01*
X0221986Y0248379D01*
X0222094Y0248478D01*
X0222205Y0248575D01*
X0222318Y0248668D01*
X0222433Y0248758D01*
X0222551Y0248845D01*
X0222671Y0248929D01*
X0222794Y0249010D01*
X0222918Y0249087D01*
X0223045Y0249161D01*
X0223174Y0249231D01*
X0223304Y0249298D01*
X0223436Y0249362D01*
X0223570Y0249421D01*
X0223705Y0249478D01*
X0223842Y0249530D01*
X0223981Y0249579D01*
X0224120Y0249624D01*
X0224261Y0249665D01*
X0224403Y0249702D01*
X0224545Y0249735D01*
X0224689Y0249765D01*
X0224833Y0249791D01*
X0224978Y0249812D01*
X0225124Y0249830D01*
X0225270Y0249844D01*
X0225416Y0249854D01*
X0225562Y0249860D01*
X0225709Y0249862D01*
X0225856Y0249860D01*
X0226002Y0249854D01*
X0226148Y0249844D01*
X0226294Y0249830D01*
X0226440Y0249812D01*
X0226585Y0249791D01*
X0226729Y0249765D01*
X0226873Y0249735D01*
X0227015Y0249702D01*
X0227157Y0249665D01*
X0227298Y0249624D01*
X0227437Y0249579D01*
X0227576Y0249530D01*
X0227713Y0249478D01*
X0227848Y0249421D01*
X0227982Y0249362D01*
X0228114Y0249298D01*
X0228244Y0249231D01*
X0228373Y0249161D01*
X0228500Y0249087D01*
X0228624Y0249010D01*
X0228747Y0248929D01*
X0228867Y0248845D01*
X0228985Y0248758D01*
X0229100Y0248668D01*
X0229213Y0248575D01*
X0229324Y0248478D01*
X0229432Y0248379D01*
X0229537Y0248277D01*
X0229639Y0248172D01*
X0229738Y0248064D01*
X0229835Y0247953D01*
X0229928Y0247840D01*
X0230018Y0247725D01*
X0230105Y0247607D01*
X0230189Y0247487D01*
X0230270Y0247364D01*
X0230347Y0247240D01*
X0230421Y0247113D01*
X0230491Y0246984D01*
X0230558Y0246854D01*
X0230622Y0246722D01*
X0230681Y0246588D01*
X0230738Y0246453D01*
X0230790Y0246316D01*
X0230839Y0246177D01*
X0230884Y0246038D01*
X0230925Y0245897D01*
X0230962Y0245755D01*
X0230995Y0245613D01*
X0231025Y0245469D01*
X0231051Y0245325D01*
X0231072Y0245180D01*
X0231090Y0245034D01*
X0231104Y0244888D01*
X0231114Y0244742D01*
X0231120Y0244596D01*
X0231122Y0244449D01*
X0231120Y0244302D01*
X0231114Y0244156D01*
X0231104Y0244010D01*
X0231090Y0243864D01*
X0231072Y0243718D01*
X0231051Y0243573D01*
X0231025Y0243429D01*
X0230995Y0243285D01*
X0230962Y0243143D01*
X0230925Y0243001D01*
X0230884Y0242860D01*
X0230839Y0242721D01*
X0230790Y0242582D01*
X0230738Y0242445D01*
X0230681Y0242310D01*
X0230622Y0242176D01*
X0230558Y0242044D01*
X0230491Y0241914D01*
X0230421Y0241785D01*
X0230347Y0241658D01*
X0230270Y0241534D01*
X0230189Y0241411D01*
X0230105Y0241291D01*
X0230018Y0241173D01*
X0229928Y0241058D01*
X0229835Y0240945D01*
X0229738Y0240834D01*
X0229639Y0240726D01*
X0229537Y0240621D01*
X0229432Y0240519D01*
X0229324Y0240420D01*
X0229213Y0240323D01*
X0229100Y0240230D01*
X0228985Y0240140D01*
X0228867Y0240053D01*
X0228747Y0239969D01*
X0228624Y0239888D01*
X0228500Y0239811D01*
X0228373Y0239737D01*
X0228244Y0239667D01*
X0228114Y0239600D01*
X0227982Y0239536D01*
X0227848Y0239477D01*
X0227713Y0239420D01*
X0227576Y0239368D01*
X0227437Y0239319D01*
X0227298Y0239274D01*
X0227157Y0239233D01*
X0227015Y0239196D01*
X0226873Y0239163D01*
X0226729Y0239133D01*
X0226585Y0239107D01*
X0226440Y0239086D01*
X0226294Y0239068D01*
X0226148Y0239054D01*
X0226002Y0239044D01*
X0225856Y0239038D01*
X0225709Y0239036D01*
X0225562Y0239038D01*
X0225416Y0239044D01*
X0225270Y0239054D01*
X0225124Y0239068D01*
X0224978Y0239086D01*
X0224833Y0239107D01*
X0224689Y0239133D01*
X0224545Y0239163D01*
X0224403Y0239196D01*
X0224261Y0239233D01*
X0224120Y0239274D01*
X0223981Y0239319D01*
X0223842Y0239368D01*
X0223705Y0239420D01*
X0223570Y0239477D01*
X0223436Y0239536D01*
X0223304Y0239600D01*
X0223174Y0239667D01*
X0223045Y0239737D01*
X0222918Y0239811D01*
X0222794Y0239888D01*
X0222671Y0239969D01*
X0222551Y0240053D01*
X0222433Y0240140D01*
X0222318Y0240230D01*
X0222205Y0240323D01*
X0222094Y0240420D01*
X0221986Y0240519D01*
X0221881Y0240621D01*
X0221779Y0240726D01*
X0221680Y0240834D01*
X0221583Y0240945D01*
X0221490Y0241058D01*
X0221400Y0241173D01*
X0221313Y0241291D01*
X0221229Y0241411D01*
X0221148Y0241534D01*
X0221071Y0241658D01*
X0220997Y0241785D01*
X0220927Y0241914D01*
X0220860Y0242044D01*
X0220796Y0242176D01*
X0220737Y0242310D01*
X0220680Y0242445D01*
X0220628Y0242582D01*
X0220579Y0242721D01*
X0220534Y0242860D01*
X0220493Y0243001D01*
X0220456Y0243143D01*
X0220423Y0243285D01*
X0220393Y0243429D01*
X0220367Y0243573D01*
X0220346Y0243718D01*
X0220328Y0243864D01*
X0220314Y0244010D01*
X0220304Y0244156D01*
X0220298Y0244302D01*
X0220296Y0244449D01*
X0220296Y0101929D02*
X0220298Y0102076D01*
X0220304Y0102222D01*
X0220314Y0102368D01*
X0220328Y0102514D01*
X0220346Y0102660D01*
X0220367Y0102805D01*
X0220393Y0102949D01*
X0220423Y0103093D01*
X0220456Y0103235D01*
X0220493Y0103377D01*
X0220534Y0103518D01*
X0220579Y0103657D01*
X0220628Y0103796D01*
X0220680Y0103933D01*
X0220737Y0104068D01*
X0220796Y0104202D01*
X0220860Y0104334D01*
X0220927Y0104464D01*
X0220997Y0104593D01*
X0221071Y0104720D01*
X0221148Y0104844D01*
X0221229Y0104967D01*
X0221313Y0105087D01*
X0221400Y0105205D01*
X0221490Y0105320D01*
X0221583Y0105433D01*
X0221680Y0105544D01*
X0221779Y0105652D01*
X0221881Y0105757D01*
X0221986Y0105859D01*
X0222094Y0105958D01*
X0222205Y0106055D01*
X0222318Y0106148D01*
X0222433Y0106238D01*
X0222551Y0106325D01*
X0222671Y0106409D01*
X0222794Y0106490D01*
X0222918Y0106567D01*
X0223045Y0106641D01*
X0223174Y0106711D01*
X0223304Y0106778D01*
X0223436Y0106842D01*
X0223570Y0106901D01*
X0223705Y0106958D01*
X0223842Y0107010D01*
X0223981Y0107059D01*
X0224120Y0107104D01*
X0224261Y0107145D01*
X0224403Y0107182D01*
X0224545Y0107215D01*
X0224689Y0107245D01*
X0224833Y0107271D01*
X0224978Y0107292D01*
X0225124Y0107310D01*
X0225270Y0107324D01*
X0225416Y0107334D01*
X0225562Y0107340D01*
X0225709Y0107342D01*
X0225856Y0107340D01*
X0226002Y0107334D01*
X0226148Y0107324D01*
X0226294Y0107310D01*
X0226440Y0107292D01*
X0226585Y0107271D01*
X0226729Y0107245D01*
X0226873Y0107215D01*
X0227015Y0107182D01*
X0227157Y0107145D01*
X0227298Y0107104D01*
X0227437Y0107059D01*
X0227576Y0107010D01*
X0227713Y0106958D01*
X0227848Y0106901D01*
X0227982Y0106842D01*
X0228114Y0106778D01*
X0228244Y0106711D01*
X0228373Y0106641D01*
X0228500Y0106567D01*
X0228624Y0106490D01*
X0228747Y0106409D01*
X0228867Y0106325D01*
X0228985Y0106238D01*
X0229100Y0106148D01*
X0229213Y0106055D01*
X0229324Y0105958D01*
X0229432Y0105859D01*
X0229537Y0105757D01*
X0229639Y0105652D01*
X0229738Y0105544D01*
X0229835Y0105433D01*
X0229928Y0105320D01*
X0230018Y0105205D01*
X0230105Y0105087D01*
X0230189Y0104967D01*
X0230270Y0104844D01*
X0230347Y0104720D01*
X0230421Y0104593D01*
X0230491Y0104464D01*
X0230558Y0104334D01*
X0230622Y0104202D01*
X0230681Y0104068D01*
X0230738Y0103933D01*
X0230790Y0103796D01*
X0230839Y0103657D01*
X0230884Y0103518D01*
X0230925Y0103377D01*
X0230962Y0103235D01*
X0230995Y0103093D01*
X0231025Y0102949D01*
X0231051Y0102805D01*
X0231072Y0102660D01*
X0231090Y0102514D01*
X0231104Y0102368D01*
X0231114Y0102222D01*
X0231120Y0102076D01*
X0231122Y0101929D01*
X0231120Y0101782D01*
X0231114Y0101636D01*
X0231104Y0101490D01*
X0231090Y0101344D01*
X0231072Y0101198D01*
X0231051Y0101053D01*
X0231025Y0100909D01*
X0230995Y0100765D01*
X0230962Y0100623D01*
X0230925Y0100481D01*
X0230884Y0100340D01*
X0230839Y0100201D01*
X0230790Y0100062D01*
X0230738Y0099925D01*
X0230681Y0099790D01*
X0230622Y0099656D01*
X0230558Y0099524D01*
X0230491Y0099394D01*
X0230421Y0099265D01*
X0230347Y0099138D01*
X0230270Y0099014D01*
X0230189Y0098891D01*
X0230105Y0098771D01*
X0230018Y0098653D01*
X0229928Y0098538D01*
X0229835Y0098425D01*
X0229738Y0098314D01*
X0229639Y0098206D01*
X0229537Y0098101D01*
X0229432Y0097999D01*
X0229324Y0097900D01*
X0229213Y0097803D01*
X0229100Y0097710D01*
X0228985Y0097620D01*
X0228867Y0097533D01*
X0228747Y0097449D01*
X0228624Y0097368D01*
X0228500Y0097291D01*
X0228373Y0097217D01*
X0228244Y0097147D01*
X0228114Y0097080D01*
X0227982Y0097016D01*
X0227848Y0096957D01*
X0227713Y0096900D01*
X0227576Y0096848D01*
X0227437Y0096799D01*
X0227298Y0096754D01*
X0227157Y0096713D01*
X0227015Y0096676D01*
X0226873Y0096643D01*
X0226729Y0096613D01*
X0226585Y0096587D01*
X0226440Y0096566D01*
X0226294Y0096548D01*
X0226148Y0096534D01*
X0226002Y0096524D01*
X0225856Y0096518D01*
X0225709Y0096516D01*
X0225562Y0096518D01*
X0225416Y0096524D01*
X0225270Y0096534D01*
X0225124Y0096548D01*
X0224978Y0096566D01*
X0224833Y0096587D01*
X0224689Y0096613D01*
X0224545Y0096643D01*
X0224403Y0096676D01*
X0224261Y0096713D01*
X0224120Y0096754D01*
X0223981Y0096799D01*
X0223842Y0096848D01*
X0223705Y0096900D01*
X0223570Y0096957D01*
X0223436Y0097016D01*
X0223304Y0097080D01*
X0223174Y0097147D01*
X0223045Y0097217D01*
X0222918Y0097291D01*
X0222794Y0097368D01*
X0222671Y0097449D01*
X0222551Y0097533D01*
X0222433Y0097620D01*
X0222318Y0097710D01*
X0222205Y0097803D01*
X0222094Y0097900D01*
X0221986Y0097999D01*
X0221881Y0098101D01*
X0221779Y0098206D01*
X0221680Y0098314D01*
X0221583Y0098425D01*
X0221490Y0098538D01*
X0221400Y0098653D01*
X0221313Y0098771D01*
X0221229Y0098891D01*
X0221148Y0099014D01*
X0221071Y0099138D01*
X0220997Y0099265D01*
X0220927Y0099394D01*
X0220860Y0099524D01*
X0220796Y0099656D01*
X0220737Y0099790D01*
X0220680Y0099925D01*
X0220628Y0100062D01*
X0220579Y0100201D01*
X0220534Y0100340D01*
X0220493Y0100481D01*
X0220456Y0100623D01*
X0220423Y0100765D01*
X0220393Y0100909D01*
X0220367Y0101053D01*
X0220346Y0101198D01*
X0220328Y0101344D01*
X0220314Y0101490D01*
X0220304Y0101636D01*
X0220298Y0101782D01*
X0220296Y0101929D01*
D11*
X0028859Y0074764D03*
X0028859Y0271614D03*
D12*
X0028859Y0244449D03*
X0028859Y0101929D03*
X0225709Y0101929D03*
X0225709Y0244449D03*
D13*
X0201694Y0319646D02*
X0201696Y0319771D01*
X0201702Y0319896D01*
X0201712Y0320020D01*
X0201726Y0320144D01*
X0201743Y0320268D01*
X0201765Y0320391D01*
X0201791Y0320513D01*
X0201820Y0320635D01*
X0201853Y0320755D01*
X0201891Y0320874D01*
X0201931Y0320993D01*
X0201976Y0321109D01*
X0202024Y0321224D01*
X0202076Y0321338D01*
X0202132Y0321450D01*
X0202191Y0321560D01*
X0202253Y0321668D01*
X0202319Y0321775D01*
X0202388Y0321879D01*
X0202461Y0321980D01*
X0202536Y0322080D01*
X0202615Y0322177D01*
X0202697Y0322271D01*
X0202782Y0322363D01*
X0202869Y0322452D01*
X0202960Y0322538D01*
X0203053Y0322621D01*
X0203149Y0322702D01*
X0203247Y0322779D01*
X0203347Y0322853D01*
X0203450Y0322924D01*
X0203555Y0322991D01*
X0203663Y0323056D01*
X0203772Y0323116D01*
X0203883Y0323174D01*
X0203996Y0323227D01*
X0204110Y0323277D01*
X0204226Y0323324D01*
X0204343Y0323366D01*
X0204462Y0323405D01*
X0204582Y0323441D01*
X0204703Y0323472D01*
X0204825Y0323500D01*
X0204947Y0323523D01*
X0205071Y0323543D01*
X0205195Y0323559D01*
X0205319Y0323571D01*
X0205444Y0323579D01*
X0205569Y0323583D01*
X0205693Y0323583D01*
X0205818Y0323579D01*
X0205943Y0323571D01*
X0206067Y0323559D01*
X0206191Y0323543D01*
X0206315Y0323523D01*
X0206437Y0323500D01*
X0206559Y0323472D01*
X0206680Y0323441D01*
X0206800Y0323405D01*
X0206919Y0323366D01*
X0207036Y0323324D01*
X0207152Y0323277D01*
X0207266Y0323227D01*
X0207379Y0323174D01*
X0207490Y0323116D01*
X0207600Y0323056D01*
X0207707Y0322991D01*
X0207812Y0322924D01*
X0207915Y0322853D01*
X0208015Y0322779D01*
X0208113Y0322702D01*
X0208209Y0322621D01*
X0208302Y0322538D01*
X0208393Y0322452D01*
X0208480Y0322363D01*
X0208565Y0322271D01*
X0208647Y0322177D01*
X0208726Y0322080D01*
X0208801Y0321980D01*
X0208874Y0321879D01*
X0208943Y0321775D01*
X0209009Y0321668D01*
X0209071Y0321560D01*
X0209130Y0321450D01*
X0209186Y0321338D01*
X0209238Y0321224D01*
X0209286Y0321109D01*
X0209331Y0320993D01*
X0209371Y0320874D01*
X0209409Y0320755D01*
X0209442Y0320635D01*
X0209471Y0320513D01*
X0209497Y0320391D01*
X0209519Y0320268D01*
X0209536Y0320144D01*
X0209550Y0320020D01*
X0209560Y0319896D01*
X0209566Y0319771D01*
X0209568Y0319646D01*
X0209566Y0319521D01*
X0209560Y0319396D01*
X0209550Y0319272D01*
X0209536Y0319148D01*
X0209519Y0319024D01*
X0209497Y0318901D01*
X0209471Y0318779D01*
X0209442Y0318657D01*
X0209409Y0318537D01*
X0209371Y0318418D01*
X0209331Y0318299D01*
X0209286Y0318183D01*
X0209238Y0318068D01*
X0209186Y0317954D01*
X0209130Y0317842D01*
X0209071Y0317732D01*
X0209009Y0317624D01*
X0208943Y0317517D01*
X0208874Y0317413D01*
X0208801Y0317312D01*
X0208726Y0317212D01*
X0208647Y0317115D01*
X0208565Y0317021D01*
X0208480Y0316929D01*
X0208393Y0316840D01*
X0208302Y0316754D01*
X0208209Y0316671D01*
X0208113Y0316590D01*
X0208015Y0316513D01*
X0207915Y0316439D01*
X0207812Y0316368D01*
X0207707Y0316301D01*
X0207599Y0316236D01*
X0207490Y0316176D01*
X0207379Y0316118D01*
X0207266Y0316065D01*
X0207152Y0316015D01*
X0207036Y0315968D01*
X0206919Y0315926D01*
X0206800Y0315887D01*
X0206680Y0315851D01*
X0206559Y0315820D01*
X0206437Y0315792D01*
X0206315Y0315769D01*
X0206191Y0315749D01*
X0206067Y0315733D01*
X0205943Y0315721D01*
X0205818Y0315713D01*
X0205693Y0315709D01*
X0205569Y0315709D01*
X0205444Y0315713D01*
X0205319Y0315721D01*
X0205195Y0315733D01*
X0205071Y0315749D01*
X0204947Y0315769D01*
X0204825Y0315792D01*
X0204703Y0315820D01*
X0204582Y0315851D01*
X0204462Y0315887D01*
X0204343Y0315926D01*
X0204226Y0315968D01*
X0204110Y0316015D01*
X0203996Y0316065D01*
X0203883Y0316118D01*
X0203772Y0316176D01*
X0203662Y0316236D01*
X0203555Y0316301D01*
X0203450Y0316368D01*
X0203347Y0316439D01*
X0203247Y0316513D01*
X0203149Y0316590D01*
X0203053Y0316671D01*
X0202960Y0316754D01*
X0202869Y0316840D01*
X0202782Y0316929D01*
X0202697Y0317021D01*
X0202615Y0317115D01*
X0202536Y0317212D01*
X0202461Y0317312D01*
X0202388Y0317413D01*
X0202319Y0317517D01*
X0202253Y0317624D01*
X0202191Y0317732D01*
X0202132Y0317842D01*
X0202076Y0317954D01*
X0202024Y0318068D01*
X0201976Y0318183D01*
X0201931Y0318299D01*
X0201891Y0318418D01*
X0201853Y0318537D01*
X0201820Y0318657D01*
X0201791Y0318779D01*
X0201765Y0318901D01*
X0201743Y0319024D01*
X0201726Y0319148D01*
X0201712Y0319272D01*
X0201702Y0319396D01*
X0201696Y0319521D01*
X0201694Y0319646D01*
X0182009Y0319646D02*
X0182011Y0319771D01*
X0182017Y0319896D01*
X0182027Y0320020D01*
X0182041Y0320144D01*
X0182058Y0320268D01*
X0182080Y0320391D01*
X0182106Y0320513D01*
X0182135Y0320635D01*
X0182168Y0320755D01*
X0182206Y0320874D01*
X0182246Y0320993D01*
X0182291Y0321109D01*
X0182339Y0321224D01*
X0182391Y0321338D01*
X0182447Y0321450D01*
X0182506Y0321560D01*
X0182568Y0321668D01*
X0182634Y0321775D01*
X0182703Y0321879D01*
X0182776Y0321980D01*
X0182851Y0322080D01*
X0182930Y0322177D01*
X0183012Y0322271D01*
X0183097Y0322363D01*
X0183184Y0322452D01*
X0183275Y0322538D01*
X0183368Y0322621D01*
X0183464Y0322702D01*
X0183562Y0322779D01*
X0183662Y0322853D01*
X0183765Y0322924D01*
X0183870Y0322991D01*
X0183978Y0323056D01*
X0184087Y0323116D01*
X0184198Y0323174D01*
X0184311Y0323227D01*
X0184425Y0323277D01*
X0184541Y0323324D01*
X0184658Y0323366D01*
X0184777Y0323405D01*
X0184897Y0323441D01*
X0185018Y0323472D01*
X0185140Y0323500D01*
X0185262Y0323523D01*
X0185386Y0323543D01*
X0185510Y0323559D01*
X0185634Y0323571D01*
X0185759Y0323579D01*
X0185884Y0323583D01*
X0186008Y0323583D01*
X0186133Y0323579D01*
X0186258Y0323571D01*
X0186382Y0323559D01*
X0186506Y0323543D01*
X0186630Y0323523D01*
X0186752Y0323500D01*
X0186874Y0323472D01*
X0186995Y0323441D01*
X0187115Y0323405D01*
X0187234Y0323366D01*
X0187351Y0323324D01*
X0187467Y0323277D01*
X0187581Y0323227D01*
X0187694Y0323174D01*
X0187805Y0323116D01*
X0187915Y0323056D01*
X0188022Y0322991D01*
X0188127Y0322924D01*
X0188230Y0322853D01*
X0188330Y0322779D01*
X0188428Y0322702D01*
X0188524Y0322621D01*
X0188617Y0322538D01*
X0188708Y0322452D01*
X0188795Y0322363D01*
X0188880Y0322271D01*
X0188962Y0322177D01*
X0189041Y0322080D01*
X0189116Y0321980D01*
X0189189Y0321879D01*
X0189258Y0321775D01*
X0189324Y0321668D01*
X0189386Y0321560D01*
X0189445Y0321450D01*
X0189501Y0321338D01*
X0189553Y0321224D01*
X0189601Y0321109D01*
X0189646Y0320993D01*
X0189686Y0320874D01*
X0189724Y0320755D01*
X0189757Y0320635D01*
X0189786Y0320513D01*
X0189812Y0320391D01*
X0189834Y0320268D01*
X0189851Y0320144D01*
X0189865Y0320020D01*
X0189875Y0319896D01*
X0189881Y0319771D01*
X0189883Y0319646D01*
X0189881Y0319521D01*
X0189875Y0319396D01*
X0189865Y0319272D01*
X0189851Y0319148D01*
X0189834Y0319024D01*
X0189812Y0318901D01*
X0189786Y0318779D01*
X0189757Y0318657D01*
X0189724Y0318537D01*
X0189686Y0318418D01*
X0189646Y0318299D01*
X0189601Y0318183D01*
X0189553Y0318068D01*
X0189501Y0317954D01*
X0189445Y0317842D01*
X0189386Y0317732D01*
X0189324Y0317624D01*
X0189258Y0317517D01*
X0189189Y0317413D01*
X0189116Y0317312D01*
X0189041Y0317212D01*
X0188962Y0317115D01*
X0188880Y0317021D01*
X0188795Y0316929D01*
X0188708Y0316840D01*
X0188617Y0316754D01*
X0188524Y0316671D01*
X0188428Y0316590D01*
X0188330Y0316513D01*
X0188230Y0316439D01*
X0188127Y0316368D01*
X0188022Y0316301D01*
X0187914Y0316236D01*
X0187805Y0316176D01*
X0187694Y0316118D01*
X0187581Y0316065D01*
X0187467Y0316015D01*
X0187351Y0315968D01*
X0187234Y0315926D01*
X0187115Y0315887D01*
X0186995Y0315851D01*
X0186874Y0315820D01*
X0186752Y0315792D01*
X0186630Y0315769D01*
X0186506Y0315749D01*
X0186382Y0315733D01*
X0186258Y0315721D01*
X0186133Y0315713D01*
X0186008Y0315709D01*
X0185884Y0315709D01*
X0185759Y0315713D01*
X0185634Y0315721D01*
X0185510Y0315733D01*
X0185386Y0315749D01*
X0185262Y0315769D01*
X0185140Y0315792D01*
X0185018Y0315820D01*
X0184897Y0315851D01*
X0184777Y0315887D01*
X0184658Y0315926D01*
X0184541Y0315968D01*
X0184425Y0316015D01*
X0184311Y0316065D01*
X0184198Y0316118D01*
X0184087Y0316176D01*
X0183977Y0316236D01*
X0183870Y0316301D01*
X0183765Y0316368D01*
X0183662Y0316439D01*
X0183562Y0316513D01*
X0183464Y0316590D01*
X0183368Y0316671D01*
X0183275Y0316754D01*
X0183184Y0316840D01*
X0183097Y0316929D01*
X0183012Y0317021D01*
X0182930Y0317115D01*
X0182851Y0317212D01*
X0182776Y0317312D01*
X0182703Y0317413D01*
X0182634Y0317517D01*
X0182568Y0317624D01*
X0182506Y0317732D01*
X0182447Y0317842D01*
X0182391Y0317954D01*
X0182339Y0318068D01*
X0182291Y0318183D01*
X0182246Y0318299D01*
X0182206Y0318418D01*
X0182168Y0318537D01*
X0182135Y0318657D01*
X0182106Y0318779D01*
X0182080Y0318901D01*
X0182058Y0319024D01*
X0182041Y0319148D01*
X0182027Y0319272D01*
X0182017Y0319396D01*
X0182011Y0319521D01*
X0182009Y0319646D01*
X0162324Y0319646D02*
X0162326Y0319771D01*
X0162332Y0319896D01*
X0162342Y0320020D01*
X0162356Y0320144D01*
X0162373Y0320268D01*
X0162395Y0320391D01*
X0162421Y0320513D01*
X0162450Y0320635D01*
X0162483Y0320755D01*
X0162521Y0320874D01*
X0162561Y0320993D01*
X0162606Y0321109D01*
X0162654Y0321224D01*
X0162706Y0321338D01*
X0162762Y0321450D01*
X0162821Y0321560D01*
X0162883Y0321668D01*
X0162949Y0321775D01*
X0163018Y0321879D01*
X0163091Y0321980D01*
X0163166Y0322080D01*
X0163245Y0322177D01*
X0163327Y0322271D01*
X0163412Y0322363D01*
X0163499Y0322452D01*
X0163590Y0322538D01*
X0163683Y0322621D01*
X0163779Y0322702D01*
X0163877Y0322779D01*
X0163977Y0322853D01*
X0164080Y0322924D01*
X0164185Y0322991D01*
X0164293Y0323056D01*
X0164402Y0323116D01*
X0164513Y0323174D01*
X0164626Y0323227D01*
X0164740Y0323277D01*
X0164856Y0323324D01*
X0164973Y0323366D01*
X0165092Y0323405D01*
X0165212Y0323441D01*
X0165333Y0323472D01*
X0165455Y0323500D01*
X0165577Y0323523D01*
X0165701Y0323543D01*
X0165825Y0323559D01*
X0165949Y0323571D01*
X0166074Y0323579D01*
X0166199Y0323583D01*
X0166323Y0323583D01*
X0166448Y0323579D01*
X0166573Y0323571D01*
X0166697Y0323559D01*
X0166821Y0323543D01*
X0166945Y0323523D01*
X0167067Y0323500D01*
X0167189Y0323472D01*
X0167310Y0323441D01*
X0167430Y0323405D01*
X0167549Y0323366D01*
X0167666Y0323324D01*
X0167782Y0323277D01*
X0167896Y0323227D01*
X0168009Y0323174D01*
X0168120Y0323116D01*
X0168230Y0323056D01*
X0168337Y0322991D01*
X0168442Y0322924D01*
X0168545Y0322853D01*
X0168645Y0322779D01*
X0168743Y0322702D01*
X0168839Y0322621D01*
X0168932Y0322538D01*
X0169023Y0322452D01*
X0169110Y0322363D01*
X0169195Y0322271D01*
X0169277Y0322177D01*
X0169356Y0322080D01*
X0169431Y0321980D01*
X0169504Y0321879D01*
X0169573Y0321775D01*
X0169639Y0321668D01*
X0169701Y0321560D01*
X0169760Y0321450D01*
X0169816Y0321338D01*
X0169868Y0321224D01*
X0169916Y0321109D01*
X0169961Y0320993D01*
X0170001Y0320874D01*
X0170039Y0320755D01*
X0170072Y0320635D01*
X0170101Y0320513D01*
X0170127Y0320391D01*
X0170149Y0320268D01*
X0170166Y0320144D01*
X0170180Y0320020D01*
X0170190Y0319896D01*
X0170196Y0319771D01*
X0170198Y0319646D01*
X0170196Y0319521D01*
X0170190Y0319396D01*
X0170180Y0319272D01*
X0170166Y0319148D01*
X0170149Y0319024D01*
X0170127Y0318901D01*
X0170101Y0318779D01*
X0170072Y0318657D01*
X0170039Y0318537D01*
X0170001Y0318418D01*
X0169961Y0318299D01*
X0169916Y0318183D01*
X0169868Y0318068D01*
X0169816Y0317954D01*
X0169760Y0317842D01*
X0169701Y0317732D01*
X0169639Y0317624D01*
X0169573Y0317517D01*
X0169504Y0317413D01*
X0169431Y0317312D01*
X0169356Y0317212D01*
X0169277Y0317115D01*
X0169195Y0317021D01*
X0169110Y0316929D01*
X0169023Y0316840D01*
X0168932Y0316754D01*
X0168839Y0316671D01*
X0168743Y0316590D01*
X0168645Y0316513D01*
X0168545Y0316439D01*
X0168442Y0316368D01*
X0168337Y0316301D01*
X0168229Y0316236D01*
X0168120Y0316176D01*
X0168009Y0316118D01*
X0167896Y0316065D01*
X0167782Y0316015D01*
X0167666Y0315968D01*
X0167549Y0315926D01*
X0167430Y0315887D01*
X0167310Y0315851D01*
X0167189Y0315820D01*
X0167067Y0315792D01*
X0166945Y0315769D01*
X0166821Y0315749D01*
X0166697Y0315733D01*
X0166573Y0315721D01*
X0166448Y0315713D01*
X0166323Y0315709D01*
X0166199Y0315709D01*
X0166074Y0315713D01*
X0165949Y0315721D01*
X0165825Y0315733D01*
X0165701Y0315749D01*
X0165577Y0315769D01*
X0165455Y0315792D01*
X0165333Y0315820D01*
X0165212Y0315851D01*
X0165092Y0315887D01*
X0164973Y0315926D01*
X0164856Y0315968D01*
X0164740Y0316015D01*
X0164626Y0316065D01*
X0164513Y0316118D01*
X0164402Y0316176D01*
X0164292Y0316236D01*
X0164185Y0316301D01*
X0164080Y0316368D01*
X0163977Y0316439D01*
X0163877Y0316513D01*
X0163779Y0316590D01*
X0163683Y0316671D01*
X0163590Y0316754D01*
X0163499Y0316840D01*
X0163412Y0316929D01*
X0163327Y0317021D01*
X0163245Y0317115D01*
X0163166Y0317212D01*
X0163091Y0317312D01*
X0163018Y0317413D01*
X0162949Y0317517D01*
X0162883Y0317624D01*
X0162821Y0317732D01*
X0162762Y0317842D01*
X0162706Y0317954D01*
X0162654Y0318068D01*
X0162606Y0318183D01*
X0162561Y0318299D01*
X0162521Y0318418D01*
X0162483Y0318537D01*
X0162450Y0318657D01*
X0162421Y0318779D01*
X0162395Y0318901D01*
X0162373Y0319024D01*
X0162356Y0319148D01*
X0162342Y0319272D01*
X0162332Y0319396D01*
X0162326Y0319521D01*
X0162324Y0319646D01*
X0142639Y0319646D02*
X0142641Y0319771D01*
X0142647Y0319896D01*
X0142657Y0320020D01*
X0142671Y0320144D01*
X0142688Y0320268D01*
X0142710Y0320391D01*
X0142736Y0320513D01*
X0142765Y0320635D01*
X0142798Y0320755D01*
X0142836Y0320874D01*
X0142876Y0320993D01*
X0142921Y0321109D01*
X0142969Y0321224D01*
X0143021Y0321338D01*
X0143077Y0321450D01*
X0143136Y0321560D01*
X0143198Y0321668D01*
X0143264Y0321775D01*
X0143333Y0321879D01*
X0143406Y0321980D01*
X0143481Y0322080D01*
X0143560Y0322177D01*
X0143642Y0322271D01*
X0143727Y0322363D01*
X0143814Y0322452D01*
X0143905Y0322538D01*
X0143998Y0322621D01*
X0144094Y0322702D01*
X0144192Y0322779D01*
X0144292Y0322853D01*
X0144395Y0322924D01*
X0144500Y0322991D01*
X0144608Y0323056D01*
X0144717Y0323116D01*
X0144828Y0323174D01*
X0144941Y0323227D01*
X0145055Y0323277D01*
X0145171Y0323324D01*
X0145288Y0323366D01*
X0145407Y0323405D01*
X0145527Y0323441D01*
X0145648Y0323472D01*
X0145770Y0323500D01*
X0145892Y0323523D01*
X0146016Y0323543D01*
X0146140Y0323559D01*
X0146264Y0323571D01*
X0146389Y0323579D01*
X0146514Y0323583D01*
X0146638Y0323583D01*
X0146763Y0323579D01*
X0146888Y0323571D01*
X0147012Y0323559D01*
X0147136Y0323543D01*
X0147260Y0323523D01*
X0147382Y0323500D01*
X0147504Y0323472D01*
X0147625Y0323441D01*
X0147745Y0323405D01*
X0147864Y0323366D01*
X0147981Y0323324D01*
X0148097Y0323277D01*
X0148211Y0323227D01*
X0148324Y0323174D01*
X0148435Y0323116D01*
X0148545Y0323056D01*
X0148652Y0322991D01*
X0148757Y0322924D01*
X0148860Y0322853D01*
X0148960Y0322779D01*
X0149058Y0322702D01*
X0149154Y0322621D01*
X0149247Y0322538D01*
X0149338Y0322452D01*
X0149425Y0322363D01*
X0149510Y0322271D01*
X0149592Y0322177D01*
X0149671Y0322080D01*
X0149746Y0321980D01*
X0149819Y0321879D01*
X0149888Y0321775D01*
X0149954Y0321668D01*
X0150016Y0321560D01*
X0150075Y0321450D01*
X0150131Y0321338D01*
X0150183Y0321224D01*
X0150231Y0321109D01*
X0150276Y0320993D01*
X0150316Y0320874D01*
X0150354Y0320755D01*
X0150387Y0320635D01*
X0150416Y0320513D01*
X0150442Y0320391D01*
X0150464Y0320268D01*
X0150481Y0320144D01*
X0150495Y0320020D01*
X0150505Y0319896D01*
X0150511Y0319771D01*
X0150513Y0319646D01*
X0150511Y0319521D01*
X0150505Y0319396D01*
X0150495Y0319272D01*
X0150481Y0319148D01*
X0150464Y0319024D01*
X0150442Y0318901D01*
X0150416Y0318779D01*
X0150387Y0318657D01*
X0150354Y0318537D01*
X0150316Y0318418D01*
X0150276Y0318299D01*
X0150231Y0318183D01*
X0150183Y0318068D01*
X0150131Y0317954D01*
X0150075Y0317842D01*
X0150016Y0317732D01*
X0149954Y0317624D01*
X0149888Y0317517D01*
X0149819Y0317413D01*
X0149746Y0317312D01*
X0149671Y0317212D01*
X0149592Y0317115D01*
X0149510Y0317021D01*
X0149425Y0316929D01*
X0149338Y0316840D01*
X0149247Y0316754D01*
X0149154Y0316671D01*
X0149058Y0316590D01*
X0148960Y0316513D01*
X0148860Y0316439D01*
X0148757Y0316368D01*
X0148652Y0316301D01*
X0148544Y0316236D01*
X0148435Y0316176D01*
X0148324Y0316118D01*
X0148211Y0316065D01*
X0148097Y0316015D01*
X0147981Y0315968D01*
X0147864Y0315926D01*
X0147745Y0315887D01*
X0147625Y0315851D01*
X0147504Y0315820D01*
X0147382Y0315792D01*
X0147260Y0315769D01*
X0147136Y0315749D01*
X0147012Y0315733D01*
X0146888Y0315721D01*
X0146763Y0315713D01*
X0146638Y0315709D01*
X0146514Y0315709D01*
X0146389Y0315713D01*
X0146264Y0315721D01*
X0146140Y0315733D01*
X0146016Y0315749D01*
X0145892Y0315769D01*
X0145770Y0315792D01*
X0145648Y0315820D01*
X0145527Y0315851D01*
X0145407Y0315887D01*
X0145288Y0315926D01*
X0145171Y0315968D01*
X0145055Y0316015D01*
X0144941Y0316065D01*
X0144828Y0316118D01*
X0144717Y0316176D01*
X0144607Y0316236D01*
X0144500Y0316301D01*
X0144395Y0316368D01*
X0144292Y0316439D01*
X0144192Y0316513D01*
X0144094Y0316590D01*
X0143998Y0316671D01*
X0143905Y0316754D01*
X0143814Y0316840D01*
X0143727Y0316929D01*
X0143642Y0317021D01*
X0143560Y0317115D01*
X0143481Y0317212D01*
X0143406Y0317312D01*
X0143333Y0317413D01*
X0143264Y0317517D01*
X0143198Y0317624D01*
X0143136Y0317732D01*
X0143077Y0317842D01*
X0143021Y0317954D01*
X0142969Y0318068D01*
X0142921Y0318183D01*
X0142876Y0318299D01*
X0142836Y0318418D01*
X0142798Y0318537D01*
X0142765Y0318657D01*
X0142736Y0318779D01*
X0142710Y0318901D01*
X0142688Y0319024D01*
X0142671Y0319148D01*
X0142657Y0319272D01*
X0142647Y0319396D01*
X0142641Y0319521D01*
X0142639Y0319646D01*
X0103662Y0319646D02*
X0103664Y0319771D01*
X0103670Y0319896D01*
X0103680Y0320020D01*
X0103694Y0320144D01*
X0103711Y0320268D01*
X0103733Y0320391D01*
X0103759Y0320513D01*
X0103788Y0320635D01*
X0103821Y0320755D01*
X0103859Y0320874D01*
X0103899Y0320993D01*
X0103944Y0321109D01*
X0103992Y0321224D01*
X0104044Y0321338D01*
X0104100Y0321450D01*
X0104159Y0321560D01*
X0104221Y0321668D01*
X0104287Y0321775D01*
X0104356Y0321879D01*
X0104429Y0321980D01*
X0104504Y0322080D01*
X0104583Y0322177D01*
X0104665Y0322271D01*
X0104750Y0322363D01*
X0104837Y0322452D01*
X0104928Y0322538D01*
X0105021Y0322621D01*
X0105117Y0322702D01*
X0105215Y0322779D01*
X0105315Y0322853D01*
X0105418Y0322924D01*
X0105523Y0322991D01*
X0105631Y0323056D01*
X0105740Y0323116D01*
X0105851Y0323174D01*
X0105964Y0323227D01*
X0106078Y0323277D01*
X0106194Y0323324D01*
X0106311Y0323366D01*
X0106430Y0323405D01*
X0106550Y0323441D01*
X0106671Y0323472D01*
X0106793Y0323500D01*
X0106915Y0323523D01*
X0107039Y0323543D01*
X0107163Y0323559D01*
X0107287Y0323571D01*
X0107412Y0323579D01*
X0107537Y0323583D01*
X0107661Y0323583D01*
X0107786Y0323579D01*
X0107911Y0323571D01*
X0108035Y0323559D01*
X0108159Y0323543D01*
X0108283Y0323523D01*
X0108405Y0323500D01*
X0108527Y0323472D01*
X0108648Y0323441D01*
X0108768Y0323405D01*
X0108887Y0323366D01*
X0109004Y0323324D01*
X0109120Y0323277D01*
X0109234Y0323227D01*
X0109347Y0323174D01*
X0109458Y0323116D01*
X0109568Y0323056D01*
X0109675Y0322991D01*
X0109780Y0322924D01*
X0109883Y0322853D01*
X0109983Y0322779D01*
X0110081Y0322702D01*
X0110177Y0322621D01*
X0110270Y0322538D01*
X0110361Y0322452D01*
X0110448Y0322363D01*
X0110533Y0322271D01*
X0110615Y0322177D01*
X0110694Y0322080D01*
X0110769Y0321980D01*
X0110842Y0321879D01*
X0110911Y0321775D01*
X0110977Y0321668D01*
X0111039Y0321560D01*
X0111098Y0321450D01*
X0111154Y0321338D01*
X0111206Y0321224D01*
X0111254Y0321109D01*
X0111299Y0320993D01*
X0111339Y0320874D01*
X0111377Y0320755D01*
X0111410Y0320635D01*
X0111439Y0320513D01*
X0111465Y0320391D01*
X0111487Y0320268D01*
X0111504Y0320144D01*
X0111518Y0320020D01*
X0111528Y0319896D01*
X0111534Y0319771D01*
X0111536Y0319646D01*
X0111534Y0319521D01*
X0111528Y0319396D01*
X0111518Y0319272D01*
X0111504Y0319148D01*
X0111487Y0319024D01*
X0111465Y0318901D01*
X0111439Y0318779D01*
X0111410Y0318657D01*
X0111377Y0318537D01*
X0111339Y0318418D01*
X0111299Y0318299D01*
X0111254Y0318183D01*
X0111206Y0318068D01*
X0111154Y0317954D01*
X0111098Y0317842D01*
X0111039Y0317732D01*
X0110977Y0317624D01*
X0110911Y0317517D01*
X0110842Y0317413D01*
X0110769Y0317312D01*
X0110694Y0317212D01*
X0110615Y0317115D01*
X0110533Y0317021D01*
X0110448Y0316929D01*
X0110361Y0316840D01*
X0110270Y0316754D01*
X0110177Y0316671D01*
X0110081Y0316590D01*
X0109983Y0316513D01*
X0109883Y0316439D01*
X0109780Y0316368D01*
X0109675Y0316301D01*
X0109567Y0316236D01*
X0109458Y0316176D01*
X0109347Y0316118D01*
X0109234Y0316065D01*
X0109120Y0316015D01*
X0109004Y0315968D01*
X0108887Y0315926D01*
X0108768Y0315887D01*
X0108648Y0315851D01*
X0108527Y0315820D01*
X0108405Y0315792D01*
X0108283Y0315769D01*
X0108159Y0315749D01*
X0108035Y0315733D01*
X0107911Y0315721D01*
X0107786Y0315713D01*
X0107661Y0315709D01*
X0107537Y0315709D01*
X0107412Y0315713D01*
X0107287Y0315721D01*
X0107163Y0315733D01*
X0107039Y0315749D01*
X0106915Y0315769D01*
X0106793Y0315792D01*
X0106671Y0315820D01*
X0106550Y0315851D01*
X0106430Y0315887D01*
X0106311Y0315926D01*
X0106194Y0315968D01*
X0106078Y0316015D01*
X0105964Y0316065D01*
X0105851Y0316118D01*
X0105740Y0316176D01*
X0105630Y0316236D01*
X0105523Y0316301D01*
X0105418Y0316368D01*
X0105315Y0316439D01*
X0105215Y0316513D01*
X0105117Y0316590D01*
X0105021Y0316671D01*
X0104928Y0316754D01*
X0104837Y0316840D01*
X0104750Y0316929D01*
X0104665Y0317021D01*
X0104583Y0317115D01*
X0104504Y0317212D01*
X0104429Y0317312D01*
X0104356Y0317413D01*
X0104287Y0317517D01*
X0104221Y0317624D01*
X0104159Y0317732D01*
X0104100Y0317842D01*
X0104044Y0317954D01*
X0103992Y0318068D01*
X0103944Y0318183D01*
X0103899Y0318299D01*
X0103859Y0318418D01*
X0103821Y0318537D01*
X0103788Y0318657D01*
X0103759Y0318779D01*
X0103733Y0318901D01*
X0103711Y0319024D01*
X0103694Y0319148D01*
X0103680Y0319272D01*
X0103670Y0319396D01*
X0103664Y0319521D01*
X0103662Y0319646D01*
X0083977Y0319646D02*
X0083979Y0319771D01*
X0083985Y0319896D01*
X0083995Y0320020D01*
X0084009Y0320144D01*
X0084026Y0320268D01*
X0084048Y0320391D01*
X0084074Y0320513D01*
X0084103Y0320635D01*
X0084136Y0320755D01*
X0084174Y0320874D01*
X0084214Y0320993D01*
X0084259Y0321109D01*
X0084307Y0321224D01*
X0084359Y0321338D01*
X0084415Y0321450D01*
X0084474Y0321560D01*
X0084536Y0321668D01*
X0084602Y0321775D01*
X0084671Y0321879D01*
X0084744Y0321980D01*
X0084819Y0322080D01*
X0084898Y0322177D01*
X0084980Y0322271D01*
X0085065Y0322363D01*
X0085152Y0322452D01*
X0085243Y0322538D01*
X0085336Y0322621D01*
X0085432Y0322702D01*
X0085530Y0322779D01*
X0085630Y0322853D01*
X0085733Y0322924D01*
X0085838Y0322991D01*
X0085946Y0323056D01*
X0086055Y0323116D01*
X0086166Y0323174D01*
X0086279Y0323227D01*
X0086393Y0323277D01*
X0086509Y0323324D01*
X0086626Y0323366D01*
X0086745Y0323405D01*
X0086865Y0323441D01*
X0086986Y0323472D01*
X0087108Y0323500D01*
X0087230Y0323523D01*
X0087354Y0323543D01*
X0087478Y0323559D01*
X0087602Y0323571D01*
X0087727Y0323579D01*
X0087852Y0323583D01*
X0087976Y0323583D01*
X0088101Y0323579D01*
X0088226Y0323571D01*
X0088350Y0323559D01*
X0088474Y0323543D01*
X0088598Y0323523D01*
X0088720Y0323500D01*
X0088842Y0323472D01*
X0088963Y0323441D01*
X0089083Y0323405D01*
X0089202Y0323366D01*
X0089319Y0323324D01*
X0089435Y0323277D01*
X0089549Y0323227D01*
X0089662Y0323174D01*
X0089773Y0323116D01*
X0089883Y0323056D01*
X0089990Y0322991D01*
X0090095Y0322924D01*
X0090198Y0322853D01*
X0090298Y0322779D01*
X0090396Y0322702D01*
X0090492Y0322621D01*
X0090585Y0322538D01*
X0090676Y0322452D01*
X0090763Y0322363D01*
X0090848Y0322271D01*
X0090930Y0322177D01*
X0091009Y0322080D01*
X0091084Y0321980D01*
X0091157Y0321879D01*
X0091226Y0321775D01*
X0091292Y0321668D01*
X0091354Y0321560D01*
X0091413Y0321450D01*
X0091469Y0321338D01*
X0091521Y0321224D01*
X0091569Y0321109D01*
X0091614Y0320993D01*
X0091654Y0320874D01*
X0091692Y0320755D01*
X0091725Y0320635D01*
X0091754Y0320513D01*
X0091780Y0320391D01*
X0091802Y0320268D01*
X0091819Y0320144D01*
X0091833Y0320020D01*
X0091843Y0319896D01*
X0091849Y0319771D01*
X0091851Y0319646D01*
X0091849Y0319521D01*
X0091843Y0319396D01*
X0091833Y0319272D01*
X0091819Y0319148D01*
X0091802Y0319024D01*
X0091780Y0318901D01*
X0091754Y0318779D01*
X0091725Y0318657D01*
X0091692Y0318537D01*
X0091654Y0318418D01*
X0091614Y0318299D01*
X0091569Y0318183D01*
X0091521Y0318068D01*
X0091469Y0317954D01*
X0091413Y0317842D01*
X0091354Y0317732D01*
X0091292Y0317624D01*
X0091226Y0317517D01*
X0091157Y0317413D01*
X0091084Y0317312D01*
X0091009Y0317212D01*
X0090930Y0317115D01*
X0090848Y0317021D01*
X0090763Y0316929D01*
X0090676Y0316840D01*
X0090585Y0316754D01*
X0090492Y0316671D01*
X0090396Y0316590D01*
X0090298Y0316513D01*
X0090198Y0316439D01*
X0090095Y0316368D01*
X0089990Y0316301D01*
X0089882Y0316236D01*
X0089773Y0316176D01*
X0089662Y0316118D01*
X0089549Y0316065D01*
X0089435Y0316015D01*
X0089319Y0315968D01*
X0089202Y0315926D01*
X0089083Y0315887D01*
X0088963Y0315851D01*
X0088842Y0315820D01*
X0088720Y0315792D01*
X0088598Y0315769D01*
X0088474Y0315749D01*
X0088350Y0315733D01*
X0088226Y0315721D01*
X0088101Y0315713D01*
X0087976Y0315709D01*
X0087852Y0315709D01*
X0087727Y0315713D01*
X0087602Y0315721D01*
X0087478Y0315733D01*
X0087354Y0315749D01*
X0087230Y0315769D01*
X0087108Y0315792D01*
X0086986Y0315820D01*
X0086865Y0315851D01*
X0086745Y0315887D01*
X0086626Y0315926D01*
X0086509Y0315968D01*
X0086393Y0316015D01*
X0086279Y0316065D01*
X0086166Y0316118D01*
X0086055Y0316176D01*
X0085945Y0316236D01*
X0085838Y0316301D01*
X0085733Y0316368D01*
X0085630Y0316439D01*
X0085530Y0316513D01*
X0085432Y0316590D01*
X0085336Y0316671D01*
X0085243Y0316754D01*
X0085152Y0316840D01*
X0085065Y0316929D01*
X0084980Y0317021D01*
X0084898Y0317115D01*
X0084819Y0317212D01*
X0084744Y0317312D01*
X0084671Y0317413D01*
X0084602Y0317517D01*
X0084536Y0317624D01*
X0084474Y0317732D01*
X0084415Y0317842D01*
X0084359Y0317954D01*
X0084307Y0318068D01*
X0084259Y0318183D01*
X0084214Y0318299D01*
X0084174Y0318418D01*
X0084136Y0318537D01*
X0084103Y0318657D01*
X0084074Y0318779D01*
X0084048Y0318901D01*
X0084026Y0319024D01*
X0084009Y0319148D01*
X0083995Y0319272D01*
X0083985Y0319396D01*
X0083979Y0319521D01*
X0083977Y0319646D01*
X0064292Y0319646D02*
X0064294Y0319771D01*
X0064300Y0319896D01*
X0064310Y0320020D01*
X0064324Y0320144D01*
X0064341Y0320268D01*
X0064363Y0320391D01*
X0064389Y0320513D01*
X0064418Y0320635D01*
X0064451Y0320755D01*
X0064489Y0320874D01*
X0064529Y0320993D01*
X0064574Y0321109D01*
X0064622Y0321224D01*
X0064674Y0321338D01*
X0064730Y0321450D01*
X0064789Y0321560D01*
X0064851Y0321668D01*
X0064917Y0321775D01*
X0064986Y0321879D01*
X0065059Y0321980D01*
X0065134Y0322080D01*
X0065213Y0322177D01*
X0065295Y0322271D01*
X0065380Y0322363D01*
X0065467Y0322452D01*
X0065558Y0322538D01*
X0065651Y0322621D01*
X0065747Y0322702D01*
X0065845Y0322779D01*
X0065945Y0322853D01*
X0066048Y0322924D01*
X0066153Y0322991D01*
X0066261Y0323056D01*
X0066370Y0323116D01*
X0066481Y0323174D01*
X0066594Y0323227D01*
X0066708Y0323277D01*
X0066824Y0323324D01*
X0066941Y0323366D01*
X0067060Y0323405D01*
X0067180Y0323441D01*
X0067301Y0323472D01*
X0067423Y0323500D01*
X0067545Y0323523D01*
X0067669Y0323543D01*
X0067793Y0323559D01*
X0067917Y0323571D01*
X0068042Y0323579D01*
X0068167Y0323583D01*
X0068291Y0323583D01*
X0068416Y0323579D01*
X0068541Y0323571D01*
X0068665Y0323559D01*
X0068789Y0323543D01*
X0068913Y0323523D01*
X0069035Y0323500D01*
X0069157Y0323472D01*
X0069278Y0323441D01*
X0069398Y0323405D01*
X0069517Y0323366D01*
X0069634Y0323324D01*
X0069750Y0323277D01*
X0069864Y0323227D01*
X0069977Y0323174D01*
X0070088Y0323116D01*
X0070198Y0323056D01*
X0070305Y0322991D01*
X0070410Y0322924D01*
X0070513Y0322853D01*
X0070613Y0322779D01*
X0070711Y0322702D01*
X0070807Y0322621D01*
X0070900Y0322538D01*
X0070991Y0322452D01*
X0071078Y0322363D01*
X0071163Y0322271D01*
X0071245Y0322177D01*
X0071324Y0322080D01*
X0071399Y0321980D01*
X0071472Y0321879D01*
X0071541Y0321775D01*
X0071607Y0321668D01*
X0071669Y0321560D01*
X0071728Y0321450D01*
X0071784Y0321338D01*
X0071836Y0321224D01*
X0071884Y0321109D01*
X0071929Y0320993D01*
X0071969Y0320874D01*
X0072007Y0320755D01*
X0072040Y0320635D01*
X0072069Y0320513D01*
X0072095Y0320391D01*
X0072117Y0320268D01*
X0072134Y0320144D01*
X0072148Y0320020D01*
X0072158Y0319896D01*
X0072164Y0319771D01*
X0072166Y0319646D01*
X0072164Y0319521D01*
X0072158Y0319396D01*
X0072148Y0319272D01*
X0072134Y0319148D01*
X0072117Y0319024D01*
X0072095Y0318901D01*
X0072069Y0318779D01*
X0072040Y0318657D01*
X0072007Y0318537D01*
X0071969Y0318418D01*
X0071929Y0318299D01*
X0071884Y0318183D01*
X0071836Y0318068D01*
X0071784Y0317954D01*
X0071728Y0317842D01*
X0071669Y0317732D01*
X0071607Y0317624D01*
X0071541Y0317517D01*
X0071472Y0317413D01*
X0071399Y0317312D01*
X0071324Y0317212D01*
X0071245Y0317115D01*
X0071163Y0317021D01*
X0071078Y0316929D01*
X0070991Y0316840D01*
X0070900Y0316754D01*
X0070807Y0316671D01*
X0070711Y0316590D01*
X0070613Y0316513D01*
X0070513Y0316439D01*
X0070410Y0316368D01*
X0070305Y0316301D01*
X0070197Y0316236D01*
X0070088Y0316176D01*
X0069977Y0316118D01*
X0069864Y0316065D01*
X0069750Y0316015D01*
X0069634Y0315968D01*
X0069517Y0315926D01*
X0069398Y0315887D01*
X0069278Y0315851D01*
X0069157Y0315820D01*
X0069035Y0315792D01*
X0068913Y0315769D01*
X0068789Y0315749D01*
X0068665Y0315733D01*
X0068541Y0315721D01*
X0068416Y0315713D01*
X0068291Y0315709D01*
X0068167Y0315709D01*
X0068042Y0315713D01*
X0067917Y0315721D01*
X0067793Y0315733D01*
X0067669Y0315749D01*
X0067545Y0315769D01*
X0067423Y0315792D01*
X0067301Y0315820D01*
X0067180Y0315851D01*
X0067060Y0315887D01*
X0066941Y0315926D01*
X0066824Y0315968D01*
X0066708Y0316015D01*
X0066594Y0316065D01*
X0066481Y0316118D01*
X0066370Y0316176D01*
X0066260Y0316236D01*
X0066153Y0316301D01*
X0066048Y0316368D01*
X0065945Y0316439D01*
X0065845Y0316513D01*
X0065747Y0316590D01*
X0065651Y0316671D01*
X0065558Y0316754D01*
X0065467Y0316840D01*
X0065380Y0316929D01*
X0065295Y0317021D01*
X0065213Y0317115D01*
X0065134Y0317212D01*
X0065059Y0317312D01*
X0064986Y0317413D01*
X0064917Y0317517D01*
X0064851Y0317624D01*
X0064789Y0317732D01*
X0064730Y0317842D01*
X0064674Y0317954D01*
X0064622Y0318068D01*
X0064574Y0318183D01*
X0064529Y0318299D01*
X0064489Y0318418D01*
X0064451Y0318537D01*
X0064418Y0318657D01*
X0064389Y0318779D01*
X0064363Y0318901D01*
X0064341Y0319024D01*
X0064324Y0319148D01*
X0064310Y0319272D01*
X0064300Y0319396D01*
X0064294Y0319521D01*
X0064292Y0319646D01*
X0044607Y0319646D02*
X0044609Y0319771D01*
X0044615Y0319896D01*
X0044625Y0320020D01*
X0044639Y0320144D01*
X0044656Y0320268D01*
X0044678Y0320391D01*
X0044704Y0320513D01*
X0044733Y0320635D01*
X0044766Y0320755D01*
X0044804Y0320874D01*
X0044844Y0320993D01*
X0044889Y0321109D01*
X0044937Y0321224D01*
X0044989Y0321338D01*
X0045045Y0321450D01*
X0045104Y0321560D01*
X0045166Y0321668D01*
X0045232Y0321775D01*
X0045301Y0321879D01*
X0045374Y0321980D01*
X0045449Y0322080D01*
X0045528Y0322177D01*
X0045610Y0322271D01*
X0045695Y0322363D01*
X0045782Y0322452D01*
X0045873Y0322538D01*
X0045966Y0322621D01*
X0046062Y0322702D01*
X0046160Y0322779D01*
X0046260Y0322853D01*
X0046363Y0322924D01*
X0046468Y0322991D01*
X0046576Y0323056D01*
X0046685Y0323116D01*
X0046796Y0323174D01*
X0046909Y0323227D01*
X0047023Y0323277D01*
X0047139Y0323324D01*
X0047256Y0323366D01*
X0047375Y0323405D01*
X0047495Y0323441D01*
X0047616Y0323472D01*
X0047738Y0323500D01*
X0047860Y0323523D01*
X0047984Y0323543D01*
X0048108Y0323559D01*
X0048232Y0323571D01*
X0048357Y0323579D01*
X0048482Y0323583D01*
X0048606Y0323583D01*
X0048731Y0323579D01*
X0048856Y0323571D01*
X0048980Y0323559D01*
X0049104Y0323543D01*
X0049228Y0323523D01*
X0049350Y0323500D01*
X0049472Y0323472D01*
X0049593Y0323441D01*
X0049713Y0323405D01*
X0049832Y0323366D01*
X0049949Y0323324D01*
X0050065Y0323277D01*
X0050179Y0323227D01*
X0050292Y0323174D01*
X0050403Y0323116D01*
X0050513Y0323056D01*
X0050620Y0322991D01*
X0050725Y0322924D01*
X0050828Y0322853D01*
X0050928Y0322779D01*
X0051026Y0322702D01*
X0051122Y0322621D01*
X0051215Y0322538D01*
X0051306Y0322452D01*
X0051393Y0322363D01*
X0051478Y0322271D01*
X0051560Y0322177D01*
X0051639Y0322080D01*
X0051714Y0321980D01*
X0051787Y0321879D01*
X0051856Y0321775D01*
X0051922Y0321668D01*
X0051984Y0321560D01*
X0052043Y0321450D01*
X0052099Y0321338D01*
X0052151Y0321224D01*
X0052199Y0321109D01*
X0052244Y0320993D01*
X0052284Y0320874D01*
X0052322Y0320755D01*
X0052355Y0320635D01*
X0052384Y0320513D01*
X0052410Y0320391D01*
X0052432Y0320268D01*
X0052449Y0320144D01*
X0052463Y0320020D01*
X0052473Y0319896D01*
X0052479Y0319771D01*
X0052481Y0319646D01*
X0052479Y0319521D01*
X0052473Y0319396D01*
X0052463Y0319272D01*
X0052449Y0319148D01*
X0052432Y0319024D01*
X0052410Y0318901D01*
X0052384Y0318779D01*
X0052355Y0318657D01*
X0052322Y0318537D01*
X0052284Y0318418D01*
X0052244Y0318299D01*
X0052199Y0318183D01*
X0052151Y0318068D01*
X0052099Y0317954D01*
X0052043Y0317842D01*
X0051984Y0317732D01*
X0051922Y0317624D01*
X0051856Y0317517D01*
X0051787Y0317413D01*
X0051714Y0317312D01*
X0051639Y0317212D01*
X0051560Y0317115D01*
X0051478Y0317021D01*
X0051393Y0316929D01*
X0051306Y0316840D01*
X0051215Y0316754D01*
X0051122Y0316671D01*
X0051026Y0316590D01*
X0050928Y0316513D01*
X0050828Y0316439D01*
X0050725Y0316368D01*
X0050620Y0316301D01*
X0050512Y0316236D01*
X0050403Y0316176D01*
X0050292Y0316118D01*
X0050179Y0316065D01*
X0050065Y0316015D01*
X0049949Y0315968D01*
X0049832Y0315926D01*
X0049713Y0315887D01*
X0049593Y0315851D01*
X0049472Y0315820D01*
X0049350Y0315792D01*
X0049228Y0315769D01*
X0049104Y0315749D01*
X0048980Y0315733D01*
X0048856Y0315721D01*
X0048731Y0315713D01*
X0048606Y0315709D01*
X0048482Y0315709D01*
X0048357Y0315713D01*
X0048232Y0315721D01*
X0048108Y0315733D01*
X0047984Y0315749D01*
X0047860Y0315769D01*
X0047738Y0315792D01*
X0047616Y0315820D01*
X0047495Y0315851D01*
X0047375Y0315887D01*
X0047256Y0315926D01*
X0047139Y0315968D01*
X0047023Y0316015D01*
X0046909Y0316065D01*
X0046796Y0316118D01*
X0046685Y0316176D01*
X0046575Y0316236D01*
X0046468Y0316301D01*
X0046363Y0316368D01*
X0046260Y0316439D01*
X0046160Y0316513D01*
X0046062Y0316590D01*
X0045966Y0316671D01*
X0045873Y0316754D01*
X0045782Y0316840D01*
X0045695Y0316929D01*
X0045610Y0317021D01*
X0045528Y0317115D01*
X0045449Y0317212D01*
X0045374Y0317312D01*
X0045301Y0317413D01*
X0045232Y0317517D01*
X0045166Y0317624D01*
X0045104Y0317732D01*
X0045045Y0317842D01*
X0044989Y0317954D01*
X0044937Y0318068D01*
X0044889Y0318183D01*
X0044844Y0318299D01*
X0044804Y0318418D01*
X0044766Y0318537D01*
X0044733Y0318657D01*
X0044704Y0318779D01*
X0044678Y0318901D01*
X0044656Y0319024D01*
X0044639Y0319148D01*
X0044625Y0319272D01*
X0044615Y0319396D01*
X0044609Y0319521D01*
X0044607Y0319646D01*
X0024922Y0319646D02*
X0024924Y0319771D01*
X0024930Y0319896D01*
X0024940Y0320020D01*
X0024954Y0320144D01*
X0024971Y0320268D01*
X0024993Y0320391D01*
X0025019Y0320513D01*
X0025048Y0320635D01*
X0025081Y0320755D01*
X0025119Y0320874D01*
X0025159Y0320993D01*
X0025204Y0321109D01*
X0025252Y0321224D01*
X0025304Y0321338D01*
X0025360Y0321450D01*
X0025419Y0321560D01*
X0025481Y0321668D01*
X0025547Y0321775D01*
X0025616Y0321879D01*
X0025689Y0321980D01*
X0025764Y0322080D01*
X0025843Y0322177D01*
X0025925Y0322271D01*
X0026010Y0322363D01*
X0026097Y0322452D01*
X0026188Y0322538D01*
X0026281Y0322621D01*
X0026377Y0322702D01*
X0026475Y0322779D01*
X0026575Y0322853D01*
X0026678Y0322924D01*
X0026783Y0322991D01*
X0026891Y0323056D01*
X0027000Y0323116D01*
X0027111Y0323174D01*
X0027224Y0323227D01*
X0027338Y0323277D01*
X0027454Y0323324D01*
X0027571Y0323366D01*
X0027690Y0323405D01*
X0027810Y0323441D01*
X0027931Y0323472D01*
X0028053Y0323500D01*
X0028175Y0323523D01*
X0028299Y0323543D01*
X0028423Y0323559D01*
X0028547Y0323571D01*
X0028672Y0323579D01*
X0028797Y0323583D01*
X0028921Y0323583D01*
X0029046Y0323579D01*
X0029171Y0323571D01*
X0029295Y0323559D01*
X0029419Y0323543D01*
X0029543Y0323523D01*
X0029665Y0323500D01*
X0029787Y0323472D01*
X0029908Y0323441D01*
X0030028Y0323405D01*
X0030147Y0323366D01*
X0030264Y0323324D01*
X0030380Y0323277D01*
X0030494Y0323227D01*
X0030607Y0323174D01*
X0030718Y0323116D01*
X0030828Y0323056D01*
X0030935Y0322991D01*
X0031040Y0322924D01*
X0031143Y0322853D01*
X0031243Y0322779D01*
X0031341Y0322702D01*
X0031437Y0322621D01*
X0031530Y0322538D01*
X0031621Y0322452D01*
X0031708Y0322363D01*
X0031793Y0322271D01*
X0031875Y0322177D01*
X0031954Y0322080D01*
X0032029Y0321980D01*
X0032102Y0321879D01*
X0032171Y0321775D01*
X0032237Y0321668D01*
X0032299Y0321560D01*
X0032358Y0321450D01*
X0032414Y0321338D01*
X0032466Y0321224D01*
X0032514Y0321109D01*
X0032559Y0320993D01*
X0032599Y0320874D01*
X0032637Y0320755D01*
X0032670Y0320635D01*
X0032699Y0320513D01*
X0032725Y0320391D01*
X0032747Y0320268D01*
X0032764Y0320144D01*
X0032778Y0320020D01*
X0032788Y0319896D01*
X0032794Y0319771D01*
X0032796Y0319646D01*
X0032794Y0319521D01*
X0032788Y0319396D01*
X0032778Y0319272D01*
X0032764Y0319148D01*
X0032747Y0319024D01*
X0032725Y0318901D01*
X0032699Y0318779D01*
X0032670Y0318657D01*
X0032637Y0318537D01*
X0032599Y0318418D01*
X0032559Y0318299D01*
X0032514Y0318183D01*
X0032466Y0318068D01*
X0032414Y0317954D01*
X0032358Y0317842D01*
X0032299Y0317732D01*
X0032237Y0317624D01*
X0032171Y0317517D01*
X0032102Y0317413D01*
X0032029Y0317312D01*
X0031954Y0317212D01*
X0031875Y0317115D01*
X0031793Y0317021D01*
X0031708Y0316929D01*
X0031621Y0316840D01*
X0031530Y0316754D01*
X0031437Y0316671D01*
X0031341Y0316590D01*
X0031243Y0316513D01*
X0031143Y0316439D01*
X0031040Y0316368D01*
X0030935Y0316301D01*
X0030827Y0316236D01*
X0030718Y0316176D01*
X0030607Y0316118D01*
X0030494Y0316065D01*
X0030380Y0316015D01*
X0030264Y0315968D01*
X0030147Y0315926D01*
X0030028Y0315887D01*
X0029908Y0315851D01*
X0029787Y0315820D01*
X0029665Y0315792D01*
X0029543Y0315769D01*
X0029419Y0315749D01*
X0029295Y0315733D01*
X0029171Y0315721D01*
X0029046Y0315713D01*
X0028921Y0315709D01*
X0028797Y0315709D01*
X0028672Y0315713D01*
X0028547Y0315721D01*
X0028423Y0315733D01*
X0028299Y0315749D01*
X0028175Y0315769D01*
X0028053Y0315792D01*
X0027931Y0315820D01*
X0027810Y0315851D01*
X0027690Y0315887D01*
X0027571Y0315926D01*
X0027454Y0315968D01*
X0027338Y0316015D01*
X0027224Y0316065D01*
X0027111Y0316118D01*
X0027000Y0316176D01*
X0026890Y0316236D01*
X0026783Y0316301D01*
X0026678Y0316368D01*
X0026575Y0316439D01*
X0026475Y0316513D01*
X0026377Y0316590D01*
X0026281Y0316671D01*
X0026188Y0316754D01*
X0026097Y0316840D01*
X0026010Y0316929D01*
X0025925Y0317021D01*
X0025843Y0317115D01*
X0025764Y0317212D01*
X0025689Y0317312D01*
X0025616Y0317413D01*
X0025547Y0317517D01*
X0025481Y0317624D01*
X0025419Y0317732D01*
X0025360Y0317842D01*
X0025304Y0317954D01*
X0025252Y0318068D01*
X0025204Y0318183D01*
X0025159Y0318299D01*
X0025119Y0318418D01*
X0025081Y0318537D01*
X0025048Y0318657D01*
X0025019Y0318779D01*
X0024993Y0318901D01*
X0024971Y0319024D01*
X0024954Y0319148D01*
X0024940Y0319272D01*
X0024930Y0319396D01*
X0024924Y0319521D01*
X0024922Y0319646D01*
X0024528Y0026732D02*
X0024530Y0026857D01*
X0024536Y0026982D01*
X0024546Y0027106D01*
X0024560Y0027230D01*
X0024577Y0027354D01*
X0024599Y0027477D01*
X0024625Y0027599D01*
X0024654Y0027721D01*
X0024687Y0027841D01*
X0024725Y0027960D01*
X0024765Y0028079D01*
X0024810Y0028195D01*
X0024858Y0028310D01*
X0024910Y0028424D01*
X0024966Y0028536D01*
X0025025Y0028646D01*
X0025087Y0028754D01*
X0025153Y0028861D01*
X0025222Y0028965D01*
X0025295Y0029066D01*
X0025370Y0029166D01*
X0025449Y0029263D01*
X0025531Y0029357D01*
X0025616Y0029449D01*
X0025703Y0029538D01*
X0025794Y0029624D01*
X0025887Y0029707D01*
X0025983Y0029788D01*
X0026081Y0029865D01*
X0026181Y0029939D01*
X0026284Y0030010D01*
X0026389Y0030077D01*
X0026497Y0030142D01*
X0026606Y0030202D01*
X0026717Y0030260D01*
X0026830Y0030313D01*
X0026944Y0030363D01*
X0027060Y0030410D01*
X0027177Y0030452D01*
X0027296Y0030491D01*
X0027416Y0030527D01*
X0027537Y0030558D01*
X0027659Y0030586D01*
X0027781Y0030609D01*
X0027905Y0030629D01*
X0028029Y0030645D01*
X0028153Y0030657D01*
X0028278Y0030665D01*
X0028403Y0030669D01*
X0028527Y0030669D01*
X0028652Y0030665D01*
X0028777Y0030657D01*
X0028901Y0030645D01*
X0029025Y0030629D01*
X0029149Y0030609D01*
X0029271Y0030586D01*
X0029393Y0030558D01*
X0029514Y0030527D01*
X0029634Y0030491D01*
X0029753Y0030452D01*
X0029870Y0030410D01*
X0029986Y0030363D01*
X0030100Y0030313D01*
X0030213Y0030260D01*
X0030324Y0030202D01*
X0030434Y0030142D01*
X0030541Y0030077D01*
X0030646Y0030010D01*
X0030749Y0029939D01*
X0030849Y0029865D01*
X0030947Y0029788D01*
X0031043Y0029707D01*
X0031136Y0029624D01*
X0031227Y0029538D01*
X0031314Y0029449D01*
X0031399Y0029357D01*
X0031481Y0029263D01*
X0031560Y0029166D01*
X0031635Y0029066D01*
X0031708Y0028965D01*
X0031777Y0028861D01*
X0031843Y0028754D01*
X0031905Y0028646D01*
X0031964Y0028536D01*
X0032020Y0028424D01*
X0032072Y0028310D01*
X0032120Y0028195D01*
X0032165Y0028079D01*
X0032205Y0027960D01*
X0032243Y0027841D01*
X0032276Y0027721D01*
X0032305Y0027599D01*
X0032331Y0027477D01*
X0032353Y0027354D01*
X0032370Y0027230D01*
X0032384Y0027106D01*
X0032394Y0026982D01*
X0032400Y0026857D01*
X0032402Y0026732D01*
X0032400Y0026607D01*
X0032394Y0026482D01*
X0032384Y0026358D01*
X0032370Y0026234D01*
X0032353Y0026110D01*
X0032331Y0025987D01*
X0032305Y0025865D01*
X0032276Y0025743D01*
X0032243Y0025623D01*
X0032205Y0025504D01*
X0032165Y0025385D01*
X0032120Y0025269D01*
X0032072Y0025154D01*
X0032020Y0025040D01*
X0031964Y0024928D01*
X0031905Y0024818D01*
X0031843Y0024710D01*
X0031777Y0024603D01*
X0031708Y0024499D01*
X0031635Y0024398D01*
X0031560Y0024298D01*
X0031481Y0024201D01*
X0031399Y0024107D01*
X0031314Y0024015D01*
X0031227Y0023926D01*
X0031136Y0023840D01*
X0031043Y0023757D01*
X0030947Y0023676D01*
X0030849Y0023599D01*
X0030749Y0023525D01*
X0030646Y0023454D01*
X0030541Y0023387D01*
X0030433Y0023322D01*
X0030324Y0023262D01*
X0030213Y0023204D01*
X0030100Y0023151D01*
X0029986Y0023101D01*
X0029870Y0023054D01*
X0029753Y0023012D01*
X0029634Y0022973D01*
X0029514Y0022937D01*
X0029393Y0022906D01*
X0029271Y0022878D01*
X0029149Y0022855D01*
X0029025Y0022835D01*
X0028901Y0022819D01*
X0028777Y0022807D01*
X0028652Y0022799D01*
X0028527Y0022795D01*
X0028403Y0022795D01*
X0028278Y0022799D01*
X0028153Y0022807D01*
X0028029Y0022819D01*
X0027905Y0022835D01*
X0027781Y0022855D01*
X0027659Y0022878D01*
X0027537Y0022906D01*
X0027416Y0022937D01*
X0027296Y0022973D01*
X0027177Y0023012D01*
X0027060Y0023054D01*
X0026944Y0023101D01*
X0026830Y0023151D01*
X0026717Y0023204D01*
X0026606Y0023262D01*
X0026496Y0023322D01*
X0026389Y0023387D01*
X0026284Y0023454D01*
X0026181Y0023525D01*
X0026081Y0023599D01*
X0025983Y0023676D01*
X0025887Y0023757D01*
X0025794Y0023840D01*
X0025703Y0023926D01*
X0025616Y0024015D01*
X0025531Y0024107D01*
X0025449Y0024201D01*
X0025370Y0024298D01*
X0025295Y0024398D01*
X0025222Y0024499D01*
X0025153Y0024603D01*
X0025087Y0024710D01*
X0025025Y0024818D01*
X0024966Y0024928D01*
X0024910Y0025040D01*
X0024858Y0025154D01*
X0024810Y0025269D01*
X0024765Y0025385D01*
X0024725Y0025504D01*
X0024687Y0025623D01*
X0024654Y0025743D01*
X0024625Y0025865D01*
X0024599Y0025987D01*
X0024577Y0026110D01*
X0024560Y0026234D01*
X0024546Y0026358D01*
X0024536Y0026482D01*
X0024530Y0026607D01*
X0024528Y0026732D01*
X0044213Y0026732D02*
X0044215Y0026857D01*
X0044221Y0026982D01*
X0044231Y0027106D01*
X0044245Y0027230D01*
X0044262Y0027354D01*
X0044284Y0027477D01*
X0044310Y0027599D01*
X0044339Y0027721D01*
X0044372Y0027841D01*
X0044410Y0027960D01*
X0044450Y0028079D01*
X0044495Y0028195D01*
X0044543Y0028310D01*
X0044595Y0028424D01*
X0044651Y0028536D01*
X0044710Y0028646D01*
X0044772Y0028754D01*
X0044838Y0028861D01*
X0044907Y0028965D01*
X0044980Y0029066D01*
X0045055Y0029166D01*
X0045134Y0029263D01*
X0045216Y0029357D01*
X0045301Y0029449D01*
X0045388Y0029538D01*
X0045479Y0029624D01*
X0045572Y0029707D01*
X0045668Y0029788D01*
X0045766Y0029865D01*
X0045866Y0029939D01*
X0045969Y0030010D01*
X0046074Y0030077D01*
X0046182Y0030142D01*
X0046291Y0030202D01*
X0046402Y0030260D01*
X0046515Y0030313D01*
X0046629Y0030363D01*
X0046745Y0030410D01*
X0046862Y0030452D01*
X0046981Y0030491D01*
X0047101Y0030527D01*
X0047222Y0030558D01*
X0047344Y0030586D01*
X0047466Y0030609D01*
X0047590Y0030629D01*
X0047714Y0030645D01*
X0047838Y0030657D01*
X0047963Y0030665D01*
X0048088Y0030669D01*
X0048212Y0030669D01*
X0048337Y0030665D01*
X0048462Y0030657D01*
X0048586Y0030645D01*
X0048710Y0030629D01*
X0048834Y0030609D01*
X0048956Y0030586D01*
X0049078Y0030558D01*
X0049199Y0030527D01*
X0049319Y0030491D01*
X0049438Y0030452D01*
X0049555Y0030410D01*
X0049671Y0030363D01*
X0049785Y0030313D01*
X0049898Y0030260D01*
X0050009Y0030202D01*
X0050119Y0030142D01*
X0050226Y0030077D01*
X0050331Y0030010D01*
X0050434Y0029939D01*
X0050534Y0029865D01*
X0050632Y0029788D01*
X0050728Y0029707D01*
X0050821Y0029624D01*
X0050912Y0029538D01*
X0050999Y0029449D01*
X0051084Y0029357D01*
X0051166Y0029263D01*
X0051245Y0029166D01*
X0051320Y0029066D01*
X0051393Y0028965D01*
X0051462Y0028861D01*
X0051528Y0028754D01*
X0051590Y0028646D01*
X0051649Y0028536D01*
X0051705Y0028424D01*
X0051757Y0028310D01*
X0051805Y0028195D01*
X0051850Y0028079D01*
X0051890Y0027960D01*
X0051928Y0027841D01*
X0051961Y0027721D01*
X0051990Y0027599D01*
X0052016Y0027477D01*
X0052038Y0027354D01*
X0052055Y0027230D01*
X0052069Y0027106D01*
X0052079Y0026982D01*
X0052085Y0026857D01*
X0052087Y0026732D01*
X0052085Y0026607D01*
X0052079Y0026482D01*
X0052069Y0026358D01*
X0052055Y0026234D01*
X0052038Y0026110D01*
X0052016Y0025987D01*
X0051990Y0025865D01*
X0051961Y0025743D01*
X0051928Y0025623D01*
X0051890Y0025504D01*
X0051850Y0025385D01*
X0051805Y0025269D01*
X0051757Y0025154D01*
X0051705Y0025040D01*
X0051649Y0024928D01*
X0051590Y0024818D01*
X0051528Y0024710D01*
X0051462Y0024603D01*
X0051393Y0024499D01*
X0051320Y0024398D01*
X0051245Y0024298D01*
X0051166Y0024201D01*
X0051084Y0024107D01*
X0050999Y0024015D01*
X0050912Y0023926D01*
X0050821Y0023840D01*
X0050728Y0023757D01*
X0050632Y0023676D01*
X0050534Y0023599D01*
X0050434Y0023525D01*
X0050331Y0023454D01*
X0050226Y0023387D01*
X0050118Y0023322D01*
X0050009Y0023262D01*
X0049898Y0023204D01*
X0049785Y0023151D01*
X0049671Y0023101D01*
X0049555Y0023054D01*
X0049438Y0023012D01*
X0049319Y0022973D01*
X0049199Y0022937D01*
X0049078Y0022906D01*
X0048956Y0022878D01*
X0048834Y0022855D01*
X0048710Y0022835D01*
X0048586Y0022819D01*
X0048462Y0022807D01*
X0048337Y0022799D01*
X0048212Y0022795D01*
X0048088Y0022795D01*
X0047963Y0022799D01*
X0047838Y0022807D01*
X0047714Y0022819D01*
X0047590Y0022835D01*
X0047466Y0022855D01*
X0047344Y0022878D01*
X0047222Y0022906D01*
X0047101Y0022937D01*
X0046981Y0022973D01*
X0046862Y0023012D01*
X0046745Y0023054D01*
X0046629Y0023101D01*
X0046515Y0023151D01*
X0046402Y0023204D01*
X0046291Y0023262D01*
X0046181Y0023322D01*
X0046074Y0023387D01*
X0045969Y0023454D01*
X0045866Y0023525D01*
X0045766Y0023599D01*
X0045668Y0023676D01*
X0045572Y0023757D01*
X0045479Y0023840D01*
X0045388Y0023926D01*
X0045301Y0024015D01*
X0045216Y0024107D01*
X0045134Y0024201D01*
X0045055Y0024298D01*
X0044980Y0024398D01*
X0044907Y0024499D01*
X0044838Y0024603D01*
X0044772Y0024710D01*
X0044710Y0024818D01*
X0044651Y0024928D01*
X0044595Y0025040D01*
X0044543Y0025154D01*
X0044495Y0025269D01*
X0044450Y0025385D01*
X0044410Y0025504D01*
X0044372Y0025623D01*
X0044339Y0025743D01*
X0044310Y0025865D01*
X0044284Y0025987D01*
X0044262Y0026110D01*
X0044245Y0026234D01*
X0044231Y0026358D01*
X0044221Y0026482D01*
X0044215Y0026607D01*
X0044213Y0026732D01*
X0083583Y0026732D02*
X0083585Y0026857D01*
X0083591Y0026982D01*
X0083601Y0027106D01*
X0083615Y0027230D01*
X0083632Y0027354D01*
X0083654Y0027477D01*
X0083680Y0027599D01*
X0083709Y0027721D01*
X0083742Y0027841D01*
X0083780Y0027960D01*
X0083820Y0028079D01*
X0083865Y0028195D01*
X0083913Y0028310D01*
X0083965Y0028424D01*
X0084021Y0028536D01*
X0084080Y0028646D01*
X0084142Y0028754D01*
X0084208Y0028861D01*
X0084277Y0028965D01*
X0084350Y0029066D01*
X0084425Y0029166D01*
X0084504Y0029263D01*
X0084586Y0029357D01*
X0084671Y0029449D01*
X0084758Y0029538D01*
X0084849Y0029624D01*
X0084942Y0029707D01*
X0085038Y0029788D01*
X0085136Y0029865D01*
X0085236Y0029939D01*
X0085339Y0030010D01*
X0085444Y0030077D01*
X0085552Y0030142D01*
X0085661Y0030202D01*
X0085772Y0030260D01*
X0085885Y0030313D01*
X0085999Y0030363D01*
X0086115Y0030410D01*
X0086232Y0030452D01*
X0086351Y0030491D01*
X0086471Y0030527D01*
X0086592Y0030558D01*
X0086714Y0030586D01*
X0086836Y0030609D01*
X0086960Y0030629D01*
X0087084Y0030645D01*
X0087208Y0030657D01*
X0087333Y0030665D01*
X0087458Y0030669D01*
X0087582Y0030669D01*
X0087707Y0030665D01*
X0087832Y0030657D01*
X0087956Y0030645D01*
X0088080Y0030629D01*
X0088204Y0030609D01*
X0088326Y0030586D01*
X0088448Y0030558D01*
X0088569Y0030527D01*
X0088689Y0030491D01*
X0088808Y0030452D01*
X0088925Y0030410D01*
X0089041Y0030363D01*
X0089155Y0030313D01*
X0089268Y0030260D01*
X0089379Y0030202D01*
X0089489Y0030142D01*
X0089596Y0030077D01*
X0089701Y0030010D01*
X0089804Y0029939D01*
X0089904Y0029865D01*
X0090002Y0029788D01*
X0090098Y0029707D01*
X0090191Y0029624D01*
X0090282Y0029538D01*
X0090369Y0029449D01*
X0090454Y0029357D01*
X0090536Y0029263D01*
X0090615Y0029166D01*
X0090690Y0029066D01*
X0090763Y0028965D01*
X0090832Y0028861D01*
X0090898Y0028754D01*
X0090960Y0028646D01*
X0091019Y0028536D01*
X0091075Y0028424D01*
X0091127Y0028310D01*
X0091175Y0028195D01*
X0091220Y0028079D01*
X0091260Y0027960D01*
X0091298Y0027841D01*
X0091331Y0027721D01*
X0091360Y0027599D01*
X0091386Y0027477D01*
X0091408Y0027354D01*
X0091425Y0027230D01*
X0091439Y0027106D01*
X0091449Y0026982D01*
X0091455Y0026857D01*
X0091457Y0026732D01*
X0091455Y0026607D01*
X0091449Y0026482D01*
X0091439Y0026358D01*
X0091425Y0026234D01*
X0091408Y0026110D01*
X0091386Y0025987D01*
X0091360Y0025865D01*
X0091331Y0025743D01*
X0091298Y0025623D01*
X0091260Y0025504D01*
X0091220Y0025385D01*
X0091175Y0025269D01*
X0091127Y0025154D01*
X0091075Y0025040D01*
X0091019Y0024928D01*
X0090960Y0024818D01*
X0090898Y0024710D01*
X0090832Y0024603D01*
X0090763Y0024499D01*
X0090690Y0024398D01*
X0090615Y0024298D01*
X0090536Y0024201D01*
X0090454Y0024107D01*
X0090369Y0024015D01*
X0090282Y0023926D01*
X0090191Y0023840D01*
X0090098Y0023757D01*
X0090002Y0023676D01*
X0089904Y0023599D01*
X0089804Y0023525D01*
X0089701Y0023454D01*
X0089596Y0023387D01*
X0089488Y0023322D01*
X0089379Y0023262D01*
X0089268Y0023204D01*
X0089155Y0023151D01*
X0089041Y0023101D01*
X0088925Y0023054D01*
X0088808Y0023012D01*
X0088689Y0022973D01*
X0088569Y0022937D01*
X0088448Y0022906D01*
X0088326Y0022878D01*
X0088204Y0022855D01*
X0088080Y0022835D01*
X0087956Y0022819D01*
X0087832Y0022807D01*
X0087707Y0022799D01*
X0087582Y0022795D01*
X0087458Y0022795D01*
X0087333Y0022799D01*
X0087208Y0022807D01*
X0087084Y0022819D01*
X0086960Y0022835D01*
X0086836Y0022855D01*
X0086714Y0022878D01*
X0086592Y0022906D01*
X0086471Y0022937D01*
X0086351Y0022973D01*
X0086232Y0023012D01*
X0086115Y0023054D01*
X0085999Y0023101D01*
X0085885Y0023151D01*
X0085772Y0023204D01*
X0085661Y0023262D01*
X0085551Y0023322D01*
X0085444Y0023387D01*
X0085339Y0023454D01*
X0085236Y0023525D01*
X0085136Y0023599D01*
X0085038Y0023676D01*
X0084942Y0023757D01*
X0084849Y0023840D01*
X0084758Y0023926D01*
X0084671Y0024015D01*
X0084586Y0024107D01*
X0084504Y0024201D01*
X0084425Y0024298D01*
X0084350Y0024398D01*
X0084277Y0024499D01*
X0084208Y0024603D01*
X0084142Y0024710D01*
X0084080Y0024818D01*
X0084021Y0024928D01*
X0083965Y0025040D01*
X0083913Y0025154D01*
X0083865Y0025269D01*
X0083820Y0025385D01*
X0083780Y0025504D01*
X0083742Y0025623D01*
X0083709Y0025743D01*
X0083680Y0025865D01*
X0083654Y0025987D01*
X0083632Y0026110D01*
X0083615Y0026234D01*
X0083601Y0026358D01*
X0083591Y0026482D01*
X0083585Y0026607D01*
X0083583Y0026732D01*
X0103269Y0026732D02*
X0103271Y0026857D01*
X0103277Y0026982D01*
X0103287Y0027106D01*
X0103301Y0027230D01*
X0103318Y0027354D01*
X0103340Y0027477D01*
X0103366Y0027599D01*
X0103395Y0027721D01*
X0103428Y0027841D01*
X0103466Y0027960D01*
X0103506Y0028079D01*
X0103551Y0028195D01*
X0103599Y0028310D01*
X0103651Y0028424D01*
X0103707Y0028536D01*
X0103766Y0028646D01*
X0103828Y0028754D01*
X0103894Y0028861D01*
X0103963Y0028965D01*
X0104036Y0029066D01*
X0104111Y0029166D01*
X0104190Y0029263D01*
X0104272Y0029357D01*
X0104357Y0029449D01*
X0104444Y0029538D01*
X0104535Y0029624D01*
X0104628Y0029707D01*
X0104724Y0029788D01*
X0104822Y0029865D01*
X0104922Y0029939D01*
X0105025Y0030010D01*
X0105130Y0030077D01*
X0105238Y0030142D01*
X0105347Y0030202D01*
X0105458Y0030260D01*
X0105571Y0030313D01*
X0105685Y0030363D01*
X0105801Y0030410D01*
X0105918Y0030452D01*
X0106037Y0030491D01*
X0106157Y0030527D01*
X0106278Y0030558D01*
X0106400Y0030586D01*
X0106522Y0030609D01*
X0106646Y0030629D01*
X0106770Y0030645D01*
X0106894Y0030657D01*
X0107019Y0030665D01*
X0107144Y0030669D01*
X0107268Y0030669D01*
X0107393Y0030665D01*
X0107518Y0030657D01*
X0107642Y0030645D01*
X0107766Y0030629D01*
X0107890Y0030609D01*
X0108012Y0030586D01*
X0108134Y0030558D01*
X0108255Y0030527D01*
X0108375Y0030491D01*
X0108494Y0030452D01*
X0108611Y0030410D01*
X0108727Y0030363D01*
X0108841Y0030313D01*
X0108954Y0030260D01*
X0109065Y0030202D01*
X0109175Y0030142D01*
X0109282Y0030077D01*
X0109387Y0030010D01*
X0109490Y0029939D01*
X0109590Y0029865D01*
X0109688Y0029788D01*
X0109784Y0029707D01*
X0109877Y0029624D01*
X0109968Y0029538D01*
X0110055Y0029449D01*
X0110140Y0029357D01*
X0110222Y0029263D01*
X0110301Y0029166D01*
X0110376Y0029066D01*
X0110449Y0028965D01*
X0110518Y0028861D01*
X0110584Y0028754D01*
X0110646Y0028646D01*
X0110705Y0028536D01*
X0110761Y0028424D01*
X0110813Y0028310D01*
X0110861Y0028195D01*
X0110906Y0028079D01*
X0110946Y0027960D01*
X0110984Y0027841D01*
X0111017Y0027721D01*
X0111046Y0027599D01*
X0111072Y0027477D01*
X0111094Y0027354D01*
X0111111Y0027230D01*
X0111125Y0027106D01*
X0111135Y0026982D01*
X0111141Y0026857D01*
X0111143Y0026732D01*
X0111141Y0026607D01*
X0111135Y0026482D01*
X0111125Y0026358D01*
X0111111Y0026234D01*
X0111094Y0026110D01*
X0111072Y0025987D01*
X0111046Y0025865D01*
X0111017Y0025743D01*
X0110984Y0025623D01*
X0110946Y0025504D01*
X0110906Y0025385D01*
X0110861Y0025269D01*
X0110813Y0025154D01*
X0110761Y0025040D01*
X0110705Y0024928D01*
X0110646Y0024818D01*
X0110584Y0024710D01*
X0110518Y0024603D01*
X0110449Y0024499D01*
X0110376Y0024398D01*
X0110301Y0024298D01*
X0110222Y0024201D01*
X0110140Y0024107D01*
X0110055Y0024015D01*
X0109968Y0023926D01*
X0109877Y0023840D01*
X0109784Y0023757D01*
X0109688Y0023676D01*
X0109590Y0023599D01*
X0109490Y0023525D01*
X0109387Y0023454D01*
X0109282Y0023387D01*
X0109174Y0023322D01*
X0109065Y0023262D01*
X0108954Y0023204D01*
X0108841Y0023151D01*
X0108727Y0023101D01*
X0108611Y0023054D01*
X0108494Y0023012D01*
X0108375Y0022973D01*
X0108255Y0022937D01*
X0108134Y0022906D01*
X0108012Y0022878D01*
X0107890Y0022855D01*
X0107766Y0022835D01*
X0107642Y0022819D01*
X0107518Y0022807D01*
X0107393Y0022799D01*
X0107268Y0022795D01*
X0107144Y0022795D01*
X0107019Y0022799D01*
X0106894Y0022807D01*
X0106770Y0022819D01*
X0106646Y0022835D01*
X0106522Y0022855D01*
X0106400Y0022878D01*
X0106278Y0022906D01*
X0106157Y0022937D01*
X0106037Y0022973D01*
X0105918Y0023012D01*
X0105801Y0023054D01*
X0105685Y0023101D01*
X0105571Y0023151D01*
X0105458Y0023204D01*
X0105347Y0023262D01*
X0105237Y0023322D01*
X0105130Y0023387D01*
X0105025Y0023454D01*
X0104922Y0023525D01*
X0104822Y0023599D01*
X0104724Y0023676D01*
X0104628Y0023757D01*
X0104535Y0023840D01*
X0104444Y0023926D01*
X0104357Y0024015D01*
X0104272Y0024107D01*
X0104190Y0024201D01*
X0104111Y0024298D01*
X0104036Y0024398D01*
X0103963Y0024499D01*
X0103894Y0024603D01*
X0103828Y0024710D01*
X0103766Y0024818D01*
X0103707Y0024928D01*
X0103651Y0025040D01*
X0103599Y0025154D01*
X0103551Y0025269D01*
X0103506Y0025385D01*
X0103466Y0025504D01*
X0103428Y0025623D01*
X0103395Y0025743D01*
X0103366Y0025865D01*
X0103340Y0025987D01*
X0103318Y0026110D01*
X0103301Y0026234D01*
X0103287Y0026358D01*
X0103277Y0026482D01*
X0103271Y0026607D01*
X0103269Y0026732D01*
X0143426Y0026732D02*
X0143428Y0026857D01*
X0143434Y0026982D01*
X0143444Y0027106D01*
X0143458Y0027230D01*
X0143475Y0027354D01*
X0143497Y0027477D01*
X0143523Y0027599D01*
X0143552Y0027721D01*
X0143585Y0027841D01*
X0143623Y0027960D01*
X0143663Y0028079D01*
X0143708Y0028195D01*
X0143756Y0028310D01*
X0143808Y0028424D01*
X0143864Y0028536D01*
X0143923Y0028646D01*
X0143985Y0028754D01*
X0144051Y0028861D01*
X0144120Y0028965D01*
X0144193Y0029066D01*
X0144268Y0029166D01*
X0144347Y0029263D01*
X0144429Y0029357D01*
X0144514Y0029449D01*
X0144601Y0029538D01*
X0144692Y0029624D01*
X0144785Y0029707D01*
X0144881Y0029788D01*
X0144979Y0029865D01*
X0145079Y0029939D01*
X0145182Y0030010D01*
X0145287Y0030077D01*
X0145395Y0030142D01*
X0145504Y0030202D01*
X0145615Y0030260D01*
X0145728Y0030313D01*
X0145842Y0030363D01*
X0145958Y0030410D01*
X0146075Y0030452D01*
X0146194Y0030491D01*
X0146314Y0030527D01*
X0146435Y0030558D01*
X0146557Y0030586D01*
X0146679Y0030609D01*
X0146803Y0030629D01*
X0146927Y0030645D01*
X0147051Y0030657D01*
X0147176Y0030665D01*
X0147301Y0030669D01*
X0147425Y0030669D01*
X0147550Y0030665D01*
X0147675Y0030657D01*
X0147799Y0030645D01*
X0147923Y0030629D01*
X0148047Y0030609D01*
X0148169Y0030586D01*
X0148291Y0030558D01*
X0148412Y0030527D01*
X0148532Y0030491D01*
X0148651Y0030452D01*
X0148768Y0030410D01*
X0148884Y0030363D01*
X0148998Y0030313D01*
X0149111Y0030260D01*
X0149222Y0030202D01*
X0149332Y0030142D01*
X0149439Y0030077D01*
X0149544Y0030010D01*
X0149647Y0029939D01*
X0149747Y0029865D01*
X0149845Y0029788D01*
X0149941Y0029707D01*
X0150034Y0029624D01*
X0150125Y0029538D01*
X0150212Y0029449D01*
X0150297Y0029357D01*
X0150379Y0029263D01*
X0150458Y0029166D01*
X0150533Y0029066D01*
X0150606Y0028965D01*
X0150675Y0028861D01*
X0150741Y0028754D01*
X0150803Y0028646D01*
X0150862Y0028536D01*
X0150918Y0028424D01*
X0150970Y0028310D01*
X0151018Y0028195D01*
X0151063Y0028079D01*
X0151103Y0027960D01*
X0151141Y0027841D01*
X0151174Y0027721D01*
X0151203Y0027599D01*
X0151229Y0027477D01*
X0151251Y0027354D01*
X0151268Y0027230D01*
X0151282Y0027106D01*
X0151292Y0026982D01*
X0151298Y0026857D01*
X0151300Y0026732D01*
X0151298Y0026607D01*
X0151292Y0026482D01*
X0151282Y0026358D01*
X0151268Y0026234D01*
X0151251Y0026110D01*
X0151229Y0025987D01*
X0151203Y0025865D01*
X0151174Y0025743D01*
X0151141Y0025623D01*
X0151103Y0025504D01*
X0151063Y0025385D01*
X0151018Y0025269D01*
X0150970Y0025154D01*
X0150918Y0025040D01*
X0150862Y0024928D01*
X0150803Y0024818D01*
X0150741Y0024710D01*
X0150675Y0024603D01*
X0150606Y0024499D01*
X0150533Y0024398D01*
X0150458Y0024298D01*
X0150379Y0024201D01*
X0150297Y0024107D01*
X0150212Y0024015D01*
X0150125Y0023926D01*
X0150034Y0023840D01*
X0149941Y0023757D01*
X0149845Y0023676D01*
X0149747Y0023599D01*
X0149647Y0023525D01*
X0149544Y0023454D01*
X0149439Y0023387D01*
X0149331Y0023322D01*
X0149222Y0023262D01*
X0149111Y0023204D01*
X0148998Y0023151D01*
X0148884Y0023101D01*
X0148768Y0023054D01*
X0148651Y0023012D01*
X0148532Y0022973D01*
X0148412Y0022937D01*
X0148291Y0022906D01*
X0148169Y0022878D01*
X0148047Y0022855D01*
X0147923Y0022835D01*
X0147799Y0022819D01*
X0147675Y0022807D01*
X0147550Y0022799D01*
X0147425Y0022795D01*
X0147301Y0022795D01*
X0147176Y0022799D01*
X0147051Y0022807D01*
X0146927Y0022819D01*
X0146803Y0022835D01*
X0146679Y0022855D01*
X0146557Y0022878D01*
X0146435Y0022906D01*
X0146314Y0022937D01*
X0146194Y0022973D01*
X0146075Y0023012D01*
X0145958Y0023054D01*
X0145842Y0023101D01*
X0145728Y0023151D01*
X0145615Y0023204D01*
X0145504Y0023262D01*
X0145394Y0023322D01*
X0145287Y0023387D01*
X0145182Y0023454D01*
X0145079Y0023525D01*
X0144979Y0023599D01*
X0144881Y0023676D01*
X0144785Y0023757D01*
X0144692Y0023840D01*
X0144601Y0023926D01*
X0144514Y0024015D01*
X0144429Y0024107D01*
X0144347Y0024201D01*
X0144268Y0024298D01*
X0144193Y0024398D01*
X0144120Y0024499D01*
X0144051Y0024603D01*
X0143985Y0024710D01*
X0143923Y0024818D01*
X0143864Y0024928D01*
X0143808Y0025040D01*
X0143756Y0025154D01*
X0143708Y0025269D01*
X0143663Y0025385D01*
X0143623Y0025504D01*
X0143585Y0025623D01*
X0143552Y0025743D01*
X0143523Y0025865D01*
X0143497Y0025987D01*
X0143475Y0026110D01*
X0143458Y0026234D01*
X0143444Y0026358D01*
X0143434Y0026482D01*
X0143428Y0026607D01*
X0143426Y0026732D01*
X0163111Y0026732D02*
X0163113Y0026857D01*
X0163119Y0026982D01*
X0163129Y0027106D01*
X0163143Y0027230D01*
X0163160Y0027354D01*
X0163182Y0027477D01*
X0163208Y0027599D01*
X0163237Y0027721D01*
X0163270Y0027841D01*
X0163308Y0027960D01*
X0163348Y0028079D01*
X0163393Y0028195D01*
X0163441Y0028310D01*
X0163493Y0028424D01*
X0163549Y0028536D01*
X0163608Y0028646D01*
X0163670Y0028754D01*
X0163736Y0028861D01*
X0163805Y0028965D01*
X0163878Y0029066D01*
X0163953Y0029166D01*
X0164032Y0029263D01*
X0164114Y0029357D01*
X0164199Y0029449D01*
X0164286Y0029538D01*
X0164377Y0029624D01*
X0164470Y0029707D01*
X0164566Y0029788D01*
X0164664Y0029865D01*
X0164764Y0029939D01*
X0164867Y0030010D01*
X0164972Y0030077D01*
X0165080Y0030142D01*
X0165189Y0030202D01*
X0165300Y0030260D01*
X0165413Y0030313D01*
X0165527Y0030363D01*
X0165643Y0030410D01*
X0165760Y0030452D01*
X0165879Y0030491D01*
X0165999Y0030527D01*
X0166120Y0030558D01*
X0166242Y0030586D01*
X0166364Y0030609D01*
X0166488Y0030629D01*
X0166612Y0030645D01*
X0166736Y0030657D01*
X0166861Y0030665D01*
X0166986Y0030669D01*
X0167110Y0030669D01*
X0167235Y0030665D01*
X0167360Y0030657D01*
X0167484Y0030645D01*
X0167608Y0030629D01*
X0167732Y0030609D01*
X0167854Y0030586D01*
X0167976Y0030558D01*
X0168097Y0030527D01*
X0168217Y0030491D01*
X0168336Y0030452D01*
X0168453Y0030410D01*
X0168569Y0030363D01*
X0168683Y0030313D01*
X0168796Y0030260D01*
X0168907Y0030202D01*
X0169017Y0030142D01*
X0169124Y0030077D01*
X0169229Y0030010D01*
X0169332Y0029939D01*
X0169432Y0029865D01*
X0169530Y0029788D01*
X0169626Y0029707D01*
X0169719Y0029624D01*
X0169810Y0029538D01*
X0169897Y0029449D01*
X0169982Y0029357D01*
X0170064Y0029263D01*
X0170143Y0029166D01*
X0170218Y0029066D01*
X0170291Y0028965D01*
X0170360Y0028861D01*
X0170426Y0028754D01*
X0170488Y0028646D01*
X0170547Y0028536D01*
X0170603Y0028424D01*
X0170655Y0028310D01*
X0170703Y0028195D01*
X0170748Y0028079D01*
X0170788Y0027960D01*
X0170826Y0027841D01*
X0170859Y0027721D01*
X0170888Y0027599D01*
X0170914Y0027477D01*
X0170936Y0027354D01*
X0170953Y0027230D01*
X0170967Y0027106D01*
X0170977Y0026982D01*
X0170983Y0026857D01*
X0170985Y0026732D01*
X0170983Y0026607D01*
X0170977Y0026482D01*
X0170967Y0026358D01*
X0170953Y0026234D01*
X0170936Y0026110D01*
X0170914Y0025987D01*
X0170888Y0025865D01*
X0170859Y0025743D01*
X0170826Y0025623D01*
X0170788Y0025504D01*
X0170748Y0025385D01*
X0170703Y0025269D01*
X0170655Y0025154D01*
X0170603Y0025040D01*
X0170547Y0024928D01*
X0170488Y0024818D01*
X0170426Y0024710D01*
X0170360Y0024603D01*
X0170291Y0024499D01*
X0170218Y0024398D01*
X0170143Y0024298D01*
X0170064Y0024201D01*
X0169982Y0024107D01*
X0169897Y0024015D01*
X0169810Y0023926D01*
X0169719Y0023840D01*
X0169626Y0023757D01*
X0169530Y0023676D01*
X0169432Y0023599D01*
X0169332Y0023525D01*
X0169229Y0023454D01*
X0169124Y0023387D01*
X0169016Y0023322D01*
X0168907Y0023262D01*
X0168796Y0023204D01*
X0168683Y0023151D01*
X0168569Y0023101D01*
X0168453Y0023054D01*
X0168336Y0023012D01*
X0168217Y0022973D01*
X0168097Y0022937D01*
X0167976Y0022906D01*
X0167854Y0022878D01*
X0167732Y0022855D01*
X0167608Y0022835D01*
X0167484Y0022819D01*
X0167360Y0022807D01*
X0167235Y0022799D01*
X0167110Y0022795D01*
X0166986Y0022795D01*
X0166861Y0022799D01*
X0166736Y0022807D01*
X0166612Y0022819D01*
X0166488Y0022835D01*
X0166364Y0022855D01*
X0166242Y0022878D01*
X0166120Y0022906D01*
X0165999Y0022937D01*
X0165879Y0022973D01*
X0165760Y0023012D01*
X0165643Y0023054D01*
X0165527Y0023101D01*
X0165413Y0023151D01*
X0165300Y0023204D01*
X0165189Y0023262D01*
X0165079Y0023322D01*
X0164972Y0023387D01*
X0164867Y0023454D01*
X0164764Y0023525D01*
X0164664Y0023599D01*
X0164566Y0023676D01*
X0164470Y0023757D01*
X0164377Y0023840D01*
X0164286Y0023926D01*
X0164199Y0024015D01*
X0164114Y0024107D01*
X0164032Y0024201D01*
X0163953Y0024298D01*
X0163878Y0024398D01*
X0163805Y0024499D01*
X0163736Y0024603D01*
X0163670Y0024710D01*
X0163608Y0024818D01*
X0163549Y0024928D01*
X0163493Y0025040D01*
X0163441Y0025154D01*
X0163393Y0025269D01*
X0163348Y0025385D01*
X0163308Y0025504D01*
X0163270Y0025623D01*
X0163237Y0025743D01*
X0163208Y0025865D01*
X0163182Y0025987D01*
X0163160Y0026110D01*
X0163143Y0026234D01*
X0163129Y0026358D01*
X0163119Y0026482D01*
X0163113Y0026607D01*
X0163111Y0026732D01*
X0202481Y0026732D02*
X0202483Y0026857D01*
X0202489Y0026982D01*
X0202499Y0027106D01*
X0202513Y0027230D01*
X0202530Y0027354D01*
X0202552Y0027477D01*
X0202578Y0027599D01*
X0202607Y0027721D01*
X0202640Y0027841D01*
X0202678Y0027960D01*
X0202718Y0028079D01*
X0202763Y0028195D01*
X0202811Y0028310D01*
X0202863Y0028424D01*
X0202919Y0028536D01*
X0202978Y0028646D01*
X0203040Y0028754D01*
X0203106Y0028861D01*
X0203175Y0028965D01*
X0203248Y0029066D01*
X0203323Y0029166D01*
X0203402Y0029263D01*
X0203484Y0029357D01*
X0203569Y0029449D01*
X0203656Y0029538D01*
X0203747Y0029624D01*
X0203840Y0029707D01*
X0203936Y0029788D01*
X0204034Y0029865D01*
X0204134Y0029939D01*
X0204237Y0030010D01*
X0204342Y0030077D01*
X0204450Y0030142D01*
X0204559Y0030202D01*
X0204670Y0030260D01*
X0204783Y0030313D01*
X0204897Y0030363D01*
X0205013Y0030410D01*
X0205130Y0030452D01*
X0205249Y0030491D01*
X0205369Y0030527D01*
X0205490Y0030558D01*
X0205612Y0030586D01*
X0205734Y0030609D01*
X0205858Y0030629D01*
X0205982Y0030645D01*
X0206106Y0030657D01*
X0206231Y0030665D01*
X0206356Y0030669D01*
X0206480Y0030669D01*
X0206605Y0030665D01*
X0206730Y0030657D01*
X0206854Y0030645D01*
X0206978Y0030629D01*
X0207102Y0030609D01*
X0207224Y0030586D01*
X0207346Y0030558D01*
X0207467Y0030527D01*
X0207587Y0030491D01*
X0207706Y0030452D01*
X0207823Y0030410D01*
X0207939Y0030363D01*
X0208053Y0030313D01*
X0208166Y0030260D01*
X0208277Y0030202D01*
X0208387Y0030142D01*
X0208494Y0030077D01*
X0208599Y0030010D01*
X0208702Y0029939D01*
X0208802Y0029865D01*
X0208900Y0029788D01*
X0208996Y0029707D01*
X0209089Y0029624D01*
X0209180Y0029538D01*
X0209267Y0029449D01*
X0209352Y0029357D01*
X0209434Y0029263D01*
X0209513Y0029166D01*
X0209588Y0029066D01*
X0209661Y0028965D01*
X0209730Y0028861D01*
X0209796Y0028754D01*
X0209858Y0028646D01*
X0209917Y0028536D01*
X0209973Y0028424D01*
X0210025Y0028310D01*
X0210073Y0028195D01*
X0210118Y0028079D01*
X0210158Y0027960D01*
X0210196Y0027841D01*
X0210229Y0027721D01*
X0210258Y0027599D01*
X0210284Y0027477D01*
X0210306Y0027354D01*
X0210323Y0027230D01*
X0210337Y0027106D01*
X0210347Y0026982D01*
X0210353Y0026857D01*
X0210355Y0026732D01*
X0210353Y0026607D01*
X0210347Y0026482D01*
X0210337Y0026358D01*
X0210323Y0026234D01*
X0210306Y0026110D01*
X0210284Y0025987D01*
X0210258Y0025865D01*
X0210229Y0025743D01*
X0210196Y0025623D01*
X0210158Y0025504D01*
X0210118Y0025385D01*
X0210073Y0025269D01*
X0210025Y0025154D01*
X0209973Y0025040D01*
X0209917Y0024928D01*
X0209858Y0024818D01*
X0209796Y0024710D01*
X0209730Y0024603D01*
X0209661Y0024499D01*
X0209588Y0024398D01*
X0209513Y0024298D01*
X0209434Y0024201D01*
X0209352Y0024107D01*
X0209267Y0024015D01*
X0209180Y0023926D01*
X0209089Y0023840D01*
X0208996Y0023757D01*
X0208900Y0023676D01*
X0208802Y0023599D01*
X0208702Y0023525D01*
X0208599Y0023454D01*
X0208494Y0023387D01*
X0208386Y0023322D01*
X0208277Y0023262D01*
X0208166Y0023204D01*
X0208053Y0023151D01*
X0207939Y0023101D01*
X0207823Y0023054D01*
X0207706Y0023012D01*
X0207587Y0022973D01*
X0207467Y0022937D01*
X0207346Y0022906D01*
X0207224Y0022878D01*
X0207102Y0022855D01*
X0206978Y0022835D01*
X0206854Y0022819D01*
X0206730Y0022807D01*
X0206605Y0022799D01*
X0206480Y0022795D01*
X0206356Y0022795D01*
X0206231Y0022799D01*
X0206106Y0022807D01*
X0205982Y0022819D01*
X0205858Y0022835D01*
X0205734Y0022855D01*
X0205612Y0022878D01*
X0205490Y0022906D01*
X0205369Y0022937D01*
X0205249Y0022973D01*
X0205130Y0023012D01*
X0205013Y0023054D01*
X0204897Y0023101D01*
X0204783Y0023151D01*
X0204670Y0023204D01*
X0204559Y0023262D01*
X0204449Y0023322D01*
X0204342Y0023387D01*
X0204237Y0023454D01*
X0204134Y0023525D01*
X0204034Y0023599D01*
X0203936Y0023676D01*
X0203840Y0023757D01*
X0203747Y0023840D01*
X0203656Y0023926D01*
X0203569Y0024015D01*
X0203484Y0024107D01*
X0203402Y0024201D01*
X0203323Y0024298D01*
X0203248Y0024398D01*
X0203175Y0024499D01*
X0203106Y0024603D01*
X0203040Y0024710D01*
X0202978Y0024818D01*
X0202919Y0024928D01*
X0202863Y0025040D01*
X0202811Y0025154D01*
X0202763Y0025269D01*
X0202718Y0025385D01*
X0202678Y0025504D01*
X0202640Y0025623D01*
X0202607Y0025743D01*
X0202578Y0025865D01*
X0202552Y0025987D01*
X0202530Y0026110D01*
X0202513Y0026234D01*
X0202499Y0026358D01*
X0202489Y0026482D01*
X0202483Y0026607D01*
X0202481Y0026732D01*
X0222166Y0026732D02*
X0222168Y0026857D01*
X0222174Y0026982D01*
X0222184Y0027106D01*
X0222198Y0027230D01*
X0222215Y0027354D01*
X0222237Y0027477D01*
X0222263Y0027599D01*
X0222292Y0027721D01*
X0222325Y0027841D01*
X0222363Y0027960D01*
X0222403Y0028079D01*
X0222448Y0028195D01*
X0222496Y0028310D01*
X0222548Y0028424D01*
X0222604Y0028536D01*
X0222663Y0028646D01*
X0222725Y0028754D01*
X0222791Y0028861D01*
X0222860Y0028965D01*
X0222933Y0029066D01*
X0223008Y0029166D01*
X0223087Y0029263D01*
X0223169Y0029357D01*
X0223254Y0029449D01*
X0223341Y0029538D01*
X0223432Y0029624D01*
X0223525Y0029707D01*
X0223621Y0029788D01*
X0223719Y0029865D01*
X0223819Y0029939D01*
X0223922Y0030010D01*
X0224027Y0030077D01*
X0224135Y0030142D01*
X0224244Y0030202D01*
X0224355Y0030260D01*
X0224468Y0030313D01*
X0224582Y0030363D01*
X0224698Y0030410D01*
X0224815Y0030452D01*
X0224934Y0030491D01*
X0225054Y0030527D01*
X0225175Y0030558D01*
X0225297Y0030586D01*
X0225419Y0030609D01*
X0225543Y0030629D01*
X0225667Y0030645D01*
X0225791Y0030657D01*
X0225916Y0030665D01*
X0226041Y0030669D01*
X0226165Y0030669D01*
X0226290Y0030665D01*
X0226415Y0030657D01*
X0226539Y0030645D01*
X0226663Y0030629D01*
X0226787Y0030609D01*
X0226909Y0030586D01*
X0227031Y0030558D01*
X0227152Y0030527D01*
X0227272Y0030491D01*
X0227391Y0030452D01*
X0227508Y0030410D01*
X0227624Y0030363D01*
X0227738Y0030313D01*
X0227851Y0030260D01*
X0227962Y0030202D01*
X0228072Y0030142D01*
X0228179Y0030077D01*
X0228284Y0030010D01*
X0228387Y0029939D01*
X0228487Y0029865D01*
X0228585Y0029788D01*
X0228681Y0029707D01*
X0228774Y0029624D01*
X0228865Y0029538D01*
X0228952Y0029449D01*
X0229037Y0029357D01*
X0229119Y0029263D01*
X0229198Y0029166D01*
X0229273Y0029066D01*
X0229346Y0028965D01*
X0229415Y0028861D01*
X0229481Y0028754D01*
X0229543Y0028646D01*
X0229602Y0028536D01*
X0229658Y0028424D01*
X0229710Y0028310D01*
X0229758Y0028195D01*
X0229803Y0028079D01*
X0229843Y0027960D01*
X0229881Y0027841D01*
X0229914Y0027721D01*
X0229943Y0027599D01*
X0229969Y0027477D01*
X0229991Y0027354D01*
X0230008Y0027230D01*
X0230022Y0027106D01*
X0230032Y0026982D01*
X0230038Y0026857D01*
X0230040Y0026732D01*
X0230038Y0026607D01*
X0230032Y0026482D01*
X0230022Y0026358D01*
X0230008Y0026234D01*
X0229991Y0026110D01*
X0229969Y0025987D01*
X0229943Y0025865D01*
X0229914Y0025743D01*
X0229881Y0025623D01*
X0229843Y0025504D01*
X0229803Y0025385D01*
X0229758Y0025269D01*
X0229710Y0025154D01*
X0229658Y0025040D01*
X0229602Y0024928D01*
X0229543Y0024818D01*
X0229481Y0024710D01*
X0229415Y0024603D01*
X0229346Y0024499D01*
X0229273Y0024398D01*
X0229198Y0024298D01*
X0229119Y0024201D01*
X0229037Y0024107D01*
X0228952Y0024015D01*
X0228865Y0023926D01*
X0228774Y0023840D01*
X0228681Y0023757D01*
X0228585Y0023676D01*
X0228487Y0023599D01*
X0228387Y0023525D01*
X0228284Y0023454D01*
X0228179Y0023387D01*
X0228071Y0023322D01*
X0227962Y0023262D01*
X0227851Y0023204D01*
X0227738Y0023151D01*
X0227624Y0023101D01*
X0227508Y0023054D01*
X0227391Y0023012D01*
X0227272Y0022973D01*
X0227152Y0022937D01*
X0227031Y0022906D01*
X0226909Y0022878D01*
X0226787Y0022855D01*
X0226663Y0022835D01*
X0226539Y0022819D01*
X0226415Y0022807D01*
X0226290Y0022799D01*
X0226165Y0022795D01*
X0226041Y0022795D01*
X0225916Y0022799D01*
X0225791Y0022807D01*
X0225667Y0022819D01*
X0225543Y0022835D01*
X0225419Y0022855D01*
X0225297Y0022878D01*
X0225175Y0022906D01*
X0225054Y0022937D01*
X0224934Y0022973D01*
X0224815Y0023012D01*
X0224698Y0023054D01*
X0224582Y0023101D01*
X0224468Y0023151D01*
X0224355Y0023204D01*
X0224244Y0023262D01*
X0224134Y0023322D01*
X0224027Y0023387D01*
X0223922Y0023454D01*
X0223819Y0023525D01*
X0223719Y0023599D01*
X0223621Y0023676D01*
X0223525Y0023757D01*
X0223432Y0023840D01*
X0223341Y0023926D01*
X0223254Y0024015D01*
X0223169Y0024107D01*
X0223087Y0024201D01*
X0223008Y0024298D01*
X0222933Y0024398D01*
X0222860Y0024499D01*
X0222791Y0024603D01*
X0222725Y0024710D01*
X0222663Y0024818D01*
X0222604Y0024928D01*
X0222548Y0025040D01*
X0222496Y0025154D01*
X0222448Y0025269D01*
X0222403Y0025385D01*
X0222363Y0025504D01*
X0222325Y0025623D01*
X0222292Y0025743D01*
X0222263Y0025865D01*
X0222237Y0025987D01*
X0222215Y0026110D01*
X0222198Y0026234D01*
X0222184Y0026358D01*
X0222174Y0026482D01*
X0222168Y0026607D01*
X0222166Y0026732D01*
D14*
X0131811Y0051339D02*
X0131813Y0051427D01*
X0131819Y0051515D01*
X0131829Y0051603D01*
X0131843Y0051691D01*
X0131860Y0051777D01*
X0131882Y0051863D01*
X0131907Y0051947D01*
X0131937Y0052031D01*
X0131969Y0052113D01*
X0132006Y0052193D01*
X0132046Y0052272D01*
X0132090Y0052349D01*
X0132137Y0052424D01*
X0132187Y0052496D01*
X0132241Y0052567D01*
X0132297Y0052634D01*
X0132357Y0052700D01*
X0132419Y0052762D01*
X0132485Y0052822D01*
X0132552Y0052878D01*
X0132623Y0052932D01*
X0132695Y0052982D01*
X0132770Y0053029D01*
X0132847Y0053073D01*
X0132926Y0053113D01*
X0133006Y0053150D01*
X0133088Y0053182D01*
X0133172Y0053212D01*
X0133256Y0053237D01*
X0133342Y0053259D01*
X0133428Y0053276D01*
X0133516Y0053290D01*
X0133604Y0053300D01*
X0133692Y0053306D01*
X0133780Y0053308D01*
X0133868Y0053306D01*
X0133956Y0053300D01*
X0134044Y0053290D01*
X0134132Y0053276D01*
X0134218Y0053259D01*
X0134304Y0053237D01*
X0134388Y0053212D01*
X0134472Y0053182D01*
X0134554Y0053150D01*
X0134634Y0053113D01*
X0134713Y0053073D01*
X0134790Y0053029D01*
X0134865Y0052982D01*
X0134937Y0052932D01*
X0135008Y0052878D01*
X0135075Y0052822D01*
X0135141Y0052762D01*
X0135203Y0052700D01*
X0135263Y0052634D01*
X0135319Y0052567D01*
X0135373Y0052496D01*
X0135423Y0052424D01*
X0135470Y0052349D01*
X0135514Y0052272D01*
X0135554Y0052193D01*
X0135591Y0052113D01*
X0135623Y0052031D01*
X0135653Y0051947D01*
X0135678Y0051863D01*
X0135700Y0051777D01*
X0135717Y0051691D01*
X0135731Y0051603D01*
X0135741Y0051515D01*
X0135747Y0051427D01*
X0135749Y0051339D01*
X0135747Y0051251D01*
X0135741Y0051163D01*
X0135731Y0051075D01*
X0135717Y0050987D01*
X0135700Y0050901D01*
X0135678Y0050815D01*
X0135653Y0050731D01*
X0135623Y0050647D01*
X0135591Y0050565D01*
X0135554Y0050485D01*
X0135514Y0050406D01*
X0135470Y0050329D01*
X0135423Y0050254D01*
X0135373Y0050182D01*
X0135319Y0050111D01*
X0135263Y0050044D01*
X0135203Y0049978D01*
X0135141Y0049916D01*
X0135075Y0049856D01*
X0135008Y0049800D01*
X0134937Y0049746D01*
X0134865Y0049696D01*
X0134790Y0049649D01*
X0134713Y0049605D01*
X0134634Y0049565D01*
X0134554Y0049528D01*
X0134472Y0049496D01*
X0134388Y0049466D01*
X0134304Y0049441D01*
X0134218Y0049419D01*
X0134132Y0049402D01*
X0134044Y0049388D01*
X0133956Y0049378D01*
X0133868Y0049372D01*
X0133780Y0049370D01*
X0133692Y0049372D01*
X0133604Y0049378D01*
X0133516Y0049388D01*
X0133428Y0049402D01*
X0133342Y0049419D01*
X0133256Y0049441D01*
X0133172Y0049466D01*
X0133088Y0049496D01*
X0133006Y0049528D01*
X0132926Y0049565D01*
X0132847Y0049605D01*
X0132770Y0049649D01*
X0132695Y0049696D01*
X0132623Y0049746D01*
X0132552Y0049800D01*
X0132485Y0049856D01*
X0132419Y0049916D01*
X0132357Y0049978D01*
X0132297Y0050044D01*
X0132241Y0050111D01*
X0132187Y0050182D01*
X0132137Y0050254D01*
X0132090Y0050329D01*
X0132046Y0050406D01*
X0132006Y0050485D01*
X0131969Y0050565D01*
X0131937Y0050647D01*
X0131907Y0050731D01*
X0131882Y0050815D01*
X0131860Y0050901D01*
X0131843Y0050987D01*
X0131829Y0051075D01*
X0131819Y0051163D01*
X0131813Y0051251D01*
X0131811Y0051339D01*
X0118032Y0051339D02*
X0118034Y0051427D01*
X0118040Y0051515D01*
X0118050Y0051603D01*
X0118064Y0051691D01*
X0118081Y0051777D01*
X0118103Y0051863D01*
X0118128Y0051947D01*
X0118158Y0052031D01*
X0118190Y0052113D01*
X0118227Y0052193D01*
X0118267Y0052272D01*
X0118311Y0052349D01*
X0118358Y0052424D01*
X0118408Y0052496D01*
X0118462Y0052567D01*
X0118518Y0052634D01*
X0118578Y0052700D01*
X0118640Y0052762D01*
X0118706Y0052822D01*
X0118773Y0052878D01*
X0118844Y0052932D01*
X0118916Y0052982D01*
X0118991Y0053029D01*
X0119068Y0053073D01*
X0119147Y0053113D01*
X0119227Y0053150D01*
X0119309Y0053182D01*
X0119393Y0053212D01*
X0119477Y0053237D01*
X0119563Y0053259D01*
X0119649Y0053276D01*
X0119737Y0053290D01*
X0119825Y0053300D01*
X0119913Y0053306D01*
X0120001Y0053308D01*
X0120089Y0053306D01*
X0120177Y0053300D01*
X0120265Y0053290D01*
X0120353Y0053276D01*
X0120439Y0053259D01*
X0120525Y0053237D01*
X0120609Y0053212D01*
X0120693Y0053182D01*
X0120775Y0053150D01*
X0120855Y0053113D01*
X0120934Y0053073D01*
X0121011Y0053029D01*
X0121086Y0052982D01*
X0121158Y0052932D01*
X0121229Y0052878D01*
X0121296Y0052822D01*
X0121362Y0052762D01*
X0121424Y0052700D01*
X0121484Y0052634D01*
X0121540Y0052567D01*
X0121594Y0052496D01*
X0121644Y0052424D01*
X0121691Y0052349D01*
X0121735Y0052272D01*
X0121775Y0052193D01*
X0121812Y0052113D01*
X0121844Y0052031D01*
X0121874Y0051947D01*
X0121899Y0051863D01*
X0121921Y0051777D01*
X0121938Y0051691D01*
X0121952Y0051603D01*
X0121962Y0051515D01*
X0121968Y0051427D01*
X0121970Y0051339D01*
X0121968Y0051251D01*
X0121962Y0051163D01*
X0121952Y0051075D01*
X0121938Y0050987D01*
X0121921Y0050901D01*
X0121899Y0050815D01*
X0121874Y0050731D01*
X0121844Y0050647D01*
X0121812Y0050565D01*
X0121775Y0050485D01*
X0121735Y0050406D01*
X0121691Y0050329D01*
X0121644Y0050254D01*
X0121594Y0050182D01*
X0121540Y0050111D01*
X0121484Y0050044D01*
X0121424Y0049978D01*
X0121362Y0049916D01*
X0121296Y0049856D01*
X0121229Y0049800D01*
X0121158Y0049746D01*
X0121086Y0049696D01*
X0121011Y0049649D01*
X0120934Y0049605D01*
X0120855Y0049565D01*
X0120775Y0049528D01*
X0120693Y0049496D01*
X0120609Y0049466D01*
X0120525Y0049441D01*
X0120439Y0049419D01*
X0120353Y0049402D01*
X0120265Y0049388D01*
X0120177Y0049378D01*
X0120089Y0049372D01*
X0120001Y0049370D01*
X0119913Y0049372D01*
X0119825Y0049378D01*
X0119737Y0049388D01*
X0119649Y0049402D01*
X0119563Y0049419D01*
X0119477Y0049441D01*
X0119393Y0049466D01*
X0119309Y0049496D01*
X0119227Y0049528D01*
X0119147Y0049565D01*
X0119068Y0049605D01*
X0118991Y0049649D01*
X0118916Y0049696D01*
X0118844Y0049746D01*
X0118773Y0049800D01*
X0118706Y0049856D01*
X0118640Y0049916D01*
X0118578Y0049978D01*
X0118518Y0050044D01*
X0118462Y0050111D01*
X0118408Y0050182D01*
X0118358Y0050254D01*
X0118311Y0050329D01*
X0118267Y0050406D01*
X0118227Y0050485D01*
X0118190Y0050565D01*
X0118158Y0050647D01*
X0118128Y0050731D01*
X0118103Y0050815D01*
X0118081Y0050901D01*
X0118064Y0050987D01*
X0118050Y0051075D01*
X0118040Y0051163D01*
X0118034Y0051251D01*
X0118032Y0051339D01*
X0118032Y0069843D02*
X0118034Y0069931D01*
X0118040Y0070019D01*
X0118050Y0070107D01*
X0118064Y0070195D01*
X0118081Y0070281D01*
X0118103Y0070367D01*
X0118128Y0070451D01*
X0118158Y0070535D01*
X0118190Y0070617D01*
X0118227Y0070697D01*
X0118267Y0070776D01*
X0118311Y0070853D01*
X0118358Y0070928D01*
X0118408Y0071000D01*
X0118462Y0071071D01*
X0118518Y0071138D01*
X0118578Y0071204D01*
X0118640Y0071266D01*
X0118706Y0071326D01*
X0118773Y0071382D01*
X0118844Y0071436D01*
X0118916Y0071486D01*
X0118991Y0071533D01*
X0119068Y0071577D01*
X0119147Y0071617D01*
X0119227Y0071654D01*
X0119309Y0071686D01*
X0119393Y0071716D01*
X0119477Y0071741D01*
X0119563Y0071763D01*
X0119649Y0071780D01*
X0119737Y0071794D01*
X0119825Y0071804D01*
X0119913Y0071810D01*
X0120001Y0071812D01*
X0120089Y0071810D01*
X0120177Y0071804D01*
X0120265Y0071794D01*
X0120353Y0071780D01*
X0120439Y0071763D01*
X0120525Y0071741D01*
X0120609Y0071716D01*
X0120693Y0071686D01*
X0120775Y0071654D01*
X0120855Y0071617D01*
X0120934Y0071577D01*
X0121011Y0071533D01*
X0121086Y0071486D01*
X0121158Y0071436D01*
X0121229Y0071382D01*
X0121296Y0071326D01*
X0121362Y0071266D01*
X0121424Y0071204D01*
X0121484Y0071138D01*
X0121540Y0071071D01*
X0121594Y0071000D01*
X0121644Y0070928D01*
X0121691Y0070853D01*
X0121735Y0070776D01*
X0121775Y0070697D01*
X0121812Y0070617D01*
X0121844Y0070535D01*
X0121874Y0070451D01*
X0121899Y0070367D01*
X0121921Y0070281D01*
X0121938Y0070195D01*
X0121952Y0070107D01*
X0121962Y0070019D01*
X0121968Y0069931D01*
X0121970Y0069843D01*
X0121968Y0069755D01*
X0121962Y0069667D01*
X0121952Y0069579D01*
X0121938Y0069491D01*
X0121921Y0069405D01*
X0121899Y0069319D01*
X0121874Y0069235D01*
X0121844Y0069151D01*
X0121812Y0069069D01*
X0121775Y0068989D01*
X0121735Y0068910D01*
X0121691Y0068833D01*
X0121644Y0068758D01*
X0121594Y0068686D01*
X0121540Y0068615D01*
X0121484Y0068548D01*
X0121424Y0068482D01*
X0121362Y0068420D01*
X0121296Y0068360D01*
X0121229Y0068304D01*
X0121158Y0068250D01*
X0121086Y0068200D01*
X0121011Y0068153D01*
X0120934Y0068109D01*
X0120855Y0068069D01*
X0120775Y0068032D01*
X0120693Y0068000D01*
X0120609Y0067970D01*
X0120525Y0067945D01*
X0120439Y0067923D01*
X0120353Y0067906D01*
X0120265Y0067892D01*
X0120177Y0067882D01*
X0120089Y0067876D01*
X0120001Y0067874D01*
X0119913Y0067876D01*
X0119825Y0067882D01*
X0119737Y0067892D01*
X0119649Y0067906D01*
X0119563Y0067923D01*
X0119477Y0067945D01*
X0119393Y0067970D01*
X0119309Y0068000D01*
X0119227Y0068032D01*
X0119147Y0068069D01*
X0119068Y0068109D01*
X0118991Y0068153D01*
X0118916Y0068200D01*
X0118844Y0068250D01*
X0118773Y0068304D01*
X0118706Y0068360D01*
X0118640Y0068420D01*
X0118578Y0068482D01*
X0118518Y0068548D01*
X0118462Y0068615D01*
X0118408Y0068686D01*
X0118358Y0068758D01*
X0118311Y0068833D01*
X0118267Y0068910D01*
X0118227Y0068989D01*
X0118190Y0069069D01*
X0118158Y0069151D01*
X0118128Y0069235D01*
X0118103Y0069319D01*
X0118081Y0069405D01*
X0118064Y0069491D01*
X0118050Y0069579D01*
X0118040Y0069667D01*
X0118034Y0069755D01*
X0118032Y0069843D01*
X0118032Y0081260D02*
X0118034Y0081348D01*
X0118040Y0081436D01*
X0118050Y0081524D01*
X0118064Y0081612D01*
X0118081Y0081698D01*
X0118103Y0081784D01*
X0118128Y0081868D01*
X0118158Y0081952D01*
X0118190Y0082034D01*
X0118227Y0082114D01*
X0118267Y0082193D01*
X0118311Y0082270D01*
X0118358Y0082345D01*
X0118408Y0082417D01*
X0118462Y0082488D01*
X0118518Y0082555D01*
X0118578Y0082621D01*
X0118640Y0082683D01*
X0118706Y0082743D01*
X0118773Y0082799D01*
X0118844Y0082853D01*
X0118916Y0082903D01*
X0118991Y0082950D01*
X0119068Y0082994D01*
X0119147Y0083034D01*
X0119227Y0083071D01*
X0119309Y0083103D01*
X0119393Y0083133D01*
X0119477Y0083158D01*
X0119563Y0083180D01*
X0119649Y0083197D01*
X0119737Y0083211D01*
X0119825Y0083221D01*
X0119913Y0083227D01*
X0120001Y0083229D01*
X0120089Y0083227D01*
X0120177Y0083221D01*
X0120265Y0083211D01*
X0120353Y0083197D01*
X0120439Y0083180D01*
X0120525Y0083158D01*
X0120609Y0083133D01*
X0120693Y0083103D01*
X0120775Y0083071D01*
X0120855Y0083034D01*
X0120934Y0082994D01*
X0121011Y0082950D01*
X0121086Y0082903D01*
X0121158Y0082853D01*
X0121229Y0082799D01*
X0121296Y0082743D01*
X0121362Y0082683D01*
X0121424Y0082621D01*
X0121484Y0082555D01*
X0121540Y0082488D01*
X0121594Y0082417D01*
X0121644Y0082345D01*
X0121691Y0082270D01*
X0121735Y0082193D01*
X0121775Y0082114D01*
X0121812Y0082034D01*
X0121844Y0081952D01*
X0121874Y0081868D01*
X0121899Y0081784D01*
X0121921Y0081698D01*
X0121938Y0081612D01*
X0121952Y0081524D01*
X0121962Y0081436D01*
X0121968Y0081348D01*
X0121970Y0081260D01*
X0121968Y0081172D01*
X0121962Y0081084D01*
X0121952Y0080996D01*
X0121938Y0080908D01*
X0121921Y0080822D01*
X0121899Y0080736D01*
X0121874Y0080652D01*
X0121844Y0080568D01*
X0121812Y0080486D01*
X0121775Y0080406D01*
X0121735Y0080327D01*
X0121691Y0080250D01*
X0121644Y0080175D01*
X0121594Y0080103D01*
X0121540Y0080032D01*
X0121484Y0079965D01*
X0121424Y0079899D01*
X0121362Y0079837D01*
X0121296Y0079777D01*
X0121229Y0079721D01*
X0121158Y0079667D01*
X0121086Y0079617D01*
X0121011Y0079570D01*
X0120934Y0079526D01*
X0120855Y0079486D01*
X0120775Y0079449D01*
X0120693Y0079417D01*
X0120609Y0079387D01*
X0120525Y0079362D01*
X0120439Y0079340D01*
X0120353Y0079323D01*
X0120265Y0079309D01*
X0120177Y0079299D01*
X0120089Y0079293D01*
X0120001Y0079291D01*
X0119913Y0079293D01*
X0119825Y0079299D01*
X0119737Y0079309D01*
X0119649Y0079323D01*
X0119563Y0079340D01*
X0119477Y0079362D01*
X0119393Y0079387D01*
X0119309Y0079417D01*
X0119227Y0079449D01*
X0119147Y0079486D01*
X0119068Y0079526D01*
X0118991Y0079570D01*
X0118916Y0079617D01*
X0118844Y0079667D01*
X0118773Y0079721D01*
X0118706Y0079777D01*
X0118640Y0079837D01*
X0118578Y0079899D01*
X0118518Y0079965D01*
X0118462Y0080032D01*
X0118408Y0080103D01*
X0118358Y0080175D01*
X0118311Y0080250D01*
X0118267Y0080327D01*
X0118227Y0080406D01*
X0118190Y0080486D01*
X0118158Y0080568D01*
X0118128Y0080652D01*
X0118103Y0080736D01*
X0118081Y0080822D01*
X0118064Y0080908D01*
X0118050Y0080996D01*
X0118040Y0081084D01*
X0118034Y0081172D01*
X0118032Y0081260D01*
X0118032Y0099764D02*
X0118034Y0099852D01*
X0118040Y0099940D01*
X0118050Y0100028D01*
X0118064Y0100116D01*
X0118081Y0100202D01*
X0118103Y0100288D01*
X0118128Y0100372D01*
X0118158Y0100456D01*
X0118190Y0100538D01*
X0118227Y0100618D01*
X0118267Y0100697D01*
X0118311Y0100774D01*
X0118358Y0100849D01*
X0118408Y0100921D01*
X0118462Y0100992D01*
X0118518Y0101059D01*
X0118578Y0101125D01*
X0118640Y0101187D01*
X0118706Y0101247D01*
X0118773Y0101303D01*
X0118844Y0101357D01*
X0118916Y0101407D01*
X0118991Y0101454D01*
X0119068Y0101498D01*
X0119147Y0101538D01*
X0119227Y0101575D01*
X0119309Y0101607D01*
X0119393Y0101637D01*
X0119477Y0101662D01*
X0119563Y0101684D01*
X0119649Y0101701D01*
X0119737Y0101715D01*
X0119825Y0101725D01*
X0119913Y0101731D01*
X0120001Y0101733D01*
X0120089Y0101731D01*
X0120177Y0101725D01*
X0120265Y0101715D01*
X0120353Y0101701D01*
X0120439Y0101684D01*
X0120525Y0101662D01*
X0120609Y0101637D01*
X0120693Y0101607D01*
X0120775Y0101575D01*
X0120855Y0101538D01*
X0120934Y0101498D01*
X0121011Y0101454D01*
X0121086Y0101407D01*
X0121158Y0101357D01*
X0121229Y0101303D01*
X0121296Y0101247D01*
X0121362Y0101187D01*
X0121424Y0101125D01*
X0121484Y0101059D01*
X0121540Y0100992D01*
X0121594Y0100921D01*
X0121644Y0100849D01*
X0121691Y0100774D01*
X0121735Y0100697D01*
X0121775Y0100618D01*
X0121812Y0100538D01*
X0121844Y0100456D01*
X0121874Y0100372D01*
X0121899Y0100288D01*
X0121921Y0100202D01*
X0121938Y0100116D01*
X0121952Y0100028D01*
X0121962Y0099940D01*
X0121968Y0099852D01*
X0121970Y0099764D01*
X0121968Y0099676D01*
X0121962Y0099588D01*
X0121952Y0099500D01*
X0121938Y0099412D01*
X0121921Y0099326D01*
X0121899Y0099240D01*
X0121874Y0099156D01*
X0121844Y0099072D01*
X0121812Y0098990D01*
X0121775Y0098910D01*
X0121735Y0098831D01*
X0121691Y0098754D01*
X0121644Y0098679D01*
X0121594Y0098607D01*
X0121540Y0098536D01*
X0121484Y0098469D01*
X0121424Y0098403D01*
X0121362Y0098341D01*
X0121296Y0098281D01*
X0121229Y0098225D01*
X0121158Y0098171D01*
X0121086Y0098121D01*
X0121011Y0098074D01*
X0120934Y0098030D01*
X0120855Y0097990D01*
X0120775Y0097953D01*
X0120693Y0097921D01*
X0120609Y0097891D01*
X0120525Y0097866D01*
X0120439Y0097844D01*
X0120353Y0097827D01*
X0120265Y0097813D01*
X0120177Y0097803D01*
X0120089Y0097797D01*
X0120001Y0097795D01*
X0119913Y0097797D01*
X0119825Y0097803D01*
X0119737Y0097813D01*
X0119649Y0097827D01*
X0119563Y0097844D01*
X0119477Y0097866D01*
X0119393Y0097891D01*
X0119309Y0097921D01*
X0119227Y0097953D01*
X0119147Y0097990D01*
X0119068Y0098030D01*
X0118991Y0098074D01*
X0118916Y0098121D01*
X0118844Y0098171D01*
X0118773Y0098225D01*
X0118706Y0098281D01*
X0118640Y0098341D01*
X0118578Y0098403D01*
X0118518Y0098469D01*
X0118462Y0098536D01*
X0118408Y0098607D01*
X0118358Y0098679D01*
X0118311Y0098754D01*
X0118267Y0098831D01*
X0118227Y0098910D01*
X0118190Y0098990D01*
X0118158Y0099072D01*
X0118128Y0099156D01*
X0118103Y0099240D01*
X0118081Y0099326D01*
X0118064Y0099412D01*
X0118050Y0099500D01*
X0118040Y0099588D01*
X0118034Y0099676D01*
X0118032Y0099764D01*
X0131811Y0099764D02*
X0131813Y0099852D01*
X0131819Y0099940D01*
X0131829Y0100028D01*
X0131843Y0100116D01*
X0131860Y0100202D01*
X0131882Y0100288D01*
X0131907Y0100372D01*
X0131937Y0100456D01*
X0131969Y0100538D01*
X0132006Y0100618D01*
X0132046Y0100697D01*
X0132090Y0100774D01*
X0132137Y0100849D01*
X0132187Y0100921D01*
X0132241Y0100992D01*
X0132297Y0101059D01*
X0132357Y0101125D01*
X0132419Y0101187D01*
X0132485Y0101247D01*
X0132552Y0101303D01*
X0132623Y0101357D01*
X0132695Y0101407D01*
X0132770Y0101454D01*
X0132847Y0101498D01*
X0132926Y0101538D01*
X0133006Y0101575D01*
X0133088Y0101607D01*
X0133172Y0101637D01*
X0133256Y0101662D01*
X0133342Y0101684D01*
X0133428Y0101701D01*
X0133516Y0101715D01*
X0133604Y0101725D01*
X0133692Y0101731D01*
X0133780Y0101733D01*
X0133868Y0101731D01*
X0133956Y0101725D01*
X0134044Y0101715D01*
X0134132Y0101701D01*
X0134218Y0101684D01*
X0134304Y0101662D01*
X0134388Y0101637D01*
X0134472Y0101607D01*
X0134554Y0101575D01*
X0134634Y0101538D01*
X0134713Y0101498D01*
X0134790Y0101454D01*
X0134865Y0101407D01*
X0134937Y0101357D01*
X0135008Y0101303D01*
X0135075Y0101247D01*
X0135141Y0101187D01*
X0135203Y0101125D01*
X0135263Y0101059D01*
X0135319Y0100992D01*
X0135373Y0100921D01*
X0135423Y0100849D01*
X0135470Y0100774D01*
X0135514Y0100697D01*
X0135554Y0100618D01*
X0135591Y0100538D01*
X0135623Y0100456D01*
X0135653Y0100372D01*
X0135678Y0100288D01*
X0135700Y0100202D01*
X0135717Y0100116D01*
X0135731Y0100028D01*
X0135741Y0099940D01*
X0135747Y0099852D01*
X0135749Y0099764D01*
X0135747Y0099676D01*
X0135741Y0099588D01*
X0135731Y0099500D01*
X0135717Y0099412D01*
X0135700Y0099326D01*
X0135678Y0099240D01*
X0135653Y0099156D01*
X0135623Y0099072D01*
X0135591Y0098990D01*
X0135554Y0098910D01*
X0135514Y0098831D01*
X0135470Y0098754D01*
X0135423Y0098679D01*
X0135373Y0098607D01*
X0135319Y0098536D01*
X0135263Y0098469D01*
X0135203Y0098403D01*
X0135141Y0098341D01*
X0135075Y0098281D01*
X0135008Y0098225D01*
X0134937Y0098171D01*
X0134865Y0098121D01*
X0134790Y0098074D01*
X0134713Y0098030D01*
X0134634Y0097990D01*
X0134554Y0097953D01*
X0134472Y0097921D01*
X0134388Y0097891D01*
X0134304Y0097866D01*
X0134218Y0097844D01*
X0134132Y0097827D01*
X0134044Y0097813D01*
X0133956Y0097803D01*
X0133868Y0097797D01*
X0133780Y0097795D01*
X0133692Y0097797D01*
X0133604Y0097803D01*
X0133516Y0097813D01*
X0133428Y0097827D01*
X0133342Y0097844D01*
X0133256Y0097866D01*
X0133172Y0097891D01*
X0133088Y0097921D01*
X0133006Y0097953D01*
X0132926Y0097990D01*
X0132847Y0098030D01*
X0132770Y0098074D01*
X0132695Y0098121D01*
X0132623Y0098171D01*
X0132552Y0098225D01*
X0132485Y0098281D01*
X0132419Y0098341D01*
X0132357Y0098403D01*
X0132297Y0098469D01*
X0132241Y0098536D01*
X0132187Y0098607D01*
X0132137Y0098679D01*
X0132090Y0098754D01*
X0132046Y0098831D01*
X0132006Y0098910D01*
X0131969Y0098990D01*
X0131937Y0099072D01*
X0131907Y0099156D01*
X0131882Y0099240D01*
X0131860Y0099326D01*
X0131843Y0099412D01*
X0131829Y0099500D01*
X0131819Y0099588D01*
X0131813Y0099676D01*
X0131811Y0099764D01*
X0131811Y0081260D02*
X0131813Y0081348D01*
X0131819Y0081436D01*
X0131829Y0081524D01*
X0131843Y0081612D01*
X0131860Y0081698D01*
X0131882Y0081784D01*
X0131907Y0081868D01*
X0131937Y0081952D01*
X0131969Y0082034D01*
X0132006Y0082114D01*
X0132046Y0082193D01*
X0132090Y0082270D01*
X0132137Y0082345D01*
X0132187Y0082417D01*
X0132241Y0082488D01*
X0132297Y0082555D01*
X0132357Y0082621D01*
X0132419Y0082683D01*
X0132485Y0082743D01*
X0132552Y0082799D01*
X0132623Y0082853D01*
X0132695Y0082903D01*
X0132770Y0082950D01*
X0132847Y0082994D01*
X0132926Y0083034D01*
X0133006Y0083071D01*
X0133088Y0083103D01*
X0133172Y0083133D01*
X0133256Y0083158D01*
X0133342Y0083180D01*
X0133428Y0083197D01*
X0133516Y0083211D01*
X0133604Y0083221D01*
X0133692Y0083227D01*
X0133780Y0083229D01*
X0133868Y0083227D01*
X0133956Y0083221D01*
X0134044Y0083211D01*
X0134132Y0083197D01*
X0134218Y0083180D01*
X0134304Y0083158D01*
X0134388Y0083133D01*
X0134472Y0083103D01*
X0134554Y0083071D01*
X0134634Y0083034D01*
X0134713Y0082994D01*
X0134790Y0082950D01*
X0134865Y0082903D01*
X0134937Y0082853D01*
X0135008Y0082799D01*
X0135075Y0082743D01*
X0135141Y0082683D01*
X0135203Y0082621D01*
X0135263Y0082555D01*
X0135319Y0082488D01*
X0135373Y0082417D01*
X0135423Y0082345D01*
X0135470Y0082270D01*
X0135514Y0082193D01*
X0135554Y0082114D01*
X0135591Y0082034D01*
X0135623Y0081952D01*
X0135653Y0081868D01*
X0135678Y0081784D01*
X0135700Y0081698D01*
X0135717Y0081612D01*
X0135731Y0081524D01*
X0135741Y0081436D01*
X0135747Y0081348D01*
X0135749Y0081260D01*
X0135747Y0081172D01*
X0135741Y0081084D01*
X0135731Y0080996D01*
X0135717Y0080908D01*
X0135700Y0080822D01*
X0135678Y0080736D01*
X0135653Y0080652D01*
X0135623Y0080568D01*
X0135591Y0080486D01*
X0135554Y0080406D01*
X0135514Y0080327D01*
X0135470Y0080250D01*
X0135423Y0080175D01*
X0135373Y0080103D01*
X0135319Y0080032D01*
X0135263Y0079965D01*
X0135203Y0079899D01*
X0135141Y0079837D01*
X0135075Y0079777D01*
X0135008Y0079721D01*
X0134937Y0079667D01*
X0134865Y0079617D01*
X0134790Y0079570D01*
X0134713Y0079526D01*
X0134634Y0079486D01*
X0134554Y0079449D01*
X0134472Y0079417D01*
X0134388Y0079387D01*
X0134304Y0079362D01*
X0134218Y0079340D01*
X0134132Y0079323D01*
X0134044Y0079309D01*
X0133956Y0079299D01*
X0133868Y0079293D01*
X0133780Y0079291D01*
X0133692Y0079293D01*
X0133604Y0079299D01*
X0133516Y0079309D01*
X0133428Y0079323D01*
X0133342Y0079340D01*
X0133256Y0079362D01*
X0133172Y0079387D01*
X0133088Y0079417D01*
X0133006Y0079449D01*
X0132926Y0079486D01*
X0132847Y0079526D01*
X0132770Y0079570D01*
X0132695Y0079617D01*
X0132623Y0079667D01*
X0132552Y0079721D01*
X0132485Y0079777D01*
X0132419Y0079837D01*
X0132357Y0079899D01*
X0132297Y0079965D01*
X0132241Y0080032D01*
X0132187Y0080103D01*
X0132137Y0080175D01*
X0132090Y0080250D01*
X0132046Y0080327D01*
X0132006Y0080406D01*
X0131969Y0080486D01*
X0131937Y0080568D01*
X0131907Y0080652D01*
X0131882Y0080736D01*
X0131860Y0080822D01*
X0131843Y0080908D01*
X0131829Y0080996D01*
X0131819Y0081084D01*
X0131813Y0081172D01*
X0131811Y0081260D01*
X0131811Y0069843D02*
X0131813Y0069931D01*
X0131819Y0070019D01*
X0131829Y0070107D01*
X0131843Y0070195D01*
X0131860Y0070281D01*
X0131882Y0070367D01*
X0131907Y0070451D01*
X0131937Y0070535D01*
X0131969Y0070617D01*
X0132006Y0070697D01*
X0132046Y0070776D01*
X0132090Y0070853D01*
X0132137Y0070928D01*
X0132187Y0071000D01*
X0132241Y0071071D01*
X0132297Y0071138D01*
X0132357Y0071204D01*
X0132419Y0071266D01*
X0132485Y0071326D01*
X0132552Y0071382D01*
X0132623Y0071436D01*
X0132695Y0071486D01*
X0132770Y0071533D01*
X0132847Y0071577D01*
X0132926Y0071617D01*
X0133006Y0071654D01*
X0133088Y0071686D01*
X0133172Y0071716D01*
X0133256Y0071741D01*
X0133342Y0071763D01*
X0133428Y0071780D01*
X0133516Y0071794D01*
X0133604Y0071804D01*
X0133692Y0071810D01*
X0133780Y0071812D01*
X0133868Y0071810D01*
X0133956Y0071804D01*
X0134044Y0071794D01*
X0134132Y0071780D01*
X0134218Y0071763D01*
X0134304Y0071741D01*
X0134388Y0071716D01*
X0134472Y0071686D01*
X0134554Y0071654D01*
X0134634Y0071617D01*
X0134713Y0071577D01*
X0134790Y0071533D01*
X0134865Y0071486D01*
X0134937Y0071436D01*
X0135008Y0071382D01*
X0135075Y0071326D01*
X0135141Y0071266D01*
X0135203Y0071204D01*
X0135263Y0071138D01*
X0135319Y0071071D01*
X0135373Y0071000D01*
X0135423Y0070928D01*
X0135470Y0070853D01*
X0135514Y0070776D01*
X0135554Y0070697D01*
X0135591Y0070617D01*
X0135623Y0070535D01*
X0135653Y0070451D01*
X0135678Y0070367D01*
X0135700Y0070281D01*
X0135717Y0070195D01*
X0135731Y0070107D01*
X0135741Y0070019D01*
X0135747Y0069931D01*
X0135749Y0069843D01*
X0135747Y0069755D01*
X0135741Y0069667D01*
X0135731Y0069579D01*
X0135717Y0069491D01*
X0135700Y0069405D01*
X0135678Y0069319D01*
X0135653Y0069235D01*
X0135623Y0069151D01*
X0135591Y0069069D01*
X0135554Y0068989D01*
X0135514Y0068910D01*
X0135470Y0068833D01*
X0135423Y0068758D01*
X0135373Y0068686D01*
X0135319Y0068615D01*
X0135263Y0068548D01*
X0135203Y0068482D01*
X0135141Y0068420D01*
X0135075Y0068360D01*
X0135008Y0068304D01*
X0134937Y0068250D01*
X0134865Y0068200D01*
X0134790Y0068153D01*
X0134713Y0068109D01*
X0134634Y0068069D01*
X0134554Y0068032D01*
X0134472Y0068000D01*
X0134388Y0067970D01*
X0134304Y0067945D01*
X0134218Y0067923D01*
X0134132Y0067906D01*
X0134044Y0067892D01*
X0133956Y0067882D01*
X0133868Y0067876D01*
X0133780Y0067874D01*
X0133692Y0067876D01*
X0133604Y0067882D01*
X0133516Y0067892D01*
X0133428Y0067906D01*
X0133342Y0067923D01*
X0133256Y0067945D01*
X0133172Y0067970D01*
X0133088Y0068000D01*
X0133006Y0068032D01*
X0132926Y0068069D01*
X0132847Y0068109D01*
X0132770Y0068153D01*
X0132695Y0068200D01*
X0132623Y0068250D01*
X0132552Y0068304D01*
X0132485Y0068360D01*
X0132419Y0068420D01*
X0132357Y0068482D01*
X0132297Y0068548D01*
X0132241Y0068615D01*
X0132187Y0068686D01*
X0132137Y0068758D01*
X0132090Y0068833D01*
X0132046Y0068910D01*
X0132006Y0068989D01*
X0131969Y0069069D01*
X0131937Y0069151D01*
X0131907Y0069235D01*
X0131882Y0069319D01*
X0131860Y0069405D01*
X0131843Y0069491D01*
X0131829Y0069579D01*
X0131819Y0069667D01*
X0131813Y0069755D01*
X0131811Y0069843D01*
D15*
X0175847Y0081260D02*
X0175849Y0081373D01*
X0175855Y0081486D01*
X0175865Y0081599D01*
X0175879Y0081712D01*
X0175897Y0081823D01*
X0175919Y0081935D01*
X0175944Y0082045D01*
X0175974Y0082154D01*
X0176008Y0082262D01*
X0176045Y0082369D01*
X0176086Y0082475D01*
X0176131Y0082579D01*
X0176179Y0082681D01*
X0176231Y0082782D01*
X0176286Y0082881D01*
X0176345Y0082978D01*
X0176408Y0083072D01*
X0176473Y0083164D01*
X0176542Y0083254D01*
X0176614Y0083342D01*
X0176689Y0083427D01*
X0176767Y0083509D01*
X0176848Y0083588D01*
X0176931Y0083665D01*
X0177017Y0083738D01*
X0177106Y0083809D01*
X0177197Y0083876D01*
X0177291Y0083940D01*
X0177387Y0084001D01*
X0177484Y0084058D01*
X0177584Y0084111D01*
X0177686Y0084162D01*
X0177789Y0084208D01*
X0177894Y0084251D01*
X0178000Y0084290D01*
X0178108Y0084326D01*
X0178216Y0084357D01*
X0178326Y0084385D01*
X0178437Y0084409D01*
X0178548Y0084429D01*
X0178661Y0084445D01*
X0178773Y0084457D01*
X0178886Y0084465D01*
X0178999Y0084469D01*
X0179113Y0084469D01*
X0179226Y0084465D01*
X0179339Y0084457D01*
X0179451Y0084445D01*
X0179564Y0084429D01*
X0179675Y0084409D01*
X0179786Y0084385D01*
X0179896Y0084357D01*
X0180004Y0084326D01*
X0180112Y0084290D01*
X0180218Y0084251D01*
X0180323Y0084208D01*
X0180426Y0084162D01*
X0180528Y0084111D01*
X0180628Y0084058D01*
X0180725Y0084001D01*
X0180821Y0083940D01*
X0180915Y0083876D01*
X0181006Y0083809D01*
X0181095Y0083738D01*
X0181181Y0083665D01*
X0181264Y0083588D01*
X0181345Y0083509D01*
X0181423Y0083427D01*
X0181498Y0083342D01*
X0181570Y0083254D01*
X0181639Y0083164D01*
X0181704Y0083072D01*
X0181767Y0082978D01*
X0181826Y0082881D01*
X0181881Y0082782D01*
X0181933Y0082681D01*
X0181981Y0082579D01*
X0182026Y0082475D01*
X0182067Y0082369D01*
X0182104Y0082262D01*
X0182138Y0082154D01*
X0182168Y0082045D01*
X0182193Y0081935D01*
X0182215Y0081823D01*
X0182233Y0081712D01*
X0182247Y0081599D01*
X0182257Y0081486D01*
X0182263Y0081373D01*
X0182265Y0081260D01*
X0182263Y0081147D01*
X0182257Y0081034D01*
X0182247Y0080921D01*
X0182233Y0080808D01*
X0182215Y0080697D01*
X0182193Y0080585D01*
X0182168Y0080475D01*
X0182138Y0080366D01*
X0182104Y0080258D01*
X0182067Y0080151D01*
X0182026Y0080045D01*
X0181981Y0079941D01*
X0181933Y0079839D01*
X0181881Y0079738D01*
X0181826Y0079639D01*
X0181767Y0079542D01*
X0181704Y0079448D01*
X0181639Y0079356D01*
X0181570Y0079266D01*
X0181498Y0079178D01*
X0181423Y0079093D01*
X0181345Y0079011D01*
X0181264Y0078932D01*
X0181181Y0078855D01*
X0181095Y0078782D01*
X0181006Y0078711D01*
X0180915Y0078644D01*
X0180821Y0078580D01*
X0180725Y0078519D01*
X0180628Y0078462D01*
X0180528Y0078409D01*
X0180426Y0078358D01*
X0180323Y0078312D01*
X0180218Y0078269D01*
X0180112Y0078230D01*
X0180004Y0078194D01*
X0179896Y0078163D01*
X0179786Y0078135D01*
X0179675Y0078111D01*
X0179564Y0078091D01*
X0179451Y0078075D01*
X0179339Y0078063D01*
X0179226Y0078055D01*
X0179113Y0078051D01*
X0178999Y0078051D01*
X0178886Y0078055D01*
X0178773Y0078063D01*
X0178661Y0078075D01*
X0178548Y0078091D01*
X0178437Y0078111D01*
X0178326Y0078135D01*
X0178216Y0078163D01*
X0178108Y0078194D01*
X0178000Y0078230D01*
X0177894Y0078269D01*
X0177789Y0078312D01*
X0177686Y0078358D01*
X0177584Y0078409D01*
X0177484Y0078462D01*
X0177387Y0078519D01*
X0177291Y0078580D01*
X0177197Y0078644D01*
X0177106Y0078711D01*
X0177017Y0078782D01*
X0176931Y0078855D01*
X0176848Y0078932D01*
X0176767Y0079011D01*
X0176689Y0079093D01*
X0176614Y0079178D01*
X0176542Y0079266D01*
X0176473Y0079356D01*
X0176408Y0079448D01*
X0176345Y0079542D01*
X0176286Y0079639D01*
X0176231Y0079738D01*
X0176179Y0079839D01*
X0176131Y0079941D01*
X0176086Y0080045D01*
X0176045Y0080151D01*
X0176008Y0080258D01*
X0175974Y0080366D01*
X0175944Y0080475D01*
X0175919Y0080585D01*
X0175897Y0080697D01*
X0175879Y0080808D01*
X0175865Y0080921D01*
X0175855Y0081034D01*
X0175849Y0081147D01*
X0175847Y0081260D01*
X0175847Y0051339D02*
X0175849Y0051452D01*
X0175855Y0051565D01*
X0175865Y0051678D01*
X0175879Y0051791D01*
X0175897Y0051902D01*
X0175919Y0052014D01*
X0175944Y0052124D01*
X0175974Y0052233D01*
X0176008Y0052341D01*
X0176045Y0052448D01*
X0176086Y0052554D01*
X0176131Y0052658D01*
X0176179Y0052760D01*
X0176231Y0052861D01*
X0176286Y0052960D01*
X0176345Y0053057D01*
X0176408Y0053151D01*
X0176473Y0053243D01*
X0176542Y0053333D01*
X0176614Y0053421D01*
X0176689Y0053506D01*
X0176767Y0053588D01*
X0176848Y0053667D01*
X0176931Y0053744D01*
X0177017Y0053817D01*
X0177106Y0053888D01*
X0177197Y0053955D01*
X0177291Y0054019D01*
X0177387Y0054080D01*
X0177484Y0054137D01*
X0177584Y0054190D01*
X0177686Y0054241D01*
X0177789Y0054287D01*
X0177894Y0054330D01*
X0178000Y0054369D01*
X0178108Y0054405D01*
X0178216Y0054436D01*
X0178326Y0054464D01*
X0178437Y0054488D01*
X0178548Y0054508D01*
X0178661Y0054524D01*
X0178773Y0054536D01*
X0178886Y0054544D01*
X0178999Y0054548D01*
X0179113Y0054548D01*
X0179226Y0054544D01*
X0179339Y0054536D01*
X0179451Y0054524D01*
X0179564Y0054508D01*
X0179675Y0054488D01*
X0179786Y0054464D01*
X0179896Y0054436D01*
X0180004Y0054405D01*
X0180112Y0054369D01*
X0180218Y0054330D01*
X0180323Y0054287D01*
X0180426Y0054241D01*
X0180528Y0054190D01*
X0180628Y0054137D01*
X0180725Y0054080D01*
X0180821Y0054019D01*
X0180915Y0053955D01*
X0181006Y0053888D01*
X0181095Y0053817D01*
X0181181Y0053744D01*
X0181264Y0053667D01*
X0181345Y0053588D01*
X0181423Y0053506D01*
X0181498Y0053421D01*
X0181570Y0053333D01*
X0181639Y0053243D01*
X0181704Y0053151D01*
X0181767Y0053057D01*
X0181826Y0052960D01*
X0181881Y0052861D01*
X0181933Y0052760D01*
X0181981Y0052658D01*
X0182026Y0052554D01*
X0182067Y0052448D01*
X0182104Y0052341D01*
X0182138Y0052233D01*
X0182168Y0052124D01*
X0182193Y0052014D01*
X0182215Y0051902D01*
X0182233Y0051791D01*
X0182247Y0051678D01*
X0182257Y0051565D01*
X0182263Y0051452D01*
X0182265Y0051339D01*
X0182263Y0051226D01*
X0182257Y0051113D01*
X0182247Y0051000D01*
X0182233Y0050887D01*
X0182215Y0050776D01*
X0182193Y0050664D01*
X0182168Y0050554D01*
X0182138Y0050445D01*
X0182104Y0050337D01*
X0182067Y0050230D01*
X0182026Y0050124D01*
X0181981Y0050020D01*
X0181933Y0049918D01*
X0181881Y0049817D01*
X0181826Y0049718D01*
X0181767Y0049621D01*
X0181704Y0049527D01*
X0181639Y0049435D01*
X0181570Y0049345D01*
X0181498Y0049257D01*
X0181423Y0049172D01*
X0181345Y0049090D01*
X0181264Y0049011D01*
X0181181Y0048934D01*
X0181095Y0048861D01*
X0181006Y0048790D01*
X0180915Y0048723D01*
X0180821Y0048659D01*
X0180725Y0048598D01*
X0180628Y0048541D01*
X0180528Y0048488D01*
X0180426Y0048437D01*
X0180323Y0048391D01*
X0180218Y0048348D01*
X0180112Y0048309D01*
X0180004Y0048273D01*
X0179896Y0048242D01*
X0179786Y0048214D01*
X0179675Y0048190D01*
X0179564Y0048170D01*
X0179451Y0048154D01*
X0179339Y0048142D01*
X0179226Y0048134D01*
X0179113Y0048130D01*
X0178999Y0048130D01*
X0178886Y0048134D01*
X0178773Y0048142D01*
X0178661Y0048154D01*
X0178548Y0048170D01*
X0178437Y0048190D01*
X0178326Y0048214D01*
X0178216Y0048242D01*
X0178108Y0048273D01*
X0178000Y0048309D01*
X0177894Y0048348D01*
X0177789Y0048391D01*
X0177686Y0048437D01*
X0177584Y0048488D01*
X0177484Y0048541D01*
X0177387Y0048598D01*
X0177291Y0048659D01*
X0177197Y0048723D01*
X0177106Y0048790D01*
X0177017Y0048861D01*
X0176931Y0048934D01*
X0176848Y0049011D01*
X0176767Y0049090D01*
X0176689Y0049172D01*
X0176614Y0049257D01*
X0176542Y0049345D01*
X0176473Y0049435D01*
X0176408Y0049527D01*
X0176345Y0049621D01*
X0176286Y0049718D01*
X0176231Y0049817D01*
X0176179Y0049918D01*
X0176131Y0050020D01*
X0176086Y0050124D01*
X0176045Y0050230D01*
X0176008Y0050337D01*
X0175974Y0050445D01*
X0175944Y0050554D01*
X0175919Y0050664D01*
X0175897Y0050776D01*
X0175879Y0050887D01*
X0175865Y0051000D01*
X0175855Y0051113D01*
X0175849Y0051226D01*
X0175847Y0051339D01*
X0203406Y0051339D02*
X0203408Y0051452D01*
X0203414Y0051565D01*
X0203424Y0051678D01*
X0203438Y0051791D01*
X0203456Y0051902D01*
X0203478Y0052014D01*
X0203503Y0052124D01*
X0203533Y0052233D01*
X0203567Y0052341D01*
X0203604Y0052448D01*
X0203645Y0052554D01*
X0203690Y0052658D01*
X0203738Y0052760D01*
X0203790Y0052861D01*
X0203845Y0052960D01*
X0203904Y0053057D01*
X0203967Y0053151D01*
X0204032Y0053243D01*
X0204101Y0053333D01*
X0204173Y0053421D01*
X0204248Y0053506D01*
X0204326Y0053588D01*
X0204407Y0053667D01*
X0204490Y0053744D01*
X0204576Y0053817D01*
X0204665Y0053888D01*
X0204756Y0053955D01*
X0204850Y0054019D01*
X0204946Y0054080D01*
X0205043Y0054137D01*
X0205143Y0054190D01*
X0205245Y0054241D01*
X0205348Y0054287D01*
X0205453Y0054330D01*
X0205559Y0054369D01*
X0205667Y0054405D01*
X0205775Y0054436D01*
X0205885Y0054464D01*
X0205996Y0054488D01*
X0206107Y0054508D01*
X0206220Y0054524D01*
X0206332Y0054536D01*
X0206445Y0054544D01*
X0206558Y0054548D01*
X0206672Y0054548D01*
X0206785Y0054544D01*
X0206898Y0054536D01*
X0207010Y0054524D01*
X0207123Y0054508D01*
X0207234Y0054488D01*
X0207345Y0054464D01*
X0207455Y0054436D01*
X0207563Y0054405D01*
X0207671Y0054369D01*
X0207777Y0054330D01*
X0207882Y0054287D01*
X0207985Y0054241D01*
X0208087Y0054190D01*
X0208187Y0054137D01*
X0208284Y0054080D01*
X0208380Y0054019D01*
X0208474Y0053955D01*
X0208565Y0053888D01*
X0208654Y0053817D01*
X0208740Y0053744D01*
X0208823Y0053667D01*
X0208904Y0053588D01*
X0208982Y0053506D01*
X0209057Y0053421D01*
X0209129Y0053333D01*
X0209198Y0053243D01*
X0209263Y0053151D01*
X0209326Y0053057D01*
X0209385Y0052960D01*
X0209440Y0052861D01*
X0209492Y0052760D01*
X0209540Y0052658D01*
X0209585Y0052554D01*
X0209626Y0052448D01*
X0209663Y0052341D01*
X0209697Y0052233D01*
X0209727Y0052124D01*
X0209752Y0052014D01*
X0209774Y0051902D01*
X0209792Y0051791D01*
X0209806Y0051678D01*
X0209816Y0051565D01*
X0209822Y0051452D01*
X0209824Y0051339D01*
X0209822Y0051226D01*
X0209816Y0051113D01*
X0209806Y0051000D01*
X0209792Y0050887D01*
X0209774Y0050776D01*
X0209752Y0050664D01*
X0209727Y0050554D01*
X0209697Y0050445D01*
X0209663Y0050337D01*
X0209626Y0050230D01*
X0209585Y0050124D01*
X0209540Y0050020D01*
X0209492Y0049918D01*
X0209440Y0049817D01*
X0209385Y0049718D01*
X0209326Y0049621D01*
X0209263Y0049527D01*
X0209198Y0049435D01*
X0209129Y0049345D01*
X0209057Y0049257D01*
X0208982Y0049172D01*
X0208904Y0049090D01*
X0208823Y0049011D01*
X0208740Y0048934D01*
X0208654Y0048861D01*
X0208565Y0048790D01*
X0208474Y0048723D01*
X0208380Y0048659D01*
X0208284Y0048598D01*
X0208187Y0048541D01*
X0208087Y0048488D01*
X0207985Y0048437D01*
X0207882Y0048391D01*
X0207777Y0048348D01*
X0207671Y0048309D01*
X0207563Y0048273D01*
X0207455Y0048242D01*
X0207345Y0048214D01*
X0207234Y0048190D01*
X0207123Y0048170D01*
X0207010Y0048154D01*
X0206898Y0048142D01*
X0206785Y0048134D01*
X0206672Y0048130D01*
X0206558Y0048130D01*
X0206445Y0048134D01*
X0206332Y0048142D01*
X0206220Y0048154D01*
X0206107Y0048170D01*
X0205996Y0048190D01*
X0205885Y0048214D01*
X0205775Y0048242D01*
X0205667Y0048273D01*
X0205559Y0048309D01*
X0205453Y0048348D01*
X0205348Y0048391D01*
X0205245Y0048437D01*
X0205143Y0048488D01*
X0205043Y0048541D01*
X0204946Y0048598D01*
X0204850Y0048659D01*
X0204756Y0048723D01*
X0204665Y0048790D01*
X0204576Y0048861D01*
X0204490Y0048934D01*
X0204407Y0049011D01*
X0204326Y0049090D01*
X0204248Y0049172D01*
X0204173Y0049257D01*
X0204101Y0049345D01*
X0204032Y0049435D01*
X0203967Y0049527D01*
X0203904Y0049621D01*
X0203845Y0049718D01*
X0203790Y0049817D01*
X0203738Y0049918D01*
X0203690Y0050020D01*
X0203645Y0050124D01*
X0203604Y0050230D01*
X0203567Y0050337D01*
X0203533Y0050445D01*
X0203503Y0050554D01*
X0203478Y0050664D01*
X0203456Y0050776D01*
X0203438Y0050887D01*
X0203424Y0051000D01*
X0203414Y0051113D01*
X0203408Y0051226D01*
X0203406Y0051339D01*
X0203406Y0081260D02*
X0203408Y0081373D01*
X0203414Y0081486D01*
X0203424Y0081599D01*
X0203438Y0081712D01*
X0203456Y0081823D01*
X0203478Y0081935D01*
X0203503Y0082045D01*
X0203533Y0082154D01*
X0203567Y0082262D01*
X0203604Y0082369D01*
X0203645Y0082475D01*
X0203690Y0082579D01*
X0203738Y0082681D01*
X0203790Y0082782D01*
X0203845Y0082881D01*
X0203904Y0082978D01*
X0203967Y0083072D01*
X0204032Y0083164D01*
X0204101Y0083254D01*
X0204173Y0083342D01*
X0204248Y0083427D01*
X0204326Y0083509D01*
X0204407Y0083588D01*
X0204490Y0083665D01*
X0204576Y0083738D01*
X0204665Y0083809D01*
X0204756Y0083876D01*
X0204850Y0083940D01*
X0204946Y0084001D01*
X0205043Y0084058D01*
X0205143Y0084111D01*
X0205245Y0084162D01*
X0205348Y0084208D01*
X0205453Y0084251D01*
X0205559Y0084290D01*
X0205667Y0084326D01*
X0205775Y0084357D01*
X0205885Y0084385D01*
X0205996Y0084409D01*
X0206107Y0084429D01*
X0206220Y0084445D01*
X0206332Y0084457D01*
X0206445Y0084465D01*
X0206558Y0084469D01*
X0206672Y0084469D01*
X0206785Y0084465D01*
X0206898Y0084457D01*
X0207010Y0084445D01*
X0207123Y0084429D01*
X0207234Y0084409D01*
X0207345Y0084385D01*
X0207455Y0084357D01*
X0207563Y0084326D01*
X0207671Y0084290D01*
X0207777Y0084251D01*
X0207882Y0084208D01*
X0207985Y0084162D01*
X0208087Y0084111D01*
X0208187Y0084058D01*
X0208284Y0084001D01*
X0208380Y0083940D01*
X0208474Y0083876D01*
X0208565Y0083809D01*
X0208654Y0083738D01*
X0208740Y0083665D01*
X0208823Y0083588D01*
X0208904Y0083509D01*
X0208982Y0083427D01*
X0209057Y0083342D01*
X0209129Y0083254D01*
X0209198Y0083164D01*
X0209263Y0083072D01*
X0209326Y0082978D01*
X0209385Y0082881D01*
X0209440Y0082782D01*
X0209492Y0082681D01*
X0209540Y0082579D01*
X0209585Y0082475D01*
X0209626Y0082369D01*
X0209663Y0082262D01*
X0209697Y0082154D01*
X0209727Y0082045D01*
X0209752Y0081935D01*
X0209774Y0081823D01*
X0209792Y0081712D01*
X0209806Y0081599D01*
X0209816Y0081486D01*
X0209822Y0081373D01*
X0209824Y0081260D01*
X0209822Y0081147D01*
X0209816Y0081034D01*
X0209806Y0080921D01*
X0209792Y0080808D01*
X0209774Y0080697D01*
X0209752Y0080585D01*
X0209727Y0080475D01*
X0209697Y0080366D01*
X0209663Y0080258D01*
X0209626Y0080151D01*
X0209585Y0080045D01*
X0209540Y0079941D01*
X0209492Y0079839D01*
X0209440Y0079738D01*
X0209385Y0079639D01*
X0209326Y0079542D01*
X0209263Y0079448D01*
X0209198Y0079356D01*
X0209129Y0079266D01*
X0209057Y0079178D01*
X0208982Y0079093D01*
X0208904Y0079011D01*
X0208823Y0078932D01*
X0208740Y0078855D01*
X0208654Y0078782D01*
X0208565Y0078711D01*
X0208474Y0078644D01*
X0208380Y0078580D01*
X0208284Y0078519D01*
X0208187Y0078462D01*
X0208087Y0078409D01*
X0207985Y0078358D01*
X0207882Y0078312D01*
X0207777Y0078269D01*
X0207671Y0078230D01*
X0207563Y0078194D01*
X0207455Y0078163D01*
X0207345Y0078135D01*
X0207234Y0078111D01*
X0207123Y0078091D01*
X0207010Y0078075D01*
X0206898Y0078063D01*
X0206785Y0078055D01*
X0206672Y0078051D01*
X0206558Y0078051D01*
X0206445Y0078055D01*
X0206332Y0078063D01*
X0206220Y0078075D01*
X0206107Y0078091D01*
X0205996Y0078111D01*
X0205885Y0078135D01*
X0205775Y0078163D01*
X0205667Y0078194D01*
X0205559Y0078230D01*
X0205453Y0078269D01*
X0205348Y0078312D01*
X0205245Y0078358D01*
X0205143Y0078409D01*
X0205043Y0078462D01*
X0204946Y0078519D01*
X0204850Y0078580D01*
X0204756Y0078644D01*
X0204665Y0078711D01*
X0204576Y0078782D01*
X0204490Y0078855D01*
X0204407Y0078932D01*
X0204326Y0079011D01*
X0204248Y0079093D01*
X0204173Y0079178D01*
X0204101Y0079266D01*
X0204032Y0079356D01*
X0203967Y0079448D01*
X0203904Y0079542D01*
X0203845Y0079639D01*
X0203790Y0079738D01*
X0203738Y0079839D01*
X0203690Y0079941D01*
X0203645Y0080045D01*
X0203604Y0080151D01*
X0203567Y0080258D01*
X0203533Y0080366D01*
X0203503Y0080475D01*
X0203478Y0080585D01*
X0203456Y0080697D01*
X0203438Y0080808D01*
X0203424Y0080921D01*
X0203414Y0081034D01*
X0203408Y0081147D01*
X0203406Y0081260D01*
X0071516Y0069843D02*
X0071518Y0069956D01*
X0071524Y0070069D01*
X0071534Y0070182D01*
X0071548Y0070295D01*
X0071566Y0070406D01*
X0071588Y0070518D01*
X0071613Y0070628D01*
X0071643Y0070737D01*
X0071677Y0070845D01*
X0071714Y0070952D01*
X0071755Y0071058D01*
X0071800Y0071162D01*
X0071848Y0071264D01*
X0071900Y0071365D01*
X0071955Y0071464D01*
X0072014Y0071561D01*
X0072077Y0071655D01*
X0072142Y0071747D01*
X0072211Y0071837D01*
X0072283Y0071925D01*
X0072358Y0072010D01*
X0072436Y0072092D01*
X0072517Y0072171D01*
X0072600Y0072248D01*
X0072686Y0072321D01*
X0072775Y0072392D01*
X0072866Y0072459D01*
X0072960Y0072523D01*
X0073056Y0072584D01*
X0073153Y0072641D01*
X0073253Y0072694D01*
X0073355Y0072745D01*
X0073458Y0072791D01*
X0073563Y0072834D01*
X0073669Y0072873D01*
X0073777Y0072909D01*
X0073885Y0072940D01*
X0073995Y0072968D01*
X0074106Y0072992D01*
X0074217Y0073012D01*
X0074330Y0073028D01*
X0074442Y0073040D01*
X0074555Y0073048D01*
X0074668Y0073052D01*
X0074782Y0073052D01*
X0074895Y0073048D01*
X0075008Y0073040D01*
X0075120Y0073028D01*
X0075233Y0073012D01*
X0075344Y0072992D01*
X0075455Y0072968D01*
X0075565Y0072940D01*
X0075673Y0072909D01*
X0075781Y0072873D01*
X0075887Y0072834D01*
X0075992Y0072791D01*
X0076095Y0072745D01*
X0076197Y0072694D01*
X0076297Y0072641D01*
X0076394Y0072584D01*
X0076490Y0072523D01*
X0076584Y0072459D01*
X0076675Y0072392D01*
X0076764Y0072321D01*
X0076850Y0072248D01*
X0076933Y0072171D01*
X0077014Y0072092D01*
X0077092Y0072010D01*
X0077167Y0071925D01*
X0077239Y0071837D01*
X0077308Y0071747D01*
X0077373Y0071655D01*
X0077436Y0071561D01*
X0077495Y0071464D01*
X0077550Y0071365D01*
X0077602Y0071264D01*
X0077650Y0071162D01*
X0077695Y0071058D01*
X0077736Y0070952D01*
X0077773Y0070845D01*
X0077807Y0070737D01*
X0077837Y0070628D01*
X0077862Y0070518D01*
X0077884Y0070406D01*
X0077902Y0070295D01*
X0077916Y0070182D01*
X0077926Y0070069D01*
X0077932Y0069956D01*
X0077934Y0069843D01*
X0077932Y0069730D01*
X0077926Y0069617D01*
X0077916Y0069504D01*
X0077902Y0069391D01*
X0077884Y0069280D01*
X0077862Y0069168D01*
X0077837Y0069058D01*
X0077807Y0068949D01*
X0077773Y0068841D01*
X0077736Y0068734D01*
X0077695Y0068628D01*
X0077650Y0068524D01*
X0077602Y0068422D01*
X0077550Y0068321D01*
X0077495Y0068222D01*
X0077436Y0068125D01*
X0077373Y0068031D01*
X0077308Y0067939D01*
X0077239Y0067849D01*
X0077167Y0067761D01*
X0077092Y0067676D01*
X0077014Y0067594D01*
X0076933Y0067515D01*
X0076850Y0067438D01*
X0076764Y0067365D01*
X0076675Y0067294D01*
X0076584Y0067227D01*
X0076490Y0067163D01*
X0076394Y0067102D01*
X0076297Y0067045D01*
X0076197Y0066992D01*
X0076095Y0066941D01*
X0075992Y0066895D01*
X0075887Y0066852D01*
X0075781Y0066813D01*
X0075673Y0066777D01*
X0075565Y0066746D01*
X0075455Y0066718D01*
X0075344Y0066694D01*
X0075233Y0066674D01*
X0075120Y0066658D01*
X0075008Y0066646D01*
X0074895Y0066638D01*
X0074782Y0066634D01*
X0074668Y0066634D01*
X0074555Y0066638D01*
X0074442Y0066646D01*
X0074330Y0066658D01*
X0074217Y0066674D01*
X0074106Y0066694D01*
X0073995Y0066718D01*
X0073885Y0066746D01*
X0073777Y0066777D01*
X0073669Y0066813D01*
X0073563Y0066852D01*
X0073458Y0066895D01*
X0073355Y0066941D01*
X0073253Y0066992D01*
X0073153Y0067045D01*
X0073056Y0067102D01*
X0072960Y0067163D01*
X0072866Y0067227D01*
X0072775Y0067294D01*
X0072686Y0067365D01*
X0072600Y0067438D01*
X0072517Y0067515D01*
X0072436Y0067594D01*
X0072358Y0067676D01*
X0072283Y0067761D01*
X0072211Y0067849D01*
X0072142Y0067939D01*
X0072077Y0068031D01*
X0072014Y0068125D01*
X0071955Y0068222D01*
X0071900Y0068321D01*
X0071848Y0068422D01*
X0071800Y0068524D01*
X0071755Y0068628D01*
X0071714Y0068734D01*
X0071677Y0068841D01*
X0071643Y0068949D01*
X0071613Y0069058D01*
X0071588Y0069168D01*
X0071566Y0069280D01*
X0071548Y0069391D01*
X0071534Y0069504D01*
X0071524Y0069617D01*
X0071518Y0069730D01*
X0071516Y0069843D01*
X0071516Y0099764D02*
X0071518Y0099877D01*
X0071524Y0099990D01*
X0071534Y0100103D01*
X0071548Y0100216D01*
X0071566Y0100327D01*
X0071588Y0100439D01*
X0071613Y0100549D01*
X0071643Y0100658D01*
X0071677Y0100766D01*
X0071714Y0100873D01*
X0071755Y0100979D01*
X0071800Y0101083D01*
X0071848Y0101185D01*
X0071900Y0101286D01*
X0071955Y0101385D01*
X0072014Y0101482D01*
X0072077Y0101576D01*
X0072142Y0101668D01*
X0072211Y0101758D01*
X0072283Y0101846D01*
X0072358Y0101931D01*
X0072436Y0102013D01*
X0072517Y0102092D01*
X0072600Y0102169D01*
X0072686Y0102242D01*
X0072775Y0102313D01*
X0072866Y0102380D01*
X0072960Y0102444D01*
X0073056Y0102505D01*
X0073153Y0102562D01*
X0073253Y0102615D01*
X0073355Y0102666D01*
X0073458Y0102712D01*
X0073563Y0102755D01*
X0073669Y0102794D01*
X0073777Y0102830D01*
X0073885Y0102861D01*
X0073995Y0102889D01*
X0074106Y0102913D01*
X0074217Y0102933D01*
X0074330Y0102949D01*
X0074442Y0102961D01*
X0074555Y0102969D01*
X0074668Y0102973D01*
X0074782Y0102973D01*
X0074895Y0102969D01*
X0075008Y0102961D01*
X0075120Y0102949D01*
X0075233Y0102933D01*
X0075344Y0102913D01*
X0075455Y0102889D01*
X0075565Y0102861D01*
X0075673Y0102830D01*
X0075781Y0102794D01*
X0075887Y0102755D01*
X0075992Y0102712D01*
X0076095Y0102666D01*
X0076197Y0102615D01*
X0076297Y0102562D01*
X0076394Y0102505D01*
X0076490Y0102444D01*
X0076584Y0102380D01*
X0076675Y0102313D01*
X0076764Y0102242D01*
X0076850Y0102169D01*
X0076933Y0102092D01*
X0077014Y0102013D01*
X0077092Y0101931D01*
X0077167Y0101846D01*
X0077239Y0101758D01*
X0077308Y0101668D01*
X0077373Y0101576D01*
X0077436Y0101482D01*
X0077495Y0101385D01*
X0077550Y0101286D01*
X0077602Y0101185D01*
X0077650Y0101083D01*
X0077695Y0100979D01*
X0077736Y0100873D01*
X0077773Y0100766D01*
X0077807Y0100658D01*
X0077837Y0100549D01*
X0077862Y0100439D01*
X0077884Y0100327D01*
X0077902Y0100216D01*
X0077916Y0100103D01*
X0077926Y0099990D01*
X0077932Y0099877D01*
X0077934Y0099764D01*
X0077932Y0099651D01*
X0077926Y0099538D01*
X0077916Y0099425D01*
X0077902Y0099312D01*
X0077884Y0099201D01*
X0077862Y0099089D01*
X0077837Y0098979D01*
X0077807Y0098870D01*
X0077773Y0098762D01*
X0077736Y0098655D01*
X0077695Y0098549D01*
X0077650Y0098445D01*
X0077602Y0098343D01*
X0077550Y0098242D01*
X0077495Y0098143D01*
X0077436Y0098046D01*
X0077373Y0097952D01*
X0077308Y0097860D01*
X0077239Y0097770D01*
X0077167Y0097682D01*
X0077092Y0097597D01*
X0077014Y0097515D01*
X0076933Y0097436D01*
X0076850Y0097359D01*
X0076764Y0097286D01*
X0076675Y0097215D01*
X0076584Y0097148D01*
X0076490Y0097084D01*
X0076394Y0097023D01*
X0076297Y0096966D01*
X0076197Y0096913D01*
X0076095Y0096862D01*
X0075992Y0096816D01*
X0075887Y0096773D01*
X0075781Y0096734D01*
X0075673Y0096698D01*
X0075565Y0096667D01*
X0075455Y0096639D01*
X0075344Y0096615D01*
X0075233Y0096595D01*
X0075120Y0096579D01*
X0075008Y0096567D01*
X0074895Y0096559D01*
X0074782Y0096555D01*
X0074668Y0096555D01*
X0074555Y0096559D01*
X0074442Y0096567D01*
X0074330Y0096579D01*
X0074217Y0096595D01*
X0074106Y0096615D01*
X0073995Y0096639D01*
X0073885Y0096667D01*
X0073777Y0096698D01*
X0073669Y0096734D01*
X0073563Y0096773D01*
X0073458Y0096816D01*
X0073355Y0096862D01*
X0073253Y0096913D01*
X0073153Y0096966D01*
X0073056Y0097023D01*
X0072960Y0097084D01*
X0072866Y0097148D01*
X0072775Y0097215D01*
X0072686Y0097286D01*
X0072600Y0097359D01*
X0072517Y0097436D01*
X0072436Y0097515D01*
X0072358Y0097597D01*
X0072283Y0097682D01*
X0072211Y0097770D01*
X0072142Y0097860D01*
X0072077Y0097952D01*
X0072014Y0098046D01*
X0071955Y0098143D01*
X0071900Y0098242D01*
X0071848Y0098343D01*
X0071800Y0098445D01*
X0071755Y0098549D01*
X0071714Y0098655D01*
X0071677Y0098762D01*
X0071643Y0098870D01*
X0071613Y0098979D01*
X0071588Y0099089D01*
X0071566Y0099201D01*
X0071548Y0099312D01*
X0071534Y0099425D01*
X0071524Y0099538D01*
X0071518Y0099651D01*
X0071516Y0099764D01*
X0043957Y0099764D02*
X0043959Y0099877D01*
X0043965Y0099990D01*
X0043975Y0100103D01*
X0043989Y0100216D01*
X0044007Y0100327D01*
X0044029Y0100439D01*
X0044054Y0100549D01*
X0044084Y0100658D01*
X0044118Y0100766D01*
X0044155Y0100873D01*
X0044196Y0100979D01*
X0044241Y0101083D01*
X0044289Y0101185D01*
X0044341Y0101286D01*
X0044396Y0101385D01*
X0044455Y0101482D01*
X0044518Y0101576D01*
X0044583Y0101668D01*
X0044652Y0101758D01*
X0044724Y0101846D01*
X0044799Y0101931D01*
X0044877Y0102013D01*
X0044958Y0102092D01*
X0045041Y0102169D01*
X0045127Y0102242D01*
X0045216Y0102313D01*
X0045307Y0102380D01*
X0045401Y0102444D01*
X0045497Y0102505D01*
X0045594Y0102562D01*
X0045694Y0102615D01*
X0045796Y0102666D01*
X0045899Y0102712D01*
X0046004Y0102755D01*
X0046110Y0102794D01*
X0046218Y0102830D01*
X0046326Y0102861D01*
X0046436Y0102889D01*
X0046547Y0102913D01*
X0046658Y0102933D01*
X0046771Y0102949D01*
X0046883Y0102961D01*
X0046996Y0102969D01*
X0047109Y0102973D01*
X0047223Y0102973D01*
X0047336Y0102969D01*
X0047449Y0102961D01*
X0047561Y0102949D01*
X0047674Y0102933D01*
X0047785Y0102913D01*
X0047896Y0102889D01*
X0048006Y0102861D01*
X0048114Y0102830D01*
X0048222Y0102794D01*
X0048328Y0102755D01*
X0048433Y0102712D01*
X0048536Y0102666D01*
X0048638Y0102615D01*
X0048738Y0102562D01*
X0048835Y0102505D01*
X0048931Y0102444D01*
X0049025Y0102380D01*
X0049116Y0102313D01*
X0049205Y0102242D01*
X0049291Y0102169D01*
X0049374Y0102092D01*
X0049455Y0102013D01*
X0049533Y0101931D01*
X0049608Y0101846D01*
X0049680Y0101758D01*
X0049749Y0101668D01*
X0049814Y0101576D01*
X0049877Y0101482D01*
X0049936Y0101385D01*
X0049991Y0101286D01*
X0050043Y0101185D01*
X0050091Y0101083D01*
X0050136Y0100979D01*
X0050177Y0100873D01*
X0050214Y0100766D01*
X0050248Y0100658D01*
X0050278Y0100549D01*
X0050303Y0100439D01*
X0050325Y0100327D01*
X0050343Y0100216D01*
X0050357Y0100103D01*
X0050367Y0099990D01*
X0050373Y0099877D01*
X0050375Y0099764D01*
X0050373Y0099651D01*
X0050367Y0099538D01*
X0050357Y0099425D01*
X0050343Y0099312D01*
X0050325Y0099201D01*
X0050303Y0099089D01*
X0050278Y0098979D01*
X0050248Y0098870D01*
X0050214Y0098762D01*
X0050177Y0098655D01*
X0050136Y0098549D01*
X0050091Y0098445D01*
X0050043Y0098343D01*
X0049991Y0098242D01*
X0049936Y0098143D01*
X0049877Y0098046D01*
X0049814Y0097952D01*
X0049749Y0097860D01*
X0049680Y0097770D01*
X0049608Y0097682D01*
X0049533Y0097597D01*
X0049455Y0097515D01*
X0049374Y0097436D01*
X0049291Y0097359D01*
X0049205Y0097286D01*
X0049116Y0097215D01*
X0049025Y0097148D01*
X0048931Y0097084D01*
X0048835Y0097023D01*
X0048738Y0096966D01*
X0048638Y0096913D01*
X0048536Y0096862D01*
X0048433Y0096816D01*
X0048328Y0096773D01*
X0048222Y0096734D01*
X0048114Y0096698D01*
X0048006Y0096667D01*
X0047896Y0096639D01*
X0047785Y0096615D01*
X0047674Y0096595D01*
X0047561Y0096579D01*
X0047449Y0096567D01*
X0047336Y0096559D01*
X0047223Y0096555D01*
X0047109Y0096555D01*
X0046996Y0096559D01*
X0046883Y0096567D01*
X0046771Y0096579D01*
X0046658Y0096595D01*
X0046547Y0096615D01*
X0046436Y0096639D01*
X0046326Y0096667D01*
X0046218Y0096698D01*
X0046110Y0096734D01*
X0046004Y0096773D01*
X0045899Y0096816D01*
X0045796Y0096862D01*
X0045694Y0096913D01*
X0045594Y0096966D01*
X0045497Y0097023D01*
X0045401Y0097084D01*
X0045307Y0097148D01*
X0045216Y0097215D01*
X0045127Y0097286D01*
X0045041Y0097359D01*
X0044958Y0097436D01*
X0044877Y0097515D01*
X0044799Y0097597D01*
X0044724Y0097682D01*
X0044652Y0097770D01*
X0044583Y0097860D01*
X0044518Y0097952D01*
X0044455Y0098046D01*
X0044396Y0098143D01*
X0044341Y0098242D01*
X0044289Y0098343D01*
X0044241Y0098445D01*
X0044196Y0098549D01*
X0044155Y0098655D01*
X0044118Y0098762D01*
X0044084Y0098870D01*
X0044054Y0098979D01*
X0044029Y0099089D01*
X0044007Y0099201D01*
X0043989Y0099312D01*
X0043975Y0099425D01*
X0043965Y0099538D01*
X0043959Y0099651D01*
X0043957Y0099764D01*
X0043957Y0069843D02*
X0043959Y0069956D01*
X0043965Y0070069D01*
X0043975Y0070182D01*
X0043989Y0070295D01*
X0044007Y0070406D01*
X0044029Y0070518D01*
X0044054Y0070628D01*
X0044084Y0070737D01*
X0044118Y0070845D01*
X0044155Y0070952D01*
X0044196Y0071058D01*
X0044241Y0071162D01*
X0044289Y0071264D01*
X0044341Y0071365D01*
X0044396Y0071464D01*
X0044455Y0071561D01*
X0044518Y0071655D01*
X0044583Y0071747D01*
X0044652Y0071837D01*
X0044724Y0071925D01*
X0044799Y0072010D01*
X0044877Y0072092D01*
X0044958Y0072171D01*
X0045041Y0072248D01*
X0045127Y0072321D01*
X0045216Y0072392D01*
X0045307Y0072459D01*
X0045401Y0072523D01*
X0045497Y0072584D01*
X0045594Y0072641D01*
X0045694Y0072694D01*
X0045796Y0072745D01*
X0045899Y0072791D01*
X0046004Y0072834D01*
X0046110Y0072873D01*
X0046218Y0072909D01*
X0046326Y0072940D01*
X0046436Y0072968D01*
X0046547Y0072992D01*
X0046658Y0073012D01*
X0046771Y0073028D01*
X0046883Y0073040D01*
X0046996Y0073048D01*
X0047109Y0073052D01*
X0047223Y0073052D01*
X0047336Y0073048D01*
X0047449Y0073040D01*
X0047561Y0073028D01*
X0047674Y0073012D01*
X0047785Y0072992D01*
X0047896Y0072968D01*
X0048006Y0072940D01*
X0048114Y0072909D01*
X0048222Y0072873D01*
X0048328Y0072834D01*
X0048433Y0072791D01*
X0048536Y0072745D01*
X0048638Y0072694D01*
X0048738Y0072641D01*
X0048835Y0072584D01*
X0048931Y0072523D01*
X0049025Y0072459D01*
X0049116Y0072392D01*
X0049205Y0072321D01*
X0049291Y0072248D01*
X0049374Y0072171D01*
X0049455Y0072092D01*
X0049533Y0072010D01*
X0049608Y0071925D01*
X0049680Y0071837D01*
X0049749Y0071747D01*
X0049814Y0071655D01*
X0049877Y0071561D01*
X0049936Y0071464D01*
X0049991Y0071365D01*
X0050043Y0071264D01*
X0050091Y0071162D01*
X0050136Y0071058D01*
X0050177Y0070952D01*
X0050214Y0070845D01*
X0050248Y0070737D01*
X0050278Y0070628D01*
X0050303Y0070518D01*
X0050325Y0070406D01*
X0050343Y0070295D01*
X0050357Y0070182D01*
X0050367Y0070069D01*
X0050373Y0069956D01*
X0050375Y0069843D01*
X0050373Y0069730D01*
X0050367Y0069617D01*
X0050357Y0069504D01*
X0050343Y0069391D01*
X0050325Y0069280D01*
X0050303Y0069168D01*
X0050278Y0069058D01*
X0050248Y0068949D01*
X0050214Y0068841D01*
X0050177Y0068734D01*
X0050136Y0068628D01*
X0050091Y0068524D01*
X0050043Y0068422D01*
X0049991Y0068321D01*
X0049936Y0068222D01*
X0049877Y0068125D01*
X0049814Y0068031D01*
X0049749Y0067939D01*
X0049680Y0067849D01*
X0049608Y0067761D01*
X0049533Y0067676D01*
X0049455Y0067594D01*
X0049374Y0067515D01*
X0049291Y0067438D01*
X0049205Y0067365D01*
X0049116Y0067294D01*
X0049025Y0067227D01*
X0048931Y0067163D01*
X0048835Y0067102D01*
X0048738Y0067045D01*
X0048638Y0066992D01*
X0048536Y0066941D01*
X0048433Y0066895D01*
X0048328Y0066852D01*
X0048222Y0066813D01*
X0048114Y0066777D01*
X0048006Y0066746D01*
X0047896Y0066718D01*
X0047785Y0066694D01*
X0047674Y0066674D01*
X0047561Y0066658D01*
X0047449Y0066646D01*
X0047336Y0066638D01*
X0047223Y0066634D01*
X0047109Y0066634D01*
X0046996Y0066638D01*
X0046883Y0066646D01*
X0046771Y0066658D01*
X0046658Y0066674D01*
X0046547Y0066694D01*
X0046436Y0066718D01*
X0046326Y0066746D01*
X0046218Y0066777D01*
X0046110Y0066813D01*
X0046004Y0066852D01*
X0045899Y0066895D01*
X0045796Y0066941D01*
X0045694Y0066992D01*
X0045594Y0067045D01*
X0045497Y0067102D01*
X0045401Y0067163D01*
X0045307Y0067227D01*
X0045216Y0067294D01*
X0045127Y0067365D01*
X0045041Y0067438D01*
X0044958Y0067515D01*
X0044877Y0067594D01*
X0044799Y0067676D01*
X0044724Y0067761D01*
X0044652Y0067849D01*
X0044583Y0067939D01*
X0044518Y0068031D01*
X0044455Y0068125D01*
X0044396Y0068222D01*
X0044341Y0068321D01*
X0044289Y0068422D01*
X0044241Y0068524D01*
X0044196Y0068628D01*
X0044155Y0068734D01*
X0044118Y0068841D01*
X0044084Y0068949D01*
X0044054Y0069058D01*
X0044029Y0069168D01*
X0044007Y0069280D01*
X0043989Y0069391D01*
X0043975Y0069504D01*
X0043965Y0069617D01*
X0043959Y0069730D01*
X0043957Y0069843D01*
D16*
X0101379Y0159882D03*
X0111379Y0159882D03*
X0110867Y0212323D03*
X0100867Y0212323D03*
D17*
X0091221Y0217323D03*
X0091221Y0207323D03*
X0081182Y0207244D03*
X0071339Y0207323D03*
X0071339Y0217323D03*
X0081182Y0217244D03*
X0061103Y0217126D03*
X0061103Y0207126D03*
X0051143Y0207323D03*
X0051143Y0217323D03*
X0041221Y0217362D03*
X0041221Y0207362D03*
X0031064Y0207362D03*
X0021261Y0207283D03*
X0021261Y0217283D03*
X0031064Y0217362D03*
X0048269Y0281063D03*
X0048269Y0287087D03*
X0048269Y0297087D03*
X0058269Y0297087D03*
X0058269Y0287087D03*
X0058269Y0281063D03*
X0070316Y0281063D03*
X0070316Y0287087D03*
X0070316Y0297087D03*
X0080316Y0297087D03*
X0080316Y0287087D03*
X0080316Y0281063D03*
X0092363Y0281063D03*
X0092363Y0287087D03*
X0092363Y0297087D03*
X0102363Y0297087D03*
X0102363Y0287087D03*
X0102363Y0281063D03*
X0113623Y0281063D03*
X0113623Y0287087D03*
X0113623Y0297087D03*
X0123623Y0297087D03*
X0123623Y0287087D03*
X0123623Y0281063D03*
X0135670Y0281063D03*
X0135670Y0287087D03*
X0135670Y0297087D03*
X0145670Y0297087D03*
X0145670Y0287087D03*
X0145670Y0281063D03*
X0156930Y0281063D03*
X0156930Y0287087D03*
X0156930Y0297087D03*
X0166930Y0297087D03*
X0166930Y0287087D03*
X0166930Y0281063D03*
X0178190Y0281063D03*
X0178190Y0287087D03*
X0178190Y0297087D03*
X0188190Y0297087D03*
X0188190Y0287087D03*
X0188190Y0281063D03*
X0200237Y0281063D03*
X0200237Y0287087D03*
X0200237Y0297087D03*
X0210237Y0297087D03*
X0210237Y0287087D03*
X0210237Y0281063D03*
X0229174Y0223799D03*
X0224174Y0216299D03*
X0234174Y0216299D03*
X0229253Y0202874D03*
X0229213Y0195118D03*
X0229371Y0186319D03*
X0234371Y0178819D03*
X0224371Y0178819D03*
X0239213Y0195118D03*
X0239253Y0202874D03*
X0164174Y0217323D03*
X0157520Y0222283D03*
X0164174Y0227323D03*
X0151182Y0217323D03*
X0157520Y0212283D03*
X0151182Y0207323D03*
X0141221Y0207323D03*
X0141221Y0217323D03*
X0141143Y0225276D03*
X0131182Y0217323D03*
X0131143Y0225276D03*
X0121412Y0225276D03*
X0111412Y0225276D03*
X0131182Y0207323D03*
X0131103Y0158976D03*
X0121103Y0158976D03*
X0141221Y0158976D03*
X0151221Y0158976D03*
D18*
X0151221Y0166970D02*
X0151221Y0171770D01*
X0141221Y0171770D02*
X0141221Y0166970D01*
X0131221Y0166970D02*
X0131221Y0171770D01*
X0121221Y0171770D02*
X0121221Y0166970D01*
X0111221Y0166970D02*
X0111221Y0171770D01*
X0101221Y0171770D02*
X0101221Y0166970D01*
X0091221Y0166970D02*
X0091221Y0171770D01*
X0091280Y0162282D02*
X0091280Y0157482D01*
X0081280Y0157482D02*
X0081280Y0162282D01*
X0081221Y0166970D02*
X0081221Y0171770D01*
X0071221Y0171770D02*
X0071221Y0166970D01*
X0071280Y0162282D02*
X0071280Y0157482D01*
X0061280Y0157482D02*
X0061280Y0162282D01*
X0061221Y0166970D02*
X0061221Y0171770D01*
X0051221Y0171770D02*
X0051221Y0166970D01*
X0051280Y0162282D02*
X0051280Y0157482D01*
X0041280Y0157482D02*
X0041280Y0162282D01*
X0041221Y0166970D02*
X0041221Y0171770D01*
X0031221Y0171770D02*
X0031221Y0166970D01*
X0031280Y0162282D02*
X0031280Y0157482D01*
X0021280Y0157482D02*
X0021280Y0162282D01*
X0021221Y0166970D02*
X0021221Y0171770D01*
X0011280Y0162282D02*
X0011280Y0157482D01*
X0011280Y0132282D02*
X0011280Y0127482D01*
X0021280Y0127482D02*
X0021280Y0132282D01*
X0031280Y0132282D02*
X0031280Y0127482D01*
X0041280Y0127482D02*
X0041280Y0132282D01*
X0051280Y0132282D02*
X0051280Y0127482D01*
X0061280Y0127482D02*
X0061280Y0132282D01*
X0071280Y0132282D02*
X0071280Y0127482D01*
X0081280Y0127482D02*
X0081280Y0132282D01*
X0091280Y0132282D02*
X0091280Y0127482D01*
X0091221Y0196970D02*
X0091221Y0201770D01*
X0081221Y0201770D02*
X0081221Y0196970D01*
X0071221Y0196970D02*
X0071221Y0201770D01*
X0061221Y0201770D02*
X0061221Y0196970D01*
X0051221Y0196970D02*
X0051221Y0201770D01*
X0041221Y0201770D02*
X0041221Y0196970D01*
X0031221Y0196970D02*
X0031221Y0201770D01*
X0021221Y0201770D02*
X0021221Y0196970D01*
X0021221Y0222836D02*
X0021221Y0227636D01*
X0031221Y0227636D02*
X0031221Y0222836D01*
X0041221Y0222836D02*
X0041221Y0227636D01*
X0048269Y0237641D02*
X0048269Y0242441D01*
X0058269Y0242441D02*
X0058269Y0237641D01*
X0061221Y0227636D02*
X0061221Y0222836D01*
X0051221Y0222836D02*
X0051221Y0227636D01*
X0070316Y0237641D02*
X0070316Y0242441D01*
X0080316Y0242441D02*
X0080316Y0237641D01*
X0081221Y0227636D02*
X0081221Y0222836D01*
X0071221Y0222836D02*
X0071221Y0227636D01*
X0091221Y0227636D02*
X0091221Y0222836D01*
X0101221Y0222836D02*
X0101221Y0227636D01*
X0102363Y0237641D02*
X0102363Y0242441D01*
X0092363Y0242441D02*
X0092363Y0237641D01*
X0113623Y0237641D02*
X0113623Y0242441D01*
X0123623Y0242441D02*
X0123623Y0237641D01*
X0135670Y0237641D02*
X0135670Y0242441D01*
X0145670Y0242441D02*
X0145670Y0237641D01*
X0156930Y0237641D02*
X0156930Y0242441D01*
X0166930Y0242441D02*
X0166930Y0237641D01*
X0178190Y0237641D02*
X0178190Y0242441D01*
X0188190Y0242441D02*
X0188190Y0237641D01*
X0187048Y0228739D02*
X0187048Y0223939D01*
X0177048Y0223939D02*
X0177048Y0228739D01*
X0197048Y0228739D02*
X0197048Y0223939D01*
X0200237Y0237641D02*
X0200237Y0242441D01*
X0210237Y0242441D02*
X0210237Y0237641D01*
X0210237Y0272441D02*
X0210237Y0277241D01*
X0200237Y0277241D02*
X0200237Y0272441D01*
X0188190Y0272441D02*
X0188190Y0277241D01*
X0178190Y0277241D02*
X0178190Y0272441D01*
X0166930Y0272441D02*
X0166930Y0277241D01*
X0156930Y0277241D02*
X0156930Y0272441D01*
X0145670Y0272441D02*
X0145670Y0277241D01*
X0135670Y0277241D02*
X0135670Y0272441D01*
X0123623Y0272441D02*
X0123623Y0277241D01*
X0113623Y0277241D02*
X0113623Y0272441D01*
X0102363Y0272441D02*
X0102363Y0277241D01*
X0092363Y0277241D02*
X0092363Y0272441D01*
X0080316Y0272441D02*
X0080316Y0277241D01*
X0070316Y0277241D02*
X0070316Y0272441D01*
X0058269Y0272441D02*
X0058269Y0277241D01*
X0048269Y0277241D02*
X0048269Y0272441D01*
X0101221Y0201770D02*
X0101221Y0196970D01*
X0111221Y0196970D02*
X0111221Y0201770D01*
X0121221Y0201770D02*
X0121221Y0196970D01*
X0131221Y0196970D02*
X0131221Y0201770D01*
X0141221Y0201770D02*
X0141221Y0196970D01*
X0151221Y0196970D02*
X0151221Y0201770D01*
X0177048Y0198739D02*
X0177048Y0193939D01*
X0187048Y0193939D02*
X0187048Y0198739D01*
X0197048Y0198739D02*
X0197048Y0193939D01*
D19*
X0133780Y0099764D03*
X0120001Y0099764D03*
X0120001Y0081260D03*
X0120001Y0069843D03*
X0120001Y0051339D03*
X0133780Y0051339D03*
X0133780Y0069843D03*
X0133780Y0081260D03*
D20*
X0179056Y0081260D03*
X0179056Y0051339D03*
X0074725Y0069843D03*
X0074725Y0099764D03*
D21*
X0047166Y0099764D03*
X0047166Y0069843D03*
X0206615Y0081260D03*
X0206615Y0051339D03*
D22*
X0196831Y0181024D02*
X0189154Y0181024D01*
X0171241Y0181024D02*
X0163564Y0181024D01*
D23*
X0166261Y0319646D03*
X0185946Y0319646D03*
X0205631Y0319646D03*
X0146576Y0319646D03*
X0107599Y0319646D03*
X0087914Y0319646D03*
X0068229Y0319646D03*
X0048544Y0319646D03*
X0028859Y0319646D03*
X0028465Y0026732D03*
X0048150Y0026732D03*
X0087520Y0026732D03*
X0107206Y0026732D03*
X0147363Y0026732D03*
X0167048Y0026732D03*
X0206418Y0026732D03*
X0226103Y0026732D03*
D24*
X0242835Y0316102D03*
D25*
X0242835Y0323976D03*
X0234961Y0323976D03*
X0234961Y0316102D03*
X0227087Y0316102D03*
X0227087Y0323976D03*
D26*
X0051261Y0123236D02*
X0051261Y0117236D01*
X0041261Y0117236D02*
X0041261Y0123236D01*
X0031261Y0123236D02*
X0031261Y0117236D01*
X0021261Y0117236D02*
X0021261Y0123236D01*
X0011261Y0123236D02*
X0011261Y0117236D01*
M02*
