%
M48
M72
T01C0.01772
T02C0.01969
T03C0.02362
T04C0.03346
T05C0.02756
T06C0.04331
T07C0.05118
T08C0.08661
T09C0.10827
T10C0.01181
%
T01
X48039Y281457
X58039Y281457
X70086Y281457
X80086Y281457
X92134Y281457
X102134Y281457
X114181Y281457
X124181Y281457
X136228Y281457
X146228Y281457
X158275Y281457
X168275Y281457
X180323Y281457
X190323Y281457
X202370Y281457
X212370Y281457
X243984Y193937
X243984Y183937
X122134Y106850
X122134Y88346
X122134Y76929
X122134Y58425
X135913Y106850
X135913Y88346
X135913Y76929
X135913Y58425
T02
X58039Y297087
X80086Y297087
X102134Y297087
X124181Y297087
X146228Y297087
X168275Y297087
X190323Y297087
X212370Y297087
X58039Y287087
X80086Y287087
X102134Y287087
X124181Y287087
X146228Y287087
X168275Y287087
X190323Y287087
X212370Y287087
X51110Y272047
X61110Y272047
X71110Y272047
X81110Y272047
X91110Y272047
X101110Y272047
X111110Y272047
X121110Y272047
X139299Y272047
X149299Y272047
X159299Y272047
X169299Y272047
X179299Y272047
X189299Y272047
X199299Y272047
X209299Y272047
X51110Y242047
X61110Y242047
X71110Y242047
X81110Y242047
X91110Y242047
X101110Y242047
X111110Y242047
X121110Y242047
X139299Y242047
X149299Y242047
X159299Y242047
X169299Y242047
X179299Y242047
X189299Y242047
X199299Y242047
X209299Y242047
X235992Y220433
X225992Y220433
X123079Y228583
X114811Y228583
X123079Y218583
X114811Y218583
X23354Y217362
X33354Y217362
X43354Y217362
X53354Y217362
X63354Y217362
X73354Y217362
X83354Y217362
X93354Y217362
X166307Y217126
X153354Y217126
X143354Y217126
X133354Y217126
X23354Y207362
X33354Y207362
X43354Y207362
X53354Y207362
X63354Y207362
X73354Y207362
X83354Y207362
X93354Y207362
X166307Y207126
X153354Y207126
X143354Y207126
X133354Y207126
X23354Y199370
X33354Y199370
X43354Y199370
X53354Y199370
X63354Y199370
X73354Y199370
X83354Y199370
X93354Y199370
X103354Y199370
X113354Y199370
X123354Y199370
X133354Y199370
X143354Y199370
X153354Y199370
X225992Y192874
X235992Y192874
X159929Y212362
X159929Y202362
X166307Y202205
X166307Y192205
X23354Y169370
X33354Y169370
X43354Y169370
X53354Y169370
X63354Y169370
X73354Y169370
X83354Y169370
X93354Y169370
X103354Y169370
X113354Y169370
X123354Y169370
X133354Y169370
X143354Y169370
X153354Y169370
X235992Y165315
X225992Y165315
X13354Y159882
X23354Y159882
X33354Y159882
X43354Y159882
X53354Y159882
X63354Y159882
X73354Y159882
X83354Y159882
X93354Y159882
X153354Y158976
X143354Y158976
X133236Y158976
X123236Y158976
X13354Y129882
X23354Y129882
X33354Y129882
X43354Y129882
X53354Y129882
X63354Y129882
X73354Y129882
X83354Y129882
X93354Y129882
T03
X48039Y297087
X70086Y297087
X92134Y297087
X114181Y297087
X136228Y297087
X158275Y297087
X180323Y297087
X202370Y297087
X48039Y287087
X70086Y287087
X92134Y287087
X114181Y287087
X136228Y287087
X158275Y287087
X180323Y287087
X202370Y287087
X182409Y226339
X192409Y226339
X202409Y226339
X182409Y196339
X192409Y196339
X202409Y196339
X23354Y225236
X33354Y225236
X43354Y225236
X53354Y225236
X63354Y225236
X83354Y225236
X93354Y225236
X73354Y225236
X103354Y225236
X230992Y213760
X225992Y206260
X235992Y206260
X230992Y186201
X235992Y178701
X225992Y178701
X13354Y169370
X225992Y151142
X230992Y158642
X235992Y151142
X13354Y121024
X23354Y121024
X33354Y121024
X43354Y121024
X53354Y121024
T04
X208748Y88346
X181189Y88346
X208748Y58425
X181189Y58425
X76858Y106850
X76858Y76929
X49299Y106850
X49299Y76929
T05
X244968Y306063
X237094Y306063
X229220Y306063
X244968Y298189
X237094Y298189
X229220Y298189
T06
X136307Y227165
X161897Y227165
T07
X30992Y319646
X50677Y319646
X70362Y319646
X90047Y319646
X109732Y319646
X148709Y319646
X168394Y319646
X188079Y319646
X207764Y319646
X30598Y26732
X50283Y26732
X89653Y26732
X109338Y26732
X149496Y26732
X169181Y26732
X208551Y26732
X228236Y26732
T08
X30992Y244449
X30992Y101929
X227842Y244449
X227842Y101929
T09
X227842Y271614
X30992Y74764
T10
X7370Y115118
X16804Y136575
X7370Y151004
X33418Y151004
X48339Y133061
X59452Y151004
X85485Y151004
X102212Y148406
X109220Y148406
X119747Y148406
X119826Y141437
X137552Y149902
X174197Y133061
X143353Y133061
X112509Y133061
X78334Y133061
X84397Y123061
X163585Y148976
X158753Y162559
X166740Y186890
X172370Y191102
X178197Y208740
X171642Y215778
X158748Y195748
X137552Y186890
X138339Y209331
X111519Y184606
X110124Y212244
X89422Y212244
X85485Y186890
X59452Y186890
X59452Y212244
X33418Y186890
X28413Y212244
X24217Y233038
X7370Y222776
X7370Y254409
X7370Y269646
X20394Y284252
X33418Y269646
X36961Y254567
X59452Y254567
X85485Y254567
X111519Y254567
X124850Y269646
X137552Y254567
X163585Y254567
X189619Y254567
X211897Y230591
X209732Y225315
X217896Y254567
X213669Y269646
X215652Y300059
X215652Y330669
X189619Y330669
X187060Y300059
X163585Y300059
X140702Y300059
X124535Y314646
X111519Y330669
X98502Y314646
X109550Y300059
X85485Y300059
X78034Y314646
X85485Y330669
X59452Y330669
X43017Y314646
X33418Y300059
X20394Y314646
X7370Y300059
X7370Y330669
X33418Y330669
X61341Y300059
X137552Y330669
X163585Y330669
X239968Y254567
X198813Y190611
X188472Y184016
X183950Y162638
X189619Y151004
X163585Y114764
X189619Y114764
X205041Y133061
X220463Y151004
X235885Y133061
X251307Y115118
X251307Y151004
X251307Y186890
X212021Y175354
X208842Y187372
X220463Y114764
X134338Y114764
X124890Y114764
X115022Y114764
X85485Y114764
X59452Y114764
X33418Y115118
X7370Y186890
M30
