G04 EAGLE Gerber RS-274X export*
G75*
%MOMM*%
%FSLAX34Y34*%
%LPD*%
%INSilk Top*%
%IPPOS*%
%AMOC8*
5,1,8,0,0,1.08239X$1,22.5*%
G01*
%ADD10C,0.000000*%
%ADD11C,0.127000*%
%ADD12C,0.177800*%
%ADD13C,0.254000*%
%ADD14C,0.101600*%
%ADD15C,0.152400*%
%ADD16C,0.609600*%
%ADD17C,0.508000*%
%ADD18R,1.016000X0.381000*%
%ADD19C,0.203200*%
%ADD20R,0.600000X1.100000*%

G36*
X629641Y727249D02*
X629641Y727249D01*
X629784Y727263D01*
X629799Y727269D01*
X629816Y727271D01*
X629948Y727323D01*
X630083Y727372D01*
X630096Y727382D01*
X630111Y727388D01*
X630227Y727472D01*
X630345Y727553D01*
X630355Y727565D01*
X630369Y727574D01*
X630460Y727685D01*
X630554Y727792D01*
X630561Y727807D01*
X630571Y727819D01*
X630632Y727948D01*
X630697Y728077D01*
X630700Y728093D01*
X630707Y728107D01*
X630734Y728247D01*
X630764Y728387D01*
X630764Y728404D01*
X630767Y728420D01*
X630758Y728562D01*
X630753Y728705D01*
X630748Y728721D01*
X630747Y728737D01*
X630703Y728873D01*
X630662Y729010D01*
X630652Y729030D01*
X630649Y729039D01*
X630639Y729055D01*
X630588Y729153D01*
X627588Y734153D01*
X627520Y734240D01*
X627458Y734333D01*
X627422Y734365D01*
X627392Y734403D01*
X627304Y734471D01*
X627221Y734545D01*
X627178Y734567D01*
X627139Y734596D01*
X627037Y734640D01*
X626938Y734691D01*
X626891Y734702D01*
X626847Y734721D01*
X626737Y734738D01*
X626629Y734763D01*
X626580Y734762D01*
X626532Y734769D01*
X626422Y734758D01*
X626311Y734755D01*
X626264Y734742D01*
X626216Y734737D01*
X626111Y734699D01*
X626005Y734669D01*
X625963Y734644D01*
X625917Y734628D01*
X625826Y734565D01*
X625730Y734509D01*
X625695Y734475D01*
X625655Y734447D01*
X625582Y734364D01*
X625503Y734286D01*
X625461Y734224D01*
X625446Y734208D01*
X625438Y734192D01*
X625412Y734153D01*
X622412Y729153D01*
X622354Y729022D01*
X622293Y728893D01*
X622290Y728877D01*
X622283Y728862D01*
X622260Y728721D01*
X622233Y728581D01*
X622234Y728564D01*
X622232Y728548D01*
X622244Y728405D01*
X622253Y728263D01*
X622258Y728248D01*
X622260Y728231D01*
X622307Y728096D01*
X622351Y727961D01*
X622360Y727947D01*
X622365Y727931D01*
X622445Y727812D01*
X622521Y727692D01*
X622533Y727681D01*
X622542Y727667D01*
X622649Y727572D01*
X622753Y727474D01*
X622767Y727466D01*
X622779Y727455D01*
X622906Y727390D01*
X623031Y727320D01*
X623047Y727316D01*
X623062Y727309D01*
X623201Y727277D01*
X623339Y727241D01*
X623362Y727240D01*
X623371Y727237D01*
X623390Y727238D01*
X623500Y727231D01*
X629500Y727231D01*
X629641Y727249D01*
G37*
D10*
X0Y0D02*
X640000Y0D01*
X640000Y820000D01*
X0Y820000D01*
X0Y0D01*
X557500Y660000D02*
X557504Y660307D01*
X557515Y660613D01*
X557534Y660920D01*
X557560Y661225D01*
X557594Y661530D01*
X557635Y661834D01*
X557684Y662137D01*
X557740Y662439D01*
X557804Y662739D01*
X557875Y663037D01*
X557953Y663334D01*
X558038Y663629D01*
X558131Y663921D01*
X558231Y664211D01*
X558338Y664499D01*
X558452Y664784D01*
X558572Y665066D01*
X558700Y665344D01*
X558835Y665620D01*
X558976Y665892D01*
X559124Y666161D01*
X559278Y666426D01*
X559439Y666687D01*
X559607Y666945D01*
X559780Y667198D01*
X559960Y667446D01*
X560146Y667690D01*
X560337Y667930D01*
X560535Y668165D01*
X560738Y668394D01*
X560947Y668619D01*
X561161Y668839D01*
X561381Y669053D01*
X561606Y669262D01*
X561835Y669465D01*
X562070Y669663D01*
X562310Y669854D01*
X562554Y670040D01*
X562802Y670220D01*
X563055Y670393D01*
X563313Y670561D01*
X563574Y670722D01*
X563839Y670876D01*
X564108Y671024D01*
X564380Y671165D01*
X564656Y671300D01*
X564934Y671428D01*
X565216Y671548D01*
X565501Y671662D01*
X565789Y671769D01*
X566079Y671869D01*
X566371Y671962D01*
X566666Y672047D01*
X566963Y672125D01*
X567261Y672196D01*
X567561Y672260D01*
X567863Y672316D01*
X568166Y672365D01*
X568470Y672406D01*
X568775Y672440D01*
X569080Y672466D01*
X569387Y672485D01*
X569693Y672496D01*
X570000Y672500D01*
X570307Y672496D01*
X570613Y672485D01*
X570920Y672466D01*
X571225Y672440D01*
X571530Y672406D01*
X571834Y672365D01*
X572137Y672316D01*
X572439Y672260D01*
X572739Y672196D01*
X573037Y672125D01*
X573334Y672047D01*
X573629Y671962D01*
X573921Y671869D01*
X574211Y671769D01*
X574499Y671662D01*
X574784Y671548D01*
X575066Y671428D01*
X575344Y671300D01*
X575620Y671165D01*
X575892Y671024D01*
X576161Y670876D01*
X576426Y670722D01*
X576687Y670561D01*
X576945Y670393D01*
X577198Y670220D01*
X577446Y670040D01*
X577690Y669854D01*
X577930Y669663D01*
X578165Y669465D01*
X578394Y669262D01*
X578619Y669053D01*
X578839Y668839D01*
X579053Y668619D01*
X579262Y668394D01*
X579465Y668165D01*
X579663Y667930D01*
X579854Y667690D01*
X580040Y667446D01*
X580220Y667198D01*
X580393Y666945D01*
X580561Y666687D01*
X580722Y666426D01*
X580876Y666161D01*
X581024Y665892D01*
X581165Y665620D01*
X581300Y665344D01*
X581428Y665066D01*
X581548Y664784D01*
X581662Y664499D01*
X581769Y664211D01*
X581869Y663921D01*
X581962Y663629D01*
X582047Y663334D01*
X582125Y663037D01*
X582196Y662739D01*
X582260Y662439D01*
X582316Y662137D01*
X582365Y661834D01*
X582406Y661530D01*
X582440Y661225D01*
X582466Y660920D01*
X582485Y660613D01*
X582496Y660307D01*
X582500Y660000D01*
X582496Y659693D01*
X582485Y659387D01*
X582466Y659080D01*
X582440Y658775D01*
X582406Y658470D01*
X582365Y658166D01*
X582316Y657863D01*
X582260Y657561D01*
X582196Y657261D01*
X582125Y656963D01*
X582047Y656666D01*
X581962Y656371D01*
X581869Y656079D01*
X581769Y655789D01*
X581662Y655501D01*
X581548Y655216D01*
X581428Y654934D01*
X581300Y654656D01*
X581165Y654380D01*
X581024Y654108D01*
X580876Y653839D01*
X580722Y653574D01*
X580561Y653313D01*
X580393Y653055D01*
X580220Y652802D01*
X580040Y652554D01*
X579854Y652310D01*
X579663Y652070D01*
X579465Y651835D01*
X579262Y651606D01*
X579053Y651381D01*
X578839Y651161D01*
X578619Y650947D01*
X578394Y650738D01*
X578165Y650535D01*
X577930Y650337D01*
X577690Y650146D01*
X577446Y649960D01*
X577198Y649780D01*
X576945Y649607D01*
X576687Y649439D01*
X576426Y649278D01*
X576161Y649124D01*
X575892Y648976D01*
X575620Y648835D01*
X575344Y648700D01*
X575066Y648572D01*
X574784Y648452D01*
X574499Y648338D01*
X574211Y648231D01*
X573921Y648131D01*
X573629Y648038D01*
X573334Y647953D01*
X573037Y647875D01*
X572739Y647804D01*
X572439Y647740D01*
X572137Y647684D01*
X571834Y647635D01*
X571530Y647594D01*
X571225Y647560D01*
X570920Y647534D01*
X570613Y647515D01*
X570307Y647504D01*
X570000Y647500D01*
X569693Y647504D01*
X569387Y647515D01*
X569080Y647534D01*
X568775Y647560D01*
X568470Y647594D01*
X568166Y647635D01*
X567863Y647684D01*
X567561Y647740D01*
X567261Y647804D01*
X566963Y647875D01*
X566666Y647953D01*
X566371Y648038D01*
X566079Y648131D01*
X565789Y648231D01*
X565501Y648338D01*
X565216Y648452D01*
X564934Y648572D01*
X564656Y648700D01*
X564380Y648835D01*
X564108Y648976D01*
X563839Y649124D01*
X563574Y649278D01*
X563313Y649439D01*
X563055Y649607D01*
X562802Y649780D01*
X562554Y649960D01*
X562310Y650146D01*
X562070Y650337D01*
X561835Y650535D01*
X561606Y650738D01*
X561381Y650947D01*
X561161Y651161D01*
X560947Y651381D01*
X560738Y651606D01*
X560535Y651835D01*
X560337Y652070D01*
X560146Y652310D01*
X559960Y652554D01*
X559780Y652802D01*
X559607Y653055D01*
X559439Y653313D01*
X559278Y653574D01*
X559124Y653839D01*
X558976Y654108D01*
X558835Y654380D01*
X558700Y654656D01*
X558572Y654934D01*
X558452Y655216D01*
X558338Y655501D01*
X558231Y655789D01*
X558131Y656079D01*
X558038Y656371D01*
X557953Y656666D01*
X557875Y656963D01*
X557804Y657261D01*
X557740Y657561D01*
X557684Y657863D01*
X557635Y658166D01*
X557594Y658470D01*
X557560Y658775D01*
X557534Y659080D01*
X557515Y659387D01*
X557504Y659693D01*
X557500Y660000D01*
X57500Y160000D02*
X57504Y160307D01*
X57515Y160613D01*
X57534Y160920D01*
X57560Y161225D01*
X57594Y161530D01*
X57635Y161834D01*
X57684Y162137D01*
X57740Y162439D01*
X57804Y162739D01*
X57875Y163037D01*
X57953Y163334D01*
X58038Y163629D01*
X58131Y163921D01*
X58231Y164211D01*
X58338Y164499D01*
X58452Y164784D01*
X58572Y165066D01*
X58700Y165344D01*
X58835Y165620D01*
X58976Y165892D01*
X59124Y166161D01*
X59278Y166426D01*
X59439Y166687D01*
X59607Y166945D01*
X59780Y167198D01*
X59960Y167446D01*
X60146Y167690D01*
X60337Y167930D01*
X60535Y168165D01*
X60738Y168394D01*
X60947Y168619D01*
X61161Y168839D01*
X61381Y169053D01*
X61606Y169262D01*
X61835Y169465D01*
X62070Y169663D01*
X62310Y169854D01*
X62554Y170040D01*
X62802Y170220D01*
X63055Y170393D01*
X63313Y170561D01*
X63574Y170722D01*
X63839Y170876D01*
X64108Y171024D01*
X64380Y171165D01*
X64656Y171300D01*
X64934Y171428D01*
X65216Y171548D01*
X65501Y171662D01*
X65789Y171769D01*
X66079Y171869D01*
X66371Y171962D01*
X66666Y172047D01*
X66963Y172125D01*
X67261Y172196D01*
X67561Y172260D01*
X67863Y172316D01*
X68166Y172365D01*
X68470Y172406D01*
X68775Y172440D01*
X69080Y172466D01*
X69387Y172485D01*
X69693Y172496D01*
X70000Y172500D01*
X70307Y172496D01*
X70613Y172485D01*
X70920Y172466D01*
X71225Y172440D01*
X71530Y172406D01*
X71834Y172365D01*
X72137Y172316D01*
X72439Y172260D01*
X72739Y172196D01*
X73037Y172125D01*
X73334Y172047D01*
X73629Y171962D01*
X73921Y171869D01*
X74211Y171769D01*
X74499Y171662D01*
X74784Y171548D01*
X75066Y171428D01*
X75344Y171300D01*
X75620Y171165D01*
X75892Y171024D01*
X76161Y170876D01*
X76426Y170722D01*
X76687Y170561D01*
X76945Y170393D01*
X77198Y170220D01*
X77446Y170040D01*
X77690Y169854D01*
X77930Y169663D01*
X78165Y169465D01*
X78394Y169262D01*
X78619Y169053D01*
X78839Y168839D01*
X79053Y168619D01*
X79262Y168394D01*
X79465Y168165D01*
X79663Y167930D01*
X79854Y167690D01*
X80040Y167446D01*
X80220Y167198D01*
X80393Y166945D01*
X80561Y166687D01*
X80722Y166426D01*
X80876Y166161D01*
X81024Y165892D01*
X81165Y165620D01*
X81300Y165344D01*
X81428Y165066D01*
X81548Y164784D01*
X81662Y164499D01*
X81769Y164211D01*
X81869Y163921D01*
X81962Y163629D01*
X82047Y163334D01*
X82125Y163037D01*
X82196Y162739D01*
X82260Y162439D01*
X82316Y162137D01*
X82365Y161834D01*
X82406Y161530D01*
X82440Y161225D01*
X82466Y160920D01*
X82485Y160613D01*
X82496Y160307D01*
X82500Y160000D01*
X82496Y159693D01*
X82485Y159387D01*
X82466Y159080D01*
X82440Y158775D01*
X82406Y158470D01*
X82365Y158166D01*
X82316Y157863D01*
X82260Y157561D01*
X82196Y157261D01*
X82125Y156963D01*
X82047Y156666D01*
X81962Y156371D01*
X81869Y156079D01*
X81769Y155789D01*
X81662Y155501D01*
X81548Y155216D01*
X81428Y154934D01*
X81300Y154656D01*
X81165Y154380D01*
X81024Y154108D01*
X80876Y153839D01*
X80722Y153574D01*
X80561Y153313D01*
X80393Y153055D01*
X80220Y152802D01*
X80040Y152554D01*
X79854Y152310D01*
X79663Y152070D01*
X79465Y151835D01*
X79262Y151606D01*
X79053Y151381D01*
X78839Y151161D01*
X78619Y150947D01*
X78394Y150738D01*
X78165Y150535D01*
X77930Y150337D01*
X77690Y150146D01*
X77446Y149960D01*
X77198Y149780D01*
X76945Y149607D01*
X76687Y149439D01*
X76426Y149278D01*
X76161Y149124D01*
X75892Y148976D01*
X75620Y148835D01*
X75344Y148700D01*
X75066Y148572D01*
X74784Y148452D01*
X74499Y148338D01*
X74211Y148231D01*
X73921Y148131D01*
X73629Y148038D01*
X73334Y147953D01*
X73037Y147875D01*
X72739Y147804D01*
X72439Y147740D01*
X72137Y147684D01*
X71834Y147635D01*
X71530Y147594D01*
X71225Y147560D01*
X70920Y147534D01*
X70613Y147515D01*
X70307Y147504D01*
X70000Y147500D01*
X69693Y147504D01*
X69387Y147515D01*
X69080Y147534D01*
X68775Y147560D01*
X68470Y147594D01*
X68166Y147635D01*
X67863Y147684D01*
X67561Y147740D01*
X67261Y147804D01*
X66963Y147875D01*
X66666Y147953D01*
X66371Y148038D01*
X66079Y148131D01*
X65789Y148231D01*
X65501Y148338D01*
X65216Y148452D01*
X64934Y148572D01*
X64656Y148700D01*
X64380Y148835D01*
X64108Y148976D01*
X63839Y149124D01*
X63574Y149278D01*
X63313Y149439D01*
X63055Y149607D01*
X62802Y149780D01*
X62554Y149960D01*
X62310Y150146D01*
X62070Y150337D01*
X61835Y150535D01*
X61606Y150738D01*
X61381Y150947D01*
X61161Y151161D01*
X60947Y151381D01*
X60738Y151606D01*
X60535Y151835D01*
X60337Y152070D01*
X60146Y152310D01*
X59960Y152554D01*
X59780Y152802D01*
X59607Y153055D01*
X59439Y153313D01*
X59278Y153574D01*
X59124Y153839D01*
X58976Y154108D01*
X58835Y154380D01*
X58700Y154656D01*
X58572Y154934D01*
X58452Y155216D01*
X58338Y155501D01*
X58231Y155789D01*
X58131Y156079D01*
X58038Y156371D01*
X57953Y156666D01*
X57875Y156963D01*
X57804Y157261D01*
X57740Y157561D01*
X57684Y157863D01*
X57635Y158166D01*
X57594Y158470D01*
X57560Y158775D01*
X57534Y159080D01*
X57515Y159387D01*
X57504Y159693D01*
X57500Y160000D01*
X559000Y591000D02*
X559003Y591270D01*
X559013Y591540D01*
X559030Y591809D01*
X559053Y592078D01*
X559083Y592347D01*
X559119Y592614D01*
X559162Y592881D01*
X559211Y593146D01*
X559267Y593410D01*
X559330Y593673D01*
X559398Y593934D01*
X559474Y594193D01*
X559555Y594450D01*
X559643Y594706D01*
X559737Y594959D01*
X559837Y595210D01*
X559944Y595458D01*
X560056Y595703D01*
X560175Y595946D01*
X560299Y596185D01*
X560429Y596422D01*
X560565Y596655D01*
X560707Y596885D01*
X560854Y597111D01*
X561007Y597334D01*
X561165Y597553D01*
X561328Y597768D01*
X561497Y597978D01*
X561671Y598185D01*
X561850Y598387D01*
X562033Y598585D01*
X562222Y598778D01*
X562415Y598967D01*
X562613Y599150D01*
X562815Y599329D01*
X563022Y599503D01*
X563232Y599672D01*
X563447Y599835D01*
X563666Y599993D01*
X563889Y600146D01*
X564115Y600293D01*
X564345Y600435D01*
X564578Y600571D01*
X564815Y600701D01*
X565054Y600825D01*
X565297Y600944D01*
X565542Y601056D01*
X565790Y601163D01*
X566041Y601263D01*
X566294Y601357D01*
X566550Y601445D01*
X566807Y601526D01*
X567066Y601602D01*
X567327Y601670D01*
X567590Y601733D01*
X567854Y601789D01*
X568119Y601838D01*
X568386Y601881D01*
X568653Y601917D01*
X568922Y601947D01*
X569191Y601970D01*
X569460Y601987D01*
X569730Y601997D01*
X570000Y602000D01*
X570270Y601997D01*
X570540Y601987D01*
X570809Y601970D01*
X571078Y601947D01*
X571347Y601917D01*
X571614Y601881D01*
X571881Y601838D01*
X572146Y601789D01*
X572410Y601733D01*
X572673Y601670D01*
X572934Y601602D01*
X573193Y601526D01*
X573450Y601445D01*
X573706Y601357D01*
X573959Y601263D01*
X574210Y601163D01*
X574458Y601056D01*
X574703Y600944D01*
X574946Y600825D01*
X575185Y600701D01*
X575422Y600571D01*
X575655Y600435D01*
X575885Y600293D01*
X576111Y600146D01*
X576334Y599993D01*
X576553Y599835D01*
X576768Y599672D01*
X576978Y599503D01*
X577185Y599329D01*
X577387Y599150D01*
X577585Y598967D01*
X577778Y598778D01*
X577967Y598585D01*
X578150Y598387D01*
X578329Y598185D01*
X578503Y597978D01*
X578672Y597768D01*
X578835Y597553D01*
X578993Y597334D01*
X579146Y597111D01*
X579293Y596885D01*
X579435Y596655D01*
X579571Y596422D01*
X579701Y596185D01*
X579825Y595946D01*
X579944Y595703D01*
X580056Y595458D01*
X580163Y595210D01*
X580263Y594959D01*
X580357Y594706D01*
X580445Y594450D01*
X580526Y594193D01*
X580602Y593934D01*
X580670Y593673D01*
X580733Y593410D01*
X580789Y593146D01*
X580838Y592881D01*
X580881Y592614D01*
X580917Y592347D01*
X580947Y592078D01*
X580970Y591809D01*
X580987Y591540D01*
X580997Y591270D01*
X581000Y591000D01*
X580997Y590730D01*
X580987Y590460D01*
X580970Y590191D01*
X580947Y589922D01*
X580917Y589653D01*
X580881Y589386D01*
X580838Y589119D01*
X580789Y588854D01*
X580733Y588590D01*
X580670Y588327D01*
X580602Y588066D01*
X580526Y587807D01*
X580445Y587550D01*
X580357Y587294D01*
X580263Y587041D01*
X580163Y586790D01*
X580056Y586542D01*
X579944Y586297D01*
X579825Y586054D01*
X579701Y585815D01*
X579571Y585578D01*
X579435Y585345D01*
X579293Y585115D01*
X579146Y584889D01*
X578993Y584666D01*
X578835Y584447D01*
X578672Y584232D01*
X578503Y584022D01*
X578329Y583815D01*
X578150Y583613D01*
X577967Y583415D01*
X577778Y583222D01*
X577585Y583033D01*
X577387Y582850D01*
X577185Y582671D01*
X576978Y582497D01*
X576768Y582328D01*
X576553Y582165D01*
X576334Y582007D01*
X576111Y581854D01*
X575885Y581707D01*
X575655Y581565D01*
X575422Y581429D01*
X575185Y581299D01*
X574946Y581175D01*
X574703Y581056D01*
X574458Y580944D01*
X574210Y580837D01*
X573959Y580737D01*
X573706Y580643D01*
X573450Y580555D01*
X573193Y580474D01*
X572934Y580398D01*
X572673Y580330D01*
X572410Y580267D01*
X572146Y580211D01*
X571881Y580162D01*
X571614Y580119D01*
X571347Y580083D01*
X571078Y580053D01*
X570809Y580030D01*
X570540Y580013D01*
X570270Y580003D01*
X570000Y580000D01*
X569730Y580003D01*
X569460Y580013D01*
X569191Y580030D01*
X568922Y580053D01*
X568653Y580083D01*
X568386Y580119D01*
X568119Y580162D01*
X567854Y580211D01*
X567590Y580267D01*
X567327Y580330D01*
X567066Y580398D01*
X566807Y580474D01*
X566550Y580555D01*
X566294Y580643D01*
X566041Y580737D01*
X565790Y580837D01*
X565542Y580944D01*
X565297Y581056D01*
X565054Y581175D01*
X564815Y581299D01*
X564578Y581429D01*
X564345Y581565D01*
X564115Y581707D01*
X563889Y581854D01*
X563666Y582007D01*
X563447Y582165D01*
X563232Y582328D01*
X563022Y582497D01*
X562815Y582671D01*
X562613Y582850D01*
X562415Y583033D01*
X562222Y583222D01*
X562033Y583415D01*
X561850Y583613D01*
X561671Y583815D01*
X561497Y584022D01*
X561328Y584232D01*
X561165Y584447D01*
X561007Y584666D01*
X560854Y584889D01*
X560707Y585115D01*
X560565Y585345D01*
X560429Y585578D01*
X560299Y585815D01*
X560175Y586054D01*
X560056Y586297D01*
X559944Y586542D01*
X559837Y586790D01*
X559737Y587041D01*
X559643Y587294D01*
X559555Y587550D01*
X559474Y587807D01*
X559398Y588066D01*
X559330Y588327D01*
X559267Y588590D01*
X559211Y588854D01*
X559162Y589119D01*
X559119Y589386D01*
X559083Y589653D01*
X559053Y589922D01*
X559030Y590191D01*
X559013Y590460D01*
X559003Y590730D01*
X559000Y591000D01*
X559000Y229000D02*
X559003Y229270D01*
X559013Y229540D01*
X559030Y229809D01*
X559053Y230078D01*
X559083Y230347D01*
X559119Y230614D01*
X559162Y230881D01*
X559211Y231146D01*
X559267Y231410D01*
X559330Y231673D01*
X559398Y231934D01*
X559474Y232193D01*
X559555Y232450D01*
X559643Y232706D01*
X559737Y232959D01*
X559837Y233210D01*
X559944Y233458D01*
X560056Y233703D01*
X560175Y233946D01*
X560299Y234185D01*
X560429Y234422D01*
X560565Y234655D01*
X560707Y234885D01*
X560854Y235111D01*
X561007Y235334D01*
X561165Y235553D01*
X561328Y235768D01*
X561497Y235978D01*
X561671Y236185D01*
X561850Y236387D01*
X562033Y236585D01*
X562222Y236778D01*
X562415Y236967D01*
X562613Y237150D01*
X562815Y237329D01*
X563022Y237503D01*
X563232Y237672D01*
X563447Y237835D01*
X563666Y237993D01*
X563889Y238146D01*
X564115Y238293D01*
X564345Y238435D01*
X564578Y238571D01*
X564815Y238701D01*
X565054Y238825D01*
X565297Y238944D01*
X565542Y239056D01*
X565790Y239163D01*
X566041Y239263D01*
X566294Y239357D01*
X566550Y239445D01*
X566807Y239526D01*
X567066Y239602D01*
X567327Y239670D01*
X567590Y239733D01*
X567854Y239789D01*
X568119Y239838D01*
X568386Y239881D01*
X568653Y239917D01*
X568922Y239947D01*
X569191Y239970D01*
X569460Y239987D01*
X569730Y239997D01*
X570000Y240000D01*
X570270Y239997D01*
X570540Y239987D01*
X570809Y239970D01*
X571078Y239947D01*
X571347Y239917D01*
X571614Y239881D01*
X571881Y239838D01*
X572146Y239789D01*
X572410Y239733D01*
X572673Y239670D01*
X572934Y239602D01*
X573193Y239526D01*
X573450Y239445D01*
X573706Y239357D01*
X573959Y239263D01*
X574210Y239163D01*
X574458Y239056D01*
X574703Y238944D01*
X574946Y238825D01*
X575185Y238701D01*
X575422Y238571D01*
X575655Y238435D01*
X575885Y238293D01*
X576111Y238146D01*
X576334Y237993D01*
X576553Y237835D01*
X576768Y237672D01*
X576978Y237503D01*
X577185Y237329D01*
X577387Y237150D01*
X577585Y236967D01*
X577778Y236778D01*
X577967Y236585D01*
X578150Y236387D01*
X578329Y236185D01*
X578503Y235978D01*
X578672Y235768D01*
X578835Y235553D01*
X578993Y235334D01*
X579146Y235111D01*
X579293Y234885D01*
X579435Y234655D01*
X579571Y234422D01*
X579701Y234185D01*
X579825Y233946D01*
X579944Y233703D01*
X580056Y233458D01*
X580163Y233210D01*
X580263Y232959D01*
X580357Y232706D01*
X580445Y232450D01*
X580526Y232193D01*
X580602Y231934D01*
X580670Y231673D01*
X580733Y231410D01*
X580789Y231146D01*
X580838Y230881D01*
X580881Y230614D01*
X580917Y230347D01*
X580947Y230078D01*
X580970Y229809D01*
X580987Y229540D01*
X580997Y229270D01*
X581000Y229000D01*
X580997Y228730D01*
X580987Y228460D01*
X580970Y228191D01*
X580947Y227922D01*
X580917Y227653D01*
X580881Y227386D01*
X580838Y227119D01*
X580789Y226854D01*
X580733Y226590D01*
X580670Y226327D01*
X580602Y226066D01*
X580526Y225807D01*
X580445Y225550D01*
X580357Y225294D01*
X580263Y225041D01*
X580163Y224790D01*
X580056Y224542D01*
X579944Y224297D01*
X579825Y224054D01*
X579701Y223815D01*
X579571Y223578D01*
X579435Y223345D01*
X579293Y223115D01*
X579146Y222889D01*
X578993Y222666D01*
X578835Y222447D01*
X578672Y222232D01*
X578503Y222022D01*
X578329Y221815D01*
X578150Y221613D01*
X577967Y221415D01*
X577778Y221222D01*
X577585Y221033D01*
X577387Y220850D01*
X577185Y220671D01*
X576978Y220497D01*
X576768Y220328D01*
X576553Y220165D01*
X576334Y220007D01*
X576111Y219854D01*
X575885Y219707D01*
X575655Y219565D01*
X575422Y219429D01*
X575185Y219299D01*
X574946Y219175D01*
X574703Y219056D01*
X574458Y218944D01*
X574210Y218837D01*
X573959Y218737D01*
X573706Y218643D01*
X573450Y218555D01*
X573193Y218474D01*
X572934Y218398D01*
X572673Y218330D01*
X572410Y218267D01*
X572146Y218211D01*
X571881Y218162D01*
X571614Y218119D01*
X571347Y218083D01*
X571078Y218053D01*
X570809Y218030D01*
X570540Y218013D01*
X570270Y218003D01*
X570000Y218000D01*
X569730Y218003D01*
X569460Y218013D01*
X569191Y218030D01*
X568922Y218053D01*
X568653Y218083D01*
X568386Y218119D01*
X568119Y218162D01*
X567854Y218211D01*
X567590Y218267D01*
X567327Y218330D01*
X567066Y218398D01*
X566807Y218474D01*
X566550Y218555D01*
X566294Y218643D01*
X566041Y218737D01*
X565790Y218837D01*
X565542Y218944D01*
X565297Y219056D01*
X565054Y219175D01*
X564815Y219299D01*
X564578Y219429D01*
X564345Y219565D01*
X564115Y219707D01*
X563889Y219854D01*
X563666Y220007D01*
X563447Y220165D01*
X563232Y220328D01*
X563022Y220497D01*
X562815Y220671D01*
X562613Y220850D01*
X562415Y221033D01*
X562222Y221222D01*
X562033Y221415D01*
X561850Y221613D01*
X561671Y221815D01*
X561497Y222022D01*
X561328Y222232D01*
X561165Y222447D01*
X561007Y222666D01*
X560854Y222889D01*
X560707Y223115D01*
X560565Y223345D01*
X560429Y223578D01*
X560299Y223815D01*
X560175Y224054D01*
X560056Y224297D01*
X559944Y224542D01*
X559837Y224790D01*
X559737Y225041D01*
X559643Y225294D01*
X559555Y225550D01*
X559474Y225807D01*
X559398Y226066D01*
X559330Y226327D01*
X559267Y226590D01*
X559211Y226854D01*
X559162Y227119D01*
X559119Y227386D01*
X559083Y227653D01*
X559053Y227922D01*
X559030Y228191D01*
X559013Y228460D01*
X559003Y228730D01*
X559000Y229000D01*
X59000Y229000D02*
X59003Y229270D01*
X59013Y229540D01*
X59030Y229809D01*
X59053Y230078D01*
X59083Y230347D01*
X59119Y230614D01*
X59162Y230881D01*
X59211Y231146D01*
X59267Y231410D01*
X59330Y231673D01*
X59398Y231934D01*
X59474Y232193D01*
X59555Y232450D01*
X59643Y232706D01*
X59737Y232959D01*
X59837Y233210D01*
X59944Y233458D01*
X60056Y233703D01*
X60175Y233946D01*
X60299Y234185D01*
X60429Y234422D01*
X60565Y234655D01*
X60707Y234885D01*
X60854Y235111D01*
X61007Y235334D01*
X61165Y235553D01*
X61328Y235768D01*
X61497Y235978D01*
X61671Y236185D01*
X61850Y236387D01*
X62033Y236585D01*
X62222Y236778D01*
X62415Y236967D01*
X62613Y237150D01*
X62815Y237329D01*
X63022Y237503D01*
X63232Y237672D01*
X63447Y237835D01*
X63666Y237993D01*
X63889Y238146D01*
X64115Y238293D01*
X64345Y238435D01*
X64578Y238571D01*
X64815Y238701D01*
X65054Y238825D01*
X65297Y238944D01*
X65542Y239056D01*
X65790Y239163D01*
X66041Y239263D01*
X66294Y239357D01*
X66550Y239445D01*
X66807Y239526D01*
X67066Y239602D01*
X67327Y239670D01*
X67590Y239733D01*
X67854Y239789D01*
X68119Y239838D01*
X68386Y239881D01*
X68653Y239917D01*
X68922Y239947D01*
X69191Y239970D01*
X69460Y239987D01*
X69730Y239997D01*
X70000Y240000D01*
X70270Y239997D01*
X70540Y239987D01*
X70809Y239970D01*
X71078Y239947D01*
X71347Y239917D01*
X71614Y239881D01*
X71881Y239838D01*
X72146Y239789D01*
X72410Y239733D01*
X72673Y239670D01*
X72934Y239602D01*
X73193Y239526D01*
X73450Y239445D01*
X73706Y239357D01*
X73959Y239263D01*
X74210Y239163D01*
X74458Y239056D01*
X74703Y238944D01*
X74946Y238825D01*
X75185Y238701D01*
X75422Y238571D01*
X75655Y238435D01*
X75885Y238293D01*
X76111Y238146D01*
X76334Y237993D01*
X76553Y237835D01*
X76768Y237672D01*
X76978Y237503D01*
X77185Y237329D01*
X77387Y237150D01*
X77585Y236967D01*
X77778Y236778D01*
X77967Y236585D01*
X78150Y236387D01*
X78329Y236185D01*
X78503Y235978D01*
X78672Y235768D01*
X78835Y235553D01*
X78993Y235334D01*
X79146Y235111D01*
X79293Y234885D01*
X79435Y234655D01*
X79571Y234422D01*
X79701Y234185D01*
X79825Y233946D01*
X79944Y233703D01*
X80056Y233458D01*
X80163Y233210D01*
X80263Y232959D01*
X80357Y232706D01*
X80445Y232450D01*
X80526Y232193D01*
X80602Y231934D01*
X80670Y231673D01*
X80733Y231410D01*
X80789Y231146D01*
X80838Y230881D01*
X80881Y230614D01*
X80917Y230347D01*
X80947Y230078D01*
X80970Y229809D01*
X80987Y229540D01*
X80997Y229270D01*
X81000Y229000D01*
X80997Y228730D01*
X80987Y228460D01*
X80970Y228191D01*
X80947Y227922D01*
X80917Y227653D01*
X80881Y227386D01*
X80838Y227119D01*
X80789Y226854D01*
X80733Y226590D01*
X80670Y226327D01*
X80602Y226066D01*
X80526Y225807D01*
X80445Y225550D01*
X80357Y225294D01*
X80263Y225041D01*
X80163Y224790D01*
X80056Y224542D01*
X79944Y224297D01*
X79825Y224054D01*
X79701Y223815D01*
X79571Y223578D01*
X79435Y223345D01*
X79293Y223115D01*
X79146Y222889D01*
X78993Y222666D01*
X78835Y222447D01*
X78672Y222232D01*
X78503Y222022D01*
X78329Y221815D01*
X78150Y221613D01*
X77967Y221415D01*
X77778Y221222D01*
X77585Y221033D01*
X77387Y220850D01*
X77185Y220671D01*
X76978Y220497D01*
X76768Y220328D01*
X76553Y220165D01*
X76334Y220007D01*
X76111Y219854D01*
X75885Y219707D01*
X75655Y219565D01*
X75422Y219429D01*
X75185Y219299D01*
X74946Y219175D01*
X74703Y219056D01*
X74458Y218944D01*
X74210Y218837D01*
X73959Y218737D01*
X73706Y218643D01*
X73450Y218555D01*
X73193Y218474D01*
X72934Y218398D01*
X72673Y218330D01*
X72410Y218267D01*
X72146Y218211D01*
X71881Y218162D01*
X71614Y218119D01*
X71347Y218083D01*
X71078Y218053D01*
X70809Y218030D01*
X70540Y218013D01*
X70270Y218003D01*
X70000Y218000D01*
X69730Y218003D01*
X69460Y218013D01*
X69191Y218030D01*
X68922Y218053D01*
X68653Y218083D01*
X68386Y218119D01*
X68119Y218162D01*
X67854Y218211D01*
X67590Y218267D01*
X67327Y218330D01*
X67066Y218398D01*
X66807Y218474D01*
X66550Y218555D01*
X66294Y218643D01*
X66041Y218737D01*
X65790Y218837D01*
X65542Y218944D01*
X65297Y219056D01*
X65054Y219175D01*
X64815Y219299D01*
X64578Y219429D01*
X64345Y219565D01*
X64115Y219707D01*
X63889Y219854D01*
X63666Y220007D01*
X63447Y220165D01*
X63232Y220328D01*
X63022Y220497D01*
X62815Y220671D01*
X62613Y220850D01*
X62415Y221033D01*
X62222Y221222D01*
X62033Y221415D01*
X61850Y221613D01*
X61671Y221815D01*
X61497Y222022D01*
X61328Y222232D01*
X61165Y222447D01*
X61007Y222666D01*
X60854Y222889D01*
X60707Y223115D01*
X60565Y223345D01*
X60429Y223578D01*
X60299Y223815D01*
X60175Y224054D01*
X60056Y224297D01*
X59944Y224542D01*
X59837Y224790D01*
X59737Y225041D01*
X59643Y225294D01*
X59555Y225550D01*
X59474Y225807D01*
X59398Y226066D01*
X59330Y226327D01*
X59267Y226590D01*
X59211Y226854D01*
X59162Y227119D01*
X59119Y227386D01*
X59083Y227653D01*
X59053Y227922D01*
X59030Y228191D01*
X59013Y228460D01*
X59003Y228730D01*
X59000Y229000D01*
X59000Y591000D02*
X59003Y591270D01*
X59013Y591540D01*
X59030Y591809D01*
X59053Y592078D01*
X59083Y592347D01*
X59119Y592614D01*
X59162Y592881D01*
X59211Y593146D01*
X59267Y593410D01*
X59330Y593673D01*
X59398Y593934D01*
X59474Y594193D01*
X59555Y594450D01*
X59643Y594706D01*
X59737Y594959D01*
X59837Y595210D01*
X59944Y595458D01*
X60056Y595703D01*
X60175Y595946D01*
X60299Y596185D01*
X60429Y596422D01*
X60565Y596655D01*
X60707Y596885D01*
X60854Y597111D01*
X61007Y597334D01*
X61165Y597553D01*
X61328Y597768D01*
X61497Y597978D01*
X61671Y598185D01*
X61850Y598387D01*
X62033Y598585D01*
X62222Y598778D01*
X62415Y598967D01*
X62613Y599150D01*
X62815Y599329D01*
X63022Y599503D01*
X63232Y599672D01*
X63447Y599835D01*
X63666Y599993D01*
X63889Y600146D01*
X64115Y600293D01*
X64345Y600435D01*
X64578Y600571D01*
X64815Y600701D01*
X65054Y600825D01*
X65297Y600944D01*
X65542Y601056D01*
X65790Y601163D01*
X66041Y601263D01*
X66294Y601357D01*
X66550Y601445D01*
X66807Y601526D01*
X67066Y601602D01*
X67327Y601670D01*
X67590Y601733D01*
X67854Y601789D01*
X68119Y601838D01*
X68386Y601881D01*
X68653Y601917D01*
X68922Y601947D01*
X69191Y601970D01*
X69460Y601987D01*
X69730Y601997D01*
X70000Y602000D01*
X70270Y601997D01*
X70540Y601987D01*
X70809Y601970D01*
X71078Y601947D01*
X71347Y601917D01*
X71614Y601881D01*
X71881Y601838D01*
X72146Y601789D01*
X72410Y601733D01*
X72673Y601670D01*
X72934Y601602D01*
X73193Y601526D01*
X73450Y601445D01*
X73706Y601357D01*
X73959Y601263D01*
X74210Y601163D01*
X74458Y601056D01*
X74703Y600944D01*
X74946Y600825D01*
X75185Y600701D01*
X75422Y600571D01*
X75655Y600435D01*
X75885Y600293D01*
X76111Y600146D01*
X76334Y599993D01*
X76553Y599835D01*
X76768Y599672D01*
X76978Y599503D01*
X77185Y599329D01*
X77387Y599150D01*
X77585Y598967D01*
X77778Y598778D01*
X77967Y598585D01*
X78150Y598387D01*
X78329Y598185D01*
X78503Y597978D01*
X78672Y597768D01*
X78835Y597553D01*
X78993Y597334D01*
X79146Y597111D01*
X79293Y596885D01*
X79435Y596655D01*
X79571Y596422D01*
X79701Y596185D01*
X79825Y595946D01*
X79944Y595703D01*
X80056Y595458D01*
X80163Y595210D01*
X80263Y594959D01*
X80357Y594706D01*
X80445Y594450D01*
X80526Y594193D01*
X80602Y593934D01*
X80670Y593673D01*
X80733Y593410D01*
X80789Y593146D01*
X80838Y592881D01*
X80881Y592614D01*
X80917Y592347D01*
X80947Y592078D01*
X80970Y591809D01*
X80987Y591540D01*
X80997Y591270D01*
X81000Y591000D01*
X80997Y590730D01*
X80987Y590460D01*
X80970Y590191D01*
X80947Y589922D01*
X80917Y589653D01*
X80881Y589386D01*
X80838Y589119D01*
X80789Y588854D01*
X80733Y588590D01*
X80670Y588327D01*
X80602Y588066D01*
X80526Y587807D01*
X80445Y587550D01*
X80357Y587294D01*
X80263Y587041D01*
X80163Y586790D01*
X80056Y586542D01*
X79944Y586297D01*
X79825Y586054D01*
X79701Y585815D01*
X79571Y585578D01*
X79435Y585345D01*
X79293Y585115D01*
X79146Y584889D01*
X78993Y584666D01*
X78835Y584447D01*
X78672Y584232D01*
X78503Y584022D01*
X78329Y583815D01*
X78150Y583613D01*
X77967Y583415D01*
X77778Y583222D01*
X77585Y583033D01*
X77387Y582850D01*
X77185Y582671D01*
X76978Y582497D01*
X76768Y582328D01*
X76553Y582165D01*
X76334Y582007D01*
X76111Y581854D01*
X75885Y581707D01*
X75655Y581565D01*
X75422Y581429D01*
X75185Y581299D01*
X74946Y581175D01*
X74703Y581056D01*
X74458Y580944D01*
X74210Y580837D01*
X73959Y580737D01*
X73706Y580643D01*
X73450Y580555D01*
X73193Y580474D01*
X72934Y580398D01*
X72673Y580330D01*
X72410Y580267D01*
X72146Y580211D01*
X71881Y580162D01*
X71614Y580119D01*
X71347Y580083D01*
X71078Y580053D01*
X70809Y580030D01*
X70540Y580013D01*
X70270Y580003D01*
X70000Y580000D01*
X69730Y580003D01*
X69460Y580013D01*
X69191Y580030D01*
X68922Y580053D01*
X68653Y580083D01*
X68386Y580119D01*
X68119Y580162D01*
X67854Y580211D01*
X67590Y580267D01*
X67327Y580330D01*
X67066Y580398D01*
X66807Y580474D01*
X66550Y580555D01*
X66294Y580643D01*
X66041Y580737D01*
X65790Y580837D01*
X65542Y580944D01*
X65297Y581056D01*
X65054Y581175D01*
X64815Y581299D01*
X64578Y581429D01*
X64345Y581565D01*
X64115Y581707D01*
X63889Y581854D01*
X63666Y582007D01*
X63447Y582165D01*
X63232Y582328D01*
X63022Y582497D01*
X62815Y582671D01*
X62613Y582850D01*
X62415Y583033D01*
X62222Y583222D01*
X62033Y583415D01*
X61850Y583613D01*
X61671Y583815D01*
X61497Y584022D01*
X61328Y584232D01*
X61165Y584447D01*
X61007Y584666D01*
X60854Y584889D01*
X60707Y585115D01*
X60565Y585345D01*
X60429Y585578D01*
X60299Y585815D01*
X60175Y586054D01*
X60056Y586297D01*
X59944Y586542D01*
X59837Y586790D01*
X59737Y587041D01*
X59643Y587294D01*
X59555Y587550D01*
X59474Y587807D01*
X59398Y588066D01*
X59330Y588327D01*
X59267Y588590D01*
X59211Y588854D01*
X59162Y589119D01*
X59119Y589386D01*
X59083Y589653D01*
X59053Y589922D01*
X59030Y590191D01*
X59013Y590460D01*
X59003Y590730D01*
X59000Y591000D01*
D11*
X429888Y426792D02*
X431795Y424885D01*
X433701Y424885D01*
X435608Y426792D01*
X435608Y436325D01*
X433701Y436325D02*
X437515Y436325D01*
X441582Y436325D02*
X441582Y424885D01*
X441582Y436325D02*
X447302Y436325D01*
X449209Y434418D01*
X449209Y430605D01*
X447302Y428698D01*
X441582Y428698D01*
X453276Y432512D02*
X457089Y436325D01*
X457089Y424885D01*
X453276Y424885D02*
X460903Y424885D01*
X464970Y424885D02*
X472597Y436325D01*
X482384Y436325D02*
X484290Y434418D01*
X482384Y436325D02*
X478571Y436325D01*
X476664Y434418D01*
X476664Y432512D01*
X478571Y430605D01*
X482384Y430605D01*
X484290Y428698D01*
X484290Y426792D01*
X482384Y424885D01*
X478571Y424885D01*
X476664Y426792D01*
X494078Y436325D02*
X495984Y434418D01*
X494078Y436325D02*
X490265Y436325D01*
X488358Y434418D01*
X488358Y426792D01*
X490265Y424885D01*
X494078Y424885D01*
X495984Y426792D01*
X500052Y424885D02*
X500052Y436325D01*
X500052Y424885D02*
X507678Y424885D01*
X511746Y421072D02*
X515559Y424885D01*
X515559Y426792D01*
X513653Y426792D01*
X513653Y424885D01*
X515559Y424885D01*
X531236Y426792D02*
X533142Y424885D01*
X535049Y424885D01*
X536956Y426792D01*
X536956Y436325D01*
X538862Y436325D02*
X535049Y436325D01*
X542930Y436325D02*
X542930Y424885D01*
X542930Y436325D02*
X548650Y436325D01*
X550556Y434418D01*
X550556Y430605D01*
X548650Y428698D01*
X542930Y428698D01*
X554624Y424885D02*
X562250Y424885D01*
X554624Y424885D02*
X562250Y432512D01*
X562250Y434418D01*
X560344Y436325D01*
X556530Y436325D01*
X554624Y434418D01*
X566318Y424885D02*
X573944Y436325D01*
X583732Y436325D02*
X585638Y434418D01*
X583732Y436325D02*
X579918Y436325D01*
X578012Y434418D01*
X578012Y432512D01*
X579918Y430605D01*
X583732Y430605D01*
X585638Y428698D01*
X585638Y426792D01*
X583732Y424885D01*
X579918Y424885D01*
X578012Y426792D01*
X589706Y424885D02*
X589706Y436325D01*
X589706Y424885D02*
X595426Y424885D01*
X597332Y426792D01*
X597332Y434418D01*
X595426Y436325D01*
X589706Y436325D01*
X601400Y432512D02*
X601400Y424885D01*
X601400Y432512D02*
X605213Y436325D01*
X609026Y432512D01*
X609026Y424885D01*
X609026Y430605D02*
X601400Y430605D01*
X613094Y432512D02*
X615000Y432512D01*
X615000Y430605D01*
X613094Y430605D01*
X613094Y432512D01*
X613094Y426792D02*
X615000Y426792D01*
X615000Y424885D01*
X613094Y424885D01*
X613094Y426792D01*
X453276Y417275D02*
X453276Y405835D01*
X453276Y417275D02*
X458996Y417275D01*
X460903Y415368D01*
X460903Y411555D01*
X458996Y409648D01*
X453276Y409648D01*
X464970Y407742D02*
X464970Y413462D01*
X464970Y407742D02*
X466877Y405835D01*
X472597Y405835D01*
X472597Y413462D01*
X476664Y417275D02*
X478571Y417275D01*
X478571Y405835D01*
X480477Y405835D02*
X476664Y405835D01*
X484460Y417275D02*
X486367Y417275D01*
X486367Y405835D01*
X488273Y405835D02*
X484460Y405835D01*
X503950Y405835D02*
X503950Y417275D01*
X505857Y413462D02*
X503950Y411555D01*
X505857Y413462D02*
X509670Y413462D01*
X511576Y411555D01*
X511576Y405835D01*
X515644Y413462D02*
X517550Y413462D01*
X517550Y405835D01*
X515644Y405835D02*
X519457Y405835D01*
X517550Y417275D02*
X517550Y419181D01*
X527253Y402022D02*
X529160Y402022D01*
X531066Y403928D01*
X531066Y413462D01*
X525346Y413462D01*
X523440Y411555D01*
X523440Y407742D01*
X525346Y405835D01*
X531066Y405835D01*
X535134Y405835D02*
X535134Y417275D01*
X537040Y413462D02*
X535134Y411555D01*
X537040Y413462D02*
X540854Y413462D01*
X542760Y411555D01*
X542760Y405835D01*
X546828Y402022D02*
X550641Y405835D01*
X550641Y407742D01*
X548734Y407742D01*
X548734Y405835D01*
X550641Y405835D01*
X566318Y413462D02*
X568224Y413462D01*
X568224Y405835D01*
X566318Y405835D02*
X570131Y405835D01*
X568224Y417275D02*
X568224Y419181D01*
X576020Y415368D02*
X576020Y405835D01*
X576020Y415368D02*
X577927Y417275D01*
X577927Y411555D02*
X574114Y411555D01*
X593604Y405835D02*
X599323Y405835D01*
X601230Y407742D01*
X599323Y409648D01*
X595510Y409648D01*
X593604Y411555D01*
X595510Y413462D01*
X601230Y413462D01*
X607204Y405835D02*
X611017Y405835D01*
X607204Y405835D02*
X605298Y407742D01*
X605298Y411555D01*
X607204Y413462D01*
X611017Y413462D01*
X612924Y411555D01*
X612924Y409648D01*
X605298Y409648D01*
X618898Y407742D02*
X618898Y415368D01*
X618898Y407742D02*
X620805Y405835D01*
X620805Y413462D02*
X616992Y413462D01*
X431795Y386785D02*
X429888Y388692D01*
X431795Y386785D02*
X433701Y386785D01*
X435608Y388692D01*
X435608Y398225D01*
X433701Y398225D02*
X437515Y398225D01*
X441582Y398225D02*
X441582Y386785D01*
X441582Y398225D02*
X447302Y398225D01*
X449209Y396318D01*
X449209Y392505D01*
X447302Y390598D01*
X441582Y390598D01*
X453276Y396318D02*
X455183Y398225D01*
X458996Y398225D01*
X460903Y396318D01*
X460903Y394412D01*
X458996Y392505D01*
X457089Y392505D01*
X458996Y392505D02*
X460903Y390598D01*
X460903Y388692D01*
X458996Y386785D01*
X455183Y386785D01*
X453276Y388692D01*
X464970Y386785D02*
X472597Y398225D01*
X476664Y386785D02*
X480477Y386785D01*
X478571Y386785D02*
X478571Y398225D01*
X480477Y398225D02*
X476664Y398225D01*
X484460Y398225D02*
X484460Y386785D01*
X492086Y386785D02*
X484460Y398225D01*
X492086Y398225D02*
X492086Y386785D01*
X499967Y386785D02*
X499967Y398225D01*
X496154Y398225D02*
X503780Y398225D01*
X507848Y394412D02*
X509755Y394412D01*
X509755Y392505D01*
X507848Y392505D01*
X507848Y394412D01*
X507848Y388692D02*
X509755Y388692D01*
X509755Y386785D01*
X507848Y386785D01*
X507848Y388692D01*
X449209Y377268D02*
X447302Y379175D01*
X443489Y379175D01*
X441582Y377268D01*
X441582Y375362D01*
X443489Y373455D01*
X447302Y373455D01*
X449209Y371548D01*
X449209Y369642D01*
X447302Y367735D01*
X443489Y367735D01*
X441582Y369642D01*
X455183Y367735D02*
X458996Y367735D01*
X455183Y367735D02*
X453276Y369642D01*
X453276Y373455D01*
X455183Y375362D01*
X458996Y375362D01*
X460903Y373455D01*
X460903Y371548D01*
X453276Y371548D01*
X466877Y369642D02*
X466877Y377268D01*
X466877Y369642D02*
X468783Y367735D01*
X468783Y375362D02*
X464970Y375362D01*
X472766Y363922D02*
X476579Y367735D01*
X476579Y369642D01*
X474673Y369642D01*
X474673Y367735D01*
X476579Y367735D01*
X492256Y375362D02*
X494163Y375362D01*
X494163Y367735D01*
X496069Y367735D02*
X492256Y367735D01*
X494163Y379175D02*
X494163Y381081D01*
X501959Y377268D02*
X501959Y367735D01*
X501959Y377268D02*
X503865Y379175D01*
X503865Y373455D02*
X500052Y373455D01*
X521448Y367735D02*
X525262Y367735D01*
X527168Y369642D01*
X527168Y373455D01*
X525262Y375362D01*
X521448Y375362D01*
X519542Y373455D01*
X519542Y369642D01*
X521448Y367735D01*
X531236Y363922D02*
X531236Y375362D01*
X536956Y375362D01*
X538862Y373455D01*
X538862Y369642D01*
X536956Y367735D01*
X531236Y367735D01*
X544836Y367735D02*
X548650Y367735D01*
X544836Y367735D02*
X542930Y369642D01*
X542930Y373455D01*
X544836Y375362D01*
X548650Y375362D01*
X550556Y373455D01*
X550556Y371548D01*
X542930Y371548D01*
X554624Y367735D02*
X554624Y375362D01*
X560344Y375362D01*
X562250Y373455D01*
X562250Y367735D01*
X585638Y367735D02*
X585638Y379175D01*
X585638Y367735D02*
X579918Y367735D01*
X578012Y369642D01*
X578012Y373455D01*
X579918Y375362D01*
X585638Y375362D01*
X589706Y375362D02*
X589706Y367735D01*
X589706Y371548D02*
X593519Y375362D01*
X595426Y375362D01*
X601357Y375362D02*
X605170Y375362D01*
X607077Y373455D01*
X607077Y367735D01*
X601357Y367735D01*
X599451Y369642D01*
X601357Y371548D01*
X607077Y371548D01*
X611145Y375362D02*
X613051Y375362D01*
X613051Y367735D01*
X611145Y367735D02*
X614958Y367735D01*
X613051Y379175D02*
X613051Y381081D01*
X618941Y375362D02*
X618941Y367735D01*
X618941Y375362D02*
X624660Y375362D01*
X626567Y373455D01*
X626567Y367735D01*
D12*
X58509Y725345D02*
X55839Y728015D01*
X50501Y728015D01*
X47832Y725345D01*
X47832Y714668D01*
X50501Y711999D01*
X55839Y711999D01*
X58509Y714668D01*
X58509Y720007D01*
X53170Y720007D01*
X64203Y711999D02*
X64203Y728015D01*
X74880Y711999D01*
X74880Y728015D01*
X80575Y728015D02*
X80575Y711999D01*
X88583Y711999D01*
X91252Y714668D01*
X91252Y725345D01*
X88583Y728015D01*
X80575Y728015D01*
D13*
X146320Y717080D02*
X146320Y714540D01*
X138700Y717080D02*
X146320Y704380D01*
X138700Y717080D02*
X131080Y704380D01*
X138700Y717080D02*
X146320Y717080D01*
X138700Y717080D02*
X131080Y717080D01*
X131080Y719620D01*
D14*
X149200Y688884D02*
X158192Y688884D01*
X158192Y693380D01*
X156693Y694879D01*
X150699Y694879D01*
X149200Y693380D01*
X149200Y688884D01*
X152198Y698092D02*
X149200Y701089D01*
X158192Y701089D01*
X158192Y698092D02*
X158192Y704087D01*
X152198Y707300D02*
X149200Y710297D01*
X158192Y710297D01*
X158192Y707300D02*
X158192Y713295D01*
D15*
X344920Y676380D02*
X355080Y684000D01*
X344920Y691620D01*
X355080Y684000D02*
X355080Y676380D01*
X355080Y684000D02*
X355080Y691620D01*
X344920Y691620D02*
X344920Y676380D01*
D14*
X353300Y655800D02*
X362292Y655800D01*
X362292Y660296D01*
X360793Y661795D01*
X354799Y661795D01*
X353300Y660296D01*
X353300Y655800D01*
X353300Y665008D02*
X353300Y671002D01*
X353300Y665008D02*
X357796Y665008D01*
X356298Y668005D01*
X356298Y669504D01*
X357796Y671002D01*
X360793Y671002D01*
X362292Y669504D01*
X362292Y666507D01*
X360793Y665008D01*
D13*
X426320Y714540D02*
X426320Y717080D01*
X418700Y717080D02*
X426320Y704380D01*
X418700Y717080D02*
X411080Y704380D01*
X418700Y717080D02*
X426320Y717080D01*
X418700Y717080D02*
X411080Y717080D01*
X411080Y719620D01*
D14*
X429200Y688884D02*
X438192Y688884D01*
X438192Y693380D01*
X436693Y694879D01*
X430699Y694879D01*
X429200Y693380D01*
X429200Y688884D01*
X432198Y698092D02*
X429200Y701089D01*
X438192Y701089D01*
X438192Y698092D02*
X438192Y704087D01*
X430699Y710297D02*
X429200Y713295D01*
X430699Y710297D02*
X433696Y707300D01*
X436693Y707300D01*
X438192Y708799D01*
X438192Y711796D01*
X436693Y713295D01*
X435195Y713295D01*
X433696Y711796D01*
X433696Y707300D01*
D15*
X411080Y684000D02*
X400920Y676380D01*
X411080Y684000D02*
X400920Y691620D01*
X411080Y684000D02*
X411080Y676380D01*
X411080Y684000D02*
X411080Y691620D01*
X400920Y691620D02*
X400920Y676380D01*
D14*
X404300Y655800D02*
X413292Y655800D01*
X413292Y660296D01*
X411793Y661795D01*
X405799Y661795D01*
X404300Y660296D01*
X404300Y655800D01*
X405799Y668005D02*
X404300Y671002D01*
X405799Y668005D02*
X408796Y665008D01*
X411793Y665008D01*
X413292Y666507D01*
X413292Y669504D01*
X411793Y671002D01*
X410295Y671002D01*
X408796Y669504D01*
X408796Y665008D01*
D13*
X482320Y714540D02*
X482320Y717080D01*
X474700Y717080D02*
X482320Y704380D01*
X474700Y717080D02*
X467080Y704380D01*
X474700Y717080D02*
X482320Y717080D01*
X474700Y717080D02*
X467080Y717080D01*
X467080Y719620D01*
D14*
X485200Y688884D02*
X494192Y688884D01*
X494192Y693380D01*
X492693Y694879D01*
X486699Y694879D01*
X485200Y693380D01*
X485200Y688884D01*
X488198Y698092D02*
X485200Y701089D01*
X494192Y701089D01*
X494192Y698092D02*
X494192Y704087D01*
X485200Y707300D02*
X485200Y713295D01*
X486699Y713295D01*
X492693Y707300D01*
X494192Y707300D01*
D15*
X467080Y684000D02*
X456920Y676380D01*
X467080Y684000D02*
X456920Y691620D01*
X467080Y684000D02*
X467080Y676380D01*
X467080Y684000D02*
X467080Y691620D01*
X456920Y691620D02*
X456920Y676380D01*
D14*
X455000Y655800D02*
X463992Y655800D01*
X463992Y660296D01*
X462493Y661795D01*
X456499Y661795D01*
X455000Y660296D01*
X455000Y655800D01*
X455000Y665008D02*
X455000Y671002D01*
X456499Y671002D01*
X462493Y665008D01*
X463992Y665008D01*
D13*
X538320Y714540D02*
X538320Y717080D01*
X530700Y717080D02*
X538320Y704380D01*
X530700Y717080D02*
X523080Y704380D01*
X530700Y717080D02*
X538320Y717080D01*
X530700Y717080D02*
X523080Y717080D01*
X523080Y719620D01*
D14*
X541200Y688884D02*
X550192Y688884D01*
X550192Y693380D01*
X548693Y694879D01*
X542699Y694879D01*
X541200Y693380D01*
X541200Y688884D01*
X544198Y698092D02*
X541200Y701089D01*
X550192Y701089D01*
X550192Y698092D02*
X550192Y704087D01*
X542699Y707300D02*
X541200Y708799D01*
X541200Y711796D01*
X542699Y713295D01*
X544198Y713295D01*
X545696Y711796D01*
X547195Y713295D01*
X548693Y713295D01*
X550192Y711796D01*
X550192Y708799D01*
X548693Y707300D01*
X547195Y707300D01*
X545696Y708799D01*
X544198Y707300D01*
X542699Y707300D01*
X545696Y708799D02*
X545696Y711796D01*
D15*
X523080Y684000D02*
X512920Y676380D01*
X523080Y684000D02*
X512920Y691620D01*
X523080Y684000D02*
X523080Y676380D01*
X523080Y684000D02*
X523080Y691620D01*
X512920Y691620D02*
X512920Y676380D01*
D14*
X514692Y655800D02*
X505700Y655800D01*
X514692Y655800D02*
X514692Y660296D01*
X513193Y661795D01*
X507199Y661795D01*
X505700Y660296D01*
X505700Y655800D01*
X507199Y665008D02*
X505700Y666507D01*
X505700Y669504D01*
X507199Y671002D01*
X508698Y671002D01*
X510196Y669504D01*
X511695Y671002D01*
X513193Y671002D01*
X514692Y669504D01*
X514692Y666507D01*
X513193Y665008D01*
X511695Y665008D01*
X510196Y666507D01*
X508698Y665008D01*
X507199Y665008D01*
X510196Y666507D02*
X510196Y669504D01*
D15*
X131080Y684000D02*
X120920Y676380D01*
X131080Y684000D02*
X120920Y691620D01*
X131080Y684000D02*
X131080Y676380D01*
X131080Y684000D02*
X131080Y691620D01*
X120920Y691620D02*
X120920Y676380D01*
D14*
X129300Y655800D02*
X138292Y655800D01*
X138292Y660296D01*
X136793Y661795D01*
X130799Y661795D01*
X129300Y660296D01*
X129300Y655800D01*
X132298Y665008D02*
X129300Y668005D01*
X138292Y668005D01*
X138292Y665008D02*
X138292Y671002D01*
D13*
X202320Y714540D02*
X202320Y717080D01*
X194700Y717080D02*
X202320Y704380D01*
X194700Y717080D02*
X187080Y704380D01*
X194700Y717080D02*
X202320Y717080D01*
X194700Y717080D02*
X187080Y717080D01*
X187080Y719620D01*
D14*
X205200Y688884D02*
X214192Y688884D01*
X214192Y693380D01*
X212693Y694879D01*
X206699Y694879D01*
X205200Y693380D01*
X205200Y688884D01*
X208198Y698092D02*
X205200Y701089D01*
X214192Y701089D01*
X214192Y698092D02*
X214192Y704087D01*
X214192Y707300D02*
X214192Y713295D01*
X208198Y713295D02*
X214192Y707300D01*
X208198Y713295D02*
X206699Y713295D01*
X205200Y711796D01*
X205200Y708799D01*
X206699Y707300D01*
D15*
X187080Y684000D02*
X176920Y676380D01*
X187080Y684000D02*
X176920Y691620D01*
X187080Y684000D02*
X187080Y676380D01*
X187080Y684000D02*
X187080Y691620D01*
X176920Y691620D02*
X176920Y676380D01*
D14*
X180300Y655800D02*
X189292Y655800D01*
X189292Y660296D01*
X187793Y661795D01*
X181799Y661795D01*
X180300Y660296D01*
X180300Y655800D01*
X189292Y665008D02*
X189292Y671002D01*
X189292Y665008D02*
X183298Y671002D01*
X181799Y671002D01*
X180300Y669504D01*
X180300Y666507D01*
X181799Y665008D01*
D13*
X258320Y714540D02*
X258320Y717080D01*
X250700Y717080D02*
X258320Y704380D01*
X250700Y717080D02*
X243080Y704380D01*
X250700Y717080D02*
X258320Y717080D01*
X250700Y717080D02*
X243080Y717080D01*
X243080Y719620D01*
D14*
X261200Y688884D02*
X270192Y688884D01*
X270192Y693380D01*
X268693Y694879D01*
X262699Y694879D01*
X261200Y693380D01*
X261200Y688884D01*
X264198Y698092D02*
X261200Y701089D01*
X270192Y701089D01*
X270192Y698092D02*
X270192Y704087D01*
X262699Y707300D02*
X261200Y708799D01*
X261200Y711796D01*
X262699Y713295D01*
X264198Y713295D01*
X265696Y711796D01*
X265696Y710297D01*
X265696Y711796D02*
X267195Y713295D01*
X268693Y713295D01*
X270192Y711796D01*
X270192Y708799D01*
X268693Y707300D01*
D15*
X243080Y684000D02*
X232920Y676380D01*
X243080Y684000D02*
X232920Y691620D01*
X243080Y684000D02*
X243080Y676380D01*
X243080Y684000D02*
X243080Y691620D01*
X232920Y691620D02*
X232920Y676380D01*
D14*
X231100Y655800D02*
X240092Y655800D01*
X240092Y660296D01*
X238593Y661795D01*
X232599Y661795D01*
X231100Y660296D01*
X231100Y655800D01*
X232599Y665008D02*
X231100Y666507D01*
X231100Y669504D01*
X232599Y671002D01*
X234098Y671002D01*
X235596Y669504D01*
X235596Y668005D01*
X235596Y669504D02*
X237095Y671002D01*
X238593Y671002D01*
X240092Y669504D01*
X240092Y666507D01*
X238593Y665008D01*
D13*
X314320Y714540D02*
X314320Y717080D01*
X306700Y717080D02*
X314320Y704380D01*
X306700Y717080D02*
X299080Y704380D01*
X306700Y717080D02*
X314320Y717080D01*
X306700Y717080D02*
X299080Y717080D01*
X299080Y719620D01*
D14*
X317200Y688884D02*
X326192Y688884D01*
X326192Y693380D01*
X324693Y694879D01*
X318699Y694879D01*
X317200Y693380D01*
X317200Y688884D01*
X320198Y698092D02*
X317200Y701089D01*
X326192Y701089D01*
X326192Y698092D02*
X326192Y704087D01*
X326192Y711796D02*
X317200Y711796D01*
X321696Y707300D01*
X321696Y713295D01*
D15*
X299080Y684000D02*
X288920Y676380D01*
X299080Y684000D02*
X288920Y691620D01*
X299080Y684000D02*
X299080Y676380D01*
X299080Y684000D02*
X299080Y691620D01*
X288920Y691620D02*
X288920Y676380D01*
D14*
X290892Y655800D02*
X281900Y655800D01*
X290892Y655800D02*
X290892Y660296D01*
X289393Y661795D01*
X283399Y661795D01*
X281900Y660296D01*
X281900Y655800D01*
X281900Y669504D02*
X290892Y669504D01*
X286396Y665008D02*
X281900Y669504D01*
X286396Y671002D02*
X286396Y665008D01*
D13*
X370320Y714540D02*
X370320Y717080D01*
X362700Y717080D02*
X370320Y704380D01*
X362700Y717080D02*
X355080Y704380D01*
X362700Y717080D02*
X370320Y717080D01*
X362700Y717080D02*
X355080Y717080D01*
X355080Y719620D01*
D14*
X373200Y688884D02*
X382192Y688884D01*
X382192Y693380D01*
X380693Y694879D01*
X374699Y694879D01*
X373200Y693380D01*
X373200Y688884D01*
X376198Y698092D02*
X373200Y701089D01*
X382192Y701089D01*
X382192Y698092D02*
X382192Y704087D01*
X373200Y707300D02*
X373200Y713295D01*
X373200Y707300D02*
X377696Y707300D01*
X376198Y710297D01*
X376198Y711796D01*
X377696Y713295D01*
X380693Y713295D01*
X382192Y711796D01*
X382192Y708799D01*
X380693Y707300D01*
D15*
X30280Y433340D02*
X30280Y415560D01*
X30280Y433340D02*
X30527Y433343D01*
X30775Y433352D01*
X31022Y433367D01*
X31268Y433388D01*
X31514Y433415D01*
X31759Y433448D01*
X32004Y433487D01*
X32247Y433532D01*
X32489Y433583D01*
X32730Y433640D01*
X32969Y433702D01*
X33207Y433771D01*
X33443Y433845D01*
X33677Y433925D01*
X33909Y434010D01*
X34139Y434102D01*
X34367Y434198D01*
X34592Y434301D01*
X34815Y434408D01*
X35035Y434522D01*
X35252Y434640D01*
X35467Y434764D01*
X35678Y434893D01*
X35886Y435027D01*
X36091Y435166D01*
X36292Y435310D01*
X36490Y435458D01*
X36684Y435612D01*
X36874Y435770D01*
X37060Y435933D01*
X37242Y436100D01*
X37420Y436272D01*
X37594Y436448D01*
X37764Y436628D01*
X37929Y436813D01*
X38089Y437001D01*
X38245Y437193D01*
X38397Y437389D01*
X38543Y437588D01*
X38685Y437791D01*
X38821Y437998D01*
X38953Y438207D01*
X39079Y438420D01*
X39200Y438636D01*
X39316Y438854D01*
X39426Y439076D01*
X39531Y439300D01*
X39631Y439526D01*
X39725Y439755D01*
X39813Y439986D01*
X39896Y440220D01*
X39973Y440455D01*
X40044Y440692D01*
X40110Y440930D01*
X40169Y441170D01*
X40223Y441412D01*
X40271Y441655D01*
X40313Y441898D01*
X40349Y442143D01*
X40379Y442389D01*
X40403Y442635D01*
X40421Y442882D01*
X40433Y443129D01*
X40439Y443376D01*
X40439Y443624D01*
X40433Y443871D01*
X40421Y444118D01*
X40403Y444365D01*
X40379Y444611D01*
X40349Y444857D01*
X40313Y445102D01*
X40271Y445345D01*
X40223Y445588D01*
X40169Y445830D01*
X40110Y446070D01*
X40044Y446308D01*
X39973Y446545D01*
X39896Y446780D01*
X39813Y447014D01*
X39725Y447245D01*
X39631Y447474D01*
X39531Y447700D01*
X39426Y447924D01*
X39316Y448146D01*
X39200Y448364D01*
X39079Y448580D01*
X38953Y448793D01*
X38821Y449002D01*
X38685Y449209D01*
X38543Y449412D01*
X38397Y449611D01*
X38245Y449807D01*
X38089Y449999D01*
X37929Y450187D01*
X37764Y450372D01*
X37594Y450552D01*
X37420Y450728D01*
X37242Y450900D01*
X37060Y451067D01*
X36874Y451230D01*
X36684Y451388D01*
X36490Y451542D01*
X36292Y451690D01*
X36091Y451834D01*
X35886Y451973D01*
X35678Y452107D01*
X35467Y452236D01*
X35252Y452360D01*
X35035Y452478D01*
X34815Y452592D01*
X34592Y452699D01*
X34367Y452802D01*
X34139Y452898D01*
X33909Y452990D01*
X33677Y453075D01*
X33443Y453155D01*
X33207Y453229D01*
X32969Y453298D01*
X32730Y453360D01*
X32489Y453417D01*
X32247Y453468D01*
X32004Y453513D01*
X31759Y453552D01*
X31514Y453585D01*
X31268Y453612D01*
X31022Y453633D01*
X30775Y453648D01*
X30527Y453657D01*
X30280Y453660D01*
X30280Y415560D02*
X401120Y415560D01*
X30280Y453660D02*
X30280Y471440D01*
X401120Y471440D01*
X401120Y415560D01*
D14*
X12228Y439008D02*
X9231Y439008D01*
X10729Y439008D02*
X10729Y448000D01*
X9231Y448000D02*
X12228Y448000D01*
X19865Y448000D02*
X21364Y446501D01*
X19865Y448000D02*
X16868Y448000D01*
X15369Y446501D01*
X15369Y440507D01*
X16868Y439008D01*
X19865Y439008D01*
X21364Y440507D01*
X24577Y445002D02*
X27574Y448000D01*
X27574Y439008D01*
X24577Y439008D02*
X30572Y439008D01*
D15*
X12500Y327060D02*
X241100Y327060D01*
X241100Y382940D02*
X12500Y382940D01*
X12500Y327060D01*
X241100Y327060D02*
X241100Y344840D01*
X241100Y365160D02*
X241100Y382940D01*
X241100Y365160D02*
X240853Y365157D01*
X240605Y365148D01*
X240358Y365133D01*
X240112Y365112D01*
X239866Y365085D01*
X239621Y365052D01*
X239376Y365013D01*
X239133Y364968D01*
X238891Y364917D01*
X238650Y364860D01*
X238411Y364798D01*
X238173Y364729D01*
X237937Y364655D01*
X237703Y364575D01*
X237471Y364490D01*
X237241Y364398D01*
X237013Y364302D01*
X236788Y364199D01*
X236565Y364092D01*
X236345Y363978D01*
X236128Y363860D01*
X235913Y363736D01*
X235702Y363607D01*
X235494Y363473D01*
X235289Y363334D01*
X235088Y363190D01*
X234890Y363042D01*
X234696Y362888D01*
X234506Y362730D01*
X234320Y362567D01*
X234138Y362400D01*
X233960Y362228D01*
X233786Y362052D01*
X233616Y361872D01*
X233451Y361687D01*
X233291Y361499D01*
X233135Y361307D01*
X232983Y361111D01*
X232837Y360912D01*
X232695Y360709D01*
X232559Y360502D01*
X232427Y360293D01*
X232301Y360080D01*
X232180Y359864D01*
X232064Y359646D01*
X231954Y359424D01*
X231849Y359200D01*
X231749Y358974D01*
X231655Y358745D01*
X231567Y358514D01*
X231484Y358280D01*
X231407Y358045D01*
X231336Y357808D01*
X231270Y357570D01*
X231211Y357330D01*
X231157Y357088D01*
X231109Y356845D01*
X231067Y356602D01*
X231031Y356357D01*
X231001Y356111D01*
X230977Y355865D01*
X230959Y355618D01*
X230947Y355371D01*
X230941Y355124D01*
X230941Y354876D01*
X230947Y354629D01*
X230959Y354382D01*
X230977Y354135D01*
X231001Y353889D01*
X231031Y353643D01*
X231067Y353398D01*
X231109Y353155D01*
X231157Y352912D01*
X231211Y352670D01*
X231270Y352430D01*
X231336Y352192D01*
X231407Y351955D01*
X231484Y351720D01*
X231567Y351486D01*
X231655Y351255D01*
X231749Y351026D01*
X231849Y350800D01*
X231954Y350576D01*
X232064Y350354D01*
X232180Y350136D01*
X232301Y349920D01*
X232427Y349707D01*
X232559Y349498D01*
X232695Y349291D01*
X232837Y349088D01*
X232983Y348889D01*
X233135Y348693D01*
X233291Y348501D01*
X233451Y348313D01*
X233616Y348128D01*
X233786Y347948D01*
X233960Y347772D01*
X234138Y347600D01*
X234320Y347433D01*
X234506Y347270D01*
X234696Y347112D01*
X234890Y346958D01*
X235088Y346810D01*
X235289Y346666D01*
X235494Y346527D01*
X235702Y346393D01*
X235913Y346264D01*
X236128Y346140D01*
X236345Y346022D01*
X236565Y345908D01*
X236788Y345801D01*
X237013Y345698D01*
X237241Y345602D01*
X237471Y345510D01*
X237703Y345425D01*
X237937Y345345D01*
X238173Y345271D01*
X238411Y345202D01*
X238650Y345140D01*
X238891Y345083D01*
X239133Y345032D01*
X239376Y344987D01*
X239621Y344948D01*
X239866Y344915D01*
X240112Y344888D01*
X240358Y344867D01*
X240605Y344852D01*
X240853Y344843D01*
X241100Y344840D01*
D14*
X243231Y350388D02*
X246228Y350388D01*
X244729Y350388D02*
X244729Y359380D01*
X243231Y359380D02*
X246228Y359380D01*
X253865Y359380D02*
X255364Y357881D01*
X253865Y359380D02*
X250868Y359380D01*
X249369Y357881D01*
X249369Y351887D01*
X250868Y350388D01*
X253865Y350388D01*
X255364Y351887D01*
X258577Y350388D02*
X264572Y350388D01*
X264572Y356382D02*
X258577Y350388D01*
X264572Y356382D02*
X264572Y357881D01*
X263073Y359380D01*
X260076Y359380D01*
X258577Y357881D01*
D16*
X113300Y709460D02*
X113300Y714540D01*
D15*
X100600Y724700D02*
X100604Y725012D01*
X100615Y725323D01*
X100634Y725634D01*
X100661Y725945D01*
X100696Y726255D01*
X100737Y726563D01*
X100787Y726871D01*
X100844Y727178D01*
X100909Y727483D01*
X100981Y727786D01*
X101060Y728087D01*
X101147Y728387D01*
X101241Y728684D01*
X101342Y728979D01*
X101451Y729271D01*
X101567Y729560D01*
X101690Y729847D01*
X101819Y730130D01*
X101956Y730410D01*
X102100Y730687D01*
X102250Y730960D01*
X102407Y731229D01*
X102570Y731494D01*
X102740Y731756D01*
X102917Y732013D01*
X103099Y732265D01*
X103288Y732513D01*
X103483Y732757D01*
X103683Y732995D01*
X103890Y733229D01*
X104102Y733457D01*
X104320Y733680D01*
X104543Y733898D01*
X104771Y734110D01*
X105005Y734317D01*
X105243Y734517D01*
X105487Y734712D01*
X105735Y734901D01*
X105987Y735083D01*
X106244Y735260D01*
X106506Y735430D01*
X106771Y735593D01*
X107040Y735750D01*
X107313Y735900D01*
X107590Y736044D01*
X107870Y736181D01*
X108153Y736310D01*
X108440Y736433D01*
X108729Y736549D01*
X109021Y736658D01*
X109316Y736759D01*
X109613Y736853D01*
X109913Y736940D01*
X110214Y737019D01*
X110517Y737091D01*
X110822Y737156D01*
X111129Y737213D01*
X111437Y737263D01*
X111745Y737304D01*
X112055Y737339D01*
X112366Y737366D01*
X112677Y737385D01*
X112988Y737396D01*
X113300Y737400D01*
X113612Y737396D01*
X113923Y737385D01*
X114234Y737366D01*
X114545Y737339D01*
X114855Y737304D01*
X115163Y737263D01*
X115471Y737213D01*
X115778Y737156D01*
X116083Y737091D01*
X116386Y737019D01*
X116687Y736940D01*
X116987Y736853D01*
X117284Y736759D01*
X117579Y736658D01*
X117871Y736549D01*
X118160Y736433D01*
X118447Y736310D01*
X118730Y736181D01*
X119010Y736044D01*
X119287Y735900D01*
X119560Y735750D01*
X119829Y735593D01*
X120094Y735430D01*
X120356Y735260D01*
X120613Y735083D01*
X120865Y734901D01*
X121113Y734712D01*
X121357Y734517D01*
X121595Y734317D01*
X121829Y734110D01*
X122057Y733898D01*
X122280Y733680D01*
X122498Y733457D01*
X122710Y733229D01*
X122917Y732995D01*
X123117Y732757D01*
X123312Y732513D01*
X123501Y732265D01*
X123683Y732013D01*
X123860Y731756D01*
X124030Y731494D01*
X124193Y731229D01*
X124350Y730960D01*
X124500Y730687D01*
X124644Y730410D01*
X124781Y730130D01*
X124910Y729847D01*
X125033Y729560D01*
X125149Y729271D01*
X125258Y728979D01*
X125359Y728684D01*
X125453Y728387D01*
X125540Y728087D01*
X125619Y727786D01*
X125691Y727483D01*
X125756Y727178D01*
X125813Y726871D01*
X125863Y726563D01*
X125904Y726255D01*
X125939Y725945D01*
X125966Y725634D01*
X125985Y725323D01*
X125996Y725012D01*
X126000Y724700D01*
X125996Y724388D01*
X125985Y724077D01*
X125966Y723766D01*
X125939Y723455D01*
X125904Y723145D01*
X125863Y722837D01*
X125813Y722529D01*
X125756Y722222D01*
X125691Y721917D01*
X125619Y721614D01*
X125540Y721313D01*
X125453Y721013D01*
X125359Y720716D01*
X125258Y720421D01*
X125149Y720129D01*
X125033Y719840D01*
X124910Y719553D01*
X124781Y719270D01*
X124644Y718990D01*
X124500Y718713D01*
X124350Y718440D01*
X124193Y718171D01*
X124030Y717906D01*
X123860Y717644D01*
X123683Y717387D01*
X123501Y717135D01*
X123312Y716887D01*
X123117Y716643D01*
X122917Y716405D01*
X122710Y716171D01*
X122498Y715943D01*
X122280Y715720D01*
X122057Y715502D01*
X121829Y715290D01*
X121595Y715083D01*
X121357Y714883D01*
X121113Y714688D01*
X120865Y714499D01*
X120613Y714317D01*
X120356Y714140D01*
X120094Y713970D01*
X119829Y713807D01*
X119560Y713650D01*
X119287Y713500D01*
X119010Y713356D01*
X118730Y713219D01*
X118447Y713090D01*
X118160Y712967D01*
X117871Y712851D01*
X117579Y712742D01*
X117284Y712641D01*
X116987Y712547D01*
X116687Y712460D01*
X116386Y712381D01*
X116083Y712309D01*
X115778Y712244D01*
X115471Y712187D01*
X115163Y712137D01*
X114855Y712096D01*
X114545Y712061D01*
X114234Y712034D01*
X113923Y712015D01*
X113612Y712004D01*
X113300Y712000D01*
X112988Y712004D01*
X112677Y712015D01*
X112366Y712034D01*
X112055Y712061D01*
X111745Y712096D01*
X111437Y712137D01*
X111129Y712187D01*
X110822Y712244D01*
X110517Y712309D01*
X110214Y712381D01*
X109913Y712460D01*
X109613Y712547D01*
X109316Y712641D01*
X109021Y712742D01*
X108729Y712851D01*
X108440Y712967D01*
X108153Y713090D01*
X107870Y713219D01*
X107590Y713356D01*
X107313Y713500D01*
X107040Y713650D01*
X106771Y713807D01*
X106506Y713970D01*
X106244Y714140D01*
X105987Y714317D01*
X105735Y714499D01*
X105487Y714688D01*
X105243Y714883D01*
X105005Y715083D01*
X104771Y715290D01*
X104543Y715502D01*
X104320Y715720D01*
X104102Y715943D01*
X103890Y716171D01*
X103683Y716405D01*
X103483Y716643D01*
X103288Y716887D01*
X103099Y717135D01*
X102917Y717387D01*
X102740Y717644D01*
X102570Y717906D01*
X102407Y718171D01*
X102250Y718440D01*
X102100Y718713D01*
X101956Y718990D01*
X101819Y719270D01*
X101690Y719553D01*
X101567Y719840D01*
X101451Y720129D01*
X101342Y720421D01*
X101241Y720716D01*
X101147Y721013D01*
X101060Y721313D01*
X100981Y721614D01*
X100909Y721917D01*
X100844Y722222D01*
X100787Y722529D01*
X100737Y722837D01*
X100696Y723145D01*
X100661Y723455D01*
X100634Y723766D01*
X100615Y724077D01*
X100604Y724388D01*
X100600Y724700D01*
D14*
X120000Y695092D02*
X128992Y695092D01*
X120000Y695092D02*
X120000Y699588D01*
X121499Y701087D01*
X124496Y701087D01*
X125995Y699588D01*
X125995Y695092D01*
X125995Y698090D02*
X128992Y701087D01*
X122998Y704300D02*
X120000Y707297D01*
X128992Y707297D01*
X128992Y704300D02*
X128992Y710295D01*
D16*
X393300Y709460D02*
X393300Y714540D01*
D15*
X380600Y724700D02*
X380604Y725012D01*
X380615Y725323D01*
X380634Y725634D01*
X380661Y725945D01*
X380696Y726255D01*
X380737Y726563D01*
X380787Y726871D01*
X380844Y727178D01*
X380909Y727483D01*
X380981Y727786D01*
X381060Y728087D01*
X381147Y728387D01*
X381241Y728684D01*
X381342Y728979D01*
X381451Y729271D01*
X381567Y729560D01*
X381690Y729847D01*
X381819Y730130D01*
X381956Y730410D01*
X382100Y730687D01*
X382250Y730960D01*
X382407Y731229D01*
X382570Y731494D01*
X382740Y731756D01*
X382917Y732013D01*
X383099Y732265D01*
X383288Y732513D01*
X383483Y732757D01*
X383683Y732995D01*
X383890Y733229D01*
X384102Y733457D01*
X384320Y733680D01*
X384543Y733898D01*
X384771Y734110D01*
X385005Y734317D01*
X385243Y734517D01*
X385487Y734712D01*
X385735Y734901D01*
X385987Y735083D01*
X386244Y735260D01*
X386506Y735430D01*
X386771Y735593D01*
X387040Y735750D01*
X387313Y735900D01*
X387590Y736044D01*
X387870Y736181D01*
X388153Y736310D01*
X388440Y736433D01*
X388729Y736549D01*
X389021Y736658D01*
X389316Y736759D01*
X389613Y736853D01*
X389913Y736940D01*
X390214Y737019D01*
X390517Y737091D01*
X390822Y737156D01*
X391129Y737213D01*
X391437Y737263D01*
X391745Y737304D01*
X392055Y737339D01*
X392366Y737366D01*
X392677Y737385D01*
X392988Y737396D01*
X393300Y737400D01*
X393612Y737396D01*
X393923Y737385D01*
X394234Y737366D01*
X394545Y737339D01*
X394855Y737304D01*
X395163Y737263D01*
X395471Y737213D01*
X395778Y737156D01*
X396083Y737091D01*
X396386Y737019D01*
X396687Y736940D01*
X396987Y736853D01*
X397284Y736759D01*
X397579Y736658D01*
X397871Y736549D01*
X398160Y736433D01*
X398447Y736310D01*
X398730Y736181D01*
X399010Y736044D01*
X399287Y735900D01*
X399560Y735750D01*
X399829Y735593D01*
X400094Y735430D01*
X400356Y735260D01*
X400613Y735083D01*
X400865Y734901D01*
X401113Y734712D01*
X401357Y734517D01*
X401595Y734317D01*
X401829Y734110D01*
X402057Y733898D01*
X402280Y733680D01*
X402498Y733457D01*
X402710Y733229D01*
X402917Y732995D01*
X403117Y732757D01*
X403312Y732513D01*
X403501Y732265D01*
X403683Y732013D01*
X403860Y731756D01*
X404030Y731494D01*
X404193Y731229D01*
X404350Y730960D01*
X404500Y730687D01*
X404644Y730410D01*
X404781Y730130D01*
X404910Y729847D01*
X405033Y729560D01*
X405149Y729271D01*
X405258Y728979D01*
X405359Y728684D01*
X405453Y728387D01*
X405540Y728087D01*
X405619Y727786D01*
X405691Y727483D01*
X405756Y727178D01*
X405813Y726871D01*
X405863Y726563D01*
X405904Y726255D01*
X405939Y725945D01*
X405966Y725634D01*
X405985Y725323D01*
X405996Y725012D01*
X406000Y724700D01*
X405996Y724388D01*
X405985Y724077D01*
X405966Y723766D01*
X405939Y723455D01*
X405904Y723145D01*
X405863Y722837D01*
X405813Y722529D01*
X405756Y722222D01*
X405691Y721917D01*
X405619Y721614D01*
X405540Y721313D01*
X405453Y721013D01*
X405359Y720716D01*
X405258Y720421D01*
X405149Y720129D01*
X405033Y719840D01*
X404910Y719553D01*
X404781Y719270D01*
X404644Y718990D01*
X404500Y718713D01*
X404350Y718440D01*
X404193Y718171D01*
X404030Y717906D01*
X403860Y717644D01*
X403683Y717387D01*
X403501Y717135D01*
X403312Y716887D01*
X403117Y716643D01*
X402917Y716405D01*
X402710Y716171D01*
X402498Y715943D01*
X402280Y715720D01*
X402057Y715502D01*
X401829Y715290D01*
X401595Y715083D01*
X401357Y714883D01*
X401113Y714688D01*
X400865Y714499D01*
X400613Y714317D01*
X400356Y714140D01*
X400094Y713970D01*
X399829Y713807D01*
X399560Y713650D01*
X399287Y713500D01*
X399010Y713356D01*
X398730Y713219D01*
X398447Y713090D01*
X398160Y712967D01*
X397871Y712851D01*
X397579Y712742D01*
X397284Y712641D01*
X396987Y712547D01*
X396687Y712460D01*
X396386Y712381D01*
X396083Y712309D01*
X395778Y712244D01*
X395471Y712187D01*
X395163Y712137D01*
X394855Y712096D01*
X394545Y712061D01*
X394234Y712034D01*
X393923Y712015D01*
X393612Y712004D01*
X393300Y712000D01*
X392988Y712004D01*
X392677Y712015D01*
X392366Y712034D01*
X392055Y712061D01*
X391745Y712096D01*
X391437Y712137D01*
X391129Y712187D01*
X390822Y712244D01*
X390517Y712309D01*
X390214Y712381D01*
X389913Y712460D01*
X389613Y712547D01*
X389316Y712641D01*
X389021Y712742D01*
X388729Y712851D01*
X388440Y712967D01*
X388153Y713090D01*
X387870Y713219D01*
X387590Y713356D01*
X387313Y713500D01*
X387040Y713650D01*
X386771Y713807D01*
X386506Y713970D01*
X386244Y714140D01*
X385987Y714317D01*
X385735Y714499D01*
X385487Y714688D01*
X385243Y714883D01*
X385005Y715083D01*
X384771Y715290D01*
X384543Y715502D01*
X384320Y715720D01*
X384102Y715943D01*
X383890Y716171D01*
X383683Y716405D01*
X383483Y716643D01*
X383288Y716887D01*
X383099Y717135D01*
X382917Y717387D01*
X382740Y717644D01*
X382570Y717906D01*
X382407Y718171D01*
X382250Y718440D01*
X382100Y718713D01*
X381956Y718990D01*
X381819Y719270D01*
X381690Y719553D01*
X381567Y719840D01*
X381451Y720129D01*
X381342Y720421D01*
X381241Y720716D01*
X381147Y721013D01*
X381060Y721313D01*
X380981Y721614D01*
X380909Y721917D01*
X380844Y722222D01*
X380787Y722529D01*
X380737Y722837D01*
X380696Y723145D01*
X380661Y723455D01*
X380634Y723766D01*
X380615Y724077D01*
X380604Y724388D01*
X380600Y724700D01*
D14*
X400000Y695092D02*
X408992Y695092D01*
X400000Y695092D02*
X400000Y699588D01*
X401499Y701087D01*
X404496Y701087D01*
X405995Y699588D01*
X405995Y695092D01*
X405995Y698090D02*
X408992Y701087D01*
X401499Y707297D02*
X400000Y710295D01*
X401499Y707297D02*
X404496Y704300D01*
X407493Y704300D01*
X408992Y705799D01*
X408992Y708796D01*
X407493Y710295D01*
X405995Y710295D01*
X404496Y708796D01*
X404496Y704300D01*
D16*
X449300Y709460D02*
X449300Y714540D01*
D15*
X436600Y724700D02*
X436604Y725012D01*
X436615Y725323D01*
X436634Y725634D01*
X436661Y725945D01*
X436696Y726255D01*
X436737Y726563D01*
X436787Y726871D01*
X436844Y727178D01*
X436909Y727483D01*
X436981Y727786D01*
X437060Y728087D01*
X437147Y728387D01*
X437241Y728684D01*
X437342Y728979D01*
X437451Y729271D01*
X437567Y729560D01*
X437690Y729847D01*
X437819Y730130D01*
X437956Y730410D01*
X438100Y730687D01*
X438250Y730960D01*
X438407Y731229D01*
X438570Y731494D01*
X438740Y731756D01*
X438917Y732013D01*
X439099Y732265D01*
X439288Y732513D01*
X439483Y732757D01*
X439683Y732995D01*
X439890Y733229D01*
X440102Y733457D01*
X440320Y733680D01*
X440543Y733898D01*
X440771Y734110D01*
X441005Y734317D01*
X441243Y734517D01*
X441487Y734712D01*
X441735Y734901D01*
X441987Y735083D01*
X442244Y735260D01*
X442506Y735430D01*
X442771Y735593D01*
X443040Y735750D01*
X443313Y735900D01*
X443590Y736044D01*
X443870Y736181D01*
X444153Y736310D01*
X444440Y736433D01*
X444729Y736549D01*
X445021Y736658D01*
X445316Y736759D01*
X445613Y736853D01*
X445913Y736940D01*
X446214Y737019D01*
X446517Y737091D01*
X446822Y737156D01*
X447129Y737213D01*
X447437Y737263D01*
X447745Y737304D01*
X448055Y737339D01*
X448366Y737366D01*
X448677Y737385D01*
X448988Y737396D01*
X449300Y737400D01*
X449612Y737396D01*
X449923Y737385D01*
X450234Y737366D01*
X450545Y737339D01*
X450855Y737304D01*
X451163Y737263D01*
X451471Y737213D01*
X451778Y737156D01*
X452083Y737091D01*
X452386Y737019D01*
X452687Y736940D01*
X452987Y736853D01*
X453284Y736759D01*
X453579Y736658D01*
X453871Y736549D01*
X454160Y736433D01*
X454447Y736310D01*
X454730Y736181D01*
X455010Y736044D01*
X455287Y735900D01*
X455560Y735750D01*
X455829Y735593D01*
X456094Y735430D01*
X456356Y735260D01*
X456613Y735083D01*
X456865Y734901D01*
X457113Y734712D01*
X457357Y734517D01*
X457595Y734317D01*
X457829Y734110D01*
X458057Y733898D01*
X458280Y733680D01*
X458498Y733457D01*
X458710Y733229D01*
X458917Y732995D01*
X459117Y732757D01*
X459312Y732513D01*
X459501Y732265D01*
X459683Y732013D01*
X459860Y731756D01*
X460030Y731494D01*
X460193Y731229D01*
X460350Y730960D01*
X460500Y730687D01*
X460644Y730410D01*
X460781Y730130D01*
X460910Y729847D01*
X461033Y729560D01*
X461149Y729271D01*
X461258Y728979D01*
X461359Y728684D01*
X461453Y728387D01*
X461540Y728087D01*
X461619Y727786D01*
X461691Y727483D01*
X461756Y727178D01*
X461813Y726871D01*
X461863Y726563D01*
X461904Y726255D01*
X461939Y725945D01*
X461966Y725634D01*
X461985Y725323D01*
X461996Y725012D01*
X462000Y724700D01*
X461996Y724388D01*
X461985Y724077D01*
X461966Y723766D01*
X461939Y723455D01*
X461904Y723145D01*
X461863Y722837D01*
X461813Y722529D01*
X461756Y722222D01*
X461691Y721917D01*
X461619Y721614D01*
X461540Y721313D01*
X461453Y721013D01*
X461359Y720716D01*
X461258Y720421D01*
X461149Y720129D01*
X461033Y719840D01*
X460910Y719553D01*
X460781Y719270D01*
X460644Y718990D01*
X460500Y718713D01*
X460350Y718440D01*
X460193Y718171D01*
X460030Y717906D01*
X459860Y717644D01*
X459683Y717387D01*
X459501Y717135D01*
X459312Y716887D01*
X459117Y716643D01*
X458917Y716405D01*
X458710Y716171D01*
X458498Y715943D01*
X458280Y715720D01*
X458057Y715502D01*
X457829Y715290D01*
X457595Y715083D01*
X457357Y714883D01*
X457113Y714688D01*
X456865Y714499D01*
X456613Y714317D01*
X456356Y714140D01*
X456094Y713970D01*
X455829Y713807D01*
X455560Y713650D01*
X455287Y713500D01*
X455010Y713356D01*
X454730Y713219D01*
X454447Y713090D01*
X454160Y712967D01*
X453871Y712851D01*
X453579Y712742D01*
X453284Y712641D01*
X452987Y712547D01*
X452687Y712460D01*
X452386Y712381D01*
X452083Y712309D01*
X451778Y712244D01*
X451471Y712187D01*
X451163Y712137D01*
X450855Y712096D01*
X450545Y712061D01*
X450234Y712034D01*
X449923Y712015D01*
X449612Y712004D01*
X449300Y712000D01*
X448988Y712004D01*
X448677Y712015D01*
X448366Y712034D01*
X448055Y712061D01*
X447745Y712096D01*
X447437Y712137D01*
X447129Y712187D01*
X446822Y712244D01*
X446517Y712309D01*
X446214Y712381D01*
X445913Y712460D01*
X445613Y712547D01*
X445316Y712641D01*
X445021Y712742D01*
X444729Y712851D01*
X444440Y712967D01*
X444153Y713090D01*
X443870Y713219D01*
X443590Y713356D01*
X443313Y713500D01*
X443040Y713650D01*
X442771Y713807D01*
X442506Y713970D01*
X442244Y714140D01*
X441987Y714317D01*
X441735Y714499D01*
X441487Y714688D01*
X441243Y714883D01*
X441005Y715083D01*
X440771Y715290D01*
X440543Y715502D01*
X440320Y715720D01*
X440102Y715943D01*
X439890Y716171D01*
X439683Y716405D01*
X439483Y716643D01*
X439288Y716887D01*
X439099Y717135D01*
X438917Y717387D01*
X438740Y717644D01*
X438570Y717906D01*
X438407Y718171D01*
X438250Y718440D01*
X438100Y718713D01*
X437956Y718990D01*
X437819Y719270D01*
X437690Y719553D01*
X437567Y719840D01*
X437451Y720129D01*
X437342Y720421D01*
X437241Y720716D01*
X437147Y721013D01*
X437060Y721313D01*
X436981Y721614D01*
X436909Y721917D01*
X436844Y722222D01*
X436787Y722529D01*
X436737Y722837D01*
X436696Y723145D01*
X436661Y723455D01*
X436634Y723766D01*
X436615Y724077D01*
X436604Y724388D01*
X436600Y724700D01*
D14*
X456000Y695092D02*
X464992Y695092D01*
X456000Y695092D02*
X456000Y699588D01*
X457499Y701087D01*
X460496Y701087D01*
X461995Y699588D01*
X461995Y695092D01*
X461995Y698090D02*
X464992Y701087D01*
X456000Y704300D02*
X456000Y710295D01*
X457499Y710295D01*
X463493Y704300D01*
X464992Y704300D01*
D16*
X505300Y709460D02*
X505300Y714540D01*
D15*
X492600Y724700D02*
X492604Y725012D01*
X492615Y725323D01*
X492634Y725634D01*
X492661Y725945D01*
X492696Y726255D01*
X492737Y726563D01*
X492787Y726871D01*
X492844Y727178D01*
X492909Y727483D01*
X492981Y727786D01*
X493060Y728087D01*
X493147Y728387D01*
X493241Y728684D01*
X493342Y728979D01*
X493451Y729271D01*
X493567Y729560D01*
X493690Y729847D01*
X493819Y730130D01*
X493956Y730410D01*
X494100Y730687D01*
X494250Y730960D01*
X494407Y731229D01*
X494570Y731494D01*
X494740Y731756D01*
X494917Y732013D01*
X495099Y732265D01*
X495288Y732513D01*
X495483Y732757D01*
X495683Y732995D01*
X495890Y733229D01*
X496102Y733457D01*
X496320Y733680D01*
X496543Y733898D01*
X496771Y734110D01*
X497005Y734317D01*
X497243Y734517D01*
X497487Y734712D01*
X497735Y734901D01*
X497987Y735083D01*
X498244Y735260D01*
X498506Y735430D01*
X498771Y735593D01*
X499040Y735750D01*
X499313Y735900D01*
X499590Y736044D01*
X499870Y736181D01*
X500153Y736310D01*
X500440Y736433D01*
X500729Y736549D01*
X501021Y736658D01*
X501316Y736759D01*
X501613Y736853D01*
X501913Y736940D01*
X502214Y737019D01*
X502517Y737091D01*
X502822Y737156D01*
X503129Y737213D01*
X503437Y737263D01*
X503745Y737304D01*
X504055Y737339D01*
X504366Y737366D01*
X504677Y737385D01*
X504988Y737396D01*
X505300Y737400D01*
X505612Y737396D01*
X505923Y737385D01*
X506234Y737366D01*
X506545Y737339D01*
X506855Y737304D01*
X507163Y737263D01*
X507471Y737213D01*
X507778Y737156D01*
X508083Y737091D01*
X508386Y737019D01*
X508687Y736940D01*
X508987Y736853D01*
X509284Y736759D01*
X509579Y736658D01*
X509871Y736549D01*
X510160Y736433D01*
X510447Y736310D01*
X510730Y736181D01*
X511010Y736044D01*
X511287Y735900D01*
X511560Y735750D01*
X511829Y735593D01*
X512094Y735430D01*
X512356Y735260D01*
X512613Y735083D01*
X512865Y734901D01*
X513113Y734712D01*
X513357Y734517D01*
X513595Y734317D01*
X513829Y734110D01*
X514057Y733898D01*
X514280Y733680D01*
X514498Y733457D01*
X514710Y733229D01*
X514917Y732995D01*
X515117Y732757D01*
X515312Y732513D01*
X515501Y732265D01*
X515683Y732013D01*
X515860Y731756D01*
X516030Y731494D01*
X516193Y731229D01*
X516350Y730960D01*
X516500Y730687D01*
X516644Y730410D01*
X516781Y730130D01*
X516910Y729847D01*
X517033Y729560D01*
X517149Y729271D01*
X517258Y728979D01*
X517359Y728684D01*
X517453Y728387D01*
X517540Y728087D01*
X517619Y727786D01*
X517691Y727483D01*
X517756Y727178D01*
X517813Y726871D01*
X517863Y726563D01*
X517904Y726255D01*
X517939Y725945D01*
X517966Y725634D01*
X517985Y725323D01*
X517996Y725012D01*
X518000Y724700D01*
X517996Y724388D01*
X517985Y724077D01*
X517966Y723766D01*
X517939Y723455D01*
X517904Y723145D01*
X517863Y722837D01*
X517813Y722529D01*
X517756Y722222D01*
X517691Y721917D01*
X517619Y721614D01*
X517540Y721313D01*
X517453Y721013D01*
X517359Y720716D01*
X517258Y720421D01*
X517149Y720129D01*
X517033Y719840D01*
X516910Y719553D01*
X516781Y719270D01*
X516644Y718990D01*
X516500Y718713D01*
X516350Y718440D01*
X516193Y718171D01*
X516030Y717906D01*
X515860Y717644D01*
X515683Y717387D01*
X515501Y717135D01*
X515312Y716887D01*
X515117Y716643D01*
X514917Y716405D01*
X514710Y716171D01*
X514498Y715943D01*
X514280Y715720D01*
X514057Y715502D01*
X513829Y715290D01*
X513595Y715083D01*
X513357Y714883D01*
X513113Y714688D01*
X512865Y714499D01*
X512613Y714317D01*
X512356Y714140D01*
X512094Y713970D01*
X511829Y713807D01*
X511560Y713650D01*
X511287Y713500D01*
X511010Y713356D01*
X510730Y713219D01*
X510447Y713090D01*
X510160Y712967D01*
X509871Y712851D01*
X509579Y712742D01*
X509284Y712641D01*
X508987Y712547D01*
X508687Y712460D01*
X508386Y712381D01*
X508083Y712309D01*
X507778Y712244D01*
X507471Y712187D01*
X507163Y712137D01*
X506855Y712096D01*
X506545Y712061D01*
X506234Y712034D01*
X505923Y712015D01*
X505612Y712004D01*
X505300Y712000D01*
X504988Y712004D01*
X504677Y712015D01*
X504366Y712034D01*
X504055Y712061D01*
X503745Y712096D01*
X503437Y712137D01*
X503129Y712187D01*
X502822Y712244D01*
X502517Y712309D01*
X502214Y712381D01*
X501913Y712460D01*
X501613Y712547D01*
X501316Y712641D01*
X501021Y712742D01*
X500729Y712851D01*
X500440Y712967D01*
X500153Y713090D01*
X499870Y713219D01*
X499590Y713356D01*
X499313Y713500D01*
X499040Y713650D01*
X498771Y713807D01*
X498506Y713970D01*
X498244Y714140D01*
X497987Y714317D01*
X497735Y714499D01*
X497487Y714688D01*
X497243Y714883D01*
X497005Y715083D01*
X496771Y715290D01*
X496543Y715502D01*
X496320Y715720D01*
X496102Y715943D01*
X495890Y716171D01*
X495683Y716405D01*
X495483Y716643D01*
X495288Y716887D01*
X495099Y717135D01*
X494917Y717387D01*
X494740Y717644D01*
X494570Y717906D01*
X494407Y718171D01*
X494250Y718440D01*
X494100Y718713D01*
X493956Y718990D01*
X493819Y719270D01*
X493690Y719553D01*
X493567Y719840D01*
X493451Y720129D01*
X493342Y720421D01*
X493241Y720716D01*
X493147Y721013D01*
X493060Y721313D01*
X492981Y721614D01*
X492909Y721917D01*
X492844Y722222D01*
X492787Y722529D01*
X492737Y722837D01*
X492696Y723145D01*
X492661Y723455D01*
X492634Y723766D01*
X492615Y724077D01*
X492604Y724388D01*
X492600Y724700D01*
D14*
X512000Y695092D02*
X520992Y695092D01*
X512000Y695092D02*
X512000Y699588D01*
X513499Y701087D01*
X516496Y701087D01*
X517995Y699588D01*
X517995Y695092D01*
X517995Y698090D02*
X520992Y701087D01*
X513499Y704300D02*
X512000Y705799D01*
X512000Y708796D01*
X513499Y710295D01*
X514998Y710295D01*
X516496Y708796D01*
X517995Y710295D01*
X519493Y710295D01*
X520992Y708796D01*
X520992Y705799D01*
X519493Y704300D01*
X517995Y704300D01*
X516496Y705799D01*
X514998Y704300D01*
X513499Y704300D01*
X516496Y705799D02*
X516496Y708796D01*
D17*
X304600Y539270D02*
X304600Y536730D01*
D14*
X309092Y493696D02*
X300100Y493696D01*
X300100Y498192D01*
X301599Y499691D01*
X304596Y499691D01*
X306095Y498192D01*
X306095Y493696D01*
X306095Y496693D02*
X309092Y499691D01*
X303098Y502904D02*
X300100Y505901D01*
X309092Y505901D01*
X309092Y502904D02*
X309092Y508898D01*
X300100Y512112D02*
X300100Y518106D01*
X301599Y518106D01*
X307593Y512112D01*
X309092Y512112D01*
D17*
X419000Y511270D02*
X419000Y508730D01*
D14*
X423492Y534896D02*
X414500Y534896D01*
X414500Y539392D01*
X415999Y540891D01*
X418996Y540891D01*
X420495Y539392D01*
X420495Y534896D01*
X420495Y537893D02*
X423492Y540891D01*
X423492Y544104D02*
X423492Y550098D01*
X423492Y544104D02*
X417498Y550098D01*
X415999Y550098D01*
X414500Y548600D01*
X414500Y545603D01*
X415999Y544104D01*
X415999Y553312D02*
X421993Y553312D01*
X415999Y553312D02*
X414500Y554810D01*
X414500Y557808D01*
X415999Y559306D01*
X421993Y559306D01*
X423492Y557808D01*
X423492Y554810D01*
X421993Y553312D01*
X415999Y559306D01*
D17*
X399000Y499170D02*
X399000Y496630D01*
D14*
X403492Y522796D02*
X394500Y522796D01*
X394500Y527292D01*
X395999Y528791D01*
X398996Y528791D01*
X400495Y527292D01*
X400495Y522796D01*
X400495Y525793D02*
X403492Y528791D01*
X403492Y532004D02*
X403492Y537998D01*
X403492Y532004D02*
X397498Y537998D01*
X395999Y537998D01*
X394500Y536500D01*
X394500Y533503D01*
X395999Y532004D01*
X397498Y541212D02*
X394500Y544209D01*
X403492Y544209D01*
X403492Y541212D02*
X403492Y547206D01*
D17*
X419000Y471270D02*
X419000Y468730D01*
D14*
X423492Y421696D02*
X414500Y421696D01*
X414500Y426192D01*
X415999Y427691D01*
X418996Y427691D01*
X420495Y426192D01*
X420495Y421696D01*
X420495Y424693D02*
X423492Y427691D01*
X423492Y430904D02*
X423492Y436899D01*
X417498Y436899D02*
X423492Y430904D01*
X417498Y436899D02*
X415999Y436899D01*
X414500Y435400D01*
X414500Y432403D01*
X415999Y430904D01*
X423492Y440112D02*
X423492Y446106D01*
X423492Y440112D02*
X417498Y446106D01*
X415999Y446106D01*
X414500Y444608D01*
X414500Y441611D01*
X415999Y440112D01*
D16*
X169300Y709460D02*
X169300Y714540D01*
D15*
X156600Y724700D02*
X156604Y725012D01*
X156615Y725323D01*
X156634Y725634D01*
X156661Y725945D01*
X156696Y726255D01*
X156737Y726563D01*
X156787Y726871D01*
X156844Y727178D01*
X156909Y727483D01*
X156981Y727786D01*
X157060Y728087D01*
X157147Y728387D01*
X157241Y728684D01*
X157342Y728979D01*
X157451Y729271D01*
X157567Y729560D01*
X157690Y729847D01*
X157819Y730130D01*
X157956Y730410D01*
X158100Y730687D01*
X158250Y730960D01*
X158407Y731229D01*
X158570Y731494D01*
X158740Y731756D01*
X158917Y732013D01*
X159099Y732265D01*
X159288Y732513D01*
X159483Y732757D01*
X159683Y732995D01*
X159890Y733229D01*
X160102Y733457D01*
X160320Y733680D01*
X160543Y733898D01*
X160771Y734110D01*
X161005Y734317D01*
X161243Y734517D01*
X161487Y734712D01*
X161735Y734901D01*
X161987Y735083D01*
X162244Y735260D01*
X162506Y735430D01*
X162771Y735593D01*
X163040Y735750D01*
X163313Y735900D01*
X163590Y736044D01*
X163870Y736181D01*
X164153Y736310D01*
X164440Y736433D01*
X164729Y736549D01*
X165021Y736658D01*
X165316Y736759D01*
X165613Y736853D01*
X165913Y736940D01*
X166214Y737019D01*
X166517Y737091D01*
X166822Y737156D01*
X167129Y737213D01*
X167437Y737263D01*
X167745Y737304D01*
X168055Y737339D01*
X168366Y737366D01*
X168677Y737385D01*
X168988Y737396D01*
X169300Y737400D01*
X169612Y737396D01*
X169923Y737385D01*
X170234Y737366D01*
X170545Y737339D01*
X170855Y737304D01*
X171163Y737263D01*
X171471Y737213D01*
X171778Y737156D01*
X172083Y737091D01*
X172386Y737019D01*
X172687Y736940D01*
X172987Y736853D01*
X173284Y736759D01*
X173579Y736658D01*
X173871Y736549D01*
X174160Y736433D01*
X174447Y736310D01*
X174730Y736181D01*
X175010Y736044D01*
X175287Y735900D01*
X175560Y735750D01*
X175829Y735593D01*
X176094Y735430D01*
X176356Y735260D01*
X176613Y735083D01*
X176865Y734901D01*
X177113Y734712D01*
X177357Y734517D01*
X177595Y734317D01*
X177829Y734110D01*
X178057Y733898D01*
X178280Y733680D01*
X178498Y733457D01*
X178710Y733229D01*
X178917Y732995D01*
X179117Y732757D01*
X179312Y732513D01*
X179501Y732265D01*
X179683Y732013D01*
X179860Y731756D01*
X180030Y731494D01*
X180193Y731229D01*
X180350Y730960D01*
X180500Y730687D01*
X180644Y730410D01*
X180781Y730130D01*
X180910Y729847D01*
X181033Y729560D01*
X181149Y729271D01*
X181258Y728979D01*
X181359Y728684D01*
X181453Y728387D01*
X181540Y728087D01*
X181619Y727786D01*
X181691Y727483D01*
X181756Y727178D01*
X181813Y726871D01*
X181863Y726563D01*
X181904Y726255D01*
X181939Y725945D01*
X181966Y725634D01*
X181985Y725323D01*
X181996Y725012D01*
X182000Y724700D01*
X181996Y724388D01*
X181985Y724077D01*
X181966Y723766D01*
X181939Y723455D01*
X181904Y723145D01*
X181863Y722837D01*
X181813Y722529D01*
X181756Y722222D01*
X181691Y721917D01*
X181619Y721614D01*
X181540Y721313D01*
X181453Y721013D01*
X181359Y720716D01*
X181258Y720421D01*
X181149Y720129D01*
X181033Y719840D01*
X180910Y719553D01*
X180781Y719270D01*
X180644Y718990D01*
X180500Y718713D01*
X180350Y718440D01*
X180193Y718171D01*
X180030Y717906D01*
X179860Y717644D01*
X179683Y717387D01*
X179501Y717135D01*
X179312Y716887D01*
X179117Y716643D01*
X178917Y716405D01*
X178710Y716171D01*
X178498Y715943D01*
X178280Y715720D01*
X178057Y715502D01*
X177829Y715290D01*
X177595Y715083D01*
X177357Y714883D01*
X177113Y714688D01*
X176865Y714499D01*
X176613Y714317D01*
X176356Y714140D01*
X176094Y713970D01*
X175829Y713807D01*
X175560Y713650D01*
X175287Y713500D01*
X175010Y713356D01*
X174730Y713219D01*
X174447Y713090D01*
X174160Y712967D01*
X173871Y712851D01*
X173579Y712742D01*
X173284Y712641D01*
X172987Y712547D01*
X172687Y712460D01*
X172386Y712381D01*
X172083Y712309D01*
X171778Y712244D01*
X171471Y712187D01*
X171163Y712137D01*
X170855Y712096D01*
X170545Y712061D01*
X170234Y712034D01*
X169923Y712015D01*
X169612Y712004D01*
X169300Y712000D01*
X168988Y712004D01*
X168677Y712015D01*
X168366Y712034D01*
X168055Y712061D01*
X167745Y712096D01*
X167437Y712137D01*
X167129Y712187D01*
X166822Y712244D01*
X166517Y712309D01*
X166214Y712381D01*
X165913Y712460D01*
X165613Y712547D01*
X165316Y712641D01*
X165021Y712742D01*
X164729Y712851D01*
X164440Y712967D01*
X164153Y713090D01*
X163870Y713219D01*
X163590Y713356D01*
X163313Y713500D01*
X163040Y713650D01*
X162771Y713807D01*
X162506Y713970D01*
X162244Y714140D01*
X161987Y714317D01*
X161735Y714499D01*
X161487Y714688D01*
X161243Y714883D01*
X161005Y715083D01*
X160771Y715290D01*
X160543Y715502D01*
X160320Y715720D01*
X160102Y715943D01*
X159890Y716171D01*
X159683Y716405D01*
X159483Y716643D01*
X159288Y716887D01*
X159099Y717135D01*
X158917Y717387D01*
X158740Y717644D01*
X158570Y717906D01*
X158407Y718171D01*
X158250Y718440D01*
X158100Y718713D01*
X157956Y718990D01*
X157819Y719270D01*
X157690Y719553D01*
X157567Y719840D01*
X157451Y720129D01*
X157342Y720421D01*
X157241Y720716D01*
X157147Y721013D01*
X157060Y721313D01*
X156981Y721614D01*
X156909Y721917D01*
X156844Y722222D01*
X156787Y722529D01*
X156737Y722837D01*
X156696Y723145D01*
X156661Y723455D01*
X156634Y723766D01*
X156615Y724077D01*
X156604Y724388D01*
X156600Y724700D01*
D14*
X176000Y695092D02*
X184992Y695092D01*
X176000Y695092D02*
X176000Y699588D01*
X177499Y701087D01*
X180496Y701087D01*
X181995Y699588D01*
X181995Y695092D01*
X181995Y698090D02*
X184992Y701087D01*
X184992Y704300D02*
X184992Y710295D01*
X178998Y710295D02*
X184992Y704300D01*
X178998Y710295D02*
X177499Y710295D01*
X176000Y708796D01*
X176000Y705799D01*
X177499Y704300D01*
D16*
X225300Y709460D02*
X225300Y714540D01*
D15*
X212600Y724700D02*
X212604Y725012D01*
X212615Y725323D01*
X212634Y725634D01*
X212661Y725945D01*
X212696Y726255D01*
X212737Y726563D01*
X212787Y726871D01*
X212844Y727178D01*
X212909Y727483D01*
X212981Y727786D01*
X213060Y728087D01*
X213147Y728387D01*
X213241Y728684D01*
X213342Y728979D01*
X213451Y729271D01*
X213567Y729560D01*
X213690Y729847D01*
X213819Y730130D01*
X213956Y730410D01*
X214100Y730687D01*
X214250Y730960D01*
X214407Y731229D01*
X214570Y731494D01*
X214740Y731756D01*
X214917Y732013D01*
X215099Y732265D01*
X215288Y732513D01*
X215483Y732757D01*
X215683Y732995D01*
X215890Y733229D01*
X216102Y733457D01*
X216320Y733680D01*
X216543Y733898D01*
X216771Y734110D01*
X217005Y734317D01*
X217243Y734517D01*
X217487Y734712D01*
X217735Y734901D01*
X217987Y735083D01*
X218244Y735260D01*
X218506Y735430D01*
X218771Y735593D01*
X219040Y735750D01*
X219313Y735900D01*
X219590Y736044D01*
X219870Y736181D01*
X220153Y736310D01*
X220440Y736433D01*
X220729Y736549D01*
X221021Y736658D01*
X221316Y736759D01*
X221613Y736853D01*
X221913Y736940D01*
X222214Y737019D01*
X222517Y737091D01*
X222822Y737156D01*
X223129Y737213D01*
X223437Y737263D01*
X223745Y737304D01*
X224055Y737339D01*
X224366Y737366D01*
X224677Y737385D01*
X224988Y737396D01*
X225300Y737400D01*
X225612Y737396D01*
X225923Y737385D01*
X226234Y737366D01*
X226545Y737339D01*
X226855Y737304D01*
X227163Y737263D01*
X227471Y737213D01*
X227778Y737156D01*
X228083Y737091D01*
X228386Y737019D01*
X228687Y736940D01*
X228987Y736853D01*
X229284Y736759D01*
X229579Y736658D01*
X229871Y736549D01*
X230160Y736433D01*
X230447Y736310D01*
X230730Y736181D01*
X231010Y736044D01*
X231287Y735900D01*
X231560Y735750D01*
X231829Y735593D01*
X232094Y735430D01*
X232356Y735260D01*
X232613Y735083D01*
X232865Y734901D01*
X233113Y734712D01*
X233357Y734517D01*
X233595Y734317D01*
X233829Y734110D01*
X234057Y733898D01*
X234280Y733680D01*
X234498Y733457D01*
X234710Y733229D01*
X234917Y732995D01*
X235117Y732757D01*
X235312Y732513D01*
X235501Y732265D01*
X235683Y732013D01*
X235860Y731756D01*
X236030Y731494D01*
X236193Y731229D01*
X236350Y730960D01*
X236500Y730687D01*
X236644Y730410D01*
X236781Y730130D01*
X236910Y729847D01*
X237033Y729560D01*
X237149Y729271D01*
X237258Y728979D01*
X237359Y728684D01*
X237453Y728387D01*
X237540Y728087D01*
X237619Y727786D01*
X237691Y727483D01*
X237756Y727178D01*
X237813Y726871D01*
X237863Y726563D01*
X237904Y726255D01*
X237939Y725945D01*
X237966Y725634D01*
X237985Y725323D01*
X237996Y725012D01*
X238000Y724700D01*
X237996Y724388D01*
X237985Y724077D01*
X237966Y723766D01*
X237939Y723455D01*
X237904Y723145D01*
X237863Y722837D01*
X237813Y722529D01*
X237756Y722222D01*
X237691Y721917D01*
X237619Y721614D01*
X237540Y721313D01*
X237453Y721013D01*
X237359Y720716D01*
X237258Y720421D01*
X237149Y720129D01*
X237033Y719840D01*
X236910Y719553D01*
X236781Y719270D01*
X236644Y718990D01*
X236500Y718713D01*
X236350Y718440D01*
X236193Y718171D01*
X236030Y717906D01*
X235860Y717644D01*
X235683Y717387D01*
X235501Y717135D01*
X235312Y716887D01*
X235117Y716643D01*
X234917Y716405D01*
X234710Y716171D01*
X234498Y715943D01*
X234280Y715720D01*
X234057Y715502D01*
X233829Y715290D01*
X233595Y715083D01*
X233357Y714883D01*
X233113Y714688D01*
X232865Y714499D01*
X232613Y714317D01*
X232356Y714140D01*
X232094Y713970D01*
X231829Y713807D01*
X231560Y713650D01*
X231287Y713500D01*
X231010Y713356D01*
X230730Y713219D01*
X230447Y713090D01*
X230160Y712967D01*
X229871Y712851D01*
X229579Y712742D01*
X229284Y712641D01*
X228987Y712547D01*
X228687Y712460D01*
X228386Y712381D01*
X228083Y712309D01*
X227778Y712244D01*
X227471Y712187D01*
X227163Y712137D01*
X226855Y712096D01*
X226545Y712061D01*
X226234Y712034D01*
X225923Y712015D01*
X225612Y712004D01*
X225300Y712000D01*
X224988Y712004D01*
X224677Y712015D01*
X224366Y712034D01*
X224055Y712061D01*
X223745Y712096D01*
X223437Y712137D01*
X223129Y712187D01*
X222822Y712244D01*
X222517Y712309D01*
X222214Y712381D01*
X221913Y712460D01*
X221613Y712547D01*
X221316Y712641D01*
X221021Y712742D01*
X220729Y712851D01*
X220440Y712967D01*
X220153Y713090D01*
X219870Y713219D01*
X219590Y713356D01*
X219313Y713500D01*
X219040Y713650D01*
X218771Y713807D01*
X218506Y713970D01*
X218244Y714140D01*
X217987Y714317D01*
X217735Y714499D01*
X217487Y714688D01*
X217243Y714883D01*
X217005Y715083D01*
X216771Y715290D01*
X216543Y715502D01*
X216320Y715720D01*
X216102Y715943D01*
X215890Y716171D01*
X215683Y716405D01*
X215483Y716643D01*
X215288Y716887D01*
X215099Y717135D01*
X214917Y717387D01*
X214740Y717644D01*
X214570Y717906D01*
X214407Y718171D01*
X214250Y718440D01*
X214100Y718713D01*
X213956Y718990D01*
X213819Y719270D01*
X213690Y719553D01*
X213567Y719840D01*
X213451Y720129D01*
X213342Y720421D01*
X213241Y720716D01*
X213147Y721013D01*
X213060Y721313D01*
X212981Y721614D01*
X212909Y721917D01*
X212844Y722222D01*
X212787Y722529D01*
X212737Y722837D01*
X212696Y723145D01*
X212661Y723455D01*
X212634Y723766D01*
X212615Y724077D01*
X212604Y724388D01*
X212600Y724700D01*
D14*
X232000Y695092D02*
X240992Y695092D01*
X232000Y695092D02*
X232000Y699588D01*
X233499Y701087D01*
X236496Y701087D01*
X237995Y699588D01*
X237995Y695092D01*
X237995Y698090D02*
X240992Y701087D01*
X233499Y704300D02*
X232000Y705799D01*
X232000Y708796D01*
X233499Y710295D01*
X234998Y710295D01*
X236496Y708796D01*
X236496Y707297D01*
X236496Y708796D02*
X237995Y710295D01*
X239493Y710295D01*
X240992Y708796D01*
X240992Y705799D01*
X239493Y704300D01*
D16*
X281300Y709460D02*
X281300Y714540D01*
D15*
X268600Y724700D02*
X268604Y725012D01*
X268615Y725323D01*
X268634Y725634D01*
X268661Y725945D01*
X268696Y726255D01*
X268737Y726563D01*
X268787Y726871D01*
X268844Y727178D01*
X268909Y727483D01*
X268981Y727786D01*
X269060Y728087D01*
X269147Y728387D01*
X269241Y728684D01*
X269342Y728979D01*
X269451Y729271D01*
X269567Y729560D01*
X269690Y729847D01*
X269819Y730130D01*
X269956Y730410D01*
X270100Y730687D01*
X270250Y730960D01*
X270407Y731229D01*
X270570Y731494D01*
X270740Y731756D01*
X270917Y732013D01*
X271099Y732265D01*
X271288Y732513D01*
X271483Y732757D01*
X271683Y732995D01*
X271890Y733229D01*
X272102Y733457D01*
X272320Y733680D01*
X272543Y733898D01*
X272771Y734110D01*
X273005Y734317D01*
X273243Y734517D01*
X273487Y734712D01*
X273735Y734901D01*
X273987Y735083D01*
X274244Y735260D01*
X274506Y735430D01*
X274771Y735593D01*
X275040Y735750D01*
X275313Y735900D01*
X275590Y736044D01*
X275870Y736181D01*
X276153Y736310D01*
X276440Y736433D01*
X276729Y736549D01*
X277021Y736658D01*
X277316Y736759D01*
X277613Y736853D01*
X277913Y736940D01*
X278214Y737019D01*
X278517Y737091D01*
X278822Y737156D01*
X279129Y737213D01*
X279437Y737263D01*
X279745Y737304D01*
X280055Y737339D01*
X280366Y737366D01*
X280677Y737385D01*
X280988Y737396D01*
X281300Y737400D01*
X281612Y737396D01*
X281923Y737385D01*
X282234Y737366D01*
X282545Y737339D01*
X282855Y737304D01*
X283163Y737263D01*
X283471Y737213D01*
X283778Y737156D01*
X284083Y737091D01*
X284386Y737019D01*
X284687Y736940D01*
X284987Y736853D01*
X285284Y736759D01*
X285579Y736658D01*
X285871Y736549D01*
X286160Y736433D01*
X286447Y736310D01*
X286730Y736181D01*
X287010Y736044D01*
X287287Y735900D01*
X287560Y735750D01*
X287829Y735593D01*
X288094Y735430D01*
X288356Y735260D01*
X288613Y735083D01*
X288865Y734901D01*
X289113Y734712D01*
X289357Y734517D01*
X289595Y734317D01*
X289829Y734110D01*
X290057Y733898D01*
X290280Y733680D01*
X290498Y733457D01*
X290710Y733229D01*
X290917Y732995D01*
X291117Y732757D01*
X291312Y732513D01*
X291501Y732265D01*
X291683Y732013D01*
X291860Y731756D01*
X292030Y731494D01*
X292193Y731229D01*
X292350Y730960D01*
X292500Y730687D01*
X292644Y730410D01*
X292781Y730130D01*
X292910Y729847D01*
X293033Y729560D01*
X293149Y729271D01*
X293258Y728979D01*
X293359Y728684D01*
X293453Y728387D01*
X293540Y728087D01*
X293619Y727786D01*
X293691Y727483D01*
X293756Y727178D01*
X293813Y726871D01*
X293863Y726563D01*
X293904Y726255D01*
X293939Y725945D01*
X293966Y725634D01*
X293985Y725323D01*
X293996Y725012D01*
X294000Y724700D01*
X293996Y724388D01*
X293985Y724077D01*
X293966Y723766D01*
X293939Y723455D01*
X293904Y723145D01*
X293863Y722837D01*
X293813Y722529D01*
X293756Y722222D01*
X293691Y721917D01*
X293619Y721614D01*
X293540Y721313D01*
X293453Y721013D01*
X293359Y720716D01*
X293258Y720421D01*
X293149Y720129D01*
X293033Y719840D01*
X292910Y719553D01*
X292781Y719270D01*
X292644Y718990D01*
X292500Y718713D01*
X292350Y718440D01*
X292193Y718171D01*
X292030Y717906D01*
X291860Y717644D01*
X291683Y717387D01*
X291501Y717135D01*
X291312Y716887D01*
X291117Y716643D01*
X290917Y716405D01*
X290710Y716171D01*
X290498Y715943D01*
X290280Y715720D01*
X290057Y715502D01*
X289829Y715290D01*
X289595Y715083D01*
X289357Y714883D01*
X289113Y714688D01*
X288865Y714499D01*
X288613Y714317D01*
X288356Y714140D01*
X288094Y713970D01*
X287829Y713807D01*
X287560Y713650D01*
X287287Y713500D01*
X287010Y713356D01*
X286730Y713219D01*
X286447Y713090D01*
X286160Y712967D01*
X285871Y712851D01*
X285579Y712742D01*
X285284Y712641D01*
X284987Y712547D01*
X284687Y712460D01*
X284386Y712381D01*
X284083Y712309D01*
X283778Y712244D01*
X283471Y712187D01*
X283163Y712137D01*
X282855Y712096D01*
X282545Y712061D01*
X282234Y712034D01*
X281923Y712015D01*
X281612Y712004D01*
X281300Y712000D01*
X280988Y712004D01*
X280677Y712015D01*
X280366Y712034D01*
X280055Y712061D01*
X279745Y712096D01*
X279437Y712137D01*
X279129Y712187D01*
X278822Y712244D01*
X278517Y712309D01*
X278214Y712381D01*
X277913Y712460D01*
X277613Y712547D01*
X277316Y712641D01*
X277021Y712742D01*
X276729Y712851D01*
X276440Y712967D01*
X276153Y713090D01*
X275870Y713219D01*
X275590Y713356D01*
X275313Y713500D01*
X275040Y713650D01*
X274771Y713807D01*
X274506Y713970D01*
X274244Y714140D01*
X273987Y714317D01*
X273735Y714499D01*
X273487Y714688D01*
X273243Y714883D01*
X273005Y715083D01*
X272771Y715290D01*
X272543Y715502D01*
X272320Y715720D01*
X272102Y715943D01*
X271890Y716171D01*
X271683Y716405D01*
X271483Y716643D01*
X271288Y716887D01*
X271099Y717135D01*
X270917Y717387D01*
X270740Y717644D01*
X270570Y717906D01*
X270407Y718171D01*
X270250Y718440D01*
X270100Y718713D01*
X269956Y718990D01*
X269819Y719270D01*
X269690Y719553D01*
X269567Y719840D01*
X269451Y720129D01*
X269342Y720421D01*
X269241Y720716D01*
X269147Y721013D01*
X269060Y721313D01*
X268981Y721614D01*
X268909Y721917D01*
X268844Y722222D01*
X268787Y722529D01*
X268737Y722837D01*
X268696Y723145D01*
X268661Y723455D01*
X268634Y723766D01*
X268615Y724077D01*
X268604Y724388D01*
X268600Y724700D01*
D14*
X288000Y695092D02*
X296992Y695092D01*
X288000Y695092D02*
X288000Y699588D01*
X289499Y701087D01*
X292496Y701087D01*
X293995Y699588D01*
X293995Y695092D01*
X293995Y698090D02*
X296992Y701087D01*
X296992Y708796D02*
X288000Y708796D01*
X292496Y704300D01*
X292496Y710295D01*
D16*
X337300Y709460D02*
X337300Y714540D01*
D15*
X324600Y724700D02*
X324604Y725012D01*
X324615Y725323D01*
X324634Y725634D01*
X324661Y725945D01*
X324696Y726255D01*
X324737Y726563D01*
X324787Y726871D01*
X324844Y727178D01*
X324909Y727483D01*
X324981Y727786D01*
X325060Y728087D01*
X325147Y728387D01*
X325241Y728684D01*
X325342Y728979D01*
X325451Y729271D01*
X325567Y729560D01*
X325690Y729847D01*
X325819Y730130D01*
X325956Y730410D01*
X326100Y730687D01*
X326250Y730960D01*
X326407Y731229D01*
X326570Y731494D01*
X326740Y731756D01*
X326917Y732013D01*
X327099Y732265D01*
X327288Y732513D01*
X327483Y732757D01*
X327683Y732995D01*
X327890Y733229D01*
X328102Y733457D01*
X328320Y733680D01*
X328543Y733898D01*
X328771Y734110D01*
X329005Y734317D01*
X329243Y734517D01*
X329487Y734712D01*
X329735Y734901D01*
X329987Y735083D01*
X330244Y735260D01*
X330506Y735430D01*
X330771Y735593D01*
X331040Y735750D01*
X331313Y735900D01*
X331590Y736044D01*
X331870Y736181D01*
X332153Y736310D01*
X332440Y736433D01*
X332729Y736549D01*
X333021Y736658D01*
X333316Y736759D01*
X333613Y736853D01*
X333913Y736940D01*
X334214Y737019D01*
X334517Y737091D01*
X334822Y737156D01*
X335129Y737213D01*
X335437Y737263D01*
X335745Y737304D01*
X336055Y737339D01*
X336366Y737366D01*
X336677Y737385D01*
X336988Y737396D01*
X337300Y737400D01*
X337612Y737396D01*
X337923Y737385D01*
X338234Y737366D01*
X338545Y737339D01*
X338855Y737304D01*
X339163Y737263D01*
X339471Y737213D01*
X339778Y737156D01*
X340083Y737091D01*
X340386Y737019D01*
X340687Y736940D01*
X340987Y736853D01*
X341284Y736759D01*
X341579Y736658D01*
X341871Y736549D01*
X342160Y736433D01*
X342447Y736310D01*
X342730Y736181D01*
X343010Y736044D01*
X343287Y735900D01*
X343560Y735750D01*
X343829Y735593D01*
X344094Y735430D01*
X344356Y735260D01*
X344613Y735083D01*
X344865Y734901D01*
X345113Y734712D01*
X345357Y734517D01*
X345595Y734317D01*
X345829Y734110D01*
X346057Y733898D01*
X346280Y733680D01*
X346498Y733457D01*
X346710Y733229D01*
X346917Y732995D01*
X347117Y732757D01*
X347312Y732513D01*
X347501Y732265D01*
X347683Y732013D01*
X347860Y731756D01*
X348030Y731494D01*
X348193Y731229D01*
X348350Y730960D01*
X348500Y730687D01*
X348644Y730410D01*
X348781Y730130D01*
X348910Y729847D01*
X349033Y729560D01*
X349149Y729271D01*
X349258Y728979D01*
X349359Y728684D01*
X349453Y728387D01*
X349540Y728087D01*
X349619Y727786D01*
X349691Y727483D01*
X349756Y727178D01*
X349813Y726871D01*
X349863Y726563D01*
X349904Y726255D01*
X349939Y725945D01*
X349966Y725634D01*
X349985Y725323D01*
X349996Y725012D01*
X350000Y724700D01*
X349996Y724388D01*
X349985Y724077D01*
X349966Y723766D01*
X349939Y723455D01*
X349904Y723145D01*
X349863Y722837D01*
X349813Y722529D01*
X349756Y722222D01*
X349691Y721917D01*
X349619Y721614D01*
X349540Y721313D01*
X349453Y721013D01*
X349359Y720716D01*
X349258Y720421D01*
X349149Y720129D01*
X349033Y719840D01*
X348910Y719553D01*
X348781Y719270D01*
X348644Y718990D01*
X348500Y718713D01*
X348350Y718440D01*
X348193Y718171D01*
X348030Y717906D01*
X347860Y717644D01*
X347683Y717387D01*
X347501Y717135D01*
X347312Y716887D01*
X347117Y716643D01*
X346917Y716405D01*
X346710Y716171D01*
X346498Y715943D01*
X346280Y715720D01*
X346057Y715502D01*
X345829Y715290D01*
X345595Y715083D01*
X345357Y714883D01*
X345113Y714688D01*
X344865Y714499D01*
X344613Y714317D01*
X344356Y714140D01*
X344094Y713970D01*
X343829Y713807D01*
X343560Y713650D01*
X343287Y713500D01*
X343010Y713356D01*
X342730Y713219D01*
X342447Y713090D01*
X342160Y712967D01*
X341871Y712851D01*
X341579Y712742D01*
X341284Y712641D01*
X340987Y712547D01*
X340687Y712460D01*
X340386Y712381D01*
X340083Y712309D01*
X339778Y712244D01*
X339471Y712187D01*
X339163Y712137D01*
X338855Y712096D01*
X338545Y712061D01*
X338234Y712034D01*
X337923Y712015D01*
X337612Y712004D01*
X337300Y712000D01*
X336988Y712004D01*
X336677Y712015D01*
X336366Y712034D01*
X336055Y712061D01*
X335745Y712096D01*
X335437Y712137D01*
X335129Y712187D01*
X334822Y712244D01*
X334517Y712309D01*
X334214Y712381D01*
X333913Y712460D01*
X333613Y712547D01*
X333316Y712641D01*
X333021Y712742D01*
X332729Y712851D01*
X332440Y712967D01*
X332153Y713090D01*
X331870Y713219D01*
X331590Y713356D01*
X331313Y713500D01*
X331040Y713650D01*
X330771Y713807D01*
X330506Y713970D01*
X330244Y714140D01*
X329987Y714317D01*
X329735Y714499D01*
X329487Y714688D01*
X329243Y714883D01*
X329005Y715083D01*
X328771Y715290D01*
X328543Y715502D01*
X328320Y715720D01*
X328102Y715943D01*
X327890Y716171D01*
X327683Y716405D01*
X327483Y716643D01*
X327288Y716887D01*
X327099Y717135D01*
X326917Y717387D01*
X326740Y717644D01*
X326570Y717906D01*
X326407Y718171D01*
X326250Y718440D01*
X326100Y718713D01*
X325956Y718990D01*
X325819Y719270D01*
X325690Y719553D01*
X325567Y719840D01*
X325451Y720129D01*
X325342Y720421D01*
X325241Y720716D01*
X325147Y721013D01*
X325060Y721313D01*
X324981Y721614D01*
X324909Y721917D01*
X324844Y722222D01*
X324787Y722529D01*
X324737Y722837D01*
X324696Y723145D01*
X324661Y723455D01*
X324634Y723766D01*
X324615Y724077D01*
X324604Y724388D01*
X324600Y724700D01*
D14*
X344000Y695092D02*
X352992Y695092D01*
X344000Y695092D02*
X344000Y699588D01*
X345499Y701087D01*
X348496Y701087D01*
X349995Y699588D01*
X349995Y695092D01*
X349995Y698090D02*
X352992Y701087D01*
X344000Y704300D02*
X344000Y710295D01*
X344000Y704300D02*
X348496Y704300D01*
X346998Y707297D01*
X346998Y708796D01*
X348496Y710295D01*
X351493Y710295D01*
X352992Y708796D01*
X352992Y705799D01*
X351493Y704300D01*
D15*
X261420Y552360D02*
X42980Y552360D01*
X42980Y532040D02*
X261420Y532040D01*
X244910Y533310D02*
X244910Y551090D01*
X262690Y551090D01*
X266500Y537120D02*
X266498Y536980D01*
X266492Y536840D01*
X266483Y536700D01*
X266469Y536561D01*
X266452Y536422D01*
X266431Y536284D01*
X266406Y536146D01*
X266377Y536009D01*
X266345Y535873D01*
X266308Y535738D01*
X266268Y535604D01*
X266225Y535471D01*
X266177Y535339D01*
X266127Y535208D01*
X266072Y535079D01*
X266014Y534952D01*
X265953Y534826D01*
X265888Y534702D01*
X265819Y534580D01*
X265748Y534460D01*
X265673Y534342D01*
X265595Y534225D01*
X265513Y534111D01*
X265429Y534000D01*
X265341Y533891D01*
X265251Y533784D01*
X265157Y533679D01*
X265061Y533578D01*
X264962Y533479D01*
X264861Y533383D01*
X264756Y533289D01*
X264649Y533199D01*
X264540Y533111D01*
X264429Y533027D01*
X264315Y532945D01*
X264198Y532867D01*
X264080Y532792D01*
X263960Y532721D01*
X263838Y532652D01*
X263714Y532587D01*
X263588Y532526D01*
X263461Y532468D01*
X263332Y532413D01*
X263201Y532363D01*
X263069Y532315D01*
X262936Y532272D01*
X262802Y532232D01*
X262667Y532195D01*
X262531Y532163D01*
X262394Y532134D01*
X262256Y532109D01*
X262118Y532088D01*
X261979Y532071D01*
X261840Y532057D01*
X261700Y532048D01*
X261560Y532042D01*
X261420Y532040D01*
X42980Y552360D02*
X42840Y552358D01*
X42700Y552352D01*
X42560Y552343D01*
X42421Y552329D01*
X42282Y552312D01*
X42144Y552291D01*
X42006Y552266D01*
X41869Y552237D01*
X41733Y552205D01*
X41598Y552168D01*
X41464Y552128D01*
X41331Y552085D01*
X41199Y552037D01*
X41068Y551987D01*
X40939Y551932D01*
X40812Y551874D01*
X40686Y551813D01*
X40562Y551748D01*
X40440Y551679D01*
X40320Y551608D01*
X40202Y551533D01*
X40085Y551455D01*
X39971Y551373D01*
X39860Y551289D01*
X39751Y551201D01*
X39644Y551111D01*
X39539Y551017D01*
X39438Y550921D01*
X39339Y550822D01*
X39243Y550721D01*
X39149Y550616D01*
X39059Y550509D01*
X38971Y550400D01*
X38887Y550289D01*
X38805Y550175D01*
X38727Y550058D01*
X38652Y549940D01*
X38581Y549820D01*
X38512Y549698D01*
X38447Y549574D01*
X38386Y549448D01*
X38328Y549321D01*
X38273Y549192D01*
X38223Y549061D01*
X38175Y548929D01*
X38132Y548796D01*
X38092Y548662D01*
X38055Y548527D01*
X38023Y548391D01*
X37994Y548254D01*
X37969Y548116D01*
X37948Y547978D01*
X37931Y547839D01*
X37917Y547700D01*
X37908Y547560D01*
X37902Y547420D01*
X37900Y547280D01*
X37900Y537120D02*
X37902Y536980D01*
X37908Y536840D01*
X37917Y536700D01*
X37931Y536561D01*
X37948Y536422D01*
X37969Y536284D01*
X37994Y536146D01*
X38023Y536009D01*
X38055Y535873D01*
X38092Y535738D01*
X38132Y535604D01*
X38175Y535471D01*
X38223Y535339D01*
X38273Y535208D01*
X38328Y535079D01*
X38386Y534952D01*
X38447Y534826D01*
X38512Y534702D01*
X38581Y534580D01*
X38652Y534460D01*
X38727Y534342D01*
X38805Y534225D01*
X38887Y534111D01*
X38971Y534000D01*
X39059Y533891D01*
X39149Y533784D01*
X39243Y533679D01*
X39339Y533578D01*
X39438Y533479D01*
X39539Y533383D01*
X39644Y533289D01*
X39751Y533199D01*
X39860Y533111D01*
X39971Y533027D01*
X40085Y532945D01*
X40202Y532867D01*
X40320Y532792D01*
X40440Y532721D01*
X40562Y532652D01*
X40686Y532587D01*
X40812Y532526D01*
X40939Y532468D01*
X41068Y532413D01*
X41199Y532363D01*
X41331Y532315D01*
X41464Y532272D01*
X41598Y532232D01*
X41733Y532195D01*
X41869Y532163D01*
X42006Y532134D01*
X42144Y532109D01*
X42282Y532088D01*
X42421Y532071D01*
X42560Y532057D01*
X42700Y532048D01*
X42840Y532042D01*
X42980Y532040D01*
X261420Y552360D02*
X261560Y552358D01*
X261700Y552352D01*
X261840Y552343D01*
X261979Y552329D01*
X262118Y552312D01*
X262256Y552291D01*
X262394Y552266D01*
X262531Y552237D01*
X262667Y552205D01*
X262802Y552168D01*
X262936Y552128D01*
X263069Y552085D01*
X263201Y552037D01*
X263332Y551987D01*
X263461Y551932D01*
X263588Y551874D01*
X263714Y551813D01*
X263838Y551748D01*
X263960Y551679D01*
X264080Y551608D01*
X264198Y551533D01*
X264315Y551455D01*
X264429Y551373D01*
X264540Y551289D01*
X264649Y551201D01*
X264756Y551111D01*
X264861Y551017D01*
X264962Y550921D01*
X265061Y550822D01*
X265157Y550721D01*
X265251Y550616D01*
X265341Y550509D01*
X265429Y550400D01*
X265513Y550289D01*
X265595Y550175D01*
X265673Y550058D01*
X265748Y549940D01*
X265819Y549820D01*
X265888Y549698D01*
X265953Y549574D01*
X266014Y549448D01*
X266072Y549321D01*
X266127Y549192D01*
X266177Y549061D01*
X266225Y548929D01*
X266268Y548796D01*
X266308Y548662D01*
X266345Y548527D01*
X266377Y548391D01*
X266406Y548254D01*
X266431Y548116D01*
X266452Y547978D01*
X266469Y547839D01*
X266483Y547700D01*
X266492Y547560D01*
X266498Y547420D01*
X266500Y547280D01*
X37900Y547280D02*
X37900Y537120D01*
X266500Y537120D02*
X266500Y547280D01*
X262690Y551090D02*
X262690Y533310D01*
X244910Y533310D01*
D11*
X268174Y543771D02*
X271055Y546652D01*
X271055Y538009D01*
X268174Y538009D02*
X273936Y538009D01*
D14*
X21696Y555508D02*
X21696Y564500D01*
X26192Y564500D01*
X27691Y563001D01*
X27691Y560004D01*
X26192Y558505D01*
X21696Y558505D01*
X24693Y558505D02*
X27691Y555508D01*
X30904Y555508D02*
X30904Y564500D01*
X36898Y555508D01*
X36898Y564500D01*
X40112Y561502D02*
X43109Y564500D01*
X43109Y555508D01*
X40112Y555508D02*
X46106Y555508D01*
D15*
X434280Y457370D02*
X525720Y457370D01*
X525720Y556430D02*
X434280Y556430D01*
X434280Y523410D01*
X434280Y490390D02*
X439360Y490390D01*
X439360Y523410D01*
X434280Y523410D01*
X434280Y490390D02*
X434280Y457370D01*
X434280Y490390D02*
X434280Y523410D01*
X525720Y490390D02*
X525720Y457370D01*
X525720Y523410D02*
X520640Y523410D01*
X520640Y490390D01*
X525720Y490390D01*
X525720Y523410D02*
X525720Y556430D01*
X525720Y523410D02*
X525720Y490390D01*
X497780Y487850D02*
X497780Y525950D01*
X513020Y525950D01*
X513020Y487850D01*
X497780Y487850D01*
X472380Y487850D02*
X472380Y525950D01*
X487620Y525950D01*
X487620Y487850D01*
X472380Y487850D01*
X446980Y487850D02*
X446980Y525950D01*
X462220Y525950D01*
X462220Y487850D01*
X446980Y487850D01*
D18*
X505400Y504995D03*
X505400Y498645D03*
X505400Y492295D03*
X480000Y504995D03*
X480000Y498645D03*
X480000Y492295D03*
X454600Y504995D03*
X454600Y498645D03*
X454600Y492295D03*
D14*
X530500Y471192D02*
X531999Y472691D01*
X530500Y471192D02*
X530500Y468195D01*
X531999Y466696D01*
X533498Y466696D01*
X534996Y468195D01*
X534996Y471192D01*
X536495Y472691D01*
X537993Y472691D01*
X539492Y471192D01*
X539492Y468195D01*
X537993Y466696D01*
X539492Y475904D02*
X530500Y475904D01*
X536495Y478901D02*
X539492Y475904D01*
X536495Y478901D02*
X539492Y481898D01*
X530500Y481898D01*
X533498Y485112D02*
X530500Y488109D01*
X539492Y488109D01*
X539492Y485112D02*
X539492Y491106D01*
D19*
X205000Y300500D02*
X205000Y92500D01*
X163000Y92500D01*
X135000Y92500D02*
X135000Y300500D01*
X205000Y300500D01*
D14*
X130992Y187800D02*
X122000Y187800D01*
X127995Y187800D02*
X122000Y193795D01*
X126496Y189299D02*
X130992Y193795D01*
X122000Y197008D02*
X122000Y203002D01*
X122000Y197008D02*
X126496Y197008D01*
X124998Y200005D01*
X124998Y201504D01*
X126496Y203002D01*
X129493Y203002D01*
X130992Y201504D01*
X130992Y198507D01*
X129493Y197008D01*
D19*
X295000Y300500D02*
X295000Y92500D01*
X253000Y92500D01*
X225000Y92500D02*
X225000Y300500D01*
X295000Y300500D01*
D14*
X299000Y187800D02*
X307992Y187800D01*
X304995Y187800D02*
X299000Y193795D01*
X303496Y189299D02*
X307992Y193795D01*
X300499Y200005D02*
X299000Y203002D01*
X300499Y200005D02*
X303496Y197008D01*
X306493Y197008D01*
X307992Y198507D01*
X307992Y201504D01*
X306493Y203002D01*
X304995Y203002D01*
X303496Y201504D01*
X303496Y197008D01*
D19*
X415000Y300500D02*
X415000Y92500D01*
X373000Y92500D01*
X345000Y92500D02*
X345000Y300500D01*
X415000Y300500D01*
D14*
X340992Y187800D02*
X332000Y187800D01*
X337995Y187800D02*
X332000Y193795D01*
X336496Y189299D02*
X340992Y193795D01*
X332000Y197008D02*
X332000Y203002D01*
X333499Y203002D01*
X339493Y197008D01*
X340992Y197008D01*
D19*
X505000Y300500D02*
X505000Y92500D01*
X463000Y92500D01*
X435000Y92500D02*
X435000Y300500D01*
X505000Y300500D01*
D14*
X509000Y187800D02*
X517992Y187800D01*
X514995Y187800D02*
X509000Y193795D01*
X513496Y189299D02*
X517992Y193795D01*
X510499Y197008D02*
X509000Y198507D01*
X509000Y201504D01*
X510499Y203002D01*
X511998Y203002D01*
X513496Y201504D01*
X514995Y203002D01*
X516493Y203002D01*
X517992Y201504D01*
X517992Y198507D01*
X516493Y197008D01*
X514995Y197008D01*
X513496Y198507D01*
X511998Y197008D01*
X510499Y197008D01*
X513496Y198507D02*
X513496Y201504D01*
X560295Y539501D02*
X558796Y541000D01*
X555799Y541000D01*
X554300Y539501D01*
X554300Y533507D01*
X555799Y532008D01*
X558796Y532008D01*
X560295Y533507D01*
X563508Y539501D02*
X565007Y541000D01*
X568004Y541000D01*
X569502Y539501D01*
X569502Y538002D01*
X568004Y536504D01*
X566505Y536504D01*
X568004Y536504D02*
X569502Y535005D01*
X569502Y533507D01*
X568004Y532008D01*
X565007Y532008D01*
X563508Y533507D01*
D11*
X45000Y80500D02*
X45000Y-4500D01*
X45000Y80500D02*
X145000Y80500D01*
X145000Y-4500D01*
X45000Y-4500D01*
D14*
X24300Y35007D02*
X24300Y41001D01*
X25799Y42500D01*
X28796Y42500D01*
X30295Y41001D01*
X30295Y35007D01*
X28796Y33508D01*
X25799Y33508D01*
X24300Y35007D01*
X27297Y36505D02*
X30295Y33508D01*
X33508Y42500D02*
X39502Y42500D01*
X33508Y42500D02*
X33508Y38004D01*
X36505Y39502D01*
X38004Y39502D01*
X39502Y38004D01*
X39502Y35007D01*
X38004Y33508D01*
X35007Y33508D01*
X33508Y35007D01*
D11*
X344000Y739500D02*
X344000Y824500D01*
X544000Y824500D01*
X544000Y739500D01*
X344000Y739500D01*
D14*
X325500Y773300D02*
X334492Y779295D01*
X334492Y773300D02*
X325500Y779295D01*
X334492Y782508D02*
X334492Y788502D01*
X334492Y782508D02*
X328498Y788502D01*
X326999Y788502D01*
X325500Y787004D01*
X325500Y784007D01*
X326999Y782508D01*
D11*
X45000Y824500D02*
X45000Y739500D01*
X45000Y824500D02*
X295000Y824500D01*
X295000Y739500D01*
X45000Y739500D01*
D14*
X26500Y773300D02*
X35492Y779295D01*
X35492Y773300D02*
X26500Y779295D01*
X29498Y782508D02*
X26500Y785505D01*
X35492Y785505D01*
X35492Y782508D02*
X35492Y788502D01*
D11*
X195000Y80500D02*
X195000Y-4500D01*
X195000Y80500D02*
X295000Y80500D01*
X295000Y-4500D01*
X195000Y-4500D01*
D14*
X174300Y35007D02*
X174300Y41001D01*
X175799Y42500D01*
X178796Y42500D01*
X180295Y41001D01*
X180295Y35007D01*
X178796Y33508D01*
X175799Y33508D01*
X174300Y35007D01*
X177297Y36505D02*
X180295Y33508D01*
X186505Y41001D02*
X189502Y42500D01*
X186505Y41001D02*
X183508Y38004D01*
X183508Y35007D01*
X185007Y33508D01*
X188004Y33508D01*
X189502Y35007D01*
X189502Y36505D01*
X188004Y38004D01*
X183508Y38004D01*
D11*
X345000Y80500D02*
X345000Y-4500D01*
X345000Y80500D02*
X445000Y80500D01*
X445000Y-4500D01*
X345000Y-4500D01*
D14*
X323300Y35007D02*
X323300Y41001D01*
X324799Y42500D01*
X327796Y42500D01*
X329295Y41001D01*
X329295Y35007D01*
X327796Y33508D01*
X324799Y33508D01*
X323300Y35007D01*
X326297Y36505D02*
X329295Y33508D01*
X332508Y42500D02*
X338502Y42500D01*
X338502Y41001D01*
X332508Y35007D01*
X332508Y33508D01*
D11*
X495000Y-4500D02*
X495000Y80500D01*
X595000Y80500D01*
X595000Y-4500D01*
X495000Y-4500D01*
D14*
X473300Y35007D02*
X473300Y41001D01*
X474799Y42500D01*
X477796Y42500D01*
X479295Y41001D01*
X479295Y35007D01*
X477796Y33508D01*
X474799Y33508D01*
X473300Y35007D01*
X476297Y36505D02*
X479295Y33508D01*
X482508Y41001D02*
X484007Y42500D01*
X487004Y42500D01*
X488502Y41001D01*
X488502Y39502D01*
X487004Y38004D01*
X488502Y36505D01*
X488502Y35007D01*
X487004Y33508D01*
X484007Y33508D01*
X482508Y35007D01*
X482508Y36505D01*
X484007Y38004D01*
X482508Y39502D01*
X482508Y41001D01*
X484007Y38004D02*
X487004Y38004D01*
D17*
X228400Y508230D02*
X228400Y510770D01*
D14*
X221192Y504740D02*
X212200Y504740D01*
X212200Y509236D01*
X213699Y510735D01*
X216696Y510735D01*
X218195Y509236D01*
X218195Y504740D01*
X218195Y507737D02*
X221192Y510735D01*
X219693Y513948D02*
X221192Y515447D01*
X221192Y518444D01*
X219693Y519942D01*
X213699Y519942D01*
X212200Y518444D01*
X212200Y515447D01*
X213699Y513948D01*
X215198Y513948D01*
X216696Y515447D01*
X216696Y519942D01*
D17*
X203000Y510770D02*
X203000Y508230D01*
D14*
X195792Y504696D02*
X186800Y504696D01*
X186800Y509192D01*
X188299Y510691D01*
X191296Y510691D01*
X192795Y509192D01*
X192795Y504696D01*
X192795Y507693D02*
X195792Y510691D01*
X189798Y513904D02*
X186800Y516901D01*
X195792Y516901D01*
X195792Y513904D02*
X195792Y519899D01*
X194293Y523112D02*
X188299Y523112D01*
X186800Y524611D01*
X186800Y527608D01*
X188299Y529106D01*
X194293Y529106D01*
X195792Y527608D01*
X195792Y524611D01*
X194293Y523112D01*
X188299Y529106D01*
D17*
X177600Y510770D02*
X177600Y508230D01*
D14*
X170392Y504696D02*
X161400Y504696D01*
X161400Y509192D01*
X162899Y510691D01*
X165896Y510691D01*
X167395Y509192D01*
X167395Y504696D01*
X167395Y507693D02*
X170392Y510691D01*
X164398Y513904D02*
X161400Y516901D01*
X170392Y516901D01*
X170392Y513904D02*
X170392Y519899D01*
X164398Y523112D02*
X161400Y526109D01*
X170392Y526109D01*
X170392Y523112D02*
X170392Y529106D01*
D17*
X126800Y510770D02*
X126800Y508230D01*
D14*
X119592Y504696D02*
X110600Y504696D01*
X110600Y509192D01*
X112099Y510691D01*
X115096Y510691D01*
X116595Y509192D01*
X116595Y504696D01*
X116595Y507693D02*
X119592Y510691D01*
X113598Y513904D02*
X110600Y516901D01*
X119592Y516901D01*
X119592Y513904D02*
X119592Y519899D01*
X112099Y523112D02*
X110600Y524611D01*
X110600Y527608D01*
X112099Y529106D01*
X113598Y529106D01*
X115096Y527608D01*
X115096Y526109D01*
X115096Y527608D02*
X116595Y529106D01*
X118093Y529106D01*
X119592Y527608D01*
X119592Y524611D01*
X118093Y523112D01*
D17*
X101400Y510770D02*
X101400Y508230D01*
D14*
X94192Y504696D02*
X85200Y504696D01*
X85200Y509192D01*
X86699Y510691D01*
X89696Y510691D01*
X91195Y509192D01*
X91195Y504696D01*
X91195Y507693D02*
X94192Y510691D01*
X88198Y513904D02*
X85200Y516901D01*
X94192Y516901D01*
X94192Y513904D02*
X94192Y519899D01*
X94192Y527608D02*
X85200Y527608D01*
X89696Y523112D01*
X89696Y529106D01*
D17*
X76000Y510770D02*
X76000Y508230D01*
D14*
X68792Y504696D02*
X59800Y504696D01*
X59800Y509192D01*
X61299Y510691D01*
X64296Y510691D01*
X65795Y509192D01*
X65795Y504696D01*
X65795Y507693D02*
X68792Y510691D01*
X62798Y513904D02*
X59800Y516901D01*
X68792Y516901D01*
X68792Y513904D02*
X68792Y519899D01*
X59800Y523112D02*
X59800Y529106D01*
X59800Y523112D02*
X64296Y523112D01*
X62798Y526109D01*
X62798Y527608D01*
X64296Y529106D01*
X67293Y529106D01*
X68792Y527608D01*
X68792Y524611D01*
X67293Y523112D01*
D17*
X50600Y510770D02*
X50600Y508230D01*
D14*
X43392Y504696D02*
X34400Y504696D01*
X34400Y509192D01*
X35899Y510691D01*
X38896Y510691D01*
X40395Y509192D01*
X40395Y504696D01*
X40395Y507693D02*
X43392Y510691D01*
X37398Y513904D02*
X34400Y516901D01*
X43392Y516901D01*
X43392Y513904D02*
X43392Y519899D01*
X35899Y526109D02*
X34400Y529106D01*
X35899Y526109D02*
X38896Y523112D01*
X41893Y523112D01*
X43392Y524611D01*
X43392Y527608D01*
X41893Y529106D01*
X40395Y529106D01*
X38896Y527608D01*
X38896Y523112D01*
D17*
X152200Y510770D02*
X152200Y508230D01*
D14*
X144992Y504696D02*
X136000Y504696D01*
X136000Y509192D01*
X137499Y510691D01*
X140496Y510691D01*
X141995Y509192D01*
X141995Y504696D01*
X141995Y507693D02*
X144992Y510691D01*
X138998Y513904D02*
X136000Y516901D01*
X144992Y516901D01*
X144992Y513904D02*
X144992Y519899D01*
X144992Y523112D02*
X144992Y529106D01*
X144992Y523112D02*
X138998Y529106D01*
X137499Y529106D01*
X136000Y527608D01*
X136000Y524611D01*
X137499Y523112D01*
D17*
X316030Y386000D02*
X318570Y386000D01*
D14*
X267496Y381508D02*
X267496Y390500D01*
X271992Y390500D01*
X273491Y389001D01*
X273491Y386004D01*
X271992Y384505D01*
X267496Y384505D01*
X270493Y384505D02*
X273491Y381508D01*
X276704Y387502D02*
X279701Y390500D01*
X279701Y381508D01*
X276704Y381508D02*
X282699Y381508D01*
X285912Y383007D02*
X287411Y381508D01*
X290408Y381508D01*
X291906Y383007D01*
X291906Y389001D01*
X290408Y390500D01*
X287411Y390500D01*
X285912Y389001D01*
X285912Y387502D01*
X287411Y386004D01*
X291906Y386004D01*
D17*
X366830Y386000D02*
X369370Y386000D01*
D14*
X392796Y381508D02*
X392796Y390500D01*
X397292Y390500D01*
X398791Y389001D01*
X398791Y386004D01*
X397292Y384505D01*
X392796Y384505D01*
X395793Y384505D02*
X398791Y381508D01*
X402004Y381508D02*
X407998Y381508D01*
X402004Y381508D02*
X407998Y387502D01*
X407998Y389001D01*
X406500Y390500D01*
X403503Y390500D01*
X402004Y389001D01*
X411212Y390500D02*
X417206Y390500D01*
X417206Y389001D01*
X411212Y383007D01*
X411212Y381508D01*
D13*
X550500Y824500D02*
X636500Y824500D01*
X636500Y717500D01*
X550500Y717500D01*
X550500Y824500D01*
D14*
X584800Y709500D02*
X584800Y700508D01*
X584800Y709500D02*
X589296Y709500D01*
X590795Y708001D01*
X590795Y705004D01*
X589296Y703505D01*
X584800Y703505D01*
X594008Y706502D02*
X597005Y709500D01*
X597005Y700508D01*
X594008Y700508D02*
X600002Y700508D01*
D17*
X380800Y511270D02*
X380800Y508730D01*
D14*
X372592Y506196D02*
X363600Y506196D01*
X363600Y510692D01*
X365099Y512191D01*
X368096Y512191D01*
X369595Y510692D01*
X369595Y506196D01*
X369595Y509193D02*
X372592Y512191D01*
X372592Y515404D02*
X372592Y521398D01*
X372592Y515404D02*
X366598Y521398D01*
X365099Y521398D01*
X363600Y519900D01*
X363600Y516903D01*
X365099Y515404D01*
X365099Y524612D02*
X363600Y526110D01*
X363600Y529108D01*
X365099Y530606D01*
X366598Y530606D01*
X368096Y529108D01*
X368096Y527609D01*
X368096Y529108D02*
X369595Y530606D01*
X371093Y530606D01*
X372592Y529108D01*
X372592Y526110D01*
X371093Y524612D01*
D17*
X355400Y511270D02*
X355400Y508730D01*
D14*
X347292Y506196D02*
X338300Y506196D01*
X338300Y510692D01*
X339799Y512191D01*
X342796Y512191D01*
X344295Y510692D01*
X344295Y506196D01*
X344295Y509193D02*
X347292Y512191D01*
X347292Y515404D02*
X347292Y521399D01*
X341298Y521399D02*
X347292Y515404D01*
X341298Y521399D02*
X339799Y521399D01*
X338300Y519900D01*
X338300Y516903D01*
X339799Y515404D01*
X338300Y529108D02*
X347292Y529108D01*
X342796Y524612D02*
X338300Y529108D01*
X342796Y530606D02*
X342796Y524612D01*
D17*
X330000Y511270D02*
X330000Y508730D01*
D14*
X321992Y506196D02*
X313000Y506196D01*
X313000Y510692D01*
X314499Y512191D01*
X317496Y512191D01*
X318995Y510692D01*
X318995Y506196D01*
X318995Y509193D02*
X321992Y512191D01*
X321992Y515404D02*
X321992Y521399D01*
X315998Y521399D02*
X321992Y515404D01*
X315998Y521399D02*
X314499Y521399D01*
X313000Y519900D01*
X313000Y516903D01*
X314499Y515404D01*
X313000Y524612D02*
X313000Y530606D01*
X313000Y524612D02*
X317496Y524612D01*
X315998Y527609D01*
X315998Y529108D01*
X317496Y530606D01*
X320493Y530606D01*
X321992Y529108D01*
X321992Y526111D01*
X320493Y524612D01*
D15*
X311600Y593790D02*
X108400Y593790D01*
X108400Y652210D02*
X311600Y652210D01*
X108400Y652210D02*
X108400Y593790D01*
X311600Y593790D02*
X311600Y612840D01*
X311600Y633160D02*
X311600Y652210D01*
X311600Y633160D02*
X311353Y633157D01*
X311105Y633148D01*
X310858Y633133D01*
X310612Y633112D01*
X310366Y633085D01*
X310121Y633052D01*
X309876Y633013D01*
X309633Y632968D01*
X309391Y632917D01*
X309150Y632860D01*
X308911Y632798D01*
X308673Y632729D01*
X308437Y632655D01*
X308203Y632575D01*
X307971Y632490D01*
X307741Y632398D01*
X307513Y632302D01*
X307288Y632199D01*
X307065Y632092D01*
X306845Y631978D01*
X306628Y631860D01*
X306413Y631736D01*
X306202Y631607D01*
X305994Y631473D01*
X305789Y631334D01*
X305588Y631190D01*
X305390Y631042D01*
X305196Y630888D01*
X305006Y630730D01*
X304820Y630567D01*
X304638Y630400D01*
X304460Y630228D01*
X304286Y630052D01*
X304116Y629872D01*
X303951Y629687D01*
X303791Y629499D01*
X303635Y629307D01*
X303483Y629111D01*
X303337Y628912D01*
X303195Y628709D01*
X303059Y628502D01*
X302927Y628293D01*
X302801Y628080D01*
X302680Y627864D01*
X302564Y627646D01*
X302454Y627424D01*
X302349Y627200D01*
X302249Y626974D01*
X302155Y626745D01*
X302067Y626514D01*
X301984Y626280D01*
X301907Y626045D01*
X301836Y625808D01*
X301770Y625570D01*
X301711Y625330D01*
X301657Y625088D01*
X301609Y624845D01*
X301567Y624602D01*
X301531Y624357D01*
X301501Y624111D01*
X301477Y623865D01*
X301459Y623618D01*
X301447Y623371D01*
X301441Y623124D01*
X301441Y622876D01*
X301447Y622629D01*
X301459Y622382D01*
X301477Y622135D01*
X301501Y621889D01*
X301531Y621643D01*
X301567Y621398D01*
X301609Y621155D01*
X301657Y620912D01*
X301711Y620670D01*
X301770Y620430D01*
X301836Y620192D01*
X301907Y619955D01*
X301984Y619720D01*
X302067Y619486D01*
X302155Y619255D01*
X302249Y619026D01*
X302349Y618800D01*
X302454Y618576D01*
X302564Y618354D01*
X302680Y618136D01*
X302801Y617920D01*
X302927Y617707D01*
X303059Y617498D01*
X303195Y617291D01*
X303337Y617088D01*
X303483Y616889D01*
X303635Y616693D01*
X303791Y616501D01*
X303951Y616313D01*
X304116Y616128D01*
X304286Y615948D01*
X304460Y615772D01*
X304638Y615600D01*
X304820Y615433D01*
X305006Y615270D01*
X305196Y615112D01*
X305390Y614958D01*
X305588Y614810D01*
X305789Y614666D01*
X305994Y614527D01*
X306202Y614393D01*
X306413Y614264D01*
X306628Y614140D01*
X306845Y614022D01*
X307065Y613908D01*
X307288Y613801D01*
X307513Y613698D01*
X307741Y613602D01*
X307971Y613510D01*
X308203Y613425D01*
X308437Y613345D01*
X308673Y613271D01*
X308911Y613202D01*
X309150Y613140D01*
X309391Y613083D01*
X309633Y613032D01*
X309876Y612987D01*
X310121Y612948D01*
X310366Y612915D01*
X310612Y612888D01*
X310858Y612867D01*
X311105Y612852D01*
X311353Y612843D01*
X311600Y612840D01*
D14*
X95500Y614192D02*
X95500Y611195D01*
X96999Y609696D01*
X102993Y609696D01*
X104492Y611195D01*
X104492Y614192D01*
X102993Y615691D01*
X96999Y615691D01*
X95500Y614192D01*
X95500Y618904D02*
X104492Y618904D01*
X101495Y618904D02*
X95500Y624898D01*
X99996Y620403D02*
X104492Y624898D01*
X98498Y628112D02*
X95500Y631109D01*
X104492Y631109D01*
X104492Y628112D02*
X104492Y634106D01*
D15*
X332400Y593790D02*
X535600Y593790D01*
X535600Y652210D02*
X332400Y652210D01*
X332400Y593790D01*
X535600Y593790D02*
X535600Y612840D01*
X535600Y633160D02*
X535600Y652210D01*
X535600Y633160D02*
X535353Y633157D01*
X535105Y633148D01*
X534858Y633133D01*
X534612Y633112D01*
X534366Y633085D01*
X534121Y633052D01*
X533876Y633013D01*
X533633Y632968D01*
X533391Y632917D01*
X533150Y632860D01*
X532911Y632798D01*
X532673Y632729D01*
X532437Y632655D01*
X532203Y632575D01*
X531971Y632490D01*
X531741Y632398D01*
X531513Y632302D01*
X531288Y632199D01*
X531065Y632092D01*
X530845Y631978D01*
X530628Y631860D01*
X530413Y631736D01*
X530202Y631607D01*
X529994Y631473D01*
X529789Y631334D01*
X529588Y631190D01*
X529390Y631042D01*
X529196Y630888D01*
X529006Y630730D01*
X528820Y630567D01*
X528638Y630400D01*
X528460Y630228D01*
X528286Y630052D01*
X528116Y629872D01*
X527951Y629687D01*
X527791Y629499D01*
X527635Y629307D01*
X527483Y629111D01*
X527337Y628912D01*
X527195Y628709D01*
X527059Y628502D01*
X526927Y628293D01*
X526801Y628080D01*
X526680Y627864D01*
X526564Y627646D01*
X526454Y627424D01*
X526349Y627200D01*
X526249Y626974D01*
X526155Y626745D01*
X526067Y626514D01*
X525984Y626280D01*
X525907Y626045D01*
X525836Y625808D01*
X525770Y625570D01*
X525711Y625330D01*
X525657Y625088D01*
X525609Y624845D01*
X525567Y624602D01*
X525531Y624357D01*
X525501Y624111D01*
X525477Y623865D01*
X525459Y623618D01*
X525447Y623371D01*
X525441Y623124D01*
X525441Y622876D01*
X525447Y622629D01*
X525459Y622382D01*
X525477Y622135D01*
X525501Y621889D01*
X525531Y621643D01*
X525567Y621398D01*
X525609Y621155D01*
X525657Y620912D01*
X525711Y620670D01*
X525770Y620430D01*
X525836Y620192D01*
X525907Y619955D01*
X525984Y619720D01*
X526067Y619486D01*
X526155Y619255D01*
X526249Y619026D01*
X526349Y618800D01*
X526454Y618576D01*
X526564Y618354D01*
X526680Y618136D01*
X526801Y617920D01*
X526927Y617707D01*
X527059Y617498D01*
X527195Y617291D01*
X527337Y617088D01*
X527483Y616889D01*
X527635Y616693D01*
X527791Y616501D01*
X527951Y616313D01*
X528116Y616128D01*
X528286Y615948D01*
X528460Y615772D01*
X528638Y615600D01*
X528820Y615433D01*
X529006Y615270D01*
X529196Y615112D01*
X529390Y614958D01*
X529588Y614810D01*
X529789Y614666D01*
X529994Y614527D01*
X530202Y614393D01*
X530413Y614264D01*
X530628Y614140D01*
X530845Y614022D01*
X531065Y613908D01*
X531288Y613801D01*
X531513Y613698D01*
X531741Y613602D01*
X531971Y613510D01*
X532203Y613425D01*
X532437Y613345D01*
X532673Y613271D01*
X532911Y613202D01*
X533150Y613140D01*
X533391Y613083D01*
X533633Y613032D01*
X533876Y612987D01*
X534121Y612948D01*
X534366Y612915D01*
X534612Y612888D01*
X534858Y612867D01*
X535105Y612852D01*
X535353Y612843D01*
X535600Y612840D01*
D14*
X319500Y614192D02*
X319500Y611195D01*
X320999Y609696D01*
X326993Y609696D01*
X328492Y611195D01*
X328492Y614192D01*
X326993Y615691D01*
X320999Y615691D01*
X319500Y614192D01*
X319500Y618904D02*
X328492Y618904D01*
X325495Y618904D02*
X319500Y624898D01*
X323996Y620403D02*
X328492Y624898D01*
X328492Y628112D02*
X328492Y634106D01*
X328492Y628112D02*
X322498Y634106D01*
X320999Y634106D01*
X319500Y632608D01*
X319500Y629610D01*
X320999Y628112D01*
D17*
X286000Y526570D02*
X286000Y524030D01*
D14*
X275592Y502696D02*
X266600Y502696D01*
X266600Y507192D01*
X268099Y508691D01*
X271096Y508691D01*
X272595Y507192D01*
X272595Y502696D01*
X272595Y505693D02*
X275592Y508691D01*
X275592Y511904D02*
X275592Y517898D01*
X275592Y511904D02*
X269598Y517898D01*
X268099Y517898D01*
X266600Y516400D01*
X266600Y513403D01*
X268099Y511904D01*
X274093Y521112D02*
X275592Y522610D01*
X275592Y525608D01*
X274093Y527106D01*
X268099Y527106D01*
X266600Y525608D01*
X266600Y522610D01*
X268099Y521112D01*
X269598Y521112D01*
X271096Y522610D01*
X271096Y527106D01*
D15*
X291900Y352540D02*
X294440Y350000D01*
X291900Y347460D01*
X314760Y350000D02*
X317300Y352540D01*
X314760Y350000D02*
X317300Y347460D01*
X317300Y327140D01*
X314760Y324600D01*
X317300Y372860D02*
X314760Y375400D01*
X317300Y372860D02*
X317300Y352540D01*
X314760Y375400D02*
X294440Y375400D01*
X291900Y372860D01*
X291900Y352540D01*
X291900Y347460D02*
X291900Y327140D01*
X294440Y324600D01*
X314760Y324600D01*
D14*
X329993Y336696D02*
X331492Y338195D01*
X331492Y339693D01*
X329993Y341192D01*
X322500Y341192D01*
X322500Y339693D02*
X322500Y342691D01*
X322500Y345904D02*
X331492Y345904D01*
X322500Y345904D02*
X322500Y350400D01*
X323999Y351899D01*
X326996Y351899D01*
X328495Y350400D01*
X328495Y345904D01*
X325498Y355112D02*
X322500Y358109D01*
X331492Y358109D01*
X331492Y355112D02*
X331492Y361106D01*
D15*
X368100Y352540D02*
X370640Y350000D01*
X368100Y347460D01*
X390960Y350000D02*
X393500Y352540D01*
X390960Y350000D02*
X393500Y347460D01*
X393500Y327140D01*
X390960Y324600D01*
X393500Y372860D02*
X390960Y375400D01*
X393500Y372860D02*
X393500Y352540D01*
X390960Y375400D02*
X370640Y375400D01*
X368100Y372860D01*
X368100Y352540D01*
X368100Y347460D02*
X368100Y327140D01*
X370640Y324600D01*
X390960Y324600D01*
D14*
X362292Y338195D02*
X360793Y336696D01*
X362292Y338195D02*
X362292Y339693D01*
X360793Y341192D01*
X353300Y341192D01*
X353300Y339693D02*
X353300Y342691D01*
X353300Y345904D02*
X362292Y345904D01*
X353300Y345904D02*
X353300Y350400D01*
X354799Y351899D01*
X357796Y351899D01*
X359295Y350400D01*
X359295Y345904D01*
X362292Y355112D02*
X362292Y361106D01*
X362292Y355112D02*
X356298Y361106D01*
X354799Y361106D01*
X353300Y359608D01*
X353300Y356611D01*
X354799Y355112D01*
D15*
X342460Y534400D02*
X345000Y536940D01*
X347540Y534400D01*
X345000Y557260D02*
X342460Y559800D01*
X345000Y557260D02*
X347540Y559800D01*
X367860Y559800D01*
X370400Y557260D01*
X322140Y559800D02*
X319600Y557260D01*
X322140Y559800D02*
X342460Y559800D01*
X319600Y557260D02*
X319600Y536940D01*
X322140Y534400D01*
X342460Y534400D01*
X347540Y534400D02*
X367860Y534400D01*
X370400Y536940D01*
X370400Y557260D01*
D14*
X372884Y554607D02*
X374383Y553108D01*
X375882Y553108D01*
X377380Y554607D01*
X377380Y562100D01*
X375882Y562100D02*
X378879Y562100D01*
X382092Y562100D02*
X382092Y553108D01*
X382092Y562100D02*
X386588Y562100D01*
X388087Y560601D01*
X388087Y557604D01*
X386588Y556105D01*
X382092Y556105D01*
X391300Y560601D02*
X392799Y562100D01*
X395796Y562100D01*
X397295Y560601D01*
X397295Y559102D01*
X395796Y557604D01*
X394297Y557604D01*
X395796Y557604D02*
X397295Y556105D01*
X397295Y554607D01*
X395796Y553108D01*
X392799Y553108D01*
X391300Y554607D01*
D17*
X606230Y535300D02*
X608770Y535300D01*
D14*
X598396Y523300D02*
X598396Y514308D01*
X598396Y523300D02*
X602892Y523300D01*
X604391Y521801D01*
X604391Y518804D01*
X602892Y517305D01*
X598396Y517305D01*
X601393Y517305D02*
X604391Y514308D01*
X607604Y520302D02*
X610601Y523300D01*
X610601Y514308D01*
X607604Y514308D02*
X613598Y514308D01*
X616812Y521801D02*
X618310Y523300D01*
X621308Y523300D01*
X622806Y521801D01*
X622806Y520302D01*
X621308Y518804D01*
X622806Y517305D01*
X622806Y515807D01*
X621308Y514308D01*
X618310Y514308D01*
X616812Y515807D01*
X616812Y517305D01*
X618310Y518804D01*
X616812Y520302D01*
X616812Y521801D01*
X618310Y518804D02*
X621308Y518804D01*
X616000Y552500D02*
X599000Y552500D01*
X599000Y563500D02*
X616000Y563500D01*
D20*
X611000Y558000D03*
D14*
X572092Y553508D02*
X572092Y562500D01*
X572092Y553508D02*
X576588Y553508D01*
X578087Y555007D01*
X578087Y561001D01*
X576588Y562500D01*
X572092Y562500D01*
X581300Y555007D02*
X582799Y553508D01*
X585796Y553508D01*
X587295Y555007D01*
X587295Y561001D01*
X585796Y562500D01*
X582799Y562500D01*
X581300Y561001D01*
X581300Y559502D01*
X582799Y558004D01*
X587295Y558004D01*
D15*
X562811Y507098D02*
X562272Y506854D01*
X561739Y506596D01*
X561213Y506326D01*
X560694Y506043D01*
X560182Y505747D01*
X559677Y505439D01*
X559179Y505118D01*
X558690Y504785D01*
X558209Y504441D01*
X557737Y504085D01*
X557274Y503717D01*
X556819Y503338D01*
X556375Y502948D01*
X555939Y502547D01*
X555514Y502136D01*
X555099Y501714D01*
X554695Y501283D01*
X554301Y500841D01*
X553918Y500390D01*
X553546Y499930D01*
X553186Y499461D01*
X552837Y498983D01*
X552501Y498497D01*
X552176Y498002D01*
X551863Y497500D01*
X551563Y496990D01*
X551275Y496473D01*
X551000Y495949D01*
X550738Y495419D01*
X550489Y494882D01*
X550254Y494340D01*
X550032Y493792D01*
X549823Y493238D01*
X549628Y492680D01*
X549446Y492116D01*
X549279Y491549D01*
X549125Y490978D01*
X548986Y490403D01*
X548860Y489825D01*
X548749Y489244D01*
X548652Y488660D01*
X548570Y488074D01*
X548501Y487487D01*
X548448Y486898D01*
X548408Y486307D01*
X548384Y485716D01*
X548373Y485125D01*
X548378Y484533D01*
X548396Y483942D01*
X548429Y483351D01*
X548477Y482762D01*
X548539Y482173D01*
X548616Y481587D01*
X548706Y481002D01*
X548812Y480420D01*
X548931Y479841D01*
X549065Y479264D01*
X549212Y478691D01*
X549374Y478122D01*
X549549Y477557D01*
X549739Y476997D01*
X549942Y476441D01*
X550158Y475891D01*
X550388Y475346D01*
X550632Y474807D01*
X550888Y474273D01*
X551158Y473747D01*
X551440Y473227D01*
X551735Y472714D01*
X552042Y472209D01*
X552362Y471711D01*
X552694Y471221D01*
X553038Y470740D01*
X553393Y470267D01*
X553760Y469803D01*
X554138Y469348D01*
X554527Y468902D01*
X554927Y468467D01*
X555338Y468041D01*
X555759Y467625D01*
X556190Y467220D01*
X588810Y467220D02*
X589241Y467625D01*
X589662Y468041D01*
X590073Y468467D01*
X590473Y468902D01*
X590862Y469348D01*
X591240Y469803D01*
X591607Y470267D01*
X591962Y470740D01*
X592306Y471221D01*
X592638Y471711D01*
X592958Y472209D01*
X593265Y472714D01*
X593560Y473227D01*
X593842Y473747D01*
X594112Y474273D01*
X594368Y474807D01*
X594612Y475346D01*
X594842Y475891D01*
X595058Y476441D01*
X595261Y476997D01*
X595451Y477557D01*
X595626Y478122D01*
X595788Y478691D01*
X595935Y479264D01*
X596069Y479841D01*
X596188Y480420D01*
X596294Y481002D01*
X596384Y481587D01*
X596461Y482173D01*
X596523Y482762D01*
X596571Y483351D01*
X596604Y483942D01*
X596622Y484533D01*
X596627Y485125D01*
X596616Y485716D01*
X596592Y486307D01*
X596552Y486898D01*
X596499Y487487D01*
X596430Y488074D01*
X596348Y488660D01*
X596251Y489244D01*
X596140Y489825D01*
X596014Y490403D01*
X595875Y490978D01*
X595721Y491549D01*
X595554Y492116D01*
X595372Y492680D01*
X595177Y493238D01*
X594968Y493792D01*
X594746Y494340D01*
X594511Y494882D01*
X594262Y495419D01*
X594000Y495949D01*
X593725Y496473D01*
X593437Y496990D01*
X593137Y497500D01*
X592824Y498002D01*
X592499Y498497D01*
X592163Y498983D01*
X591814Y499461D01*
X591454Y499930D01*
X591082Y500390D01*
X590699Y500841D01*
X590305Y501283D01*
X589901Y501714D01*
X589486Y502136D01*
X589061Y502547D01*
X588625Y502948D01*
X588181Y503338D01*
X587726Y503717D01*
X587263Y504085D01*
X586791Y504441D01*
X586310Y504785D01*
X585821Y505118D01*
X585323Y505439D01*
X584818Y505747D01*
X584306Y506043D01*
X583787Y506326D01*
X583261Y506596D01*
X582728Y506854D01*
X582189Y507098D01*
X588810Y467220D02*
X556190Y467220D01*
D14*
X563800Y461001D02*
X563800Y455007D01*
X563800Y461001D02*
X565299Y462500D01*
X568296Y462500D01*
X569795Y461001D01*
X569795Y455007D01*
X568296Y453508D01*
X565299Y453508D01*
X563800Y455007D01*
X566797Y456505D02*
X569795Y453508D01*
X573008Y459502D02*
X576005Y462500D01*
X576005Y453508D01*
X573008Y453508D02*
X579002Y453508D01*
D11*
X529500Y327300D02*
X409500Y327300D01*
X529500Y327300D02*
X529500Y347300D01*
X409500Y347300D01*
X409500Y327300D01*
D14*
X534008Y332808D02*
X534008Y341800D01*
X538504Y341800D01*
X540002Y340301D01*
X540002Y337304D01*
X538504Y335805D01*
X534008Y335805D01*
X543216Y332808D02*
X549210Y332808D01*
X543216Y332808D02*
X549210Y338802D01*
X549210Y340301D01*
X547712Y341800D01*
X544714Y341800D01*
X543216Y340301D01*
M02*
