%
M48
M72
T01C0.01772
T02C0.01969
T03C0.02362
T04C0.03346
T05C0.02756
T06C0.04331
T07C0.05118
T08C0.08661
T09C0.10827
T10C0.01181
%
T01
X48269Y281063
X58269Y281063
X70316Y281063
X80316Y281063
X92363Y281063
X102363Y281063
X113623Y281063
X123623Y281063
X135670Y281063
X145670Y281063
X156930Y281063
X166930Y281063
X178190Y281063
X188190Y281063
X200237Y281063
X210237Y281063
X48269Y272441
X58269Y272441
X70316Y272441
X80316Y272441
X92363Y272441
X102363Y272441
X113623Y272441
X123623Y272441
X135670Y272441
X145670Y272441
X156930Y272441
X166930Y272441
X178190Y272441
X188190Y272441
X200237Y272441
X210237Y272441
X48269Y242441
X58269Y242441
X70316Y242441
X80316Y242441
X92363Y242441
X102363Y242441
X113623Y242441
X123623Y242441
X135670Y242441
X145670Y242441
X156930Y242441
X166930Y242441
X178190Y242441
X188190Y242441
X200237Y242441
X210237Y242441
X133780Y99764
X120001Y99764
X120001Y81260
X120001Y69843
X120001Y51339
X133780Y51339
X133780Y69843
X133780Y81260
T02
X11221Y129882
X21221Y129882
X31221Y129882
X41221Y129882
X51221Y129882
X61221Y129882
X71221Y129882
X81221Y129882
X91221Y129882
X11221Y159882
X21221Y159882
X31221Y159882
X41221Y159882
X51221Y159882
X61221Y159882
X71221Y159882
X81221Y159882
X91221Y159882
X21221Y199370
X31221Y199370
X41221Y199370
X51221Y199370
X61221Y199370
X71221Y199370
X81221Y199370
X91221Y199370
X101221Y199370
X111221Y199370
X121221Y199370
X131221Y199370
X141221Y199370
X151221Y199370
X21221Y169370
X31221Y169370
X81221Y169370
X91221Y169370
X41221Y169370
X51221Y169370
X61221Y169370
X71221Y169370
X101221Y169370
X111221Y169370
X121221Y169370
X131221Y169370
X141221Y169370
X151221Y169370
X58269Y287087
X80316Y287087
X102363Y287087
X123623Y287087
X145670Y287087
X166930Y287087
X188190Y287087
X210237Y287087
X58269Y297087
X80316Y297087
X102363Y297087
X145670Y297087
X166930Y297087
X123623Y297087
X188190Y297087
X210237Y297087
X21221Y207362
X31221Y207362
X41221Y207362
X51221Y207362
X61221Y207362
X71221Y207362
X81221Y207362
X91221Y207362
X41221Y217362
X21221Y217362
X31221Y217362
X51221Y217362
X61221Y217362
X71221Y217362
X81221Y217362
X91221Y217362
X131221Y207126
X141221Y207126
X151221Y207126
X164174Y207126
X131221Y217126
X141221Y217126
X151221Y217126
X164174Y217126
X157796Y202362
X157796Y212362
X164174Y202205
X164174Y192205
X229174Y203110
X239174Y203110
X229174Y195118
X239174Y195118
X121103Y158976
X131103Y158976
X141221Y158976
X151221Y158976
X111412Y225276
X121412Y225276
T03
X48269Y287087
X70316Y287087
X92363Y287087
X113623Y287087
X135670Y287087
X156930Y287087
X178190Y287087
X200237Y287087
X48269Y297087
X70316Y297087
X92363Y297087
X113623Y297087
X135670Y297087
X156930Y297087
X178190Y297087
X200237Y297087
X11221Y121024
X21221Y121024
X31221Y121024
X41221Y121024
X51221Y121024
X21221Y225236
X31221Y225236
X41221Y225236
X51221Y225236
X61221Y225236
X71221Y225236
X81221Y225236
X91221Y225236
X200276Y226339
X190276Y226339
X180276Y226339
X101221Y225236
X180276Y196339
X190276Y196339
X200276Y196339
X224174Y178819
X229174Y186319
X234174Y178819
X234174Y216299
X229174Y223799
X224174Y216299
T04
X47166Y69843
X47166Y99764
X74725Y69843
X74725Y99764
X179056Y81260
X179056Y51339
X206615Y51339
X206615Y81260
T05
X227087Y298189
X227087Y306063
X234961Y306063
X234961Y298189
X242835Y298189
X242835Y306063
T06
X159765Y227520
X134174Y227520
T07
X28465Y26732
X48150Y26732
X87520Y26732
X107206Y26732
X147363Y26732
X167048Y26732
X206418Y26732
X226103Y26732
X166261Y319646
X185946Y319646
X205631Y319646
X146576Y319646
X107599Y319646
X87914Y319646
X68229Y319646
X48544Y319646
X28859Y319646
T08
X28859Y244449
X28859Y101929
X225709Y101929
X225709Y244449
T09
X225709Y271614
X28859Y74764
T10
X26280Y212244
X36280Y212244
X46202Y212244
X55887Y212244
X57319Y114764
X70119Y114764
X79725Y114764
X90198Y114764
X99883Y114764
X107087Y148406
X100080Y148406
X120316Y215315
X120316Y219921
X127206Y220709
X5237Y115118
X14671Y136634
X19395Y141398
X31285Y151004
X46206Y135217
X57319Y151004
X71221Y137697
X83352Y151004
X96565Y130807
X31285Y115118
X5237Y151004
X5237Y186890
X66064Y209646
X94351Y212244
X96694Y229764
X107914Y229764
X144736Y229844
X213702Y231457
X194268Y269449
X172771Y269449
X151374Y269449
X129907Y269449
X119277Y302638
X108086Y309409
X97968Y302638
X86856Y309606
X75793Y302638
X64799Y309921
X54012Y302638
X64258Y292087
X86344Y292087
X108008Y292087
X129710Y292087
X151295Y292087
X172565Y292087
X194268Y292087
X64169Y269449
X57319Y255984
X40527Y250748
X31285Y269449
X42341Y284252
X31285Y300059
X39309Y314646
X31285Y330669
X18261Y314646
X5237Y300059
X18261Y284252
X5237Y269449
X5237Y255984
X22084Y233038
X57319Y186890
X31285Y186890
X5237Y222776
X83352Y186890
X109386Y186890
X135419Y186890
X143938Y191496
X135419Y149173
X156620Y162559
X161453Y148248
X174469Y133061
X187486Y151004
X181817Y162638
X171895Y175551
X164607Y186772
X156615Y195748
X170237Y191102
X176064Y208740
X169509Y215778
X195670Y191102
X186339Y184016
X206709Y187372
X209888Y175354
X218330Y151004
X202908Y133061
X187486Y114764
X161453Y114764
X148436Y133061
X117614Y148406
X117693Y141437
X124607Y133061
X117693Y124902
X122402Y114764
X132206Y114764
X110158Y114764
X161453Y255984
X206812Y224370
X215764Y255984
X187486Y255984
X108205Y269449
X85832Y269449
X83352Y330669
X57319Y330669
X109386Y330669
X135419Y330669
X144327Y309567
X141206Y302638
X162516Y302638
X164021Y309488
X183805Y302638
X183834Y309606
X205842Y302638
X214110Y302638
X213519Y330669
X187486Y330669
X161453Y330669
X249174Y186890
X249174Y151004
X233752Y133061
X249174Y115118
X218330Y114764
X5237Y330669
X228623Y231496
X238544Y241378
X135419Y255984
X238308Y255984
X237584Y188720
X83352Y255984
X109386Y255984
M30
