G04 EAGLE Gerber RS-274X export*
G75*
%MOMM*%
%FSLAX34Y34*%
%LPD*%
%INCopper Top*%
%IPPOS*%
%AMOC8*
5,1,8,0,0,1.08239X$1,22.5*%
G01*
%ADD10C,0.000000*%
%ADD11P,1.319650X8X292.500000*%
%ADD12P,1.319650X8X202.500000*%
%ADD13C,1.676400*%
%ADD14P,1.319650X8X112.500000*%
%ADD15C,1.219200*%
%ADD16C,1.219200*%
%ADD17C,1.333500*%
%ADD18C,1.350000*%
%ADD19R,1.300000X1.500000*%
%ADD20C,1.950000*%
%ADD21P,1.319650X8X22.500000*%
%ADD22R,1.371600X1.371600*%
%ADD23C,1.371600*%
%ADD24C,1.371600*%
%ADD25R,0.800000X0.600000*%
%ADD26P,1.461226X8X22.500000*%
%ADD27C,1.200000*%
%ADD28C,0.203200*%
%ADD29C,2.540000*%
%ADD30C,1.676400*%
%ADD31P,0.659825X8X22.500000*%
%ADD32C,1.219800*%
%ADD33C,0.406400*%

G36*
X634916Y758282D02*
X634916Y758282D01*
X634918Y758301D01*
X634896Y758403D01*
X634880Y758505D01*
X634870Y758522D01*
X634866Y758542D01*
X634813Y758631D01*
X634764Y758722D01*
X634750Y758736D01*
X634740Y758753D01*
X634661Y758820D01*
X634586Y758892D01*
X634568Y758900D01*
X634553Y758913D01*
X634457Y758952D01*
X634363Y758995D01*
X634343Y758997D01*
X634325Y759005D01*
X634158Y759023D01*
X562500Y759023D01*
X562480Y759020D01*
X562461Y759022D01*
X562359Y759000D01*
X562257Y758984D01*
X562240Y758974D01*
X562220Y758970D01*
X562131Y758917D01*
X562040Y758868D01*
X562026Y758854D01*
X562009Y758844D01*
X561942Y758765D01*
X561871Y758690D01*
X561862Y758672D01*
X561849Y758657D01*
X561810Y758561D01*
X561767Y758467D01*
X561765Y758447D01*
X561757Y758429D01*
X561739Y758262D01*
X561739Y710300D01*
X561754Y710210D01*
X561761Y710119D01*
X561773Y710089D01*
X561779Y710057D01*
X561821Y709977D01*
X561857Y709893D01*
X561883Y709861D01*
X561894Y709840D01*
X561917Y709818D01*
X561962Y709762D01*
X598039Y673685D01*
X598039Y620761D01*
X5842Y620761D01*
X5822Y620758D01*
X5803Y620760D01*
X5701Y620738D01*
X5599Y620722D01*
X5582Y620712D01*
X5562Y620708D01*
X5473Y620655D01*
X5382Y620606D01*
X5368Y620592D01*
X5351Y620582D01*
X5284Y620503D01*
X5212Y620428D01*
X5204Y620410D01*
X5191Y620395D01*
X5152Y620299D01*
X5109Y620205D01*
X5107Y620185D01*
X5099Y620167D01*
X5081Y620000D01*
X5081Y265000D01*
X5084Y264980D01*
X5082Y264961D01*
X5104Y264859D01*
X5120Y264757D01*
X5130Y264740D01*
X5134Y264720D01*
X5187Y264631D01*
X5236Y264540D01*
X5250Y264526D01*
X5260Y264509D01*
X5339Y264442D01*
X5414Y264371D01*
X5432Y264362D01*
X5447Y264349D01*
X5543Y264310D01*
X5637Y264267D01*
X5657Y264265D01*
X5675Y264257D01*
X5842Y264239D01*
X634158Y264239D01*
X634178Y264242D01*
X634197Y264240D01*
X634299Y264262D01*
X634401Y264278D01*
X634418Y264288D01*
X634438Y264292D01*
X634527Y264345D01*
X634618Y264394D01*
X634632Y264408D01*
X634649Y264418D01*
X634716Y264497D01*
X634788Y264572D01*
X634796Y264590D01*
X634809Y264605D01*
X634848Y264701D01*
X634891Y264795D01*
X634893Y264815D01*
X634901Y264833D01*
X634919Y265000D01*
X634919Y758262D01*
X634916Y758282D01*
G37*
G36*
X542635Y650239D02*
X542635Y650239D01*
X542752Y650258D01*
X542870Y650276D01*
X542874Y650278D01*
X542878Y650279D01*
X542983Y650334D01*
X543088Y650389D01*
X543091Y650392D01*
X543095Y650394D01*
X543177Y650480D01*
X543260Y650565D01*
X543262Y650569D01*
X543264Y650572D01*
X543315Y650680D01*
X543366Y650787D01*
X543366Y650791D01*
X543368Y650795D01*
X543381Y650912D01*
X543396Y651031D01*
X543395Y651036D01*
X543395Y651039D01*
X543392Y651053D01*
X543370Y651197D01*
X541999Y656314D01*
X541999Y663686D01*
X543907Y670808D01*
X544659Y672110D01*
X544700Y672217D01*
X544743Y672324D01*
X544744Y672334D01*
X544746Y672340D01*
X544747Y672362D01*
X544761Y672491D01*
X544761Y814158D01*
X544758Y814178D01*
X544760Y814197D01*
X544738Y814299D01*
X544722Y814401D01*
X544712Y814418D01*
X544708Y814438D01*
X544655Y814527D01*
X544606Y814618D01*
X544592Y814632D01*
X544582Y814649D01*
X544503Y814716D01*
X544428Y814788D01*
X544410Y814796D01*
X544395Y814809D01*
X544299Y814848D01*
X544205Y814891D01*
X544185Y814893D01*
X544167Y814901D01*
X544000Y814919D01*
X5842Y814919D01*
X5822Y814916D01*
X5803Y814918D01*
X5701Y814896D01*
X5599Y814880D01*
X5582Y814870D01*
X5562Y814866D01*
X5473Y814813D01*
X5382Y814764D01*
X5368Y814750D01*
X5351Y814740D01*
X5284Y814661D01*
X5212Y814586D01*
X5204Y814568D01*
X5191Y814553D01*
X5152Y814457D01*
X5109Y814363D01*
X5107Y814343D01*
X5099Y814325D01*
X5081Y814158D01*
X5081Y651000D01*
X5084Y650980D01*
X5082Y650961D01*
X5104Y650859D01*
X5120Y650757D01*
X5130Y650740D01*
X5134Y650720D01*
X5187Y650631D01*
X5236Y650540D01*
X5250Y650526D01*
X5260Y650509D01*
X5339Y650442D01*
X5414Y650370D01*
X5432Y650362D01*
X5447Y650349D01*
X5543Y650310D01*
X5637Y650267D01*
X5657Y650265D01*
X5675Y650257D01*
X5842Y650239D01*
X542635Y650239D01*
G37*
%LPC*%
G36*
X149848Y507359D02*
X149848Y507359D01*
X148136Y509070D01*
X148136Y509071D01*
X142863Y514344D01*
X142789Y514397D01*
X142719Y514457D01*
X142689Y514469D01*
X142663Y514488D01*
X142576Y514515D01*
X142491Y514549D01*
X142450Y514553D01*
X142428Y514560D01*
X142396Y514559D01*
X142324Y514567D01*
X51266Y514567D01*
X51251Y514572D01*
X51218Y514571D01*
X51146Y514579D01*
X47443Y514579D01*
X42979Y519043D01*
X42979Y525656D01*
X42981Y525674D01*
X42981Y534432D01*
X42979Y534444D01*
X42979Y549812D01*
X44139Y552613D01*
X46283Y554757D01*
X49084Y555917D01*
X52116Y555917D01*
X53419Y555377D01*
X53533Y555350D01*
X53646Y555322D01*
X53653Y555322D01*
X53659Y555321D01*
X53775Y555332D01*
X53891Y555341D01*
X53897Y555343D01*
X53904Y555344D01*
X54011Y555392D01*
X54118Y555437D01*
X54124Y555442D01*
X54128Y555444D01*
X54142Y555456D01*
X54249Y555542D01*
X59348Y560641D01*
X85732Y560641D01*
X85822Y560655D01*
X85913Y560663D01*
X85943Y560675D01*
X85975Y560680D01*
X86056Y560723D01*
X86140Y560759D01*
X86172Y560785D01*
X86192Y560796D01*
X86215Y560819D01*
X86271Y560864D01*
X97636Y572229D01*
X97689Y572303D01*
X97749Y572373D01*
X97761Y572403D01*
X97780Y572429D01*
X97807Y572516D01*
X97841Y572601D01*
X97845Y572642D01*
X97852Y572664D01*
X97851Y572696D01*
X97859Y572768D01*
X97859Y599252D01*
X111548Y612941D01*
X473052Y612941D01*
X493251Y592742D01*
X493325Y592689D01*
X493395Y592629D01*
X493425Y592617D01*
X493451Y592598D01*
X493538Y592571D01*
X493623Y592537D01*
X493664Y592533D01*
X493686Y592526D01*
X493718Y592527D01*
X493790Y592519D01*
X495828Y592519D01*
X495840Y592521D01*
X499016Y592521D01*
X501817Y591361D01*
X503961Y589217D01*
X505121Y586416D01*
X505121Y571192D01*
X503961Y568391D01*
X501817Y566247D01*
X499016Y565087D01*
X495888Y565087D01*
X495870Y565091D01*
X495851Y565090D01*
X495818Y565093D01*
X473782Y565093D01*
X473745Y565087D01*
X470488Y565087D01*
X470470Y565091D01*
X470451Y565090D01*
X470418Y565093D01*
X448382Y565093D01*
X448345Y565087D01*
X445088Y565087D01*
X445070Y565091D01*
X445051Y565090D01*
X445018Y565093D01*
X422982Y565093D01*
X422945Y565087D01*
X419688Y565087D01*
X419670Y565091D01*
X419651Y565090D01*
X419618Y565093D01*
X397582Y565093D01*
X397545Y565087D01*
X394288Y565087D01*
X394270Y565092D01*
X394250Y565090D01*
X394218Y565093D01*
X372182Y565093D01*
X372145Y565087D01*
X368888Y565087D01*
X368870Y565092D01*
X368850Y565090D01*
X368818Y565093D01*
X346782Y565093D01*
X346745Y565087D01*
X343488Y565087D01*
X343470Y565092D01*
X343450Y565090D01*
X343418Y565093D01*
X300582Y565093D01*
X300545Y565087D01*
X297288Y565087D01*
X297270Y565091D01*
X297251Y565090D01*
X297218Y565093D01*
X275182Y565093D01*
X275145Y565087D01*
X271888Y565087D01*
X271870Y565091D01*
X271851Y565090D01*
X271818Y565093D01*
X249782Y565093D01*
X249745Y565087D01*
X246488Y565087D01*
X246470Y565091D01*
X246451Y565090D01*
X246418Y565093D01*
X236774Y565093D01*
X236754Y565090D01*
X236735Y565092D01*
X236633Y565070D01*
X236531Y565054D01*
X236514Y565044D01*
X236494Y565040D01*
X236405Y564987D01*
X236314Y564938D01*
X236300Y564924D01*
X236283Y564914D01*
X236216Y564835D01*
X236144Y564760D01*
X236136Y564742D01*
X236123Y564727D01*
X236084Y564631D01*
X236041Y564537D01*
X236039Y564517D01*
X236031Y564499D01*
X236013Y564332D01*
X236013Y549983D01*
X236021Y549934D01*
X236021Y534496D01*
X236015Y534469D01*
X236016Y534450D01*
X236013Y534417D01*
X236013Y525680D01*
X236021Y525631D01*
X236021Y519043D01*
X231557Y514579D01*
X225027Y514579D01*
X225025Y514580D01*
X224995Y514579D01*
X224992Y514579D01*
X224920Y514587D01*
X217796Y514587D01*
X217706Y514573D01*
X217615Y514565D01*
X217585Y514553D01*
X217553Y514548D01*
X217472Y514505D01*
X217388Y514469D01*
X217356Y514443D01*
X217336Y514432D01*
X217313Y514409D01*
X217257Y514364D01*
X211964Y509071D01*
X211964Y509070D01*
X210252Y507359D01*
X149848Y507359D01*
G37*
%LPD*%
%LPC*%
G36*
X604945Y698118D02*
X604945Y698118D01*
X604937Y698209D01*
X604925Y698239D01*
X604920Y698271D01*
X604877Y698352D01*
X604841Y698436D01*
X604815Y698468D01*
X604804Y698488D01*
X604781Y698511D01*
X604736Y698567D01*
X585131Y718172D01*
X585131Y725647D01*
X585121Y725712D01*
X585120Y725778D01*
X585117Y725787D01*
X585117Y729226D01*
X585122Y729269D01*
X585129Y729301D01*
X585128Y729320D01*
X585131Y729353D01*
X585131Y745647D01*
X585121Y745712D01*
X585120Y745777D01*
X585117Y745787D01*
X585117Y749167D01*
X586393Y752248D01*
X588752Y754607D01*
X591833Y755883D01*
X595267Y755883D01*
X595277Y755881D01*
X595296Y755882D01*
X595329Y755879D01*
X611671Y755879D01*
X611696Y755883D01*
X615167Y755883D01*
X618248Y754607D01*
X620607Y752248D01*
X621883Y749167D01*
X621883Y745740D01*
X621877Y745714D01*
X621878Y745694D01*
X621875Y745662D01*
X621875Y743034D01*
X621889Y742944D01*
X621897Y742853D01*
X621909Y742823D01*
X621914Y742791D01*
X621957Y742710D01*
X621993Y742626D01*
X622019Y742594D01*
X622030Y742574D01*
X622053Y742551D01*
X622098Y742495D01*
X629241Y735352D01*
X629241Y540748D01*
X628038Y539545D01*
X627985Y539471D01*
X627925Y539401D01*
X627913Y539371D01*
X627894Y539345D01*
X627867Y539258D01*
X627833Y539173D01*
X627829Y539132D01*
X627822Y539110D01*
X627823Y539078D01*
X627815Y539006D01*
X627815Y538778D01*
X627821Y538741D01*
X627821Y532143D01*
X623357Y527679D01*
X616836Y527679D01*
X616821Y527684D01*
X616788Y527683D01*
X616716Y527691D01*
X614402Y527691D01*
X614382Y527688D01*
X614363Y527690D01*
X614261Y527668D01*
X614159Y527652D01*
X614142Y527642D01*
X614122Y527638D01*
X614033Y527585D01*
X613942Y527536D01*
X613928Y527522D01*
X613911Y527512D01*
X613844Y527433D01*
X613772Y527358D01*
X613764Y527340D01*
X613751Y527325D01*
X613712Y527229D01*
X613669Y527135D01*
X613667Y527115D01*
X613659Y527097D01*
X613641Y526930D01*
X613641Y474448D01*
X596652Y457459D01*
X536968Y457459D01*
X536878Y457445D01*
X536787Y457437D01*
X536757Y457425D01*
X536725Y457420D01*
X536644Y457377D01*
X536560Y457341D01*
X536528Y457315D01*
X536508Y457304D01*
X536485Y457281D01*
X536429Y457236D01*
X513252Y434059D01*
X388368Y434059D01*
X388278Y434045D01*
X388187Y434037D01*
X388157Y434025D01*
X388125Y434020D01*
X388044Y433977D01*
X387960Y433941D01*
X387928Y433915D01*
X387908Y433904D01*
X387885Y433881D01*
X387829Y433836D01*
X365522Y411529D01*
X365469Y411455D01*
X365409Y411385D01*
X365397Y411355D01*
X365378Y411329D01*
X365351Y411242D01*
X365317Y411157D01*
X365313Y411116D01*
X365306Y411094D01*
X365307Y411062D01*
X365299Y410990D01*
X365299Y407541D01*
X365307Y407492D01*
X365307Y403429D01*
X363799Y399788D01*
X363244Y399233D01*
X363191Y399160D01*
X363131Y399090D01*
X363119Y399060D01*
X363100Y399034D01*
X363073Y398947D01*
X363039Y398862D01*
X363035Y398821D01*
X363028Y398799D01*
X363029Y398766D01*
X363021Y398695D01*
X363021Y382843D01*
X358557Y378379D01*
X352027Y378379D01*
X352024Y378380D01*
X351991Y378379D01*
X351920Y378387D01*
X333480Y378387D01*
X333431Y378379D01*
X326843Y378379D01*
X322379Y382843D01*
X322379Y398695D01*
X322365Y398785D01*
X322357Y398876D01*
X322345Y398906D01*
X322340Y398938D01*
X322297Y399019D01*
X322261Y399102D01*
X322235Y399135D01*
X322224Y399155D01*
X322201Y399177D01*
X322156Y399233D01*
X321601Y399788D01*
X320093Y403429D01*
X320093Y407371D01*
X321601Y411012D01*
X324388Y413799D01*
X328029Y415307D01*
X332073Y415307D01*
X332074Y415307D01*
X332076Y415307D01*
X332109Y415307D01*
X332127Y415305D01*
X335996Y415305D01*
X336086Y415319D01*
X336177Y415327D01*
X336207Y415339D01*
X336239Y415344D01*
X336320Y415387D01*
X336404Y415423D01*
X336436Y415449D01*
X336456Y415460D01*
X336479Y415483D01*
X336535Y415528D01*
X361552Y440545D01*
X361605Y440619D01*
X361665Y440689D01*
X361677Y440719D01*
X361696Y440745D01*
X361723Y440832D01*
X361757Y440917D01*
X361761Y440958D01*
X361768Y440980D01*
X361767Y441012D01*
X361775Y441084D01*
X361775Y443316D01*
X361761Y443406D01*
X361753Y443497D01*
X361741Y443527D01*
X361736Y443559D01*
X361693Y443640D01*
X361657Y443724D01*
X361631Y443756D01*
X361620Y443776D01*
X361597Y443799D01*
X361552Y443855D01*
X347871Y457536D01*
X347797Y457589D01*
X347727Y457649D01*
X347697Y457661D01*
X347671Y457680D01*
X347584Y457707D01*
X347499Y457741D01*
X347458Y457745D01*
X347436Y457752D01*
X347404Y457751D01*
X347332Y457759D01*
X274048Y457759D01*
X260329Y471478D01*
X260255Y471531D01*
X260185Y471591D01*
X260155Y471603D01*
X260129Y471622D01*
X260042Y471649D01*
X259957Y471683D01*
X259916Y471687D01*
X259894Y471694D01*
X259862Y471693D01*
X259790Y471701D01*
X255941Y471701D01*
X255892Y471693D01*
X251829Y471693D01*
X248188Y473201D01*
X245401Y475988D01*
X243893Y479629D01*
X243893Y483571D01*
X245401Y487212D01*
X248188Y489999D01*
X250789Y491076D01*
X250889Y491137D01*
X250989Y491197D01*
X250993Y491202D01*
X250998Y491206D01*
X251073Y491296D01*
X251149Y491384D01*
X251151Y491390D01*
X251155Y491395D01*
X251197Y491503D01*
X251241Y491612D01*
X251242Y491620D01*
X251243Y491625D01*
X251244Y491643D01*
X251259Y491779D01*
X251259Y496052D01*
X270348Y515141D01*
X277618Y515141D01*
X277638Y515144D01*
X277657Y515142D01*
X277759Y515164D01*
X277861Y515180D01*
X277878Y515190D01*
X277898Y515194D01*
X277987Y515247D01*
X278078Y515296D01*
X278092Y515310D01*
X278109Y515320D01*
X278176Y515399D01*
X278248Y515474D01*
X278256Y515492D01*
X278269Y515507D01*
X278308Y515603D01*
X278351Y515697D01*
X278353Y515717D01*
X278361Y515735D01*
X278361Y515738D01*
X282843Y520221D01*
X288428Y520221D01*
X288518Y520235D01*
X288609Y520243D01*
X288639Y520255D01*
X288671Y520260D01*
X288752Y520303D01*
X288836Y520339D01*
X288868Y520365D01*
X288888Y520376D01*
X288911Y520399D01*
X288967Y520444D01*
X296756Y528233D01*
X296757Y528234D01*
X301443Y532921D01*
X307757Y532921D01*
X310136Y530542D01*
X310210Y530489D01*
X310279Y530429D01*
X310309Y530417D01*
X310335Y530398D01*
X310422Y530371D01*
X310507Y530337D01*
X310548Y530333D01*
X310570Y530326D01*
X310603Y530327D01*
X310674Y530319D01*
X326526Y530319D01*
X326538Y530321D01*
X333157Y530321D01*
X337621Y525857D01*
X337621Y519327D01*
X337620Y519325D01*
X337621Y519295D01*
X337621Y519292D01*
X337613Y519220D01*
X337613Y518996D01*
X337627Y518906D01*
X337635Y518815D01*
X337647Y518785D01*
X337652Y518753D01*
X337695Y518672D01*
X337731Y518588D01*
X337757Y518556D01*
X337768Y518536D01*
X337791Y518513D01*
X337836Y518457D01*
X343529Y512764D01*
X343603Y512711D01*
X343673Y512651D01*
X343703Y512639D01*
X343729Y512620D01*
X343816Y512593D01*
X343901Y512559D01*
X343942Y512555D01*
X343964Y512548D01*
X343996Y512549D01*
X344068Y512541D01*
X362052Y512541D01*
X369453Y505140D01*
X369527Y505087D01*
X369597Y505027D01*
X369627Y505015D01*
X369653Y504996D01*
X369740Y504969D01*
X369825Y504935D01*
X369866Y504931D01*
X369888Y504924D01*
X369920Y504925D01*
X369992Y504917D01*
X377324Y504917D01*
X377349Y504921D01*
X379125Y504921D01*
X379143Y504924D01*
X382417Y504924D01*
X382422Y504923D01*
X382435Y504924D01*
X382448Y504924D01*
X382475Y504921D01*
X383957Y504921D01*
X385004Y503873D01*
X385019Y503862D01*
X387334Y501548D01*
X387336Y501544D01*
X387345Y501536D01*
X387356Y501526D01*
X387373Y501504D01*
X388421Y500457D01*
X388421Y498975D01*
X388424Y498957D01*
X388424Y494598D01*
X388427Y494578D01*
X388425Y494559D01*
X388447Y494457D01*
X388463Y494355D01*
X388473Y494338D01*
X388477Y494318D01*
X388530Y494229D01*
X388579Y494138D01*
X388593Y494124D01*
X388603Y494107D01*
X388682Y494040D01*
X388757Y493968D01*
X388775Y493960D01*
X388790Y493947D01*
X388886Y493908D01*
X388980Y493865D01*
X389000Y493863D01*
X389018Y493855D01*
X389185Y493837D01*
X397477Y493837D01*
X397477Y485962D01*
X397480Y485942D01*
X397478Y485923D01*
X397500Y485821D01*
X397517Y485719D01*
X397526Y485702D01*
X397530Y485682D01*
X397583Y485593D01*
X397632Y485502D01*
X397646Y485488D01*
X397656Y485471D01*
X397735Y485404D01*
X397810Y485333D01*
X397828Y485324D01*
X397843Y485311D01*
X397939Y485273D01*
X398033Y485229D01*
X398053Y485227D01*
X398071Y485219D01*
X398238Y485201D01*
X399001Y485201D01*
X399001Y485199D01*
X398238Y485199D01*
X398218Y485196D01*
X398199Y485198D01*
X398097Y485176D01*
X397995Y485159D01*
X397978Y485150D01*
X397958Y485146D01*
X397869Y485093D01*
X397778Y485044D01*
X397764Y485030D01*
X397747Y485020D01*
X397680Y484941D01*
X397609Y484866D01*
X397600Y484848D01*
X397587Y484833D01*
X397548Y484737D01*
X397505Y484643D01*
X397503Y484623D01*
X397495Y484605D01*
X397477Y484438D01*
X397477Y476563D01*
X395207Y476563D01*
X395204Y476564D01*
X395174Y476563D01*
X395171Y476563D01*
X395099Y476571D01*
X389949Y476571D01*
X389833Y476552D01*
X389718Y476535D01*
X389712Y476533D01*
X389706Y476532D01*
X389603Y476477D01*
X389498Y476424D01*
X389494Y476419D01*
X389489Y476416D01*
X389409Y476332D01*
X389326Y476248D01*
X389323Y476242D01*
X389319Y476238D01*
X389311Y476221D01*
X389245Y476101D01*
X389199Y475988D01*
X386412Y473201D01*
X382771Y471693D01*
X378737Y471693D01*
X378711Y471699D01*
X378692Y471698D01*
X378659Y471701D01*
X371562Y471701D01*
X371542Y471698D01*
X371523Y471700D01*
X371421Y471678D01*
X371319Y471662D01*
X371302Y471652D01*
X371282Y471648D01*
X371193Y471595D01*
X371102Y471546D01*
X371088Y471532D01*
X371071Y471522D01*
X371004Y471443D01*
X370932Y471368D01*
X370924Y471350D01*
X370911Y471335D01*
X370872Y471239D01*
X370829Y471145D01*
X370827Y471125D01*
X370819Y471107D01*
X370801Y470940D01*
X370801Y464760D01*
X370815Y464670D01*
X370823Y464579D01*
X370835Y464549D01*
X370840Y464517D01*
X370883Y464436D01*
X370919Y464352D01*
X370945Y464320D01*
X370956Y464300D01*
X370979Y464277D01*
X371024Y464221D01*
X381481Y453764D01*
X381555Y453711D01*
X381625Y453651D01*
X381655Y453639D01*
X381681Y453620D01*
X381768Y453593D01*
X381853Y453559D01*
X381894Y453555D01*
X381916Y453548D01*
X381948Y453549D01*
X382020Y453541D01*
X410618Y453541D01*
X410638Y453544D01*
X410657Y453542D01*
X410759Y453564D01*
X410861Y453580D01*
X410878Y453590D01*
X410898Y453594D01*
X410987Y453647D01*
X411078Y453696D01*
X411092Y453710D01*
X411109Y453720D01*
X411176Y453799D01*
X411248Y453874D01*
X411256Y453892D01*
X411269Y453907D01*
X411308Y454003D01*
X411351Y454097D01*
X411353Y454117D01*
X411361Y454135D01*
X411379Y454302D01*
X411379Y460457D01*
X415843Y464921D01*
X422157Y464921D01*
X426621Y460457D01*
X426621Y454302D01*
X426624Y454282D01*
X426622Y454263D01*
X426644Y454161D01*
X426660Y454059D01*
X426670Y454042D01*
X426674Y454022D01*
X426727Y453933D01*
X426776Y453842D01*
X426790Y453828D01*
X426800Y453811D01*
X426879Y453744D01*
X426954Y453672D01*
X426972Y453664D01*
X426987Y453651D01*
X427083Y453612D01*
X427177Y453569D01*
X427197Y453567D01*
X427215Y453559D01*
X427382Y453541D01*
X492532Y453541D01*
X492622Y453555D01*
X492713Y453563D01*
X492743Y453575D01*
X492775Y453580D01*
X492856Y453623D01*
X492940Y453659D01*
X492972Y453685D01*
X492992Y453696D01*
X493015Y453719D01*
X493071Y453764D01*
X497558Y458251D01*
X497611Y458325D01*
X497671Y458395D01*
X497683Y458425D01*
X497702Y458451D01*
X497729Y458538D01*
X497763Y458623D01*
X497767Y458664D01*
X497774Y458686D01*
X497773Y458718D01*
X497781Y458790D01*
X497781Y461032D01*
X497779Y461044D01*
X497779Y476412D01*
X498939Y479213D01*
X501083Y481357D01*
X503884Y482517D01*
X507019Y482517D01*
X507021Y482517D01*
X507054Y482517D01*
X507072Y482515D01*
X538806Y482515D01*
X538896Y482529D01*
X538987Y482537D01*
X539017Y482549D01*
X539049Y482554D01*
X539130Y482597D01*
X539214Y482633D01*
X539246Y482659D01*
X539266Y482670D01*
X539289Y482693D01*
X539345Y482738D01*
X544148Y487541D01*
X550328Y487541D01*
X550418Y487555D01*
X550509Y487563D01*
X550539Y487575D01*
X550571Y487580D01*
X550652Y487623D01*
X550736Y487659D01*
X550768Y487685D01*
X550788Y487696D01*
X550811Y487719D01*
X550867Y487764D01*
X551302Y488199D01*
X551315Y488218D01*
X556372Y493275D01*
X563228Y493275D01*
X568075Y488428D01*
X568075Y481734D01*
X568089Y481644D01*
X568097Y481553D01*
X568109Y481523D01*
X568114Y481491D01*
X568157Y481410D01*
X568193Y481326D01*
X568219Y481294D01*
X568230Y481274D01*
X568253Y481251D01*
X568298Y481195D01*
X579529Y469964D01*
X579603Y469911D01*
X579673Y469851D01*
X579703Y469839D01*
X579729Y469820D01*
X579816Y469793D01*
X579901Y469759D01*
X579942Y469755D01*
X579964Y469748D01*
X579996Y469749D01*
X580068Y469741D01*
X591132Y469741D01*
X591222Y469755D01*
X591313Y469763D01*
X591343Y469775D01*
X591375Y469780D01*
X591456Y469823D01*
X591540Y469859D01*
X591572Y469885D01*
X591592Y469896D01*
X591615Y469919D01*
X591671Y469964D01*
X601136Y479429D01*
X601189Y479503D01*
X601249Y479573D01*
X601261Y479603D01*
X601280Y479629D01*
X601307Y479716D01*
X601341Y479801D01*
X601345Y479842D01*
X601352Y479864D01*
X601351Y479896D01*
X601359Y479968D01*
X601359Y526930D01*
X601356Y526950D01*
X601358Y526969D01*
X601336Y527071D01*
X601320Y527173D01*
X601310Y527190D01*
X601306Y527210D01*
X601253Y527299D01*
X601204Y527390D01*
X601190Y527404D01*
X601180Y527421D01*
X601101Y527488D01*
X601026Y527560D01*
X601008Y527568D01*
X600993Y527581D01*
X600897Y527620D01*
X600803Y527663D01*
X600783Y527665D01*
X600765Y527673D01*
X600598Y527691D01*
X598284Y527691D01*
X598211Y527679D01*
X591436Y527679D01*
X591421Y527684D01*
X591388Y527683D01*
X591316Y527691D01*
X583100Y527691D01*
X583010Y527677D01*
X582919Y527669D01*
X582889Y527657D01*
X582857Y527652D01*
X582776Y527609D01*
X582692Y527573D01*
X582660Y527547D01*
X582640Y527536D01*
X582617Y527513D01*
X582561Y527468D01*
X580748Y525655D01*
X580695Y525581D01*
X580635Y525511D01*
X580623Y525481D01*
X580604Y525455D01*
X580577Y525368D01*
X580543Y525283D01*
X580539Y525242D01*
X580532Y525220D01*
X580533Y525188D01*
X580525Y525116D01*
X580525Y511656D01*
X580522Y511647D01*
X580523Y511614D01*
X580515Y511543D01*
X580515Y508053D01*
X580529Y507963D01*
X580537Y507872D01*
X580549Y507842D01*
X580554Y507810D01*
X580597Y507729D01*
X580633Y507646D01*
X580659Y507613D01*
X580670Y507593D01*
X580693Y507571D01*
X580738Y507515D01*
X580775Y507478D01*
X580775Y500622D01*
X575928Y495775D01*
X569072Y495775D01*
X564225Y500622D01*
X564225Y507478D01*
X564252Y507505D01*
X564305Y507578D01*
X564365Y507648D01*
X564377Y507678D01*
X564396Y507704D01*
X564423Y507791D01*
X564457Y507876D01*
X564461Y507917D01*
X564468Y507939D01*
X564467Y507972D01*
X564475Y508043D01*
X564475Y528132D01*
X565368Y529025D01*
X576512Y529025D01*
X576602Y529039D01*
X576693Y529047D01*
X576723Y529059D01*
X576755Y529064D01*
X576836Y529107D01*
X576920Y529143D01*
X576952Y529169D01*
X576972Y529180D01*
X576995Y529203D01*
X577051Y529248D01*
X589252Y541449D01*
X589305Y541523D01*
X589365Y541593D01*
X589377Y541623D01*
X589396Y541649D01*
X589423Y541736D01*
X589457Y541821D01*
X589461Y541862D01*
X589468Y541884D01*
X589467Y541916D01*
X589475Y541988D01*
X589475Y561632D01*
X590368Y562525D01*
X599915Y562525D01*
X599951Y562521D01*
X604198Y562521D01*
X604218Y562524D01*
X604237Y562522D01*
X604339Y562544D01*
X604441Y562560D01*
X604458Y562570D01*
X604478Y562574D01*
X604567Y562627D01*
X604658Y562676D01*
X604672Y562690D01*
X604689Y562700D01*
X604756Y562779D01*
X604828Y562854D01*
X604836Y562872D01*
X604849Y562887D01*
X604888Y562983D01*
X604931Y563077D01*
X604933Y563097D01*
X604941Y563115D01*
X604959Y563282D01*
X604959Y698028D01*
X604945Y698118D01*
G37*
%LPD*%
%LPC*%
G36*
X144984Y282379D02*
X144984Y282379D01*
X142183Y283539D01*
X140039Y285683D01*
X138879Y288484D01*
X138879Y291516D01*
X140039Y294317D01*
X142183Y296461D01*
X144984Y297621D01*
X148898Y297621D01*
X148918Y297624D01*
X148937Y297622D01*
X149039Y297644D01*
X149141Y297660D01*
X149158Y297670D01*
X149178Y297674D01*
X149267Y297727D01*
X149358Y297776D01*
X149372Y297790D01*
X149389Y297800D01*
X149456Y297879D01*
X149528Y297954D01*
X149536Y297972D01*
X149549Y297987D01*
X149588Y298083D01*
X149631Y298177D01*
X149633Y298197D01*
X149641Y298215D01*
X149659Y298382D01*
X149659Y306240D01*
X149656Y306260D01*
X149658Y306279D01*
X149636Y306381D01*
X149620Y306483D01*
X149610Y306500D01*
X149606Y306520D01*
X149553Y306609D01*
X149504Y306700D01*
X149490Y306714D01*
X149480Y306731D01*
X149401Y306798D01*
X149326Y306870D01*
X149308Y306878D01*
X149293Y306891D01*
X149197Y306930D01*
X149103Y306973D01*
X149083Y306975D01*
X149065Y306983D01*
X148898Y307001D01*
X128941Y307001D01*
X128892Y306993D01*
X124737Y306993D01*
X124711Y306999D01*
X124692Y306998D01*
X124659Y307001D01*
X103541Y307001D01*
X103492Y306993D01*
X99337Y306993D01*
X99311Y306999D01*
X99292Y306998D01*
X99259Y307001D01*
X78141Y307001D01*
X78092Y306993D01*
X73937Y306993D01*
X73911Y306999D01*
X73892Y306998D01*
X73859Y307001D01*
X52741Y307001D01*
X52692Y306993D01*
X48629Y306993D01*
X44988Y308501D01*
X42201Y311288D01*
X40693Y314929D01*
X40693Y318871D01*
X42201Y322512D01*
X44988Y325299D01*
X48629Y326807D01*
X52670Y326807D01*
X52679Y326805D01*
X52699Y326806D01*
X52732Y326803D01*
X56594Y326803D01*
X56684Y326817D01*
X56775Y326825D01*
X56805Y326837D01*
X56837Y326842D01*
X56918Y326885D01*
X57002Y326921D01*
X57034Y326947D01*
X57054Y326958D01*
X57077Y326981D01*
X57133Y327026D01*
X80348Y350241D01*
X235052Y350241D01*
X257729Y327564D01*
X257803Y327511D01*
X257873Y327451D01*
X257903Y327439D01*
X257929Y327420D01*
X258016Y327393D01*
X258101Y327359D01*
X258142Y327355D01*
X258164Y327348D01*
X258196Y327349D01*
X258268Y327341D01*
X425632Y327341D01*
X425722Y327355D01*
X425813Y327363D01*
X425843Y327375D01*
X425875Y327380D01*
X425956Y327423D01*
X426040Y327459D01*
X426072Y327485D01*
X426092Y327496D01*
X426115Y327519D01*
X426171Y327564D01*
X431752Y333145D01*
X431805Y333219D01*
X431865Y333289D01*
X431877Y333319D01*
X431896Y333345D01*
X431923Y333432D01*
X431957Y333517D01*
X431961Y333558D01*
X431968Y333580D01*
X431967Y333612D01*
X431975Y333684D01*
X431975Y338797D01*
X433121Y341562D01*
X435238Y343679D01*
X438003Y344825D01*
X441101Y344825D01*
X441102Y344824D01*
X441105Y344825D01*
X441135Y344825D01*
X441153Y344823D01*
X457847Y344823D01*
X457859Y344825D01*
X461101Y344825D01*
X461102Y344824D01*
X461105Y344825D01*
X461135Y344825D01*
X461153Y344823D01*
X477847Y344823D01*
X477859Y344825D01*
X481101Y344825D01*
X481102Y344824D01*
X481105Y344825D01*
X481135Y344825D01*
X481153Y344823D01*
X497847Y344823D01*
X497859Y344825D01*
X500997Y344825D01*
X503762Y343679D01*
X505879Y341562D01*
X507025Y338797D01*
X507025Y335803D01*
X505879Y333038D01*
X503762Y330921D01*
X500997Y329775D01*
X497911Y329775D01*
X497884Y329781D01*
X497865Y329780D01*
X497832Y329783D01*
X495892Y329783D01*
X495802Y329769D01*
X495711Y329761D01*
X495681Y329749D01*
X495649Y329744D01*
X495568Y329701D01*
X495484Y329665D01*
X495452Y329639D01*
X495432Y329628D01*
X495409Y329605D01*
X495353Y329560D01*
X478140Y312347D01*
X478087Y312273D01*
X478027Y312203D01*
X478015Y312173D01*
X477996Y312147D01*
X477969Y312060D01*
X477935Y311975D01*
X477931Y311934D01*
X477924Y311912D01*
X477925Y311880D01*
X477917Y311808D01*
X477917Y309492D01*
X477931Y309402D01*
X477939Y309311D01*
X477951Y309281D01*
X477956Y309249D01*
X477999Y309168D01*
X478035Y309084D01*
X478061Y309052D01*
X478072Y309032D01*
X478095Y309009D01*
X478140Y308953D01*
X489249Y297844D01*
X489323Y297791D01*
X489393Y297731D01*
X489423Y297719D01*
X489449Y297700D01*
X489536Y297673D01*
X489621Y297639D01*
X489662Y297635D01*
X489684Y297628D01*
X489716Y297629D01*
X489788Y297621D01*
X495016Y297621D01*
X497817Y296461D01*
X499961Y294317D01*
X501121Y291516D01*
X501121Y288484D01*
X499961Y285683D01*
X497817Y283539D01*
X495016Y282379D01*
X491984Y282379D01*
X489183Y283539D01*
X487039Y285683D01*
X485879Y288484D01*
X485879Y291620D01*
X485880Y291621D01*
X485879Y291624D01*
X485879Y291654D01*
X485881Y291672D01*
X485881Y293710D01*
X485867Y293800D01*
X485859Y293891D01*
X485847Y293921D01*
X485842Y293953D01*
X485799Y294034D01*
X485763Y294118D01*
X485737Y294150D01*
X485726Y294170D01*
X485703Y294193D01*
X485658Y294249D01*
X473271Y306636D01*
X473197Y306689D01*
X473127Y306749D01*
X473097Y306761D01*
X473071Y306780D01*
X472984Y306807D01*
X472899Y306841D01*
X472858Y306845D01*
X472836Y306852D01*
X472804Y306851D01*
X472732Y306859D01*
X411876Y306859D01*
X411856Y306856D01*
X411837Y306858D01*
X411735Y306836D01*
X411633Y306820D01*
X411616Y306810D01*
X411596Y306806D01*
X411507Y306753D01*
X411416Y306704D01*
X411402Y306690D01*
X411385Y306680D01*
X411318Y306601D01*
X411246Y306526D01*
X411238Y306508D01*
X411225Y306493D01*
X411186Y306397D01*
X411143Y306303D01*
X411141Y306283D01*
X411133Y306265D01*
X411115Y306098D01*
X411115Y291682D01*
X411121Y291645D01*
X411121Y288484D01*
X409961Y285683D01*
X407817Y283539D01*
X405016Y282379D01*
X401984Y282379D01*
X399183Y283539D01*
X397039Y285683D01*
X395879Y288484D01*
X395879Y291619D01*
X395879Y291621D01*
X395879Y291654D01*
X395881Y291672D01*
X395881Y293710D01*
X395867Y293800D01*
X395859Y293891D01*
X395847Y293921D01*
X395842Y293953D01*
X395799Y294034D01*
X395763Y294118D01*
X395737Y294150D01*
X395726Y294170D01*
X395703Y294193D01*
X395658Y294249D01*
X386871Y303036D01*
X386797Y303089D01*
X386727Y303149D01*
X386697Y303161D01*
X386671Y303180D01*
X386584Y303207D01*
X386499Y303241D01*
X386458Y303245D01*
X386436Y303252D01*
X386404Y303251D01*
X386332Y303259D01*
X244876Y303259D01*
X244856Y303256D01*
X244837Y303258D01*
X244735Y303236D01*
X244633Y303220D01*
X244616Y303210D01*
X244596Y303206D01*
X244507Y303153D01*
X244416Y303104D01*
X244402Y303090D01*
X244385Y303080D01*
X244318Y303001D01*
X244246Y302926D01*
X244238Y302908D01*
X244225Y302893D01*
X244186Y302797D01*
X244143Y302703D01*
X244141Y302683D01*
X244133Y302665D01*
X244115Y302498D01*
X244115Y291682D01*
X244121Y291645D01*
X244121Y288484D01*
X242961Y285683D01*
X240817Y283539D01*
X238016Y282379D01*
X234984Y282379D01*
X232183Y283539D01*
X230039Y285683D01*
X228879Y288484D01*
X228879Y291619D01*
X228879Y291621D01*
X228879Y291654D01*
X228881Y291672D01*
X228881Y293710D01*
X228867Y293800D01*
X228859Y293891D01*
X228847Y293921D01*
X228842Y293953D01*
X228799Y294034D01*
X228763Y294118D01*
X228737Y294150D01*
X228726Y294170D01*
X228703Y294193D01*
X228658Y294249D01*
X223471Y299436D01*
X223397Y299489D01*
X223327Y299549D01*
X223297Y299561D01*
X223271Y299580D01*
X223184Y299607D01*
X223099Y299641D01*
X223058Y299645D01*
X223036Y299652D01*
X223004Y299651D01*
X222932Y299659D01*
X191248Y299659D01*
X184129Y306778D01*
X184055Y306831D01*
X183985Y306891D01*
X183955Y306903D01*
X183929Y306922D01*
X183842Y306949D01*
X183757Y306983D01*
X183716Y306987D01*
X183694Y306994D01*
X183662Y306993D01*
X183590Y307001D01*
X179741Y307001D01*
X179692Y306993D01*
X175537Y306993D01*
X175511Y306999D01*
X175492Y306998D01*
X175459Y307001D01*
X155502Y307001D01*
X155482Y306998D01*
X155463Y307000D01*
X155361Y306978D01*
X155259Y306962D01*
X155242Y306952D01*
X155222Y306948D01*
X155133Y306895D01*
X155042Y306846D01*
X155028Y306832D01*
X155011Y306822D01*
X154944Y306743D01*
X154872Y306668D01*
X154864Y306650D01*
X154851Y306635D01*
X154812Y306539D01*
X154769Y306445D01*
X154767Y306425D01*
X154759Y306407D01*
X154741Y306240D01*
X154741Y294648D01*
X154338Y294245D01*
X154285Y294171D01*
X154225Y294101D01*
X154213Y294071D01*
X154194Y294045D01*
X154167Y293958D01*
X154133Y293873D01*
X154129Y293832D01*
X154122Y293810D01*
X154123Y293778D01*
X154115Y293706D01*
X154115Y291682D01*
X154121Y291645D01*
X154121Y288484D01*
X152961Y285683D01*
X150817Y283539D01*
X148016Y282379D01*
X144984Y282379D01*
G37*
%LPD*%
%LPC*%
G36*
X66577Y564999D02*
X66577Y564999D01*
X59964Y566771D01*
X54035Y570194D01*
X49194Y575035D01*
X45771Y580964D01*
X43999Y587577D01*
X43999Y594423D01*
X45771Y601036D01*
X49194Y606965D01*
X54035Y611806D01*
X59964Y615229D01*
X66577Y617001D01*
X73423Y617001D01*
X80036Y615229D01*
X85965Y611806D01*
X90806Y606965D01*
X94229Y601036D01*
X96001Y594423D01*
X96001Y587577D01*
X94229Y580964D01*
X90806Y575035D01*
X85965Y570194D01*
X80036Y566771D01*
X73423Y564999D01*
X66577Y564999D01*
G37*
%LPD*%
%LPC*%
G36*
X566577Y564999D02*
X566577Y564999D01*
X559964Y566771D01*
X554035Y570194D01*
X549194Y575035D01*
X545771Y580964D01*
X543999Y587577D01*
X543999Y594423D01*
X545771Y601036D01*
X549194Y606965D01*
X554035Y611806D01*
X559964Y615229D01*
X566577Y617001D01*
X573423Y617001D01*
X580036Y615229D01*
X585965Y611806D01*
X590806Y606965D01*
X594229Y601036D01*
X596001Y594423D01*
X596001Y587577D01*
X594229Y580964D01*
X590806Y575035D01*
X585965Y570194D01*
X580036Y566771D01*
X573423Y564999D01*
X566577Y564999D01*
G37*
%LPD*%
%LPC*%
G36*
X453084Y455083D02*
X453084Y455083D01*
X450283Y456243D01*
X448139Y458387D01*
X446979Y461188D01*
X446979Y476513D01*
X446979Y476514D01*
X446979Y476550D01*
X446981Y476568D01*
X446981Y490573D01*
X447011Y490670D01*
X447011Y490690D01*
X447015Y490709D01*
X447007Y490812D01*
X447005Y490915D01*
X446998Y490934D01*
X446996Y490954D01*
X446956Y491049D01*
X446920Y491147D01*
X446908Y491162D01*
X446900Y491181D01*
X446795Y491312D01*
X423247Y514860D01*
X423173Y514913D01*
X423103Y514973D01*
X423073Y514985D01*
X423047Y515004D01*
X422960Y515031D01*
X422875Y515065D01*
X422834Y515069D01*
X422812Y515076D01*
X422780Y515075D01*
X422708Y515083D01*
X422476Y515083D01*
X422451Y515079D01*
X415843Y515079D01*
X411351Y519572D01*
X411340Y519641D01*
X411330Y519658D01*
X411326Y519678D01*
X411273Y519767D01*
X411224Y519858D01*
X411210Y519872D01*
X411200Y519889D01*
X411121Y519956D01*
X411046Y520028D01*
X411028Y520036D01*
X411013Y520049D01*
X410917Y520088D01*
X410823Y520131D01*
X410803Y520133D01*
X410785Y520141D01*
X410618Y520159D01*
X389182Y520159D01*
X389162Y520156D01*
X389143Y520158D01*
X389041Y520136D01*
X388939Y520120D01*
X388922Y520110D01*
X388902Y520106D01*
X388813Y520053D01*
X388722Y520004D01*
X388708Y519990D01*
X388691Y519980D01*
X388624Y519901D01*
X388552Y519826D01*
X388544Y519808D01*
X388531Y519793D01*
X388492Y519697D01*
X388449Y519603D01*
X388447Y519583D01*
X388439Y519565D01*
X388439Y519562D01*
X383957Y515079D01*
X377643Y515079D01*
X373179Y519543D01*
X373179Y525857D01*
X377643Y530321D01*
X383957Y530321D01*
X388449Y525828D01*
X388460Y525759D01*
X388470Y525742D01*
X388474Y525722D01*
X388527Y525633D01*
X388576Y525542D01*
X388590Y525528D01*
X388600Y525511D01*
X388679Y525444D01*
X388754Y525372D01*
X388772Y525364D01*
X388787Y525351D01*
X388883Y525312D01*
X388977Y525269D01*
X388997Y525267D01*
X389015Y525259D01*
X389182Y525241D01*
X410618Y525241D01*
X410638Y525244D01*
X410657Y525242D01*
X410759Y525264D01*
X410861Y525280D01*
X410878Y525290D01*
X410898Y525294D01*
X410987Y525347D01*
X411078Y525396D01*
X411092Y525410D01*
X411109Y525420D01*
X411176Y525499D01*
X411248Y525574D01*
X411256Y525592D01*
X411269Y525607D01*
X411308Y525703D01*
X411351Y525797D01*
X411353Y525817D01*
X411361Y525835D01*
X411361Y525838D01*
X415843Y530321D01*
X422157Y530321D01*
X426621Y525857D01*
X426621Y519503D01*
X426580Y519447D01*
X426574Y519428D01*
X426563Y519411D01*
X426538Y519310D01*
X426508Y519211D01*
X426508Y519191D01*
X426503Y519172D01*
X426511Y519069D01*
X426514Y518966D01*
X426521Y518947D01*
X426522Y518927D01*
X426563Y518832D01*
X426598Y518735D01*
X426611Y518719D01*
X426619Y518701D01*
X426724Y518570D01*
X457141Y488152D01*
X457141Y482601D01*
X457160Y482486D01*
X457177Y482370D01*
X457179Y482364D01*
X457180Y482358D01*
X457235Y482255D01*
X457288Y482151D01*
X457293Y482146D01*
X457296Y482141D01*
X457380Y482061D01*
X457464Y481978D01*
X457470Y481975D01*
X457474Y481971D01*
X457491Y481964D01*
X457611Y481898D01*
X458917Y481357D01*
X461061Y479213D01*
X462221Y476412D01*
X462221Y461188D01*
X461061Y458387D01*
X458917Y456243D01*
X456116Y455083D01*
X453084Y455083D01*
G37*
%LPD*%
%LPC*%
G36*
X368984Y653479D02*
X368984Y653479D01*
X366183Y654639D01*
X364039Y656783D01*
X362879Y659584D01*
X362879Y672728D01*
X362865Y672818D01*
X362857Y672909D01*
X362845Y672939D01*
X362840Y672971D01*
X362797Y673052D01*
X362761Y673135D01*
X362735Y673168D01*
X362724Y673188D01*
X362701Y673210D01*
X362656Y673266D01*
X356133Y679790D01*
X356132Y679790D01*
X355079Y680843D01*
X355079Y702457D01*
X359543Y706921D01*
X365857Y706921D01*
X370321Y702457D01*
X370321Y687472D01*
X370335Y687382D01*
X370343Y687291D01*
X370355Y687261D01*
X370360Y687229D01*
X370403Y687148D01*
X370439Y687065D01*
X370465Y687032D01*
X370476Y687012D01*
X370499Y686990D01*
X370544Y686934D01*
X376961Y680517D01*
X378121Y677716D01*
X378121Y659584D01*
X376961Y656783D01*
X374817Y654639D01*
X372016Y653479D01*
X368984Y653479D01*
G37*
%LPD*%
%LPC*%
G36*
X144984Y653479D02*
X144984Y653479D01*
X142183Y654639D01*
X140039Y656783D01*
X138879Y659584D01*
X138879Y672728D01*
X138865Y672818D01*
X138857Y672909D01*
X138845Y672939D01*
X138840Y672971D01*
X138797Y673052D01*
X138761Y673135D01*
X138735Y673168D01*
X138724Y673188D01*
X138701Y673210D01*
X138656Y673266D01*
X132133Y679790D01*
X132132Y679790D01*
X131079Y680843D01*
X131079Y702457D01*
X132132Y703510D01*
X134490Y705867D01*
X134490Y705868D01*
X135543Y706921D01*
X141857Y706921D01*
X142910Y705868D01*
X145267Y703510D01*
X145268Y703510D01*
X146321Y702457D01*
X146321Y687472D01*
X146335Y687382D01*
X146343Y687291D01*
X146355Y687261D01*
X146360Y687229D01*
X146403Y687148D01*
X146439Y687065D01*
X146465Y687032D01*
X146476Y687012D01*
X146499Y686990D01*
X146544Y686934D01*
X152961Y680517D01*
X154121Y677716D01*
X154121Y659584D01*
X152961Y656783D01*
X150817Y654639D01*
X148016Y653479D01*
X144984Y653479D01*
G37*
%LPD*%
%LPC*%
G36*
X521384Y653479D02*
X521384Y653479D01*
X518583Y654639D01*
X516439Y656783D01*
X515279Y659584D01*
X515279Y677716D01*
X516439Y680517D01*
X522856Y686934D01*
X522909Y687008D01*
X522969Y687077D01*
X522981Y687107D01*
X523000Y687133D01*
X523027Y687220D01*
X523061Y687305D01*
X523065Y687346D01*
X523072Y687368D01*
X523071Y687401D01*
X523079Y687472D01*
X523079Y702457D01*
X527543Y706921D01*
X533857Y706921D01*
X538321Y702457D01*
X538321Y680843D01*
X533634Y676156D01*
X530744Y673266D01*
X530691Y673192D01*
X530631Y673123D01*
X530619Y673093D01*
X530600Y673067D01*
X530573Y672979D01*
X530539Y672895D01*
X530535Y672854D01*
X530528Y672832D01*
X530529Y672799D01*
X530521Y672728D01*
X530521Y659584D01*
X529361Y656783D01*
X527217Y654639D01*
X524416Y653479D01*
X521384Y653479D01*
G37*
%LPD*%
%LPC*%
G36*
X297384Y653479D02*
X297384Y653479D01*
X294583Y654639D01*
X292439Y656783D01*
X291279Y659584D01*
X291279Y677716D01*
X292439Y680517D01*
X298856Y686934D01*
X298909Y687008D01*
X298969Y687077D01*
X298981Y687107D01*
X299000Y687133D01*
X299027Y687220D01*
X299061Y687305D01*
X299065Y687346D01*
X299072Y687368D01*
X299071Y687401D01*
X299079Y687472D01*
X299079Y702457D01*
X303543Y706921D01*
X309857Y706921D01*
X314321Y702457D01*
X314321Y680843D01*
X309634Y676156D01*
X306744Y673266D01*
X306691Y673192D01*
X306631Y673123D01*
X306619Y673093D01*
X306600Y673067D01*
X306573Y672979D01*
X306539Y672895D01*
X306535Y672854D01*
X306528Y672832D01*
X306529Y672799D01*
X306521Y672728D01*
X306521Y659584D01*
X305361Y656783D01*
X303217Y654639D01*
X300416Y653479D01*
X297384Y653479D01*
G37*
%LPD*%
%LPC*%
G36*
X282843Y530379D02*
X282843Y530379D01*
X278379Y534843D01*
X278379Y541157D01*
X282843Y545621D01*
X289157Y545621D01*
X293649Y541128D01*
X293660Y541059D01*
X293670Y541042D01*
X293674Y541022D01*
X293727Y540933D01*
X293776Y540842D01*
X293790Y540828D01*
X293800Y540811D01*
X293879Y540744D01*
X293954Y540672D01*
X293972Y540664D01*
X293987Y540651D01*
X294083Y540612D01*
X294177Y540569D01*
X294197Y540567D01*
X294215Y540559D01*
X294382Y540541D01*
X323156Y540541D01*
X323176Y540544D01*
X323195Y540542D01*
X323297Y540564D01*
X323399Y540580D01*
X323416Y540590D01*
X323436Y540594D01*
X323525Y540647D01*
X323616Y540696D01*
X323630Y540710D01*
X323647Y540720D01*
X323714Y540799D01*
X323786Y540874D01*
X323794Y540892D01*
X323807Y540907D01*
X323846Y541003D01*
X323889Y541097D01*
X323891Y541117D01*
X323899Y541135D01*
X323917Y541302D01*
X323917Y555625D01*
X325193Y558706D01*
X327552Y561065D01*
X330633Y562341D01*
X333967Y562341D01*
X337048Y561065D01*
X339407Y558706D01*
X340683Y555625D01*
X340683Y538575D01*
X339407Y535494D01*
X337048Y533135D01*
X333967Y531859D01*
X330633Y531859D01*
X327552Y533135D01*
X325451Y535236D01*
X325377Y535289D01*
X325307Y535349D01*
X325277Y535361D01*
X325251Y535380D01*
X325164Y535407D01*
X325079Y535441D01*
X325038Y535445D01*
X325016Y535452D01*
X324984Y535451D01*
X324912Y535459D01*
X294382Y535459D01*
X294362Y535456D01*
X294343Y535458D01*
X294241Y535436D01*
X294139Y535420D01*
X294122Y535410D01*
X294102Y535406D01*
X294013Y535353D01*
X293922Y535304D01*
X293908Y535290D01*
X293891Y535280D01*
X293824Y535201D01*
X293752Y535126D01*
X293744Y535108D01*
X293731Y535093D01*
X293692Y534997D01*
X293649Y534903D01*
X293647Y534883D01*
X293639Y534865D01*
X293639Y534862D01*
X289157Y530379D01*
X282843Y530379D01*
G37*
%LPD*%
%LPC*%
G36*
X246584Y653479D02*
X246584Y653479D01*
X243783Y654639D01*
X241639Y656783D01*
X240479Y659584D01*
X240479Y682916D01*
X241639Y685717D01*
X242856Y686934D01*
X242909Y687008D01*
X242969Y687077D01*
X242981Y687107D01*
X243000Y687133D01*
X243027Y687220D01*
X243061Y687305D01*
X243065Y687346D01*
X243072Y687368D01*
X243071Y687401D01*
X243079Y687472D01*
X243079Y702457D01*
X247543Y706921D01*
X253857Y706921D01*
X258321Y702457D01*
X258321Y680843D01*
X255944Y678466D01*
X255891Y678392D01*
X255831Y678323D01*
X255819Y678293D01*
X255800Y678267D01*
X255773Y678180D01*
X255739Y678095D01*
X255735Y678054D01*
X255728Y678032D01*
X255729Y677999D01*
X255721Y677928D01*
X255721Y659584D01*
X254561Y656783D01*
X252417Y654639D01*
X249616Y653479D01*
X246584Y653479D01*
G37*
%LPD*%
%LPC*%
G36*
X470584Y653479D02*
X470584Y653479D01*
X467783Y654639D01*
X465639Y656783D01*
X464479Y659584D01*
X464479Y682916D01*
X465639Y685717D01*
X466856Y686934D01*
X466909Y687008D01*
X466969Y687077D01*
X466981Y687107D01*
X467000Y687133D01*
X467027Y687220D01*
X467061Y687305D01*
X467065Y687346D01*
X467072Y687368D01*
X467071Y687401D01*
X467079Y687472D01*
X467079Y702457D01*
X471543Y706921D01*
X477857Y706921D01*
X482321Y702457D01*
X482321Y680843D01*
X479944Y678466D01*
X479891Y678392D01*
X479831Y678323D01*
X479819Y678293D01*
X479800Y678267D01*
X479773Y678180D01*
X479739Y678095D01*
X479735Y678054D01*
X479728Y678032D01*
X479729Y677999D01*
X479721Y677928D01*
X479721Y659584D01*
X478561Y656783D01*
X476417Y654639D01*
X473616Y653479D01*
X470584Y653479D01*
G37*
%LPD*%
%LPC*%
G36*
X195784Y653479D02*
X195784Y653479D01*
X192983Y654639D01*
X190839Y656783D01*
X189679Y659584D01*
X189679Y677928D01*
X189665Y678018D01*
X189657Y678109D01*
X189645Y678139D01*
X189640Y678171D01*
X189597Y678252D01*
X189561Y678335D01*
X189535Y678368D01*
X189524Y678388D01*
X189501Y678410D01*
X189456Y678466D01*
X188133Y679790D01*
X188132Y679790D01*
X187079Y680843D01*
X187079Y702457D01*
X188132Y703510D01*
X190490Y705867D01*
X190490Y705868D01*
X191543Y706921D01*
X197857Y706921D01*
X198910Y705868D01*
X201267Y703510D01*
X201268Y703510D01*
X202321Y702457D01*
X202321Y687472D01*
X202335Y687382D01*
X202343Y687291D01*
X202355Y687261D01*
X202360Y687229D01*
X202403Y687148D01*
X202439Y687065D01*
X202465Y687032D01*
X202476Y687012D01*
X202499Y686990D01*
X202544Y686934D01*
X203761Y685717D01*
X204921Y682916D01*
X204921Y659584D01*
X203761Y656783D01*
X201617Y654639D01*
X198816Y653479D01*
X195784Y653479D01*
G37*
%LPD*%
%LPC*%
G36*
X419784Y653479D02*
X419784Y653479D01*
X416983Y654639D01*
X414839Y656783D01*
X413679Y659584D01*
X413679Y677928D01*
X413665Y678018D01*
X413657Y678109D01*
X413645Y678139D01*
X413640Y678171D01*
X413597Y678252D01*
X413561Y678335D01*
X413535Y678368D01*
X413524Y678388D01*
X413501Y678410D01*
X413456Y678466D01*
X412133Y679790D01*
X412132Y679790D01*
X411079Y680843D01*
X411079Y702457D01*
X412132Y703510D01*
X414490Y705867D01*
X414490Y705868D01*
X415543Y706921D01*
X421857Y706921D01*
X422910Y705868D01*
X425267Y703510D01*
X425268Y703510D01*
X426321Y702457D01*
X426321Y687472D01*
X426335Y687382D01*
X426343Y687291D01*
X426355Y687261D01*
X426360Y687229D01*
X426403Y687148D01*
X426439Y687065D01*
X426465Y687032D01*
X426476Y687012D01*
X426499Y686990D01*
X426544Y686934D01*
X427761Y685717D01*
X428921Y682916D01*
X428921Y659584D01*
X427761Y656783D01*
X425617Y654639D01*
X422816Y653479D01*
X419784Y653479D01*
G37*
%LPD*%
%LPC*%
G36*
X296075Y354317D02*
X296075Y354317D01*
X292994Y355593D01*
X290635Y357952D01*
X289359Y361033D01*
X289359Y364367D01*
X290635Y367448D01*
X292994Y369807D01*
X296075Y371083D01*
X296216Y371083D01*
X296236Y371086D01*
X296255Y371084D01*
X296357Y371106D01*
X296459Y371122D01*
X296476Y371132D01*
X296496Y371136D01*
X296585Y371189D01*
X296676Y371238D01*
X296690Y371252D01*
X296707Y371262D01*
X296774Y371341D01*
X296846Y371416D01*
X296854Y371434D01*
X296867Y371449D01*
X296906Y371545D01*
X296949Y371639D01*
X296951Y371659D01*
X296959Y371677D01*
X296977Y371844D01*
X296977Y385826D01*
X296979Y385844D01*
X296979Y389157D01*
X301443Y393621D01*
X307757Y393621D01*
X312221Y389157D01*
X312221Y382544D01*
X312219Y382526D01*
X312219Y371844D01*
X312222Y371824D01*
X312220Y371805D01*
X312242Y371703D01*
X312258Y371601D01*
X312268Y371584D01*
X312272Y371564D01*
X312325Y371475D01*
X312374Y371384D01*
X312388Y371370D01*
X312398Y371353D01*
X312477Y371286D01*
X312552Y371214D01*
X312570Y371206D01*
X312585Y371193D01*
X312681Y371154D01*
X312775Y371111D01*
X312795Y371109D01*
X312813Y371101D01*
X312980Y371083D01*
X313125Y371083D01*
X316206Y369807D01*
X318565Y367448D01*
X319841Y364367D01*
X319841Y361033D01*
X318565Y357952D01*
X316206Y355593D01*
X313125Y354317D01*
X296075Y354317D01*
G37*
%LPD*%
%LPC*%
G36*
X372275Y354317D02*
X372275Y354317D01*
X369194Y355593D01*
X366835Y357952D01*
X365559Y361033D01*
X365559Y364367D01*
X366835Y367448D01*
X369194Y369807D01*
X372275Y371083D01*
X372416Y371083D01*
X372436Y371086D01*
X372455Y371084D01*
X372557Y371106D01*
X372659Y371122D01*
X372676Y371132D01*
X372696Y371136D01*
X372785Y371189D01*
X372876Y371238D01*
X372890Y371252D01*
X372907Y371262D01*
X372974Y371341D01*
X373046Y371416D01*
X373054Y371434D01*
X373067Y371449D01*
X373106Y371545D01*
X373149Y371639D01*
X373151Y371659D01*
X373159Y371677D01*
X373177Y371844D01*
X373177Y385826D01*
X373179Y385844D01*
X373179Y389157D01*
X377643Y393621D01*
X383957Y393621D01*
X388421Y389157D01*
X388421Y382544D01*
X388419Y382526D01*
X388419Y371844D01*
X388422Y371824D01*
X388420Y371805D01*
X388442Y371703D01*
X388458Y371601D01*
X388468Y371584D01*
X388472Y371564D01*
X388525Y371475D01*
X388574Y371384D01*
X388588Y371370D01*
X388598Y371353D01*
X388677Y371286D01*
X388752Y371214D01*
X388770Y371206D01*
X388785Y371193D01*
X388881Y371154D01*
X388975Y371111D01*
X388995Y371109D01*
X389013Y371101D01*
X389180Y371083D01*
X389325Y371083D01*
X392406Y369807D01*
X394765Y367448D01*
X396041Y364367D01*
X396041Y361033D01*
X394765Y357952D01*
X392406Y355593D01*
X389325Y354317D01*
X372275Y354317D01*
G37*
%LPD*%
%LPC*%
G36*
X395899Y661099D02*
X395899Y661099D01*
X395899Y661862D01*
X395896Y661882D01*
X395898Y661901D01*
X395876Y662003D01*
X395859Y662105D01*
X395850Y662122D01*
X395846Y662142D01*
X395793Y662231D01*
X395744Y662322D01*
X395730Y662336D01*
X395720Y662353D01*
X395641Y662420D01*
X395566Y662491D01*
X395548Y662500D01*
X395533Y662513D01*
X395437Y662552D01*
X395343Y662595D01*
X395323Y662597D01*
X395305Y662605D01*
X395138Y662623D01*
X387263Y662623D01*
X387263Y677507D01*
X387249Y677597D01*
X387241Y677688D01*
X387229Y677718D01*
X387224Y677750D01*
X387181Y677831D01*
X387145Y677915D01*
X387119Y677947D01*
X387108Y677967D01*
X387085Y677990D01*
X387040Y678046D01*
X384663Y680423D01*
X384663Y682477D01*
X392538Y682477D01*
X392558Y682480D01*
X392577Y682478D01*
X392679Y682500D01*
X392781Y682517D01*
X392798Y682526D01*
X392818Y682530D01*
X392907Y682583D01*
X392998Y682632D01*
X393012Y682646D01*
X393029Y682656D01*
X393096Y682735D01*
X393167Y682810D01*
X393176Y682828D01*
X393189Y682843D01*
X393227Y682939D01*
X393271Y683033D01*
X393273Y683053D01*
X393281Y683071D01*
X393299Y683238D01*
X393299Y684762D01*
X393296Y684782D01*
X393298Y684801D01*
X393276Y684903D01*
X393259Y685005D01*
X393250Y685022D01*
X393246Y685042D01*
X393193Y685131D01*
X393144Y685222D01*
X393130Y685236D01*
X393120Y685253D01*
X393041Y685320D01*
X392966Y685391D01*
X392948Y685400D01*
X392933Y685413D01*
X392837Y685452D01*
X392743Y685495D01*
X392723Y685497D01*
X392705Y685505D01*
X392538Y685523D01*
X384663Y685523D01*
X384663Y687893D01*
X384663Y701433D01*
X385456Y702226D01*
X385475Y702253D01*
X390143Y706921D01*
X396457Y706921D01*
X401096Y702282D01*
X401100Y702274D01*
X401112Y702264D01*
X401144Y702224D01*
X401935Y701433D01*
X401935Y687895D01*
X401937Y687883D01*
X401937Y685523D01*
X394062Y685523D01*
X394042Y685520D01*
X394023Y685522D01*
X393921Y685500D01*
X393819Y685483D01*
X393802Y685474D01*
X393782Y685470D01*
X393693Y685417D01*
X393602Y685368D01*
X393588Y685354D01*
X393571Y685344D01*
X393504Y685265D01*
X393433Y685190D01*
X393424Y685172D01*
X393411Y685157D01*
X393373Y685061D01*
X393329Y684967D01*
X393327Y684947D01*
X393319Y684929D01*
X393301Y684762D01*
X393301Y683238D01*
X393304Y683218D01*
X393302Y683199D01*
X393324Y683097D01*
X393341Y682995D01*
X393350Y682978D01*
X393354Y682958D01*
X393407Y682869D01*
X393456Y682778D01*
X393470Y682764D01*
X393480Y682747D01*
X393559Y682680D01*
X393634Y682609D01*
X393652Y682600D01*
X393667Y682587D01*
X393763Y682548D01*
X393857Y682505D01*
X393877Y682503D01*
X393895Y682495D01*
X394062Y682477D01*
X401937Y682477D01*
X401937Y680402D01*
X401915Y680368D01*
X401855Y680285D01*
X401849Y680266D01*
X401838Y680249D01*
X401813Y680148D01*
X401783Y680050D01*
X401783Y680030D01*
X401778Y680010D01*
X401786Y679907D01*
X401789Y679804D01*
X401796Y679785D01*
X401797Y679765D01*
X401838Y679670D01*
X401873Y679573D01*
X401886Y679557D01*
X401894Y679539D01*
X401968Y679446D01*
X401973Y679437D01*
X401980Y679431D01*
X401998Y679408D01*
X402609Y678798D01*
X403554Y677383D01*
X404205Y675811D01*
X404537Y674143D01*
X404537Y662623D01*
X396662Y662623D01*
X396642Y662620D01*
X396623Y662622D01*
X396521Y662600D01*
X396419Y662583D01*
X396402Y662574D01*
X396382Y662570D01*
X396293Y662517D01*
X396202Y662468D01*
X396188Y662454D01*
X396171Y662444D01*
X396104Y662365D01*
X396033Y662290D01*
X396024Y662272D01*
X396011Y662257D01*
X395973Y662161D01*
X395929Y662067D01*
X395927Y662047D01*
X395919Y662029D01*
X395901Y661862D01*
X395901Y661099D01*
X395899Y661099D01*
G37*
%LPD*%
%LPC*%
G36*
X171899Y661099D02*
X171899Y661099D01*
X171899Y661862D01*
X171896Y661882D01*
X171898Y661901D01*
X171876Y662003D01*
X171859Y662105D01*
X171850Y662122D01*
X171846Y662142D01*
X171793Y662231D01*
X171744Y662322D01*
X171730Y662336D01*
X171720Y662353D01*
X171641Y662420D01*
X171566Y662491D01*
X171548Y662500D01*
X171533Y662513D01*
X171437Y662552D01*
X171343Y662595D01*
X171323Y662597D01*
X171305Y662605D01*
X171138Y662623D01*
X163263Y662623D01*
X163263Y677507D01*
X163249Y677597D01*
X163241Y677688D01*
X163229Y677718D01*
X163224Y677750D01*
X163181Y677831D01*
X163145Y677915D01*
X163119Y677947D01*
X163108Y677967D01*
X163085Y677990D01*
X163040Y678046D01*
X160663Y680423D01*
X160663Y682477D01*
X168538Y682477D01*
X168558Y682480D01*
X168577Y682478D01*
X168679Y682500D01*
X168781Y682517D01*
X168798Y682526D01*
X168818Y682530D01*
X168907Y682583D01*
X168998Y682632D01*
X169012Y682646D01*
X169029Y682656D01*
X169096Y682735D01*
X169167Y682810D01*
X169176Y682828D01*
X169189Y682843D01*
X169227Y682939D01*
X169271Y683033D01*
X169273Y683053D01*
X169281Y683071D01*
X169299Y683238D01*
X169299Y684762D01*
X169296Y684782D01*
X169298Y684801D01*
X169276Y684903D01*
X169259Y685005D01*
X169250Y685022D01*
X169246Y685042D01*
X169193Y685131D01*
X169144Y685222D01*
X169130Y685236D01*
X169120Y685253D01*
X169041Y685320D01*
X168966Y685391D01*
X168948Y685400D01*
X168933Y685413D01*
X168837Y685452D01*
X168743Y685495D01*
X168723Y685497D01*
X168705Y685505D01*
X168538Y685523D01*
X160663Y685523D01*
X160663Y687893D01*
X160663Y701433D01*
X161456Y702226D01*
X161475Y702253D01*
X166143Y706921D01*
X172457Y706921D01*
X177096Y702282D01*
X177100Y702274D01*
X177112Y702264D01*
X177144Y702224D01*
X177935Y701433D01*
X177935Y687895D01*
X177937Y687883D01*
X177937Y685523D01*
X170062Y685523D01*
X170042Y685520D01*
X170023Y685522D01*
X169921Y685500D01*
X169819Y685483D01*
X169802Y685474D01*
X169782Y685470D01*
X169693Y685417D01*
X169602Y685368D01*
X169588Y685354D01*
X169571Y685344D01*
X169504Y685265D01*
X169433Y685190D01*
X169424Y685172D01*
X169411Y685157D01*
X169373Y685061D01*
X169329Y684967D01*
X169327Y684947D01*
X169319Y684929D01*
X169301Y684762D01*
X169301Y683238D01*
X169304Y683218D01*
X169302Y683199D01*
X169324Y683097D01*
X169341Y682995D01*
X169350Y682978D01*
X169354Y682958D01*
X169407Y682869D01*
X169456Y682778D01*
X169470Y682764D01*
X169480Y682747D01*
X169559Y682680D01*
X169634Y682609D01*
X169652Y682600D01*
X169667Y682587D01*
X169763Y682548D01*
X169857Y682505D01*
X169877Y682503D01*
X169895Y682495D01*
X170062Y682477D01*
X177937Y682477D01*
X177937Y680402D01*
X177915Y680368D01*
X177855Y680285D01*
X177849Y680266D01*
X177838Y680249D01*
X177813Y680148D01*
X177783Y680050D01*
X177783Y680030D01*
X177778Y680010D01*
X177786Y679907D01*
X177789Y679804D01*
X177796Y679785D01*
X177797Y679765D01*
X177838Y679670D01*
X177873Y679573D01*
X177886Y679557D01*
X177894Y679539D01*
X177968Y679446D01*
X177973Y679437D01*
X177980Y679431D01*
X177998Y679408D01*
X178609Y678798D01*
X179554Y677383D01*
X180205Y675811D01*
X180537Y674143D01*
X180537Y662623D01*
X172662Y662623D01*
X172642Y662620D01*
X172623Y662622D01*
X172521Y662600D01*
X172419Y662583D01*
X172402Y662574D01*
X172382Y662570D01*
X172293Y662517D01*
X172202Y662468D01*
X172188Y662454D01*
X172171Y662444D01*
X172104Y662365D01*
X172033Y662290D01*
X172024Y662272D01*
X172011Y662257D01*
X171973Y662161D01*
X171929Y662067D01*
X171927Y662047D01*
X171919Y662029D01*
X171901Y661862D01*
X171901Y661099D01*
X171899Y661099D01*
G37*
%LPD*%
%LPC*%
G36*
X222699Y661099D02*
X222699Y661099D01*
X222699Y661862D01*
X222696Y661882D01*
X222698Y661901D01*
X222676Y662003D01*
X222659Y662105D01*
X222650Y662122D01*
X222646Y662142D01*
X222593Y662231D01*
X222544Y662322D01*
X222530Y662336D01*
X222520Y662353D01*
X222441Y662420D01*
X222366Y662491D01*
X222348Y662500D01*
X222333Y662513D01*
X222237Y662552D01*
X222143Y662595D01*
X222123Y662597D01*
X222105Y662605D01*
X221938Y662623D01*
X214063Y662623D01*
X214063Y674143D01*
X214395Y675811D01*
X215046Y677383D01*
X215991Y678798D01*
X216602Y679408D01*
X216613Y679424D01*
X216629Y679436D01*
X216659Y679483D01*
X216674Y679499D01*
X216687Y679526D01*
X216745Y679607D01*
X216751Y679626D01*
X216762Y679643D01*
X216787Y679744D01*
X216817Y679843D01*
X216817Y679863D01*
X216822Y679882D01*
X216814Y679985D01*
X216811Y680088D01*
X216804Y680107D01*
X216803Y680127D01*
X216762Y680222D01*
X216727Y680319D01*
X216714Y680335D01*
X216706Y680353D01*
X216663Y680407D01*
X216663Y682477D01*
X224538Y682477D01*
X224558Y682480D01*
X224577Y682478D01*
X224679Y682500D01*
X224781Y682517D01*
X224798Y682526D01*
X224818Y682530D01*
X224907Y682583D01*
X224998Y682632D01*
X225012Y682646D01*
X225029Y682656D01*
X225096Y682735D01*
X225167Y682810D01*
X225176Y682828D01*
X225189Y682843D01*
X225227Y682939D01*
X225271Y683033D01*
X225273Y683053D01*
X225281Y683071D01*
X225299Y683238D01*
X225299Y684762D01*
X225296Y684782D01*
X225298Y684801D01*
X225276Y684903D01*
X225259Y685005D01*
X225250Y685022D01*
X225246Y685042D01*
X225193Y685131D01*
X225144Y685222D01*
X225130Y685236D01*
X225120Y685253D01*
X225041Y685320D01*
X224966Y685391D01*
X224948Y685400D01*
X224933Y685413D01*
X224837Y685452D01*
X224743Y685495D01*
X224723Y685497D01*
X224705Y685505D01*
X224538Y685523D01*
X216663Y685523D01*
X216663Y687893D01*
X216663Y701433D01*
X217456Y702226D01*
X217475Y702253D01*
X222143Y706921D01*
X228457Y706921D01*
X233096Y702282D01*
X233100Y702274D01*
X233112Y702264D01*
X233144Y702224D01*
X233935Y701433D01*
X233935Y687895D01*
X233937Y687883D01*
X233937Y685523D01*
X226062Y685523D01*
X226042Y685520D01*
X226023Y685522D01*
X225921Y685500D01*
X225819Y685483D01*
X225802Y685474D01*
X225782Y685470D01*
X225693Y685417D01*
X225602Y685368D01*
X225588Y685354D01*
X225571Y685344D01*
X225504Y685265D01*
X225433Y685190D01*
X225424Y685172D01*
X225411Y685157D01*
X225373Y685061D01*
X225329Y684967D01*
X225327Y684947D01*
X225319Y684929D01*
X225301Y684762D01*
X225301Y683238D01*
X225304Y683218D01*
X225302Y683199D01*
X225324Y683097D01*
X225341Y682995D01*
X225350Y682978D01*
X225354Y682958D01*
X225407Y682869D01*
X225456Y682778D01*
X225470Y682764D01*
X225480Y682747D01*
X225559Y682680D01*
X225634Y682609D01*
X225652Y682600D01*
X225667Y682587D01*
X225763Y682548D01*
X225857Y682505D01*
X225877Y682503D01*
X225895Y682495D01*
X226062Y682477D01*
X233937Y682477D01*
X233937Y680423D01*
X231554Y678040D01*
X231501Y677966D01*
X231441Y677896D01*
X231429Y677866D01*
X231410Y677840D01*
X231383Y677753D01*
X231349Y677668D01*
X231345Y677627D01*
X231338Y677605D01*
X231339Y677573D01*
X231331Y677501D01*
X231331Y674248D01*
X231335Y674224D01*
X231337Y674199D01*
X231337Y662623D01*
X223462Y662623D01*
X223442Y662620D01*
X223423Y662622D01*
X223321Y662600D01*
X223219Y662583D01*
X223202Y662574D01*
X223182Y662570D01*
X223093Y662517D01*
X223002Y662468D01*
X222988Y662454D01*
X222971Y662444D01*
X222904Y662365D01*
X222833Y662290D01*
X222824Y662272D01*
X222811Y662257D01*
X222773Y662161D01*
X222729Y662067D01*
X222727Y662047D01*
X222719Y662029D01*
X222701Y661862D01*
X222701Y661099D01*
X222699Y661099D01*
G37*
%LPD*%
%LPC*%
G36*
X446699Y661099D02*
X446699Y661099D01*
X446699Y661862D01*
X446696Y661882D01*
X446698Y661901D01*
X446676Y662003D01*
X446659Y662105D01*
X446650Y662122D01*
X446646Y662142D01*
X446593Y662231D01*
X446544Y662322D01*
X446530Y662336D01*
X446520Y662353D01*
X446441Y662420D01*
X446366Y662491D01*
X446348Y662500D01*
X446333Y662513D01*
X446237Y662552D01*
X446143Y662595D01*
X446123Y662597D01*
X446105Y662605D01*
X445938Y662623D01*
X438063Y662623D01*
X438063Y674143D01*
X438395Y675811D01*
X439046Y677383D01*
X439991Y678798D01*
X440602Y679408D01*
X440613Y679424D01*
X440629Y679436D01*
X440659Y679483D01*
X440674Y679499D01*
X440687Y679526D01*
X440745Y679607D01*
X440751Y679626D01*
X440762Y679643D01*
X440787Y679744D01*
X440817Y679843D01*
X440817Y679862D01*
X440822Y679882D01*
X440814Y679985D01*
X440811Y680088D01*
X440804Y680107D01*
X440803Y680127D01*
X440762Y680222D01*
X440727Y680319D01*
X440714Y680335D01*
X440706Y680353D01*
X440663Y680407D01*
X440663Y682477D01*
X448538Y682477D01*
X448558Y682480D01*
X448577Y682478D01*
X448679Y682500D01*
X448781Y682517D01*
X448798Y682526D01*
X448818Y682530D01*
X448907Y682583D01*
X448998Y682632D01*
X449012Y682646D01*
X449029Y682656D01*
X449096Y682735D01*
X449167Y682810D01*
X449176Y682828D01*
X449189Y682843D01*
X449227Y682939D01*
X449271Y683033D01*
X449273Y683053D01*
X449281Y683071D01*
X449299Y683238D01*
X449299Y684762D01*
X449296Y684782D01*
X449298Y684801D01*
X449276Y684903D01*
X449259Y685005D01*
X449250Y685022D01*
X449246Y685042D01*
X449193Y685131D01*
X449144Y685222D01*
X449130Y685236D01*
X449120Y685253D01*
X449041Y685320D01*
X448966Y685391D01*
X448948Y685400D01*
X448933Y685413D01*
X448837Y685452D01*
X448743Y685495D01*
X448723Y685497D01*
X448705Y685505D01*
X448538Y685523D01*
X440663Y685523D01*
X440663Y687893D01*
X440663Y701433D01*
X441456Y702226D01*
X441475Y702253D01*
X446143Y706921D01*
X452457Y706921D01*
X457096Y702282D01*
X457100Y702274D01*
X457112Y702264D01*
X457144Y702224D01*
X457935Y701433D01*
X457935Y687895D01*
X457937Y687883D01*
X457937Y685523D01*
X450062Y685523D01*
X450042Y685520D01*
X450023Y685522D01*
X449921Y685500D01*
X449819Y685483D01*
X449802Y685474D01*
X449782Y685470D01*
X449693Y685417D01*
X449602Y685368D01*
X449588Y685354D01*
X449571Y685344D01*
X449504Y685265D01*
X449433Y685190D01*
X449424Y685172D01*
X449411Y685157D01*
X449373Y685061D01*
X449329Y684967D01*
X449327Y684947D01*
X449319Y684929D01*
X449301Y684762D01*
X449301Y683238D01*
X449304Y683218D01*
X449302Y683199D01*
X449324Y683097D01*
X449341Y682995D01*
X449350Y682978D01*
X449354Y682958D01*
X449407Y682869D01*
X449456Y682778D01*
X449470Y682764D01*
X449480Y682747D01*
X449559Y682680D01*
X449634Y682609D01*
X449652Y682600D01*
X449667Y682587D01*
X449763Y682548D01*
X449857Y682505D01*
X449877Y682503D01*
X449895Y682495D01*
X450062Y682477D01*
X457937Y682477D01*
X457937Y680423D01*
X455554Y678040D01*
X455501Y677966D01*
X455441Y677896D01*
X455429Y677866D01*
X455410Y677840D01*
X455383Y677753D01*
X455349Y677668D01*
X455345Y677627D01*
X455338Y677605D01*
X455339Y677573D01*
X455331Y677501D01*
X455331Y674248D01*
X455335Y674224D01*
X455337Y674199D01*
X455337Y662623D01*
X447462Y662623D01*
X447442Y662620D01*
X447423Y662622D01*
X447321Y662600D01*
X447219Y662583D01*
X447202Y662574D01*
X447182Y662570D01*
X447093Y662517D01*
X447002Y662468D01*
X446988Y662454D01*
X446971Y662444D01*
X446904Y662365D01*
X446833Y662290D01*
X446824Y662272D01*
X446811Y662257D01*
X446773Y662161D01*
X446729Y662067D01*
X446727Y662047D01*
X446719Y662029D01*
X446701Y661862D01*
X446701Y661099D01*
X446699Y661099D01*
G37*
%LPD*%
%LPC*%
G36*
X112463Y662623D02*
X112463Y662623D01*
X112463Y672308D01*
X112449Y672398D01*
X112441Y672489D01*
X112429Y672518D01*
X112424Y672550D01*
X112404Y672587D01*
X112403Y672595D01*
X112381Y672632D01*
X112345Y672715D01*
X112319Y672747D01*
X112308Y672768D01*
X112287Y672788D01*
X112276Y672806D01*
X112263Y672817D01*
X112240Y672846D01*
X109946Y675140D01*
X109945Y675141D01*
X104663Y680423D01*
X104663Y682477D01*
X112538Y682477D01*
X112558Y682480D01*
X112577Y682478D01*
X112679Y682500D01*
X112781Y682517D01*
X112798Y682526D01*
X112818Y682530D01*
X112907Y682583D01*
X112998Y682632D01*
X113012Y682646D01*
X113029Y682656D01*
X113096Y682735D01*
X113167Y682810D01*
X113176Y682828D01*
X113189Y682843D01*
X113227Y682939D01*
X113271Y683033D01*
X113273Y683053D01*
X113281Y683071D01*
X113299Y683238D01*
X113299Y684762D01*
X113296Y684782D01*
X113298Y684801D01*
X113276Y684903D01*
X113259Y685005D01*
X113250Y685022D01*
X113246Y685042D01*
X113193Y685131D01*
X113144Y685222D01*
X113130Y685236D01*
X113120Y685253D01*
X113041Y685320D01*
X112966Y685391D01*
X112948Y685400D01*
X112933Y685413D01*
X112837Y685452D01*
X112743Y685495D01*
X112723Y685497D01*
X112705Y685505D01*
X112538Y685523D01*
X104663Y685523D01*
X104663Y687433D01*
X104663Y701433D01*
X105456Y702226D01*
X105475Y702253D01*
X110143Y706921D01*
X116457Y706921D01*
X121096Y702282D01*
X121100Y702274D01*
X121112Y702264D01*
X121144Y702224D01*
X121935Y701433D01*
X121935Y687895D01*
X121937Y687883D01*
X121937Y685523D01*
X114062Y685523D01*
X114042Y685520D01*
X114023Y685522D01*
X113921Y685500D01*
X113819Y685483D01*
X113802Y685474D01*
X113782Y685470D01*
X113693Y685417D01*
X113602Y685368D01*
X113588Y685354D01*
X113571Y685344D01*
X113504Y685265D01*
X113433Y685190D01*
X113424Y685172D01*
X113411Y685157D01*
X113373Y685061D01*
X113329Y684967D01*
X113327Y684947D01*
X113319Y684929D01*
X113301Y684762D01*
X113301Y683238D01*
X113304Y683218D01*
X113302Y683199D01*
X113324Y683097D01*
X113341Y682995D01*
X113350Y682978D01*
X113354Y682958D01*
X113407Y682869D01*
X113456Y682778D01*
X113470Y682764D01*
X113480Y682747D01*
X113559Y682680D01*
X113634Y682609D01*
X113652Y682600D01*
X113667Y682587D01*
X113763Y682548D01*
X113857Y682505D01*
X113877Y682503D01*
X113895Y682495D01*
X114062Y682477D01*
X121948Y682477D01*
X121949Y682420D01*
X121968Y682368D01*
X121976Y682313D01*
X122009Y682253D01*
X122032Y682188D01*
X122066Y682145D01*
X122092Y682096D01*
X122141Y682049D01*
X122184Y681995D01*
X122230Y681965D01*
X122270Y681927D01*
X122332Y681898D01*
X122390Y681860D01*
X122463Y681837D01*
X122493Y681823D01*
X122514Y681821D01*
X122549Y681810D01*
X123619Y681597D01*
X125191Y680946D01*
X126606Y680001D01*
X127809Y678798D01*
X128754Y677383D01*
X129405Y675811D01*
X129737Y674143D01*
X129737Y662623D01*
X122623Y662623D01*
X122623Y679271D01*
X122612Y679342D01*
X122610Y679414D01*
X122592Y679463D01*
X122583Y679514D01*
X122550Y679577D01*
X122525Y679645D01*
X122493Y679685D01*
X122468Y679731D01*
X122416Y679781D01*
X122372Y679837D01*
X122328Y679865D01*
X122290Y679901D01*
X122225Y679931D01*
X122165Y679970D01*
X122114Y679982D01*
X122067Y680004D01*
X121996Y680012D01*
X121926Y680030D01*
X121874Y680026D01*
X121822Y680031D01*
X121752Y680016D01*
X121681Y680011D01*
X121633Y679990D01*
X121582Y679979D01*
X121520Y679942D01*
X121455Y679914D01*
X121399Y679870D01*
X121371Y679853D01*
X121356Y679835D01*
X121324Y679810D01*
X120224Y678710D01*
X120171Y678636D01*
X120111Y678566D01*
X120099Y678536D01*
X120080Y678510D01*
X120053Y678423D01*
X120019Y678338D01*
X120015Y678297D01*
X120008Y678275D01*
X120009Y678243D01*
X120001Y678171D01*
X120001Y667500D01*
X119800Y667299D01*
X119747Y667225D01*
X119687Y667155D01*
X119675Y667125D01*
X119656Y667099D01*
X119629Y667012D01*
X119595Y666927D01*
X119591Y666886D01*
X119584Y666864D01*
X119585Y666832D01*
X119577Y666760D01*
X119577Y662623D01*
X112463Y662623D01*
G37*
%LPD*%
%LPC*%
G36*
X336463Y662623D02*
X336463Y662623D01*
X336463Y672308D01*
X336449Y672398D01*
X336441Y672489D01*
X336429Y672518D01*
X336424Y672550D01*
X336404Y672587D01*
X336403Y672595D01*
X336381Y672632D01*
X336345Y672715D01*
X336319Y672747D01*
X336308Y672768D01*
X336287Y672788D01*
X336276Y672806D01*
X336263Y672817D01*
X336240Y672846D01*
X333946Y675140D01*
X333945Y675141D01*
X328663Y680423D01*
X328663Y682477D01*
X336538Y682477D01*
X336558Y682480D01*
X336577Y682478D01*
X336679Y682500D01*
X336781Y682517D01*
X336798Y682526D01*
X336818Y682530D01*
X336907Y682583D01*
X336998Y682632D01*
X337012Y682646D01*
X337029Y682656D01*
X337096Y682735D01*
X337167Y682810D01*
X337176Y682828D01*
X337189Y682843D01*
X337227Y682939D01*
X337271Y683033D01*
X337273Y683053D01*
X337281Y683071D01*
X337299Y683238D01*
X337299Y684762D01*
X337296Y684782D01*
X337298Y684801D01*
X337276Y684903D01*
X337259Y685005D01*
X337250Y685022D01*
X337246Y685042D01*
X337193Y685131D01*
X337144Y685222D01*
X337130Y685236D01*
X337120Y685253D01*
X337041Y685320D01*
X336966Y685391D01*
X336948Y685400D01*
X336933Y685413D01*
X336837Y685452D01*
X336743Y685495D01*
X336723Y685497D01*
X336705Y685505D01*
X336538Y685523D01*
X328663Y685523D01*
X328663Y687893D01*
X328663Y701433D01*
X329456Y702226D01*
X329475Y702253D01*
X334143Y706921D01*
X340457Y706921D01*
X345096Y702282D01*
X345100Y702274D01*
X345112Y702264D01*
X345144Y702224D01*
X345935Y701433D01*
X345935Y687895D01*
X345937Y687883D01*
X345937Y685523D01*
X338062Y685523D01*
X338042Y685520D01*
X338023Y685522D01*
X337921Y685500D01*
X337819Y685483D01*
X337802Y685474D01*
X337782Y685470D01*
X337693Y685417D01*
X337602Y685368D01*
X337588Y685354D01*
X337571Y685344D01*
X337504Y685265D01*
X337433Y685190D01*
X337424Y685172D01*
X337411Y685157D01*
X337373Y685061D01*
X337329Y684967D01*
X337327Y684947D01*
X337319Y684929D01*
X337301Y684762D01*
X337301Y683238D01*
X337304Y683218D01*
X337302Y683199D01*
X337324Y683097D01*
X337341Y682995D01*
X337350Y682978D01*
X337354Y682958D01*
X337407Y682869D01*
X337456Y682778D01*
X337470Y682764D01*
X337480Y682747D01*
X337559Y682680D01*
X337634Y682609D01*
X337652Y682600D01*
X337667Y682587D01*
X337763Y682548D01*
X337857Y682505D01*
X337877Y682503D01*
X337895Y682495D01*
X338062Y682477D01*
X345948Y682477D01*
X345949Y682420D01*
X345968Y682368D01*
X345976Y682313D01*
X346009Y682253D01*
X346032Y682188D01*
X346066Y682145D01*
X346092Y682096D01*
X346141Y682049D01*
X346184Y681995D01*
X346230Y681965D01*
X346270Y681927D01*
X346332Y681898D01*
X346390Y681860D01*
X346463Y681837D01*
X346493Y681823D01*
X346514Y681821D01*
X346549Y681810D01*
X347619Y681597D01*
X349191Y680946D01*
X350606Y680001D01*
X351809Y678798D01*
X352754Y677383D01*
X353405Y675811D01*
X353737Y674143D01*
X353737Y662623D01*
X346623Y662623D01*
X346623Y679271D01*
X346612Y679342D01*
X346610Y679414D01*
X346592Y679463D01*
X346583Y679514D01*
X346550Y679577D01*
X346525Y679645D01*
X346493Y679685D01*
X346468Y679731D01*
X346416Y679781D01*
X346372Y679837D01*
X346328Y679865D01*
X346290Y679901D01*
X346225Y679931D01*
X346165Y679970D01*
X346114Y679982D01*
X346067Y680004D01*
X345996Y680012D01*
X345926Y680030D01*
X345874Y680026D01*
X345822Y680031D01*
X345752Y680016D01*
X345681Y680011D01*
X345633Y679990D01*
X345582Y679979D01*
X345520Y679942D01*
X345455Y679914D01*
X345399Y679870D01*
X345371Y679853D01*
X345356Y679835D01*
X345324Y679810D01*
X344224Y678710D01*
X344171Y678636D01*
X344111Y678566D01*
X344099Y678536D01*
X344080Y678510D01*
X344053Y678423D01*
X344019Y678338D01*
X344015Y678297D01*
X344008Y678275D01*
X344009Y678243D01*
X344001Y678171D01*
X344001Y667500D01*
X343800Y667299D01*
X343747Y667225D01*
X343687Y667155D01*
X343675Y667125D01*
X343656Y667099D01*
X343629Y667012D01*
X343595Y666927D01*
X343591Y666886D01*
X343584Y666864D01*
X343585Y666832D01*
X343577Y666760D01*
X343577Y662623D01*
X336463Y662623D01*
G37*
%LPD*%
%LPC*%
G36*
X264863Y662623D02*
X264863Y662623D01*
X264863Y674143D01*
X265195Y675811D01*
X265846Y677383D01*
X266791Y678798D01*
X267994Y680001D01*
X269409Y680946D01*
X270981Y681597D01*
X272051Y681810D01*
X272115Y681834D01*
X272182Y681848D01*
X272229Y681877D01*
X272281Y681896D01*
X272334Y681939D01*
X272393Y681974D01*
X272429Y682016D01*
X272472Y682051D01*
X272508Y682109D01*
X272553Y682161D01*
X272573Y682213D01*
X272603Y682259D01*
X272619Y682326D01*
X272645Y682390D01*
X272653Y682466D01*
X272656Y682477D01*
X280538Y682477D01*
X280558Y682480D01*
X280577Y682478D01*
X280679Y682500D01*
X280781Y682517D01*
X280798Y682526D01*
X280818Y682530D01*
X280907Y682583D01*
X280998Y682632D01*
X281012Y682646D01*
X281029Y682656D01*
X281096Y682735D01*
X281167Y682810D01*
X281176Y682828D01*
X281189Y682843D01*
X281227Y682939D01*
X281271Y683033D01*
X281273Y683053D01*
X281281Y683071D01*
X281299Y683238D01*
X281299Y684762D01*
X281296Y684782D01*
X281298Y684801D01*
X281276Y684903D01*
X281259Y685005D01*
X281250Y685022D01*
X281246Y685042D01*
X281193Y685131D01*
X281144Y685222D01*
X281130Y685236D01*
X281120Y685253D01*
X281041Y685320D01*
X280966Y685391D01*
X280948Y685400D01*
X280933Y685413D01*
X280837Y685452D01*
X280743Y685495D01*
X280723Y685497D01*
X280705Y685505D01*
X280538Y685523D01*
X272663Y685523D01*
X272663Y687893D01*
X272663Y701433D01*
X273456Y702226D01*
X273475Y702253D01*
X278143Y706921D01*
X284457Y706921D01*
X289096Y702282D01*
X289100Y702274D01*
X289112Y702264D01*
X289144Y702224D01*
X289935Y701433D01*
X289935Y687895D01*
X289937Y687883D01*
X289937Y685523D01*
X282062Y685523D01*
X282042Y685520D01*
X282023Y685522D01*
X281921Y685500D01*
X281819Y685483D01*
X281802Y685474D01*
X281782Y685470D01*
X281693Y685417D01*
X281602Y685368D01*
X281588Y685354D01*
X281571Y685344D01*
X281504Y685265D01*
X281433Y685190D01*
X281424Y685172D01*
X281411Y685157D01*
X281373Y685061D01*
X281329Y684967D01*
X281327Y684947D01*
X281319Y684929D01*
X281301Y684762D01*
X281301Y683238D01*
X281304Y683218D01*
X281302Y683199D01*
X281324Y683097D01*
X281341Y682995D01*
X281350Y682978D01*
X281354Y682958D01*
X281407Y682869D01*
X281456Y682778D01*
X281470Y682764D01*
X281480Y682747D01*
X281559Y682680D01*
X281634Y682609D01*
X281652Y682600D01*
X281667Y682587D01*
X281763Y682548D01*
X281857Y682505D01*
X281877Y682503D01*
X281895Y682495D01*
X282062Y682477D01*
X289937Y682477D01*
X289937Y680423D01*
X284727Y675213D01*
X284718Y675208D01*
X284715Y675205D01*
X284695Y675185D01*
X284640Y675140D01*
X282360Y672860D01*
X282307Y672786D01*
X282283Y672759D01*
X282268Y672743D01*
X282267Y672739D01*
X282247Y672716D01*
X282235Y672686D01*
X282216Y672660D01*
X282189Y672573D01*
X282189Y672571D01*
X282165Y672520D01*
X282164Y672509D01*
X282155Y672488D01*
X282151Y672447D01*
X282144Y672425D01*
X282145Y672393D01*
X282137Y672322D01*
X282137Y662623D01*
X275023Y662623D01*
X275023Y666760D01*
X275008Y666851D01*
X275001Y666941D01*
X274989Y666971D01*
X274983Y667003D01*
X274941Y667084D01*
X274905Y667168D01*
X274879Y667200D01*
X274868Y667221D01*
X274845Y667243D01*
X274800Y667299D01*
X274599Y667500D01*
X274599Y678171D01*
X274585Y678261D01*
X274577Y678352D01*
X274565Y678382D01*
X274560Y678414D01*
X274517Y678494D01*
X274481Y678579D01*
X274455Y678611D01*
X274444Y678631D01*
X274421Y678653D01*
X274376Y678710D01*
X273276Y679810D01*
X273218Y679851D01*
X273166Y679901D01*
X273119Y679923D01*
X273077Y679953D01*
X273008Y679974D01*
X272943Y680004D01*
X272891Y680010D01*
X272841Y680025D01*
X272770Y680024D01*
X272699Y680031D01*
X272648Y680020D01*
X272596Y680019D01*
X272528Y679994D01*
X272458Y679979D01*
X272414Y679953D01*
X272365Y679935D01*
X272309Y679890D01*
X272247Y679853D01*
X272213Y679813D01*
X272173Y679781D01*
X272134Y679721D01*
X272087Y679666D01*
X272068Y679618D01*
X272040Y679574D01*
X272022Y679505D01*
X271995Y679438D01*
X271987Y679367D01*
X271979Y679336D01*
X271981Y679312D01*
X271977Y679271D01*
X271977Y662623D01*
X264863Y662623D01*
G37*
%LPD*%
%LPC*%
G36*
X488863Y662623D02*
X488863Y662623D01*
X488863Y674143D01*
X489195Y675811D01*
X489846Y677383D01*
X490791Y678798D01*
X491994Y680001D01*
X493409Y680946D01*
X494981Y681597D01*
X496051Y681810D01*
X496115Y681834D01*
X496182Y681848D01*
X496229Y681877D01*
X496281Y681896D01*
X496334Y681939D01*
X496393Y681974D01*
X496429Y682016D01*
X496472Y682051D01*
X496508Y682109D01*
X496553Y682161D01*
X496573Y682213D01*
X496603Y682259D01*
X496619Y682326D01*
X496645Y682390D01*
X496653Y682466D01*
X496656Y682477D01*
X504538Y682477D01*
X504558Y682480D01*
X504577Y682478D01*
X504679Y682500D01*
X504781Y682517D01*
X504798Y682526D01*
X504818Y682530D01*
X504907Y682583D01*
X504998Y682632D01*
X505012Y682646D01*
X505029Y682656D01*
X505096Y682735D01*
X505167Y682810D01*
X505176Y682828D01*
X505189Y682843D01*
X505227Y682939D01*
X505271Y683033D01*
X505273Y683053D01*
X505281Y683071D01*
X505299Y683238D01*
X505299Y684762D01*
X505296Y684782D01*
X505298Y684801D01*
X505276Y684903D01*
X505259Y685005D01*
X505250Y685022D01*
X505246Y685042D01*
X505193Y685131D01*
X505144Y685222D01*
X505130Y685236D01*
X505120Y685253D01*
X505041Y685320D01*
X504966Y685391D01*
X504948Y685400D01*
X504933Y685413D01*
X504837Y685452D01*
X504743Y685495D01*
X504723Y685497D01*
X504705Y685505D01*
X504538Y685523D01*
X496663Y685523D01*
X496663Y687473D01*
X496663Y701433D01*
X497456Y702226D01*
X497475Y702253D01*
X502143Y706921D01*
X508457Y706921D01*
X513096Y702282D01*
X513100Y702274D01*
X513112Y702264D01*
X513144Y702224D01*
X513935Y701433D01*
X513935Y687895D01*
X513937Y687883D01*
X513937Y685523D01*
X506062Y685523D01*
X506042Y685520D01*
X506023Y685522D01*
X505921Y685500D01*
X505819Y685483D01*
X505802Y685474D01*
X505782Y685470D01*
X505693Y685417D01*
X505602Y685368D01*
X505588Y685354D01*
X505571Y685344D01*
X505504Y685265D01*
X505433Y685190D01*
X505424Y685172D01*
X505411Y685157D01*
X505373Y685061D01*
X505329Y684967D01*
X505327Y684947D01*
X505319Y684929D01*
X505301Y684762D01*
X505301Y683238D01*
X505304Y683218D01*
X505302Y683199D01*
X505324Y683097D01*
X505341Y682995D01*
X505350Y682978D01*
X505354Y682958D01*
X505407Y682869D01*
X505456Y682778D01*
X505470Y682764D01*
X505480Y682747D01*
X505559Y682680D01*
X505634Y682609D01*
X505652Y682600D01*
X505667Y682587D01*
X505763Y682548D01*
X505857Y682505D01*
X505877Y682503D01*
X505895Y682495D01*
X506062Y682477D01*
X513937Y682477D01*
X513937Y680423D01*
X508736Y675222D01*
X508733Y675219D01*
X508712Y675208D01*
X508709Y675205D01*
X508689Y675185D01*
X508634Y675140D01*
X506360Y672866D01*
X506307Y672792D01*
X506247Y672722D01*
X506235Y672692D01*
X506216Y672666D01*
X506189Y672579D01*
X506170Y672531D01*
X506165Y672520D01*
X506165Y672518D01*
X506155Y672494D01*
X506151Y672453D01*
X506144Y672431D01*
X506145Y672399D01*
X506137Y672328D01*
X506137Y662623D01*
X499023Y662623D01*
X499023Y666760D01*
X499008Y666851D01*
X499001Y666941D01*
X498989Y666971D01*
X498983Y667003D01*
X498941Y667084D01*
X498905Y667168D01*
X498879Y667200D01*
X498868Y667221D01*
X498845Y667243D01*
X498800Y667299D01*
X498599Y667500D01*
X498599Y678171D01*
X498585Y678261D01*
X498577Y678352D01*
X498565Y678382D01*
X498560Y678414D01*
X498517Y678495D01*
X498481Y678579D01*
X498455Y678611D01*
X498444Y678631D01*
X498421Y678654D01*
X498376Y678710D01*
X497276Y679810D01*
X497218Y679851D01*
X497166Y679901D01*
X497119Y679923D01*
X497077Y679953D01*
X497008Y679974D01*
X496943Y680004D01*
X496891Y680010D01*
X496841Y680025D01*
X496770Y680024D01*
X496699Y680031D01*
X496648Y680020D01*
X496596Y680019D01*
X496528Y679994D01*
X496458Y679979D01*
X496414Y679953D01*
X496365Y679935D01*
X496309Y679890D01*
X496247Y679853D01*
X496213Y679813D01*
X496173Y679781D01*
X496134Y679721D01*
X496087Y679666D01*
X496068Y679618D01*
X496040Y679574D01*
X496022Y679505D01*
X495995Y679438D01*
X495987Y679367D01*
X495979Y679335D01*
X495981Y679312D01*
X495977Y679271D01*
X495977Y662623D01*
X488863Y662623D01*
G37*
%LPD*%
%LPC*%
G36*
X74029Y383193D02*
X74029Y383193D01*
X70388Y384701D01*
X67601Y387488D01*
X66093Y391129D01*
X66093Y407371D01*
X67601Y411012D01*
X70388Y413799D01*
X74029Y415307D01*
X77971Y415307D01*
X81612Y413799D01*
X84399Y411012D01*
X85907Y407371D01*
X85907Y391129D01*
X84399Y387488D01*
X81612Y384701D01*
X77971Y383193D01*
X74029Y383193D01*
G37*
%LPD*%
%LPC*%
G36*
X150229Y383193D02*
X150229Y383193D01*
X146588Y384701D01*
X143801Y387488D01*
X142293Y391129D01*
X142293Y407371D01*
X143801Y411012D01*
X146588Y413799D01*
X150229Y415307D01*
X154171Y415307D01*
X157812Y413799D01*
X160599Y411012D01*
X162107Y407371D01*
X162107Y391129D01*
X160599Y387488D01*
X157812Y384701D01*
X154171Y383193D01*
X150229Y383193D01*
G37*
%LPD*%
%LPC*%
G36*
X201029Y383193D02*
X201029Y383193D01*
X197388Y384701D01*
X194601Y387488D01*
X193093Y391129D01*
X193093Y407371D01*
X194601Y411012D01*
X197388Y413799D01*
X201029Y415307D01*
X204971Y415307D01*
X208612Y413799D01*
X211399Y411012D01*
X212907Y407371D01*
X212907Y391129D01*
X211399Y387488D01*
X208612Y384701D01*
X204971Y383193D01*
X201029Y383193D01*
G37*
%LPD*%
%LPC*%
G36*
X226429Y383193D02*
X226429Y383193D01*
X222788Y384701D01*
X220001Y387488D01*
X218493Y391129D01*
X218493Y407371D01*
X220001Y411012D01*
X222788Y413799D01*
X226429Y415307D01*
X230371Y415307D01*
X234012Y413799D01*
X236799Y411012D01*
X238307Y407371D01*
X238307Y391129D01*
X236799Y387488D01*
X234012Y384701D01*
X230371Y383193D01*
X226429Y383193D01*
G37*
%LPD*%
%LPC*%
G36*
X99429Y383193D02*
X99429Y383193D01*
X95788Y384701D01*
X93001Y387488D01*
X91493Y391129D01*
X91493Y407371D01*
X93001Y411012D01*
X95788Y413799D01*
X99429Y415307D01*
X103371Y415307D01*
X107012Y413799D01*
X109799Y411012D01*
X111307Y407371D01*
X111307Y391129D01*
X109799Y387488D01*
X107012Y384701D01*
X103371Y383193D01*
X99429Y383193D01*
G37*
%LPD*%
%LPC*%
G36*
X175629Y383193D02*
X175629Y383193D01*
X171988Y384701D01*
X169201Y387488D01*
X167693Y391129D01*
X167693Y407371D01*
X169201Y411012D01*
X171988Y413799D01*
X175629Y415307D01*
X179571Y415307D01*
X183212Y413799D01*
X185999Y411012D01*
X187507Y407371D01*
X187507Y391129D01*
X185999Y387488D01*
X183212Y384701D01*
X179571Y383193D01*
X175629Y383193D01*
G37*
%LPD*%
%LPC*%
G36*
X48629Y383193D02*
X48629Y383193D01*
X44988Y384701D01*
X42201Y387488D01*
X40693Y391129D01*
X40693Y407371D01*
X42201Y411012D01*
X44988Y413799D01*
X48629Y415307D01*
X52571Y415307D01*
X56212Y413799D01*
X58999Y411012D01*
X60507Y407371D01*
X60507Y391129D01*
X58999Y387488D01*
X56212Y384701D01*
X52571Y383193D01*
X48629Y383193D01*
G37*
%LPD*%
%LPC*%
G36*
X124829Y383193D02*
X124829Y383193D01*
X121188Y384701D01*
X118401Y387488D01*
X116893Y391129D01*
X116893Y407371D01*
X118401Y411012D01*
X121188Y413799D01*
X124829Y415307D01*
X128771Y415307D01*
X132412Y413799D01*
X135199Y411012D01*
X136707Y407371D01*
X136707Y391129D01*
X135199Y387488D01*
X132412Y384701D01*
X128771Y383193D01*
X124829Y383193D01*
G37*
%LPD*%
%LPC*%
G36*
X150229Y471693D02*
X150229Y471693D01*
X146588Y473201D01*
X143801Y475988D01*
X142293Y479629D01*
X142293Y483571D01*
X143801Y487212D01*
X144353Y487764D01*
X144406Y487837D01*
X144466Y487907D01*
X144478Y487937D01*
X144497Y487963D01*
X144524Y488050D01*
X144558Y488135D01*
X144562Y488176D01*
X144569Y488198D01*
X144568Y488231D01*
X144576Y488302D01*
X144576Y498418D01*
X144578Y498424D01*
X144576Y498437D01*
X144576Y498448D01*
X144579Y498475D01*
X144579Y499957D01*
X145627Y501004D01*
X145638Y501019D01*
X147953Y503335D01*
X147958Y503338D01*
X147967Y503348D01*
X147974Y503356D01*
X147996Y503373D01*
X149043Y504421D01*
X150525Y504421D01*
X150543Y504424D01*
X153818Y504424D01*
X153824Y504422D01*
X153837Y504424D01*
X153848Y504424D01*
X153875Y504421D01*
X155357Y504421D01*
X156404Y503373D01*
X156419Y503362D01*
X158735Y501047D01*
X158738Y501042D01*
X158748Y501033D01*
X158756Y501026D01*
X158773Y501004D01*
X159821Y499957D01*
X159821Y498475D01*
X159824Y498457D01*
X159824Y488302D01*
X159838Y488212D01*
X159846Y488121D01*
X159858Y488091D01*
X159863Y488059D01*
X159906Y487978D01*
X159942Y487895D01*
X159968Y487862D01*
X159979Y487842D01*
X160002Y487820D01*
X160047Y487764D01*
X160599Y487212D01*
X162107Y483571D01*
X162107Y479629D01*
X160599Y475988D01*
X157812Y473201D01*
X154171Y471693D01*
X150229Y471693D01*
G37*
%LPD*%
%LPC*%
G36*
X74029Y471693D02*
X74029Y471693D01*
X70388Y473201D01*
X67601Y475988D01*
X66093Y479629D01*
X66093Y483571D01*
X67601Y487212D01*
X68153Y487764D01*
X68206Y487837D01*
X68266Y487907D01*
X68278Y487937D01*
X68297Y487963D01*
X68324Y488050D01*
X68358Y488135D01*
X68362Y488176D01*
X68369Y488198D01*
X68368Y488231D01*
X68376Y488302D01*
X68376Y498418D01*
X68378Y498424D01*
X68376Y498437D01*
X68376Y498448D01*
X68379Y498475D01*
X68379Y499957D01*
X69427Y501004D01*
X69438Y501019D01*
X71753Y503335D01*
X71758Y503338D01*
X71767Y503348D01*
X71774Y503356D01*
X71796Y503373D01*
X72843Y504421D01*
X74325Y504421D01*
X74343Y504424D01*
X77618Y504424D01*
X77624Y504422D01*
X77637Y504424D01*
X77648Y504424D01*
X77675Y504421D01*
X79157Y504421D01*
X80204Y503373D01*
X80219Y503362D01*
X82535Y501047D01*
X82538Y501042D01*
X82548Y501033D01*
X82556Y501026D01*
X82573Y501004D01*
X83621Y499957D01*
X83621Y498475D01*
X83624Y498457D01*
X83624Y488302D01*
X83638Y488212D01*
X83646Y488121D01*
X83658Y488091D01*
X83663Y488059D01*
X83706Y487978D01*
X83742Y487895D01*
X83768Y487862D01*
X83779Y487842D01*
X83802Y487820D01*
X83847Y487764D01*
X84399Y487212D01*
X85907Y483571D01*
X85907Y479629D01*
X84399Y475988D01*
X81612Y473201D01*
X77971Y471693D01*
X74029Y471693D01*
G37*
%LPD*%
%LPC*%
G36*
X48629Y471693D02*
X48629Y471693D01*
X44988Y473201D01*
X42201Y475988D01*
X40693Y479629D01*
X40693Y483571D01*
X42201Y487212D01*
X42753Y487763D01*
X42807Y487838D01*
X42866Y487907D01*
X42878Y487937D01*
X42897Y487963D01*
X42924Y488050D01*
X42958Y488135D01*
X42962Y488176D01*
X42969Y488198D01*
X42968Y488231D01*
X42976Y488302D01*
X42976Y498417D01*
X42977Y498422D01*
X42976Y498435D01*
X42976Y498448D01*
X42979Y498475D01*
X42979Y499957D01*
X44027Y501004D01*
X44038Y501019D01*
X46353Y503335D01*
X46358Y503338D01*
X46367Y503348D01*
X46374Y503356D01*
X46396Y503373D01*
X47443Y504421D01*
X48925Y504421D01*
X48943Y504424D01*
X52217Y504424D01*
X52222Y504423D01*
X52235Y504424D01*
X52248Y504424D01*
X52275Y504421D01*
X53757Y504421D01*
X54804Y503373D01*
X54819Y503362D01*
X57135Y501047D01*
X57138Y501042D01*
X57148Y501033D01*
X57156Y501026D01*
X57173Y501004D01*
X58221Y499957D01*
X58221Y498475D01*
X58224Y498457D01*
X58224Y488302D01*
X58238Y488212D01*
X58246Y488121D01*
X58258Y488091D01*
X58263Y488059D01*
X58306Y487978D01*
X58342Y487894D01*
X58368Y487862D01*
X58379Y487842D01*
X58402Y487820D01*
X58447Y487763D01*
X58999Y487212D01*
X60507Y483571D01*
X60507Y479629D01*
X58999Y475988D01*
X56212Y473201D01*
X52571Y471693D01*
X48629Y471693D01*
G37*
%LPD*%
%LPC*%
G36*
X99429Y471693D02*
X99429Y471693D01*
X95788Y473201D01*
X93001Y475988D01*
X91493Y479629D01*
X91493Y483571D01*
X93001Y487212D01*
X93553Y487764D01*
X93606Y487837D01*
X93666Y487907D01*
X93678Y487937D01*
X93697Y487963D01*
X93724Y488050D01*
X93758Y488135D01*
X93762Y488176D01*
X93769Y488198D01*
X93768Y488231D01*
X93776Y488302D01*
X93776Y498418D01*
X93778Y498424D01*
X93776Y498437D01*
X93776Y498448D01*
X93779Y498475D01*
X93779Y499957D01*
X94827Y501004D01*
X94838Y501019D01*
X97153Y503334D01*
X97157Y503337D01*
X97166Y503347D01*
X97174Y503356D01*
X97196Y503373D01*
X98243Y504421D01*
X99725Y504421D01*
X99743Y504424D01*
X103018Y504424D01*
X103024Y504422D01*
X103037Y504424D01*
X103048Y504424D01*
X103075Y504421D01*
X104557Y504421D01*
X105604Y503373D01*
X105619Y503362D01*
X107934Y501047D01*
X107937Y501043D01*
X107947Y501034D01*
X107956Y501026D01*
X107973Y501004D01*
X109021Y499957D01*
X109021Y498475D01*
X109024Y498457D01*
X109024Y488302D01*
X109038Y488212D01*
X109046Y488121D01*
X109058Y488091D01*
X109063Y488059D01*
X109106Y487978D01*
X109142Y487895D01*
X109168Y487862D01*
X109179Y487842D01*
X109202Y487820D01*
X109247Y487764D01*
X109799Y487212D01*
X111307Y483571D01*
X111307Y479629D01*
X109799Y475988D01*
X107012Y473201D01*
X103371Y471693D01*
X99429Y471693D01*
G37*
%LPD*%
%LPC*%
G36*
X175629Y471693D02*
X175629Y471693D01*
X171988Y473201D01*
X169201Y475988D01*
X167693Y479629D01*
X167693Y483571D01*
X169201Y487212D01*
X169753Y487764D01*
X169806Y487837D01*
X169866Y487907D01*
X169878Y487937D01*
X169897Y487963D01*
X169924Y488050D01*
X169958Y488135D01*
X169962Y488176D01*
X169969Y488198D01*
X169968Y488231D01*
X169976Y488302D01*
X169976Y498418D01*
X169978Y498424D01*
X169976Y498437D01*
X169976Y498448D01*
X169979Y498475D01*
X169979Y499957D01*
X171027Y501004D01*
X171038Y501019D01*
X173353Y503334D01*
X173357Y503337D01*
X173366Y503347D01*
X173374Y503356D01*
X173396Y503373D01*
X174443Y504421D01*
X175925Y504421D01*
X175943Y504424D01*
X179218Y504424D01*
X179224Y504422D01*
X179237Y504424D01*
X179248Y504424D01*
X179275Y504421D01*
X180757Y504421D01*
X181804Y503373D01*
X181819Y503362D01*
X184134Y501047D01*
X184137Y501043D01*
X184147Y501034D01*
X184156Y501026D01*
X184173Y501004D01*
X185221Y499957D01*
X185221Y498475D01*
X185224Y498457D01*
X185224Y488302D01*
X185238Y488212D01*
X185246Y488121D01*
X185258Y488091D01*
X185263Y488059D01*
X185306Y487978D01*
X185342Y487895D01*
X185368Y487862D01*
X185379Y487842D01*
X185402Y487820D01*
X185447Y487764D01*
X185999Y487212D01*
X187507Y483571D01*
X187507Y479629D01*
X185999Y475988D01*
X183212Y473201D01*
X179571Y471693D01*
X175629Y471693D01*
G37*
%LPD*%
%LPC*%
G36*
X201029Y471693D02*
X201029Y471693D01*
X197388Y473201D01*
X194601Y475988D01*
X193093Y479629D01*
X193093Y483571D01*
X194601Y487212D01*
X195153Y487764D01*
X195206Y487837D01*
X195266Y487907D01*
X195278Y487937D01*
X195297Y487963D01*
X195324Y488050D01*
X195358Y488135D01*
X195362Y488176D01*
X195369Y488198D01*
X195368Y488231D01*
X195376Y488302D01*
X195376Y498418D01*
X195378Y498424D01*
X195376Y498437D01*
X195376Y498448D01*
X195379Y498475D01*
X195379Y499957D01*
X196427Y501004D01*
X196438Y501019D01*
X198753Y503334D01*
X198757Y503337D01*
X198766Y503347D01*
X198774Y503356D01*
X198796Y503373D01*
X199843Y504421D01*
X201325Y504421D01*
X201343Y504424D01*
X204618Y504424D01*
X204624Y504422D01*
X204637Y504424D01*
X204648Y504424D01*
X204675Y504421D01*
X206157Y504421D01*
X207204Y503373D01*
X207219Y503362D01*
X209534Y501047D01*
X209537Y501043D01*
X209547Y501034D01*
X209556Y501026D01*
X209573Y501004D01*
X210621Y499957D01*
X210621Y498475D01*
X210624Y498457D01*
X210624Y488302D01*
X210638Y488212D01*
X210646Y488121D01*
X210658Y488091D01*
X210663Y488059D01*
X210706Y487978D01*
X210742Y487895D01*
X210768Y487862D01*
X210779Y487842D01*
X210802Y487820D01*
X210847Y487764D01*
X211399Y487212D01*
X212907Y483571D01*
X212907Y479629D01*
X211399Y475988D01*
X208612Y473201D01*
X204971Y471693D01*
X201029Y471693D01*
G37*
%LPD*%
%LPC*%
G36*
X226429Y471693D02*
X226429Y471693D01*
X222788Y473201D01*
X220001Y475988D01*
X218493Y479629D01*
X218493Y483571D01*
X220001Y487212D01*
X220553Y487764D01*
X220606Y487837D01*
X220666Y487907D01*
X220678Y487937D01*
X220697Y487963D01*
X220724Y488050D01*
X220758Y488135D01*
X220762Y488176D01*
X220769Y488198D01*
X220768Y488231D01*
X220776Y488302D01*
X220776Y498418D01*
X220778Y498424D01*
X220776Y498437D01*
X220776Y498448D01*
X220779Y498475D01*
X220779Y499957D01*
X221827Y501004D01*
X221838Y501019D01*
X224153Y503334D01*
X224157Y503337D01*
X224166Y503347D01*
X224174Y503356D01*
X224196Y503373D01*
X225243Y504421D01*
X226725Y504421D01*
X226743Y504424D01*
X230018Y504424D01*
X230024Y504422D01*
X230037Y504424D01*
X230048Y504424D01*
X230075Y504421D01*
X231557Y504421D01*
X232604Y503373D01*
X232619Y503362D01*
X234934Y501047D01*
X234937Y501043D01*
X234947Y501034D01*
X234956Y501026D01*
X234973Y501004D01*
X236021Y499957D01*
X236021Y498475D01*
X236024Y498457D01*
X236024Y488302D01*
X236038Y488212D01*
X236046Y488121D01*
X236058Y488091D01*
X236063Y488059D01*
X236106Y487978D01*
X236142Y487895D01*
X236168Y487862D01*
X236179Y487842D01*
X236202Y487820D01*
X236247Y487764D01*
X236799Y487212D01*
X238307Y483571D01*
X238307Y479629D01*
X236799Y475988D01*
X234012Y473201D01*
X230371Y471693D01*
X226429Y471693D01*
G37*
%LPD*%
%LPC*%
G36*
X124829Y471693D02*
X124829Y471693D01*
X121188Y473201D01*
X118401Y475988D01*
X116893Y479629D01*
X116893Y483571D01*
X118401Y487212D01*
X118953Y487764D01*
X119006Y487837D01*
X119066Y487907D01*
X119078Y487937D01*
X119097Y487963D01*
X119124Y488050D01*
X119158Y488135D01*
X119162Y488176D01*
X119169Y488198D01*
X119168Y488231D01*
X119176Y488302D01*
X119176Y498418D01*
X119178Y498424D01*
X119176Y498437D01*
X119176Y498448D01*
X119179Y498475D01*
X119179Y499957D01*
X120227Y501004D01*
X120238Y501019D01*
X122553Y503334D01*
X122557Y503337D01*
X122566Y503347D01*
X122574Y503356D01*
X122596Y503373D01*
X123643Y504421D01*
X125125Y504421D01*
X125143Y504424D01*
X128418Y504424D01*
X128424Y504422D01*
X128437Y504424D01*
X128448Y504424D01*
X128475Y504421D01*
X129957Y504421D01*
X131004Y503373D01*
X131019Y503362D01*
X133334Y501047D01*
X133337Y501043D01*
X133347Y501034D01*
X133356Y501026D01*
X133373Y501004D01*
X134421Y499957D01*
X134421Y498475D01*
X134424Y498457D01*
X134424Y488302D01*
X134438Y488212D01*
X134446Y488121D01*
X134458Y488091D01*
X134463Y488059D01*
X134506Y487978D01*
X134542Y487895D01*
X134568Y487862D01*
X134579Y487842D01*
X134602Y487820D01*
X134647Y487764D01*
X135199Y487212D01*
X136707Y483571D01*
X136707Y479629D01*
X135199Y475988D01*
X132412Y473201D01*
X128771Y471693D01*
X124829Y471693D01*
G37*
%LPD*%
%LPC*%
G36*
X372275Y328917D02*
X372275Y328917D01*
X369194Y330193D01*
X366835Y332552D01*
X365559Y335633D01*
X365559Y338967D01*
X366835Y342048D01*
X369194Y344407D01*
X372275Y345683D01*
X389325Y345683D01*
X392406Y344407D01*
X394765Y342048D01*
X396041Y338967D01*
X396041Y335633D01*
X394765Y332552D01*
X392406Y330193D01*
X389325Y328917D01*
X372275Y328917D01*
G37*
%LPD*%
%LPC*%
G36*
X356033Y531859D02*
X356033Y531859D01*
X352952Y533135D01*
X350593Y535494D01*
X349317Y538575D01*
X349317Y555625D01*
X350593Y558706D01*
X352952Y561065D01*
X356033Y562341D01*
X359367Y562341D01*
X362448Y561065D01*
X364807Y558706D01*
X366083Y555625D01*
X366083Y538575D01*
X364807Y535494D01*
X362448Y533135D01*
X359367Y531859D01*
X356033Y531859D01*
G37*
%LPD*%
%LPC*%
G36*
X296075Y328917D02*
X296075Y328917D01*
X292994Y330193D01*
X290635Y332552D01*
X289359Y335633D01*
X289359Y338967D01*
X290635Y342048D01*
X292994Y344407D01*
X296075Y345683D01*
X313125Y345683D01*
X316206Y344407D01*
X318565Y342048D01*
X319841Y338967D01*
X319841Y335633D01*
X318565Y332552D01*
X316206Y330193D01*
X313125Y328917D01*
X296075Y328917D01*
G37*
%LPD*%
%LPC*%
G36*
X416757Y770725D02*
X416757Y770725D01*
X412613Y772442D01*
X409442Y775613D01*
X407725Y779757D01*
X407725Y784243D01*
X409442Y788387D01*
X412613Y791558D01*
X416757Y793275D01*
X421243Y793275D01*
X425387Y791558D01*
X428558Y788387D01*
X430275Y784243D01*
X430275Y779757D01*
X428558Y775613D01*
X425387Y772442D01*
X421243Y770725D01*
X416757Y770725D01*
G37*
%LPD*%
%LPC*%
G36*
X217757Y770725D02*
X217757Y770725D01*
X213613Y772442D01*
X210442Y775613D01*
X208725Y779757D01*
X208725Y784243D01*
X210442Y788387D01*
X213613Y791558D01*
X217757Y793275D01*
X222243Y793275D01*
X226387Y791558D01*
X229558Y788387D01*
X231275Y784243D01*
X231275Y779757D01*
X229558Y775613D01*
X226387Y772442D01*
X222243Y770725D01*
X217757Y770725D01*
G37*
%LPD*%
%LPC*%
G36*
X366757Y770725D02*
X366757Y770725D01*
X362613Y772442D01*
X359442Y775613D01*
X357725Y779757D01*
X357725Y784243D01*
X359442Y788387D01*
X362613Y791558D01*
X366757Y793275D01*
X371243Y793275D01*
X375387Y791558D01*
X378558Y788387D01*
X380275Y784243D01*
X380275Y779757D01*
X378558Y775613D01*
X375387Y772442D01*
X371243Y770725D01*
X366757Y770725D01*
G37*
%LPD*%
%LPC*%
G36*
X117757Y770725D02*
X117757Y770725D01*
X113613Y772442D01*
X110442Y775613D01*
X108725Y779757D01*
X108725Y784243D01*
X110442Y788387D01*
X113613Y791558D01*
X117757Y793275D01*
X122243Y793275D01*
X126387Y791558D01*
X129558Y788387D01*
X131275Y784243D01*
X131275Y779757D01*
X129558Y775613D01*
X126387Y772442D01*
X122243Y770725D01*
X117757Y770725D01*
G37*
%LPD*%
%LPC*%
G36*
X167757Y770725D02*
X167757Y770725D01*
X163613Y772442D01*
X160442Y775613D01*
X158725Y779757D01*
X158725Y784243D01*
X160442Y788387D01*
X163613Y791558D01*
X167757Y793275D01*
X172243Y793275D01*
X176387Y791558D01*
X179558Y788387D01*
X181275Y784243D01*
X181275Y779757D01*
X179558Y775613D01*
X176387Y772442D01*
X172243Y770725D01*
X167757Y770725D01*
G37*
%LPD*%
%LPC*%
G36*
X267757Y770725D02*
X267757Y770725D01*
X263613Y772442D01*
X260442Y775613D01*
X258725Y779757D01*
X258725Y784243D01*
X260442Y788387D01*
X263613Y791558D01*
X267757Y793275D01*
X272243Y793275D01*
X276387Y791558D01*
X279558Y788387D01*
X281275Y784243D01*
X281275Y779757D01*
X279558Y775613D01*
X276387Y772442D01*
X272243Y770725D01*
X267757Y770725D01*
G37*
%LPD*%
%LPC*%
G36*
X466757Y770725D02*
X466757Y770725D01*
X462613Y772442D01*
X459442Y775613D01*
X457725Y779757D01*
X457725Y784243D01*
X459442Y788387D01*
X462613Y791558D01*
X466757Y793275D01*
X471243Y793275D01*
X475387Y791558D01*
X478558Y788387D01*
X480275Y784243D01*
X480275Y779757D01*
X478558Y775613D01*
X475387Y772442D01*
X471243Y770725D01*
X466757Y770725D01*
G37*
%LPD*%
%LPC*%
G36*
X516757Y770725D02*
X516757Y770725D01*
X512613Y772442D01*
X509442Y775613D01*
X507725Y779757D01*
X507725Y784243D01*
X509442Y788387D01*
X512613Y791558D01*
X516757Y793275D01*
X521243Y793275D01*
X525387Y791558D01*
X528558Y788387D01*
X530275Y784243D01*
X530275Y779757D01*
X528558Y775613D01*
X525387Y772442D01*
X521243Y770725D01*
X516757Y770725D01*
G37*
%LPD*%
%LPC*%
G36*
X478484Y531283D02*
X478484Y531283D01*
X475683Y532443D01*
X473539Y534587D01*
X472379Y537388D01*
X472379Y552612D01*
X473539Y555413D01*
X475683Y557557D01*
X478484Y558717D01*
X481516Y558717D01*
X484317Y557557D01*
X486461Y555413D01*
X487621Y552612D01*
X487621Y537388D01*
X486461Y534587D01*
X484317Y532443D01*
X481516Y531283D01*
X478484Y531283D01*
G37*
%LPD*%
%LPC*%
G36*
X478484Y455083D02*
X478484Y455083D01*
X475683Y456243D01*
X473539Y458387D01*
X472379Y461188D01*
X472379Y476412D01*
X473539Y479213D01*
X475683Y481357D01*
X478484Y482517D01*
X481516Y482517D01*
X484317Y481357D01*
X486461Y479213D01*
X487621Y476412D01*
X487621Y461188D01*
X486461Y458387D01*
X484317Y456243D01*
X481516Y455083D01*
X478484Y455083D01*
G37*
%LPD*%
%LPC*%
G36*
X503884Y531283D02*
X503884Y531283D01*
X501083Y532443D01*
X498939Y534587D01*
X497779Y537388D01*
X497779Y552612D01*
X498939Y555413D01*
X501083Y557557D01*
X503884Y558717D01*
X506916Y558717D01*
X509717Y557557D01*
X511861Y555413D01*
X513021Y552612D01*
X513021Y537388D01*
X511861Y534587D01*
X509717Y532443D01*
X506916Y531283D01*
X503884Y531283D01*
G37*
%LPD*%
%LPC*%
G36*
X521384Y565087D02*
X521384Y565087D01*
X518583Y566247D01*
X516439Y568391D01*
X515279Y571192D01*
X515279Y586416D01*
X516439Y589217D01*
X518583Y591361D01*
X521384Y592521D01*
X524416Y592521D01*
X527217Y591361D01*
X529361Y589217D01*
X530521Y586416D01*
X530521Y571192D01*
X529361Y568391D01*
X527217Y566247D01*
X524416Y565087D01*
X521384Y565087D01*
G37*
%LPD*%
%LPC*%
G36*
X453084Y531283D02*
X453084Y531283D01*
X450283Y532443D01*
X448139Y534587D01*
X446979Y537388D01*
X446979Y552612D01*
X448139Y555413D01*
X450283Y557557D01*
X453084Y558717D01*
X456116Y558717D01*
X458917Y557557D01*
X461061Y555413D01*
X462221Y552612D01*
X462221Y537388D01*
X461061Y534587D01*
X458917Y532443D01*
X456116Y531283D01*
X453084Y531283D01*
G37*
%LPD*%
%LPC*%
G36*
X23229Y306993D02*
X23229Y306993D01*
X19588Y308501D01*
X16801Y311288D01*
X15293Y314929D01*
X15293Y318871D01*
X16801Y322512D01*
X19588Y325299D01*
X23229Y326807D01*
X27171Y326807D01*
X30812Y325299D01*
X33599Y322512D01*
X35107Y318871D01*
X35107Y314929D01*
X33599Y311288D01*
X30812Y308501D01*
X27171Y306993D01*
X23229Y306993D01*
G37*
%LPD*%
%LPC*%
G36*
X378829Y395493D02*
X378829Y395493D01*
X375188Y397001D01*
X372401Y399788D01*
X370893Y403429D01*
X370893Y407371D01*
X372401Y411012D01*
X375188Y413799D01*
X378829Y415307D01*
X382771Y415307D01*
X386412Y413799D01*
X389199Y411012D01*
X390707Y407371D01*
X390707Y403429D01*
X389199Y399788D01*
X386412Y397001D01*
X382771Y395493D01*
X378829Y395493D01*
G37*
%LPD*%
%LPC*%
G36*
X251829Y395493D02*
X251829Y395493D01*
X248188Y397001D01*
X245401Y399788D01*
X243893Y403429D01*
X243893Y407371D01*
X245401Y411012D01*
X248188Y413799D01*
X251829Y415307D01*
X255771Y415307D01*
X259412Y413799D01*
X262199Y411012D01*
X263707Y407371D01*
X263707Y403429D01*
X262199Y399788D01*
X259412Y397001D01*
X255771Y395493D01*
X251829Y395493D01*
G37*
%LPD*%
%LPC*%
G36*
X302629Y395493D02*
X302629Y395493D01*
X298988Y397001D01*
X296201Y399788D01*
X294693Y403429D01*
X294693Y407371D01*
X296201Y411012D01*
X298988Y413799D01*
X302629Y415307D01*
X306571Y415307D01*
X310212Y413799D01*
X312999Y411012D01*
X314507Y407371D01*
X314507Y403429D01*
X312999Y399788D01*
X310212Y397001D01*
X306571Y395493D01*
X302629Y395493D01*
G37*
%LPD*%
%LPC*%
G36*
X571833Y739117D02*
X571833Y739117D01*
X568752Y740393D01*
X566393Y742752D01*
X565117Y745833D01*
X565117Y749167D01*
X566393Y752248D01*
X568752Y754607D01*
X571833Y755883D01*
X575167Y755883D01*
X578248Y754607D01*
X580607Y752248D01*
X581883Y749167D01*
X581883Y745833D01*
X580607Y742752D01*
X578248Y740393D01*
X575167Y739117D01*
X571833Y739117D01*
G37*
%LPD*%
%LPC*%
G36*
X278143Y717079D02*
X278143Y717079D01*
X273679Y721543D01*
X273679Y727857D01*
X278143Y732321D01*
X284457Y732321D01*
X288921Y727857D01*
X288921Y721543D01*
X284457Y717079D01*
X278143Y717079D01*
G37*
%LPD*%
%LPC*%
G36*
X334143Y717079D02*
X334143Y717079D01*
X329679Y721543D01*
X329679Y727857D01*
X334143Y732321D01*
X340457Y732321D01*
X344921Y727857D01*
X344921Y721543D01*
X340457Y717079D01*
X334143Y717079D01*
G37*
%LPD*%
%LPC*%
G36*
X471543Y717079D02*
X471543Y717079D01*
X467079Y721543D01*
X467079Y727857D01*
X471543Y732321D01*
X477857Y732321D01*
X482321Y727857D01*
X482321Y721543D01*
X477857Y717079D01*
X471543Y717079D01*
G37*
%LPD*%
%LPC*%
G36*
X527543Y717079D02*
X527543Y717079D01*
X523079Y721543D01*
X523079Y727857D01*
X527543Y732321D01*
X533857Y732321D01*
X538321Y727857D01*
X538321Y721543D01*
X533857Y717079D01*
X527543Y717079D01*
G37*
%LPD*%
%LPC*%
G36*
X395843Y502979D02*
X395843Y502979D01*
X391379Y507443D01*
X391379Y513757D01*
X395843Y518221D01*
X402157Y518221D01*
X406621Y513757D01*
X406621Y507443D01*
X402157Y502979D01*
X395843Y502979D01*
G37*
%LPD*%
%LPC*%
G36*
X446143Y717079D02*
X446143Y717079D01*
X441679Y721543D01*
X441679Y727857D01*
X446143Y732321D01*
X452457Y732321D01*
X456921Y727857D01*
X456921Y721543D01*
X452457Y717079D01*
X446143Y717079D01*
G37*
%LPD*%
%LPC*%
G36*
X301443Y543079D02*
X301443Y543079D01*
X296979Y547543D01*
X296979Y553857D01*
X301443Y558321D01*
X307757Y558321D01*
X312221Y553857D01*
X312221Y547543D01*
X307757Y543079D01*
X301443Y543079D01*
G37*
%LPD*%
%LPC*%
G36*
X303543Y717079D02*
X303543Y717079D01*
X299079Y721543D01*
X299079Y727857D01*
X303543Y732321D01*
X309857Y732321D01*
X314321Y727857D01*
X314321Y721543D01*
X309857Y717079D01*
X303543Y717079D01*
G37*
%LPD*%
%LPC*%
G36*
X359543Y717079D02*
X359543Y717079D01*
X355079Y721543D01*
X355079Y727857D01*
X359543Y732321D01*
X365857Y732321D01*
X370321Y727857D01*
X370321Y721543D01*
X365857Y717079D01*
X359543Y717079D01*
G37*
%LPD*%
%LPC*%
G36*
X390143Y717079D02*
X390143Y717079D01*
X385679Y721543D01*
X385679Y727857D01*
X390143Y732321D01*
X396457Y732321D01*
X400921Y727857D01*
X400921Y721543D01*
X396457Y717079D01*
X390143Y717079D01*
G37*
%LPD*%
%LPC*%
G36*
X415543Y717079D02*
X415543Y717079D01*
X411079Y721543D01*
X411079Y727857D01*
X415543Y732321D01*
X421857Y732321D01*
X426321Y727857D01*
X426321Y721543D01*
X421857Y717079D01*
X415543Y717079D01*
G37*
%LPD*%
%LPC*%
G36*
X352243Y515079D02*
X352243Y515079D01*
X347779Y519543D01*
X347779Y525857D01*
X352243Y530321D01*
X358557Y530321D01*
X363021Y525857D01*
X363021Y519543D01*
X358557Y515079D01*
X352243Y515079D01*
G37*
%LPD*%
%LPC*%
G36*
X110143Y717079D02*
X110143Y717079D01*
X105679Y721543D01*
X105679Y727857D01*
X110143Y732321D01*
X116457Y732321D01*
X120921Y727857D01*
X120921Y721543D01*
X116457Y717079D01*
X110143Y717079D01*
G37*
%LPD*%
%LPC*%
G36*
X135543Y717079D02*
X135543Y717079D01*
X131079Y721543D01*
X131079Y727857D01*
X135543Y732321D01*
X141857Y732321D01*
X146321Y727857D01*
X146321Y721543D01*
X141857Y717079D01*
X135543Y717079D01*
G37*
%LPD*%
%LPC*%
G36*
X191543Y717079D02*
X191543Y717079D01*
X187079Y721543D01*
X187079Y727857D01*
X191543Y732321D01*
X197857Y732321D01*
X202321Y727857D01*
X202321Y721543D01*
X197857Y717079D01*
X191543Y717079D01*
G37*
%LPD*%
%LPC*%
G36*
X502143Y717079D02*
X502143Y717079D01*
X497679Y721543D01*
X497679Y727857D01*
X502143Y732321D01*
X508457Y732321D01*
X512921Y727857D01*
X512921Y721543D01*
X508457Y717079D01*
X502143Y717079D01*
G37*
%LPD*%
%LPC*%
G36*
X166143Y717079D02*
X166143Y717079D01*
X161679Y721543D01*
X161679Y727857D01*
X166143Y732321D01*
X172457Y732321D01*
X176921Y727857D01*
X176921Y721543D01*
X172457Y717079D01*
X166143Y717079D01*
G37*
%LPD*%
%LPC*%
G36*
X247543Y717079D02*
X247543Y717079D01*
X243079Y721543D01*
X243079Y727857D01*
X247543Y732321D01*
X253857Y732321D01*
X258321Y727857D01*
X258321Y721543D01*
X253857Y717079D01*
X247543Y717079D01*
G37*
%LPD*%
%LPC*%
G36*
X222143Y717079D02*
X222143Y717079D01*
X217679Y721543D01*
X217679Y727857D01*
X222143Y732321D01*
X228457Y732321D01*
X232921Y727857D01*
X232921Y721543D01*
X228457Y717079D01*
X222143Y717079D01*
G37*
%LPD*%
%LPC*%
G36*
X191984Y282379D02*
X191984Y282379D01*
X189183Y283539D01*
X187039Y285683D01*
X185879Y288484D01*
X185879Y291516D01*
X187039Y294317D01*
X189183Y296461D01*
X191984Y297621D01*
X195016Y297621D01*
X197817Y296461D01*
X199961Y294317D01*
X201121Y291516D01*
X201121Y288484D01*
X199961Y285683D01*
X197817Y283539D01*
X195016Y282379D01*
X191984Y282379D01*
G37*
%LPD*%
%LPC*%
G36*
X281984Y282379D02*
X281984Y282379D01*
X279183Y283539D01*
X277039Y285683D01*
X275879Y288484D01*
X275879Y291516D01*
X277039Y294317D01*
X279183Y296461D01*
X281984Y297621D01*
X285016Y297621D01*
X287817Y296461D01*
X289961Y294317D01*
X291121Y291516D01*
X291121Y288484D01*
X289961Y285683D01*
X287817Y283539D01*
X285016Y282379D01*
X281984Y282379D01*
G37*
%LPD*%
%LPC*%
G36*
X354984Y282379D02*
X354984Y282379D01*
X352183Y283539D01*
X350039Y285683D01*
X348879Y288484D01*
X348879Y291516D01*
X350039Y294317D01*
X352183Y296461D01*
X354984Y297621D01*
X358016Y297621D01*
X360817Y296461D01*
X362961Y294317D01*
X364121Y291516D01*
X364121Y288484D01*
X362961Y285683D01*
X360817Y283539D01*
X358016Y282379D01*
X354984Y282379D01*
G37*
%LPD*%
%LPC*%
G36*
X444984Y282379D02*
X444984Y282379D01*
X442183Y283539D01*
X440039Y285683D01*
X438879Y288484D01*
X438879Y291516D01*
X440039Y294317D01*
X442183Y296461D01*
X444984Y297621D01*
X448016Y297621D01*
X450817Y296461D01*
X452961Y294317D01*
X454121Y291516D01*
X454121Y288484D01*
X452961Y285683D01*
X450817Y283539D01*
X448016Y282379D01*
X444984Y282379D01*
G37*
%LPD*%
%LPC*%
G36*
X418003Y329775D02*
X418003Y329775D01*
X415238Y330921D01*
X413121Y333038D01*
X411975Y335803D01*
X411975Y338797D01*
X413121Y341562D01*
X415238Y343679D01*
X418003Y344825D01*
X420997Y344825D01*
X423762Y343679D01*
X425879Y341562D01*
X427025Y338797D01*
X427025Y335803D01*
X425879Y333038D01*
X423762Y330921D01*
X420997Y329775D01*
X418003Y329775D01*
G37*
%LPD*%
%LPC*%
G36*
X71523Y783523D02*
X71523Y783523D01*
X71523Y794203D01*
X72878Y793988D01*
X74718Y793390D01*
X76442Y792512D01*
X78007Y791375D01*
X79375Y790007D01*
X80512Y788442D01*
X81390Y786718D01*
X81988Y784878D01*
X82203Y783523D01*
X71523Y783523D01*
G37*
%LPD*%
%LPC*%
G36*
X57797Y783523D02*
X57797Y783523D01*
X58012Y784878D01*
X58610Y786718D01*
X59488Y788442D01*
X60625Y790007D01*
X61993Y791375D01*
X63558Y792512D01*
X65282Y793390D01*
X67122Y793988D01*
X68477Y794203D01*
X68477Y783523D01*
X57797Y783523D01*
G37*
%LPD*%
%LPC*%
G36*
X71523Y780477D02*
X71523Y780477D01*
X82203Y780477D01*
X81988Y779122D01*
X81390Y777282D01*
X80512Y775558D01*
X79375Y773993D01*
X78007Y772625D01*
X76442Y771488D01*
X74718Y770610D01*
X72878Y770012D01*
X71523Y769797D01*
X71523Y780477D01*
G37*
%LPD*%
%LPC*%
G36*
X67122Y770012D02*
X67122Y770012D01*
X65282Y770610D01*
X63558Y771488D01*
X61993Y772625D01*
X60625Y773993D01*
X59488Y775558D01*
X58610Y777282D01*
X58012Y779122D01*
X57797Y780477D01*
X68477Y780477D01*
X68477Y769797D01*
X67122Y770012D01*
G37*
%LPD*%
%LPC*%
G36*
X420523Y484223D02*
X420523Y484223D01*
X420523Y495777D01*
X427637Y495777D01*
X427637Y493738D01*
X427639Y493726D01*
X427639Y486280D01*
X427637Y486262D01*
X427637Y484223D01*
X420523Y484223D01*
G37*
%LPD*%
%LPC*%
G36*
X410363Y484223D02*
X410363Y484223D01*
X410363Y495777D01*
X417477Y495777D01*
X417477Y484223D01*
X410363Y484223D01*
G37*
%LPD*%
%LPC*%
G36*
X255323Y543723D02*
X255323Y543723D01*
X255323Y556799D01*
X256319Y556601D01*
X257891Y555950D01*
X259306Y555005D01*
X260509Y553802D01*
X261454Y552387D01*
X262105Y550815D01*
X262437Y549147D01*
X262437Y543723D01*
X255323Y543723D01*
G37*
%LPD*%
%LPC*%
G36*
X255323Y540677D02*
X255323Y540677D01*
X262437Y540677D01*
X262437Y535253D01*
X262105Y533585D01*
X261454Y532013D01*
X260509Y530598D01*
X259306Y529395D01*
X257891Y528450D01*
X256319Y527799D01*
X255323Y527601D01*
X255323Y540677D01*
G37*
%LPD*%
%LPC*%
G36*
X245163Y543723D02*
X245163Y543723D01*
X245163Y549147D01*
X245495Y550815D01*
X246146Y552387D01*
X247091Y553802D01*
X248294Y555005D01*
X249709Y555950D01*
X251281Y556601D01*
X252277Y556799D01*
X252277Y543723D01*
X245163Y543723D01*
G37*
%LPD*%
%LPC*%
G36*
X251281Y527799D02*
X251281Y527799D01*
X249709Y528450D01*
X248294Y529395D01*
X247091Y530598D01*
X246146Y532013D01*
X245495Y533585D01*
X245163Y535253D01*
X245163Y540677D01*
X252277Y540677D01*
X252277Y527601D01*
X251281Y527799D01*
G37*
%LPD*%
%LPC*%
G36*
X26723Y394623D02*
X26723Y394623D01*
X26723Y403918D01*
X27758Y403754D01*
X29393Y403222D01*
X30925Y402442D01*
X32316Y401431D01*
X33531Y400216D01*
X34542Y398825D01*
X35322Y397293D01*
X35854Y395658D01*
X36018Y394623D01*
X26723Y394623D01*
G37*
%LPD*%
%LPC*%
G36*
X280723Y406923D02*
X280723Y406923D01*
X280723Y416218D01*
X281758Y416054D01*
X283393Y415522D01*
X284925Y414742D01*
X286316Y413731D01*
X287531Y412516D01*
X288542Y411125D01*
X289322Y409593D01*
X289854Y407958D01*
X290018Y406923D01*
X280723Y406923D01*
G37*
%LPD*%
%LPC*%
G36*
X14382Y394623D02*
X14382Y394623D01*
X14546Y395658D01*
X15078Y397293D01*
X15858Y398825D01*
X16869Y400216D01*
X18084Y401431D01*
X19475Y402442D01*
X21007Y403222D01*
X22642Y403754D01*
X23677Y403918D01*
X23677Y394623D01*
X14382Y394623D01*
G37*
%LPD*%
%LPC*%
G36*
X268382Y406923D02*
X268382Y406923D01*
X268546Y407958D01*
X269078Y409593D01*
X269858Y411125D01*
X270869Y412516D01*
X272084Y413731D01*
X273475Y414742D01*
X275007Y415522D01*
X276642Y416054D01*
X277677Y416218D01*
X277677Y406923D01*
X268382Y406923D01*
G37*
%LPD*%
%LPC*%
G36*
X280723Y403877D02*
X280723Y403877D01*
X290018Y403877D01*
X289854Y402842D01*
X289322Y401207D01*
X288542Y399675D01*
X287531Y398284D01*
X286316Y397069D01*
X284925Y396058D01*
X283393Y395278D01*
X281758Y394746D01*
X280723Y394582D01*
X280723Y403877D01*
G37*
%LPD*%
%LPC*%
G36*
X26723Y391577D02*
X26723Y391577D01*
X36018Y391577D01*
X35854Y390542D01*
X35322Y388907D01*
X34542Y387375D01*
X33531Y385984D01*
X32316Y384769D01*
X30925Y383758D01*
X29393Y382978D01*
X27758Y382446D01*
X26723Y382282D01*
X26723Y391577D01*
G37*
%LPD*%
%LPC*%
G36*
X276642Y394746D02*
X276642Y394746D01*
X275007Y395278D01*
X273475Y396058D01*
X272084Y397069D01*
X270869Y398284D01*
X269858Y399675D01*
X269078Y401207D01*
X268546Y402842D01*
X268382Y403877D01*
X277677Y403877D01*
X277677Y394582D01*
X276642Y394746D01*
G37*
%LPD*%
%LPC*%
G36*
X22642Y382446D02*
X22642Y382446D01*
X21007Y382978D01*
X19475Y383758D01*
X18084Y384769D01*
X16869Y385984D01*
X15858Y387375D01*
X15078Y388907D01*
X14546Y390542D01*
X14382Y391577D01*
X23677Y391577D01*
X23677Y382282D01*
X22642Y382446D01*
G37*
%LPD*%
%LPC*%
G36*
X555023Y521523D02*
X555023Y521523D01*
X555023Y530041D01*
X560334Y530041D01*
X560981Y529868D01*
X561560Y529533D01*
X562033Y529060D01*
X562368Y528481D01*
X562541Y527834D01*
X562541Y521523D01*
X555023Y521523D01*
G37*
%LPD*%
%LPC*%
G36*
X555023Y509959D02*
X555023Y509959D01*
X555023Y518477D01*
X562541Y518477D01*
X562541Y512166D01*
X562368Y511519D01*
X562033Y510940D01*
X561560Y510467D01*
X560981Y510132D01*
X560334Y509959D01*
X555023Y509959D01*
G37*
%LPD*%
%LPC*%
G36*
X544459Y521523D02*
X544459Y521523D01*
X544459Y527834D01*
X544632Y528481D01*
X544967Y529060D01*
X545440Y529533D01*
X546019Y529868D01*
X546666Y530041D01*
X551977Y530041D01*
X551977Y521523D01*
X544459Y521523D01*
G37*
%LPD*%
%LPC*%
G36*
X546666Y509959D02*
X546666Y509959D01*
X546019Y510132D01*
X545440Y510467D01*
X544967Y510940D01*
X544632Y511519D01*
X544459Y512166D01*
X544459Y518477D01*
X551977Y518477D01*
X551977Y509959D01*
X546666Y509959D01*
G37*
%LPD*%
%LPC*%
G36*
X586723Y486523D02*
X586723Y486523D01*
X586723Y494291D01*
X589048Y494291D01*
X594491Y488848D01*
X594491Y486523D01*
X586723Y486523D01*
G37*
%LPD*%
%LPC*%
G36*
X575909Y486523D02*
X575909Y486523D01*
X575909Y488848D01*
X581352Y494291D01*
X583677Y494291D01*
X583677Y486523D01*
X575909Y486523D01*
G37*
%LPD*%
%LPC*%
G36*
X586723Y475709D02*
X586723Y475709D01*
X586723Y483477D01*
X594491Y483477D01*
X594491Y481152D01*
X589048Y475709D01*
X586723Y475709D01*
G37*
%LPD*%
%LPC*%
G36*
X581352Y475709D02*
X581352Y475709D01*
X575909Y481152D01*
X575909Y483477D01*
X583677Y483477D01*
X583677Y475709D01*
X581352Y475709D01*
G37*
%LPD*%
%LPC*%
G36*
X575023Y729023D02*
X575023Y729023D01*
X575023Y736780D01*
X576241Y736538D01*
X577952Y735829D01*
X579491Y734800D01*
X580800Y733491D01*
X581829Y731952D01*
X582538Y730241D01*
X582780Y729023D01*
X575023Y729023D01*
G37*
%LPD*%
%LPC*%
G36*
X575023Y725977D02*
X575023Y725977D01*
X582780Y725977D01*
X582538Y724759D01*
X581829Y723048D01*
X581420Y722436D01*
X581420Y722435D01*
X580800Y721509D01*
X579491Y720200D01*
X577952Y719171D01*
X576241Y718462D01*
X575023Y718220D01*
X575023Y725977D01*
G37*
%LPD*%
%LPC*%
G36*
X564220Y729023D02*
X564220Y729023D01*
X564462Y730241D01*
X565171Y731952D01*
X566200Y733491D01*
X567509Y734800D01*
X569048Y735829D01*
X570759Y736538D01*
X571977Y736780D01*
X571977Y729023D01*
X564220Y729023D01*
G37*
%LPD*%
%LPC*%
G36*
X570759Y718462D02*
X570759Y718462D01*
X569048Y719171D01*
X567509Y720200D01*
X566200Y721509D01*
X565171Y723048D01*
X564462Y724759D01*
X564220Y725977D01*
X571977Y725977D01*
X571977Y718220D01*
X570759Y718462D01*
G37*
%LPD*%
%LPC*%
G36*
X400523Y486723D02*
X400523Y486723D01*
X400523Y493837D01*
X402577Y493837D01*
X407637Y488777D01*
X407637Y486723D01*
X400523Y486723D01*
G37*
%LPD*%
%LPC*%
G36*
X420523Y498823D02*
X420523Y498823D01*
X420523Y505937D01*
X422577Y505937D01*
X427637Y500877D01*
X427637Y498823D01*
X420523Y498823D01*
G37*
%LPD*%
%LPC*%
G36*
X400523Y476563D02*
X400523Y476563D01*
X400523Y483677D01*
X407637Y483677D01*
X407637Y481623D01*
X402577Y476563D01*
X400523Y476563D01*
G37*
%LPD*%
%LPC*%
G36*
X410363Y498823D02*
X410363Y498823D01*
X410363Y500877D01*
X415423Y505937D01*
X417477Y505937D01*
X417477Y498823D01*
X410363Y498823D01*
G37*
%LPD*%
%LPC*%
G36*
X420523Y474063D02*
X420523Y474063D01*
X420523Y481177D01*
X427637Y481177D01*
X427637Y479123D01*
X422577Y474063D01*
X420523Y474063D01*
G37*
%LPD*%
%LPC*%
G36*
X415423Y474063D02*
X415423Y474063D01*
X410363Y479123D01*
X410363Y481177D01*
X417477Y481177D01*
X417477Y474063D01*
X415423Y474063D01*
G37*
%LPD*%
%LPC*%
G36*
X275023Y659577D02*
X275023Y659577D01*
X282003Y659577D01*
X281805Y658581D01*
X281154Y657009D01*
X280209Y655594D01*
X279006Y654391D01*
X277591Y653446D01*
X276019Y652795D01*
X275023Y652597D01*
X275023Y659577D01*
G37*
%LPD*%
%LPC*%
G36*
X499023Y659577D02*
X499023Y659577D01*
X506003Y659577D01*
X505805Y658581D01*
X505154Y657009D01*
X504209Y655594D01*
X503006Y654391D01*
X501591Y653446D01*
X500019Y652795D01*
X499023Y652597D01*
X499023Y659577D01*
G37*
%LPD*%
%LPC*%
G36*
X448223Y659577D02*
X448223Y659577D01*
X455203Y659577D01*
X455005Y658581D01*
X454354Y657009D01*
X453409Y655594D01*
X452206Y654391D01*
X450791Y653446D01*
X449219Y652795D01*
X448223Y652597D01*
X448223Y659577D01*
G37*
%LPD*%
%LPC*%
G36*
X397423Y659577D02*
X397423Y659577D01*
X404403Y659577D01*
X404205Y658581D01*
X403554Y657009D01*
X402609Y655594D01*
X401406Y654391D01*
X399991Y653446D01*
X398419Y652795D01*
X397423Y652597D01*
X397423Y659577D01*
G37*
%LPD*%
%LPC*%
G36*
X346623Y659577D02*
X346623Y659577D01*
X353603Y659577D01*
X353405Y658581D01*
X352754Y657009D01*
X351809Y655594D01*
X350606Y654391D01*
X349191Y653446D01*
X347619Y652795D01*
X346623Y652597D01*
X346623Y659577D01*
G37*
%LPD*%
%LPC*%
G36*
X224223Y659577D02*
X224223Y659577D01*
X231203Y659577D01*
X231005Y658581D01*
X230354Y657009D01*
X229409Y655594D01*
X228206Y654391D01*
X226791Y653446D01*
X225219Y652795D01*
X224223Y652597D01*
X224223Y659577D01*
G37*
%LPD*%
%LPC*%
G36*
X173423Y659577D02*
X173423Y659577D01*
X180403Y659577D01*
X180205Y658581D01*
X179554Y657009D01*
X178609Y655594D01*
X177406Y654391D01*
X175991Y653446D01*
X174419Y652795D01*
X173423Y652597D01*
X173423Y659577D01*
G37*
%LPD*%
%LPC*%
G36*
X122623Y659577D02*
X122623Y659577D01*
X129603Y659577D01*
X129405Y658581D01*
X128754Y657009D01*
X127809Y655594D01*
X126606Y654391D01*
X125191Y653446D01*
X123619Y652795D01*
X122623Y652597D01*
X122623Y659577D01*
G37*
%LPD*%
%LPC*%
G36*
X270981Y652795D02*
X270981Y652795D01*
X269409Y653446D01*
X267994Y654391D01*
X266791Y655594D01*
X265846Y657009D01*
X265195Y658581D01*
X264997Y659577D01*
X271977Y659577D01*
X271977Y652597D01*
X270981Y652795D01*
G37*
%LPD*%
%LPC*%
G36*
X220181Y652795D02*
X220181Y652795D01*
X218609Y653446D01*
X217194Y654391D01*
X215991Y655594D01*
X215046Y657009D01*
X214395Y658581D01*
X214197Y659577D01*
X221177Y659577D01*
X221177Y652597D01*
X220181Y652795D01*
G37*
%LPD*%
%LPC*%
G36*
X342581Y652795D02*
X342581Y652795D01*
X341009Y653446D01*
X339594Y654391D01*
X338391Y655594D01*
X337446Y657009D01*
X336795Y658581D01*
X336597Y659577D01*
X343577Y659577D01*
X343577Y652597D01*
X342581Y652795D01*
G37*
%LPD*%
%LPC*%
G36*
X118581Y652795D02*
X118581Y652795D01*
X117009Y653446D01*
X115594Y654391D01*
X114391Y655594D01*
X113446Y657009D01*
X112795Y658581D01*
X112597Y659577D01*
X119577Y659577D01*
X119577Y652597D01*
X118581Y652795D01*
G37*
%LPD*%
%LPC*%
G36*
X444181Y652795D02*
X444181Y652795D01*
X442609Y653446D01*
X441194Y654391D01*
X439991Y655594D01*
X439046Y657009D01*
X438395Y658581D01*
X438197Y659577D01*
X445177Y659577D01*
X445177Y652597D01*
X444181Y652795D01*
G37*
%LPD*%
%LPC*%
G36*
X494981Y652795D02*
X494981Y652795D01*
X493409Y653446D01*
X491994Y654391D01*
X490791Y655594D01*
X489846Y657009D01*
X489195Y658581D01*
X488997Y659577D01*
X495977Y659577D01*
X495977Y652597D01*
X494981Y652795D01*
G37*
%LPD*%
%LPC*%
G36*
X169381Y652795D02*
X169381Y652795D01*
X167809Y653446D01*
X166394Y654391D01*
X165191Y655594D01*
X164246Y657009D01*
X163595Y658581D01*
X163397Y659577D01*
X170377Y659577D01*
X170377Y652597D01*
X169381Y652795D01*
G37*
%LPD*%
%LPC*%
G36*
X393381Y652795D02*
X393381Y652795D01*
X391809Y653446D01*
X390394Y654391D01*
X389191Y655594D01*
X388246Y657009D01*
X387595Y658581D01*
X387397Y659577D01*
X394377Y659577D01*
X394377Y652597D01*
X393381Y652795D01*
G37*
%LPD*%
%LPC*%
G36*
X521023Y338823D02*
X521023Y338823D01*
X521023Y345705D01*
X521991Y345513D01*
X523546Y344869D01*
X524944Y343934D01*
X526134Y342744D01*
X527069Y341346D01*
X527713Y339791D01*
X527905Y338823D01*
X521023Y338823D01*
G37*
%LPD*%
%LPC*%
G36*
X511095Y338823D02*
X511095Y338823D01*
X511287Y339791D01*
X511931Y341346D01*
X512866Y342744D01*
X514056Y343934D01*
X515454Y344869D01*
X517009Y345513D01*
X517977Y345705D01*
X517977Y338823D01*
X511095Y338823D01*
G37*
%LPD*%
%LPC*%
G36*
X521023Y335777D02*
X521023Y335777D01*
X527905Y335777D01*
X527713Y334809D01*
X527069Y333254D01*
X526134Y331856D01*
X524944Y330666D01*
X523546Y329731D01*
X521991Y329087D01*
X521023Y328895D01*
X521023Y335777D01*
G37*
%LPD*%
%LPC*%
G36*
X517009Y329087D02*
X517009Y329087D01*
X515454Y329731D01*
X514056Y330666D01*
X512866Y331856D01*
X511931Y333254D01*
X511287Y334809D01*
X511095Y335777D01*
X517977Y335777D01*
X517977Y328895D01*
X517009Y329087D01*
G37*
%LPD*%
%LPC*%
G36*
X273499Y661099D02*
X273499Y661099D01*
X273499Y661101D01*
X273501Y661101D01*
X273501Y661099D01*
X273499Y661099D01*
G37*
%LPD*%
%LPC*%
G36*
X345099Y661099D02*
X345099Y661099D01*
X345099Y661101D01*
X345101Y661101D01*
X345101Y661099D01*
X345099Y661099D01*
G37*
%LPD*%
%LPC*%
G36*
X418999Y497299D02*
X418999Y497299D01*
X418999Y497301D01*
X419001Y497301D01*
X419001Y497299D01*
X418999Y497299D01*
G37*
%LPD*%
%LPC*%
G36*
X585199Y484999D02*
X585199Y484999D01*
X585199Y485001D01*
X585201Y485001D01*
X585201Y484999D01*
X585199Y484999D01*
G37*
%LPD*%
%LPC*%
G36*
X253799Y542199D02*
X253799Y542199D01*
X253799Y542201D01*
X253801Y542201D01*
X253801Y542199D01*
X253799Y542199D01*
G37*
%LPD*%
%LPC*%
G36*
X25199Y393099D02*
X25199Y393099D01*
X25199Y393101D01*
X25201Y393101D01*
X25201Y393099D01*
X25199Y393099D01*
G37*
%LPD*%
%LPC*%
G36*
X69999Y781999D02*
X69999Y781999D01*
X69999Y782001D01*
X70001Y782001D01*
X70001Y781999D01*
X69999Y781999D01*
G37*
%LPD*%
%LPC*%
G36*
X573499Y727499D02*
X573499Y727499D01*
X573499Y727501D01*
X573501Y727501D01*
X573501Y727499D01*
X573499Y727499D01*
G37*
%LPD*%
%LPC*%
G36*
X418999Y482699D02*
X418999Y482699D01*
X418999Y482701D01*
X419001Y482701D01*
X419001Y482699D01*
X418999Y482699D01*
G37*
%LPD*%
%LPC*%
G36*
X121099Y661099D02*
X121099Y661099D01*
X121099Y661101D01*
X121101Y661101D01*
X121101Y661099D01*
X121099Y661099D01*
G37*
%LPD*%
%LPC*%
G36*
X519499Y337299D02*
X519499Y337299D01*
X519499Y337301D01*
X519501Y337301D01*
X519501Y337299D01*
X519499Y337299D01*
G37*
%LPD*%
%LPC*%
G36*
X279199Y405399D02*
X279199Y405399D01*
X279199Y405401D01*
X279201Y405401D01*
X279201Y405399D01*
X279199Y405399D01*
G37*
%LPD*%
%LPC*%
G36*
X497499Y661099D02*
X497499Y661099D01*
X497499Y661101D01*
X497501Y661101D01*
X497501Y661099D01*
X497499Y661099D01*
G37*
%LPD*%
%LPC*%
G36*
X553499Y519999D02*
X553499Y519999D01*
X553499Y520001D01*
X553501Y520001D01*
X553501Y519999D01*
X553499Y519999D01*
G37*
%LPD*%
D10*
X0Y0D02*
X640000Y0D01*
X640000Y820000D01*
X0Y820000D01*
X0Y0D01*
X557500Y660000D02*
X557504Y660307D01*
X557515Y660613D01*
X557534Y660920D01*
X557560Y661225D01*
X557594Y661530D01*
X557635Y661834D01*
X557684Y662137D01*
X557740Y662439D01*
X557804Y662739D01*
X557875Y663037D01*
X557953Y663334D01*
X558038Y663629D01*
X558131Y663921D01*
X558231Y664211D01*
X558338Y664499D01*
X558452Y664784D01*
X558572Y665066D01*
X558700Y665344D01*
X558835Y665620D01*
X558976Y665892D01*
X559124Y666161D01*
X559278Y666426D01*
X559439Y666687D01*
X559607Y666945D01*
X559780Y667198D01*
X559960Y667446D01*
X560146Y667690D01*
X560337Y667930D01*
X560535Y668165D01*
X560738Y668394D01*
X560947Y668619D01*
X561161Y668839D01*
X561381Y669053D01*
X561606Y669262D01*
X561835Y669465D01*
X562070Y669663D01*
X562310Y669854D01*
X562554Y670040D01*
X562802Y670220D01*
X563055Y670393D01*
X563313Y670561D01*
X563574Y670722D01*
X563839Y670876D01*
X564108Y671024D01*
X564380Y671165D01*
X564656Y671300D01*
X564934Y671428D01*
X565216Y671548D01*
X565501Y671662D01*
X565789Y671769D01*
X566079Y671869D01*
X566371Y671962D01*
X566666Y672047D01*
X566963Y672125D01*
X567261Y672196D01*
X567561Y672260D01*
X567863Y672316D01*
X568166Y672365D01*
X568470Y672406D01*
X568775Y672440D01*
X569080Y672466D01*
X569387Y672485D01*
X569693Y672496D01*
X570000Y672500D01*
X570307Y672496D01*
X570613Y672485D01*
X570920Y672466D01*
X571225Y672440D01*
X571530Y672406D01*
X571834Y672365D01*
X572137Y672316D01*
X572439Y672260D01*
X572739Y672196D01*
X573037Y672125D01*
X573334Y672047D01*
X573629Y671962D01*
X573921Y671869D01*
X574211Y671769D01*
X574499Y671662D01*
X574784Y671548D01*
X575066Y671428D01*
X575344Y671300D01*
X575620Y671165D01*
X575892Y671024D01*
X576161Y670876D01*
X576426Y670722D01*
X576687Y670561D01*
X576945Y670393D01*
X577198Y670220D01*
X577446Y670040D01*
X577690Y669854D01*
X577930Y669663D01*
X578165Y669465D01*
X578394Y669262D01*
X578619Y669053D01*
X578839Y668839D01*
X579053Y668619D01*
X579262Y668394D01*
X579465Y668165D01*
X579663Y667930D01*
X579854Y667690D01*
X580040Y667446D01*
X580220Y667198D01*
X580393Y666945D01*
X580561Y666687D01*
X580722Y666426D01*
X580876Y666161D01*
X581024Y665892D01*
X581165Y665620D01*
X581300Y665344D01*
X581428Y665066D01*
X581548Y664784D01*
X581662Y664499D01*
X581769Y664211D01*
X581869Y663921D01*
X581962Y663629D01*
X582047Y663334D01*
X582125Y663037D01*
X582196Y662739D01*
X582260Y662439D01*
X582316Y662137D01*
X582365Y661834D01*
X582406Y661530D01*
X582440Y661225D01*
X582466Y660920D01*
X582485Y660613D01*
X582496Y660307D01*
X582500Y660000D01*
X582496Y659693D01*
X582485Y659387D01*
X582466Y659080D01*
X582440Y658775D01*
X582406Y658470D01*
X582365Y658166D01*
X582316Y657863D01*
X582260Y657561D01*
X582196Y657261D01*
X582125Y656963D01*
X582047Y656666D01*
X581962Y656371D01*
X581869Y656079D01*
X581769Y655789D01*
X581662Y655501D01*
X581548Y655216D01*
X581428Y654934D01*
X581300Y654656D01*
X581165Y654380D01*
X581024Y654108D01*
X580876Y653839D01*
X580722Y653574D01*
X580561Y653313D01*
X580393Y653055D01*
X580220Y652802D01*
X580040Y652554D01*
X579854Y652310D01*
X579663Y652070D01*
X579465Y651835D01*
X579262Y651606D01*
X579053Y651381D01*
X578839Y651161D01*
X578619Y650947D01*
X578394Y650738D01*
X578165Y650535D01*
X577930Y650337D01*
X577690Y650146D01*
X577446Y649960D01*
X577198Y649780D01*
X576945Y649607D01*
X576687Y649439D01*
X576426Y649278D01*
X576161Y649124D01*
X575892Y648976D01*
X575620Y648835D01*
X575344Y648700D01*
X575066Y648572D01*
X574784Y648452D01*
X574499Y648338D01*
X574211Y648231D01*
X573921Y648131D01*
X573629Y648038D01*
X573334Y647953D01*
X573037Y647875D01*
X572739Y647804D01*
X572439Y647740D01*
X572137Y647684D01*
X571834Y647635D01*
X571530Y647594D01*
X571225Y647560D01*
X570920Y647534D01*
X570613Y647515D01*
X570307Y647504D01*
X570000Y647500D01*
X569693Y647504D01*
X569387Y647515D01*
X569080Y647534D01*
X568775Y647560D01*
X568470Y647594D01*
X568166Y647635D01*
X567863Y647684D01*
X567561Y647740D01*
X567261Y647804D01*
X566963Y647875D01*
X566666Y647953D01*
X566371Y648038D01*
X566079Y648131D01*
X565789Y648231D01*
X565501Y648338D01*
X565216Y648452D01*
X564934Y648572D01*
X564656Y648700D01*
X564380Y648835D01*
X564108Y648976D01*
X563839Y649124D01*
X563574Y649278D01*
X563313Y649439D01*
X563055Y649607D01*
X562802Y649780D01*
X562554Y649960D01*
X562310Y650146D01*
X562070Y650337D01*
X561835Y650535D01*
X561606Y650738D01*
X561381Y650947D01*
X561161Y651161D01*
X560947Y651381D01*
X560738Y651606D01*
X560535Y651835D01*
X560337Y652070D01*
X560146Y652310D01*
X559960Y652554D01*
X559780Y652802D01*
X559607Y653055D01*
X559439Y653313D01*
X559278Y653574D01*
X559124Y653839D01*
X558976Y654108D01*
X558835Y654380D01*
X558700Y654656D01*
X558572Y654934D01*
X558452Y655216D01*
X558338Y655501D01*
X558231Y655789D01*
X558131Y656079D01*
X558038Y656371D01*
X557953Y656666D01*
X557875Y656963D01*
X557804Y657261D01*
X557740Y657561D01*
X557684Y657863D01*
X557635Y658166D01*
X557594Y658470D01*
X557560Y658775D01*
X557534Y659080D01*
X557515Y659387D01*
X557504Y659693D01*
X557500Y660000D01*
X57500Y160000D02*
X57504Y160307D01*
X57515Y160613D01*
X57534Y160920D01*
X57560Y161225D01*
X57594Y161530D01*
X57635Y161834D01*
X57684Y162137D01*
X57740Y162439D01*
X57804Y162739D01*
X57875Y163037D01*
X57953Y163334D01*
X58038Y163629D01*
X58131Y163921D01*
X58231Y164211D01*
X58338Y164499D01*
X58452Y164784D01*
X58572Y165066D01*
X58700Y165344D01*
X58835Y165620D01*
X58976Y165892D01*
X59124Y166161D01*
X59278Y166426D01*
X59439Y166687D01*
X59607Y166945D01*
X59780Y167198D01*
X59960Y167446D01*
X60146Y167690D01*
X60337Y167930D01*
X60535Y168165D01*
X60738Y168394D01*
X60947Y168619D01*
X61161Y168839D01*
X61381Y169053D01*
X61606Y169262D01*
X61835Y169465D01*
X62070Y169663D01*
X62310Y169854D01*
X62554Y170040D01*
X62802Y170220D01*
X63055Y170393D01*
X63313Y170561D01*
X63574Y170722D01*
X63839Y170876D01*
X64108Y171024D01*
X64380Y171165D01*
X64656Y171300D01*
X64934Y171428D01*
X65216Y171548D01*
X65501Y171662D01*
X65789Y171769D01*
X66079Y171869D01*
X66371Y171962D01*
X66666Y172047D01*
X66963Y172125D01*
X67261Y172196D01*
X67561Y172260D01*
X67863Y172316D01*
X68166Y172365D01*
X68470Y172406D01*
X68775Y172440D01*
X69080Y172466D01*
X69387Y172485D01*
X69693Y172496D01*
X70000Y172500D01*
X70307Y172496D01*
X70613Y172485D01*
X70920Y172466D01*
X71225Y172440D01*
X71530Y172406D01*
X71834Y172365D01*
X72137Y172316D01*
X72439Y172260D01*
X72739Y172196D01*
X73037Y172125D01*
X73334Y172047D01*
X73629Y171962D01*
X73921Y171869D01*
X74211Y171769D01*
X74499Y171662D01*
X74784Y171548D01*
X75066Y171428D01*
X75344Y171300D01*
X75620Y171165D01*
X75892Y171024D01*
X76161Y170876D01*
X76426Y170722D01*
X76687Y170561D01*
X76945Y170393D01*
X77198Y170220D01*
X77446Y170040D01*
X77690Y169854D01*
X77930Y169663D01*
X78165Y169465D01*
X78394Y169262D01*
X78619Y169053D01*
X78839Y168839D01*
X79053Y168619D01*
X79262Y168394D01*
X79465Y168165D01*
X79663Y167930D01*
X79854Y167690D01*
X80040Y167446D01*
X80220Y167198D01*
X80393Y166945D01*
X80561Y166687D01*
X80722Y166426D01*
X80876Y166161D01*
X81024Y165892D01*
X81165Y165620D01*
X81300Y165344D01*
X81428Y165066D01*
X81548Y164784D01*
X81662Y164499D01*
X81769Y164211D01*
X81869Y163921D01*
X81962Y163629D01*
X82047Y163334D01*
X82125Y163037D01*
X82196Y162739D01*
X82260Y162439D01*
X82316Y162137D01*
X82365Y161834D01*
X82406Y161530D01*
X82440Y161225D01*
X82466Y160920D01*
X82485Y160613D01*
X82496Y160307D01*
X82500Y160000D01*
X82496Y159693D01*
X82485Y159387D01*
X82466Y159080D01*
X82440Y158775D01*
X82406Y158470D01*
X82365Y158166D01*
X82316Y157863D01*
X82260Y157561D01*
X82196Y157261D01*
X82125Y156963D01*
X82047Y156666D01*
X81962Y156371D01*
X81869Y156079D01*
X81769Y155789D01*
X81662Y155501D01*
X81548Y155216D01*
X81428Y154934D01*
X81300Y154656D01*
X81165Y154380D01*
X81024Y154108D01*
X80876Y153839D01*
X80722Y153574D01*
X80561Y153313D01*
X80393Y153055D01*
X80220Y152802D01*
X80040Y152554D01*
X79854Y152310D01*
X79663Y152070D01*
X79465Y151835D01*
X79262Y151606D01*
X79053Y151381D01*
X78839Y151161D01*
X78619Y150947D01*
X78394Y150738D01*
X78165Y150535D01*
X77930Y150337D01*
X77690Y150146D01*
X77446Y149960D01*
X77198Y149780D01*
X76945Y149607D01*
X76687Y149439D01*
X76426Y149278D01*
X76161Y149124D01*
X75892Y148976D01*
X75620Y148835D01*
X75344Y148700D01*
X75066Y148572D01*
X74784Y148452D01*
X74499Y148338D01*
X74211Y148231D01*
X73921Y148131D01*
X73629Y148038D01*
X73334Y147953D01*
X73037Y147875D01*
X72739Y147804D01*
X72439Y147740D01*
X72137Y147684D01*
X71834Y147635D01*
X71530Y147594D01*
X71225Y147560D01*
X70920Y147534D01*
X70613Y147515D01*
X70307Y147504D01*
X70000Y147500D01*
X69693Y147504D01*
X69387Y147515D01*
X69080Y147534D01*
X68775Y147560D01*
X68470Y147594D01*
X68166Y147635D01*
X67863Y147684D01*
X67561Y147740D01*
X67261Y147804D01*
X66963Y147875D01*
X66666Y147953D01*
X66371Y148038D01*
X66079Y148131D01*
X65789Y148231D01*
X65501Y148338D01*
X65216Y148452D01*
X64934Y148572D01*
X64656Y148700D01*
X64380Y148835D01*
X64108Y148976D01*
X63839Y149124D01*
X63574Y149278D01*
X63313Y149439D01*
X63055Y149607D01*
X62802Y149780D01*
X62554Y149960D01*
X62310Y150146D01*
X62070Y150337D01*
X61835Y150535D01*
X61606Y150738D01*
X61381Y150947D01*
X61161Y151161D01*
X60947Y151381D01*
X60738Y151606D01*
X60535Y151835D01*
X60337Y152070D01*
X60146Y152310D01*
X59960Y152554D01*
X59780Y152802D01*
X59607Y153055D01*
X59439Y153313D01*
X59278Y153574D01*
X59124Y153839D01*
X58976Y154108D01*
X58835Y154380D01*
X58700Y154656D01*
X58572Y154934D01*
X58452Y155216D01*
X58338Y155501D01*
X58231Y155789D01*
X58131Y156079D01*
X58038Y156371D01*
X57953Y156666D01*
X57875Y156963D01*
X57804Y157261D01*
X57740Y157561D01*
X57684Y157863D01*
X57635Y158166D01*
X57594Y158470D01*
X57560Y158775D01*
X57534Y159080D01*
X57515Y159387D01*
X57504Y159693D01*
X57500Y160000D01*
X559000Y591000D02*
X559003Y591270D01*
X559013Y591540D01*
X559030Y591809D01*
X559053Y592078D01*
X559083Y592347D01*
X559119Y592614D01*
X559162Y592881D01*
X559211Y593146D01*
X559267Y593410D01*
X559330Y593673D01*
X559398Y593934D01*
X559474Y594193D01*
X559555Y594450D01*
X559643Y594706D01*
X559737Y594959D01*
X559837Y595210D01*
X559944Y595458D01*
X560056Y595703D01*
X560175Y595946D01*
X560299Y596185D01*
X560429Y596422D01*
X560565Y596655D01*
X560707Y596885D01*
X560854Y597111D01*
X561007Y597334D01*
X561165Y597553D01*
X561328Y597768D01*
X561497Y597978D01*
X561671Y598185D01*
X561850Y598387D01*
X562033Y598585D01*
X562222Y598778D01*
X562415Y598967D01*
X562613Y599150D01*
X562815Y599329D01*
X563022Y599503D01*
X563232Y599672D01*
X563447Y599835D01*
X563666Y599993D01*
X563889Y600146D01*
X564115Y600293D01*
X564345Y600435D01*
X564578Y600571D01*
X564815Y600701D01*
X565054Y600825D01*
X565297Y600944D01*
X565542Y601056D01*
X565790Y601163D01*
X566041Y601263D01*
X566294Y601357D01*
X566550Y601445D01*
X566807Y601526D01*
X567066Y601602D01*
X567327Y601670D01*
X567590Y601733D01*
X567854Y601789D01*
X568119Y601838D01*
X568386Y601881D01*
X568653Y601917D01*
X568922Y601947D01*
X569191Y601970D01*
X569460Y601987D01*
X569730Y601997D01*
X570000Y602000D01*
X570270Y601997D01*
X570540Y601987D01*
X570809Y601970D01*
X571078Y601947D01*
X571347Y601917D01*
X571614Y601881D01*
X571881Y601838D01*
X572146Y601789D01*
X572410Y601733D01*
X572673Y601670D01*
X572934Y601602D01*
X573193Y601526D01*
X573450Y601445D01*
X573706Y601357D01*
X573959Y601263D01*
X574210Y601163D01*
X574458Y601056D01*
X574703Y600944D01*
X574946Y600825D01*
X575185Y600701D01*
X575422Y600571D01*
X575655Y600435D01*
X575885Y600293D01*
X576111Y600146D01*
X576334Y599993D01*
X576553Y599835D01*
X576768Y599672D01*
X576978Y599503D01*
X577185Y599329D01*
X577387Y599150D01*
X577585Y598967D01*
X577778Y598778D01*
X577967Y598585D01*
X578150Y598387D01*
X578329Y598185D01*
X578503Y597978D01*
X578672Y597768D01*
X578835Y597553D01*
X578993Y597334D01*
X579146Y597111D01*
X579293Y596885D01*
X579435Y596655D01*
X579571Y596422D01*
X579701Y596185D01*
X579825Y595946D01*
X579944Y595703D01*
X580056Y595458D01*
X580163Y595210D01*
X580263Y594959D01*
X580357Y594706D01*
X580445Y594450D01*
X580526Y594193D01*
X580602Y593934D01*
X580670Y593673D01*
X580733Y593410D01*
X580789Y593146D01*
X580838Y592881D01*
X580881Y592614D01*
X580917Y592347D01*
X580947Y592078D01*
X580970Y591809D01*
X580987Y591540D01*
X580997Y591270D01*
X581000Y591000D01*
X580997Y590730D01*
X580987Y590460D01*
X580970Y590191D01*
X580947Y589922D01*
X580917Y589653D01*
X580881Y589386D01*
X580838Y589119D01*
X580789Y588854D01*
X580733Y588590D01*
X580670Y588327D01*
X580602Y588066D01*
X580526Y587807D01*
X580445Y587550D01*
X580357Y587294D01*
X580263Y587041D01*
X580163Y586790D01*
X580056Y586542D01*
X579944Y586297D01*
X579825Y586054D01*
X579701Y585815D01*
X579571Y585578D01*
X579435Y585345D01*
X579293Y585115D01*
X579146Y584889D01*
X578993Y584666D01*
X578835Y584447D01*
X578672Y584232D01*
X578503Y584022D01*
X578329Y583815D01*
X578150Y583613D01*
X577967Y583415D01*
X577778Y583222D01*
X577585Y583033D01*
X577387Y582850D01*
X577185Y582671D01*
X576978Y582497D01*
X576768Y582328D01*
X576553Y582165D01*
X576334Y582007D01*
X576111Y581854D01*
X575885Y581707D01*
X575655Y581565D01*
X575422Y581429D01*
X575185Y581299D01*
X574946Y581175D01*
X574703Y581056D01*
X574458Y580944D01*
X574210Y580837D01*
X573959Y580737D01*
X573706Y580643D01*
X573450Y580555D01*
X573193Y580474D01*
X572934Y580398D01*
X572673Y580330D01*
X572410Y580267D01*
X572146Y580211D01*
X571881Y580162D01*
X571614Y580119D01*
X571347Y580083D01*
X571078Y580053D01*
X570809Y580030D01*
X570540Y580013D01*
X570270Y580003D01*
X570000Y580000D01*
X569730Y580003D01*
X569460Y580013D01*
X569191Y580030D01*
X568922Y580053D01*
X568653Y580083D01*
X568386Y580119D01*
X568119Y580162D01*
X567854Y580211D01*
X567590Y580267D01*
X567327Y580330D01*
X567066Y580398D01*
X566807Y580474D01*
X566550Y580555D01*
X566294Y580643D01*
X566041Y580737D01*
X565790Y580837D01*
X565542Y580944D01*
X565297Y581056D01*
X565054Y581175D01*
X564815Y581299D01*
X564578Y581429D01*
X564345Y581565D01*
X564115Y581707D01*
X563889Y581854D01*
X563666Y582007D01*
X563447Y582165D01*
X563232Y582328D01*
X563022Y582497D01*
X562815Y582671D01*
X562613Y582850D01*
X562415Y583033D01*
X562222Y583222D01*
X562033Y583415D01*
X561850Y583613D01*
X561671Y583815D01*
X561497Y584022D01*
X561328Y584232D01*
X561165Y584447D01*
X561007Y584666D01*
X560854Y584889D01*
X560707Y585115D01*
X560565Y585345D01*
X560429Y585578D01*
X560299Y585815D01*
X560175Y586054D01*
X560056Y586297D01*
X559944Y586542D01*
X559837Y586790D01*
X559737Y587041D01*
X559643Y587294D01*
X559555Y587550D01*
X559474Y587807D01*
X559398Y588066D01*
X559330Y588327D01*
X559267Y588590D01*
X559211Y588854D01*
X559162Y589119D01*
X559119Y589386D01*
X559083Y589653D01*
X559053Y589922D01*
X559030Y590191D01*
X559013Y590460D01*
X559003Y590730D01*
X559000Y591000D01*
X559000Y229000D02*
X559003Y229270D01*
X559013Y229540D01*
X559030Y229809D01*
X559053Y230078D01*
X559083Y230347D01*
X559119Y230614D01*
X559162Y230881D01*
X559211Y231146D01*
X559267Y231410D01*
X559330Y231673D01*
X559398Y231934D01*
X559474Y232193D01*
X559555Y232450D01*
X559643Y232706D01*
X559737Y232959D01*
X559837Y233210D01*
X559944Y233458D01*
X560056Y233703D01*
X560175Y233946D01*
X560299Y234185D01*
X560429Y234422D01*
X560565Y234655D01*
X560707Y234885D01*
X560854Y235111D01*
X561007Y235334D01*
X561165Y235553D01*
X561328Y235768D01*
X561497Y235978D01*
X561671Y236185D01*
X561850Y236387D01*
X562033Y236585D01*
X562222Y236778D01*
X562415Y236967D01*
X562613Y237150D01*
X562815Y237329D01*
X563022Y237503D01*
X563232Y237672D01*
X563447Y237835D01*
X563666Y237993D01*
X563889Y238146D01*
X564115Y238293D01*
X564345Y238435D01*
X564578Y238571D01*
X564815Y238701D01*
X565054Y238825D01*
X565297Y238944D01*
X565542Y239056D01*
X565790Y239163D01*
X566041Y239263D01*
X566294Y239357D01*
X566550Y239445D01*
X566807Y239526D01*
X567066Y239602D01*
X567327Y239670D01*
X567590Y239733D01*
X567854Y239789D01*
X568119Y239838D01*
X568386Y239881D01*
X568653Y239917D01*
X568922Y239947D01*
X569191Y239970D01*
X569460Y239987D01*
X569730Y239997D01*
X570000Y240000D01*
X570270Y239997D01*
X570540Y239987D01*
X570809Y239970D01*
X571078Y239947D01*
X571347Y239917D01*
X571614Y239881D01*
X571881Y239838D01*
X572146Y239789D01*
X572410Y239733D01*
X572673Y239670D01*
X572934Y239602D01*
X573193Y239526D01*
X573450Y239445D01*
X573706Y239357D01*
X573959Y239263D01*
X574210Y239163D01*
X574458Y239056D01*
X574703Y238944D01*
X574946Y238825D01*
X575185Y238701D01*
X575422Y238571D01*
X575655Y238435D01*
X575885Y238293D01*
X576111Y238146D01*
X576334Y237993D01*
X576553Y237835D01*
X576768Y237672D01*
X576978Y237503D01*
X577185Y237329D01*
X577387Y237150D01*
X577585Y236967D01*
X577778Y236778D01*
X577967Y236585D01*
X578150Y236387D01*
X578329Y236185D01*
X578503Y235978D01*
X578672Y235768D01*
X578835Y235553D01*
X578993Y235334D01*
X579146Y235111D01*
X579293Y234885D01*
X579435Y234655D01*
X579571Y234422D01*
X579701Y234185D01*
X579825Y233946D01*
X579944Y233703D01*
X580056Y233458D01*
X580163Y233210D01*
X580263Y232959D01*
X580357Y232706D01*
X580445Y232450D01*
X580526Y232193D01*
X580602Y231934D01*
X580670Y231673D01*
X580733Y231410D01*
X580789Y231146D01*
X580838Y230881D01*
X580881Y230614D01*
X580917Y230347D01*
X580947Y230078D01*
X580970Y229809D01*
X580987Y229540D01*
X580997Y229270D01*
X581000Y229000D01*
X580997Y228730D01*
X580987Y228460D01*
X580970Y228191D01*
X580947Y227922D01*
X580917Y227653D01*
X580881Y227386D01*
X580838Y227119D01*
X580789Y226854D01*
X580733Y226590D01*
X580670Y226327D01*
X580602Y226066D01*
X580526Y225807D01*
X580445Y225550D01*
X580357Y225294D01*
X580263Y225041D01*
X580163Y224790D01*
X580056Y224542D01*
X579944Y224297D01*
X579825Y224054D01*
X579701Y223815D01*
X579571Y223578D01*
X579435Y223345D01*
X579293Y223115D01*
X579146Y222889D01*
X578993Y222666D01*
X578835Y222447D01*
X578672Y222232D01*
X578503Y222022D01*
X578329Y221815D01*
X578150Y221613D01*
X577967Y221415D01*
X577778Y221222D01*
X577585Y221033D01*
X577387Y220850D01*
X577185Y220671D01*
X576978Y220497D01*
X576768Y220328D01*
X576553Y220165D01*
X576334Y220007D01*
X576111Y219854D01*
X575885Y219707D01*
X575655Y219565D01*
X575422Y219429D01*
X575185Y219299D01*
X574946Y219175D01*
X574703Y219056D01*
X574458Y218944D01*
X574210Y218837D01*
X573959Y218737D01*
X573706Y218643D01*
X573450Y218555D01*
X573193Y218474D01*
X572934Y218398D01*
X572673Y218330D01*
X572410Y218267D01*
X572146Y218211D01*
X571881Y218162D01*
X571614Y218119D01*
X571347Y218083D01*
X571078Y218053D01*
X570809Y218030D01*
X570540Y218013D01*
X570270Y218003D01*
X570000Y218000D01*
X569730Y218003D01*
X569460Y218013D01*
X569191Y218030D01*
X568922Y218053D01*
X568653Y218083D01*
X568386Y218119D01*
X568119Y218162D01*
X567854Y218211D01*
X567590Y218267D01*
X567327Y218330D01*
X567066Y218398D01*
X566807Y218474D01*
X566550Y218555D01*
X566294Y218643D01*
X566041Y218737D01*
X565790Y218837D01*
X565542Y218944D01*
X565297Y219056D01*
X565054Y219175D01*
X564815Y219299D01*
X564578Y219429D01*
X564345Y219565D01*
X564115Y219707D01*
X563889Y219854D01*
X563666Y220007D01*
X563447Y220165D01*
X563232Y220328D01*
X563022Y220497D01*
X562815Y220671D01*
X562613Y220850D01*
X562415Y221033D01*
X562222Y221222D01*
X562033Y221415D01*
X561850Y221613D01*
X561671Y221815D01*
X561497Y222022D01*
X561328Y222232D01*
X561165Y222447D01*
X561007Y222666D01*
X560854Y222889D01*
X560707Y223115D01*
X560565Y223345D01*
X560429Y223578D01*
X560299Y223815D01*
X560175Y224054D01*
X560056Y224297D01*
X559944Y224542D01*
X559837Y224790D01*
X559737Y225041D01*
X559643Y225294D01*
X559555Y225550D01*
X559474Y225807D01*
X559398Y226066D01*
X559330Y226327D01*
X559267Y226590D01*
X559211Y226854D01*
X559162Y227119D01*
X559119Y227386D01*
X559083Y227653D01*
X559053Y227922D01*
X559030Y228191D01*
X559013Y228460D01*
X559003Y228730D01*
X559000Y229000D01*
X59000Y229000D02*
X59003Y229270D01*
X59013Y229540D01*
X59030Y229809D01*
X59053Y230078D01*
X59083Y230347D01*
X59119Y230614D01*
X59162Y230881D01*
X59211Y231146D01*
X59267Y231410D01*
X59330Y231673D01*
X59398Y231934D01*
X59474Y232193D01*
X59555Y232450D01*
X59643Y232706D01*
X59737Y232959D01*
X59837Y233210D01*
X59944Y233458D01*
X60056Y233703D01*
X60175Y233946D01*
X60299Y234185D01*
X60429Y234422D01*
X60565Y234655D01*
X60707Y234885D01*
X60854Y235111D01*
X61007Y235334D01*
X61165Y235553D01*
X61328Y235768D01*
X61497Y235978D01*
X61671Y236185D01*
X61850Y236387D01*
X62033Y236585D01*
X62222Y236778D01*
X62415Y236967D01*
X62613Y237150D01*
X62815Y237329D01*
X63022Y237503D01*
X63232Y237672D01*
X63447Y237835D01*
X63666Y237993D01*
X63889Y238146D01*
X64115Y238293D01*
X64345Y238435D01*
X64578Y238571D01*
X64815Y238701D01*
X65054Y238825D01*
X65297Y238944D01*
X65542Y239056D01*
X65790Y239163D01*
X66041Y239263D01*
X66294Y239357D01*
X66550Y239445D01*
X66807Y239526D01*
X67066Y239602D01*
X67327Y239670D01*
X67590Y239733D01*
X67854Y239789D01*
X68119Y239838D01*
X68386Y239881D01*
X68653Y239917D01*
X68922Y239947D01*
X69191Y239970D01*
X69460Y239987D01*
X69730Y239997D01*
X70000Y240000D01*
X70270Y239997D01*
X70540Y239987D01*
X70809Y239970D01*
X71078Y239947D01*
X71347Y239917D01*
X71614Y239881D01*
X71881Y239838D01*
X72146Y239789D01*
X72410Y239733D01*
X72673Y239670D01*
X72934Y239602D01*
X73193Y239526D01*
X73450Y239445D01*
X73706Y239357D01*
X73959Y239263D01*
X74210Y239163D01*
X74458Y239056D01*
X74703Y238944D01*
X74946Y238825D01*
X75185Y238701D01*
X75422Y238571D01*
X75655Y238435D01*
X75885Y238293D01*
X76111Y238146D01*
X76334Y237993D01*
X76553Y237835D01*
X76768Y237672D01*
X76978Y237503D01*
X77185Y237329D01*
X77387Y237150D01*
X77585Y236967D01*
X77778Y236778D01*
X77967Y236585D01*
X78150Y236387D01*
X78329Y236185D01*
X78503Y235978D01*
X78672Y235768D01*
X78835Y235553D01*
X78993Y235334D01*
X79146Y235111D01*
X79293Y234885D01*
X79435Y234655D01*
X79571Y234422D01*
X79701Y234185D01*
X79825Y233946D01*
X79944Y233703D01*
X80056Y233458D01*
X80163Y233210D01*
X80263Y232959D01*
X80357Y232706D01*
X80445Y232450D01*
X80526Y232193D01*
X80602Y231934D01*
X80670Y231673D01*
X80733Y231410D01*
X80789Y231146D01*
X80838Y230881D01*
X80881Y230614D01*
X80917Y230347D01*
X80947Y230078D01*
X80970Y229809D01*
X80987Y229540D01*
X80997Y229270D01*
X81000Y229000D01*
X80997Y228730D01*
X80987Y228460D01*
X80970Y228191D01*
X80947Y227922D01*
X80917Y227653D01*
X80881Y227386D01*
X80838Y227119D01*
X80789Y226854D01*
X80733Y226590D01*
X80670Y226327D01*
X80602Y226066D01*
X80526Y225807D01*
X80445Y225550D01*
X80357Y225294D01*
X80263Y225041D01*
X80163Y224790D01*
X80056Y224542D01*
X79944Y224297D01*
X79825Y224054D01*
X79701Y223815D01*
X79571Y223578D01*
X79435Y223345D01*
X79293Y223115D01*
X79146Y222889D01*
X78993Y222666D01*
X78835Y222447D01*
X78672Y222232D01*
X78503Y222022D01*
X78329Y221815D01*
X78150Y221613D01*
X77967Y221415D01*
X77778Y221222D01*
X77585Y221033D01*
X77387Y220850D01*
X77185Y220671D01*
X76978Y220497D01*
X76768Y220328D01*
X76553Y220165D01*
X76334Y220007D01*
X76111Y219854D01*
X75885Y219707D01*
X75655Y219565D01*
X75422Y219429D01*
X75185Y219299D01*
X74946Y219175D01*
X74703Y219056D01*
X74458Y218944D01*
X74210Y218837D01*
X73959Y218737D01*
X73706Y218643D01*
X73450Y218555D01*
X73193Y218474D01*
X72934Y218398D01*
X72673Y218330D01*
X72410Y218267D01*
X72146Y218211D01*
X71881Y218162D01*
X71614Y218119D01*
X71347Y218083D01*
X71078Y218053D01*
X70809Y218030D01*
X70540Y218013D01*
X70270Y218003D01*
X70000Y218000D01*
X69730Y218003D01*
X69460Y218013D01*
X69191Y218030D01*
X68922Y218053D01*
X68653Y218083D01*
X68386Y218119D01*
X68119Y218162D01*
X67854Y218211D01*
X67590Y218267D01*
X67327Y218330D01*
X67066Y218398D01*
X66807Y218474D01*
X66550Y218555D01*
X66294Y218643D01*
X66041Y218737D01*
X65790Y218837D01*
X65542Y218944D01*
X65297Y219056D01*
X65054Y219175D01*
X64815Y219299D01*
X64578Y219429D01*
X64345Y219565D01*
X64115Y219707D01*
X63889Y219854D01*
X63666Y220007D01*
X63447Y220165D01*
X63232Y220328D01*
X63022Y220497D01*
X62815Y220671D01*
X62613Y220850D01*
X62415Y221033D01*
X62222Y221222D01*
X62033Y221415D01*
X61850Y221613D01*
X61671Y221815D01*
X61497Y222022D01*
X61328Y222232D01*
X61165Y222447D01*
X61007Y222666D01*
X60854Y222889D01*
X60707Y223115D01*
X60565Y223345D01*
X60429Y223578D01*
X60299Y223815D01*
X60175Y224054D01*
X60056Y224297D01*
X59944Y224542D01*
X59837Y224790D01*
X59737Y225041D01*
X59643Y225294D01*
X59555Y225550D01*
X59474Y225807D01*
X59398Y226066D01*
X59330Y226327D01*
X59267Y226590D01*
X59211Y226854D01*
X59162Y227119D01*
X59119Y227386D01*
X59083Y227653D01*
X59053Y227922D01*
X59030Y228191D01*
X59013Y228460D01*
X59003Y228730D01*
X59000Y229000D01*
X59000Y591000D02*
X59003Y591270D01*
X59013Y591540D01*
X59030Y591809D01*
X59053Y592078D01*
X59083Y592347D01*
X59119Y592614D01*
X59162Y592881D01*
X59211Y593146D01*
X59267Y593410D01*
X59330Y593673D01*
X59398Y593934D01*
X59474Y594193D01*
X59555Y594450D01*
X59643Y594706D01*
X59737Y594959D01*
X59837Y595210D01*
X59944Y595458D01*
X60056Y595703D01*
X60175Y595946D01*
X60299Y596185D01*
X60429Y596422D01*
X60565Y596655D01*
X60707Y596885D01*
X60854Y597111D01*
X61007Y597334D01*
X61165Y597553D01*
X61328Y597768D01*
X61497Y597978D01*
X61671Y598185D01*
X61850Y598387D01*
X62033Y598585D01*
X62222Y598778D01*
X62415Y598967D01*
X62613Y599150D01*
X62815Y599329D01*
X63022Y599503D01*
X63232Y599672D01*
X63447Y599835D01*
X63666Y599993D01*
X63889Y600146D01*
X64115Y600293D01*
X64345Y600435D01*
X64578Y600571D01*
X64815Y600701D01*
X65054Y600825D01*
X65297Y600944D01*
X65542Y601056D01*
X65790Y601163D01*
X66041Y601263D01*
X66294Y601357D01*
X66550Y601445D01*
X66807Y601526D01*
X67066Y601602D01*
X67327Y601670D01*
X67590Y601733D01*
X67854Y601789D01*
X68119Y601838D01*
X68386Y601881D01*
X68653Y601917D01*
X68922Y601947D01*
X69191Y601970D01*
X69460Y601987D01*
X69730Y601997D01*
X70000Y602000D01*
X70270Y601997D01*
X70540Y601987D01*
X70809Y601970D01*
X71078Y601947D01*
X71347Y601917D01*
X71614Y601881D01*
X71881Y601838D01*
X72146Y601789D01*
X72410Y601733D01*
X72673Y601670D01*
X72934Y601602D01*
X73193Y601526D01*
X73450Y601445D01*
X73706Y601357D01*
X73959Y601263D01*
X74210Y601163D01*
X74458Y601056D01*
X74703Y600944D01*
X74946Y600825D01*
X75185Y600701D01*
X75422Y600571D01*
X75655Y600435D01*
X75885Y600293D01*
X76111Y600146D01*
X76334Y599993D01*
X76553Y599835D01*
X76768Y599672D01*
X76978Y599503D01*
X77185Y599329D01*
X77387Y599150D01*
X77585Y598967D01*
X77778Y598778D01*
X77967Y598585D01*
X78150Y598387D01*
X78329Y598185D01*
X78503Y597978D01*
X78672Y597768D01*
X78835Y597553D01*
X78993Y597334D01*
X79146Y597111D01*
X79293Y596885D01*
X79435Y596655D01*
X79571Y596422D01*
X79701Y596185D01*
X79825Y595946D01*
X79944Y595703D01*
X80056Y595458D01*
X80163Y595210D01*
X80263Y594959D01*
X80357Y594706D01*
X80445Y594450D01*
X80526Y594193D01*
X80602Y593934D01*
X80670Y593673D01*
X80733Y593410D01*
X80789Y593146D01*
X80838Y592881D01*
X80881Y592614D01*
X80917Y592347D01*
X80947Y592078D01*
X80970Y591809D01*
X80987Y591540D01*
X80997Y591270D01*
X81000Y591000D01*
X80997Y590730D01*
X80987Y590460D01*
X80970Y590191D01*
X80947Y589922D01*
X80917Y589653D01*
X80881Y589386D01*
X80838Y589119D01*
X80789Y588854D01*
X80733Y588590D01*
X80670Y588327D01*
X80602Y588066D01*
X80526Y587807D01*
X80445Y587550D01*
X80357Y587294D01*
X80263Y587041D01*
X80163Y586790D01*
X80056Y586542D01*
X79944Y586297D01*
X79825Y586054D01*
X79701Y585815D01*
X79571Y585578D01*
X79435Y585345D01*
X79293Y585115D01*
X79146Y584889D01*
X78993Y584666D01*
X78835Y584447D01*
X78672Y584232D01*
X78503Y584022D01*
X78329Y583815D01*
X78150Y583613D01*
X77967Y583415D01*
X77778Y583222D01*
X77585Y583033D01*
X77387Y582850D01*
X77185Y582671D01*
X76978Y582497D01*
X76768Y582328D01*
X76553Y582165D01*
X76334Y582007D01*
X76111Y581854D01*
X75885Y581707D01*
X75655Y581565D01*
X75422Y581429D01*
X75185Y581299D01*
X74946Y581175D01*
X74703Y581056D01*
X74458Y580944D01*
X74210Y580837D01*
X73959Y580737D01*
X73706Y580643D01*
X73450Y580555D01*
X73193Y580474D01*
X72934Y580398D01*
X72673Y580330D01*
X72410Y580267D01*
X72146Y580211D01*
X71881Y580162D01*
X71614Y580119D01*
X71347Y580083D01*
X71078Y580053D01*
X70809Y580030D01*
X70540Y580013D01*
X70270Y580003D01*
X70000Y580000D01*
X69730Y580003D01*
X69460Y580013D01*
X69191Y580030D01*
X68922Y580053D01*
X68653Y580083D01*
X68386Y580119D01*
X68119Y580162D01*
X67854Y580211D01*
X67590Y580267D01*
X67327Y580330D01*
X67066Y580398D01*
X66807Y580474D01*
X66550Y580555D01*
X66294Y580643D01*
X66041Y580737D01*
X65790Y580837D01*
X65542Y580944D01*
X65297Y581056D01*
X65054Y581175D01*
X64815Y581299D01*
X64578Y581429D01*
X64345Y581565D01*
X64115Y581707D01*
X63889Y581854D01*
X63666Y582007D01*
X63447Y582165D01*
X63232Y582328D01*
X63022Y582497D01*
X62815Y582671D01*
X62613Y582850D01*
X62415Y583033D01*
X62222Y583222D01*
X62033Y583415D01*
X61850Y583613D01*
X61671Y583815D01*
X61497Y584022D01*
X61328Y584232D01*
X61165Y584447D01*
X61007Y584666D01*
X60854Y584889D01*
X60707Y585115D01*
X60565Y585345D01*
X60429Y585578D01*
X60299Y585815D01*
X60175Y586054D01*
X60056Y586297D01*
X59944Y586542D01*
X59837Y586790D01*
X59737Y587041D01*
X59643Y587294D01*
X59555Y587550D01*
X59474Y587807D01*
X59398Y588066D01*
X59330Y588327D01*
X59267Y588590D01*
X59211Y588854D01*
X59162Y589119D01*
X59119Y589386D01*
X59083Y589653D01*
X59053Y589922D01*
X59030Y590191D01*
X59013Y590460D01*
X59003Y590730D01*
X59000Y591000D01*
D11*
X138700Y699300D03*
X138700Y724700D03*
D12*
X362700Y684000D03*
X337300Y684000D03*
D11*
X418700Y699300D03*
X418700Y724700D03*
D12*
X418700Y684000D03*
X393300Y684000D03*
D11*
X474700Y699300D03*
X474700Y724700D03*
D12*
X474700Y684000D03*
X449300Y684000D03*
D11*
X530700Y699300D03*
X530700Y724700D03*
D12*
X530700Y684000D03*
X505300Y684000D03*
X138700Y684000D03*
X113300Y684000D03*
D11*
X194700Y699300D03*
X194700Y724700D03*
D12*
X194700Y684000D03*
X169300Y684000D03*
D11*
X250700Y699300D03*
X250700Y724700D03*
D12*
X250700Y684000D03*
X225300Y684000D03*
D11*
X306700Y699300D03*
X306700Y724700D03*
D12*
X306700Y684000D03*
X281300Y684000D03*
D11*
X362700Y699300D03*
X362700Y724700D03*
D13*
X50600Y405400D03*
X76000Y405400D03*
X101400Y405400D03*
X126800Y405400D03*
X152200Y405400D03*
X177600Y405400D03*
X203000Y405400D03*
X228400Y405400D03*
X253800Y405400D03*
X279200Y405400D03*
X304600Y405400D03*
X330000Y405400D03*
X355400Y405400D03*
X380800Y405400D03*
X380800Y481600D03*
X355400Y481600D03*
X330000Y481600D03*
X304600Y481600D03*
X279200Y481600D03*
X253800Y481600D03*
X228400Y481600D03*
X203000Y481600D03*
X177600Y481600D03*
X152200Y481600D03*
X126800Y481600D03*
X101400Y481600D03*
X76000Y481600D03*
X50600Y481600D03*
X228400Y393100D03*
X203000Y393100D03*
X76000Y393100D03*
X50600Y393100D03*
X177600Y393100D03*
X152200Y393100D03*
X101400Y393100D03*
X126800Y393100D03*
X25200Y393100D03*
X25200Y316900D03*
X50600Y316900D03*
X76000Y316900D03*
X101400Y316900D03*
X126800Y316900D03*
X152200Y316900D03*
X177600Y316900D03*
X203000Y316900D03*
X228400Y316900D03*
D11*
X113300Y724700D03*
X113300Y699300D03*
X393300Y724700D03*
X393300Y699300D03*
X449300Y724700D03*
X449300Y699300D03*
X505300Y724700D03*
X505300Y699300D03*
X304600Y550700D03*
X304600Y525300D03*
X419000Y522700D03*
X419000Y497300D03*
X399000Y510600D03*
X399000Y485200D03*
D14*
X419000Y457300D03*
X419000Y482700D03*
D11*
X169300Y724700D03*
X169300Y699300D03*
X225300Y724700D03*
X225300Y699300D03*
X281300Y724700D03*
X281300Y699300D03*
X337300Y724700D03*
X337300Y699300D03*
D15*
X253800Y548296D02*
X253800Y536104D01*
X228400Y536104D02*
X228400Y548296D01*
X203000Y548296D02*
X203000Y536104D01*
X177600Y536104D02*
X177600Y548296D01*
X152200Y548296D02*
X152200Y536104D01*
X126800Y536104D02*
X126800Y548296D01*
X101400Y548296D02*
X101400Y536104D01*
X76000Y536104D02*
X76000Y548296D01*
X50600Y548296D02*
X50600Y536104D01*
X454600Y474896D02*
X454600Y462704D01*
X480000Y462704D02*
X480000Y474896D01*
X505400Y474896D02*
X505400Y462704D01*
X505400Y538904D02*
X505400Y551096D01*
X454600Y551096D02*
X454600Y538904D01*
X480000Y538904D02*
X480000Y551096D01*
D16*
X146500Y290000D03*
D17*
X146500Y175000D03*
D18*
X146500Y105000D03*
D16*
X193500Y290000D03*
X236500Y290000D03*
D17*
X236500Y175000D03*
D18*
X236500Y105000D03*
D16*
X283500Y290000D03*
X356500Y290000D03*
D17*
X356500Y175000D03*
D18*
X356500Y105000D03*
D16*
X403500Y290000D03*
X446500Y290000D03*
D17*
X446500Y175000D03*
D18*
X446500Y105000D03*
D16*
X493500Y290000D03*
D19*
X553500Y520000D03*
X572500Y520000D03*
D20*
X70000Y38000D03*
X120000Y38000D03*
X369000Y782000D03*
X419000Y782000D03*
X469000Y782000D03*
X519000Y782000D03*
X70000Y782000D03*
X120000Y782000D03*
X170000Y782000D03*
X220000Y782000D03*
X270000Y782000D03*
X220000Y38000D03*
X270000Y38000D03*
X370000Y38000D03*
X420000Y38000D03*
X520000Y38000D03*
X570000Y38000D03*
D14*
X228400Y496800D03*
X228400Y522200D03*
X203000Y496800D03*
X203000Y522200D03*
X177600Y496800D03*
X177600Y522200D03*
X126800Y496800D03*
X126800Y522200D03*
X101400Y496800D03*
X101400Y522200D03*
X76000Y496800D03*
X76000Y522200D03*
X50600Y496800D03*
X50600Y522200D03*
X152200Y496800D03*
X152200Y522200D03*
D21*
X304600Y386000D03*
X330000Y386000D03*
D12*
X380800Y386000D03*
X355400Y386000D03*
D22*
X613500Y727500D03*
D23*
X613500Y747500D03*
X593500Y727500D03*
X593500Y747500D03*
X573500Y727500D03*
X573500Y747500D03*
D14*
X380800Y497300D03*
X380800Y522700D03*
X355400Y497300D03*
X355400Y522700D03*
X330000Y497300D03*
X330000Y522700D03*
D15*
X298900Y661100D02*
X298900Y673292D01*
X273500Y673292D02*
X273500Y661100D01*
X146500Y661100D02*
X146500Y673292D01*
X121100Y673292D02*
X121100Y661100D01*
X248100Y661100D02*
X248100Y673292D01*
X222700Y673292D02*
X222700Y661100D01*
X171900Y661100D02*
X171900Y673292D01*
X197300Y673292D02*
X197300Y661100D01*
X121100Y584900D02*
X121100Y572708D01*
X146500Y572708D02*
X146500Y584900D01*
X171900Y584900D02*
X171900Y572708D01*
X197300Y572708D02*
X197300Y584900D01*
X222700Y584900D02*
X222700Y572708D01*
X248100Y572708D02*
X248100Y584900D01*
X273500Y584900D02*
X273500Y572708D01*
X298900Y572708D02*
X298900Y584900D01*
X522900Y661100D02*
X522900Y673292D01*
X497500Y673292D02*
X497500Y661100D01*
X370500Y661100D02*
X370500Y673292D01*
X345100Y673292D02*
X345100Y661100D01*
X472100Y661100D02*
X472100Y673292D01*
X446700Y673292D02*
X446700Y661100D01*
X395900Y661100D02*
X395900Y673292D01*
X421300Y673292D02*
X421300Y661100D01*
X345100Y584900D02*
X345100Y572708D01*
X370500Y572708D02*
X370500Y584900D01*
X395900Y584900D02*
X395900Y572708D01*
X421300Y572708D02*
X421300Y584900D01*
X446700Y584900D02*
X446700Y572708D01*
X472100Y572708D02*
X472100Y584900D01*
X497500Y584900D02*
X497500Y572708D01*
X522900Y572708D02*
X522900Y584900D01*
D11*
X286000Y538000D03*
X286000Y512600D03*
D24*
X297742Y337300D02*
X311458Y337300D01*
X311458Y362700D02*
X297742Y362700D01*
X373942Y337300D02*
X387658Y337300D01*
X387658Y362700D02*
X373942Y362700D01*
X357700Y540242D02*
X357700Y553958D01*
X332300Y553958D02*
X332300Y540242D01*
D12*
X620200Y535300D03*
X594800Y535300D03*
D25*
X620000Y558000D03*
X595000Y558000D03*
D26*
X559800Y485000D03*
X572500Y504050D03*
X585200Y485000D03*
D27*
X419500Y337300D03*
X439500Y337300D03*
X459500Y337300D03*
X479500Y337300D03*
X499500Y337300D03*
X519500Y337300D03*
D15*
X138700Y684000D02*
X138700Y699300D01*
X146500Y676200D02*
X146500Y661100D01*
X146500Y676200D02*
X138700Y684000D01*
X194700Y684000D02*
X194700Y699300D01*
X197300Y681400D02*
X197300Y661100D01*
X197300Y681400D02*
X194700Y684000D01*
D28*
X203000Y548300D02*
X203000Y542200D01*
X203000Y548300D02*
X191300Y560000D01*
X171900Y572700D02*
X171900Y584900D01*
X171900Y572700D02*
X184600Y560000D01*
X191300Y560000D01*
D15*
X250700Y684000D02*
X250700Y699300D01*
X248100Y681400D02*
X248100Y661100D01*
X248100Y681400D02*
X250700Y684000D01*
D28*
X190300Y537300D02*
X190300Y519300D01*
X213300Y519100D02*
X213300Y563400D01*
X207700Y513500D02*
X196100Y513500D01*
X190300Y519300D01*
X190300Y537300D02*
X185400Y542200D01*
X177600Y542200D01*
X207700Y513500D02*
X213300Y519100D01*
X213300Y563400D02*
X222700Y572800D01*
X222700Y584900D01*
D15*
X306700Y684000D02*
X306700Y699300D01*
X298900Y676200D02*
X298900Y661100D01*
X298900Y676200D02*
X306700Y684000D01*
D28*
X262400Y596000D02*
X166568Y596000D01*
X152200Y548247D02*
X152200Y542200D01*
X152200Y548247D02*
X159200Y555247D01*
X159200Y588632D01*
X166568Y596000D01*
X262400Y596000D02*
X273500Y584900D01*
D15*
X362700Y684000D02*
X362700Y699300D01*
X370500Y676200D02*
X370500Y661100D01*
X370500Y676200D02*
X362700Y684000D01*
D28*
X330400Y599600D02*
X117400Y599600D01*
X111200Y593400D02*
X111200Y563900D01*
X126800Y548300D02*
X126800Y542200D01*
X111200Y593400D02*
X117400Y599600D01*
X330400Y599600D02*
X345100Y584900D01*
X126800Y548300D02*
X111200Y563900D01*
D15*
X418700Y684000D02*
X418700Y699300D01*
X421300Y681400D02*
X421300Y661100D01*
X421300Y681400D02*
X418700Y684000D01*
D28*
X377600Y603200D02*
X115800Y603200D01*
X107600Y595000D02*
X107600Y554500D01*
X101400Y548300D02*
X101400Y542200D01*
X107600Y595000D02*
X115800Y603200D01*
X377600Y603200D02*
X395900Y584900D01*
X107600Y554500D02*
X101400Y548300D01*
D15*
X474700Y684000D02*
X474700Y699300D01*
X472100Y681400D02*
X472100Y661100D01*
X472100Y681400D02*
X474700Y684000D01*
D28*
X424800Y606800D02*
X114100Y606800D01*
X76000Y548300D02*
X76000Y542200D01*
X104000Y596700D02*
X114100Y606800D01*
X424800Y606800D02*
X446700Y584900D01*
X82200Y554500D02*
X76000Y548300D01*
X82200Y554500D02*
X88600Y554500D01*
X104000Y569900D01*
X104000Y596700D01*
D15*
X530700Y684000D02*
X530700Y699300D01*
X522900Y676200D02*
X522900Y661100D01*
X522900Y676200D02*
X530700Y684000D01*
D28*
X472000Y610400D02*
X112600Y610400D01*
X50600Y548300D02*
X50600Y542200D01*
X60400Y558100D02*
X87100Y558100D01*
X100400Y598200D02*
X112600Y610400D01*
X472000Y610400D02*
X497500Y584900D01*
X60400Y558100D02*
X50600Y548300D01*
X87100Y558100D02*
X100400Y571400D01*
X100400Y598200D01*
X177600Y316900D02*
X192300Y302200D01*
X224300Y302200D01*
X236500Y290000D01*
X214100Y305800D02*
X203000Y316900D01*
X214100Y305800D02*
X387700Y305800D01*
X403500Y290000D01*
X474100Y309400D02*
X235900Y309400D01*
X474100Y309400D02*
X493500Y290000D01*
X235900Y309400D02*
X228400Y316900D01*
D29*
X146500Y105000D02*
X109600Y105000D01*
X70000Y65400D01*
X70000Y38000D01*
X187000Y134500D02*
X146500Y175000D01*
X187000Y134500D02*
X187000Y80800D01*
X144200Y38000D01*
X120000Y38000D01*
X230000Y48000D02*
X230000Y98500D01*
X230000Y48000D02*
X220000Y38000D01*
X230000Y98500D02*
X236500Y105000D01*
X290000Y121500D02*
X236500Y175000D01*
X290000Y121500D02*
X290000Y58000D01*
X270000Y38000D01*
D30*
X228400Y393100D02*
X228400Y405400D01*
X203000Y405400D02*
X203000Y393100D01*
X177600Y393100D02*
X177600Y405400D01*
X152200Y405400D02*
X152200Y393100D01*
X126800Y393100D02*
X126800Y405400D01*
X101400Y405400D02*
X101400Y393100D01*
X76000Y393100D02*
X76000Y405400D01*
X50600Y405400D02*
X50600Y393100D01*
D29*
X453000Y105000D02*
X520000Y38000D01*
X453000Y105000D02*
X446500Y105000D01*
X446500Y175000D02*
X483500Y175000D01*
X570000Y88500D01*
X570000Y38000D01*
X356500Y51500D02*
X356500Y105000D01*
X356500Y51500D02*
X370000Y38000D01*
X403500Y128000D02*
X356500Y175000D01*
X403500Y128000D02*
X403500Y82100D01*
X420000Y65600D01*
X420000Y38000D01*
D28*
X459800Y317600D02*
X250900Y317600D01*
X233000Y335500D02*
X120000Y335500D01*
X459800Y317600D02*
X479500Y337300D01*
X120000Y335500D02*
X101400Y316900D01*
X233000Y335500D02*
X250900Y317600D01*
X232500Y344100D02*
X103200Y344100D01*
X255400Y321200D02*
X443400Y321200D01*
X459500Y337300D01*
X103200Y344100D02*
X76000Y316900D01*
X232500Y344100D02*
X255400Y321200D01*
X234000Y347700D02*
X81400Y347700D01*
X256900Y324800D02*
X427000Y324800D01*
X439500Y337300D01*
X81400Y347700D02*
X50600Y316900D01*
X234000Y347700D02*
X256900Y324800D01*
X249400Y314000D02*
X476200Y314000D01*
X231500Y331900D02*
X141800Y331900D01*
X476200Y314000D02*
X499500Y337300D01*
X141800Y331900D02*
X126800Y316900D01*
X231500Y331900D02*
X249400Y314000D01*
D31*
X10000Y269000D03*
X87500Y269000D03*
X165000Y269000D03*
X242500Y269000D03*
X320000Y269000D03*
X397500Y269000D03*
X475000Y269000D03*
X552500Y269000D03*
X630000Y269000D03*
X10000Y384900D03*
X88700Y384900D03*
X164900Y384900D03*
X242500Y384900D03*
X317300Y384900D03*
X393474Y384900D03*
X475000Y384900D03*
X552500Y384900D03*
X630000Y384900D03*
X10000Y500800D03*
X87500Y500800D03*
X165000Y500800D03*
X242500Y500800D03*
X475000Y500800D03*
X552500Y500800D03*
X630000Y500800D03*
X10000Y616700D03*
X87500Y616700D03*
X165000Y616700D03*
X242500Y616700D03*
X320000Y616700D03*
X397500Y616700D03*
X475000Y616700D03*
X552500Y616700D03*
X310800Y282600D03*
X298400Y282600D03*
X481300Y310600D03*
X358400Y442200D03*
X374100Y468400D03*
X38400Y328400D03*
X584200Y524000D03*
X597700Y524000D03*
X342800Y522700D03*
X443700Y557700D03*
X529000Y553300D03*
X369400Y557600D03*
X293600Y557600D03*
X368100Y522700D03*
X146300Y302500D03*
X158100Y302500D03*
X247600Y299700D03*
X414600Y303300D03*
D32*
X228400Y481600D02*
X228400Y496800D01*
X203000Y496800D02*
X203000Y481600D01*
X177600Y481600D02*
X177600Y496800D01*
X50600Y496800D02*
X50600Y481600D01*
X76000Y481600D02*
X76000Y496800D01*
X101400Y496800D02*
X101400Y481600D01*
X126800Y481600D02*
X126800Y496800D01*
X152200Y496800D02*
X152200Y481600D01*
D28*
X152200Y316900D02*
X152200Y295700D01*
X146500Y290000D01*
X380800Y522700D02*
X419000Y522700D01*
X454600Y487100D01*
X454600Y468800D01*
D32*
X380800Y481600D02*
X380800Y497300D01*
X355400Y497300D02*
X355400Y481600D01*
X330000Y481600D02*
X330000Y497300D01*
D31*
X10000Y810000D03*
X10000Y732250D03*
X10000Y655000D03*
X76250Y810000D03*
X102075Y769300D03*
X76250Y732250D03*
X76250Y655000D03*
X142500Y810000D03*
X308125Y769300D03*
X182425Y769300D03*
X208750Y810000D03*
X241875Y769300D03*
X208750Y732250D03*
X275000Y810000D03*
X147500Y732250D03*
X270000Y732250D03*
X341250Y810000D03*
X348550Y732250D03*
X308500Y655000D03*
X407500Y810000D03*
X407500Y732250D03*
X473750Y810000D03*
X473750Y736250D03*
X540000Y810000D03*
X540000Y732250D03*
X43125Y769300D03*
X43081Y692100D03*
D15*
X169300Y684000D02*
X171900Y681400D01*
X171900Y661100D01*
X222700Y681400D02*
X225300Y684000D01*
X222700Y681400D02*
X222700Y661100D01*
X273500Y661100D02*
X273500Y676200D01*
X345100Y676200D02*
X345100Y661100D01*
X345100Y676200D02*
X337300Y684000D01*
X393300Y684000D02*
X395900Y681400D01*
X395900Y661100D01*
X446700Y681400D02*
X449300Y684000D01*
X446700Y681400D02*
X446700Y661100D01*
X497500Y676200D02*
X505300Y684000D01*
X497500Y676200D02*
X497500Y661100D01*
X121100Y661100D02*
X121100Y676200D01*
X113300Y684000D01*
X273500Y676200D02*
X281300Y684000D01*
D33*
X489500Y679412D02*
X492500Y679412D01*
X441500Y679412D02*
X438500Y679412D01*
X403500Y679412D02*
X400500Y679412D01*
X353000Y679412D02*
X350000Y679412D01*
X269000Y679412D02*
X263000Y679412D01*
X217500Y679412D02*
X214500Y679412D01*
X179500Y679412D02*
X176500Y679412D01*
X129500Y679412D02*
X125500Y679412D01*
D31*
X538000Y655000D03*
D33*
X179500Y682612D02*
X176500Y682612D01*
X215000Y682612D02*
X218000Y682612D01*
D31*
X381375Y769300D03*
X440625Y769300D03*
X493875Y769300D03*
D28*
X368260Y502740D02*
X368260Y463392D01*
X342700Y510000D02*
X330000Y522700D01*
X342700Y510000D02*
X361000Y510000D01*
X419000Y451000D02*
X493900Y451000D01*
X368260Y502740D02*
X361000Y510000D01*
X493900Y451000D02*
X505400Y462500D01*
X505400Y468800D01*
X380652Y451000D02*
X368260Y463392D01*
X380652Y451000D02*
X419000Y451000D01*
X419000Y457300D01*
X139600Y521200D02*
X139600Y554200D01*
X150900Y509900D02*
X209200Y509900D01*
X150900Y509900D02*
X139600Y521200D01*
X218000Y518700D02*
X218000Y539100D01*
X221100Y542200D01*
X228400Y542200D01*
X218000Y518700D02*
X209200Y509900D01*
X139600Y554200D02*
X121100Y572700D01*
X121100Y584900D01*
X620000Y558000D02*
X620000Y711400D01*
X613500Y717900D01*
X613500Y727500D01*
X380800Y386000D02*
X380800Y362700D01*
X304600Y362700D02*
X304600Y386000D01*
X286000Y538000D02*
X328100Y538000D01*
X332300Y542200D01*
X332300Y547100D01*
X330000Y405400D02*
X330000Y386000D01*
X593500Y714100D02*
X593500Y727500D01*
X607500Y700100D02*
X607500Y477000D01*
X594100Y463600D01*
X534100Y463600D01*
X510700Y440200D01*
X364800Y440200D01*
X607500Y700100D02*
X593500Y714100D01*
X364800Y440200D02*
X330000Y405400D01*
X355400Y405400D02*
X355400Y386000D01*
X603500Y737500D02*
X593500Y747500D01*
X603500Y737500D02*
X603500Y718300D01*
X611100Y710700D02*
X611100Y475500D01*
X595600Y460000D01*
X535600Y460000D01*
X512200Y436600D01*
X387000Y436600D01*
X355400Y405000D01*
X355400Y405400D01*
X611100Y710700D02*
X603500Y718300D01*
X596000Y558000D02*
X595000Y558000D01*
X596000Y558000D02*
X603900Y550100D01*
X603900Y478600D01*
X592500Y467200D01*
X532600Y467200D01*
X509200Y443800D01*
X365200Y443800D01*
X348700Y460300D01*
X275100Y460300D01*
X253800Y481600D01*
X271400Y512600D02*
X286000Y512600D01*
X271400Y512600D02*
X253800Y495000D01*
X253800Y481600D01*
X545200Y485000D02*
X559800Y485000D01*
X545200Y485000D02*
X507600Y447400D01*
X373000Y447400D01*
X356400Y464000D01*
X322200Y464000D01*
X304600Y481600D01*
X304600Y525300D01*
X613500Y747500D02*
X626700Y734300D01*
X626700Y541800D01*
X620200Y535300D01*
X572500Y520000D02*
X572500Y504050D01*
X586800Y535300D02*
X594800Y535300D01*
X586800Y535300D02*
X576400Y524900D01*
X576400Y523900D01*
X572500Y520000D01*
M02*
