G75*
%MOIN*%
%OFA0B0*%
%FSLAX25Y25*%
%IPPOS*%
%LPD*%
%AMOC8*
5,1,8,0,0,1.08239X$1,22.5*
%
%ADD10C,0.00000*%
%ADD11OC8,0.06300*%
%ADD12OC8,0.04800*%
%ADD13C,0.04800*%
%ADD14C,0.04800*%
%ADD15C,0.05250*%
%ADD16C,0.05315*%
%ADD17C,0.07677*%
%ADD18C,0.07677*%
%ADD19R,0.05400X0.05400*%
%ADD20C,0.05400*%
%ADD21C,0.06000*%
D10*
X0001300Y0011772D02*
X0001300Y0334606D01*
X0253269Y0334606D01*
X0253269Y0011772D01*
X0001300Y0011772D01*
X0023938Y0074764D02*
X0023940Y0074904D01*
X0023946Y0075044D01*
X0023956Y0075183D01*
X0023970Y0075322D01*
X0023988Y0075461D01*
X0024009Y0075599D01*
X0024035Y0075737D01*
X0024065Y0075874D01*
X0024098Y0076009D01*
X0024136Y0076144D01*
X0024177Y0076278D01*
X0024222Y0076411D01*
X0024270Y0076542D01*
X0024323Y0076671D01*
X0024379Y0076800D01*
X0024438Y0076926D01*
X0024502Y0077051D01*
X0024568Y0077174D01*
X0024639Y0077295D01*
X0024712Y0077414D01*
X0024789Y0077531D01*
X0024870Y0077645D01*
X0024953Y0077757D01*
X0025040Y0077867D01*
X0025130Y0077975D01*
X0025222Y0078079D01*
X0025318Y0078181D01*
X0025417Y0078281D01*
X0025518Y0078377D01*
X0025622Y0078471D01*
X0025729Y0078561D01*
X0025838Y0078648D01*
X0025950Y0078733D01*
X0026064Y0078814D01*
X0026180Y0078892D01*
X0026298Y0078966D01*
X0026419Y0079037D01*
X0026541Y0079105D01*
X0026666Y0079169D01*
X0026792Y0079230D01*
X0026919Y0079287D01*
X0027049Y0079340D01*
X0027180Y0079390D01*
X0027312Y0079435D01*
X0027445Y0079478D01*
X0027580Y0079516D01*
X0027715Y0079550D01*
X0027852Y0079581D01*
X0027989Y0079608D01*
X0028127Y0079630D01*
X0028266Y0079649D01*
X0028405Y0079664D01*
X0028544Y0079675D01*
X0028684Y0079682D01*
X0028824Y0079685D01*
X0028964Y0079684D01*
X0029104Y0079679D01*
X0029243Y0079670D01*
X0029383Y0079657D01*
X0029522Y0079640D01*
X0029660Y0079619D01*
X0029798Y0079595D01*
X0029935Y0079566D01*
X0030071Y0079534D01*
X0030206Y0079497D01*
X0030340Y0079457D01*
X0030473Y0079413D01*
X0030604Y0079365D01*
X0030734Y0079314D01*
X0030863Y0079259D01*
X0030990Y0079200D01*
X0031115Y0079137D01*
X0031238Y0079072D01*
X0031360Y0079002D01*
X0031479Y0078929D01*
X0031597Y0078853D01*
X0031712Y0078774D01*
X0031825Y0078691D01*
X0031935Y0078605D01*
X0032043Y0078516D01*
X0032148Y0078424D01*
X0032251Y0078329D01*
X0032351Y0078231D01*
X0032448Y0078131D01*
X0032542Y0078027D01*
X0032634Y0077921D01*
X0032722Y0077813D01*
X0032807Y0077702D01*
X0032889Y0077588D01*
X0032968Y0077472D01*
X0033043Y0077355D01*
X0033115Y0077235D01*
X0033183Y0077113D01*
X0033248Y0076989D01*
X0033310Y0076863D01*
X0033368Y0076736D01*
X0033422Y0076607D01*
X0033473Y0076476D01*
X0033519Y0076344D01*
X0033562Y0076211D01*
X0033602Y0076077D01*
X0033637Y0075942D01*
X0033669Y0075805D01*
X0033696Y0075668D01*
X0033720Y0075530D01*
X0033740Y0075392D01*
X0033756Y0075253D01*
X0033768Y0075113D01*
X0033776Y0074974D01*
X0033780Y0074834D01*
X0033780Y0074694D01*
X0033776Y0074554D01*
X0033768Y0074415D01*
X0033756Y0074275D01*
X0033740Y0074136D01*
X0033720Y0073998D01*
X0033696Y0073860D01*
X0033669Y0073723D01*
X0033637Y0073586D01*
X0033602Y0073451D01*
X0033562Y0073317D01*
X0033519Y0073184D01*
X0033473Y0073052D01*
X0033422Y0072921D01*
X0033368Y0072792D01*
X0033310Y0072665D01*
X0033248Y0072539D01*
X0033183Y0072415D01*
X0033115Y0072293D01*
X0033043Y0072173D01*
X0032968Y0072056D01*
X0032889Y0071940D01*
X0032807Y0071826D01*
X0032722Y0071715D01*
X0032634Y0071607D01*
X0032542Y0071501D01*
X0032448Y0071397D01*
X0032351Y0071297D01*
X0032251Y0071199D01*
X0032148Y0071104D01*
X0032043Y0071012D01*
X0031935Y0070923D01*
X0031825Y0070837D01*
X0031712Y0070754D01*
X0031597Y0070675D01*
X0031479Y0070599D01*
X0031360Y0070526D01*
X0031238Y0070456D01*
X0031115Y0070391D01*
X0030990Y0070328D01*
X0030863Y0070269D01*
X0030734Y0070214D01*
X0030604Y0070163D01*
X0030473Y0070115D01*
X0030340Y0070071D01*
X0030206Y0070031D01*
X0030071Y0069994D01*
X0029935Y0069962D01*
X0029798Y0069933D01*
X0029660Y0069909D01*
X0029522Y0069888D01*
X0029383Y0069871D01*
X0029243Y0069858D01*
X0029104Y0069849D01*
X0028964Y0069844D01*
X0028824Y0069843D01*
X0028684Y0069846D01*
X0028544Y0069853D01*
X0028405Y0069864D01*
X0028266Y0069879D01*
X0028127Y0069898D01*
X0027989Y0069920D01*
X0027852Y0069947D01*
X0027715Y0069978D01*
X0027580Y0070012D01*
X0027445Y0070050D01*
X0027312Y0070093D01*
X0027180Y0070138D01*
X0027049Y0070188D01*
X0026919Y0070241D01*
X0026792Y0070298D01*
X0026666Y0070359D01*
X0026541Y0070423D01*
X0026419Y0070491D01*
X0026298Y0070562D01*
X0026180Y0070636D01*
X0026064Y0070714D01*
X0025950Y0070795D01*
X0025838Y0070880D01*
X0025729Y0070967D01*
X0025622Y0071057D01*
X0025518Y0071151D01*
X0025417Y0071247D01*
X0025318Y0071347D01*
X0025222Y0071449D01*
X0025130Y0071553D01*
X0025040Y0071661D01*
X0024953Y0071771D01*
X0024870Y0071883D01*
X0024789Y0071997D01*
X0024712Y0072114D01*
X0024639Y0072233D01*
X0024568Y0072354D01*
X0024502Y0072477D01*
X0024438Y0072602D01*
X0024379Y0072728D01*
X0024323Y0072857D01*
X0024270Y0072986D01*
X0024222Y0073117D01*
X0024177Y0073250D01*
X0024136Y0073384D01*
X0024098Y0073519D01*
X0024065Y0073654D01*
X0024035Y0073791D01*
X0024009Y0073929D01*
X0023988Y0074067D01*
X0023970Y0074206D01*
X0023956Y0074345D01*
X0023946Y0074484D01*
X0023940Y0074624D01*
X0023938Y0074764D01*
X0023938Y0101929D02*
X0023940Y0102069D01*
X0023946Y0102209D01*
X0023956Y0102348D01*
X0023970Y0102487D01*
X0023988Y0102626D01*
X0024009Y0102764D01*
X0024035Y0102902D01*
X0024065Y0103039D01*
X0024098Y0103174D01*
X0024136Y0103309D01*
X0024177Y0103443D01*
X0024222Y0103576D01*
X0024270Y0103707D01*
X0024323Y0103836D01*
X0024379Y0103965D01*
X0024438Y0104091D01*
X0024502Y0104216D01*
X0024568Y0104339D01*
X0024639Y0104460D01*
X0024712Y0104579D01*
X0024789Y0104696D01*
X0024870Y0104810D01*
X0024953Y0104922D01*
X0025040Y0105032D01*
X0025130Y0105140D01*
X0025222Y0105244D01*
X0025318Y0105346D01*
X0025417Y0105446D01*
X0025518Y0105542D01*
X0025622Y0105636D01*
X0025729Y0105726D01*
X0025838Y0105813D01*
X0025950Y0105898D01*
X0026064Y0105979D01*
X0026180Y0106057D01*
X0026298Y0106131D01*
X0026419Y0106202D01*
X0026541Y0106270D01*
X0026666Y0106334D01*
X0026792Y0106395D01*
X0026919Y0106452D01*
X0027049Y0106505D01*
X0027180Y0106555D01*
X0027312Y0106600D01*
X0027445Y0106643D01*
X0027580Y0106681D01*
X0027715Y0106715D01*
X0027852Y0106746D01*
X0027989Y0106773D01*
X0028127Y0106795D01*
X0028266Y0106814D01*
X0028405Y0106829D01*
X0028544Y0106840D01*
X0028684Y0106847D01*
X0028824Y0106850D01*
X0028964Y0106849D01*
X0029104Y0106844D01*
X0029243Y0106835D01*
X0029383Y0106822D01*
X0029522Y0106805D01*
X0029660Y0106784D01*
X0029798Y0106760D01*
X0029935Y0106731D01*
X0030071Y0106699D01*
X0030206Y0106662D01*
X0030340Y0106622D01*
X0030473Y0106578D01*
X0030604Y0106530D01*
X0030734Y0106479D01*
X0030863Y0106424D01*
X0030990Y0106365D01*
X0031115Y0106302D01*
X0031238Y0106237D01*
X0031360Y0106167D01*
X0031479Y0106094D01*
X0031597Y0106018D01*
X0031712Y0105939D01*
X0031825Y0105856D01*
X0031935Y0105770D01*
X0032043Y0105681D01*
X0032148Y0105589D01*
X0032251Y0105494D01*
X0032351Y0105396D01*
X0032448Y0105296D01*
X0032542Y0105192D01*
X0032634Y0105086D01*
X0032722Y0104978D01*
X0032807Y0104867D01*
X0032889Y0104753D01*
X0032968Y0104637D01*
X0033043Y0104520D01*
X0033115Y0104400D01*
X0033183Y0104278D01*
X0033248Y0104154D01*
X0033310Y0104028D01*
X0033368Y0103901D01*
X0033422Y0103772D01*
X0033473Y0103641D01*
X0033519Y0103509D01*
X0033562Y0103376D01*
X0033602Y0103242D01*
X0033637Y0103107D01*
X0033669Y0102970D01*
X0033696Y0102833D01*
X0033720Y0102695D01*
X0033740Y0102557D01*
X0033756Y0102418D01*
X0033768Y0102278D01*
X0033776Y0102139D01*
X0033780Y0101999D01*
X0033780Y0101859D01*
X0033776Y0101719D01*
X0033768Y0101580D01*
X0033756Y0101440D01*
X0033740Y0101301D01*
X0033720Y0101163D01*
X0033696Y0101025D01*
X0033669Y0100888D01*
X0033637Y0100751D01*
X0033602Y0100616D01*
X0033562Y0100482D01*
X0033519Y0100349D01*
X0033473Y0100217D01*
X0033422Y0100086D01*
X0033368Y0099957D01*
X0033310Y0099830D01*
X0033248Y0099704D01*
X0033183Y0099580D01*
X0033115Y0099458D01*
X0033043Y0099338D01*
X0032968Y0099221D01*
X0032889Y0099105D01*
X0032807Y0098991D01*
X0032722Y0098880D01*
X0032634Y0098772D01*
X0032542Y0098666D01*
X0032448Y0098562D01*
X0032351Y0098462D01*
X0032251Y0098364D01*
X0032148Y0098269D01*
X0032043Y0098177D01*
X0031935Y0098088D01*
X0031825Y0098002D01*
X0031712Y0097919D01*
X0031597Y0097840D01*
X0031479Y0097764D01*
X0031360Y0097691D01*
X0031238Y0097621D01*
X0031115Y0097556D01*
X0030990Y0097493D01*
X0030863Y0097434D01*
X0030734Y0097379D01*
X0030604Y0097328D01*
X0030473Y0097280D01*
X0030340Y0097236D01*
X0030206Y0097196D01*
X0030071Y0097159D01*
X0029935Y0097127D01*
X0029798Y0097098D01*
X0029660Y0097074D01*
X0029522Y0097053D01*
X0029383Y0097036D01*
X0029243Y0097023D01*
X0029104Y0097014D01*
X0028964Y0097009D01*
X0028824Y0097008D01*
X0028684Y0097011D01*
X0028544Y0097018D01*
X0028405Y0097029D01*
X0028266Y0097044D01*
X0028127Y0097063D01*
X0027989Y0097085D01*
X0027852Y0097112D01*
X0027715Y0097143D01*
X0027580Y0097177D01*
X0027445Y0097215D01*
X0027312Y0097258D01*
X0027180Y0097303D01*
X0027049Y0097353D01*
X0026919Y0097406D01*
X0026792Y0097463D01*
X0026666Y0097524D01*
X0026541Y0097588D01*
X0026419Y0097656D01*
X0026298Y0097727D01*
X0026180Y0097801D01*
X0026064Y0097879D01*
X0025950Y0097960D01*
X0025838Y0098045D01*
X0025729Y0098132D01*
X0025622Y0098222D01*
X0025518Y0098316D01*
X0025417Y0098412D01*
X0025318Y0098512D01*
X0025222Y0098614D01*
X0025130Y0098718D01*
X0025040Y0098826D01*
X0024953Y0098936D01*
X0024870Y0099048D01*
X0024789Y0099162D01*
X0024712Y0099279D01*
X0024639Y0099398D01*
X0024568Y0099519D01*
X0024502Y0099642D01*
X0024438Y0099767D01*
X0024379Y0099893D01*
X0024323Y0100022D01*
X0024270Y0100151D01*
X0024222Y0100282D01*
X0024177Y0100415D01*
X0024136Y0100549D01*
X0024098Y0100684D01*
X0024065Y0100819D01*
X0024035Y0100956D01*
X0024009Y0101094D01*
X0023988Y0101232D01*
X0023970Y0101371D01*
X0023956Y0101510D01*
X0023946Y0101649D01*
X0023940Y0101789D01*
X0023938Y0101929D01*
X0023938Y0244449D02*
X0023940Y0244589D01*
X0023946Y0244729D01*
X0023956Y0244868D01*
X0023970Y0245007D01*
X0023988Y0245146D01*
X0024009Y0245284D01*
X0024035Y0245422D01*
X0024065Y0245559D01*
X0024098Y0245694D01*
X0024136Y0245829D01*
X0024177Y0245963D01*
X0024222Y0246096D01*
X0024270Y0246227D01*
X0024323Y0246356D01*
X0024379Y0246485D01*
X0024438Y0246611D01*
X0024502Y0246736D01*
X0024568Y0246859D01*
X0024639Y0246980D01*
X0024712Y0247099D01*
X0024789Y0247216D01*
X0024870Y0247330D01*
X0024953Y0247442D01*
X0025040Y0247552D01*
X0025130Y0247660D01*
X0025222Y0247764D01*
X0025318Y0247866D01*
X0025417Y0247966D01*
X0025518Y0248062D01*
X0025622Y0248156D01*
X0025729Y0248246D01*
X0025838Y0248333D01*
X0025950Y0248418D01*
X0026064Y0248499D01*
X0026180Y0248577D01*
X0026298Y0248651D01*
X0026419Y0248722D01*
X0026541Y0248790D01*
X0026666Y0248854D01*
X0026792Y0248915D01*
X0026919Y0248972D01*
X0027049Y0249025D01*
X0027180Y0249075D01*
X0027312Y0249120D01*
X0027445Y0249163D01*
X0027580Y0249201D01*
X0027715Y0249235D01*
X0027852Y0249266D01*
X0027989Y0249293D01*
X0028127Y0249315D01*
X0028266Y0249334D01*
X0028405Y0249349D01*
X0028544Y0249360D01*
X0028684Y0249367D01*
X0028824Y0249370D01*
X0028964Y0249369D01*
X0029104Y0249364D01*
X0029243Y0249355D01*
X0029383Y0249342D01*
X0029522Y0249325D01*
X0029660Y0249304D01*
X0029798Y0249280D01*
X0029935Y0249251D01*
X0030071Y0249219D01*
X0030206Y0249182D01*
X0030340Y0249142D01*
X0030473Y0249098D01*
X0030604Y0249050D01*
X0030734Y0248999D01*
X0030863Y0248944D01*
X0030990Y0248885D01*
X0031115Y0248822D01*
X0031238Y0248757D01*
X0031360Y0248687D01*
X0031479Y0248614D01*
X0031597Y0248538D01*
X0031712Y0248459D01*
X0031825Y0248376D01*
X0031935Y0248290D01*
X0032043Y0248201D01*
X0032148Y0248109D01*
X0032251Y0248014D01*
X0032351Y0247916D01*
X0032448Y0247816D01*
X0032542Y0247712D01*
X0032634Y0247606D01*
X0032722Y0247498D01*
X0032807Y0247387D01*
X0032889Y0247273D01*
X0032968Y0247157D01*
X0033043Y0247040D01*
X0033115Y0246920D01*
X0033183Y0246798D01*
X0033248Y0246674D01*
X0033310Y0246548D01*
X0033368Y0246421D01*
X0033422Y0246292D01*
X0033473Y0246161D01*
X0033519Y0246029D01*
X0033562Y0245896D01*
X0033602Y0245762D01*
X0033637Y0245627D01*
X0033669Y0245490D01*
X0033696Y0245353D01*
X0033720Y0245215D01*
X0033740Y0245077D01*
X0033756Y0244938D01*
X0033768Y0244798D01*
X0033776Y0244659D01*
X0033780Y0244519D01*
X0033780Y0244379D01*
X0033776Y0244239D01*
X0033768Y0244100D01*
X0033756Y0243960D01*
X0033740Y0243821D01*
X0033720Y0243683D01*
X0033696Y0243545D01*
X0033669Y0243408D01*
X0033637Y0243271D01*
X0033602Y0243136D01*
X0033562Y0243002D01*
X0033519Y0242869D01*
X0033473Y0242737D01*
X0033422Y0242606D01*
X0033368Y0242477D01*
X0033310Y0242350D01*
X0033248Y0242224D01*
X0033183Y0242100D01*
X0033115Y0241978D01*
X0033043Y0241858D01*
X0032968Y0241741D01*
X0032889Y0241625D01*
X0032807Y0241511D01*
X0032722Y0241400D01*
X0032634Y0241292D01*
X0032542Y0241186D01*
X0032448Y0241082D01*
X0032351Y0240982D01*
X0032251Y0240884D01*
X0032148Y0240789D01*
X0032043Y0240697D01*
X0031935Y0240608D01*
X0031825Y0240522D01*
X0031712Y0240439D01*
X0031597Y0240360D01*
X0031479Y0240284D01*
X0031360Y0240211D01*
X0031238Y0240141D01*
X0031115Y0240076D01*
X0030990Y0240013D01*
X0030863Y0239954D01*
X0030734Y0239899D01*
X0030604Y0239848D01*
X0030473Y0239800D01*
X0030340Y0239756D01*
X0030206Y0239716D01*
X0030071Y0239679D01*
X0029935Y0239647D01*
X0029798Y0239618D01*
X0029660Y0239594D01*
X0029522Y0239573D01*
X0029383Y0239556D01*
X0029243Y0239543D01*
X0029104Y0239534D01*
X0028964Y0239529D01*
X0028824Y0239528D01*
X0028684Y0239531D01*
X0028544Y0239538D01*
X0028405Y0239549D01*
X0028266Y0239564D01*
X0028127Y0239583D01*
X0027989Y0239605D01*
X0027852Y0239632D01*
X0027715Y0239663D01*
X0027580Y0239697D01*
X0027445Y0239735D01*
X0027312Y0239778D01*
X0027180Y0239823D01*
X0027049Y0239873D01*
X0026919Y0239926D01*
X0026792Y0239983D01*
X0026666Y0240044D01*
X0026541Y0240108D01*
X0026419Y0240176D01*
X0026298Y0240247D01*
X0026180Y0240321D01*
X0026064Y0240399D01*
X0025950Y0240480D01*
X0025838Y0240565D01*
X0025729Y0240652D01*
X0025622Y0240742D01*
X0025518Y0240836D01*
X0025417Y0240932D01*
X0025318Y0241032D01*
X0025222Y0241134D01*
X0025130Y0241238D01*
X0025040Y0241346D01*
X0024953Y0241456D01*
X0024870Y0241568D01*
X0024789Y0241682D01*
X0024712Y0241799D01*
X0024639Y0241918D01*
X0024568Y0242039D01*
X0024502Y0242162D01*
X0024438Y0242287D01*
X0024379Y0242413D01*
X0024323Y0242542D01*
X0024270Y0242671D01*
X0024222Y0242802D01*
X0024177Y0242935D01*
X0024136Y0243069D01*
X0024098Y0243204D01*
X0024065Y0243339D01*
X0024035Y0243476D01*
X0024009Y0243614D01*
X0023988Y0243752D01*
X0023970Y0243891D01*
X0023956Y0244030D01*
X0023946Y0244169D01*
X0023940Y0244309D01*
X0023938Y0244449D01*
X0023938Y0275551D02*
X0023940Y0275691D01*
X0023946Y0275831D01*
X0023956Y0275970D01*
X0023970Y0276109D01*
X0023988Y0276248D01*
X0024009Y0276386D01*
X0024035Y0276524D01*
X0024065Y0276661D01*
X0024098Y0276796D01*
X0024136Y0276931D01*
X0024177Y0277065D01*
X0024222Y0277198D01*
X0024270Y0277329D01*
X0024323Y0277458D01*
X0024379Y0277587D01*
X0024438Y0277713D01*
X0024502Y0277838D01*
X0024568Y0277961D01*
X0024639Y0278082D01*
X0024712Y0278201D01*
X0024789Y0278318D01*
X0024870Y0278432D01*
X0024953Y0278544D01*
X0025040Y0278654D01*
X0025130Y0278762D01*
X0025222Y0278866D01*
X0025318Y0278968D01*
X0025417Y0279068D01*
X0025518Y0279164D01*
X0025622Y0279258D01*
X0025729Y0279348D01*
X0025838Y0279435D01*
X0025950Y0279520D01*
X0026064Y0279601D01*
X0026180Y0279679D01*
X0026298Y0279753D01*
X0026419Y0279824D01*
X0026541Y0279892D01*
X0026666Y0279956D01*
X0026792Y0280017D01*
X0026919Y0280074D01*
X0027049Y0280127D01*
X0027180Y0280177D01*
X0027312Y0280222D01*
X0027445Y0280265D01*
X0027580Y0280303D01*
X0027715Y0280337D01*
X0027852Y0280368D01*
X0027989Y0280395D01*
X0028127Y0280417D01*
X0028266Y0280436D01*
X0028405Y0280451D01*
X0028544Y0280462D01*
X0028684Y0280469D01*
X0028824Y0280472D01*
X0028964Y0280471D01*
X0029104Y0280466D01*
X0029243Y0280457D01*
X0029383Y0280444D01*
X0029522Y0280427D01*
X0029660Y0280406D01*
X0029798Y0280382D01*
X0029935Y0280353D01*
X0030071Y0280321D01*
X0030206Y0280284D01*
X0030340Y0280244D01*
X0030473Y0280200D01*
X0030604Y0280152D01*
X0030734Y0280101D01*
X0030863Y0280046D01*
X0030990Y0279987D01*
X0031115Y0279924D01*
X0031238Y0279859D01*
X0031360Y0279789D01*
X0031479Y0279716D01*
X0031597Y0279640D01*
X0031712Y0279561D01*
X0031825Y0279478D01*
X0031935Y0279392D01*
X0032043Y0279303D01*
X0032148Y0279211D01*
X0032251Y0279116D01*
X0032351Y0279018D01*
X0032448Y0278918D01*
X0032542Y0278814D01*
X0032634Y0278708D01*
X0032722Y0278600D01*
X0032807Y0278489D01*
X0032889Y0278375D01*
X0032968Y0278259D01*
X0033043Y0278142D01*
X0033115Y0278022D01*
X0033183Y0277900D01*
X0033248Y0277776D01*
X0033310Y0277650D01*
X0033368Y0277523D01*
X0033422Y0277394D01*
X0033473Y0277263D01*
X0033519Y0277131D01*
X0033562Y0276998D01*
X0033602Y0276864D01*
X0033637Y0276729D01*
X0033669Y0276592D01*
X0033696Y0276455D01*
X0033720Y0276317D01*
X0033740Y0276179D01*
X0033756Y0276040D01*
X0033768Y0275900D01*
X0033776Y0275761D01*
X0033780Y0275621D01*
X0033780Y0275481D01*
X0033776Y0275341D01*
X0033768Y0275202D01*
X0033756Y0275062D01*
X0033740Y0274923D01*
X0033720Y0274785D01*
X0033696Y0274647D01*
X0033669Y0274510D01*
X0033637Y0274373D01*
X0033602Y0274238D01*
X0033562Y0274104D01*
X0033519Y0273971D01*
X0033473Y0273839D01*
X0033422Y0273708D01*
X0033368Y0273579D01*
X0033310Y0273452D01*
X0033248Y0273326D01*
X0033183Y0273202D01*
X0033115Y0273080D01*
X0033043Y0272960D01*
X0032968Y0272843D01*
X0032889Y0272727D01*
X0032807Y0272613D01*
X0032722Y0272502D01*
X0032634Y0272394D01*
X0032542Y0272288D01*
X0032448Y0272184D01*
X0032351Y0272084D01*
X0032251Y0271986D01*
X0032148Y0271891D01*
X0032043Y0271799D01*
X0031935Y0271710D01*
X0031825Y0271624D01*
X0031712Y0271541D01*
X0031597Y0271462D01*
X0031479Y0271386D01*
X0031360Y0271313D01*
X0031238Y0271243D01*
X0031115Y0271178D01*
X0030990Y0271115D01*
X0030863Y0271056D01*
X0030734Y0271001D01*
X0030604Y0270950D01*
X0030473Y0270902D01*
X0030340Y0270858D01*
X0030206Y0270818D01*
X0030071Y0270781D01*
X0029935Y0270749D01*
X0029798Y0270720D01*
X0029660Y0270696D01*
X0029522Y0270675D01*
X0029383Y0270658D01*
X0029243Y0270645D01*
X0029104Y0270636D01*
X0028964Y0270631D01*
X0028824Y0270630D01*
X0028684Y0270633D01*
X0028544Y0270640D01*
X0028405Y0270651D01*
X0028266Y0270666D01*
X0028127Y0270685D01*
X0027989Y0270707D01*
X0027852Y0270734D01*
X0027715Y0270765D01*
X0027580Y0270799D01*
X0027445Y0270837D01*
X0027312Y0270880D01*
X0027180Y0270925D01*
X0027049Y0270975D01*
X0026919Y0271028D01*
X0026792Y0271085D01*
X0026666Y0271146D01*
X0026541Y0271210D01*
X0026419Y0271278D01*
X0026298Y0271349D01*
X0026180Y0271423D01*
X0026064Y0271501D01*
X0025950Y0271582D01*
X0025838Y0271667D01*
X0025729Y0271754D01*
X0025622Y0271844D01*
X0025518Y0271938D01*
X0025417Y0272034D01*
X0025318Y0272134D01*
X0025222Y0272236D01*
X0025130Y0272340D01*
X0025040Y0272448D01*
X0024953Y0272558D01*
X0024870Y0272670D01*
X0024789Y0272784D01*
X0024712Y0272901D01*
X0024639Y0273020D01*
X0024568Y0273141D01*
X0024502Y0273264D01*
X0024438Y0273389D01*
X0024379Y0273515D01*
X0024323Y0273644D01*
X0024270Y0273773D01*
X0024222Y0273904D01*
X0024177Y0274037D01*
X0024136Y0274171D01*
X0024098Y0274306D01*
X0024065Y0274441D01*
X0024035Y0274578D01*
X0024009Y0274716D01*
X0023988Y0274854D01*
X0023970Y0274993D01*
X0023956Y0275132D01*
X0023946Y0275271D01*
X0023940Y0275411D01*
X0023938Y0275551D01*
X0220788Y0275551D02*
X0220790Y0275691D01*
X0220796Y0275831D01*
X0220806Y0275970D01*
X0220820Y0276109D01*
X0220838Y0276248D01*
X0220859Y0276386D01*
X0220885Y0276524D01*
X0220915Y0276661D01*
X0220948Y0276796D01*
X0220986Y0276931D01*
X0221027Y0277065D01*
X0221072Y0277198D01*
X0221120Y0277329D01*
X0221173Y0277458D01*
X0221229Y0277587D01*
X0221288Y0277713D01*
X0221352Y0277838D01*
X0221418Y0277961D01*
X0221489Y0278082D01*
X0221562Y0278201D01*
X0221639Y0278318D01*
X0221720Y0278432D01*
X0221803Y0278544D01*
X0221890Y0278654D01*
X0221980Y0278762D01*
X0222072Y0278866D01*
X0222168Y0278968D01*
X0222267Y0279068D01*
X0222368Y0279164D01*
X0222472Y0279258D01*
X0222579Y0279348D01*
X0222688Y0279435D01*
X0222800Y0279520D01*
X0222914Y0279601D01*
X0223030Y0279679D01*
X0223148Y0279753D01*
X0223269Y0279824D01*
X0223391Y0279892D01*
X0223516Y0279956D01*
X0223642Y0280017D01*
X0223769Y0280074D01*
X0223899Y0280127D01*
X0224030Y0280177D01*
X0224162Y0280222D01*
X0224295Y0280265D01*
X0224430Y0280303D01*
X0224565Y0280337D01*
X0224702Y0280368D01*
X0224839Y0280395D01*
X0224977Y0280417D01*
X0225116Y0280436D01*
X0225255Y0280451D01*
X0225394Y0280462D01*
X0225534Y0280469D01*
X0225674Y0280472D01*
X0225814Y0280471D01*
X0225954Y0280466D01*
X0226093Y0280457D01*
X0226233Y0280444D01*
X0226372Y0280427D01*
X0226510Y0280406D01*
X0226648Y0280382D01*
X0226785Y0280353D01*
X0226921Y0280321D01*
X0227056Y0280284D01*
X0227190Y0280244D01*
X0227323Y0280200D01*
X0227454Y0280152D01*
X0227584Y0280101D01*
X0227713Y0280046D01*
X0227840Y0279987D01*
X0227965Y0279924D01*
X0228088Y0279859D01*
X0228210Y0279789D01*
X0228329Y0279716D01*
X0228447Y0279640D01*
X0228562Y0279561D01*
X0228675Y0279478D01*
X0228785Y0279392D01*
X0228893Y0279303D01*
X0228998Y0279211D01*
X0229101Y0279116D01*
X0229201Y0279018D01*
X0229298Y0278918D01*
X0229392Y0278814D01*
X0229484Y0278708D01*
X0229572Y0278600D01*
X0229657Y0278489D01*
X0229739Y0278375D01*
X0229818Y0278259D01*
X0229893Y0278142D01*
X0229965Y0278022D01*
X0230033Y0277900D01*
X0230098Y0277776D01*
X0230160Y0277650D01*
X0230218Y0277523D01*
X0230272Y0277394D01*
X0230323Y0277263D01*
X0230369Y0277131D01*
X0230412Y0276998D01*
X0230452Y0276864D01*
X0230487Y0276729D01*
X0230519Y0276592D01*
X0230546Y0276455D01*
X0230570Y0276317D01*
X0230590Y0276179D01*
X0230606Y0276040D01*
X0230618Y0275900D01*
X0230626Y0275761D01*
X0230630Y0275621D01*
X0230630Y0275481D01*
X0230626Y0275341D01*
X0230618Y0275202D01*
X0230606Y0275062D01*
X0230590Y0274923D01*
X0230570Y0274785D01*
X0230546Y0274647D01*
X0230519Y0274510D01*
X0230487Y0274373D01*
X0230452Y0274238D01*
X0230412Y0274104D01*
X0230369Y0273971D01*
X0230323Y0273839D01*
X0230272Y0273708D01*
X0230218Y0273579D01*
X0230160Y0273452D01*
X0230098Y0273326D01*
X0230033Y0273202D01*
X0229965Y0273080D01*
X0229893Y0272960D01*
X0229818Y0272843D01*
X0229739Y0272727D01*
X0229657Y0272613D01*
X0229572Y0272502D01*
X0229484Y0272394D01*
X0229392Y0272288D01*
X0229298Y0272184D01*
X0229201Y0272084D01*
X0229101Y0271986D01*
X0228998Y0271891D01*
X0228893Y0271799D01*
X0228785Y0271710D01*
X0228675Y0271624D01*
X0228562Y0271541D01*
X0228447Y0271462D01*
X0228329Y0271386D01*
X0228210Y0271313D01*
X0228088Y0271243D01*
X0227965Y0271178D01*
X0227840Y0271115D01*
X0227713Y0271056D01*
X0227584Y0271001D01*
X0227454Y0270950D01*
X0227323Y0270902D01*
X0227190Y0270858D01*
X0227056Y0270818D01*
X0226921Y0270781D01*
X0226785Y0270749D01*
X0226648Y0270720D01*
X0226510Y0270696D01*
X0226372Y0270675D01*
X0226233Y0270658D01*
X0226093Y0270645D01*
X0225954Y0270636D01*
X0225814Y0270631D01*
X0225674Y0270630D01*
X0225534Y0270633D01*
X0225394Y0270640D01*
X0225255Y0270651D01*
X0225116Y0270666D01*
X0224977Y0270685D01*
X0224839Y0270707D01*
X0224702Y0270734D01*
X0224565Y0270765D01*
X0224430Y0270799D01*
X0224295Y0270837D01*
X0224162Y0270880D01*
X0224030Y0270925D01*
X0223899Y0270975D01*
X0223769Y0271028D01*
X0223642Y0271085D01*
X0223516Y0271146D01*
X0223391Y0271210D01*
X0223269Y0271278D01*
X0223148Y0271349D01*
X0223030Y0271423D01*
X0222914Y0271501D01*
X0222800Y0271582D01*
X0222688Y0271667D01*
X0222579Y0271754D01*
X0222472Y0271844D01*
X0222368Y0271938D01*
X0222267Y0272034D01*
X0222168Y0272134D01*
X0222072Y0272236D01*
X0221980Y0272340D01*
X0221890Y0272448D01*
X0221803Y0272558D01*
X0221720Y0272670D01*
X0221639Y0272784D01*
X0221562Y0272901D01*
X0221489Y0273020D01*
X0221418Y0273141D01*
X0221352Y0273264D01*
X0221288Y0273389D01*
X0221229Y0273515D01*
X0221173Y0273644D01*
X0221120Y0273773D01*
X0221072Y0273904D01*
X0221027Y0274037D01*
X0220986Y0274171D01*
X0220948Y0274306D01*
X0220915Y0274441D01*
X0220885Y0274578D01*
X0220859Y0274716D01*
X0220838Y0274854D01*
X0220820Y0274993D01*
X0220806Y0275132D01*
X0220796Y0275271D01*
X0220790Y0275411D01*
X0220788Y0275551D01*
X0220788Y0244449D02*
X0220790Y0244589D01*
X0220796Y0244729D01*
X0220806Y0244868D01*
X0220820Y0245007D01*
X0220838Y0245146D01*
X0220859Y0245284D01*
X0220885Y0245422D01*
X0220915Y0245559D01*
X0220948Y0245694D01*
X0220986Y0245829D01*
X0221027Y0245963D01*
X0221072Y0246096D01*
X0221120Y0246227D01*
X0221173Y0246356D01*
X0221229Y0246485D01*
X0221288Y0246611D01*
X0221352Y0246736D01*
X0221418Y0246859D01*
X0221489Y0246980D01*
X0221562Y0247099D01*
X0221639Y0247216D01*
X0221720Y0247330D01*
X0221803Y0247442D01*
X0221890Y0247552D01*
X0221980Y0247660D01*
X0222072Y0247764D01*
X0222168Y0247866D01*
X0222267Y0247966D01*
X0222368Y0248062D01*
X0222472Y0248156D01*
X0222579Y0248246D01*
X0222688Y0248333D01*
X0222800Y0248418D01*
X0222914Y0248499D01*
X0223030Y0248577D01*
X0223148Y0248651D01*
X0223269Y0248722D01*
X0223391Y0248790D01*
X0223516Y0248854D01*
X0223642Y0248915D01*
X0223769Y0248972D01*
X0223899Y0249025D01*
X0224030Y0249075D01*
X0224162Y0249120D01*
X0224295Y0249163D01*
X0224430Y0249201D01*
X0224565Y0249235D01*
X0224702Y0249266D01*
X0224839Y0249293D01*
X0224977Y0249315D01*
X0225116Y0249334D01*
X0225255Y0249349D01*
X0225394Y0249360D01*
X0225534Y0249367D01*
X0225674Y0249370D01*
X0225814Y0249369D01*
X0225954Y0249364D01*
X0226093Y0249355D01*
X0226233Y0249342D01*
X0226372Y0249325D01*
X0226510Y0249304D01*
X0226648Y0249280D01*
X0226785Y0249251D01*
X0226921Y0249219D01*
X0227056Y0249182D01*
X0227190Y0249142D01*
X0227323Y0249098D01*
X0227454Y0249050D01*
X0227584Y0248999D01*
X0227713Y0248944D01*
X0227840Y0248885D01*
X0227965Y0248822D01*
X0228088Y0248757D01*
X0228210Y0248687D01*
X0228329Y0248614D01*
X0228447Y0248538D01*
X0228562Y0248459D01*
X0228675Y0248376D01*
X0228785Y0248290D01*
X0228893Y0248201D01*
X0228998Y0248109D01*
X0229101Y0248014D01*
X0229201Y0247916D01*
X0229298Y0247816D01*
X0229392Y0247712D01*
X0229484Y0247606D01*
X0229572Y0247498D01*
X0229657Y0247387D01*
X0229739Y0247273D01*
X0229818Y0247157D01*
X0229893Y0247040D01*
X0229965Y0246920D01*
X0230033Y0246798D01*
X0230098Y0246674D01*
X0230160Y0246548D01*
X0230218Y0246421D01*
X0230272Y0246292D01*
X0230323Y0246161D01*
X0230369Y0246029D01*
X0230412Y0245896D01*
X0230452Y0245762D01*
X0230487Y0245627D01*
X0230519Y0245490D01*
X0230546Y0245353D01*
X0230570Y0245215D01*
X0230590Y0245077D01*
X0230606Y0244938D01*
X0230618Y0244798D01*
X0230626Y0244659D01*
X0230630Y0244519D01*
X0230630Y0244379D01*
X0230626Y0244239D01*
X0230618Y0244100D01*
X0230606Y0243960D01*
X0230590Y0243821D01*
X0230570Y0243683D01*
X0230546Y0243545D01*
X0230519Y0243408D01*
X0230487Y0243271D01*
X0230452Y0243136D01*
X0230412Y0243002D01*
X0230369Y0242869D01*
X0230323Y0242737D01*
X0230272Y0242606D01*
X0230218Y0242477D01*
X0230160Y0242350D01*
X0230098Y0242224D01*
X0230033Y0242100D01*
X0229965Y0241978D01*
X0229893Y0241858D01*
X0229818Y0241741D01*
X0229739Y0241625D01*
X0229657Y0241511D01*
X0229572Y0241400D01*
X0229484Y0241292D01*
X0229392Y0241186D01*
X0229298Y0241082D01*
X0229201Y0240982D01*
X0229101Y0240884D01*
X0228998Y0240789D01*
X0228893Y0240697D01*
X0228785Y0240608D01*
X0228675Y0240522D01*
X0228562Y0240439D01*
X0228447Y0240360D01*
X0228329Y0240284D01*
X0228210Y0240211D01*
X0228088Y0240141D01*
X0227965Y0240076D01*
X0227840Y0240013D01*
X0227713Y0239954D01*
X0227584Y0239899D01*
X0227454Y0239848D01*
X0227323Y0239800D01*
X0227190Y0239756D01*
X0227056Y0239716D01*
X0226921Y0239679D01*
X0226785Y0239647D01*
X0226648Y0239618D01*
X0226510Y0239594D01*
X0226372Y0239573D01*
X0226233Y0239556D01*
X0226093Y0239543D01*
X0225954Y0239534D01*
X0225814Y0239529D01*
X0225674Y0239528D01*
X0225534Y0239531D01*
X0225394Y0239538D01*
X0225255Y0239549D01*
X0225116Y0239564D01*
X0224977Y0239583D01*
X0224839Y0239605D01*
X0224702Y0239632D01*
X0224565Y0239663D01*
X0224430Y0239697D01*
X0224295Y0239735D01*
X0224162Y0239778D01*
X0224030Y0239823D01*
X0223899Y0239873D01*
X0223769Y0239926D01*
X0223642Y0239983D01*
X0223516Y0240044D01*
X0223391Y0240108D01*
X0223269Y0240176D01*
X0223148Y0240247D01*
X0223030Y0240321D01*
X0222914Y0240399D01*
X0222800Y0240480D01*
X0222688Y0240565D01*
X0222579Y0240652D01*
X0222472Y0240742D01*
X0222368Y0240836D01*
X0222267Y0240932D01*
X0222168Y0241032D01*
X0222072Y0241134D01*
X0221980Y0241238D01*
X0221890Y0241346D01*
X0221803Y0241456D01*
X0221720Y0241568D01*
X0221639Y0241682D01*
X0221562Y0241799D01*
X0221489Y0241918D01*
X0221418Y0242039D01*
X0221352Y0242162D01*
X0221288Y0242287D01*
X0221229Y0242413D01*
X0221173Y0242542D01*
X0221120Y0242671D01*
X0221072Y0242802D01*
X0221027Y0242935D01*
X0220986Y0243069D01*
X0220948Y0243204D01*
X0220915Y0243339D01*
X0220885Y0243476D01*
X0220859Y0243614D01*
X0220838Y0243752D01*
X0220820Y0243891D01*
X0220806Y0244030D01*
X0220796Y0244169D01*
X0220790Y0244309D01*
X0220788Y0244449D01*
X0220788Y0101929D02*
X0220790Y0102069D01*
X0220796Y0102209D01*
X0220806Y0102348D01*
X0220820Y0102487D01*
X0220838Y0102626D01*
X0220859Y0102764D01*
X0220885Y0102902D01*
X0220915Y0103039D01*
X0220948Y0103174D01*
X0220986Y0103309D01*
X0221027Y0103443D01*
X0221072Y0103576D01*
X0221120Y0103707D01*
X0221173Y0103836D01*
X0221229Y0103965D01*
X0221288Y0104091D01*
X0221352Y0104216D01*
X0221418Y0104339D01*
X0221489Y0104460D01*
X0221562Y0104579D01*
X0221639Y0104696D01*
X0221720Y0104810D01*
X0221803Y0104922D01*
X0221890Y0105032D01*
X0221980Y0105140D01*
X0222072Y0105244D01*
X0222168Y0105346D01*
X0222267Y0105446D01*
X0222368Y0105542D01*
X0222472Y0105636D01*
X0222579Y0105726D01*
X0222688Y0105813D01*
X0222800Y0105898D01*
X0222914Y0105979D01*
X0223030Y0106057D01*
X0223148Y0106131D01*
X0223269Y0106202D01*
X0223391Y0106270D01*
X0223516Y0106334D01*
X0223642Y0106395D01*
X0223769Y0106452D01*
X0223899Y0106505D01*
X0224030Y0106555D01*
X0224162Y0106600D01*
X0224295Y0106643D01*
X0224430Y0106681D01*
X0224565Y0106715D01*
X0224702Y0106746D01*
X0224839Y0106773D01*
X0224977Y0106795D01*
X0225116Y0106814D01*
X0225255Y0106829D01*
X0225394Y0106840D01*
X0225534Y0106847D01*
X0225674Y0106850D01*
X0225814Y0106849D01*
X0225954Y0106844D01*
X0226093Y0106835D01*
X0226233Y0106822D01*
X0226372Y0106805D01*
X0226510Y0106784D01*
X0226648Y0106760D01*
X0226785Y0106731D01*
X0226921Y0106699D01*
X0227056Y0106662D01*
X0227190Y0106622D01*
X0227323Y0106578D01*
X0227454Y0106530D01*
X0227584Y0106479D01*
X0227713Y0106424D01*
X0227840Y0106365D01*
X0227965Y0106302D01*
X0228088Y0106237D01*
X0228210Y0106167D01*
X0228329Y0106094D01*
X0228447Y0106018D01*
X0228562Y0105939D01*
X0228675Y0105856D01*
X0228785Y0105770D01*
X0228893Y0105681D01*
X0228998Y0105589D01*
X0229101Y0105494D01*
X0229201Y0105396D01*
X0229298Y0105296D01*
X0229392Y0105192D01*
X0229484Y0105086D01*
X0229572Y0104978D01*
X0229657Y0104867D01*
X0229739Y0104753D01*
X0229818Y0104637D01*
X0229893Y0104520D01*
X0229965Y0104400D01*
X0230033Y0104278D01*
X0230098Y0104154D01*
X0230160Y0104028D01*
X0230218Y0103901D01*
X0230272Y0103772D01*
X0230323Y0103641D01*
X0230369Y0103509D01*
X0230412Y0103376D01*
X0230452Y0103242D01*
X0230487Y0103107D01*
X0230519Y0102970D01*
X0230546Y0102833D01*
X0230570Y0102695D01*
X0230590Y0102557D01*
X0230606Y0102418D01*
X0230618Y0102278D01*
X0230626Y0102139D01*
X0230630Y0101999D01*
X0230630Y0101859D01*
X0230626Y0101719D01*
X0230618Y0101580D01*
X0230606Y0101440D01*
X0230590Y0101301D01*
X0230570Y0101163D01*
X0230546Y0101025D01*
X0230519Y0100888D01*
X0230487Y0100751D01*
X0230452Y0100616D01*
X0230412Y0100482D01*
X0230369Y0100349D01*
X0230323Y0100217D01*
X0230272Y0100086D01*
X0230218Y0099957D01*
X0230160Y0099830D01*
X0230098Y0099704D01*
X0230033Y0099580D01*
X0229965Y0099458D01*
X0229893Y0099338D01*
X0229818Y0099221D01*
X0229739Y0099105D01*
X0229657Y0098991D01*
X0229572Y0098880D01*
X0229484Y0098772D01*
X0229392Y0098666D01*
X0229298Y0098562D01*
X0229201Y0098462D01*
X0229101Y0098364D01*
X0228998Y0098269D01*
X0228893Y0098177D01*
X0228785Y0098088D01*
X0228675Y0098002D01*
X0228562Y0097919D01*
X0228447Y0097840D01*
X0228329Y0097764D01*
X0228210Y0097691D01*
X0228088Y0097621D01*
X0227965Y0097556D01*
X0227840Y0097493D01*
X0227713Y0097434D01*
X0227584Y0097379D01*
X0227454Y0097328D01*
X0227323Y0097280D01*
X0227190Y0097236D01*
X0227056Y0097196D01*
X0226921Y0097159D01*
X0226785Y0097127D01*
X0226648Y0097098D01*
X0226510Y0097074D01*
X0226372Y0097053D01*
X0226233Y0097036D01*
X0226093Y0097023D01*
X0225954Y0097014D01*
X0225814Y0097009D01*
X0225674Y0097008D01*
X0225534Y0097011D01*
X0225394Y0097018D01*
X0225255Y0097029D01*
X0225116Y0097044D01*
X0224977Y0097063D01*
X0224839Y0097085D01*
X0224702Y0097112D01*
X0224565Y0097143D01*
X0224430Y0097177D01*
X0224295Y0097215D01*
X0224162Y0097258D01*
X0224030Y0097303D01*
X0223899Y0097353D01*
X0223769Y0097406D01*
X0223642Y0097463D01*
X0223516Y0097524D01*
X0223391Y0097588D01*
X0223269Y0097656D01*
X0223148Y0097727D01*
X0223030Y0097801D01*
X0222914Y0097879D01*
X0222800Y0097960D01*
X0222688Y0098045D01*
X0222579Y0098132D01*
X0222472Y0098222D01*
X0222368Y0098316D01*
X0222267Y0098412D01*
X0222168Y0098512D01*
X0222072Y0098614D01*
X0221980Y0098718D01*
X0221890Y0098826D01*
X0221803Y0098936D01*
X0221720Y0099048D01*
X0221639Y0099162D01*
X0221562Y0099279D01*
X0221489Y0099398D01*
X0221418Y0099519D01*
X0221352Y0099642D01*
X0221288Y0099767D01*
X0221229Y0099893D01*
X0221173Y0100022D01*
X0221120Y0100151D01*
X0221072Y0100282D01*
X0221027Y0100415D01*
X0220986Y0100549D01*
X0220948Y0100684D01*
X0220915Y0100819D01*
X0220885Y0100956D01*
X0220859Y0101094D01*
X0220838Y0101232D01*
X0220820Y0101371D01*
X0220806Y0101510D01*
X0220796Y0101649D01*
X0220790Y0101789D01*
X0220788Y0101929D01*
X0220788Y0074764D02*
X0220790Y0074904D01*
X0220796Y0075044D01*
X0220806Y0075183D01*
X0220820Y0075322D01*
X0220838Y0075461D01*
X0220859Y0075599D01*
X0220885Y0075737D01*
X0220915Y0075874D01*
X0220948Y0076009D01*
X0220986Y0076144D01*
X0221027Y0076278D01*
X0221072Y0076411D01*
X0221120Y0076542D01*
X0221173Y0076671D01*
X0221229Y0076800D01*
X0221288Y0076926D01*
X0221352Y0077051D01*
X0221418Y0077174D01*
X0221489Y0077295D01*
X0221562Y0077414D01*
X0221639Y0077531D01*
X0221720Y0077645D01*
X0221803Y0077757D01*
X0221890Y0077867D01*
X0221980Y0077975D01*
X0222072Y0078079D01*
X0222168Y0078181D01*
X0222267Y0078281D01*
X0222368Y0078377D01*
X0222472Y0078471D01*
X0222579Y0078561D01*
X0222688Y0078648D01*
X0222800Y0078733D01*
X0222914Y0078814D01*
X0223030Y0078892D01*
X0223148Y0078966D01*
X0223269Y0079037D01*
X0223391Y0079105D01*
X0223516Y0079169D01*
X0223642Y0079230D01*
X0223769Y0079287D01*
X0223899Y0079340D01*
X0224030Y0079390D01*
X0224162Y0079435D01*
X0224295Y0079478D01*
X0224430Y0079516D01*
X0224565Y0079550D01*
X0224702Y0079581D01*
X0224839Y0079608D01*
X0224977Y0079630D01*
X0225116Y0079649D01*
X0225255Y0079664D01*
X0225394Y0079675D01*
X0225534Y0079682D01*
X0225674Y0079685D01*
X0225814Y0079684D01*
X0225954Y0079679D01*
X0226093Y0079670D01*
X0226233Y0079657D01*
X0226372Y0079640D01*
X0226510Y0079619D01*
X0226648Y0079595D01*
X0226785Y0079566D01*
X0226921Y0079534D01*
X0227056Y0079497D01*
X0227190Y0079457D01*
X0227323Y0079413D01*
X0227454Y0079365D01*
X0227584Y0079314D01*
X0227713Y0079259D01*
X0227840Y0079200D01*
X0227965Y0079137D01*
X0228088Y0079072D01*
X0228210Y0079002D01*
X0228329Y0078929D01*
X0228447Y0078853D01*
X0228562Y0078774D01*
X0228675Y0078691D01*
X0228785Y0078605D01*
X0228893Y0078516D01*
X0228998Y0078424D01*
X0229101Y0078329D01*
X0229201Y0078231D01*
X0229298Y0078131D01*
X0229392Y0078027D01*
X0229484Y0077921D01*
X0229572Y0077813D01*
X0229657Y0077702D01*
X0229739Y0077588D01*
X0229818Y0077472D01*
X0229893Y0077355D01*
X0229965Y0077235D01*
X0230033Y0077113D01*
X0230098Y0076989D01*
X0230160Y0076863D01*
X0230218Y0076736D01*
X0230272Y0076607D01*
X0230323Y0076476D01*
X0230369Y0076344D01*
X0230412Y0076211D01*
X0230452Y0076077D01*
X0230487Y0075942D01*
X0230519Y0075805D01*
X0230546Y0075668D01*
X0230570Y0075530D01*
X0230590Y0075392D01*
X0230606Y0075253D01*
X0230618Y0075113D01*
X0230626Y0074974D01*
X0230630Y0074834D01*
X0230630Y0074694D01*
X0230626Y0074554D01*
X0230618Y0074415D01*
X0230606Y0074275D01*
X0230590Y0074136D01*
X0230570Y0073998D01*
X0230546Y0073860D01*
X0230519Y0073723D01*
X0230487Y0073586D01*
X0230452Y0073451D01*
X0230412Y0073317D01*
X0230369Y0073184D01*
X0230323Y0073052D01*
X0230272Y0072921D01*
X0230218Y0072792D01*
X0230160Y0072665D01*
X0230098Y0072539D01*
X0230033Y0072415D01*
X0229965Y0072293D01*
X0229893Y0072173D01*
X0229818Y0072056D01*
X0229739Y0071940D01*
X0229657Y0071826D01*
X0229572Y0071715D01*
X0229484Y0071607D01*
X0229392Y0071501D01*
X0229298Y0071397D01*
X0229201Y0071297D01*
X0229101Y0071199D01*
X0228998Y0071104D01*
X0228893Y0071012D01*
X0228785Y0070923D01*
X0228675Y0070837D01*
X0228562Y0070754D01*
X0228447Y0070675D01*
X0228329Y0070599D01*
X0228210Y0070526D01*
X0228088Y0070456D01*
X0227965Y0070391D01*
X0227840Y0070328D01*
X0227713Y0070269D01*
X0227584Y0070214D01*
X0227454Y0070163D01*
X0227323Y0070115D01*
X0227190Y0070071D01*
X0227056Y0070031D01*
X0226921Y0069994D01*
X0226785Y0069962D01*
X0226648Y0069933D01*
X0226510Y0069909D01*
X0226372Y0069888D01*
X0226233Y0069871D01*
X0226093Y0069858D01*
X0225954Y0069849D01*
X0225814Y0069844D01*
X0225674Y0069843D01*
X0225534Y0069846D01*
X0225394Y0069853D01*
X0225255Y0069864D01*
X0225116Y0069879D01*
X0224977Y0069898D01*
X0224839Y0069920D01*
X0224702Y0069947D01*
X0224565Y0069978D01*
X0224430Y0070012D01*
X0224295Y0070050D01*
X0224162Y0070093D01*
X0224030Y0070138D01*
X0223899Y0070188D01*
X0223769Y0070241D01*
X0223642Y0070298D01*
X0223516Y0070359D01*
X0223391Y0070423D01*
X0223269Y0070491D01*
X0223148Y0070562D01*
X0223030Y0070636D01*
X0222914Y0070714D01*
X0222800Y0070795D01*
X0222688Y0070880D01*
X0222579Y0070967D01*
X0222472Y0071057D01*
X0222368Y0071151D01*
X0222267Y0071247D01*
X0222168Y0071347D01*
X0222072Y0071449D01*
X0221980Y0071553D01*
X0221890Y0071661D01*
X0221803Y0071771D01*
X0221720Y0071883D01*
X0221639Y0071997D01*
X0221562Y0072114D01*
X0221489Y0072233D01*
X0221418Y0072354D01*
X0221352Y0072477D01*
X0221288Y0072602D01*
X0221229Y0072728D01*
X0221173Y0072857D01*
X0221120Y0072986D01*
X0221072Y0073117D01*
X0221027Y0073250D01*
X0220986Y0073384D01*
X0220948Y0073519D01*
X0220915Y0073654D01*
X0220885Y0073791D01*
X0220859Y0073929D01*
X0220838Y0074067D01*
X0220820Y0074206D01*
X0220806Y0074345D01*
X0220796Y0074484D01*
X0220790Y0074624D01*
X0220788Y0074764D01*
D11*
X0111379Y0159882D03*
X0101379Y0159882D03*
X0100867Y0212323D03*
X0110867Y0212323D03*
D12*
X0111412Y0225276D03*
X0121412Y0225276D03*
X0131143Y0225276D03*
X0131182Y0217323D03*
X0131182Y0207323D03*
X0141221Y0207323D03*
X0141221Y0217323D03*
X0141143Y0225276D03*
X0151182Y0217323D03*
X0157520Y0222283D03*
X0164174Y0217323D03*
X0157520Y0212283D03*
X0151182Y0207323D03*
X0164174Y0227323D03*
X0166930Y0281063D03*
X0166930Y0287087D03*
X0166930Y0297087D03*
X0156930Y0297087D03*
X0156930Y0287087D03*
X0156930Y0281063D03*
X0145670Y0281063D03*
X0145670Y0287087D03*
X0145670Y0297087D03*
X0135670Y0297087D03*
X0135670Y0287087D03*
X0135670Y0281063D03*
X0123623Y0281063D03*
X0123623Y0287087D03*
X0123623Y0297087D03*
X0113623Y0297087D03*
X0113623Y0287087D03*
X0113623Y0281063D03*
X0102363Y0281063D03*
X0102363Y0287087D03*
X0102363Y0297087D03*
X0092363Y0297087D03*
X0092363Y0287087D03*
X0092363Y0281063D03*
X0080316Y0281063D03*
X0080316Y0287087D03*
X0080316Y0297087D03*
X0070316Y0297087D03*
X0070316Y0287087D03*
X0070316Y0281063D03*
X0058269Y0281063D03*
X0058269Y0287087D03*
X0058269Y0297087D03*
X0048269Y0297087D03*
X0048269Y0287087D03*
X0048269Y0281063D03*
X0051143Y0217323D03*
X0051143Y0207323D03*
X0041221Y0207362D03*
X0041221Y0217362D03*
X0031064Y0217362D03*
X0021261Y0217283D03*
X0021261Y0207283D03*
X0031064Y0207362D03*
X0061103Y0207126D03*
X0061103Y0217126D03*
X0071339Y0217323D03*
X0081182Y0217244D03*
X0081182Y0207244D03*
X0071339Y0207323D03*
X0091221Y0207323D03*
X0091221Y0217323D03*
X0121103Y0158976D03*
X0131103Y0158976D03*
X0141221Y0158976D03*
X0151221Y0158976D03*
X0224371Y0178819D03*
X0229371Y0186319D03*
X0229213Y0195118D03*
X0229253Y0202874D03*
X0239253Y0202874D03*
X0239213Y0195118D03*
X0234371Y0178819D03*
X0234174Y0216299D03*
X0229174Y0223799D03*
X0224174Y0216299D03*
X0210237Y0281063D03*
X0210237Y0287087D03*
X0210237Y0297087D03*
X0200237Y0297087D03*
X0200237Y0287087D03*
X0200237Y0281063D03*
X0188190Y0281063D03*
X0188190Y0287087D03*
X0188190Y0297087D03*
X0178190Y0297087D03*
X0178190Y0287087D03*
X0178190Y0281063D03*
D13*
X0178190Y0277241D02*
X0178190Y0272441D01*
X0188190Y0272441D02*
X0188190Y0277241D01*
X0200237Y0277241D02*
X0200237Y0272441D01*
X0210237Y0272441D02*
X0210237Y0277241D01*
X0210237Y0242441D02*
X0210237Y0237641D01*
X0200237Y0237641D02*
X0200237Y0242441D01*
X0197048Y0228739D02*
X0197048Y0223939D01*
X0187048Y0223939D02*
X0187048Y0228739D01*
X0188190Y0237641D02*
X0188190Y0242441D01*
X0178190Y0242441D02*
X0178190Y0237641D01*
X0177048Y0228739D02*
X0177048Y0223939D01*
X0166930Y0237641D02*
X0166930Y0242441D01*
X0156930Y0242441D02*
X0156930Y0237641D01*
X0145670Y0237641D02*
X0145670Y0242441D01*
X0135670Y0242441D02*
X0135670Y0237641D01*
X0123623Y0237641D02*
X0123623Y0242441D01*
X0113623Y0242441D02*
X0113623Y0237641D01*
X0102363Y0237641D02*
X0102363Y0242441D01*
X0092363Y0242441D02*
X0092363Y0237641D01*
X0091221Y0227636D02*
X0091221Y0222836D01*
X0081221Y0222836D02*
X0081221Y0227636D01*
X0071221Y0227636D02*
X0071221Y0222836D01*
X0061221Y0222836D02*
X0061221Y0227636D01*
X0058269Y0237641D02*
X0058269Y0242441D01*
X0048269Y0242441D02*
X0048269Y0237641D01*
X0051221Y0227636D02*
X0051221Y0222836D01*
X0041221Y0222836D02*
X0041221Y0227636D01*
X0031221Y0227636D02*
X0031221Y0222836D01*
X0021221Y0222836D02*
X0021221Y0227636D01*
X0021221Y0201770D02*
X0021221Y0196970D01*
X0031221Y0196970D02*
X0031221Y0201770D01*
X0041221Y0201770D02*
X0041221Y0196970D01*
X0051221Y0196970D02*
X0051221Y0201770D01*
X0061221Y0201770D02*
X0061221Y0196970D01*
X0071221Y0196970D02*
X0071221Y0201770D01*
X0081221Y0201770D02*
X0081221Y0196970D01*
X0091221Y0196970D02*
X0091221Y0201770D01*
X0101221Y0201770D02*
X0101221Y0196970D01*
X0111221Y0196970D02*
X0111221Y0201770D01*
X0121221Y0201770D02*
X0121221Y0196970D01*
X0131221Y0196970D02*
X0131221Y0201770D01*
X0141221Y0201770D02*
X0141221Y0196970D01*
X0151221Y0196970D02*
X0151221Y0201770D01*
X0151221Y0171770D02*
X0151221Y0166970D01*
X0141221Y0166970D02*
X0141221Y0171770D01*
X0131221Y0171770D02*
X0131221Y0166970D01*
X0121221Y0166970D02*
X0121221Y0171770D01*
X0111221Y0171770D02*
X0111221Y0166970D01*
X0101221Y0166970D02*
X0101221Y0171770D01*
X0091221Y0171770D02*
X0091221Y0166970D01*
X0091280Y0162282D02*
X0091280Y0157482D01*
X0081280Y0157482D02*
X0081280Y0162282D01*
X0081221Y0166970D02*
X0081221Y0171770D01*
X0071221Y0171770D02*
X0071221Y0166970D01*
X0071280Y0162282D02*
X0071280Y0157482D01*
X0061280Y0157482D02*
X0061280Y0162282D01*
X0061221Y0166970D02*
X0061221Y0171770D01*
X0051221Y0171770D02*
X0051221Y0166970D01*
X0051280Y0162282D02*
X0051280Y0157482D01*
X0041280Y0157482D02*
X0041280Y0162282D01*
X0041221Y0166970D02*
X0041221Y0171770D01*
X0031221Y0171770D02*
X0031221Y0166970D01*
X0031280Y0162282D02*
X0031280Y0157482D01*
X0021280Y0157482D02*
X0021280Y0162282D01*
X0021221Y0166970D02*
X0021221Y0171770D01*
X0011280Y0162282D02*
X0011280Y0157482D01*
X0011280Y0132282D02*
X0011280Y0127482D01*
X0021280Y0127482D02*
X0021280Y0132282D01*
X0031280Y0132282D02*
X0031280Y0127482D01*
X0041280Y0127482D02*
X0041280Y0132282D01*
X0051280Y0132282D02*
X0051280Y0127482D01*
X0061280Y0127482D02*
X0061280Y0132282D01*
X0071280Y0132282D02*
X0071280Y0127482D01*
X0081280Y0127482D02*
X0081280Y0132282D01*
X0091280Y0132282D02*
X0091280Y0127482D01*
X0101221Y0222836D02*
X0101221Y0227636D01*
X0080316Y0237641D02*
X0080316Y0242441D01*
X0070316Y0242441D02*
X0070316Y0237641D01*
X0070316Y0272441D02*
X0070316Y0277241D01*
X0080316Y0277241D02*
X0080316Y0272441D01*
X0092363Y0272441D02*
X0092363Y0277241D01*
X0102363Y0277241D02*
X0102363Y0272441D01*
X0113623Y0272441D02*
X0113623Y0277241D01*
X0123623Y0277241D02*
X0123623Y0272441D01*
X0135670Y0272441D02*
X0135670Y0277241D01*
X0145670Y0277241D02*
X0145670Y0272441D01*
X0156930Y0272441D02*
X0156930Y0277241D01*
X0166930Y0277241D02*
X0166930Y0272441D01*
X0177048Y0198739D02*
X0177048Y0193939D01*
X0187048Y0193939D02*
X0187048Y0198739D01*
X0197048Y0198739D02*
X0197048Y0193939D01*
X0058269Y0272441D02*
X0058269Y0277241D01*
X0048269Y0277241D02*
X0048269Y0272441D01*
D14*
X0116064Y0099764D03*
X0116064Y0081260D03*
X0116064Y0069843D03*
X0116064Y0051339D03*
X0133780Y0051339D03*
X0133780Y0069843D03*
X0133780Y0081260D03*
X0133780Y0099764D03*
D15*
X0179056Y0081260D03*
X0179056Y0051339D03*
X0070788Y0069843D03*
X0070788Y0099764D03*
D16*
X0043229Y0099764D03*
X0043229Y0069843D03*
X0206615Y0081260D03*
X0206615Y0051339D03*
D17*
X0196831Y0181024D02*
X0189154Y0181024D01*
X0171241Y0181024D02*
X0163564Y0181024D01*
D18*
X0166261Y0319646D03*
X0185946Y0319646D03*
X0205631Y0319646D03*
X0146576Y0319646D03*
X0107599Y0319646D03*
X0087914Y0319646D03*
X0068229Y0319646D03*
X0048544Y0319646D03*
X0028859Y0319646D03*
X0028465Y0026732D03*
X0048150Y0026732D03*
X0087520Y0026732D03*
X0107206Y0026732D03*
X0147363Y0026732D03*
X0167048Y0026732D03*
X0206418Y0026732D03*
X0226103Y0026732D03*
D19*
X0242835Y0316102D03*
D20*
X0242835Y0323976D03*
X0234961Y0323976D03*
X0234961Y0316102D03*
X0227087Y0316102D03*
X0227087Y0323976D03*
D21*
X0051261Y0122094D02*
X0051261Y0116094D01*
X0041261Y0116094D02*
X0041261Y0122094D01*
X0031261Y0122094D02*
X0031261Y0116094D01*
X0021261Y0116094D02*
X0021261Y0122094D01*
X0011261Y0122094D02*
X0011261Y0116094D01*
M02*
