G04 EAGLE Gerber RS-274X export*
G75*
%MOMM*%
%FSLAX34Y34*%
%LPD*%
%INPaste Mask Bottom*%
%IPPOS*%
%AMOC8*
5,1,8,0,0,1.08239X$1,22.5*%
G01*
%ADD10C,0.000000*%
%ADD11R,1.300000X1.500000*%
%ADD12R,1.500000X1.300000*%


D10*
X0Y0D02*
X640000Y0D01*
X640000Y820000D01*
X0Y820000D01*
X0Y0D01*
X557500Y660000D02*
X557504Y660307D01*
X557515Y660613D01*
X557534Y660920D01*
X557560Y661225D01*
X557594Y661530D01*
X557635Y661834D01*
X557684Y662137D01*
X557740Y662439D01*
X557804Y662739D01*
X557875Y663037D01*
X557953Y663334D01*
X558038Y663629D01*
X558131Y663921D01*
X558231Y664211D01*
X558338Y664499D01*
X558452Y664784D01*
X558572Y665066D01*
X558700Y665344D01*
X558835Y665620D01*
X558976Y665892D01*
X559124Y666161D01*
X559278Y666426D01*
X559439Y666687D01*
X559607Y666945D01*
X559780Y667198D01*
X559960Y667446D01*
X560146Y667690D01*
X560337Y667930D01*
X560535Y668165D01*
X560738Y668394D01*
X560947Y668619D01*
X561161Y668839D01*
X561381Y669053D01*
X561606Y669262D01*
X561835Y669465D01*
X562070Y669663D01*
X562310Y669854D01*
X562554Y670040D01*
X562802Y670220D01*
X563055Y670393D01*
X563313Y670561D01*
X563574Y670722D01*
X563839Y670876D01*
X564108Y671024D01*
X564380Y671165D01*
X564656Y671300D01*
X564934Y671428D01*
X565216Y671548D01*
X565501Y671662D01*
X565789Y671769D01*
X566079Y671869D01*
X566371Y671962D01*
X566666Y672047D01*
X566963Y672125D01*
X567261Y672196D01*
X567561Y672260D01*
X567863Y672316D01*
X568166Y672365D01*
X568470Y672406D01*
X568775Y672440D01*
X569080Y672466D01*
X569387Y672485D01*
X569693Y672496D01*
X570000Y672500D01*
X570307Y672496D01*
X570613Y672485D01*
X570920Y672466D01*
X571225Y672440D01*
X571530Y672406D01*
X571834Y672365D01*
X572137Y672316D01*
X572439Y672260D01*
X572739Y672196D01*
X573037Y672125D01*
X573334Y672047D01*
X573629Y671962D01*
X573921Y671869D01*
X574211Y671769D01*
X574499Y671662D01*
X574784Y671548D01*
X575066Y671428D01*
X575344Y671300D01*
X575620Y671165D01*
X575892Y671024D01*
X576161Y670876D01*
X576426Y670722D01*
X576687Y670561D01*
X576945Y670393D01*
X577198Y670220D01*
X577446Y670040D01*
X577690Y669854D01*
X577930Y669663D01*
X578165Y669465D01*
X578394Y669262D01*
X578619Y669053D01*
X578839Y668839D01*
X579053Y668619D01*
X579262Y668394D01*
X579465Y668165D01*
X579663Y667930D01*
X579854Y667690D01*
X580040Y667446D01*
X580220Y667198D01*
X580393Y666945D01*
X580561Y666687D01*
X580722Y666426D01*
X580876Y666161D01*
X581024Y665892D01*
X581165Y665620D01*
X581300Y665344D01*
X581428Y665066D01*
X581548Y664784D01*
X581662Y664499D01*
X581769Y664211D01*
X581869Y663921D01*
X581962Y663629D01*
X582047Y663334D01*
X582125Y663037D01*
X582196Y662739D01*
X582260Y662439D01*
X582316Y662137D01*
X582365Y661834D01*
X582406Y661530D01*
X582440Y661225D01*
X582466Y660920D01*
X582485Y660613D01*
X582496Y660307D01*
X582500Y660000D01*
X582496Y659693D01*
X582485Y659387D01*
X582466Y659080D01*
X582440Y658775D01*
X582406Y658470D01*
X582365Y658166D01*
X582316Y657863D01*
X582260Y657561D01*
X582196Y657261D01*
X582125Y656963D01*
X582047Y656666D01*
X581962Y656371D01*
X581869Y656079D01*
X581769Y655789D01*
X581662Y655501D01*
X581548Y655216D01*
X581428Y654934D01*
X581300Y654656D01*
X581165Y654380D01*
X581024Y654108D01*
X580876Y653839D01*
X580722Y653574D01*
X580561Y653313D01*
X580393Y653055D01*
X580220Y652802D01*
X580040Y652554D01*
X579854Y652310D01*
X579663Y652070D01*
X579465Y651835D01*
X579262Y651606D01*
X579053Y651381D01*
X578839Y651161D01*
X578619Y650947D01*
X578394Y650738D01*
X578165Y650535D01*
X577930Y650337D01*
X577690Y650146D01*
X577446Y649960D01*
X577198Y649780D01*
X576945Y649607D01*
X576687Y649439D01*
X576426Y649278D01*
X576161Y649124D01*
X575892Y648976D01*
X575620Y648835D01*
X575344Y648700D01*
X575066Y648572D01*
X574784Y648452D01*
X574499Y648338D01*
X574211Y648231D01*
X573921Y648131D01*
X573629Y648038D01*
X573334Y647953D01*
X573037Y647875D01*
X572739Y647804D01*
X572439Y647740D01*
X572137Y647684D01*
X571834Y647635D01*
X571530Y647594D01*
X571225Y647560D01*
X570920Y647534D01*
X570613Y647515D01*
X570307Y647504D01*
X570000Y647500D01*
X569693Y647504D01*
X569387Y647515D01*
X569080Y647534D01*
X568775Y647560D01*
X568470Y647594D01*
X568166Y647635D01*
X567863Y647684D01*
X567561Y647740D01*
X567261Y647804D01*
X566963Y647875D01*
X566666Y647953D01*
X566371Y648038D01*
X566079Y648131D01*
X565789Y648231D01*
X565501Y648338D01*
X565216Y648452D01*
X564934Y648572D01*
X564656Y648700D01*
X564380Y648835D01*
X564108Y648976D01*
X563839Y649124D01*
X563574Y649278D01*
X563313Y649439D01*
X563055Y649607D01*
X562802Y649780D01*
X562554Y649960D01*
X562310Y650146D01*
X562070Y650337D01*
X561835Y650535D01*
X561606Y650738D01*
X561381Y650947D01*
X561161Y651161D01*
X560947Y651381D01*
X560738Y651606D01*
X560535Y651835D01*
X560337Y652070D01*
X560146Y652310D01*
X559960Y652554D01*
X559780Y652802D01*
X559607Y653055D01*
X559439Y653313D01*
X559278Y653574D01*
X559124Y653839D01*
X558976Y654108D01*
X558835Y654380D01*
X558700Y654656D01*
X558572Y654934D01*
X558452Y655216D01*
X558338Y655501D01*
X558231Y655789D01*
X558131Y656079D01*
X558038Y656371D01*
X557953Y656666D01*
X557875Y656963D01*
X557804Y657261D01*
X557740Y657561D01*
X557684Y657863D01*
X557635Y658166D01*
X557594Y658470D01*
X557560Y658775D01*
X557534Y659080D01*
X557515Y659387D01*
X557504Y659693D01*
X557500Y660000D01*
X57500Y160000D02*
X57504Y160307D01*
X57515Y160613D01*
X57534Y160920D01*
X57560Y161225D01*
X57594Y161530D01*
X57635Y161834D01*
X57684Y162137D01*
X57740Y162439D01*
X57804Y162739D01*
X57875Y163037D01*
X57953Y163334D01*
X58038Y163629D01*
X58131Y163921D01*
X58231Y164211D01*
X58338Y164499D01*
X58452Y164784D01*
X58572Y165066D01*
X58700Y165344D01*
X58835Y165620D01*
X58976Y165892D01*
X59124Y166161D01*
X59278Y166426D01*
X59439Y166687D01*
X59607Y166945D01*
X59780Y167198D01*
X59960Y167446D01*
X60146Y167690D01*
X60337Y167930D01*
X60535Y168165D01*
X60738Y168394D01*
X60947Y168619D01*
X61161Y168839D01*
X61381Y169053D01*
X61606Y169262D01*
X61835Y169465D01*
X62070Y169663D01*
X62310Y169854D01*
X62554Y170040D01*
X62802Y170220D01*
X63055Y170393D01*
X63313Y170561D01*
X63574Y170722D01*
X63839Y170876D01*
X64108Y171024D01*
X64380Y171165D01*
X64656Y171300D01*
X64934Y171428D01*
X65216Y171548D01*
X65501Y171662D01*
X65789Y171769D01*
X66079Y171869D01*
X66371Y171962D01*
X66666Y172047D01*
X66963Y172125D01*
X67261Y172196D01*
X67561Y172260D01*
X67863Y172316D01*
X68166Y172365D01*
X68470Y172406D01*
X68775Y172440D01*
X69080Y172466D01*
X69387Y172485D01*
X69693Y172496D01*
X70000Y172500D01*
X70307Y172496D01*
X70613Y172485D01*
X70920Y172466D01*
X71225Y172440D01*
X71530Y172406D01*
X71834Y172365D01*
X72137Y172316D01*
X72439Y172260D01*
X72739Y172196D01*
X73037Y172125D01*
X73334Y172047D01*
X73629Y171962D01*
X73921Y171869D01*
X74211Y171769D01*
X74499Y171662D01*
X74784Y171548D01*
X75066Y171428D01*
X75344Y171300D01*
X75620Y171165D01*
X75892Y171024D01*
X76161Y170876D01*
X76426Y170722D01*
X76687Y170561D01*
X76945Y170393D01*
X77198Y170220D01*
X77446Y170040D01*
X77690Y169854D01*
X77930Y169663D01*
X78165Y169465D01*
X78394Y169262D01*
X78619Y169053D01*
X78839Y168839D01*
X79053Y168619D01*
X79262Y168394D01*
X79465Y168165D01*
X79663Y167930D01*
X79854Y167690D01*
X80040Y167446D01*
X80220Y167198D01*
X80393Y166945D01*
X80561Y166687D01*
X80722Y166426D01*
X80876Y166161D01*
X81024Y165892D01*
X81165Y165620D01*
X81300Y165344D01*
X81428Y165066D01*
X81548Y164784D01*
X81662Y164499D01*
X81769Y164211D01*
X81869Y163921D01*
X81962Y163629D01*
X82047Y163334D01*
X82125Y163037D01*
X82196Y162739D01*
X82260Y162439D01*
X82316Y162137D01*
X82365Y161834D01*
X82406Y161530D01*
X82440Y161225D01*
X82466Y160920D01*
X82485Y160613D01*
X82496Y160307D01*
X82500Y160000D01*
X82496Y159693D01*
X82485Y159387D01*
X82466Y159080D01*
X82440Y158775D01*
X82406Y158470D01*
X82365Y158166D01*
X82316Y157863D01*
X82260Y157561D01*
X82196Y157261D01*
X82125Y156963D01*
X82047Y156666D01*
X81962Y156371D01*
X81869Y156079D01*
X81769Y155789D01*
X81662Y155501D01*
X81548Y155216D01*
X81428Y154934D01*
X81300Y154656D01*
X81165Y154380D01*
X81024Y154108D01*
X80876Y153839D01*
X80722Y153574D01*
X80561Y153313D01*
X80393Y153055D01*
X80220Y152802D01*
X80040Y152554D01*
X79854Y152310D01*
X79663Y152070D01*
X79465Y151835D01*
X79262Y151606D01*
X79053Y151381D01*
X78839Y151161D01*
X78619Y150947D01*
X78394Y150738D01*
X78165Y150535D01*
X77930Y150337D01*
X77690Y150146D01*
X77446Y149960D01*
X77198Y149780D01*
X76945Y149607D01*
X76687Y149439D01*
X76426Y149278D01*
X76161Y149124D01*
X75892Y148976D01*
X75620Y148835D01*
X75344Y148700D01*
X75066Y148572D01*
X74784Y148452D01*
X74499Y148338D01*
X74211Y148231D01*
X73921Y148131D01*
X73629Y148038D01*
X73334Y147953D01*
X73037Y147875D01*
X72739Y147804D01*
X72439Y147740D01*
X72137Y147684D01*
X71834Y147635D01*
X71530Y147594D01*
X71225Y147560D01*
X70920Y147534D01*
X70613Y147515D01*
X70307Y147504D01*
X70000Y147500D01*
X69693Y147504D01*
X69387Y147515D01*
X69080Y147534D01*
X68775Y147560D01*
X68470Y147594D01*
X68166Y147635D01*
X67863Y147684D01*
X67561Y147740D01*
X67261Y147804D01*
X66963Y147875D01*
X66666Y147953D01*
X66371Y148038D01*
X66079Y148131D01*
X65789Y148231D01*
X65501Y148338D01*
X65216Y148452D01*
X64934Y148572D01*
X64656Y148700D01*
X64380Y148835D01*
X64108Y148976D01*
X63839Y149124D01*
X63574Y149278D01*
X63313Y149439D01*
X63055Y149607D01*
X62802Y149780D01*
X62554Y149960D01*
X62310Y150146D01*
X62070Y150337D01*
X61835Y150535D01*
X61606Y150738D01*
X61381Y150947D01*
X61161Y151161D01*
X60947Y151381D01*
X60738Y151606D01*
X60535Y151835D01*
X60337Y152070D01*
X60146Y152310D01*
X59960Y152554D01*
X59780Y152802D01*
X59607Y153055D01*
X59439Y153313D01*
X59278Y153574D01*
X59124Y153839D01*
X58976Y154108D01*
X58835Y154380D01*
X58700Y154656D01*
X58572Y154934D01*
X58452Y155216D01*
X58338Y155501D01*
X58231Y155789D01*
X58131Y156079D01*
X58038Y156371D01*
X57953Y156666D01*
X57875Y156963D01*
X57804Y157261D01*
X57740Y157561D01*
X57684Y157863D01*
X57635Y158166D01*
X57594Y158470D01*
X57560Y158775D01*
X57534Y159080D01*
X57515Y159387D01*
X57504Y159693D01*
X57500Y160000D01*
X559000Y591000D02*
X559003Y591270D01*
X559013Y591540D01*
X559030Y591809D01*
X559053Y592078D01*
X559083Y592347D01*
X559119Y592614D01*
X559162Y592881D01*
X559211Y593146D01*
X559267Y593410D01*
X559330Y593673D01*
X559398Y593934D01*
X559474Y594193D01*
X559555Y594450D01*
X559643Y594706D01*
X559737Y594959D01*
X559837Y595210D01*
X559944Y595458D01*
X560056Y595703D01*
X560175Y595946D01*
X560299Y596185D01*
X560429Y596422D01*
X560565Y596655D01*
X560707Y596885D01*
X560854Y597111D01*
X561007Y597334D01*
X561165Y597553D01*
X561328Y597768D01*
X561497Y597978D01*
X561671Y598185D01*
X561850Y598387D01*
X562033Y598585D01*
X562222Y598778D01*
X562415Y598967D01*
X562613Y599150D01*
X562815Y599329D01*
X563022Y599503D01*
X563232Y599672D01*
X563447Y599835D01*
X563666Y599993D01*
X563889Y600146D01*
X564115Y600293D01*
X564345Y600435D01*
X564578Y600571D01*
X564815Y600701D01*
X565054Y600825D01*
X565297Y600944D01*
X565542Y601056D01*
X565790Y601163D01*
X566041Y601263D01*
X566294Y601357D01*
X566550Y601445D01*
X566807Y601526D01*
X567066Y601602D01*
X567327Y601670D01*
X567590Y601733D01*
X567854Y601789D01*
X568119Y601838D01*
X568386Y601881D01*
X568653Y601917D01*
X568922Y601947D01*
X569191Y601970D01*
X569460Y601987D01*
X569730Y601997D01*
X570000Y602000D01*
X570270Y601997D01*
X570540Y601987D01*
X570809Y601970D01*
X571078Y601947D01*
X571347Y601917D01*
X571614Y601881D01*
X571881Y601838D01*
X572146Y601789D01*
X572410Y601733D01*
X572673Y601670D01*
X572934Y601602D01*
X573193Y601526D01*
X573450Y601445D01*
X573706Y601357D01*
X573959Y601263D01*
X574210Y601163D01*
X574458Y601056D01*
X574703Y600944D01*
X574946Y600825D01*
X575185Y600701D01*
X575422Y600571D01*
X575655Y600435D01*
X575885Y600293D01*
X576111Y600146D01*
X576334Y599993D01*
X576553Y599835D01*
X576768Y599672D01*
X576978Y599503D01*
X577185Y599329D01*
X577387Y599150D01*
X577585Y598967D01*
X577778Y598778D01*
X577967Y598585D01*
X578150Y598387D01*
X578329Y598185D01*
X578503Y597978D01*
X578672Y597768D01*
X578835Y597553D01*
X578993Y597334D01*
X579146Y597111D01*
X579293Y596885D01*
X579435Y596655D01*
X579571Y596422D01*
X579701Y596185D01*
X579825Y595946D01*
X579944Y595703D01*
X580056Y595458D01*
X580163Y595210D01*
X580263Y594959D01*
X580357Y594706D01*
X580445Y594450D01*
X580526Y594193D01*
X580602Y593934D01*
X580670Y593673D01*
X580733Y593410D01*
X580789Y593146D01*
X580838Y592881D01*
X580881Y592614D01*
X580917Y592347D01*
X580947Y592078D01*
X580970Y591809D01*
X580987Y591540D01*
X580997Y591270D01*
X581000Y591000D01*
X580997Y590730D01*
X580987Y590460D01*
X580970Y590191D01*
X580947Y589922D01*
X580917Y589653D01*
X580881Y589386D01*
X580838Y589119D01*
X580789Y588854D01*
X580733Y588590D01*
X580670Y588327D01*
X580602Y588066D01*
X580526Y587807D01*
X580445Y587550D01*
X580357Y587294D01*
X580263Y587041D01*
X580163Y586790D01*
X580056Y586542D01*
X579944Y586297D01*
X579825Y586054D01*
X579701Y585815D01*
X579571Y585578D01*
X579435Y585345D01*
X579293Y585115D01*
X579146Y584889D01*
X578993Y584666D01*
X578835Y584447D01*
X578672Y584232D01*
X578503Y584022D01*
X578329Y583815D01*
X578150Y583613D01*
X577967Y583415D01*
X577778Y583222D01*
X577585Y583033D01*
X577387Y582850D01*
X577185Y582671D01*
X576978Y582497D01*
X576768Y582328D01*
X576553Y582165D01*
X576334Y582007D01*
X576111Y581854D01*
X575885Y581707D01*
X575655Y581565D01*
X575422Y581429D01*
X575185Y581299D01*
X574946Y581175D01*
X574703Y581056D01*
X574458Y580944D01*
X574210Y580837D01*
X573959Y580737D01*
X573706Y580643D01*
X573450Y580555D01*
X573193Y580474D01*
X572934Y580398D01*
X572673Y580330D01*
X572410Y580267D01*
X572146Y580211D01*
X571881Y580162D01*
X571614Y580119D01*
X571347Y580083D01*
X571078Y580053D01*
X570809Y580030D01*
X570540Y580013D01*
X570270Y580003D01*
X570000Y580000D01*
X569730Y580003D01*
X569460Y580013D01*
X569191Y580030D01*
X568922Y580053D01*
X568653Y580083D01*
X568386Y580119D01*
X568119Y580162D01*
X567854Y580211D01*
X567590Y580267D01*
X567327Y580330D01*
X567066Y580398D01*
X566807Y580474D01*
X566550Y580555D01*
X566294Y580643D01*
X566041Y580737D01*
X565790Y580837D01*
X565542Y580944D01*
X565297Y581056D01*
X565054Y581175D01*
X564815Y581299D01*
X564578Y581429D01*
X564345Y581565D01*
X564115Y581707D01*
X563889Y581854D01*
X563666Y582007D01*
X563447Y582165D01*
X563232Y582328D01*
X563022Y582497D01*
X562815Y582671D01*
X562613Y582850D01*
X562415Y583033D01*
X562222Y583222D01*
X562033Y583415D01*
X561850Y583613D01*
X561671Y583815D01*
X561497Y584022D01*
X561328Y584232D01*
X561165Y584447D01*
X561007Y584666D01*
X560854Y584889D01*
X560707Y585115D01*
X560565Y585345D01*
X560429Y585578D01*
X560299Y585815D01*
X560175Y586054D01*
X560056Y586297D01*
X559944Y586542D01*
X559837Y586790D01*
X559737Y587041D01*
X559643Y587294D01*
X559555Y587550D01*
X559474Y587807D01*
X559398Y588066D01*
X559330Y588327D01*
X559267Y588590D01*
X559211Y588854D01*
X559162Y589119D01*
X559119Y589386D01*
X559083Y589653D01*
X559053Y589922D01*
X559030Y590191D01*
X559013Y590460D01*
X559003Y590730D01*
X559000Y591000D01*
X559000Y229000D02*
X559003Y229270D01*
X559013Y229540D01*
X559030Y229809D01*
X559053Y230078D01*
X559083Y230347D01*
X559119Y230614D01*
X559162Y230881D01*
X559211Y231146D01*
X559267Y231410D01*
X559330Y231673D01*
X559398Y231934D01*
X559474Y232193D01*
X559555Y232450D01*
X559643Y232706D01*
X559737Y232959D01*
X559837Y233210D01*
X559944Y233458D01*
X560056Y233703D01*
X560175Y233946D01*
X560299Y234185D01*
X560429Y234422D01*
X560565Y234655D01*
X560707Y234885D01*
X560854Y235111D01*
X561007Y235334D01*
X561165Y235553D01*
X561328Y235768D01*
X561497Y235978D01*
X561671Y236185D01*
X561850Y236387D01*
X562033Y236585D01*
X562222Y236778D01*
X562415Y236967D01*
X562613Y237150D01*
X562815Y237329D01*
X563022Y237503D01*
X563232Y237672D01*
X563447Y237835D01*
X563666Y237993D01*
X563889Y238146D01*
X564115Y238293D01*
X564345Y238435D01*
X564578Y238571D01*
X564815Y238701D01*
X565054Y238825D01*
X565297Y238944D01*
X565542Y239056D01*
X565790Y239163D01*
X566041Y239263D01*
X566294Y239357D01*
X566550Y239445D01*
X566807Y239526D01*
X567066Y239602D01*
X567327Y239670D01*
X567590Y239733D01*
X567854Y239789D01*
X568119Y239838D01*
X568386Y239881D01*
X568653Y239917D01*
X568922Y239947D01*
X569191Y239970D01*
X569460Y239987D01*
X569730Y239997D01*
X570000Y240000D01*
X570270Y239997D01*
X570540Y239987D01*
X570809Y239970D01*
X571078Y239947D01*
X571347Y239917D01*
X571614Y239881D01*
X571881Y239838D01*
X572146Y239789D01*
X572410Y239733D01*
X572673Y239670D01*
X572934Y239602D01*
X573193Y239526D01*
X573450Y239445D01*
X573706Y239357D01*
X573959Y239263D01*
X574210Y239163D01*
X574458Y239056D01*
X574703Y238944D01*
X574946Y238825D01*
X575185Y238701D01*
X575422Y238571D01*
X575655Y238435D01*
X575885Y238293D01*
X576111Y238146D01*
X576334Y237993D01*
X576553Y237835D01*
X576768Y237672D01*
X576978Y237503D01*
X577185Y237329D01*
X577387Y237150D01*
X577585Y236967D01*
X577778Y236778D01*
X577967Y236585D01*
X578150Y236387D01*
X578329Y236185D01*
X578503Y235978D01*
X578672Y235768D01*
X578835Y235553D01*
X578993Y235334D01*
X579146Y235111D01*
X579293Y234885D01*
X579435Y234655D01*
X579571Y234422D01*
X579701Y234185D01*
X579825Y233946D01*
X579944Y233703D01*
X580056Y233458D01*
X580163Y233210D01*
X580263Y232959D01*
X580357Y232706D01*
X580445Y232450D01*
X580526Y232193D01*
X580602Y231934D01*
X580670Y231673D01*
X580733Y231410D01*
X580789Y231146D01*
X580838Y230881D01*
X580881Y230614D01*
X580917Y230347D01*
X580947Y230078D01*
X580970Y229809D01*
X580987Y229540D01*
X580997Y229270D01*
X581000Y229000D01*
X580997Y228730D01*
X580987Y228460D01*
X580970Y228191D01*
X580947Y227922D01*
X580917Y227653D01*
X580881Y227386D01*
X580838Y227119D01*
X580789Y226854D01*
X580733Y226590D01*
X580670Y226327D01*
X580602Y226066D01*
X580526Y225807D01*
X580445Y225550D01*
X580357Y225294D01*
X580263Y225041D01*
X580163Y224790D01*
X580056Y224542D01*
X579944Y224297D01*
X579825Y224054D01*
X579701Y223815D01*
X579571Y223578D01*
X579435Y223345D01*
X579293Y223115D01*
X579146Y222889D01*
X578993Y222666D01*
X578835Y222447D01*
X578672Y222232D01*
X578503Y222022D01*
X578329Y221815D01*
X578150Y221613D01*
X577967Y221415D01*
X577778Y221222D01*
X577585Y221033D01*
X577387Y220850D01*
X577185Y220671D01*
X576978Y220497D01*
X576768Y220328D01*
X576553Y220165D01*
X576334Y220007D01*
X576111Y219854D01*
X575885Y219707D01*
X575655Y219565D01*
X575422Y219429D01*
X575185Y219299D01*
X574946Y219175D01*
X574703Y219056D01*
X574458Y218944D01*
X574210Y218837D01*
X573959Y218737D01*
X573706Y218643D01*
X573450Y218555D01*
X573193Y218474D01*
X572934Y218398D01*
X572673Y218330D01*
X572410Y218267D01*
X572146Y218211D01*
X571881Y218162D01*
X571614Y218119D01*
X571347Y218083D01*
X571078Y218053D01*
X570809Y218030D01*
X570540Y218013D01*
X570270Y218003D01*
X570000Y218000D01*
X569730Y218003D01*
X569460Y218013D01*
X569191Y218030D01*
X568922Y218053D01*
X568653Y218083D01*
X568386Y218119D01*
X568119Y218162D01*
X567854Y218211D01*
X567590Y218267D01*
X567327Y218330D01*
X567066Y218398D01*
X566807Y218474D01*
X566550Y218555D01*
X566294Y218643D01*
X566041Y218737D01*
X565790Y218837D01*
X565542Y218944D01*
X565297Y219056D01*
X565054Y219175D01*
X564815Y219299D01*
X564578Y219429D01*
X564345Y219565D01*
X564115Y219707D01*
X563889Y219854D01*
X563666Y220007D01*
X563447Y220165D01*
X563232Y220328D01*
X563022Y220497D01*
X562815Y220671D01*
X562613Y220850D01*
X562415Y221033D01*
X562222Y221222D01*
X562033Y221415D01*
X561850Y221613D01*
X561671Y221815D01*
X561497Y222022D01*
X561328Y222232D01*
X561165Y222447D01*
X561007Y222666D01*
X560854Y222889D01*
X560707Y223115D01*
X560565Y223345D01*
X560429Y223578D01*
X560299Y223815D01*
X560175Y224054D01*
X560056Y224297D01*
X559944Y224542D01*
X559837Y224790D01*
X559737Y225041D01*
X559643Y225294D01*
X559555Y225550D01*
X559474Y225807D01*
X559398Y226066D01*
X559330Y226327D01*
X559267Y226590D01*
X559211Y226854D01*
X559162Y227119D01*
X559119Y227386D01*
X559083Y227653D01*
X559053Y227922D01*
X559030Y228191D01*
X559013Y228460D01*
X559003Y228730D01*
X559000Y229000D01*
X59000Y229000D02*
X59003Y229270D01*
X59013Y229540D01*
X59030Y229809D01*
X59053Y230078D01*
X59083Y230347D01*
X59119Y230614D01*
X59162Y230881D01*
X59211Y231146D01*
X59267Y231410D01*
X59330Y231673D01*
X59398Y231934D01*
X59474Y232193D01*
X59555Y232450D01*
X59643Y232706D01*
X59737Y232959D01*
X59837Y233210D01*
X59944Y233458D01*
X60056Y233703D01*
X60175Y233946D01*
X60299Y234185D01*
X60429Y234422D01*
X60565Y234655D01*
X60707Y234885D01*
X60854Y235111D01*
X61007Y235334D01*
X61165Y235553D01*
X61328Y235768D01*
X61497Y235978D01*
X61671Y236185D01*
X61850Y236387D01*
X62033Y236585D01*
X62222Y236778D01*
X62415Y236967D01*
X62613Y237150D01*
X62815Y237329D01*
X63022Y237503D01*
X63232Y237672D01*
X63447Y237835D01*
X63666Y237993D01*
X63889Y238146D01*
X64115Y238293D01*
X64345Y238435D01*
X64578Y238571D01*
X64815Y238701D01*
X65054Y238825D01*
X65297Y238944D01*
X65542Y239056D01*
X65790Y239163D01*
X66041Y239263D01*
X66294Y239357D01*
X66550Y239445D01*
X66807Y239526D01*
X67066Y239602D01*
X67327Y239670D01*
X67590Y239733D01*
X67854Y239789D01*
X68119Y239838D01*
X68386Y239881D01*
X68653Y239917D01*
X68922Y239947D01*
X69191Y239970D01*
X69460Y239987D01*
X69730Y239997D01*
X70000Y240000D01*
X70270Y239997D01*
X70540Y239987D01*
X70809Y239970D01*
X71078Y239947D01*
X71347Y239917D01*
X71614Y239881D01*
X71881Y239838D01*
X72146Y239789D01*
X72410Y239733D01*
X72673Y239670D01*
X72934Y239602D01*
X73193Y239526D01*
X73450Y239445D01*
X73706Y239357D01*
X73959Y239263D01*
X74210Y239163D01*
X74458Y239056D01*
X74703Y238944D01*
X74946Y238825D01*
X75185Y238701D01*
X75422Y238571D01*
X75655Y238435D01*
X75885Y238293D01*
X76111Y238146D01*
X76334Y237993D01*
X76553Y237835D01*
X76768Y237672D01*
X76978Y237503D01*
X77185Y237329D01*
X77387Y237150D01*
X77585Y236967D01*
X77778Y236778D01*
X77967Y236585D01*
X78150Y236387D01*
X78329Y236185D01*
X78503Y235978D01*
X78672Y235768D01*
X78835Y235553D01*
X78993Y235334D01*
X79146Y235111D01*
X79293Y234885D01*
X79435Y234655D01*
X79571Y234422D01*
X79701Y234185D01*
X79825Y233946D01*
X79944Y233703D01*
X80056Y233458D01*
X80163Y233210D01*
X80263Y232959D01*
X80357Y232706D01*
X80445Y232450D01*
X80526Y232193D01*
X80602Y231934D01*
X80670Y231673D01*
X80733Y231410D01*
X80789Y231146D01*
X80838Y230881D01*
X80881Y230614D01*
X80917Y230347D01*
X80947Y230078D01*
X80970Y229809D01*
X80987Y229540D01*
X80997Y229270D01*
X81000Y229000D01*
X80997Y228730D01*
X80987Y228460D01*
X80970Y228191D01*
X80947Y227922D01*
X80917Y227653D01*
X80881Y227386D01*
X80838Y227119D01*
X80789Y226854D01*
X80733Y226590D01*
X80670Y226327D01*
X80602Y226066D01*
X80526Y225807D01*
X80445Y225550D01*
X80357Y225294D01*
X80263Y225041D01*
X80163Y224790D01*
X80056Y224542D01*
X79944Y224297D01*
X79825Y224054D01*
X79701Y223815D01*
X79571Y223578D01*
X79435Y223345D01*
X79293Y223115D01*
X79146Y222889D01*
X78993Y222666D01*
X78835Y222447D01*
X78672Y222232D01*
X78503Y222022D01*
X78329Y221815D01*
X78150Y221613D01*
X77967Y221415D01*
X77778Y221222D01*
X77585Y221033D01*
X77387Y220850D01*
X77185Y220671D01*
X76978Y220497D01*
X76768Y220328D01*
X76553Y220165D01*
X76334Y220007D01*
X76111Y219854D01*
X75885Y219707D01*
X75655Y219565D01*
X75422Y219429D01*
X75185Y219299D01*
X74946Y219175D01*
X74703Y219056D01*
X74458Y218944D01*
X74210Y218837D01*
X73959Y218737D01*
X73706Y218643D01*
X73450Y218555D01*
X73193Y218474D01*
X72934Y218398D01*
X72673Y218330D01*
X72410Y218267D01*
X72146Y218211D01*
X71881Y218162D01*
X71614Y218119D01*
X71347Y218083D01*
X71078Y218053D01*
X70809Y218030D01*
X70540Y218013D01*
X70270Y218003D01*
X70000Y218000D01*
X69730Y218003D01*
X69460Y218013D01*
X69191Y218030D01*
X68922Y218053D01*
X68653Y218083D01*
X68386Y218119D01*
X68119Y218162D01*
X67854Y218211D01*
X67590Y218267D01*
X67327Y218330D01*
X67066Y218398D01*
X66807Y218474D01*
X66550Y218555D01*
X66294Y218643D01*
X66041Y218737D01*
X65790Y218837D01*
X65542Y218944D01*
X65297Y219056D01*
X65054Y219175D01*
X64815Y219299D01*
X64578Y219429D01*
X64345Y219565D01*
X64115Y219707D01*
X63889Y219854D01*
X63666Y220007D01*
X63447Y220165D01*
X63232Y220328D01*
X63022Y220497D01*
X62815Y220671D01*
X62613Y220850D01*
X62415Y221033D01*
X62222Y221222D01*
X62033Y221415D01*
X61850Y221613D01*
X61671Y221815D01*
X61497Y222022D01*
X61328Y222232D01*
X61165Y222447D01*
X61007Y222666D01*
X60854Y222889D01*
X60707Y223115D01*
X60565Y223345D01*
X60429Y223578D01*
X60299Y223815D01*
X60175Y224054D01*
X60056Y224297D01*
X59944Y224542D01*
X59837Y224790D01*
X59737Y225041D01*
X59643Y225294D01*
X59555Y225550D01*
X59474Y225807D01*
X59398Y226066D01*
X59330Y226327D01*
X59267Y226590D01*
X59211Y226854D01*
X59162Y227119D01*
X59119Y227386D01*
X59083Y227653D01*
X59053Y227922D01*
X59030Y228191D01*
X59013Y228460D01*
X59003Y228730D01*
X59000Y229000D01*
X59000Y591000D02*
X59003Y591270D01*
X59013Y591540D01*
X59030Y591809D01*
X59053Y592078D01*
X59083Y592347D01*
X59119Y592614D01*
X59162Y592881D01*
X59211Y593146D01*
X59267Y593410D01*
X59330Y593673D01*
X59398Y593934D01*
X59474Y594193D01*
X59555Y594450D01*
X59643Y594706D01*
X59737Y594959D01*
X59837Y595210D01*
X59944Y595458D01*
X60056Y595703D01*
X60175Y595946D01*
X60299Y596185D01*
X60429Y596422D01*
X60565Y596655D01*
X60707Y596885D01*
X60854Y597111D01*
X61007Y597334D01*
X61165Y597553D01*
X61328Y597768D01*
X61497Y597978D01*
X61671Y598185D01*
X61850Y598387D01*
X62033Y598585D01*
X62222Y598778D01*
X62415Y598967D01*
X62613Y599150D01*
X62815Y599329D01*
X63022Y599503D01*
X63232Y599672D01*
X63447Y599835D01*
X63666Y599993D01*
X63889Y600146D01*
X64115Y600293D01*
X64345Y600435D01*
X64578Y600571D01*
X64815Y600701D01*
X65054Y600825D01*
X65297Y600944D01*
X65542Y601056D01*
X65790Y601163D01*
X66041Y601263D01*
X66294Y601357D01*
X66550Y601445D01*
X66807Y601526D01*
X67066Y601602D01*
X67327Y601670D01*
X67590Y601733D01*
X67854Y601789D01*
X68119Y601838D01*
X68386Y601881D01*
X68653Y601917D01*
X68922Y601947D01*
X69191Y601970D01*
X69460Y601987D01*
X69730Y601997D01*
X70000Y602000D01*
X70270Y601997D01*
X70540Y601987D01*
X70809Y601970D01*
X71078Y601947D01*
X71347Y601917D01*
X71614Y601881D01*
X71881Y601838D01*
X72146Y601789D01*
X72410Y601733D01*
X72673Y601670D01*
X72934Y601602D01*
X73193Y601526D01*
X73450Y601445D01*
X73706Y601357D01*
X73959Y601263D01*
X74210Y601163D01*
X74458Y601056D01*
X74703Y600944D01*
X74946Y600825D01*
X75185Y600701D01*
X75422Y600571D01*
X75655Y600435D01*
X75885Y600293D01*
X76111Y600146D01*
X76334Y599993D01*
X76553Y599835D01*
X76768Y599672D01*
X76978Y599503D01*
X77185Y599329D01*
X77387Y599150D01*
X77585Y598967D01*
X77778Y598778D01*
X77967Y598585D01*
X78150Y598387D01*
X78329Y598185D01*
X78503Y597978D01*
X78672Y597768D01*
X78835Y597553D01*
X78993Y597334D01*
X79146Y597111D01*
X79293Y596885D01*
X79435Y596655D01*
X79571Y596422D01*
X79701Y596185D01*
X79825Y595946D01*
X79944Y595703D01*
X80056Y595458D01*
X80163Y595210D01*
X80263Y594959D01*
X80357Y594706D01*
X80445Y594450D01*
X80526Y594193D01*
X80602Y593934D01*
X80670Y593673D01*
X80733Y593410D01*
X80789Y593146D01*
X80838Y592881D01*
X80881Y592614D01*
X80917Y592347D01*
X80947Y592078D01*
X80970Y591809D01*
X80987Y591540D01*
X80997Y591270D01*
X81000Y591000D01*
X80997Y590730D01*
X80987Y590460D01*
X80970Y590191D01*
X80947Y589922D01*
X80917Y589653D01*
X80881Y589386D01*
X80838Y589119D01*
X80789Y588854D01*
X80733Y588590D01*
X80670Y588327D01*
X80602Y588066D01*
X80526Y587807D01*
X80445Y587550D01*
X80357Y587294D01*
X80263Y587041D01*
X80163Y586790D01*
X80056Y586542D01*
X79944Y586297D01*
X79825Y586054D01*
X79701Y585815D01*
X79571Y585578D01*
X79435Y585345D01*
X79293Y585115D01*
X79146Y584889D01*
X78993Y584666D01*
X78835Y584447D01*
X78672Y584232D01*
X78503Y584022D01*
X78329Y583815D01*
X78150Y583613D01*
X77967Y583415D01*
X77778Y583222D01*
X77585Y583033D01*
X77387Y582850D01*
X77185Y582671D01*
X76978Y582497D01*
X76768Y582328D01*
X76553Y582165D01*
X76334Y582007D01*
X76111Y581854D01*
X75885Y581707D01*
X75655Y581565D01*
X75422Y581429D01*
X75185Y581299D01*
X74946Y581175D01*
X74703Y581056D01*
X74458Y580944D01*
X74210Y580837D01*
X73959Y580737D01*
X73706Y580643D01*
X73450Y580555D01*
X73193Y580474D01*
X72934Y580398D01*
X72673Y580330D01*
X72410Y580267D01*
X72146Y580211D01*
X71881Y580162D01*
X71614Y580119D01*
X71347Y580083D01*
X71078Y580053D01*
X70809Y580030D01*
X70540Y580013D01*
X70270Y580003D01*
X70000Y580000D01*
X69730Y580003D01*
X69460Y580013D01*
X69191Y580030D01*
X68922Y580053D01*
X68653Y580083D01*
X68386Y580119D01*
X68119Y580162D01*
X67854Y580211D01*
X67590Y580267D01*
X67327Y580330D01*
X67066Y580398D01*
X66807Y580474D01*
X66550Y580555D01*
X66294Y580643D01*
X66041Y580737D01*
X65790Y580837D01*
X65542Y580944D01*
X65297Y581056D01*
X65054Y581175D01*
X64815Y581299D01*
X64578Y581429D01*
X64345Y581565D01*
X64115Y581707D01*
X63889Y581854D01*
X63666Y582007D01*
X63447Y582165D01*
X63232Y582328D01*
X63022Y582497D01*
X62815Y582671D01*
X62613Y582850D01*
X62415Y583033D01*
X62222Y583222D01*
X62033Y583415D01*
X61850Y583613D01*
X61671Y583815D01*
X61497Y584022D01*
X61328Y584232D01*
X61165Y584447D01*
X61007Y584666D01*
X60854Y584889D01*
X60707Y585115D01*
X60565Y585345D01*
X60429Y585578D01*
X60299Y585815D01*
X60175Y586054D01*
X60056Y586297D01*
X59944Y586542D01*
X59837Y586790D01*
X59737Y587041D01*
X59643Y587294D01*
X59555Y587550D01*
X59474Y587807D01*
X59398Y588066D01*
X59330Y588327D01*
X59267Y588590D01*
X59211Y588854D01*
X59162Y589119D01*
X59119Y589386D01*
X59083Y589653D01*
X59053Y589922D01*
X59030Y590191D01*
X59013Y590460D01*
X59003Y590730D01*
X59000Y591000D01*
D11*
X279200Y381500D03*
X260200Y381500D03*
D12*
X40000Y359000D03*
X40000Y340000D03*
M02*
