G04 EAGLE Gerber RS-274X export*
G75*
%MOMM*%
%FSLAX34Y34*%
%LPD*%
%INSilk Top*%
%IPPOS*%
%AMOC8*
5,1,8,0,0,1.08239X$1,22.5*%
G01*
%ADD10C,0.406400*%
%ADD11C,0.000000*%


D10*
X0Y0D02*
X0Y31818D01*
X0Y46818D02*
X0Y78636D01*
X0Y93636D02*
X0Y125455D01*
X0Y140455D02*
X0Y172273D01*
X0Y187273D02*
X0Y219091D01*
X0Y234091D02*
X0Y265909D01*
X0Y280909D02*
X0Y312727D01*
X0Y327727D02*
X0Y359545D01*
X0Y374545D02*
X0Y406364D01*
X0Y421364D02*
X0Y453182D01*
X0Y468182D02*
X0Y500000D01*
X670313Y0D02*
X700000Y0D01*
X655313Y0D02*
X625625Y0D01*
X610625Y0D02*
X580938Y0D01*
X565938Y0D02*
X536250Y0D01*
X521250Y0D02*
X491563Y0D01*
X476563Y0D02*
X446875Y0D01*
X431875Y0D02*
X402188Y0D01*
X387188Y0D02*
X357500Y0D01*
X342500Y0D02*
X312813Y0D01*
X297813Y0D02*
X268125Y0D01*
X253125Y0D02*
X223438Y0D01*
X208438Y0D02*
X178750Y0D01*
X163750Y0D02*
X134063Y0D01*
X119063Y0D02*
X89375Y0D01*
X74375Y0D02*
X44688Y0D01*
X29688Y0D02*
X0Y0D01*
X700000Y0D02*
X700000Y31818D01*
X700000Y46818D02*
X700000Y78636D01*
X700000Y93636D02*
X700000Y125455D01*
X700000Y140455D02*
X700000Y172273D01*
X700000Y187273D02*
X700000Y219091D01*
X700000Y234091D02*
X700000Y265909D01*
X700000Y280909D02*
X700000Y312727D01*
X700000Y327727D02*
X700000Y359545D01*
X700000Y374545D02*
X700000Y406364D01*
X700000Y421364D02*
X700000Y453182D01*
X700000Y468182D02*
X700000Y500000D01*
X25877Y500000D02*
X0Y500000D01*
X33395Y500000D02*
X34614Y500000D01*
X42133Y500000D02*
X68009Y500000D01*
X75528Y500000D02*
X76747Y500000D01*
X84265Y500000D02*
X110142Y500000D01*
X117661Y500000D02*
X118880Y500000D01*
X126398Y500000D02*
X152275Y500000D01*
X159793Y500000D02*
X161012Y500000D01*
X168531Y500000D02*
X194408Y500000D01*
X201926Y500000D02*
X203145Y500000D01*
X210664Y500000D02*
X236540Y500000D01*
X244059Y500000D02*
X245278Y500000D01*
X252796Y500000D02*
X278673Y500000D01*
X286191Y500000D02*
X287411Y500000D01*
X294929Y500000D02*
X320806Y500000D01*
X328324Y500000D02*
X329543Y500000D01*
X337062Y500000D02*
X362938Y500000D01*
X370457Y500000D02*
X371676Y500000D01*
X379194Y500000D02*
X405071Y500000D01*
X412589Y500000D02*
X413809Y500000D01*
X421327Y500000D02*
X447204Y500000D01*
X454722Y500000D02*
X455941Y500000D01*
X463460Y500000D02*
X489336Y500000D01*
X496855Y500000D02*
X498074Y500000D01*
X505592Y500000D02*
X531469Y500000D01*
X538988Y500000D02*
X540207Y500000D01*
X547725Y500000D02*
X573602Y500000D01*
X581120Y500000D02*
X582339Y500000D01*
X589858Y500000D02*
X615735Y500000D01*
X623253Y500000D02*
X624472Y500000D01*
X631991Y500000D02*
X657867Y500000D01*
X665386Y500000D02*
X666605Y500000D01*
X674123Y500000D02*
X700000Y500000D01*
D11*
X0Y500000D02*
X0Y0D01*
X0Y500000D02*
X700000Y500000D01*
X700000Y0D01*
X0Y0D01*
M02*
