G75*
%MOIN*%
%OFA0B0*%
%FSLAX25Y25*%
%IPPOS*%
%LPD*%
%AMOC8*
5,1,8,0,0,1.08239X$1,22.5*
%
%ADD10C,0.00000*%
%ADD11OC8,0.04800*%
%ADD12OC8,0.06300*%
%ADD13C,0.05118*%
%ADD14R,0.05400X0.05400*%
%ADD15C,0.05400*%
%ADD16C,0.05600*%
%ADD17C,0.04800*%
%ADD18C,0.07677*%
%ADD19R,0.05500X0.05500*%
%ADD20C,0.07677*%
D10*
X0001300Y0001300D02*
X0001300Y0324135D01*
X0253269Y0324135D01*
X0253269Y0001300D01*
X0001300Y0001300D01*
X0023938Y0064292D02*
X0023940Y0064432D01*
X0023946Y0064572D01*
X0023956Y0064711D01*
X0023970Y0064850D01*
X0023988Y0064989D01*
X0024009Y0065127D01*
X0024035Y0065265D01*
X0024065Y0065402D01*
X0024098Y0065537D01*
X0024136Y0065672D01*
X0024177Y0065806D01*
X0024222Y0065939D01*
X0024270Y0066070D01*
X0024323Y0066199D01*
X0024379Y0066328D01*
X0024438Y0066454D01*
X0024502Y0066579D01*
X0024568Y0066702D01*
X0024639Y0066823D01*
X0024712Y0066942D01*
X0024789Y0067059D01*
X0024870Y0067173D01*
X0024953Y0067285D01*
X0025040Y0067395D01*
X0025130Y0067503D01*
X0025222Y0067607D01*
X0025318Y0067709D01*
X0025417Y0067809D01*
X0025518Y0067905D01*
X0025622Y0067999D01*
X0025729Y0068089D01*
X0025838Y0068176D01*
X0025950Y0068261D01*
X0026064Y0068342D01*
X0026180Y0068420D01*
X0026298Y0068494D01*
X0026419Y0068565D01*
X0026541Y0068633D01*
X0026666Y0068697D01*
X0026792Y0068758D01*
X0026919Y0068815D01*
X0027049Y0068868D01*
X0027180Y0068918D01*
X0027312Y0068963D01*
X0027445Y0069006D01*
X0027580Y0069044D01*
X0027715Y0069078D01*
X0027852Y0069109D01*
X0027989Y0069136D01*
X0028127Y0069158D01*
X0028266Y0069177D01*
X0028405Y0069192D01*
X0028544Y0069203D01*
X0028684Y0069210D01*
X0028824Y0069213D01*
X0028964Y0069212D01*
X0029104Y0069207D01*
X0029243Y0069198D01*
X0029383Y0069185D01*
X0029522Y0069168D01*
X0029660Y0069147D01*
X0029798Y0069123D01*
X0029935Y0069094D01*
X0030071Y0069062D01*
X0030206Y0069025D01*
X0030340Y0068985D01*
X0030473Y0068941D01*
X0030604Y0068893D01*
X0030734Y0068842D01*
X0030863Y0068787D01*
X0030990Y0068728D01*
X0031115Y0068665D01*
X0031238Y0068600D01*
X0031360Y0068530D01*
X0031479Y0068457D01*
X0031597Y0068381D01*
X0031712Y0068302D01*
X0031825Y0068219D01*
X0031935Y0068133D01*
X0032043Y0068044D01*
X0032148Y0067952D01*
X0032251Y0067857D01*
X0032351Y0067759D01*
X0032448Y0067659D01*
X0032542Y0067555D01*
X0032634Y0067449D01*
X0032722Y0067341D01*
X0032807Y0067230D01*
X0032889Y0067116D01*
X0032968Y0067000D01*
X0033043Y0066883D01*
X0033115Y0066763D01*
X0033183Y0066641D01*
X0033248Y0066517D01*
X0033310Y0066391D01*
X0033368Y0066264D01*
X0033422Y0066135D01*
X0033473Y0066004D01*
X0033519Y0065872D01*
X0033562Y0065739D01*
X0033602Y0065605D01*
X0033637Y0065470D01*
X0033669Y0065333D01*
X0033696Y0065196D01*
X0033720Y0065058D01*
X0033740Y0064920D01*
X0033756Y0064781D01*
X0033768Y0064641D01*
X0033776Y0064502D01*
X0033780Y0064362D01*
X0033780Y0064222D01*
X0033776Y0064082D01*
X0033768Y0063943D01*
X0033756Y0063803D01*
X0033740Y0063664D01*
X0033720Y0063526D01*
X0033696Y0063388D01*
X0033669Y0063251D01*
X0033637Y0063114D01*
X0033602Y0062979D01*
X0033562Y0062845D01*
X0033519Y0062712D01*
X0033473Y0062580D01*
X0033422Y0062449D01*
X0033368Y0062320D01*
X0033310Y0062193D01*
X0033248Y0062067D01*
X0033183Y0061943D01*
X0033115Y0061821D01*
X0033043Y0061701D01*
X0032968Y0061584D01*
X0032889Y0061468D01*
X0032807Y0061354D01*
X0032722Y0061243D01*
X0032634Y0061135D01*
X0032542Y0061029D01*
X0032448Y0060925D01*
X0032351Y0060825D01*
X0032251Y0060727D01*
X0032148Y0060632D01*
X0032043Y0060540D01*
X0031935Y0060451D01*
X0031825Y0060365D01*
X0031712Y0060282D01*
X0031597Y0060203D01*
X0031479Y0060127D01*
X0031360Y0060054D01*
X0031238Y0059984D01*
X0031115Y0059919D01*
X0030990Y0059856D01*
X0030863Y0059797D01*
X0030734Y0059742D01*
X0030604Y0059691D01*
X0030473Y0059643D01*
X0030340Y0059599D01*
X0030206Y0059559D01*
X0030071Y0059522D01*
X0029935Y0059490D01*
X0029798Y0059461D01*
X0029660Y0059437D01*
X0029522Y0059416D01*
X0029383Y0059399D01*
X0029243Y0059386D01*
X0029104Y0059377D01*
X0028964Y0059372D01*
X0028824Y0059371D01*
X0028684Y0059374D01*
X0028544Y0059381D01*
X0028405Y0059392D01*
X0028266Y0059407D01*
X0028127Y0059426D01*
X0027989Y0059448D01*
X0027852Y0059475D01*
X0027715Y0059506D01*
X0027580Y0059540D01*
X0027445Y0059578D01*
X0027312Y0059621D01*
X0027180Y0059666D01*
X0027049Y0059716D01*
X0026919Y0059769D01*
X0026792Y0059826D01*
X0026666Y0059887D01*
X0026541Y0059951D01*
X0026419Y0060019D01*
X0026298Y0060090D01*
X0026180Y0060164D01*
X0026064Y0060242D01*
X0025950Y0060323D01*
X0025838Y0060408D01*
X0025729Y0060495D01*
X0025622Y0060585D01*
X0025518Y0060679D01*
X0025417Y0060775D01*
X0025318Y0060875D01*
X0025222Y0060977D01*
X0025130Y0061081D01*
X0025040Y0061189D01*
X0024953Y0061299D01*
X0024870Y0061411D01*
X0024789Y0061525D01*
X0024712Y0061642D01*
X0024639Y0061761D01*
X0024568Y0061882D01*
X0024502Y0062005D01*
X0024438Y0062130D01*
X0024379Y0062256D01*
X0024323Y0062385D01*
X0024270Y0062514D01*
X0024222Y0062645D01*
X0024177Y0062778D01*
X0024136Y0062912D01*
X0024098Y0063047D01*
X0024065Y0063182D01*
X0024035Y0063319D01*
X0024009Y0063457D01*
X0023988Y0063595D01*
X0023970Y0063734D01*
X0023956Y0063873D01*
X0023946Y0064012D01*
X0023940Y0064152D01*
X0023938Y0064292D01*
X0220788Y0261143D02*
X0220790Y0261283D01*
X0220796Y0261423D01*
X0220806Y0261562D01*
X0220820Y0261701D01*
X0220838Y0261840D01*
X0220859Y0261978D01*
X0220885Y0262116D01*
X0220915Y0262253D01*
X0220948Y0262388D01*
X0220986Y0262523D01*
X0221027Y0262657D01*
X0221072Y0262790D01*
X0221120Y0262921D01*
X0221173Y0263050D01*
X0221229Y0263179D01*
X0221288Y0263305D01*
X0221352Y0263430D01*
X0221418Y0263553D01*
X0221489Y0263674D01*
X0221562Y0263793D01*
X0221639Y0263910D01*
X0221720Y0264024D01*
X0221803Y0264136D01*
X0221890Y0264246D01*
X0221980Y0264354D01*
X0222072Y0264458D01*
X0222168Y0264560D01*
X0222267Y0264660D01*
X0222368Y0264756D01*
X0222472Y0264850D01*
X0222579Y0264940D01*
X0222688Y0265027D01*
X0222800Y0265112D01*
X0222914Y0265193D01*
X0223030Y0265271D01*
X0223148Y0265345D01*
X0223269Y0265416D01*
X0223391Y0265484D01*
X0223516Y0265548D01*
X0223642Y0265609D01*
X0223769Y0265666D01*
X0223899Y0265719D01*
X0224030Y0265769D01*
X0224162Y0265814D01*
X0224295Y0265857D01*
X0224430Y0265895D01*
X0224565Y0265929D01*
X0224702Y0265960D01*
X0224839Y0265987D01*
X0224977Y0266009D01*
X0225116Y0266028D01*
X0225255Y0266043D01*
X0225394Y0266054D01*
X0225534Y0266061D01*
X0225674Y0266064D01*
X0225814Y0266063D01*
X0225954Y0266058D01*
X0226093Y0266049D01*
X0226233Y0266036D01*
X0226372Y0266019D01*
X0226510Y0265998D01*
X0226648Y0265974D01*
X0226785Y0265945D01*
X0226921Y0265913D01*
X0227056Y0265876D01*
X0227190Y0265836D01*
X0227323Y0265792D01*
X0227454Y0265744D01*
X0227584Y0265693D01*
X0227713Y0265638D01*
X0227840Y0265579D01*
X0227965Y0265516D01*
X0228088Y0265451D01*
X0228210Y0265381D01*
X0228329Y0265308D01*
X0228447Y0265232D01*
X0228562Y0265153D01*
X0228675Y0265070D01*
X0228785Y0264984D01*
X0228893Y0264895D01*
X0228998Y0264803D01*
X0229101Y0264708D01*
X0229201Y0264610D01*
X0229298Y0264510D01*
X0229392Y0264406D01*
X0229484Y0264300D01*
X0229572Y0264192D01*
X0229657Y0264081D01*
X0229739Y0263967D01*
X0229818Y0263851D01*
X0229893Y0263734D01*
X0229965Y0263614D01*
X0230033Y0263492D01*
X0230098Y0263368D01*
X0230160Y0263242D01*
X0230218Y0263115D01*
X0230272Y0262986D01*
X0230323Y0262855D01*
X0230369Y0262723D01*
X0230412Y0262590D01*
X0230452Y0262456D01*
X0230487Y0262321D01*
X0230519Y0262184D01*
X0230546Y0262047D01*
X0230570Y0261909D01*
X0230590Y0261771D01*
X0230606Y0261632D01*
X0230618Y0261492D01*
X0230626Y0261353D01*
X0230630Y0261213D01*
X0230630Y0261073D01*
X0230626Y0260933D01*
X0230618Y0260794D01*
X0230606Y0260654D01*
X0230590Y0260515D01*
X0230570Y0260377D01*
X0230546Y0260239D01*
X0230519Y0260102D01*
X0230487Y0259965D01*
X0230452Y0259830D01*
X0230412Y0259696D01*
X0230369Y0259563D01*
X0230323Y0259431D01*
X0230272Y0259300D01*
X0230218Y0259171D01*
X0230160Y0259044D01*
X0230098Y0258918D01*
X0230033Y0258794D01*
X0229965Y0258672D01*
X0229893Y0258552D01*
X0229818Y0258435D01*
X0229739Y0258319D01*
X0229657Y0258205D01*
X0229572Y0258094D01*
X0229484Y0257986D01*
X0229392Y0257880D01*
X0229298Y0257776D01*
X0229201Y0257676D01*
X0229101Y0257578D01*
X0228998Y0257483D01*
X0228893Y0257391D01*
X0228785Y0257302D01*
X0228675Y0257216D01*
X0228562Y0257133D01*
X0228447Y0257054D01*
X0228329Y0256978D01*
X0228210Y0256905D01*
X0228088Y0256835D01*
X0227965Y0256770D01*
X0227840Y0256707D01*
X0227713Y0256648D01*
X0227584Y0256593D01*
X0227454Y0256542D01*
X0227323Y0256494D01*
X0227190Y0256450D01*
X0227056Y0256410D01*
X0226921Y0256373D01*
X0226785Y0256341D01*
X0226648Y0256312D01*
X0226510Y0256288D01*
X0226372Y0256267D01*
X0226233Y0256250D01*
X0226093Y0256237D01*
X0225954Y0256228D01*
X0225814Y0256223D01*
X0225674Y0256222D01*
X0225534Y0256225D01*
X0225394Y0256232D01*
X0225255Y0256243D01*
X0225116Y0256258D01*
X0224977Y0256277D01*
X0224839Y0256299D01*
X0224702Y0256326D01*
X0224565Y0256357D01*
X0224430Y0256391D01*
X0224295Y0256429D01*
X0224162Y0256472D01*
X0224030Y0256517D01*
X0223899Y0256567D01*
X0223769Y0256620D01*
X0223642Y0256677D01*
X0223516Y0256738D01*
X0223391Y0256802D01*
X0223269Y0256870D01*
X0223148Y0256941D01*
X0223030Y0257015D01*
X0222914Y0257093D01*
X0222800Y0257174D01*
X0222688Y0257259D01*
X0222579Y0257346D01*
X0222472Y0257436D01*
X0222368Y0257530D01*
X0222267Y0257626D01*
X0222168Y0257726D01*
X0222072Y0257828D01*
X0221980Y0257932D01*
X0221890Y0258040D01*
X0221803Y0258150D01*
X0221720Y0258262D01*
X0221639Y0258376D01*
X0221562Y0258493D01*
X0221489Y0258612D01*
X0221418Y0258733D01*
X0221352Y0258856D01*
X0221288Y0258981D01*
X0221229Y0259107D01*
X0221173Y0259236D01*
X0221120Y0259365D01*
X0221072Y0259496D01*
X0221027Y0259629D01*
X0220986Y0259763D01*
X0220948Y0259898D01*
X0220915Y0260033D01*
X0220885Y0260170D01*
X0220859Y0260308D01*
X0220838Y0260446D01*
X0220820Y0260585D01*
X0220806Y0260724D01*
X0220796Y0260863D01*
X0220790Y0261003D01*
X0220788Y0261143D01*
D11*
X0210749Y0257284D03*
X0210749Y0247284D03*
X0221182Y0274646D03*
X0221182Y0284646D03*
X0210631Y0284765D03*
X0200631Y0284765D03*
X0195906Y0284765D03*
X0185906Y0284765D03*
X0171261Y0284765D03*
X0161261Y0284765D03*
X0152954Y0284765D03*
X0142954Y0284765D03*
X0131024Y0285670D03*
X0131024Y0295670D03*
X0121379Y0284646D03*
X0112993Y0284765D03*
X0121379Y0274646D03*
X0113111Y0257284D03*
X0113111Y0247284D03*
X0102993Y0284765D03*
X0098032Y0284765D03*
X0088032Y0284765D03*
X0073623Y0284765D03*
X0063623Y0284765D03*
X0055316Y0284765D03*
X0045316Y0284765D03*
X0033387Y0285670D03*
X0033387Y0295670D03*
X0071379Y0257284D03*
X0071379Y0247284D03*
X0071379Y0199213D03*
X0071379Y0189213D03*
X0083308Y0189213D03*
X0083308Y0199213D03*
X0098150Y0199213D03*
X0098150Y0189213D03*
X0112993Y0189213D03*
X0112993Y0199213D03*
X0139213Y0199213D03*
X0139213Y0189213D03*
X0154056Y0189213D03*
X0154056Y0199213D03*
X0169135Y0199213D03*
X0169135Y0189213D03*
X0180946Y0189213D03*
X0180946Y0199213D03*
X0195788Y0199213D03*
X0195788Y0189213D03*
X0210867Y0189213D03*
X0210867Y0199213D03*
X0219922Y0148150D03*
X0229922Y0148150D03*
X0229843Y0137599D03*
X0222343Y0132599D03*
X0229843Y0127599D03*
X0221812Y0121182D03*
X0229843Y0115906D03*
X0221812Y0111182D03*
X0229843Y0105906D03*
X0166812Y0080040D03*
X0146812Y0080040D03*
X0143938Y0110906D03*
X0148938Y0118406D03*
X0153938Y0110906D03*
X0135158Y0115276D03*
X0135158Y0135276D03*
X0131300Y0139095D03*
X0121300Y0139095D03*
X0114213Y0134765D03*
X0104213Y0134765D03*
X0093229Y0121891D03*
X0093229Y0111891D03*
X0087127Y0081694D03*
X0079725Y0076694D03*
X0087127Y0071694D03*
X0097009Y0080040D03*
X0117009Y0080040D03*
X0069725Y0076694D03*
X0056418Y0189213D03*
X0056418Y0199213D03*
X0041576Y0199213D03*
X0041576Y0189213D03*
X0169017Y0247284D03*
X0169017Y0257284D03*
D12*
X0158072Y0250316D03*
X0148072Y0250316D03*
X0189804Y0250316D03*
X0199804Y0250316D03*
X0102166Y0250316D03*
X0092166Y0250316D03*
X0060434Y0250316D03*
X0050434Y0250316D03*
X0067245Y0126103D03*
X0081024Y0121143D03*
X0067245Y0106103D03*
X0081024Y0101143D03*
X0053465Y0111103D03*
X0039686Y0116064D03*
X0039686Y0096064D03*
X0053465Y0091103D03*
X0170591Y0106182D03*
X0184371Y0106182D03*
X0198150Y0106182D03*
X0211930Y0106182D03*
X0211930Y0126182D03*
X0198150Y0126182D03*
X0184371Y0126182D03*
X0170591Y0126182D03*
D13*
X0169056Y0206182D02*
X0169056Y0211300D01*
X0159056Y0211300D02*
X0159056Y0206182D01*
X0149056Y0206182D02*
X0149056Y0211300D01*
X0139056Y0211300D02*
X0139056Y0206182D01*
X0139056Y0236182D02*
X0139056Y0241300D01*
X0149056Y0241300D02*
X0149056Y0236182D01*
X0159056Y0236182D02*
X0159056Y0241300D01*
X0169056Y0241300D02*
X0169056Y0236182D01*
X0180788Y0236182D02*
X0180788Y0241300D01*
X0190788Y0241300D02*
X0190788Y0236182D01*
X0200788Y0236182D02*
X0200788Y0241300D01*
X0210788Y0241300D02*
X0210788Y0236182D01*
X0210788Y0211300D02*
X0210788Y0206182D01*
X0200788Y0206182D02*
X0200788Y0211300D01*
X0190788Y0211300D02*
X0190788Y0206182D01*
X0180788Y0206182D02*
X0180788Y0211300D01*
X0113150Y0211300D02*
X0113150Y0206182D01*
X0103150Y0206182D02*
X0103150Y0211300D01*
X0093150Y0211300D02*
X0093150Y0206182D01*
X0083150Y0206182D02*
X0083150Y0211300D01*
X0071418Y0211300D02*
X0071418Y0206182D01*
X0061418Y0206182D02*
X0061418Y0211300D01*
X0051418Y0211300D02*
X0051418Y0206182D01*
X0041418Y0206182D02*
X0041418Y0211300D01*
X0041418Y0236182D02*
X0041418Y0241300D01*
X0051418Y0241300D02*
X0051418Y0236182D01*
X0061418Y0236182D02*
X0061418Y0241300D01*
X0071418Y0241300D02*
X0071418Y0236182D01*
X0083150Y0236182D02*
X0083150Y0241300D01*
X0093150Y0241300D02*
X0093150Y0236182D01*
X0103150Y0236182D02*
X0103150Y0241300D01*
X0113150Y0241300D02*
X0113150Y0236182D01*
D14*
X0242835Y0305631D03*
D15*
X0242835Y0313505D03*
X0234961Y0313505D03*
X0234961Y0305631D03*
X0227087Y0305631D03*
X0227087Y0313505D03*
D16*
X0205788Y0273785D02*
X0205788Y0268185D01*
X0195788Y0268185D02*
X0195788Y0273785D01*
X0185788Y0273785D02*
X0185788Y0268185D01*
X0166418Y0268185D02*
X0166418Y0273785D01*
X0156418Y0273785D02*
X0156418Y0268185D01*
X0146418Y0268185D02*
X0146418Y0273785D01*
X0108150Y0273785D02*
X0108150Y0268185D01*
X0098150Y0268185D02*
X0098150Y0273785D01*
X0088150Y0273785D02*
X0088150Y0268185D01*
X0068780Y0268185D02*
X0068780Y0273785D01*
X0058780Y0273785D02*
X0058780Y0268185D01*
X0048780Y0268185D02*
X0048780Y0273785D01*
X0049376Y0170749D02*
X0043776Y0170749D01*
X0043776Y0160749D02*
X0049376Y0160749D01*
X0049376Y0150749D02*
X0043776Y0150749D01*
X0063461Y0150749D02*
X0069061Y0150749D01*
X0069061Y0160749D02*
X0063461Y0160749D01*
X0063461Y0170749D02*
X0069061Y0170749D01*
X0085508Y0170749D02*
X0091108Y0170749D01*
X0091108Y0160749D02*
X0085508Y0160749D01*
X0085508Y0150749D02*
X0091108Y0150749D01*
X0105193Y0150749D02*
X0110793Y0150749D01*
X0110793Y0160749D02*
X0105193Y0160749D01*
X0105193Y0170749D02*
X0110793Y0170749D01*
X0141413Y0170749D02*
X0147013Y0170749D01*
X0147013Y0160749D02*
X0141413Y0160749D01*
X0141413Y0150749D02*
X0147013Y0150749D01*
X0161098Y0150749D02*
X0166698Y0150749D01*
X0166698Y0160749D02*
X0161098Y0160749D01*
X0161098Y0170749D02*
X0166698Y0170749D01*
X0183146Y0170749D02*
X0188746Y0170749D01*
X0188746Y0160749D02*
X0183146Y0160749D01*
X0183146Y0150749D02*
X0188746Y0150749D01*
X0202831Y0150749D02*
X0208431Y0150749D01*
X0208431Y0160749D02*
X0202831Y0160749D01*
X0202831Y0170749D02*
X0208431Y0170749D01*
D17*
X0201654Y0065944D02*
X0201654Y0061144D01*
X0191654Y0061144D02*
X0191654Y0065944D01*
X0181654Y0065944D02*
X0181654Y0061144D01*
X0171654Y0061144D02*
X0171654Y0065944D01*
X0161654Y0065944D02*
X0161654Y0061144D01*
X0151654Y0061144D02*
X0151654Y0065944D01*
X0141654Y0065944D02*
X0141654Y0061144D01*
X0131654Y0061144D02*
X0131654Y0065944D01*
X0117009Y0065944D02*
X0117009Y0061144D01*
X0107009Y0061144D02*
X0107009Y0065944D01*
X0097009Y0065944D02*
X0097009Y0061144D01*
X0087009Y0061144D02*
X0087009Y0065944D01*
X0077009Y0065944D02*
X0077009Y0061144D01*
X0067009Y0061144D02*
X0067009Y0065944D01*
X0057009Y0065944D02*
X0057009Y0061144D01*
X0047009Y0061144D02*
X0047009Y0065944D01*
X0047009Y0035944D02*
X0047009Y0031144D01*
X0057009Y0031144D02*
X0057009Y0035944D01*
X0067009Y0035944D02*
X0067009Y0031144D01*
X0077009Y0031144D02*
X0077009Y0035944D01*
X0087009Y0035944D02*
X0087009Y0031144D01*
X0097009Y0031144D02*
X0097009Y0035944D01*
X0107009Y0035944D02*
X0107009Y0031144D01*
X0117009Y0031144D02*
X0117009Y0035944D01*
X0131654Y0035944D02*
X0131654Y0031144D01*
X0141654Y0031144D02*
X0141654Y0035944D01*
X0151654Y0035944D02*
X0151654Y0031144D01*
X0161654Y0031144D02*
X0161654Y0035944D01*
X0171654Y0035944D02*
X0171654Y0031144D01*
X0181654Y0031144D02*
X0181654Y0035944D01*
X0191654Y0035944D02*
X0191654Y0031144D01*
X0201654Y0031144D02*
X0201654Y0035944D01*
X0218072Y0042640D02*
X0218072Y0047440D01*
X0228072Y0047440D02*
X0228072Y0042640D01*
X0238072Y0042640D02*
X0238072Y0047440D01*
X0238072Y0017440D02*
X0238072Y0012640D01*
X0228072Y0012640D02*
X0228072Y0017440D01*
X0218072Y0017440D02*
X0218072Y0012640D01*
D18*
X0205631Y0309174D03*
X0185946Y0309174D03*
X0166261Y0309174D03*
X0146576Y0309174D03*
X0107993Y0309174D03*
X0088308Y0309174D03*
X0068623Y0309174D03*
X0048938Y0309174D03*
D19*
X0014017Y0238741D03*
X0014017Y0228741D03*
X0014017Y0218741D03*
X0014017Y0208741D03*
D20*
X0024922Y0122658D02*
X0024922Y0114981D01*
X0024922Y0097068D02*
X0024922Y0089391D01*
M02*
