%
M48
M72
T01C0.02400
T02C0.01968
T03C0.03543
T04C0.05118
T05C0.09843
%
T01
X46776Y150949
X46776Y160949
X46776Y170949
X66461Y170949
X66461Y160949
X66461Y150949
X88508Y150949
X88508Y160949
X88508Y170949
X108193Y170949
X108193Y160949
X108193Y150949
X144413Y150949
X144413Y160949
X144413Y170949
X164098Y170949
X164098Y160949
X164098Y150949
X186146Y150949
X186146Y160949
X186146Y170949
X205831Y170949
X205831Y160949
X205831Y150949
X205988Y271185
X195988Y271185
X185988Y271185
X166618Y271185
X156618Y271185
X146618Y271185
X108350Y271185
X98350Y271185
X88350Y271185
X68980Y271185
X58980Y271185
X48980Y271185
T02
X47209Y33744
X57209Y33744
X67209Y33744
X77209Y33744
X87209Y33744
X97209Y33744
X107209Y33744
X117209Y33744
X131854Y33744
X141854Y33744
X151854Y33744
X161854Y33744
X171854Y33744
X181854Y33744
X191854Y33744
X201854Y33744
X218272Y45240
X228272Y45240
X238272Y45240
X238272Y15240
X228272Y15240
X218272Y15240
X201854Y63744
X191854Y63744
X181854Y63744
X171854Y63744
X161854Y63744
X151854Y63744
X141854Y63744
X131854Y63744
X117209Y63744
X107209Y63744
X97209Y63744
X87209Y63744
X87327Y71894
X79925Y76894
X87327Y81894
X97209Y80240
X117209Y80240
X93429Y112091
X93429Y122091
X104413Y134965
X114413Y134965
X121500Y139295
X131500Y139295
X135358Y135476
X149138Y118606
X154138Y111106
X144138Y111106
X135358Y115476
X147012Y80240
X167012Y80240
X170791Y106382
X184571Y106382
X198350Y106382
X212130Y106382
X222012Y111382
X230043Y116106
X222012Y121382
X230043Y127799
X222543Y132799
X230043Y137799
X230122Y148350
X220122Y148350
X212130Y126382
X198350Y126382
X184571Y126382
X170791Y126382
X169335Y189413
X169335Y199413
X169256Y208941
X159256Y208941
X154256Y199413
X154256Y189413
X139413Y189413
X139413Y199413
X139256Y208941
X149256Y208941
X149256Y238941
X159256Y238941
X169256Y238941
X169217Y247484
X169217Y257484
X158272Y250516
X148272Y250516
X139256Y238941
X113350Y238941
X113311Y247484
X113311Y257484
X102366Y250516
X92366Y250516
X93350Y238941
X83350Y238941
X71618Y238941
X71579Y247484
X71579Y257484
X60634Y250516
X50634Y250516
X51618Y238941
X41618Y238941
X61618Y238941
X61618Y208941
X56618Y199413
X56618Y189413
X41776Y189413
X41776Y199413
X41618Y208941
X51618Y208941
X71618Y208941
X71579Y199413
X71579Y189413
X83508Y189413
X83508Y199413
X83350Y208941
X93350Y208941
X98350Y199413
X98350Y189413
X113193Y189413
X113193Y199413
X113350Y208941
X103350Y208941
X103350Y238941
X121579Y274846
X121579Y284846
X113193Y284965
X103193Y284965
X98232Y284965
X88232Y284965
X73823Y284965
X63823Y284965
X55516Y284965
X45516Y284965
X33587Y285870
X33587Y295870
X14217Y238941
X14217Y228941
X14217Y218941
X14217Y208941
X67445Y126303
X81224Y121343
X67445Y106303
X81224Y101343
X69925Y76894
X67209Y63744
X77209Y63744
X57209Y63744
X47209Y63744
X53665Y91303
X39886Y96264
X39886Y116264
X53665Y111303
X180988Y208941
X181146Y199413
X181146Y189413
X195988Y189413
X195988Y199413
X190988Y208941
X200988Y208941
X210988Y208941
X211067Y199413
X211067Y189413
X210988Y238941
X210949Y247484
X210949Y257484
X200004Y250516
X190004Y250516
X190988Y238941
X180988Y238941
X200988Y238941
X221382Y274846
X221382Y284846
X210831Y284965
X200831Y284965
X196106Y284965
X186106Y284965
X171461Y284965
X161461Y284965
X153154Y284965
X143154Y284965
X131224Y285870
X131224Y295870
X230043Y106106
T03
X227287Y305831
X227287Y313705
X235161Y313705
X235161Y305831
X243035Y305831
X243035Y313705
T04
X205831Y309374
X186146Y309374
X166461Y309374
X146776Y309374
X108193Y309374
X88508Y309374
X68823Y309374
X49138Y309374
X25122Y119020
X25122Y93429
T05
X29059Y64492
X29059Y265280
X225909Y265280
X225909Y64492
M30
