%
M48
M72
T01C0.02400
T02C0.03200
T03C0.03600
T04C0.05118
T05C0.09843
%
T01
X46576Y150749
X46576Y160749
X46576Y170749
X66261Y170749
X66261Y160749
X66261Y150749
X88308Y150749
X88308Y160749
X88308Y170749
X107993Y170749
X107993Y160749
X107993Y150749
X144213Y150749
X144213Y160749
X144213Y170749
X163898Y170749
X163898Y160749
X163898Y150749
X185946Y150749
X185946Y160749
X185946Y170749
X205631Y170749
X205631Y160749
X205631Y150749
X197914Y270985
X187914Y270985
X177914Y270985
X158544Y270985
X148544Y270985
X138544Y270985
X108150Y270985
X98150Y270985
X88150Y270985
X68780Y270985
X58780Y270985
X48780Y270985
T02
X47009Y33544
X57009Y33544
X67009Y33544
X77009Y33544
X87009Y33544
X97009Y33544
X107009Y33544
X117009Y33544
X131654Y33544
X141654Y33544
X151654Y33544
X161654Y33544
X171654Y33544
X181654Y33544
X191654Y33544
X201654Y33544
X218072Y45040
X228072Y45040
X238072Y45040
X238072Y15040
X228072Y15040
X218072Y15040
X201654Y63544
X191654Y63544
X181654Y63544
X171654Y63544
X161654Y63544
X151654Y63544
X141654Y63544
X131654Y63544
X117009Y63544
X107009Y63544
X97009Y63544
X87009Y63544
X87127Y71694
X79725Y76694
X87127Y81694
X97009Y80040
X117009Y80040
X93229Y111891
X93229Y121891
X104213Y134765
X114213Y134765
X121300Y139095
X131300Y139095
X135158Y135276
X148938Y118406
X153938Y110906
X143938Y110906
X135158Y115276
X146812Y80040
X166812Y80040
X170591Y106182
X184371Y106182
X198150Y106182
X211930Y106182
X221812Y111182
X229843Y115906
X221812Y121182
X229843Y127599
X222343Y132599
X229843Y137599
X229922Y148150
X219922Y148150
X211930Y126182
X198150Y126182
X184371Y126182
X170591Y126182
X173072Y189213
X173072Y199213
X172914Y208741
X182914Y208741
X187914Y199213
X187914Y189213
X202993Y189213
X202993Y199213
X202914Y208741
X192914Y208741
X192914Y238741
X182914Y238741
X172914Y238741
X161182Y238741
X161143Y247284
X161143Y257284
X150198Y250316
X140198Y250316
X141182Y238741
X151182Y238741
X131182Y238741
X113150Y238741
X113111Y247284
X113111Y257284
X102166Y250316
X92166Y250316
X93150Y238741
X83150Y238741
X71418Y238741
X71379Y247284
X71379Y257284
X60434Y250316
X50434Y250316
X51418Y238741
X41418Y238741
X28859Y238111
X28859Y228111
X41418Y208741
X41576Y199213
X41576Y189213
X56418Y189213
X56418Y199213
X51418Y208741
X61418Y208741
X71418Y208741
X71379Y199213
X71379Y189213
X83308Y189213
X83308Y199213
X83150Y208741
X93150Y208741
X98150Y199213
X98150Y189213
X112993Y189213
X112993Y199213
X113150Y208741
X103150Y208741
X103150Y238741
X121379Y274646
X121379Y284646
X129056Y285670
X136851Y284765
X146851Y284765
X153387Y284765
X163387Y284765
X178032Y284765
X188032Y284765
X192757Y284765
X202757Y284765
X212520Y284646
X212520Y274646
X202875Y257284
X202875Y247284
X202914Y238741
X191930Y250316
X181930Y250316
X161182Y208741
X161261Y199213
X161261Y189213
X146182Y189213
X146182Y199213
X151182Y208741
X141182Y208741
X131182Y208741
X131339Y199213
X131339Y189213
X81024Y121143
X67245Y126103
X53465Y111103
X67245Y106103
X81024Y101143
X69725Y76694
X67009Y63544
X77009Y63544
X57009Y63544
X47009Y63544
X53465Y91103
X39686Y96064
X39686Y116064
X61418Y238741
X63623Y284765
X57087Y284765
X47087Y284765
X33387Y285670
X33387Y295670
X73623Y284765
X88032Y284765
X98032Y284765
X102993Y284765
X112993Y284765
X129056Y295670
X224646Y236772
X224646Y226772
X224646Y216772
X224646Y206772
X229843Y105906
T03
X227087Y287717
X227087Y295591
X234961Y295591
X234961Y287717
X242835Y287717
X242835Y295591
T04
X205631Y309174
X185946Y309174
X166261Y309174
X146576Y309174
X107993Y309174
X88308Y309174
X68623Y309174
X48938Y309174
X24922Y118820
X24922Y93229
T05
X28859Y64292
X225709Y261143
M30
