G75*
%MOIN*%
%OFA0B0*%
%FSLAX25Y25*%
%IPPOS*%
%LPD*%
%AMOC8*
5,1,8,0,0,1.08239X$1,22.5*
%
%ADD10C,0.00000*%
%ADD11C,0.10827*%
%ADD12C,0.06299*%
%ADD13C,0.03543*%
%ADD14C,0.02362*%
%ADD15C,0.24409*%
%ADD16C,0.04800*%
%ADD17C,0.05250*%
%ADD18C,0.05315*%
%ADD19R,0.20000X0.10000*%
%ADD20C,0.07677*%
%ADD21C,0.10000*%
%ADD22R,0.05400X0.05400*%
%ADD23C,0.05400*%
%ADD24C,0.07400*%
%ADD25OC8,0.04800*%
%ADD26R,0.09843X0.09843*%
%ADD27C,0.04800*%
%ADD28OC8,0.06300*%
%ADD29R,0.07087X0.03937*%
%ADD30C,0.04724*%
%ADD31C,0.07000*%
D10*
X0001000Y0033905D02*
X0245882Y0033905D01*
X0245882Y0154378D01*
X0239976Y0154378D01*
X0239976Y0175244D01*
X0245882Y0175244D01*
X0245882Y0295716D01*
X0001000Y0295716D01*
X0001000Y0175244D01*
X0006906Y0175244D01*
X0006906Y0154378D01*
X0001000Y0154378D01*
X0001000Y0033905D01*
X0046768Y0066386D02*
X0046770Y0066533D01*
X0046776Y0066679D01*
X0046786Y0066825D01*
X0046800Y0066971D01*
X0046818Y0067117D01*
X0046839Y0067262D01*
X0046865Y0067406D01*
X0046895Y0067550D01*
X0046928Y0067692D01*
X0046965Y0067834D01*
X0047006Y0067975D01*
X0047051Y0068114D01*
X0047100Y0068253D01*
X0047152Y0068390D01*
X0047209Y0068525D01*
X0047268Y0068659D01*
X0047332Y0068791D01*
X0047399Y0068921D01*
X0047469Y0069050D01*
X0047543Y0069177D01*
X0047620Y0069301D01*
X0047701Y0069424D01*
X0047785Y0069544D01*
X0047872Y0069662D01*
X0047962Y0069777D01*
X0048055Y0069890D01*
X0048152Y0070001D01*
X0048251Y0070109D01*
X0048353Y0070214D01*
X0048458Y0070316D01*
X0048566Y0070415D01*
X0048677Y0070512D01*
X0048790Y0070605D01*
X0048905Y0070695D01*
X0049023Y0070782D01*
X0049143Y0070866D01*
X0049266Y0070947D01*
X0049390Y0071024D01*
X0049517Y0071098D01*
X0049646Y0071168D01*
X0049776Y0071235D01*
X0049908Y0071299D01*
X0050042Y0071358D01*
X0050177Y0071415D01*
X0050314Y0071467D01*
X0050453Y0071516D01*
X0050592Y0071561D01*
X0050733Y0071602D01*
X0050875Y0071639D01*
X0051017Y0071672D01*
X0051161Y0071702D01*
X0051305Y0071728D01*
X0051450Y0071749D01*
X0051596Y0071767D01*
X0051742Y0071781D01*
X0051888Y0071791D01*
X0052034Y0071797D01*
X0052181Y0071799D01*
X0052328Y0071797D01*
X0052474Y0071791D01*
X0052620Y0071781D01*
X0052766Y0071767D01*
X0052912Y0071749D01*
X0053057Y0071728D01*
X0053201Y0071702D01*
X0053345Y0071672D01*
X0053487Y0071639D01*
X0053629Y0071602D01*
X0053770Y0071561D01*
X0053909Y0071516D01*
X0054048Y0071467D01*
X0054185Y0071415D01*
X0054320Y0071358D01*
X0054454Y0071299D01*
X0054586Y0071235D01*
X0054716Y0071168D01*
X0054845Y0071098D01*
X0054972Y0071024D01*
X0055096Y0070947D01*
X0055219Y0070866D01*
X0055339Y0070782D01*
X0055457Y0070695D01*
X0055572Y0070605D01*
X0055685Y0070512D01*
X0055796Y0070415D01*
X0055904Y0070316D01*
X0056009Y0070214D01*
X0056111Y0070109D01*
X0056210Y0070001D01*
X0056307Y0069890D01*
X0056400Y0069777D01*
X0056490Y0069662D01*
X0056577Y0069544D01*
X0056661Y0069424D01*
X0056742Y0069301D01*
X0056819Y0069177D01*
X0056893Y0069050D01*
X0056963Y0068921D01*
X0057030Y0068791D01*
X0057094Y0068659D01*
X0057153Y0068525D01*
X0057210Y0068390D01*
X0057262Y0068253D01*
X0057311Y0068114D01*
X0057356Y0067975D01*
X0057397Y0067834D01*
X0057434Y0067692D01*
X0057467Y0067550D01*
X0057497Y0067406D01*
X0057523Y0067262D01*
X0057544Y0067117D01*
X0057562Y0066971D01*
X0057576Y0066825D01*
X0057586Y0066679D01*
X0057592Y0066533D01*
X0057594Y0066386D01*
X0057592Y0066239D01*
X0057586Y0066093D01*
X0057576Y0065947D01*
X0057562Y0065801D01*
X0057544Y0065655D01*
X0057523Y0065510D01*
X0057497Y0065366D01*
X0057467Y0065222D01*
X0057434Y0065080D01*
X0057397Y0064938D01*
X0057356Y0064797D01*
X0057311Y0064658D01*
X0057262Y0064519D01*
X0057210Y0064382D01*
X0057153Y0064247D01*
X0057094Y0064113D01*
X0057030Y0063981D01*
X0056963Y0063851D01*
X0056893Y0063722D01*
X0056819Y0063595D01*
X0056742Y0063471D01*
X0056661Y0063348D01*
X0056577Y0063228D01*
X0056490Y0063110D01*
X0056400Y0062995D01*
X0056307Y0062882D01*
X0056210Y0062771D01*
X0056111Y0062663D01*
X0056009Y0062558D01*
X0055904Y0062456D01*
X0055796Y0062357D01*
X0055685Y0062260D01*
X0055572Y0062167D01*
X0055457Y0062077D01*
X0055339Y0061990D01*
X0055219Y0061906D01*
X0055096Y0061825D01*
X0054972Y0061748D01*
X0054845Y0061674D01*
X0054716Y0061604D01*
X0054586Y0061537D01*
X0054454Y0061473D01*
X0054320Y0061414D01*
X0054185Y0061357D01*
X0054048Y0061305D01*
X0053909Y0061256D01*
X0053770Y0061211D01*
X0053629Y0061170D01*
X0053487Y0061133D01*
X0053345Y0061100D01*
X0053201Y0061070D01*
X0053057Y0061044D01*
X0052912Y0061023D01*
X0052766Y0061005D01*
X0052620Y0060991D01*
X0052474Y0060981D01*
X0052328Y0060975D01*
X0052181Y0060973D01*
X0052034Y0060975D01*
X0051888Y0060981D01*
X0051742Y0060991D01*
X0051596Y0061005D01*
X0051450Y0061023D01*
X0051305Y0061044D01*
X0051161Y0061070D01*
X0051017Y0061100D01*
X0050875Y0061133D01*
X0050733Y0061170D01*
X0050592Y0061211D01*
X0050453Y0061256D01*
X0050314Y0061305D01*
X0050177Y0061357D01*
X0050042Y0061414D01*
X0049908Y0061473D01*
X0049776Y0061537D01*
X0049646Y0061604D01*
X0049517Y0061674D01*
X0049390Y0061748D01*
X0049266Y0061825D01*
X0049143Y0061906D01*
X0049023Y0061990D01*
X0048905Y0062077D01*
X0048790Y0062167D01*
X0048677Y0062260D01*
X0048566Y0062357D01*
X0048458Y0062456D01*
X0048353Y0062558D01*
X0048251Y0062663D01*
X0048152Y0062771D01*
X0048055Y0062882D01*
X0047962Y0062995D01*
X0047872Y0063110D01*
X0047785Y0063228D01*
X0047701Y0063348D01*
X0047620Y0063471D01*
X0047543Y0063595D01*
X0047469Y0063722D01*
X0047399Y0063851D01*
X0047332Y0063981D01*
X0047268Y0064113D01*
X0047209Y0064247D01*
X0047152Y0064382D01*
X0047100Y0064519D01*
X0047051Y0064658D01*
X0047006Y0064797D01*
X0046965Y0064938D01*
X0046928Y0065080D01*
X0046895Y0065222D01*
X0046865Y0065366D01*
X0046839Y0065510D01*
X0046818Y0065655D01*
X0046800Y0065801D01*
X0046786Y0065947D01*
X0046776Y0066093D01*
X0046770Y0066239D01*
X0046768Y0066386D01*
X0189288Y0066386D02*
X0189290Y0066533D01*
X0189296Y0066679D01*
X0189306Y0066825D01*
X0189320Y0066971D01*
X0189338Y0067117D01*
X0189359Y0067262D01*
X0189385Y0067406D01*
X0189415Y0067550D01*
X0189448Y0067692D01*
X0189485Y0067834D01*
X0189526Y0067975D01*
X0189571Y0068114D01*
X0189620Y0068253D01*
X0189672Y0068390D01*
X0189729Y0068525D01*
X0189788Y0068659D01*
X0189852Y0068791D01*
X0189919Y0068921D01*
X0189989Y0069050D01*
X0190063Y0069177D01*
X0190140Y0069301D01*
X0190221Y0069424D01*
X0190305Y0069544D01*
X0190392Y0069662D01*
X0190482Y0069777D01*
X0190575Y0069890D01*
X0190672Y0070001D01*
X0190771Y0070109D01*
X0190873Y0070214D01*
X0190978Y0070316D01*
X0191086Y0070415D01*
X0191197Y0070512D01*
X0191310Y0070605D01*
X0191425Y0070695D01*
X0191543Y0070782D01*
X0191663Y0070866D01*
X0191786Y0070947D01*
X0191910Y0071024D01*
X0192037Y0071098D01*
X0192166Y0071168D01*
X0192296Y0071235D01*
X0192428Y0071299D01*
X0192562Y0071358D01*
X0192697Y0071415D01*
X0192834Y0071467D01*
X0192973Y0071516D01*
X0193112Y0071561D01*
X0193253Y0071602D01*
X0193395Y0071639D01*
X0193537Y0071672D01*
X0193681Y0071702D01*
X0193825Y0071728D01*
X0193970Y0071749D01*
X0194116Y0071767D01*
X0194262Y0071781D01*
X0194408Y0071791D01*
X0194554Y0071797D01*
X0194701Y0071799D01*
X0194848Y0071797D01*
X0194994Y0071791D01*
X0195140Y0071781D01*
X0195286Y0071767D01*
X0195432Y0071749D01*
X0195577Y0071728D01*
X0195721Y0071702D01*
X0195865Y0071672D01*
X0196007Y0071639D01*
X0196149Y0071602D01*
X0196290Y0071561D01*
X0196429Y0071516D01*
X0196568Y0071467D01*
X0196705Y0071415D01*
X0196840Y0071358D01*
X0196974Y0071299D01*
X0197106Y0071235D01*
X0197236Y0071168D01*
X0197365Y0071098D01*
X0197492Y0071024D01*
X0197616Y0070947D01*
X0197739Y0070866D01*
X0197859Y0070782D01*
X0197977Y0070695D01*
X0198092Y0070605D01*
X0198205Y0070512D01*
X0198316Y0070415D01*
X0198424Y0070316D01*
X0198529Y0070214D01*
X0198631Y0070109D01*
X0198730Y0070001D01*
X0198827Y0069890D01*
X0198920Y0069777D01*
X0199010Y0069662D01*
X0199097Y0069544D01*
X0199181Y0069424D01*
X0199262Y0069301D01*
X0199339Y0069177D01*
X0199413Y0069050D01*
X0199483Y0068921D01*
X0199550Y0068791D01*
X0199614Y0068659D01*
X0199673Y0068525D01*
X0199730Y0068390D01*
X0199782Y0068253D01*
X0199831Y0068114D01*
X0199876Y0067975D01*
X0199917Y0067834D01*
X0199954Y0067692D01*
X0199987Y0067550D01*
X0200017Y0067406D01*
X0200043Y0067262D01*
X0200064Y0067117D01*
X0200082Y0066971D01*
X0200096Y0066825D01*
X0200106Y0066679D01*
X0200112Y0066533D01*
X0200114Y0066386D01*
X0200112Y0066239D01*
X0200106Y0066093D01*
X0200096Y0065947D01*
X0200082Y0065801D01*
X0200064Y0065655D01*
X0200043Y0065510D01*
X0200017Y0065366D01*
X0199987Y0065222D01*
X0199954Y0065080D01*
X0199917Y0064938D01*
X0199876Y0064797D01*
X0199831Y0064658D01*
X0199782Y0064519D01*
X0199730Y0064382D01*
X0199673Y0064247D01*
X0199614Y0064113D01*
X0199550Y0063981D01*
X0199483Y0063851D01*
X0199413Y0063722D01*
X0199339Y0063595D01*
X0199262Y0063471D01*
X0199181Y0063348D01*
X0199097Y0063228D01*
X0199010Y0063110D01*
X0198920Y0062995D01*
X0198827Y0062882D01*
X0198730Y0062771D01*
X0198631Y0062663D01*
X0198529Y0062558D01*
X0198424Y0062456D01*
X0198316Y0062357D01*
X0198205Y0062260D01*
X0198092Y0062167D01*
X0197977Y0062077D01*
X0197859Y0061990D01*
X0197739Y0061906D01*
X0197616Y0061825D01*
X0197492Y0061748D01*
X0197365Y0061674D01*
X0197236Y0061604D01*
X0197106Y0061537D01*
X0196974Y0061473D01*
X0196840Y0061414D01*
X0196705Y0061357D01*
X0196568Y0061305D01*
X0196429Y0061256D01*
X0196290Y0061211D01*
X0196149Y0061170D01*
X0196007Y0061133D01*
X0195865Y0061100D01*
X0195721Y0061070D01*
X0195577Y0061044D01*
X0195432Y0061023D01*
X0195286Y0061005D01*
X0195140Y0060991D01*
X0194994Y0060981D01*
X0194848Y0060975D01*
X0194701Y0060973D01*
X0194554Y0060975D01*
X0194408Y0060981D01*
X0194262Y0060991D01*
X0194116Y0061005D01*
X0193970Y0061023D01*
X0193825Y0061044D01*
X0193681Y0061070D01*
X0193537Y0061100D01*
X0193395Y0061133D01*
X0193253Y0061170D01*
X0193112Y0061211D01*
X0192973Y0061256D01*
X0192834Y0061305D01*
X0192697Y0061357D01*
X0192562Y0061414D01*
X0192428Y0061473D01*
X0192296Y0061537D01*
X0192166Y0061604D01*
X0192037Y0061674D01*
X0191910Y0061748D01*
X0191786Y0061825D01*
X0191663Y0061906D01*
X0191543Y0061990D01*
X0191425Y0062077D01*
X0191310Y0062167D01*
X0191197Y0062260D01*
X0191086Y0062357D01*
X0190978Y0062456D01*
X0190873Y0062558D01*
X0190771Y0062663D01*
X0190672Y0062771D01*
X0190575Y0062882D01*
X0190482Y0062995D01*
X0190392Y0063110D01*
X0190305Y0063228D01*
X0190221Y0063348D01*
X0190140Y0063471D01*
X0190063Y0063595D01*
X0189989Y0063722D01*
X0189919Y0063851D01*
X0189852Y0063981D01*
X0189788Y0064113D01*
X0189729Y0064247D01*
X0189672Y0064382D01*
X0189620Y0064519D01*
X0189571Y0064658D01*
X0189526Y0064797D01*
X0189485Y0064938D01*
X0189448Y0065080D01*
X0189415Y0065222D01*
X0189385Y0065366D01*
X0189359Y0065510D01*
X0189338Y0065655D01*
X0189320Y0065801D01*
X0189306Y0065947D01*
X0189296Y0066093D01*
X0189290Y0066239D01*
X0189288Y0066386D01*
X0253756Y0045716D02*
X0253756Y0278000D01*
X0253759Y0278285D01*
X0253770Y0278571D01*
X0253787Y0278856D01*
X0253811Y0279140D01*
X0253842Y0279424D01*
X0253880Y0279707D01*
X0253925Y0279988D01*
X0253976Y0280269D01*
X0254034Y0280549D01*
X0254099Y0280827D01*
X0254171Y0281103D01*
X0254249Y0281377D01*
X0254334Y0281650D01*
X0254426Y0281920D01*
X0254524Y0282188D01*
X0254628Y0282454D01*
X0254739Y0282717D01*
X0254856Y0282977D01*
X0254979Y0283235D01*
X0255109Y0283489D01*
X0255245Y0283740D01*
X0255386Y0283988D01*
X0255534Y0284232D01*
X0255687Y0284473D01*
X0255847Y0284709D01*
X0256012Y0284942D01*
X0256182Y0285171D01*
X0256358Y0285396D01*
X0256540Y0285616D01*
X0256726Y0285832D01*
X0256918Y0286043D01*
X0257115Y0286250D01*
X0257317Y0286452D01*
X0257524Y0286649D01*
X0257735Y0286841D01*
X0257951Y0287027D01*
X0258171Y0287209D01*
X0258396Y0287385D01*
X0258625Y0287555D01*
X0258858Y0287720D01*
X0259094Y0287880D01*
X0259335Y0288033D01*
X0259579Y0288181D01*
X0259827Y0288322D01*
X0260078Y0288458D01*
X0260332Y0288588D01*
X0260590Y0288711D01*
X0260850Y0288828D01*
X0261113Y0288939D01*
X0261379Y0289043D01*
X0261647Y0289141D01*
X0261917Y0289233D01*
X0262190Y0289318D01*
X0262464Y0289396D01*
X0262740Y0289468D01*
X0263018Y0289533D01*
X0263298Y0289591D01*
X0263579Y0289642D01*
X0263860Y0289687D01*
X0264143Y0289725D01*
X0264427Y0289756D01*
X0264711Y0289780D01*
X0264996Y0289797D01*
X0265282Y0289808D01*
X0265567Y0289811D01*
X0464386Y0289811D01*
X0464671Y0289808D01*
X0464957Y0289797D01*
X0465242Y0289780D01*
X0465526Y0289756D01*
X0465810Y0289725D01*
X0466093Y0289687D01*
X0466374Y0289642D01*
X0466655Y0289591D01*
X0466935Y0289533D01*
X0467213Y0289468D01*
X0467489Y0289396D01*
X0467763Y0289318D01*
X0468036Y0289233D01*
X0468306Y0289141D01*
X0468574Y0289043D01*
X0468840Y0288939D01*
X0469103Y0288828D01*
X0469363Y0288711D01*
X0469621Y0288588D01*
X0469875Y0288458D01*
X0470126Y0288322D01*
X0470374Y0288181D01*
X0470618Y0288033D01*
X0470859Y0287880D01*
X0471095Y0287720D01*
X0471328Y0287555D01*
X0471557Y0287385D01*
X0471782Y0287209D01*
X0472002Y0287027D01*
X0472218Y0286841D01*
X0472429Y0286649D01*
X0472636Y0286452D01*
X0472838Y0286250D01*
X0473035Y0286043D01*
X0473227Y0285832D01*
X0473413Y0285616D01*
X0473595Y0285396D01*
X0473771Y0285171D01*
X0473941Y0284942D01*
X0474106Y0284709D01*
X0474266Y0284473D01*
X0474419Y0284232D01*
X0474567Y0283988D01*
X0474708Y0283740D01*
X0474844Y0283489D01*
X0474974Y0283235D01*
X0475097Y0282977D01*
X0475214Y0282717D01*
X0475325Y0282454D01*
X0475429Y0282188D01*
X0475527Y0281920D01*
X0475619Y0281650D01*
X0475704Y0281377D01*
X0475782Y0281103D01*
X0475854Y0280827D01*
X0475919Y0280549D01*
X0475977Y0280269D01*
X0476028Y0279988D01*
X0476073Y0279707D01*
X0476111Y0279424D01*
X0476142Y0279140D01*
X0476166Y0278856D01*
X0476183Y0278571D01*
X0476194Y0278285D01*
X0476197Y0278000D01*
X0476197Y0045716D01*
X0476194Y0045431D01*
X0476183Y0045145D01*
X0476166Y0044860D01*
X0476142Y0044576D01*
X0476111Y0044292D01*
X0476073Y0044009D01*
X0476028Y0043728D01*
X0475977Y0043447D01*
X0475919Y0043167D01*
X0475854Y0042889D01*
X0475782Y0042613D01*
X0475704Y0042339D01*
X0475619Y0042066D01*
X0475527Y0041796D01*
X0475429Y0041528D01*
X0475325Y0041262D01*
X0475214Y0040999D01*
X0475097Y0040739D01*
X0474974Y0040481D01*
X0474844Y0040227D01*
X0474708Y0039976D01*
X0474567Y0039728D01*
X0474419Y0039484D01*
X0474266Y0039243D01*
X0474106Y0039007D01*
X0473941Y0038774D01*
X0473771Y0038545D01*
X0473595Y0038320D01*
X0473413Y0038100D01*
X0473227Y0037884D01*
X0473035Y0037673D01*
X0472838Y0037466D01*
X0472636Y0037264D01*
X0472429Y0037067D01*
X0472218Y0036875D01*
X0472002Y0036689D01*
X0471782Y0036507D01*
X0471557Y0036331D01*
X0471328Y0036161D01*
X0471095Y0035996D01*
X0470859Y0035836D01*
X0470618Y0035683D01*
X0470374Y0035535D01*
X0470126Y0035394D01*
X0469875Y0035258D01*
X0469621Y0035128D01*
X0469363Y0035005D01*
X0469103Y0034888D01*
X0468840Y0034777D01*
X0468574Y0034673D01*
X0468306Y0034575D01*
X0468036Y0034483D01*
X0467763Y0034398D01*
X0467489Y0034320D01*
X0467213Y0034248D01*
X0466935Y0034183D01*
X0466655Y0034125D01*
X0466374Y0034074D01*
X0466093Y0034029D01*
X0465810Y0033991D01*
X0465526Y0033960D01*
X0465242Y0033936D01*
X0464957Y0033919D01*
X0464671Y0033908D01*
X0464386Y0033905D01*
X0403362Y0033905D01*
X0403238Y0033907D01*
X0403115Y0033913D01*
X0402991Y0033922D01*
X0402869Y0033936D01*
X0402746Y0033953D01*
X0402624Y0033975D01*
X0402503Y0034000D01*
X0402383Y0034029D01*
X0402264Y0034061D01*
X0402145Y0034098D01*
X0402028Y0034138D01*
X0401913Y0034181D01*
X0401798Y0034229D01*
X0401686Y0034280D01*
X0401575Y0034334D01*
X0401465Y0034392D01*
X0401358Y0034453D01*
X0401252Y0034518D01*
X0401149Y0034586D01*
X0401048Y0034657D01*
X0400949Y0034731D01*
X0400852Y0034808D01*
X0400758Y0034889D01*
X0400667Y0034972D01*
X0400578Y0035058D01*
X0400492Y0035147D01*
X0400409Y0035238D01*
X0400328Y0035332D01*
X0400251Y0035429D01*
X0400177Y0035528D01*
X0400106Y0035629D01*
X0400038Y0035732D01*
X0399973Y0035838D01*
X0399912Y0035945D01*
X0399854Y0036055D01*
X0399800Y0036166D01*
X0399749Y0036278D01*
X0399701Y0036393D01*
X0399658Y0036508D01*
X0399618Y0036625D01*
X0399581Y0036744D01*
X0399549Y0036863D01*
X0399520Y0036983D01*
X0399495Y0037104D01*
X0399473Y0037226D01*
X0399456Y0037349D01*
X0399442Y0037471D01*
X0399433Y0037595D01*
X0399427Y0037718D01*
X0399425Y0037842D01*
X0399425Y0049653D01*
X0399423Y0049777D01*
X0399417Y0049900D01*
X0399408Y0050024D01*
X0399394Y0050146D01*
X0399377Y0050269D01*
X0399355Y0050391D01*
X0399330Y0050512D01*
X0399301Y0050632D01*
X0399269Y0050751D01*
X0399232Y0050870D01*
X0399192Y0050987D01*
X0399149Y0051102D01*
X0399101Y0051217D01*
X0399050Y0051329D01*
X0398996Y0051440D01*
X0398938Y0051550D01*
X0398877Y0051657D01*
X0398812Y0051763D01*
X0398744Y0051866D01*
X0398673Y0051967D01*
X0398599Y0052066D01*
X0398522Y0052163D01*
X0398441Y0052257D01*
X0398358Y0052348D01*
X0398272Y0052437D01*
X0398183Y0052523D01*
X0398092Y0052606D01*
X0397998Y0052687D01*
X0397901Y0052764D01*
X0397802Y0052838D01*
X0397701Y0052909D01*
X0397598Y0052977D01*
X0397492Y0053042D01*
X0397385Y0053103D01*
X0397275Y0053161D01*
X0397164Y0053215D01*
X0397052Y0053266D01*
X0396937Y0053314D01*
X0396822Y0053357D01*
X0396705Y0053397D01*
X0396586Y0053434D01*
X0396467Y0053466D01*
X0396347Y0053495D01*
X0396226Y0053520D01*
X0396104Y0053542D01*
X0395981Y0053559D01*
X0395859Y0053573D01*
X0395735Y0053582D01*
X0395612Y0053588D01*
X0395488Y0053590D01*
X0336433Y0053590D01*
X0336309Y0053588D01*
X0336186Y0053582D01*
X0336062Y0053573D01*
X0335940Y0053559D01*
X0335817Y0053542D01*
X0335695Y0053520D01*
X0335574Y0053495D01*
X0335454Y0053466D01*
X0335335Y0053434D01*
X0335216Y0053397D01*
X0335099Y0053357D01*
X0334984Y0053314D01*
X0334869Y0053266D01*
X0334757Y0053215D01*
X0334646Y0053161D01*
X0334536Y0053103D01*
X0334429Y0053042D01*
X0334323Y0052977D01*
X0334220Y0052909D01*
X0334119Y0052838D01*
X0334020Y0052764D01*
X0333923Y0052687D01*
X0333829Y0052606D01*
X0333738Y0052523D01*
X0333649Y0052437D01*
X0333563Y0052348D01*
X0333480Y0052257D01*
X0333399Y0052163D01*
X0333322Y0052066D01*
X0333248Y0051967D01*
X0333177Y0051866D01*
X0333109Y0051763D01*
X0333044Y0051657D01*
X0332983Y0051550D01*
X0332925Y0051440D01*
X0332871Y0051329D01*
X0332820Y0051217D01*
X0332772Y0051102D01*
X0332729Y0050987D01*
X0332689Y0050870D01*
X0332652Y0050751D01*
X0332620Y0050632D01*
X0332591Y0050512D01*
X0332566Y0050391D01*
X0332544Y0050269D01*
X0332527Y0050146D01*
X0332513Y0050024D01*
X0332504Y0049900D01*
X0332498Y0049777D01*
X0332496Y0049653D01*
X0332496Y0037842D01*
X0332494Y0037718D01*
X0332488Y0037595D01*
X0332479Y0037471D01*
X0332465Y0037349D01*
X0332448Y0037226D01*
X0332426Y0037104D01*
X0332401Y0036983D01*
X0332372Y0036863D01*
X0332340Y0036744D01*
X0332303Y0036625D01*
X0332263Y0036508D01*
X0332220Y0036393D01*
X0332172Y0036278D01*
X0332121Y0036166D01*
X0332067Y0036055D01*
X0332009Y0035945D01*
X0331948Y0035838D01*
X0331883Y0035732D01*
X0331815Y0035629D01*
X0331744Y0035528D01*
X0331670Y0035429D01*
X0331593Y0035332D01*
X0331512Y0035238D01*
X0331429Y0035147D01*
X0331343Y0035058D01*
X0331254Y0034972D01*
X0331163Y0034889D01*
X0331069Y0034808D01*
X0330972Y0034731D01*
X0330873Y0034657D01*
X0330772Y0034586D01*
X0330669Y0034518D01*
X0330563Y0034453D01*
X0330456Y0034392D01*
X0330346Y0034334D01*
X0330235Y0034280D01*
X0330123Y0034229D01*
X0330008Y0034181D01*
X0329893Y0034138D01*
X0329776Y0034098D01*
X0329657Y0034061D01*
X0329538Y0034029D01*
X0329418Y0034000D01*
X0329297Y0033975D01*
X0329175Y0033953D01*
X0329052Y0033936D01*
X0328930Y0033922D01*
X0328806Y0033913D01*
X0328683Y0033907D01*
X0328559Y0033905D01*
X0265567Y0033905D01*
X0265282Y0033908D01*
X0264996Y0033919D01*
X0264711Y0033936D01*
X0264427Y0033960D01*
X0264143Y0033991D01*
X0263860Y0034029D01*
X0263579Y0034074D01*
X0263298Y0034125D01*
X0263018Y0034183D01*
X0262740Y0034248D01*
X0262464Y0034320D01*
X0262190Y0034398D01*
X0261917Y0034483D01*
X0261647Y0034575D01*
X0261379Y0034673D01*
X0261113Y0034777D01*
X0260850Y0034888D01*
X0260590Y0035005D01*
X0260332Y0035128D01*
X0260078Y0035258D01*
X0259827Y0035394D01*
X0259579Y0035535D01*
X0259335Y0035683D01*
X0259094Y0035836D01*
X0258858Y0035996D01*
X0258625Y0036161D01*
X0258396Y0036331D01*
X0258171Y0036507D01*
X0257951Y0036689D01*
X0257735Y0036875D01*
X0257524Y0037067D01*
X0257317Y0037264D01*
X0257115Y0037466D01*
X0256918Y0037673D01*
X0256726Y0037884D01*
X0256540Y0038100D01*
X0256358Y0038320D01*
X0256182Y0038545D01*
X0256012Y0038774D01*
X0255847Y0039007D01*
X0255687Y0039243D01*
X0255534Y0039484D01*
X0255386Y0039728D01*
X0255245Y0039976D01*
X0255109Y0040227D01*
X0254979Y0040481D01*
X0254856Y0040739D01*
X0254739Y0040999D01*
X0254628Y0041262D01*
X0254524Y0041528D01*
X0254426Y0041796D01*
X0254334Y0042066D01*
X0254249Y0042339D01*
X0254171Y0042613D01*
X0254099Y0042889D01*
X0254034Y0043167D01*
X0253976Y0043447D01*
X0253925Y0043728D01*
X0253880Y0044009D01*
X0253842Y0044292D01*
X0253811Y0044576D01*
X0253787Y0044860D01*
X0253770Y0045145D01*
X0253759Y0045431D01*
X0253756Y0045716D01*
X0264091Y0047685D02*
X0264093Y0047832D01*
X0264099Y0047978D01*
X0264109Y0048124D01*
X0264123Y0048270D01*
X0264141Y0048416D01*
X0264162Y0048561D01*
X0264188Y0048705D01*
X0264218Y0048849D01*
X0264251Y0048991D01*
X0264288Y0049133D01*
X0264329Y0049274D01*
X0264374Y0049413D01*
X0264423Y0049552D01*
X0264475Y0049689D01*
X0264532Y0049824D01*
X0264591Y0049958D01*
X0264655Y0050090D01*
X0264722Y0050220D01*
X0264792Y0050349D01*
X0264866Y0050476D01*
X0264943Y0050600D01*
X0265024Y0050723D01*
X0265108Y0050843D01*
X0265195Y0050961D01*
X0265285Y0051076D01*
X0265378Y0051189D01*
X0265475Y0051300D01*
X0265574Y0051408D01*
X0265676Y0051513D01*
X0265781Y0051615D01*
X0265889Y0051714D01*
X0266000Y0051811D01*
X0266113Y0051904D01*
X0266228Y0051994D01*
X0266346Y0052081D01*
X0266466Y0052165D01*
X0266589Y0052246D01*
X0266713Y0052323D01*
X0266840Y0052397D01*
X0266969Y0052467D01*
X0267099Y0052534D01*
X0267231Y0052598D01*
X0267365Y0052657D01*
X0267500Y0052714D01*
X0267637Y0052766D01*
X0267776Y0052815D01*
X0267915Y0052860D01*
X0268056Y0052901D01*
X0268198Y0052938D01*
X0268340Y0052971D01*
X0268484Y0053001D01*
X0268628Y0053027D01*
X0268773Y0053048D01*
X0268919Y0053066D01*
X0269065Y0053080D01*
X0269211Y0053090D01*
X0269357Y0053096D01*
X0269504Y0053098D01*
X0269651Y0053096D01*
X0269797Y0053090D01*
X0269943Y0053080D01*
X0270089Y0053066D01*
X0270235Y0053048D01*
X0270380Y0053027D01*
X0270524Y0053001D01*
X0270668Y0052971D01*
X0270810Y0052938D01*
X0270952Y0052901D01*
X0271093Y0052860D01*
X0271232Y0052815D01*
X0271371Y0052766D01*
X0271508Y0052714D01*
X0271643Y0052657D01*
X0271777Y0052598D01*
X0271909Y0052534D01*
X0272039Y0052467D01*
X0272168Y0052397D01*
X0272295Y0052323D01*
X0272419Y0052246D01*
X0272542Y0052165D01*
X0272662Y0052081D01*
X0272780Y0051994D01*
X0272895Y0051904D01*
X0273008Y0051811D01*
X0273119Y0051714D01*
X0273227Y0051615D01*
X0273332Y0051513D01*
X0273434Y0051408D01*
X0273533Y0051300D01*
X0273630Y0051189D01*
X0273723Y0051076D01*
X0273813Y0050961D01*
X0273900Y0050843D01*
X0273984Y0050723D01*
X0274065Y0050600D01*
X0274142Y0050476D01*
X0274216Y0050349D01*
X0274286Y0050220D01*
X0274353Y0050090D01*
X0274417Y0049958D01*
X0274476Y0049824D01*
X0274533Y0049689D01*
X0274585Y0049552D01*
X0274634Y0049413D01*
X0274679Y0049274D01*
X0274720Y0049133D01*
X0274757Y0048991D01*
X0274790Y0048849D01*
X0274820Y0048705D01*
X0274846Y0048561D01*
X0274867Y0048416D01*
X0274885Y0048270D01*
X0274899Y0048124D01*
X0274909Y0047978D01*
X0274915Y0047832D01*
X0274917Y0047685D01*
X0274915Y0047538D01*
X0274909Y0047392D01*
X0274899Y0047246D01*
X0274885Y0047100D01*
X0274867Y0046954D01*
X0274846Y0046809D01*
X0274820Y0046665D01*
X0274790Y0046521D01*
X0274757Y0046379D01*
X0274720Y0046237D01*
X0274679Y0046096D01*
X0274634Y0045957D01*
X0274585Y0045818D01*
X0274533Y0045681D01*
X0274476Y0045546D01*
X0274417Y0045412D01*
X0274353Y0045280D01*
X0274286Y0045150D01*
X0274216Y0045021D01*
X0274142Y0044894D01*
X0274065Y0044770D01*
X0273984Y0044647D01*
X0273900Y0044527D01*
X0273813Y0044409D01*
X0273723Y0044294D01*
X0273630Y0044181D01*
X0273533Y0044070D01*
X0273434Y0043962D01*
X0273332Y0043857D01*
X0273227Y0043755D01*
X0273119Y0043656D01*
X0273008Y0043559D01*
X0272895Y0043466D01*
X0272780Y0043376D01*
X0272662Y0043289D01*
X0272542Y0043205D01*
X0272419Y0043124D01*
X0272295Y0043047D01*
X0272168Y0042973D01*
X0272039Y0042903D01*
X0271909Y0042836D01*
X0271777Y0042772D01*
X0271643Y0042713D01*
X0271508Y0042656D01*
X0271371Y0042604D01*
X0271232Y0042555D01*
X0271093Y0042510D01*
X0270952Y0042469D01*
X0270810Y0042432D01*
X0270668Y0042399D01*
X0270524Y0042369D01*
X0270380Y0042343D01*
X0270235Y0042322D01*
X0270089Y0042304D01*
X0269943Y0042290D01*
X0269797Y0042280D01*
X0269651Y0042274D01*
X0269504Y0042272D01*
X0269357Y0042274D01*
X0269211Y0042280D01*
X0269065Y0042290D01*
X0268919Y0042304D01*
X0268773Y0042322D01*
X0268628Y0042343D01*
X0268484Y0042369D01*
X0268340Y0042399D01*
X0268198Y0042432D01*
X0268056Y0042469D01*
X0267915Y0042510D01*
X0267776Y0042555D01*
X0267637Y0042604D01*
X0267500Y0042656D01*
X0267365Y0042713D01*
X0267231Y0042772D01*
X0267099Y0042836D01*
X0266969Y0042903D01*
X0266840Y0042973D01*
X0266713Y0043047D01*
X0266589Y0043124D01*
X0266466Y0043205D01*
X0266346Y0043289D01*
X0266228Y0043376D01*
X0266113Y0043466D01*
X0266000Y0043559D01*
X0265889Y0043656D01*
X0265781Y0043755D01*
X0265676Y0043857D01*
X0265574Y0043962D01*
X0265475Y0044070D01*
X0265378Y0044181D01*
X0265285Y0044294D01*
X0265195Y0044409D01*
X0265108Y0044527D01*
X0265024Y0044647D01*
X0264943Y0044770D01*
X0264866Y0044894D01*
X0264792Y0045021D01*
X0264722Y0045150D01*
X0264655Y0045280D01*
X0264591Y0045412D01*
X0264532Y0045546D01*
X0264475Y0045681D01*
X0264423Y0045818D01*
X0264374Y0045957D01*
X0264329Y0046096D01*
X0264288Y0046237D01*
X0264251Y0046379D01*
X0264218Y0046521D01*
X0264188Y0046665D01*
X0264162Y0046809D01*
X0264141Y0046954D01*
X0264123Y0047100D01*
X0264109Y0047246D01*
X0264099Y0047392D01*
X0264093Y0047538D01*
X0264091Y0047685D01*
X0457004Y0047685D02*
X0457006Y0047832D01*
X0457012Y0047978D01*
X0457022Y0048124D01*
X0457036Y0048270D01*
X0457054Y0048416D01*
X0457075Y0048561D01*
X0457101Y0048705D01*
X0457131Y0048849D01*
X0457164Y0048991D01*
X0457201Y0049133D01*
X0457242Y0049274D01*
X0457287Y0049413D01*
X0457336Y0049552D01*
X0457388Y0049689D01*
X0457445Y0049824D01*
X0457504Y0049958D01*
X0457568Y0050090D01*
X0457635Y0050220D01*
X0457705Y0050349D01*
X0457779Y0050476D01*
X0457856Y0050600D01*
X0457937Y0050723D01*
X0458021Y0050843D01*
X0458108Y0050961D01*
X0458198Y0051076D01*
X0458291Y0051189D01*
X0458388Y0051300D01*
X0458487Y0051408D01*
X0458589Y0051513D01*
X0458694Y0051615D01*
X0458802Y0051714D01*
X0458913Y0051811D01*
X0459026Y0051904D01*
X0459141Y0051994D01*
X0459259Y0052081D01*
X0459379Y0052165D01*
X0459502Y0052246D01*
X0459626Y0052323D01*
X0459753Y0052397D01*
X0459882Y0052467D01*
X0460012Y0052534D01*
X0460144Y0052598D01*
X0460278Y0052657D01*
X0460413Y0052714D01*
X0460550Y0052766D01*
X0460689Y0052815D01*
X0460828Y0052860D01*
X0460969Y0052901D01*
X0461111Y0052938D01*
X0461253Y0052971D01*
X0461397Y0053001D01*
X0461541Y0053027D01*
X0461686Y0053048D01*
X0461832Y0053066D01*
X0461978Y0053080D01*
X0462124Y0053090D01*
X0462270Y0053096D01*
X0462417Y0053098D01*
X0462564Y0053096D01*
X0462710Y0053090D01*
X0462856Y0053080D01*
X0463002Y0053066D01*
X0463148Y0053048D01*
X0463293Y0053027D01*
X0463437Y0053001D01*
X0463581Y0052971D01*
X0463723Y0052938D01*
X0463865Y0052901D01*
X0464006Y0052860D01*
X0464145Y0052815D01*
X0464284Y0052766D01*
X0464421Y0052714D01*
X0464556Y0052657D01*
X0464690Y0052598D01*
X0464822Y0052534D01*
X0464952Y0052467D01*
X0465081Y0052397D01*
X0465208Y0052323D01*
X0465332Y0052246D01*
X0465455Y0052165D01*
X0465575Y0052081D01*
X0465693Y0051994D01*
X0465808Y0051904D01*
X0465921Y0051811D01*
X0466032Y0051714D01*
X0466140Y0051615D01*
X0466245Y0051513D01*
X0466347Y0051408D01*
X0466446Y0051300D01*
X0466543Y0051189D01*
X0466636Y0051076D01*
X0466726Y0050961D01*
X0466813Y0050843D01*
X0466897Y0050723D01*
X0466978Y0050600D01*
X0467055Y0050476D01*
X0467129Y0050349D01*
X0467199Y0050220D01*
X0467266Y0050090D01*
X0467330Y0049958D01*
X0467389Y0049824D01*
X0467446Y0049689D01*
X0467498Y0049552D01*
X0467547Y0049413D01*
X0467592Y0049274D01*
X0467633Y0049133D01*
X0467670Y0048991D01*
X0467703Y0048849D01*
X0467733Y0048705D01*
X0467759Y0048561D01*
X0467780Y0048416D01*
X0467798Y0048270D01*
X0467812Y0048124D01*
X0467822Y0047978D01*
X0467828Y0047832D01*
X0467830Y0047685D01*
X0467828Y0047538D01*
X0467822Y0047392D01*
X0467812Y0047246D01*
X0467798Y0047100D01*
X0467780Y0046954D01*
X0467759Y0046809D01*
X0467733Y0046665D01*
X0467703Y0046521D01*
X0467670Y0046379D01*
X0467633Y0046237D01*
X0467592Y0046096D01*
X0467547Y0045957D01*
X0467498Y0045818D01*
X0467446Y0045681D01*
X0467389Y0045546D01*
X0467330Y0045412D01*
X0467266Y0045280D01*
X0467199Y0045150D01*
X0467129Y0045021D01*
X0467055Y0044894D01*
X0466978Y0044770D01*
X0466897Y0044647D01*
X0466813Y0044527D01*
X0466726Y0044409D01*
X0466636Y0044294D01*
X0466543Y0044181D01*
X0466446Y0044070D01*
X0466347Y0043962D01*
X0466245Y0043857D01*
X0466140Y0043755D01*
X0466032Y0043656D01*
X0465921Y0043559D01*
X0465808Y0043466D01*
X0465693Y0043376D01*
X0465575Y0043289D01*
X0465455Y0043205D01*
X0465332Y0043124D01*
X0465208Y0043047D01*
X0465081Y0042973D01*
X0464952Y0042903D01*
X0464822Y0042836D01*
X0464690Y0042772D01*
X0464556Y0042713D01*
X0464421Y0042656D01*
X0464284Y0042604D01*
X0464145Y0042555D01*
X0464006Y0042510D01*
X0463865Y0042469D01*
X0463723Y0042432D01*
X0463581Y0042399D01*
X0463437Y0042369D01*
X0463293Y0042343D01*
X0463148Y0042322D01*
X0463002Y0042304D01*
X0462856Y0042290D01*
X0462710Y0042280D01*
X0462564Y0042274D01*
X0462417Y0042272D01*
X0462270Y0042274D01*
X0462124Y0042280D01*
X0461978Y0042290D01*
X0461832Y0042304D01*
X0461686Y0042322D01*
X0461541Y0042343D01*
X0461397Y0042369D01*
X0461253Y0042399D01*
X0461111Y0042432D01*
X0460969Y0042469D01*
X0460828Y0042510D01*
X0460689Y0042555D01*
X0460550Y0042604D01*
X0460413Y0042656D01*
X0460278Y0042713D01*
X0460144Y0042772D01*
X0460012Y0042836D01*
X0459882Y0042903D01*
X0459753Y0042973D01*
X0459626Y0043047D01*
X0459502Y0043124D01*
X0459379Y0043205D01*
X0459259Y0043289D01*
X0459141Y0043376D01*
X0459026Y0043466D01*
X0458913Y0043559D01*
X0458802Y0043656D01*
X0458694Y0043755D01*
X0458589Y0043857D01*
X0458487Y0043962D01*
X0458388Y0044070D01*
X0458291Y0044181D01*
X0458198Y0044294D01*
X0458108Y0044409D01*
X0458021Y0044527D01*
X0457937Y0044647D01*
X0457856Y0044770D01*
X0457779Y0044894D01*
X0457705Y0045021D01*
X0457635Y0045150D01*
X0457568Y0045280D01*
X0457504Y0045412D01*
X0457445Y0045546D01*
X0457388Y0045681D01*
X0457336Y0045818D01*
X0457287Y0045957D01*
X0457242Y0046096D01*
X0457201Y0046237D01*
X0457164Y0046379D01*
X0457131Y0046521D01*
X0457101Y0046665D01*
X0457075Y0046809D01*
X0457054Y0046954D01*
X0457036Y0047100D01*
X0457022Y0047246D01*
X0457012Y0047392D01*
X0457006Y0047538D01*
X0457004Y0047685D01*
X0460449Y0207134D02*
X0401394Y0207134D01*
X0401270Y0207136D01*
X0401147Y0207142D01*
X0401023Y0207151D01*
X0400901Y0207165D01*
X0400778Y0207182D01*
X0400656Y0207204D01*
X0400535Y0207229D01*
X0400415Y0207258D01*
X0400296Y0207290D01*
X0400177Y0207327D01*
X0400060Y0207367D01*
X0399945Y0207410D01*
X0399830Y0207458D01*
X0399718Y0207509D01*
X0399607Y0207563D01*
X0399497Y0207621D01*
X0399390Y0207682D01*
X0399284Y0207747D01*
X0399181Y0207815D01*
X0399080Y0207886D01*
X0398981Y0207960D01*
X0398884Y0208037D01*
X0398790Y0208118D01*
X0398699Y0208201D01*
X0398610Y0208287D01*
X0398524Y0208376D01*
X0398441Y0208467D01*
X0398360Y0208561D01*
X0398283Y0208658D01*
X0398209Y0208757D01*
X0398138Y0208858D01*
X0398070Y0208961D01*
X0398005Y0209067D01*
X0397944Y0209174D01*
X0397886Y0209284D01*
X0397832Y0209395D01*
X0397781Y0209507D01*
X0397733Y0209622D01*
X0397690Y0209737D01*
X0397650Y0209854D01*
X0397613Y0209973D01*
X0397581Y0210092D01*
X0397552Y0210212D01*
X0397527Y0210333D01*
X0397505Y0210455D01*
X0397488Y0210578D01*
X0397474Y0210700D01*
X0397465Y0210824D01*
X0397459Y0210947D01*
X0397457Y0211071D01*
X0397459Y0211195D01*
X0397465Y0211318D01*
X0397474Y0211442D01*
X0397488Y0211564D01*
X0397505Y0211687D01*
X0397527Y0211809D01*
X0397552Y0211930D01*
X0397581Y0212050D01*
X0397613Y0212169D01*
X0397650Y0212288D01*
X0397690Y0212405D01*
X0397733Y0212520D01*
X0397781Y0212635D01*
X0397832Y0212747D01*
X0397886Y0212858D01*
X0397944Y0212968D01*
X0398005Y0213075D01*
X0398070Y0213181D01*
X0398138Y0213284D01*
X0398209Y0213385D01*
X0398283Y0213484D01*
X0398360Y0213581D01*
X0398441Y0213675D01*
X0398524Y0213766D01*
X0398610Y0213855D01*
X0398699Y0213941D01*
X0398790Y0214024D01*
X0398884Y0214105D01*
X0398981Y0214182D01*
X0399080Y0214256D01*
X0399181Y0214327D01*
X0399284Y0214395D01*
X0399390Y0214460D01*
X0399497Y0214521D01*
X0399607Y0214579D01*
X0399718Y0214633D01*
X0399830Y0214684D01*
X0399945Y0214732D01*
X0400060Y0214775D01*
X0400177Y0214815D01*
X0400296Y0214852D01*
X0400415Y0214884D01*
X0400535Y0214913D01*
X0400656Y0214938D01*
X0400778Y0214960D01*
X0400901Y0214977D01*
X0401023Y0214991D01*
X0401147Y0215000D01*
X0401270Y0215006D01*
X0401394Y0215008D01*
X0460449Y0215008D01*
X0464386Y0211071D02*
X0464384Y0210947D01*
X0464378Y0210824D01*
X0464369Y0210700D01*
X0464355Y0210578D01*
X0464338Y0210455D01*
X0464316Y0210333D01*
X0464291Y0210212D01*
X0464262Y0210092D01*
X0464230Y0209973D01*
X0464193Y0209854D01*
X0464153Y0209737D01*
X0464110Y0209622D01*
X0464062Y0209507D01*
X0464011Y0209395D01*
X0463957Y0209284D01*
X0463899Y0209174D01*
X0463838Y0209067D01*
X0463773Y0208961D01*
X0463705Y0208858D01*
X0463634Y0208757D01*
X0463560Y0208658D01*
X0463483Y0208561D01*
X0463402Y0208467D01*
X0463319Y0208376D01*
X0463233Y0208287D01*
X0463144Y0208201D01*
X0463053Y0208118D01*
X0462959Y0208037D01*
X0462862Y0207960D01*
X0462763Y0207886D01*
X0462662Y0207815D01*
X0462559Y0207747D01*
X0462453Y0207682D01*
X0462346Y0207621D01*
X0462236Y0207563D01*
X0462125Y0207509D01*
X0462013Y0207458D01*
X0461898Y0207410D01*
X0461783Y0207367D01*
X0461666Y0207327D01*
X0461547Y0207290D01*
X0461428Y0207258D01*
X0461308Y0207229D01*
X0461187Y0207204D01*
X0461065Y0207182D01*
X0460942Y0207165D01*
X0460820Y0207151D01*
X0460696Y0207142D01*
X0460573Y0207136D01*
X0460449Y0207134D01*
X0464386Y0211071D02*
X0464384Y0211195D01*
X0464378Y0211318D01*
X0464369Y0211442D01*
X0464355Y0211564D01*
X0464338Y0211687D01*
X0464316Y0211809D01*
X0464291Y0211930D01*
X0464262Y0212050D01*
X0464230Y0212169D01*
X0464193Y0212288D01*
X0464153Y0212405D01*
X0464110Y0212520D01*
X0464062Y0212635D01*
X0464011Y0212747D01*
X0463957Y0212858D01*
X0463899Y0212968D01*
X0463838Y0213075D01*
X0463773Y0213181D01*
X0463705Y0213284D01*
X0463634Y0213385D01*
X0463560Y0213484D01*
X0463483Y0213581D01*
X0463402Y0213675D01*
X0463319Y0213766D01*
X0463233Y0213855D01*
X0463144Y0213941D01*
X0463053Y0214024D01*
X0462959Y0214105D01*
X0462862Y0214182D01*
X0462763Y0214256D01*
X0462662Y0214327D01*
X0462559Y0214395D01*
X0462453Y0214460D01*
X0462346Y0214521D01*
X0462236Y0214579D01*
X0462125Y0214633D01*
X0462013Y0214684D01*
X0461898Y0214732D01*
X0461783Y0214775D01*
X0461666Y0214815D01*
X0461547Y0214852D01*
X0461428Y0214884D01*
X0461308Y0214913D01*
X0461187Y0214938D01*
X0461065Y0214960D01*
X0460942Y0214977D01*
X0460820Y0214991D01*
X0460696Y0215000D01*
X0460573Y0215006D01*
X0460449Y0215008D01*
X0457004Y0276031D02*
X0457006Y0276178D01*
X0457012Y0276324D01*
X0457022Y0276470D01*
X0457036Y0276616D01*
X0457054Y0276762D01*
X0457075Y0276907D01*
X0457101Y0277051D01*
X0457131Y0277195D01*
X0457164Y0277337D01*
X0457201Y0277479D01*
X0457242Y0277620D01*
X0457287Y0277759D01*
X0457336Y0277898D01*
X0457388Y0278035D01*
X0457445Y0278170D01*
X0457504Y0278304D01*
X0457568Y0278436D01*
X0457635Y0278566D01*
X0457705Y0278695D01*
X0457779Y0278822D01*
X0457856Y0278946D01*
X0457937Y0279069D01*
X0458021Y0279189D01*
X0458108Y0279307D01*
X0458198Y0279422D01*
X0458291Y0279535D01*
X0458388Y0279646D01*
X0458487Y0279754D01*
X0458589Y0279859D01*
X0458694Y0279961D01*
X0458802Y0280060D01*
X0458913Y0280157D01*
X0459026Y0280250D01*
X0459141Y0280340D01*
X0459259Y0280427D01*
X0459379Y0280511D01*
X0459502Y0280592D01*
X0459626Y0280669D01*
X0459753Y0280743D01*
X0459882Y0280813D01*
X0460012Y0280880D01*
X0460144Y0280944D01*
X0460278Y0281003D01*
X0460413Y0281060D01*
X0460550Y0281112D01*
X0460689Y0281161D01*
X0460828Y0281206D01*
X0460969Y0281247D01*
X0461111Y0281284D01*
X0461253Y0281317D01*
X0461397Y0281347D01*
X0461541Y0281373D01*
X0461686Y0281394D01*
X0461832Y0281412D01*
X0461978Y0281426D01*
X0462124Y0281436D01*
X0462270Y0281442D01*
X0462417Y0281444D01*
X0462564Y0281442D01*
X0462710Y0281436D01*
X0462856Y0281426D01*
X0463002Y0281412D01*
X0463148Y0281394D01*
X0463293Y0281373D01*
X0463437Y0281347D01*
X0463581Y0281317D01*
X0463723Y0281284D01*
X0463865Y0281247D01*
X0464006Y0281206D01*
X0464145Y0281161D01*
X0464284Y0281112D01*
X0464421Y0281060D01*
X0464556Y0281003D01*
X0464690Y0280944D01*
X0464822Y0280880D01*
X0464952Y0280813D01*
X0465081Y0280743D01*
X0465208Y0280669D01*
X0465332Y0280592D01*
X0465455Y0280511D01*
X0465575Y0280427D01*
X0465693Y0280340D01*
X0465808Y0280250D01*
X0465921Y0280157D01*
X0466032Y0280060D01*
X0466140Y0279961D01*
X0466245Y0279859D01*
X0466347Y0279754D01*
X0466446Y0279646D01*
X0466543Y0279535D01*
X0466636Y0279422D01*
X0466726Y0279307D01*
X0466813Y0279189D01*
X0466897Y0279069D01*
X0466978Y0278946D01*
X0467055Y0278822D01*
X0467129Y0278695D01*
X0467199Y0278566D01*
X0467266Y0278436D01*
X0467330Y0278304D01*
X0467389Y0278170D01*
X0467446Y0278035D01*
X0467498Y0277898D01*
X0467547Y0277759D01*
X0467592Y0277620D01*
X0467633Y0277479D01*
X0467670Y0277337D01*
X0467703Y0277195D01*
X0467733Y0277051D01*
X0467759Y0276907D01*
X0467780Y0276762D01*
X0467798Y0276616D01*
X0467812Y0276470D01*
X0467822Y0276324D01*
X0467828Y0276178D01*
X0467830Y0276031D01*
X0467828Y0275884D01*
X0467822Y0275738D01*
X0467812Y0275592D01*
X0467798Y0275446D01*
X0467780Y0275300D01*
X0467759Y0275155D01*
X0467733Y0275011D01*
X0467703Y0274867D01*
X0467670Y0274725D01*
X0467633Y0274583D01*
X0467592Y0274442D01*
X0467547Y0274303D01*
X0467498Y0274164D01*
X0467446Y0274027D01*
X0467389Y0273892D01*
X0467330Y0273758D01*
X0467266Y0273626D01*
X0467199Y0273496D01*
X0467129Y0273367D01*
X0467055Y0273240D01*
X0466978Y0273116D01*
X0466897Y0272993D01*
X0466813Y0272873D01*
X0466726Y0272755D01*
X0466636Y0272640D01*
X0466543Y0272527D01*
X0466446Y0272416D01*
X0466347Y0272308D01*
X0466245Y0272203D01*
X0466140Y0272101D01*
X0466032Y0272002D01*
X0465921Y0271905D01*
X0465808Y0271812D01*
X0465693Y0271722D01*
X0465575Y0271635D01*
X0465455Y0271551D01*
X0465332Y0271470D01*
X0465208Y0271393D01*
X0465081Y0271319D01*
X0464952Y0271249D01*
X0464822Y0271182D01*
X0464690Y0271118D01*
X0464556Y0271059D01*
X0464421Y0271002D01*
X0464284Y0270950D01*
X0464145Y0270901D01*
X0464006Y0270856D01*
X0463865Y0270815D01*
X0463723Y0270778D01*
X0463581Y0270745D01*
X0463437Y0270715D01*
X0463293Y0270689D01*
X0463148Y0270668D01*
X0463002Y0270650D01*
X0462856Y0270636D01*
X0462710Y0270626D01*
X0462564Y0270620D01*
X0462417Y0270618D01*
X0462270Y0270620D01*
X0462124Y0270626D01*
X0461978Y0270636D01*
X0461832Y0270650D01*
X0461686Y0270668D01*
X0461541Y0270689D01*
X0461397Y0270715D01*
X0461253Y0270745D01*
X0461111Y0270778D01*
X0460969Y0270815D01*
X0460828Y0270856D01*
X0460689Y0270901D01*
X0460550Y0270950D01*
X0460413Y0271002D01*
X0460278Y0271059D01*
X0460144Y0271118D01*
X0460012Y0271182D01*
X0459882Y0271249D01*
X0459753Y0271319D01*
X0459626Y0271393D01*
X0459502Y0271470D01*
X0459379Y0271551D01*
X0459259Y0271635D01*
X0459141Y0271722D01*
X0459026Y0271812D01*
X0458913Y0271905D01*
X0458802Y0272002D01*
X0458694Y0272101D01*
X0458589Y0272203D01*
X0458487Y0272308D01*
X0458388Y0272416D01*
X0458291Y0272527D01*
X0458198Y0272640D01*
X0458108Y0272755D01*
X0458021Y0272873D01*
X0457937Y0272993D01*
X0457856Y0273116D01*
X0457779Y0273240D01*
X0457705Y0273367D01*
X0457635Y0273496D01*
X0457568Y0273626D01*
X0457504Y0273758D01*
X0457445Y0273892D01*
X0457388Y0274027D01*
X0457336Y0274164D01*
X0457287Y0274303D01*
X0457242Y0274442D01*
X0457201Y0274583D01*
X0457164Y0274725D01*
X0457131Y0274867D01*
X0457101Y0275011D01*
X0457075Y0275155D01*
X0457054Y0275300D01*
X0457036Y0275446D01*
X0457022Y0275592D01*
X0457012Y0275738D01*
X0457006Y0275884D01*
X0457004Y0276031D01*
X0264091Y0276031D02*
X0264093Y0276178D01*
X0264099Y0276324D01*
X0264109Y0276470D01*
X0264123Y0276616D01*
X0264141Y0276762D01*
X0264162Y0276907D01*
X0264188Y0277051D01*
X0264218Y0277195D01*
X0264251Y0277337D01*
X0264288Y0277479D01*
X0264329Y0277620D01*
X0264374Y0277759D01*
X0264423Y0277898D01*
X0264475Y0278035D01*
X0264532Y0278170D01*
X0264591Y0278304D01*
X0264655Y0278436D01*
X0264722Y0278566D01*
X0264792Y0278695D01*
X0264866Y0278822D01*
X0264943Y0278946D01*
X0265024Y0279069D01*
X0265108Y0279189D01*
X0265195Y0279307D01*
X0265285Y0279422D01*
X0265378Y0279535D01*
X0265475Y0279646D01*
X0265574Y0279754D01*
X0265676Y0279859D01*
X0265781Y0279961D01*
X0265889Y0280060D01*
X0266000Y0280157D01*
X0266113Y0280250D01*
X0266228Y0280340D01*
X0266346Y0280427D01*
X0266466Y0280511D01*
X0266589Y0280592D01*
X0266713Y0280669D01*
X0266840Y0280743D01*
X0266969Y0280813D01*
X0267099Y0280880D01*
X0267231Y0280944D01*
X0267365Y0281003D01*
X0267500Y0281060D01*
X0267637Y0281112D01*
X0267776Y0281161D01*
X0267915Y0281206D01*
X0268056Y0281247D01*
X0268198Y0281284D01*
X0268340Y0281317D01*
X0268484Y0281347D01*
X0268628Y0281373D01*
X0268773Y0281394D01*
X0268919Y0281412D01*
X0269065Y0281426D01*
X0269211Y0281436D01*
X0269357Y0281442D01*
X0269504Y0281444D01*
X0269651Y0281442D01*
X0269797Y0281436D01*
X0269943Y0281426D01*
X0270089Y0281412D01*
X0270235Y0281394D01*
X0270380Y0281373D01*
X0270524Y0281347D01*
X0270668Y0281317D01*
X0270810Y0281284D01*
X0270952Y0281247D01*
X0271093Y0281206D01*
X0271232Y0281161D01*
X0271371Y0281112D01*
X0271508Y0281060D01*
X0271643Y0281003D01*
X0271777Y0280944D01*
X0271909Y0280880D01*
X0272039Y0280813D01*
X0272168Y0280743D01*
X0272295Y0280669D01*
X0272419Y0280592D01*
X0272542Y0280511D01*
X0272662Y0280427D01*
X0272780Y0280340D01*
X0272895Y0280250D01*
X0273008Y0280157D01*
X0273119Y0280060D01*
X0273227Y0279961D01*
X0273332Y0279859D01*
X0273434Y0279754D01*
X0273533Y0279646D01*
X0273630Y0279535D01*
X0273723Y0279422D01*
X0273813Y0279307D01*
X0273900Y0279189D01*
X0273984Y0279069D01*
X0274065Y0278946D01*
X0274142Y0278822D01*
X0274216Y0278695D01*
X0274286Y0278566D01*
X0274353Y0278436D01*
X0274417Y0278304D01*
X0274476Y0278170D01*
X0274533Y0278035D01*
X0274585Y0277898D01*
X0274634Y0277759D01*
X0274679Y0277620D01*
X0274720Y0277479D01*
X0274757Y0277337D01*
X0274790Y0277195D01*
X0274820Y0277051D01*
X0274846Y0276907D01*
X0274867Y0276762D01*
X0274885Y0276616D01*
X0274899Y0276470D01*
X0274909Y0276324D01*
X0274915Y0276178D01*
X0274917Y0276031D01*
X0274915Y0275884D01*
X0274909Y0275738D01*
X0274899Y0275592D01*
X0274885Y0275446D01*
X0274867Y0275300D01*
X0274846Y0275155D01*
X0274820Y0275011D01*
X0274790Y0274867D01*
X0274757Y0274725D01*
X0274720Y0274583D01*
X0274679Y0274442D01*
X0274634Y0274303D01*
X0274585Y0274164D01*
X0274533Y0274027D01*
X0274476Y0273892D01*
X0274417Y0273758D01*
X0274353Y0273626D01*
X0274286Y0273496D01*
X0274216Y0273367D01*
X0274142Y0273240D01*
X0274065Y0273116D01*
X0273984Y0272993D01*
X0273900Y0272873D01*
X0273813Y0272755D01*
X0273723Y0272640D01*
X0273630Y0272527D01*
X0273533Y0272416D01*
X0273434Y0272308D01*
X0273332Y0272203D01*
X0273227Y0272101D01*
X0273119Y0272002D01*
X0273008Y0271905D01*
X0272895Y0271812D01*
X0272780Y0271722D01*
X0272662Y0271635D01*
X0272542Y0271551D01*
X0272419Y0271470D01*
X0272295Y0271393D01*
X0272168Y0271319D01*
X0272039Y0271249D01*
X0271909Y0271182D01*
X0271777Y0271118D01*
X0271643Y0271059D01*
X0271508Y0271002D01*
X0271371Y0270950D01*
X0271232Y0270901D01*
X0271093Y0270856D01*
X0270952Y0270815D01*
X0270810Y0270778D01*
X0270668Y0270745D01*
X0270524Y0270715D01*
X0270380Y0270689D01*
X0270235Y0270668D01*
X0270089Y0270650D01*
X0269943Y0270636D01*
X0269797Y0270626D01*
X0269651Y0270620D01*
X0269504Y0270618D01*
X0269357Y0270620D01*
X0269211Y0270626D01*
X0269065Y0270636D01*
X0268919Y0270650D01*
X0268773Y0270668D01*
X0268628Y0270689D01*
X0268484Y0270715D01*
X0268340Y0270745D01*
X0268198Y0270778D01*
X0268056Y0270815D01*
X0267915Y0270856D01*
X0267776Y0270901D01*
X0267637Y0270950D01*
X0267500Y0271002D01*
X0267365Y0271059D01*
X0267231Y0271118D01*
X0267099Y0271182D01*
X0266969Y0271249D01*
X0266840Y0271319D01*
X0266713Y0271393D01*
X0266589Y0271470D01*
X0266466Y0271551D01*
X0266346Y0271635D01*
X0266228Y0271722D01*
X0266113Y0271812D01*
X0266000Y0271905D01*
X0265889Y0272002D01*
X0265781Y0272101D01*
X0265676Y0272203D01*
X0265574Y0272308D01*
X0265475Y0272416D01*
X0265378Y0272527D01*
X0265285Y0272640D01*
X0265195Y0272755D01*
X0265108Y0272873D01*
X0265024Y0272993D01*
X0264943Y0273116D01*
X0264866Y0273240D01*
X0264792Y0273367D01*
X0264722Y0273496D01*
X0264655Y0273626D01*
X0264591Y0273758D01*
X0264532Y0273892D01*
X0264475Y0274027D01*
X0264423Y0274164D01*
X0264374Y0274303D01*
X0264329Y0274442D01*
X0264288Y0274583D01*
X0264251Y0274725D01*
X0264218Y0274867D01*
X0264188Y0275011D01*
X0264162Y0275155D01*
X0264141Y0275300D01*
X0264123Y0275446D01*
X0264109Y0275592D01*
X0264099Y0275738D01*
X0264093Y0275884D01*
X0264091Y0276031D01*
X0189288Y0263236D02*
X0189290Y0263383D01*
X0189296Y0263529D01*
X0189306Y0263675D01*
X0189320Y0263821D01*
X0189338Y0263967D01*
X0189359Y0264112D01*
X0189385Y0264256D01*
X0189415Y0264400D01*
X0189448Y0264542D01*
X0189485Y0264684D01*
X0189526Y0264825D01*
X0189571Y0264964D01*
X0189620Y0265103D01*
X0189672Y0265240D01*
X0189729Y0265375D01*
X0189788Y0265509D01*
X0189852Y0265641D01*
X0189919Y0265771D01*
X0189989Y0265900D01*
X0190063Y0266027D01*
X0190140Y0266151D01*
X0190221Y0266274D01*
X0190305Y0266394D01*
X0190392Y0266512D01*
X0190482Y0266627D01*
X0190575Y0266740D01*
X0190672Y0266851D01*
X0190771Y0266959D01*
X0190873Y0267064D01*
X0190978Y0267166D01*
X0191086Y0267265D01*
X0191197Y0267362D01*
X0191310Y0267455D01*
X0191425Y0267545D01*
X0191543Y0267632D01*
X0191663Y0267716D01*
X0191786Y0267797D01*
X0191910Y0267874D01*
X0192037Y0267948D01*
X0192166Y0268018D01*
X0192296Y0268085D01*
X0192428Y0268149D01*
X0192562Y0268208D01*
X0192697Y0268265D01*
X0192834Y0268317D01*
X0192973Y0268366D01*
X0193112Y0268411D01*
X0193253Y0268452D01*
X0193395Y0268489D01*
X0193537Y0268522D01*
X0193681Y0268552D01*
X0193825Y0268578D01*
X0193970Y0268599D01*
X0194116Y0268617D01*
X0194262Y0268631D01*
X0194408Y0268641D01*
X0194554Y0268647D01*
X0194701Y0268649D01*
X0194848Y0268647D01*
X0194994Y0268641D01*
X0195140Y0268631D01*
X0195286Y0268617D01*
X0195432Y0268599D01*
X0195577Y0268578D01*
X0195721Y0268552D01*
X0195865Y0268522D01*
X0196007Y0268489D01*
X0196149Y0268452D01*
X0196290Y0268411D01*
X0196429Y0268366D01*
X0196568Y0268317D01*
X0196705Y0268265D01*
X0196840Y0268208D01*
X0196974Y0268149D01*
X0197106Y0268085D01*
X0197236Y0268018D01*
X0197365Y0267948D01*
X0197492Y0267874D01*
X0197616Y0267797D01*
X0197739Y0267716D01*
X0197859Y0267632D01*
X0197977Y0267545D01*
X0198092Y0267455D01*
X0198205Y0267362D01*
X0198316Y0267265D01*
X0198424Y0267166D01*
X0198529Y0267064D01*
X0198631Y0266959D01*
X0198730Y0266851D01*
X0198827Y0266740D01*
X0198920Y0266627D01*
X0199010Y0266512D01*
X0199097Y0266394D01*
X0199181Y0266274D01*
X0199262Y0266151D01*
X0199339Y0266027D01*
X0199413Y0265900D01*
X0199483Y0265771D01*
X0199550Y0265641D01*
X0199614Y0265509D01*
X0199673Y0265375D01*
X0199730Y0265240D01*
X0199782Y0265103D01*
X0199831Y0264964D01*
X0199876Y0264825D01*
X0199917Y0264684D01*
X0199954Y0264542D01*
X0199987Y0264400D01*
X0200017Y0264256D01*
X0200043Y0264112D01*
X0200064Y0263967D01*
X0200082Y0263821D01*
X0200096Y0263675D01*
X0200106Y0263529D01*
X0200112Y0263383D01*
X0200114Y0263236D01*
X0200112Y0263089D01*
X0200106Y0262943D01*
X0200096Y0262797D01*
X0200082Y0262651D01*
X0200064Y0262505D01*
X0200043Y0262360D01*
X0200017Y0262216D01*
X0199987Y0262072D01*
X0199954Y0261930D01*
X0199917Y0261788D01*
X0199876Y0261647D01*
X0199831Y0261508D01*
X0199782Y0261369D01*
X0199730Y0261232D01*
X0199673Y0261097D01*
X0199614Y0260963D01*
X0199550Y0260831D01*
X0199483Y0260701D01*
X0199413Y0260572D01*
X0199339Y0260445D01*
X0199262Y0260321D01*
X0199181Y0260198D01*
X0199097Y0260078D01*
X0199010Y0259960D01*
X0198920Y0259845D01*
X0198827Y0259732D01*
X0198730Y0259621D01*
X0198631Y0259513D01*
X0198529Y0259408D01*
X0198424Y0259306D01*
X0198316Y0259207D01*
X0198205Y0259110D01*
X0198092Y0259017D01*
X0197977Y0258927D01*
X0197859Y0258840D01*
X0197739Y0258756D01*
X0197616Y0258675D01*
X0197492Y0258598D01*
X0197365Y0258524D01*
X0197236Y0258454D01*
X0197106Y0258387D01*
X0196974Y0258323D01*
X0196840Y0258264D01*
X0196705Y0258207D01*
X0196568Y0258155D01*
X0196429Y0258106D01*
X0196290Y0258061D01*
X0196149Y0258020D01*
X0196007Y0257983D01*
X0195865Y0257950D01*
X0195721Y0257920D01*
X0195577Y0257894D01*
X0195432Y0257873D01*
X0195286Y0257855D01*
X0195140Y0257841D01*
X0194994Y0257831D01*
X0194848Y0257825D01*
X0194701Y0257823D01*
X0194554Y0257825D01*
X0194408Y0257831D01*
X0194262Y0257841D01*
X0194116Y0257855D01*
X0193970Y0257873D01*
X0193825Y0257894D01*
X0193681Y0257920D01*
X0193537Y0257950D01*
X0193395Y0257983D01*
X0193253Y0258020D01*
X0193112Y0258061D01*
X0192973Y0258106D01*
X0192834Y0258155D01*
X0192697Y0258207D01*
X0192562Y0258264D01*
X0192428Y0258323D01*
X0192296Y0258387D01*
X0192166Y0258454D01*
X0192037Y0258524D01*
X0191910Y0258598D01*
X0191786Y0258675D01*
X0191663Y0258756D01*
X0191543Y0258840D01*
X0191425Y0258927D01*
X0191310Y0259017D01*
X0191197Y0259110D01*
X0191086Y0259207D01*
X0190978Y0259306D01*
X0190873Y0259408D01*
X0190771Y0259513D01*
X0190672Y0259621D01*
X0190575Y0259732D01*
X0190482Y0259845D01*
X0190392Y0259960D01*
X0190305Y0260078D01*
X0190221Y0260198D01*
X0190140Y0260321D01*
X0190063Y0260445D01*
X0189989Y0260572D01*
X0189919Y0260701D01*
X0189852Y0260831D01*
X0189788Y0260963D01*
X0189729Y0261097D01*
X0189672Y0261232D01*
X0189620Y0261369D01*
X0189571Y0261508D01*
X0189526Y0261647D01*
X0189485Y0261788D01*
X0189448Y0261930D01*
X0189415Y0262072D01*
X0189385Y0262216D01*
X0189359Y0262360D01*
X0189338Y0262505D01*
X0189320Y0262651D01*
X0189306Y0262797D01*
X0189296Y0262943D01*
X0189290Y0263089D01*
X0189288Y0263236D01*
X0046768Y0263236D02*
X0046770Y0263383D01*
X0046776Y0263529D01*
X0046786Y0263675D01*
X0046800Y0263821D01*
X0046818Y0263967D01*
X0046839Y0264112D01*
X0046865Y0264256D01*
X0046895Y0264400D01*
X0046928Y0264542D01*
X0046965Y0264684D01*
X0047006Y0264825D01*
X0047051Y0264964D01*
X0047100Y0265103D01*
X0047152Y0265240D01*
X0047209Y0265375D01*
X0047268Y0265509D01*
X0047332Y0265641D01*
X0047399Y0265771D01*
X0047469Y0265900D01*
X0047543Y0266027D01*
X0047620Y0266151D01*
X0047701Y0266274D01*
X0047785Y0266394D01*
X0047872Y0266512D01*
X0047962Y0266627D01*
X0048055Y0266740D01*
X0048152Y0266851D01*
X0048251Y0266959D01*
X0048353Y0267064D01*
X0048458Y0267166D01*
X0048566Y0267265D01*
X0048677Y0267362D01*
X0048790Y0267455D01*
X0048905Y0267545D01*
X0049023Y0267632D01*
X0049143Y0267716D01*
X0049266Y0267797D01*
X0049390Y0267874D01*
X0049517Y0267948D01*
X0049646Y0268018D01*
X0049776Y0268085D01*
X0049908Y0268149D01*
X0050042Y0268208D01*
X0050177Y0268265D01*
X0050314Y0268317D01*
X0050453Y0268366D01*
X0050592Y0268411D01*
X0050733Y0268452D01*
X0050875Y0268489D01*
X0051017Y0268522D01*
X0051161Y0268552D01*
X0051305Y0268578D01*
X0051450Y0268599D01*
X0051596Y0268617D01*
X0051742Y0268631D01*
X0051888Y0268641D01*
X0052034Y0268647D01*
X0052181Y0268649D01*
X0052328Y0268647D01*
X0052474Y0268641D01*
X0052620Y0268631D01*
X0052766Y0268617D01*
X0052912Y0268599D01*
X0053057Y0268578D01*
X0053201Y0268552D01*
X0053345Y0268522D01*
X0053487Y0268489D01*
X0053629Y0268452D01*
X0053770Y0268411D01*
X0053909Y0268366D01*
X0054048Y0268317D01*
X0054185Y0268265D01*
X0054320Y0268208D01*
X0054454Y0268149D01*
X0054586Y0268085D01*
X0054716Y0268018D01*
X0054845Y0267948D01*
X0054972Y0267874D01*
X0055096Y0267797D01*
X0055219Y0267716D01*
X0055339Y0267632D01*
X0055457Y0267545D01*
X0055572Y0267455D01*
X0055685Y0267362D01*
X0055796Y0267265D01*
X0055904Y0267166D01*
X0056009Y0267064D01*
X0056111Y0266959D01*
X0056210Y0266851D01*
X0056307Y0266740D01*
X0056400Y0266627D01*
X0056490Y0266512D01*
X0056577Y0266394D01*
X0056661Y0266274D01*
X0056742Y0266151D01*
X0056819Y0266027D01*
X0056893Y0265900D01*
X0056963Y0265771D01*
X0057030Y0265641D01*
X0057094Y0265509D01*
X0057153Y0265375D01*
X0057210Y0265240D01*
X0057262Y0265103D01*
X0057311Y0264964D01*
X0057356Y0264825D01*
X0057397Y0264684D01*
X0057434Y0264542D01*
X0057467Y0264400D01*
X0057497Y0264256D01*
X0057523Y0264112D01*
X0057544Y0263967D01*
X0057562Y0263821D01*
X0057576Y0263675D01*
X0057586Y0263529D01*
X0057592Y0263383D01*
X0057594Y0263236D01*
X0057592Y0263089D01*
X0057586Y0262943D01*
X0057576Y0262797D01*
X0057562Y0262651D01*
X0057544Y0262505D01*
X0057523Y0262360D01*
X0057497Y0262216D01*
X0057467Y0262072D01*
X0057434Y0261930D01*
X0057397Y0261788D01*
X0057356Y0261647D01*
X0057311Y0261508D01*
X0057262Y0261369D01*
X0057210Y0261232D01*
X0057153Y0261097D01*
X0057094Y0260963D01*
X0057030Y0260831D01*
X0056963Y0260701D01*
X0056893Y0260572D01*
X0056819Y0260445D01*
X0056742Y0260321D01*
X0056661Y0260198D01*
X0056577Y0260078D01*
X0056490Y0259960D01*
X0056400Y0259845D01*
X0056307Y0259732D01*
X0056210Y0259621D01*
X0056111Y0259513D01*
X0056009Y0259408D01*
X0055904Y0259306D01*
X0055796Y0259207D01*
X0055685Y0259110D01*
X0055572Y0259017D01*
X0055457Y0258927D01*
X0055339Y0258840D01*
X0055219Y0258756D01*
X0055096Y0258675D01*
X0054972Y0258598D01*
X0054845Y0258524D01*
X0054716Y0258454D01*
X0054586Y0258387D01*
X0054454Y0258323D01*
X0054320Y0258264D01*
X0054185Y0258207D01*
X0054048Y0258155D01*
X0053909Y0258106D01*
X0053770Y0258061D01*
X0053629Y0258020D01*
X0053487Y0257983D01*
X0053345Y0257950D01*
X0053201Y0257920D01*
X0053057Y0257894D01*
X0052912Y0257873D01*
X0052766Y0257855D01*
X0052620Y0257841D01*
X0052474Y0257831D01*
X0052328Y0257825D01*
X0052181Y0257823D01*
X0052034Y0257825D01*
X0051888Y0257831D01*
X0051742Y0257841D01*
X0051596Y0257855D01*
X0051450Y0257873D01*
X0051305Y0257894D01*
X0051161Y0257920D01*
X0051017Y0257950D01*
X0050875Y0257983D01*
X0050733Y0258020D01*
X0050592Y0258061D01*
X0050453Y0258106D01*
X0050314Y0258155D01*
X0050177Y0258207D01*
X0050042Y0258264D01*
X0049908Y0258323D01*
X0049776Y0258387D01*
X0049646Y0258454D01*
X0049517Y0258524D01*
X0049390Y0258598D01*
X0049266Y0258675D01*
X0049143Y0258756D01*
X0049023Y0258840D01*
X0048905Y0258927D01*
X0048790Y0259017D01*
X0048677Y0259110D01*
X0048566Y0259207D01*
X0048458Y0259306D01*
X0048353Y0259408D01*
X0048251Y0259513D01*
X0048152Y0259621D01*
X0048055Y0259732D01*
X0047962Y0259845D01*
X0047872Y0259960D01*
X0047785Y0260078D01*
X0047701Y0260198D01*
X0047620Y0260321D01*
X0047543Y0260445D01*
X0047469Y0260572D01*
X0047399Y0260701D01*
X0047332Y0260831D01*
X0047268Y0260963D01*
X0047209Y0261097D01*
X0047152Y0261232D01*
X0047100Y0261369D01*
X0047051Y0261508D01*
X0047006Y0261647D01*
X0046965Y0261788D01*
X0046928Y0261930D01*
X0046895Y0262072D01*
X0046865Y0262216D01*
X0046839Y0262360D01*
X0046818Y0262505D01*
X0046800Y0262651D01*
X0046786Y0262797D01*
X0046776Y0262943D01*
X0046770Y0263089D01*
X0046768Y0263236D01*
D11*
X0052181Y0263236D03*
X0194701Y0263236D03*
X0269504Y0276031D03*
X0462417Y0276031D03*
X0194701Y0066386D03*
X0269504Y0047685D03*
X0462417Y0047685D03*
X0052181Y0066386D03*
D12*
X0225606Y0066386D02*
X0225608Y0066511D01*
X0225614Y0066636D01*
X0225624Y0066760D01*
X0225638Y0066884D01*
X0225655Y0067008D01*
X0225677Y0067131D01*
X0225703Y0067253D01*
X0225732Y0067375D01*
X0225765Y0067495D01*
X0225803Y0067614D01*
X0225843Y0067733D01*
X0225888Y0067849D01*
X0225936Y0067964D01*
X0225988Y0068078D01*
X0226044Y0068190D01*
X0226103Y0068300D01*
X0226165Y0068408D01*
X0226231Y0068515D01*
X0226300Y0068619D01*
X0226373Y0068720D01*
X0226448Y0068820D01*
X0226527Y0068917D01*
X0226609Y0069011D01*
X0226694Y0069103D01*
X0226781Y0069192D01*
X0226872Y0069278D01*
X0226965Y0069361D01*
X0227061Y0069442D01*
X0227159Y0069519D01*
X0227259Y0069593D01*
X0227362Y0069664D01*
X0227467Y0069731D01*
X0227575Y0069796D01*
X0227684Y0069856D01*
X0227795Y0069914D01*
X0227908Y0069967D01*
X0228022Y0070017D01*
X0228138Y0070064D01*
X0228255Y0070106D01*
X0228374Y0070145D01*
X0228494Y0070181D01*
X0228615Y0070212D01*
X0228737Y0070240D01*
X0228859Y0070263D01*
X0228983Y0070283D01*
X0229107Y0070299D01*
X0229231Y0070311D01*
X0229356Y0070319D01*
X0229481Y0070323D01*
X0229605Y0070323D01*
X0229730Y0070319D01*
X0229855Y0070311D01*
X0229979Y0070299D01*
X0230103Y0070283D01*
X0230227Y0070263D01*
X0230349Y0070240D01*
X0230471Y0070212D01*
X0230592Y0070181D01*
X0230712Y0070145D01*
X0230831Y0070106D01*
X0230948Y0070064D01*
X0231064Y0070017D01*
X0231178Y0069967D01*
X0231291Y0069914D01*
X0231402Y0069856D01*
X0231512Y0069796D01*
X0231619Y0069731D01*
X0231724Y0069664D01*
X0231827Y0069593D01*
X0231927Y0069519D01*
X0232025Y0069442D01*
X0232121Y0069361D01*
X0232214Y0069278D01*
X0232305Y0069192D01*
X0232392Y0069103D01*
X0232477Y0069011D01*
X0232559Y0068917D01*
X0232638Y0068820D01*
X0232713Y0068720D01*
X0232786Y0068619D01*
X0232855Y0068515D01*
X0232921Y0068408D01*
X0232983Y0068300D01*
X0233042Y0068190D01*
X0233098Y0068078D01*
X0233150Y0067964D01*
X0233198Y0067849D01*
X0233243Y0067733D01*
X0233283Y0067614D01*
X0233321Y0067495D01*
X0233354Y0067375D01*
X0233383Y0067253D01*
X0233409Y0067131D01*
X0233431Y0067008D01*
X0233448Y0066884D01*
X0233462Y0066760D01*
X0233472Y0066636D01*
X0233478Y0066511D01*
X0233480Y0066386D01*
X0233478Y0066261D01*
X0233472Y0066136D01*
X0233462Y0066012D01*
X0233448Y0065888D01*
X0233431Y0065764D01*
X0233409Y0065641D01*
X0233383Y0065519D01*
X0233354Y0065397D01*
X0233321Y0065277D01*
X0233283Y0065158D01*
X0233243Y0065039D01*
X0233198Y0064923D01*
X0233150Y0064808D01*
X0233098Y0064694D01*
X0233042Y0064582D01*
X0232983Y0064472D01*
X0232921Y0064364D01*
X0232855Y0064257D01*
X0232786Y0064153D01*
X0232713Y0064052D01*
X0232638Y0063952D01*
X0232559Y0063855D01*
X0232477Y0063761D01*
X0232392Y0063669D01*
X0232305Y0063580D01*
X0232214Y0063494D01*
X0232121Y0063411D01*
X0232025Y0063330D01*
X0231927Y0063253D01*
X0231827Y0063179D01*
X0231724Y0063108D01*
X0231619Y0063041D01*
X0231511Y0062976D01*
X0231402Y0062916D01*
X0231291Y0062858D01*
X0231178Y0062805D01*
X0231064Y0062755D01*
X0230948Y0062708D01*
X0230831Y0062666D01*
X0230712Y0062627D01*
X0230592Y0062591D01*
X0230471Y0062560D01*
X0230349Y0062532D01*
X0230227Y0062509D01*
X0230103Y0062489D01*
X0229979Y0062473D01*
X0229855Y0062461D01*
X0229730Y0062453D01*
X0229605Y0062449D01*
X0229481Y0062449D01*
X0229356Y0062453D01*
X0229231Y0062461D01*
X0229107Y0062473D01*
X0228983Y0062489D01*
X0228859Y0062509D01*
X0228737Y0062532D01*
X0228615Y0062560D01*
X0228494Y0062591D01*
X0228374Y0062627D01*
X0228255Y0062666D01*
X0228138Y0062708D01*
X0228022Y0062755D01*
X0227908Y0062805D01*
X0227795Y0062858D01*
X0227684Y0062916D01*
X0227574Y0062976D01*
X0227467Y0063041D01*
X0227362Y0063108D01*
X0227259Y0063179D01*
X0227159Y0063253D01*
X0227061Y0063330D01*
X0226965Y0063411D01*
X0226872Y0063494D01*
X0226781Y0063580D01*
X0226694Y0063669D01*
X0226609Y0063761D01*
X0226527Y0063855D01*
X0226448Y0063952D01*
X0226373Y0064052D01*
X0226300Y0064153D01*
X0226231Y0064257D01*
X0226165Y0064364D01*
X0226103Y0064472D01*
X0226044Y0064582D01*
X0225988Y0064694D01*
X0225936Y0064808D01*
X0225888Y0064923D01*
X0225843Y0065039D01*
X0225803Y0065158D01*
X0225765Y0065277D01*
X0225732Y0065397D01*
X0225703Y0065519D01*
X0225677Y0065641D01*
X0225655Y0065764D01*
X0225638Y0065888D01*
X0225624Y0066012D01*
X0225614Y0066136D01*
X0225608Y0066261D01*
X0225606Y0066386D01*
X0225606Y0086071D02*
X0225608Y0086196D01*
X0225614Y0086321D01*
X0225624Y0086445D01*
X0225638Y0086569D01*
X0225655Y0086693D01*
X0225677Y0086816D01*
X0225703Y0086938D01*
X0225732Y0087060D01*
X0225765Y0087180D01*
X0225803Y0087299D01*
X0225843Y0087418D01*
X0225888Y0087534D01*
X0225936Y0087649D01*
X0225988Y0087763D01*
X0226044Y0087875D01*
X0226103Y0087985D01*
X0226165Y0088093D01*
X0226231Y0088200D01*
X0226300Y0088304D01*
X0226373Y0088405D01*
X0226448Y0088505D01*
X0226527Y0088602D01*
X0226609Y0088696D01*
X0226694Y0088788D01*
X0226781Y0088877D01*
X0226872Y0088963D01*
X0226965Y0089046D01*
X0227061Y0089127D01*
X0227159Y0089204D01*
X0227259Y0089278D01*
X0227362Y0089349D01*
X0227467Y0089416D01*
X0227575Y0089481D01*
X0227684Y0089541D01*
X0227795Y0089599D01*
X0227908Y0089652D01*
X0228022Y0089702D01*
X0228138Y0089749D01*
X0228255Y0089791D01*
X0228374Y0089830D01*
X0228494Y0089866D01*
X0228615Y0089897D01*
X0228737Y0089925D01*
X0228859Y0089948D01*
X0228983Y0089968D01*
X0229107Y0089984D01*
X0229231Y0089996D01*
X0229356Y0090004D01*
X0229481Y0090008D01*
X0229605Y0090008D01*
X0229730Y0090004D01*
X0229855Y0089996D01*
X0229979Y0089984D01*
X0230103Y0089968D01*
X0230227Y0089948D01*
X0230349Y0089925D01*
X0230471Y0089897D01*
X0230592Y0089866D01*
X0230712Y0089830D01*
X0230831Y0089791D01*
X0230948Y0089749D01*
X0231064Y0089702D01*
X0231178Y0089652D01*
X0231291Y0089599D01*
X0231402Y0089541D01*
X0231512Y0089481D01*
X0231619Y0089416D01*
X0231724Y0089349D01*
X0231827Y0089278D01*
X0231927Y0089204D01*
X0232025Y0089127D01*
X0232121Y0089046D01*
X0232214Y0088963D01*
X0232305Y0088877D01*
X0232392Y0088788D01*
X0232477Y0088696D01*
X0232559Y0088602D01*
X0232638Y0088505D01*
X0232713Y0088405D01*
X0232786Y0088304D01*
X0232855Y0088200D01*
X0232921Y0088093D01*
X0232983Y0087985D01*
X0233042Y0087875D01*
X0233098Y0087763D01*
X0233150Y0087649D01*
X0233198Y0087534D01*
X0233243Y0087418D01*
X0233283Y0087299D01*
X0233321Y0087180D01*
X0233354Y0087060D01*
X0233383Y0086938D01*
X0233409Y0086816D01*
X0233431Y0086693D01*
X0233448Y0086569D01*
X0233462Y0086445D01*
X0233472Y0086321D01*
X0233478Y0086196D01*
X0233480Y0086071D01*
X0233478Y0085946D01*
X0233472Y0085821D01*
X0233462Y0085697D01*
X0233448Y0085573D01*
X0233431Y0085449D01*
X0233409Y0085326D01*
X0233383Y0085204D01*
X0233354Y0085082D01*
X0233321Y0084962D01*
X0233283Y0084843D01*
X0233243Y0084724D01*
X0233198Y0084608D01*
X0233150Y0084493D01*
X0233098Y0084379D01*
X0233042Y0084267D01*
X0232983Y0084157D01*
X0232921Y0084049D01*
X0232855Y0083942D01*
X0232786Y0083838D01*
X0232713Y0083737D01*
X0232638Y0083637D01*
X0232559Y0083540D01*
X0232477Y0083446D01*
X0232392Y0083354D01*
X0232305Y0083265D01*
X0232214Y0083179D01*
X0232121Y0083096D01*
X0232025Y0083015D01*
X0231927Y0082938D01*
X0231827Y0082864D01*
X0231724Y0082793D01*
X0231619Y0082726D01*
X0231511Y0082661D01*
X0231402Y0082601D01*
X0231291Y0082543D01*
X0231178Y0082490D01*
X0231064Y0082440D01*
X0230948Y0082393D01*
X0230831Y0082351D01*
X0230712Y0082312D01*
X0230592Y0082276D01*
X0230471Y0082245D01*
X0230349Y0082217D01*
X0230227Y0082194D01*
X0230103Y0082174D01*
X0229979Y0082158D01*
X0229855Y0082146D01*
X0229730Y0082138D01*
X0229605Y0082134D01*
X0229481Y0082134D01*
X0229356Y0082138D01*
X0229231Y0082146D01*
X0229107Y0082158D01*
X0228983Y0082174D01*
X0228859Y0082194D01*
X0228737Y0082217D01*
X0228615Y0082245D01*
X0228494Y0082276D01*
X0228374Y0082312D01*
X0228255Y0082351D01*
X0228138Y0082393D01*
X0228022Y0082440D01*
X0227908Y0082490D01*
X0227795Y0082543D01*
X0227684Y0082601D01*
X0227574Y0082661D01*
X0227467Y0082726D01*
X0227362Y0082793D01*
X0227259Y0082864D01*
X0227159Y0082938D01*
X0227061Y0083015D01*
X0226965Y0083096D01*
X0226872Y0083179D01*
X0226781Y0083265D01*
X0226694Y0083354D01*
X0226609Y0083446D01*
X0226527Y0083540D01*
X0226448Y0083637D01*
X0226373Y0083737D01*
X0226300Y0083838D01*
X0226231Y0083942D01*
X0226165Y0084049D01*
X0226103Y0084157D01*
X0226044Y0084267D01*
X0225988Y0084379D01*
X0225936Y0084493D01*
X0225888Y0084608D01*
X0225843Y0084724D01*
X0225803Y0084843D01*
X0225765Y0084962D01*
X0225732Y0085082D01*
X0225703Y0085204D01*
X0225677Y0085326D01*
X0225655Y0085449D01*
X0225638Y0085573D01*
X0225624Y0085697D01*
X0225614Y0085821D01*
X0225608Y0085946D01*
X0225606Y0086071D01*
X0225606Y0125441D02*
X0225608Y0125566D01*
X0225614Y0125691D01*
X0225624Y0125815D01*
X0225638Y0125939D01*
X0225655Y0126063D01*
X0225677Y0126186D01*
X0225703Y0126308D01*
X0225732Y0126430D01*
X0225765Y0126550D01*
X0225803Y0126669D01*
X0225843Y0126788D01*
X0225888Y0126904D01*
X0225936Y0127019D01*
X0225988Y0127133D01*
X0226044Y0127245D01*
X0226103Y0127355D01*
X0226165Y0127463D01*
X0226231Y0127570D01*
X0226300Y0127674D01*
X0226373Y0127775D01*
X0226448Y0127875D01*
X0226527Y0127972D01*
X0226609Y0128066D01*
X0226694Y0128158D01*
X0226781Y0128247D01*
X0226872Y0128333D01*
X0226965Y0128416D01*
X0227061Y0128497D01*
X0227159Y0128574D01*
X0227259Y0128648D01*
X0227362Y0128719D01*
X0227467Y0128786D01*
X0227575Y0128851D01*
X0227684Y0128911D01*
X0227795Y0128969D01*
X0227908Y0129022D01*
X0228022Y0129072D01*
X0228138Y0129119D01*
X0228255Y0129161D01*
X0228374Y0129200D01*
X0228494Y0129236D01*
X0228615Y0129267D01*
X0228737Y0129295D01*
X0228859Y0129318D01*
X0228983Y0129338D01*
X0229107Y0129354D01*
X0229231Y0129366D01*
X0229356Y0129374D01*
X0229481Y0129378D01*
X0229605Y0129378D01*
X0229730Y0129374D01*
X0229855Y0129366D01*
X0229979Y0129354D01*
X0230103Y0129338D01*
X0230227Y0129318D01*
X0230349Y0129295D01*
X0230471Y0129267D01*
X0230592Y0129236D01*
X0230712Y0129200D01*
X0230831Y0129161D01*
X0230948Y0129119D01*
X0231064Y0129072D01*
X0231178Y0129022D01*
X0231291Y0128969D01*
X0231402Y0128911D01*
X0231512Y0128851D01*
X0231619Y0128786D01*
X0231724Y0128719D01*
X0231827Y0128648D01*
X0231927Y0128574D01*
X0232025Y0128497D01*
X0232121Y0128416D01*
X0232214Y0128333D01*
X0232305Y0128247D01*
X0232392Y0128158D01*
X0232477Y0128066D01*
X0232559Y0127972D01*
X0232638Y0127875D01*
X0232713Y0127775D01*
X0232786Y0127674D01*
X0232855Y0127570D01*
X0232921Y0127463D01*
X0232983Y0127355D01*
X0233042Y0127245D01*
X0233098Y0127133D01*
X0233150Y0127019D01*
X0233198Y0126904D01*
X0233243Y0126788D01*
X0233283Y0126669D01*
X0233321Y0126550D01*
X0233354Y0126430D01*
X0233383Y0126308D01*
X0233409Y0126186D01*
X0233431Y0126063D01*
X0233448Y0125939D01*
X0233462Y0125815D01*
X0233472Y0125691D01*
X0233478Y0125566D01*
X0233480Y0125441D01*
X0233478Y0125316D01*
X0233472Y0125191D01*
X0233462Y0125067D01*
X0233448Y0124943D01*
X0233431Y0124819D01*
X0233409Y0124696D01*
X0233383Y0124574D01*
X0233354Y0124452D01*
X0233321Y0124332D01*
X0233283Y0124213D01*
X0233243Y0124094D01*
X0233198Y0123978D01*
X0233150Y0123863D01*
X0233098Y0123749D01*
X0233042Y0123637D01*
X0232983Y0123527D01*
X0232921Y0123419D01*
X0232855Y0123312D01*
X0232786Y0123208D01*
X0232713Y0123107D01*
X0232638Y0123007D01*
X0232559Y0122910D01*
X0232477Y0122816D01*
X0232392Y0122724D01*
X0232305Y0122635D01*
X0232214Y0122549D01*
X0232121Y0122466D01*
X0232025Y0122385D01*
X0231927Y0122308D01*
X0231827Y0122234D01*
X0231724Y0122163D01*
X0231619Y0122096D01*
X0231511Y0122031D01*
X0231402Y0121971D01*
X0231291Y0121913D01*
X0231178Y0121860D01*
X0231064Y0121810D01*
X0230948Y0121763D01*
X0230831Y0121721D01*
X0230712Y0121682D01*
X0230592Y0121646D01*
X0230471Y0121615D01*
X0230349Y0121587D01*
X0230227Y0121564D01*
X0230103Y0121544D01*
X0229979Y0121528D01*
X0229855Y0121516D01*
X0229730Y0121508D01*
X0229605Y0121504D01*
X0229481Y0121504D01*
X0229356Y0121508D01*
X0229231Y0121516D01*
X0229107Y0121528D01*
X0228983Y0121544D01*
X0228859Y0121564D01*
X0228737Y0121587D01*
X0228615Y0121615D01*
X0228494Y0121646D01*
X0228374Y0121682D01*
X0228255Y0121721D01*
X0228138Y0121763D01*
X0228022Y0121810D01*
X0227908Y0121860D01*
X0227795Y0121913D01*
X0227684Y0121971D01*
X0227574Y0122031D01*
X0227467Y0122096D01*
X0227362Y0122163D01*
X0227259Y0122234D01*
X0227159Y0122308D01*
X0227061Y0122385D01*
X0226965Y0122466D01*
X0226872Y0122549D01*
X0226781Y0122635D01*
X0226694Y0122724D01*
X0226609Y0122816D01*
X0226527Y0122910D01*
X0226448Y0123007D01*
X0226373Y0123107D01*
X0226300Y0123208D01*
X0226231Y0123312D01*
X0226165Y0123419D01*
X0226103Y0123527D01*
X0226044Y0123637D01*
X0225988Y0123749D01*
X0225936Y0123863D01*
X0225888Y0123978D01*
X0225843Y0124094D01*
X0225803Y0124213D01*
X0225765Y0124332D01*
X0225732Y0124452D01*
X0225703Y0124574D01*
X0225677Y0124696D01*
X0225655Y0124819D01*
X0225638Y0124943D01*
X0225624Y0125067D01*
X0225614Y0125191D01*
X0225608Y0125316D01*
X0225606Y0125441D01*
X0225606Y0145126D02*
X0225608Y0145251D01*
X0225614Y0145376D01*
X0225624Y0145500D01*
X0225638Y0145624D01*
X0225655Y0145748D01*
X0225677Y0145871D01*
X0225703Y0145993D01*
X0225732Y0146115D01*
X0225765Y0146235D01*
X0225803Y0146354D01*
X0225843Y0146473D01*
X0225888Y0146589D01*
X0225936Y0146704D01*
X0225988Y0146818D01*
X0226044Y0146930D01*
X0226103Y0147040D01*
X0226165Y0147148D01*
X0226231Y0147255D01*
X0226300Y0147359D01*
X0226373Y0147460D01*
X0226448Y0147560D01*
X0226527Y0147657D01*
X0226609Y0147751D01*
X0226694Y0147843D01*
X0226781Y0147932D01*
X0226872Y0148018D01*
X0226965Y0148101D01*
X0227061Y0148182D01*
X0227159Y0148259D01*
X0227259Y0148333D01*
X0227362Y0148404D01*
X0227467Y0148471D01*
X0227575Y0148536D01*
X0227684Y0148596D01*
X0227795Y0148654D01*
X0227908Y0148707D01*
X0228022Y0148757D01*
X0228138Y0148804D01*
X0228255Y0148846D01*
X0228374Y0148885D01*
X0228494Y0148921D01*
X0228615Y0148952D01*
X0228737Y0148980D01*
X0228859Y0149003D01*
X0228983Y0149023D01*
X0229107Y0149039D01*
X0229231Y0149051D01*
X0229356Y0149059D01*
X0229481Y0149063D01*
X0229605Y0149063D01*
X0229730Y0149059D01*
X0229855Y0149051D01*
X0229979Y0149039D01*
X0230103Y0149023D01*
X0230227Y0149003D01*
X0230349Y0148980D01*
X0230471Y0148952D01*
X0230592Y0148921D01*
X0230712Y0148885D01*
X0230831Y0148846D01*
X0230948Y0148804D01*
X0231064Y0148757D01*
X0231178Y0148707D01*
X0231291Y0148654D01*
X0231402Y0148596D01*
X0231512Y0148536D01*
X0231619Y0148471D01*
X0231724Y0148404D01*
X0231827Y0148333D01*
X0231927Y0148259D01*
X0232025Y0148182D01*
X0232121Y0148101D01*
X0232214Y0148018D01*
X0232305Y0147932D01*
X0232392Y0147843D01*
X0232477Y0147751D01*
X0232559Y0147657D01*
X0232638Y0147560D01*
X0232713Y0147460D01*
X0232786Y0147359D01*
X0232855Y0147255D01*
X0232921Y0147148D01*
X0232983Y0147040D01*
X0233042Y0146930D01*
X0233098Y0146818D01*
X0233150Y0146704D01*
X0233198Y0146589D01*
X0233243Y0146473D01*
X0233283Y0146354D01*
X0233321Y0146235D01*
X0233354Y0146115D01*
X0233383Y0145993D01*
X0233409Y0145871D01*
X0233431Y0145748D01*
X0233448Y0145624D01*
X0233462Y0145500D01*
X0233472Y0145376D01*
X0233478Y0145251D01*
X0233480Y0145126D01*
X0233478Y0145001D01*
X0233472Y0144876D01*
X0233462Y0144752D01*
X0233448Y0144628D01*
X0233431Y0144504D01*
X0233409Y0144381D01*
X0233383Y0144259D01*
X0233354Y0144137D01*
X0233321Y0144017D01*
X0233283Y0143898D01*
X0233243Y0143779D01*
X0233198Y0143663D01*
X0233150Y0143548D01*
X0233098Y0143434D01*
X0233042Y0143322D01*
X0232983Y0143212D01*
X0232921Y0143104D01*
X0232855Y0142997D01*
X0232786Y0142893D01*
X0232713Y0142792D01*
X0232638Y0142692D01*
X0232559Y0142595D01*
X0232477Y0142501D01*
X0232392Y0142409D01*
X0232305Y0142320D01*
X0232214Y0142234D01*
X0232121Y0142151D01*
X0232025Y0142070D01*
X0231927Y0141993D01*
X0231827Y0141919D01*
X0231724Y0141848D01*
X0231619Y0141781D01*
X0231511Y0141716D01*
X0231402Y0141656D01*
X0231291Y0141598D01*
X0231178Y0141545D01*
X0231064Y0141495D01*
X0230948Y0141448D01*
X0230831Y0141406D01*
X0230712Y0141367D01*
X0230592Y0141331D01*
X0230471Y0141300D01*
X0230349Y0141272D01*
X0230227Y0141249D01*
X0230103Y0141229D01*
X0229979Y0141213D01*
X0229855Y0141201D01*
X0229730Y0141193D01*
X0229605Y0141189D01*
X0229481Y0141189D01*
X0229356Y0141193D01*
X0229231Y0141201D01*
X0229107Y0141213D01*
X0228983Y0141229D01*
X0228859Y0141249D01*
X0228737Y0141272D01*
X0228615Y0141300D01*
X0228494Y0141331D01*
X0228374Y0141367D01*
X0228255Y0141406D01*
X0228138Y0141448D01*
X0228022Y0141495D01*
X0227908Y0141545D01*
X0227795Y0141598D01*
X0227684Y0141656D01*
X0227574Y0141716D01*
X0227467Y0141781D01*
X0227362Y0141848D01*
X0227259Y0141919D01*
X0227159Y0141993D01*
X0227061Y0142070D01*
X0226965Y0142151D01*
X0226872Y0142234D01*
X0226781Y0142320D01*
X0226694Y0142409D01*
X0226609Y0142501D01*
X0226527Y0142595D01*
X0226448Y0142692D01*
X0226373Y0142792D01*
X0226300Y0142893D01*
X0226231Y0142997D01*
X0226165Y0143104D01*
X0226103Y0143212D01*
X0226044Y0143322D01*
X0225988Y0143434D01*
X0225936Y0143548D01*
X0225888Y0143663D01*
X0225843Y0143779D01*
X0225803Y0143898D01*
X0225765Y0144017D01*
X0225732Y0144137D01*
X0225703Y0144259D01*
X0225677Y0144381D01*
X0225655Y0144504D01*
X0225638Y0144628D01*
X0225624Y0144752D01*
X0225614Y0144876D01*
X0225608Y0145001D01*
X0225606Y0145126D01*
X0225606Y0184496D02*
X0225608Y0184621D01*
X0225614Y0184746D01*
X0225624Y0184870D01*
X0225638Y0184994D01*
X0225655Y0185118D01*
X0225677Y0185241D01*
X0225703Y0185363D01*
X0225732Y0185485D01*
X0225765Y0185605D01*
X0225803Y0185724D01*
X0225843Y0185843D01*
X0225888Y0185959D01*
X0225936Y0186074D01*
X0225988Y0186188D01*
X0226044Y0186300D01*
X0226103Y0186410D01*
X0226165Y0186518D01*
X0226231Y0186625D01*
X0226300Y0186729D01*
X0226373Y0186830D01*
X0226448Y0186930D01*
X0226527Y0187027D01*
X0226609Y0187121D01*
X0226694Y0187213D01*
X0226781Y0187302D01*
X0226872Y0187388D01*
X0226965Y0187471D01*
X0227061Y0187552D01*
X0227159Y0187629D01*
X0227259Y0187703D01*
X0227362Y0187774D01*
X0227467Y0187841D01*
X0227575Y0187906D01*
X0227684Y0187966D01*
X0227795Y0188024D01*
X0227908Y0188077D01*
X0228022Y0188127D01*
X0228138Y0188174D01*
X0228255Y0188216D01*
X0228374Y0188255D01*
X0228494Y0188291D01*
X0228615Y0188322D01*
X0228737Y0188350D01*
X0228859Y0188373D01*
X0228983Y0188393D01*
X0229107Y0188409D01*
X0229231Y0188421D01*
X0229356Y0188429D01*
X0229481Y0188433D01*
X0229605Y0188433D01*
X0229730Y0188429D01*
X0229855Y0188421D01*
X0229979Y0188409D01*
X0230103Y0188393D01*
X0230227Y0188373D01*
X0230349Y0188350D01*
X0230471Y0188322D01*
X0230592Y0188291D01*
X0230712Y0188255D01*
X0230831Y0188216D01*
X0230948Y0188174D01*
X0231064Y0188127D01*
X0231178Y0188077D01*
X0231291Y0188024D01*
X0231402Y0187966D01*
X0231512Y0187906D01*
X0231619Y0187841D01*
X0231724Y0187774D01*
X0231827Y0187703D01*
X0231927Y0187629D01*
X0232025Y0187552D01*
X0232121Y0187471D01*
X0232214Y0187388D01*
X0232305Y0187302D01*
X0232392Y0187213D01*
X0232477Y0187121D01*
X0232559Y0187027D01*
X0232638Y0186930D01*
X0232713Y0186830D01*
X0232786Y0186729D01*
X0232855Y0186625D01*
X0232921Y0186518D01*
X0232983Y0186410D01*
X0233042Y0186300D01*
X0233098Y0186188D01*
X0233150Y0186074D01*
X0233198Y0185959D01*
X0233243Y0185843D01*
X0233283Y0185724D01*
X0233321Y0185605D01*
X0233354Y0185485D01*
X0233383Y0185363D01*
X0233409Y0185241D01*
X0233431Y0185118D01*
X0233448Y0184994D01*
X0233462Y0184870D01*
X0233472Y0184746D01*
X0233478Y0184621D01*
X0233480Y0184496D01*
X0233478Y0184371D01*
X0233472Y0184246D01*
X0233462Y0184122D01*
X0233448Y0183998D01*
X0233431Y0183874D01*
X0233409Y0183751D01*
X0233383Y0183629D01*
X0233354Y0183507D01*
X0233321Y0183387D01*
X0233283Y0183268D01*
X0233243Y0183149D01*
X0233198Y0183033D01*
X0233150Y0182918D01*
X0233098Y0182804D01*
X0233042Y0182692D01*
X0232983Y0182582D01*
X0232921Y0182474D01*
X0232855Y0182367D01*
X0232786Y0182263D01*
X0232713Y0182162D01*
X0232638Y0182062D01*
X0232559Y0181965D01*
X0232477Y0181871D01*
X0232392Y0181779D01*
X0232305Y0181690D01*
X0232214Y0181604D01*
X0232121Y0181521D01*
X0232025Y0181440D01*
X0231927Y0181363D01*
X0231827Y0181289D01*
X0231724Y0181218D01*
X0231619Y0181151D01*
X0231511Y0181086D01*
X0231402Y0181026D01*
X0231291Y0180968D01*
X0231178Y0180915D01*
X0231064Y0180865D01*
X0230948Y0180818D01*
X0230831Y0180776D01*
X0230712Y0180737D01*
X0230592Y0180701D01*
X0230471Y0180670D01*
X0230349Y0180642D01*
X0230227Y0180619D01*
X0230103Y0180599D01*
X0229979Y0180583D01*
X0229855Y0180571D01*
X0229730Y0180563D01*
X0229605Y0180559D01*
X0229481Y0180559D01*
X0229356Y0180563D01*
X0229231Y0180571D01*
X0229107Y0180583D01*
X0228983Y0180599D01*
X0228859Y0180619D01*
X0228737Y0180642D01*
X0228615Y0180670D01*
X0228494Y0180701D01*
X0228374Y0180737D01*
X0228255Y0180776D01*
X0228138Y0180818D01*
X0228022Y0180865D01*
X0227908Y0180915D01*
X0227795Y0180968D01*
X0227684Y0181026D01*
X0227574Y0181086D01*
X0227467Y0181151D01*
X0227362Y0181218D01*
X0227259Y0181289D01*
X0227159Y0181363D01*
X0227061Y0181440D01*
X0226965Y0181521D01*
X0226872Y0181604D01*
X0226781Y0181690D01*
X0226694Y0181779D01*
X0226609Y0181871D01*
X0226527Y0181965D01*
X0226448Y0182062D01*
X0226373Y0182162D01*
X0226300Y0182263D01*
X0226231Y0182367D01*
X0226165Y0182474D01*
X0226103Y0182582D01*
X0226044Y0182692D01*
X0225988Y0182804D01*
X0225936Y0182918D01*
X0225888Y0183033D01*
X0225843Y0183149D01*
X0225803Y0183268D01*
X0225765Y0183387D01*
X0225732Y0183507D01*
X0225703Y0183629D01*
X0225677Y0183751D01*
X0225655Y0183874D01*
X0225638Y0183998D01*
X0225624Y0184122D01*
X0225614Y0184246D01*
X0225608Y0184371D01*
X0225606Y0184496D01*
X0225606Y0204181D02*
X0225608Y0204306D01*
X0225614Y0204431D01*
X0225624Y0204555D01*
X0225638Y0204679D01*
X0225655Y0204803D01*
X0225677Y0204926D01*
X0225703Y0205048D01*
X0225732Y0205170D01*
X0225765Y0205290D01*
X0225803Y0205409D01*
X0225843Y0205528D01*
X0225888Y0205644D01*
X0225936Y0205759D01*
X0225988Y0205873D01*
X0226044Y0205985D01*
X0226103Y0206095D01*
X0226165Y0206203D01*
X0226231Y0206310D01*
X0226300Y0206414D01*
X0226373Y0206515D01*
X0226448Y0206615D01*
X0226527Y0206712D01*
X0226609Y0206806D01*
X0226694Y0206898D01*
X0226781Y0206987D01*
X0226872Y0207073D01*
X0226965Y0207156D01*
X0227061Y0207237D01*
X0227159Y0207314D01*
X0227259Y0207388D01*
X0227362Y0207459D01*
X0227467Y0207526D01*
X0227575Y0207591D01*
X0227684Y0207651D01*
X0227795Y0207709D01*
X0227908Y0207762D01*
X0228022Y0207812D01*
X0228138Y0207859D01*
X0228255Y0207901D01*
X0228374Y0207940D01*
X0228494Y0207976D01*
X0228615Y0208007D01*
X0228737Y0208035D01*
X0228859Y0208058D01*
X0228983Y0208078D01*
X0229107Y0208094D01*
X0229231Y0208106D01*
X0229356Y0208114D01*
X0229481Y0208118D01*
X0229605Y0208118D01*
X0229730Y0208114D01*
X0229855Y0208106D01*
X0229979Y0208094D01*
X0230103Y0208078D01*
X0230227Y0208058D01*
X0230349Y0208035D01*
X0230471Y0208007D01*
X0230592Y0207976D01*
X0230712Y0207940D01*
X0230831Y0207901D01*
X0230948Y0207859D01*
X0231064Y0207812D01*
X0231178Y0207762D01*
X0231291Y0207709D01*
X0231402Y0207651D01*
X0231512Y0207591D01*
X0231619Y0207526D01*
X0231724Y0207459D01*
X0231827Y0207388D01*
X0231927Y0207314D01*
X0232025Y0207237D01*
X0232121Y0207156D01*
X0232214Y0207073D01*
X0232305Y0206987D01*
X0232392Y0206898D01*
X0232477Y0206806D01*
X0232559Y0206712D01*
X0232638Y0206615D01*
X0232713Y0206515D01*
X0232786Y0206414D01*
X0232855Y0206310D01*
X0232921Y0206203D01*
X0232983Y0206095D01*
X0233042Y0205985D01*
X0233098Y0205873D01*
X0233150Y0205759D01*
X0233198Y0205644D01*
X0233243Y0205528D01*
X0233283Y0205409D01*
X0233321Y0205290D01*
X0233354Y0205170D01*
X0233383Y0205048D01*
X0233409Y0204926D01*
X0233431Y0204803D01*
X0233448Y0204679D01*
X0233462Y0204555D01*
X0233472Y0204431D01*
X0233478Y0204306D01*
X0233480Y0204181D01*
X0233478Y0204056D01*
X0233472Y0203931D01*
X0233462Y0203807D01*
X0233448Y0203683D01*
X0233431Y0203559D01*
X0233409Y0203436D01*
X0233383Y0203314D01*
X0233354Y0203192D01*
X0233321Y0203072D01*
X0233283Y0202953D01*
X0233243Y0202834D01*
X0233198Y0202718D01*
X0233150Y0202603D01*
X0233098Y0202489D01*
X0233042Y0202377D01*
X0232983Y0202267D01*
X0232921Y0202159D01*
X0232855Y0202052D01*
X0232786Y0201948D01*
X0232713Y0201847D01*
X0232638Y0201747D01*
X0232559Y0201650D01*
X0232477Y0201556D01*
X0232392Y0201464D01*
X0232305Y0201375D01*
X0232214Y0201289D01*
X0232121Y0201206D01*
X0232025Y0201125D01*
X0231927Y0201048D01*
X0231827Y0200974D01*
X0231724Y0200903D01*
X0231619Y0200836D01*
X0231511Y0200771D01*
X0231402Y0200711D01*
X0231291Y0200653D01*
X0231178Y0200600D01*
X0231064Y0200550D01*
X0230948Y0200503D01*
X0230831Y0200461D01*
X0230712Y0200422D01*
X0230592Y0200386D01*
X0230471Y0200355D01*
X0230349Y0200327D01*
X0230227Y0200304D01*
X0230103Y0200284D01*
X0229979Y0200268D01*
X0229855Y0200256D01*
X0229730Y0200248D01*
X0229605Y0200244D01*
X0229481Y0200244D01*
X0229356Y0200248D01*
X0229231Y0200256D01*
X0229107Y0200268D01*
X0228983Y0200284D01*
X0228859Y0200304D01*
X0228737Y0200327D01*
X0228615Y0200355D01*
X0228494Y0200386D01*
X0228374Y0200422D01*
X0228255Y0200461D01*
X0228138Y0200503D01*
X0228022Y0200550D01*
X0227908Y0200600D01*
X0227795Y0200653D01*
X0227684Y0200711D01*
X0227574Y0200771D01*
X0227467Y0200836D01*
X0227362Y0200903D01*
X0227259Y0200974D01*
X0227159Y0201048D01*
X0227061Y0201125D01*
X0226965Y0201206D01*
X0226872Y0201289D01*
X0226781Y0201375D01*
X0226694Y0201464D01*
X0226609Y0201556D01*
X0226527Y0201650D01*
X0226448Y0201747D01*
X0226373Y0201847D01*
X0226300Y0201948D01*
X0226231Y0202052D01*
X0226165Y0202159D01*
X0226103Y0202267D01*
X0226044Y0202377D01*
X0225988Y0202489D01*
X0225936Y0202603D01*
X0225888Y0202718D01*
X0225843Y0202834D01*
X0225803Y0202953D01*
X0225765Y0203072D01*
X0225732Y0203192D01*
X0225703Y0203314D01*
X0225677Y0203436D01*
X0225655Y0203559D01*
X0225638Y0203683D01*
X0225624Y0203807D01*
X0225614Y0203931D01*
X0225608Y0204056D01*
X0225606Y0204181D01*
X0225606Y0243551D02*
X0225608Y0243676D01*
X0225614Y0243801D01*
X0225624Y0243925D01*
X0225638Y0244049D01*
X0225655Y0244173D01*
X0225677Y0244296D01*
X0225703Y0244418D01*
X0225732Y0244540D01*
X0225765Y0244660D01*
X0225803Y0244779D01*
X0225843Y0244898D01*
X0225888Y0245014D01*
X0225936Y0245129D01*
X0225988Y0245243D01*
X0226044Y0245355D01*
X0226103Y0245465D01*
X0226165Y0245573D01*
X0226231Y0245680D01*
X0226300Y0245784D01*
X0226373Y0245885D01*
X0226448Y0245985D01*
X0226527Y0246082D01*
X0226609Y0246176D01*
X0226694Y0246268D01*
X0226781Y0246357D01*
X0226872Y0246443D01*
X0226965Y0246526D01*
X0227061Y0246607D01*
X0227159Y0246684D01*
X0227259Y0246758D01*
X0227362Y0246829D01*
X0227467Y0246896D01*
X0227575Y0246961D01*
X0227684Y0247021D01*
X0227795Y0247079D01*
X0227908Y0247132D01*
X0228022Y0247182D01*
X0228138Y0247229D01*
X0228255Y0247271D01*
X0228374Y0247310D01*
X0228494Y0247346D01*
X0228615Y0247377D01*
X0228737Y0247405D01*
X0228859Y0247428D01*
X0228983Y0247448D01*
X0229107Y0247464D01*
X0229231Y0247476D01*
X0229356Y0247484D01*
X0229481Y0247488D01*
X0229605Y0247488D01*
X0229730Y0247484D01*
X0229855Y0247476D01*
X0229979Y0247464D01*
X0230103Y0247448D01*
X0230227Y0247428D01*
X0230349Y0247405D01*
X0230471Y0247377D01*
X0230592Y0247346D01*
X0230712Y0247310D01*
X0230831Y0247271D01*
X0230948Y0247229D01*
X0231064Y0247182D01*
X0231178Y0247132D01*
X0231291Y0247079D01*
X0231402Y0247021D01*
X0231512Y0246961D01*
X0231619Y0246896D01*
X0231724Y0246829D01*
X0231827Y0246758D01*
X0231927Y0246684D01*
X0232025Y0246607D01*
X0232121Y0246526D01*
X0232214Y0246443D01*
X0232305Y0246357D01*
X0232392Y0246268D01*
X0232477Y0246176D01*
X0232559Y0246082D01*
X0232638Y0245985D01*
X0232713Y0245885D01*
X0232786Y0245784D01*
X0232855Y0245680D01*
X0232921Y0245573D01*
X0232983Y0245465D01*
X0233042Y0245355D01*
X0233098Y0245243D01*
X0233150Y0245129D01*
X0233198Y0245014D01*
X0233243Y0244898D01*
X0233283Y0244779D01*
X0233321Y0244660D01*
X0233354Y0244540D01*
X0233383Y0244418D01*
X0233409Y0244296D01*
X0233431Y0244173D01*
X0233448Y0244049D01*
X0233462Y0243925D01*
X0233472Y0243801D01*
X0233478Y0243676D01*
X0233480Y0243551D01*
X0233478Y0243426D01*
X0233472Y0243301D01*
X0233462Y0243177D01*
X0233448Y0243053D01*
X0233431Y0242929D01*
X0233409Y0242806D01*
X0233383Y0242684D01*
X0233354Y0242562D01*
X0233321Y0242442D01*
X0233283Y0242323D01*
X0233243Y0242204D01*
X0233198Y0242088D01*
X0233150Y0241973D01*
X0233098Y0241859D01*
X0233042Y0241747D01*
X0232983Y0241637D01*
X0232921Y0241529D01*
X0232855Y0241422D01*
X0232786Y0241318D01*
X0232713Y0241217D01*
X0232638Y0241117D01*
X0232559Y0241020D01*
X0232477Y0240926D01*
X0232392Y0240834D01*
X0232305Y0240745D01*
X0232214Y0240659D01*
X0232121Y0240576D01*
X0232025Y0240495D01*
X0231927Y0240418D01*
X0231827Y0240344D01*
X0231724Y0240273D01*
X0231619Y0240206D01*
X0231511Y0240141D01*
X0231402Y0240081D01*
X0231291Y0240023D01*
X0231178Y0239970D01*
X0231064Y0239920D01*
X0230948Y0239873D01*
X0230831Y0239831D01*
X0230712Y0239792D01*
X0230592Y0239756D01*
X0230471Y0239725D01*
X0230349Y0239697D01*
X0230227Y0239674D01*
X0230103Y0239654D01*
X0229979Y0239638D01*
X0229855Y0239626D01*
X0229730Y0239618D01*
X0229605Y0239614D01*
X0229481Y0239614D01*
X0229356Y0239618D01*
X0229231Y0239626D01*
X0229107Y0239638D01*
X0228983Y0239654D01*
X0228859Y0239674D01*
X0228737Y0239697D01*
X0228615Y0239725D01*
X0228494Y0239756D01*
X0228374Y0239792D01*
X0228255Y0239831D01*
X0228138Y0239873D01*
X0228022Y0239920D01*
X0227908Y0239970D01*
X0227795Y0240023D01*
X0227684Y0240081D01*
X0227574Y0240141D01*
X0227467Y0240206D01*
X0227362Y0240273D01*
X0227259Y0240344D01*
X0227159Y0240418D01*
X0227061Y0240495D01*
X0226965Y0240576D01*
X0226872Y0240659D01*
X0226781Y0240745D01*
X0226694Y0240834D01*
X0226609Y0240926D01*
X0226527Y0241020D01*
X0226448Y0241117D01*
X0226373Y0241217D01*
X0226300Y0241318D01*
X0226231Y0241422D01*
X0226165Y0241529D01*
X0226103Y0241637D01*
X0226044Y0241747D01*
X0225988Y0241859D01*
X0225936Y0241973D01*
X0225888Y0242088D01*
X0225843Y0242204D01*
X0225803Y0242323D01*
X0225765Y0242442D01*
X0225732Y0242562D01*
X0225703Y0242684D01*
X0225677Y0242806D01*
X0225655Y0242929D01*
X0225638Y0243053D01*
X0225624Y0243177D01*
X0225614Y0243301D01*
X0225608Y0243426D01*
X0225606Y0243551D01*
X0225606Y0263236D02*
X0225608Y0263361D01*
X0225614Y0263486D01*
X0225624Y0263610D01*
X0225638Y0263734D01*
X0225655Y0263858D01*
X0225677Y0263981D01*
X0225703Y0264103D01*
X0225732Y0264225D01*
X0225765Y0264345D01*
X0225803Y0264464D01*
X0225843Y0264583D01*
X0225888Y0264699D01*
X0225936Y0264814D01*
X0225988Y0264928D01*
X0226044Y0265040D01*
X0226103Y0265150D01*
X0226165Y0265258D01*
X0226231Y0265365D01*
X0226300Y0265469D01*
X0226373Y0265570D01*
X0226448Y0265670D01*
X0226527Y0265767D01*
X0226609Y0265861D01*
X0226694Y0265953D01*
X0226781Y0266042D01*
X0226872Y0266128D01*
X0226965Y0266211D01*
X0227061Y0266292D01*
X0227159Y0266369D01*
X0227259Y0266443D01*
X0227362Y0266514D01*
X0227467Y0266581D01*
X0227575Y0266646D01*
X0227684Y0266706D01*
X0227795Y0266764D01*
X0227908Y0266817D01*
X0228022Y0266867D01*
X0228138Y0266914D01*
X0228255Y0266956D01*
X0228374Y0266995D01*
X0228494Y0267031D01*
X0228615Y0267062D01*
X0228737Y0267090D01*
X0228859Y0267113D01*
X0228983Y0267133D01*
X0229107Y0267149D01*
X0229231Y0267161D01*
X0229356Y0267169D01*
X0229481Y0267173D01*
X0229605Y0267173D01*
X0229730Y0267169D01*
X0229855Y0267161D01*
X0229979Y0267149D01*
X0230103Y0267133D01*
X0230227Y0267113D01*
X0230349Y0267090D01*
X0230471Y0267062D01*
X0230592Y0267031D01*
X0230712Y0266995D01*
X0230831Y0266956D01*
X0230948Y0266914D01*
X0231064Y0266867D01*
X0231178Y0266817D01*
X0231291Y0266764D01*
X0231402Y0266706D01*
X0231512Y0266646D01*
X0231619Y0266581D01*
X0231724Y0266514D01*
X0231827Y0266443D01*
X0231927Y0266369D01*
X0232025Y0266292D01*
X0232121Y0266211D01*
X0232214Y0266128D01*
X0232305Y0266042D01*
X0232392Y0265953D01*
X0232477Y0265861D01*
X0232559Y0265767D01*
X0232638Y0265670D01*
X0232713Y0265570D01*
X0232786Y0265469D01*
X0232855Y0265365D01*
X0232921Y0265258D01*
X0232983Y0265150D01*
X0233042Y0265040D01*
X0233098Y0264928D01*
X0233150Y0264814D01*
X0233198Y0264699D01*
X0233243Y0264583D01*
X0233283Y0264464D01*
X0233321Y0264345D01*
X0233354Y0264225D01*
X0233383Y0264103D01*
X0233409Y0263981D01*
X0233431Y0263858D01*
X0233448Y0263734D01*
X0233462Y0263610D01*
X0233472Y0263486D01*
X0233478Y0263361D01*
X0233480Y0263236D01*
X0233478Y0263111D01*
X0233472Y0262986D01*
X0233462Y0262862D01*
X0233448Y0262738D01*
X0233431Y0262614D01*
X0233409Y0262491D01*
X0233383Y0262369D01*
X0233354Y0262247D01*
X0233321Y0262127D01*
X0233283Y0262008D01*
X0233243Y0261889D01*
X0233198Y0261773D01*
X0233150Y0261658D01*
X0233098Y0261544D01*
X0233042Y0261432D01*
X0232983Y0261322D01*
X0232921Y0261214D01*
X0232855Y0261107D01*
X0232786Y0261003D01*
X0232713Y0260902D01*
X0232638Y0260802D01*
X0232559Y0260705D01*
X0232477Y0260611D01*
X0232392Y0260519D01*
X0232305Y0260430D01*
X0232214Y0260344D01*
X0232121Y0260261D01*
X0232025Y0260180D01*
X0231927Y0260103D01*
X0231827Y0260029D01*
X0231724Y0259958D01*
X0231619Y0259891D01*
X0231511Y0259826D01*
X0231402Y0259766D01*
X0231291Y0259708D01*
X0231178Y0259655D01*
X0231064Y0259605D01*
X0230948Y0259558D01*
X0230831Y0259516D01*
X0230712Y0259477D01*
X0230592Y0259441D01*
X0230471Y0259410D01*
X0230349Y0259382D01*
X0230227Y0259359D01*
X0230103Y0259339D01*
X0229979Y0259323D01*
X0229855Y0259311D01*
X0229730Y0259303D01*
X0229605Y0259299D01*
X0229481Y0259299D01*
X0229356Y0259303D01*
X0229231Y0259311D01*
X0229107Y0259323D01*
X0228983Y0259339D01*
X0228859Y0259359D01*
X0228737Y0259382D01*
X0228615Y0259410D01*
X0228494Y0259441D01*
X0228374Y0259477D01*
X0228255Y0259516D01*
X0228138Y0259558D01*
X0228022Y0259605D01*
X0227908Y0259655D01*
X0227795Y0259708D01*
X0227684Y0259766D01*
X0227574Y0259826D01*
X0227467Y0259891D01*
X0227362Y0259958D01*
X0227259Y0260029D01*
X0227159Y0260103D01*
X0227061Y0260180D01*
X0226965Y0260261D01*
X0226872Y0260344D01*
X0226781Y0260430D01*
X0226694Y0260519D01*
X0226609Y0260611D01*
X0226527Y0260705D01*
X0226448Y0260802D01*
X0226373Y0260902D01*
X0226300Y0261003D01*
X0226231Y0261107D01*
X0226165Y0261214D01*
X0226103Y0261322D01*
X0226044Y0261432D01*
X0225988Y0261544D01*
X0225936Y0261658D01*
X0225888Y0261773D01*
X0225843Y0261889D01*
X0225803Y0262008D01*
X0225765Y0262127D01*
X0225732Y0262247D01*
X0225703Y0262369D01*
X0225677Y0262491D01*
X0225655Y0262614D01*
X0225638Y0262738D01*
X0225624Y0262862D01*
X0225614Y0262986D01*
X0225608Y0263111D01*
X0225606Y0263236D01*
X0415173Y0050637D02*
X0415175Y0050762D01*
X0415181Y0050887D01*
X0415191Y0051011D01*
X0415205Y0051135D01*
X0415222Y0051259D01*
X0415244Y0051382D01*
X0415270Y0051504D01*
X0415299Y0051626D01*
X0415332Y0051746D01*
X0415370Y0051865D01*
X0415410Y0051984D01*
X0415455Y0052100D01*
X0415503Y0052215D01*
X0415555Y0052329D01*
X0415611Y0052441D01*
X0415670Y0052551D01*
X0415732Y0052659D01*
X0415798Y0052766D01*
X0415867Y0052870D01*
X0415940Y0052971D01*
X0416015Y0053071D01*
X0416094Y0053168D01*
X0416176Y0053262D01*
X0416261Y0053354D01*
X0416348Y0053443D01*
X0416439Y0053529D01*
X0416532Y0053612D01*
X0416628Y0053693D01*
X0416726Y0053770D01*
X0416826Y0053844D01*
X0416929Y0053915D01*
X0417034Y0053982D01*
X0417142Y0054047D01*
X0417251Y0054107D01*
X0417362Y0054165D01*
X0417475Y0054218D01*
X0417589Y0054268D01*
X0417705Y0054315D01*
X0417822Y0054357D01*
X0417941Y0054396D01*
X0418061Y0054432D01*
X0418182Y0054463D01*
X0418304Y0054491D01*
X0418426Y0054514D01*
X0418550Y0054534D01*
X0418674Y0054550D01*
X0418798Y0054562D01*
X0418923Y0054570D01*
X0419048Y0054574D01*
X0419172Y0054574D01*
X0419297Y0054570D01*
X0419422Y0054562D01*
X0419546Y0054550D01*
X0419670Y0054534D01*
X0419794Y0054514D01*
X0419916Y0054491D01*
X0420038Y0054463D01*
X0420159Y0054432D01*
X0420279Y0054396D01*
X0420398Y0054357D01*
X0420515Y0054315D01*
X0420631Y0054268D01*
X0420745Y0054218D01*
X0420858Y0054165D01*
X0420969Y0054107D01*
X0421079Y0054047D01*
X0421186Y0053982D01*
X0421291Y0053915D01*
X0421394Y0053844D01*
X0421494Y0053770D01*
X0421592Y0053693D01*
X0421688Y0053612D01*
X0421781Y0053529D01*
X0421872Y0053443D01*
X0421959Y0053354D01*
X0422044Y0053262D01*
X0422126Y0053168D01*
X0422205Y0053071D01*
X0422280Y0052971D01*
X0422353Y0052870D01*
X0422422Y0052766D01*
X0422488Y0052659D01*
X0422550Y0052551D01*
X0422609Y0052441D01*
X0422665Y0052329D01*
X0422717Y0052215D01*
X0422765Y0052100D01*
X0422810Y0051984D01*
X0422850Y0051865D01*
X0422888Y0051746D01*
X0422921Y0051626D01*
X0422950Y0051504D01*
X0422976Y0051382D01*
X0422998Y0051259D01*
X0423015Y0051135D01*
X0423029Y0051011D01*
X0423039Y0050887D01*
X0423045Y0050762D01*
X0423047Y0050637D01*
X0423045Y0050512D01*
X0423039Y0050387D01*
X0423029Y0050263D01*
X0423015Y0050139D01*
X0422998Y0050015D01*
X0422976Y0049892D01*
X0422950Y0049770D01*
X0422921Y0049648D01*
X0422888Y0049528D01*
X0422850Y0049409D01*
X0422810Y0049290D01*
X0422765Y0049174D01*
X0422717Y0049059D01*
X0422665Y0048945D01*
X0422609Y0048833D01*
X0422550Y0048723D01*
X0422488Y0048615D01*
X0422422Y0048508D01*
X0422353Y0048404D01*
X0422280Y0048303D01*
X0422205Y0048203D01*
X0422126Y0048106D01*
X0422044Y0048012D01*
X0421959Y0047920D01*
X0421872Y0047831D01*
X0421781Y0047745D01*
X0421688Y0047662D01*
X0421592Y0047581D01*
X0421494Y0047504D01*
X0421394Y0047430D01*
X0421291Y0047359D01*
X0421186Y0047292D01*
X0421078Y0047227D01*
X0420969Y0047167D01*
X0420858Y0047109D01*
X0420745Y0047056D01*
X0420631Y0047006D01*
X0420515Y0046959D01*
X0420398Y0046917D01*
X0420279Y0046878D01*
X0420159Y0046842D01*
X0420038Y0046811D01*
X0419916Y0046783D01*
X0419794Y0046760D01*
X0419670Y0046740D01*
X0419546Y0046724D01*
X0419422Y0046712D01*
X0419297Y0046704D01*
X0419172Y0046700D01*
X0419048Y0046700D01*
X0418923Y0046704D01*
X0418798Y0046712D01*
X0418674Y0046724D01*
X0418550Y0046740D01*
X0418426Y0046760D01*
X0418304Y0046783D01*
X0418182Y0046811D01*
X0418061Y0046842D01*
X0417941Y0046878D01*
X0417822Y0046917D01*
X0417705Y0046959D01*
X0417589Y0047006D01*
X0417475Y0047056D01*
X0417362Y0047109D01*
X0417251Y0047167D01*
X0417141Y0047227D01*
X0417034Y0047292D01*
X0416929Y0047359D01*
X0416826Y0047430D01*
X0416726Y0047504D01*
X0416628Y0047581D01*
X0416532Y0047662D01*
X0416439Y0047745D01*
X0416348Y0047831D01*
X0416261Y0047920D01*
X0416176Y0048012D01*
X0416094Y0048106D01*
X0416015Y0048203D01*
X0415940Y0048303D01*
X0415867Y0048404D01*
X0415798Y0048508D01*
X0415732Y0048615D01*
X0415670Y0048723D01*
X0415611Y0048833D01*
X0415555Y0048945D01*
X0415503Y0049059D01*
X0415455Y0049174D01*
X0415410Y0049290D01*
X0415370Y0049409D01*
X0415332Y0049528D01*
X0415299Y0049648D01*
X0415270Y0049770D01*
X0415244Y0049892D01*
X0415222Y0050015D01*
X0415205Y0050139D01*
X0415191Y0050263D01*
X0415181Y0050387D01*
X0415175Y0050512D01*
X0415173Y0050637D01*
X0434858Y0050637D02*
X0434860Y0050762D01*
X0434866Y0050887D01*
X0434876Y0051011D01*
X0434890Y0051135D01*
X0434907Y0051259D01*
X0434929Y0051382D01*
X0434955Y0051504D01*
X0434984Y0051626D01*
X0435017Y0051746D01*
X0435055Y0051865D01*
X0435095Y0051984D01*
X0435140Y0052100D01*
X0435188Y0052215D01*
X0435240Y0052329D01*
X0435296Y0052441D01*
X0435355Y0052551D01*
X0435417Y0052659D01*
X0435483Y0052766D01*
X0435552Y0052870D01*
X0435625Y0052971D01*
X0435700Y0053071D01*
X0435779Y0053168D01*
X0435861Y0053262D01*
X0435946Y0053354D01*
X0436033Y0053443D01*
X0436124Y0053529D01*
X0436217Y0053612D01*
X0436313Y0053693D01*
X0436411Y0053770D01*
X0436511Y0053844D01*
X0436614Y0053915D01*
X0436719Y0053982D01*
X0436827Y0054047D01*
X0436936Y0054107D01*
X0437047Y0054165D01*
X0437160Y0054218D01*
X0437274Y0054268D01*
X0437390Y0054315D01*
X0437507Y0054357D01*
X0437626Y0054396D01*
X0437746Y0054432D01*
X0437867Y0054463D01*
X0437989Y0054491D01*
X0438111Y0054514D01*
X0438235Y0054534D01*
X0438359Y0054550D01*
X0438483Y0054562D01*
X0438608Y0054570D01*
X0438733Y0054574D01*
X0438857Y0054574D01*
X0438982Y0054570D01*
X0439107Y0054562D01*
X0439231Y0054550D01*
X0439355Y0054534D01*
X0439479Y0054514D01*
X0439601Y0054491D01*
X0439723Y0054463D01*
X0439844Y0054432D01*
X0439964Y0054396D01*
X0440083Y0054357D01*
X0440200Y0054315D01*
X0440316Y0054268D01*
X0440430Y0054218D01*
X0440543Y0054165D01*
X0440654Y0054107D01*
X0440764Y0054047D01*
X0440871Y0053982D01*
X0440976Y0053915D01*
X0441079Y0053844D01*
X0441179Y0053770D01*
X0441277Y0053693D01*
X0441373Y0053612D01*
X0441466Y0053529D01*
X0441557Y0053443D01*
X0441644Y0053354D01*
X0441729Y0053262D01*
X0441811Y0053168D01*
X0441890Y0053071D01*
X0441965Y0052971D01*
X0442038Y0052870D01*
X0442107Y0052766D01*
X0442173Y0052659D01*
X0442235Y0052551D01*
X0442294Y0052441D01*
X0442350Y0052329D01*
X0442402Y0052215D01*
X0442450Y0052100D01*
X0442495Y0051984D01*
X0442535Y0051865D01*
X0442573Y0051746D01*
X0442606Y0051626D01*
X0442635Y0051504D01*
X0442661Y0051382D01*
X0442683Y0051259D01*
X0442700Y0051135D01*
X0442714Y0051011D01*
X0442724Y0050887D01*
X0442730Y0050762D01*
X0442732Y0050637D01*
X0442730Y0050512D01*
X0442724Y0050387D01*
X0442714Y0050263D01*
X0442700Y0050139D01*
X0442683Y0050015D01*
X0442661Y0049892D01*
X0442635Y0049770D01*
X0442606Y0049648D01*
X0442573Y0049528D01*
X0442535Y0049409D01*
X0442495Y0049290D01*
X0442450Y0049174D01*
X0442402Y0049059D01*
X0442350Y0048945D01*
X0442294Y0048833D01*
X0442235Y0048723D01*
X0442173Y0048615D01*
X0442107Y0048508D01*
X0442038Y0048404D01*
X0441965Y0048303D01*
X0441890Y0048203D01*
X0441811Y0048106D01*
X0441729Y0048012D01*
X0441644Y0047920D01*
X0441557Y0047831D01*
X0441466Y0047745D01*
X0441373Y0047662D01*
X0441277Y0047581D01*
X0441179Y0047504D01*
X0441079Y0047430D01*
X0440976Y0047359D01*
X0440871Y0047292D01*
X0440763Y0047227D01*
X0440654Y0047167D01*
X0440543Y0047109D01*
X0440430Y0047056D01*
X0440316Y0047006D01*
X0440200Y0046959D01*
X0440083Y0046917D01*
X0439964Y0046878D01*
X0439844Y0046842D01*
X0439723Y0046811D01*
X0439601Y0046783D01*
X0439479Y0046760D01*
X0439355Y0046740D01*
X0439231Y0046724D01*
X0439107Y0046712D01*
X0438982Y0046704D01*
X0438857Y0046700D01*
X0438733Y0046700D01*
X0438608Y0046704D01*
X0438483Y0046712D01*
X0438359Y0046724D01*
X0438235Y0046740D01*
X0438111Y0046760D01*
X0437989Y0046783D01*
X0437867Y0046811D01*
X0437746Y0046842D01*
X0437626Y0046878D01*
X0437507Y0046917D01*
X0437390Y0046959D01*
X0437274Y0047006D01*
X0437160Y0047056D01*
X0437047Y0047109D01*
X0436936Y0047167D01*
X0436826Y0047227D01*
X0436719Y0047292D01*
X0436614Y0047359D01*
X0436511Y0047430D01*
X0436411Y0047504D01*
X0436313Y0047581D01*
X0436217Y0047662D01*
X0436124Y0047745D01*
X0436033Y0047831D01*
X0435946Y0047920D01*
X0435861Y0048012D01*
X0435779Y0048106D01*
X0435700Y0048203D01*
X0435625Y0048303D01*
X0435552Y0048404D01*
X0435483Y0048508D01*
X0435417Y0048615D01*
X0435355Y0048723D01*
X0435296Y0048833D01*
X0435240Y0048945D01*
X0435188Y0049059D01*
X0435140Y0049174D01*
X0435095Y0049290D01*
X0435055Y0049409D01*
X0435017Y0049528D01*
X0434984Y0049648D01*
X0434955Y0049770D01*
X0434929Y0049892D01*
X0434907Y0050015D01*
X0434890Y0050139D01*
X0434876Y0050263D01*
X0434866Y0050387D01*
X0434860Y0050512D01*
X0434858Y0050637D01*
D13*
X0190114Y0108315D02*
X0190116Y0108428D01*
X0190122Y0108541D01*
X0190132Y0108654D01*
X0190146Y0108767D01*
X0190164Y0108878D01*
X0190186Y0108990D01*
X0190211Y0109100D01*
X0190241Y0109209D01*
X0190275Y0109317D01*
X0190312Y0109424D01*
X0190353Y0109530D01*
X0190398Y0109634D01*
X0190446Y0109736D01*
X0190498Y0109837D01*
X0190553Y0109936D01*
X0190612Y0110033D01*
X0190675Y0110127D01*
X0190740Y0110219D01*
X0190809Y0110309D01*
X0190881Y0110397D01*
X0190956Y0110482D01*
X0191034Y0110564D01*
X0191115Y0110643D01*
X0191198Y0110720D01*
X0191284Y0110793D01*
X0191373Y0110864D01*
X0191464Y0110931D01*
X0191558Y0110995D01*
X0191654Y0111056D01*
X0191751Y0111113D01*
X0191851Y0111166D01*
X0191953Y0111217D01*
X0192056Y0111263D01*
X0192161Y0111306D01*
X0192267Y0111345D01*
X0192375Y0111381D01*
X0192483Y0111412D01*
X0192593Y0111440D01*
X0192704Y0111464D01*
X0192815Y0111484D01*
X0192928Y0111500D01*
X0193040Y0111512D01*
X0193153Y0111520D01*
X0193266Y0111524D01*
X0193380Y0111524D01*
X0193493Y0111520D01*
X0193606Y0111512D01*
X0193718Y0111500D01*
X0193831Y0111484D01*
X0193942Y0111464D01*
X0194053Y0111440D01*
X0194163Y0111412D01*
X0194271Y0111381D01*
X0194379Y0111345D01*
X0194485Y0111306D01*
X0194590Y0111263D01*
X0194693Y0111217D01*
X0194795Y0111166D01*
X0194895Y0111113D01*
X0194992Y0111056D01*
X0195088Y0110995D01*
X0195182Y0110931D01*
X0195273Y0110864D01*
X0195362Y0110793D01*
X0195448Y0110720D01*
X0195531Y0110643D01*
X0195612Y0110564D01*
X0195690Y0110482D01*
X0195765Y0110397D01*
X0195837Y0110309D01*
X0195906Y0110219D01*
X0195971Y0110127D01*
X0196034Y0110033D01*
X0196093Y0109936D01*
X0196148Y0109837D01*
X0196200Y0109736D01*
X0196248Y0109634D01*
X0196293Y0109530D01*
X0196334Y0109424D01*
X0196371Y0109317D01*
X0196405Y0109209D01*
X0196435Y0109100D01*
X0196460Y0108990D01*
X0196482Y0108878D01*
X0196500Y0108767D01*
X0196514Y0108654D01*
X0196524Y0108541D01*
X0196530Y0108428D01*
X0196532Y0108315D01*
X0196530Y0108202D01*
X0196524Y0108089D01*
X0196514Y0107976D01*
X0196500Y0107863D01*
X0196482Y0107752D01*
X0196460Y0107640D01*
X0196435Y0107530D01*
X0196405Y0107421D01*
X0196371Y0107313D01*
X0196334Y0107206D01*
X0196293Y0107100D01*
X0196248Y0106996D01*
X0196200Y0106894D01*
X0196148Y0106793D01*
X0196093Y0106694D01*
X0196034Y0106597D01*
X0195971Y0106503D01*
X0195906Y0106411D01*
X0195837Y0106321D01*
X0195765Y0106233D01*
X0195690Y0106148D01*
X0195612Y0106066D01*
X0195531Y0105987D01*
X0195448Y0105910D01*
X0195362Y0105837D01*
X0195273Y0105766D01*
X0195182Y0105699D01*
X0195088Y0105635D01*
X0194992Y0105574D01*
X0194895Y0105517D01*
X0194795Y0105464D01*
X0194693Y0105413D01*
X0194590Y0105367D01*
X0194485Y0105324D01*
X0194379Y0105285D01*
X0194271Y0105249D01*
X0194163Y0105218D01*
X0194053Y0105190D01*
X0193942Y0105166D01*
X0193831Y0105146D01*
X0193718Y0105130D01*
X0193606Y0105118D01*
X0193493Y0105110D01*
X0193380Y0105106D01*
X0193266Y0105106D01*
X0193153Y0105110D01*
X0193040Y0105118D01*
X0192928Y0105130D01*
X0192815Y0105146D01*
X0192704Y0105166D01*
X0192593Y0105190D01*
X0192483Y0105218D01*
X0192375Y0105249D01*
X0192267Y0105285D01*
X0192161Y0105324D01*
X0192056Y0105367D01*
X0191953Y0105413D01*
X0191851Y0105464D01*
X0191751Y0105517D01*
X0191654Y0105574D01*
X0191558Y0105635D01*
X0191464Y0105699D01*
X0191373Y0105766D01*
X0191284Y0105837D01*
X0191198Y0105910D01*
X0191115Y0105987D01*
X0191034Y0106066D01*
X0190956Y0106148D01*
X0190881Y0106233D01*
X0190809Y0106321D01*
X0190740Y0106411D01*
X0190675Y0106503D01*
X0190612Y0106597D01*
X0190553Y0106694D01*
X0190498Y0106793D01*
X0190446Y0106894D01*
X0190398Y0106996D01*
X0190353Y0107100D01*
X0190312Y0107206D01*
X0190275Y0107313D01*
X0190241Y0107421D01*
X0190211Y0107530D01*
X0190186Y0107640D01*
X0190164Y0107752D01*
X0190146Y0107863D01*
X0190132Y0107976D01*
X0190122Y0108089D01*
X0190116Y0108202D01*
X0190114Y0108315D01*
X0162555Y0108315D02*
X0162557Y0108428D01*
X0162563Y0108541D01*
X0162573Y0108654D01*
X0162587Y0108767D01*
X0162605Y0108878D01*
X0162627Y0108990D01*
X0162652Y0109100D01*
X0162682Y0109209D01*
X0162716Y0109317D01*
X0162753Y0109424D01*
X0162794Y0109530D01*
X0162839Y0109634D01*
X0162887Y0109736D01*
X0162939Y0109837D01*
X0162994Y0109936D01*
X0163053Y0110033D01*
X0163116Y0110127D01*
X0163181Y0110219D01*
X0163250Y0110309D01*
X0163322Y0110397D01*
X0163397Y0110482D01*
X0163475Y0110564D01*
X0163556Y0110643D01*
X0163639Y0110720D01*
X0163725Y0110793D01*
X0163814Y0110864D01*
X0163905Y0110931D01*
X0163999Y0110995D01*
X0164095Y0111056D01*
X0164192Y0111113D01*
X0164292Y0111166D01*
X0164394Y0111217D01*
X0164497Y0111263D01*
X0164602Y0111306D01*
X0164708Y0111345D01*
X0164816Y0111381D01*
X0164924Y0111412D01*
X0165034Y0111440D01*
X0165145Y0111464D01*
X0165256Y0111484D01*
X0165369Y0111500D01*
X0165481Y0111512D01*
X0165594Y0111520D01*
X0165707Y0111524D01*
X0165821Y0111524D01*
X0165934Y0111520D01*
X0166047Y0111512D01*
X0166159Y0111500D01*
X0166272Y0111484D01*
X0166383Y0111464D01*
X0166494Y0111440D01*
X0166604Y0111412D01*
X0166712Y0111381D01*
X0166820Y0111345D01*
X0166926Y0111306D01*
X0167031Y0111263D01*
X0167134Y0111217D01*
X0167236Y0111166D01*
X0167336Y0111113D01*
X0167433Y0111056D01*
X0167529Y0110995D01*
X0167623Y0110931D01*
X0167714Y0110864D01*
X0167803Y0110793D01*
X0167889Y0110720D01*
X0167972Y0110643D01*
X0168053Y0110564D01*
X0168131Y0110482D01*
X0168206Y0110397D01*
X0168278Y0110309D01*
X0168347Y0110219D01*
X0168412Y0110127D01*
X0168475Y0110033D01*
X0168534Y0109936D01*
X0168589Y0109837D01*
X0168641Y0109736D01*
X0168689Y0109634D01*
X0168734Y0109530D01*
X0168775Y0109424D01*
X0168812Y0109317D01*
X0168846Y0109209D01*
X0168876Y0109100D01*
X0168901Y0108990D01*
X0168923Y0108878D01*
X0168941Y0108767D01*
X0168955Y0108654D01*
X0168965Y0108541D01*
X0168971Y0108428D01*
X0168973Y0108315D01*
X0168971Y0108202D01*
X0168965Y0108089D01*
X0168955Y0107976D01*
X0168941Y0107863D01*
X0168923Y0107752D01*
X0168901Y0107640D01*
X0168876Y0107530D01*
X0168846Y0107421D01*
X0168812Y0107313D01*
X0168775Y0107206D01*
X0168734Y0107100D01*
X0168689Y0106996D01*
X0168641Y0106894D01*
X0168589Y0106793D01*
X0168534Y0106694D01*
X0168475Y0106597D01*
X0168412Y0106503D01*
X0168347Y0106411D01*
X0168278Y0106321D01*
X0168206Y0106233D01*
X0168131Y0106148D01*
X0168053Y0106066D01*
X0167972Y0105987D01*
X0167889Y0105910D01*
X0167803Y0105837D01*
X0167714Y0105766D01*
X0167623Y0105699D01*
X0167529Y0105635D01*
X0167433Y0105574D01*
X0167336Y0105517D01*
X0167236Y0105464D01*
X0167134Y0105413D01*
X0167031Y0105367D01*
X0166926Y0105324D01*
X0166820Y0105285D01*
X0166712Y0105249D01*
X0166604Y0105218D01*
X0166494Y0105190D01*
X0166383Y0105166D01*
X0166272Y0105146D01*
X0166159Y0105130D01*
X0166047Y0105118D01*
X0165934Y0105110D01*
X0165821Y0105106D01*
X0165707Y0105106D01*
X0165594Y0105110D01*
X0165481Y0105118D01*
X0165369Y0105130D01*
X0165256Y0105146D01*
X0165145Y0105166D01*
X0165034Y0105190D01*
X0164924Y0105218D01*
X0164816Y0105249D01*
X0164708Y0105285D01*
X0164602Y0105324D01*
X0164497Y0105367D01*
X0164394Y0105413D01*
X0164292Y0105464D01*
X0164192Y0105517D01*
X0164095Y0105574D01*
X0163999Y0105635D01*
X0163905Y0105699D01*
X0163814Y0105766D01*
X0163725Y0105837D01*
X0163639Y0105910D01*
X0163556Y0105987D01*
X0163475Y0106066D01*
X0163397Y0106148D01*
X0163322Y0106233D01*
X0163250Y0106321D01*
X0163181Y0106411D01*
X0163116Y0106503D01*
X0163053Y0106597D01*
X0162994Y0106694D01*
X0162939Y0106793D01*
X0162887Y0106894D01*
X0162839Y0106996D01*
X0162794Y0107100D01*
X0162753Y0107206D01*
X0162716Y0107313D01*
X0162682Y0107421D01*
X0162652Y0107530D01*
X0162627Y0107640D01*
X0162605Y0107752D01*
X0162587Y0107863D01*
X0162573Y0107976D01*
X0162563Y0108089D01*
X0162557Y0108202D01*
X0162555Y0108315D01*
X0162555Y0139811D02*
X0162557Y0139924D01*
X0162563Y0140037D01*
X0162573Y0140150D01*
X0162587Y0140263D01*
X0162605Y0140374D01*
X0162627Y0140486D01*
X0162652Y0140596D01*
X0162682Y0140705D01*
X0162716Y0140813D01*
X0162753Y0140920D01*
X0162794Y0141026D01*
X0162839Y0141130D01*
X0162887Y0141232D01*
X0162939Y0141333D01*
X0162994Y0141432D01*
X0163053Y0141529D01*
X0163116Y0141623D01*
X0163181Y0141715D01*
X0163250Y0141805D01*
X0163322Y0141893D01*
X0163397Y0141978D01*
X0163475Y0142060D01*
X0163556Y0142139D01*
X0163639Y0142216D01*
X0163725Y0142289D01*
X0163814Y0142360D01*
X0163905Y0142427D01*
X0163999Y0142491D01*
X0164095Y0142552D01*
X0164192Y0142609D01*
X0164292Y0142662D01*
X0164394Y0142713D01*
X0164497Y0142759D01*
X0164602Y0142802D01*
X0164708Y0142841D01*
X0164816Y0142877D01*
X0164924Y0142908D01*
X0165034Y0142936D01*
X0165145Y0142960D01*
X0165256Y0142980D01*
X0165369Y0142996D01*
X0165481Y0143008D01*
X0165594Y0143016D01*
X0165707Y0143020D01*
X0165821Y0143020D01*
X0165934Y0143016D01*
X0166047Y0143008D01*
X0166159Y0142996D01*
X0166272Y0142980D01*
X0166383Y0142960D01*
X0166494Y0142936D01*
X0166604Y0142908D01*
X0166712Y0142877D01*
X0166820Y0142841D01*
X0166926Y0142802D01*
X0167031Y0142759D01*
X0167134Y0142713D01*
X0167236Y0142662D01*
X0167336Y0142609D01*
X0167433Y0142552D01*
X0167529Y0142491D01*
X0167623Y0142427D01*
X0167714Y0142360D01*
X0167803Y0142289D01*
X0167889Y0142216D01*
X0167972Y0142139D01*
X0168053Y0142060D01*
X0168131Y0141978D01*
X0168206Y0141893D01*
X0168278Y0141805D01*
X0168347Y0141715D01*
X0168412Y0141623D01*
X0168475Y0141529D01*
X0168534Y0141432D01*
X0168589Y0141333D01*
X0168641Y0141232D01*
X0168689Y0141130D01*
X0168734Y0141026D01*
X0168775Y0140920D01*
X0168812Y0140813D01*
X0168846Y0140705D01*
X0168876Y0140596D01*
X0168901Y0140486D01*
X0168923Y0140374D01*
X0168941Y0140263D01*
X0168955Y0140150D01*
X0168965Y0140037D01*
X0168971Y0139924D01*
X0168973Y0139811D01*
X0168971Y0139698D01*
X0168965Y0139585D01*
X0168955Y0139472D01*
X0168941Y0139359D01*
X0168923Y0139248D01*
X0168901Y0139136D01*
X0168876Y0139026D01*
X0168846Y0138917D01*
X0168812Y0138809D01*
X0168775Y0138702D01*
X0168734Y0138596D01*
X0168689Y0138492D01*
X0168641Y0138390D01*
X0168589Y0138289D01*
X0168534Y0138190D01*
X0168475Y0138093D01*
X0168412Y0137999D01*
X0168347Y0137907D01*
X0168278Y0137817D01*
X0168206Y0137729D01*
X0168131Y0137644D01*
X0168053Y0137562D01*
X0167972Y0137483D01*
X0167889Y0137406D01*
X0167803Y0137333D01*
X0167714Y0137262D01*
X0167623Y0137195D01*
X0167529Y0137131D01*
X0167433Y0137070D01*
X0167336Y0137013D01*
X0167236Y0136960D01*
X0167134Y0136909D01*
X0167031Y0136863D01*
X0166926Y0136820D01*
X0166820Y0136781D01*
X0166712Y0136745D01*
X0166604Y0136714D01*
X0166494Y0136686D01*
X0166383Y0136662D01*
X0166272Y0136642D01*
X0166159Y0136626D01*
X0166047Y0136614D01*
X0165934Y0136606D01*
X0165821Y0136602D01*
X0165707Y0136602D01*
X0165594Y0136606D01*
X0165481Y0136614D01*
X0165369Y0136626D01*
X0165256Y0136642D01*
X0165145Y0136662D01*
X0165034Y0136686D01*
X0164924Y0136714D01*
X0164816Y0136745D01*
X0164708Y0136781D01*
X0164602Y0136820D01*
X0164497Y0136863D01*
X0164394Y0136909D01*
X0164292Y0136960D01*
X0164192Y0137013D01*
X0164095Y0137070D01*
X0163999Y0137131D01*
X0163905Y0137195D01*
X0163814Y0137262D01*
X0163725Y0137333D01*
X0163639Y0137406D01*
X0163556Y0137483D01*
X0163475Y0137562D01*
X0163397Y0137644D01*
X0163322Y0137729D01*
X0163250Y0137817D01*
X0163181Y0137907D01*
X0163116Y0137999D01*
X0163053Y0138093D01*
X0162994Y0138190D01*
X0162939Y0138289D01*
X0162887Y0138390D01*
X0162839Y0138492D01*
X0162794Y0138596D01*
X0162753Y0138702D01*
X0162716Y0138809D01*
X0162682Y0138917D01*
X0162652Y0139026D01*
X0162627Y0139136D01*
X0162605Y0139248D01*
X0162587Y0139359D01*
X0162573Y0139472D01*
X0162563Y0139585D01*
X0162557Y0139698D01*
X0162555Y0139811D01*
X0190114Y0139811D02*
X0190116Y0139924D01*
X0190122Y0140037D01*
X0190132Y0140150D01*
X0190146Y0140263D01*
X0190164Y0140374D01*
X0190186Y0140486D01*
X0190211Y0140596D01*
X0190241Y0140705D01*
X0190275Y0140813D01*
X0190312Y0140920D01*
X0190353Y0141026D01*
X0190398Y0141130D01*
X0190446Y0141232D01*
X0190498Y0141333D01*
X0190553Y0141432D01*
X0190612Y0141529D01*
X0190675Y0141623D01*
X0190740Y0141715D01*
X0190809Y0141805D01*
X0190881Y0141893D01*
X0190956Y0141978D01*
X0191034Y0142060D01*
X0191115Y0142139D01*
X0191198Y0142216D01*
X0191284Y0142289D01*
X0191373Y0142360D01*
X0191464Y0142427D01*
X0191558Y0142491D01*
X0191654Y0142552D01*
X0191751Y0142609D01*
X0191851Y0142662D01*
X0191953Y0142713D01*
X0192056Y0142759D01*
X0192161Y0142802D01*
X0192267Y0142841D01*
X0192375Y0142877D01*
X0192483Y0142908D01*
X0192593Y0142936D01*
X0192704Y0142960D01*
X0192815Y0142980D01*
X0192928Y0142996D01*
X0193040Y0143008D01*
X0193153Y0143016D01*
X0193266Y0143020D01*
X0193380Y0143020D01*
X0193493Y0143016D01*
X0193606Y0143008D01*
X0193718Y0142996D01*
X0193831Y0142980D01*
X0193942Y0142960D01*
X0194053Y0142936D01*
X0194163Y0142908D01*
X0194271Y0142877D01*
X0194379Y0142841D01*
X0194485Y0142802D01*
X0194590Y0142759D01*
X0194693Y0142713D01*
X0194795Y0142662D01*
X0194895Y0142609D01*
X0194992Y0142552D01*
X0195088Y0142491D01*
X0195182Y0142427D01*
X0195273Y0142360D01*
X0195362Y0142289D01*
X0195448Y0142216D01*
X0195531Y0142139D01*
X0195612Y0142060D01*
X0195690Y0141978D01*
X0195765Y0141893D01*
X0195837Y0141805D01*
X0195906Y0141715D01*
X0195971Y0141623D01*
X0196034Y0141529D01*
X0196093Y0141432D01*
X0196148Y0141333D01*
X0196200Y0141232D01*
X0196248Y0141130D01*
X0196293Y0141026D01*
X0196334Y0140920D01*
X0196371Y0140813D01*
X0196405Y0140705D01*
X0196435Y0140596D01*
X0196460Y0140486D01*
X0196482Y0140374D01*
X0196500Y0140263D01*
X0196514Y0140150D01*
X0196524Y0140037D01*
X0196530Y0139924D01*
X0196532Y0139811D01*
X0196530Y0139698D01*
X0196524Y0139585D01*
X0196514Y0139472D01*
X0196500Y0139359D01*
X0196482Y0139248D01*
X0196460Y0139136D01*
X0196435Y0139026D01*
X0196405Y0138917D01*
X0196371Y0138809D01*
X0196334Y0138702D01*
X0196293Y0138596D01*
X0196248Y0138492D01*
X0196200Y0138390D01*
X0196148Y0138289D01*
X0196093Y0138190D01*
X0196034Y0138093D01*
X0195971Y0137999D01*
X0195906Y0137907D01*
X0195837Y0137817D01*
X0195765Y0137729D01*
X0195690Y0137644D01*
X0195612Y0137562D01*
X0195531Y0137483D01*
X0195448Y0137406D01*
X0195362Y0137333D01*
X0195273Y0137262D01*
X0195182Y0137195D01*
X0195088Y0137131D01*
X0194992Y0137070D01*
X0194895Y0137013D01*
X0194795Y0136960D01*
X0194693Y0136909D01*
X0194590Y0136863D01*
X0194485Y0136820D01*
X0194379Y0136781D01*
X0194271Y0136745D01*
X0194163Y0136714D01*
X0194053Y0136686D01*
X0193942Y0136662D01*
X0193831Y0136642D01*
X0193718Y0136626D01*
X0193606Y0136614D01*
X0193493Y0136606D01*
X0193380Y0136602D01*
X0193266Y0136602D01*
X0193153Y0136606D01*
X0193040Y0136614D01*
X0192928Y0136626D01*
X0192815Y0136642D01*
X0192704Y0136662D01*
X0192593Y0136686D01*
X0192483Y0136714D01*
X0192375Y0136745D01*
X0192267Y0136781D01*
X0192161Y0136820D01*
X0192056Y0136863D01*
X0191953Y0136909D01*
X0191851Y0136960D01*
X0191751Y0137013D01*
X0191654Y0137070D01*
X0191558Y0137131D01*
X0191464Y0137195D01*
X0191373Y0137262D01*
X0191284Y0137333D01*
X0191198Y0137406D01*
X0191115Y0137483D01*
X0191034Y0137562D01*
X0190956Y0137644D01*
X0190881Y0137729D01*
X0190809Y0137817D01*
X0190740Y0137907D01*
X0190675Y0137999D01*
X0190612Y0138093D01*
X0190553Y0138190D01*
X0190498Y0138289D01*
X0190446Y0138390D01*
X0190398Y0138492D01*
X0190353Y0138596D01*
X0190312Y0138702D01*
X0190275Y0138809D01*
X0190241Y0138917D01*
X0190211Y0139026D01*
X0190186Y0139136D01*
X0190164Y0139248D01*
X0190146Y0139359D01*
X0190132Y0139472D01*
X0190122Y0139585D01*
X0190116Y0139698D01*
X0190114Y0139811D01*
X0190114Y0171307D02*
X0190116Y0171420D01*
X0190122Y0171533D01*
X0190132Y0171646D01*
X0190146Y0171759D01*
X0190164Y0171870D01*
X0190186Y0171982D01*
X0190211Y0172092D01*
X0190241Y0172201D01*
X0190275Y0172309D01*
X0190312Y0172416D01*
X0190353Y0172522D01*
X0190398Y0172626D01*
X0190446Y0172728D01*
X0190498Y0172829D01*
X0190553Y0172928D01*
X0190612Y0173025D01*
X0190675Y0173119D01*
X0190740Y0173211D01*
X0190809Y0173301D01*
X0190881Y0173389D01*
X0190956Y0173474D01*
X0191034Y0173556D01*
X0191115Y0173635D01*
X0191198Y0173712D01*
X0191284Y0173785D01*
X0191373Y0173856D01*
X0191464Y0173923D01*
X0191558Y0173987D01*
X0191654Y0174048D01*
X0191751Y0174105D01*
X0191851Y0174158D01*
X0191953Y0174209D01*
X0192056Y0174255D01*
X0192161Y0174298D01*
X0192267Y0174337D01*
X0192375Y0174373D01*
X0192483Y0174404D01*
X0192593Y0174432D01*
X0192704Y0174456D01*
X0192815Y0174476D01*
X0192928Y0174492D01*
X0193040Y0174504D01*
X0193153Y0174512D01*
X0193266Y0174516D01*
X0193380Y0174516D01*
X0193493Y0174512D01*
X0193606Y0174504D01*
X0193718Y0174492D01*
X0193831Y0174476D01*
X0193942Y0174456D01*
X0194053Y0174432D01*
X0194163Y0174404D01*
X0194271Y0174373D01*
X0194379Y0174337D01*
X0194485Y0174298D01*
X0194590Y0174255D01*
X0194693Y0174209D01*
X0194795Y0174158D01*
X0194895Y0174105D01*
X0194992Y0174048D01*
X0195088Y0173987D01*
X0195182Y0173923D01*
X0195273Y0173856D01*
X0195362Y0173785D01*
X0195448Y0173712D01*
X0195531Y0173635D01*
X0195612Y0173556D01*
X0195690Y0173474D01*
X0195765Y0173389D01*
X0195837Y0173301D01*
X0195906Y0173211D01*
X0195971Y0173119D01*
X0196034Y0173025D01*
X0196093Y0172928D01*
X0196148Y0172829D01*
X0196200Y0172728D01*
X0196248Y0172626D01*
X0196293Y0172522D01*
X0196334Y0172416D01*
X0196371Y0172309D01*
X0196405Y0172201D01*
X0196435Y0172092D01*
X0196460Y0171982D01*
X0196482Y0171870D01*
X0196500Y0171759D01*
X0196514Y0171646D01*
X0196524Y0171533D01*
X0196530Y0171420D01*
X0196532Y0171307D01*
X0196530Y0171194D01*
X0196524Y0171081D01*
X0196514Y0170968D01*
X0196500Y0170855D01*
X0196482Y0170744D01*
X0196460Y0170632D01*
X0196435Y0170522D01*
X0196405Y0170413D01*
X0196371Y0170305D01*
X0196334Y0170198D01*
X0196293Y0170092D01*
X0196248Y0169988D01*
X0196200Y0169886D01*
X0196148Y0169785D01*
X0196093Y0169686D01*
X0196034Y0169589D01*
X0195971Y0169495D01*
X0195906Y0169403D01*
X0195837Y0169313D01*
X0195765Y0169225D01*
X0195690Y0169140D01*
X0195612Y0169058D01*
X0195531Y0168979D01*
X0195448Y0168902D01*
X0195362Y0168829D01*
X0195273Y0168758D01*
X0195182Y0168691D01*
X0195088Y0168627D01*
X0194992Y0168566D01*
X0194895Y0168509D01*
X0194795Y0168456D01*
X0194693Y0168405D01*
X0194590Y0168359D01*
X0194485Y0168316D01*
X0194379Y0168277D01*
X0194271Y0168241D01*
X0194163Y0168210D01*
X0194053Y0168182D01*
X0193942Y0168158D01*
X0193831Y0168138D01*
X0193718Y0168122D01*
X0193606Y0168110D01*
X0193493Y0168102D01*
X0193380Y0168098D01*
X0193266Y0168098D01*
X0193153Y0168102D01*
X0193040Y0168110D01*
X0192928Y0168122D01*
X0192815Y0168138D01*
X0192704Y0168158D01*
X0192593Y0168182D01*
X0192483Y0168210D01*
X0192375Y0168241D01*
X0192267Y0168277D01*
X0192161Y0168316D01*
X0192056Y0168359D01*
X0191953Y0168405D01*
X0191851Y0168456D01*
X0191751Y0168509D01*
X0191654Y0168566D01*
X0191558Y0168627D01*
X0191464Y0168691D01*
X0191373Y0168758D01*
X0191284Y0168829D01*
X0191198Y0168902D01*
X0191115Y0168979D01*
X0191034Y0169058D01*
X0190956Y0169140D01*
X0190881Y0169225D01*
X0190809Y0169313D01*
X0190740Y0169403D01*
X0190675Y0169495D01*
X0190612Y0169589D01*
X0190553Y0169686D01*
X0190498Y0169785D01*
X0190446Y0169886D01*
X0190398Y0169988D01*
X0190353Y0170092D01*
X0190312Y0170198D01*
X0190275Y0170305D01*
X0190241Y0170413D01*
X0190211Y0170522D01*
X0190186Y0170632D01*
X0190164Y0170744D01*
X0190146Y0170855D01*
X0190132Y0170968D01*
X0190122Y0171081D01*
X0190116Y0171194D01*
X0190114Y0171307D01*
X0162555Y0171307D02*
X0162557Y0171420D01*
X0162563Y0171533D01*
X0162573Y0171646D01*
X0162587Y0171759D01*
X0162605Y0171870D01*
X0162627Y0171982D01*
X0162652Y0172092D01*
X0162682Y0172201D01*
X0162716Y0172309D01*
X0162753Y0172416D01*
X0162794Y0172522D01*
X0162839Y0172626D01*
X0162887Y0172728D01*
X0162939Y0172829D01*
X0162994Y0172928D01*
X0163053Y0173025D01*
X0163116Y0173119D01*
X0163181Y0173211D01*
X0163250Y0173301D01*
X0163322Y0173389D01*
X0163397Y0173474D01*
X0163475Y0173556D01*
X0163556Y0173635D01*
X0163639Y0173712D01*
X0163725Y0173785D01*
X0163814Y0173856D01*
X0163905Y0173923D01*
X0163999Y0173987D01*
X0164095Y0174048D01*
X0164192Y0174105D01*
X0164292Y0174158D01*
X0164394Y0174209D01*
X0164497Y0174255D01*
X0164602Y0174298D01*
X0164708Y0174337D01*
X0164816Y0174373D01*
X0164924Y0174404D01*
X0165034Y0174432D01*
X0165145Y0174456D01*
X0165256Y0174476D01*
X0165369Y0174492D01*
X0165481Y0174504D01*
X0165594Y0174512D01*
X0165707Y0174516D01*
X0165821Y0174516D01*
X0165934Y0174512D01*
X0166047Y0174504D01*
X0166159Y0174492D01*
X0166272Y0174476D01*
X0166383Y0174456D01*
X0166494Y0174432D01*
X0166604Y0174404D01*
X0166712Y0174373D01*
X0166820Y0174337D01*
X0166926Y0174298D01*
X0167031Y0174255D01*
X0167134Y0174209D01*
X0167236Y0174158D01*
X0167336Y0174105D01*
X0167433Y0174048D01*
X0167529Y0173987D01*
X0167623Y0173923D01*
X0167714Y0173856D01*
X0167803Y0173785D01*
X0167889Y0173712D01*
X0167972Y0173635D01*
X0168053Y0173556D01*
X0168131Y0173474D01*
X0168206Y0173389D01*
X0168278Y0173301D01*
X0168347Y0173211D01*
X0168412Y0173119D01*
X0168475Y0173025D01*
X0168534Y0172928D01*
X0168589Y0172829D01*
X0168641Y0172728D01*
X0168689Y0172626D01*
X0168734Y0172522D01*
X0168775Y0172416D01*
X0168812Y0172309D01*
X0168846Y0172201D01*
X0168876Y0172092D01*
X0168901Y0171982D01*
X0168923Y0171870D01*
X0168941Y0171759D01*
X0168955Y0171646D01*
X0168965Y0171533D01*
X0168971Y0171420D01*
X0168973Y0171307D01*
X0168971Y0171194D01*
X0168965Y0171081D01*
X0168955Y0170968D01*
X0168941Y0170855D01*
X0168923Y0170744D01*
X0168901Y0170632D01*
X0168876Y0170522D01*
X0168846Y0170413D01*
X0168812Y0170305D01*
X0168775Y0170198D01*
X0168734Y0170092D01*
X0168689Y0169988D01*
X0168641Y0169886D01*
X0168589Y0169785D01*
X0168534Y0169686D01*
X0168475Y0169589D01*
X0168412Y0169495D01*
X0168347Y0169403D01*
X0168278Y0169313D01*
X0168206Y0169225D01*
X0168131Y0169140D01*
X0168053Y0169058D01*
X0167972Y0168979D01*
X0167889Y0168902D01*
X0167803Y0168829D01*
X0167714Y0168758D01*
X0167623Y0168691D01*
X0167529Y0168627D01*
X0167433Y0168566D01*
X0167336Y0168509D01*
X0167236Y0168456D01*
X0167134Y0168405D01*
X0167031Y0168359D01*
X0166926Y0168316D01*
X0166820Y0168277D01*
X0166712Y0168241D01*
X0166604Y0168210D01*
X0166494Y0168182D01*
X0166383Y0168158D01*
X0166272Y0168138D01*
X0166159Y0168122D01*
X0166047Y0168110D01*
X0165934Y0168102D01*
X0165821Y0168098D01*
X0165707Y0168098D01*
X0165594Y0168102D01*
X0165481Y0168110D01*
X0165369Y0168122D01*
X0165256Y0168138D01*
X0165145Y0168158D01*
X0165034Y0168182D01*
X0164924Y0168210D01*
X0164816Y0168241D01*
X0164708Y0168277D01*
X0164602Y0168316D01*
X0164497Y0168359D01*
X0164394Y0168405D01*
X0164292Y0168456D01*
X0164192Y0168509D01*
X0164095Y0168566D01*
X0163999Y0168627D01*
X0163905Y0168691D01*
X0163814Y0168758D01*
X0163725Y0168829D01*
X0163639Y0168902D01*
X0163556Y0168979D01*
X0163475Y0169058D01*
X0163397Y0169140D01*
X0163322Y0169225D01*
X0163250Y0169313D01*
X0163181Y0169403D01*
X0163116Y0169495D01*
X0163053Y0169589D01*
X0162994Y0169686D01*
X0162939Y0169785D01*
X0162887Y0169886D01*
X0162839Y0169988D01*
X0162794Y0170092D01*
X0162753Y0170198D01*
X0162716Y0170305D01*
X0162682Y0170413D01*
X0162652Y0170522D01*
X0162627Y0170632D01*
X0162605Y0170744D01*
X0162587Y0170855D01*
X0162573Y0170968D01*
X0162563Y0171081D01*
X0162557Y0171194D01*
X0162555Y0171307D01*
X0162555Y0202803D02*
X0162557Y0202916D01*
X0162563Y0203029D01*
X0162573Y0203142D01*
X0162587Y0203255D01*
X0162605Y0203366D01*
X0162627Y0203478D01*
X0162652Y0203588D01*
X0162682Y0203697D01*
X0162716Y0203805D01*
X0162753Y0203912D01*
X0162794Y0204018D01*
X0162839Y0204122D01*
X0162887Y0204224D01*
X0162939Y0204325D01*
X0162994Y0204424D01*
X0163053Y0204521D01*
X0163116Y0204615D01*
X0163181Y0204707D01*
X0163250Y0204797D01*
X0163322Y0204885D01*
X0163397Y0204970D01*
X0163475Y0205052D01*
X0163556Y0205131D01*
X0163639Y0205208D01*
X0163725Y0205281D01*
X0163814Y0205352D01*
X0163905Y0205419D01*
X0163999Y0205483D01*
X0164095Y0205544D01*
X0164192Y0205601D01*
X0164292Y0205654D01*
X0164394Y0205705D01*
X0164497Y0205751D01*
X0164602Y0205794D01*
X0164708Y0205833D01*
X0164816Y0205869D01*
X0164924Y0205900D01*
X0165034Y0205928D01*
X0165145Y0205952D01*
X0165256Y0205972D01*
X0165369Y0205988D01*
X0165481Y0206000D01*
X0165594Y0206008D01*
X0165707Y0206012D01*
X0165821Y0206012D01*
X0165934Y0206008D01*
X0166047Y0206000D01*
X0166159Y0205988D01*
X0166272Y0205972D01*
X0166383Y0205952D01*
X0166494Y0205928D01*
X0166604Y0205900D01*
X0166712Y0205869D01*
X0166820Y0205833D01*
X0166926Y0205794D01*
X0167031Y0205751D01*
X0167134Y0205705D01*
X0167236Y0205654D01*
X0167336Y0205601D01*
X0167433Y0205544D01*
X0167529Y0205483D01*
X0167623Y0205419D01*
X0167714Y0205352D01*
X0167803Y0205281D01*
X0167889Y0205208D01*
X0167972Y0205131D01*
X0168053Y0205052D01*
X0168131Y0204970D01*
X0168206Y0204885D01*
X0168278Y0204797D01*
X0168347Y0204707D01*
X0168412Y0204615D01*
X0168475Y0204521D01*
X0168534Y0204424D01*
X0168589Y0204325D01*
X0168641Y0204224D01*
X0168689Y0204122D01*
X0168734Y0204018D01*
X0168775Y0203912D01*
X0168812Y0203805D01*
X0168846Y0203697D01*
X0168876Y0203588D01*
X0168901Y0203478D01*
X0168923Y0203366D01*
X0168941Y0203255D01*
X0168955Y0203142D01*
X0168965Y0203029D01*
X0168971Y0202916D01*
X0168973Y0202803D01*
X0168971Y0202690D01*
X0168965Y0202577D01*
X0168955Y0202464D01*
X0168941Y0202351D01*
X0168923Y0202240D01*
X0168901Y0202128D01*
X0168876Y0202018D01*
X0168846Y0201909D01*
X0168812Y0201801D01*
X0168775Y0201694D01*
X0168734Y0201588D01*
X0168689Y0201484D01*
X0168641Y0201382D01*
X0168589Y0201281D01*
X0168534Y0201182D01*
X0168475Y0201085D01*
X0168412Y0200991D01*
X0168347Y0200899D01*
X0168278Y0200809D01*
X0168206Y0200721D01*
X0168131Y0200636D01*
X0168053Y0200554D01*
X0167972Y0200475D01*
X0167889Y0200398D01*
X0167803Y0200325D01*
X0167714Y0200254D01*
X0167623Y0200187D01*
X0167529Y0200123D01*
X0167433Y0200062D01*
X0167336Y0200005D01*
X0167236Y0199952D01*
X0167134Y0199901D01*
X0167031Y0199855D01*
X0166926Y0199812D01*
X0166820Y0199773D01*
X0166712Y0199737D01*
X0166604Y0199706D01*
X0166494Y0199678D01*
X0166383Y0199654D01*
X0166272Y0199634D01*
X0166159Y0199618D01*
X0166047Y0199606D01*
X0165934Y0199598D01*
X0165821Y0199594D01*
X0165707Y0199594D01*
X0165594Y0199598D01*
X0165481Y0199606D01*
X0165369Y0199618D01*
X0165256Y0199634D01*
X0165145Y0199654D01*
X0165034Y0199678D01*
X0164924Y0199706D01*
X0164816Y0199737D01*
X0164708Y0199773D01*
X0164602Y0199812D01*
X0164497Y0199855D01*
X0164394Y0199901D01*
X0164292Y0199952D01*
X0164192Y0200005D01*
X0164095Y0200062D01*
X0163999Y0200123D01*
X0163905Y0200187D01*
X0163814Y0200254D01*
X0163725Y0200325D01*
X0163639Y0200398D01*
X0163556Y0200475D01*
X0163475Y0200554D01*
X0163397Y0200636D01*
X0163322Y0200721D01*
X0163250Y0200809D01*
X0163181Y0200899D01*
X0163116Y0200991D01*
X0163053Y0201085D01*
X0162994Y0201182D01*
X0162939Y0201281D01*
X0162887Y0201382D01*
X0162839Y0201484D01*
X0162794Y0201588D01*
X0162753Y0201694D01*
X0162716Y0201801D01*
X0162682Y0201909D01*
X0162652Y0202018D01*
X0162627Y0202128D01*
X0162605Y0202240D01*
X0162587Y0202351D01*
X0162573Y0202464D01*
X0162563Y0202577D01*
X0162557Y0202690D01*
X0162555Y0202803D01*
X0190114Y0202803D02*
X0190116Y0202916D01*
X0190122Y0203029D01*
X0190132Y0203142D01*
X0190146Y0203255D01*
X0190164Y0203366D01*
X0190186Y0203478D01*
X0190211Y0203588D01*
X0190241Y0203697D01*
X0190275Y0203805D01*
X0190312Y0203912D01*
X0190353Y0204018D01*
X0190398Y0204122D01*
X0190446Y0204224D01*
X0190498Y0204325D01*
X0190553Y0204424D01*
X0190612Y0204521D01*
X0190675Y0204615D01*
X0190740Y0204707D01*
X0190809Y0204797D01*
X0190881Y0204885D01*
X0190956Y0204970D01*
X0191034Y0205052D01*
X0191115Y0205131D01*
X0191198Y0205208D01*
X0191284Y0205281D01*
X0191373Y0205352D01*
X0191464Y0205419D01*
X0191558Y0205483D01*
X0191654Y0205544D01*
X0191751Y0205601D01*
X0191851Y0205654D01*
X0191953Y0205705D01*
X0192056Y0205751D01*
X0192161Y0205794D01*
X0192267Y0205833D01*
X0192375Y0205869D01*
X0192483Y0205900D01*
X0192593Y0205928D01*
X0192704Y0205952D01*
X0192815Y0205972D01*
X0192928Y0205988D01*
X0193040Y0206000D01*
X0193153Y0206008D01*
X0193266Y0206012D01*
X0193380Y0206012D01*
X0193493Y0206008D01*
X0193606Y0206000D01*
X0193718Y0205988D01*
X0193831Y0205972D01*
X0193942Y0205952D01*
X0194053Y0205928D01*
X0194163Y0205900D01*
X0194271Y0205869D01*
X0194379Y0205833D01*
X0194485Y0205794D01*
X0194590Y0205751D01*
X0194693Y0205705D01*
X0194795Y0205654D01*
X0194895Y0205601D01*
X0194992Y0205544D01*
X0195088Y0205483D01*
X0195182Y0205419D01*
X0195273Y0205352D01*
X0195362Y0205281D01*
X0195448Y0205208D01*
X0195531Y0205131D01*
X0195612Y0205052D01*
X0195690Y0204970D01*
X0195765Y0204885D01*
X0195837Y0204797D01*
X0195906Y0204707D01*
X0195971Y0204615D01*
X0196034Y0204521D01*
X0196093Y0204424D01*
X0196148Y0204325D01*
X0196200Y0204224D01*
X0196248Y0204122D01*
X0196293Y0204018D01*
X0196334Y0203912D01*
X0196371Y0203805D01*
X0196405Y0203697D01*
X0196435Y0203588D01*
X0196460Y0203478D01*
X0196482Y0203366D01*
X0196500Y0203255D01*
X0196514Y0203142D01*
X0196524Y0203029D01*
X0196530Y0202916D01*
X0196532Y0202803D01*
X0196530Y0202690D01*
X0196524Y0202577D01*
X0196514Y0202464D01*
X0196500Y0202351D01*
X0196482Y0202240D01*
X0196460Y0202128D01*
X0196435Y0202018D01*
X0196405Y0201909D01*
X0196371Y0201801D01*
X0196334Y0201694D01*
X0196293Y0201588D01*
X0196248Y0201484D01*
X0196200Y0201382D01*
X0196148Y0201281D01*
X0196093Y0201182D01*
X0196034Y0201085D01*
X0195971Y0200991D01*
X0195906Y0200899D01*
X0195837Y0200809D01*
X0195765Y0200721D01*
X0195690Y0200636D01*
X0195612Y0200554D01*
X0195531Y0200475D01*
X0195448Y0200398D01*
X0195362Y0200325D01*
X0195273Y0200254D01*
X0195182Y0200187D01*
X0195088Y0200123D01*
X0194992Y0200062D01*
X0194895Y0200005D01*
X0194795Y0199952D01*
X0194693Y0199901D01*
X0194590Y0199855D01*
X0194485Y0199812D01*
X0194379Y0199773D01*
X0194271Y0199737D01*
X0194163Y0199706D01*
X0194053Y0199678D01*
X0193942Y0199654D01*
X0193831Y0199634D01*
X0193718Y0199618D01*
X0193606Y0199606D01*
X0193493Y0199598D01*
X0193380Y0199594D01*
X0193266Y0199594D01*
X0193153Y0199598D01*
X0193040Y0199606D01*
X0192928Y0199618D01*
X0192815Y0199634D01*
X0192704Y0199654D01*
X0192593Y0199678D01*
X0192483Y0199706D01*
X0192375Y0199737D01*
X0192267Y0199773D01*
X0192161Y0199812D01*
X0192056Y0199855D01*
X0191953Y0199901D01*
X0191851Y0199952D01*
X0191751Y0200005D01*
X0191654Y0200062D01*
X0191558Y0200123D01*
X0191464Y0200187D01*
X0191373Y0200254D01*
X0191284Y0200325D01*
X0191198Y0200398D01*
X0191115Y0200475D01*
X0191034Y0200554D01*
X0190956Y0200636D01*
X0190881Y0200721D01*
X0190809Y0200809D01*
X0190740Y0200899D01*
X0190675Y0200991D01*
X0190612Y0201085D01*
X0190553Y0201182D01*
X0190498Y0201281D01*
X0190446Y0201382D01*
X0190398Y0201484D01*
X0190353Y0201588D01*
X0190312Y0201694D01*
X0190275Y0201801D01*
X0190241Y0201909D01*
X0190211Y0202018D01*
X0190186Y0202128D01*
X0190164Y0202240D01*
X0190146Y0202351D01*
X0190132Y0202464D01*
X0190122Y0202577D01*
X0190116Y0202690D01*
X0190114Y0202803D01*
D14*
X0118519Y0202803D02*
X0118521Y0202891D01*
X0118527Y0202979D01*
X0118537Y0203067D01*
X0118551Y0203155D01*
X0118568Y0203241D01*
X0118590Y0203327D01*
X0118615Y0203411D01*
X0118645Y0203495D01*
X0118677Y0203577D01*
X0118714Y0203657D01*
X0118754Y0203736D01*
X0118798Y0203813D01*
X0118845Y0203888D01*
X0118895Y0203960D01*
X0118949Y0204031D01*
X0119005Y0204098D01*
X0119065Y0204164D01*
X0119127Y0204226D01*
X0119193Y0204286D01*
X0119260Y0204342D01*
X0119331Y0204396D01*
X0119403Y0204446D01*
X0119478Y0204493D01*
X0119555Y0204537D01*
X0119634Y0204577D01*
X0119714Y0204614D01*
X0119796Y0204646D01*
X0119880Y0204676D01*
X0119964Y0204701D01*
X0120050Y0204723D01*
X0120136Y0204740D01*
X0120224Y0204754D01*
X0120312Y0204764D01*
X0120400Y0204770D01*
X0120488Y0204772D01*
X0120576Y0204770D01*
X0120664Y0204764D01*
X0120752Y0204754D01*
X0120840Y0204740D01*
X0120926Y0204723D01*
X0121012Y0204701D01*
X0121096Y0204676D01*
X0121180Y0204646D01*
X0121262Y0204614D01*
X0121342Y0204577D01*
X0121421Y0204537D01*
X0121498Y0204493D01*
X0121573Y0204446D01*
X0121645Y0204396D01*
X0121716Y0204342D01*
X0121783Y0204286D01*
X0121849Y0204226D01*
X0121911Y0204164D01*
X0121971Y0204098D01*
X0122027Y0204031D01*
X0122081Y0203960D01*
X0122131Y0203888D01*
X0122178Y0203813D01*
X0122222Y0203736D01*
X0122262Y0203657D01*
X0122299Y0203577D01*
X0122331Y0203495D01*
X0122361Y0203411D01*
X0122386Y0203327D01*
X0122408Y0203241D01*
X0122425Y0203155D01*
X0122439Y0203067D01*
X0122449Y0202979D01*
X0122455Y0202891D01*
X0122457Y0202803D01*
X0122455Y0202715D01*
X0122449Y0202627D01*
X0122439Y0202539D01*
X0122425Y0202451D01*
X0122408Y0202365D01*
X0122386Y0202279D01*
X0122361Y0202195D01*
X0122331Y0202111D01*
X0122299Y0202029D01*
X0122262Y0201949D01*
X0122222Y0201870D01*
X0122178Y0201793D01*
X0122131Y0201718D01*
X0122081Y0201646D01*
X0122027Y0201575D01*
X0121971Y0201508D01*
X0121911Y0201442D01*
X0121849Y0201380D01*
X0121783Y0201320D01*
X0121716Y0201264D01*
X0121645Y0201210D01*
X0121573Y0201160D01*
X0121498Y0201113D01*
X0121421Y0201069D01*
X0121342Y0201029D01*
X0121262Y0200992D01*
X0121180Y0200960D01*
X0121096Y0200930D01*
X0121012Y0200905D01*
X0120926Y0200883D01*
X0120840Y0200866D01*
X0120752Y0200852D01*
X0120664Y0200842D01*
X0120576Y0200836D01*
X0120488Y0200834D01*
X0120400Y0200836D01*
X0120312Y0200842D01*
X0120224Y0200852D01*
X0120136Y0200866D01*
X0120050Y0200883D01*
X0119964Y0200905D01*
X0119880Y0200930D01*
X0119796Y0200960D01*
X0119714Y0200992D01*
X0119634Y0201029D01*
X0119555Y0201069D01*
X0119478Y0201113D01*
X0119403Y0201160D01*
X0119331Y0201210D01*
X0119260Y0201264D01*
X0119193Y0201320D01*
X0119127Y0201380D01*
X0119065Y0201442D01*
X0119005Y0201508D01*
X0118949Y0201575D01*
X0118895Y0201646D01*
X0118845Y0201718D01*
X0118798Y0201793D01*
X0118754Y0201870D01*
X0118714Y0201949D01*
X0118677Y0202029D01*
X0118645Y0202111D01*
X0118615Y0202195D01*
X0118590Y0202279D01*
X0118568Y0202365D01*
X0118551Y0202451D01*
X0118537Y0202539D01*
X0118527Y0202627D01*
X0118521Y0202715D01*
X0118519Y0202803D01*
X0118519Y0189811D02*
X0118521Y0189899D01*
X0118527Y0189987D01*
X0118537Y0190075D01*
X0118551Y0190163D01*
X0118568Y0190249D01*
X0118590Y0190335D01*
X0118615Y0190419D01*
X0118645Y0190503D01*
X0118677Y0190585D01*
X0118714Y0190665D01*
X0118754Y0190744D01*
X0118798Y0190821D01*
X0118845Y0190896D01*
X0118895Y0190968D01*
X0118949Y0191039D01*
X0119005Y0191106D01*
X0119065Y0191172D01*
X0119127Y0191234D01*
X0119193Y0191294D01*
X0119260Y0191350D01*
X0119331Y0191404D01*
X0119403Y0191454D01*
X0119478Y0191501D01*
X0119555Y0191545D01*
X0119634Y0191585D01*
X0119714Y0191622D01*
X0119796Y0191654D01*
X0119880Y0191684D01*
X0119964Y0191709D01*
X0120050Y0191731D01*
X0120136Y0191748D01*
X0120224Y0191762D01*
X0120312Y0191772D01*
X0120400Y0191778D01*
X0120488Y0191780D01*
X0120576Y0191778D01*
X0120664Y0191772D01*
X0120752Y0191762D01*
X0120840Y0191748D01*
X0120926Y0191731D01*
X0121012Y0191709D01*
X0121096Y0191684D01*
X0121180Y0191654D01*
X0121262Y0191622D01*
X0121342Y0191585D01*
X0121421Y0191545D01*
X0121498Y0191501D01*
X0121573Y0191454D01*
X0121645Y0191404D01*
X0121716Y0191350D01*
X0121783Y0191294D01*
X0121849Y0191234D01*
X0121911Y0191172D01*
X0121971Y0191106D01*
X0122027Y0191039D01*
X0122081Y0190968D01*
X0122131Y0190896D01*
X0122178Y0190821D01*
X0122222Y0190744D01*
X0122262Y0190665D01*
X0122299Y0190585D01*
X0122331Y0190503D01*
X0122361Y0190419D01*
X0122386Y0190335D01*
X0122408Y0190249D01*
X0122425Y0190163D01*
X0122439Y0190075D01*
X0122449Y0189987D01*
X0122455Y0189899D01*
X0122457Y0189811D01*
X0122455Y0189723D01*
X0122449Y0189635D01*
X0122439Y0189547D01*
X0122425Y0189459D01*
X0122408Y0189373D01*
X0122386Y0189287D01*
X0122361Y0189203D01*
X0122331Y0189119D01*
X0122299Y0189037D01*
X0122262Y0188957D01*
X0122222Y0188878D01*
X0122178Y0188801D01*
X0122131Y0188726D01*
X0122081Y0188654D01*
X0122027Y0188583D01*
X0121971Y0188516D01*
X0121911Y0188450D01*
X0121849Y0188388D01*
X0121783Y0188328D01*
X0121716Y0188272D01*
X0121645Y0188218D01*
X0121573Y0188168D01*
X0121498Y0188121D01*
X0121421Y0188077D01*
X0121342Y0188037D01*
X0121262Y0188000D01*
X0121180Y0187968D01*
X0121096Y0187938D01*
X0121012Y0187913D01*
X0120926Y0187891D01*
X0120840Y0187874D01*
X0120752Y0187860D01*
X0120664Y0187850D01*
X0120576Y0187844D01*
X0120488Y0187842D01*
X0120400Y0187844D01*
X0120312Y0187850D01*
X0120224Y0187860D01*
X0120136Y0187874D01*
X0120050Y0187891D01*
X0119964Y0187913D01*
X0119880Y0187938D01*
X0119796Y0187968D01*
X0119714Y0188000D01*
X0119634Y0188037D01*
X0119555Y0188077D01*
X0119478Y0188121D01*
X0119403Y0188168D01*
X0119331Y0188218D01*
X0119260Y0188272D01*
X0119193Y0188328D01*
X0119127Y0188388D01*
X0119065Y0188450D01*
X0119005Y0188516D01*
X0118949Y0188583D01*
X0118895Y0188654D01*
X0118845Y0188726D01*
X0118798Y0188801D01*
X0118754Y0188878D01*
X0118714Y0188957D01*
X0118677Y0189037D01*
X0118645Y0189119D01*
X0118615Y0189203D01*
X0118590Y0189287D01*
X0118568Y0189373D01*
X0118551Y0189459D01*
X0118537Y0189547D01*
X0118527Y0189635D01*
X0118521Y0189723D01*
X0118519Y0189811D01*
X0118519Y0171307D02*
X0118521Y0171395D01*
X0118527Y0171483D01*
X0118537Y0171571D01*
X0118551Y0171659D01*
X0118568Y0171745D01*
X0118590Y0171831D01*
X0118615Y0171915D01*
X0118645Y0171999D01*
X0118677Y0172081D01*
X0118714Y0172161D01*
X0118754Y0172240D01*
X0118798Y0172317D01*
X0118845Y0172392D01*
X0118895Y0172464D01*
X0118949Y0172535D01*
X0119005Y0172602D01*
X0119065Y0172668D01*
X0119127Y0172730D01*
X0119193Y0172790D01*
X0119260Y0172846D01*
X0119331Y0172900D01*
X0119403Y0172950D01*
X0119478Y0172997D01*
X0119555Y0173041D01*
X0119634Y0173081D01*
X0119714Y0173118D01*
X0119796Y0173150D01*
X0119880Y0173180D01*
X0119964Y0173205D01*
X0120050Y0173227D01*
X0120136Y0173244D01*
X0120224Y0173258D01*
X0120312Y0173268D01*
X0120400Y0173274D01*
X0120488Y0173276D01*
X0120576Y0173274D01*
X0120664Y0173268D01*
X0120752Y0173258D01*
X0120840Y0173244D01*
X0120926Y0173227D01*
X0121012Y0173205D01*
X0121096Y0173180D01*
X0121180Y0173150D01*
X0121262Y0173118D01*
X0121342Y0173081D01*
X0121421Y0173041D01*
X0121498Y0172997D01*
X0121573Y0172950D01*
X0121645Y0172900D01*
X0121716Y0172846D01*
X0121783Y0172790D01*
X0121849Y0172730D01*
X0121911Y0172668D01*
X0121971Y0172602D01*
X0122027Y0172535D01*
X0122081Y0172464D01*
X0122131Y0172392D01*
X0122178Y0172317D01*
X0122222Y0172240D01*
X0122262Y0172161D01*
X0122299Y0172081D01*
X0122331Y0171999D01*
X0122361Y0171915D01*
X0122386Y0171831D01*
X0122408Y0171745D01*
X0122425Y0171659D01*
X0122439Y0171571D01*
X0122449Y0171483D01*
X0122455Y0171395D01*
X0122457Y0171307D01*
X0122455Y0171219D01*
X0122449Y0171131D01*
X0122439Y0171043D01*
X0122425Y0170955D01*
X0122408Y0170869D01*
X0122386Y0170783D01*
X0122361Y0170699D01*
X0122331Y0170615D01*
X0122299Y0170533D01*
X0122262Y0170453D01*
X0122222Y0170374D01*
X0122178Y0170297D01*
X0122131Y0170222D01*
X0122081Y0170150D01*
X0122027Y0170079D01*
X0121971Y0170012D01*
X0121911Y0169946D01*
X0121849Y0169884D01*
X0121783Y0169824D01*
X0121716Y0169768D01*
X0121645Y0169714D01*
X0121573Y0169664D01*
X0121498Y0169617D01*
X0121421Y0169573D01*
X0121342Y0169533D01*
X0121262Y0169496D01*
X0121180Y0169464D01*
X0121096Y0169434D01*
X0121012Y0169409D01*
X0120926Y0169387D01*
X0120840Y0169370D01*
X0120752Y0169356D01*
X0120664Y0169346D01*
X0120576Y0169340D01*
X0120488Y0169338D01*
X0120400Y0169340D01*
X0120312Y0169346D01*
X0120224Y0169356D01*
X0120136Y0169370D01*
X0120050Y0169387D01*
X0119964Y0169409D01*
X0119880Y0169434D01*
X0119796Y0169464D01*
X0119714Y0169496D01*
X0119634Y0169533D01*
X0119555Y0169573D01*
X0119478Y0169617D01*
X0119403Y0169664D01*
X0119331Y0169714D01*
X0119260Y0169768D01*
X0119193Y0169824D01*
X0119127Y0169884D01*
X0119065Y0169946D01*
X0119005Y0170012D01*
X0118949Y0170079D01*
X0118895Y0170150D01*
X0118845Y0170222D01*
X0118798Y0170297D01*
X0118754Y0170374D01*
X0118714Y0170453D01*
X0118677Y0170533D01*
X0118645Y0170615D01*
X0118615Y0170699D01*
X0118590Y0170783D01*
X0118568Y0170869D01*
X0118551Y0170955D01*
X0118537Y0171043D01*
X0118527Y0171131D01*
X0118521Y0171219D01*
X0118519Y0171307D01*
X0118519Y0158315D02*
X0118521Y0158403D01*
X0118527Y0158491D01*
X0118537Y0158579D01*
X0118551Y0158667D01*
X0118568Y0158753D01*
X0118590Y0158839D01*
X0118615Y0158923D01*
X0118645Y0159007D01*
X0118677Y0159089D01*
X0118714Y0159169D01*
X0118754Y0159248D01*
X0118798Y0159325D01*
X0118845Y0159400D01*
X0118895Y0159472D01*
X0118949Y0159543D01*
X0119005Y0159610D01*
X0119065Y0159676D01*
X0119127Y0159738D01*
X0119193Y0159798D01*
X0119260Y0159854D01*
X0119331Y0159908D01*
X0119403Y0159958D01*
X0119478Y0160005D01*
X0119555Y0160049D01*
X0119634Y0160089D01*
X0119714Y0160126D01*
X0119796Y0160158D01*
X0119880Y0160188D01*
X0119964Y0160213D01*
X0120050Y0160235D01*
X0120136Y0160252D01*
X0120224Y0160266D01*
X0120312Y0160276D01*
X0120400Y0160282D01*
X0120488Y0160284D01*
X0120576Y0160282D01*
X0120664Y0160276D01*
X0120752Y0160266D01*
X0120840Y0160252D01*
X0120926Y0160235D01*
X0121012Y0160213D01*
X0121096Y0160188D01*
X0121180Y0160158D01*
X0121262Y0160126D01*
X0121342Y0160089D01*
X0121421Y0160049D01*
X0121498Y0160005D01*
X0121573Y0159958D01*
X0121645Y0159908D01*
X0121716Y0159854D01*
X0121783Y0159798D01*
X0121849Y0159738D01*
X0121911Y0159676D01*
X0121971Y0159610D01*
X0122027Y0159543D01*
X0122081Y0159472D01*
X0122131Y0159400D01*
X0122178Y0159325D01*
X0122222Y0159248D01*
X0122262Y0159169D01*
X0122299Y0159089D01*
X0122331Y0159007D01*
X0122361Y0158923D01*
X0122386Y0158839D01*
X0122408Y0158753D01*
X0122425Y0158667D01*
X0122439Y0158579D01*
X0122449Y0158491D01*
X0122455Y0158403D01*
X0122457Y0158315D01*
X0122455Y0158227D01*
X0122449Y0158139D01*
X0122439Y0158051D01*
X0122425Y0157963D01*
X0122408Y0157877D01*
X0122386Y0157791D01*
X0122361Y0157707D01*
X0122331Y0157623D01*
X0122299Y0157541D01*
X0122262Y0157461D01*
X0122222Y0157382D01*
X0122178Y0157305D01*
X0122131Y0157230D01*
X0122081Y0157158D01*
X0122027Y0157087D01*
X0121971Y0157020D01*
X0121911Y0156954D01*
X0121849Y0156892D01*
X0121783Y0156832D01*
X0121716Y0156776D01*
X0121645Y0156722D01*
X0121573Y0156672D01*
X0121498Y0156625D01*
X0121421Y0156581D01*
X0121342Y0156541D01*
X0121262Y0156504D01*
X0121180Y0156472D01*
X0121096Y0156442D01*
X0121012Y0156417D01*
X0120926Y0156395D01*
X0120840Y0156378D01*
X0120752Y0156364D01*
X0120664Y0156354D01*
X0120576Y0156348D01*
X0120488Y0156346D01*
X0120400Y0156348D01*
X0120312Y0156354D01*
X0120224Y0156364D01*
X0120136Y0156378D01*
X0120050Y0156395D01*
X0119964Y0156417D01*
X0119880Y0156442D01*
X0119796Y0156472D01*
X0119714Y0156504D01*
X0119634Y0156541D01*
X0119555Y0156581D01*
X0119478Y0156625D01*
X0119403Y0156672D01*
X0119331Y0156722D01*
X0119260Y0156776D01*
X0119193Y0156832D01*
X0119127Y0156892D01*
X0119065Y0156954D01*
X0119005Y0157020D01*
X0118949Y0157087D01*
X0118895Y0157158D01*
X0118845Y0157230D01*
X0118798Y0157305D01*
X0118754Y0157382D01*
X0118714Y0157461D01*
X0118677Y0157541D01*
X0118645Y0157623D01*
X0118615Y0157707D01*
X0118590Y0157791D01*
X0118568Y0157877D01*
X0118551Y0157963D01*
X0118537Y0158051D01*
X0118527Y0158139D01*
X0118521Y0158227D01*
X0118519Y0158315D01*
X0118519Y0139811D02*
X0118521Y0139899D01*
X0118527Y0139987D01*
X0118537Y0140075D01*
X0118551Y0140163D01*
X0118568Y0140249D01*
X0118590Y0140335D01*
X0118615Y0140419D01*
X0118645Y0140503D01*
X0118677Y0140585D01*
X0118714Y0140665D01*
X0118754Y0140744D01*
X0118798Y0140821D01*
X0118845Y0140896D01*
X0118895Y0140968D01*
X0118949Y0141039D01*
X0119005Y0141106D01*
X0119065Y0141172D01*
X0119127Y0141234D01*
X0119193Y0141294D01*
X0119260Y0141350D01*
X0119331Y0141404D01*
X0119403Y0141454D01*
X0119478Y0141501D01*
X0119555Y0141545D01*
X0119634Y0141585D01*
X0119714Y0141622D01*
X0119796Y0141654D01*
X0119880Y0141684D01*
X0119964Y0141709D01*
X0120050Y0141731D01*
X0120136Y0141748D01*
X0120224Y0141762D01*
X0120312Y0141772D01*
X0120400Y0141778D01*
X0120488Y0141780D01*
X0120576Y0141778D01*
X0120664Y0141772D01*
X0120752Y0141762D01*
X0120840Y0141748D01*
X0120926Y0141731D01*
X0121012Y0141709D01*
X0121096Y0141684D01*
X0121180Y0141654D01*
X0121262Y0141622D01*
X0121342Y0141585D01*
X0121421Y0141545D01*
X0121498Y0141501D01*
X0121573Y0141454D01*
X0121645Y0141404D01*
X0121716Y0141350D01*
X0121783Y0141294D01*
X0121849Y0141234D01*
X0121911Y0141172D01*
X0121971Y0141106D01*
X0122027Y0141039D01*
X0122081Y0140968D01*
X0122131Y0140896D01*
X0122178Y0140821D01*
X0122222Y0140744D01*
X0122262Y0140665D01*
X0122299Y0140585D01*
X0122331Y0140503D01*
X0122361Y0140419D01*
X0122386Y0140335D01*
X0122408Y0140249D01*
X0122425Y0140163D01*
X0122439Y0140075D01*
X0122449Y0139987D01*
X0122455Y0139899D01*
X0122457Y0139811D01*
X0122455Y0139723D01*
X0122449Y0139635D01*
X0122439Y0139547D01*
X0122425Y0139459D01*
X0122408Y0139373D01*
X0122386Y0139287D01*
X0122361Y0139203D01*
X0122331Y0139119D01*
X0122299Y0139037D01*
X0122262Y0138957D01*
X0122222Y0138878D01*
X0122178Y0138801D01*
X0122131Y0138726D01*
X0122081Y0138654D01*
X0122027Y0138583D01*
X0121971Y0138516D01*
X0121911Y0138450D01*
X0121849Y0138388D01*
X0121783Y0138328D01*
X0121716Y0138272D01*
X0121645Y0138218D01*
X0121573Y0138168D01*
X0121498Y0138121D01*
X0121421Y0138077D01*
X0121342Y0138037D01*
X0121262Y0138000D01*
X0121180Y0137968D01*
X0121096Y0137938D01*
X0121012Y0137913D01*
X0120926Y0137891D01*
X0120840Y0137874D01*
X0120752Y0137860D01*
X0120664Y0137850D01*
X0120576Y0137844D01*
X0120488Y0137842D01*
X0120400Y0137844D01*
X0120312Y0137850D01*
X0120224Y0137860D01*
X0120136Y0137874D01*
X0120050Y0137891D01*
X0119964Y0137913D01*
X0119880Y0137938D01*
X0119796Y0137968D01*
X0119714Y0138000D01*
X0119634Y0138037D01*
X0119555Y0138077D01*
X0119478Y0138121D01*
X0119403Y0138168D01*
X0119331Y0138218D01*
X0119260Y0138272D01*
X0119193Y0138328D01*
X0119127Y0138388D01*
X0119065Y0138450D01*
X0119005Y0138516D01*
X0118949Y0138583D01*
X0118895Y0138654D01*
X0118845Y0138726D01*
X0118798Y0138801D01*
X0118754Y0138878D01*
X0118714Y0138957D01*
X0118677Y0139037D01*
X0118645Y0139119D01*
X0118615Y0139203D01*
X0118590Y0139287D01*
X0118568Y0139373D01*
X0118551Y0139459D01*
X0118537Y0139547D01*
X0118527Y0139635D01*
X0118521Y0139723D01*
X0118519Y0139811D01*
X0118519Y0126819D02*
X0118521Y0126907D01*
X0118527Y0126995D01*
X0118537Y0127083D01*
X0118551Y0127171D01*
X0118568Y0127257D01*
X0118590Y0127343D01*
X0118615Y0127427D01*
X0118645Y0127511D01*
X0118677Y0127593D01*
X0118714Y0127673D01*
X0118754Y0127752D01*
X0118798Y0127829D01*
X0118845Y0127904D01*
X0118895Y0127976D01*
X0118949Y0128047D01*
X0119005Y0128114D01*
X0119065Y0128180D01*
X0119127Y0128242D01*
X0119193Y0128302D01*
X0119260Y0128358D01*
X0119331Y0128412D01*
X0119403Y0128462D01*
X0119478Y0128509D01*
X0119555Y0128553D01*
X0119634Y0128593D01*
X0119714Y0128630D01*
X0119796Y0128662D01*
X0119880Y0128692D01*
X0119964Y0128717D01*
X0120050Y0128739D01*
X0120136Y0128756D01*
X0120224Y0128770D01*
X0120312Y0128780D01*
X0120400Y0128786D01*
X0120488Y0128788D01*
X0120576Y0128786D01*
X0120664Y0128780D01*
X0120752Y0128770D01*
X0120840Y0128756D01*
X0120926Y0128739D01*
X0121012Y0128717D01*
X0121096Y0128692D01*
X0121180Y0128662D01*
X0121262Y0128630D01*
X0121342Y0128593D01*
X0121421Y0128553D01*
X0121498Y0128509D01*
X0121573Y0128462D01*
X0121645Y0128412D01*
X0121716Y0128358D01*
X0121783Y0128302D01*
X0121849Y0128242D01*
X0121911Y0128180D01*
X0121971Y0128114D01*
X0122027Y0128047D01*
X0122081Y0127976D01*
X0122131Y0127904D01*
X0122178Y0127829D01*
X0122222Y0127752D01*
X0122262Y0127673D01*
X0122299Y0127593D01*
X0122331Y0127511D01*
X0122361Y0127427D01*
X0122386Y0127343D01*
X0122408Y0127257D01*
X0122425Y0127171D01*
X0122439Y0127083D01*
X0122449Y0126995D01*
X0122455Y0126907D01*
X0122457Y0126819D01*
X0122455Y0126731D01*
X0122449Y0126643D01*
X0122439Y0126555D01*
X0122425Y0126467D01*
X0122408Y0126381D01*
X0122386Y0126295D01*
X0122361Y0126211D01*
X0122331Y0126127D01*
X0122299Y0126045D01*
X0122262Y0125965D01*
X0122222Y0125886D01*
X0122178Y0125809D01*
X0122131Y0125734D01*
X0122081Y0125662D01*
X0122027Y0125591D01*
X0121971Y0125524D01*
X0121911Y0125458D01*
X0121849Y0125396D01*
X0121783Y0125336D01*
X0121716Y0125280D01*
X0121645Y0125226D01*
X0121573Y0125176D01*
X0121498Y0125129D01*
X0121421Y0125085D01*
X0121342Y0125045D01*
X0121262Y0125008D01*
X0121180Y0124976D01*
X0121096Y0124946D01*
X0121012Y0124921D01*
X0120926Y0124899D01*
X0120840Y0124882D01*
X0120752Y0124868D01*
X0120664Y0124858D01*
X0120576Y0124852D01*
X0120488Y0124850D01*
X0120400Y0124852D01*
X0120312Y0124858D01*
X0120224Y0124868D01*
X0120136Y0124882D01*
X0120050Y0124899D01*
X0119964Y0124921D01*
X0119880Y0124946D01*
X0119796Y0124976D01*
X0119714Y0125008D01*
X0119634Y0125045D01*
X0119555Y0125085D01*
X0119478Y0125129D01*
X0119403Y0125176D01*
X0119331Y0125226D01*
X0119260Y0125280D01*
X0119193Y0125336D01*
X0119127Y0125396D01*
X0119065Y0125458D01*
X0119005Y0125524D01*
X0118949Y0125591D01*
X0118895Y0125662D01*
X0118845Y0125734D01*
X0118798Y0125809D01*
X0118754Y0125886D01*
X0118714Y0125965D01*
X0118677Y0126045D01*
X0118645Y0126127D01*
X0118615Y0126211D01*
X0118590Y0126295D01*
X0118568Y0126381D01*
X0118551Y0126467D01*
X0118537Y0126555D01*
X0118527Y0126643D01*
X0118521Y0126731D01*
X0118519Y0126819D01*
X0118519Y0108315D02*
X0118521Y0108403D01*
X0118527Y0108491D01*
X0118537Y0108579D01*
X0118551Y0108667D01*
X0118568Y0108753D01*
X0118590Y0108839D01*
X0118615Y0108923D01*
X0118645Y0109007D01*
X0118677Y0109089D01*
X0118714Y0109169D01*
X0118754Y0109248D01*
X0118798Y0109325D01*
X0118845Y0109400D01*
X0118895Y0109472D01*
X0118949Y0109543D01*
X0119005Y0109610D01*
X0119065Y0109676D01*
X0119127Y0109738D01*
X0119193Y0109798D01*
X0119260Y0109854D01*
X0119331Y0109908D01*
X0119403Y0109958D01*
X0119478Y0110005D01*
X0119555Y0110049D01*
X0119634Y0110089D01*
X0119714Y0110126D01*
X0119796Y0110158D01*
X0119880Y0110188D01*
X0119964Y0110213D01*
X0120050Y0110235D01*
X0120136Y0110252D01*
X0120224Y0110266D01*
X0120312Y0110276D01*
X0120400Y0110282D01*
X0120488Y0110284D01*
X0120576Y0110282D01*
X0120664Y0110276D01*
X0120752Y0110266D01*
X0120840Y0110252D01*
X0120926Y0110235D01*
X0121012Y0110213D01*
X0121096Y0110188D01*
X0121180Y0110158D01*
X0121262Y0110126D01*
X0121342Y0110089D01*
X0121421Y0110049D01*
X0121498Y0110005D01*
X0121573Y0109958D01*
X0121645Y0109908D01*
X0121716Y0109854D01*
X0121783Y0109798D01*
X0121849Y0109738D01*
X0121911Y0109676D01*
X0121971Y0109610D01*
X0122027Y0109543D01*
X0122081Y0109472D01*
X0122131Y0109400D01*
X0122178Y0109325D01*
X0122222Y0109248D01*
X0122262Y0109169D01*
X0122299Y0109089D01*
X0122331Y0109007D01*
X0122361Y0108923D01*
X0122386Y0108839D01*
X0122408Y0108753D01*
X0122425Y0108667D01*
X0122439Y0108579D01*
X0122449Y0108491D01*
X0122455Y0108403D01*
X0122457Y0108315D01*
X0122455Y0108227D01*
X0122449Y0108139D01*
X0122439Y0108051D01*
X0122425Y0107963D01*
X0122408Y0107877D01*
X0122386Y0107791D01*
X0122361Y0107707D01*
X0122331Y0107623D01*
X0122299Y0107541D01*
X0122262Y0107461D01*
X0122222Y0107382D01*
X0122178Y0107305D01*
X0122131Y0107230D01*
X0122081Y0107158D01*
X0122027Y0107087D01*
X0121971Y0107020D01*
X0121911Y0106954D01*
X0121849Y0106892D01*
X0121783Y0106832D01*
X0121716Y0106776D01*
X0121645Y0106722D01*
X0121573Y0106672D01*
X0121498Y0106625D01*
X0121421Y0106581D01*
X0121342Y0106541D01*
X0121262Y0106504D01*
X0121180Y0106472D01*
X0121096Y0106442D01*
X0121012Y0106417D01*
X0120926Y0106395D01*
X0120840Y0106378D01*
X0120752Y0106364D01*
X0120664Y0106354D01*
X0120576Y0106348D01*
X0120488Y0106346D01*
X0120400Y0106348D01*
X0120312Y0106354D01*
X0120224Y0106364D01*
X0120136Y0106378D01*
X0120050Y0106395D01*
X0119964Y0106417D01*
X0119880Y0106442D01*
X0119796Y0106472D01*
X0119714Y0106504D01*
X0119634Y0106541D01*
X0119555Y0106581D01*
X0119478Y0106625D01*
X0119403Y0106672D01*
X0119331Y0106722D01*
X0119260Y0106776D01*
X0119193Y0106832D01*
X0119127Y0106892D01*
X0119065Y0106954D01*
X0119005Y0107020D01*
X0118949Y0107087D01*
X0118895Y0107158D01*
X0118845Y0107230D01*
X0118798Y0107305D01*
X0118754Y0107382D01*
X0118714Y0107461D01*
X0118677Y0107541D01*
X0118645Y0107623D01*
X0118615Y0107707D01*
X0118590Y0107791D01*
X0118568Y0107877D01*
X0118551Y0107963D01*
X0118537Y0108051D01*
X0118527Y0108139D01*
X0118521Y0108227D01*
X0118519Y0108315D01*
X0118519Y0221307D02*
X0118521Y0221395D01*
X0118527Y0221483D01*
X0118537Y0221571D01*
X0118551Y0221659D01*
X0118568Y0221745D01*
X0118590Y0221831D01*
X0118615Y0221915D01*
X0118645Y0221999D01*
X0118677Y0222081D01*
X0118714Y0222161D01*
X0118754Y0222240D01*
X0118798Y0222317D01*
X0118845Y0222392D01*
X0118895Y0222464D01*
X0118949Y0222535D01*
X0119005Y0222602D01*
X0119065Y0222668D01*
X0119127Y0222730D01*
X0119193Y0222790D01*
X0119260Y0222846D01*
X0119331Y0222900D01*
X0119403Y0222950D01*
X0119478Y0222997D01*
X0119555Y0223041D01*
X0119634Y0223081D01*
X0119714Y0223118D01*
X0119796Y0223150D01*
X0119880Y0223180D01*
X0119964Y0223205D01*
X0120050Y0223227D01*
X0120136Y0223244D01*
X0120224Y0223258D01*
X0120312Y0223268D01*
X0120400Y0223274D01*
X0120488Y0223276D01*
X0120576Y0223274D01*
X0120664Y0223268D01*
X0120752Y0223258D01*
X0120840Y0223244D01*
X0120926Y0223227D01*
X0121012Y0223205D01*
X0121096Y0223180D01*
X0121180Y0223150D01*
X0121262Y0223118D01*
X0121342Y0223081D01*
X0121421Y0223041D01*
X0121498Y0222997D01*
X0121573Y0222950D01*
X0121645Y0222900D01*
X0121716Y0222846D01*
X0121783Y0222790D01*
X0121849Y0222730D01*
X0121911Y0222668D01*
X0121971Y0222602D01*
X0122027Y0222535D01*
X0122081Y0222464D01*
X0122131Y0222392D01*
X0122178Y0222317D01*
X0122222Y0222240D01*
X0122262Y0222161D01*
X0122299Y0222081D01*
X0122331Y0221999D01*
X0122361Y0221915D01*
X0122386Y0221831D01*
X0122408Y0221745D01*
X0122425Y0221659D01*
X0122439Y0221571D01*
X0122449Y0221483D01*
X0122455Y0221395D01*
X0122457Y0221307D01*
X0122455Y0221219D01*
X0122449Y0221131D01*
X0122439Y0221043D01*
X0122425Y0220955D01*
X0122408Y0220869D01*
X0122386Y0220783D01*
X0122361Y0220699D01*
X0122331Y0220615D01*
X0122299Y0220533D01*
X0122262Y0220453D01*
X0122222Y0220374D01*
X0122178Y0220297D01*
X0122131Y0220222D01*
X0122081Y0220150D01*
X0122027Y0220079D01*
X0121971Y0220012D01*
X0121911Y0219946D01*
X0121849Y0219884D01*
X0121783Y0219824D01*
X0121716Y0219768D01*
X0121645Y0219714D01*
X0121573Y0219664D01*
X0121498Y0219617D01*
X0121421Y0219573D01*
X0121342Y0219533D01*
X0121262Y0219496D01*
X0121180Y0219464D01*
X0121096Y0219434D01*
X0121012Y0219409D01*
X0120926Y0219387D01*
X0120840Y0219370D01*
X0120752Y0219356D01*
X0120664Y0219346D01*
X0120576Y0219340D01*
X0120488Y0219338D01*
X0120400Y0219340D01*
X0120312Y0219346D01*
X0120224Y0219356D01*
X0120136Y0219370D01*
X0120050Y0219387D01*
X0119964Y0219409D01*
X0119880Y0219434D01*
X0119796Y0219464D01*
X0119714Y0219496D01*
X0119634Y0219533D01*
X0119555Y0219573D01*
X0119478Y0219617D01*
X0119403Y0219664D01*
X0119331Y0219714D01*
X0119260Y0219768D01*
X0119193Y0219824D01*
X0119127Y0219884D01*
X0119065Y0219946D01*
X0119005Y0220012D01*
X0118949Y0220079D01*
X0118895Y0220150D01*
X0118845Y0220222D01*
X0118798Y0220297D01*
X0118754Y0220374D01*
X0118714Y0220453D01*
X0118677Y0220533D01*
X0118645Y0220615D01*
X0118615Y0220699D01*
X0118590Y0220783D01*
X0118568Y0220869D01*
X0118551Y0220955D01*
X0118537Y0221043D01*
X0118527Y0221131D01*
X0118521Y0221219D01*
X0118519Y0221307D01*
D15*
X0269504Y0276031D03*
X0462417Y0276031D03*
X0462417Y0047685D03*
X0269504Y0047685D03*
D16*
X0120488Y0108315D03*
X0120488Y0126819D03*
X0120488Y0139811D03*
X0120488Y0158315D03*
X0120488Y0171307D03*
X0120488Y0189811D03*
X0120488Y0202803D03*
X0120488Y0221307D03*
D17*
X0165764Y0202803D03*
X0165764Y0171307D03*
X0165764Y0139811D03*
X0165764Y0108315D03*
D18*
X0193323Y0108315D03*
X0193323Y0139811D03*
X0193323Y0171307D03*
X0193323Y0202803D03*
D19*
X0092339Y0190008D03*
X0092339Y0221307D03*
X0092339Y0158315D03*
X0092339Y0126819D03*
X0092339Y0108315D03*
D20*
X0229543Y0125441D03*
X0229543Y0145126D03*
X0229543Y0184496D03*
X0229543Y0204181D03*
X0229543Y0243551D03*
X0229543Y0263236D03*
X0229543Y0086071D03*
X0229543Y0066386D03*
X0419110Y0050637D03*
X0438795Y0050637D03*
D21*
X0445843Y0262094D03*
X0435843Y0272094D03*
X0445843Y0282094D03*
X0425843Y0282094D03*
X0425843Y0262094D03*
D22*
X0295094Y0055559D03*
D23*
X0295094Y0047685D03*
X0302969Y0047685D03*
X0310843Y0047685D03*
X0310843Y0055559D03*
X0302969Y0055559D03*
D24*
X0317378Y0171700D03*
X0337378Y0171700D03*
X0379189Y0171700D03*
X0399189Y0171700D03*
D25*
X0327654Y0195323D03*
X0317654Y0195323D03*
X0309937Y0195323D03*
X0309858Y0201602D03*
X0304858Y0209102D03*
X0314858Y0209102D03*
X0299937Y0195323D03*
D26*
X0317323Y0155051D03*
X0327323Y0155051D03*
X0359323Y0155051D03*
X0369323Y0155051D03*
X0399606Y0155051D03*
X0409606Y0155051D03*
X0441606Y0155051D03*
X0451606Y0155051D03*
X0451606Y0082051D03*
X0441606Y0082051D03*
X0409606Y0082051D03*
X0399606Y0082051D03*
X0369323Y0082051D03*
X0359323Y0082051D03*
X0327323Y0082051D03*
X0317323Y0082051D03*
D27*
X0324939Y0068945D02*
X0329739Y0068945D01*
X0354939Y0068945D02*
X0359739Y0068945D01*
X0367261Y0068945D02*
X0372061Y0068945D01*
X0397261Y0068945D02*
X0402061Y0068945D01*
D28*
X0339858Y0220913D03*
X0329858Y0220913D03*
D29*
X0279740Y0216858D03*
X0279740Y0226858D03*
X0279740Y0236858D03*
X0279740Y0246858D03*
X0279740Y0256858D03*
X0259268Y0256858D03*
X0259268Y0246858D03*
X0259268Y0236858D03*
X0259268Y0226858D03*
X0259268Y0216858D03*
X0259268Y0206858D03*
X0259268Y0196858D03*
X0259268Y0186858D03*
X0259268Y0176858D03*
X0259268Y0166858D03*
X0259268Y0156858D03*
X0259268Y0146858D03*
X0259268Y0136858D03*
X0259268Y0126858D03*
X0259268Y0116858D03*
X0259268Y0106858D03*
X0259268Y0096858D03*
X0259268Y0086858D03*
X0259268Y0076858D03*
X0259268Y0066858D03*
X0279740Y0066858D03*
X0279740Y0076858D03*
X0279740Y0086858D03*
X0279740Y0096858D03*
X0279740Y0106858D03*
X0279740Y0116858D03*
X0279740Y0126858D03*
X0279740Y0136858D03*
X0279740Y0146858D03*
X0279740Y0156858D03*
X0279740Y0166858D03*
X0279740Y0176858D03*
X0279740Y0186858D03*
X0279740Y0196858D03*
X0279740Y0206858D03*
D30*
X0299740Y0236267D02*
X0299740Y0240992D01*
X0309740Y0240992D02*
X0309740Y0236267D01*
X0319740Y0236267D02*
X0319740Y0240992D01*
X0329740Y0240992D02*
X0329740Y0236267D01*
X0429740Y0236267D02*
X0429740Y0240992D01*
X0439740Y0240992D02*
X0439740Y0236267D01*
X0449740Y0236267D02*
X0449740Y0240992D01*
D31*
X0459740Y0238630D03*
M02*
