G04 This is an RS-274x file exported by *
G04 gerbv version 2.10.0~037b94 *
G04 More information is available about gerbv at *
G04 https://gerbv.github.io/ *
G04 --End of header info--*
%MOIN*%
%FSLAX36Y36*%
%IPPOS*%
%INStop Mask Top*%
G04 --Define apertures--*
%ADD10C,0.0000*%
%ADD11C,0.0984*%
%ADD12C,0.2441*%
%ADD13C,0.2205*%
%ADD14C,0.0768*%
%ADD15C,0.0984*%
%ADD16C,0.0650*%
%ADD17C,0.1378*%
%ADD18R,0.0540X0.0540*%
%ADD19C,0.0540*%
%ADD20C,0.1000*%
%ADD21C,0.1063*%
%ADD22R,0.0650X0.0650*%
%ADD23P,0.0575X8.0000X292.5000*%
%ADD24P,0.0520X8.0000X112.5000*%
%ADD25P,0.0520X8.0000X292.5000*%
%ADD26C,0.0591*%
%ADD27P,0.0520X8.0000X22.5000*%
%ADD28R,0.0394X0.0551*%
%ADD29P,0.0575X8.0000X112.5000*%
G04 --Start main section--*
G54D10*
G01X0000000Y0000000D02*
G01X1669291Y0000000D01*
G01X1669291Y0000000D02*
G01X1669291Y0683071D01*
G01X1669291Y0683071D02*
G01X3905512Y0683071D01*
G01X3905512Y0683071D02*
G01X3905512Y1397638D01*
G01X3905512Y1397638D02*
G01X3866142Y1397638D01*
G01X3866142Y1397638D02*
G01X3866142Y1830709D01*
G01X3866142Y1830709D02*
G01X3905512Y1830709D01*
G01X3905512Y1830709D02*
G01X3905512Y3228346D01*
G01X3905512Y3228346D02*
G01X3787402Y3228346D01*
G01X3787402Y3228346D02*
G01X3787402Y3287402D01*
G01X3787402Y3287402D02*
G01X1586614Y3287402D01*
G01X1586614Y3287402D02*
G01X1586614Y3228346D01*
G01X1586614Y3228346D02*
G01X0000000Y3228346D01*
G01X0000000Y3228346D02*
G01X0000000Y1830709D01*
G01X0000000Y1830709D02*
G01X0039370Y1830709D01*
G01X0039370Y1830709D02*
G01X0039370Y1397638D01*
G01X0039370Y1397638D02*
G01X0000000Y1397638D01*
G01X0000000Y1397638D02*
G01X0000000Y0000000D01*
G01X0230315Y0629921D02*
G01X0230331Y0631130D01*
G01X0230331Y0631130D02*
G01X0230374Y0632335D01*
G01X0230374Y0632335D02*
G01X0230449Y0633543D01*
G01X0230449Y0633543D02*
G01X0230551Y0634744D01*
G01X0230551Y0634744D02*
G01X0230685Y0635945D01*
G01X0230685Y0635945D02*
G01X0230846Y0637142D01*
G01X0230846Y0637142D02*
G01X0231039Y0638335D01*
G01X0231039Y0638335D02*
G01X0231260Y0639524D01*
G01X0231260Y0639524D02*
G01X0231512Y0640705D01*
G01X0231512Y0640705D02*
G01X0231791Y0641878D01*
G01X0231791Y0641878D02*
G01X0232098Y0643047D01*
G01X0232098Y0643047D02*
G01X0232433Y0644209D01*
G01X0232433Y0644209D02*
G01X0232799Y0645358D01*
G01X0232799Y0645358D02*
G01X0233193Y0646500D01*
G01X0233193Y0646500D02*
G01X0233614Y0647634D01*
G01X0233614Y0647634D02*
G01X0234063Y0648756D01*
G01X0234063Y0648756D02*
G01X0234535Y0649866D01*
G01X0234535Y0649866D02*
G01X0235039Y0650961D01*
G01X0235039Y0650961D02*
G01X0235571Y0652047D01*
G01X0235571Y0652047D02*
G01X0236126Y0653118D01*
G01X0236126Y0653118D02*
G01X0236709Y0654177D01*
G01X0236709Y0654177D02*
G01X0237315Y0655220D01*
G01X0237315Y0655220D02*
G01X0237949Y0656248D01*
G01X0237949Y0656248D02*
G01X0238610Y0657264D01*
G01X0238610Y0657264D02*
G01X0239291Y0658260D01*
G01X0239291Y0658260D02*
G01X0240000Y0659236D01*
G01X0240000Y0659236D02*
G01X0240732Y0660197D01*
G01X0240732Y0660197D02*
G01X0241484Y0661142D01*
G01X0241484Y0661142D02*
G01X0242264Y0662067D01*
G01X0242264Y0662067D02*
G01X0243063Y0662969D01*
G01X0243063Y0662969D02*
G01X0243886Y0663854D01*
G01X0243886Y0663854D02*
G01X0244728Y0664720D01*
G01X0244728Y0664720D02*
G01X0245594Y0665563D01*
G01X0245594Y0665563D02*
G01X0246480Y0666386D01*
G01X0246480Y0666386D02*
G01X0247382Y0667185D01*
G01X0247382Y0667185D02*
G01X0248307Y0667965D01*
G01X0248307Y0667965D02*
G01X0249252Y0668717D01*
G01X0249252Y0668717D02*
G01X0250213Y0669449D01*
G01X0250213Y0669449D02*
G01X0251189Y0670157D01*
G01X0251189Y0670157D02*
G01X0252185Y0670839D01*
G01X0252185Y0670839D02*
G01X0253201Y0671500D01*
G01X0253201Y0671500D02*
G01X0254228Y0672134D01*
G01X0254228Y0672134D02*
G01X0255272Y0672740D01*
G01X0255272Y0672740D02*
G01X0256331Y0673323D01*
G01X0256331Y0673323D02*
G01X0257402Y0673878D01*
G01X0257402Y0673878D02*
G01X0258488Y0674409D01*
G01X0258488Y0674409D02*
G01X0259583Y0674913D01*
G01X0259583Y0674913D02*
G01X0260693Y0675386D01*
G01X0260693Y0675386D02*
G01X0261815Y0675835D01*
G01X0261815Y0675835D02*
G01X0262949Y0676256D01*
G01X0262949Y0676256D02*
G01X0264091Y0676650D01*
G01X0264091Y0676650D02*
G01X0265240Y0677016D01*
G01X0265240Y0677016D02*
G01X0266402Y0677350D01*
G01X0266402Y0677350D02*
G01X0267571Y0677657D01*
G01X0267571Y0677657D02*
G01X0268744Y0677937D01*
G01X0268744Y0677937D02*
G01X0269925Y0678189D01*
G01X0269925Y0678189D02*
G01X0271114Y0678409D01*
G01X0271114Y0678409D02*
G01X0272307Y0678602D01*
G01X0272307Y0678602D02*
G01X0273504Y0678764D01*
G01X0273504Y0678764D02*
G01X0274705Y0678898D01*
G01X0274705Y0678898D02*
G01X0275906Y0679000D01*
G01X0275906Y0679000D02*
G01X0277114Y0679075D01*
G01X0277114Y0679075D02*
G01X0278319Y0679118D01*
G01X0278319Y0679118D02*
G01X0279528Y0679134D01*
G01X0279528Y0679134D02*
G01X0280736Y0679118D01*
G01X0280736Y0679118D02*
G01X0281941Y0679075D01*
G01X0281941Y0679075D02*
G01X0283150Y0679000D01*
G01X0283150Y0679000D02*
G01X0284350Y0678898D01*
G01X0284350Y0678898D02*
G01X0285551Y0678764D01*
G01X0285551Y0678764D02*
G01X0286748Y0678602D01*
G01X0286748Y0678602D02*
G01X0287941Y0678409D01*
G01X0287941Y0678409D02*
G01X0289130Y0678189D01*
G01X0289130Y0678189D02*
G01X0290311Y0677937D01*
G01X0290311Y0677937D02*
G01X0291484Y0677657D01*
G01X0291484Y0677657D02*
G01X0292654Y0677350D01*
G01X0292654Y0677350D02*
G01X0293815Y0677016D01*
G01X0293815Y0677016D02*
G01X0294965Y0676650D01*
G01X0294965Y0676650D02*
G01X0296106Y0676256D01*
G01X0296106Y0676256D02*
G01X0297240Y0675835D01*
G01X0297240Y0675835D02*
G01X0298362Y0675386D01*
G01X0298362Y0675386D02*
G01X0299472Y0674913D01*
G01X0299472Y0674913D02*
G01X0300567Y0674409D01*
G01X0300567Y0674409D02*
G01X0301654Y0673878D01*
G01X0301654Y0673878D02*
G01X0302724Y0673323D01*
G01X0302724Y0673323D02*
G01X0303783Y0672740D01*
G01X0303783Y0672740D02*
G01X0304827Y0672134D01*
G01X0304827Y0672134D02*
G01X0305854Y0671500D01*
G01X0305854Y0671500D02*
G01X0306870Y0670839D01*
G01X0306870Y0670839D02*
G01X0307866Y0670157D01*
G01X0307866Y0670157D02*
G01X0308843Y0669449D01*
G01X0308843Y0669449D02*
G01X0309803Y0668717D01*
G01X0309803Y0668717D02*
G01X0310748Y0667965D01*
G01X0310748Y0667965D02*
G01X0311673Y0667185D01*
G01X0311673Y0667185D02*
G01X0312575Y0666386D01*
G01X0312575Y0666386D02*
G01X0313461Y0665563D01*
G01X0313461Y0665563D02*
G01X0314327Y0664720D01*
G01X0314327Y0664720D02*
G01X0315169Y0663854D01*
G01X0315169Y0663854D02*
G01X0315992Y0662969D01*
G01X0315992Y0662969D02*
G01X0316791Y0662067D01*
G01X0316791Y0662067D02*
G01X0317571Y0661142D01*
G01X0317571Y0661142D02*
G01X0318323Y0660197D01*
G01X0318323Y0660197D02*
G01X0319055Y0659236D01*
G01X0319055Y0659236D02*
G01X0319764Y0658260D01*
G01X0319764Y0658260D02*
G01X0320445Y0657264D01*
G01X0320445Y0657264D02*
G01X0321106Y0656248D01*
G01X0321106Y0656248D02*
G01X0321740Y0655220D01*
G01X0321740Y0655220D02*
G01X0322346Y0654177D01*
G01X0322346Y0654177D02*
G01X0322929Y0653118D01*
G01X0322929Y0653118D02*
G01X0323484Y0652047D01*
G01X0323484Y0652047D02*
G01X0324016Y0650961D01*
G01X0324016Y0650961D02*
G01X0324520Y0649866D01*
G01X0324520Y0649866D02*
G01X0324992Y0648756D01*
G01X0324992Y0648756D02*
G01X0325441Y0647634D01*
G01X0325441Y0647634D02*
G01X0325862Y0646500D01*
G01X0325862Y0646500D02*
G01X0326256Y0645358D01*
G01X0326256Y0645358D02*
G01X0326622Y0644209D01*
G01X0326622Y0644209D02*
G01X0326957Y0643047D01*
G01X0326957Y0643047D02*
G01X0327264Y0641878D01*
G01X0327264Y0641878D02*
G01X0327543Y0640705D01*
G01X0327543Y0640705D02*
G01X0327795Y0639524D01*
G01X0327795Y0639524D02*
G01X0328016Y0638335D01*
G01X0328016Y0638335D02*
G01X0328209Y0637142D01*
G01X0328209Y0637142D02*
G01X0328370Y0635945D01*
G01X0328370Y0635945D02*
G01X0328504Y0634744D01*
G01X0328504Y0634744D02*
G01X0328606Y0633543D01*
G01X0328606Y0633543D02*
G01X0328681Y0632335D01*
G01X0328681Y0632335D02*
G01X0328724Y0631130D01*
G01X0328724Y0631130D02*
G01X0328740Y0629921D01*
G01X0328740Y0629921D02*
G01X0328724Y0628713D01*
G01X0328724Y0628713D02*
G01X0328681Y0627508D01*
G01X0328681Y0627508D02*
G01X0328606Y0626299D01*
G01X0328606Y0626299D02*
G01X0328504Y0625098D01*
G01X0328504Y0625098D02*
G01X0328370Y0623898D01*
G01X0328370Y0623898D02*
G01X0328209Y0622701D01*
G01X0328209Y0622701D02*
G01X0328016Y0621508D01*
G01X0328016Y0621508D02*
G01X0327795Y0620319D01*
G01X0327795Y0620319D02*
G01X0327543Y0619138D01*
G01X0327543Y0619138D02*
G01X0327264Y0617965D01*
G01X0327264Y0617965D02*
G01X0326957Y0616795D01*
G01X0326957Y0616795D02*
G01X0326622Y0615634D01*
G01X0326622Y0615634D02*
G01X0326256Y0614484D01*
G01X0326256Y0614484D02*
G01X0325862Y0613343D01*
G01X0325862Y0613343D02*
G01X0325441Y0612209D01*
G01X0325441Y0612209D02*
G01X0324992Y0611087D01*
G01X0324992Y0611087D02*
G01X0324520Y0609976D01*
G01X0324520Y0609976D02*
G01X0324016Y0608882D01*
G01X0324016Y0608882D02*
G01X0323484Y0607795D01*
G01X0323484Y0607795D02*
G01X0322929Y0606724D01*
G01X0322929Y0606724D02*
G01X0322346Y0605665D01*
G01X0322346Y0605665D02*
G01X0321740Y0604622D01*
G01X0321740Y0604622D02*
G01X0321106Y0603594D01*
G01X0321106Y0603594D02*
G01X0320445Y0602579D01*
G01X0320445Y0602579D02*
G01X0319764Y0601583D01*
G01X0319764Y0601583D02*
G01X0319055Y0600606D01*
G01X0319055Y0600606D02*
G01X0318323Y0599646D01*
G01X0318323Y0599646D02*
G01X0317571Y0598701D01*
G01X0317571Y0598701D02*
G01X0316791Y0597776D01*
G01X0316791Y0597776D02*
G01X0315992Y0596874D01*
G01X0315992Y0596874D02*
G01X0315169Y0595988D01*
G01X0315169Y0595988D02*
G01X0314327Y0595122D01*
G01X0314327Y0595122D02*
G01X0313461Y0594280D01*
G01X0313461Y0594280D02*
G01X0312575Y0593457D01*
G01X0312575Y0593457D02*
G01X0311673Y0592657D01*
G01X0311673Y0592657D02*
G01X0310748Y0591878D01*
G01X0310748Y0591878D02*
G01X0309803Y0591126D01*
G01X0309803Y0591126D02*
G01X0308843Y0590394D01*
G01X0308843Y0590394D02*
G01X0307866Y0589685D01*
G01X0307866Y0589685D02*
G01X0306870Y0589004D01*
G01X0306870Y0589004D02*
G01X0305854Y0588343D01*
G01X0305854Y0588343D02*
G01X0304827Y0587709D01*
G01X0304827Y0587709D02*
G01X0303783Y0587102D01*
G01X0303783Y0587102D02*
G01X0302724Y0586520D01*
G01X0302724Y0586520D02*
G01X0301654Y0585965D01*
G01X0301654Y0585965D02*
G01X0300567Y0585433D01*
G01X0300567Y0585433D02*
G01X0299472Y0584929D01*
G01X0299472Y0584929D02*
G01X0298362Y0584457D01*
G01X0298362Y0584457D02*
G01X0297240Y0584008D01*
G01X0297240Y0584008D02*
G01X0296106Y0583587D01*
G01X0296106Y0583587D02*
G01X0294965Y0583193D01*
G01X0294965Y0583193D02*
G01X0293815Y0582827D01*
G01X0293815Y0582827D02*
G01X0292654Y0582492D01*
G01X0292654Y0582492D02*
G01X0291484Y0582185D01*
G01X0291484Y0582185D02*
G01X0290311Y0581906D01*
G01X0290311Y0581906D02*
G01X0289130Y0581654D01*
G01X0289130Y0581654D02*
G01X0287941Y0581433D01*
G01X0287941Y0581433D02*
G01X0286748Y0581240D01*
G01X0286748Y0581240D02*
G01X0285551Y0581079D01*
G01X0285551Y0581079D02*
G01X0284350Y0580945D01*
G01X0284350Y0580945D02*
G01X0283150Y0580843D01*
G01X0283150Y0580843D02*
G01X0281941Y0580768D01*
G01X0281941Y0580768D02*
G01X0280736Y0580724D01*
G01X0280736Y0580724D02*
G01X0279528Y0580709D01*
G01X0279528Y0580709D02*
G01X0278319Y0580724D01*
G01X0278319Y0580724D02*
G01X0277114Y0580768D01*
G01X0277114Y0580768D02*
G01X0275906Y0580843D01*
G01X0275906Y0580843D02*
G01X0274705Y0580945D01*
G01X0274705Y0580945D02*
G01X0273504Y0581079D01*
G01X0273504Y0581079D02*
G01X0272307Y0581240D01*
G01X0272307Y0581240D02*
G01X0271114Y0581433D01*
G01X0271114Y0581433D02*
G01X0269925Y0581654D01*
G01X0269925Y0581654D02*
G01X0268744Y0581906D01*
G01X0268744Y0581906D02*
G01X0267571Y0582185D01*
G01X0267571Y0582185D02*
G01X0266402Y0582492D01*
G01X0266402Y0582492D02*
G01X0265240Y0582827D01*
G01X0265240Y0582827D02*
G01X0264091Y0583193D01*
G01X0264091Y0583193D02*
G01X0262949Y0583587D01*
G01X0262949Y0583587D02*
G01X0261815Y0584008D01*
G01X0261815Y0584008D02*
G01X0260693Y0584457D01*
G01X0260693Y0584457D02*
G01X0259583Y0584929D01*
G01X0259583Y0584929D02*
G01X0258488Y0585433D01*
G01X0258488Y0585433D02*
G01X0257402Y0585965D01*
G01X0257402Y0585965D02*
G01X0256331Y0586520D01*
G01X0256331Y0586520D02*
G01X0255272Y0587102D01*
G01X0255272Y0587102D02*
G01X0254228Y0587709D01*
G01X0254228Y0587709D02*
G01X0253201Y0588343D01*
G01X0253201Y0588343D02*
G01X0252185Y0589004D01*
G01X0252185Y0589004D02*
G01X0251189Y0589685D01*
G01X0251189Y0589685D02*
G01X0250213Y0590394D01*
G01X0250213Y0590394D02*
G01X0249252Y0591126D01*
G01X0249252Y0591126D02*
G01X0248307Y0591878D01*
G01X0248307Y0591878D02*
G01X0247382Y0592657D01*
G01X0247382Y0592657D02*
G01X0246480Y0593457D01*
G01X0246480Y0593457D02*
G01X0245594Y0594280D01*
G01X0245594Y0594280D02*
G01X0244728Y0595122D01*
G01X0244728Y0595122D02*
G01X0243886Y0595988D01*
G01X0243886Y0595988D02*
G01X0243063Y0596874D01*
G01X0243063Y0596874D02*
G01X0242264Y0597776D01*
G01X0242264Y0597776D02*
G01X0241484Y0598701D01*
G01X0241484Y0598701D02*
G01X0240732Y0599646D01*
G01X0240732Y0599646D02*
G01X0240000Y0600606D01*
G01X0240000Y0600606D02*
G01X0239291Y0601583D01*
G01X0239291Y0601583D02*
G01X0238610Y0602579D01*
G01X0238610Y0602579D02*
G01X0237949Y0603594D01*
G01X0237949Y0603594D02*
G01X0237315Y0604622D01*
G01X0237315Y0604622D02*
G01X0236709Y0605665D01*
G01X0236709Y0605665D02*
G01X0236126Y0606724D01*
G01X0236126Y0606724D02*
G01X0235571Y0607795D01*
G01X0235571Y0607795D02*
G01X0235039Y0608882D01*
G01X0235039Y0608882D02*
G01X0234535Y0609976D01*
G01X0234535Y0609976D02*
G01X0234063Y0611087D01*
G01X0234063Y0611087D02*
G01X0233614Y0612209D01*
G01X0233614Y0612209D02*
G01X0233193Y0613343D01*
G01X0233193Y0613343D02*
G01X0232799Y0614484D01*
G01X0232799Y0614484D02*
G01X0232433Y0615634D01*
G01X0232433Y0615634D02*
G01X0232098Y0616795D01*
G01X0232098Y0616795D02*
G01X0231791Y0617965D01*
G01X0231791Y0617965D02*
G01X0231512Y0619138D01*
G01X0231512Y0619138D02*
G01X0231260Y0620319D01*
G01X0231260Y0620319D02*
G01X0231039Y0621508D01*
G01X0231039Y0621508D02*
G01X0230846Y0622701D01*
G01X0230846Y0622701D02*
G01X0230685Y0623898D01*
G01X0230685Y0623898D02*
G01X0230551Y0625098D01*
G01X0230551Y0625098D02*
G01X0230449Y0626299D01*
G01X0230449Y0626299D02*
G01X0230374Y0627508D01*
G01X0230374Y0627508D02*
G01X0230331Y0628713D01*
G01X0230331Y0628713D02*
G01X0230315Y0629921D01*
G54D11*
G01X0279528Y0629921D03*
G54D10*
G01X3576772Y2598425D02*
G01X3576787Y2599634D01*
G01X3576787Y2599634D02*
G01X3576831Y2600839D01*
G01X3576831Y2600839D02*
G01X3576906Y2602047D01*
G01X3576906Y2602047D02*
G01X3577008Y2603248D01*
G01X3577008Y2603248D02*
G01X3577142Y2604449D01*
G01X3577142Y2604449D02*
G01X3577303Y2605646D01*
G01X3577303Y2605646D02*
G01X3577496Y2606839D01*
G01X3577496Y2606839D02*
G01X3577717Y2608028D01*
G01X3577717Y2608028D02*
G01X3577969Y2609209D01*
G01X3577969Y2609209D02*
G01X3578248Y2610382D01*
G01X3578248Y2610382D02*
G01X3578555Y2611551D01*
G01X3578555Y2611551D02*
G01X3578890Y2612713D01*
G01X3578890Y2612713D02*
G01X3579256Y2613862D01*
G01X3579256Y2613862D02*
G01X3579650Y2615004D01*
G01X3579650Y2615004D02*
G01X3580071Y2616138D01*
G01X3580071Y2616138D02*
G01X3580520Y2617260D01*
G01X3580520Y2617260D02*
G01X3580992Y2618370D01*
G01X3580992Y2618370D02*
G01X3581496Y2619465D01*
G01X3581496Y2619465D02*
G01X3582028Y2620551D01*
G01X3582028Y2620551D02*
G01X3582583Y2621622D01*
G01X3582583Y2621622D02*
G01X3583165Y2622681D01*
G01X3583165Y2622681D02*
G01X3583772Y2623724D01*
G01X3583772Y2623724D02*
G01X3584406Y2624752D01*
G01X3584406Y2624752D02*
G01X3585067Y2625768D01*
G01X3585067Y2625768D02*
G01X3585748Y2626764D01*
G01X3585748Y2626764D02*
G01X3586457Y2627740D01*
G01X3586457Y2627740D02*
G01X3587189Y2628701D01*
G01X3587189Y2628701D02*
G01X3587941Y2629646D01*
G01X3587941Y2629646D02*
G01X3588720Y2630571D01*
G01X3588720Y2630571D02*
G01X3589520Y2631472D01*
G01X3589520Y2631472D02*
G01X3590343Y2632358D01*
G01X3590343Y2632358D02*
G01X3591185Y2633224D01*
G01X3591185Y2633224D02*
G01X3592051Y2634067D01*
G01X3592051Y2634067D02*
G01X3592937Y2634890D01*
G01X3592937Y2634890D02*
G01X3593839Y2635689D01*
G01X3593839Y2635689D02*
G01X3594764Y2636469D01*
G01X3594764Y2636469D02*
G01X3595709Y2637220D01*
G01X3595709Y2637220D02*
G01X3596669Y2637953D01*
G01X3596669Y2637953D02*
G01X3597646Y2638661D01*
G01X3597646Y2638661D02*
G01X3598642Y2639343D01*
G01X3598642Y2639343D02*
G01X3599657Y2640004D01*
G01X3599657Y2640004D02*
G01X3600685Y2640638D01*
G01X3600685Y2640638D02*
G01X3601728Y2641244D01*
G01X3601728Y2641244D02*
G01X3602787Y2641827D01*
G01X3602787Y2641827D02*
G01X3603858Y2642382D01*
G01X3603858Y2642382D02*
G01X3604945Y2642913D01*
G01X3604945Y2642913D02*
G01X3606039Y2643417D01*
G01X3606039Y2643417D02*
G01X3607150Y2643890D01*
G01X3607150Y2643890D02*
G01X3608272Y2644339D01*
G01X3608272Y2644339D02*
G01X3609406Y2644760D01*
G01X3609406Y2644760D02*
G01X3610547Y2645154D01*
G01X3610547Y2645154D02*
G01X3611697Y2645520D01*
G01X3611697Y2645520D02*
G01X3612858Y2645854D01*
G01X3612858Y2645854D02*
G01X3614028Y2646161D01*
G01X3614028Y2646161D02*
G01X3615201Y2646441D01*
G01X3615201Y2646441D02*
G01X3616382Y2646693D01*
G01X3616382Y2646693D02*
G01X3617571Y2646913D01*
G01X3617571Y2646913D02*
G01X3618764Y2647106D01*
G01X3618764Y2647106D02*
G01X3619961Y2647268D01*
G01X3619961Y2647268D02*
G01X3621161Y2647402D01*
G01X3621161Y2647402D02*
G01X3622362Y2647504D01*
G01X3622362Y2647504D02*
G01X3623571Y2647579D01*
G01X3623571Y2647579D02*
G01X3624776Y2647622D01*
G01X3624776Y2647622D02*
G01X3625984Y2647638D01*
G01X3625984Y2647638D02*
G01X3627193Y2647622D01*
G01X3627193Y2647622D02*
G01X3628398Y2647579D01*
G01X3628398Y2647579D02*
G01X3629606Y2647504D01*
G01X3629606Y2647504D02*
G01X3630807Y2647402D01*
G01X3630807Y2647402D02*
G01X3632008Y2647268D01*
G01X3632008Y2647268D02*
G01X3633205Y2647106D01*
G01X3633205Y2647106D02*
G01X3634398Y2646913D01*
G01X3634398Y2646913D02*
G01X3635587Y2646693D01*
G01X3635587Y2646693D02*
G01X3636768Y2646441D01*
G01X3636768Y2646441D02*
G01X3637941Y2646161D01*
G01X3637941Y2646161D02*
G01X3639110Y2645854D01*
G01X3639110Y2645854D02*
G01X3640272Y2645520D01*
G01X3640272Y2645520D02*
G01X3641421Y2645154D01*
G01X3641421Y2645154D02*
G01X3642563Y2644760D01*
G01X3642563Y2644760D02*
G01X3643697Y2644339D01*
G01X3643697Y2644339D02*
G01X3644819Y2643890D01*
G01X3644819Y2643890D02*
G01X3645929Y2643417D01*
G01X3645929Y2643417D02*
G01X3647024Y2642913D01*
G01X3647024Y2642913D02*
G01X3648110Y2642382D01*
G01X3648110Y2642382D02*
G01X3649181Y2641827D01*
G01X3649181Y2641827D02*
G01X3650240Y2641244D01*
G01X3650240Y2641244D02*
G01X3651283Y2640638D01*
G01X3651283Y2640638D02*
G01X3652311Y2640004D01*
G01X3652311Y2640004D02*
G01X3653327Y2639343D01*
G01X3653327Y2639343D02*
G01X3654323Y2638661D01*
G01X3654323Y2638661D02*
G01X3655299Y2637953D01*
G01X3655299Y2637953D02*
G01X3656260Y2637220D01*
G01X3656260Y2637220D02*
G01X3657205Y2636469D01*
G01X3657205Y2636469D02*
G01X3658130Y2635689D01*
G01X3658130Y2635689D02*
G01X3659031Y2634890D01*
G01X3659031Y2634890D02*
G01X3659917Y2634067D01*
G01X3659917Y2634067D02*
G01X3660783Y2633224D01*
G01X3660783Y2633224D02*
G01X3661626Y2632358D01*
G01X3661626Y2632358D02*
G01X3662449Y2631472D01*
G01X3662449Y2631472D02*
G01X3663248Y2630571D01*
G01X3663248Y2630571D02*
G01X3664028Y2629646D01*
G01X3664028Y2629646D02*
G01X3664780Y2628701D01*
G01X3664780Y2628701D02*
G01X3665512Y2627740D01*
G01X3665512Y2627740D02*
G01X3666220Y2626764D01*
G01X3666220Y2626764D02*
G01X3666902Y2625768D01*
G01X3666902Y2625768D02*
G01X3667563Y2624752D01*
G01X3667563Y2624752D02*
G01X3668197Y2623724D01*
G01X3668197Y2623724D02*
G01X3668803Y2622681D01*
G01X3668803Y2622681D02*
G01X3669386Y2621622D01*
G01X3669386Y2621622D02*
G01X3669941Y2620551D01*
G01X3669941Y2620551D02*
G01X3670472Y2619465D01*
G01X3670472Y2619465D02*
G01X3670976Y2618370D01*
G01X3670976Y2618370D02*
G01X3671449Y2617260D01*
G01X3671449Y2617260D02*
G01X3671898Y2616138D01*
G01X3671898Y2616138D02*
G01X3672319Y2615004D01*
G01X3672319Y2615004D02*
G01X3672713Y2613862D01*
G01X3672713Y2613862D02*
G01X3673079Y2612713D01*
G01X3673079Y2612713D02*
G01X3673413Y2611551D01*
G01X3673413Y2611551D02*
G01X3673720Y2610382D01*
G01X3673720Y2610382D02*
G01X3674000Y2609209D01*
G01X3674000Y2609209D02*
G01X3674252Y2608028D01*
G01X3674252Y2608028D02*
G01X3674472Y2606839D01*
G01X3674472Y2606839D02*
G01X3674665Y2605646D01*
G01X3674665Y2605646D02*
G01X3674827Y2604449D01*
G01X3674827Y2604449D02*
G01X3674961Y2603248D01*
G01X3674961Y2603248D02*
G01X3675063Y2602047D01*
G01X3675063Y2602047D02*
G01X3675138Y2600839D01*
G01X3675138Y2600839D02*
G01X3675181Y2599634D01*
G01X3675181Y2599634D02*
G01X3675197Y2598425D01*
G01X3675197Y2598425D02*
G01X3675181Y2597217D01*
G01X3675181Y2597217D02*
G01X3675138Y2596012D01*
G01X3675138Y2596012D02*
G01X3675063Y2594803D01*
G01X3675063Y2594803D02*
G01X3674961Y2593602D01*
G01X3674961Y2593602D02*
G01X3674827Y2592402D01*
G01X3674827Y2592402D02*
G01X3674665Y2591205D01*
G01X3674665Y2591205D02*
G01X3674472Y2590012D01*
G01X3674472Y2590012D02*
G01X3674252Y2588823D01*
G01X3674252Y2588823D02*
G01X3674000Y2587642D01*
G01X3674000Y2587642D02*
G01X3673720Y2586469D01*
G01X3673720Y2586469D02*
G01X3673413Y2585299D01*
G01X3673413Y2585299D02*
G01X3673079Y2584138D01*
G01X3673079Y2584138D02*
G01X3672713Y2582988D01*
G01X3672713Y2582988D02*
G01X3672319Y2581846D01*
G01X3672319Y2581846D02*
G01X3671898Y2580713D01*
G01X3671898Y2580713D02*
G01X3671449Y2579591D01*
G01X3671449Y2579591D02*
G01X3670976Y2578480D01*
G01X3670976Y2578480D02*
G01X3670472Y2577386D01*
G01X3670472Y2577386D02*
G01X3669941Y2576299D01*
G01X3669941Y2576299D02*
G01X3669386Y2575228D01*
G01X3669386Y2575228D02*
G01X3668803Y2574169D01*
G01X3668803Y2574169D02*
G01X3668197Y2573126D01*
G01X3668197Y2573126D02*
G01X3667563Y2572098D01*
G01X3667563Y2572098D02*
G01X3666902Y2571083D01*
G01X3666902Y2571083D02*
G01X3666220Y2570087D01*
G01X3666220Y2570087D02*
G01X3665512Y2569110D01*
G01X3665512Y2569110D02*
G01X3664780Y2568150D01*
G01X3664780Y2568150D02*
G01X3664028Y2567205D01*
G01X3664028Y2567205D02*
G01X3663248Y2566280D01*
G01X3663248Y2566280D02*
G01X3662449Y2565378D01*
G01X3662449Y2565378D02*
G01X3661626Y2564492D01*
G01X3661626Y2564492D02*
G01X3660783Y2563626D01*
G01X3660783Y2563626D02*
G01X3659917Y2562783D01*
G01X3659917Y2562783D02*
G01X3659031Y2561961D01*
G01X3659031Y2561961D02*
G01X3658130Y2561161D01*
G01X3658130Y2561161D02*
G01X3657205Y2560382D01*
G01X3657205Y2560382D02*
G01X3656260Y2559630D01*
G01X3656260Y2559630D02*
G01X3655299Y2558898D01*
G01X3655299Y2558898D02*
G01X3654323Y2558189D01*
G01X3654323Y2558189D02*
G01X3653327Y2557508D01*
G01X3653327Y2557508D02*
G01X3652311Y2556846D01*
G01X3652311Y2556846D02*
G01X3651283Y2556213D01*
G01X3651283Y2556213D02*
G01X3650240Y2555606D01*
G01X3650240Y2555606D02*
G01X3649181Y2555024D01*
G01X3649181Y2555024D02*
G01X3648110Y2554469D01*
G01X3648110Y2554469D02*
G01X3647024Y2553937D01*
G01X3647024Y2553937D02*
G01X3645929Y2553433D01*
G01X3645929Y2553433D02*
G01X3644819Y2552961D01*
G01X3644819Y2552961D02*
G01X3643697Y2552512D01*
G01X3643697Y2552512D02*
G01X3642563Y2552091D01*
G01X3642563Y2552091D02*
G01X3641421Y2551697D01*
G01X3641421Y2551697D02*
G01X3640272Y2551331D01*
G01X3640272Y2551331D02*
G01X3639110Y2550996D01*
G01X3639110Y2550996D02*
G01X3637941Y2550689D01*
G01X3637941Y2550689D02*
G01X3636768Y2550409D01*
G01X3636768Y2550409D02*
G01X3635587Y2550157D01*
G01X3635587Y2550157D02*
G01X3634398Y2549937D01*
G01X3634398Y2549937D02*
G01X3633205Y2549744D01*
G01X3633205Y2549744D02*
G01X3632008Y2549583D01*
G01X3632008Y2549583D02*
G01X3630807Y2549449D01*
G01X3630807Y2549449D02*
G01X3629606Y2549346D01*
G01X3629606Y2549346D02*
G01X3628398Y2549272D01*
G01X3628398Y2549272D02*
G01X3627193Y2549228D01*
G01X3627193Y2549228D02*
G01X3625984Y2549213D01*
G01X3625984Y2549213D02*
G01X3624776Y2549228D01*
G01X3624776Y2549228D02*
G01X3623571Y2549272D01*
G01X3623571Y2549272D02*
G01X3622362Y2549346D01*
G01X3622362Y2549346D02*
G01X3621161Y2549449D01*
G01X3621161Y2549449D02*
G01X3619961Y2549583D01*
G01X3619961Y2549583D02*
G01X3618764Y2549744D01*
G01X3618764Y2549744D02*
G01X3617571Y2549937D01*
G01X3617571Y2549937D02*
G01X3616382Y2550157D01*
G01X3616382Y2550157D02*
G01X3615201Y2550409D01*
G01X3615201Y2550409D02*
G01X3614028Y2550689D01*
G01X3614028Y2550689D02*
G01X3612858Y2550996D01*
G01X3612858Y2550996D02*
G01X3611697Y2551331D01*
G01X3611697Y2551331D02*
G01X3610547Y2551697D01*
G01X3610547Y2551697D02*
G01X3609406Y2552091D01*
G01X3609406Y2552091D02*
G01X3608272Y2552512D01*
G01X3608272Y2552512D02*
G01X3607150Y2552961D01*
G01X3607150Y2552961D02*
G01X3606039Y2553433D01*
G01X3606039Y2553433D02*
G01X3604945Y2553937D01*
G01X3604945Y2553937D02*
G01X3603858Y2554469D01*
G01X3603858Y2554469D02*
G01X3602787Y2555024D01*
G01X3602787Y2555024D02*
G01X3601728Y2555606D01*
G01X3601728Y2555606D02*
G01X3600685Y2556213D01*
G01X3600685Y2556213D02*
G01X3599657Y2556846D01*
G01X3599657Y2556846D02*
G01X3598642Y2557508D01*
G01X3598642Y2557508D02*
G01X3597646Y2558189D01*
G01X3597646Y2558189D02*
G01X3596669Y2558898D01*
G01X3596669Y2558898D02*
G01X3595709Y2559630D01*
G01X3595709Y2559630D02*
G01X3594764Y2560382D01*
G01X3594764Y2560382D02*
G01X3593839Y2561161D01*
G01X3593839Y2561161D02*
G01X3592937Y2561961D01*
G01X3592937Y2561961D02*
G01X3592051Y2562783D01*
G01X3592051Y2562783D02*
G01X3591185Y2563626D01*
G01X3591185Y2563626D02*
G01X3590343Y2564492D01*
G01X3590343Y2564492D02*
G01X3589520Y2565378D01*
G01X3589520Y2565378D02*
G01X3588720Y2566280D01*
G01X3588720Y2566280D02*
G01X3587941Y2567205D01*
G01X3587941Y2567205D02*
G01X3587189Y2568150D01*
G01X3587189Y2568150D02*
G01X3586457Y2569110D01*
G01X3586457Y2569110D02*
G01X3585748Y2570087D01*
G01X3585748Y2570087D02*
G01X3585067Y2571083D01*
G01X3585067Y2571083D02*
G01X3584406Y2572098D01*
G01X3584406Y2572098D02*
G01X3583772Y2573126D01*
G01X3583772Y2573126D02*
G01X3583165Y2574169D01*
G01X3583165Y2574169D02*
G01X3582583Y2575228D01*
G01X3582583Y2575228D02*
G01X3582028Y2576299D01*
G01X3582028Y2576299D02*
G01X3581496Y2577386D01*
G01X3581496Y2577386D02*
G01X3580992Y2578480D01*
G01X3580992Y2578480D02*
G01X3580520Y2579591D01*
G01X3580520Y2579591D02*
G01X3580071Y2580713D01*
G01X3580071Y2580713D02*
G01X3579650Y2581846D01*
G01X3579650Y2581846D02*
G01X3579256Y2582988D01*
G01X3579256Y2582988D02*
G01X3578890Y2584138D01*
G01X3578890Y2584138D02*
G01X3578555Y2585299D01*
G01X3578555Y2585299D02*
G01X3578248Y2586469D01*
G01X3578248Y2586469D02*
G01X3577969Y2587642D01*
G01X3577969Y2587642D02*
G01X3577717Y2588823D01*
G01X3577717Y2588823D02*
G01X3577496Y2590012D01*
G01X3577496Y2590012D02*
G01X3577303Y2591205D01*
G01X3577303Y2591205D02*
G01X3577142Y2592402D01*
G01X3577142Y2592402D02*
G01X3577008Y2593602D01*
G01X3577008Y2593602D02*
G01X3576906Y2594803D01*
G01X3576906Y2594803D02*
G01X3576831Y2596012D01*
G01X3576831Y2596012D02*
G01X3576787Y2597217D01*
G01X3576787Y2597217D02*
G01X3576772Y2598425D01*
G54D11*
G01X3625984Y2598425D03*
G54D12*
G01X1732283Y3149606D03*
G01X3661417Y3149606D03*
G01X3661417Y0866142D03*
G01X1732283Y0866142D03*
G54D13*
G01X0279528Y0629921D03*
G01X3625984Y2598425D03*
G54D10*
G01X3608268Y3149606D02*
G01X3608283Y3150909D01*
G01X3608283Y3150909D02*
G01X3608331Y3152213D01*
G01X3608331Y3152213D02*
G01X3608413Y3153516D01*
G01X3608413Y3153516D02*
G01X3608524Y3154815D01*
G01X3608524Y3154815D02*
G01X3608669Y3156114D01*
G01X3608669Y3156114D02*
G01X3608843Y3157406D01*
G01X3608843Y3157406D02*
G01X3609051Y3158693D01*
G01X3609051Y3158693D02*
G01X3609287Y3159976D01*
G01X3609287Y3159976D02*
G01X3609559Y3161252D01*
G01X3609559Y3161252D02*
G01X3609862Y3162520D01*
G01X3609862Y3162520D02*
G01X3610193Y3163783D01*
G01X3610193Y3163783D02*
G01X3610555Y3165035D01*
G01X3610555Y3165035D02*
G01X3610949Y3166280D01*
G01X3610949Y3166280D02*
G01X3611374Y3167512D01*
G01X3611374Y3167512D02*
G01X3611831Y3168736D01*
G01X3611831Y3168736D02*
G01X3612315Y3169945D01*
G01X3612315Y3169945D02*
G01X3612827Y3171146D01*
G01X3612827Y3171146D02*
G01X3613370Y3172331D01*
G01X3613370Y3172331D02*
G01X3613941Y3173504D01*
G01X3613941Y3173504D02*
G01X3614543Y3174661D01*
G01X3614543Y3174661D02*
G01X3615173Y3175803D01*
G01X3615173Y3175803D02*
G01X3615831Y3176929D01*
G01X3615831Y3176929D02*
G01X3616512Y3178039D01*
G01X3616512Y3178039D02*
G01X3617224Y3179134D01*
G01X3617224Y3179134D02*
G01X3617965Y3180209D01*
G01X3617965Y3180209D02*
G01X3618728Y3181268D01*
G01X3618728Y3181268D02*
G01X3619516Y3182307D01*
G01X3619516Y3182307D02*
G01X3620331Y3183323D01*
G01X3620331Y3183323D02*
G01X3621173Y3184323D01*
G01X3621173Y3184323D02*
G01X3622035Y3185299D01*
G01X3622035Y3185299D02*
G01X3622925Y3186256D01*
G01X3622925Y3186256D02*
G01X3623835Y3187189D01*
G01X3623835Y3187189D02*
G01X3624768Y3188098D01*
G01X3624768Y3188098D02*
G01X3625724Y3188988D01*
G01X3625724Y3188988D02*
G01X3626701Y3189850D01*
G01X3626701Y3189850D02*
G01X3627701Y3190693D01*
G01X3627701Y3190693D02*
G01X3628717Y3191508D01*
G01X3628717Y3191508D02*
G01X3629756Y3192295D01*
G01X3629756Y3192295D02*
G01X3630815Y3193059D01*
G01X3630815Y3193059D02*
G01X3631890Y3193799D01*
G01X3631890Y3193799D02*
G01X3632984Y3194512D01*
G01X3632984Y3194512D02*
G01X3634094Y3195193D01*
G01X3634094Y3195193D02*
G01X3635220Y3195850D01*
G01X3635220Y3195850D02*
G01X3636362Y3196480D01*
G01X3636362Y3196480D02*
G01X3637520Y3197083D01*
G01X3637520Y3197083D02*
G01X3638693Y3197654D01*
G01X3638693Y3197654D02*
G01X3639878Y3198197D01*
G01X3639878Y3198197D02*
G01X3641079Y3198709D01*
G01X3641079Y3198709D02*
G01X3642287Y3199193D01*
G01X3642287Y3199193D02*
G01X3643512Y3199650D01*
G01X3643512Y3199650D02*
G01X3644744Y3200075D01*
G01X3644744Y3200075D02*
G01X3645988Y3200469D01*
G01X3645988Y3200469D02*
G01X3647240Y3200831D01*
G01X3647240Y3200831D02*
G01X3648504Y3201161D01*
G01X3648504Y3201161D02*
G01X3649772Y3201465D01*
G01X3649772Y3201465D02*
G01X3651047Y3201736D01*
G01X3651047Y3201736D02*
G01X3652331Y3201972D01*
G01X3652331Y3201972D02*
G01X3653618Y3202181D01*
G01X3653618Y3202181D02*
G01X3654909Y3202354D01*
G01X3654909Y3202354D02*
G01X3656209Y3202500D01*
G01X3656209Y3202500D02*
G01X3657508Y3202610D01*
G01X3657508Y3202610D02*
G01X3658811Y3202693D01*
G01X3658811Y3202693D02*
G01X3660114Y3202740D01*
G01X3660114Y3202740D02*
G01X3661417Y3202756D01*
G01X3661417Y3202756D02*
G01X3662720Y3202740D01*
G01X3662720Y3202740D02*
G01X3664024Y3202693D01*
G01X3664024Y3202693D02*
G01X3665327Y3202610D01*
G01X3665327Y3202610D02*
G01X3666626Y3202500D01*
G01X3666626Y3202500D02*
G01X3667925Y3202354D01*
G01X3667925Y3202354D02*
G01X3669217Y3202181D01*
G01X3669217Y3202181D02*
G01X3670504Y3201972D01*
G01X3670504Y3201972D02*
G01X3671787Y3201736D01*
G01X3671787Y3201736D02*
G01X3673063Y3201465D01*
G01X3673063Y3201465D02*
G01X3674331Y3201161D01*
G01X3674331Y3201161D02*
G01X3675594Y3200831D01*
G01X3675594Y3200831D02*
G01X3676846Y3200469D01*
G01X3676846Y3200469D02*
G01X3678091Y3200075D01*
G01X3678091Y3200075D02*
G01X3679323Y3199650D01*
G01X3679323Y3199650D02*
G01X3680547Y3199193D01*
G01X3680547Y3199193D02*
G01X3681756Y3198709D01*
G01X3681756Y3198709D02*
G01X3682957Y3198197D01*
G01X3682957Y3198197D02*
G01X3684142Y3197654D01*
G01X3684142Y3197654D02*
G01X3685315Y3197083D01*
G01X3685315Y3197083D02*
G01X3686472Y3196480D01*
G01X3686472Y3196480D02*
G01X3687614Y3195850D01*
G01X3687614Y3195850D02*
G01X3688740Y3195193D01*
G01X3688740Y3195193D02*
G01X3689850Y3194512D01*
G01X3689850Y3194512D02*
G01X3690945Y3193799D01*
G01X3690945Y3193799D02*
G01X3692020Y3193059D01*
G01X3692020Y3193059D02*
G01X3693079Y3192295D01*
G01X3693079Y3192295D02*
G01X3694118Y3191508D01*
G01X3694118Y3191508D02*
G01X3695134Y3190693D01*
G01X3695134Y3190693D02*
G01X3696134Y3189850D01*
G01X3696134Y3189850D02*
G01X3697110Y3188988D01*
G01X3697110Y3188988D02*
G01X3698067Y3188098D01*
G01X3698067Y3188098D02*
G01X3699000Y3187189D01*
G01X3699000Y3187189D02*
G01X3699909Y3186256D01*
G01X3699909Y3186256D02*
G01X3700799Y3185299D01*
G01X3700799Y3185299D02*
G01X3701661Y3184323D01*
G01X3701661Y3184323D02*
G01X3702504Y3183323D01*
G01X3702504Y3183323D02*
G01X3703319Y3182307D01*
G01X3703319Y3182307D02*
G01X3704106Y3181268D01*
G01X3704106Y3181268D02*
G01X3704870Y3180209D01*
G01X3704870Y3180209D02*
G01X3705610Y3179134D01*
G01X3705610Y3179134D02*
G01X3706323Y3178039D01*
G01X3706323Y3178039D02*
G01X3707004Y3176929D01*
G01X3707004Y3176929D02*
G01X3707661Y3175803D01*
G01X3707661Y3175803D02*
G01X3708291Y3174661D01*
G01X3708291Y3174661D02*
G01X3708894Y3173504D01*
G01X3708894Y3173504D02*
G01X3709465Y3172331D01*
G01X3709465Y3172331D02*
G01X3710008Y3171146D01*
G01X3710008Y3171146D02*
G01X3710520Y3169945D01*
G01X3710520Y3169945D02*
G01X3711004Y3168736D01*
G01X3711004Y3168736D02*
G01X3711461Y3167512D01*
G01X3711461Y3167512D02*
G01X3711886Y3166280D01*
G01X3711886Y3166280D02*
G01X3712280Y3165035D01*
G01X3712280Y3165035D02*
G01X3712642Y3163783D01*
G01X3712642Y3163783D02*
G01X3712972Y3162520D01*
G01X3712972Y3162520D02*
G01X3713276Y3161252D01*
G01X3713276Y3161252D02*
G01X3713547Y3159976D01*
G01X3713547Y3159976D02*
G01X3713783Y3158693D01*
G01X3713783Y3158693D02*
G01X3713992Y3157406D01*
G01X3713992Y3157406D02*
G01X3714165Y3156114D01*
G01X3714165Y3156114D02*
G01X3714311Y3154815D01*
G01X3714311Y3154815D02*
G01X3714421Y3153516D01*
G01X3714421Y3153516D02*
G01X3714504Y3152213D01*
G01X3714504Y3152213D02*
G01X3714551Y3150909D01*
G01X3714551Y3150909D02*
G01X3714567Y3149606D01*
G01X3714567Y3149606D02*
G01X3714551Y3148303D01*
G01X3714551Y3148303D02*
G01X3714504Y3147000D01*
G01X3714504Y3147000D02*
G01X3714421Y3145697D01*
G01X3714421Y3145697D02*
G01X3714311Y3144398D01*
G01X3714311Y3144398D02*
G01X3714165Y3143098D01*
G01X3714165Y3143098D02*
G01X3713992Y3141807D01*
G01X3713992Y3141807D02*
G01X3713783Y3140520D01*
G01X3713783Y3140520D02*
G01X3713547Y3139236D01*
G01X3713547Y3139236D02*
G01X3713276Y3137961D01*
G01X3713276Y3137961D02*
G01X3712972Y3136693D01*
G01X3712972Y3136693D02*
G01X3712642Y3135429D01*
G01X3712642Y3135429D02*
G01X3712280Y3134177D01*
G01X3712280Y3134177D02*
G01X3711886Y3132933D01*
G01X3711886Y3132933D02*
G01X3711461Y3131701D01*
G01X3711461Y3131701D02*
G01X3711004Y3130476D01*
G01X3711004Y3130476D02*
G01X3710520Y3129268D01*
G01X3710520Y3129268D02*
G01X3710008Y3128067D01*
G01X3710008Y3128067D02*
G01X3709465Y3126882D01*
G01X3709465Y3126882D02*
G01X3708894Y3125709D01*
G01X3708894Y3125709D02*
G01X3708291Y3124551D01*
G01X3708291Y3124551D02*
G01X3707661Y3123409D01*
G01X3707661Y3123409D02*
G01X3707004Y3122283D01*
G01X3707004Y3122283D02*
G01X3706323Y3121173D01*
G01X3706323Y3121173D02*
G01X3705610Y3120079D01*
G01X3705610Y3120079D02*
G01X3704870Y3119004D01*
G01X3704870Y3119004D02*
G01X3704106Y3117945D01*
G01X3704106Y3117945D02*
G01X3703319Y3116906D01*
G01X3703319Y3116906D02*
G01X3702504Y3115890D01*
G01X3702504Y3115890D02*
G01X3701661Y3114890D01*
G01X3701661Y3114890D02*
G01X3700799Y3113913D01*
G01X3700799Y3113913D02*
G01X3699909Y3112957D01*
G01X3699909Y3112957D02*
G01X3699000Y3112024D01*
G01X3699000Y3112024D02*
G01X3698067Y3111114D01*
G01X3698067Y3111114D02*
G01X3697110Y3110224D01*
G01X3697110Y3110224D02*
G01X3696134Y3109362D01*
G01X3696134Y3109362D02*
G01X3695134Y3108520D01*
G01X3695134Y3108520D02*
G01X3694118Y3107705D01*
G01X3694118Y3107705D02*
G01X3693079Y3106917D01*
G01X3693079Y3106917D02*
G01X3692020Y3106154D01*
G01X3692020Y3106154D02*
G01X3690945Y3105413D01*
G01X3690945Y3105413D02*
G01X3689850Y3104701D01*
G01X3689850Y3104701D02*
G01X3688740Y3104020D01*
G01X3688740Y3104020D02*
G01X3687614Y3103362D01*
G01X3687614Y3103362D02*
G01X3686472Y3102732D01*
G01X3686472Y3102732D02*
G01X3685315Y3102130D01*
G01X3685315Y3102130D02*
G01X3684142Y3101559D01*
G01X3684142Y3101559D02*
G01X3682957Y3101016D01*
G01X3682957Y3101016D02*
G01X3681756Y3100504D01*
G01X3681756Y3100504D02*
G01X3680547Y3100020D01*
G01X3680547Y3100020D02*
G01X3679323Y3099563D01*
G01X3679323Y3099563D02*
G01X3678091Y3099138D01*
G01X3678091Y3099138D02*
G01X3676846Y3098744D01*
G01X3676846Y3098744D02*
G01X3675594Y3098382D01*
G01X3675594Y3098382D02*
G01X3674331Y3098051D01*
G01X3674331Y3098051D02*
G01X3673063Y3097748D01*
G01X3673063Y3097748D02*
G01X3671787Y3097476D01*
G01X3671787Y3097476D02*
G01X3670504Y3097240D01*
G01X3670504Y3097240D02*
G01X3669217Y3097031D01*
G01X3669217Y3097031D02*
G01X3667925Y3096858D01*
G01X3667925Y3096858D02*
G01X3666626Y3096713D01*
G01X3666626Y3096713D02*
G01X3665327Y3096602D01*
G01X3665327Y3096602D02*
G01X3664024Y3096520D01*
G01X3664024Y3096520D02*
G01X3662720Y3096472D01*
G01X3662720Y3096472D02*
G01X3661417Y3096457D01*
G01X3661417Y3096457D02*
G01X3660114Y3096472D01*
G01X3660114Y3096472D02*
G01X3658811Y3096520D01*
G01X3658811Y3096520D02*
G01X3657508Y3096602D01*
G01X3657508Y3096602D02*
G01X3656209Y3096713D01*
G01X3656209Y3096713D02*
G01X3654909Y3096858D01*
G01X3654909Y3096858D02*
G01X3653618Y3097031D01*
G01X3653618Y3097031D02*
G01X3652331Y3097240D01*
G01X3652331Y3097240D02*
G01X3651047Y3097476D01*
G01X3651047Y3097476D02*
G01X3649772Y3097748D01*
G01X3649772Y3097748D02*
G01X3648504Y3098051D01*
G01X3648504Y3098051D02*
G01X3647240Y3098382D01*
G01X3647240Y3098382D02*
G01X3645988Y3098744D01*
G01X3645988Y3098744D02*
G01X3644744Y3099138D01*
G01X3644744Y3099138D02*
G01X3643512Y3099563D01*
G01X3643512Y3099563D02*
G01X3642287Y3100020D01*
G01X3642287Y3100020D02*
G01X3641079Y3100504D01*
G01X3641079Y3100504D02*
G01X3639878Y3101016D01*
G01X3639878Y3101016D02*
G01X3638693Y3101559D01*
G01X3638693Y3101559D02*
G01X3637520Y3102130D01*
G01X3637520Y3102130D02*
G01X3636362Y3102732D01*
G01X3636362Y3102732D02*
G01X3635220Y3103362D01*
G01X3635220Y3103362D02*
G01X3634094Y3104020D01*
G01X3634094Y3104020D02*
G01X3632984Y3104701D01*
G01X3632984Y3104701D02*
G01X3631890Y3105413D01*
G01X3631890Y3105413D02*
G01X3630815Y3106154D01*
G01X3630815Y3106154D02*
G01X3629756Y3106917D01*
G01X3629756Y3106917D02*
G01X3628717Y3107705D01*
G01X3628717Y3107705D02*
G01X3627701Y3108520D01*
G01X3627701Y3108520D02*
G01X3626701Y3109362D01*
G01X3626701Y3109362D02*
G01X3625724Y3110224D01*
G01X3625724Y3110224D02*
G01X3624768Y3111114D01*
G01X3624768Y3111114D02*
G01X3623835Y3112024D01*
G01X3623835Y3112024D02*
G01X3622925Y3112957D01*
G01X3622925Y3112957D02*
G01X3622035Y3113913D01*
G01X3622035Y3113913D02*
G01X3621173Y3114890D01*
G01X3621173Y3114890D02*
G01X3620331Y3115890D01*
G01X3620331Y3115890D02*
G01X3619516Y3116906D01*
G01X3619516Y3116906D02*
G01X3618728Y3117945D01*
G01X3618728Y3117945D02*
G01X3617965Y3119004D01*
G01X3617965Y3119004D02*
G01X3617224Y3120079D01*
G01X3617224Y3120079D02*
G01X3616512Y3121173D01*
G01X3616512Y3121173D02*
G01X3615831Y3122283D01*
G01X3615831Y3122283D02*
G01X3615173Y3123409D01*
G01X3615173Y3123409D02*
G01X3614543Y3124551D01*
G01X3614543Y3124551D02*
G01X3613941Y3125709D01*
G01X3613941Y3125709D02*
G01X3613370Y3126882D01*
G01X3613370Y3126882D02*
G01X3612827Y3128067D01*
G01X3612827Y3128067D02*
G01X3612315Y3129268D01*
G01X3612315Y3129268D02*
G01X3611831Y3130476D01*
G01X3611831Y3130476D02*
G01X3611374Y3131701D01*
G01X3611374Y3131701D02*
G01X3610949Y3132933D01*
G01X3610949Y3132933D02*
G01X3610555Y3134177D01*
G01X3610555Y3134177D02*
G01X3610193Y3135429D01*
G01X3610193Y3135429D02*
G01X3609862Y3136693D01*
G01X3609862Y3136693D02*
G01X3609559Y3137961D01*
G01X3609559Y3137961D02*
G01X3609287Y3139236D01*
G01X3609287Y3139236D02*
G01X3609051Y3140520D01*
G01X3609051Y3140520D02*
G01X3608843Y3141807D01*
G01X3608843Y3141807D02*
G01X3608669Y3143098D01*
G01X3608669Y3143098D02*
G01X3608524Y3144398D01*
G01X3608524Y3144398D02*
G01X3608413Y3145697D01*
G01X3608413Y3145697D02*
G01X3608331Y3147000D01*
G01X3608331Y3147000D02*
G01X3608283Y3148303D01*
G01X3608283Y3148303D02*
G01X3608268Y3149606D01*
G54D21*
G01X3661417Y3149606D03*
G54D10*
G01X1679134Y3149606D02*
G01X1679150Y3150909D01*
G01X1679150Y3150909D02*
G01X1679197Y3152213D01*
G01X1679197Y3152213D02*
G01X1679280Y3153516D01*
G01X1679280Y3153516D02*
G01X1679390Y3154815D01*
G01X1679390Y3154815D02*
G01X1679535Y3156114D01*
G01X1679535Y3156114D02*
G01X1679709Y3157406D01*
G01X1679709Y3157406D02*
G01X1679917Y3158693D01*
G01X1679917Y3158693D02*
G01X1680154Y3159976D01*
G01X1680154Y3159976D02*
G01X1680425Y3161252D01*
G01X1680425Y3161252D02*
G01X1680728Y3162520D01*
G01X1680728Y3162520D02*
G01X1681059Y3163783D01*
G01X1681059Y3163783D02*
G01X1681421Y3165035D01*
G01X1681421Y3165035D02*
G01X1681815Y3166280D01*
G01X1681815Y3166280D02*
G01X1682240Y3167512D01*
G01X1682240Y3167512D02*
G01X1682697Y3168736D01*
G01X1682697Y3168736D02*
G01X1683181Y3169945D01*
G01X1683181Y3169945D02*
G01X1683693Y3171146D01*
G01X1683693Y3171146D02*
G01X1684236Y3172331D01*
G01X1684236Y3172331D02*
G01X1684807Y3173504D01*
G01X1684807Y3173504D02*
G01X1685409Y3174661D01*
G01X1685409Y3174661D02*
G01X1686039Y3175803D01*
G01X1686039Y3175803D02*
G01X1686697Y3176929D01*
G01X1686697Y3176929D02*
G01X1687378Y3178039D01*
G01X1687378Y3178039D02*
G01X1688091Y3179134D01*
G01X1688091Y3179134D02*
G01X1688831Y3180209D01*
G01X1688831Y3180209D02*
G01X1689594Y3181268D01*
G01X1689594Y3181268D02*
G01X1690382Y3182307D01*
G01X1690382Y3182307D02*
G01X1691197Y3183323D01*
G01X1691197Y3183323D02*
G01X1692039Y3184323D01*
G01X1692039Y3184323D02*
G01X1692902Y3185299D01*
G01X1692902Y3185299D02*
G01X1693791Y3186256D01*
G01X1693791Y3186256D02*
G01X1694701Y3187189D01*
G01X1694701Y3187189D02*
G01X1695634Y3188098D01*
G01X1695634Y3188098D02*
G01X1696591Y3188988D01*
G01X1696591Y3188988D02*
G01X1697567Y3189850D01*
G01X1697567Y3189850D02*
G01X1698567Y3190693D01*
G01X1698567Y3190693D02*
G01X1699583Y3191508D01*
G01X1699583Y3191508D02*
G01X1700622Y3192295D01*
G01X1700622Y3192295D02*
G01X1701681Y3193059D01*
G01X1701681Y3193059D02*
G01X1702756Y3193799D01*
G01X1702756Y3193799D02*
G01X1703850Y3194512D01*
G01X1703850Y3194512D02*
G01X1704961Y3195193D01*
G01X1704961Y3195193D02*
G01X1706087Y3195850D01*
G01X1706087Y3195850D02*
G01X1707228Y3196480D01*
G01X1707228Y3196480D02*
G01X1708386Y3197083D01*
G01X1708386Y3197083D02*
G01X1709559Y3197654D01*
G01X1709559Y3197654D02*
G01X1710744Y3198197D01*
G01X1710744Y3198197D02*
G01X1711945Y3198709D01*
G01X1711945Y3198709D02*
G01X1713154Y3199193D01*
G01X1713154Y3199193D02*
G01X1714378Y3199650D01*
G01X1714378Y3199650D02*
G01X1715610Y3200075D01*
G01X1715610Y3200075D02*
G01X1716854Y3200469D01*
G01X1716854Y3200469D02*
G01X1718106Y3200831D01*
G01X1718106Y3200831D02*
G01X1719370Y3201161D01*
G01X1719370Y3201161D02*
G01X1720638Y3201465D01*
G01X1720638Y3201465D02*
G01X1721913Y3201736D01*
G01X1721913Y3201736D02*
G01X1723197Y3201972D01*
G01X1723197Y3201972D02*
G01X1724484Y3202181D01*
G01X1724484Y3202181D02*
G01X1725776Y3202354D01*
G01X1725776Y3202354D02*
G01X1727075Y3202500D01*
G01X1727075Y3202500D02*
G01X1728374Y3202610D01*
G01X1728374Y3202610D02*
G01X1729677Y3202693D01*
G01X1729677Y3202693D02*
G01X1730980Y3202740D01*
G01X1730980Y3202740D02*
G01X1732283Y3202756D01*
G01X1732283Y3202756D02*
G01X1733587Y3202740D01*
G01X1733587Y3202740D02*
G01X1734890Y3202693D01*
G01X1734890Y3202693D02*
G01X1736193Y3202610D01*
G01X1736193Y3202610D02*
G01X1737492Y3202500D01*
G01X1737492Y3202500D02*
G01X1738791Y3202354D01*
G01X1738791Y3202354D02*
G01X1740083Y3202181D01*
G01X1740083Y3202181D02*
G01X1741370Y3201972D01*
G01X1741370Y3201972D02*
G01X1742654Y3201736D01*
G01X1742654Y3201736D02*
G01X1743929Y3201465D01*
G01X1743929Y3201465D02*
G01X1745197Y3201161D01*
G01X1745197Y3201161D02*
G01X1746461Y3200831D01*
G01X1746461Y3200831D02*
G01X1747713Y3200469D01*
G01X1747713Y3200469D02*
G01X1748957Y3200075D01*
G01X1748957Y3200075D02*
G01X1750189Y3199650D01*
G01X1750189Y3199650D02*
G01X1751413Y3199193D01*
G01X1751413Y3199193D02*
G01X1752622Y3198709D01*
G01X1752622Y3198709D02*
G01X1753823Y3198197D01*
G01X1753823Y3198197D02*
G01X1755008Y3197654D01*
G01X1755008Y3197654D02*
G01X1756181Y3197083D01*
G01X1756181Y3197083D02*
G01X1757339Y3196480D01*
G01X1757339Y3196480D02*
G01X1758480Y3195850D01*
G01X1758480Y3195850D02*
G01X1759606Y3195193D01*
G01X1759606Y3195193D02*
G01X1760717Y3194512D01*
G01X1760717Y3194512D02*
G01X1761811Y3193799D01*
G01X1761811Y3193799D02*
G01X1762886Y3193059D01*
G01X1762886Y3193059D02*
G01X1763945Y3192295D01*
G01X1763945Y3192295D02*
G01X1764984Y3191508D01*
G01X1764984Y3191508D02*
G01X1766000Y3190693D01*
G01X1766000Y3190693D02*
G01X1767000Y3189850D01*
G01X1767000Y3189850D02*
G01X1767976Y3188988D01*
G01X1767976Y3188988D02*
G01X1768933Y3188098D01*
G01X1768933Y3188098D02*
G01X1769866Y3187189D01*
G01X1769866Y3187189D02*
G01X1770776Y3186256D01*
G01X1770776Y3186256D02*
G01X1771665Y3185299D01*
G01X1771665Y3185299D02*
G01X1772528Y3184323D01*
G01X1772528Y3184323D02*
G01X1773370Y3183323D01*
G01X1773370Y3183323D02*
G01X1774185Y3182307D01*
G01X1774185Y3182307D02*
G01X1774972Y3181268D01*
G01X1774972Y3181268D02*
G01X1775736Y3180209D01*
G01X1775736Y3180209D02*
G01X1776476Y3179134D01*
G01X1776476Y3179134D02*
G01X1777189Y3178039D01*
G01X1777189Y3178039D02*
G01X1777870Y3176929D01*
G01X1777870Y3176929D02*
G01X1778528Y3175803D01*
G01X1778528Y3175803D02*
G01X1779157Y3174661D01*
G01X1779157Y3174661D02*
G01X1779760Y3173504D01*
G01X1779760Y3173504D02*
G01X1780331Y3172331D01*
G01X1780331Y3172331D02*
G01X1780874Y3171146D01*
G01X1780874Y3171146D02*
G01X1781386Y3169945D01*
G01X1781386Y3169945D02*
G01X1781870Y3168736D01*
G01X1781870Y3168736D02*
G01X1782327Y3167512D01*
G01X1782327Y3167512D02*
G01X1782752Y3166280D01*
G01X1782752Y3166280D02*
G01X1783146Y3165035D01*
G01X1783146Y3165035D02*
G01X1783508Y3163783D01*
G01X1783508Y3163783D02*
G01X1783839Y3162520D01*
G01X1783839Y3162520D02*
G01X1784142Y3161252D01*
G01X1784142Y3161252D02*
G01X1784413Y3159976D01*
G01X1784413Y3159976D02*
G01X1784650Y3158693D01*
G01X1784650Y3158693D02*
G01X1784858Y3157406D01*
G01X1784858Y3157406D02*
G01X1785031Y3156114D01*
G01X1785031Y3156114D02*
G01X1785177Y3154815D01*
G01X1785177Y3154815D02*
G01X1785287Y3153516D01*
G01X1785287Y3153516D02*
G01X1785370Y3152213D01*
G01X1785370Y3152213D02*
G01X1785417Y3150909D01*
G01X1785417Y3150909D02*
G01X1785433Y3149606D01*
G01X1785433Y3149606D02*
G01X1785417Y3148303D01*
G01X1785417Y3148303D02*
G01X1785370Y3147000D01*
G01X1785370Y3147000D02*
G01X1785287Y3145697D01*
G01X1785287Y3145697D02*
G01X1785177Y3144398D01*
G01X1785177Y3144398D02*
G01X1785031Y3143098D01*
G01X1785031Y3143098D02*
G01X1784858Y3141807D01*
G01X1784858Y3141807D02*
G01X1784650Y3140520D01*
G01X1784650Y3140520D02*
G01X1784413Y3139236D01*
G01X1784413Y3139236D02*
G01X1784142Y3137961D01*
G01X1784142Y3137961D02*
G01X1783839Y3136693D01*
G01X1783839Y3136693D02*
G01X1783508Y3135429D01*
G01X1783508Y3135429D02*
G01X1783146Y3134177D01*
G01X1783146Y3134177D02*
G01X1782752Y3132933D01*
G01X1782752Y3132933D02*
G01X1782327Y3131701D01*
G01X1782327Y3131701D02*
G01X1781870Y3130476D01*
G01X1781870Y3130476D02*
G01X1781386Y3129268D01*
G01X1781386Y3129268D02*
G01X1780874Y3128067D01*
G01X1780874Y3128067D02*
G01X1780331Y3126882D01*
G01X1780331Y3126882D02*
G01X1779760Y3125709D01*
G01X1779760Y3125709D02*
G01X1779157Y3124551D01*
G01X1779157Y3124551D02*
G01X1778528Y3123409D01*
G01X1778528Y3123409D02*
G01X1777870Y3122283D01*
G01X1777870Y3122283D02*
G01X1777189Y3121173D01*
G01X1777189Y3121173D02*
G01X1776476Y3120079D01*
G01X1776476Y3120079D02*
G01X1775736Y3119004D01*
G01X1775736Y3119004D02*
G01X1774972Y3117945D01*
G01X1774972Y3117945D02*
G01X1774185Y3116906D01*
G01X1774185Y3116906D02*
G01X1773370Y3115890D01*
G01X1773370Y3115890D02*
G01X1772528Y3114890D01*
G01X1772528Y3114890D02*
G01X1771665Y3113913D01*
G01X1771665Y3113913D02*
G01X1770776Y3112957D01*
G01X1770776Y3112957D02*
G01X1769866Y3112024D01*
G01X1769866Y3112024D02*
G01X1768933Y3111114D01*
G01X1768933Y3111114D02*
G01X1767976Y3110224D01*
G01X1767976Y3110224D02*
G01X1767000Y3109362D01*
G01X1767000Y3109362D02*
G01X1766000Y3108520D01*
G01X1766000Y3108520D02*
G01X1764984Y3107705D01*
G01X1764984Y3107705D02*
G01X1763945Y3106917D01*
G01X1763945Y3106917D02*
G01X1762886Y3106154D01*
G01X1762886Y3106154D02*
G01X1761811Y3105413D01*
G01X1761811Y3105413D02*
G01X1760717Y3104701D01*
G01X1760717Y3104701D02*
G01X1759606Y3104020D01*
G01X1759606Y3104020D02*
G01X1758480Y3103362D01*
G01X1758480Y3103362D02*
G01X1757339Y3102732D01*
G01X1757339Y3102732D02*
G01X1756181Y3102130D01*
G01X1756181Y3102130D02*
G01X1755008Y3101559D01*
G01X1755008Y3101559D02*
G01X1753823Y3101016D01*
G01X1753823Y3101016D02*
G01X1752622Y3100504D01*
G01X1752622Y3100504D02*
G01X1751413Y3100020D01*
G01X1751413Y3100020D02*
G01X1750189Y3099563D01*
G01X1750189Y3099563D02*
G01X1748957Y3099138D01*
G01X1748957Y3099138D02*
G01X1747713Y3098744D01*
G01X1747713Y3098744D02*
G01X1746461Y3098382D01*
G01X1746461Y3098382D02*
G01X1745197Y3098051D01*
G01X1745197Y3098051D02*
G01X1743929Y3097748D01*
G01X1743929Y3097748D02*
G01X1742654Y3097476D01*
G01X1742654Y3097476D02*
G01X1741370Y3097240D01*
G01X1741370Y3097240D02*
G01X1740083Y3097031D01*
G01X1740083Y3097031D02*
G01X1738791Y3096858D01*
G01X1738791Y3096858D02*
G01X1737492Y3096713D01*
G01X1737492Y3096713D02*
G01X1736193Y3096602D01*
G01X1736193Y3096602D02*
G01X1734890Y3096520D01*
G01X1734890Y3096520D02*
G01X1733587Y3096472D01*
G01X1733587Y3096472D02*
G01X1732283Y3096457D01*
G01X1732283Y3096457D02*
G01X1730980Y3096472D01*
G01X1730980Y3096472D02*
G01X1729677Y3096520D01*
G01X1729677Y3096520D02*
G01X1728374Y3096602D01*
G01X1728374Y3096602D02*
G01X1727075Y3096713D01*
G01X1727075Y3096713D02*
G01X1725776Y3096858D01*
G01X1725776Y3096858D02*
G01X1724484Y3097031D01*
G01X1724484Y3097031D02*
G01X1723197Y3097240D01*
G01X1723197Y3097240D02*
G01X1721913Y3097476D01*
G01X1721913Y3097476D02*
G01X1720638Y3097748D01*
G01X1720638Y3097748D02*
G01X1719370Y3098051D01*
G01X1719370Y3098051D02*
G01X1718106Y3098382D01*
G01X1718106Y3098382D02*
G01X1716854Y3098744D01*
G01X1716854Y3098744D02*
G01X1715610Y3099138D01*
G01X1715610Y3099138D02*
G01X1714378Y3099563D01*
G01X1714378Y3099563D02*
G01X1713154Y3100020D01*
G01X1713154Y3100020D02*
G01X1711945Y3100504D01*
G01X1711945Y3100504D02*
G01X1710744Y3101016D01*
G01X1710744Y3101016D02*
G01X1709559Y3101559D01*
G01X1709559Y3101559D02*
G01X1708386Y3102130D01*
G01X1708386Y3102130D02*
G01X1707228Y3102732D01*
G01X1707228Y3102732D02*
G01X1706087Y3103362D01*
G01X1706087Y3103362D02*
G01X1704961Y3104020D01*
G01X1704961Y3104020D02*
G01X1703850Y3104701D01*
G01X1703850Y3104701D02*
G01X1702756Y3105413D01*
G01X1702756Y3105413D02*
G01X1701681Y3106154D01*
G01X1701681Y3106154D02*
G01X1700622Y3106917D01*
G01X1700622Y3106917D02*
G01X1699583Y3107705D01*
G01X1699583Y3107705D02*
G01X1698567Y3108520D01*
G01X1698567Y3108520D02*
G01X1697567Y3109362D01*
G01X1697567Y3109362D02*
G01X1696591Y3110224D01*
G01X1696591Y3110224D02*
G01X1695634Y3111114D01*
G01X1695634Y3111114D02*
G01X1694701Y3112024D01*
G01X1694701Y3112024D02*
G01X1693791Y3112957D01*
G01X1693791Y3112957D02*
G01X1692902Y3113913D01*
G01X1692902Y3113913D02*
G01X1692039Y3114890D01*
G01X1692039Y3114890D02*
G01X1691197Y3115890D01*
G01X1691197Y3115890D02*
G01X1690382Y3116906D01*
G01X1690382Y3116906D02*
G01X1689594Y3117945D01*
G01X1689594Y3117945D02*
G01X1688831Y3119004D01*
G01X1688831Y3119004D02*
G01X1688091Y3120079D01*
G01X1688091Y3120079D02*
G01X1687378Y3121173D01*
G01X1687378Y3121173D02*
G01X1686697Y3122283D01*
G01X1686697Y3122283D02*
G01X1686039Y3123409D01*
G01X1686039Y3123409D02*
G01X1685409Y3124551D01*
G01X1685409Y3124551D02*
G01X1684807Y3125709D01*
G01X1684807Y3125709D02*
G01X1684236Y3126882D01*
G01X1684236Y3126882D02*
G01X1683693Y3128067D01*
G01X1683693Y3128067D02*
G01X1683181Y3129268D01*
G01X1683181Y3129268D02*
G01X1682697Y3130476D01*
G01X1682697Y3130476D02*
G01X1682240Y3131701D01*
G01X1682240Y3131701D02*
G01X1681815Y3132933D01*
G01X1681815Y3132933D02*
G01X1681421Y3134177D01*
G01X1681421Y3134177D02*
G01X1681059Y3135429D01*
G01X1681059Y3135429D02*
G01X1680728Y3136693D01*
G01X1680728Y3136693D02*
G01X1680425Y3137961D01*
G01X1680425Y3137961D02*
G01X1680154Y3139236D01*
G01X1680154Y3139236D02*
G01X1679917Y3140520D01*
G01X1679917Y3140520D02*
G01X1679709Y3141807D01*
G01X1679709Y3141807D02*
G01X1679535Y3143098D01*
G01X1679535Y3143098D02*
G01X1679390Y3144398D01*
G01X1679390Y3144398D02*
G01X1679280Y3145697D01*
G01X1679280Y3145697D02*
G01X1679197Y3147000D01*
G01X1679197Y3147000D02*
G01X1679150Y3148303D01*
G01X1679150Y3148303D02*
G01X1679134Y3149606D01*
G54D21*
G01X1732283Y3149606D03*
G54D10*
G01X3608268Y0866142D02*
G01X3608283Y0867445D01*
G01X3608283Y0867445D02*
G01X3608331Y0868748D01*
G01X3608331Y0868748D02*
G01X3608413Y0870051D01*
G01X3608413Y0870051D02*
G01X3608524Y0871350D01*
G01X3608524Y0871350D02*
G01X3608669Y0872650D01*
G01X3608669Y0872650D02*
G01X3608843Y0873941D01*
G01X3608843Y0873941D02*
G01X3609051Y0875228D01*
G01X3609051Y0875228D02*
G01X3609287Y0876512D01*
G01X3609287Y0876512D02*
G01X3609559Y0877787D01*
G01X3609559Y0877787D02*
G01X3609862Y0879055D01*
G01X3609862Y0879055D02*
G01X3610193Y0880319D01*
G01X3610193Y0880319D02*
G01X3610555Y0881571D01*
G01X3610555Y0881571D02*
G01X3610949Y0882815D01*
G01X3610949Y0882815D02*
G01X3611374Y0884047D01*
G01X3611374Y0884047D02*
G01X3611831Y0885272D01*
G01X3611831Y0885272D02*
G01X3612315Y0886480D01*
G01X3612315Y0886480D02*
G01X3612827Y0887681D01*
G01X3612827Y0887681D02*
G01X3613370Y0888866D01*
G01X3613370Y0888866D02*
G01X3613941Y0890039D01*
G01X3613941Y0890039D02*
G01X3614543Y0891197D01*
G01X3614543Y0891197D02*
G01X3615173Y0892339D01*
G01X3615173Y0892339D02*
G01X3615831Y0893465D01*
G01X3615831Y0893465D02*
G01X3616512Y0894575D01*
G01X3616512Y0894575D02*
G01X3617224Y0895669D01*
G01X3617224Y0895669D02*
G01X3617965Y0896744D01*
G01X3617965Y0896744D02*
G01X3618728Y0897803D01*
G01X3618728Y0897803D02*
G01X3619516Y0898843D01*
G01X3619516Y0898843D02*
G01X3620331Y0899858D01*
G01X3620331Y0899858D02*
G01X3621173Y0900858D01*
G01X3621173Y0900858D02*
G01X3622035Y0901835D01*
G01X3622035Y0901835D02*
G01X3622925Y0902791D01*
G01X3622925Y0902791D02*
G01X3623835Y0903724D01*
G01X3623835Y0903724D02*
G01X3624768Y0904634D01*
G01X3624768Y0904634D02*
G01X3625724Y0905524D01*
G01X3625724Y0905524D02*
G01X3626701Y0906386D01*
G01X3626701Y0906386D02*
G01X3627701Y0907228D01*
G01X3627701Y0907228D02*
G01X3628717Y0908043D01*
G01X3628717Y0908043D02*
G01X3629756Y0908831D01*
G01X3629756Y0908831D02*
G01X3630815Y0909594D01*
G01X3630815Y0909594D02*
G01X3631890Y0910335D01*
G01X3631890Y0910335D02*
G01X3632984Y0911047D01*
G01X3632984Y0911047D02*
G01X3634094Y0911728D01*
G01X3634094Y0911728D02*
G01X3635220Y0912386D01*
G01X3635220Y0912386D02*
G01X3636362Y0913016D01*
G01X3636362Y0913016D02*
G01X3637520Y0913618D01*
G01X3637520Y0913618D02*
G01X3638693Y0914189D01*
G01X3638693Y0914189D02*
G01X3639878Y0914732D01*
G01X3639878Y0914732D02*
G01X3641079Y0915244D01*
G01X3641079Y0915244D02*
G01X3642287Y0915728D01*
G01X3642287Y0915728D02*
G01X3643512Y0916185D01*
G01X3643512Y0916185D02*
G01X3644744Y0916610D01*
G01X3644744Y0916610D02*
G01X3645988Y0917004D01*
G01X3645988Y0917004D02*
G01X3647240Y0917366D01*
G01X3647240Y0917366D02*
G01X3648504Y0917697D01*
G01X3648504Y0917697D02*
G01X3649772Y0918000D01*
G01X3649772Y0918000D02*
G01X3651047Y0918272D01*
G01X3651047Y0918272D02*
G01X3652331Y0918508D01*
G01X3652331Y0918508D02*
G01X3653618Y0918717D01*
G01X3653618Y0918717D02*
G01X3654909Y0918890D01*
G01X3654909Y0918890D02*
G01X3656209Y0919035D01*
G01X3656209Y0919035D02*
G01X3657508Y0919146D01*
G01X3657508Y0919146D02*
G01X3658811Y0919228D01*
G01X3658811Y0919228D02*
G01X3660114Y0919276D01*
G01X3660114Y0919276D02*
G01X3661417Y0919291D01*
G01X3661417Y0919291D02*
G01X3662720Y0919276D01*
G01X3662720Y0919276D02*
G01X3664024Y0919228D01*
G01X3664024Y0919228D02*
G01X3665327Y0919146D01*
G01X3665327Y0919146D02*
G01X3666626Y0919035D01*
G01X3666626Y0919035D02*
G01X3667925Y0918890D01*
G01X3667925Y0918890D02*
G01X3669217Y0918717D01*
G01X3669217Y0918717D02*
G01X3670504Y0918508D01*
G01X3670504Y0918508D02*
G01X3671787Y0918272D01*
G01X3671787Y0918272D02*
G01X3673063Y0918000D01*
G01X3673063Y0918000D02*
G01X3674331Y0917697D01*
G01X3674331Y0917697D02*
G01X3675594Y0917366D01*
G01X3675594Y0917366D02*
G01X3676846Y0917004D01*
G01X3676846Y0917004D02*
G01X3678091Y0916610D01*
G01X3678091Y0916610D02*
G01X3679323Y0916185D01*
G01X3679323Y0916185D02*
G01X3680547Y0915728D01*
G01X3680547Y0915728D02*
G01X3681756Y0915244D01*
G01X3681756Y0915244D02*
G01X3682957Y0914732D01*
G01X3682957Y0914732D02*
G01X3684142Y0914189D01*
G01X3684142Y0914189D02*
G01X3685315Y0913618D01*
G01X3685315Y0913618D02*
G01X3686472Y0913016D01*
G01X3686472Y0913016D02*
G01X3687614Y0912386D01*
G01X3687614Y0912386D02*
G01X3688740Y0911728D01*
G01X3688740Y0911728D02*
G01X3689850Y0911047D01*
G01X3689850Y0911047D02*
G01X3690945Y0910335D01*
G01X3690945Y0910335D02*
G01X3692020Y0909594D01*
G01X3692020Y0909594D02*
G01X3693079Y0908831D01*
G01X3693079Y0908831D02*
G01X3694118Y0908043D01*
G01X3694118Y0908043D02*
G01X3695134Y0907228D01*
G01X3695134Y0907228D02*
G01X3696134Y0906386D01*
G01X3696134Y0906386D02*
G01X3697110Y0905524D01*
G01X3697110Y0905524D02*
G01X3698067Y0904634D01*
G01X3698067Y0904634D02*
G01X3699000Y0903724D01*
G01X3699000Y0903724D02*
G01X3699909Y0902791D01*
G01X3699909Y0902791D02*
G01X3700799Y0901835D01*
G01X3700799Y0901835D02*
G01X3701661Y0900858D01*
G01X3701661Y0900858D02*
G01X3702504Y0899858D01*
G01X3702504Y0899858D02*
G01X3703319Y0898843D01*
G01X3703319Y0898843D02*
G01X3704106Y0897803D01*
G01X3704106Y0897803D02*
G01X3704870Y0896744D01*
G01X3704870Y0896744D02*
G01X3705610Y0895669D01*
G01X3705610Y0895669D02*
G01X3706323Y0894575D01*
G01X3706323Y0894575D02*
G01X3707004Y0893465D01*
G01X3707004Y0893465D02*
G01X3707661Y0892339D01*
G01X3707661Y0892339D02*
G01X3708291Y0891197D01*
G01X3708291Y0891197D02*
G01X3708894Y0890039D01*
G01X3708894Y0890039D02*
G01X3709465Y0888866D01*
G01X3709465Y0888866D02*
G01X3710008Y0887681D01*
G01X3710008Y0887681D02*
G01X3710520Y0886480D01*
G01X3710520Y0886480D02*
G01X3711004Y0885272D01*
G01X3711004Y0885272D02*
G01X3711461Y0884047D01*
G01X3711461Y0884047D02*
G01X3711886Y0882815D01*
G01X3711886Y0882815D02*
G01X3712280Y0881571D01*
G01X3712280Y0881571D02*
G01X3712642Y0880319D01*
G01X3712642Y0880319D02*
G01X3712972Y0879055D01*
G01X3712972Y0879055D02*
G01X3713276Y0877787D01*
G01X3713276Y0877787D02*
G01X3713547Y0876512D01*
G01X3713547Y0876512D02*
G01X3713783Y0875228D01*
G01X3713783Y0875228D02*
G01X3713992Y0873941D01*
G01X3713992Y0873941D02*
G01X3714165Y0872650D01*
G01X3714165Y0872650D02*
G01X3714311Y0871350D01*
G01X3714311Y0871350D02*
G01X3714421Y0870051D01*
G01X3714421Y0870051D02*
G01X3714504Y0868748D01*
G01X3714504Y0868748D02*
G01X3714551Y0867445D01*
G01X3714551Y0867445D02*
G01X3714567Y0866142D01*
G01X3714567Y0866142D02*
G01X3714551Y0864839D01*
G01X3714551Y0864839D02*
G01X3714504Y0863535D01*
G01X3714504Y0863535D02*
G01X3714421Y0862232D01*
G01X3714421Y0862232D02*
G01X3714311Y0860933D01*
G01X3714311Y0860933D02*
G01X3714165Y0859634D01*
G01X3714165Y0859634D02*
G01X3713992Y0858343D01*
G01X3713992Y0858343D02*
G01X3713783Y0857055D01*
G01X3713783Y0857055D02*
G01X3713547Y0855772D01*
G01X3713547Y0855772D02*
G01X3713276Y0854496D01*
G01X3713276Y0854496D02*
G01X3712972Y0853228D01*
G01X3712972Y0853228D02*
G01X3712642Y0851965D01*
G01X3712642Y0851965D02*
G01X3712280Y0850713D01*
G01X3712280Y0850713D02*
G01X3711886Y0849469D01*
G01X3711886Y0849469D02*
G01X3711461Y0848236D01*
G01X3711461Y0848236D02*
G01X3711004Y0847012D01*
G01X3711004Y0847012D02*
G01X3710520Y0845803D01*
G01X3710520Y0845803D02*
G01X3710008Y0844602D01*
G01X3710008Y0844602D02*
G01X3709465Y0843417D01*
G01X3709465Y0843417D02*
G01X3708894Y0842244D01*
G01X3708894Y0842244D02*
G01X3708291Y0841087D01*
G01X3708291Y0841087D02*
G01X3707661Y0839945D01*
G01X3707661Y0839945D02*
G01X3707004Y0838819D01*
G01X3707004Y0838819D02*
G01X3706323Y0837709D01*
G01X3706323Y0837709D02*
G01X3705610Y0836614D01*
G01X3705610Y0836614D02*
G01X3704870Y0835539D01*
G01X3704870Y0835539D02*
G01X3704106Y0834480D01*
G01X3704106Y0834480D02*
G01X3703319Y0833441D01*
G01X3703319Y0833441D02*
G01X3702504Y0832425D01*
G01X3702504Y0832425D02*
G01X3701661Y0831425D01*
G01X3701661Y0831425D02*
G01X3700799Y0830449D01*
G01X3700799Y0830449D02*
G01X3699909Y0829492D01*
G01X3699909Y0829492D02*
G01X3699000Y0828559D01*
G01X3699000Y0828559D02*
G01X3698067Y0827650D01*
G01X3698067Y0827650D02*
G01X3697110Y0826760D01*
G01X3697110Y0826760D02*
G01X3696134Y0825898D01*
G01X3696134Y0825898D02*
G01X3695134Y0825055D01*
G01X3695134Y0825055D02*
G01X3694118Y0824240D01*
G01X3694118Y0824240D02*
G01X3693079Y0823453D01*
G01X3693079Y0823453D02*
G01X3692020Y0822689D01*
G01X3692020Y0822689D02*
G01X3690945Y0821949D01*
G01X3690945Y0821949D02*
G01X3689850Y0821236D01*
G01X3689850Y0821236D02*
G01X3688740Y0820555D01*
G01X3688740Y0820555D02*
G01X3687614Y0819898D01*
G01X3687614Y0819898D02*
G01X3686472Y0819268D01*
G01X3686472Y0819268D02*
G01X3685315Y0818665D01*
G01X3685315Y0818665D02*
G01X3684142Y0818094D01*
G01X3684142Y0818094D02*
G01X3682957Y0817551D01*
G01X3682957Y0817551D02*
G01X3681756Y0817039D01*
G01X3681756Y0817039D02*
G01X3680547Y0816555D01*
G01X3680547Y0816555D02*
G01X3679323Y0816098D01*
G01X3679323Y0816098D02*
G01X3678091Y0815673D01*
G01X3678091Y0815673D02*
G01X3676846Y0815280D01*
G01X3676846Y0815280D02*
G01X3675594Y0814917D01*
G01X3675594Y0814917D02*
G01X3674331Y0814587D01*
G01X3674331Y0814587D02*
G01X3673063Y0814283D01*
G01X3673063Y0814283D02*
G01X3671787Y0814012D01*
G01X3671787Y0814012D02*
G01X3670504Y0813776D01*
G01X3670504Y0813776D02*
G01X3669217Y0813567D01*
G01X3669217Y0813567D02*
G01X3667925Y0813394D01*
G01X3667925Y0813394D02*
G01X3666626Y0813248D01*
G01X3666626Y0813248D02*
G01X3665327Y0813138D01*
G01X3665327Y0813138D02*
G01X3664024Y0813055D01*
G01X3664024Y0813055D02*
G01X3662720Y0813008D01*
G01X3662720Y0813008D02*
G01X3661417Y0812992D01*
G01X3661417Y0812992D02*
G01X3660114Y0813008D01*
G01X3660114Y0813008D02*
G01X3658811Y0813055D01*
G01X3658811Y0813055D02*
G01X3657508Y0813138D01*
G01X3657508Y0813138D02*
G01X3656209Y0813248D01*
G01X3656209Y0813248D02*
G01X3654909Y0813394D01*
G01X3654909Y0813394D02*
G01X3653618Y0813567D01*
G01X3653618Y0813567D02*
G01X3652331Y0813776D01*
G01X3652331Y0813776D02*
G01X3651047Y0814012D01*
G01X3651047Y0814012D02*
G01X3649772Y0814283D01*
G01X3649772Y0814283D02*
G01X3648504Y0814587D01*
G01X3648504Y0814587D02*
G01X3647240Y0814917D01*
G01X3647240Y0814917D02*
G01X3645988Y0815280D01*
G01X3645988Y0815280D02*
G01X3644744Y0815673D01*
G01X3644744Y0815673D02*
G01X3643512Y0816098D01*
G01X3643512Y0816098D02*
G01X3642287Y0816555D01*
G01X3642287Y0816555D02*
G01X3641079Y0817039D01*
G01X3641079Y0817039D02*
G01X3639878Y0817551D01*
G01X3639878Y0817551D02*
G01X3638693Y0818094D01*
G01X3638693Y0818094D02*
G01X3637520Y0818665D01*
G01X3637520Y0818665D02*
G01X3636362Y0819268D01*
G01X3636362Y0819268D02*
G01X3635220Y0819898D01*
G01X3635220Y0819898D02*
G01X3634094Y0820555D01*
G01X3634094Y0820555D02*
G01X3632984Y0821236D01*
G01X3632984Y0821236D02*
G01X3631890Y0821949D01*
G01X3631890Y0821949D02*
G01X3630815Y0822689D01*
G01X3630815Y0822689D02*
G01X3629756Y0823453D01*
G01X3629756Y0823453D02*
G01X3628717Y0824240D01*
G01X3628717Y0824240D02*
G01X3627701Y0825055D01*
G01X3627701Y0825055D02*
G01X3626701Y0825898D01*
G01X3626701Y0825898D02*
G01X3625724Y0826760D01*
G01X3625724Y0826760D02*
G01X3624768Y0827650D01*
G01X3624768Y0827650D02*
G01X3623835Y0828559D01*
G01X3623835Y0828559D02*
G01X3622925Y0829492D01*
G01X3622925Y0829492D02*
G01X3622035Y0830449D01*
G01X3622035Y0830449D02*
G01X3621173Y0831425D01*
G01X3621173Y0831425D02*
G01X3620331Y0832425D01*
G01X3620331Y0832425D02*
G01X3619516Y0833441D01*
G01X3619516Y0833441D02*
G01X3618728Y0834480D01*
G01X3618728Y0834480D02*
G01X3617965Y0835539D01*
G01X3617965Y0835539D02*
G01X3617224Y0836614D01*
G01X3617224Y0836614D02*
G01X3616512Y0837709D01*
G01X3616512Y0837709D02*
G01X3615831Y0838819D01*
G01X3615831Y0838819D02*
G01X3615173Y0839945D01*
G01X3615173Y0839945D02*
G01X3614543Y0841087D01*
G01X3614543Y0841087D02*
G01X3613941Y0842244D01*
G01X3613941Y0842244D02*
G01X3613370Y0843417D01*
G01X3613370Y0843417D02*
G01X3612827Y0844602D01*
G01X3612827Y0844602D02*
G01X3612315Y0845803D01*
G01X3612315Y0845803D02*
G01X3611831Y0847012D01*
G01X3611831Y0847012D02*
G01X3611374Y0848236D01*
G01X3611374Y0848236D02*
G01X3610949Y0849469D01*
G01X3610949Y0849469D02*
G01X3610555Y0850713D01*
G01X3610555Y0850713D02*
G01X3610193Y0851965D01*
G01X3610193Y0851965D02*
G01X3609862Y0853228D01*
G01X3609862Y0853228D02*
G01X3609559Y0854496D01*
G01X3609559Y0854496D02*
G01X3609287Y0855772D01*
G01X3609287Y0855772D02*
G01X3609051Y0857055D01*
G01X3609051Y0857055D02*
G01X3608843Y0858343D01*
G01X3608843Y0858343D02*
G01X3608669Y0859634D01*
G01X3608669Y0859634D02*
G01X3608524Y0860933D01*
G01X3608524Y0860933D02*
G01X3608413Y0862232D01*
G01X3608413Y0862232D02*
G01X3608331Y0863535D01*
G01X3608331Y0863535D02*
G01X3608283Y0864839D01*
G01X3608283Y0864839D02*
G01X3608268Y0866142D01*
G54D21*
G01X3661417Y0866142D03*
G54D10*
G01X1679134Y0866142D02*
G01X1679150Y0867445D01*
G01X1679150Y0867445D02*
G01X1679197Y0868748D01*
G01X1679197Y0868748D02*
G01X1679280Y0870051D01*
G01X1679280Y0870051D02*
G01X1679390Y0871350D01*
G01X1679390Y0871350D02*
G01X1679535Y0872650D01*
G01X1679535Y0872650D02*
G01X1679709Y0873941D01*
G01X1679709Y0873941D02*
G01X1679917Y0875228D01*
G01X1679917Y0875228D02*
G01X1680154Y0876512D01*
G01X1680154Y0876512D02*
G01X1680425Y0877787D01*
G01X1680425Y0877787D02*
G01X1680728Y0879055D01*
G01X1680728Y0879055D02*
G01X1681059Y0880319D01*
G01X1681059Y0880319D02*
G01X1681421Y0881571D01*
G01X1681421Y0881571D02*
G01X1681815Y0882815D01*
G01X1681815Y0882815D02*
G01X1682240Y0884047D01*
G01X1682240Y0884047D02*
G01X1682697Y0885272D01*
G01X1682697Y0885272D02*
G01X1683181Y0886480D01*
G01X1683181Y0886480D02*
G01X1683693Y0887681D01*
G01X1683693Y0887681D02*
G01X1684236Y0888866D01*
G01X1684236Y0888866D02*
G01X1684807Y0890039D01*
G01X1684807Y0890039D02*
G01X1685409Y0891197D01*
G01X1685409Y0891197D02*
G01X1686039Y0892339D01*
G01X1686039Y0892339D02*
G01X1686697Y0893465D01*
G01X1686697Y0893465D02*
G01X1687378Y0894575D01*
G01X1687378Y0894575D02*
G01X1688091Y0895669D01*
G01X1688091Y0895669D02*
G01X1688831Y0896744D01*
G01X1688831Y0896744D02*
G01X1689594Y0897803D01*
G01X1689594Y0897803D02*
G01X1690382Y0898843D01*
G01X1690382Y0898843D02*
G01X1691197Y0899858D01*
G01X1691197Y0899858D02*
G01X1692039Y0900858D01*
G01X1692039Y0900858D02*
G01X1692902Y0901835D01*
G01X1692902Y0901835D02*
G01X1693791Y0902791D01*
G01X1693791Y0902791D02*
G01X1694701Y0903724D01*
G01X1694701Y0903724D02*
G01X1695634Y0904634D01*
G01X1695634Y0904634D02*
G01X1696591Y0905524D01*
G01X1696591Y0905524D02*
G01X1697567Y0906386D01*
G01X1697567Y0906386D02*
G01X1698567Y0907228D01*
G01X1698567Y0907228D02*
G01X1699583Y0908043D01*
G01X1699583Y0908043D02*
G01X1700622Y0908831D01*
G01X1700622Y0908831D02*
G01X1701681Y0909594D01*
G01X1701681Y0909594D02*
G01X1702756Y0910335D01*
G01X1702756Y0910335D02*
G01X1703850Y0911047D01*
G01X1703850Y0911047D02*
G01X1704961Y0911728D01*
G01X1704961Y0911728D02*
G01X1706087Y0912386D01*
G01X1706087Y0912386D02*
G01X1707228Y0913016D01*
G01X1707228Y0913016D02*
G01X1708386Y0913618D01*
G01X1708386Y0913618D02*
G01X1709559Y0914189D01*
G01X1709559Y0914189D02*
G01X1710744Y0914732D01*
G01X1710744Y0914732D02*
G01X1711945Y0915244D01*
G01X1711945Y0915244D02*
G01X1713154Y0915728D01*
G01X1713154Y0915728D02*
G01X1714378Y0916185D01*
G01X1714378Y0916185D02*
G01X1715610Y0916610D01*
G01X1715610Y0916610D02*
G01X1716854Y0917004D01*
G01X1716854Y0917004D02*
G01X1718106Y0917366D01*
G01X1718106Y0917366D02*
G01X1719370Y0917697D01*
G01X1719370Y0917697D02*
G01X1720638Y0918000D01*
G01X1720638Y0918000D02*
G01X1721913Y0918272D01*
G01X1721913Y0918272D02*
G01X1723197Y0918508D01*
G01X1723197Y0918508D02*
G01X1724484Y0918717D01*
G01X1724484Y0918717D02*
G01X1725776Y0918890D01*
G01X1725776Y0918890D02*
G01X1727075Y0919035D01*
G01X1727075Y0919035D02*
G01X1728374Y0919146D01*
G01X1728374Y0919146D02*
G01X1729677Y0919228D01*
G01X1729677Y0919228D02*
G01X1730980Y0919276D01*
G01X1730980Y0919276D02*
G01X1732283Y0919291D01*
G01X1732283Y0919291D02*
G01X1733587Y0919276D01*
G01X1733587Y0919276D02*
G01X1734890Y0919228D01*
G01X1734890Y0919228D02*
G01X1736193Y0919146D01*
G01X1736193Y0919146D02*
G01X1737492Y0919035D01*
G01X1737492Y0919035D02*
G01X1738791Y0918890D01*
G01X1738791Y0918890D02*
G01X1740083Y0918717D01*
G01X1740083Y0918717D02*
G01X1741370Y0918508D01*
G01X1741370Y0918508D02*
G01X1742654Y0918272D01*
G01X1742654Y0918272D02*
G01X1743929Y0918000D01*
G01X1743929Y0918000D02*
G01X1745197Y0917697D01*
G01X1745197Y0917697D02*
G01X1746461Y0917366D01*
G01X1746461Y0917366D02*
G01X1747713Y0917004D01*
G01X1747713Y0917004D02*
G01X1748957Y0916610D01*
G01X1748957Y0916610D02*
G01X1750189Y0916185D01*
G01X1750189Y0916185D02*
G01X1751413Y0915728D01*
G01X1751413Y0915728D02*
G01X1752622Y0915244D01*
G01X1752622Y0915244D02*
G01X1753823Y0914732D01*
G01X1753823Y0914732D02*
G01X1755008Y0914189D01*
G01X1755008Y0914189D02*
G01X1756181Y0913618D01*
G01X1756181Y0913618D02*
G01X1757339Y0913016D01*
G01X1757339Y0913016D02*
G01X1758480Y0912386D01*
G01X1758480Y0912386D02*
G01X1759606Y0911728D01*
G01X1759606Y0911728D02*
G01X1760717Y0911047D01*
G01X1760717Y0911047D02*
G01X1761811Y0910335D01*
G01X1761811Y0910335D02*
G01X1762886Y0909594D01*
G01X1762886Y0909594D02*
G01X1763945Y0908831D01*
G01X1763945Y0908831D02*
G01X1764984Y0908043D01*
G01X1764984Y0908043D02*
G01X1766000Y0907228D01*
G01X1766000Y0907228D02*
G01X1767000Y0906386D01*
G01X1767000Y0906386D02*
G01X1767976Y0905524D01*
G01X1767976Y0905524D02*
G01X1768933Y0904634D01*
G01X1768933Y0904634D02*
G01X1769866Y0903724D01*
G01X1769866Y0903724D02*
G01X1770776Y0902791D01*
G01X1770776Y0902791D02*
G01X1771665Y0901835D01*
G01X1771665Y0901835D02*
G01X1772528Y0900858D01*
G01X1772528Y0900858D02*
G01X1773370Y0899858D01*
G01X1773370Y0899858D02*
G01X1774185Y0898843D01*
G01X1774185Y0898843D02*
G01X1774972Y0897803D01*
G01X1774972Y0897803D02*
G01X1775736Y0896744D01*
G01X1775736Y0896744D02*
G01X1776476Y0895669D01*
G01X1776476Y0895669D02*
G01X1777189Y0894575D01*
G01X1777189Y0894575D02*
G01X1777870Y0893465D01*
G01X1777870Y0893465D02*
G01X1778528Y0892339D01*
G01X1778528Y0892339D02*
G01X1779157Y0891197D01*
G01X1779157Y0891197D02*
G01X1779760Y0890039D01*
G01X1779760Y0890039D02*
G01X1780331Y0888866D01*
G01X1780331Y0888866D02*
G01X1780874Y0887681D01*
G01X1780874Y0887681D02*
G01X1781386Y0886480D01*
G01X1781386Y0886480D02*
G01X1781870Y0885272D01*
G01X1781870Y0885272D02*
G01X1782327Y0884047D01*
G01X1782327Y0884047D02*
G01X1782752Y0882815D01*
G01X1782752Y0882815D02*
G01X1783146Y0881571D01*
G01X1783146Y0881571D02*
G01X1783508Y0880319D01*
G01X1783508Y0880319D02*
G01X1783839Y0879055D01*
G01X1783839Y0879055D02*
G01X1784142Y0877787D01*
G01X1784142Y0877787D02*
G01X1784413Y0876512D01*
G01X1784413Y0876512D02*
G01X1784650Y0875228D01*
G01X1784650Y0875228D02*
G01X1784858Y0873941D01*
G01X1784858Y0873941D02*
G01X1785031Y0872650D01*
G01X1785031Y0872650D02*
G01X1785177Y0871350D01*
G01X1785177Y0871350D02*
G01X1785287Y0870051D01*
G01X1785287Y0870051D02*
G01X1785370Y0868748D01*
G01X1785370Y0868748D02*
G01X1785417Y0867445D01*
G01X1785417Y0867445D02*
G01X1785433Y0866142D01*
G01X1785433Y0866142D02*
G01X1785417Y0864839D01*
G01X1785417Y0864839D02*
G01X1785370Y0863535D01*
G01X1785370Y0863535D02*
G01X1785287Y0862232D01*
G01X1785287Y0862232D02*
G01X1785177Y0860933D01*
G01X1785177Y0860933D02*
G01X1785031Y0859634D01*
G01X1785031Y0859634D02*
G01X1784858Y0858343D01*
G01X1784858Y0858343D02*
G01X1784650Y0857055D01*
G01X1784650Y0857055D02*
G01X1784413Y0855772D01*
G01X1784413Y0855772D02*
G01X1784142Y0854496D01*
G01X1784142Y0854496D02*
G01X1783839Y0853228D01*
G01X1783839Y0853228D02*
G01X1783508Y0851965D01*
G01X1783508Y0851965D02*
G01X1783146Y0850713D01*
G01X1783146Y0850713D02*
G01X1782752Y0849469D01*
G01X1782752Y0849469D02*
G01X1782327Y0848236D01*
G01X1782327Y0848236D02*
G01X1781870Y0847012D01*
G01X1781870Y0847012D02*
G01X1781386Y0845803D01*
G01X1781386Y0845803D02*
G01X1780874Y0844602D01*
G01X1780874Y0844602D02*
G01X1780331Y0843417D01*
G01X1780331Y0843417D02*
G01X1779760Y0842244D01*
G01X1779760Y0842244D02*
G01X1779157Y0841087D01*
G01X1779157Y0841087D02*
G01X1778528Y0839945D01*
G01X1778528Y0839945D02*
G01X1777870Y0838819D01*
G01X1777870Y0838819D02*
G01X1777189Y0837709D01*
G01X1777189Y0837709D02*
G01X1776476Y0836614D01*
G01X1776476Y0836614D02*
G01X1775736Y0835539D01*
G01X1775736Y0835539D02*
G01X1774972Y0834480D01*
G01X1774972Y0834480D02*
G01X1774185Y0833441D01*
G01X1774185Y0833441D02*
G01X1773370Y0832425D01*
G01X1773370Y0832425D02*
G01X1772528Y0831425D01*
G01X1772528Y0831425D02*
G01X1771665Y0830449D01*
G01X1771665Y0830449D02*
G01X1770776Y0829492D01*
G01X1770776Y0829492D02*
G01X1769866Y0828559D01*
G01X1769866Y0828559D02*
G01X1768933Y0827650D01*
G01X1768933Y0827650D02*
G01X1767976Y0826760D01*
G01X1767976Y0826760D02*
G01X1767000Y0825898D01*
G01X1767000Y0825898D02*
G01X1766000Y0825055D01*
G01X1766000Y0825055D02*
G01X1764984Y0824240D01*
G01X1764984Y0824240D02*
G01X1763945Y0823453D01*
G01X1763945Y0823453D02*
G01X1762886Y0822689D01*
G01X1762886Y0822689D02*
G01X1761811Y0821949D01*
G01X1761811Y0821949D02*
G01X1760717Y0821236D01*
G01X1760717Y0821236D02*
G01X1759606Y0820555D01*
G01X1759606Y0820555D02*
G01X1758480Y0819898D01*
G01X1758480Y0819898D02*
G01X1757339Y0819268D01*
G01X1757339Y0819268D02*
G01X1756181Y0818665D01*
G01X1756181Y0818665D02*
G01X1755008Y0818094D01*
G01X1755008Y0818094D02*
G01X1753823Y0817551D01*
G01X1753823Y0817551D02*
G01X1752622Y0817039D01*
G01X1752622Y0817039D02*
G01X1751413Y0816555D01*
G01X1751413Y0816555D02*
G01X1750189Y0816098D01*
G01X1750189Y0816098D02*
G01X1748957Y0815673D01*
G01X1748957Y0815673D02*
G01X1747713Y0815280D01*
G01X1747713Y0815280D02*
G01X1746461Y0814917D01*
G01X1746461Y0814917D02*
G01X1745197Y0814587D01*
G01X1745197Y0814587D02*
G01X1743929Y0814283D01*
G01X1743929Y0814283D02*
G01X1742654Y0814012D01*
G01X1742654Y0814012D02*
G01X1741370Y0813776D01*
G01X1741370Y0813776D02*
G01X1740083Y0813567D01*
G01X1740083Y0813567D02*
G01X1738791Y0813394D01*
G01X1738791Y0813394D02*
G01X1737492Y0813248D01*
G01X1737492Y0813248D02*
G01X1736193Y0813138D01*
G01X1736193Y0813138D02*
G01X1734890Y0813055D01*
G01X1734890Y0813055D02*
G01X1733587Y0813008D01*
G01X1733587Y0813008D02*
G01X1732283Y0812992D01*
G01X1732283Y0812992D02*
G01X1730980Y0813008D01*
G01X1730980Y0813008D02*
G01X1729677Y0813055D01*
G01X1729677Y0813055D02*
G01X1728374Y0813138D01*
G01X1728374Y0813138D02*
G01X1727075Y0813248D01*
G01X1727075Y0813248D02*
G01X1725776Y0813394D01*
G01X1725776Y0813394D02*
G01X1724484Y0813567D01*
G01X1724484Y0813567D02*
G01X1723197Y0813776D01*
G01X1723197Y0813776D02*
G01X1721913Y0814012D01*
G01X1721913Y0814012D02*
G01X1720638Y0814283D01*
G01X1720638Y0814283D02*
G01X1719370Y0814587D01*
G01X1719370Y0814587D02*
G01X1718106Y0814917D01*
G01X1718106Y0814917D02*
G01X1716854Y0815280D01*
G01X1716854Y0815280D02*
G01X1715610Y0815673D01*
G01X1715610Y0815673D02*
G01X1714378Y0816098D01*
G01X1714378Y0816098D02*
G01X1713154Y0816555D01*
G01X1713154Y0816555D02*
G01X1711945Y0817039D01*
G01X1711945Y0817039D02*
G01X1710744Y0817551D01*
G01X1710744Y0817551D02*
G01X1709559Y0818094D01*
G01X1709559Y0818094D02*
G01X1708386Y0818665D01*
G01X1708386Y0818665D02*
G01X1707228Y0819268D01*
G01X1707228Y0819268D02*
G01X1706087Y0819898D01*
G01X1706087Y0819898D02*
G01X1704961Y0820555D01*
G01X1704961Y0820555D02*
G01X1703850Y0821236D01*
G01X1703850Y0821236D02*
G01X1702756Y0821949D01*
G01X1702756Y0821949D02*
G01X1701681Y0822689D01*
G01X1701681Y0822689D02*
G01X1700622Y0823453D01*
G01X1700622Y0823453D02*
G01X1699583Y0824240D01*
G01X1699583Y0824240D02*
G01X1698567Y0825055D01*
G01X1698567Y0825055D02*
G01X1697567Y0825898D01*
G01X1697567Y0825898D02*
G01X1696591Y0826760D01*
G01X1696591Y0826760D02*
G01X1695634Y0827650D01*
G01X1695634Y0827650D02*
G01X1694701Y0828559D01*
G01X1694701Y0828559D02*
G01X1693791Y0829492D01*
G01X1693791Y0829492D02*
G01X1692902Y0830449D01*
G01X1692902Y0830449D02*
G01X1692039Y0831425D01*
G01X1692039Y0831425D02*
G01X1691197Y0832425D01*
G01X1691197Y0832425D02*
G01X1690382Y0833441D01*
G01X1690382Y0833441D02*
G01X1689594Y0834480D01*
G01X1689594Y0834480D02*
G01X1688831Y0835539D01*
G01X1688831Y0835539D02*
G01X1688091Y0836614D01*
G01X1688091Y0836614D02*
G01X1687378Y0837709D01*
G01X1687378Y0837709D02*
G01X1686697Y0838819D01*
G01X1686697Y0838819D02*
G01X1686039Y0839945D01*
G01X1686039Y0839945D02*
G01X1685409Y0841087D01*
G01X1685409Y0841087D02*
G01X1684807Y0842244D01*
G01X1684807Y0842244D02*
G01X1684236Y0843417D01*
G01X1684236Y0843417D02*
G01X1683693Y0844602D01*
G01X1683693Y0844602D02*
G01X1683181Y0845803D01*
G01X1683181Y0845803D02*
G01X1682697Y0847012D01*
G01X1682697Y0847012D02*
G01X1682240Y0848236D01*
G01X1682240Y0848236D02*
G01X1681815Y0849469D01*
G01X1681815Y0849469D02*
G01X1681421Y0850713D01*
G01X1681421Y0850713D02*
G01X1681059Y0851965D01*
G01X1681059Y0851965D02*
G01X1680728Y0853228D01*
G01X1680728Y0853228D02*
G01X1680425Y0854496D01*
G01X1680425Y0854496D02*
G01X1680154Y0855772D01*
G01X1680154Y0855772D02*
G01X1679917Y0857055D01*
G01X1679917Y0857055D02*
G01X1679709Y0858343D01*
G01X1679709Y0858343D02*
G01X1679535Y0859634D01*
G01X1679535Y0859634D02*
G01X1679390Y0860933D01*
G01X1679390Y0860933D02*
G01X1679280Y0862232D01*
G01X1679280Y0862232D02*
G01X1679197Y0863535D01*
G01X1679197Y0863535D02*
G01X1679150Y0864839D01*
G01X1679150Y0864839D02*
G01X1679134Y0866142D01*
G54D21*
G01X1732283Y0866142D03*
G54D28*
G01X2106299Y2574803D03*
G01X2068898Y2661417D03*
G01X2143701Y2661417D03*
G01X1933071Y2574803D03*
G01X1895669Y2661417D03*
G01X1970472Y2661417D03*
M02*
