M48
;GenerationSoftware,Autodesk,EAGLE,9.6.2*%
;CreationDate,2024-11-30T14:22:11Z*%
FMAT,2
ICI,OFF
METRIC,TZ,000.000
T01C2.700
T02C2.500
T03C0.500
T04C0.600
T05C0.700
T06C0.800
T07C0.900
T08C1.000
T09C1.100
T10C1.200
T11C1.300
T12C1.400
T13C0.300
%
G90
M71
T01
X93000Y80000
X44000Y80000
X93000Y22000
X44000Y22000
T02
X92100Y66000
X7100Y16000
T03
X54600Y75140
X54600Y70060
X52400Y75140
X52400Y70060
X50200Y75140
X50200Y70060
X48000Y75140
X48000Y70060
X40300Y65910
X40300Y63370
X38470Y68780
X38470Y66240
X38470Y63680
X38470Y61140
X35930Y68780
X35930Y66240
X35930Y63680
X35930Y61140
X38600Y34570
X38600Y37110
X30495Y34570
X30495Y32030
X27950Y37110
X27950Y34570
X27370Y68780
X27370Y66240
X27370Y63680
X27370Y61140
X24830Y68780
X24830Y66240
X24830Y63680
X24830Y61140
X18000Y38670
X18000Y36130
X15495Y32030
X15495Y34570
X14500Y38670
X14500Y36130
X11800Y41810
X11800Y36730
T04
X33000Y68780
X31095Y67510
X33000Y66240
X33000Y63680
X31095Y62410
X33000Y61140
X25040Y73000
X19960Y73000
X21300Y40370
X23205Y39100
X21300Y37830
X16405Y40580
X14500Y41850
X16405Y43120
T05
X36600Y74750
X34600Y74750
X32600Y74750
X36600Y72750
X34600Y72750
X32600Y72750
T06
X35220Y38730
X32680Y38730
T07
X45270Y75130
X45270Y72590
X45270Y70050
X45270Y67510
X45270Y64970
X45270Y62430
X45270Y59890
X45270Y57350
X45270Y54810
X45270Y52270
X45270Y49730
X45270Y47190
X45270Y44650
X45270Y42110
X45270Y39570
X45270Y37030
X45270Y34490
X45270Y31950
X45270Y29410
X45270Y26870
X42730Y75130
X42730Y72590
X42730Y70050
X42730Y67510
X42730Y64970
X42730Y62430
X42730Y59890
X42730Y57350
X42730Y54810
X42730Y52270
X42730Y49730
X42730Y47190
X42730Y44650
X42730Y42110
X42730Y39570
X42730Y37030
X42730Y34490
X42730Y31950
X42730Y29410
X42730Y26870
X6500Y41810
X6500Y39270
X6500Y36730
X6500Y34190
T08
X32100Y4800
X17100Y4800
T09
X37304Y56000
X34764Y56000
X26636Y56000
X24096Y56000
X37304Y45000
X26636Y45000
X24096Y45000
X34764Y45000
T10
X12100Y78200
X7100Y78200
T11
X34640Y7340
X29560Y7340
X19640Y7340
X14560Y7340
X34640Y2260
X29560Y2260
X19640Y2260
X14560Y2260
T12
X19166Y58000
X19166Y47000
X4434Y58000
X4434Y47000
T13
X41500Y1000
X25300Y1000
X9100Y81000
X1000Y1000
X1000Y7800
X1000Y16100
X1000Y24400
X1000Y32700
X1000Y49300
X1000Y57600
X1000Y65900
X1000Y74200
X1000Y81000
X2000Y41000
X25790Y40780
X27160Y40780
X28020Y59370
X25500Y62290
X28020Y62290
X9100Y48780
X9100Y65900
X9100Y1000
X10900Y16100
X73900Y82500
X73900Y72495
X73900Y44010
X82000Y31180
X73900Y18350
X33035Y26250
X18035Y26250
X65800Y82500
X65800Y56840
X39000Y42250
X14225Y28150
X19305Y28150
X34305Y27530
X16765Y30680
X31765Y30680
X29225Y28150
X46640Y75795
X46640Y74435
X51300Y69400
X33710Y70350
X35410Y70250
X21100Y34400
X32385Y31355
X37478Y34420
X29250Y34270
X18660Y27500
X65800Y18350
X57700Y82500
X57700Y72495
X57700Y44010
X23980Y57770
X65800Y31180
X57700Y18350
X49600Y82500
X41030Y75345
X47092Y69380
X49600Y56760
X49600Y31180
X49600Y18350
X41250Y82500
X41380Y48430
X41100Y24400
X41500Y16100
X41500Y7800
X39592Y68140
X37800Y74365
X33400Y23600
X23120Y4360
X23750Y7710
X38230Y4360
X38750Y7710
X36900Y64960
X27280Y52500
X34140Y65040
X26540Y46780
X10900Y32700
X28860Y31320
X33400Y81000
X39350Y41000
X24900Y29800
X41380Y30045
X27845Y32564
X19184Y34040
X19123Y38625
X19123Y36435
X18615Y41635
X17385Y41635
X16263Y38145
X12930Y36853
X31620Y34270
X24200Y46780
X25300Y81000
X17200Y23600
X17200Y81000
X21500Y74200
X82000Y82500
X82000Y56840
X82000Y18350
X90100Y82500
X90100Y69670
X90100Y44010
X90100Y18350
X97200Y44010
X98200Y81000
X98200Y69670
X98200Y56840
X98200Y31180
X98200Y18350
X24900Y16100
X16900Y32564
X7400Y53900
X41380Y31315
X25940Y32564
M30