%
M48
M72
T01C0.03200
T02C0.03543
T03C0.04331
T04C0.05200
T05C0.05906
T06C0.07087
T07C0.19685
%
T01
X128441Y27115
X128441Y57115
X138283Y79398
X170527Y83690
X180527Y83690
X196944Y83690
X206944Y83690
X212259Y96879
X192259Y96879
X180527Y96879
X170527Y96879
X170527Y106879
X180527Y106879
X190527Y106879
X200527Y106879
X214976Y116761
X224976Y116761
X232437Y112587
X239937Y107587
X254740Y107587
X265645Y104005
X279070Y104005
X254740Y117587
X265645Y124005
X279070Y124005
X257063Y132627
X249563Y137627
X257063Y142627
X249582Y151288
X239582Y151288
X227456Y146328
X215055Y141406
X206393Y141288
X200527Y136879
X190527Y136879
X180527Y136879
X170527Y136879
X175606Y145501
X185606Y145501
X194385Y146328
X206393Y151288
X215055Y161406
X227456Y166328
X194385Y166328
X152378Y150422
X132378Y150422
X152378Y136879
X138283Y131879
X138283Y111879
X152378Y106879
X138283Y99398
X214976Y131524
X224976Y131524
X239937Y117587
X279070Y138611
X289070Y138611
X309543Y138572
X309543Y128572
X272378Y88414
X272378Y77666
X272378Y67666
X242378Y88414
T02
X83322Y135658
X63322Y135658
T03
X62086Y44040
X72086Y44040
X104086Y44040
X114086Y44040
X114086Y117040
X104086Y117040
X72086Y117040
X62086Y117040
X53580Y151406
X83580Y151406
T04
X73380Y175028
X53580Y175028
X132320Y175028
X152120Y175028
X270115Y17548
X289915Y17548
X310115Y17548
X329915Y17548
T05
X143401Y27194
X143401Y57115
T06
X203401Y57115
X223401Y57115
X243401Y57115
X243401Y27194
X223401Y27194
X203401Y27194
T07
X31984Y96288
X425685Y96288
M30
