G04 This is an RS-274x file exported by *
G04 gerbv version 2.10.0~037b94 *
G04 More information is available about gerbv at *
G04 https://gerbv.github.io/ *
G04 --End of header info--*
%MOIN*%
%FSLAX36Y36*%
%IPPOS*%
%INStop Mask Top*%
G04 --Define apertures--*
%ADD10C,0.0000*%
%ADD11C,0.3937*%
%ADD12C,0.1969*%
%ADD13C,0.0669*%
%ADD14C,0.0480*%
%ADD15P,0.0520X8.0000X202.5000*%
%ADD16C,0.0500*%
%ADD17P,0.0520X8.0000X292.5000*%
%ADD18P,0.0520X8.0000X22.5000*%
%ADD19P,0.0520X8.0000X112.5000*%
%ADD20P,0.0682X8.0000X112.5000*%
%ADD21C,0.0630*%
%ADD22C,0.0860*%
%ADD23C,0.0984*%
%ADD24C,0.0650*%
%ADD25C,0.0480*%
%ADD26C,0.1063*%
%ADD27C,0.0886*%
G04 --Start main section--*
G54D10*
G01X0000000Y0000000D02*
G01X2637795Y0000000D01*
G01X2637795Y0000000D02*
G01X2637795Y2283465D01*
G01X2637795Y2283465D02*
G01X0000000Y2283465D01*
G01X0000000Y2283465D02*
G01X0000000Y0000000D01*
G54D11*
G01X0255906Y2047244D03*
G54D10*
G01X0157480Y2047244D02*
G01X0157512Y2049661D01*
G01X0157512Y2049661D02*
G01X0157598Y2052075D01*
G01X0157598Y2052075D02*
G01X0157748Y2054484D01*
G01X0157748Y2054484D02*
G01X0157953Y2056890D01*
G01X0157953Y2056890D02*
G01X0158220Y2059291D01*
G01X0158220Y2059291D02*
G01X0158547Y2061685D01*
G01X0158547Y2061685D02*
G01X0158929Y2064071D01*
G01X0158929Y2064071D02*
G01X0159370Y2066445D01*
G01X0159370Y2066445D02*
G01X0159870Y2068811D01*
G01X0159870Y2068811D02*
G01X0160429Y2071161D01*
G01X0160429Y2071161D02*
G01X0161047Y2073496D01*
G01X0161047Y2073496D02*
G01X0161717Y2075815D01*
G01X0161717Y2075815D02*
G01X0162449Y2078118D01*
G01X0162449Y2078118D02*
G01X0163232Y2080402D01*
G01X0163232Y2080402D02*
G01X0164075Y2082665D01*
G01X0164075Y2082665D02*
G01X0164972Y2084909D01*
G01X0164972Y2084909D02*
G01X0165925Y2087130D01*
G01X0165925Y2087130D02*
G01X0166929Y2089327D01*
G01X0166929Y2089327D02*
G01X0167988Y2091496D01*
G01X0167988Y2091496D02*
G01X0169102Y2093642D01*
G01X0169102Y2093642D02*
G01X0170268Y2095756D01*
G01X0170268Y2095756D02*
G01X0171484Y2097846D01*
G01X0171484Y2097846D02*
G01X0172752Y2099902D01*
G01X0172752Y2099902D02*
G01X0174067Y2101925D01*
G01X0174067Y2101925D02*
G01X0175433Y2103917D01*
G01X0175433Y2103917D02*
G01X0176850Y2105874D01*
G01X0176850Y2105874D02*
G01X0178311Y2107799D01*
G01X0178311Y2107799D02*
G01X0179823Y2109685D01*
G01X0179823Y2109685D02*
G01X0181378Y2111531D01*
G01X0181378Y2111531D02*
G01X0182976Y2113343D01*
G01X0182976Y2113343D02*
G01X0184622Y2115114D01*
G01X0184622Y2115114D02*
G01X0186307Y2116843D01*
G01X0186307Y2116843D02*
G01X0188035Y2118528D01*
G01X0188035Y2118528D02*
G01X0189807Y2120173D01*
G01X0189807Y2120173D02*
G01X0191618Y2121772D01*
G01X0191618Y2121772D02*
G01X0193465Y2123327D01*
G01X0193465Y2123327D02*
G01X0195350Y2124839D01*
G01X0195350Y2124839D02*
G01X0197276Y2126299D01*
G01X0197276Y2126299D02*
G01X0199232Y2127717D01*
G01X0199232Y2127717D02*
G01X0201224Y2129083D01*
G01X0201224Y2129083D02*
G01X0203248Y2130398D01*
G01X0203248Y2130398D02*
G01X0205303Y2131665D01*
G01X0205303Y2131665D02*
G01X0207394Y2132882D01*
G01X0207394Y2132882D02*
G01X0209508Y2134047D01*
G01X0209508Y2134047D02*
G01X0211654Y2135161D01*
G01X0211654Y2135161D02*
G01X0213823Y2136220D01*
G01X0213823Y2136220D02*
G01X0216020Y2137224D01*
G01X0216020Y2137224D02*
G01X0218240Y2138177D01*
G01X0218240Y2138177D02*
G01X0220484Y2139075D01*
G01X0220484Y2139075D02*
G01X0222748Y2139917D01*
G01X0222748Y2139917D02*
G01X0225031Y2140701D01*
G01X0225031Y2140701D02*
G01X0227335Y2141433D01*
G01X0227335Y2141433D02*
G01X0229654Y2142102D01*
G01X0229654Y2142102D02*
G01X0231988Y2142720D01*
G01X0231988Y2142720D02*
G01X0234339Y2143280D01*
G01X0234339Y2143280D02*
G01X0236705Y2143780D01*
G01X0236705Y2143780D02*
G01X0239079Y2144220D01*
G01X0239079Y2144220D02*
G01X0241465Y2144602D01*
G01X0241465Y2144602D02*
G01X0243858Y2144929D01*
G01X0243858Y2144929D02*
G01X0246260Y2145197D01*
G01X0246260Y2145197D02*
G01X0248665Y2145402D01*
G01X0248665Y2145402D02*
G01X0251075Y2145551D01*
G01X0251075Y2145551D02*
G01X0253488Y2145638D01*
G01X0253488Y2145638D02*
G01X0255906Y2145669D01*
G01X0255906Y2145669D02*
G01X0258323Y2145638D01*
G01X0258323Y2145638D02*
G01X0260736Y2145551D01*
G01X0260736Y2145551D02*
G01X0263146Y2145402D01*
G01X0263146Y2145402D02*
G01X0265551Y2145197D01*
G01X0265551Y2145197D02*
G01X0267953Y2144929D01*
G01X0267953Y2144929D02*
G01X0270346Y2144602D01*
G01X0270346Y2144602D02*
G01X0272732Y2144220D01*
G01X0272732Y2144220D02*
G01X0275106Y2143780D01*
G01X0275106Y2143780D02*
G01X0277472Y2143280D01*
G01X0277472Y2143280D02*
G01X0279823Y2142720D01*
G01X0279823Y2142720D02*
G01X0282157Y2142102D01*
G01X0282157Y2142102D02*
G01X0284476Y2141433D01*
G01X0284476Y2141433D02*
G01X0286780Y2140701D01*
G01X0286780Y2140701D02*
G01X0289063Y2139917D01*
G01X0289063Y2139917D02*
G01X0291327Y2139075D01*
G01X0291327Y2139075D02*
G01X0293571Y2138177D01*
G01X0293571Y2138177D02*
G01X0295791Y2137224D01*
G01X0295791Y2137224D02*
G01X0297988Y2136220D01*
G01X0297988Y2136220D02*
G01X0300157Y2135161D01*
G01X0300157Y2135161D02*
G01X0302303Y2134047D01*
G01X0302303Y2134047D02*
G01X0304417Y2132882D01*
G01X0304417Y2132882D02*
G01X0306508Y2131665D01*
G01X0306508Y2131665D02*
G01X0308563Y2130398D01*
G01X0308563Y2130398D02*
G01X0310587Y2129083D01*
G01X0310587Y2129083D02*
G01X0312579Y2127717D01*
G01X0312579Y2127717D02*
G01X0314535Y2126299D01*
G01X0314535Y2126299D02*
G01X0316461Y2124839D01*
G01X0316461Y2124839D02*
G01X0318346Y2123327D01*
G01X0318346Y2123327D02*
G01X0320193Y2121772D01*
G01X0320193Y2121772D02*
G01X0322004Y2120173D01*
G01X0322004Y2120173D02*
G01X0323776Y2118528D01*
G01X0323776Y2118528D02*
G01X0325504Y2116843D01*
G01X0325504Y2116843D02*
G01X0327189Y2115114D01*
G01X0327189Y2115114D02*
G01X0328835Y2113343D01*
G01X0328835Y2113343D02*
G01X0330433Y2111531D01*
G01X0330433Y2111531D02*
G01X0331988Y2109685D01*
G01X0331988Y2109685D02*
G01X0333500Y2107799D01*
G01X0333500Y2107799D02*
G01X0334961Y2105874D01*
G01X0334961Y2105874D02*
G01X0336378Y2103917D01*
G01X0336378Y2103917D02*
G01X0337744Y2101925D01*
G01X0337744Y2101925D02*
G01X0339059Y2099902D01*
G01X0339059Y2099902D02*
G01X0340327Y2097846D01*
G01X0340327Y2097846D02*
G01X0341543Y2095756D01*
G01X0341543Y2095756D02*
G01X0342709Y2093642D01*
G01X0342709Y2093642D02*
G01X0343823Y2091496D01*
G01X0343823Y2091496D02*
G01X0344882Y2089327D01*
G01X0344882Y2089327D02*
G01X0345886Y2087130D01*
G01X0345886Y2087130D02*
G01X0346839Y2084909D01*
G01X0346839Y2084909D02*
G01X0347736Y2082665D01*
G01X0347736Y2082665D02*
G01X0348579Y2080402D01*
G01X0348579Y2080402D02*
G01X0349362Y2078118D01*
G01X0349362Y2078118D02*
G01X0350094Y2075815D01*
G01X0350094Y2075815D02*
G01X0350764Y2073496D01*
G01X0350764Y2073496D02*
G01X0351382Y2071161D01*
G01X0351382Y2071161D02*
G01X0351941Y2068811D01*
G01X0351941Y2068811D02*
G01X0352441Y2066445D01*
G01X0352441Y2066445D02*
G01X0352882Y2064071D01*
G01X0352882Y2064071D02*
G01X0353264Y2061685D01*
G01X0353264Y2061685D02*
G01X0353591Y2059291D01*
G01X0353591Y2059291D02*
G01X0353858Y2056890D01*
G01X0353858Y2056890D02*
G01X0354063Y2054484D01*
G01X0354063Y2054484D02*
G01X0354213Y2052075D01*
G01X0354213Y2052075D02*
G01X0354299Y2049661D01*
G01X0354299Y2049661D02*
G01X0354331Y2047244D01*
G01X0354331Y2047244D02*
G01X0354299Y2044827D01*
G01X0354299Y2044827D02*
G01X0354213Y2042413D01*
G01X0354213Y2042413D02*
G01X0354063Y2040004D01*
G01X0354063Y2040004D02*
G01X0353858Y2037598D01*
G01X0353858Y2037598D02*
G01X0353591Y2035197D01*
G01X0353591Y2035197D02*
G01X0353264Y2032803D01*
G01X0353264Y2032803D02*
G01X0352882Y2030417D01*
G01X0352882Y2030417D02*
G01X0352441Y2028043D01*
G01X0352441Y2028043D02*
G01X0351941Y2025677D01*
G01X0351941Y2025677D02*
G01X0351382Y2023327D01*
G01X0351382Y2023327D02*
G01X0350764Y2020992D01*
G01X0350764Y2020992D02*
G01X0350094Y2018673D01*
G01X0350094Y2018673D02*
G01X0349362Y2016370D01*
G01X0349362Y2016370D02*
G01X0348579Y2014087D01*
G01X0348579Y2014087D02*
G01X0347736Y2011823D01*
G01X0347736Y2011823D02*
G01X0346839Y2009579D01*
G01X0346839Y2009579D02*
G01X0345886Y2007358D01*
G01X0345886Y2007358D02*
G01X0344882Y2005161D01*
G01X0344882Y2005161D02*
G01X0343823Y2002992D01*
G01X0343823Y2002992D02*
G01X0342709Y2000846D01*
G01X0342709Y2000846D02*
G01X0341543Y1998732D01*
G01X0341543Y1998732D02*
G01X0340327Y1996642D01*
G01X0340327Y1996642D02*
G01X0339059Y1994587D01*
G01X0339059Y1994587D02*
G01X0337744Y1992563D01*
G01X0337744Y1992563D02*
G01X0336378Y1990571D01*
G01X0336378Y1990571D02*
G01X0334961Y1988614D01*
G01X0334961Y1988614D02*
G01X0333500Y1986689D01*
G01X0333500Y1986689D02*
G01X0331988Y1984803D01*
G01X0331988Y1984803D02*
G01X0330433Y1982957D01*
G01X0330433Y1982957D02*
G01X0328835Y1981146D01*
G01X0328835Y1981146D02*
G01X0327189Y1979374D01*
G01X0327189Y1979374D02*
G01X0325504Y1977646D01*
G01X0325504Y1977646D02*
G01X0323776Y1975961D01*
G01X0323776Y1975961D02*
G01X0322004Y1974315D01*
G01X0322004Y1974315D02*
G01X0320193Y1972717D01*
G01X0320193Y1972717D02*
G01X0318346Y1971161D01*
G01X0318346Y1971161D02*
G01X0316461Y1969650D01*
G01X0316461Y1969650D02*
G01X0314535Y1968189D01*
G01X0314535Y1968189D02*
G01X0312579Y1966772D01*
G01X0312579Y1966772D02*
G01X0310587Y1965406D01*
G01X0310587Y1965406D02*
G01X0308563Y1964091D01*
G01X0308563Y1964091D02*
G01X0306508Y1962823D01*
G01X0306508Y1962823D02*
G01X0304417Y1961606D01*
G01X0304417Y1961606D02*
G01X0302303Y1960441D01*
G01X0302303Y1960441D02*
G01X0300157Y1959327D01*
G01X0300157Y1959327D02*
G01X0297988Y1958268D01*
G01X0297988Y1958268D02*
G01X0295791Y1957264D01*
G01X0295791Y1957264D02*
G01X0293571Y1956311D01*
G01X0293571Y1956311D02*
G01X0291327Y1955413D01*
G01X0291327Y1955413D02*
G01X0289063Y1954571D01*
G01X0289063Y1954571D02*
G01X0286780Y1953787D01*
G01X0286780Y1953787D02*
G01X0284476Y1953055D01*
G01X0284476Y1953055D02*
G01X0282157Y1952386D01*
G01X0282157Y1952386D02*
G01X0279823Y1951768D01*
G01X0279823Y1951768D02*
G01X0277472Y1951209D01*
G01X0277472Y1951209D02*
G01X0275106Y1950709D01*
G01X0275106Y1950709D02*
G01X0272732Y1950268D01*
G01X0272732Y1950268D02*
G01X0270346Y1949886D01*
G01X0270346Y1949886D02*
G01X0267953Y1949559D01*
G01X0267953Y1949559D02*
G01X0265551Y1949291D01*
G01X0265551Y1949291D02*
G01X0263146Y1949087D01*
G01X0263146Y1949087D02*
G01X0260736Y1948937D01*
G01X0260736Y1948937D02*
G01X0258323Y1948850D01*
G01X0258323Y1948850D02*
G01X0255906Y1948819D01*
G01X0255906Y1948819D02*
G01X0253488Y1948850D01*
G01X0253488Y1948850D02*
G01X0251075Y1948937D01*
G01X0251075Y1948937D02*
G01X0248665Y1949087D01*
G01X0248665Y1949087D02*
G01X0246260Y1949291D01*
G01X0246260Y1949291D02*
G01X0243858Y1949559D01*
G01X0243858Y1949559D02*
G01X0241465Y1949886D01*
G01X0241465Y1949886D02*
G01X0239079Y1950268D01*
G01X0239079Y1950268D02*
G01X0236705Y1950709D01*
G01X0236705Y1950709D02*
G01X0234339Y1951209D01*
G01X0234339Y1951209D02*
G01X0231988Y1951768D01*
G01X0231988Y1951768D02*
G01X0229654Y1952386D01*
G01X0229654Y1952386D02*
G01X0227335Y1953055D01*
G01X0227335Y1953055D02*
G01X0225031Y1953787D01*
G01X0225031Y1953787D02*
G01X0222748Y1954571D01*
G01X0222748Y1954571D02*
G01X0220484Y1955413D01*
G01X0220484Y1955413D02*
G01X0218240Y1956311D01*
G01X0218240Y1956311D02*
G01X0216020Y1957264D01*
G01X0216020Y1957264D02*
G01X0213823Y1958268D01*
G01X0213823Y1958268D02*
G01X0211654Y1959327D01*
G01X0211654Y1959327D02*
G01X0209508Y1960441D01*
G01X0209508Y1960441D02*
G01X0207394Y1961606D01*
G01X0207394Y1961606D02*
G01X0205303Y1962823D01*
G01X0205303Y1962823D02*
G01X0203248Y1964091D01*
G01X0203248Y1964091D02*
G01X0201224Y1965406D01*
G01X0201224Y1965406D02*
G01X0199232Y1966772D01*
G01X0199232Y1966772D02*
G01X0197276Y1968189D01*
G01X0197276Y1968189D02*
G01X0195350Y1969650D01*
G01X0195350Y1969650D02*
G01X0193465Y1971161D01*
G01X0193465Y1971161D02*
G01X0191618Y1972717D01*
G01X0191618Y1972717D02*
G01X0189807Y1974315D01*
G01X0189807Y1974315D02*
G01X0188035Y1975961D01*
G01X0188035Y1975961D02*
G01X0186307Y1977646D01*
G01X0186307Y1977646D02*
G01X0184622Y1979374D01*
G01X0184622Y1979374D02*
G01X0182976Y1981146D01*
G01X0182976Y1981146D02*
G01X0181378Y1982957D01*
G01X0181378Y1982957D02*
G01X0179823Y1984803D01*
G01X0179823Y1984803D02*
G01X0178311Y1986689D01*
G01X0178311Y1986689D02*
G01X0176850Y1988614D01*
G01X0176850Y1988614D02*
G01X0175433Y1990571D01*
G01X0175433Y1990571D02*
G01X0174067Y1992563D01*
G01X0174067Y1992563D02*
G01X0172752Y1994587D01*
G01X0172752Y1994587D02*
G01X0171484Y1996642D01*
G01X0171484Y1996642D02*
G01X0170268Y1998732D01*
G01X0170268Y1998732D02*
G01X0169102Y2000846D01*
G01X0169102Y2000846D02*
G01X0167988Y2002992D01*
G01X0167988Y2002992D02*
G01X0166929Y2005161D01*
G01X0166929Y2005161D02*
G01X0165925Y2007358D01*
G01X0165925Y2007358D02*
G01X0164972Y2009579D01*
G01X0164972Y2009579D02*
G01X0164075Y2011823D01*
G01X0164075Y2011823D02*
G01X0163232Y2014087D01*
G01X0163232Y2014087D02*
G01X0162449Y2016370D01*
G01X0162449Y2016370D02*
G01X0161717Y2018673D01*
G01X0161717Y2018673D02*
G01X0161047Y2020992D01*
G01X0161047Y2020992D02*
G01X0160429Y2023327D01*
G01X0160429Y2023327D02*
G01X0159870Y2025677D01*
G01X0159870Y2025677D02*
G01X0159370Y2028043D01*
G01X0159370Y2028043D02*
G01X0158929Y2030417D01*
G01X0158929Y2030417D02*
G01X0158547Y2032803D01*
G01X0158547Y2032803D02*
G01X0158220Y2035197D01*
G01X0158220Y2035197D02*
G01X0157953Y2037598D01*
G01X0157953Y2037598D02*
G01X0157748Y2040004D01*
G01X0157748Y2040004D02*
G01X0157598Y2042413D01*
G01X0157598Y2042413D02*
G01X0157512Y2044827D01*
G01X0157512Y2044827D02*
G01X0157480Y2047244D01*
G54D12*
G01X0255906Y2047244D03*
G54D11*
G01X0255906Y1141732D03*
G54D10*
G01X0157480Y1141732D02*
G01X0157512Y1144150D01*
G01X0157512Y1144150D02*
G01X0157598Y1146563D01*
G01X0157598Y1146563D02*
G01X0157748Y1148972D01*
G01X0157748Y1148972D02*
G01X0157953Y1151378D01*
G01X0157953Y1151378D02*
G01X0158220Y1153780D01*
G01X0158220Y1153780D02*
G01X0158547Y1156173D01*
G01X0158547Y1156173D02*
G01X0158929Y1158559D01*
G01X0158929Y1158559D02*
G01X0159370Y1160933D01*
G01X0159370Y1160933D02*
G01X0159870Y1163299D01*
G01X0159870Y1163299D02*
G01X0160429Y1165650D01*
G01X0160429Y1165650D02*
G01X0161047Y1167984D01*
G01X0161047Y1167984D02*
G01X0161717Y1170303D01*
G01X0161717Y1170303D02*
G01X0162449Y1172606D01*
G01X0162449Y1172606D02*
G01X0163232Y1174890D01*
G01X0163232Y1174890D02*
G01X0164075Y1177154D01*
G01X0164075Y1177154D02*
G01X0164972Y1179398D01*
G01X0164972Y1179398D02*
G01X0165925Y1181618D01*
G01X0165925Y1181618D02*
G01X0166929Y1183815D01*
G01X0166929Y1183815D02*
G01X0167988Y1185984D01*
G01X0167988Y1185984D02*
G01X0169102Y1188130D01*
G01X0169102Y1188130D02*
G01X0170268Y1190244D01*
G01X0170268Y1190244D02*
G01X0171484Y1192335D01*
G01X0171484Y1192335D02*
G01X0172752Y1194390D01*
G01X0172752Y1194390D02*
G01X0174067Y1196413D01*
G01X0174067Y1196413D02*
G01X0175433Y1198406D01*
G01X0175433Y1198406D02*
G01X0176850Y1200362D01*
G01X0176850Y1200362D02*
G01X0178311Y1202287D01*
G01X0178311Y1202287D02*
G01X0179823Y1204173D01*
G01X0179823Y1204173D02*
G01X0181378Y1206020D01*
G01X0181378Y1206020D02*
G01X0182976Y1207831D01*
G01X0182976Y1207831D02*
G01X0184622Y1209602D01*
G01X0184622Y1209602D02*
G01X0186307Y1211331D01*
G01X0186307Y1211331D02*
G01X0188035Y1213016D01*
G01X0188035Y1213016D02*
G01X0189807Y1214661D01*
G01X0189807Y1214661D02*
G01X0191618Y1216260D01*
G01X0191618Y1216260D02*
G01X0193465Y1217815D01*
G01X0193465Y1217815D02*
G01X0195350Y1219327D01*
G01X0195350Y1219327D02*
G01X0197276Y1220787D01*
G01X0197276Y1220787D02*
G01X0199232Y1222205D01*
G01X0199232Y1222205D02*
G01X0201224Y1223571D01*
G01X0201224Y1223571D02*
G01X0203248Y1224886D01*
G01X0203248Y1224886D02*
G01X0205303Y1226154D01*
G01X0205303Y1226154D02*
G01X0207394Y1227370D01*
G01X0207394Y1227370D02*
G01X0209508Y1228535D01*
G01X0209508Y1228535D02*
G01X0211654Y1229650D01*
G01X0211654Y1229650D02*
G01X0213823Y1230709D01*
G01X0213823Y1230709D02*
G01X0216020Y1231713D01*
G01X0216020Y1231713D02*
G01X0218240Y1232665D01*
G01X0218240Y1232665D02*
G01X0220484Y1233563D01*
G01X0220484Y1233563D02*
G01X0222748Y1234406D01*
G01X0222748Y1234406D02*
G01X0225031Y1235189D01*
G01X0225031Y1235189D02*
G01X0227335Y1235921D01*
G01X0227335Y1235921D02*
G01X0229654Y1236591D01*
G01X0229654Y1236591D02*
G01X0231988Y1237209D01*
G01X0231988Y1237209D02*
G01X0234339Y1237768D01*
G01X0234339Y1237768D02*
G01X0236705Y1238268D01*
G01X0236705Y1238268D02*
G01X0239079Y1238709D01*
G01X0239079Y1238709D02*
G01X0241465Y1239091D01*
G01X0241465Y1239091D02*
G01X0243858Y1239417D01*
G01X0243858Y1239417D02*
G01X0246260Y1239685D01*
G01X0246260Y1239685D02*
G01X0248665Y1239890D01*
G01X0248665Y1239890D02*
G01X0251075Y1240039D01*
G01X0251075Y1240039D02*
G01X0253488Y1240126D01*
G01X0253488Y1240126D02*
G01X0255906Y1240157D01*
G01X0255906Y1240157D02*
G01X0258323Y1240126D01*
G01X0258323Y1240126D02*
G01X0260736Y1240039D01*
G01X0260736Y1240039D02*
G01X0263146Y1239890D01*
G01X0263146Y1239890D02*
G01X0265551Y1239685D01*
G01X0265551Y1239685D02*
G01X0267953Y1239417D01*
G01X0267953Y1239417D02*
G01X0270346Y1239091D01*
G01X0270346Y1239091D02*
G01X0272732Y1238709D01*
G01X0272732Y1238709D02*
G01X0275106Y1238268D01*
G01X0275106Y1238268D02*
G01X0277472Y1237768D01*
G01X0277472Y1237768D02*
G01X0279823Y1237209D01*
G01X0279823Y1237209D02*
G01X0282157Y1236591D01*
G01X0282157Y1236591D02*
G01X0284476Y1235921D01*
G01X0284476Y1235921D02*
G01X0286780Y1235189D01*
G01X0286780Y1235189D02*
G01X0289063Y1234406D01*
G01X0289063Y1234406D02*
G01X0291327Y1233563D01*
G01X0291327Y1233563D02*
G01X0293571Y1232665D01*
G01X0293571Y1232665D02*
G01X0295791Y1231713D01*
G01X0295791Y1231713D02*
G01X0297988Y1230709D01*
G01X0297988Y1230709D02*
G01X0300157Y1229650D01*
G01X0300157Y1229650D02*
G01X0302303Y1228535D01*
G01X0302303Y1228535D02*
G01X0304417Y1227370D01*
G01X0304417Y1227370D02*
G01X0306508Y1226154D01*
G01X0306508Y1226154D02*
G01X0308563Y1224886D01*
G01X0308563Y1224886D02*
G01X0310587Y1223571D01*
G01X0310587Y1223571D02*
G01X0312579Y1222205D01*
G01X0312579Y1222205D02*
G01X0314535Y1220787D01*
G01X0314535Y1220787D02*
G01X0316461Y1219327D01*
G01X0316461Y1219327D02*
G01X0318346Y1217815D01*
G01X0318346Y1217815D02*
G01X0320193Y1216260D01*
G01X0320193Y1216260D02*
G01X0322004Y1214661D01*
G01X0322004Y1214661D02*
G01X0323776Y1213016D01*
G01X0323776Y1213016D02*
G01X0325504Y1211331D01*
G01X0325504Y1211331D02*
G01X0327189Y1209602D01*
G01X0327189Y1209602D02*
G01X0328835Y1207831D01*
G01X0328835Y1207831D02*
G01X0330433Y1206020D01*
G01X0330433Y1206020D02*
G01X0331988Y1204173D01*
G01X0331988Y1204173D02*
G01X0333500Y1202287D01*
G01X0333500Y1202287D02*
G01X0334961Y1200362D01*
G01X0334961Y1200362D02*
G01X0336378Y1198406D01*
G01X0336378Y1198406D02*
G01X0337744Y1196413D01*
G01X0337744Y1196413D02*
G01X0339059Y1194390D01*
G01X0339059Y1194390D02*
G01X0340327Y1192335D01*
G01X0340327Y1192335D02*
G01X0341543Y1190244D01*
G01X0341543Y1190244D02*
G01X0342709Y1188130D01*
G01X0342709Y1188130D02*
G01X0343823Y1185984D01*
G01X0343823Y1185984D02*
G01X0344882Y1183815D01*
G01X0344882Y1183815D02*
G01X0345886Y1181618D01*
G01X0345886Y1181618D02*
G01X0346839Y1179398D01*
G01X0346839Y1179398D02*
G01X0347736Y1177154D01*
G01X0347736Y1177154D02*
G01X0348579Y1174890D01*
G01X0348579Y1174890D02*
G01X0349362Y1172606D01*
G01X0349362Y1172606D02*
G01X0350094Y1170303D01*
G01X0350094Y1170303D02*
G01X0350764Y1167984D01*
G01X0350764Y1167984D02*
G01X0351382Y1165650D01*
G01X0351382Y1165650D02*
G01X0351941Y1163299D01*
G01X0351941Y1163299D02*
G01X0352441Y1160933D01*
G01X0352441Y1160933D02*
G01X0352882Y1158559D01*
G01X0352882Y1158559D02*
G01X0353264Y1156173D01*
G01X0353264Y1156173D02*
G01X0353591Y1153780D01*
G01X0353591Y1153780D02*
G01X0353858Y1151378D01*
G01X0353858Y1151378D02*
G01X0354063Y1148972D01*
G01X0354063Y1148972D02*
G01X0354213Y1146563D01*
G01X0354213Y1146563D02*
G01X0354299Y1144150D01*
G01X0354299Y1144150D02*
G01X0354331Y1141732D01*
G01X0354331Y1141732D02*
G01X0354299Y1139315D01*
G01X0354299Y1139315D02*
G01X0354213Y1136902D01*
G01X0354213Y1136902D02*
G01X0354063Y1134492D01*
G01X0354063Y1134492D02*
G01X0353858Y1132087D01*
G01X0353858Y1132087D02*
G01X0353591Y1129685D01*
G01X0353591Y1129685D02*
G01X0353264Y1127291D01*
G01X0353264Y1127291D02*
G01X0352882Y1124906D01*
G01X0352882Y1124906D02*
G01X0352441Y1122531D01*
G01X0352441Y1122531D02*
G01X0351941Y1120165D01*
G01X0351941Y1120165D02*
G01X0351382Y1117815D01*
G01X0351382Y1117815D02*
G01X0350764Y1115480D01*
G01X0350764Y1115480D02*
G01X0350094Y1113161D01*
G01X0350094Y1113161D02*
G01X0349362Y1110858D01*
G01X0349362Y1110858D02*
G01X0348579Y1108575D01*
G01X0348579Y1108575D02*
G01X0347736Y1106311D01*
G01X0347736Y1106311D02*
G01X0346839Y1104067D01*
G01X0346839Y1104067D02*
G01X0345886Y1101846D01*
G01X0345886Y1101846D02*
G01X0344882Y1099650D01*
G01X0344882Y1099650D02*
G01X0343823Y1097480D01*
G01X0343823Y1097480D02*
G01X0342709Y1095335D01*
G01X0342709Y1095335D02*
G01X0341543Y1093220D01*
G01X0341543Y1093220D02*
G01X0340327Y1091130D01*
G01X0340327Y1091130D02*
G01X0339059Y1089075D01*
G01X0339059Y1089075D02*
G01X0337744Y1087051D01*
G01X0337744Y1087051D02*
G01X0336378Y1085059D01*
G01X0336378Y1085059D02*
G01X0334961Y1083102D01*
G01X0334961Y1083102D02*
G01X0333500Y1081177D01*
G01X0333500Y1081177D02*
G01X0331988Y1079291D01*
G01X0331988Y1079291D02*
G01X0330433Y1077445D01*
G01X0330433Y1077445D02*
G01X0328835Y1075634D01*
G01X0328835Y1075634D02*
G01X0327189Y1073862D01*
G01X0327189Y1073862D02*
G01X0325504Y1072134D01*
G01X0325504Y1072134D02*
G01X0323776Y1070449D01*
G01X0323776Y1070449D02*
G01X0322004Y1068803D01*
G01X0322004Y1068803D02*
G01X0320193Y1067205D01*
G01X0320193Y1067205D02*
G01X0318346Y1065650D01*
G01X0318346Y1065650D02*
G01X0316461Y1064138D01*
G01X0316461Y1064138D02*
G01X0314535Y1062677D01*
G01X0314535Y1062677D02*
G01X0312579Y1061260D01*
G01X0312579Y1061260D02*
G01X0310587Y1059894D01*
G01X0310587Y1059894D02*
G01X0308563Y1058579D01*
G01X0308563Y1058579D02*
G01X0306508Y1057311D01*
G01X0306508Y1057311D02*
G01X0304417Y1056094D01*
G01X0304417Y1056094D02*
G01X0302303Y1054929D01*
G01X0302303Y1054929D02*
G01X0300157Y1053815D01*
G01X0300157Y1053815D02*
G01X0297988Y1052756D01*
G01X0297988Y1052756D02*
G01X0295791Y1051752D01*
G01X0295791Y1051752D02*
G01X0293571Y1050799D01*
G01X0293571Y1050799D02*
G01X0291327Y1049902D01*
G01X0291327Y1049902D02*
G01X0289063Y1049059D01*
G01X0289063Y1049059D02*
G01X0286780Y1048276D01*
G01X0286780Y1048276D02*
G01X0284476Y1047543D01*
G01X0284476Y1047543D02*
G01X0282157Y1046874D01*
G01X0282157Y1046874D02*
G01X0279823Y1046256D01*
G01X0279823Y1046256D02*
G01X0277472Y1045697D01*
G01X0277472Y1045697D02*
G01X0275106Y1045197D01*
G01X0275106Y1045197D02*
G01X0272732Y1044756D01*
G01X0272732Y1044756D02*
G01X0270346Y1044374D01*
G01X0270346Y1044374D02*
G01X0267953Y1044047D01*
G01X0267953Y1044047D02*
G01X0265551Y1043780D01*
G01X0265551Y1043780D02*
G01X0263146Y1043575D01*
G01X0263146Y1043575D02*
G01X0260736Y1043425D01*
G01X0260736Y1043425D02*
G01X0258323Y1043339D01*
G01X0258323Y1043339D02*
G01X0255906Y1043307D01*
G01X0255906Y1043307D02*
G01X0253488Y1043339D01*
G01X0253488Y1043339D02*
G01X0251075Y1043425D01*
G01X0251075Y1043425D02*
G01X0248665Y1043575D01*
G01X0248665Y1043575D02*
G01X0246260Y1043780D01*
G01X0246260Y1043780D02*
G01X0243858Y1044047D01*
G01X0243858Y1044047D02*
G01X0241465Y1044374D01*
G01X0241465Y1044374D02*
G01X0239079Y1044756D01*
G01X0239079Y1044756D02*
G01X0236705Y1045197D01*
G01X0236705Y1045197D02*
G01X0234339Y1045697D01*
G01X0234339Y1045697D02*
G01X0231988Y1046256D01*
G01X0231988Y1046256D02*
G01X0229654Y1046874D01*
G01X0229654Y1046874D02*
G01X0227335Y1047543D01*
G01X0227335Y1047543D02*
G01X0225031Y1048276D01*
G01X0225031Y1048276D02*
G01X0222748Y1049059D01*
G01X0222748Y1049059D02*
G01X0220484Y1049902D01*
G01X0220484Y1049902D02*
G01X0218240Y1050799D01*
G01X0218240Y1050799D02*
G01X0216020Y1051752D01*
G01X0216020Y1051752D02*
G01X0213823Y1052756D01*
G01X0213823Y1052756D02*
G01X0211654Y1053815D01*
G01X0211654Y1053815D02*
G01X0209508Y1054929D01*
G01X0209508Y1054929D02*
G01X0207394Y1056094D01*
G01X0207394Y1056094D02*
G01X0205303Y1057311D01*
G01X0205303Y1057311D02*
G01X0203248Y1058579D01*
G01X0203248Y1058579D02*
G01X0201224Y1059894D01*
G01X0201224Y1059894D02*
G01X0199232Y1061260D01*
G01X0199232Y1061260D02*
G01X0197276Y1062677D01*
G01X0197276Y1062677D02*
G01X0195350Y1064138D01*
G01X0195350Y1064138D02*
G01X0193465Y1065650D01*
G01X0193465Y1065650D02*
G01X0191618Y1067205D01*
G01X0191618Y1067205D02*
G01X0189807Y1068803D01*
G01X0189807Y1068803D02*
G01X0188035Y1070449D01*
G01X0188035Y1070449D02*
G01X0186307Y1072134D01*
G01X0186307Y1072134D02*
G01X0184622Y1073862D01*
G01X0184622Y1073862D02*
G01X0182976Y1075634D01*
G01X0182976Y1075634D02*
G01X0181378Y1077445D01*
G01X0181378Y1077445D02*
G01X0179823Y1079291D01*
G01X0179823Y1079291D02*
G01X0178311Y1081177D01*
G01X0178311Y1081177D02*
G01X0176850Y1083102D01*
G01X0176850Y1083102D02*
G01X0175433Y1085059D01*
G01X0175433Y1085059D02*
G01X0174067Y1087051D01*
G01X0174067Y1087051D02*
G01X0172752Y1089075D01*
G01X0172752Y1089075D02*
G01X0171484Y1091130D01*
G01X0171484Y1091130D02*
G01X0170268Y1093220D01*
G01X0170268Y1093220D02*
G01X0169102Y1095335D01*
G01X0169102Y1095335D02*
G01X0167988Y1097480D01*
G01X0167988Y1097480D02*
G01X0166929Y1099650D01*
G01X0166929Y1099650D02*
G01X0165925Y1101846D01*
G01X0165925Y1101846D02*
G01X0164972Y1104067D01*
G01X0164972Y1104067D02*
G01X0164075Y1106311D01*
G01X0164075Y1106311D02*
G01X0163232Y1108575D01*
G01X0163232Y1108575D02*
G01X0162449Y1110858D01*
G01X0162449Y1110858D02*
G01X0161717Y1113161D01*
G01X0161717Y1113161D02*
G01X0161047Y1115480D01*
G01X0161047Y1115480D02*
G01X0160429Y1117815D01*
G01X0160429Y1117815D02*
G01X0159870Y1120165D01*
G01X0159870Y1120165D02*
G01X0159370Y1122531D01*
G01X0159370Y1122531D02*
G01X0158929Y1124906D01*
G01X0158929Y1124906D02*
G01X0158547Y1127291D01*
G01X0158547Y1127291D02*
G01X0158220Y1129685D01*
G01X0158220Y1129685D02*
G01X0157953Y1132087D01*
G01X0157953Y1132087D02*
G01X0157748Y1134492D01*
G01X0157748Y1134492D02*
G01X0157598Y1136902D01*
G01X0157598Y1136902D02*
G01X0157512Y1139315D01*
G01X0157512Y1139315D02*
G01X0157480Y1141732D01*
G54D12*
G01X0255906Y1141732D03*
G54D11*
G01X0255906Y0236220D03*
G54D10*
G01X0157480Y0236220D02*
G01X0157512Y0238638D01*
G01X0157512Y0238638D02*
G01X0157598Y0241051D01*
G01X0157598Y0241051D02*
G01X0157748Y0243461D01*
G01X0157748Y0243461D02*
G01X0157953Y0245866D01*
G01X0157953Y0245866D02*
G01X0158220Y0248268D01*
G01X0158220Y0248268D02*
G01X0158547Y0250661D01*
G01X0158547Y0250661D02*
G01X0158929Y0253047D01*
G01X0158929Y0253047D02*
G01X0159370Y0255421D01*
G01X0159370Y0255421D02*
G01X0159870Y0257787D01*
G01X0159870Y0257787D02*
G01X0160429Y0260138D01*
G01X0160429Y0260138D02*
G01X0161047Y0262472D01*
G01X0161047Y0262472D02*
G01X0161717Y0264791D01*
G01X0161717Y0264791D02*
G01X0162449Y0267094D01*
G01X0162449Y0267094D02*
G01X0163232Y0269378D01*
G01X0163232Y0269378D02*
G01X0164075Y0271642D01*
G01X0164075Y0271642D02*
G01X0164972Y0273886D01*
G01X0164972Y0273886D02*
G01X0165925Y0276106D01*
G01X0165925Y0276106D02*
G01X0166929Y0278303D01*
G01X0166929Y0278303D02*
G01X0167988Y0280472D01*
G01X0167988Y0280472D02*
G01X0169102Y0282618D01*
G01X0169102Y0282618D02*
G01X0170268Y0284732D01*
G01X0170268Y0284732D02*
G01X0171484Y0286823D01*
G01X0171484Y0286823D02*
G01X0172752Y0288878D01*
G01X0172752Y0288878D02*
G01X0174067Y0290902D01*
G01X0174067Y0290902D02*
G01X0175433Y0292894D01*
G01X0175433Y0292894D02*
G01X0176850Y0294850D01*
G01X0176850Y0294850D02*
G01X0178311Y0296776D01*
G01X0178311Y0296776D02*
G01X0179823Y0298661D01*
G01X0179823Y0298661D02*
G01X0181378Y0300508D01*
G01X0181378Y0300508D02*
G01X0182976Y0302319D01*
G01X0182976Y0302319D02*
G01X0184622Y0304091D01*
G01X0184622Y0304091D02*
G01X0186307Y0305819D01*
G01X0186307Y0305819D02*
G01X0188035Y0307504D01*
G01X0188035Y0307504D02*
G01X0189807Y0309150D01*
G01X0189807Y0309150D02*
G01X0191618Y0310748D01*
G01X0191618Y0310748D02*
G01X0193465Y0312303D01*
G01X0193465Y0312303D02*
G01X0195350Y0313815D01*
G01X0195350Y0313815D02*
G01X0197276Y0315276D01*
G01X0197276Y0315276D02*
G01X0199232Y0316693D01*
G01X0199232Y0316693D02*
G01X0201224Y0318059D01*
G01X0201224Y0318059D02*
G01X0203248Y0319374D01*
G01X0203248Y0319374D02*
G01X0205303Y0320642D01*
G01X0205303Y0320642D02*
G01X0207394Y0321858D01*
G01X0207394Y0321858D02*
G01X0209508Y0323024D01*
G01X0209508Y0323024D02*
G01X0211654Y0324138D01*
G01X0211654Y0324138D02*
G01X0213823Y0325197D01*
G01X0213823Y0325197D02*
G01X0216020Y0326201D01*
G01X0216020Y0326201D02*
G01X0218240Y0327154D01*
G01X0218240Y0327154D02*
G01X0220484Y0328051D01*
G01X0220484Y0328051D02*
G01X0222748Y0328894D01*
G01X0222748Y0328894D02*
G01X0225031Y0329677D01*
G01X0225031Y0329677D02*
G01X0227335Y0330409D01*
G01X0227335Y0330409D02*
G01X0229654Y0331079D01*
G01X0229654Y0331079D02*
G01X0231988Y0331697D01*
G01X0231988Y0331697D02*
G01X0234339Y0332256D01*
G01X0234339Y0332256D02*
G01X0236705Y0332756D01*
G01X0236705Y0332756D02*
G01X0239079Y0333197D01*
G01X0239079Y0333197D02*
G01X0241465Y0333579D01*
G01X0241465Y0333579D02*
G01X0243858Y0333906D01*
G01X0243858Y0333906D02*
G01X0246260Y0334173D01*
G01X0246260Y0334173D02*
G01X0248665Y0334378D01*
G01X0248665Y0334378D02*
G01X0251075Y0334528D01*
G01X0251075Y0334528D02*
G01X0253488Y0334614D01*
G01X0253488Y0334614D02*
G01X0255906Y0334646D01*
G01X0255906Y0334646D02*
G01X0258323Y0334614D01*
G01X0258323Y0334614D02*
G01X0260736Y0334528D01*
G01X0260736Y0334528D02*
G01X0263146Y0334378D01*
G01X0263146Y0334378D02*
G01X0265551Y0334173D01*
G01X0265551Y0334173D02*
G01X0267953Y0333906D01*
G01X0267953Y0333906D02*
G01X0270346Y0333579D01*
G01X0270346Y0333579D02*
G01X0272732Y0333197D01*
G01X0272732Y0333197D02*
G01X0275106Y0332756D01*
G01X0275106Y0332756D02*
G01X0277472Y0332256D01*
G01X0277472Y0332256D02*
G01X0279823Y0331697D01*
G01X0279823Y0331697D02*
G01X0282157Y0331079D01*
G01X0282157Y0331079D02*
G01X0284476Y0330409D01*
G01X0284476Y0330409D02*
G01X0286780Y0329677D01*
G01X0286780Y0329677D02*
G01X0289063Y0328894D01*
G01X0289063Y0328894D02*
G01X0291327Y0328051D01*
G01X0291327Y0328051D02*
G01X0293571Y0327154D01*
G01X0293571Y0327154D02*
G01X0295791Y0326201D01*
G01X0295791Y0326201D02*
G01X0297988Y0325197D01*
G01X0297988Y0325197D02*
G01X0300157Y0324138D01*
G01X0300157Y0324138D02*
G01X0302303Y0323024D01*
G01X0302303Y0323024D02*
G01X0304417Y0321858D01*
G01X0304417Y0321858D02*
G01X0306508Y0320642D01*
G01X0306508Y0320642D02*
G01X0308563Y0319374D01*
G01X0308563Y0319374D02*
G01X0310587Y0318059D01*
G01X0310587Y0318059D02*
G01X0312579Y0316693D01*
G01X0312579Y0316693D02*
G01X0314535Y0315276D01*
G01X0314535Y0315276D02*
G01X0316461Y0313815D01*
G01X0316461Y0313815D02*
G01X0318346Y0312303D01*
G01X0318346Y0312303D02*
G01X0320193Y0310748D01*
G01X0320193Y0310748D02*
G01X0322004Y0309150D01*
G01X0322004Y0309150D02*
G01X0323776Y0307504D01*
G01X0323776Y0307504D02*
G01X0325504Y0305819D01*
G01X0325504Y0305819D02*
G01X0327189Y0304091D01*
G01X0327189Y0304091D02*
G01X0328835Y0302319D01*
G01X0328835Y0302319D02*
G01X0330433Y0300508D01*
G01X0330433Y0300508D02*
G01X0331988Y0298661D01*
G01X0331988Y0298661D02*
G01X0333500Y0296776D01*
G01X0333500Y0296776D02*
G01X0334961Y0294850D01*
G01X0334961Y0294850D02*
G01X0336378Y0292894D01*
G01X0336378Y0292894D02*
G01X0337744Y0290902D01*
G01X0337744Y0290902D02*
G01X0339059Y0288878D01*
G01X0339059Y0288878D02*
G01X0340327Y0286823D01*
G01X0340327Y0286823D02*
G01X0341543Y0284732D01*
G01X0341543Y0284732D02*
G01X0342709Y0282618D01*
G01X0342709Y0282618D02*
G01X0343823Y0280472D01*
G01X0343823Y0280472D02*
G01X0344882Y0278303D01*
G01X0344882Y0278303D02*
G01X0345886Y0276106D01*
G01X0345886Y0276106D02*
G01X0346839Y0273886D01*
G01X0346839Y0273886D02*
G01X0347736Y0271642D01*
G01X0347736Y0271642D02*
G01X0348579Y0269378D01*
G01X0348579Y0269378D02*
G01X0349362Y0267094D01*
G01X0349362Y0267094D02*
G01X0350094Y0264791D01*
G01X0350094Y0264791D02*
G01X0350764Y0262472D01*
G01X0350764Y0262472D02*
G01X0351382Y0260138D01*
G01X0351382Y0260138D02*
G01X0351941Y0257787D01*
G01X0351941Y0257787D02*
G01X0352441Y0255421D01*
G01X0352441Y0255421D02*
G01X0352882Y0253047D01*
G01X0352882Y0253047D02*
G01X0353264Y0250661D01*
G01X0353264Y0250661D02*
G01X0353591Y0248268D01*
G01X0353591Y0248268D02*
G01X0353858Y0245866D01*
G01X0353858Y0245866D02*
G01X0354063Y0243461D01*
G01X0354063Y0243461D02*
G01X0354213Y0241051D01*
G01X0354213Y0241051D02*
G01X0354299Y0238638D01*
G01X0354299Y0238638D02*
G01X0354331Y0236220D01*
G01X0354331Y0236220D02*
G01X0354299Y0233803D01*
G01X0354299Y0233803D02*
G01X0354213Y0231390D01*
G01X0354213Y0231390D02*
G01X0354063Y0228980D01*
G01X0354063Y0228980D02*
G01X0353858Y0226575D01*
G01X0353858Y0226575D02*
G01X0353591Y0224173D01*
G01X0353591Y0224173D02*
G01X0353264Y0221780D01*
G01X0353264Y0221780D02*
G01X0352882Y0219394D01*
G01X0352882Y0219394D02*
G01X0352441Y0217020D01*
G01X0352441Y0217020D02*
G01X0351941Y0214654D01*
G01X0351941Y0214654D02*
G01X0351382Y0212303D01*
G01X0351382Y0212303D02*
G01X0350764Y0209969D01*
G01X0350764Y0209969D02*
G01X0350094Y0207650D01*
G01X0350094Y0207650D02*
G01X0349362Y0205346D01*
G01X0349362Y0205346D02*
G01X0348579Y0203063D01*
G01X0348579Y0203063D02*
G01X0347736Y0200799D01*
G01X0347736Y0200799D02*
G01X0346839Y0198555D01*
G01X0346839Y0198555D02*
G01X0345886Y0196335D01*
G01X0345886Y0196335D02*
G01X0344882Y0194138D01*
G01X0344882Y0194138D02*
G01X0343823Y0191969D01*
G01X0343823Y0191969D02*
G01X0342709Y0189823D01*
G01X0342709Y0189823D02*
G01X0341543Y0187709D01*
G01X0341543Y0187709D02*
G01X0340327Y0185618D01*
G01X0340327Y0185618D02*
G01X0339059Y0183563D01*
G01X0339059Y0183563D02*
G01X0337744Y0181539D01*
G01X0337744Y0181539D02*
G01X0336378Y0179547D01*
G01X0336378Y0179547D02*
G01X0334961Y0177591D01*
G01X0334961Y0177591D02*
G01X0333500Y0175665D01*
G01X0333500Y0175665D02*
G01X0331988Y0173780D01*
G01X0331988Y0173780D02*
G01X0330433Y0171933D01*
G01X0330433Y0171933D02*
G01X0328835Y0170122D01*
G01X0328835Y0170122D02*
G01X0327189Y0168350D01*
G01X0327189Y0168350D02*
G01X0325504Y0166622D01*
G01X0325504Y0166622D02*
G01X0323776Y0164937D01*
G01X0323776Y0164937D02*
G01X0322004Y0163291D01*
G01X0322004Y0163291D02*
G01X0320193Y0161693D01*
G01X0320193Y0161693D02*
G01X0318346Y0160138D01*
G01X0318346Y0160138D02*
G01X0316461Y0158626D01*
G01X0316461Y0158626D02*
G01X0314535Y0157165D01*
G01X0314535Y0157165D02*
G01X0312579Y0155748D01*
G01X0312579Y0155748D02*
G01X0310587Y0154382D01*
G01X0310587Y0154382D02*
G01X0308563Y0153067D01*
G01X0308563Y0153067D02*
G01X0306508Y0151799D01*
G01X0306508Y0151799D02*
G01X0304417Y0150583D01*
G01X0304417Y0150583D02*
G01X0302303Y0149417D01*
G01X0302303Y0149417D02*
G01X0300157Y0148303D01*
G01X0300157Y0148303D02*
G01X0297988Y0147244D01*
G01X0297988Y0147244D02*
G01X0295791Y0146240D01*
G01X0295791Y0146240D02*
G01X0293571Y0145287D01*
G01X0293571Y0145287D02*
G01X0291327Y0144390D01*
G01X0291327Y0144390D02*
G01X0289063Y0143547D01*
G01X0289063Y0143547D02*
G01X0286780Y0142764D01*
G01X0286780Y0142764D02*
G01X0284476Y0142031D01*
G01X0284476Y0142031D02*
G01X0282157Y0141362D01*
G01X0282157Y0141362D02*
G01X0279823Y0140744D01*
G01X0279823Y0140744D02*
G01X0277472Y0140185D01*
G01X0277472Y0140185D02*
G01X0275106Y0139685D01*
G01X0275106Y0139685D02*
G01X0272732Y0139244D01*
G01X0272732Y0139244D02*
G01X0270346Y0138862D01*
G01X0270346Y0138862D02*
G01X0267953Y0138535D01*
G01X0267953Y0138535D02*
G01X0265551Y0138268D01*
G01X0265551Y0138268D02*
G01X0263146Y0138063D01*
G01X0263146Y0138063D02*
G01X0260736Y0137913D01*
G01X0260736Y0137913D02*
G01X0258323Y0137827D01*
G01X0258323Y0137827D02*
G01X0255906Y0137795D01*
G01X0255906Y0137795D02*
G01X0253488Y0137827D01*
G01X0253488Y0137827D02*
G01X0251075Y0137913D01*
G01X0251075Y0137913D02*
G01X0248665Y0138063D01*
G01X0248665Y0138063D02*
G01X0246260Y0138268D01*
G01X0246260Y0138268D02*
G01X0243858Y0138535D01*
G01X0243858Y0138535D02*
G01X0241465Y0138862D01*
G01X0241465Y0138862D02*
G01X0239079Y0139244D01*
G01X0239079Y0139244D02*
G01X0236705Y0139685D01*
G01X0236705Y0139685D02*
G01X0234339Y0140185D01*
G01X0234339Y0140185D02*
G01X0231988Y0140744D01*
G01X0231988Y0140744D02*
G01X0229654Y0141362D01*
G01X0229654Y0141362D02*
G01X0227335Y0142031D01*
G01X0227335Y0142031D02*
G01X0225031Y0142764D01*
G01X0225031Y0142764D02*
G01X0222748Y0143547D01*
G01X0222748Y0143547D02*
G01X0220484Y0144390D01*
G01X0220484Y0144390D02*
G01X0218240Y0145287D01*
G01X0218240Y0145287D02*
G01X0216020Y0146240D01*
G01X0216020Y0146240D02*
G01X0213823Y0147244D01*
G01X0213823Y0147244D02*
G01X0211654Y0148303D01*
G01X0211654Y0148303D02*
G01X0209508Y0149417D01*
G01X0209508Y0149417D02*
G01X0207394Y0150583D01*
G01X0207394Y0150583D02*
G01X0205303Y0151799D01*
G01X0205303Y0151799D02*
G01X0203248Y0153067D01*
G01X0203248Y0153067D02*
G01X0201224Y0154382D01*
G01X0201224Y0154382D02*
G01X0199232Y0155748D01*
G01X0199232Y0155748D02*
G01X0197276Y0157165D01*
G01X0197276Y0157165D02*
G01X0195350Y0158626D01*
G01X0195350Y0158626D02*
G01X0193465Y0160138D01*
G01X0193465Y0160138D02*
G01X0191618Y0161693D01*
G01X0191618Y0161693D02*
G01X0189807Y0163291D01*
G01X0189807Y0163291D02*
G01X0188035Y0164937D01*
G01X0188035Y0164937D02*
G01X0186307Y0166622D01*
G01X0186307Y0166622D02*
G01X0184622Y0168350D01*
G01X0184622Y0168350D02*
G01X0182976Y0170122D01*
G01X0182976Y0170122D02*
G01X0181378Y0171933D01*
G01X0181378Y0171933D02*
G01X0179823Y0173780D01*
G01X0179823Y0173780D02*
G01X0178311Y0175665D01*
G01X0178311Y0175665D02*
G01X0176850Y0177591D01*
G01X0176850Y0177591D02*
G01X0175433Y0179547D01*
G01X0175433Y0179547D02*
G01X0174067Y0181539D01*
G01X0174067Y0181539D02*
G01X0172752Y0183563D01*
G01X0172752Y0183563D02*
G01X0171484Y0185618D01*
G01X0171484Y0185618D02*
G01X0170268Y0187709D01*
G01X0170268Y0187709D02*
G01X0169102Y0189823D01*
G01X0169102Y0189823D02*
G01X0167988Y0191969D01*
G01X0167988Y0191969D02*
G01X0166929Y0194138D01*
G01X0166929Y0194138D02*
G01X0165925Y0196335D01*
G01X0165925Y0196335D02*
G01X0164972Y0198555D01*
G01X0164972Y0198555D02*
G01X0164075Y0200799D01*
G01X0164075Y0200799D02*
G01X0163232Y0203063D01*
G01X0163232Y0203063D02*
G01X0162449Y0205346D01*
G01X0162449Y0205346D02*
G01X0161717Y0207650D01*
G01X0161717Y0207650D02*
G01X0161047Y0209969D01*
G01X0161047Y0209969D02*
G01X0160429Y0212303D01*
G01X0160429Y0212303D02*
G01X0159870Y0214654D01*
G01X0159870Y0214654D02*
G01X0159370Y0217020D01*
G01X0159370Y0217020D02*
G01X0158929Y0219394D01*
G01X0158929Y0219394D02*
G01X0158547Y0221780D01*
G01X0158547Y0221780D02*
G01X0158220Y0224173D01*
G01X0158220Y0224173D02*
G01X0157953Y0226575D01*
G01X0157953Y0226575D02*
G01X0157748Y0228980D01*
G01X0157748Y0228980D02*
G01X0157598Y0231390D01*
G01X0157598Y0231390D02*
G01X0157512Y0233803D01*
G01X0157512Y0233803D02*
G01X0157480Y0236220D01*
G54D12*
G01X0255906Y0236220D03*
M02*
