G75*
%MOIN*%
%OFA0B0*%
%FSLAX25Y25*%
%IPPOS*%
%LPD*%
%AMOC8*
5,1,8,0,0,1.08239X$1,22.5*
%
%ADD10C,0.00000*%
%ADD11C,0.00600*%
%ADD12R,0.02000X0.07362*%
%ADD13R,0.02500X0.03346*%
%ADD14C,0.00500*%
%ADD15R,0.08000X0.02000*%
%ADD16R,0.02000X0.02500*%
%ADD17C,0.01200*%
%ADD18C,0.02400*%
%ADD19C,0.00400*%
%ADD20C,0.00800*%
%ADD21C,0.01000*%
%ADD22C,0.02000*%
%ADD23R,0.03000X0.15000*%
%ADD24C,0.00700*%
D10*
X0004425Y0001800D02*
X0004425Y0190776D01*
X0453244Y0190776D01*
X0453244Y0100225D01*
X0398126Y0001800D01*
X0004425Y0001800D01*
X0022141Y0096288D02*
X0022144Y0096530D01*
X0022153Y0096771D01*
X0022168Y0097012D01*
X0022188Y0097253D01*
X0022215Y0097493D01*
X0022248Y0097732D01*
X0022286Y0097971D01*
X0022330Y0098208D01*
X0022380Y0098445D01*
X0022436Y0098680D01*
X0022498Y0098913D01*
X0022565Y0099145D01*
X0022638Y0099376D01*
X0022716Y0099604D01*
X0022801Y0099830D01*
X0022890Y0100055D01*
X0022985Y0100277D01*
X0023086Y0100496D01*
X0023192Y0100714D01*
X0023303Y0100928D01*
X0023420Y0101140D01*
X0023541Y0101348D01*
X0023668Y0101554D01*
X0023800Y0101756D01*
X0023937Y0101956D01*
X0024078Y0102151D01*
X0024224Y0102344D01*
X0024375Y0102532D01*
X0024531Y0102717D01*
X0024691Y0102898D01*
X0024855Y0103075D01*
X0025024Y0103248D01*
X0025197Y0103417D01*
X0025374Y0103581D01*
X0025555Y0103741D01*
X0025740Y0103897D01*
X0025928Y0104048D01*
X0026121Y0104194D01*
X0026316Y0104335D01*
X0026516Y0104472D01*
X0026718Y0104604D01*
X0026924Y0104731D01*
X0027132Y0104852D01*
X0027344Y0104969D01*
X0027558Y0105080D01*
X0027776Y0105186D01*
X0027995Y0105287D01*
X0028217Y0105382D01*
X0028442Y0105471D01*
X0028668Y0105556D01*
X0028896Y0105634D01*
X0029127Y0105707D01*
X0029359Y0105774D01*
X0029592Y0105836D01*
X0029827Y0105892D01*
X0030064Y0105942D01*
X0030301Y0105986D01*
X0030540Y0106024D01*
X0030779Y0106057D01*
X0031019Y0106084D01*
X0031260Y0106104D01*
X0031501Y0106119D01*
X0031742Y0106128D01*
X0031984Y0106131D01*
X0032226Y0106128D01*
X0032467Y0106119D01*
X0032708Y0106104D01*
X0032949Y0106084D01*
X0033189Y0106057D01*
X0033428Y0106024D01*
X0033667Y0105986D01*
X0033904Y0105942D01*
X0034141Y0105892D01*
X0034376Y0105836D01*
X0034609Y0105774D01*
X0034841Y0105707D01*
X0035072Y0105634D01*
X0035300Y0105556D01*
X0035526Y0105471D01*
X0035751Y0105382D01*
X0035973Y0105287D01*
X0036192Y0105186D01*
X0036410Y0105080D01*
X0036624Y0104969D01*
X0036836Y0104852D01*
X0037044Y0104731D01*
X0037250Y0104604D01*
X0037452Y0104472D01*
X0037652Y0104335D01*
X0037847Y0104194D01*
X0038040Y0104048D01*
X0038228Y0103897D01*
X0038413Y0103741D01*
X0038594Y0103581D01*
X0038771Y0103417D01*
X0038944Y0103248D01*
X0039113Y0103075D01*
X0039277Y0102898D01*
X0039437Y0102717D01*
X0039593Y0102532D01*
X0039744Y0102344D01*
X0039890Y0102151D01*
X0040031Y0101956D01*
X0040168Y0101756D01*
X0040300Y0101554D01*
X0040427Y0101348D01*
X0040548Y0101140D01*
X0040665Y0100928D01*
X0040776Y0100714D01*
X0040882Y0100496D01*
X0040983Y0100277D01*
X0041078Y0100055D01*
X0041167Y0099830D01*
X0041252Y0099604D01*
X0041330Y0099376D01*
X0041403Y0099145D01*
X0041470Y0098913D01*
X0041532Y0098680D01*
X0041588Y0098445D01*
X0041638Y0098208D01*
X0041682Y0097971D01*
X0041720Y0097732D01*
X0041753Y0097493D01*
X0041780Y0097253D01*
X0041800Y0097012D01*
X0041815Y0096771D01*
X0041824Y0096530D01*
X0041827Y0096288D01*
X0041824Y0096046D01*
X0041815Y0095805D01*
X0041800Y0095564D01*
X0041780Y0095323D01*
X0041753Y0095083D01*
X0041720Y0094844D01*
X0041682Y0094605D01*
X0041638Y0094368D01*
X0041588Y0094131D01*
X0041532Y0093896D01*
X0041470Y0093663D01*
X0041403Y0093431D01*
X0041330Y0093200D01*
X0041252Y0092972D01*
X0041167Y0092746D01*
X0041078Y0092521D01*
X0040983Y0092299D01*
X0040882Y0092080D01*
X0040776Y0091862D01*
X0040665Y0091648D01*
X0040548Y0091436D01*
X0040427Y0091228D01*
X0040300Y0091022D01*
X0040168Y0090820D01*
X0040031Y0090620D01*
X0039890Y0090425D01*
X0039744Y0090232D01*
X0039593Y0090044D01*
X0039437Y0089859D01*
X0039277Y0089678D01*
X0039113Y0089501D01*
X0038944Y0089328D01*
X0038771Y0089159D01*
X0038594Y0088995D01*
X0038413Y0088835D01*
X0038228Y0088679D01*
X0038040Y0088528D01*
X0037847Y0088382D01*
X0037652Y0088241D01*
X0037452Y0088104D01*
X0037250Y0087972D01*
X0037044Y0087845D01*
X0036836Y0087724D01*
X0036624Y0087607D01*
X0036410Y0087496D01*
X0036192Y0087390D01*
X0035973Y0087289D01*
X0035751Y0087194D01*
X0035526Y0087105D01*
X0035300Y0087020D01*
X0035072Y0086942D01*
X0034841Y0086869D01*
X0034609Y0086802D01*
X0034376Y0086740D01*
X0034141Y0086684D01*
X0033904Y0086634D01*
X0033667Y0086590D01*
X0033428Y0086552D01*
X0033189Y0086519D01*
X0032949Y0086492D01*
X0032708Y0086472D01*
X0032467Y0086457D01*
X0032226Y0086448D01*
X0031984Y0086445D01*
X0031742Y0086448D01*
X0031501Y0086457D01*
X0031260Y0086472D01*
X0031019Y0086492D01*
X0030779Y0086519D01*
X0030540Y0086552D01*
X0030301Y0086590D01*
X0030064Y0086634D01*
X0029827Y0086684D01*
X0029592Y0086740D01*
X0029359Y0086802D01*
X0029127Y0086869D01*
X0028896Y0086942D01*
X0028668Y0087020D01*
X0028442Y0087105D01*
X0028217Y0087194D01*
X0027995Y0087289D01*
X0027776Y0087390D01*
X0027558Y0087496D01*
X0027344Y0087607D01*
X0027132Y0087724D01*
X0026924Y0087845D01*
X0026718Y0087972D01*
X0026516Y0088104D01*
X0026316Y0088241D01*
X0026121Y0088382D01*
X0025928Y0088528D01*
X0025740Y0088679D01*
X0025555Y0088835D01*
X0025374Y0088995D01*
X0025197Y0089159D01*
X0025024Y0089328D01*
X0024855Y0089501D01*
X0024691Y0089678D01*
X0024531Y0089859D01*
X0024375Y0090044D01*
X0024224Y0090232D01*
X0024078Y0090425D01*
X0023937Y0090620D01*
X0023800Y0090820D01*
X0023668Y0091022D01*
X0023541Y0091228D01*
X0023420Y0091436D01*
X0023303Y0091648D01*
X0023192Y0091862D01*
X0023086Y0092080D01*
X0022985Y0092299D01*
X0022890Y0092521D01*
X0022801Y0092746D01*
X0022716Y0092972D01*
X0022638Y0093200D01*
X0022565Y0093431D01*
X0022498Y0093663D01*
X0022436Y0093896D01*
X0022380Y0094131D01*
X0022330Y0094368D01*
X0022286Y0094605D01*
X0022248Y0094844D01*
X0022215Y0095083D01*
X0022188Y0095323D01*
X0022168Y0095564D01*
X0022153Y0095805D01*
X0022144Y0096046D01*
X0022141Y0096288D01*
X0415842Y0096288D02*
X0415845Y0096530D01*
X0415854Y0096771D01*
X0415869Y0097012D01*
X0415889Y0097253D01*
X0415916Y0097493D01*
X0415949Y0097732D01*
X0415987Y0097971D01*
X0416031Y0098208D01*
X0416081Y0098445D01*
X0416137Y0098680D01*
X0416199Y0098913D01*
X0416266Y0099145D01*
X0416339Y0099376D01*
X0416417Y0099604D01*
X0416502Y0099830D01*
X0416591Y0100055D01*
X0416686Y0100277D01*
X0416787Y0100496D01*
X0416893Y0100714D01*
X0417004Y0100928D01*
X0417121Y0101140D01*
X0417242Y0101348D01*
X0417369Y0101554D01*
X0417501Y0101756D01*
X0417638Y0101956D01*
X0417779Y0102151D01*
X0417925Y0102344D01*
X0418076Y0102532D01*
X0418232Y0102717D01*
X0418392Y0102898D01*
X0418556Y0103075D01*
X0418725Y0103248D01*
X0418898Y0103417D01*
X0419075Y0103581D01*
X0419256Y0103741D01*
X0419441Y0103897D01*
X0419629Y0104048D01*
X0419822Y0104194D01*
X0420017Y0104335D01*
X0420217Y0104472D01*
X0420419Y0104604D01*
X0420625Y0104731D01*
X0420833Y0104852D01*
X0421045Y0104969D01*
X0421259Y0105080D01*
X0421477Y0105186D01*
X0421696Y0105287D01*
X0421918Y0105382D01*
X0422143Y0105471D01*
X0422369Y0105556D01*
X0422597Y0105634D01*
X0422828Y0105707D01*
X0423060Y0105774D01*
X0423293Y0105836D01*
X0423528Y0105892D01*
X0423765Y0105942D01*
X0424002Y0105986D01*
X0424241Y0106024D01*
X0424480Y0106057D01*
X0424720Y0106084D01*
X0424961Y0106104D01*
X0425202Y0106119D01*
X0425443Y0106128D01*
X0425685Y0106131D01*
X0425927Y0106128D01*
X0426168Y0106119D01*
X0426409Y0106104D01*
X0426650Y0106084D01*
X0426890Y0106057D01*
X0427129Y0106024D01*
X0427368Y0105986D01*
X0427605Y0105942D01*
X0427842Y0105892D01*
X0428077Y0105836D01*
X0428310Y0105774D01*
X0428542Y0105707D01*
X0428773Y0105634D01*
X0429001Y0105556D01*
X0429227Y0105471D01*
X0429452Y0105382D01*
X0429674Y0105287D01*
X0429893Y0105186D01*
X0430111Y0105080D01*
X0430325Y0104969D01*
X0430537Y0104852D01*
X0430745Y0104731D01*
X0430951Y0104604D01*
X0431153Y0104472D01*
X0431353Y0104335D01*
X0431548Y0104194D01*
X0431741Y0104048D01*
X0431929Y0103897D01*
X0432114Y0103741D01*
X0432295Y0103581D01*
X0432472Y0103417D01*
X0432645Y0103248D01*
X0432814Y0103075D01*
X0432978Y0102898D01*
X0433138Y0102717D01*
X0433294Y0102532D01*
X0433445Y0102344D01*
X0433591Y0102151D01*
X0433732Y0101956D01*
X0433869Y0101756D01*
X0434001Y0101554D01*
X0434128Y0101348D01*
X0434249Y0101140D01*
X0434366Y0100928D01*
X0434477Y0100714D01*
X0434583Y0100496D01*
X0434684Y0100277D01*
X0434779Y0100055D01*
X0434868Y0099830D01*
X0434953Y0099604D01*
X0435031Y0099376D01*
X0435104Y0099145D01*
X0435171Y0098913D01*
X0435233Y0098680D01*
X0435289Y0098445D01*
X0435339Y0098208D01*
X0435383Y0097971D01*
X0435421Y0097732D01*
X0435454Y0097493D01*
X0435481Y0097253D01*
X0435501Y0097012D01*
X0435516Y0096771D01*
X0435525Y0096530D01*
X0435528Y0096288D01*
X0435525Y0096046D01*
X0435516Y0095805D01*
X0435501Y0095564D01*
X0435481Y0095323D01*
X0435454Y0095083D01*
X0435421Y0094844D01*
X0435383Y0094605D01*
X0435339Y0094368D01*
X0435289Y0094131D01*
X0435233Y0093896D01*
X0435171Y0093663D01*
X0435104Y0093431D01*
X0435031Y0093200D01*
X0434953Y0092972D01*
X0434868Y0092746D01*
X0434779Y0092521D01*
X0434684Y0092299D01*
X0434583Y0092080D01*
X0434477Y0091862D01*
X0434366Y0091648D01*
X0434249Y0091436D01*
X0434128Y0091228D01*
X0434001Y0091022D01*
X0433869Y0090820D01*
X0433732Y0090620D01*
X0433591Y0090425D01*
X0433445Y0090232D01*
X0433294Y0090044D01*
X0433138Y0089859D01*
X0432978Y0089678D01*
X0432814Y0089501D01*
X0432645Y0089328D01*
X0432472Y0089159D01*
X0432295Y0088995D01*
X0432114Y0088835D01*
X0431929Y0088679D01*
X0431741Y0088528D01*
X0431548Y0088382D01*
X0431353Y0088241D01*
X0431153Y0088104D01*
X0430951Y0087972D01*
X0430745Y0087845D01*
X0430537Y0087724D01*
X0430325Y0087607D01*
X0430111Y0087496D01*
X0429893Y0087390D01*
X0429674Y0087289D01*
X0429452Y0087194D01*
X0429227Y0087105D01*
X0429001Y0087020D01*
X0428773Y0086942D01*
X0428542Y0086869D01*
X0428310Y0086802D01*
X0428077Y0086740D01*
X0427842Y0086684D01*
X0427605Y0086634D01*
X0427368Y0086590D01*
X0427129Y0086552D01*
X0426890Y0086519D01*
X0426650Y0086492D01*
X0426409Y0086472D01*
X0426168Y0086457D01*
X0425927Y0086448D01*
X0425685Y0086445D01*
X0425443Y0086448D01*
X0425202Y0086457D01*
X0424961Y0086472D01*
X0424720Y0086492D01*
X0424480Y0086519D01*
X0424241Y0086552D01*
X0424002Y0086590D01*
X0423765Y0086634D01*
X0423528Y0086684D01*
X0423293Y0086740D01*
X0423060Y0086802D01*
X0422828Y0086869D01*
X0422597Y0086942D01*
X0422369Y0087020D01*
X0422143Y0087105D01*
X0421918Y0087194D01*
X0421696Y0087289D01*
X0421477Y0087390D01*
X0421259Y0087496D01*
X0421045Y0087607D01*
X0420833Y0087724D01*
X0420625Y0087845D01*
X0420419Y0087972D01*
X0420217Y0088104D01*
X0420017Y0088241D01*
X0419822Y0088382D01*
X0419629Y0088528D01*
X0419441Y0088679D01*
X0419256Y0088835D01*
X0419075Y0088995D01*
X0418898Y0089159D01*
X0418725Y0089328D01*
X0418556Y0089501D01*
X0418392Y0089678D01*
X0418232Y0089859D01*
X0418076Y0090044D01*
X0417925Y0090232D01*
X0417779Y0090425D01*
X0417638Y0090620D01*
X0417501Y0090820D01*
X0417369Y0091022D01*
X0417242Y0091228D01*
X0417121Y0091436D01*
X0417004Y0091648D01*
X0416893Y0091862D01*
X0416787Y0092080D01*
X0416686Y0092299D01*
X0416591Y0092521D01*
X0416502Y0092746D01*
X0416417Y0092972D01*
X0416339Y0093200D01*
X0416266Y0093431D01*
X0416199Y0093663D01*
X0416137Y0093896D01*
X0416081Y0094131D01*
X0416031Y0094368D01*
X0415987Y0094605D01*
X0415949Y0094844D01*
X0415916Y0095083D01*
X0415889Y0095323D01*
X0415869Y0095564D01*
X0415854Y0095805D01*
X0415845Y0096046D01*
X0415842Y0096288D01*
D11*
X0299543Y0133572D02*
X0299546Y0133817D01*
X0299555Y0134063D01*
X0299570Y0134308D01*
X0299591Y0134552D01*
X0299618Y0134796D01*
X0299651Y0135039D01*
X0299690Y0135282D01*
X0299735Y0135523D01*
X0299786Y0135763D01*
X0299843Y0136002D01*
X0299905Y0136239D01*
X0299974Y0136475D01*
X0300048Y0136709D01*
X0300128Y0136941D01*
X0300213Y0137171D01*
X0300304Y0137399D01*
X0300401Y0137624D01*
X0300503Y0137848D01*
X0300611Y0138068D01*
X0300724Y0138286D01*
X0300842Y0138501D01*
X0300966Y0138713D01*
X0301094Y0138922D01*
X0301228Y0139128D01*
X0301367Y0139330D01*
X0301511Y0139529D01*
X0301660Y0139724D01*
X0301813Y0139916D01*
X0301971Y0140104D01*
X0302133Y0140288D01*
X0302301Y0140467D01*
X0302472Y0140643D01*
X0302648Y0140814D01*
X0302827Y0140982D01*
X0303011Y0141144D01*
X0303199Y0141302D01*
X0303391Y0141455D01*
X0303586Y0141604D01*
X0303785Y0141748D01*
X0303987Y0141887D01*
X0304193Y0142021D01*
X0304402Y0142149D01*
X0304614Y0142273D01*
X0304829Y0142391D01*
X0305047Y0142504D01*
X0305267Y0142612D01*
X0305491Y0142714D01*
X0305716Y0142811D01*
X0305944Y0142902D01*
X0306174Y0142987D01*
X0306406Y0143067D01*
X0306640Y0143141D01*
X0306876Y0143210D01*
X0307113Y0143272D01*
X0307352Y0143329D01*
X0307592Y0143380D01*
X0307833Y0143425D01*
X0308076Y0143464D01*
X0308319Y0143497D01*
X0308563Y0143524D01*
X0308807Y0143545D01*
X0309052Y0143560D01*
X0309298Y0143569D01*
X0309543Y0143572D01*
X0309788Y0143569D01*
X0310034Y0143560D01*
X0310279Y0143545D01*
X0310523Y0143524D01*
X0310767Y0143497D01*
X0311010Y0143464D01*
X0311253Y0143425D01*
X0311494Y0143380D01*
X0311734Y0143329D01*
X0311973Y0143272D01*
X0312210Y0143210D01*
X0312446Y0143141D01*
X0312680Y0143067D01*
X0312912Y0142987D01*
X0313142Y0142902D01*
X0313370Y0142811D01*
X0313595Y0142714D01*
X0313819Y0142612D01*
X0314039Y0142504D01*
X0314257Y0142391D01*
X0314472Y0142273D01*
X0314684Y0142149D01*
X0314893Y0142021D01*
X0315099Y0141887D01*
X0315301Y0141748D01*
X0315500Y0141604D01*
X0315695Y0141455D01*
X0315887Y0141302D01*
X0316075Y0141144D01*
X0316259Y0140982D01*
X0316438Y0140814D01*
X0316614Y0140643D01*
X0316785Y0140467D01*
X0316953Y0140288D01*
X0317115Y0140104D01*
X0317273Y0139916D01*
X0317426Y0139724D01*
X0317575Y0139529D01*
X0317719Y0139330D01*
X0317858Y0139128D01*
X0317992Y0138922D01*
X0318120Y0138713D01*
X0318244Y0138501D01*
X0318362Y0138286D01*
X0318475Y0138068D01*
X0318583Y0137848D01*
X0318685Y0137624D01*
X0318782Y0137399D01*
X0318873Y0137171D01*
X0318958Y0136941D01*
X0319038Y0136709D01*
X0319112Y0136475D01*
X0319181Y0136239D01*
X0319243Y0136002D01*
X0319300Y0135763D01*
X0319351Y0135523D01*
X0319396Y0135282D01*
X0319435Y0135039D01*
X0319468Y0134796D01*
X0319495Y0134552D01*
X0319516Y0134308D01*
X0319531Y0134063D01*
X0319540Y0133817D01*
X0319543Y0133572D01*
X0319540Y0133327D01*
X0319531Y0133081D01*
X0319516Y0132836D01*
X0319495Y0132592D01*
X0319468Y0132348D01*
X0319435Y0132105D01*
X0319396Y0131862D01*
X0319351Y0131621D01*
X0319300Y0131381D01*
X0319243Y0131142D01*
X0319181Y0130905D01*
X0319112Y0130669D01*
X0319038Y0130435D01*
X0318958Y0130203D01*
X0318873Y0129973D01*
X0318782Y0129745D01*
X0318685Y0129520D01*
X0318583Y0129296D01*
X0318475Y0129076D01*
X0318362Y0128858D01*
X0318244Y0128643D01*
X0318120Y0128431D01*
X0317992Y0128222D01*
X0317858Y0128016D01*
X0317719Y0127814D01*
X0317575Y0127615D01*
X0317426Y0127420D01*
X0317273Y0127228D01*
X0317115Y0127040D01*
X0316953Y0126856D01*
X0316785Y0126677D01*
X0316614Y0126501D01*
X0316438Y0126330D01*
X0316259Y0126162D01*
X0316075Y0126000D01*
X0315887Y0125842D01*
X0315695Y0125689D01*
X0315500Y0125540D01*
X0315301Y0125396D01*
X0315099Y0125257D01*
X0314893Y0125123D01*
X0314684Y0124995D01*
X0314472Y0124871D01*
X0314257Y0124753D01*
X0314039Y0124640D01*
X0313819Y0124532D01*
X0313595Y0124430D01*
X0313370Y0124333D01*
X0313142Y0124242D01*
X0312912Y0124157D01*
X0312680Y0124077D01*
X0312446Y0124003D01*
X0312210Y0123934D01*
X0311973Y0123872D01*
X0311734Y0123815D01*
X0311494Y0123764D01*
X0311253Y0123719D01*
X0311010Y0123680D01*
X0310767Y0123647D01*
X0310523Y0123620D01*
X0310279Y0123599D01*
X0310034Y0123584D01*
X0309788Y0123575D01*
X0309543Y0123572D01*
X0309298Y0123575D01*
X0309052Y0123584D01*
X0308807Y0123599D01*
X0308563Y0123620D01*
X0308319Y0123647D01*
X0308076Y0123680D01*
X0307833Y0123719D01*
X0307592Y0123764D01*
X0307352Y0123815D01*
X0307113Y0123872D01*
X0306876Y0123934D01*
X0306640Y0124003D01*
X0306406Y0124077D01*
X0306174Y0124157D01*
X0305944Y0124242D01*
X0305716Y0124333D01*
X0305491Y0124430D01*
X0305267Y0124532D01*
X0305047Y0124640D01*
X0304829Y0124753D01*
X0304614Y0124871D01*
X0304402Y0124995D01*
X0304193Y0125123D01*
X0303987Y0125257D01*
X0303785Y0125396D01*
X0303586Y0125540D01*
X0303391Y0125689D01*
X0303199Y0125842D01*
X0303011Y0126000D01*
X0302827Y0126162D01*
X0302648Y0126330D01*
X0302472Y0126501D01*
X0302301Y0126677D01*
X0302133Y0126856D01*
X0301971Y0127040D01*
X0301813Y0127228D01*
X0301660Y0127420D01*
X0301511Y0127615D01*
X0301367Y0127814D01*
X0301228Y0128016D01*
X0301094Y0128222D01*
X0300966Y0128431D01*
X0300842Y0128643D01*
X0300724Y0128858D01*
X0300611Y0129076D01*
X0300503Y0129296D01*
X0300401Y0129520D01*
X0300304Y0129745D01*
X0300213Y0129973D01*
X0300128Y0130203D01*
X0300048Y0130435D01*
X0299974Y0130669D01*
X0299905Y0130905D01*
X0299843Y0131142D01*
X0299786Y0131381D01*
X0299735Y0131621D01*
X0299690Y0131862D01*
X0299651Y0132105D01*
X0299618Y0132348D01*
X0299591Y0132592D01*
X0299570Y0132836D01*
X0299555Y0133081D01*
X0299546Y0133327D01*
X0299543Y0133572D01*
X0274070Y0138611D02*
X0274072Y0138752D01*
X0274078Y0138893D01*
X0274088Y0139033D01*
X0274102Y0139173D01*
X0274120Y0139313D01*
X0274141Y0139452D01*
X0274167Y0139591D01*
X0274196Y0139729D01*
X0274230Y0139865D01*
X0274267Y0140001D01*
X0274308Y0140136D01*
X0274353Y0140270D01*
X0274402Y0140402D01*
X0274454Y0140533D01*
X0274510Y0140662D01*
X0274570Y0140789D01*
X0274633Y0140915D01*
X0274699Y0141039D01*
X0274770Y0141162D01*
X0274843Y0141282D01*
X0274920Y0141400D01*
X0275000Y0141516D01*
X0275084Y0141629D01*
X0275170Y0141740D01*
X0275260Y0141849D01*
X0275353Y0141955D01*
X0275448Y0142058D01*
X0275547Y0142159D01*
X0275648Y0142257D01*
X0275752Y0142352D01*
X0275859Y0142444D01*
X0275968Y0142533D01*
X0276080Y0142618D01*
X0276194Y0142701D01*
X0276310Y0142781D01*
X0276429Y0142857D01*
X0276550Y0142929D01*
X0276672Y0142999D01*
X0276797Y0143064D01*
X0276923Y0143127D01*
X0277051Y0143185D01*
X0277181Y0143240D01*
X0277312Y0143292D01*
X0277445Y0143339D01*
X0277579Y0143383D01*
X0277714Y0143424D01*
X0277850Y0143460D01*
X0277987Y0143492D01*
X0278125Y0143521D01*
X0278263Y0143546D01*
X0278403Y0143566D01*
X0278543Y0143583D01*
X0278683Y0143596D01*
X0278824Y0143605D01*
X0278964Y0143610D01*
X0279105Y0143611D01*
X0279246Y0143608D01*
X0279387Y0143601D01*
X0279527Y0143590D01*
X0279667Y0143575D01*
X0279807Y0143556D01*
X0279946Y0143534D01*
X0280084Y0143507D01*
X0280222Y0143477D01*
X0280358Y0143442D01*
X0280494Y0143404D01*
X0280628Y0143362D01*
X0280762Y0143316D01*
X0280894Y0143267D01*
X0281024Y0143213D01*
X0281153Y0143156D01*
X0281280Y0143096D01*
X0281406Y0143032D01*
X0281529Y0142964D01*
X0281651Y0142893D01*
X0281771Y0142819D01*
X0281888Y0142741D01*
X0282003Y0142660D01*
X0282116Y0142576D01*
X0282227Y0142489D01*
X0282335Y0142398D01*
X0282440Y0142305D01*
X0282543Y0142208D01*
X0282643Y0142109D01*
X0282740Y0142007D01*
X0282834Y0141902D01*
X0282925Y0141795D01*
X0283013Y0141685D01*
X0283098Y0141573D01*
X0283180Y0141458D01*
X0283259Y0141341D01*
X0283334Y0141222D01*
X0283406Y0141101D01*
X0283474Y0140978D01*
X0283539Y0140853D01*
X0283601Y0140726D01*
X0283658Y0140597D01*
X0283713Y0140467D01*
X0283763Y0140336D01*
X0283810Y0140203D01*
X0283853Y0140069D01*
X0283892Y0139933D01*
X0283927Y0139797D01*
X0283959Y0139660D01*
X0283986Y0139522D01*
X0284010Y0139383D01*
X0284030Y0139243D01*
X0284046Y0139103D01*
X0284058Y0138963D01*
X0284066Y0138822D01*
X0284070Y0138681D01*
X0284070Y0138541D01*
X0284066Y0138400D01*
X0284058Y0138259D01*
X0284046Y0138119D01*
X0284030Y0137979D01*
X0284010Y0137839D01*
X0283986Y0137700D01*
X0283959Y0137562D01*
X0283927Y0137425D01*
X0283892Y0137289D01*
X0283853Y0137153D01*
X0283810Y0137019D01*
X0283763Y0136886D01*
X0283713Y0136755D01*
X0283658Y0136625D01*
X0283601Y0136496D01*
X0283539Y0136369D01*
X0283474Y0136244D01*
X0283406Y0136121D01*
X0283334Y0136000D01*
X0283259Y0135881D01*
X0283180Y0135764D01*
X0283098Y0135649D01*
X0283013Y0135537D01*
X0282925Y0135427D01*
X0282834Y0135320D01*
X0282740Y0135215D01*
X0282643Y0135113D01*
X0282543Y0135014D01*
X0282440Y0134917D01*
X0282335Y0134824D01*
X0282227Y0134733D01*
X0282116Y0134646D01*
X0282003Y0134562D01*
X0281888Y0134481D01*
X0281771Y0134403D01*
X0281651Y0134329D01*
X0281529Y0134258D01*
X0281406Y0134190D01*
X0281280Y0134126D01*
X0281153Y0134066D01*
X0281024Y0134009D01*
X0280894Y0133955D01*
X0280762Y0133906D01*
X0280628Y0133860D01*
X0280494Y0133818D01*
X0280358Y0133780D01*
X0280222Y0133745D01*
X0280084Y0133715D01*
X0279946Y0133688D01*
X0279807Y0133666D01*
X0279667Y0133647D01*
X0279527Y0133632D01*
X0279387Y0133621D01*
X0279246Y0133614D01*
X0279105Y0133611D01*
X0278964Y0133612D01*
X0278824Y0133617D01*
X0278683Y0133626D01*
X0278543Y0133639D01*
X0278403Y0133656D01*
X0278263Y0133676D01*
X0278125Y0133701D01*
X0277987Y0133730D01*
X0277850Y0133762D01*
X0277714Y0133798D01*
X0277579Y0133839D01*
X0277445Y0133883D01*
X0277312Y0133930D01*
X0277181Y0133982D01*
X0277051Y0134037D01*
X0276923Y0134095D01*
X0276797Y0134158D01*
X0276672Y0134223D01*
X0276550Y0134293D01*
X0276429Y0134365D01*
X0276310Y0134441D01*
X0276194Y0134521D01*
X0276080Y0134604D01*
X0275968Y0134689D01*
X0275859Y0134778D01*
X0275752Y0134870D01*
X0275648Y0134965D01*
X0275547Y0135063D01*
X0275448Y0135164D01*
X0275353Y0135267D01*
X0275260Y0135373D01*
X0275170Y0135482D01*
X0275084Y0135593D01*
X0275000Y0135706D01*
X0274920Y0135822D01*
X0274843Y0135940D01*
X0274770Y0136060D01*
X0274699Y0136183D01*
X0274633Y0136307D01*
X0274570Y0136433D01*
X0274510Y0136560D01*
X0274454Y0136689D01*
X0274402Y0136820D01*
X0274353Y0136952D01*
X0274308Y0137086D01*
X0274267Y0137221D01*
X0274230Y0137357D01*
X0274196Y0137493D01*
X0274167Y0137631D01*
X0274141Y0137770D01*
X0274120Y0137909D01*
X0274102Y0138049D01*
X0274088Y0138189D01*
X0274078Y0138329D01*
X0274072Y0138470D01*
X0274070Y0138611D01*
X0240937Y0123040D02*
X0240937Y0121461D01*
X0246437Y0120835D02*
X0246437Y0104339D01*
X0240937Y0103713D02*
X0240937Y0102135D01*
X0240937Y0111461D02*
X0240937Y0113713D01*
X0246437Y0120835D02*
X0246235Y0120990D01*
X0246030Y0121140D01*
X0245821Y0121286D01*
X0245608Y0121426D01*
X0245392Y0121560D01*
X0245173Y0121690D01*
X0244951Y0121814D01*
X0244726Y0121933D01*
X0244498Y0122046D01*
X0244268Y0122154D01*
X0244035Y0122256D01*
X0243799Y0122353D01*
X0243561Y0122444D01*
X0243322Y0122529D01*
X0243080Y0122608D01*
X0242836Y0122681D01*
X0242591Y0122748D01*
X0242344Y0122809D01*
X0242095Y0122865D01*
X0241845Y0122914D01*
X0241595Y0122957D01*
X0241343Y0122994D01*
X0241090Y0123025D01*
X0240837Y0123050D01*
X0240583Y0123069D01*
X0240329Y0123082D01*
X0240075Y0123088D01*
X0239820Y0123088D01*
X0239566Y0123082D01*
X0239311Y0123070D01*
X0239058Y0123052D01*
X0238804Y0123028D01*
X0238552Y0122997D01*
X0238300Y0122961D01*
X0238049Y0122918D01*
X0237799Y0122869D01*
X0237551Y0122814D01*
X0237304Y0122753D01*
X0237058Y0122687D01*
X0236814Y0122614D01*
X0236572Y0122535D01*
X0236332Y0122451D01*
X0236094Y0122360D01*
X0235858Y0122264D01*
X0235625Y0122163D01*
X0235394Y0122055D01*
X0235166Y0121943D01*
X0234941Y0121824D01*
X0234719Y0121700D01*
X0234499Y0121571D01*
X0234283Y0121437D01*
X0234070Y0121297D01*
X0233861Y0121152D01*
X0233655Y0121003D01*
X0233453Y0120848D01*
X0233255Y0120688D01*
X0233061Y0120524D01*
X0232870Y0120355D01*
X0232684Y0120182D01*
X0232502Y0120004D01*
X0232325Y0119821D01*
X0232152Y0119635D01*
X0231983Y0119444D01*
X0231819Y0119249D01*
X0231660Y0119050D01*
X0231506Y0118848D01*
X0231357Y0118642D01*
X0231213Y0118432D01*
X0231074Y0118219D01*
X0230940Y0118002D01*
X0230811Y0117783D01*
X0230688Y0117560D01*
X0230571Y0117334D01*
X0230458Y0117106D01*
X0230352Y0116875D01*
X0230250Y0116641D01*
X0230155Y0116405D01*
X0230066Y0116167D01*
X0229982Y0115927D01*
X0229904Y0115685D01*
X0229904Y0109491D02*
X0229982Y0109249D01*
X0230065Y0109009D01*
X0230155Y0108771D01*
X0230250Y0108535D01*
X0230352Y0108301D01*
X0230458Y0108070D01*
X0230570Y0107842D01*
X0230688Y0107616D01*
X0230811Y0107393D01*
X0230940Y0107174D01*
X0231074Y0106957D01*
X0231213Y0106744D01*
X0231357Y0106534D01*
X0231506Y0106328D01*
X0231660Y0106126D01*
X0231819Y0105927D01*
X0231983Y0105732D01*
X0232152Y0105542D01*
X0232325Y0105355D01*
X0232502Y0105173D01*
X0232684Y0104995D01*
X0232870Y0104821D01*
X0233061Y0104652D01*
X0233255Y0104488D01*
X0233453Y0104328D01*
X0233655Y0104173D01*
X0233861Y0104024D01*
X0234070Y0103879D01*
X0234283Y0103739D01*
X0234499Y0103605D01*
X0234718Y0103476D01*
X0234941Y0103352D01*
X0235166Y0103234D01*
X0235394Y0103121D01*
X0235625Y0103013D01*
X0235858Y0102912D01*
X0236094Y0102816D01*
X0236332Y0102725D01*
X0236572Y0102641D01*
X0236814Y0102562D01*
X0237058Y0102489D01*
X0237303Y0102423D01*
X0237550Y0102362D01*
X0237799Y0102307D01*
X0238049Y0102258D01*
X0238300Y0102215D01*
X0238551Y0102179D01*
X0238804Y0102148D01*
X0239057Y0102124D01*
X0239311Y0102106D01*
X0239565Y0102094D01*
X0239820Y0102088D01*
X0240074Y0102088D01*
X0240329Y0102094D01*
X0240583Y0102107D01*
X0240837Y0102126D01*
X0241090Y0102151D01*
X0241343Y0102182D01*
X0241594Y0102219D01*
X0241845Y0102262D01*
X0242095Y0102311D01*
X0242343Y0102366D01*
X0242590Y0102428D01*
X0242836Y0102495D01*
X0243079Y0102568D01*
X0243321Y0102647D01*
X0243561Y0102732D01*
X0243799Y0102823D01*
X0244035Y0102920D01*
X0244268Y0103022D01*
X0244498Y0103129D01*
X0244726Y0103243D01*
X0244951Y0103362D01*
X0245173Y0103486D01*
X0245392Y0103615D01*
X0245608Y0103750D01*
X0245821Y0103890D01*
X0246030Y0104035D01*
X0246235Y0104186D01*
X0246437Y0104341D01*
X0245878Y0092914D02*
X0247378Y0092914D01*
X0247878Y0092414D01*
X0266878Y0092414D01*
X0267378Y0092914D01*
X0268878Y0092914D01*
X0268938Y0092912D01*
X0268999Y0092907D01*
X0269058Y0092898D01*
X0269117Y0092885D01*
X0269176Y0092869D01*
X0269233Y0092849D01*
X0269288Y0092826D01*
X0269343Y0092799D01*
X0269395Y0092770D01*
X0269446Y0092737D01*
X0269495Y0092701D01*
X0269541Y0092663D01*
X0269585Y0092621D01*
X0269627Y0092577D01*
X0269665Y0092531D01*
X0269701Y0092482D01*
X0269734Y0092431D01*
X0269763Y0092379D01*
X0269790Y0092324D01*
X0269813Y0092269D01*
X0269833Y0092212D01*
X0269849Y0092153D01*
X0269862Y0092094D01*
X0269871Y0092035D01*
X0269876Y0091974D01*
X0269878Y0091914D01*
X0269878Y0084914D02*
X0269876Y0084854D01*
X0269871Y0084793D01*
X0269862Y0084734D01*
X0269849Y0084675D01*
X0269833Y0084616D01*
X0269813Y0084559D01*
X0269790Y0084504D01*
X0269763Y0084449D01*
X0269734Y0084397D01*
X0269701Y0084346D01*
X0269665Y0084297D01*
X0269627Y0084251D01*
X0269585Y0084207D01*
X0269541Y0084165D01*
X0269495Y0084127D01*
X0269446Y0084091D01*
X0269395Y0084058D01*
X0269343Y0084029D01*
X0269288Y0084002D01*
X0269233Y0083979D01*
X0269176Y0083959D01*
X0269117Y0083943D01*
X0269058Y0083930D01*
X0268999Y0083921D01*
X0268938Y0083916D01*
X0268878Y0083914D01*
X0267378Y0083914D01*
X0266878Y0084414D01*
X0247878Y0084414D01*
X0247378Y0083914D01*
X0245878Y0083914D01*
X0245818Y0083916D01*
X0245757Y0083921D01*
X0245698Y0083930D01*
X0245639Y0083943D01*
X0245580Y0083959D01*
X0245523Y0083979D01*
X0245468Y0084002D01*
X0245413Y0084029D01*
X0245361Y0084058D01*
X0245310Y0084091D01*
X0245261Y0084127D01*
X0245215Y0084165D01*
X0245171Y0084207D01*
X0245129Y0084251D01*
X0245091Y0084297D01*
X0245055Y0084346D01*
X0245022Y0084397D01*
X0244993Y0084449D01*
X0244966Y0084504D01*
X0244943Y0084559D01*
X0244923Y0084616D01*
X0244907Y0084675D01*
X0244894Y0084734D01*
X0244885Y0084793D01*
X0244880Y0084854D01*
X0244878Y0084914D01*
X0244878Y0091914D02*
X0244880Y0091974D01*
X0244885Y0092035D01*
X0244894Y0092094D01*
X0244907Y0092153D01*
X0244923Y0092212D01*
X0244943Y0092269D01*
X0244966Y0092324D01*
X0244993Y0092379D01*
X0245022Y0092431D01*
X0245055Y0092482D01*
X0245091Y0092531D01*
X0245129Y0092577D01*
X0245171Y0092621D01*
X0245215Y0092663D01*
X0245261Y0092701D01*
X0245310Y0092737D01*
X0245361Y0092770D01*
X0245413Y0092799D01*
X0245468Y0092826D01*
X0245523Y0092849D01*
X0245580Y0092869D01*
X0245639Y0092885D01*
X0245698Y0092898D01*
X0245757Y0092907D01*
X0245818Y0092912D01*
X0245878Y0092914D01*
X0216759Y0092879D02*
X0216759Y0100879D01*
X0216757Y0100939D01*
X0216752Y0101000D01*
X0216743Y0101059D01*
X0216730Y0101118D01*
X0216714Y0101177D01*
X0216694Y0101234D01*
X0216671Y0101289D01*
X0216644Y0101344D01*
X0216615Y0101396D01*
X0216582Y0101447D01*
X0216546Y0101496D01*
X0216508Y0101542D01*
X0216466Y0101586D01*
X0216422Y0101628D01*
X0216376Y0101666D01*
X0216327Y0101702D01*
X0216276Y0101735D01*
X0216224Y0101764D01*
X0216169Y0101791D01*
X0216114Y0101814D01*
X0216057Y0101834D01*
X0215998Y0101850D01*
X0215939Y0101863D01*
X0215880Y0101872D01*
X0215819Y0101877D01*
X0215759Y0101879D01*
X0188759Y0101879D01*
X0188699Y0101877D01*
X0188638Y0101872D01*
X0188579Y0101863D01*
X0188520Y0101850D01*
X0188461Y0101834D01*
X0188404Y0101814D01*
X0188349Y0101791D01*
X0188294Y0101764D01*
X0188242Y0101735D01*
X0188191Y0101702D01*
X0188142Y0101666D01*
X0188096Y0101628D01*
X0188052Y0101586D01*
X0188010Y0101542D01*
X0187972Y0101496D01*
X0187936Y0101447D01*
X0187903Y0101396D01*
X0187874Y0101344D01*
X0187847Y0101289D01*
X0187824Y0101234D01*
X0187804Y0101177D01*
X0187788Y0101118D01*
X0187775Y0101059D01*
X0187766Y0101000D01*
X0187761Y0100939D01*
X0187759Y0100879D01*
X0187759Y0092879D01*
X0187761Y0092819D01*
X0187766Y0092758D01*
X0187775Y0092699D01*
X0187788Y0092640D01*
X0187804Y0092581D01*
X0187824Y0092524D01*
X0187847Y0092469D01*
X0187874Y0092414D01*
X0187903Y0092362D01*
X0187936Y0092311D01*
X0187972Y0092262D01*
X0188010Y0092216D01*
X0188052Y0092172D01*
X0188096Y0092130D01*
X0188142Y0092092D01*
X0188191Y0092056D01*
X0188242Y0092023D01*
X0188294Y0091994D01*
X0188349Y0091967D01*
X0188404Y0091944D01*
X0188461Y0091924D01*
X0188520Y0091908D01*
X0188579Y0091895D01*
X0188638Y0091886D01*
X0188699Y0091881D01*
X0188759Y0091879D01*
X0215759Y0091879D01*
X0215819Y0091881D01*
X0215880Y0091886D01*
X0215939Y0091895D01*
X0215998Y0091908D01*
X0216057Y0091924D01*
X0216114Y0091944D01*
X0216169Y0091967D01*
X0216224Y0091994D01*
X0216276Y0092023D01*
X0216327Y0092056D01*
X0216376Y0092092D01*
X0216422Y0092130D01*
X0216466Y0092172D01*
X0216508Y0092216D01*
X0216546Y0092262D01*
X0216582Y0092311D01*
X0216615Y0092362D01*
X0216644Y0092414D01*
X0216671Y0092469D01*
X0216694Y0092524D01*
X0216714Y0092581D01*
X0216730Y0092640D01*
X0216743Y0092699D01*
X0216752Y0092758D01*
X0216757Y0092819D01*
X0216759Y0092879D01*
X0208259Y0096879D02*
X0203559Y0096879D01*
X0201059Y0096879D02*
X0196259Y0096879D01*
X0165527Y0096879D02*
X0165529Y0097020D01*
X0165535Y0097161D01*
X0165545Y0097301D01*
X0165559Y0097441D01*
X0165577Y0097581D01*
X0165598Y0097720D01*
X0165624Y0097859D01*
X0165653Y0097997D01*
X0165687Y0098133D01*
X0165724Y0098269D01*
X0165765Y0098404D01*
X0165810Y0098538D01*
X0165859Y0098670D01*
X0165911Y0098801D01*
X0165967Y0098930D01*
X0166027Y0099057D01*
X0166090Y0099183D01*
X0166156Y0099307D01*
X0166227Y0099430D01*
X0166300Y0099550D01*
X0166377Y0099668D01*
X0166457Y0099784D01*
X0166541Y0099897D01*
X0166627Y0100008D01*
X0166717Y0100117D01*
X0166810Y0100223D01*
X0166905Y0100326D01*
X0167004Y0100427D01*
X0167105Y0100525D01*
X0167209Y0100620D01*
X0167316Y0100712D01*
X0167425Y0100801D01*
X0167537Y0100886D01*
X0167651Y0100969D01*
X0167767Y0101049D01*
X0167886Y0101125D01*
X0168007Y0101197D01*
X0168129Y0101267D01*
X0168254Y0101332D01*
X0168380Y0101395D01*
X0168508Y0101453D01*
X0168638Y0101508D01*
X0168769Y0101560D01*
X0168902Y0101607D01*
X0169036Y0101651D01*
X0169171Y0101692D01*
X0169307Y0101728D01*
X0169444Y0101760D01*
X0169582Y0101789D01*
X0169720Y0101814D01*
X0169860Y0101834D01*
X0170000Y0101851D01*
X0170140Y0101864D01*
X0170281Y0101873D01*
X0170421Y0101878D01*
X0170562Y0101879D01*
X0170703Y0101876D01*
X0170844Y0101869D01*
X0170984Y0101858D01*
X0171124Y0101843D01*
X0171264Y0101824D01*
X0171403Y0101802D01*
X0171541Y0101775D01*
X0171679Y0101745D01*
X0171815Y0101710D01*
X0171951Y0101672D01*
X0172085Y0101630D01*
X0172219Y0101584D01*
X0172351Y0101535D01*
X0172481Y0101481D01*
X0172610Y0101424D01*
X0172737Y0101364D01*
X0172863Y0101300D01*
X0172986Y0101232D01*
X0173108Y0101161D01*
X0173228Y0101087D01*
X0173345Y0101009D01*
X0173460Y0100928D01*
X0173573Y0100844D01*
X0173684Y0100757D01*
X0173792Y0100666D01*
X0173897Y0100573D01*
X0174000Y0100476D01*
X0174100Y0100377D01*
X0174197Y0100275D01*
X0174291Y0100170D01*
X0174382Y0100063D01*
X0174470Y0099953D01*
X0174555Y0099841D01*
X0174637Y0099726D01*
X0174716Y0099609D01*
X0174791Y0099490D01*
X0174863Y0099369D01*
X0174931Y0099246D01*
X0174996Y0099121D01*
X0175058Y0098994D01*
X0175115Y0098865D01*
X0175170Y0098735D01*
X0175220Y0098604D01*
X0175267Y0098471D01*
X0175310Y0098337D01*
X0175349Y0098201D01*
X0175384Y0098065D01*
X0175416Y0097928D01*
X0175443Y0097790D01*
X0175467Y0097651D01*
X0175487Y0097511D01*
X0175503Y0097371D01*
X0175515Y0097231D01*
X0175523Y0097090D01*
X0175527Y0096949D01*
X0175527Y0096809D01*
X0175523Y0096668D01*
X0175515Y0096527D01*
X0175503Y0096387D01*
X0175487Y0096247D01*
X0175467Y0096107D01*
X0175443Y0095968D01*
X0175416Y0095830D01*
X0175384Y0095693D01*
X0175349Y0095557D01*
X0175310Y0095421D01*
X0175267Y0095287D01*
X0175220Y0095154D01*
X0175170Y0095023D01*
X0175115Y0094893D01*
X0175058Y0094764D01*
X0174996Y0094637D01*
X0174931Y0094512D01*
X0174863Y0094389D01*
X0174791Y0094268D01*
X0174716Y0094149D01*
X0174637Y0094032D01*
X0174555Y0093917D01*
X0174470Y0093805D01*
X0174382Y0093695D01*
X0174291Y0093588D01*
X0174197Y0093483D01*
X0174100Y0093381D01*
X0174000Y0093282D01*
X0173897Y0093185D01*
X0173792Y0093092D01*
X0173684Y0093001D01*
X0173573Y0092914D01*
X0173460Y0092830D01*
X0173345Y0092749D01*
X0173228Y0092671D01*
X0173108Y0092597D01*
X0172986Y0092526D01*
X0172863Y0092458D01*
X0172737Y0092394D01*
X0172610Y0092334D01*
X0172481Y0092277D01*
X0172351Y0092223D01*
X0172219Y0092174D01*
X0172085Y0092128D01*
X0171951Y0092086D01*
X0171815Y0092048D01*
X0171679Y0092013D01*
X0171541Y0091983D01*
X0171403Y0091956D01*
X0171264Y0091934D01*
X0171124Y0091915D01*
X0170984Y0091900D01*
X0170844Y0091889D01*
X0170703Y0091882D01*
X0170562Y0091879D01*
X0170421Y0091880D01*
X0170281Y0091885D01*
X0170140Y0091894D01*
X0170000Y0091907D01*
X0169860Y0091924D01*
X0169720Y0091944D01*
X0169582Y0091969D01*
X0169444Y0091998D01*
X0169307Y0092030D01*
X0169171Y0092066D01*
X0169036Y0092107D01*
X0168902Y0092151D01*
X0168769Y0092198D01*
X0168638Y0092250D01*
X0168508Y0092305D01*
X0168380Y0092363D01*
X0168254Y0092426D01*
X0168129Y0092491D01*
X0168007Y0092561D01*
X0167886Y0092633D01*
X0167767Y0092709D01*
X0167651Y0092789D01*
X0167537Y0092872D01*
X0167425Y0092957D01*
X0167316Y0093046D01*
X0167209Y0093138D01*
X0167105Y0093233D01*
X0167004Y0093331D01*
X0166905Y0093432D01*
X0166810Y0093535D01*
X0166717Y0093641D01*
X0166627Y0093750D01*
X0166541Y0093861D01*
X0166457Y0093974D01*
X0166377Y0094090D01*
X0166300Y0094208D01*
X0166227Y0094328D01*
X0166156Y0094451D01*
X0166090Y0094575D01*
X0166027Y0094701D01*
X0165967Y0094828D01*
X0165911Y0094957D01*
X0165859Y0095088D01*
X0165810Y0095220D01*
X0165765Y0095354D01*
X0165724Y0095489D01*
X0165687Y0095625D01*
X0165653Y0095761D01*
X0165624Y0095899D01*
X0165598Y0096038D01*
X0165577Y0096177D01*
X0165559Y0096317D01*
X0165545Y0096457D01*
X0165535Y0096597D01*
X0165529Y0096738D01*
X0165527Y0096879D01*
X0142283Y0092398D02*
X0142283Y0090398D01*
X0134283Y0090398D01*
X0134283Y0092398D01*
X0138283Y0092398D01*
X0142283Y0092398D01*
X0140783Y0093398D02*
X0140783Y0095398D01*
X0139783Y0094398D02*
X0141783Y0094398D01*
X0138283Y0094898D02*
X0138283Y0092398D01*
X0132939Y0100698D02*
X0132666Y0100565D01*
X0132397Y0100425D01*
X0132131Y0100279D01*
X0131868Y0100127D01*
X0131610Y0099968D01*
X0131355Y0099803D01*
X0131105Y0099631D01*
X0130858Y0099454D01*
X0130616Y0099271D01*
X0130379Y0099082D01*
X0130146Y0098887D01*
X0129918Y0098687D01*
X0129695Y0098481D01*
X0129477Y0098270D01*
X0129264Y0098053D01*
X0129057Y0097832D01*
X0128855Y0097605D01*
X0128658Y0097374D01*
X0128467Y0097138D01*
X0128282Y0096897D01*
X0128103Y0096652D01*
X0127930Y0096403D01*
X0127763Y0096150D01*
X0127602Y0095892D01*
X0127448Y0095631D01*
X0127300Y0095366D01*
X0127158Y0095098D01*
X0127023Y0094826D01*
X0126895Y0094551D01*
X0126773Y0094273D01*
X0126658Y0093992D01*
X0126550Y0093708D01*
X0126449Y0093422D01*
X0126354Y0093134D01*
X0126267Y0092843D01*
X0126187Y0092550D01*
X0126114Y0092256D01*
X0126048Y0091960D01*
X0125990Y0091662D01*
X0125938Y0091363D01*
X0125894Y0091062D01*
X0125858Y0090761D01*
X0125828Y0090459D01*
X0125806Y0090156D01*
X0125791Y0089853D01*
X0125784Y0089550D01*
X0125784Y0089246D01*
X0125791Y0088943D01*
X0125806Y0088640D01*
X0125828Y0088337D01*
X0125858Y0088035D01*
X0125894Y0087734D01*
X0125938Y0087433D01*
X0125990Y0087134D01*
X0126048Y0086836D01*
X0126114Y0086540D01*
X0126187Y0086246D01*
X0126267Y0085953D01*
X0126354Y0085662D01*
X0126449Y0085374D01*
X0126550Y0085088D01*
X0126658Y0084804D01*
X0126773Y0084523D01*
X0126895Y0084245D01*
X0127023Y0083970D01*
X0127158Y0083698D01*
X0127300Y0083430D01*
X0127448Y0083165D01*
X0127602Y0082904D01*
X0127763Y0082646D01*
X0127930Y0082393D01*
X0128103Y0082144D01*
X0128282Y0081899D01*
X0128467Y0081658D01*
X0128658Y0081422D01*
X0128855Y0081191D01*
X0129057Y0080964D01*
X0129264Y0080743D01*
X0129477Y0080526D01*
X0129695Y0080315D01*
X0129918Y0080109D01*
X0130146Y0079909D01*
X0130379Y0079714D01*
X0130616Y0079525D01*
X0130858Y0079342D01*
X0131105Y0079165D01*
X0131355Y0078993D01*
X0131610Y0078828D01*
X0131868Y0078669D01*
X0132131Y0078517D01*
X0132397Y0078371D01*
X0132666Y0078231D01*
X0132939Y0078098D01*
X0138283Y0083898D02*
X0138283Y0086898D01*
X0143627Y0078098D02*
X0143900Y0078231D01*
X0144169Y0078371D01*
X0144435Y0078517D01*
X0144698Y0078669D01*
X0144956Y0078828D01*
X0145211Y0078993D01*
X0145461Y0079165D01*
X0145708Y0079342D01*
X0145950Y0079525D01*
X0146187Y0079714D01*
X0146420Y0079909D01*
X0146648Y0080109D01*
X0146871Y0080315D01*
X0147089Y0080526D01*
X0147302Y0080743D01*
X0147509Y0080964D01*
X0147711Y0081191D01*
X0147908Y0081422D01*
X0148099Y0081658D01*
X0148284Y0081899D01*
X0148463Y0082144D01*
X0148636Y0082393D01*
X0148803Y0082646D01*
X0148964Y0082904D01*
X0149118Y0083165D01*
X0149266Y0083430D01*
X0149408Y0083698D01*
X0149543Y0083970D01*
X0149671Y0084245D01*
X0149793Y0084523D01*
X0149908Y0084804D01*
X0150016Y0085088D01*
X0150117Y0085374D01*
X0150212Y0085662D01*
X0150299Y0085953D01*
X0150379Y0086246D01*
X0150452Y0086540D01*
X0150518Y0086836D01*
X0150576Y0087134D01*
X0150628Y0087433D01*
X0150672Y0087734D01*
X0150708Y0088035D01*
X0150738Y0088337D01*
X0150760Y0088640D01*
X0150775Y0088943D01*
X0150782Y0089246D01*
X0150782Y0089550D01*
X0150775Y0089853D01*
X0150760Y0090156D01*
X0150738Y0090459D01*
X0150708Y0090761D01*
X0150672Y0091062D01*
X0150628Y0091363D01*
X0150576Y0091662D01*
X0150518Y0091960D01*
X0150452Y0092256D01*
X0150379Y0092550D01*
X0150299Y0092843D01*
X0150212Y0093134D01*
X0150117Y0093422D01*
X0150016Y0093708D01*
X0149908Y0093992D01*
X0149793Y0094273D01*
X0149671Y0094551D01*
X0149543Y0094826D01*
X0149408Y0095098D01*
X0149266Y0095366D01*
X0149118Y0095631D01*
X0148964Y0095892D01*
X0148803Y0096150D01*
X0148636Y0096403D01*
X0148463Y0096652D01*
X0148284Y0096897D01*
X0148099Y0097138D01*
X0147908Y0097374D01*
X0147711Y0097605D01*
X0147509Y0097832D01*
X0147302Y0098053D01*
X0147089Y0098270D01*
X0146871Y0098481D01*
X0146648Y0098687D01*
X0146420Y0098887D01*
X0146187Y0099082D01*
X0145950Y0099271D01*
X0145708Y0099454D01*
X0145461Y0099631D01*
X0145211Y0099803D01*
X0144956Y0099968D01*
X0144698Y0100127D01*
X0144435Y0100279D01*
X0144169Y0100425D01*
X0143900Y0100565D01*
X0143627Y0100698D01*
X0142283Y0107379D02*
X0134283Y0107379D01*
X0134223Y0107381D01*
X0134162Y0107386D01*
X0134103Y0107395D01*
X0134044Y0107408D01*
X0133985Y0107424D01*
X0133928Y0107444D01*
X0133873Y0107467D01*
X0133818Y0107494D01*
X0133766Y0107523D01*
X0133715Y0107556D01*
X0133666Y0107592D01*
X0133620Y0107630D01*
X0133576Y0107672D01*
X0133534Y0107716D01*
X0133496Y0107762D01*
X0133460Y0107811D01*
X0133427Y0107862D01*
X0133398Y0107914D01*
X0133371Y0107969D01*
X0133348Y0108024D01*
X0133328Y0108081D01*
X0133312Y0108140D01*
X0133299Y0108199D01*
X0133290Y0108258D01*
X0133285Y0108319D01*
X0133283Y0108379D01*
X0133283Y0135379D01*
X0133285Y0135439D01*
X0133290Y0135500D01*
X0133299Y0135559D01*
X0133312Y0135618D01*
X0133328Y0135677D01*
X0133348Y0135734D01*
X0133371Y0135789D01*
X0133398Y0135844D01*
X0133427Y0135896D01*
X0133460Y0135947D01*
X0133496Y0135996D01*
X0133534Y0136042D01*
X0133576Y0136086D01*
X0133620Y0136128D01*
X0133666Y0136166D01*
X0133715Y0136202D01*
X0133766Y0136235D01*
X0133818Y0136264D01*
X0133873Y0136291D01*
X0133928Y0136314D01*
X0133985Y0136334D01*
X0134044Y0136350D01*
X0134103Y0136363D01*
X0134162Y0136372D01*
X0134223Y0136377D01*
X0134283Y0136379D01*
X0142283Y0136379D01*
X0142343Y0136377D01*
X0142404Y0136372D01*
X0142463Y0136363D01*
X0142522Y0136350D01*
X0142581Y0136334D01*
X0142638Y0136314D01*
X0142693Y0136291D01*
X0142748Y0136264D01*
X0142800Y0136235D01*
X0142851Y0136202D01*
X0142900Y0136166D01*
X0142946Y0136128D01*
X0142990Y0136086D01*
X0143032Y0136042D01*
X0143070Y0135996D01*
X0143106Y0135947D01*
X0143139Y0135896D01*
X0143168Y0135844D01*
X0143195Y0135789D01*
X0143218Y0135734D01*
X0143238Y0135677D01*
X0143254Y0135618D01*
X0143267Y0135559D01*
X0143276Y0135500D01*
X0143281Y0135439D01*
X0143283Y0135379D01*
X0143283Y0108379D01*
X0143281Y0108319D01*
X0143276Y0108258D01*
X0143267Y0108199D01*
X0143254Y0108140D01*
X0143238Y0108081D01*
X0143218Y0108024D01*
X0143195Y0107969D01*
X0143168Y0107914D01*
X0143139Y0107862D01*
X0143106Y0107811D01*
X0143070Y0107762D01*
X0143032Y0107716D01*
X0142990Y0107672D01*
X0142946Y0107630D01*
X0142900Y0107592D01*
X0142851Y0107556D01*
X0142800Y0107523D01*
X0142748Y0107494D01*
X0142693Y0107467D01*
X0142638Y0107444D01*
X0142581Y0107424D01*
X0142522Y0107408D01*
X0142463Y0107395D01*
X0142404Y0107386D01*
X0142343Y0107381D01*
X0142283Y0107379D01*
X0147878Y0110379D02*
X0147878Y0111879D01*
X0148378Y0112379D01*
X0148378Y0131379D01*
X0147878Y0131879D01*
X0147878Y0133379D01*
X0147880Y0133439D01*
X0147885Y0133500D01*
X0147894Y0133559D01*
X0147907Y0133618D01*
X0147923Y0133677D01*
X0147943Y0133734D01*
X0147966Y0133789D01*
X0147993Y0133844D01*
X0148022Y0133896D01*
X0148055Y0133947D01*
X0148091Y0133996D01*
X0148129Y0134042D01*
X0148171Y0134086D01*
X0148215Y0134128D01*
X0148261Y0134166D01*
X0148310Y0134202D01*
X0148361Y0134235D01*
X0148413Y0134264D01*
X0148468Y0134291D01*
X0148523Y0134314D01*
X0148580Y0134334D01*
X0148639Y0134350D01*
X0148698Y0134363D01*
X0148757Y0134372D01*
X0148818Y0134377D01*
X0148878Y0134379D01*
X0155878Y0134379D02*
X0155938Y0134377D01*
X0155999Y0134372D01*
X0156058Y0134363D01*
X0156117Y0134350D01*
X0156176Y0134334D01*
X0156233Y0134314D01*
X0156288Y0134291D01*
X0156343Y0134264D01*
X0156395Y0134235D01*
X0156446Y0134202D01*
X0156495Y0134166D01*
X0156541Y0134128D01*
X0156585Y0134086D01*
X0156627Y0134042D01*
X0156665Y0133996D01*
X0156701Y0133947D01*
X0156734Y0133896D01*
X0156763Y0133844D01*
X0156790Y0133789D01*
X0156813Y0133734D01*
X0156833Y0133677D01*
X0156849Y0133618D01*
X0156862Y0133559D01*
X0156871Y0133500D01*
X0156876Y0133439D01*
X0156878Y0133379D01*
X0156878Y0131879D01*
X0156378Y0131379D01*
X0156378Y0112379D01*
X0156878Y0111879D01*
X0156878Y0110379D01*
X0156876Y0110319D01*
X0156871Y0110258D01*
X0156862Y0110199D01*
X0156849Y0110140D01*
X0156833Y0110081D01*
X0156813Y0110024D01*
X0156790Y0109969D01*
X0156763Y0109914D01*
X0156734Y0109862D01*
X0156701Y0109811D01*
X0156665Y0109762D01*
X0156627Y0109716D01*
X0156585Y0109672D01*
X0156541Y0109630D01*
X0156495Y0109592D01*
X0156446Y0109556D01*
X0156395Y0109523D01*
X0156343Y0109494D01*
X0156288Y0109467D01*
X0156233Y0109444D01*
X0156176Y0109424D01*
X0156117Y0109408D01*
X0156058Y0109395D01*
X0155999Y0109386D01*
X0155938Y0109381D01*
X0155878Y0109379D01*
X0148878Y0109379D02*
X0148818Y0109381D01*
X0148757Y0109386D01*
X0148698Y0109395D01*
X0148639Y0109408D01*
X0148580Y0109424D01*
X0148523Y0109444D01*
X0148468Y0109467D01*
X0148413Y0109494D01*
X0148361Y0109523D01*
X0148310Y0109556D01*
X0148261Y0109592D01*
X0148215Y0109630D01*
X0148171Y0109672D01*
X0148129Y0109716D01*
X0148091Y0109762D01*
X0148055Y0109811D01*
X0148022Y0109862D01*
X0147993Y0109914D01*
X0147966Y0109969D01*
X0147943Y0110024D01*
X0147923Y0110081D01*
X0147907Y0110140D01*
X0147894Y0110199D01*
X0147885Y0110258D01*
X0147880Y0110319D01*
X0147878Y0110379D01*
X0138283Y0115879D02*
X0138283Y0120679D01*
X0138283Y0123179D02*
X0138283Y0127879D01*
X0165527Y0125879D02*
X0165527Y0133379D01*
X0205527Y0133379D01*
X0205527Y0110379D01*
X0165527Y0110379D01*
X0165527Y0117879D01*
X0165653Y0117881D01*
X0165778Y0117887D01*
X0165903Y0117897D01*
X0166028Y0117911D01*
X0166153Y0117928D01*
X0166277Y0117950D01*
X0166400Y0117975D01*
X0166522Y0118005D01*
X0166643Y0118038D01*
X0166763Y0118075D01*
X0166882Y0118115D01*
X0166999Y0118160D01*
X0167116Y0118208D01*
X0167230Y0118260D01*
X0167343Y0118315D01*
X0167454Y0118374D01*
X0167563Y0118436D01*
X0167670Y0118502D01*
X0167775Y0118571D01*
X0167878Y0118643D01*
X0167979Y0118718D01*
X0168077Y0118797D01*
X0168172Y0118879D01*
X0168265Y0118963D01*
X0168355Y0119051D01*
X0168443Y0119141D01*
X0168527Y0119234D01*
X0168609Y0119329D01*
X0168688Y0119427D01*
X0168763Y0119528D01*
X0168835Y0119631D01*
X0168904Y0119736D01*
X0168970Y0119843D01*
X0169032Y0119952D01*
X0169091Y0120063D01*
X0169146Y0120176D01*
X0169198Y0120290D01*
X0169246Y0120407D01*
X0169291Y0120524D01*
X0169331Y0120643D01*
X0169368Y0120763D01*
X0169401Y0120884D01*
X0169431Y0121006D01*
X0169456Y0121129D01*
X0169478Y0121253D01*
X0169495Y0121378D01*
X0169509Y0121503D01*
X0169519Y0121628D01*
X0169525Y0121753D01*
X0169527Y0121879D01*
X0169525Y0122005D01*
X0169519Y0122130D01*
X0169509Y0122255D01*
X0169495Y0122380D01*
X0169478Y0122505D01*
X0169456Y0122629D01*
X0169431Y0122752D01*
X0169401Y0122874D01*
X0169368Y0122995D01*
X0169331Y0123115D01*
X0169291Y0123234D01*
X0169246Y0123351D01*
X0169198Y0123468D01*
X0169146Y0123582D01*
X0169091Y0123695D01*
X0169032Y0123806D01*
X0168970Y0123915D01*
X0168904Y0124022D01*
X0168835Y0124127D01*
X0168763Y0124230D01*
X0168688Y0124331D01*
X0168609Y0124429D01*
X0168527Y0124524D01*
X0168443Y0124617D01*
X0168355Y0124707D01*
X0168265Y0124795D01*
X0168172Y0124879D01*
X0168077Y0124961D01*
X0167979Y0125040D01*
X0167878Y0125115D01*
X0167775Y0125187D01*
X0167670Y0125256D01*
X0167563Y0125322D01*
X0167454Y0125384D01*
X0167343Y0125443D01*
X0167230Y0125498D01*
X0167116Y0125550D01*
X0166999Y0125598D01*
X0166882Y0125643D01*
X0166763Y0125683D01*
X0166643Y0125720D01*
X0166522Y0125753D01*
X0166400Y0125783D01*
X0166277Y0125808D01*
X0166153Y0125830D01*
X0166028Y0125847D01*
X0165903Y0125861D01*
X0165778Y0125871D01*
X0165653Y0125877D01*
X0165527Y0125879D01*
X0178606Y0142501D02*
X0178606Y0148501D01*
X0182606Y0145501D01*
X0182606Y0148501D01*
X0182606Y0145501D02*
X0182606Y0142501D01*
X0182606Y0145501D02*
X0178606Y0142501D01*
X0189385Y0142828D02*
X0189385Y0169828D01*
X0189387Y0169888D01*
X0189392Y0169949D01*
X0189401Y0170008D01*
X0189414Y0170067D01*
X0189430Y0170126D01*
X0189450Y0170183D01*
X0189473Y0170238D01*
X0189500Y0170293D01*
X0189529Y0170345D01*
X0189562Y0170396D01*
X0189598Y0170445D01*
X0189636Y0170491D01*
X0189678Y0170535D01*
X0189722Y0170577D01*
X0189768Y0170615D01*
X0189817Y0170651D01*
X0189868Y0170684D01*
X0189920Y0170713D01*
X0189975Y0170740D01*
X0190030Y0170763D01*
X0190087Y0170783D01*
X0190146Y0170799D01*
X0190205Y0170812D01*
X0190264Y0170821D01*
X0190325Y0170826D01*
X0190385Y0170828D01*
X0198385Y0170828D01*
X0198445Y0170826D01*
X0198506Y0170821D01*
X0198565Y0170812D01*
X0198624Y0170799D01*
X0198683Y0170783D01*
X0198740Y0170763D01*
X0198795Y0170740D01*
X0198850Y0170713D01*
X0198902Y0170684D01*
X0198953Y0170651D01*
X0199002Y0170615D01*
X0199048Y0170577D01*
X0199092Y0170535D01*
X0199134Y0170491D01*
X0199172Y0170445D01*
X0199208Y0170396D01*
X0199241Y0170345D01*
X0199270Y0170293D01*
X0199297Y0170238D01*
X0199320Y0170183D01*
X0199340Y0170126D01*
X0199356Y0170067D01*
X0199369Y0170008D01*
X0199378Y0169949D01*
X0199383Y0169888D01*
X0199385Y0169828D01*
X0199385Y0142828D01*
X0199383Y0142768D01*
X0199378Y0142707D01*
X0199369Y0142648D01*
X0199356Y0142589D01*
X0199340Y0142530D01*
X0199320Y0142473D01*
X0199297Y0142418D01*
X0199270Y0142363D01*
X0199241Y0142311D01*
X0199208Y0142260D01*
X0199172Y0142211D01*
X0199134Y0142165D01*
X0199092Y0142121D01*
X0199048Y0142079D01*
X0199002Y0142041D01*
X0198953Y0142005D01*
X0198902Y0141972D01*
X0198850Y0141943D01*
X0198795Y0141916D01*
X0198740Y0141893D01*
X0198683Y0141873D01*
X0198624Y0141857D01*
X0198565Y0141844D01*
X0198506Y0141835D01*
X0198445Y0141830D01*
X0198385Y0141828D01*
X0190385Y0141828D01*
X0190325Y0141830D01*
X0190264Y0141835D01*
X0190205Y0141844D01*
X0190146Y0141857D01*
X0190087Y0141873D01*
X0190030Y0141893D01*
X0189975Y0141916D01*
X0189920Y0141943D01*
X0189868Y0141972D01*
X0189817Y0142005D01*
X0189768Y0142041D01*
X0189722Y0142079D01*
X0189678Y0142121D01*
X0189636Y0142165D01*
X0189598Y0142211D01*
X0189562Y0142260D01*
X0189529Y0142311D01*
X0189500Y0142363D01*
X0189473Y0142418D01*
X0189450Y0142473D01*
X0189430Y0142530D01*
X0189414Y0142589D01*
X0189401Y0142648D01*
X0189392Y0142707D01*
X0189387Y0142768D01*
X0189385Y0142828D01*
X0194385Y0150328D02*
X0194385Y0155128D01*
X0194385Y0157628D02*
X0194385Y0162328D01*
X0201393Y0151288D02*
X0201395Y0151429D01*
X0201401Y0151570D01*
X0201411Y0151710D01*
X0201425Y0151850D01*
X0201443Y0151990D01*
X0201464Y0152129D01*
X0201490Y0152268D01*
X0201519Y0152406D01*
X0201553Y0152542D01*
X0201590Y0152678D01*
X0201631Y0152813D01*
X0201676Y0152947D01*
X0201725Y0153079D01*
X0201777Y0153210D01*
X0201833Y0153339D01*
X0201893Y0153466D01*
X0201956Y0153592D01*
X0202022Y0153716D01*
X0202093Y0153839D01*
X0202166Y0153959D01*
X0202243Y0154077D01*
X0202323Y0154193D01*
X0202407Y0154306D01*
X0202493Y0154417D01*
X0202583Y0154526D01*
X0202676Y0154632D01*
X0202771Y0154735D01*
X0202870Y0154836D01*
X0202971Y0154934D01*
X0203075Y0155029D01*
X0203182Y0155121D01*
X0203291Y0155210D01*
X0203403Y0155295D01*
X0203517Y0155378D01*
X0203633Y0155458D01*
X0203752Y0155534D01*
X0203873Y0155606D01*
X0203995Y0155676D01*
X0204120Y0155741D01*
X0204246Y0155804D01*
X0204374Y0155862D01*
X0204504Y0155917D01*
X0204635Y0155969D01*
X0204768Y0156016D01*
X0204902Y0156060D01*
X0205037Y0156101D01*
X0205173Y0156137D01*
X0205310Y0156169D01*
X0205448Y0156198D01*
X0205586Y0156223D01*
X0205726Y0156243D01*
X0205866Y0156260D01*
X0206006Y0156273D01*
X0206147Y0156282D01*
X0206287Y0156287D01*
X0206428Y0156288D01*
X0206569Y0156285D01*
X0206710Y0156278D01*
X0206850Y0156267D01*
X0206990Y0156252D01*
X0207130Y0156233D01*
X0207269Y0156211D01*
X0207407Y0156184D01*
X0207545Y0156154D01*
X0207681Y0156119D01*
X0207817Y0156081D01*
X0207951Y0156039D01*
X0208085Y0155993D01*
X0208217Y0155944D01*
X0208347Y0155890D01*
X0208476Y0155833D01*
X0208603Y0155773D01*
X0208729Y0155709D01*
X0208852Y0155641D01*
X0208974Y0155570D01*
X0209094Y0155496D01*
X0209211Y0155418D01*
X0209326Y0155337D01*
X0209439Y0155253D01*
X0209550Y0155166D01*
X0209658Y0155075D01*
X0209763Y0154982D01*
X0209866Y0154885D01*
X0209966Y0154786D01*
X0210063Y0154684D01*
X0210157Y0154579D01*
X0210248Y0154472D01*
X0210336Y0154362D01*
X0210421Y0154250D01*
X0210503Y0154135D01*
X0210582Y0154018D01*
X0210657Y0153899D01*
X0210729Y0153778D01*
X0210797Y0153655D01*
X0210862Y0153530D01*
X0210924Y0153403D01*
X0210981Y0153274D01*
X0211036Y0153144D01*
X0211086Y0153013D01*
X0211133Y0152880D01*
X0211176Y0152746D01*
X0211215Y0152610D01*
X0211250Y0152474D01*
X0211282Y0152337D01*
X0211309Y0152199D01*
X0211333Y0152060D01*
X0211353Y0151920D01*
X0211369Y0151780D01*
X0211381Y0151640D01*
X0211389Y0151499D01*
X0211393Y0151358D01*
X0211393Y0151218D01*
X0211389Y0151077D01*
X0211381Y0150936D01*
X0211369Y0150796D01*
X0211353Y0150656D01*
X0211333Y0150516D01*
X0211309Y0150377D01*
X0211282Y0150239D01*
X0211250Y0150102D01*
X0211215Y0149966D01*
X0211176Y0149830D01*
X0211133Y0149696D01*
X0211086Y0149563D01*
X0211036Y0149432D01*
X0210981Y0149302D01*
X0210924Y0149173D01*
X0210862Y0149046D01*
X0210797Y0148921D01*
X0210729Y0148798D01*
X0210657Y0148677D01*
X0210582Y0148558D01*
X0210503Y0148441D01*
X0210421Y0148326D01*
X0210336Y0148214D01*
X0210248Y0148104D01*
X0210157Y0147997D01*
X0210063Y0147892D01*
X0209966Y0147790D01*
X0209866Y0147691D01*
X0209763Y0147594D01*
X0209658Y0147501D01*
X0209550Y0147410D01*
X0209439Y0147323D01*
X0209326Y0147239D01*
X0209211Y0147158D01*
X0209094Y0147080D01*
X0208974Y0147006D01*
X0208852Y0146935D01*
X0208729Y0146867D01*
X0208603Y0146803D01*
X0208476Y0146743D01*
X0208347Y0146686D01*
X0208217Y0146632D01*
X0208085Y0146583D01*
X0207951Y0146537D01*
X0207817Y0146495D01*
X0207681Y0146457D01*
X0207545Y0146422D01*
X0207407Y0146392D01*
X0207269Y0146365D01*
X0207130Y0146343D01*
X0206990Y0146324D01*
X0206850Y0146309D01*
X0206710Y0146298D01*
X0206569Y0146291D01*
X0206428Y0146288D01*
X0206287Y0146289D01*
X0206147Y0146294D01*
X0206006Y0146303D01*
X0205866Y0146316D01*
X0205726Y0146333D01*
X0205586Y0146353D01*
X0205448Y0146378D01*
X0205310Y0146407D01*
X0205173Y0146439D01*
X0205037Y0146475D01*
X0204902Y0146516D01*
X0204768Y0146560D01*
X0204635Y0146607D01*
X0204504Y0146659D01*
X0204374Y0146714D01*
X0204246Y0146772D01*
X0204120Y0146835D01*
X0203995Y0146900D01*
X0203873Y0146970D01*
X0203752Y0147042D01*
X0203633Y0147118D01*
X0203517Y0147198D01*
X0203403Y0147281D01*
X0203291Y0147366D01*
X0203182Y0147455D01*
X0203075Y0147547D01*
X0202971Y0147642D01*
X0202870Y0147740D01*
X0202771Y0147841D01*
X0202676Y0147944D01*
X0202583Y0148050D01*
X0202493Y0148159D01*
X0202407Y0148270D01*
X0202323Y0148383D01*
X0202243Y0148499D01*
X0202166Y0148617D01*
X0202093Y0148737D01*
X0202022Y0148860D01*
X0201956Y0148984D01*
X0201893Y0149110D01*
X0201833Y0149237D01*
X0201777Y0149366D01*
X0201725Y0149497D01*
X0201676Y0149629D01*
X0201631Y0149763D01*
X0201590Y0149898D01*
X0201553Y0150034D01*
X0201519Y0150170D01*
X0201490Y0150308D01*
X0201464Y0150447D01*
X0201443Y0150586D01*
X0201425Y0150726D01*
X0201411Y0150866D01*
X0201401Y0151006D01*
X0201395Y0151147D01*
X0201393Y0151288D01*
X0223956Y0151328D02*
X0223956Y0150328D01*
X0223956Y0151328D02*
X0224456Y0151828D01*
X0224456Y0160828D01*
X0223956Y0161328D01*
X0223956Y0162328D01*
X0223958Y0162388D01*
X0223963Y0162449D01*
X0223972Y0162508D01*
X0223985Y0162567D01*
X0224001Y0162626D01*
X0224021Y0162683D01*
X0224044Y0162738D01*
X0224071Y0162793D01*
X0224100Y0162845D01*
X0224133Y0162896D01*
X0224169Y0162945D01*
X0224207Y0162991D01*
X0224249Y0163035D01*
X0224293Y0163077D01*
X0224339Y0163115D01*
X0224388Y0163151D01*
X0224439Y0163184D01*
X0224491Y0163213D01*
X0224546Y0163240D01*
X0224601Y0163263D01*
X0224658Y0163283D01*
X0224717Y0163299D01*
X0224776Y0163312D01*
X0224835Y0163321D01*
X0224896Y0163326D01*
X0224956Y0163328D01*
X0229956Y0163328D02*
X0230016Y0163326D01*
X0230077Y0163321D01*
X0230136Y0163312D01*
X0230195Y0163299D01*
X0230254Y0163283D01*
X0230311Y0163263D01*
X0230366Y0163240D01*
X0230421Y0163213D01*
X0230473Y0163184D01*
X0230524Y0163151D01*
X0230573Y0163115D01*
X0230619Y0163077D01*
X0230663Y0163035D01*
X0230705Y0162991D01*
X0230743Y0162945D01*
X0230779Y0162896D01*
X0230812Y0162845D01*
X0230841Y0162793D01*
X0230868Y0162738D01*
X0230891Y0162683D01*
X0230911Y0162626D01*
X0230927Y0162567D01*
X0230940Y0162508D01*
X0230949Y0162449D01*
X0230954Y0162388D01*
X0230956Y0162328D01*
X0230956Y0161328D01*
X0230456Y0160828D01*
X0230456Y0151828D01*
X0230956Y0151328D01*
X0230956Y0150328D01*
X0230954Y0150268D01*
X0230949Y0150207D01*
X0230940Y0150148D01*
X0230927Y0150089D01*
X0230911Y0150030D01*
X0230891Y0149973D01*
X0230868Y0149918D01*
X0230841Y0149863D01*
X0230812Y0149811D01*
X0230779Y0149760D01*
X0230743Y0149711D01*
X0230705Y0149665D01*
X0230663Y0149621D01*
X0230619Y0149579D01*
X0230573Y0149541D01*
X0230524Y0149505D01*
X0230473Y0149472D01*
X0230421Y0149443D01*
X0230366Y0149416D01*
X0230311Y0149393D01*
X0230254Y0149373D01*
X0230195Y0149357D01*
X0230136Y0149344D01*
X0230077Y0149335D01*
X0230016Y0149330D01*
X0229956Y0149328D01*
X0224956Y0149328D02*
X0224896Y0149330D01*
X0224835Y0149335D01*
X0224776Y0149344D01*
X0224717Y0149357D01*
X0224658Y0149373D01*
X0224601Y0149393D01*
X0224546Y0149416D01*
X0224491Y0149443D01*
X0224439Y0149472D01*
X0224388Y0149505D01*
X0224339Y0149541D01*
X0224293Y0149579D01*
X0224249Y0149621D01*
X0224207Y0149665D01*
X0224169Y0149711D01*
X0224133Y0149760D01*
X0224100Y0149811D01*
X0224071Y0149863D01*
X0224044Y0149918D01*
X0224021Y0149973D01*
X0224001Y0150030D01*
X0223985Y0150089D01*
X0223972Y0150148D01*
X0223963Y0150207D01*
X0223958Y0150268D01*
X0223956Y0150328D01*
X0234582Y0151288D02*
X0234584Y0151429D01*
X0234590Y0151570D01*
X0234600Y0151710D01*
X0234614Y0151850D01*
X0234632Y0151990D01*
X0234653Y0152129D01*
X0234679Y0152268D01*
X0234708Y0152406D01*
X0234742Y0152542D01*
X0234779Y0152678D01*
X0234820Y0152813D01*
X0234865Y0152947D01*
X0234914Y0153079D01*
X0234966Y0153210D01*
X0235022Y0153339D01*
X0235082Y0153466D01*
X0235145Y0153592D01*
X0235211Y0153716D01*
X0235282Y0153839D01*
X0235355Y0153959D01*
X0235432Y0154077D01*
X0235512Y0154193D01*
X0235596Y0154306D01*
X0235682Y0154417D01*
X0235772Y0154526D01*
X0235865Y0154632D01*
X0235960Y0154735D01*
X0236059Y0154836D01*
X0236160Y0154934D01*
X0236264Y0155029D01*
X0236371Y0155121D01*
X0236480Y0155210D01*
X0236592Y0155295D01*
X0236706Y0155378D01*
X0236822Y0155458D01*
X0236941Y0155534D01*
X0237062Y0155606D01*
X0237184Y0155676D01*
X0237309Y0155741D01*
X0237435Y0155804D01*
X0237563Y0155862D01*
X0237693Y0155917D01*
X0237824Y0155969D01*
X0237957Y0156016D01*
X0238091Y0156060D01*
X0238226Y0156101D01*
X0238362Y0156137D01*
X0238499Y0156169D01*
X0238637Y0156198D01*
X0238775Y0156223D01*
X0238915Y0156243D01*
X0239055Y0156260D01*
X0239195Y0156273D01*
X0239336Y0156282D01*
X0239476Y0156287D01*
X0239617Y0156288D01*
X0239758Y0156285D01*
X0239899Y0156278D01*
X0240039Y0156267D01*
X0240179Y0156252D01*
X0240319Y0156233D01*
X0240458Y0156211D01*
X0240596Y0156184D01*
X0240734Y0156154D01*
X0240870Y0156119D01*
X0241006Y0156081D01*
X0241140Y0156039D01*
X0241274Y0155993D01*
X0241406Y0155944D01*
X0241536Y0155890D01*
X0241665Y0155833D01*
X0241792Y0155773D01*
X0241918Y0155709D01*
X0242041Y0155641D01*
X0242163Y0155570D01*
X0242283Y0155496D01*
X0242400Y0155418D01*
X0242515Y0155337D01*
X0242628Y0155253D01*
X0242739Y0155166D01*
X0242847Y0155075D01*
X0242952Y0154982D01*
X0243055Y0154885D01*
X0243155Y0154786D01*
X0243252Y0154684D01*
X0243346Y0154579D01*
X0243437Y0154472D01*
X0243525Y0154362D01*
X0243610Y0154250D01*
X0243692Y0154135D01*
X0243771Y0154018D01*
X0243846Y0153899D01*
X0243918Y0153778D01*
X0243986Y0153655D01*
X0244051Y0153530D01*
X0244113Y0153403D01*
X0244170Y0153274D01*
X0244225Y0153144D01*
X0244275Y0153013D01*
X0244322Y0152880D01*
X0244365Y0152746D01*
X0244404Y0152610D01*
X0244439Y0152474D01*
X0244471Y0152337D01*
X0244498Y0152199D01*
X0244522Y0152060D01*
X0244542Y0151920D01*
X0244558Y0151780D01*
X0244570Y0151640D01*
X0244578Y0151499D01*
X0244582Y0151358D01*
X0244582Y0151218D01*
X0244578Y0151077D01*
X0244570Y0150936D01*
X0244558Y0150796D01*
X0244542Y0150656D01*
X0244522Y0150516D01*
X0244498Y0150377D01*
X0244471Y0150239D01*
X0244439Y0150102D01*
X0244404Y0149966D01*
X0244365Y0149830D01*
X0244322Y0149696D01*
X0244275Y0149563D01*
X0244225Y0149432D01*
X0244170Y0149302D01*
X0244113Y0149173D01*
X0244051Y0149046D01*
X0243986Y0148921D01*
X0243918Y0148798D01*
X0243846Y0148677D01*
X0243771Y0148558D01*
X0243692Y0148441D01*
X0243610Y0148326D01*
X0243525Y0148214D01*
X0243437Y0148104D01*
X0243346Y0147997D01*
X0243252Y0147892D01*
X0243155Y0147790D01*
X0243055Y0147691D01*
X0242952Y0147594D01*
X0242847Y0147501D01*
X0242739Y0147410D01*
X0242628Y0147323D01*
X0242515Y0147239D01*
X0242400Y0147158D01*
X0242283Y0147080D01*
X0242163Y0147006D01*
X0242041Y0146935D01*
X0241918Y0146867D01*
X0241792Y0146803D01*
X0241665Y0146743D01*
X0241536Y0146686D01*
X0241406Y0146632D01*
X0241274Y0146583D01*
X0241140Y0146537D01*
X0241006Y0146495D01*
X0240870Y0146457D01*
X0240734Y0146422D01*
X0240596Y0146392D01*
X0240458Y0146365D01*
X0240319Y0146343D01*
X0240179Y0146324D01*
X0240039Y0146309D01*
X0239899Y0146298D01*
X0239758Y0146291D01*
X0239617Y0146288D01*
X0239476Y0146289D01*
X0239336Y0146294D01*
X0239195Y0146303D01*
X0239055Y0146316D01*
X0238915Y0146333D01*
X0238775Y0146353D01*
X0238637Y0146378D01*
X0238499Y0146407D01*
X0238362Y0146439D01*
X0238226Y0146475D01*
X0238091Y0146516D01*
X0237957Y0146560D01*
X0237824Y0146607D01*
X0237693Y0146659D01*
X0237563Y0146714D01*
X0237435Y0146772D01*
X0237309Y0146835D01*
X0237184Y0146900D01*
X0237062Y0146970D01*
X0236941Y0147042D01*
X0236822Y0147118D01*
X0236706Y0147198D01*
X0236592Y0147281D01*
X0236480Y0147366D01*
X0236371Y0147455D01*
X0236264Y0147547D01*
X0236160Y0147642D01*
X0236059Y0147740D01*
X0235960Y0147841D01*
X0235865Y0147944D01*
X0235772Y0148050D01*
X0235682Y0148159D01*
X0235596Y0148270D01*
X0235512Y0148383D01*
X0235432Y0148499D01*
X0235355Y0148617D01*
X0235282Y0148737D01*
X0235211Y0148860D01*
X0235145Y0148984D01*
X0235082Y0149110D01*
X0235022Y0149237D01*
X0234966Y0149366D01*
X0234914Y0149497D01*
X0234865Y0149629D01*
X0234820Y0149763D01*
X0234779Y0149898D01*
X0234742Y0150034D01*
X0234708Y0150170D01*
X0234679Y0150308D01*
X0234653Y0150447D01*
X0234632Y0150586D01*
X0234614Y0150726D01*
X0234600Y0150866D01*
X0234590Y0151006D01*
X0234584Y0151147D01*
X0234582Y0151288D01*
X0209976Y0131524D02*
X0209978Y0131665D01*
X0209984Y0131806D01*
X0209994Y0131946D01*
X0210008Y0132086D01*
X0210026Y0132226D01*
X0210047Y0132365D01*
X0210073Y0132504D01*
X0210102Y0132642D01*
X0210136Y0132778D01*
X0210173Y0132914D01*
X0210214Y0133049D01*
X0210259Y0133183D01*
X0210308Y0133315D01*
X0210360Y0133446D01*
X0210416Y0133575D01*
X0210476Y0133702D01*
X0210539Y0133828D01*
X0210605Y0133952D01*
X0210676Y0134075D01*
X0210749Y0134195D01*
X0210826Y0134313D01*
X0210906Y0134429D01*
X0210990Y0134542D01*
X0211076Y0134653D01*
X0211166Y0134762D01*
X0211259Y0134868D01*
X0211354Y0134971D01*
X0211453Y0135072D01*
X0211554Y0135170D01*
X0211658Y0135265D01*
X0211765Y0135357D01*
X0211874Y0135446D01*
X0211986Y0135531D01*
X0212100Y0135614D01*
X0212216Y0135694D01*
X0212335Y0135770D01*
X0212456Y0135842D01*
X0212578Y0135912D01*
X0212703Y0135977D01*
X0212829Y0136040D01*
X0212957Y0136098D01*
X0213087Y0136153D01*
X0213218Y0136205D01*
X0213351Y0136252D01*
X0213485Y0136296D01*
X0213620Y0136337D01*
X0213756Y0136373D01*
X0213893Y0136405D01*
X0214031Y0136434D01*
X0214169Y0136459D01*
X0214309Y0136479D01*
X0214449Y0136496D01*
X0214589Y0136509D01*
X0214730Y0136518D01*
X0214870Y0136523D01*
X0215011Y0136524D01*
X0215152Y0136521D01*
X0215293Y0136514D01*
X0215433Y0136503D01*
X0215573Y0136488D01*
X0215713Y0136469D01*
X0215852Y0136447D01*
X0215990Y0136420D01*
X0216128Y0136390D01*
X0216264Y0136355D01*
X0216400Y0136317D01*
X0216534Y0136275D01*
X0216668Y0136229D01*
X0216800Y0136180D01*
X0216930Y0136126D01*
X0217059Y0136069D01*
X0217186Y0136009D01*
X0217312Y0135945D01*
X0217435Y0135877D01*
X0217557Y0135806D01*
X0217677Y0135732D01*
X0217794Y0135654D01*
X0217909Y0135573D01*
X0218022Y0135489D01*
X0218133Y0135402D01*
X0218241Y0135311D01*
X0218346Y0135218D01*
X0218449Y0135121D01*
X0218549Y0135022D01*
X0218646Y0134920D01*
X0218740Y0134815D01*
X0218831Y0134708D01*
X0218919Y0134598D01*
X0219004Y0134486D01*
X0219086Y0134371D01*
X0219165Y0134254D01*
X0219240Y0134135D01*
X0219312Y0134014D01*
X0219380Y0133891D01*
X0219445Y0133766D01*
X0219507Y0133639D01*
X0219564Y0133510D01*
X0219619Y0133380D01*
X0219669Y0133249D01*
X0219716Y0133116D01*
X0219759Y0132982D01*
X0219798Y0132846D01*
X0219833Y0132710D01*
X0219865Y0132573D01*
X0219892Y0132435D01*
X0219916Y0132296D01*
X0219936Y0132156D01*
X0219952Y0132016D01*
X0219964Y0131876D01*
X0219972Y0131735D01*
X0219976Y0131594D01*
X0219976Y0131454D01*
X0219972Y0131313D01*
X0219964Y0131172D01*
X0219952Y0131032D01*
X0219936Y0130892D01*
X0219916Y0130752D01*
X0219892Y0130613D01*
X0219865Y0130475D01*
X0219833Y0130338D01*
X0219798Y0130202D01*
X0219759Y0130066D01*
X0219716Y0129932D01*
X0219669Y0129799D01*
X0219619Y0129668D01*
X0219564Y0129538D01*
X0219507Y0129409D01*
X0219445Y0129282D01*
X0219380Y0129157D01*
X0219312Y0129034D01*
X0219240Y0128913D01*
X0219165Y0128794D01*
X0219086Y0128677D01*
X0219004Y0128562D01*
X0218919Y0128450D01*
X0218831Y0128340D01*
X0218740Y0128233D01*
X0218646Y0128128D01*
X0218549Y0128026D01*
X0218449Y0127927D01*
X0218346Y0127830D01*
X0218241Y0127737D01*
X0218133Y0127646D01*
X0218022Y0127559D01*
X0217909Y0127475D01*
X0217794Y0127394D01*
X0217677Y0127316D01*
X0217557Y0127242D01*
X0217435Y0127171D01*
X0217312Y0127103D01*
X0217186Y0127039D01*
X0217059Y0126979D01*
X0216930Y0126922D01*
X0216800Y0126868D01*
X0216668Y0126819D01*
X0216534Y0126773D01*
X0216400Y0126731D01*
X0216264Y0126693D01*
X0216128Y0126658D01*
X0215990Y0126628D01*
X0215852Y0126601D01*
X0215713Y0126579D01*
X0215573Y0126560D01*
X0215433Y0126545D01*
X0215293Y0126534D01*
X0215152Y0126527D01*
X0215011Y0126524D01*
X0214870Y0126525D01*
X0214730Y0126530D01*
X0214589Y0126539D01*
X0214449Y0126552D01*
X0214309Y0126569D01*
X0214169Y0126589D01*
X0214031Y0126614D01*
X0213893Y0126643D01*
X0213756Y0126675D01*
X0213620Y0126711D01*
X0213485Y0126752D01*
X0213351Y0126796D01*
X0213218Y0126843D01*
X0213087Y0126895D01*
X0212957Y0126950D01*
X0212829Y0127008D01*
X0212703Y0127071D01*
X0212578Y0127136D01*
X0212456Y0127206D01*
X0212335Y0127278D01*
X0212216Y0127354D01*
X0212100Y0127434D01*
X0211986Y0127517D01*
X0211874Y0127602D01*
X0211765Y0127691D01*
X0211658Y0127783D01*
X0211554Y0127878D01*
X0211453Y0127976D01*
X0211354Y0128077D01*
X0211259Y0128180D01*
X0211166Y0128286D01*
X0211076Y0128395D01*
X0210990Y0128506D01*
X0210906Y0128619D01*
X0210826Y0128735D01*
X0210749Y0128853D01*
X0210676Y0128973D01*
X0210605Y0129096D01*
X0210539Y0129220D01*
X0210476Y0129346D01*
X0210416Y0129473D01*
X0210360Y0129602D01*
X0210308Y0129733D01*
X0210259Y0129865D01*
X0210214Y0129999D01*
X0210173Y0130134D01*
X0210136Y0130270D01*
X0210102Y0130406D01*
X0210073Y0130544D01*
X0210047Y0130683D01*
X0210026Y0130822D01*
X0210008Y0130962D01*
X0209994Y0131102D01*
X0209984Y0131242D01*
X0209978Y0131383D01*
X0209976Y0131524D01*
X0209976Y0116761D02*
X0209978Y0116902D01*
X0209984Y0117043D01*
X0209994Y0117183D01*
X0210008Y0117323D01*
X0210026Y0117463D01*
X0210047Y0117602D01*
X0210073Y0117741D01*
X0210102Y0117879D01*
X0210136Y0118015D01*
X0210173Y0118151D01*
X0210214Y0118286D01*
X0210259Y0118420D01*
X0210308Y0118552D01*
X0210360Y0118683D01*
X0210416Y0118812D01*
X0210476Y0118939D01*
X0210539Y0119065D01*
X0210605Y0119189D01*
X0210676Y0119312D01*
X0210749Y0119432D01*
X0210826Y0119550D01*
X0210906Y0119666D01*
X0210990Y0119779D01*
X0211076Y0119890D01*
X0211166Y0119999D01*
X0211259Y0120105D01*
X0211354Y0120208D01*
X0211453Y0120309D01*
X0211554Y0120407D01*
X0211658Y0120502D01*
X0211765Y0120594D01*
X0211874Y0120683D01*
X0211986Y0120768D01*
X0212100Y0120851D01*
X0212216Y0120931D01*
X0212335Y0121007D01*
X0212456Y0121079D01*
X0212578Y0121149D01*
X0212703Y0121214D01*
X0212829Y0121277D01*
X0212957Y0121335D01*
X0213087Y0121390D01*
X0213218Y0121442D01*
X0213351Y0121489D01*
X0213485Y0121533D01*
X0213620Y0121574D01*
X0213756Y0121610D01*
X0213893Y0121642D01*
X0214031Y0121671D01*
X0214169Y0121696D01*
X0214309Y0121716D01*
X0214449Y0121733D01*
X0214589Y0121746D01*
X0214730Y0121755D01*
X0214870Y0121760D01*
X0215011Y0121761D01*
X0215152Y0121758D01*
X0215293Y0121751D01*
X0215433Y0121740D01*
X0215573Y0121725D01*
X0215713Y0121706D01*
X0215852Y0121684D01*
X0215990Y0121657D01*
X0216128Y0121627D01*
X0216264Y0121592D01*
X0216400Y0121554D01*
X0216534Y0121512D01*
X0216668Y0121466D01*
X0216800Y0121417D01*
X0216930Y0121363D01*
X0217059Y0121306D01*
X0217186Y0121246D01*
X0217312Y0121182D01*
X0217435Y0121114D01*
X0217557Y0121043D01*
X0217677Y0120969D01*
X0217794Y0120891D01*
X0217909Y0120810D01*
X0218022Y0120726D01*
X0218133Y0120639D01*
X0218241Y0120548D01*
X0218346Y0120455D01*
X0218449Y0120358D01*
X0218549Y0120259D01*
X0218646Y0120157D01*
X0218740Y0120052D01*
X0218831Y0119945D01*
X0218919Y0119835D01*
X0219004Y0119723D01*
X0219086Y0119608D01*
X0219165Y0119491D01*
X0219240Y0119372D01*
X0219312Y0119251D01*
X0219380Y0119128D01*
X0219445Y0119003D01*
X0219507Y0118876D01*
X0219564Y0118747D01*
X0219619Y0118617D01*
X0219669Y0118486D01*
X0219716Y0118353D01*
X0219759Y0118219D01*
X0219798Y0118083D01*
X0219833Y0117947D01*
X0219865Y0117810D01*
X0219892Y0117672D01*
X0219916Y0117533D01*
X0219936Y0117393D01*
X0219952Y0117253D01*
X0219964Y0117113D01*
X0219972Y0116972D01*
X0219976Y0116831D01*
X0219976Y0116691D01*
X0219972Y0116550D01*
X0219964Y0116409D01*
X0219952Y0116269D01*
X0219936Y0116129D01*
X0219916Y0115989D01*
X0219892Y0115850D01*
X0219865Y0115712D01*
X0219833Y0115575D01*
X0219798Y0115439D01*
X0219759Y0115303D01*
X0219716Y0115169D01*
X0219669Y0115036D01*
X0219619Y0114905D01*
X0219564Y0114775D01*
X0219507Y0114646D01*
X0219445Y0114519D01*
X0219380Y0114394D01*
X0219312Y0114271D01*
X0219240Y0114150D01*
X0219165Y0114031D01*
X0219086Y0113914D01*
X0219004Y0113799D01*
X0218919Y0113687D01*
X0218831Y0113577D01*
X0218740Y0113470D01*
X0218646Y0113365D01*
X0218549Y0113263D01*
X0218449Y0113164D01*
X0218346Y0113067D01*
X0218241Y0112974D01*
X0218133Y0112883D01*
X0218022Y0112796D01*
X0217909Y0112712D01*
X0217794Y0112631D01*
X0217677Y0112553D01*
X0217557Y0112479D01*
X0217435Y0112408D01*
X0217312Y0112340D01*
X0217186Y0112276D01*
X0217059Y0112216D01*
X0216930Y0112159D01*
X0216800Y0112105D01*
X0216668Y0112056D01*
X0216534Y0112010D01*
X0216400Y0111968D01*
X0216264Y0111930D01*
X0216128Y0111895D01*
X0215990Y0111865D01*
X0215852Y0111838D01*
X0215713Y0111816D01*
X0215573Y0111797D01*
X0215433Y0111782D01*
X0215293Y0111771D01*
X0215152Y0111764D01*
X0215011Y0111761D01*
X0214870Y0111762D01*
X0214730Y0111767D01*
X0214589Y0111776D01*
X0214449Y0111789D01*
X0214309Y0111806D01*
X0214169Y0111826D01*
X0214031Y0111851D01*
X0213893Y0111880D01*
X0213756Y0111912D01*
X0213620Y0111948D01*
X0213485Y0111989D01*
X0213351Y0112033D01*
X0213218Y0112080D01*
X0213087Y0112132D01*
X0212957Y0112187D01*
X0212829Y0112245D01*
X0212703Y0112308D01*
X0212578Y0112373D01*
X0212456Y0112443D01*
X0212335Y0112515D01*
X0212216Y0112591D01*
X0212100Y0112671D01*
X0211986Y0112754D01*
X0211874Y0112839D01*
X0211765Y0112928D01*
X0211658Y0113020D01*
X0211554Y0113115D01*
X0211453Y0113213D01*
X0211354Y0113314D01*
X0211259Y0113417D01*
X0211166Y0113523D01*
X0211076Y0113632D01*
X0210990Y0113743D01*
X0210906Y0113856D01*
X0210826Y0113972D01*
X0210749Y0114090D01*
X0210676Y0114210D01*
X0210605Y0114333D01*
X0210539Y0114457D01*
X0210476Y0114583D01*
X0210416Y0114710D01*
X0210360Y0114839D01*
X0210308Y0114970D01*
X0210259Y0115102D01*
X0210214Y0115236D01*
X0210173Y0115371D01*
X0210136Y0115507D01*
X0210102Y0115643D01*
X0210073Y0115781D01*
X0210047Y0115920D01*
X0210026Y0116059D01*
X0210008Y0116199D01*
X0209994Y0116339D01*
X0209984Y0116479D01*
X0209978Y0116620D01*
X0209976Y0116761D01*
X0155878Y0145422D02*
X0128878Y0145422D01*
X0128818Y0145424D01*
X0128757Y0145429D01*
X0128698Y0145438D01*
X0128639Y0145451D01*
X0128580Y0145467D01*
X0128523Y0145487D01*
X0128468Y0145510D01*
X0128413Y0145537D01*
X0128361Y0145566D01*
X0128310Y0145599D01*
X0128261Y0145635D01*
X0128215Y0145673D01*
X0128171Y0145715D01*
X0128129Y0145759D01*
X0128091Y0145805D01*
X0128055Y0145854D01*
X0128022Y0145905D01*
X0127993Y0145957D01*
X0127966Y0146012D01*
X0127943Y0146067D01*
X0127923Y0146124D01*
X0127907Y0146183D01*
X0127894Y0146242D01*
X0127885Y0146301D01*
X0127880Y0146362D01*
X0127878Y0146422D01*
X0127878Y0154422D01*
X0127880Y0154482D01*
X0127885Y0154543D01*
X0127894Y0154602D01*
X0127907Y0154661D01*
X0127923Y0154720D01*
X0127943Y0154777D01*
X0127966Y0154832D01*
X0127993Y0154887D01*
X0128022Y0154939D01*
X0128055Y0154990D01*
X0128091Y0155039D01*
X0128129Y0155085D01*
X0128171Y0155129D01*
X0128215Y0155171D01*
X0128261Y0155209D01*
X0128310Y0155245D01*
X0128361Y0155278D01*
X0128413Y0155307D01*
X0128468Y0155334D01*
X0128523Y0155357D01*
X0128580Y0155377D01*
X0128639Y0155393D01*
X0128698Y0155406D01*
X0128757Y0155415D01*
X0128818Y0155420D01*
X0128878Y0155422D01*
X0155878Y0155422D01*
X0155938Y0155420D01*
X0155999Y0155415D01*
X0156058Y0155406D01*
X0156117Y0155393D01*
X0156176Y0155377D01*
X0156233Y0155357D01*
X0156288Y0155334D01*
X0156343Y0155307D01*
X0156395Y0155278D01*
X0156446Y0155245D01*
X0156495Y0155209D01*
X0156541Y0155171D01*
X0156585Y0155129D01*
X0156627Y0155085D01*
X0156665Y0155039D01*
X0156701Y0154990D01*
X0156734Y0154939D01*
X0156763Y0154887D01*
X0156790Y0154832D01*
X0156813Y0154777D01*
X0156833Y0154720D01*
X0156849Y0154661D01*
X0156862Y0154602D01*
X0156871Y0154543D01*
X0156876Y0154482D01*
X0156878Y0154422D01*
X0156878Y0146422D01*
X0156876Y0146362D01*
X0156871Y0146301D01*
X0156862Y0146242D01*
X0156849Y0146183D01*
X0156833Y0146124D01*
X0156813Y0146067D01*
X0156790Y0146012D01*
X0156763Y0145957D01*
X0156734Y0145905D01*
X0156701Y0145854D01*
X0156665Y0145805D01*
X0156627Y0145759D01*
X0156585Y0145715D01*
X0156541Y0145673D01*
X0156495Y0145635D01*
X0156446Y0145599D01*
X0156395Y0145566D01*
X0156343Y0145537D01*
X0156288Y0145510D01*
X0156233Y0145487D01*
X0156176Y0145467D01*
X0156117Y0145451D01*
X0156058Y0145438D01*
X0155999Y0145429D01*
X0155938Y0145424D01*
X0155878Y0145422D01*
X0148378Y0150422D02*
X0143578Y0150422D01*
X0141078Y0150422D02*
X0136378Y0150422D01*
X0122220Y0161028D02*
X0162220Y0161028D01*
X0162220Y0166528D01*
X0122220Y0166528D01*
X0122220Y0183528D01*
X0162220Y0183528D01*
X0162220Y0166528D01*
X0162220Y0183528D02*
X0162220Y0190528D01*
X0122220Y0190528D01*
X0122220Y0187028D01*
X0122220Y0183528D01*
X0120220Y0183028D01*
X0120220Y0187528D01*
X0122220Y0187028D01*
X0130320Y0187028D02*
X0130322Y0187117D01*
X0130328Y0187206D01*
X0130338Y0187295D01*
X0130352Y0187383D01*
X0130369Y0187470D01*
X0130391Y0187556D01*
X0130417Y0187642D01*
X0130446Y0187726D01*
X0130479Y0187809D01*
X0130515Y0187890D01*
X0130556Y0187970D01*
X0130599Y0188047D01*
X0130646Y0188123D01*
X0130697Y0188196D01*
X0130750Y0188267D01*
X0130807Y0188336D01*
X0130867Y0188402D01*
X0130930Y0188466D01*
X0130995Y0188526D01*
X0131063Y0188584D01*
X0131134Y0188638D01*
X0131207Y0188689D01*
X0131282Y0188737D01*
X0131359Y0188782D01*
X0131438Y0188823D01*
X0131519Y0188860D01*
X0131601Y0188894D01*
X0131685Y0188925D01*
X0131770Y0188951D01*
X0131856Y0188974D01*
X0131943Y0188992D01*
X0132031Y0189007D01*
X0132120Y0189018D01*
X0132209Y0189025D01*
X0132298Y0189028D01*
X0132387Y0189027D01*
X0132476Y0189022D01*
X0132564Y0189013D01*
X0132653Y0189000D01*
X0132740Y0188983D01*
X0132827Y0188963D01*
X0132913Y0188938D01*
X0132997Y0188910D01*
X0133080Y0188878D01*
X0133162Y0188842D01*
X0133242Y0188803D01*
X0133320Y0188760D01*
X0133396Y0188714D01*
X0133470Y0188664D01*
X0133542Y0188611D01*
X0133611Y0188555D01*
X0133678Y0188496D01*
X0133742Y0188434D01*
X0133803Y0188370D01*
X0133862Y0188302D01*
X0133917Y0188232D01*
X0133969Y0188160D01*
X0134018Y0188085D01*
X0134063Y0188009D01*
X0134105Y0187930D01*
X0134143Y0187850D01*
X0134178Y0187768D01*
X0134209Y0187684D01*
X0134237Y0187599D01*
X0134260Y0187513D01*
X0134280Y0187426D01*
X0134296Y0187339D01*
X0134308Y0187250D01*
X0134316Y0187162D01*
X0134320Y0187073D01*
X0134320Y0186983D01*
X0134316Y0186894D01*
X0134308Y0186806D01*
X0134296Y0186717D01*
X0134280Y0186630D01*
X0134260Y0186543D01*
X0134237Y0186457D01*
X0134209Y0186372D01*
X0134178Y0186288D01*
X0134143Y0186206D01*
X0134105Y0186126D01*
X0134063Y0186047D01*
X0134018Y0185971D01*
X0133969Y0185896D01*
X0133917Y0185824D01*
X0133862Y0185754D01*
X0133803Y0185686D01*
X0133742Y0185622D01*
X0133678Y0185560D01*
X0133611Y0185501D01*
X0133542Y0185445D01*
X0133470Y0185392D01*
X0133396Y0185342D01*
X0133320Y0185296D01*
X0133242Y0185253D01*
X0133162Y0185214D01*
X0133080Y0185178D01*
X0132997Y0185146D01*
X0132913Y0185118D01*
X0132827Y0185093D01*
X0132740Y0185073D01*
X0132653Y0185056D01*
X0132564Y0185043D01*
X0132476Y0185034D01*
X0132387Y0185029D01*
X0132298Y0185028D01*
X0132209Y0185031D01*
X0132120Y0185038D01*
X0132031Y0185049D01*
X0131943Y0185064D01*
X0131856Y0185082D01*
X0131770Y0185105D01*
X0131685Y0185131D01*
X0131601Y0185162D01*
X0131519Y0185196D01*
X0131438Y0185233D01*
X0131359Y0185274D01*
X0131282Y0185319D01*
X0131207Y0185367D01*
X0131134Y0185418D01*
X0131063Y0185472D01*
X0130995Y0185530D01*
X0130930Y0185590D01*
X0130867Y0185654D01*
X0130807Y0185720D01*
X0130750Y0185789D01*
X0130697Y0185860D01*
X0130646Y0185933D01*
X0130599Y0186009D01*
X0130556Y0186086D01*
X0130515Y0186166D01*
X0130479Y0186247D01*
X0130446Y0186330D01*
X0130417Y0186414D01*
X0130391Y0186500D01*
X0130369Y0186586D01*
X0130352Y0186673D01*
X0130338Y0186761D01*
X0130328Y0186850D01*
X0130322Y0186939D01*
X0130320Y0187028D01*
X0150120Y0187028D02*
X0150122Y0187117D01*
X0150128Y0187206D01*
X0150138Y0187295D01*
X0150152Y0187383D01*
X0150169Y0187470D01*
X0150191Y0187556D01*
X0150217Y0187642D01*
X0150246Y0187726D01*
X0150279Y0187809D01*
X0150315Y0187890D01*
X0150356Y0187970D01*
X0150399Y0188047D01*
X0150446Y0188123D01*
X0150497Y0188196D01*
X0150550Y0188267D01*
X0150607Y0188336D01*
X0150667Y0188402D01*
X0150730Y0188466D01*
X0150795Y0188526D01*
X0150863Y0188584D01*
X0150934Y0188638D01*
X0151007Y0188689D01*
X0151082Y0188737D01*
X0151159Y0188782D01*
X0151238Y0188823D01*
X0151319Y0188860D01*
X0151401Y0188894D01*
X0151485Y0188925D01*
X0151570Y0188951D01*
X0151656Y0188974D01*
X0151743Y0188992D01*
X0151831Y0189007D01*
X0151920Y0189018D01*
X0152009Y0189025D01*
X0152098Y0189028D01*
X0152187Y0189027D01*
X0152276Y0189022D01*
X0152364Y0189013D01*
X0152453Y0189000D01*
X0152540Y0188983D01*
X0152627Y0188963D01*
X0152713Y0188938D01*
X0152797Y0188910D01*
X0152880Y0188878D01*
X0152962Y0188842D01*
X0153042Y0188803D01*
X0153120Y0188760D01*
X0153196Y0188714D01*
X0153270Y0188664D01*
X0153342Y0188611D01*
X0153411Y0188555D01*
X0153478Y0188496D01*
X0153542Y0188434D01*
X0153603Y0188370D01*
X0153662Y0188302D01*
X0153717Y0188232D01*
X0153769Y0188160D01*
X0153818Y0188085D01*
X0153863Y0188009D01*
X0153905Y0187930D01*
X0153943Y0187850D01*
X0153978Y0187768D01*
X0154009Y0187684D01*
X0154037Y0187599D01*
X0154060Y0187513D01*
X0154080Y0187426D01*
X0154096Y0187339D01*
X0154108Y0187250D01*
X0154116Y0187162D01*
X0154120Y0187073D01*
X0154120Y0186983D01*
X0154116Y0186894D01*
X0154108Y0186806D01*
X0154096Y0186717D01*
X0154080Y0186630D01*
X0154060Y0186543D01*
X0154037Y0186457D01*
X0154009Y0186372D01*
X0153978Y0186288D01*
X0153943Y0186206D01*
X0153905Y0186126D01*
X0153863Y0186047D01*
X0153818Y0185971D01*
X0153769Y0185896D01*
X0153717Y0185824D01*
X0153662Y0185754D01*
X0153603Y0185686D01*
X0153542Y0185622D01*
X0153478Y0185560D01*
X0153411Y0185501D01*
X0153342Y0185445D01*
X0153270Y0185392D01*
X0153196Y0185342D01*
X0153120Y0185296D01*
X0153042Y0185253D01*
X0152962Y0185214D01*
X0152880Y0185178D01*
X0152797Y0185146D01*
X0152713Y0185118D01*
X0152627Y0185093D01*
X0152540Y0185073D01*
X0152453Y0185056D01*
X0152364Y0185043D01*
X0152276Y0185034D01*
X0152187Y0185029D01*
X0152098Y0185028D01*
X0152009Y0185031D01*
X0151920Y0185038D01*
X0151831Y0185049D01*
X0151743Y0185064D01*
X0151656Y0185082D01*
X0151570Y0185105D01*
X0151485Y0185131D01*
X0151401Y0185162D01*
X0151319Y0185196D01*
X0151238Y0185233D01*
X0151159Y0185274D01*
X0151082Y0185319D01*
X0151007Y0185367D01*
X0150934Y0185418D01*
X0150863Y0185472D01*
X0150795Y0185530D01*
X0150730Y0185590D01*
X0150667Y0185654D01*
X0150607Y0185720D01*
X0150550Y0185789D01*
X0150497Y0185860D01*
X0150446Y0185933D01*
X0150399Y0186009D01*
X0150356Y0186086D01*
X0150315Y0186166D01*
X0150279Y0186247D01*
X0150246Y0186330D01*
X0150217Y0186414D01*
X0150191Y0186500D01*
X0150169Y0186586D01*
X0150152Y0186673D01*
X0150138Y0186761D01*
X0150128Y0186850D01*
X0150122Y0186939D01*
X0150120Y0187028D01*
X0122220Y0166528D02*
X0122220Y0161028D01*
X0083480Y0161028D02*
X0083480Y0166528D01*
X0043480Y0166528D01*
X0043480Y0183528D01*
X0083480Y0183528D01*
X0083480Y0166528D01*
X0083480Y0161028D02*
X0043480Y0161028D01*
X0043480Y0166528D01*
X0060383Y0155028D02*
X0060383Y0147784D01*
X0076777Y0147784D01*
X0076777Y0155028D01*
X0060383Y0155028D01*
X0064580Y0153906D02*
X0068580Y0151406D01*
X0068580Y0153906D01*
X0068580Y0151406D02*
X0068580Y0148906D01*
X0068580Y0151406D02*
X0064580Y0148906D01*
X0064580Y0153906D01*
X0062580Y0151406D02*
X0068580Y0151406D01*
X0071080Y0151406D01*
X0083480Y0183528D02*
X0083480Y0190528D01*
X0043480Y0190528D01*
X0043480Y0187028D01*
X0043480Y0183528D01*
X0041480Y0183028D01*
X0041480Y0187528D01*
X0043480Y0187028D01*
X0051580Y0187028D02*
X0051582Y0187117D01*
X0051588Y0187206D01*
X0051598Y0187295D01*
X0051612Y0187383D01*
X0051629Y0187470D01*
X0051651Y0187556D01*
X0051677Y0187642D01*
X0051706Y0187726D01*
X0051739Y0187809D01*
X0051775Y0187890D01*
X0051816Y0187970D01*
X0051859Y0188047D01*
X0051906Y0188123D01*
X0051957Y0188196D01*
X0052010Y0188267D01*
X0052067Y0188336D01*
X0052127Y0188402D01*
X0052190Y0188466D01*
X0052255Y0188526D01*
X0052323Y0188584D01*
X0052394Y0188638D01*
X0052467Y0188689D01*
X0052542Y0188737D01*
X0052619Y0188782D01*
X0052698Y0188823D01*
X0052779Y0188860D01*
X0052861Y0188894D01*
X0052945Y0188925D01*
X0053030Y0188951D01*
X0053116Y0188974D01*
X0053203Y0188992D01*
X0053291Y0189007D01*
X0053380Y0189018D01*
X0053469Y0189025D01*
X0053558Y0189028D01*
X0053647Y0189027D01*
X0053736Y0189022D01*
X0053824Y0189013D01*
X0053913Y0189000D01*
X0054000Y0188983D01*
X0054087Y0188963D01*
X0054173Y0188938D01*
X0054257Y0188910D01*
X0054340Y0188878D01*
X0054422Y0188842D01*
X0054502Y0188803D01*
X0054580Y0188760D01*
X0054656Y0188714D01*
X0054730Y0188664D01*
X0054802Y0188611D01*
X0054871Y0188555D01*
X0054938Y0188496D01*
X0055002Y0188434D01*
X0055063Y0188370D01*
X0055122Y0188302D01*
X0055177Y0188232D01*
X0055229Y0188160D01*
X0055278Y0188085D01*
X0055323Y0188009D01*
X0055365Y0187930D01*
X0055403Y0187850D01*
X0055438Y0187768D01*
X0055469Y0187684D01*
X0055497Y0187599D01*
X0055520Y0187513D01*
X0055540Y0187426D01*
X0055556Y0187339D01*
X0055568Y0187250D01*
X0055576Y0187162D01*
X0055580Y0187073D01*
X0055580Y0186983D01*
X0055576Y0186894D01*
X0055568Y0186806D01*
X0055556Y0186717D01*
X0055540Y0186630D01*
X0055520Y0186543D01*
X0055497Y0186457D01*
X0055469Y0186372D01*
X0055438Y0186288D01*
X0055403Y0186206D01*
X0055365Y0186126D01*
X0055323Y0186047D01*
X0055278Y0185971D01*
X0055229Y0185896D01*
X0055177Y0185824D01*
X0055122Y0185754D01*
X0055063Y0185686D01*
X0055002Y0185622D01*
X0054938Y0185560D01*
X0054871Y0185501D01*
X0054802Y0185445D01*
X0054730Y0185392D01*
X0054656Y0185342D01*
X0054580Y0185296D01*
X0054502Y0185253D01*
X0054422Y0185214D01*
X0054340Y0185178D01*
X0054257Y0185146D01*
X0054173Y0185118D01*
X0054087Y0185093D01*
X0054000Y0185073D01*
X0053913Y0185056D01*
X0053824Y0185043D01*
X0053736Y0185034D01*
X0053647Y0185029D01*
X0053558Y0185028D01*
X0053469Y0185031D01*
X0053380Y0185038D01*
X0053291Y0185049D01*
X0053203Y0185064D01*
X0053116Y0185082D01*
X0053030Y0185105D01*
X0052945Y0185131D01*
X0052861Y0185162D01*
X0052779Y0185196D01*
X0052698Y0185233D01*
X0052619Y0185274D01*
X0052542Y0185319D01*
X0052467Y0185367D01*
X0052394Y0185418D01*
X0052323Y0185472D01*
X0052255Y0185530D01*
X0052190Y0185590D01*
X0052127Y0185654D01*
X0052067Y0185720D01*
X0052010Y0185789D01*
X0051957Y0185860D01*
X0051906Y0185933D01*
X0051859Y0186009D01*
X0051816Y0186086D01*
X0051775Y0186166D01*
X0051739Y0186247D01*
X0051706Y0186330D01*
X0051677Y0186414D01*
X0051651Y0186500D01*
X0051629Y0186586D01*
X0051612Y0186673D01*
X0051598Y0186761D01*
X0051588Y0186850D01*
X0051582Y0186939D01*
X0051580Y0187028D01*
X0071380Y0187028D02*
X0071382Y0187117D01*
X0071388Y0187206D01*
X0071398Y0187295D01*
X0071412Y0187383D01*
X0071429Y0187470D01*
X0071451Y0187556D01*
X0071477Y0187642D01*
X0071506Y0187726D01*
X0071539Y0187809D01*
X0071575Y0187890D01*
X0071616Y0187970D01*
X0071659Y0188047D01*
X0071706Y0188123D01*
X0071757Y0188196D01*
X0071810Y0188267D01*
X0071867Y0188336D01*
X0071927Y0188402D01*
X0071990Y0188466D01*
X0072055Y0188526D01*
X0072123Y0188584D01*
X0072194Y0188638D01*
X0072267Y0188689D01*
X0072342Y0188737D01*
X0072419Y0188782D01*
X0072498Y0188823D01*
X0072579Y0188860D01*
X0072661Y0188894D01*
X0072745Y0188925D01*
X0072830Y0188951D01*
X0072916Y0188974D01*
X0073003Y0188992D01*
X0073091Y0189007D01*
X0073180Y0189018D01*
X0073269Y0189025D01*
X0073358Y0189028D01*
X0073447Y0189027D01*
X0073536Y0189022D01*
X0073624Y0189013D01*
X0073713Y0189000D01*
X0073800Y0188983D01*
X0073887Y0188963D01*
X0073973Y0188938D01*
X0074057Y0188910D01*
X0074140Y0188878D01*
X0074222Y0188842D01*
X0074302Y0188803D01*
X0074380Y0188760D01*
X0074456Y0188714D01*
X0074530Y0188664D01*
X0074602Y0188611D01*
X0074671Y0188555D01*
X0074738Y0188496D01*
X0074802Y0188434D01*
X0074863Y0188370D01*
X0074922Y0188302D01*
X0074977Y0188232D01*
X0075029Y0188160D01*
X0075078Y0188085D01*
X0075123Y0188009D01*
X0075165Y0187930D01*
X0075203Y0187850D01*
X0075238Y0187768D01*
X0075269Y0187684D01*
X0075297Y0187599D01*
X0075320Y0187513D01*
X0075340Y0187426D01*
X0075356Y0187339D01*
X0075368Y0187250D01*
X0075376Y0187162D01*
X0075380Y0187073D01*
X0075380Y0186983D01*
X0075376Y0186894D01*
X0075368Y0186806D01*
X0075356Y0186717D01*
X0075340Y0186630D01*
X0075320Y0186543D01*
X0075297Y0186457D01*
X0075269Y0186372D01*
X0075238Y0186288D01*
X0075203Y0186206D01*
X0075165Y0186126D01*
X0075123Y0186047D01*
X0075078Y0185971D01*
X0075029Y0185896D01*
X0074977Y0185824D01*
X0074922Y0185754D01*
X0074863Y0185686D01*
X0074802Y0185622D01*
X0074738Y0185560D01*
X0074671Y0185501D01*
X0074602Y0185445D01*
X0074530Y0185392D01*
X0074456Y0185342D01*
X0074380Y0185296D01*
X0074302Y0185253D01*
X0074222Y0185214D01*
X0074140Y0185178D01*
X0074057Y0185146D01*
X0073973Y0185118D01*
X0073887Y0185093D01*
X0073800Y0185073D01*
X0073713Y0185056D01*
X0073624Y0185043D01*
X0073536Y0185034D01*
X0073447Y0185029D01*
X0073358Y0185028D01*
X0073269Y0185031D01*
X0073180Y0185038D01*
X0073091Y0185049D01*
X0073003Y0185064D01*
X0072916Y0185082D01*
X0072830Y0185105D01*
X0072745Y0185131D01*
X0072661Y0185162D01*
X0072579Y0185196D01*
X0072498Y0185233D01*
X0072419Y0185274D01*
X0072342Y0185319D01*
X0072267Y0185367D01*
X0072194Y0185418D01*
X0072123Y0185472D01*
X0072055Y0185530D01*
X0071990Y0185590D01*
X0071927Y0185654D01*
X0071867Y0185720D01*
X0071810Y0185789D01*
X0071757Y0185860D01*
X0071706Y0185933D01*
X0071659Y0186009D01*
X0071616Y0186086D01*
X0071575Y0186166D01*
X0071539Y0186247D01*
X0071506Y0186330D01*
X0071477Y0186414D01*
X0071451Y0186500D01*
X0071429Y0186586D01*
X0071412Y0186673D01*
X0071398Y0186761D01*
X0071388Y0186850D01*
X0071382Y0186939D01*
X0071380Y0187028D01*
X0083999Y0111305D02*
X0086134Y0111305D01*
X0085067Y0111305D02*
X0085067Y0104899D01*
X0086134Y0104899D02*
X0083999Y0104899D01*
X0088296Y0104899D02*
X0088296Y0111305D01*
X0092567Y0104899D01*
X0092567Y0111305D01*
X0175527Y0083690D02*
X0175529Y0083831D01*
X0175535Y0083972D01*
X0175545Y0084112D01*
X0175559Y0084252D01*
X0175577Y0084392D01*
X0175598Y0084531D01*
X0175624Y0084670D01*
X0175653Y0084808D01*
X0175687Y0084944D01*
X0175724Y0085080D01*
X0175765Y0085215D01*
X0175810Y0085349D01*
X0175859Y0085481D01*
X0175911Y0085612D01*
X0175967Y0085741D01*
X0176027Y0085868D01*
X0176090Y0085994D01*
X0176156Y0086118D01*
X0176227Y0086241D01*
X0176300Y0086361D01*
X0176377Y0086479D01*
X0176457Y0086595D01*
X0176541Y0086708D01*
X0176627Y0086819D01*
X0176717Y0086928D01*
X0176810Y0087034D01*
X0176905Y0087137D01*
X0177004Y0087238D01*
X0177105Y0087336D01*
X0177209Y0087431D01*
X0177316Y0087523D01*
X0177425Y0087612D01*
X0177537Y0087697D01*
X0177651Y0087780D01*
X0177767Y0087860D01*
X0177886Y0087936D01*
X0178007Y0088008D01*
X0178129Y0088078D01*
X0178254Y0088143D01*
X0178380Y0088206D01*
X0178508Y0088264D01*
X0178638Y0088319D01*
X0178769Y0088371D01*
X0178902Y0088418D01*
X0179036Y0088462D01*
X0179171Y0088503D01*
X0179307Y0088539D01*
X0179444Y0088571D01*
X0179582Y0088600D01*
X0179720Y0088625D01*
X0179860Y0088645D01*
X0180000Y0088662D01*
X0180140Y0088675D01*
X0180281Y0088684D01*
X0180421Y0088689D01*
X0180562Y0088690D01*
X0180703Y0088687D01*
X0180844Y0088680D01*
X0180984Y0088669D01*
X0181124Y0088654D01*
X0181264Y0088635D01*
X0181403Y0088613D01*
X0181541Y0088586D01*
X0181679Y0088556D01*
X0181815Y0088521D01*
X0181951Y0088483D01*
X0182085Y0088441D01*
X0182219Y0088395D01*
X0182351Y0088346D01*
X0182481Y0088292D01*
X0182610Y0088235D01*
X0182737Y0088175D01*
X0182863Y0088111D01*
X0182986Y0088043D01*
X0183108Y0087972D01*
X0183228Y0087898D01*
X0183345Y0087820D01*
X0183460Y0087739D01*
X0183573Y0087655D01*
X0183684Y0087568D01*
X0183792Y0087477D01*
X0183897Y0087384D01*
X0184000Y0087287D01*
X0184100Y0087188D01*
X0184197Y0087086D01*
X0184291Y0086981D01*
X0184382Y0086874D01*
X0184470Y0086764D01*
X0184555Y0086652D01*
X0184637Y0086537D01*
X0184716Y0086420D01*
X0184791Y0086301D01*
X0184863Y0086180D01*
X0184931Y0086057D01*
X0184996Y0085932D01*
X0185058Y0085805D01*
X0185115Y0085676D01*
X0185170Y0085546D01*
X0185220Y0085415D01*
X0185267Y0085282D01*
X0185310Y0085148D01*
X0185349Y0085012D01*
X0185384Y0084876D01*
X0185416Y0084739D01*
X0185443Y0084601D01*
X0185467Y0084462D01*
X0185487Y0084322D01*
X0185503Y0084182D01*
X0185515Y0084042D01*
X0185523Y0083901D01*
X0185527Y0083760D01*
X0185527Y0083620D01*
X0185523Y0083479D01*
X0185515Y0083338D01*
X0185503Y0083198D01*
X0185487Y0083058D01*
X0185467Y0082918D01*
X0185443Y0082779D01*
X0185416Y0082641D01*
X0185384Y0082504D01*
X0185349Y0082368D01*
X0185310Y0082232D01*
X0185267Y0082098D01*
X0185220Y0081965D01*
X0185170Y0081834D01*
X0185115Y0081704D01*
X0185058Y0081575D01*
X0184996Y0081448D01*
X0184931Y0081323D01*
X0184863Y0081200D01*
X0184791Y0081079D01*
X0184716Y0080960D01*
X0184637Y0080843D01*
X0184555Y0080728D01*
X0184470Y0080616D01*
X0184382Y0080506D01*
X0184291Y0080399D01*
X0184197Y0080294D01*
X0184100Y0080192D01*
X0184000Y0080093D01*
X0183897Y0079996D01*
X0183792Y0079903D01*
X0183684Y0079812D01*
X0183573Y0079725D01*
X0183460Y0079641D01*
X0183345Y0079560D01*
X0183228Y0079482D01*
X0183108Y0079408D01*
X0182986Y0079337D01*
X0182863Y0079269D01*
X0182737Y0079205D01*
X0182610Y0079145D01*
X0182481Y0079088D01*
X0182351Y0079034D01*
X0182219Y0078985D01*
X0182085Y0078939D01*
X0181951Y0078897D01*
X0181815Y0078859D01*
X0181679Y0078824D01*
X0181541Y0078794D01*
X0181403Y0078767D01*
X0181264Y0078745D01*
X0181124Y0078726D01*
X0180984Y0078711D01*
X0180844Y0078700D01*
X0180703Y0078693D01*
X0180562Y0078690D01*
X0180421Y0078691D01*
X0180281Y0078696D01*
X0180140Y0078705D01*
X0180000Y0078718D01*
X0179860Y0078735D01*
X0179720Y0078755D01*
X0179582Y0078780D01*
X0179444Y0078809D01*
X0179307Y0078841D01*
X0179171Y0078877D01*
X0179036Y0078918D01*
X0178902Y0078962D01*
X0178769Y0079009D01*
X0178638Y0079061D01*
X0178508Y0079116D01*
X0178380Y0079174D01*
X0178254Y0079237D01*
X0178129Y0079302D01*
X0178007Y0079372D01*
X0177886Y0079444D01*
X0177767Y0079520D01*
X0177651Y0079600D01*
X0177537Y0079683D01*
X0177425Y0079768D01*
X0177316Y0079857D01*
X0177209Y0079949D01*
X0177105Y0080044D01*
X0177004Y0080142D01*
X0176905Y0080243D01*
X0176810Y0080346D01*
X0176717Y0080452D01*
X0176627Y0080561D01*
X0176541Y0080672D01*
X0176457Y0080785D01*
X0176377Y0080901D01*
X0176300Y0081019D01*
X0176227Y0081139D01*
X0176156Y0081262D01*
X0176090Y0081386D01*
X0176027Y0081512D01*
X0175967Y0081639D01*
X0175911Y0081768D01*
X0175859Y0081899D01*
X0175810Y0082031D01*
X0175765Y0082165D01*
X0175724Y0082300D01*
X0175687Y0082436D01*
X0175653Y0082572D01*
X0175624Y0082710D01*
X0175598Y0082849D01*
X0175577Y0082988D01*
X0175559Y0083128D01*
X0175545Y0083268D01*
X0175535Y0083408D01*
X0175529Y0083549D01*
X0175527Y0083690D01*
X0201944Y0083690D02*
X0201946Y0083831D01*
X0201952Y0083972D01*
X0201962Y0084112D01*
X0201976Y0084252D01*
X0201994Y0084392D01*
X0202015Y0084531D01*
X0202041Y0084670D01*
X0202070Y0084808D01*
X0202104Y0084944D01*
X0202141Y0085080D01*
X0202182Y0085215D01*
X0202227Y0085349D01*
X0202276Y0085481D01*
X0202328Y0085612D01*
X0202384Y0085741D01*
X0202444Y0085868D01*
X0202507Y0085994D01*
X0202573Y0086118D01*
X0202644Y0086241D01*
X0202717Y0086361D01*
X0202794Y0086479D01*
X0202874Y0086595D01*
X0202958Y0086708D01*
X0203044Y0086819D01*
X0203134Y0086928D01*
X0203227Y0087034D01*
X0203322Y0087137D01*
X0203421Y0087238D01*
X0203522Y0087336D01*
X0203626Y0087431D01*
X0203733Y0087523D01*
X0203842Y0087612D01*
X0203954Y0087697D01*
X0204068Y0087780D01*
X0204184Y0087860D01*
X0204303Y0087936D01*
X0204424Y0088008D01*
X0204546Y0088078D01*
X0204671Y0088143D01*
X0204797Y0088206D01*
X0204925Y0088264D01*
X0205055Y0088319D01*
X0205186Y0088371D01*
X0205319Y0088418D01*
X0205453Y0088462D01*
X0205588Y0088503D01*
X0205724Y0088539D01*
X0205861Y0088571D01*
X0205999Y0088600D01*
X0206137Y0088625D01*
X0206277Y0088645D01*
X0206417Y0088662D01*
X0206557Y0088675D01*
X0206698Y0088684D01*
X0206838Y0088689D01*
X0206979Y0088690D01*
X0207120Y0088687D01*
X0207261Y0088680D01*
X0207401Y0088669D01*
X0207541Y0088654D01*
X0207681Y0088635D01*
X0207820Y0088613D01*
X0207958Y0088586D01*
X0208096Y0088556D01*
X0208232Y0088521D01*
X0208368Y0088483D01*
X0208502Y0088441D01*
X0208636Y0088395D01*
X0208768Y0088346D01*
X0208898Y0088292D01*
X0209027Y0088235D01*
X0209154Y0088175D01*
X0209280Y0088111D01*
X0209403Y0088043D01*
X0209525Y0087972D01*
X0209645Y0087898D01*
X0209762Y0087820D01*
X0209877Y0087739D01*
X0209990Y0087655D01*
X0210101Y0087568D01*
X0210209Y0087477D01*
X0210314Y0087384D01*
X0210417Y0087287D01*
X0210517Y0087188D01*
X0210614Y0087086D01*
X0210708Y0086981D01*
X0210799Y0086874D01*
X0210887Y0086764D01*
X0210972Y0086652D01*
X0211054Y0086537D01*
X0211133Y0086420D01*
X0211208Y0086301D01*
X0211280Y0086180D01*
X0211348Y0086057D01*
X0211413Y0085932D01*
X0211475Y0085805D01*
X0211532Y0085676D01*
X0211587Y0085546D01*
X0211637Y0085415D01*
X0211684Y0085282D01*
X0211727Y0085148D01*
X0211766Y0085012D01*
X0211801Y0084876D01*
X0211833Y0084739D01*
X0211860Y0084601D01*
X0211884Y0084462D01*
X0211904Y0084322D01*
X0211920Y0084182D01*
X0211932Y0084042D01*
X0211940Y0083901D01*
X0211944Y0083760D01*
X0211944Y0083620D01*
X0211940Y0083479D01*
X0211932Y0083338D01*
X0211920Y0083198D01*
X0211904Y0083058D01*
X0211884Y0082918D01*
X0211860Y0082779D01*
X0211833Y0082641D01*
X0211801Y0082504D01*
X0211766Y0082368D01*
X0211727Y0082232D01*
X0211684Y0082098D01*
X0211637Y0081965D01*
X0211587Y0081834D01*
X0211532Y0081704D01*
X0211475Y0081575D01*
X0211413Y0081448D01*
X0211348Y0081323D01*
X0211280Y0081200D01*
X0211208Y0081079D01*
X0211133Y0080960D01*
X0211054Y0080843D01*
X0210972Y0080728D01*
X0210887Y0080616D01*
X0210799Y0080506D01*
X0210708Y0080399D01*
X0210614Y0080294D01*
X0210517Y0080192D01*
X0210417Y0080093D01*
X0210314Y0079996D01*
X0210209Y0079903D01*
X0210101Y0079812D01*
X0209990Y0079725D01*
X0209877Y0079641D01*
X0209762Y0079560D01*
X0209645Y0079482D01*
X0209525Y0079408D01*
X0209403Y0079337D01*
X0209280Y0079269D01*
X0209154Y0079205D01*
X0209027Y0079145D01*
X0208898Y0079088D01*
X0208768Y0079034D01*
X0208636Y0078985D01*
X0208502Y0078939D01*
X0208368Y0078897D01*
X0208232Y0078859D01*
X0208096Y0078824D01*
X0207958Y0078794D01*
X0207820Y0078767D01*
X0207681Y0078745D01*
X0207541Y0078726D01*
X0207401Y0078711D01*
X0207261Y0078700D01*
X0207120Y0078693D01*
X0206979Y0078690D01*
X0206838Y0078691D01*
X0206698Y0078696D01*
X0206557Y0078705D01*
X0206417Y0078718D01*
X0206277Y0078735D01*
X0206137Y0078755D01*
X0205999Y0078780D01*
X0205861Y0078809D01*
X0205724Y0078841D01*
X0205588Y0078877D01*
X0205453Y0078918D01*
X0205319Y0078962D01*
X0205186Y0079009D01*
X0205055Y0079061D01*
X0204925Y0079116D01*
X0204797Y0079174D01*
X0204671Y0079237D01*
X0204546Y0079302D01*
X0204424Y0079372D01*
X0204303Y0079444D01*
X0204184Y0079520D01*
X0204068Y0079600D01*
X0203954Y0079683D01*
X0203842Y0079768D01*
X0203733Y0079857D01*
X0203626Y0079949D01*
X0203522Y0080044D01*
X0203421Y0080142D01*
X0203322Y0080243D01*
X0203227Y0080346D01*
X0203134Y0080452D01*
X0203044Y0080561D01*
X0202958Y0080672D01*
X0202874Y0080785D01*
X0202794Y0080901D01*
X0202717Y0081019D01*
X0202644Y0081139D01*
X0202573Y0081262D01*
X0202507Y0081386D01*
X0202444Y0081512D01*
X0202384Y0081639D01*
X0202328Y0081768D01*
X0202276Y0081899D01*
X0202227Y0082031D01*
X0202182Y0082165D01*
X0202141Y0082300D01*
X0202104Y0082436D01*
X0202070Y0082572D01*
X0202041Y0082710D01*
X0202015Y0082849D01*
X0201994Y0082988D01*
X0201976Y0083128D01*
X0201962Y0083268D01*
X0201952Y0083408D01*
X0201946Y0083549D01*
X0201944Y0083690D01*
X0132441Y0050115D02*
X0132441Y0034115D01*
X0132439Y0034055D01*
X0132434Y0033994D01*
X0132425Y0033935D01*
X0132412Y0033876D01*
X0132396Y0033817D01*
X0132376Y0033760D01*
X0132353Y0033705D01*
X0132326Y0033650D01*
X0132297Y0033598D01*
X0132264Y0033547D01*
X0132228Y0033498D01*
X0132190Y0033452D01*
X0132148Y0033408D01*
X0132104Y0033366D01*
X0132058Y0033328D01*
X0132009Y0033292D01*
X0131958Y0033259D01*
X0131906Y0033230D01*
X0131851Y0033203D01*
X0131796Y0033180D01*
X0131739Y0033160D01*
X0131680Y0033144D01*
X0131621Y0033131D01*
X0131562Y0033122D01*
X0131501Y0033117D01*
X0131441Y0033115D01*
X0125441Y0033115D01*
X0125381Y0033117D01*
X0125320Y0033122D01*
X0125261Y0033131D01*
X0125202Y0033144D01*
X0125143Y0033160D01*
X0125086Y0033180D01*
X0125031Y0033203D01*
X0124976Y0033230D01*
X0124924Y0033259D01*
X0124873Y0033292D01*
X0124824Y0033328D01*
X0124778Y0033366D01*
X0124734Y0033408D01*
X0124692Y0033452D01*
X0124654Y0033498D01*
X0124618Y0033547D01*
X0124585Y0033598D01*
X0124556Y0033650D01*
X0124529Y0033705D01*
X0124506Y0033760D01*
X0124486Y0033817D01*
X0124470Y0033876D01*
X0124457Y0033935D01*
X0124448Y0033994D01*
X0124443Y0034055D01*
X0124441Y0034115D01*
X0124441Y0050115D01*
X0124443Y0050175D01*
X0124448Y0050236D01*
X0124457Y0050295D01*
X0124470Y0050354D01*
X0124486Y0050413D01*
X0124506Y0050470D01*
X0124529Y0050525D01*
X0124556Y0050580D01*
X0124585Y0050632D01*
X0124618Y0050683D01*
X0124654Y0050732D01*
X0124692Y0050778D01*
X0124734Y0050822D01*
X0124778Y0050864D01*
X0124824Y0050902D01*
X0124873Y0050938D01*
X0124924Y0050971D01*
X0124976Y0051000D01*
X0125031Y0051027D01*
X0125086Y0051050D01*
X0125143Y0051070D01*
X0125202Y0051086D01*
X0125261Y0051099D01*
X0125320Y0051108D01*
X0125381Y0051113D01*
X0125441Y0051115D01*
X0131441Y0051115D01*
X0131501Y0051113D01*
X0131562Y0051108D01*
X0131621Y0051099D01*
X0131680Y0051086D01*
X0131739Y0051070D01*
X0131796Y0051050D01*
X0131851Y0051027D01*
X0131906Y0051000D01*
X0131958Y0050971D01*
X0132009Y0050938D01*
X0132058Y0050902D01*
X0132104Y0050864D01*
X0132148Y0050822D01*
X0132190Y0050778D01*
X0132228Y0050732D01*
X0132264Y0050683D01*
X0132297Y0050632D01*
X0132326Y0050580D01*
X0132353Y0050525D01*
X0132376Y0050470D01*
X0132396Y0050413D01*
X0132412Y0050354D01*
X0132425Y0050295D01*
X0132434Y0050236D01*
X0132439Y0050175D01*
X0132441Y0050115D01*
X0128441Y0048115D02*
X0128441Y0042115D01*
X0130941Y0042115D01*
X0128441Y0042115D02*
X0125941Y0042115D01*
X0128441Y0042115D02*
X0128441Y0039615D01*
X0128441Y0042115D02*
X0125941Y0046115D01*
X0130941Y0046115D01*
X0128441Y0042115D01*
X0095713Y0049781D02*
X0095713Y0056187D01*
X0097848Y0056187D02*
X0093577Y0056187D01*
X0091402Y0056187D02*
X0091402Y0050849D01*
X0090335Y0049781D01*
X0088200Y0049781D01*
X0087132Y0050849D01*
X0087132Y0056187D01*
X0084957Y0055119D02*
X0083889Y0056187D01*
X0081754Y0056187D01*
X0080686Y0055119D01*
X0080686Y0050849D01*
X0081754Y0049781D01*
X0083889Y0049781D01*
X0084957Y0050849D01*
X0084957Y0055119D01*
X0260015Y0031548D02*
X0260015Y0026048D01*
X0300015Y0026048D01*
X0300015Y0009048D01*
X0260015Y0009048D01*
X0260015Y0026048D01*
X0260015Y0031548D02*
X0300015Y0031548D01*
X0300015Y0026048D01*
X0300015Y0031548D01*
X0340015Y0031548D01*
X0340015Y0026048D01*
X0340015Y0009048D01*
X0300015Y0009048D01*
X0300015Y0005548D01*
X0300015Y0002048D01*
X0260015Y0002048D01*
X0260015Y0009048D01*
X0268115Y0005548D02*
X0268117Y0005637D01*
X0268123Y0005726D01*
X0268133Y0005815D01*
X0268147Y0005903D01*
X0268164Y0005990D01*
X0268186Y0006076D01*
X0268212Y0006162D01*
X0268241Y0006246D01*
X0268274Y0006329D01*
X0268310Y0006410D01*
X0268351Y0006490D01*
X0268394Y0006567D01*
X0268441Y0006643D01*
X0268492Y0006716D01*
X0268545Y0006787D01*
X0268602Y0006856D01*
X0268662Y0006922D01*
X0268725Y0006986D01*
X0268790Y0007046D01*
X0268858Y0007104D01*
X0268929Y0007158D01*
X0269002Y0007209D01*
X0269077Y0007257D01*
X0269154Y0007302D01*
X0269233Y0007343D01*
X0269314Y0007380D01*
X0269396Y0007414D01*
X0269480Y0007445D01*
X0269565Y0007471D01*
X0269651Y0007494D01*
X0269738Y0007512D01*
X0269826Y0007527D01*
X0269915Y0007538D01*
X0270004Y0007545D01*
X0270093Y0007548D01*
X0270182Y0007547D01*
X0270271Y0007542D01*
X0270359Y0007533D01*
X0270448Y0007520D01*
X0270535Y0007503D01*
X0270622Y0007483D01*
X0270708Y0007458D01*
X0270792Y0007430D01*
X0270875Y0007398D01*
X0270957Y0007362D01*
X0271037Y0007323D01*
X0271115Y0007280D01*
X0271191Y0007234D01*
X0271265Y0007184D01*
X0271337Y0007131D01*
X0271406Y0007075D01*
X0271473Y0007016D01*
X0271537Y0006954D01*
X0271598Y0006890D01*
X0271657Y0006822D01*
X0271712Y0006752D01*
X0271764Y0006680D01*
X0271813Y0006605D01*
X0271858Y0006529D01*
X0271900Y0006450D01*
X0271938Y0006370D01*
X0271973Y0006288D01*
X0272004Y0006204D01*
X0272032Y0006119D01*
X0272055Y0006033D01*
X0272075Y0005946D01*
X0272091Y0005859D01*
X0272103Y0005770D01*
X0272111Y0005682D01*
X0272115Y0005593D01*
X0272115Y0005503D01*
X0272111Y0005414D01*
X0272103Y0005326D01*
X0272091Y0005237D01*
X0272075Y0005150D01*
X0272055Y0005063D01*
X0272032Y0004977D01*
X0272004Y0004892D01*
X0271973Y0004808D01*
X0271938Y0004726D01*
X0271900Y0004646D01*
X0271858Y0004567D01*
X0271813Y0004491D01*
X0271764Y0004416D01*
X0271712Y0004344D01*
X0271657Y0004274D01*
X0271598Y0004206D01*
X0271537Y0004142D01*
X0271473Y0004080D01*
X0271406Y0004021D01*
X0271337Y0003965D01*
X0271265Y0003912D01*
X0271191Y0003862D01*
X0271115Y0003816D01*
X0271037Y0003773D01*
X0270957Y0003734D01*
X0270875Y0003698D01*
X0270792Y0003666D01*
X0270708Y0003638D01*
X0270622Y0003613D01*
X0270535Y0003593D01*
X0270448Y0003576D01*
X0270359Y0003563D01*
X0270271Y0003554D01*
X0270182Y0003549D01*
X0270093Y0003548D01*
X0270004Y0003551D01*
X0269915Y0003558D01*
X0269826Y0003569D01*
X0269738Y0003584D01*
X0269651Y0003602D01*
X0269565Y0003625D01*
X0269480Y0003651D01*
X0269396Y0003682D01*
X0269314Y0003716D01*
X0269233Y0003753D01*
X0269154Y0003794D01*
X0269077Y0003839D01*
X0269002Y0003887D01*
X0268929Y0003938D01*
X0268858Y0003992D01*
X0268790Y0004050D01*
X0268725Y0004110D01*
X0268662Y0004174D01*
X0268602Y0004240D01*
X0268545Y0004309D01*
X0268492Y0004380D01*
X0268441Y0004453D01*
X0268394Y0004529D01*
X0268351Y0004606D01*
X0268310Y0004686D01*
X0268274Y0004767D01*
X0268241Y0004850D01*
X0268212Y0004934D01*
X0268186Y0005020D01*
X0268164Y0005106D01*
X0268147Y0005193D01*
X0268133Y0005281D01*
X0268123Y0005370D01*
X0268117Y0005459D01*
X0268115Y0005548D01*
X0287915Y0005548D02*
X0287917Y0005637D01*
X0287923Y0005726D01*
X0287933Y0005815D01*
X0287947Y0005903D01*
X0287964Y0005990D01*
X0287986Y0006076D01*
X0288012Y0006162D01*
X0288041Y0006246D01*
X0288074Y0006329D01*
X0288110Y0006410D01*
X0288151Y0006490D01*
X0288194Y0006567D01*
X0288241Y0006643D01*
X0288292Y0006716D01*
X0288345Y0006787D01*
X0288402Y0006856D01*
X0288462Y0006922D01*
X0288525Y0006986D01*
X0288590Y0007046D01*
X0288658Y0007104D01*
X0288729Y0007158D01*
X0288802Y0007209D01*
X0288877Y0007257D01*
X0288954Y0007302D01*
X0289033Y0007343D01*
X0289114Y0007380D01*
X0289196Y0007414D01*
X0289280Y0007445D01*
X0289365Y0007471D01*
X0289451Y0007494D01*
X0289538Y0007512D01*
X0289626Y0007527D01*
X0289715Y0007538D01*
X0289804Y0007545D01*
X0289893Y0007548D01*
X0289982Y0007547D01*
X0290071Y0007542D01*
X0290159Y0007533D01*
X0290248Y0007520D01*
X0290335Y0007503D01*
X0290422Y0007483D01*
X0290508Y0007458D01*
X0290592Y0007430D01*
X0290675Y0007398D01*
X0290757Y0007362D01*
X0290837Y0007323D01*
X0290915Y0007280D01*
X0290991Y0007234D01*
X0291065Y0007184D01*
X0291137Y0007131D01*
X0291206Y0007075D01*
X0291273Y0007016D01*
X0291337Y0006954D01*
X0291398Y0006890D01*
X0291457Y0006822D01*
X0291512Y0006752D01*
X0291564Y0006680D01*
X0291613Y0006605D01*
X0291658Y0006529D01*
X0291700Y0006450D01*
X0291738Y0006370D01*
X0291773Y0006288D01*
X0291804Y0006204D01*
X0291832Y0006119D01*
X0291855Y0006033D01*
X0291875Y0005946D01*
X0291891Y0005859D01*
X0291903Y0005770D01*
X0291911Y0005682D01*
X0291915Y0005593D01*
X0291915Y0005503D01*
X0291911Y0005414D01*
X0291903Y0005326D01*
X0291891Y0005237D01*
X0291875Y0005150D01*
X0291855Y0005063D01*
X0291832Y0004977D01*
X0291804Y0004892D01*
X0291773Y0004808D01*
X0291738Y0004726D01*
X0291700Y0004646D01*
X0291658Y0004567D01*
X0291613Y0004491D01*
X0291564Y0004416D01*
X0291512Y0004344D01*
X0291457Y0004274D01*
X0291398Y0004206D01*
X0291337Y0004142D01*
X0291273Y0004080D01*
X0291206Y0004021D01*
X0291137Y0003965D01*
X0291065Y0003912D01*
X0290991Y0003862D01*
X0290915Y0003816D01*
X0290837Y0003773D01*
X0290757Y0003734D01*
X0290675Y0003698D01*
X0290592Y0003666D01*
X0290508Y0003638D01*
X0290422Y0003613D01*
X0290335Y0003593D01*
X0290248Y0003576D01*
X0290159Y0003563D01*
X0290071Y0003554D01*
X0289982Y0003549D01*
X0289893Y0003548D01*
X0289804Y0003551D01*
X0289715Y0003558D01*
X0289626Y0003569D01*
X0289538Y0003584D01*
X0289451Y0003602D01*
X0289365Y0003625D01*
X0289280Y0003651D01*
X0289196Y0003682D01*
X0289114Y0003716D01*
X0289033Y0003753D01*
X0288954Y0003794D01*
X0288877Y0003839D01*
X0288802Y0003887D01*
X0288729Y0003938D01*
X0288658Y0003992D01*
X0288590Y0004050D01*
X0288525Y0004110D01*
X0288462Y0004174D01*
X0288402Y0004240D01*
X0288345Y0004309D01*
X0288292Y0004380D01*
X0288241Y0004453D01*
X0288194Y0004529D01*
X0288151Y0004606D01*
X0288110Y0004686D01*
X0288074Y0004767D01*
X0288041Y0004850D01*
X0288012Y0004934D01*
X0287986Y0005020D01*
X0287964Y0005106D01*
X0287947Y0005193D01*
X0287933Y0005281D01*
X0287923Y0005370D01*
X0287917Y0005459D01*
X0287915Y0005548D01*
X0300015Y0005548D02*
X0302015Y0005048D01*
X0302015Y0009548D01*
X0300015Y0009048D01*
X0300015Y0026048D01*
X0340015Y0026048D01*
X0342015Y0009548D02*
X0340015Y0009048D01*
X0340015Y0005548D01*
X0340015Y0002048D01*
X0300015Y0002048D01*
X0300015Y0009048D01*
X0308115Y0005548D02*
X0308117Y0005637D01*
X0308123Y0005726D01*
X0308133Y0005815D01*
X0308147Y0005903D01*
X0308164Y0005990D01*
X0308186Y0006076D01*
X0308212Y0006162D01*
X0308241Y0006246D01*
X0308274Y0006329D01*
X0308310Y0006410D01*
X0308351Y0006490D01*
X0308394Y0006567D01*
X0308441Y0006643D01*
X0308492Y0006716D01*
X0308545Y0006787D01*
X0308602Y0006856D01*
X0308662Y0006922D01*
X0308725Y0006986D01*
X0308790Y0007046D01*
X0308858Y0007104D01*
X0308929Y0007158D01*
X0309002Y0007209D01*
X0309077Y0007257D01*
X0309154Y0007302D01*
X0309233Y0007343D01*
X0309314Y0007380D01*
X0309396Y0007414D01*
X0309480Y0007445D01*
X0309565Y0007471D01*
X0309651Y0007494D01*
X0309738Y0007512D01*
X0309826Y0007527D01*
X0309915Y0007538D01*
X0310004Y0007545D01*
X0310093Y0007548D01*
X0310182Y0007547D01*
X0310271Y0007542D01*
X0310359Y0007533D01*
X0310448Y0007520D01*
X0310535Y0007503D01*
X0310622Y0007483D01*
X0310708Y0007458D01*
X0310792Y0007430D01*
X0310875Y0007398D01*
X0310957Y0007362D01*
X0311037Y0007323D01*
X0311115Y0007280D01*
X0311191Y0007234D01*
X0311265Y0007184D01*
X0311337Y0007131D01*
X0311406Y0007075D01*
X0311473Y0007016D01*
X0311537Y0006954D01*
X0311598Y0006890D01*
X0311657Y0006822D01*
X0311712Y0006752D01*
X0311764Y0006680D01*
X0311813Y0006605D01*
X0311858Y0006529D01*
X0311900Y0006450D01*
X0311938Y0006370D01*
X0311973Y0006288D01*
X0312004Y0006204D01*
X0312032Y0006119D01*
X0312055Y0006033D01*
X0312075Y0005946D01*
X0312091Y0005859D01*
X0312103Y0005770D01*
X0312111Y0005682D01*
X0312115Y0005593D01*
X0312115Y0005503D01*
X0312111Y0005414D01*
X0312103Y0005326D01*
X0312091Y0005237D01*
X0312075Y0005150D01*
X0312055Y0005063D01*
X0312032Y0004977D01*
X0312004Y0004892D01*
X0311973Y0004808D01*
X0311938Y0004726D01*
X0311900Y0004646D01*
X0311858Y0004567D01*
X0311813Y0004491D01*
X0311764Y0004416D01*
X0311712Y0004344D01*
X0311657Y0004274D01*
X0311598Y0004206D01*
X0311537Y0004142D01*
X0311473Y0004080D01*
X0311406Y0004021D01*
X0311337Y0003965D01*
X0311265Y0003912D01*
X0311191Y0003862D01*
X0311115Y0003816D01*
X0311037Y0003773D01*
X0310957Y0003734D01*
X0310875Y0003698D01*
X0310792Y0003666D01*
X0310708Y0003638D01*
X0310622Y0003613D01*
X0310535Y0003593D01*
X0310448Y0003576D01*
X0310359Y0003563D01*
X0310271Y0003554D01*
X0310182Y0003549D01*
X0310093Y0003548D01*
X0310004Y0003551D01*
X0309915Y0003558D01*
X0309826Y0003569D01*
X0309738Y0003584D01*
X0309651Y0003602D01*
X0309565Y0003625D01*
X0309480Y0003651D01*
X0309396Y0003682D01*
X0309314Y0003716D01*
X0309233Y0003753D01*
X0309154Y0003794D01*
X0309077Y0003839D01*
X0309002Y0003887D01*
X0308929Y0003938D01*
X0308858Y0003992D01*
X0308790Y0004050D01*
X0308725Y0004110D01*
X0308662Y0004174D01*
X0308602Y0004240D01*
X0308545Y0004309D01*
X0308492Y0004380D01*
X0308441Y0004453D01*
X0308394Y0004529D01*
X0308351Y0004606D01*
X0308310Y0004686D01*
X0308274Y0004767D01*
X0308241Y0004850D01*
X0308212Y0004934D01*
X0308186Y0005020D01*
X0308164Y0005106D01*
X0308147Y0005193D01*
X0308133Y0005281D01*
X0308123Y0005370D01*
X0308117Y0005459D01*
X0308115Y0005548D01*
X0327915Y0005548D02*
X0327917Y0005637D01*
X0327923Y0005726D01*
X0327933Y0005815D01*
X0327947Y0005903D01*
X0327964Y0005990D01*
X0327986Y0006076D01*
X0328012Y0006162D01*
X0328041Y0006246D01*
X0328074Y0006329D01*
X0328110Y0006410D01*
X0328151Y0006490D01*
X0328194Y0006567D01*
X0328241Y0006643D01*
X0328292Y0006716D01*
X0328345Y0006787D01*
X0328402Y0006856D01*
X0328462Y0006922D01*
X0328525Y0006986D01*
X0328590Y0007046D01*
X0328658Y0007104D01*
X0328729Y0007158D01*
X0328802Y0007209D01*
X0328877Y0007257D01*
X0328954Y0007302D01*
X0329033Y0007343D01*
X0329114Y0007380D01*
X0329196Y0007414D01*
X0329280Y0007445D01*
X0329365Y0007471D01*
X0329451Y0007494D01*
X0329538Y0007512D01*
X0329626Y0007527D01*
X0329715Y0007538D01*
X0329804Y0007545D01*
X0329893Y0007548D01*
X0329982Y0007547D01*
X0330071Y0007542D01*
X0330159Y0007533D01*
X0330248Y0007520D01*
X0330335Y0007503D01*
X0330422Y0007483D01*
X0330508Y0007458D01*
X0330592Y0007430D01*
X0330675Y0007398D01*
X0330757Y0007362D01*
X0330837Y0007323D01*
X0330915Y0007280D01*
X0330991Y0007234D01*
X0331065Y0007184D01*
X0331137Y0007131D01*
X0331206Y0007075D01*
X0331273Y0007016D01*
X0331337Y0006954D01*
X0331398Y0006890D01*
X0331457Y0006822D01*
X0331512Y0006752D01*
X0331564Y0006680D01*
X0331613Y0006605D01*
X0331658Y0006529D01*
X0331700Y0006450D01*
X0331738Y0006370D01*
X0331773Y0006288D01*
X0331804Y0006204D01*
X0331832Y0006119D01*
X0331855Y0006033D01*
X0331875Y0005946D01*
X0331891Y0005859D01*
X0331903Y0005770D01*
X0331911Y0005682D01*
X0331915Y0005593D01*
X0331915Y0005503D01*
X0331911Y0005414D01*
X0331903Y0005326D01*
X0331891Y0005237D01*
X0331875Y0005150D01*
X0331855Y0005063D01*
X0331832Y0004977D01*
X0331804Y0004892D01*
X0331773Y0004808D01*
X0331738Y0004726D01*
X0331700Y0004646D01*
X0331658Y0004567D01*
X0331613Y0004491D01*
X0331564Y0004416D01*
X0331512Y0004344D01*
X0331457Y0004274D01*
X0331398Y0004206D01*
X0331337Y0004142D01*
X0331273Y0004080D01*
X0331206Y0004021D01*
X0331137Y0003965D01*
X0331065Y0003912D01*
X0330991Y0003862D01*
X0330915Y0003816D01*
X0330837Y0003773D01*
X0330757Y0003734D01*
X0330675Y0003698D01*
X0330592Y0003666D01*
X0330508Y0003638D01*
X0330422Y0003613D01*
X0330335Y0003593D01*
X0330248Y0003576D01*
X0330159Y0003563D01*
X0330071Y0003554D01*
X0329982Y0003549D01*
X0329893Y0003548D01*
X0329804Y0003551D01*
X0329715Y0003558D01*
X0329626Y0003569D01*
X0329538Y0003584D01*
X0329451Y0003602D01*
X0329365Y0003625D01*
X0329280Y0003651D01*
X0329196Y0003682D01*
X0329114Y0003716D01*
X0329033Y0003753D01*
X0328954Y0003794D01*
X0328877Y0003839D01*
X0328802Y0003887D01*
X0328729Y0003938D01*
X0328658Y0003992D01*
X0328590Y0004050D01*
X0328525Y0004110D01*
X0328462Y0004174D01*
X0328402Y0004240D01*
X0328345Y0004309D01*
X0328292Y0004380D01*
X0328241Y0004453D01*
X0328194Y0004529D01*
X0328151Y0004606D01*
X0328110Y0004686D01*
X0328074Y0004767D01*
X0328041Y0004850D01*
X0328012Y0004934D01*
X0327986Y0005020D01*
X0327964Y0005106D01*
X0327947Y0005193D01*
X0327933Y0005281D01*
X0327923Y0005370D01*
X0327917Y0005459D01*
X0327915Y0005548D01*
X0340015Y0005548D02*
X0342015Y0005048D01*
X0342015Y0009548D01*
D12*
X0074080Y0151465D03*
D13*
X0078027Y0151406D03*
X0059133Y0151406D03*
D14*
X0090305Y0149156D02*
X0092557Y0149156D01*
X0093307Y0149907D01*
X0093307Y0152909D01*
X0092557Y0153660D01*
X0090305Y0153660D01*
X0090305Y0149156D01*
X0094909Y0149156D02*
X0097911Y0152159D01*
X0097911Y0152909D01*
X0097161Y0153660D01*
X0095659Y0153660D01*
X0094909Y0152909D01*
X0094909Y0149156D02*
X0097911Y0149156D01*
X0098179Y0137912D02*
X0101181Y0137912D01*
X0102783Y0136411D02*
X0104284Y0137912D01*
X0104284Y0133408D01*
X0102783Y0133408D02*
X0105785Y0133408D01*
X0099680Y0135660D02*
X0098179Y0135660D01*
X0098179Y0133408D02*
X0098179Y0137912D01*
X0121086Y0124040D02*
X0055086Y0124040D01*
X0055086Y0037040D01*
X0121086Y0037040D01*
X0121086Y0124040D01*
X0127033Y0124381D02*
X0129285Y0122129D01*
X0129285Y0125131D01*
X0131537Y0124381D02*
X0127033Y0124381D01*
X0127784Y0120527D02*
X0127033Y0119777D01*
X0127033Y0118275D01*
X0127784Y0117525D01*
X0130786Y0117525D01*
X0131537Y0118275D01*
X0131537Y0119777D01*
X0130786Y0120527D01*
X0159120Y0119810D02*
X0159870Y0119059D01*
X0162873Y0119059D01*
X0163624Y0119810D01*
X0163624Y0121311D01*
X0162873Y0122062D01*
X0163624Y0123663D02*
X0163624Y0126666D01*
X0163624Y0125165D02*
X0159120Y0125165D01*
X0160621Y0123663D01*
X0159870Y0122062D02*
X0159120Y0121311D01*
X0159120Y0119810D01*
X0159120Y0117491D02*
X0159120Y0115990D01*
X0159120Y0116741D02*
X0163624Y0116741D01*
X0163624Y0117491D02*
X0163624Y0115990D01*
X0161378Y0099133D02*
X0162129Y0098382D01*
X0162129Y0097631D01*
X0161378Y0096881D01*
X0162129Y0096130D01*
X0162129Y0095379D01*
X0161378Y0094629D01*
X0159877Y0094629D01*
X0159126Y0095379D01*
X0157525Y0094629D02*
X0156023Y0096130D01*
X0156774Y0096130D02*
X0154522Y0096130D01*
X0154522Y0094629D02*
X0154522Y0099133D01*
X0156774Y0099133D01*
X0157525Y0098382D01*
X0157525Y0096881D01*
X0156774Y0096130D01*
X0160627Y0096881D02*
X0161378Y0096881D01*
X0161378Y0099133D02*
X0159877Y0099133D01*
X0159126Y0098382D01*
X0161378Y0085944D02*
X0159126Y0083692D01*
X0162129Y0083692D01*
X0161378Y0081440D02*
X0161378Y0085944D01*
X0157525Y0085193D02*
X0157525Y0083692D01*
X0156774Y0082941D01*
X0154522Y0082941D01*
X0154522Y0081440D02*
X0154522Y0085944D01*
X0156774Y0085944D01*
X0157525Y0085193D01*
X0156023Y0082941D02*
X0157525Y0081440D01*
X0152876Y0076470D02*
X0152125Y0077220D01*
X0150624Y0077220D01*
X0149873Y0076470D01*
X0149873Y0075719D01*
X0150624Y0074218D01*
X0148372Y0074218D01*
X0148372Y0077220D01*
X0152876Y0076470D02*
X0152876Y0074968D01*
X0152125Y0074218D01*
X0152125Y0072616D02*
X0152876Y0071866D01*
X0152876Y0070364D01*
X0152125Y0069614D01*
X0149122Y0069614D01*
X0148372Y0070364D01*
X0148372Y0071866D01*
X0149122Y0072616D01*
X0180189Y0071465D02*
X0183192Y0074467D01*
X0184793Y0072966D02*
X0186294Y0074467D01*
X0186294Y0069963D01*
X0184793Y0069963D02*
X0187795Y0069963D01*
X0183192Y0069963D02*
X0180940Y0072215D01*
X0180189Y0074467D02*
X0180189Y0069963D01*
X0214320Y0081440D02*
X0214320Y0085944D01*
X0216572Y0085944D01*
X0217323Y0085193D01*
X0217323Y0083692D01*
X0216572Y0082941D01*
X0214320Y0082941D01*
X0215822Y0082941D02*
X0217323Y0081440D01*
X0218924Y0081440D02*
X0221927Y0084442D01*
X0221927Y0085193D01*
X0221176Y0085944D01*
X0219675Y0085944D01*
X0218924Y0085193D01*
X0218924Y0081440D02*
X0221927Y0081440D01*
X0220903Y0094629D02*
X0221654Y0095379D01*
X0220903Y0094629D02*
X0219402Y0094629D01*
X0218651Y0095379D01*
X0218651Y0098382D01*
X0219402Y0099133D01*
X0220903Y0099133D01*
X0221654Y0098382D01*
X0223255Y0097631D02*
X0224756Y0099133D01*
X0224756Y0094629D01*
X0223255Y0094629D02*
X0226258Y0094629D01*
X0243816Y0097444D02*
X0243816Y0101948D01*
X0246068Y0101948D01*
X0246818Y0101197D01*
X0246818Y0099696D01*
X0246068Y0098945D01*
X0243816Y0098945D01*
X0245317Y0098945D02*
X0246818Y0097444D01*
X0248420Y0097444D02*
X0251422Y0097444D01*
X0249921Y0097444D02*
X0249921Y0101948D01*
X0248420Y0100446D01*
X0253024Y0101197D02*
X0253774Y0101948D01*
X0255276Y0101948D01*
X0256026Y0101197D01*
X0256026Y0100446D01*
X0255276Y0099696D01*
X0256026Y0098945D01*
X0256026Y0098194D01*
X0255276Y0097444D01*
X0253774Y0097444D01*
X0253024Y0098194D01*
X0254525Y0099696D02*
X0255276Y0099696D01*
X0270423Y0098995D02*
X0270423Y0094491D01*
X0270423Y0095992D02*
X0272675Y0095992D01*
X0273425Y0096743D01*
X0273425Y0098244D01*
X0272675Y0098995D01*
X0270423Y0098995D01*
X0275027Y0097494D02*
X0276528Y0098995D01*
X0276528Y0094491D01*
X0275027Y0094491D02*
X0278029Y0094491D01*
X0279631Y0094491D02*
X0282633Y0097494D01*
X0282633Y0098244D01*
X0281883Y0098995D01*
X0280381Y0098995D01*
X0279631Y0098244D01*
X0279631Y0094491D02*
X0282633Y0094491D01*
X0273425Y0094491D02*
X0271924Y0095992D01*
X0283214Y0107349D02*
X0283214Y0109601D01*
X0283965Y0110351D01*
X0285466Y0110351D01*
X0286217Y0109601D01*
X0286217Y0107349D01*
X0286217Y0108850D02*
X0287718Y0110351D01*
X0287718Y0111953D02*
X0287718Y0114955D01*
X0287718Y0113454D02*
X0283214Y0113454D01*
X0284716Y0111953D01*
X0285466Y0116557D02*
X0285466Y0119559D01*
X0283214Y0118809D02*
X0285466Y0116557D01*
X0287718Y0118809D02*
X0283214Y0118809D01*
X0283214Y0107349D02*
X0287718Y0107349D01*
X0242187Y0126583D02*
X0237683Y0126583D01*
X0237683Y0128084D02*
X0237683Y0125081D01*
X0227832Y0121617D02*
X0224830Y0121617D01*
X0226331Y0121617D02*
X0226331Y0126121D01*
X0224830Y0124619D01*
X0223229Y0123869D02*
X0222478Y0123118D01*
X0220226Y0123118D01*
X0220226Y0121617D02*
X0220226Y0126121D01*
X0222478Y0126121D01*
X0223229Y0125370D01*
X0223229Y0123869D01*
X0221727Y0123118D02*
X0223229Y0121617D01*
X0237683Y0130436D02*
X0238433Y0129685D01*
X0237683Y0130436D02*
X0237683Y0131937D01*
X0238433Y0132688D01*
X0239184Y0132688D01*
X0242187Y0129685D01*
X0242187Y0132688D01*
X0227832Y0137249D02*
X0227832Y0138000D01*
X0227082Y0138751D01*
X0224830Y0138751D01*
X0224830Y0137249D01*
X0225581Y0136499D01*
X0227082Y0136499D01*
X0227832Y0137249D01*
X0224830Y0138751D02*
X0226331Y0140252D01*
X0227832Y0141003D01*
X0223229Y0140252D02*
X0223229Y0138751D01*
X0222478Y0138000D01*
X0220226Y0138000D01*
X0220226Y0136499D02*
X0220226Y0141003D01*
X0222478Y0141003D01*
X0223229Y0140252D01*
X0221727Y0138000D02*
X0223229Y0136499D01*
X0247030Y0134531D02*
X0247108Y0134287D01*
X0247193Y0134045D01*
X0247283Y0133806D01*
X0247379Y0133568D01*
X0247481Y0133333D01*
X0247589Y0133100D01*
X0247702Y0132870D01*
X0247821Y0132643D01*
X0247945Y0132419D01*
X0248075Y0132198D01*
X0248210Y0131981D01*
X0248351Y0131766D01*
X0248497Y0131555D01*
X0248647Y0131348D01*
X0248803Y0131145D01*
X0248964Y0130945D01*
X0249129Y0130749D01*
X0249299Y0130558D01*
X0249474Y0130370D01*
X0249654Y0130187D01*
X0249837Y0130009D01*
X0250026Y0129834D01*
X0250218Y0129665D01*
X0250414Y0129500D01*
X0250615Y0129340D01*
X0250819Y0129186D01*
X0251027Y0129036D01*
X0251238Y0128891D01*
X0251453Y0128751D01*
X0251671Y0128617D01*
X0251893Y0128488D01*
X0252117Y0128365D01*
X0252345Y0128247D01*
X0252575Y0128134D01*
X0252808Y0128028D01*
X0253044Y0127927D01*
X0253282Y0127831D01*
X0253522Y0127742D01*
X0253764Y0127659D01*
X0254009Y0127581D01*
X0254255Y0127510D01*
X0254503Y0127444D01*
X0254752Y0127385D01*
X0255002Y0127331D01*
X0255254Y0127284D01*
X0255507Y0127243D01*
X0255761Y0127208D01*
X0256016Y0127179D01*
X0256271Y0127157D01*
X0256527Y0127141D01*
X0256783Y0127131D01*
X0257039Y0127127D01*
X0257296Y0127130D01*
X0257552Y0127138D01*
X0257808Y0127153D01*
X0258063Y0127175D01*
X0258063Y0127174D02*
X0258063Y0128754D01*
X0263563Y0129381D02*
X0263563Y0145873D01*
X0258063Y0146500D02*
X0258063Y0148079D01*
X0270002Y0140879D02*
X0270002Y0137877D01*
X0270002Y0139378D02*
X0265498Y0139378D01*
X0266999Y0137877D01*
X0265498Y0136275D02*
X0265498Y0133273D01*
X0265498Y0134774D02*
X0270002Y0134774D01*
X0258063Y0136500D02*
X0258063Y0138754D01*
X0263563Y0129381D02*
X0263364Y0129228D01*
X0263162Y0129080D01*
X0262957Y0128937D01*
X0262748Y0128799D01*
X0262536Y0128666D01*
X0262321Y0128538D01*
X0262103Y0128416D01*
X0261882Y0128298D01*
X0261658Y0128186D01*
X0261432Y0128079D01*
X0261203Y0127978D01*
X0260972Y0127882D01*
X0260738Y0127791D01*
X0260503Y0127706D01*
X0260265Y0127627D01*
X0260026Y0127554D01*
X0259785Y0127486D01*
X0259543Y0127424D01*
X0259299Y0127368D01*
X0259053Y0127317D01*
X0258807Y0127273D01*
X0258560Y0127234D01*
X0258312Y0127202D01*
X0258063Y0127175D01*
X0247030Y0140723D02*
X0247108Y0140965D01*
X0247192Y0141205D01*
X0247281Y0141443D01*
X0247376Y0141679D01*
X0247478Y0141913D01*
X0247584Y0142144D01*
X0247697Y0142372D01*
X0247814Y0142598D01*
X0247937Y0142821D01*
X0248066Y0143040D01*
X0248200Y0143257D01*
X0248339Y0143470D01*
X0248483Y0143680D01*
X0248632Y0143886D01*
X0248786Y0144088D01*
X0248945Y0144287D01*
X0249109Y0144482D01*
X0249278Y0144673D01*
X0249451Y0144859D01*
X0249628Y0145042D01*
X0249810Y0145220D01*
X0249996Y0145393D01*
X0250187Y0145562D01*
X0250381Y0145726D01*
X0250579Y0145886D01*
X0250781Y0146041D01*
X0250987Y0146190D01*
X0251196Y0146335D01*
X0251409Y0146475D01*
X0251625Y0146609D01*
X0251845Y0146738D01*
X0252067Y0146862D01*
X0252292Y0146981D01*
X0252520Y0147093D01*
X0252751Y0147201D01*
X0252984Y0147302D01*
X0253220Y0147398D01*
X0253458Y0147489D01*
X0253698Y0147573D01*
X0253940Y0147652D01*
X0254184Y0147725D01*
X0254430Y0147791D01*
X0254677Y0147852D01*
X0254925Y0147907D01*
X0255175Y0147956D01*
X0255426Y0147999D01*
X0255678Y0148035D01*
X0255930Y0148066D01*
X0256184Y0148090D01*
X0256437Y0148108D01*
X0256692Y0148120D01*
X0256946Y0148126D01*
X0257201Y0148126D01*
X0257455Y0148120D01*
X0257709Y0148107D01*
X0257963Y0148088D01*
X0258216Y0148063D01*
X0258469Y0148032D01*
X0258721Y0147995D01*
X0258971Y0147952D01*
X0259221Y0147903D01*
X0259470Y0147847D01*
X0259717Y0147786D01*
X0259962Y0147719D01*
X0260206Y0147646D01*
X0260448Y0147567D01*
X0260687Y0147482D01*
X0260925Y0147391D01*
X0261161Y0147294D01*
X0261394Y0147192D01*
X0261624Y0147084D01*
X0261852Y0146971D01*
X0262077Y0146852D01*
X0262299Y0146728D01*
X0262518Y0146598D01*
X0262734Y0146464D01*
X0262947Y0146324D01*
X0263156Y0146178D01*
X0263361Y0146028D01*
X0263563Y0145873D01*
X0284320Y0145284D02*
X0286572Y0145284D01*
X0287323Y0146034D01*
X0287323Y0147535D01*
X0286572Y0148286D01*
X0284320Y0148286D01*
X0284320Y0143782D01*
X0285822Y0145284D02*
X0287323Y0143782D01*
X0288924Y0143782D02*
X0291927Y0143782D01*
X0290426Y0143782D02*
X0290426Y0148286D01*
X0288924Y0146785D01*
X0293528Y0146785D02*
X0295030Y0148286D01*
X0295030Y0143782D01*
X0296531Y0143782D02*
X0293528Y0143782D01*
X0305189Y0146322D02*
X0309693Y0146322D01*
X0309693Y0149324D01*
X0309693Y0150926D02*
X0305189Y0150926D01*
X0305189Y0153177D01*
X0305940Y0153928D01*
X0308942Y0153928D01*
X0309693Y0153177D01*
X0309693Y0150926D01*
X0309693Y0155530D02*
X0309693Y0158532D01*
X0309693Y0157031D02*
X0305189Y0157031D01*
X0306690Y0155530D01*
X0257043Y0157013D02*
X0256292Y0156263D01*
X0254791Y0156263D01*
X0254040Y0157013D01*
X0257043Y0160016D01*
X0257043Y0157013D01*
X0254040Y0157013D02*
X0254040Y0160016D01*
X0254791Y0160766D01*
X0256292Y0160766D01*
X0257043Y0160016D01*
X0250937Y0160766D02*
X0250937Y0156263D01*
X0249436Y0156263D02*
X0252439Y0156263D01*
X0249436Y0159265D02*
X0250937Y0160766D01*
X0247835Y0160016D02*
X0247835Y0158515D01*
X0247084Y0157764D01*
X0244832Y0157764D01*
X0244832Y0156263D02*
X0244832Y0160766D01*
X0247084Y0160766D01*
X0247835Y0160016D01*
X0246334Y0157764D02*
X0247835Y0156263D01*
X0237521Y0159848D02*
X0233017Y0159848D01*
X0233017Y0162100D01*
X0233768Y0162850D01*
X0235269Y0162850D01*
X0236020Y0162100D01*
X0236020Y0159848D01*
X0236020Y0161349D02*
X0237521Y0162850D01*
X0237521Y0164452D02*
X0236771Y0164452D01*
X0233768Y0167454D01*
X0233017Y0167454D01*
X0233017Y0164452D01*
X0217305Y0168389D02*
X0212801Y0168389D01*
X0212801Y0170641D01*
X0213552Y0171391D01*
X0215053Y0171391D01*
X0215803Y0170641D01*
X0215803Y0168389D01*
X0215803Y0169890D02*
X0217305Y0171391D01*
X0216554Y0172993D02*
X0215803Y0172993D01*
X0215053Y0173743D01*
X0215053Y0175244D01*
X0215803Y0175995D01*
X0216554Y0175995D01*
X0217305Y0175244D01*
X0217305Y0173743D01*
X0216554Y0172993D01*
X0215053Y0173743D02*
X0214302Y0172993D01*
X0213552Y0172993D01*
X0212801Y0173743D01*
X0212801Y0175244D01*
X0213552Y0175995D01*
X0214302Y0175995D01*
X0215053Y0175244D01*
X0207893Y0166153D02*
X0204890Y0166153D01*
X0204139Y0165402D01*
X0204139Y0163901D01*
X0204890Y0163150D01*
X0205641Y0163150D01*
X0206391Y0163901D01*
X0206391Y0166153D01*
X0207893Y0166153D02*
X0208643Y0165402D01*
X0208643Y0163901D01*
X0207893Y0163150D01*
X0208643Y0161549D02*
X0207142Y0160047D01*
X0207142Y0160798D02*
X0207142Y0158546D01*
X0208643Y0158546D02*
X0204139Y0158546D01*
X0204139Y0160798D01*
X0204890Y0161549D01*
X0206391Y0161549D01*
X0207142Y0160798D01*
X0187498Y0163923D02*
X0186747Y0163172D01*
X0183744Y0163172D01*
X0182994Y0163923D01*
X0182994Y0165424D01*
X0183744Y0166175D01*
X0183744Y0167776D02*
X0182994Y0168527D01*
X0182994Y0170028D01*
X0183744Y0170779D01*
X0184495Y0170779D01*
X0185246Y0170028D01*
X0185996Y0170779D01*
X0186747Y0170779D01*
X0187498Y0170028D01*
X0187498Y0168527D01*
X0186747Y0167776D01*
X0186747Y0166175D02*
X0187498Y0165424D01*
X0187498Y0163923D01*
X0185246Y0169277D02*
X0185246Y0170028D01*
X0182357Y0156160D02*
X0182357Y0151656D01*
X0180856Y0151656D02*
X0183858Y0151656D01*
X0179255Y0152407D02*
X0179255Y0155409D01*
X0178504Y0156160D01*
X0176252Y0156160D01*
X0176252Y0151656D01*
X0178504Y0151656D01*
X0179255Y0152407D01*
X0180856Y0154659D02*
X0182357Y0156160D01*
X0166415Y0151925D02*
X0165665Y0152676D01*
X0164163Y0152676D01*
X0163413Y0151925D01*
X0161811Y0151925D02*
X0161061Y0152676D01*
X0159559Y0152676D01*
X0158809Y0151925D01*
X0158809Y0148923D01*
X0159559Y0148172D01*
X0161061Y0148172D01*
X0161811Y0148923D01*
X0163413Y0148172D02*
X0166415Y0151175D01*
X0166415Y0151925D01*
X0166415Y0148172D02*
X0163413Y0148172D01*
X0162952Y0142530D02*
X0163702Y0141780D01*
X0163702Y0140279D01*
X0162952Y0139528D01*
X0161450Y0139528D02*
X0160700Y0141029D01*
X0160700Y0141780D01*
X0161450Y0142530D01*
X0162952Y0142530D01*
X0159199Y0142530D02*
X0159199Y0139528D01*
X0161450Y0139528D01*
X0161450Y0137927D02*
X0162201Y0137176D01*
X0162201Y0134924D01*
X0162201Y0136425D02*
X0163702Y0137927D01*
X0161450Y0137927D02*
X0159949Y0137927D01*
X0159199Y0137176D01*
X0159199Y0134924D01*
X0163702Y0134924D01*
X0147239Y0185278D02*
X0144970Y0185278D01*
X0147239Y0187547D01*
X0147239Y0188114D01*
X0146672Y0188681D01*
X0145537Y0188681D01*
X0144970Y0188114D01*
X0127239Y0185278D02*
X0124970Y0185278D01*
X0126104Y0185278D02*
X0126104Y0188681D01*
X0124970Y0187547D01*
X0068499Y0187547D02*
X0068499Y0188114D01*
X0067931Y0188681D01*
X0066797Y0188681D01*
X0066230Y0188114D01*
X0068499Y0187547D02*
X0066230Y0185278D01*
X0068499Y0185278D01*
X0048499Y0185278D02*
X0046230Y0185278D01*
X0047364Y0185278D02*
X0047364Y0188681D01*
X0046230Y0187547D01*
X0250722Y0082263D02*
X0252974Y0082263D01*
X0253724Y0081512D01*
X0253724Y0080011D01*
X0252974Y0079260D01*
X0250722Y0079260D01*
X0252223Y0079260D02*
X0253724Y0077759D01*
X0255326Y0077759D02*
X0258328Y0077759D01*
X0256827Y0077759D02*
X0256827Y0082263D01*
X0255326Y0080761D01*
X0259930Y0080011D02*
X0259930Y0082263D01*
X0262932Y0082263D01*
X0262181Y0080761D02*
X0262932Y0080011D01*
X0262932Y0078509D01*
X0262181Y0077759D01*
X0260680Y0077759D01*
X0259930Y0078509D01*
X0259930Y0080011D02*
X0261431Y0080761D01*
X0262181Y0080761D01*
X0250722Y0082263D02*
X0250722Y0077759D01*
X0277313Y0074920D02*
X0277313Y0070416D01*
X0279565Y0070416D01*
X0280315Y0071167D01*
X0280315Y0074169D01*
X0279565Y0074920D01*
X0277313Y0074920D01*
X0281917Y0072668D02*
X0284919Y0072668D01*
X0284168Y0070416D02*
X0284168Y0074920D01*
X0281917Y0072668D01*
X0275876Y0007301D02*
X0274741Y0007301D01*
X0274174Y0006734D01*
X0275876Y0007301D02*
X0276443Y0006734D01*
X0276443Y0006167D01*
X0274174Y0003898D01*
X0276443Y0003898D01*
X0294174Y0003898D02*
X0296443Y0003898D01*
X0295309Y0003898D02*
X0295309Y0007301D01*
X0294174Y0006167D01*
X0314174Y0006734D02*
X0314741Y0007301D01*
X0315876Y0007301D01*
X0316443Y0006734D01*
X0316443Y0006167D01*
X0314174Y0003898D01*
X0316443Y0003898D01*
X0334174Y0003898D02*
X0336443Y0003898D01*
X0335309Y0003898D02*
X0335309Y0007301D01*
X0334174Y0006167D01*
X0122285Y0024338D02*
X0122285Y0026590D01*
X0121534Y0027341D01*
X0118532Y0027341D01*
X0117781Y0026590D01*
X0117781Y0024338D01*
X0122285Y0024338D01*
X0121534Y0028942D02*
X0122285Y0029693D01*
X0122285Y0031194D01*
X0121534Y0031945D01*
X0120784Y0031945D01*
X0120033Y0031194D01*
X0120033Y0030443D01*
X0120033Y0031194D02*
X0119282Y0031945D01*
X0118532Y0031945D01*
X0117781Y0031194D01*
X0117781Y0029693D01*
X0118532Y0028942D01*
X0051498Y0036467D02*
X0046994Y0036467D01*
X0048495Y0037968D01*
X0046994Y0039469D01*
X0051498Y0039469D01*
X0051498Y0041070D02*
X0046994Y0041070D01*
X0046994Y0043322D01*
X0047744Y0044073D01*
X0049246Y0044073D01*
X0049996Y0043322D01*
X0049996Y0041070D01*
X0048495Y0045674D02*
X0046994Y0047176D01*
X0051498Y0047176D01*
X0051498Y0048677D02*
X0051498Y0045674D01*
X0050747Y0050278D02*
X0051498Y0051029D01*
X0051498Y0052530D01*
X0050747Y0053281D01*
X0049246Y0053281D01*
X0048495Y0052530D01*
X0048495Y0051780D01*
X0049246Y0050278D01*
X0046994Y0050278D01*
X0046994Y0053281D01*
X0047744Y0054882D02*
X0048495Y0054882D01*
X0049246Y0055633D01*
X0049246Y0057134D01*
X0049996Y0057885D01*
X0050747Y0057885D01*
X0051498Y0057134D01*
X0051498Y0055633D01*
X0050747Y0054882D01*
X0049996Y0054882D01*
X0049246Y0055633D01*
X0049246Y0057134D02*
X0048495Y0057885D01*
X0047744Y0057885D01*
X0046994Y0057134D01*
X0046994Y0055633D01*
X0047744Y0054882D01*
X0049246Y0059486D02*
X0049246Y0062489D01*
X0051498Y0061738D02*
X0046994Y0061738D01*
X0049246Y0059486D01*
D15*
X0128441Y0035615D03*
X0138283Y0087398D03*
D16*
X0128441Y0052365D03*
X0128441Y0031865D03*
D17*
X0201059Y0094379D02*
X0201059Y0096879D01*
X0201059Y0099379D01*
X0203559Y0099379D02*
X0203559Y0096879D01*
X0203559Y0094379D01*
X0140783Y0120679D02*
X0138283Y0120679D01*
X0135783Y0120679D01*
X0135783Y0123179D02*
X0138283Y0123179D01*
X0140783Y0123179D01*
X0141078Y0147922D02*
X0141078Y0150422D01*
X0141078Y0152922D01*
X0143578Y0152922D02*
X0143578Y0150422D01*
X0143578Y0147922D01*
X0191885Y0155128D02*
X0194385Y0155128D01*
X0196885Y0155128D01*
X0196885Y0157628D02*
X0194385Y0157628D01*
X0191885Y0157628D01*
D18*
X0206393Y0147288D02*
X0206393Y0145288D01*
X0215055Y0148406D02*
X0215055Y0154406D01*
X0243582Y0151288D02*
X0245582Y0151288D01*
X0283070Y0138611D02*
X0285070Y0138611D01*
X0279070Y0117005D02*
X0279070Y0111005D01*
X0265645Y0111005D02*
X0265645Y0117005D01*
X0220976Y0116761D02*
X0218976Y0116761D01*
X0218976Y0131524D02*
X0220976Y0131524D01*
X0176527Y0096879D02*
X0174527Y0096879D01*
X0174527Y0083690D02*
X0176527Y0083690D01*
X0200944Y0083690D02*
X0202944Y0083690D01*
D19*
X0260645Y0104005D02*
X0260647Y0104146D01*
X0260653Y0104287D01*
X0260663Y0104427D01*
X0260677Y0104567D01*
X0260695Y0104707D01*
X0260716Y0104846D01*
X0260742Y0104985D01*
X0260771Y0105123D01*
X0260805Y0105259D01*
X0260842Y0105395D01*
X0260883Y0105530D01*
X0260928Y0105664D01*
X0260977Y0105796D01*
X0261029Y0105927D01*
X0261085Y0106056D01*
X0261145Y0106183D01*
X0261208Y0106309D01*
X0261274Y0106433D01*
X0261345Y0106556D01*
X0261418Y0106676D01*
X0261495Y0106794D01*
X0261575Y0106910D01*
X0261659Y0107023D01*
X0261745Y0107134D01*
X0261835Y0107243D01*
X0261928Y0107349D01*
X0262023Y0107452D01*
X0262122Y0107553D01*
X0262223Y0107651D01*
X0262327Y0107746D01*
X0262434Y0107838D01*
X0262543Y0107927D01*
X0262655Y0108012D01*
X0262769Y0108095D01*
X0262885Y0108175D01*
X0263004Y0108251D01*
X0263125Y0108323D01*
X0263247Y0108393D01*
X0263372Y0108458D01*
X0263498Y0108521D01*
X0263626Y0108579D01*
X0263756Y0108634D01*
X0263887Y0108686D01*
X0264020Y0108733D01*
X0264154Y0108777D01*
X0264289Y0108818D01*
X0264425Y0108854D01*
X0264562Y0108886D01*
X0264700Y0108915D01*
X0264838Y0108940D01*
X0264978Y0108960D01*
X0265118Y0108977D01*
X0265258Y0108990D01*
X0265399Y0108999D01*
X0265539Y0109004D01*
X0265680Y0109005D01*
X0265821Y0109002D01*
X0265962Y0108995D01*
X0266102Y0108984D01*
X0266242Y0108969D01*
X0266382Y0108950D01*
X0266521Y0108928D01*
X0266659Y0108901D01*
X0266797Y0108871D01*
X0266933Y0108836D01*
X0267069Y0108798D01*
X0267203Y0108756D01*
X0267337Y0108710D01*
X0267469Y0108661D01*
X0267599Y0108607D01*
X0267728Y0108550D01*
X0267855Y0108490D01*
X0267981Y0108426D01*
X0268104Y0108358D01*
X0268226Y0108287D01*
X0268346Y0108213D01*
X0268463Y0108135D01*
X0268578Y0108054D01*
X0268691Y0107970D01*
X0268802Y0107883D01*
X0268910Y0107792D01*
X0269015Y0107699D01*
X0269118Y0107602D01*
X0269218Y0107503D01*
X0269315Y0107401D01*
X0269409Y0107296D01*
X0269500Y0107189D01*
X0269588Y0107079D01*
X0269673Y0106967D01*
X0269755Y0106852D01*
X0269834Y0106735D01*
X0269909Y0106616D01*
X0269981Y0106495D01*
X0270049Y0106372D01*
X0270114Y0106247D01*
X0270176Y0106120D01*
X0270233Y0105991D01*
X0270288Y0105861D01*
X0270338Y0105730D01*
X0270385Y0105597D01*
X0270428Y0105463D01*
X0270467Y0105327D01*
X0270502Y0105191D01*
X0270534Y0105054D01*
X0270561Y0104916D01*
X0270585Y0104777D01*
X0270605Y0104637D01*
X0270621Y0104497D01*
X0270633Y0104357D01*
X0270641Y0104216D01*
X0270645Y0104075D01*
X0270645Y0103935D01*
X0270641Y0103794D01*
X0270633Y0103653D01*
X0270621Y0103513D01*
X0270605Y0103373D01*
X0270585Y0103233D01*
X0270561Y0103094D01*
X0270534Y0102956D01*
X0270502Y0102819D01*
X0270467Y0102683D01*
X0270428Y0102547D01*
X0270385Y0102413D01*
X0270338Y0102280D01*
X0270288Y0102149D01*
X0270233Y0102019D01*
X0270176Y0101890D01*
X0270114Y0101763D01*
X0270049Y0101638D01*
X0269981Y0101515D01*
X0269909Y0101394D01*
X0269834Y0101275D01*
X0269755Y0101158D01*
X0269673Y0101043D01*
X0269588Y0100931D01*
X0269500Y0100821D01*
X0269409Y0100714D01*
X0269315Y0100609D01*
X0269218Y0100507D01*
X0269118Y0100408D01*
X0269015Y0100311D01*
X0268910Y0100218D01*
X0268802Y0100127D01*
X0268691Y0100040D01*
X0268578Y0099956D01*
X0268463Y0099875D01*
X0268346Y0099797D01*
X0268226Y0099723D01*
X0268104Y0099652D01*
X0267981Y0099584D01*
X0267855Y0099520D01*
X0267728Y0099460D01*
X0267599Y0099403D01*
X0267469Y0099349D01*
X0267337Y0099300D01*
X0267203Y0099254D01*
X0267069Y0099212D01*
X0266933Y0099174D01*
X0266797Y0099139D01*
X0266659Y0099109D01*
X0266521Y0099082D01*
X0266382Y0099060D01*
X0266242Y0099041D01*
X0266102Y0099026D01*
X0265962Y0099015D01*
X0265821Y0099008D01*
X0265680Y0099005D01*
X0265539Y0099006D01*
X0265399Y0099011D01*
X0265258Y0099020D01*
X0265118Y0099033D01*
X0264978Y0099050D01*
X0264838Y0099070D01*
X0264700Y0099095D01*
X0264562Y0099124D01*
X0264425Y0099156D01*
X0264289Y0099192D01*
X0264154Y0099233D01*
X0264020Y0099277D01*
X0263887Y0099324D01*
X0263756Y0099376D01*
X0263626Y0099431D01*
X0263498Y0099489D01*
X0263372Y0099552D01*
X0263247Y0099617D01*
X0263125Y0099687D01*
X0263004Y0099759D01*
X0262885Y0099835D01*
X0262769Y0099915D01*
X0262655Y0099998D01*
X0262543Y0100083D01*
X0262434Y0100172D01*
X0262327Y0100264D01*
X0262223Y0100359D01*
X0262122Y0100457D01*
X0262023Y0100558D01*
X0261928Y0100661D01*
X0261835Y0100767D01*
X0261745Y0100876D01*
X0261659Y0100987D01*
X0261575Y0101100D01*
X0261495Y0101216D01*
X0261418Y0101334D01*
X0261345Y0101454D01*
X0261274Y0101577D01*
X0261208Y0101701D01*
X0261145Y0101827D01*
X0261085Y0101954D01*
X0261029Y0102083D01*
X0260977Y0102214D01*
X0260928Y0102346D01*
X0260883Y0102480D01*
X0260842Y0102615D01*
X0260805Y0102751D01*
X0260771Y0102887D01*
X0260742Y0103025D01*
X0260716Y0103164D01*
X0260695Y0103303D01*
X0260677Y0103443D01*
X0260663Y0103583D01*
X0260653Y0103723D01*
X0260647Y0103864D01*
X0260645Y0104005D01*
X0274070Y0124005D02*
X0274072Y0124146D01*
X0274078Y0124287D01*
X0274088Y0124427D01*
X0274102Y0124567D01*
X0274120Y0124707D01*
X0274141Y0124846D01*
X0274167Y0124985D01*
X0274196Y0125123D01*
X0274230Y0125259D01*
X0274267Y0125395D01*
X0274308Y0125530D01*
X0274353Y0125664D01*
X0274402Y0125796D01*
X0274454Y0125927D01*
X0274510Y0126056D01*
X0274570Y0126183D01*
X0274633Y0126309D01*
X0274699Y0126433D01*
X0274770Y0126556D01*
X0274843Y0126676D01*
X0274920Y0126794D01*
X0275000Y0126910D01*
X0275084Y0127023D01*
X0275170Y0127134D01*
X0275260Y0127243D01*
X0275353Y0127349D01*
X0275448Y0127452D01*
X0275547Y0127553D01*
X0275648Y0127651D01*
X0275752Y0127746D01*
X0275859Y0127838D01*
X0275968Y0127927D01*
X0276080Y0128012D01*
X0276194Y0128095D01*
X0276310Y0128175D01*
X0276429Y0128251D01*
X0276550Y0128323D01*
X0276672Y0128393D01*
X0276797Y0128458D01*
X0276923Y0128521D01*
X0277051Y0128579D01*
X0277181Y0128634D01*
X0277312Y0128686D01*
X0277445Y0128733D01*
X0277579Y0128777D01*
X0277714Y0128818D01*
X0277850Y0128854D01*
X0277987Y0128886D01*
X0278125Y0128915D01*
X0278263Y0128940D01*
X0278403Y0128960D01*
X0278543Y0128977D01*
X0278683Y0128990D01*
X0278824Y0128999D01*
X0278964Y0129004D01*
X0279105Y0129005D01*
X0279246Y0129002D01*
X0279387Y0128995D01*
X0279527Y0128984D01*
X0279667Y0128969D01*
X0279807Y0128950D01*
X0279946Y0128928D01*
X0280084Y0128901D01*
X0280222Y0128871D01*
X0280358Y0128836D01*
X0280494Y0128798D01*
X0280628Y0128756D01*
X0280762Y0128710D01*
X0280894Y0128661D01*
X0281024Y0128607D01*
X0281153Y0128550D01*
X0281280Y0128490D01*
X0281406Y0128426D01*
X0281529Y0128358D01*
X0281651Y0128287D01*
X0281771Y0128213D01*
X0281888Y0128135D01*
X0282003Y0128054D01*
X0282116Y0127970D01*
X0282227Y0127883D01*
X0282335Y0127792D01*
X0282440Y0127699D01*
X0282543Y0127602D01*
X0282643Y0127503D01*
X0282740Y0127401D01*
X0282834Y0127296D01*
X0282925Y0127189D01*
X0283013Y0127079D01*
X0283098Y0126967D01*
X0283180Y0126852D01*
X0283259Y0126735D01*
X0283334Y0126616D01*
X0283406Y0126495D01*
X0283474Y0126372D01*
X0283539Y0126247D01*
X0283601Y0126120D01*
X0283658Y0125991D01*
X0283713Y0125861D01*
X0283763Y0125730D01*
X0283810Y0125597D01*
X0283853Y0125463D01*
X0283892Y0125327D01*
X0283927Y0125191D01*
X0283959Y0125054D01*
X0283986Y0124916D01*
X0284010Y0124777D01*
X0284030Y0124637D01*
X0284046Y0124497D01*
X0284058Y0124357D01*
X0284066Y0124216D01*
X0284070Y0124075D01*
X0284070Y0123935D01*
X0284066Y0123794D01*
X0284058Y0123653D01*
X0284046Y0123513D01*
X0284030Y0123373D01*
X0284010Y0123233D01*
X0283986Y0123094D01*
X0283959Y0122956D01*
X0283927Y0122819D01*
X0283892Y0122683D01*
X0283853Y0122547D01*
X0283810Y0122413D01*
X0283763Y0122280D01*
X0283713Y0122149D01*
X0283658Y0122019D01*
X0283601Y0121890D01*
X0283539Y0121763D01*
X0283474Y0121638D01*
X0283406Y0121515D01*
X0283334Y0121394D01*
X0283259Y0121275D01*
X0283180Y0121158D01*
X0283098Y0121043D01*
X0283013Y0120931D01*
X0282925Y0120821D01*
X0282834Y0120714D01*
X0282740Y0120609D01*
X0282643Y0120507D01*
X0282543Y0120408D01*
X0282440Y0120311D01*
X0282335Y0120218D01*
X0282227Y0120127D01*
X0282116Y0120040D01*
X0282003Y0119956D01*
X0281888Y0119875D01*
X0281771Y0119797D01*
X0281651Y0119723D01*
X0281529Y0119652D01*
X0281406Y0119584D01*
X0281280Y0119520D01*
X0281153Y0119460D01*
X0281024Y0119403D01*
X0280894Y0119349D01*
X0280762Y0119300D01*
X0280628Y0119254D01*
X0280494Y0119212D01*
X0280358Y0119174D01*
X0280222Y0119139D01*
X0280084Y0119109D01*
X0279946Y0119082D01*
X0279807Y0119060D01*
X0279667Y0119041D01*
X0279527Y0119026D01*
X0279387Y0119015D01*
X0279246Y0119008D01*
X0279105Y0119005D01*
X0278964Y0119006D01*
X0278824Y0119011D01*
X0278683Y0119020D01*
X0278543Y0119033D01*
X0278403Y0119050D01*
X0278263Y0119070D01*
X0278125Y0119095D01*
X0277987Y0119124D01*
X0277850Y0119156D01*
X0277714Y0119192D01*
X0277579Y0119233D01*
X0277445Y0119277D01*
X0277312Y0119324D01*
X0277181Y0119376D01*
X0277051Y0119431D01*
X0276923Y0119489D01*
X0276797Y0119552D01*
X0276672Y0119617D01*
X0276550Y0119687D01*
X0276429Y0119759D01*
X0276310Y0119835D01*
X0276194Y0119915D01*
X0276080Y0119998D01*
X0275968Y0120083D01*
X0275859Y0120172D01*
X0275752Y0120264D01*
X0275648Y0120359D01*
X0275547Y0120457D01*
X0275448Y0120558D01*
X0275353Y0120661D01*
X0275260Y0120767D01*
X0275170Y0120876D01*
X0275084Y0120987D01*
X0275000Y0121100D01*
X0274920Y0121216D01*
X0274843Y0121334D01*
X0274770Y0121454D01*
X0274699Y0121577D01*
X0274633Y0121701D01*
X0274570Y0121827D01*
X0274510Y0121954D01*
X0274454Y0122083D01*
X0274402Y0122214D01*
X0274353Y0122346D01*
X0274308Y0122480D01*
X0274267Y0122615D01*
X0274230Y0122751D01*
X0274196Y0122887D01*
X0274167Y0123025D01*
X0274141Y0123164D01*
X0274120Y0123303D01*
X0274102Y0123443D01*
X0274088Y0123583D01*
X0274078Y0123723D01*
X0274072Y0123864D01*
X0274070Y0124005D01*
X0210055Y0161406D02*
X0210057Y0161547D01*
X0210063Y0161688D01*
X0210073Y0161828D01*
X0210087Y0161968D01*
X0210105Y0162108D01*
X0210126Y0162247D01*
X0210152Y0162386D01*
X0210181Y0162524D01*
X0210215Y0162660D01*
X0210252Y0162796D01*
X0210293Y0162931D01*
X0210338Y0163065D01*
X0210387Y0163197D01*
X0210439Y0163328D01*
X0210495Y0163457D01*
X0210555Y0163584D01*
X0210618Y0163710D01*
X0210684Y0163834D01*
X0210755Y0163957D01*
X0210828Y0164077D01*
X0210905Y0164195D01*
X0210985Y0164311D01*
X0211069Y0164424D01*
X0211155Y0164535D01*
X0211245Y0164644D01*
X0211338Y0164750D01*
X0211433Y0164853D01*
X0211532Y0164954D01*
X0211633Y0165052D01*
X0211737Y0165147D01*
X0211844Y0165239D01*
X0211953Y0165328D01*
X0212065Y0165413D01*
X0212179Y0165496D01*
X0212295Y0165576D01*
X0212414Y0165652D01*
X0212535Y0165724D01*
X0212657Y0165794D01*
X0212782Y0165859D01*
X0212908Y0165922D01*
X0213036Y0165980D01*
X0213166Y0166035D01*
X0213297Y0166087D01*
X0213430Y0166134D01*
X0213564Y0166178D01*
X0213699Y0166219D01*
X0213835Y0166255D01*
X0213972Y0166287D01*
X0214110Y0166316D01*
X0214248Y0166341D01*
X0214388Y0166361D01*
X0214528Y0166378D01*
X0214668Y0166391D01*
X0214809Y0166400D01*
X0214949Y0166405D01*
X0215090Y0166406D01*
X0215231Y0166403D01*
X0215372Y0166396D01*
X0215512Y0166385D01*
X0215652Y0166370D01*
X0215792Y0166351D01*
X0215931Y0166329D01*
X0216069Y0166302D01*
X0216207Y0166272D01*
X0216343Y0166237D01*
X0216479Y0166199D01*
X0216613Y0166157D01*
X0216747Y0166111D01*
X0216879Y0166062D01*
X0217009Y0166008D01*
X0217138Y0165951D01*
X0217265Y0165891D01*
X0217391Y0165827D01*
X0217514Y0165759D01*
X0217636Y0165688D01*
X0217756Y0165614D01*
X0217873Y0165536D01*
X0217988Y0165455D01*
X0218101Y0165371D01*
X0218212Y0165284D01*
X0218320Y0165193D01*
X0218425Y0165100D01*
X0218528Y0165003D01*
X0218628Y0164904D01*
X0218725Y0164802D01*
X0218819Y0164697D01*
X0218910Y0164590D01*
X0218998Y0164480D01*
X0219083Y0164368D01*
X0219165Y0164253D01*
X0219244Y0164136D01*
X0219319Y0164017D01*
X0219391Y0163896D01*
X0219459Y0163773D01*
X0219524Y0163648D01*
X0219586Y0163521D01*
X0219643Y0163392D01*
X0219698Y0163262D01*
X0219748Y0163131D01*
X0219795Y0162998D01*
X0219838Y0162864D01*
X0219877Y0162728D01*
X0219912Y0162592D01*
X0219944Y0162455D01*
X0219971Y0162317D01*
X0219995Y0162178D01*
X0220015Y0162038D01*
X0220031Y0161898D01*
X0220043Y0161758D01*
X0220051Y0161617D01*
X0220055Y0161476D01*
X0220055Y0161336D01*
X0220051Y0161195D01*
X0220043Y0161054D01*
X0220031Y0160914D01*
X0220015Y0160774D01*
X0219995Y0160634D01*
X0219971Y0160495D01*
X0219944Y0160357D01*
X0219912Y0160220D01*
X0219877Y0160084D01*
X0219838Y0159948D01*
X0219795Y0159814D01*
X0219748Y0159681D01*
X0219698Y0159550D01*
X0219643Y0159420D01*
X0219586Y0159291D01*
X0219524Y0159164D01*
X0219459Y0159039D01*
X0219391Y0158916D01*
X0219319Y0158795D01*
X0219244Y0158676D01*
X0219165Y0158559D01*
X0219083Y0158444D01*
X0218998Y0158332D01*
X0218910Y0158222D01*
X0218819Y0158115D01*
X0218725Y0158010D01*
X0218628Y0157908D01*
X0218528Y0157809D01*
X0218425Y0157712D01*
X0218320Y0157619D01*
X0218212Y0157528D01*
X0218101Y0157441D01*
X0217988Y0157357D01*
X0217873Y0157276D01*
X0217756Y0157198D01*
X0217636Y0157124D01*
X0217514Y0157053D01*
X0217391Y0156985D01*
X0217265Y0156921D01*
X0217138Y0156861D01*
X0217009Y0156804D01*
X0216879Y0156750D01*
X0216747Y0156701D01*
X0216613Y0156655D01*
X0216479Y0156613D01*
X0216343Y0156575D01*
X0216207Y0156540D01*
X0216069Y0156510D01*
X0215931Y0156483D01*
X0215792Y0156461D01*
X0215652Y0156442D01*
X0215512Y0156427D01*
X0215372Y0156416D01*
X0215231Y0156409D01*
X0215090Y0156406D01*
X0214949Y0156407D01*
X0214809Y0156412D01*
X0214668Y0156421D01*
X0214528Y0156434D01*
X0214388Y0156451D01*
X0214248Y0156471D01*
X0214110Y0156496D01*
X0213972Y0156525D01*
X0213835Y0156557D01*
X0213699Y0156593D01*
X0213564Y0156634D01*
X0213430Y0156678D01*
X0213297Y0156725D01*
X0213166Y0156777D01*
X0213036Y0156832D01*
X0212908Y0156890D01*
X0212782Y0156953D01*
X0212657Y0157018D01*
X0212535Y0157088D01*
X0212414Y0157160D01*
X0212295Y0157236D01*
X0212179Y0157316D01*
X0212065Y0157399D01*
X0211953Y0157484D01*
X0211844Y0157573D01*
X0211737Y0157665D01*
X0211633Y0157760D01*
X0211532Y0157858D01*
X0211433Y0157959D01*
X0211338Y0158062D01*
X0211245Y0158168D01*
X0211155Y0158277D01*
X0211069Y0158388D01*
X0210985Y0158501D01*
X0210905Y0158617D01*
X0210828Y0158735D01*
X0210755Y0158855D01*
X0210684Y0158978D01*
X0210618Y0159102D01*
X0210555Y0159228D01*
X0210495Y0159355D01*
X0210439Y0159484D01*
X0210387Y0159615D01*
X0210338Y0159747D01*
X0210293Y0159881D01*
X0210252Y0160016D01*
X0210215Y0160152D01*
X0210181Y0160288D01*
X0210152Y0160426D01*
X0210126Y0160565D01*
X0210105Y0160704D01*
X0210087Y0160844D01*
X0210073Y0160984D01*
X0210063Y0161124D01*
X0210057Y0161265D01*
X0210055Y0161406D01*
D20*
X0302043Y0143572D02*
X0317043Y0143572D01*
X0250291Y0066957D02*
X0136511Y0066957D01*
X0136511Y0017351D01*
X0250291Y0017351D01*
X0250291Y0066957D01*
X0096196Y0129658D02*
X0050448Y0129658D01*
X0050448Y0141658D01*
X0096196Y0141658D01*
X0096196Y0129658D01*
D21*
X0072338Y0110068D02*
X0072338Y0106131D01*
X0070370Y0108099D02*
X0074307Y0108099D01*
X0101866Y0108099D02*
X0105803Y0108099D01*
X0072338Y0054950D02*
X0072338Y0051013D01*
X0070370Y0052981D02*
X0074307Y0052981D01*
X0101866Y0052981D02*
X0105803Y0052981D01*
X0269378Y0069666D02*
X0272378Y0074666D01*
X0269378Y0074666D01*
X0269378Y0075666D01*
X0272378Y0074666D02*
X0275378Y0074666D01*
X0275378Y0073666D01*
X0272378Y0074666D02*
X0275378Y0069666D01*
X0302043Y0143572D02*
X0301800Y0143385D01*
X0301562Y0143193D01*
X0301329Y0142994D01*
X0301101Y0142790D01*
X0300878Y0142581D01*
X0300660Y0142366D01*
X0300447Y0142146D01*
X0300240Y0141921D01*
X0300038Y0141690D01*
X0299842Y0141455D01*
X0299652Y0141215D01*
X0299468Y0140971D01*
X0299290Y0140722D01*
X0299118Y0140468D01*
X0298952Y0140211D01*
X0298792Y0139950D01*
X0298639Y0139685D01*
X0298493Y0139416D01*
X0298353Y0139143D01*
X0298220Y0138868D01*
X0298094Y0138589D01*
X0297974Y0138307D01*
X0297862Y0138022D01*
X0297757Y0137735D01*
X0297658Y0137445D01*
X0297567Y0137153D01*
X0297483Y0136858D01*
X0297406Y0136562D01*
X0297336Y0136264D01*
X0297274Y0135964D01*
X0297219Y0135663D01*
X0297172Y0135361D01*
X0297132Y0135057D01*
X0297099Y0134753D01*
X0297074Y0134448D01*
X0297056Y0134142D01*
X0297046Y0133836D01*
X0297043Y0133530D01*
X0297048Y0133224D01*
X0297060Y0132918D01*
X0297080Y0132612D01*
X0297107Y0132308D01*
X0297142Y0132003D01*
X0297184Y0131700D01*
X0297233Y0131398D01*
X0297290Y0131097D01*
X0297355Y0130798D01*
X0297426Y0130500D01*
X0297505Y0130205D01*
X0297591Y0129911D01*
X0297684Y0129619D01*
X0297785Y0129330D01*
X0297892Y0129043D01*
X0298007Y0128759D01*
X0298128Y0128478D01*
X0298256Y0128200D01*
X0298391Y0127925D01*
X0298533Y0127654D01*
X0298681Y0127386D01*
X0298836Y0127122D01*
X0298997Y0126862D01*
X0299164Y0126606D01*
X0299338Y0126353D01*
X0299518Y0126106D01*
X0299704Y0125862D01*
X0299895Y0125624D01*
X0300093Y0125390D01*
X0300296Y0125161D01*
X0300505Y0124937D01*
X0300719Y0124718D01*
X0300939Y0124505D01*
X0301163Y0124297D01*
X0301393Y0124094D01*
X0301627Y0123898D01*
X0301867Y0123707D01*
X0302110Y0123522D01*
X0302359Y0123343D01*
X0302611Y0123170D01*
X0302868Y0123003D01*
X0303129Y0122843D01*
X0303394Y0122689D01*
X0303662Y0122542D01*
X0303934Y0122401D01*
X0304209Y0122267D01*
X0304488Y0122140D01*
X0304769Y0122019D01*
X0305054Y0121906D01*
X0305341Y0121800D01*
X0305630Y0121700D01*
X0305922Y0121608D01*
X0306216Y0121523D01*
X0306512Y0121445D01*
X0306810Y0121374D01*
X0307110Y0121311D01*
X0307411Y0121255D01*
X0307713Y0121207D01*
X0308016Y0121166D01*
X0308320Y0121132D01*
X0308625Y0121106D01*
X0308931Y0121087D01*
X0309237Y0121076D01*
X0309543Y0121072D01*
X0309849Y0121076D01*
X0310155Y0121087D01*
X0310461Y0121106D01*
X0310766Y0121132D01*
X0311070Y0121166D01*
X0311373Y0121207D01*
X0311675Y0121255D01*
X0311976Y0121311D01*
X0312276Y0121374D01*
X0312574Y0121445D01*
X0312870Y0121523D01*
X0313164Y0121608D01*
X0313456Y0121700D01*
X0313745Y0121800D01*
X0314032Y0121906D01*
X0314317Y0122019D01*
X0314598Y0122140D01*
X0314877Y0122267D01*
X0315152Y0122401D01*
X0315424Y0122542D01*
X0315692Y0122689D01*
X0315957Y0122843D01*
X0316218Y0123003D01*
X0316475Y0123170D01*
X0316727Y0123343D01*
X0316976Y0123522D01*
X0317219Y0123707D01*
X0317459Y0123898D01*
X0317693Y0124094D01*
X0317923Y0124297D01*
X0318147Y0124505D01*
X0318367Y0124718D01*
X0318581Y0124937D01*
X0318790Y0125161D01*
X0318993Y0125390D01*
X0319191Y0125624D01*
X0319382Y0125862D01*
X0319568Y0126106D01*
X0319748Y0126353D01*
X0319922Y0126606D01*
X0320089Y0126862D01*
X0320250Y0127122D01*
X0320405Y0127386D01*
X0320553Y0127654D01*
X0320695Y0127925D01*
X0320830Y0128200D01*
X0320958Y0128478D01*
X0321079Y0128759D01*
X0321194Y0129043D01*
X0321301Y0129330D01*
X0321402Y0129619D01*
X0321495Y0129911D01*
X0321581Y0130205D01*
X0321660Y0130500D01*
X0321731Y0130798D01*
X0321796Y0131097D01*
X0321853Y0131398D01*
X0321902Y0131700D01*
X0321944Y0132003D01*
X0321979Y0132308D01*
X0322006Y0132612D01*
X0322026Y0132918D01*
X0322038Y0133224D01*
X0322043Y0133530D01*
X0322040Y0133836D01*
X0322030Y0134142D01*
X0322012Y0134448D01*
X0321987Y0134753D01*
X0321954Y0135057D01*
X0321914Y0135361D01*
X0321867Y0135663D01*
X0321812Y0135964D01*
X0321750Y0136264D01*
X0321680Y0136562D01*
X0321603Y0136858D01*
X0321519Y0137153D01*
X0321428Y0137445D01*
X0321329Y0137735D01*
X0321224Y0138022D01*
X0321112Y0138307D01*
X0320992Y0138589D01*
X0320866Y0138868D01*
X0320733Y0139143D01*
X0320593Y0139416D01*
X0320447Y0139685D01*
X0320294Y0139950D01*
X0320134Y0140211D01*
X0319968Y0140468D01*
X0319796Y0140722D01*
X0319618Y0140971D01*
X0319434Y0141215D01*
X0319244Y0141455D01*
X0319048Y0141690D01*
X0318846Y0141921D01*
X0318639Y0142146D01*
X0318426Y0142366D01*
X0318208Y0142581D01*
X0317985Y0142790D01*
X0317757Y0142994D01*
X0317524Y0143193D01*
X0317286Y0143385D01*
X0317043Y0143572D01*
D22*
X0254740Y0113087D02*
X0254740Y0112087D01*
D23*
X0142220Y0175028D03*
X0063480Y0175028D03*
X0280015Y0017548D03*
X0320015Y0017548D03*
D24*
X0344342Y0012829D02*
X0348545Y0006524D01*
X0350787Y0006524D02*
X0354991Y0010728D01*
X0354991Y0011779D01*
X0353940Y0012829D01*
X0351838Y0012829D01*
X0350787Y0011779D01*
X0348545Y0012829D02*
X0344342Y0006524D01*
X0350787Y0006524D02*
X0354991Y0006524D01*
X0256470Y0006524D02*
X0252266Y0006524D01*
X0254368Y0006524D02*
X0254368Y0012829D01*
X0252266Y0010728D01*
X0250024Y0012829D02*
X0245821Y0006524D01*
X0250024Y0006524D02*
X0245821Y0012829D01*
X0115655Y0180737D02*
X0113553Y0180737D01*
X0112503Y0181788D01*
X0110261Y0180737D02*
X0106057Y0187042D01*
X0110261Y0187042D02*
X0106057Y0180737D01*
X0114604Y0183889D02*
X0115655Y0183889D01*
X0116706Y0182838D01*
X0116706Y0181788D01*
X0115655Y0180737D01*
X0115655Y0183889D02*
X0116706Y0184940D01*
X0116706Y0185991D01*
X0115655Y0187042D01*
X0113553Y0187042D01*
X0112503Y0185991D01*
X0097117Y0183889D02*
X0092913Y0183889D01*
X0096066Y0187042D01*
X0096066Y0180737D01*
X0090671Y0180737D02*
X0086468Y0187042D01*
X0090671Y0187042D02*
X0086468Y0180737D01*
M02*
