G04 EAGLE Gerber RS-274X export*
G75*
%MOMM*%
%FSLAX34Y34*%
%LPD*%
%INSilk Top*%
%IPPOS*%
%AMOC8*
5,1,8,0,0,1.08239X$1,22.5*%
G01*
%ADD10C,0.406400*%
%ADD11C,0.000000*%


D10*
X0Y0D02*
X0Y28750D01*
X0Y43750D02*
X0Y72500D01*
X0Y87500D02*
X0Y116250D01*
X0Y131250D02*
X0Y160000D01*
X0Y175000D02*
X0Y203750D01*
X0Y218750D02*
X0Y247500D01*
X0Y262500D02*
X0Y291250D01*
X0Y306250D02*
X0Y335000D01*
X0Y350000D02*
X0Y378750D01*
X0Y393750D02*
X0Y422500D01*
X0Y437500D02*
X0Y466250D01*
X0Y481250D02*
X0Y510000D01*
X0Y525000D02*
X0Y553750D01*
X0Y568750D02*
X0Y597500D01*
X0Y612500D02*
X0Y641250D01*
X0Y656250D02*
X0Y685000D01*
X660938Y0D02*
X690000Y0D01*
X645938Y0D02*
X616875Y0D01*
X601875Y0D02*
X572813Y0D01*
X557813Y0D02*
X528750Y0D01*
X513750Y0D02*
X484688Y0D01*
X469688Y0D02*
X440625Y0D01*
X425625Y0D02*
X396563Y0D01*
X381563Y0D02*
X352500Y0D01*
X337500Y0D02*
X308438Y0D01*
X293438Y0D02*
X264375Y0D01*
X249375Y0D02*
X220313Y0D01*
X205313Y0D02*
X176250Y0D01*
X161250Y0D02*
X132188Y0D01*
X117188Y0D02*
X88125Y0D01*
X73125Y0D02*
X44063Y0D01*
X29063Y0D02*
X0Y0D01*
X690000Y0D02*
X690000Y28750D01*
X690000Y43750D02*
X690000Y72500D01*
X690000Y87500D02*
X690000Y116250D01*
X690000Y131250D02*
X690000Y160000D01*
X690000Y175000D02*
X690000Y203750D01*
X690000Y218750D02*
X690000Y247500D01*
X690000Y262500D02*
X690000Y291250D01*
X690000Y306250D02*
X690000Y335000D01*
X690000Y350000D02*
X690000Y378750D01*
X690000Y393750D02*
X690000Y422500D01*
X690000Y437500D02*
X690000Y466250D01*
X690000Y481250D02*
X690000Y510000D01*
X690000Y525000D02*
X690000Y553750D01*
X690000Y568750D02*
X690000Y597500D01*
X690000Y612500D02*
X690000Y641250D01*
X690000Y656250D02*
X690000Y685000D01*
X25288Y685000D02*
X0Y685000D01*
X32807Y685000D02*
X34026Y685000D01*
X41544Y685000D02*
X66833Y685000D01*
X74351Y685000D02*
X75571Y685000D01*
X83089Y685000D02*
X108377Y685000D01*
X115896Y685000D02*
X117115Y685000D01*
X124633Y685000D02*
X149922Y685000D01*
X157440Y685000D02*
X158659Y685000D01*
X166178Y685000D02*
X191466Y685000D01*
X198985Y685000D02*
X200204Y685000D01*
X207722Y685000D02*
X233011Y685000D01*
X240529Y685000D02*
X241748Y685000D01*
X249267Y685000D02*
X274555Y685000D01*
X282074Y685000D02*
X283293Y685000D01*
X290811Y685000D02*
X316100Y685000D01*
X323618Y685000D02*
X324837Y685000D01*
X332356Y685000D02*
X357644Y685000D01*
X365163Y685000D02*
X366382Y685000D01*
X373900Y685000D02*
X399189Y685000D01*
X406707Y685000D02*
X407926Y685000D01*
X415445Y685000D02*
X440733Y685000D01*
X448252Y685000D02*
X449471Y685000D01*
X456989Y685000D02*
X482278Y685000D01*
X489796Y685000D02*
X491015Y685000D01*
X498534Y685000D02*
X523822Y685000D01*
X531341Y685000D02*
X532560Y685000D01*
X540078Y685000D02*
X565367Y685000D01*
X572885Y685000D02*
X574104Y685000D01*
X581623Y685000D02*
X606911Y685000D01*
X614429Y685000D02*
X615649Y685000D01*
X623167Y685000D02*
X648456Y685000D01*
X655974Y685000D02*
X657193Y685000D01*
X664712Y685000D02*
X690000Y685000D01*
D11*
X0Y685000D02*
X0Y0D01*
X0Y685000D02*
X690000Y685000D01*
X690000Y0D01*
X0Y0D01*
M02*
