%
M48
M72
T01C0.02400
T02C0.02362
T03C0.03543
T04C0.03543
T05C0.03543
T06C0.02362
T07C0.05118
T08C0.09843
T09C0.10827
%
T01
X306418Y161220
X306418Y171220
X306418Y181220
X326103Y181220
X326103Y171220
X326103Y161220
X348150Y161220
X348150Y171220
X348150Y181220
X367835Y181220
X367835Y171220
X367835Y161220
X404056Y161220
X404056Y171220
X404056Y181220
X423741Y181220
X423741Y171220
X423741Y161220
X445788Y161220
X445788Y171220
X445788Y181220
X465473Y181220
X465473Y171220
X465473Y161220
X465631Y281457
X455631Y281457
X445631Y281457
X426261Y281457
X416261Y281457
X406261Y281457
X367993Y281457
X357993Y281457
X347993Y281457
X328623Y281457
X318623Y281457
X308623Y281457
T02
X305158Y295236
X315158Y295236
X323465Y295236
X333465Y295236
X347875Y295236
X357875Y295236
X362835Y295236
X372835Y295236
X381221Y295118
X390867Y296142
X390867Y306142
X402796Y295236
X412796Y295236
X421103Y295236
X431103Y295236
X445749Y295236
X455749Y295236
X460473Y295236
X470473Y295236
X481024Y295118
X481024Y285118
X470591Y267756
X459646Y260787
X449646Y260787
X450631Y249213
X460631Y249213
X470631Y249213
X470591Y257756
X440631Y249213
X428898Y249213
X418898Y249213
X408898Y249213
X398898Y249213
X407914Y260787
X417914Y260787
X428859Y257756
X428859Y267756
X381221Y285118
X372954Y267756
X362009Y260787
X352009Y260787
X352993Y249213
X362993Y249213
X372993Y249213
X372954Y257756
X342993Y249213
X331261Y249213
X321261Y249213
X311261Y249213
X301261Y249213
X310276Y260787
X320276Y260787
X331221Y257756
X331221Y267756
X293229Y296142
X293229Y306142
X273859Y249213
X273859Y239213
X273859Y229213
X273859Y219213
X301261Y219213
X311261Y219213
X321261Y219213
X331261Y219213
X342993Y219213
X352993Y219213
X362993Y219213
X372993Y219213
X372835Y209685
X372835Y199685
X357993Y199685
X357993Y209685
X343150Y209685
X331221Y209685
X331221Y199685
X343150Y199685
X316261Y199685
X316261Y209685
X301418Y209685
X301418Y199685
X239253Y202874
X239213Y195118
X229213Y195118
X229253Y202874
X234174Y216299
X224174Y216299
X229174Y223799
X210237Y242441
X200237Y242441
X188190Y242441
X178190Y242441
X166930Y242441
X156930Y242441
X145670Y242441
X135670Y242441
X123623Y242441
X113623Y242441
X102363Y242441
X92363Y242441
X80316Y242441
X70316Y242441
X58269Y242441
X48269Y242441
X51221Y225236
X41221Y225236
X41221Y217362
X51143Y217323
X61103Y217126
X61221Y225236
X71221Y225236
X71339Y217323
X81182Y217244
X81221Y225236
X91221Y225236
X91221Y217323
X100867Y212323
X110867Y212323
X111221Y199370
X101221Y199370
X91221Y199370
X81221Y199370
X71221Y199370
X61221Y199370
X51221Y199370
X41221Y199370
X31221Y199370
X21221Y199370
X21261Y207283
X31064Y207362
X41221Y207362
X51143Y207323
X61103Y207126
X71339Y207323
X81182Y207244
X91221Y207323
X101221Y225236
X111412Y225276
X121412Y225276
X131143Y225276
X131182Y217323
X141221Y217323
X141143Y225276
X151182Y217323
X157520Y222283
X164174Y217323
X157520Y212283
X151182Y207323
X141221Y207323
X131182Y207323
X131221Y199370
X121221Y199370
X141221Y199370
X151221Y199370
X177048Y196339
X187048Y196339
X197048Y196339
X224371Y178819
X234371Y178819
X229371Y186319
X197048Y226339
X187048Y226339
X177048Y226339
X164174Y227323
X166930Y272441
X156930Y272441
X145670Y272441
X135670Y272441
X123623Y272441
X113623Y272441
X113623Y281063
X113623Y287087
X123623Y287087
X123623Y281063
X135670Y281063
X135670Y287087
X145670Y287087
X145670Y281063
X156930Y281063
X156930Y287087
X166930Y287087
X166930Y281063
X178190Y281063
X178190Y287087
X188190Y287087
X188190Y281063
X200237Y281063
X200237Y287087
X210237Y287087
X210237Y281063
X210237Y272441
X200237Y272441
X188190Y272441
X178190Y272441
X178190Y297087
X188190Y297087
X200237Y297087
X210237Y297087
X166930Y297087
X156930Y297087
X145670Y297087
X135670Y297087
X123623Y297087
X113623Y297087
X102363Y297087
X92363Y297087
X80316Y297087
X70316Y297087
X58269Y297087
X48269Y297087
X48269Y287087
X48269Y281063
X58269Y281063
X58269Y287087
X70316Y287087
X70316Y281063
X80316Y281063
X80316Y287087
X92363Y287087
X92363Y281063
X102363Y281063
X102363Y287087
X102363Y272441
X92363Y272441
X80316Y272441
X70316Y272441
X58269Y272441
X48269Y272441
X31221Y225236
X31064Y217362
X21261Y217283
X21221Y225236
X21221Y169370
X31221Y169370
X41221Y169370
X51221Y169370
X61221Y169370
X71221Y169370
X81221Y169370
X91221Y169370
X101221Y169370
X111221Y169370
X121221Y169370
X131221Y169370
X141221Y169370
X151221Y169370
X151221Y158976
X141221Y158976
X131103Y158976
X121103Y158976
X111379Y159882
X101379Y159882
X91280Y159882
X81280Y159882
X71280Y159882
X61280Y159882
X51280Y159882
X41280Y159882
X31280Y159882
X21280Y159882
X11280Y159882
X11280Y129882
X21280Y129882
X31280Y129882
X41280Y129882
X51280Y129882
X61280Y129882
X71280Y129882
X81280Y129882
X91280Y129882
X120001Y99764
X133780Y99764
X133780Y81260
X133780Y69843
X120001Y69843
X120001Y81260
X120001Y51339
X133780Y51339
X299528Y106535
X313308Y101575
X329568Y87165
X339568Y87165
X346969Y82165
X356851Y90512
X346969Y92165
X340867Y111614
X327087Y116575
X313308Y121575
X299528Y126535
X327087Y136575
X340867Y131614
X353072Y132362
X353072Y122362
X364056Y145236
X374056Y145236
X381143Y149567
X391143Y149567
X395001Y145748
X408780Y128878
X403780Y121378
X395001Y125748
X413780Y121378
X430434Y116654
X444213Y116654
X457993Y116654
X471772Y116654
X481654Y121654
X489686Y126378
X481654Y131654
X489686Y138071
X482186Y143071
X489686Y148071
X489765Y158622
X479765Y158622
X471772Y136654
X457993Y136654
X444213Y136654
X430434Y136654
X489686Y116378
X461497Y74016
X451497Y74016
X441497Y74016
X431497Y74016
X421497Y74016
X411497Y74016
X401497Y74016
X391497Y74016
X376851Y74016
X366851Y74016
X356851Y74016
X346851Y74016
X336851Y74016
X326851Y74016
X316851Y74016
X306851Y74016
X306851Y44016
X316851Y44016
X326851Y44016
X336851Y44016
X346851Y44016
X356851Y44016
X366851Y44016
X376851Y44016
X391497Y44016
X401497Y44016
X411497Y44016
X421497Y44016
X431497Y44016
X441497Y44016
X451497Y44016
X461497Y44016
X477914Y55512
X487914Y55512
X497914Y55512
X497914Y25512
X487914Y25512
X477914Y25512
X426654Y90512
X406654Y90512
X376851Y90512
X399056Y199685
X399056Y209685
X398898Y219213
X408898Y219213
X418898Y219213
X428898Y219213
X440631Y219213
X450631Y219213
X460631Y219213
X470631Y219213
X470709Y209685
X470709Y199685
X455631Y199685
X455631Y209685
X440788Y209685
X428977Y209685
X428977Y199685
X440788Y199685
X413898Y199685
X413898Y209685
T03
X179056Y81260
X179056Y51339
X74725Y69843
X74725Y99764
T04
X47166Y99764
X47166Y69843
X206615Y81260
X206615Y51339
T05
X227087Y316102
X234961Y316102
X234961Y323976
X227087Y323976
X242835Y323976
X242835Y316102
X486930Y316102
X494804Y316102
X502678Y316102
X502678Y323976
X494804Y323976
X486930Y323976
T06
X51261Y120236
X41261Y120236
X31261Y120236
X21261Y120236
X11261Y120236
T07
X28465Y26732
X48150Y26732
X87520Y26732
X107206Y26732
X147363Y26732
X167048Y26732
X206418Y26732
X226103Y26732
X284765Y103701
X284765Y129291
X192993Y181024
X167402Y181024
X166261Y319646
X185946Y319646
X205631Y319646
X146576Y319646
X107599Y319646
X87914Y319646
X68229Y319646
X48544Y319646
X28859Y319646
X308780Y319646
X328465Y319646
X348150Y319646
X367835Y319646
X406418Y319646
X426103Y319646
X445788Y319646
X465473Y319646
T08
X485552Y271614
X225709Y271614
X288702Y74764
X28859Y74764
T09
X28859Y101929
X225709Y101929
X225709Y244449
X28859Y244449
M30
