G75*
%MOIN*%
%OFA0B0*%
%FSLAX25Y25*%
%IPPOS*%
%LPD*%
%AMOC8*
5,1,8,0,0,1.08239X$1,22.5*
%
%ADD10C,0.00000*%
%ADD11C,0.10243*%
%ADD12C,0.05600*%
%ADD13C,0.05900*%
%ADD14C,0.05943*%
%ADD15C,0.08077*%
D10*
X0001000Y0010394D02*
X0001000Y0255276D01*
X0262811Y0255276D01*
X0262811Y0010394D01*
X0001000Y0010394D01*
X0028559Y0061575D02*
X0028561Y0061715D01*
X0028567Y0061855D01*
X0028577Y0061994D01*
X0028591Y0062133D01*
X0028609Y0062272D01*
X0028630Y0062410D01*
X0028656Y0062548D01*
X0028686Y0062685D01*
X0028719Y0062820D01*
X0028757Y0062955D01*
X0028798Y0063089D01*
X0028843Y0063222D01*
X0028891Y0063353D01*
X0028944Y0063482D01*
X0029000Y0063611D01*
X0029059Y0063737D01*
X0029123Y0063862D01*
X0029189Y0063985D01*
X0029260Y0064106D01*
X0029333Y0064225D01*
X0029410Y0064342D01*
X0029491Y0064456D01*
X0029574Y0064568D01*
X0029661Y0064678D01*
X0029751Y0064786D01*
X0029843Y0064890D01*
X0029939Y0064992D01*
X0030038Y0065092D01*
X0030139Y0065188D01*
X0030243Y0065282D01*
X0030350Y0065372D01*
X0030459Y0065459D01*
X0030571Y0065544D01*
X0030685Y0065625D01*
X0030801Y0065703D01*
X0030919Y0065777D01*
X0031040Y0065848D01*
X0031162Y0065916D01*
X0031287Y0065980D01*
X0031413Y0066041D01*
X0031540Y0066098D01*
X0031670Y0066151D01*
X0031801Y0066201D01*
X0031933Y0066246D01*
X0032066Y0066289D01*
X0032201Y0066327D01*
X0032336Y0066361D01*
X0032473Y0066392D01*
X0032610Y0066419D01*
X0032748Y0066441D01*
X0032887Y0066460D01*
X0033026Y0066475D01*
X0033165Y0066486D01*
X0033305Y0066493D01*
X0033445Y0066496D01*
X0033585Y0066495D01*
X0033725Y0066490D01*
X0033864Y0066481D01*
X0034004Y0066468D01*
X0034143Y0066451D01*
X0034281Y0066430D01*
X0034419Y0066406D01*
X0034556Y0066377D01*
X0034692Y0066345D01*
X0034827Y0066308D01*
X0034961Y0066268D01*
X0035094Y0066224D01*
X0035225Y0066176D01*
X0035355Y0066125D01*
X0035484Y0066070D01*
X0035611Y0066011D01*
X0035736Y0065948D01*
X0035859Y0065883D01*
X0035981Y0065813D01*
X0036100Y0065740D01*
X0036218Y0065664D01*
X0036333Y0065585D01*
X0036446Y0065502D01*
X0036556Y0065416D01*
X0036664Y0065327D01*
X0036769Y0065235D01*
X0036872Y0065140D01*
X0036972Y0065042D01*
X0037069Y0064942D01*
X0037163Y0064838D01*
X0037255Y0064732D01*
X0037343Y0064624D01*
X0037428Y0064513D01*
X0037510Y0064399D01*
X0037589Y0064283D01*
X0037664Y0064166D01*
X0037736Y0064046D01*
X0037804Y0063924D01*
X0037869Y0063800D01*
X0037931Y0063674D01*
X0037989Y0063547D01*
X0038043Y0063418D01*
X0038094Y0063287D01*
X0038140Y0063155D01*
X0038183Y0063022D01*
X0038223Y0062888D01*
X0038258Y0062753D01*
X0038290Y0062616D01*
X0038317Y0062479D01*
X0038341Y0062341D01*
X0038361Y0062203D01*
X0038377Y0062064D01*
X0038389Y0061924D01*
X0038397Y0061785D01*
X0038401Y0061645D01*
X0038401Y0061505D01*
X0038397Y0061365D01*
X0038389Y0061226D01*
X0038377Y0061086D01*
X0038361Y0060947D01*
X0038341Y0060809D01*
X0038317Y0060671D01*
X0038290Y0060534D01*
X0038258Y0060397D01*
X0038223Y0060262D01*
X0038183Y0060128D01*
X0038140Y0059995D01*
X0038094Y0059863D01*
X0038043Y0059732D01*
X0037989Y0059603D01*
X0037931Y0059476D01*
X0037869Y0059350D01*
X0037804Y0059226D01*
X0037736Y0059104D01*
X0037664Y0058984D01*
X0037589Y0058867D01*
X0037510Y0058751D01*
X0037428Y0058637D01*
X0037343Y0058526D01*
X0037255Y0058418D01*
X0037163Y0058312D01*
X0037069Y0058208D01*
X0036972Y0058108D01*
X0036872Y0058010D01*
X0036769Y0057915D01*
X0036664Y0057823D01*
X0036556Y0057734D01*
X0036446Y0057648D01*
X0036333Y0057565D01*
X0036218Y0057486D01*
X0036100Y0057410D01*
X0035981Y0057337D01*
X0035859Y0057267D01*
X0035736Y0057202D01*
X0035611Y0057139D01*
X0035484Y0057080D01*
X0035355Y0057025D01*
X0035225Y0056974D01*
X0035094Y0056926D01*
X0034961Y0056882D01*
X0034827Y0056842D01*
X0034692Y0056805D01*
X0034556Y0056773D01*
X0034419Y0056744D01*
X0034281Y0056720D01*
X0034143Y0056699D01*
X0034004Y0056682D01*
X0033864Y0056669D01*
X0033725Y0056660D01*
X0033585Y0056655D01*
X0033445Y0056654D01*
X0033305Y0056657D01*
X0033165Y0056664D01*
X0033026Y0056675D01*
X0032887Y0056690D01*
X0032748Y0056709D01*
X0032610Y0056731D01*
X0032473Y0056758D01*
X0032336Y0056789D01*
X0032201Y0056823D01*
X0032066Y0056861D01*
X0031933Y0056904D01*
X0031801Y0056949D01*
X0031670Y0056999D01*
X0031540Y0057052D01*
X0031413Y0057109D01*
X0031287Y0057170D01*
X0031162Y0057234D01*
X0031040Y0057302D01*
X0030919Y0057373D01*
X0030801Y0057447D01*
X0030685Y0057525D01*
X0030571Y0057606D01*
X0030459Y0057691D01*
X0030350Y0057778D01*
X0030243Y0057868D01*
X0030139Y0057962D01*
X0030038Y0058058D01*
X0029939Y0058158D01*
X0029843Y0058260D01*
X0029751Y0058364D01*
X0029661Y0058472D01*
X0029574Y0058582D01*
X0029491Y0058694D01*
X0029410Y0058808D01*
X0029333Y0058925D01*
X0029260Y0059044D01*
X0029189Y0059165D01*
X0029123Y0059288D01*
X0029059Y0059413D01*
X0029000Y0059539D01*
X0028944Y0059668D01*
X0028891Y0059797D01*
X0028843Y0059928D01*
X0028798Y0060061D01*
X0028757Y0060195D01*
X0028719Y0060330D01*
X0028686Y0060465D01*
X0028656Y0060602D01*
X0028630Y0060740D01*
X0028609Y0060878D01*
X0028591Y0061017D01*
X0028577Y0061156D01*
X0028567Y0061295D01*
X0028561Y0061435D01*
X0028559Y0061575D01*
X0028559Y0204094D02*
X0028561Y0204234D01*
X0028567Y0204374D01*
X0028577Y0204513D01*
X0028591Y0204652D01*
X0028609Y0204791D01*
X0028630Y0204929D01*
X0028656Y0205067D01*
X0028686Y0205204D01*
X0028719Y0205339D01*
X0028757Y0205474D01*
X0028798Y0205608D01*
X0028843Y0205741D01*
X0028891Y0205872D01*
X0028944Y0206001D01*
X0029000Y0206130D01*
X0029059Y0206256D01*
X0029123Y0206381D01*
X0029189Y0206504D01*
X0029260Y0206625D01*
X0029333Y0206744D01*
X0029410Y0206861D01*
X0029491Y0206975D01*
X0029574Y0207087D01*
X0029661Y0207197D01*
X0029751Y0207305D01*
X0029843Y0207409D01*
X0029939Y0207511D01*
X0030038Y0207611D01*
X0030139Y0207707D01*
X0030243Y0207801D01*
X0030350Y0207891D01*
X0030459Y0207978D01*
X0030571Y0208063D01*
X0030685Y0208144D01*
X0030801Y0208222D01*
X0030919Y0208296D01*
X0031040Y0208367D01*
X0031162Y0208435D01*
X0031287Y0208499D01*
X0031413Y0208560D01*
X0031540Y0208617D01*
X0031670Y0208670D01*
X0031801Y0208720D01*
X0031933Y0208765D01*
X0032066Y0208808D01*
X0032201Y0208846D01*
X0032336Y0208880D01*
X0032473Y0208911D01*
X0032610Y0208938D01*
X0032748Y0208960D01*
X0032887Y0208979D01*
X0033026Y0208994D01*
X0033165Y0209005D01*
X0033305Y0209012D01*
X0033445Y0209015D01*
X0033585Y0209014D01*
X0033725Y0209009D01*
X0033864Y0209000D01*
X0034004Y0208987D01*
X0034143Y0208970D01*
X0034281Y0208949D01*
X0034419Y0208925D01*
X0034556Y0208896D01*
X0034692Y0208864D01*
X0034827Y0208827D01*
X0034961Y0208787D01*
X0035094Y0208743D01*
X0035225Y0208695D01*
X0035355Y0208644D01*
X0035484Y0208589D01*
X0035611Y0208530D01*
X0035736Y0208467D01*
X0035859Y0208402D01*
X0035981Y0208332D01*
X0036100Y0208259D01*
X0036218Y0208183D01*
X0036333Y0208104D01*
X0036446Y0208021D01*
X0036556Y0207935D01*
X0036664Y0207846D01*
X0036769Y0207754D01*
X0036872Y0207659D01*
X0036972Y0207561D01*
X0037069Y0207461D01*
X0037163Y0207357D01*
X0037255Y0207251D01*
X0037343Y0207143D01*
X0037428Y0207032D01*
X0037510Y0206918D01*
X0037589Y0206802D01*
X0037664Y0206685D01*
X0037736Y0206565D01*
X0037804Y0206443D01*
X0037869Y0206319D01*
X0037931Y0206193D01*
X0037989Y0206066D01*
X0038043Y0205937D01*
X0038094Y0205806D01*
X0038140Y0205674D01*
X0038183Y0205541D01*
X0038223Y0205407D01*
X0038258Y0205272D01*
X0038290Y0205135D01*
X0038317Y0204998D01*
X0038341Y0204860D01*
X0038361Y0204722D01*
X0038377Y0204583D01*
X0038389Y0204443D01*
X0038397Y0204304D01*
X0038401Y0204164D01*
X0038401Y0204024D01*
X0038397Y0203884D01*
X0038389Y0203745D01*
X0038377Y0203605D01*
X0038361Y0203466D01*
X0038341Y0203328D01*
X0038317Y0203190D01*
X0038290Y0203053D01*
X0038258Y0202916D01*
X0038223Y0202781D01*
X0038183Y0202647D01*
X0038140Y0202514D01*
X0038094Y0202382D01*
X0038043Y0202251D01*
X0037989Y0202122D01*
X0037931Y0201995D01*
X0037869Y0201869D01*
X0037804Y0201745D01*
X0037736Y0201623D01*
X0037664Y0201503D01*
X0037589Y0201386D01*
X0037510Y0201270D01*
X0037428Y0201156D01*
X0037343Y0201045D01*
X0037255Y0200937D01*
X0037163Y0200831D01*
X0037069Y0200727D01*
X0036972Y0200627D01*
X0036872Y0200529D01*
X0036769Y0200434D01*
X0036664Y0200342D01*
X0036556Y0200253D01*
X0036446Y0200167D01*
X0036333Y0200084D01*
X0036218Y0200005D01*
X0036100Y0199929D01*
X0035981Y0199856D01*
X0035859Y0199786D01*
X0035736Y0199721D01*
X0035611Y0199658D01*
X0035484Y0199599D01*
X0035355Y0199544D01*
X0035225Y0199493D01*
X0035094Y0199445D01*
X0034961Y0199401D01*
X0034827Y0199361D01*
X0034692Y0199324D01*
X0034556Y0199292D01*
X0034419Y0199263D01*
X0034281Y0199239D01*
X0034143Y0199218D01*
X0034004Y0199201D01*
X0033864Y0199188D01*
X0033725Y0199179D01*
X0033585Y0199174D01*
X0033445Y0199173D01*
X0033305Y0199176D01*
X0033165Y0199183D01*
X0033026Y0199194D01*
X0032887Y0199209D01*
X0032748Y0199228D01*
X0032610Y0199250D01*
X0032473Y0199277D01*
X0032336Y0199308D01*
X0032201Y0199342D01*
X0032066Y0199380D01*
X0031933Y0199423D01*
X0031801Y0199468D01*
X0031670Y0199518D01*
X0031540Y0199571D01*
X0031413Y0199628D01*
X0031287Y0199689D01*
X0031162Y0199753D01*
X0031040Y0199821D01*
X0030919Y0199892D01*
X0030801Y0199966D01*
X0030685Y0200044D01*
X0030571Y0200125D01*
X0030459Y0200210D01*
X0030350Y0200297D01*
X0030243Y0200387D01*
X0030139Y0200481D01*
X0030038Y0200577D01*
X0029939Y0200677D01*
X0029843Y0200779D01*
X0029751Y0200883D01*
X0029661Y0200991D01*
X0029574Y0201101D01*
X0029491Y0201213D01*
X0029410Y0201327D01*
X0029333Y0201444D01*
X0029260Y0201563D01*
X0029189Y0201684D01*
X0029123Y0201807D01*
X0029059Y0201932D01*
X0029000Y0202058D01*
X0028944Y0202187D01*
X0028891Y0202316D01*
X0028843Y0202447D01*
X0028798Y0202580D01*
X0028757Y0202714D01*
X0028719Y0202849D01*
X0028686Y0202984D01*
X0028656Y0203121D01*
X0028630Y0203259D01*
X0028609Y0203397D01*
X0028591Y0203536D01*
X0028577Y0203675D01*
X0028567Y0203814D01*
X0028561Y0203954D01*
X0028559Y0204094D01*
X0225410Y0204094D02*
X0225412Y0204234D01*
X0225418Y0204374D01*
X0225428Y0204513D01*
X0225442Y0204652D01*
X0225460Y0204791D01*
X0225481Y0204929D01*
X0225507Y0205067D01*
X0225537Y0205204D01*
X0225570Y0205339D01*
X0225608Y0205474D01*
X0225649Y0205608D01*
X0225694Y0205741D01*
X0225742Y0205872D01*
X0225795Y0206001D01*
X0225851Y0206130D01*
X0225910Y0206256D01*
X0225974Y0206381D01*
X0226040Y0206504D01*
X0226111Y0206625D01*
X0226184Y0206744D01*
X0226261Y0206861D01*
X0226342Y0206975D01*
X0226425Y0207087D01*
X0226512Y0207197D01*
X0226602Y0207305D01*
X0226694Y0207409D01*
X0226790Y0207511D01*
X0226889Y0207611D01*
X0226990Y0207707D01*
X0227094Y0207801D01*
X0227201Y0207891D01*
X0227310Y0207978D01*
X0227422Y0208063D01*
X0227536Y0208144D01*
X0227652Y0208222D01*
X0227770Y0208296D01*
X0227891Y0208367D01*
X0228013Y0208435D01*
X0228138Y0208499D01*
X0228264Y0208560D01*
X0228391Y0208617D01*
X0228521Y0208670D01*
X0228652Y0208720D01*
X0228784Y0208765D01*
X0228917Y0208808D01*
X0229052Y0208846D01*
X0229187Y0208880D01*
X0229324Y0208911D01*
X0229461Y0208938D01*
X0229599Y0208960D01*
X0229738Y0208979D01*
X0229877Y0208994D01*
X0230016Y0209005D01*
X0230156Y0209012D01*
X0230296Y0209015D01*
X0230436Y0209014D01*
X0230576Y0209009D01*
X0230715Y0209000D01*
X0230855Y0208987D01*
X0230994Y0208970D01*
X0231132Y0208949D01*
X0231270Y0208925D01*
X0231407Y0208896D01*
X0231543Y0208864D01*
X0231678Y0208827D01*
X0231812Y0208787D01*
X0231945Y0208743D01*
X0232076Y0208695D01*
X0232206Y0208644D01*
X0232335Y0208589D01*
X0232462Y0208530D01*
X0232587Y0208467D01*
X0232710Y0208402D01*
X0232832Y0208332D01*
X0232951Y0208259D01*
X0233069Y0208183D01*
X0233184Y0208104D01*
X0233297Y0208021D01*
X0233407Y0207935D01*
X0233515Y0207846D01*
X0233620Y0207754D01*
X0233723Y0207659D01*
X0233823Y0207561D01*
X0233920Y0207461D01*
X0234014Y0207357D01*
X0234106Y0207251D01*
X0234194Y0207143D01*
X0234279Y0207032D01*
X0234361Y0206918D01*
X0234440Y0206802D01*
X0234515Y0206685D01*
X0234587Y0206565D01*
X0234655Y0206443D01*
X0234720Y0206319D01*
X0234782Y0206193D01*
X0234840Y0206066D01*
X0234894Y0205937D01*
X0234945Y0205806D01*
X0234991Y0205674D01*
X0235034Y0205541D01*
X0235074Y0205407D01*
X0235109Y0205272D01*
X0235141Y0205135D01*
X0235168Y0204998D01*
X0235192Y0204860D01*
X0235212Y0204722D01*
X0235228Y0204583D01*
X0235240Y0204443D01*
X0235248Y0204304D01*
X0235252Y0204164D01*
X0235252Y0204024D01*
X0235248Y0203884D01*
X0235240Y0203745D01*
X0235228Y0203605D01*
X0235212Y0203466D01*
X0235192Y0203328D01*
X0235168Y0203190D01*
X0235141Y0203053D01*
X0235109Y0202916D01*
X0235074Y0202781D01*
X0235034Y0202647D01*
X0234991Y0202514D01*
X0234945Y0202382D01*
X0234894Y0202251D01*
X0234840Y0202122D01*
X0234782Y0201995D01*
X0234720Y0201869D01*
X0234655Y0201745D01*
X0234587Y0201623D01*
X0234515Y0201503D01*
X0234440Y0201386D01*
X0234361Y0201270D01*
X0234279Y0201156D01*
X0234194Y0201045D01*
X0234106Y0200937D01*
X0234014Y0200831D01*
X0233920Y0200727D01*
X0233823Y0200627D01*
X0233723Y0200529D01*
X0233620Y0200434D01*
X0233515Y0200342D01*
X0233407Y0200253D01*
X0233297Y0200167D01*
X0233184Y0200084D01*
X0233069Y0200005D01*
X0232951Y0199929D01*
X0232832Y0199856D01*
X0232710Y0199786D01*
X0232587Y0199721D01*
X0232462Y0199658D01*
X0232335Y0199599D01*
X0232206Y0199544D01*
X0232076Y0199493D01*
X0231945Y0199445D01*
X0231812Y0199401D01*
X0231678Y0199361D01*
X0231543Y0199324D01*
X0231407Y0199292D01*
X0231270Y0199263D01*
X0231132Y0199239D01*
X0230994Y0199218D01*
X0230855Y0199201D01*
X0230715Y0199188D01*
X0230576Y0199179D01*
X0230436Y0199174D01*
X0230296Y0199173D01*
X0230156Y0199176D01*
X0230016Y0199183D01*
X0229877Y0199194D01*
X0229738Y0199209D01*
X0229599Y0199228D01*
X0229461Y0199250D01*
X0229324Y0199277D01*
X0229187Y0199308D01*
X0229052Y0199342D01*
X0228917Y0199380D01*
X0228784Y0199423D01*
X0228652Y0199468D01*
X0228521Y0199518D01*
X0228391Y0199571D01*
X0228264Y0199628D01*
X0228138Y0199689D01*
X0228013Y0199753D01*
X0227891Y0199821D01*
X0227770Y0199892D01*
X0227652Y0199966D01*
X0227536Y0200044D01*
X0227422Y0200125D01*
X0227310Y0200210D01*
X0227201Y0200297D01*
X0227094Y0200387D01*
X0226990Y0200481D01*
X0226889Y0200577D01*
X0226790Y0200677D01*
X0226694Y0200779D01*
X0226602Y0200883D01*
X0226512Y0200991D01*
X0226425Y0201101D01*
X0226342Y0201213D01*
X0226261Y0201327D01*
X0226184Y0201444D01*
X0226111Y0201563D01*
X0226040Y0201684D01*
X0225974Y0201807D01*
X0225910Y0201932D01*
X0225851Y0202058D01*
X0225795Y0202187D01*
X0225742Y0202316D01*
X0225694Y0202447D01*
X0225649Y0202580D01*
X0225608Y0202714D01*
X0225570Y0202849D01*
X0225537Y0202984D01*
X0225507Y0203121D01*
X0225481Y0203259D01*
X0225460Y0203397D01*
X0225442Y0203536D01*
X0225428Y0203675D01*
X0225418Y0203814D01*
X0225412Y0203954D01*
X0225410Y0204094D01*
X0225410Y0061575D02*
X0225412Y0061715D01*
X0225418Y0061855D01*
X0225428Y0061994D01*
X0225442Y0062133D01*
X0225460Y0062272D01*
X0225481Y0062410D01*
X0225507Y0062548D01*
X0225537Y0062685D01*
X0225570Y0062820D01*
X0225608Y0062955D01*
X0225649Y0063089D01*
X0225694Y0063222D01*
X0225742Y0063353D01*
X0225795Y0063482D01*
X0225851Y0063611D01*
X0225910Y0063737D01*
X0225974Y0063862D01*
X0226040Y0063985D01*
X0226111Y0064106D01*
X0226184Y0064225D01*
X0226261Y0064342D01*
X0226342Y0064456D01*
X0226425Y0064568D01*
X0226512Y0064678D01*
X0226602Y0064786D01*
X0226694Y0064890D01*
X0226790Y0064992D01*
X0226889Y0065092D01*
X0226990Y0065188D01*
X0227094Y0065282D01*
X0227201Y0065372D01*
X0227310Y0065459D01*
X0227422Y0065544D01*
X0227536Y0065625D01*
X0227652Y0065703D01*
X0227770Y0065777D01*
X0227891Y0065848D01*
X0228013Y0065916D01*
X0228138Y0065980D01*
X0228264Y0066041D01*
X0228391Y0066098D01*
X0228521Y0066151D01*
X0228652Y0066201D01*
X0228784Y0066246D01*
X0228917Y0066289D01*
X0229052Y0066327D01*
X0229187Y0066361D01*
X0229324Y0066392D01*
X0229461Y0066419D01*
X0229599Y0066441D01*
X0229738Y0066460D01*
X0229877Y0066475D01*
X0230016Y0066486D01*
X0230156Y0066493D01*
X0230296Y0066496D01*
X0230436Y0066495D01*
X0230576Y0066490D01*
X0230715Y0066481D01*
X0230855Y0066468D01*
X0230994Y0066451D01*
X0231132Y0066430D01*
X0231270Y0066406D01*
X0231407Y0066377D01*
X0231543Y0066345D01*
X0231678Y0066308D01*
X0231812Y0066268D01*
X0231945Y0066224D01*
X0232076Y0066176D01*
X0232206Y0066125D01*
X0232335Y0066070D01*
X0232462Y0066011D01*
X0232587Y0065948D01*
X0232710Y0065883D01*
X0232832Y0065813D01*
X0232951Y0065740D01*
X0233069Y0065664D01*
X0233184Y0065585D01*
X0233297Y0065502D01*
X0233407Y0065416D01*
X0233515Y0065327D01*
X0233620Y0065235D01*
X0233723Y0065140D01*
X0233823Y0065042D01*
X0233920Y0064942D01*
X0234014Y0064838D01*
X0234106Y0064732D01*
X0234194Y0064624D01*
X0234279Y0064513D01*
X0234361Y0064399D01*
X0234440Y0064283D01*
X0234515Y0064166D01*
X0234587Y0064046D01*
X0234655Y0063924D01*
X0234720Y0063800D01*
X0234782Y0063674D01*
X0234840Y0063547D01*
X0234894Y0063418D01*
X0234945Y0063287D01*
X0234991Y0063155D01*
X0235034Y0063022D01*
X0235074Y0062888D01*
X0235109Y0062753D01*
X0235141Y0062616D01*
X0235168Y0062479D01*
X0235192Y0062341D01*
X0235212Y0062203D01*
X0235228Y0062064D01*
X0235240Y0061924D01*
X0235248Y0061785D01*
X0235252Y0061645D01*
X0235252Y0061505D01*
X0235248Y0061365D01*
X0235240Y0061226D01*
X0235228Y0061086D01*
X0235212Y0060947D01*
X0235192Y0060809D01*
X0235168Y0060671D01*
X0235141Y0060534D01*
X0235109Y0060397D01*
X0235074Y0060262D01*
X0235034Y0060128D01*
X0234991Y0059995D01*
X0234945Y0059863D01*
X0234894Y0059732D01*
X0234840Y0059603D01*
X0234782Y0059476D01*
X0234720Y0059350D01*
X0234655Y0059226D01*
X0234587Y0059104D01*
X0234515Y0058984D01*
X0234440Y0058867D01*
X0234361Y0058751D01*
X0234279Y0058637D01*
X0234194Y0058526D01*
X0234106Y0058418D01*
X0234014Y0058312D01*
X0233920Y0058208D01*
X0233823Y0058108D01*
X0233723Y0058010D01*
X0233620Y0057915D01*
X0233515Y0057823D01*
X0233407Y0057734D01*
X0233297Y0057648D01*
X0233184Y0057565D01*
X0233069Y0057486D01*
X0232951Y0057410D01*
X0232832Y0057337D01*
X0232710Y0057267D01*
X0232587Y0057202D01*
X0232462Y0057139D01*
X0232335Y0057080D01*
X0232206Y0057025D01*
X0232076Y0056974D01*
X0231945Y0056926D01*
X0231812Y0056882D01*
X0231678Y0056842D01*
X0231543Y0056805D01*
X0231407Y0056773D01*
X0231270Y0056744D01*
X0231132Y0056720D01*
X0230994Y0056699D01*
X0230855Y0056682D01*
X0230715Y0056669D01*
X0230576Y0056660D01*
X0230436Y0056655D01*
X0230296Y0056654D01*
X0230156Y0056657D01*
X0230016Y0056664D01*
X0229877Y0056675D01*
X0229738Y0056690D01*
X0229599Y0056709D01*
X0229461Y0056731D01*
X0229324Y0056758D01*
X0229187Y0056789D01*
X0229052Y0056823D01*
X0228917Y0056861D01*
X0228784Y0056904D01*
X0228652Y0056949D01*
X0228521Y0056999D01*
X0228391Y0057052D01*
X0228264Y0057109D01*
X0228138Y0057170D01*
X0228013Y0057234D01*
X0227891Y0057302D01*
X0227770Y0057373D01*
X0227652Y0057447D01*
X0227536Y0057525D01*
X0227422Y0057606D01*
X0227310Y0057691D01*
X0227201Y0057778D01*
X0227094Y0057868D01*
X0226990Y0057962D01*
X0226889Y0058058D01*
X0226790Y0058158D01*
X0226694Y0058260D01*
X0226602Y0058364D01*
X0226512Y0058472D01*
X0226425Y0058582D01*
X0226342Y0058694D01*
X0226261Y0058808D01*
X0226184Y0058925D01*
X0226111Y0059044D01*
X0226040Y0059165D01*
X0225974Y0059288D01*
X0225910Y0059413D01*
X0225851Y0059539D01*
X0225795Y0059668D01*
X0225742Y0059797D01*
X0225694Y0059928D01*
X0225649Y0060061D01*
X0225608Y0060195D01*
X0225570Y0060330D01*
X0225537Y0060465D01*
X0225507Y0060602D01*
X0225481Y0060740D01*
X0225460Y0060878D01*
X0225442Y0061017D01*
X0225428Y0061156D01*
X0225418Y0061295D01*
X0225412Y0061435D01*
X0225410Y0061575D01*
D11*
X0230331Y0061575D03*
X0230331Y0204094D03*
X0033480Y0204094D03*
X0033480Y0061575D03*
D12*
X0075409Y0135787D03*
X0093913Y0135787D03*
X0106906Y0135787D03*
X0125409Y0135787D03*
X0138402Y0135787D03*
X0156906Y0135787D03*
X0169898Y0135787D03*
X0188402Y0135787D03*
D13*
X0169898Y0090512D03*
X0138402Y0090512D03*
X0106906Y0090512D03*
X0075409Y0090512D03*
D14*
X0075409Y0062953D03*
X0106906Y0062953D03*
X0138402Y0062953D03*
X0169898Y0062953D03*
D15*
X0171276Y0026732D03*
X0151591Y0026732D03*
X0112220Y0026732D03*
X0092535Y0026732D03*
X0053165Y0026732D03*
X0033480Y0026732D03*
X0210646Y0026732D03*
X0230331Y0026732D03*
M02*
