G04 This is an RS-274x file exported by *
G04 gerbv version 2.6A *
G04 More information is available about gerbv at *
G04 http://gerbv.geda-project.org/ *
G04 --End of header info--*
%MOIN*%
%FSLAX34Y34*%
%IPPOS*%
G04 --Define apertures--*
%ADD10C,0.0000*%
%ADD11C,0.0866*%
%ADD12C,0.2047*%
%ADD13C,0.0480*%
%ADD14C,0.0525*%
%ADD15C,0.0532*%
%ADD16C,0.0768*%
G04 --Start main section--*
G54D10*
G01X0000100Y0001039D02*
G01X0000100Y0025528D01*
G01X0000100Y0025528D02*
G01X0012147Y0025528D01*
G01X0012147Y0025528D02*
G01X0012147Y0024937D01*
G01X0012147Y0024937D02*
G01X0014234Y0024937D01*
G01X0014234Y0024937D02*
G01X0014234Y0025528D01*
G01X0014234Y0025528D02*
G01X0026281Y0025528D01*
G01X0026281Y0025528D02*
G01X0026281Y0001039D01*
G01X0026281Y0001039D02*
G01X0014234Y0001039D01*
G01X0014234Y0001039D02*
G01X0014234Y0001630D01*
G01X0014234Y0001630D02*
G01X0012147Y0001630D01*
G01X0012147Y0001630D02*
G01X0012147Y0001039D01*
G01X0012147Y0001039D02*
G01X0000100Y0001039D01*
G01X0002915Y0006158D02*
G01X0002915Y0006171D01*
G01X0002915Y0006171D02*
G01X0002916Y0006184D01*
G01X0002916Y0006184D02*
G01X0002917Y0006197D01*
G01X0002917Y0006197D02*
G01X0002918Y0006210D01*
G01X0002918Y0006210D02*
G01X0002920Y0006223D01*
G01X0002920Y0006223D02*
G01X0002922Y0006236D01*
G01X0002922Y0006236D02*
G01X0002925Y0006249D01*
G01X0002925Y0006249D02*
G01X0002928Y0006262D01*
G01X0002928Y0006262D02*
G01X0002931Y0006274D01*
G01X0002931Y0006274D02*
G01X0002935Y0006287D01*
G01X0002935Y0006287D02*
G01X0002939Y0006299D01*
G01X0002939Y0006299D02*
G01X0002943Y0006312D01*
G01X0002943Y0006312D02*
G01X0002948Y0006324D01*
G01X0002948Y0006324D02*
G01X0002953Y0006336D01*
G01X0002953Y0006336D02*
G01X0002959Y0006348D01*
G01X0002959Y0006348D02*
G01X0002965Y0006360D01*
G01X0002965Y0006360D02*
G01X0002971Y0006371D01*
G01X0002971Y0006371D02*
G01X0002978Y0006383D01*
G01X0002978Y0006383D02*
G01X0002985Y0006394D01*
G01X0002985Y0006394D02*
G01X0002992Y0006405D01*
G01X0002992Y0006405D02*
G01X0003000Y0006415D01*
G01X0003000Y0006415D02*
G01X0003008Y0006426D01*
G01X0003008Y0006426D02*
G01X0003016Y0006436D01*
G01X0003016Y0006436D02*
G01X0003025Y0006446D01*
G01X0003025Y0006446D02*
G01X0003034Y0006456D01*
G01X0003034Y0006456D02*
G01X0003043Y0006465D01*
G01X0003043Y0006465D02*
G01X0003052Y0006474D01*
G01X0003052Y0006474D02*
G01X0003062Y0006483D01*
G01X0003062Y0006483D02*
G01X0003072Y0006491D01*
G01X0003072Y0006491D02*
G01X0003082Y0006500D01*
G01X0003082Y0006500D02*
G01X0003093Y0006508D01*
G01X0003093Y0006508D02*
G01X0003104Y0006515D01*
G01X0003104Y0006515D02*
G01X0003115Y0006522D01*
G01X0003115Y0006522D02*
G01X0003126Y0006529D01*
G01X0003126Y0006529D02*
G01X0003137Y0006536D01*
G01X0003137Y0006536D02*
G01X0003149Y0006542D01*
G01X0003149Y0006542D02*
G01X0003161Y0006548D01*
G01X0003161Y0006548D02*
G01X0003172Y0006553D01*
G01X0003172Y0006553D02*
G01X0003185Y0006559D01*
G01X0003185Y0006559D02*
G01X0003197Y0006563D01*
G01X0003197Y0006563D02*
G01X0003209Y0006568D01*
G01X0003209Y0006568D02*
G01X0003222Y0006572D01*
G01X0003222Y0006572D02*
G01X0003234Y0006575D01*
G01X0003234Y0006575D02*
G01X0003247Y0006579D01*
G01X0003247Y0006579D02*
G01X0003260Y0006582D01*
G01X0003260Y0006582D02*
G01X0003273Y0006584D01*
G01X0003273Y0006584D02*
G01X0003286Y0006586D01*
G01X0003286Y0006586D02*
G01X0003299Y0006588D01*
G01X0003299Y0006588D02*
G01X0003312Y0006589D01*
G01X0003312Y0006589D02*
G01X0003325Y0006590D01*
G01X0003325Y0006590D02*
G01X0003338Y0006591D01*
G01X0003338Y0006591D02*
G01X0003351Y0006591D01*
G01X0003351Y0006591D02*
G01X0003364Y0006590D01*
G01X0003364Y0006590D02*
G01X0003378Y0006590D01*
G01X0003378Y0006590D02*
G01X0003391Y0006589D01*
G01X0003391Y0006589D02*
G01X0003404Y0006587D01*
G01X0003404Y0006587D02*
G01X0003417Y0006585D01*
G01X0003417Y0006585D02*
G01X0003430Y0006583D01*
G01X0003430Y0006583D02*
G01X0003443Y0006580D01*
G01X0003443Y0006580D02*
G01X0003455Y0006577D01*
G01X0003455Y0006577D02*
G01X0003468Y0006574D01*
G01X0003468Y0006574D02*
G01X0003481Y0006570D01*
G01X0003481Y0006570D02*
G01X0003493Y0006566D01*
G01X0003493Y0006566D02*
G01X0003505Y0006561D01*
G01X0003505Y0006561D02*
G01X0003518Y0006556D01*
G01X0003518Y0006556D02*
G01X0003530Y0006551D01*
G01X0003530Y0006551D02*
G01X0003541Y0006545D01*
G01X0003541Y0006545D02*
G01X0003553Y0006539D01*
G01X0003553Y0006539D02*
G01X0003565Y0006533D01*
G01X0003565Y0006533D02*
G01X0003576Y0006526D01*
G01X0003576Y0006526D02*
G01X0003587Y0006519D01*
G01X0003587Y0006519D02*
G01X0003598Y0006511D01*
G01X0003598Y0006511D02*
G01X0003608Y0006504D01*
G01X0003608Y0006504D02*
G01X0003619Y0006496D01*
G01X0003619Y0006496D02*
G01X0003629Y0006487D01*
G01X0003629Y0006487D02*
G01X0003639Y0006479D01*
G01X0003639Y0006479D02*
G01X0003648Y0006470D01*
G01X0003648Y0006470D02*
G01X0003658Y0006460D01*
G01X0003658Y0006460D02*
G01X0003667Y0006451D01*
G01X0003667Y0006451D02*
G01X0003676Y0006441D01*
G01X0003676Y0006441D02*
G01X0003684Y0006431D01*
G01X0003684Y0006431D02*
G01X0003692Y0006421D01*
G01X0003692Y0006421D02*
G01X0003700Y0006410D01*
G01X0003700Y0006410D02*
G01X0003707Y0006399D01*
G01X0003707Y0006399D02*
G01X0003715Y0006388D01*
G01X0003715Y0006388D02*
G01X0003721Y0006377D01*
G01X0003721Y0006377D02*
G01X0003728Y0006365D01*
G01X0003728Y0006365D02*
G01X0003734Y0006354D01*
G01X0003734Y0006354D02*
G01X0003740Y0006342D01*
G01X0003740Y0006342D02*
G01X0003745Y0006330D01*
G01X0003745Y0006330D02*
G01X0003750Y0006318D01*
G01X0003750Y0006318D02*
G01X0003755Y0006306D01*
G01X0003755Y0006306D02*
G01X0003759Y0006293D01*
G01X0003759Y0006293D02*
G01X0003763Y0006281D01*
G01X0003763Y0006281D02*
G01X0003767Y0006268D01*
G01X0003767Y0006268D02*
G01X0003770Y0006255D01*
G01X0003770Y0006255D02*
G01X0003773Y0006242D01*
G01X0003773Y0006242D02*
G01X0003775Y0006230D01*
G01X0003775Y0006230D02*
G01X0003777Y0006217D01*
G01X0003777Y0006217D02*
G01X0003779Y0006203D01*
G01X0003779Y0006203D02*
G01X0003780Y0006190D01*
G01X0003780Y0006190D02*
G01X0003781Y0006177D01*
G01X0003781Y0006177D02*
G01X0003781Y0006164D01*
G01X0003781Y0006164D02*
G01X0003781Y0006151D01*
G01X0003781Y0006151D02*
G01X0003781Y0006138D01*
G01X0003781Y0006138D02*
G01X0003780Y0006125D01*
G01X0003780Y0006125D02*
G01X0003779Y0006112D01*
G01X0003779Y0006112D02*
G01X0003777Y0006099D01*
G01X0003777Y0006099D02*
G01X0003775Y0006086D01*
G01X0003775Y0006086D02*
G01X0003773Y0006073D01*
G01X0003773Y0006073D02*
G01X0003770Y0006060D01*
G01X0003770Y0006060D02*
G01X0003767Y0006047D01*
G01X0003767Y0006047D02*
G01X0003763Y0006034D01*
G01X0003763Y0006034D02*
G01X0003759Y0006022D01*
G01X0003759Y0006022D02*
G01X0003755Y0006009D01*
G01X0003755Y0006009D02*
G01X0003750Y0005997D01*
G01X0003750Y0005997D02*
G01X0003745Y0005985D01*
G01X0003745Y0005985D02*
G01X0003740Y0005973D01*
G01X0003740Y0005973D02*
G01X0003734Y0005961D01*
G01X0003734Y0005961D02*
G01X0003728Y0005950D01*
G01X0003728Y0005950D02*
G01X0003721Y0005938D01*
G01X0003721Y0005938D02*
G01X0003715Y0005927D01*
G01X0003715Y0005927D02*
G01X0003707Y0005916D01*
G01X0003707Y0005916D02*
G01X0003700Y0005905D01*
G01X0003700Y0005905D02*
G01X0003692Y0005895D01*
G01X0003692Y0005895D02*
G01X0003684Y0005884D01*
G01X0003684Y0005884D02*
G01X0003676Y0005874D01*
G01X0003676Y0005874D02*
G01X0003667Y0005864D01*
G01X0003667Y0005864D02*
G01X0003658Y0005855D01*
G01X0003658Y0005855D02*
G01X0003648Y0005846D01*
G01X0003648Y0005846D02*
G01X0003639Y0005837D01*
G01X0003639Y0005837D02*
G01X0003629Y0005828D01*
G01X0003629Y0005828D02*
G01X0003619Y0005820D01*
G01X0003619Y0005820D02*
G01X0003608Y0005811D01*
G01X0003608Y0005811D02*
G01X0003598Y0005804D01*
G01X0003598Y0005804D02*
G01X0003587Y0005796D01*
G01X0003587Y0005796D02*
G01X0003576Y0005789D01*
G01X0003576Y0005789D02*
G01X0003565Y0005782D01*
G01X0003565Y0005782D02*
G01X0003553Y0005776D01*
G01X0003553Y0005776D02*
G01X0003541Y0005770D01*
G01X0003541Y0005770D02*
G01X0003530Y0005764D01*
G01X0003530Y0005764D02*
G01X0003518Y0005759D01*
G01X0003518Y0005759D02*
G01X0003505Y0005754D01*
G01X0003505Y0005754D02*
G01X0003493Y0005749D01*
G01X0003493Y0005749D02*
G01X0003481Y0005745D01*
G01X0003481Y0005745D02*
G01X0003468Y0005741D01*
G01X0003468Y0005741D02*
G01X0003455Y0005738D01*
G01X0003455Y0005738D02*
G01X0003443Y0005735D01*
G01X0003443Y0005735D02*
G01X0003430Y0005732D01*
G01X0003430Y0005732D02*
G01X0003417Y0005730D01*
G01X0003417Y0005730D02*
G01X0003404Y0005728D01*
G01X0003404Y0005728D02*
G01X0003391Y0005727D01*
G01X0003391Y0005727D02*
G01X0003378Y0005725D01*
G01X0003378Y0005725D02*
G01X0003364Y0005725D01*
G01X0003364Y0005725D02*
G01X0003351Y0005724D01*
G01X0003351Y0005724D02*
G01X0003338Y0005725D01*
G01X0003338Y0005725D02*
G01X0003325Y0005725D01*
G01X0003325Y0005725D02*
G01X0003312Y0005726D01*
G01X0003312Y0005726D02*
G01X0003299Y0005727D01*
G01X0003299Y0005727D02*
G01X0003286Y0005729D01*
G01X0003286Y0005729D02*
G01X0003273Y0005731D01*
G01X0003273Y0005731D02*
G01X0003260Y0005734D01*
G01X0003260Y0005734D02*
G01X0003247Y0005736D01*
G01X0003247Y0005736D02*
G01X0003234Y0005740D01*
G01X0003234Y0005740D02*
G01X0003222Y0005743D01*
G01X0003222Y0005743D02*
G01X0003209Y0005747D01*
G01X0003209Y0005747D02*
G01X0003197Y0005752D01*
G01X0003197Y0005752D02*
G01X0003185Y0005756D01*
G01X0003185Y0005756D02*
G01X0003172Y0005762D01*
G01X0003172Y0005762D02*
G01X0003161Y0005767D01*
G01X0003161Y0005767D02*
G01X0003149Y0005773D01*
G01X0003149Y0005773D02*
G01X0003137Y0005779D01*
G01X0003137Y0005779D02*
G01X0003126Y0005786D01*
G01X0003126Y0005786D02*
G01X0003115Y0005793D01*
G01X0003115Y0005793D02*
G01X0003104Y0005800D01*
G01X0003104Y0005800D02*
G01X0003093Y0005808D01*
G01X0003093Y0005808D02*
G01X0003082Y0005815D01*
G01X0003082Y0005815D02*
G01X0003072Y0005824D01*
G01X0003072Y0005824D02*
G01X0003062Y0005832D01*
G01X0003062Y0005832D02*
G01X0003052Y0005841D01*
G01X0003052Y0005841D02*
G01X0003043Y0005850D01*
G01X0003043Y0005850D02*
G01X0003034Y0005860D01*
G01X0003034Y0005860D02*
G01X0003025Y0005869D01*
G01X0003025Y0005869D02*
G01X0003016Y0005879D01*
G01X0003016Y0005879D02*
G01X0003008Y0005889D01*
G01X0003008Y0005889D02*
G01X0003000Y0005900D01*
G01X0003000Y0005900D02*
G01X0002992Y0005910D01*
G01X0002992Y0005910D02*
G01X0002985Y0005921D01*
G01X0002985Y0005921D02*
G01X0002978Y0005933D01*
G01X0002978Y0005933D02*
G01X0002971Y0005944D01*
G01X0002971Y0005944D02*
G01X0002965Y0005955D01*
G01X0002965Y0005955D02*
G01X0002959Y0005967D01*
G01X0002959Y0005967D02*
G01X0002953Y0005979D01*
G01X0002953Y0005979D02*
G01X0002948Y0005991D01*
G01X0002948Y0005991D02*
G01X0002943Y0006003D01*
G01X0002943Y0006003D02*
G01X0002939Y0006016D01*
G01X0002939Y0006016D02*
G01X0002935Y0006028D01*
G01X0002935Y0006028D02*
G01X0002931Y0006041D01*
G01X0002931Y0006041D02*
G01X0002928Y0006053D01*
G01X0002928Y0006053D02*
G01X0002925Y0006066D01*
G01X0002925Y0006066D02*
G01X0002922Y0006079D01*
G01X0002922Y0006079D02*
G01X0002920Y0006092D01*
G01X0002920Y0006092D02*
G01X0002918Y0006105D01*
G01X0002918Y0006105D02*
G01X0002917Y0006118D01*
G01X0002917Y0006118D02*
G01X0002916Y0006131D01*
G01X0002916Y0006131D02*
G01X0002915Y0006144D01*
G01X0002915Y0006144D02*
G01X0002915Y0006158D01*
G01X0002915Y0020409D02*
G01X0002915Y0020423D01*
G01X0002915Y0020423D02*
G01X0002916Y0020436D01*
G01X0002916Y0020436D02*
G01X0002917Y0020449D01*
G01X0002917Y0020449D02*
G01X0002918Y0020462D01*
G01X0002918Y0020462D02*
G01X0002920Y0020475D01*
G01X0002920Y0020475D02*
G01X0002922Y0020488D01*
G01X0002922Y0020488D02*
G01X0002925Y0020501D01*
G01X0002925Y0020501D02*
G01X0002928Y0020513D01*
G01X0002928Y0020513D02*
G01X0002931Y0020526D01*
G01X0002931Y0020526D02*
G01X0002935Y0020539D01*
G01X0002935Y0020539D02*
G01X0002939Y0020551D01*
G01X0002939Y0020551D02*
G01X0002943Y0020564D01*
G01X0002943Y0020564D02*
G01X0002948Y0020576D01*
G01X0002948Y0020576D02*
G01X0002953Y0020588D01*
G01X0002953Y0020588D02*
G01X0002959Y0020600D01*
G01X0002959Y0020600D02*
G01X0002965Y0020612D01*
G01X0002965Y0020612D02*
G01X0002971Y0020623D01*
G01X0002971Y0020623D02*
G01X0002978Y0020634D01*
G01X0002978Y0020634D02*
G01X0002985Y0020646D01*
G01X0002985Y0020646D02*
G01X0002992Y0020657D01*
G01X0002992Y0020657D02*
G01X0003000Y0020667D01*
G01X0003000Y0020667D02*
G01X0003008Y0020678D01*
G01X0003008Y0020678D02*
G01X0003016Y0020688D01*
G01X0003016Y0020688D02*
G01X0003025Y0020698D01*
G01X0003025Y0020698D02*
G01X0003034Y0020707D01*
G01X0003034Y0020707D02*
G01X0003043Y0020717D01*
G01X0003043Y0020717D02*
G01X0003052Y0020726D01*
G01X0003052Y0020726D02*
G01X0003062Y0020735D01*
G01X0003062Y0020735D02*
G01X0003072Y0020743D01*
G01X0003072Y0020743D02*
G01X0003082Y0020752D01*
G01X0003082Y0020752D02*
G01X0003093Y0020759D01*
G01X0003093Y0020759D02*
G01X0003104Y0020767D01*
G01X0003104Y0020767D02*
G01X0003115Y0020774D01*
G01X0003115Y0020774D02*
G01X0003126Y0020781D01*
G01X0003126Y0020781D02*
G01X0003137Y0020788D01*
G01X0003137Y0020788D02*
G01X0003149Y0020794D01*
G01X0003149Y0020794D02*
G01X0003161Y0020800D01*
G01X0003161Y0020800D02*
G01X0003172Y0020805D01*
G01X0003172Y0020805D02*
G01X0003185Y0020811D01*
G01X0003185Y0020811D02*
G01X0003197Y0020815D01*
G01X0003197Y0020815D02*
G01X0003209Y0020820D01*
G01X0003209Y0020820D02*
G01X0003222Y0020824D01*
G01X0003222Y0020824D02*
G01X0003234Y0020827D01*
G01X0003234Y0020827D02*
G01X0003247Y0020831D01*
G01X0003247Y0020831D02*
G01X0003260Y0020833D01*
G01X0003260Y0020833D02*
G01X0003273Y0020836D01*
G01X0003273Y0020836D02*
G01X0003286Y0020838D01*
G01X0003286Y0020838D02*
G01X0003299Y0020840D01*
G01X0003299Y0020840D02*
G01X0003312Y0020841D01*
G01X0003312Y0020841D02*
G01X0003325Y0020842D01*
G01X0003325Y0020842D02*
G01X0003338Y0020842D01*
G01X0003338Y0020842D02*
G01X0003351Y0020843D01*
G01X0003351Y0020843D02*
G01X0003364Y0020842D01*
G01X0003364Y0020842D02*
G01X0003378Y0020842D01*
G01X0003378Y0020842D02*
G01X0003391Y0020840D01*
G01X0003391Y0020840D02*
G01X0003404Y0020839D01*
G01X0003404Y0020839D02*
G01X0003417Y0020837D01*
G01X0003417Y0020837D02*
G01X0003430Y0020835D01*
G01X0003430Y0020835D02*
G01X0003443Y0020832D01*
G01X0003443Y0020832D02*
G01X0003455Y0020829D01*
G01X0003455Y0020829D02*
G01X0003468Y0020826D01*
G01X0003468Y0020826D02*
G01X0003481Y0020822D01*
G01X0003481Y0020822D02*
G01X0003493Y0020818D01*
G01X0003493Y0020818D02*
G01X0003505Y0020813D01*
G01X0003505Y0020813D02*
G01X0003518Y0020808D01*
G01X0003518Y0020808D02*
G01X0003530Y0020803D01*
G01X0003530Y0020803D02*
G01X0003541Y0020797D01*
G01X0003541Y0020797D02*
G01X0003553Y0020791D01*
G01X0003553Y0020791D02*
G01X0003565Y0020785D01*
G01X0003565Y0020785D02*
G01X0003576Y0020778D01*
G01X0003576Y0020778D02*
G01X0003587Y0020771D01*
G01X0003587Y0020771D02*
G01X0003598Y0020763D01*
G01X0003598Y0020763D02*
G01X0003608Y0020755D01*
G01X0003608Y0020755D02*
G01X0003619Y0020747D01*
G01X0003619Y0020747D02*
G01X0003629Y0020739D01*
G01X0003629Y0020739D02*
G01X0003639Y0020730D01*
G01X0003639Y0020730D02*
G01X0003648Y0020721D01*
G01X0003648Y0020721D02*
G01X0003658Y0020712D01*
G01X0003658Y0020712D02*
G01X0003667Y0020703D01*
G01X0003667Y0020703D02*
G01X0003676Y0020693D01*
G01X0003676Y0020693D02*
G01X0003684Y0020683D01*
G01X0003684Y0020683D02*
G01X0003692Y0020672D01*
G01X0003692Y0020672D02*
G01X0003700Y0020662D01*
G01X0003700Y0020662D02*
G01X0003707Y0020651D01*
G01X0003707Y0020651D02*
G01X0003715Y0020640D01*
G01X0003715Y0020640D02*
G01X0003721Y0020629D01*
G01X0003721Y0020629D02*
G01X0003728Y0020617D01*
G01X0003728Y0020617D02*
G01X0003734Y0020606D01*
G01X0003734Y0020606D02*
G01X0003740Y0020594D01*
G01X0003740Y0020594D02*
G01X0003745Y0020582D01*
G01X0003745Y0020582D02*
G01X0003750Y0020570D01*
G01X0003750Y0020570D02*
G01X0003755Y0020558D01*
G01X0003755Y0020558D02*
G01X0003759Y0020545D01*
G01X0003759Y0020545D02*
G01X0003763Y0020533D01*
G01X0003763Y0020533D02*
G01X0003767Y0020520D01*
G01X0003767Y0020520D02*
G01X0003770Y0020507D01*
G01X0003770Y0020507D02*
G01X0003773Y0020494D01*
G01X0003773Y0020494D02*
G01X0003775Y0020481D01*
G01X0003775Y0020481D02*
G01X0003777Y0020468D01*
G01X0003777Y0020468D02*
G01X0003779Y0020455D01*
G01X0003779Y0020455D02*
G01X0003780Y0020442D01*
G01X0003780Y0020442D02*
G01X0003781Y0020429D01*
G01X0003781Y0020429D02*
G01X0003781Y0020416D01*
G01X0003781Y0020416D02*
G01X0003781Y0020403D01*
G01X0003781Y0020403D02*
G01X0003781Y0020390D01*
G01X0003781Y0020390D02*
G01X0003780Y0020377D01*
G01X0003780Y0020377D02*
G01X0003779Y0020364D01*
G01X0003779Y0020364D02*
G01X0003777Y0020350D01*
G01X0003777Y0020350D02*
G01X0003775Y0020337D01*
G01X0003775Y0020337D02*
G01X0003773Y0020325D01*
G01X0003773Y0020325D02*
G01X0003770Y0020312D01*
G01X0003770Y0020312D02*
G01X0003767Y0020299D01*
G01X0003767Y0020299D02*
G01X0003763Y0020286D01*
G01X0003763Y0020286D02*
G01X0003759Y0020274D01*
G01X0003759Y0020274D02*
G01X0003755Y0020261D01*
G01X0003755Y0020261D02*
G01X0003750Y0020249D01*
G01X0003750Y0020249D02*
G01X0003745Y0020237D01*
G01X0003745Y0020237D02*
G01X0003740Y0020225D01*
G01X0003740Y0020225D02*
G01X0003734Y0020213D01*
G01X0003734Y0020213D02*
G01X0003728Y0020201D01*
G01X0003728Y0020201D02*
G01X0003721Y0020190D01*
G01X0003721Y0020190D02*
G01X0003715Y0020179D01*
G01X0003715Y0020179D02*
G01X0003707Y0020168D01*
G01X0003707Y0020168D02*
G01X0003700Y0020157D01*
G01X0003700Y0020157D02*
G01X0003692Y0020146D01*
G01X0003692Y0020146D02*
G01X0003684Y0020136D01*
G01X0003684Y0020136D02*
G01X0003676Y0020126D01*
G01X0003676Y0020126D02*
G01X0003667Y0020116D01*
G01X0003667Y0020116D02*
G01X0003658Y0020107D01*
G01X0003658Y0020107D02*
G01X0003648Y0020097D01*
G01X0003648Y0020097D02*
G01X0003639Y0020088D01*
G01X0003639Y0020088D02*
G01X0003629Y0020080D01*
G01X0003629Y0020080D02*
G01X0003619Y0020071D01*
G01X0003619Y0020071D02*
G01X0003608Y0020063D01*
G01X0003608Y0020063D02*
G01X0003598Y0020056D01*
G01X0003598Y0020056D02*
G01X0003587Y0020048D01*
G01X0003587Y0020048D02*
G01X0003576Y0020041D01*
G01X0003576Y0020041D02*
G01X0003565Y0020034D01*
G01X0003565Y0020034D02*
G01X0003553Y0020028D01*
G01X0003553Y0020028D02*
G01X0003541Y0020022D01*
G01X0003541Y0020022D02*
G01X0003530Y0020016D01*
G01X0003530Y0020016D02*
G01X0003518Y0020011D01*
G01X0003518Y0020011D02*
G01X0003505Y0020006D01*
G01X0003505Y0020006D02*
G01X0003493Y0020001D01*
G01X0003493Y0020001D02*
G01X0003481Y0019997D01*
G01X0003481Y0019997D02*
G01X0003468Y0019993D01*
G01X0003468Y0019993D02*
G01X0003455Y0019990D01*
G01X0003455Y0019990D02*
G01X0003443Y0019987D01*
G01X0003443Y0019987D02*
G01X0003430Y0019984D01*
G01X0003430Y0019984D02*
G01X0003417Y0019982D01*
G01X0003417Y0019982D02*
G01X0003404Y0019980D01*
G01X0003404Y0019980D02*
G01X0003391Y0019978D01*
G01X0003391Y0019978D02*
G01X0003378Y0019977D01*
G01X0003378Y0019977D02*
G01X0003364Y0019977D01*
G01X0003364Y0019977D02*
G01X0003351Y0019976D01*
G01X0003351Y0019976D02*
G01X0003338Y0019976D01*
G01X0003338Y0019976D02*
G01X0003325Y0019977D01*
G01X0003325Y0019977D02*
G01X0003312Y0019978D01*
G01X0003312Y0019978D02*
G01X0003299Y0019979D01*
G01X0003299Y0019979D02*
G01X0003286Y0019981D01*
G01X0003286Y0019981D02*
G01X0003273Y0019983D01*
G01X0003273Y0019983D02*
G01X0003260Y0019985D01*
G01X0003260Y0019985D02*
G01X0003247Y0019988D01*
G01X0003247Y0019988D02*
G01X0003234Y0019992D01*
G01X0003234Y0019992D02*
G01X0003222Y0019995D01*
G01X0003222Y0019995D02*
G01X0003209Y0019999D01*
G01X0003209Y0019999D02*
G01X0003197Y0020004D01*
G01X0003197Y0020004D02*
G01X0003185Y0020008D01*
G01X0003185Y0020008D02*
G01X0003172Y0020014D01*
G01X0003172Y0020014D02*
G01X0003161Y0020019D01*
G01X0003161Y0020019D02*
G01X0003149Y0020025D01*
G01X0003149Y0020025D02*
G01X0003137Y0020031D01*
G01X0003137Y0020031D02*
G01X0003126Y0020038D01*
G01X0003126Y0020038D02*
G01X0003115Y0020045D01*
G01X0003115Y0020045D02*
G01X0003104Y0020052D01*
G01X0003104Y0020052D02*
G01X0003093Y0020059D01*
G01X0003093Y0020059D02*
G01X0003082Y0020067D01*
G01X0003082Y0020067D02*
G01X0003072Y0020076D01*
G01X0003072Y0020076D02*
G01X0003062Y0020084D01*
G01X0003062Y0020084D02*
G01X0003052Y0020093D01*
G01X0003052Y0020093D02*
G01X0003043Y0020102D01*
G01X0003043Y0020102D02*
G01X0003034Y0020111D01*
G01X0003034Y0020111D02*
G01X0003025Y0020121D01*
G01X0003025Y0020121D02*
G01X0003016Y0020131D01*
G01X0003016Y0020131D02*
G01X0003008Y0020141D01*
G01X0003008Y0020141D02*
G01X0003000Y0020152D01*
G01X0003000Y0020152D02*
G01X0002992Y0020162D01*
G01X0002992Y0020162D02*
G01X0002985Y0020173D01*
G01X0002985Y0020173D02*
G01X0002978Y0020184D01*
G01X0002978Y0020184D02*
G01X0002971Y0020196D01*
G01X0002971Y0020196D02*
G01X0002965Y0020207D01*
G01X0002965Y0020207D02*
G01X0002959Y0020219D01*
G01X0002959Y0020219D02*
G01X0002953Y0020231D01*
G01X0002953Y0020231D02*
G01X0002948Y0020243D01*
G01X0002948Y0020243D02*
G01X0002943Y0020255D01*
G01X0002943Y0020255D02*
G01X0002939Y0020268D01*
G01X0002939Y0020268D02*
G01X0002935Y0020280D01*
G01X0002935Y0020280D02*
G01X0002931Y0020293D01*
G01X0002931Y0020293D02*
G01X0002928Y0020305D01*
G01X0002928Y0020305D02*
G01X0002925Y0020318D01*
G01X0002925Y0020318D02*
G01X0002922Y0020331D01*
G01X0002922Y0020331D02*
G01X0002920Y0020344D01*
G01X0002920Y0020344D02*
G01X0002918Y0020357D01*
G01X0002918Y0020357D02*
G01X0002917Y0020370D01*
G01X0002917Y0020370D02*
G01X0002916Y0020383D01*
G01X0002916Y0020383D02*
G01X0002915Y0020396D01*
G01X0002915Y0020396D02*
G01X0002915Y0020409D01*
G01X0022600Y0020409D02*
G01X0022600Y0020423D01*
G01X0022600Y0020423D02*
G01X0022601Y0020436D01*
G01X0022601Y0020436D02*
G01X0022602Y0020449D01*
G01X0022602Y0020449D02*
G01X0022603Y0020462D01*
G01X0022603Y0020462D02*
G01X0022605Y0020475D01*
G01X0022605Y0020475D02*
G01X0022607Y0020488D01*
G01X0022607Y0020488D02*
G01X0022610Y0020501D01*
G01X0022610Y0020501D02*
G01X0022613Y0020513D01*
G01X0022613Y0020513D02*
G01X0022616Y0020526D01*
G01X0022616Y0020526D02*
G01X0022620Y0020539D01*
G01X0022620Y0020539D02*
G01X0022624Y0020551D01*
G01X0022624Y0020551D02*
G01X0022628Y0020564D01*
G01X0022628Y0020564D02*
G01X0022633Y0020576D01*
G01X0022633Y0020576D02*
G01X0022639Y0020588D01*
G01X0022639Y0020588D02*
G01X0022644Y0020600D01*
G01X0022644Y0020600D02*
G01X0022650Y0020612D01*
G01X0022650Y0020612D02*
G01X0022656Y0020623D01*
G01X0022656Y0020623D02*
G01X0022663Y0020634D01*
G01X0022663Y0020634D02*
G01X0022670Y0020646D01*
G01X0022670Y0020646D02*
G01X0022677Y0020657D01*
G01X0022677Y0020657D02*
G01X0022685Y0020667D01*
G01X0022685Y0020667D02*
G01X0022693Y0020678D01*
G01X0022693Y0020678D02*
G01X0022701Y0020688D01*
G01X0022701Y0020688D02*
G01X0022710Y0020698D01*
G01X0022710Y0020698D02*
G01X0022719Y0020707D01*
G01X0022719Y0020707D02*
G01X0022728Y0020717D01*
G01X0022728Y0020717D02*
G01X0022738Y0020726D01*
G01X0022738Y0020726D02*
G01X0022747Y0020735D01*
G01X0022747Y0020735D02*
G01X0022757Y0020743D01*
G01X0022757Y0020743D02*
G01X0022768Y0020752D01*
G01X0022768Y0020752D02*
G01X0022778Y0020759D01*
G01X0022778Y0020759D02*
G01X0022789Y0020767D01*
G01X0022789Y0020767D02*
G01X0022800Y0020774D01*
G01X0022800Y0020774D02*
G01X0022811Y0020781D01*
G01X0022811Y0020781D02*
G01X0022822Y0020788D01*
G01X0022822Y0020788D02*
G01X0022834Y0020794D01*
G01X0022834Y0020794D02*
G01X0022846Y0020800D01*
G01X0022846Y0020800D02*
G01X0022858Y0020805D01*
G01X0022858Y0020805D02*
G01X0022870Y0020811D01*
G01X0022870Y0020811D02*
G01X0022882Y0020815D01*
G01X0022882Y0020815D02*
G01X0022894Y0020820D01*
G01X0022894Y0020820D02*
G01X0022907Y0020824D01*
G01X0022907Y0020824D02*
G01X0022919Y0020827D01*
G01X0022919Y0020827D02*
G01X0022932Y0020831D01*
G01X0022932Y0020831D02*
G01X0022945Y0020833D01*
G01X0022945Y0020833D02*
G01X0022958Y0020836D01*
G01X0022958Y0020836D02*
G01X0022971Y0020838D01*
G01X0022971Y0020838D02*
G01X0022984Y0020840D01*
G01X0022984Y0020840D02*
G01X0022997Y0020841D01*
G01X0022997Y0020841D02*
G01X0023010Y0020842D01*
G01X0023010Y0020842D02*
G01X0023023Y0020842D01*
G01X0023023Y0020842D02*
G01X0023036Y0020843D01*
G01X0023036Y0020843D02*
G01X0023050Y0020842D01*
G01X0023050Y0020842D02*
G01X0023063Y0020842D01*
G01X0023063Y0020842D02*
G01X0023076Y0020840D01*
G01X0023076Y0020840D02*
G01X0023089Y0020839D01*
G01X0023089Y0020839D02*
G01X0023102Y0020837D01*
G01X0023102Y0020837D02*
G01X0023115Y0020835D01*
G01X0023115Y0020835D02*
G01X0023128Y0020832D01*
G01X0023128Y0020832D02*
G01X0023140Y0020829D01*
G01X0023140Y0020829D02*
G01X0023153Y0020826D01*
G01X0023153Y0020826D02*
G01X0023166Y0020822D01*
G01X0023166Y0020822D02*
G01X0023178Y0020818D01*
G01X0023178Y0020818D02*
G01X0023191Y0020813D01*
G01X0023191Y0020813D02*
G01X0023203Y0020808D01*
G01X0023203Y0020808D02*
G01X0023215Y0020803D01*
G01X0023215Y0020803D02*
G01X0023227Y0020797D01*
G01X0023227Y0020797D02*
G01X0023238Y0020791D01*
G01X0023238Y0020791D02*
G01X0023250Y0020785D01*
G01X0023250Y0020785D02*
G01X0023261Y0020778D01*
G01X0023261Y0020778D02*
G01X0023272Y0020771D01*
G01X0023272Y0020771D02*
G01X0023283Y0020763D01*
G01X0023283Y0020763D02*
G01X0023293Y0020755D01*
G01X0023293Y0020755D02*
G01X0023304Y0020747D01*
G01X0023304Y0020747D02*
G01X0023314Y0020739D01*
G01X0023314Y0020739D02*
G01X0023324Y0020730D01*
G01X0023324Y0020730D02*
G01X0023333Y0020721D01*
G01X0023333Y0020721D02*
G01X0023343Y0020712D01*
G01X0023343Y0020712D02*
G01X0023352Y0020703D01*
G01X0023352Y0020703D02*
G01X0023361Y0020693D01*
G01X0023361Y0020693D02*
G01X0023369Y0020683D01*
G01X0023369Y0020683D02*
G01X0023377Y0020672D01*
G01X0023377Y0020672D02*
G01X0023385Y0020662D01*
G01X0023385Y0020662D02*
G01X0023393Y0020651D01*
G01X0023393Y0020651D02*
G01X0023400Y0020640D01*
G01X0023400Y0020640D02*
G01X0023407Y0020629D01*
G01X0023407Y0020629D02*
G01X0023413Y0020617D01*
G01X0023413Y0020617D02*
G01X0023419Y0020606D01*
G01X0023419Y0020606D02*
G01X0023425Y0020594D01*
G01X0023425Y0020594D02*
G01X0023430Y0020582D01*
G01X0023430Y0020582D02*
G01X0023435Y0020570D01*
G01X0023435Y0020570D02*
G01X0023440Y0020558D01*
G01X0023440Y0020558D02*
G01X0023444Y0020545D01*
G01X0023444Y0020545D02*
G01X0023448Y0020533D01*
G01X0023448Y0020533D02*
G01X0023452Y0020520D01*
G01X0023452Y0020520D02*
G01X0023455Y0020507D01*
G01X0023455Y0020507D02*
G01X0023458Y0020494D01*
G01X0023458Y0020494D02*
G01X0023460Y0020481D01*
G01X0023460Y0020481D02*
G01X0023462Y0020468D01*
G01X0023462Y0020468D02*
G01X0023464Y0020455D01*
G01X0023464Y0020455D02*
G01X0023465Y0020442D01*
G01X0023465Y0020442D02*
G01X0023466Y0020429D01*
G01X0023466Y0020429D02*
G01X0023466Y0020416D01*
G01X0023466Y0020416D02*
G01X0023466Y0020403D01*
G01X0023466Y0020403D02*
G01X0023466Y0020390D01*
G01X0023466Y0020390D02*
G01X0023465Y0020377D01*
G01X0023465Y0020377D02*
G01X0023464Y0020364D01*
G01X0023464Y0020364D02*
G01X0023462Y0020350D01*
G01X0023462Y0020350D02*
G01X0023460Y0020337D01*
G01X0023460Y0020337D02*
G01X0023458Y0020325D01*
G01X0023458Y0020325D02*
G01X0023455Y0020312D01*
G01X0023455Y0020312D02*
G01X0023452Y0020299D01*
G01X0023452Y0020299D02*
G01X0023448Y0020286D01*
G01X0023448Y0020286D02*
G01X0023444Y0020274D01*
G01X0023444Y0020274D02*
G01X0023440Y0020261D01*
G01X0023440Y0020261D02*
G01X0023435Y0020249D01*
G01X0023435Y0020249D02*
G01X0023430Y0020237D01*
G01X0023430Y0020237D02*
G01X0023425Y0020225D01*
G01X0023425Y0020225D02*
G01X0023419Y0020213D01*
G01X0023419Y0020213D02*
G01X0023413Y0020201D01*
G01X0023413Y0020201D02*
G01X0023407Y0020190D01*
G01X0023407Y0020190D02*
G01X0023400Y0020179D01*
G01X0023400Y0020179D02*
G01X0023393Y0020168D01*
G01X0023393Y0020168D02*
G01X0023385Y0020157D01*
G01X0023385Y0020157D02*
G01X0023377Y0020146D01*
G01X0023377Y0020146D02*
G01X0023369Y0020136D01*
G01X0023369Y0020136D02*
G01X0023361Y0020126D01*
G01X0023361Y0020126D02*
G01X0023352Y0020116D01*
G01X0023352Y0020116D02*
G01X0023343Y0020107D01*
G01X0023343Y0020107D02*
G01X0023333Y0020097D01*
G01X0023333Y0020097D02*
G01X0023324Y0020088D01*
G01X0023324Y0020088D02*
G01X0023314Y0020080D01*
G01X0023314Y0020080D02*
G01X0023304Y0020071D01*
G01X0023304Y0020071D02*
G01X0023293Y0020063D01*
G01X0023293Y0020063D02*
G01X0023283Y0020056D01*
G01X0023283Y0020056D02*
G01X0023272Y0020048D01*
G01X0023272Y0020048D02*
G01X0023261Y0020041D01*
G01X0023261Y0020041D02*
G01X0023250Y0020034D01*
G01X0023250Y0020034D02*
G01X0023238Y0020028D01*
G01X0023238Y0020028D02*
G01X0023227Y0020022D01*
G01X0023227Y0020022D02*
G01X0023215Y0020016D01*
G01X0023215Y0020016D02*
G01X0023203Y0020011D01*
G01X0023203Y0020011D02*
G01X0023191Y0020006D01*
G01X0023191Y0020006D02*
G01X0023178Y0020001D01*
G01X0023178Y0020001D02*
G01X0023166Y0019997D01*
G01X0023166Y0019997D02*
G01X0023153Y0019993D01*
G01X0023153Y0019993D02*
G01X0023140Y0019990D01*
G01X0023140Y0019990D02*
G01X0023128Y0019987D01*
G01X0023128Y0019987D02*
G01X0023115Y0019984D01*
G01X0023115Y0019984D02*
G01X0023102Y0019982D01*
G01X0023102Y0019982D02*
G01X0023089Y0019980D01*
G01X0023089Y0019980D02*
G01X0023076Y0019978D01*
G01X0023076Y0019978D02*
G01X0023063Y0019977D01*
G01X0023063Y0019977D02*
G01X0023050Y0019977D01*
G01X0023050Y0019977D02*
G01X0023036Y0019976D01*
G01X0023036Y0019976D02*
G01X0023023Y0019976D01*
G01X0023023Y0019976D02*
G01X0023010Y0019977D01*
G01X0023010Y0019977D02*
G01X0022997Y0019978D01*
G01X0022997Y0019978D02*
G01X0022984Y0019979D01*
G01X0022984Y0019979D02*
G01X0022971Y0019981D01*
G01X0022971Y0019981D02*
G01X0022958Y0019983D01*
G01X0022958Y0019983D02*
G01X0022945Y0019985D01*
G01X0022945Y0019985D02*
G01X0022932Y0019988D01*
G01X0022932Y0019988D02*
G01X0022919Y0019992D01*
G01X0022919Y0019992D02*
G01X0022907Y0019995D01*
G01X0022907Y0019995D02*
G01X0022894Y0019999D01*
G01X0022894Y0019999D02*
G01X0022882Y0020004D01*
G01X0022882Y0020004D02*
G01X0022870Y0020008D01*
G01X0022870Y0020008D02*
G01X0022858Y0020014D01*
G01X0022858Y0020014D02*
G01X0022846Y0020019D01*
G01X0022846Y0020019D02*
G01X0022834Y0020025D01*
G01X0022834Y0020025D02*
G01X0022822Y0020031D01*
G01X0022822Y0020031D02*
G01X0022811Y0020038D01*
G01X0022811Y0020038D02*
G01X0022800Y0020045D01*
G01X0022800Y0020045D02*
G01X0022789Y0020052D01*
G01X0022789Y0020052D02*
G01X0022778Y0020059D01*
G01X0022778Y0020059D02*
G01X0022768Y0020067D01*
G01X0022768Y0020067D02*
G01X0022757Y0020076D01*
G01X0022757Y0020076D02*
G01X0022747Y0020084D01*
G01X0022747Y0020084D02*
G01X0022738Y0020093D01*
G01X0022738Y0020093D02*
G01X0022728Y0020102D01*
G01X0022728Y0020102D02*
G01X0022719Y0020111D01*
G01X0022719Y0020111D02*
G01X0022710Y0020121D01*
G01X0022710Y0020121D02*
G01X0022701Y0020131D01*
G01X0022701Y0020131D02*
G01X0022693Y0020141D01*
G01X0022693Y0020141D02*
G01X0022685Y0020152D01*
G01X0022685Y0020152D02*
G01X0022677Y0020162D01*
G01X0022677Y0020162D02*
G01X0022670Y0020173D01*
G01X0022670Y0020173D02*
G01X0022663Y0020184D01*
G01X0022663Y0020184D02*
G01X0022656Y0020196D01*
G01X0022656Y0020196D02*
G01X0022650Y0020207D01*
G01X0022650Y0020207D02*
G01X0022644Y0020219D01*
G01X0022644Y0020219D02*
G01X0022639Y0020231D01*
G01X0022639Y0020231D02*
G01X0022633Y0020243D01*
G01X0022633Y0020243D02*
G01X0022628Y0020255D01*
G01X0022628Y0020255D02*
G01X0022624Y0020268D01*
G01X0022624Y0020268D02*
G01X0022620Y0020280D01*
G01X0022620Y0020280D02*
G01X0022616Y0020293D01*
G01X0022616Y0020293D02*
G01X0022613Y0020305D01*
G01X0022613Y0020305D02*
G01X0022610Y0020318D01*
G01X0022610Y0020318D02*
G01X0022607Y0020331D01*
G01X0022607Y0020331D02*
G01X0022605Y0020344D01*
G01X0022605Y0020344D02*
G01X0022603Y0020357D01*
G01X0022603Y0020357D02*
G01X0022602Y0020370D01*
G01X0022602Y0020370D02*
G01X0022601Y0020383D01*
G01X0022601Y0020383D02*
G01X0022600Y0020396D01*
G01X0022600Y0020396D02*
G01X0022600Y0020409D01*
G01X0022600Y0006158D02*
G01X0022600Y0006171D01*
G01X0022600Y0006171D02*
G01X0022601Y0006184D01*
G01X0022601Y0006184D02*
G01X0022602Y0006197D01*
G01X0022602Y0006197D02*
G01X0022603Y0006210D01*
G01X0022603Y0006210D02*
G01X0022605Y0006223D01*
G01X0022605Y0006223D02*
G01X0022607Y0006236D01*
G01X0022607Y0006236D02*
G01X0022610Y0006249D01*
G01X0022610Y0006249D02*
G01X0022613Y0006262D01*
G01X0022613Y0006262D02*
G01X0022616Y0006274D01*
G01X0022616Y0006274D02*
G01X0022620Y0006287D01*
G01X0022620Y0006287D02*
G01X0022624Y0006299D01*
G01X0022624Y0006299D02*
G01X0022628Y0006312D01*
G01X0022628Y0006312D02*
G01X0022633Y0006324D01*
G01X0022633Y0006324D02*
G01X0022639Y0006336D01*
G01X0022639Y0006336D02*
G01X0022644Y0006348D01*
G01X0022644Y0006348D02*
G01X0022650Y0006360D01*
G01X0022650Y0006360D02*
G01X0022656Y0006371D01*
G01X0022656Y0006371D02*
G01X0022663Y0006383D01*
G01X0022663Y0006383D02*
G01X0022670Y0006394D01*
G01X0022670Y0006394D02*
G01X0022677Y0006405D01*
G01X0022677Y0006405D02*
G01X0022685Y0006415D01*
G01X0022685Y0006415D02*
G01X0022693Y0006426D01*
G01X0022693Y0006426D02*
G01X0022701Y0006436D01*
G01X0022701Y0006436D02*
G01X0022710Y0006446D01*
G01X0022710Y0006446D02*
G01X0022719Y0006456D01*
G01X0022719Y0006456D02*
G01X0022728Y0006465D01*
G01X0022728Y0006465D02*
G01X0022738Y0006474D01*
G01X0022738Y0006474D02*
G01X0022747Y0006483D01*
G01X0022747Y0006483D02*
G01X0022757Y0006491D01*
G01X0022757Y0006491D02*
G01X0022768Y0006500D01*
G01X0022768Y0006500D02*
G01X0022778Y0006508D01*
G01X0022778Y0006508D02*
G01X0022789Y0006515D01*
G01X0022789Y0006515D02*
G01X0022800Y0006522D01*
G01X0022800Y0006522D02*
G01X0022811Y0006529D01*
G01X0022811Y0006529D02*
G01X0022822Y0006536D01*
G01X0022822Y0006536D02*
G01X0022834Y0006542D01*
G01X0022834Y0006542D02*
G01X0022846Y0006548D01*
G01X0022846Y0006548D02*
G01X0022858Y0006553D01*
G01X0022858Y0006553D02*
G01X0022870Y0006559D01*
G01X0022870Y0006559D02*
G01X0022882Y0006563D01*
G01X0022882Y0006563D02*
G01X0022894Y0006568D01*
G01X0022894Y0006568D02*
G01X0022907Y0006572D01*
G01X0022907Y0006572D02*
G01X0022919Y0006575D01*
G01X0022919Y0006575D02*
G01X0022932Y0006579D01*
G01X0022932Y0006579D02*
G01X0022945Y0006582D01*
G01X0022945Y0006582D02*
G01X0022958Y0006584D01*
G01X0022958Y0006584D02*
G01X0022971Y0006586D01*
G01X0022971Y0006586D02*
G01X0022984Y0006588D01*
G01X0022984Y0006588D02*
G01X0022997Y0006589D01*
G01X0022997Y0006589D02*
G01X0023010Y0006590D01*
G01X0023010Y0006590D02*
G01X0023023Y0006591D01*
G01X0023023Y0006591D02*
G01X0023036Y0006591D01*
G01X0023036Y0006591D02*
G01X0023050Y0006590D01*
G01X0023050Y0006590D02*
G01X0023063Y0006590D01*
G01X0023063Y0006590D02*
G01X0023076Y0006589D01*
G01X0023076Y0006589D02*
G01X0023089Y0006587D01*
G01X0023089Y0006587D02*
G01X0023102Y0006585D01*
G01X0023102Y0006585D02*
G01X0023115Y0006583D01*
G01X0023115Y0006583D02*
G01X0023128Y0006580D01*
G01X0023128Y0006580D02*
G01X0023140Y0006577D01*
G01X0023140Y0006577D02*
G01X0023153Y0006574D01*
G01X0023153Y0006574D02*
G01X0023166Y0006570D01*
G01X0023166Y0006570D02*
G01X0023178Y0006566D01*
G01X0023178Y0006566D02*
G01X0023191Y0006561D01*
G01X0023191Y0006561D02*
G01X0023203Y0006556D01*
G01X0023203Y0006556D02*
G01X0023215Y0006551D01*
G01X0023215Y0006551D02*
G01X0023227Y0006545D01*
G01X0023227Y0006545D02*
G01X0023238Y0006539D01*
G01X0023238Y0006539D02*
G01X0023250Y0006533D01*
G01X0023250Y0006533D02*
G01X0023261Y0006526D01*
G01X0023261Y0006526D02*
G01X0023272Y0006519D01*
G01X0023272Y0006519D02*
G01X0023283Y0006511D01*
G01X0023283Y0006511D02*
G01X0023293Y0006504D01*
G01X0023293Y0006504D02*
G01X0023304Y0006496D01*
G01X0023304Y0006496D02*
G01X0023314Y0006487D01*
G01X0023314Y0006487D02*
G01X0023324Y0006479D01*
G01X0023324Y0006479D02*
G01X0023333Y0006470D01*
G01X0023333Y0006470D02*
G01X0023343Y0006460D01*
G01X0023343Y0006460D02*
G01X0023352Y0006451D01*
G01X0023352Y0006451D02*
G01X0023361Y0006441D01*
G01X0023361Y0006441D02*
G01X0023369Y0006431D01*
G01X0023369Y0006431D02*
G01X0023377Y0006421D01*
G01X0023377Y0006421D02*
G01X0023385Y0006410D01*
G01X0023385Y0006410D02*
G01X0023393Y0006399D01*
G01X0023393Y0006399D02*
G01X0023400Y0006388D01*
G01X0023400Y0006388D02*
G01X0023407Y0006377D01*
G01X0023407Y0006377D02*
G01X0023413Y0006365D01*
G01X0023413Y0006365D02*
G01X0023419Y0006354D01*
G01X0023419Y0006354D02*
G01X0023425Y0006342D01*
G01X0023425Y0006342D02*
G01X0023430Y0006330D01*
G01X0023430Y0006330D02*
G01X0023435Y0006318D01*
G01X0023435Y0006318D02*
G01X0023440Y0006306D01*
G01X0023440Y0006306D02*
G01X0023444Y0006293D01*
G01X0023444Y0006293D02*
G01X0023448Y0006281D01*
G01X0023448Y0006281D02*
G01X0023452Y0006268D01*
G01X0023452Y0006268D02*
G01X0023455Y0006255D01*
G01X0023455Y0006255D02*
G01X0023458Y0006242D01*
G01X0023458Y0006242D02*
G01X0023460Y0006230D01*
G01X0023460Y0006230D02*
G01X0023462Y0006217D01*
G01X0023462Y0006217D02*
G01X0023464Y0006203D01*
G01X0023464Y0006203D02*
G01X0023465Y0006190D01*
G01X0023465Y0006190D02*
G01X0023466Y0006177D01*
G01X0023466Y0006177D02*
G01X0023466Y0006164D01*
G01X0023466Y0006164D02*
G01X0023466Y0006151D01*
G01X0023466Y0006151D02*
G01X0023466Y0006138D01*
G01X0023466Y0006138D02*
G01X0023465Y0006125D01*
G01X0023465Y0006125D02*
G01X0023464Y0006112D01*
G01X0023464Y0006112D02*
G01X0023462Y0006099D01*
G01X0023462Y0006099D02*
G01X0023460Y0006086D01*
G01X0023460Y0006086D02*
G01X0023458Y0006073D01*
G01X0023458Y0006073D02*
G01X0023455Y0006060D01*
G01X0023455Y0006060D02*
G01X0023452Y0006047D01*
G01X0023452Y0006047D02*
G01X0023448Y0006034D01*
G01X0023448Y0006034D02*
G01X0023444Y0006022D01*
G01X0023444Y0006022D02*
G01X0023440Y0006009D01*
G01X0023440Y0006009D02*
G01X0023435Y0005997D01*
G01X0023435Y0005997D02*
G01X0023430Y0005985D01*
G01X0023430Y0005985D02*
G01X0023425Y0005973D01*
G01X0023425Y0005973D02*
G01X0023419Y0005961D01*
G01X0023419Y0005961D02*
G01X0023413Y0005950D01*
G01X0023413Y0005950D02*
G01X0023407Y0005938D01*
G01X0023407Y0005938D02*
G01X0023400Y0005927D01*
G01X0023400Y0005927D02*
G01X0023393Y0005916D01*
G01X0023393Y0005916D02*
G01X0023385Y0005905D01*
G01X0023385Y0005905D02*
G01X0023377Y0005895D01*
G01X0023377Y0005895D02*
G01X0023369Y0005884D01*
G01X0023369Y0005884D02*
G01X0023361Y0005874D01*
G01X0023361Y0005874D02*
G01X0023352Y0005864D01*
G01X0023352Y0005864D02*
G01X0023343Y0005855D01*
G01X0023343Y0005855D02*
G01X0023333Y0005846D01*
G01X0023333Y0005846D02*
G01X0023324Y0005837D01*
G01X0023324Y0005837D02*
G01X0023314Y0005828D01*
G01X0023314Y0005828D02*
G01X0023304Y0005820D01*
G01X0023304Y0005820D02*
G01X0023293Y0005811D01*
G01X0023293Y0005811D02*
G01X0023283Y0005804D01*
G01X0023283Y0005804D02*
G01X0023272Y0005796D01*
G01X0023272Y0005796D02*
G01X0023261Y0005789D01*
G01X0023261Y0005789D02*
G01X0023250Y0005782D01*
G01X0023250Y0005782D02*
G01X0023238Y0005776D01*
G01X0023238Y0005776D02*
G01X0023227Y0005770D01*
G01X0023227Y0005770D02*
G01X0023215Y0005764D01*
G01X0023215Y0005764D02*
G01X0023203Y0005759D01*
G01X0023203Y0005759D02*
G01X0023191Y0005754D01*
G01X0023191Y0005754D02*
G01X0023178Y0005749D01*
G01X0023178Y0005749D02*
G01X0023166Y0005745D01*
G01X0023166Y0005745D02*
G01X0023153Y0005741D01*
G01X0023153Y0005741D02*
G01X0023140Y0005738D01*
G01X0023140Y0005738D02*
G01X0023128Y0005735D01*
G01X0023128Y0005735D02*
G01X0023115Y0005732D01*
G01X0023115Y0005732D02*
G01X0023102Y0005730D01*
G01X0023102Y0005730D02*
G01X0023089Y0005728D01*
G01X0023089Y0005728D02*
G01X0023076Y0005727D01*
G01X0023076Y0005727D02*
G01X0023063Y0005725D01*
G01X0023063Y0005725D02*
G01X0023050Y0005725D01*
G01X0023050Y0005725D02*
G01X0023036Y0005724D01*
G01X0023036Y0005724D02*
G01X0023023Y0005725D01*
G01X0023023Y0005725D02*
G01X0023010Y0005725D01*
G01X0023010Y0005725D02*
G01X0022997Y0005726D01*
G01X0022997Y0005726D02*
G01X0022984Y0005727D01*
G01X0022984Y0005727D02*
G01X0022971Y0005729D01*
G01X0022971Y0005729D02*
G01X0022958Y0005731D01*
G01X0022958Y0005731D02*
G01X0022945Y0005734D01*
G01X0022945Y0005734D02*
G01X0022932Y0005736D01*
G01X0022932Y0005736D02*
G01X0022919Y0005740D01*
G01X0022919Y0005740D02*
G01X0022907Y0005743D01*
G01X0022907Y0005743D02*
G01X0022894Y0005747D01*
G01X0022894Y0005747D02*
G01X0022882Y0005752D01*
G01X0022882Y0005752D02*
G01X0022870Y0005756D01*
G01X0022870Y0005756D02*
G01X0022858Y0005762D01*
G01X0022858Y0005762D02*
G01X0022846Y0005767D01*
G01X0022846Y0005767D02*
G01X0022834Y0005773D01*
G01X0022834Y0005773D02*
G01X0022822Y0005779D01*
G01X0022822Y0005779D02*
G01X0022811Y0005786D01*
G01X0022811Y0005786D02*
G01X0022800Y0005793D01*
G01X0022800Y0005793D02*
G01X0022789Y0005800D01*
G01X0022789Y0005800D02*
G01X0022778Y0005808D01*
G01X0022778Y0005808D02*
G01X0022768Y0005815D01*
G01X0022768Y0005815D02*
G01X0022757Y0005824D01*
G01X0022757Y0005824D02*
G01X0022747Y0005832D01*
G01X0022747Y0005832D02*
G01X0022738Y0005841D01*
G01X0022738Y0005841D02*
G01X0022728Y0005850D01*
G01X0022728Y0005850D02*
G01X0022719Y0005860D01*
G01X0022719Y0005860D02*
G01X0022710Y0005869D01*
G01X0022710Y0005869D02*
G01X0022701Y0005879D01*
G01X0022701Y0005879D02*
G01X0022693Y0005889D01*
G01X0022693Y0005889D02*
G01X0022685Y0005900D01*
G01X0022685Y0005900D02*
G01X0022677Y0005910D01*
G01X0022677Y0005910D02*
G01X0022670Y0005921D01*
G01X0022670Y0005921D02*
G01X0022663Y0005933D01*
G01X0022663Y0005933D02*
G01X0022656Y0005944D01*
G01X0022656Y0005944D02*
G01X0022650Y0005955D01*
G01X0022650Y0005955D02*
G01X0022644Y0005967D01*
G01X0022644Y0005967D02*
G01X0022639Y0005979D01*
G01X0022639Y0005979D02*
G01X0022633Y0005991D01*
G01X0022633Y0005991D02*
G01X0022628Y0006003D01*
G01X0022628Y0006003D02*
G01X0022624Y0006016D01*
G01X0022624Y0006016D02*
G01X0022620Y0006028D01*
G01X0022620Y0006028D02*
G01X0022616Y0006041D01*
G01X0022616Y0006041D02*
G01X0022613Y0006053D01*
G01X0022613Y0006053D02*
G01X0022610Y0006066D01*
G01X0022610Y0006066D02*
G01X0022607Y0006079D01*
G01X0022607Y0006079D02*
G01X0022605Y0006092D01*
G01X0022605Y0006092D02*
G01X0022603Y0006105D01*
G01X0022603Y0006105D02*
G01X0022602Y0006118D01*
G01X0022602Y0006118D02*
G01X0022601Y0006131D01*
G01X0022601Y0006131D02*
G01X0022600Y0006144D01*
G01X0022600Y0006144D02*
G01X0022600Y0006158D01*
G54D11*
G01X0023033Y0006158D03*
G01X0023033Y0020409D03*
G01X0003348Y0020409D03*
G01X0003348Y0006158D03*
G54D12*
G01X0003348Y0006158D03*
G01X0003348Y0020409D03*
G01X0023033Y0020409D03*
G01X0023033Y0006158D03*
M02*
