M48
;GenerationSoftware,Autodesk,EAGLE,9.6.2*%
;CreationDate,2022-10-16T07:37:11Z*%
FMAT,2
ICI,OFF
METRIC,TZ,000.000
T1C2.200
T2C1.200
T3C0.900
T4C0.500
T5C0.300
%
G90
M71
T1
X8250Y49200
X58250Y13000
X8250Y13000
X58250Y49200
T2
X38250Y4150
X28250Y4150
X8250Y4150
X58250Y4150
X13250Y4150
X23250Y4150
X53250Y4150
X43250Y4150
T3
X43900Y13500
X17900Y13500
X26400Y13500
X35400Y13500
X35400Y20500
X17900Y20500
X26400Y20500
X43900Y20500
T4
X22600Y32000
X31100Y32000
X35400Y32000
X26400Y32000
X40100Y32000
X43900Y32000
X48600Y32000
X17900Y32000
T5
X1000Y61200
X1000Y44850
X1000Y28500
X16625Y61200
X16625Y44850
X33250Y59700
X33250Y44850
X33250Y28500
X49875Y61200
X65500Y28500
X16625Y28500
X65500Y44850
X65500Y61200
X49875Y28500
X49875Y44850
X30250Y37250
X32250Y37250
X36250Y37250
X34250Y37250
M30