<svg version="1.1" xmlns="http://www.w3.org/2000/svg" xmlns:xlink="http://www.w3.org/1999/xlink" stroke-linecap="round" stroke-linejoin="round" stroke-width="0" fill-rule="evenodd" clip-rule="evenodd" id="fEr5CGI8bJjzhow03Kdi_top" viewBox="0 0 70000 50000" width="70mm" height="50mm" class="w-100 h-100"><defs><style>.fEr5CGI8bJjzhow03Kdi_fr4 {color: #666666;}
.fEr5CGI8bJjzhow03Kdi_cu {color: #cccccc;}
.fEr5CGI8bJjzhow03Kdi_cf {color: #cc9933;}
.fEr5CGI8bJjzhow03Kdi_sm {color: #004200; opacity: 0.75;}
.fEr5CGI8bJjzhow03Kdi_ss {color: #ffffff;}
.fEr5CGI8bJjzhow03Kdi_sp {color: #999999;}
.fEr5CGI8bJjzhow03Kdi_out {color: #000000;}</style><polygon points="304.79941,126.25205 126.25205,304.79941 -126.25205,304.79941 -304.79941,126.25205 -304.79941,-126.25205 -126.25205,-304.79941 126.25205,-304.79941 304.79941,-126.25205" id="CLmfmPJF2ZJxguncAFCk_pad-11"/><circle cx="0" cy="0" r="150" id="QRlejNlnyMomAYxAfl0D_pad-1"/><g id="fEr5CGI8bJjzhow03Kdi_top_copper"><path d="M 67007.9 7373.6 67007.9 7373.6 67010.2 7373.5 67023.5 7376.3 67036.9 7378.6 67039 7379.5 67041.3 7380 67053.5 7386 67066 7391.6 67067.8 7393 67069.8 7394 67080.2 7402.9 67090.9 7411.4 67092.2 7413.2 67094 7414.7 67101.8 7425.9 67110 7436.7 67110.9 7438.9 67112.2 7440.7 67118.8 7455.4 68618.8 11455.4 68622.2 11469.7 68625.9 11483.9 68626 11485.6 68626.2 11486.4 68626.2 11488 68626.9 11500 68626.9 49000 68625.4 49011.8 68624.7 49023.7 68623.4 49027.5 68622.9 49031.6 68618.6 49042.6 68614.9 49053.9 68612.7 49057.4 68611.2 49061.1 68604.3 49070.7 68597.9 49080.8 68594.9 49083.6 68592.6 49086.9 68583.4 49094.5 68574.7 49102.6 68571.2 49104.6 68568.1 49107.1 68557.3 49112.2 68546.9 49118 68542.9 49119 68539.3 49120.7 68527.6 49122.9 68516.1 49125.9 68510.1 49126.3 68508.1 49126.7 68506 49126.5 68500 49126.9 1500 49126.9 1488.2 49125.4 1476.3 49124.7 1472.5 49123.4 1468.4 49122.9 1457.4 49118.6 1446.1 49114.9 1442.6 49112.7 1438.9 49111.2 1429.3 49104.3 1419.2 49097.9 1416.4 49094.9 1413.1 49092.6 1405.6 49083.4 1397.4 49074.7 1395.4 49071.2 1392.9 49068.1 1387.8 49057.3 1382 49046.9 1381 49042.9 1379.3 49039.3 1377.1 49027.6 1374.1 49016.1 1373.7 49010.1 1373.3 49008.1 1373.5 49006 1373.1 49000 1373.1 11500 1374.9 11485.4 1376.5 11470.8 1377 11469.2 1377.1 11468.4 1377.7 11466.9 1381.2 11455.4 2881.2 7455.4 2882.2 7453.4 2882.8 7451.2 2889.6 7439.4 2896 7427.3 2897.5 7425.6 2898.7 7423.6 2908.1 7413.8 2917.3 7403.7 2919.2 7402.4 2920.8 7400.8 2932.4 7393.7 2943.8 7386.2 2946 7385.4 2948 7384.2 2961 7380.2 2973.9 7375.8 2976.2 7375.6 2978.4 7374.9 2992 7374.3 3005.6 7373.2 3007.9 7373.6 3010.2 7373.5 3023.5 7376.3 3036.9 7378.6 3039 7379.5 3041.3 7380 3053.5 7386 3066 7391.6 3067.8 7393 3069.8 7394 3080.2 7402.9 3090.9 7411.4 3092.2 7413.2 3094 7414.7 3101.8 7425.9 3110 7436.7 3110.9 7438.9 3112.2 7440.7 3118.8 7455.4 4618.8 11455.4 4622.2 11469.7 4625.9 11483.9 4626 11485.6 4626.2 11486.4 4626.2 11488 4626.9 11500 4626.9 45873.1 9373.1 45873.1 9373.1 11500 9374.9 11485.4 9376.5 11470.8 9377 11469.2 9377.1 11468.4 9377.7 11466.9 9381.2 11455.4 10881.2 7455.4 10882.2 7453.4 10882.8 7451.2 10889.6 7439.4 10896 7427.3 10897.5 7425.6 10898.7 7423.6 10908.1 7413.8 10917.3 7403.7 10919.2 7402.4 10920.8 7400.8 10932.4 7393.7 10943.8 7386.2 10946 7385.4 10948 7384.2 10961 7380.2 10973.9 7375.8 10976.2 7375.6 10978.4 7374.9 10992 7374.3 11005.6 7373.2 11007.9 7373.6 11010.2 7373.5 11023.5 7376.3 11036.9 7378.6 11039 7379.5 11041.3 7380 11053.5 7386 11066 7391.6 11067.8 7393 11069.8 7394 11080.2 7402.9 11090.9 7411.4 11092.2 7413.2 11094 7414.7 11101.8 7425.9 11110 7436.7 11110.9 7438.9 11112.2 7440.7 11118.8 7455.4 12618.8 11455.4 12622.2 11469.7 12625.9 11483.9 12626 11485.6 12626.2 11486.4 12626.2 11488 12626.9 11500 12626.9 45873.1 17373.1 45873.1 17373.1 11500 17374.9 11485.4 17376.5 11470.8 17377 11469.2 17377.1 11468.4 17377.7 11466.9 17381.2 11455.4 18881.2 7455.4 18882.2 7453.4 18882.8 7451.2 18889.6 7439.4 18896 7427.3 18897.5 7425.6 18898.7 7423.6 18908.1 7413.8 18917.3 7403.7 18919.2 7402.4 18920.8 7400.8 18932.4 7393.7 18943.8 7386.2 18946 7385.4 18948 7384.2 18961 7380.2 18973.9 7375.8 18976.2 7375.6 18978.4 7374.9 18992 7374.3 19005.6 7373.2 19007.9 7373.6 19010.2 7373.5 19023.5 7376.3 19036.9 7378.6 19039 7379.5 19041.3 7380 19053.5 7386 19066 7391.6 19067.8 7393 19069.8 7394 19080.2 7402.9 19090.9 7411.4 19092.2 7413.2 19094 7414.7 19101.8 7425.9 19110 7436.7 19110.9 7438.9 19112.2 7440.7 19118.8 7455.4 20618.8 11455.4 20622.2 11469.7 20625.9 11483.9 20626 11485.6 20626.2 11486.4 20626.2 11488 20626.9 11500 20626.9 45873.1 25373.1 45873.1 25373.1 11500 25374.9 11485.4 25376.5 11470.8 25377 11469.2 25377.1 11468.4 25377.7 11466.9 25381.2 11455.4 26881.2 7455.4 26882.2 7453.4 26882.8 7451.2 26889.6 7439.4 26896 7427.3 26897.5 7425.6 26898.7 7423.6 26908.1 7413.8 26917.3 7403.7 26919.2 7402.4 26920.8 7400.8 26932.4 7393.7 26943.8 7386.2 26946 7385.4 26948 7384.2 26961 7380.2 26973.9 7375.8 26976.2 7375.6 26978.4 7374.9 26992 7374.3 27005.6 7373.2 27007.9 7373.6 27010.2 7373.5 27023.5 7376.3 27036.9 7378.6 27039 7379.5 27041.3 7380 27053.5 7386 27066 7391.6 27067.8 7393 27069.8 7394 27080.2 7402.9 27090.9 7411.4 27092.2 7413.2 27094 7414.7 27101.8 7425.9 27110 7436.7 27110.9 7438.9 27112.2 7440.7 27118.8 7455.4 28618.8 11455.4 28622.2 11469.7 28625.9 11483.9 28626 11485.6 28626.2 11486.4 28626.2 11488 28626.9 11500 28626.9 45873.1 33373.1 45873.1 33373.1 11500 33374.9 11485.4 33376.5 11470.8 33377 11469.2 33377.1 11468.4 33377.7 11466.9 33381.2 11455.4 34881.2 7455.4 34882.2 7453.4 34882.8 7451.2 34889.6 7439.4 34896 7427.3 34897.5 7425.6 34898.7 7423.6 34908.1 7413.8 34917.3 7403.7 34919.2 7402.4 34920.8 7400.8 34932.4 7393.7 34943.8 7386.2 34946 7385.4 34948 7384.2 34961 7380.2 34973.9 7375.8 34976.2 7375.6 34978.4 7374.9 34992 7374.3 35005.6 7373.2 35007.9 7373.6 35010.2 7373.5 35023.5 7376.3 35036.9 7378.6 35039 7379.5 35041.3 7380 35053.5 7386 35066 7391.6 35067.8 7393 35069.8 7394 35080.2 7402.9 35090.9 7411.4 35092.2 7413.2 35094 7414.7 35101.8 7425.9 35110 7436.7 35110.9 7438.9 35112.2 7440.7 35118.8 7455.4 36618.8 11455.4 36622.2 11469.7 36625.9 11483.9 36626 11485.6 36626.2 11486.4 36626.2 11488 36626.9 11500 36626.9 45873.1 41373.1 45873.1 41373.1 11500 41374.9 11485.4 41376.5 11470.8 41377 11469.2 41377.1 11468.4 41377.7 11466.9 41381.2 11455.4 42881.2 7455.4 42882.2 7453.4 42882.8 7451.2 42889.6 7439.4 42896 7427.3 42897.5 7425.6 42898.7 7423.6 42908.1 7413.8 42917.3 7403.7 42919.2 7402.4 42920.8 7400.8 42932.4 7393.7 42943.8 7386.2 42946 7385.4 42948 7384.2 42961 7380.2 42973.9 7375.8 42976.2 7375.6 42978.4 7374.9 42992 7374.3 43005.6 7373.2 43007.9 7373.6 43010.2 7373.5 43023.5 7376.3 43036.9 7378.6 43039 7379.5 43041.3 7380 43053.5 7386 43066 7391.6 43067.8 7393 43069.8 7394 43080.2 7402.9 43090.9 7411.4 43092.2 7413.2 43094 7414.7 43101.8 7425.9 43110 7436.7 43110.9 7438.9 43112.2 7440.7 43118.8 7455.4 44618.8 11455.4 44622.2 11469.7 44625.9 11483.9 44626 11485.6 44626.2 11486.4 44626.2 11488 44626.9 11500 44626.9 45873.1 49373.1 45873.1 49373.1 11500 49374.9 11485.4 49376.5 11470.8 49377 11469.2 49377.1 11468.4 49377.7 11466.9 49381.2 11455.4 50881.2 7455.4 50882.2 7453.4 50882.8 7451.2 50889.6 7439.4 50896 7427.3 50897.5 7425.6 50898.7 7423.6 50908.1 7413.8 50917.3 7403.7 50919.2 7402.4 50920.8 7400.8 50932.4 7393.7 50943.8 7386.2 50946 7385.4 50948 7384.2 50961 7380.2 50973.9 7375.8 50976.2 7375.6 50978.4 7374.9 50992 7374.3 51005.6 7373.2 51007.9 7373.6 51010.2 7373.5 51023.5 7376.3 51036.9 7378.6 51039 7379.5 51041.3 7380 51053.5 7386 51066 7391.6 51067.8 7393 51069.8 7394 51080.2 7402.9 51090.9 7411.4 51092.2 7413.2 51094 7414.7 51101.8 7425.9 51110 7436.7 51110.9 7438.9 51112.2 7440.7 51118.8 7455.4 52618.8 11455.4 52622.2 11469.7 52625.9 11483.9 52626 11485.6 52626.2 11486.4 52626.2 11488 52626.9 11500 52626.9 45873.1 57373.1 45873.1 57373.1 11500 57374.9 11485.4 57376.5 11470.8 57377 11469.2 57377.1 11468.4 57377.7 11466.9 57381.2 11455.4 58881.2 7455.4 58882.2 7453.4 58882.8 7451.2 58889.6 7439.4 58896 7427.3 58897.5 7425.6 58898.7 7423.6 58908.1 7413.8 58917.3 7403.7 58919.2 7402.4 58920.8 7400.8 58932.4 7393.7 58943.8 7386.2 58946 7385.4 58948 7384.2 58961 7380.2 58973.9 7375.8 58976.2 7375.6 58978.4 7374.9 58992 7374.3 59005.6 7373.2 59007.9 7373.6 59010.2 7373.5 59023.5 7376.3 59036.9 7378.6 59039 7379.5 59041.3 7380 59053.5 7386 59066 7391.6 59067.8 7393 59069.8 7394 59080.2 7402.9 59090.9 7411.4 59092.2 7413.2 59094 7414.7 59101.8 7425.9 59110 7436.7 59110.9 7438.9 59112.2 7440.7 59118.8 7455.4 60618.8 11455.4 60622.2 11469.7 60625.9 11483.9 60626 11485.6 60626.2 11486.4 60626.2 11488 60626.9 11500 60626.9 45873.1 65373.1 45873.1 65373.1 11500 65374.9 11485.4 65376.5 11470.8 65377 11469.2 65377.1 11468.4 65377.7 11466.9 65381.2 11455.4 66881.2 7455.4 66882.2 7453.4 66882.8 7451.2 66889.6 7439.4 66896 7427.3 66897.5 7425.6 66898.7 7423.6 66908.1 7413.8 66917.3 7403.7 66919.2 7402.4 66920.8 7400.8 66932.4 7393.7 66943.8 7386.2 66946 7385.4 66948 7384.2 66961 7380.2 66973.9 7375.8 66976.2 7375.6 66978.4 7374.9 66992 7374.3 67005.6 7373.2 67007.9 7373.6"/><path d="M 39003.5 5297.5 39003.5 5297.5 39011.3 5297.2 39023.6 5299.1 39035.9 5300.1 39043.4 5302.2 39051.1 5303.4 39062.7 5307.7 39074.6 5311.1 39081.6 5314.7 39088.9 5317.4 39099.4 5323.8 39110.4 5329.5 39116.5 5334.4 39123.2 5338.5 39132.2 5346.9 39141.9 5354.6 39146.9 5360.6 39152.6 5365.9 39159.8 5376 39167.8 5385.5 39171.5 5392.3 39176 5398.7 39182.9 5413.2 39187.1 5420.8 39188.2 5424.4 39190.2 5428.7 40690.2 9428.7 40695.1 9447.2 40700.4 9466.9 40700.4 9467.3 40700.5 9467.6 40700.7 9470.1 40703.1 9500 40703.1 44500 40702.9 44501.8 40703.1 44503.6 40701 44521.8 40699.1 44540.1 40698.6 44541.8 40698.4 44543.5 40692.7 44561 40687.3 44578.6 40686.5 44580.1 40685.9 44581.8 40676.9 44597.8 40668.1 44614 40667 44615.3 40666.1 44616.9 40654.1 44630.8 40642.4 44644.9 40641 44646 40639.8 44647.4 40625.3 44658.6 40611 44670.1 40609.4 44670.9 40608 44672 40591.5 44680.2 40575.3 44688.7 40573.6 44689.2 40572 44690 40554.1 44694.7 40536.6 44699.8 40534.8 44700 40533.1 44700.4 40500 44703.1 37500 44703.1 37498.2 44702.9 37496.4 44703.1 37478.2 44701 37459.9 44699.1 37458.2 44698.6 37456.5 44698.4 37439 44692.7 37421.4 44687.3 37419.9 44686.5 37418.2 44685.9 37402.2 44676.9 37386 44668.1 37384.7 44667 37383.1 44666.1 37369.2 44654.1 37355.1 44642.4 37354 44641 37352.7 44639.8 37341.4 44625.3 37329.9 44611 37329.1 44609.4 37328 44608 37319.8 44591.5 37311.3 44575.3 37310.8 44573.6 37310 44572 37305.3 44554.1 37300.2 44536.6 37300 44534.8 37299.6 44533.1 37296.9 44500 37296.9 9500 37298.8 9480.5 37300.7 9460.6 37300.8 9460.2 37300.9 9459.9 37301.6 9457.5 37309.8 9428.7 38809.8 5428.7 38813.3 5421.7 38815.8 5414.3 38822.1 5403.7 38827.6 5392.6 38832.4 5386.4 38836.3 5379.7 38844.6 5370.5 38852.2 5360.7 38858.1 5355.6 38863.3 5349.8 38873.2 5342.4 38882.6 5334.3 38889.3 5330.4 38895.6 5325.8 38906.8 5320.5 38917.6 5314.4 38925 5311.9 38932 5308.6 38944 5305.6 38955.8 5301.7 38963.6 5300.8 38971.1 5298.9 38983.5 5298.4 38995.8 5296.9 39003.5 5297.5"/><path d="M 63003.5 5297.5 63003.5 5297.5 63011.3 5297.2 63023.6 5299.1 63035.9 5300.1 63043.4 5302.2 63051.1 5303.4 63062.7 5307.7 63074.6 5311.1 63081.6 5314.7 63088.9 5317.4 63099.4 5323.8 63110.4 5329.5 63116.5 5334.4 63123.2 5338.5 63132.2 5346.9 63141.9 5354.6 63146.9 5360.6 63152.6 5365.9 63159.8 5376 63167.8 5385.5 63171.5 5392.3 63176 5398.7 63182.9 5413.2 63187.1 5420.8 63188.2 5424.4 63190.2 5428.7 64690.2 9428.7 64695.1 9447.2 64700.4 9466.9 64700.4 9467.3 64700.5 9467.6 64700.7 9470.1 64703.1 9500 64703.1 44500 64702.9 44501.8 64703.1 44503.6 64701 44521.8 64699.1 44540.1 64698.6 44541.8 64698.4 44543.5 64692.7 44561 64687.3 44578.6 64686.5 44580.1 64685.9 44581.8 64676.9 44597.8 64668.1 44614 64667 44615.3 64666.1 44616.9 64654.1 44630.8 64642.4 44644.9 64641 44646 64639.8 44647.4 64625.3 44658.6 64611 44670.1 64609.4 44670.9 64608 44672 64591.5 44680.2 64575.3 44688.7 64573.6 44689.2 64572 44690 64554.1 44694.7 64536.6 44699.8 64534.8 44700 64533.1 44700.4 64500 44703.1 61500 44703.1 61498.2 44702.9 61496.4 44703.1 61478.2 44701 61459.9 44699.1 61458.2 44698.6 61456.5 44698.4 61439 44692.7 61421.4 44687.3 61419.9 44686.5 61418.2 44685.9 61402.2 44676.9 61386 44668.1 61384.7 44667 61383.1 44666.1 61369.2 44654.1 61355.1 44642.4 61354 44641 61352.7 44639.8 61341.4 44625.3 61329.9 44611 61329.1 44609.4 61328 44608 61319.8 44591.5 61311.3 44575.3 61310.8 44573.6 61310 44572 61305.3 44554.1 61300.2 44536.6 61300 44534.8 61299.6 44533.1 61296.9 44500 61296.9 9500 61298.8 9480.5 61300.7 9460.6 61300.8 9460.2 61300.9 9459.9 61301.6 9457.5 61309.8 9428.7 62809.8 5428.7 62813.3 5421.7 62815.8 5414.3 62822.1 5403.7 62827.6 5392.6 62832.4 5386.4 62836.3 5379.7 62844.6 5370.5 62852.2 5360.7 62858.1 5355.6 62863.3 5349.8 62873.2 5342.4 62882.6 5334.3 62889.3 5330.4 62895.6 5325.8 62906.8 5320.5 62917.6 5314.4 62925 5311.9 62932 5308.6 62944 5305.6 62955.8 5301.7 62963.6 5300.8 62971.1 5298.9 62983.5 5298.4 62995.8 5296.9 63003.5 5297.5"/><path d="M 7003.5 5297.5 7003.5 5297.5 7011.3 5297.2 7023.6 5299.1 7035.9 5300.1 7043.4 5302.2 7051.1 5303.4 7062.7 5307.7 7074.6 5311.1 7081.6 5314.7 7088.9 5317.4 7099.4 5323.8 7110.4 5329.5 7116.5 5334.4 7123.2 5338.5 7132.2 5346.9 7141.9 5354.6 7146.9 5360.6 7152.6 5365.9 7159.8 5376 7167.8 5385.5 7171.5 5392.3 7176 5398.7 7182.9 5413.2 7187.1 5420.8 7188.2 5424.4 7190.2 5428.7 8690.2 9428.7 8695.1 9447.2 8700.4 9466.9 8700.4 9467.3 8700.5 9467.6 8700.7 9470.1 8703.1 9500 8703.1 44500 8702.9 44501.8 8703.1 44503.6 8701 44521.8 8699.1 44540.1 8698.6 44541.8 8698.4 44543.5 8692.7 44561 8687.3 44578.6 8686.5 44580.1 8685.9 44581.8 8676.9 44597.8 8668.1 44614 8667 44615.3 8666.1 44616.9 8654.1 44630.8 8642.4 44644.9 8641 44646 8639.8 44647.4 8625.3 44658.6 8611 44670.1 8609.4 44670.9 8608 44672 8591.5 44680.2 8575.3 44688.7 8573.6 44689.2 8572 44690 8554.1 44694.7 8536.6 44699.8 8534.8 44700 8533.1 44700.4 8500 44703.1 5500 44703.1 5498.2 44702.9 5496.4 44703.1 5478.2 44701 5459.9 44699.1 5458.2 44698.6 5456.5 44698.4 5439 44692.7 5421.4 44687.3 5419.9 44686.5 5418.2 44685.9 5402.2 44676.9 5386 44668.1 5384.7 44667 5383.1 44666.1 5369.2 44654.1 5355.1 44642.4 5354 44641 5352.7 44639.8 5341.4 44625.3 5329.9 44611 5329.1 44609.4 5328 44608 5319.8 44591.5 5311.3 44575.3 5310.8 44573.6 5310 44572 5305.3 44554.1 5300.2 44536.6 5300 44534.8 5299.6 44533.1 5296.9 44500 5296.9 9500 5298.8 9480.5 5300.7 9460.6 5300.8 9460.2 5300.9 9459.9 5301.6 9457.5 5309.8 9428.7 6809.8 5428.7 6813.3 5421.7 6815.8 5414.3 6822.1 5403.7 6827.6 5392.6 6832.4 5386.4 6836.3 5379.7 6844.6 5370.5 6852.2 5360.7 6858.1 5355.6 6863.3 5349.8 6873.2 5342.4 6882.6 5334.3 6889.3 5330.4 6895.6 5325.8 6906.8 5320.5 6917.6 5314.4 6925 5311.9 6932 5308.6 6944 5305.6 6955.8 5301.7 6963.6 5300.8 6971.1 5298.9 6983.5 5298.4 6995.8 5296.9 7003.5 5297.5"/><path d="M 31003.5 5297.5 31003.5 5297.5 31011.3 5297.2 31023.6 5299.1 31035.9 5300.1 31043.4 5302.2 31051.1 5303.4 31062.7 5307.7 31074.6 5311.1 31081.6 5314.7 31088.9 5317.4 31099.4 5323.8 31110.4 5329.5 31116.5 5334.4 31123.2 5338.5 31132.2 5346.9 31141.9 5354.6 31146.9 5360.6 31152.6 5365.9 31159.8 5376 31167.8 5385.5 31171.5 5392.3 31176 5398.7 31182.9 5413.2 31187.1 5420.8 31188.2 5424.4 31190.2 5428.7 32690.2 9428.7 32695.1 9447.2 32700.4 9466.9 32700.4 9467.3 32700.5 9467.6 32700.7 9470.1 32703.1 9500 32703.1 44500 32702.9 44501.8 32703.1 44503.6 32701 44521.8 32699.1 44540.1 32698.6 44541.8 32698.4 44543.5 32692.7 44561 32687.3 44578.6 32686.5 44580.1 32685.9 44581.8 32676.9 44597.8 32668.1 44614 32667 44615.3 32666.1 44616.9 32654.1 44630.8 32642.4 44644.9 32641 44646 32639.8 44647.4 32625.3 44658.6 32611 44670.1 32609.4 44670.9 32608 44672 32591.5 44680.2 32575.3 44688.7 32573.6 44689.2 32572 44690 32554.1 44694.7 32536.6 44699.8 32534.8 44700 32533.1 44700.4 32500 44703.1 29500 44703.1 29498.2 44702.9 29496.4 44703.1 29478.2 44701 29459.9 44699.1 29458.2 44698.6 29456.5 44698.4 29439 44692.7 29421.4 44687.3 29419.9 44686.5 29418.2 44685.9 29402.2 44676.9 29386 44668.1 29384.7 44667 29383.1 44666.1 29369.2 44654.1 29355.1 44642.4 29354 44641 29352.7 44639.8 29341.4 44625.3 29329.9 44611 29329.1 44609.4 29328 44608 29319.8 44591.5 29311.3 44575.3 29310.8 44573.6 29310 44572 29305.3 44554.1 29300.2 44536.6 29300 44534.8 29299.6 44533.1 29296.9 44500 29296.9 9500 29298.8 9480.5 29300.7 9460.6 29300.8 9460.2 29300.9 9459.9 29301.6 9457.5 29309.8 9428.7 30809.8 5428.7 30813.3 5421.7 30815.8 5414.3 30822.1 5403.7 30827.6 5392.6 30832.4 5386.4 30836.3 5379.7 30844.6 5370.5 30852.2 5360.7 30858.1 5355.6 30863.3 5349.8 30873.2 5342.4 30882.6 5334.3 30889.3 5330.4 30895.6 5325.8 30906.8 5320.5 30917.6 5314.4 30925 5311.9 30932 5308.6 30944 5305.6 30955.8 5301.7 30963.6 5300.8 30971.1 5298.9 30983.5 5298.4 30995.8 5296.9 31003.5 5297.5"/><path d="M 55003.5 5297.5 55003.5 5297.5 55011.3 5297.2 55023.6 5299.1 55035.9 5300.1 55043.4 5302.2 55051.1 5303.4 55062.7 5307.7 55074.6 5311.1 55081.6 5314.7 55088.9 5317.4 55099.4 5323.8 55110.4 5329.5 55116.5 5334.4 55123.2 5338.5 55132.2 5346.9 55141.9 5354.6 55146.9 5360.6 55152.6 5365.9 55159.8 5376 55167.8 5385.5 55171.5 5392.3 55176 5398.7 55182.9 5413.2 55187.1 5420.8 55188.2 5424.4 55190.2 5428.7 56690.2 9428.7 56695.1 9447.2 56700.4 9466.9 56700.4 9467.3 56700.5 9467.6 56700.7 9470.1 56703.1 9500 56703.1 44500 56702.9 44501.8 56703.1 44503.6 56701 44521.8 56699.1 44540.1 56698.6 44541.8 56698.4 44543.5 56692.7 44561 56687.3 44578.6 56686.5 44580.1 56685.9 44581.8 56676.9 44597.8 56668.1 44614 56667 44615.3 56666.1 44616.9 56654.1 44630.8 56642.4 44644.9 56641 44646 56639.8 44647.4 56625.3 44658.6 56611 44670.1 56609.4 44670.9 56608 44672 56591.5 44680.2 56575.3 44688.7 56573.6 44689.2 56572 44690 56554.1 44694.7 56536.6 44699.8 56534.8 44700 56533.1 44700.4 56500 44703.1 53500 44703.1 53498.2 44702.9 53496.4 44703.1 53478.2 44701 53459.9 44699.1 53458.2 44698.6 53456.5 44698.4 53439 44692.7 53421.4 44687.3 53419.9 44686.5 53418.2 44685.9 53402.2 44676.9 53386 44668.1 53384.7 44667 53383.1 44666.1 53369.2 44654.1 53355.1 44642.4 53354 44641 53352.7 44639.8 53341.4 44625.3 53329.9 44611 53329.1 44609.4 53328 44608 53319.8 44591.5 53311.3 44575.3 53310.8 44573.6 53310 44572 53305.3 44554.1 53300.2 44536.6 53300 44534.8 53299.6 44533.1 53296.9 44500 53296.9 9500 53298.8 9480.5 53300.7 9460.6 53300.8 9460.2 53300.9 9459.9 53301.6 9457.5 53309.8 9428.7 54809.8 5428.7 54813.3 5421.7 54815.8 5414.3 54822.1 5403.7 54827.6 5392.6 54832.4 5386.4 54836.3 5379.7 54844.6 5370.5 54852.2 5360.7 54858.1 5355.6 54863.3 5349.8 54873.2 5342.4 54882.6 5334.3 54889.3 5330.4 54895.6 5325.8 54906.8 5320.5 54917.6 5314.4 54925 5311.9 54932 5308.6 54944 5305.6 54955.8 5301.7 54963.6 5300.8 54971.1 5298.9 54983.5 5298.4 54995.8 5296.9 55003.5 5297.5"/><path d="M 15003.5 5297.5 15003.5 5297.5 15011.3 5297.2 15023.6 5299.1 15035.9 5300.1 15043.4 5302.2 15051.1 5303.4 15062.7 5307.7 15074.6 5311.1 15081.6 5314.7 15088.9 5317.4 15099.4 5323.8 15110.4 5329.5 15116.5 5334.4 15123.2 5338.5 15132.2 5346.9 15141.9 5354.6 15146.9 5360.6 15152.6 5365.9 15159.8 5376 15167.8 5385.5 15171.5 5392.3 15176 5398.7 15182.9 5413.2 15187.1 5420.8 15188.2 5424.4 15190.2 5428.7 16690.2 9428.7 16695.1 9447.2 16700.4 9466.9 16700.4 9467.3 16700.5 9467.6 16700.7 9470.1 16703.1 9500 16703.1 44500 16702.9 44501.8 16703.1 44503.6 16701 44521.8 16699.1 44540.1 16698.6 44541.8 16698.4 44543.5 16692.7 44561 16687.3 44578.6 16686.5 44580.1 16685.9 44581.8 16676.9 44597.8 16668.1 44614 16667 44615.3 16666.1 44616.9 16654.1 44630.8 16642.4 44644.9 16641 44646 16639.8 44647.4 16625.3 44658.6 16611 44670.1 16609.4 44670.9 16608 44672 16591.5 44680.2 16575.3 44688.7 16573.6 44689.2 16572 44690 16554.1 44694.7 16536.6 44699.8 16534.8 44700 16533.1 44700.4 16500 44703.1 13500 44703.1 13498.2 44702.9 13496.4 44703.1 13478.2 44701 13459.9 44699.1 13458.2 44698.6 13456.5 44698.4 13439 44692.7 13421.4 44687.3 13419.9 44686.5 13418.2 44685.9 13402.2 44676.9 13386 44668.1 13384.7 44667 13383.1 44666.1 13369.2 44654.1 13355.1 44642.4 13354 44641 13352.7 44639.8 13341.4 44625.3 13329.9 44611 13329.1 44609.4 13328 44608 13319.8 44591.5 13311.3 44575.3 13310.8 44573.6 13310 44572 13305.3 44554.1 13300.2 44536.6 13300 44534.8 13299.6 44533.1 13296.9 44500 13296.9 9500 13298.8 9480.5 13300.7 9460.6 13300.8 9460.2 13300.9 9459.9 13301.6 9457.5 13309.8 9428.7 14809.8 5428.7 14813.3 5421.7 14815.8 5414.3 14822.1 5403.7 14827.6 5392.6 14832.4 5386.4 14836.3 5379.7 14844.6 5370.5 14852.2 5360.7 14858.1 5355.6 14863.3 5349.8 14873.2 5342.4 14882.6 5334.3 14889.3 5330.4 14895.6 5325.8 14906.8 5320.5 14917.6 5314.4 14925 5311.9 14932 5308.6 14944 5305.6 14955.8 5301.7 14963.6 5300.8 14971.1 5298.9 14983.5 5298.4 14995.8 5296.9 15003.5 5297.5"/><path d="M 47003.5 5297.5 47003.5 5297.5 47011.3 5297.2 47023.6 5299.1 47035.9 5300.1 47043.4 5302.2 47051.1 5303.4 47062.7 5307.7 47074.6 5311.1 47081.6 5314.7 47088.9 5317.4 47099.4 5323.8 47110.4 5329.5 47116.5 5334.4 47123.2 5338.5 47132.2 5346.9 47141.9 5354.6 47146.9 5360.6 47152.6 5365.9 47159.8 5376 47167.8 5385.5 47171.5 5392.3 47176 5398.7 47182.9 5413.2 47187.1 5420.8 47188.2 5424.4 47190.2 5428.7 48690.2 9428.7 48695.1 9447.2 48700.4 9466.9 48700.4 9467.3 48700.5 9467.6 48700.7 9470.1 48703.1 9500 48703.1 44500 48702.9 44501.8 48703.1 44503.6 48701 44521.8 48699.1 44540.1 48698.6 44541.8 48698.4 44543.5 48692.7 44561 48687.3 44578.6 48686.5 44580.1 48685.9 44581.8 48676.9 44597.8 48668.1 44614 48667 44615.3 48666.1 44616.9 48654.1 44630.8 48642.4 44644.9 48641 44646 48639.8 44647.4 48625.3 44658.6 48611 44670.1 48609.4 44670.9 48608 44672 48591.5 44680.2 48575.3 44688.7 48573.6 44689.2 48572 44690 48554.1 44694.7 48536.6 44699.8 48534.8 44700 48533.1 44700.4 48500 44703.1 45500 44703.1 45498.2 44702.9 45496.4 44703.1 45478.2 44701 45459.9 44699.1 45458.2 44698.6 45456.5 44698.4 45439 44692.7 45421.4 44687.3 45419.9 44686.5 45418.2 44685.9 45402.2 44676.9 45386 44668.1 45384.7 44667 45383.1 44666.1 45369.2 44654.1 45355.1 44642.4 45354 44641 45352.7 44639.8 45341.4 44625.3 45329.9 44611 45329.1 44609.4 45328 44608 45319.8 44591.5 45311.3 44575.3 45310.8 44573.6 45310 44572 45305.3 44554.1 45300.2 44536.6 45300 44534.8 45299.6 44533.1 45296.9 44500 45296.9 9500 45298.8 9480.5 45300.7 9460.6 45300.8 9460.2 45300.9 9459.9 45301.6 9457.5 45309.8 9428.7 46809.8 5428.7 46813.3 5421.7 46815.8 5414.3 46822.1 5403.7 46827.6 5392.6 46832.4 5386.4 46836.3 5379.7 46844.6 5370.5 46852.2 5360.7 46858.1 5355.6 46863.3 5349.8 46873.2 5342.4 46882.6 5334.3 46889.3 5330.4 46895.6 5325.8 46906.8 5320.5 46917.6 5314.4 46925 5311.9 46932 5308.6 46944 5305.6 46955.8 5301.7 46963.6 5300.8 46971.1 5298.9 46983.5 5298.4 46995.8 5296.9 47003.5 5297.5"/><path d="M 23003.5 5297.5 23003.5 5297.5 23011.3 5297.2 23023.6 5299.1 23035.9 5300.1 23043.4 5302.2 23051.1 5303.4 23062.7 5307.7 23074.6 5311.1 23081.6 5314.7 23088.9 5317.4 23099.4 5323.8 23110.4 5329.5 23116.5 5334.4 23123.2 5338.5 23132.2 5346.9 23141.9 5354.6 23146.9 5360.6 23152.6 5365.9 23159.8 5376 23167.8 5385.5 23171.5 5392.3 23176 5398.7 23182.9 5413.2 23187.1 5420.8 23188.2 5424.4 23190.2 5428.7 24690.2 9428.7 24695.1 9447.2 24700.4 9466.9 24700.4 9467.3 24700.5 9467.6 24700.7 9470.1 24703.1 9500 24703.1 44500 24702.9 44501.8 24703.1 44503.6 24701 44521.8 24699.1 44540.1 24698.6 44541.8 24698.4 44543.5 24692.7 44561 24687.3 44578.6 24686.5 44580.1 24685.9 44581.8 24676.9 44597.8 24668.1 44614 24667 44615.3 24666.1 44616.9 24654.1 44630.8 24642.4 44644.9 24641 44646 24639.8 44647.4 24625.3 44658.6 24611 44670.1 24609.4 44670.9 24608 44672 24591.5 44680.2 24575.3 44688.7 24573.6 44689.2 24572 44690 24554.1 44694.7 24536.6 44699.8 24534.8 44700 24533.1 44700.4 24500 44703.1 21500 44703.1 21498.2 44702.9 21496.4 44703.1 21478.2 44701 21459.9 44699.1 21458.2 44698.6 21456.5 44698.4 21439 44692.7 21421.4 44687.3 21419.9 44686.5 21418.2 44685.9 21402.2 44676.9 21386 44668.1 21384.7 44667 21383.1 44666.1 21369.2 44654.1 21355.1 44642.4 21354 44641 21352.7 44639.8 21341.4 44625.3 21329.9 44611 21329.1 44609.4 21328 44608 21319.8 44591.5 21311.3 44575.3 21310.8 44573.6 21310 44572 21305.3 44554.1 21300.2 44536.6 21300 44534.8 21299.6 44533.1 21296.9 44500 21296.9 9500 21298.8 9480.5 21300.7 9460.6 21300.8 9460.2 21300.9 9459.9 21301.6 9457.5 21309.8 9428.7 22809.8 5428.7 22813.3 5421.7 22815.8 5414.3 22822.1 5403.7 22827.6 5392.6 22832.4 5386.4 22836.3 5379.7 22844.6 5370.5 22852.2 5360.7 22858.1 5355.6 22863.3 5349.8 22873.2 5342.4 22882.6 5334.3 22889.3 5330.4 22895.6 5325.8 22906.8 5320.5 22917.6 5314.4 22925 5311.9 22932 5308.6 22944 5305.6 22955.8 5301.7 22963.6 5300.8 22971.1 5298.9 22983.5 5298.4 22995.8 5296.9 23003.5 5297.5"/><path d="M 0 0 0 50000 70000 50000 70000 0 0 0" fill="none" stroke-width="0"/><use xlink:href="#CLmfmPJF2ZJxguncAFCk_pad-11" x="3500" y="47500"/><use xlink:href="#CLmfmPJF2ZJxguncAFCk_pad-11" x="66500" y="47500"/><use xlink:href="#CLmfmPJF2ZJxguncAFCk_pad-11" x="35000" y="46000"/><use xlink:href="#CLmfmPJF2ZJxguncAFCk_pad-11" x="7000" y="43000"/><use xlink:href="#CLmfmPJF2ZJxguncAFCk_pad-11" x="15000" y="43000"/><use xlink:href="#CLmfmPJF2ZJxguncAFCk_pad-11" x="23000" y="43000"/><use xlink:href="#CLmfmPJF2ZJxguncAFCk_pad-11" x="31000" y="43000"/><use xlink:href="#CLmfmPJF2ZJxguncAFCk_pad-11" x="39000" y="43000"/><use xlink:href="#CLmfmPJF2ZJxguncAFCk_pad-11" x="47000" y="43000"/><use xlink:href="#CLmfmPJF2ZJxguncAFCk_pad-11" x="55000" y="43000"/><use xlink:href="#CLmfmPJF2ZJxguncAFCk_pad-11" x="63000" y="43000"/></g><g id="fEr5CGI8bJjzhow03Kdi_top_solderpaste"><path d="M 0 0 0 50000 70000 50000 70000 0 0 0" fill="none" stroke-width="0"/></g><g id="fEr5CGI8bJjzhow03Kdi_top_soldermask"><path d="M 7003.5 5297.5 7003.5 5297.5 7011.3 5297.2 7023.6 5299.1 7035.9 5300.1 7043.4 5302.2 7051.1 5303.4 7062.7 5307.7 7074.6 5311.1 7081.6 5314.7 7088.9 5317.4 7099.4 5323.8 7110.4 5329.5 7116.5 5334.4 7123.2 5338.5 7132.2 5346.9 7141.9 5354.6 7146.9 5360.6 7152.6 5365.9 7159.8 5376 7167.8 5385.5 7171.5 5392.3 7176 5398.7 7182.9 5413.2 7187.1 5420.8 7188.2 5424.4 7190.2 5428.7 8690.2 9428.7 8695.1 9447.2 8700.4 9466.9 8700.4 9467.3 8700.5 9467.6 8700.7 9470.1 8703.1 9500 8703.1 41500 8702.9 41501.8 8703.1 41503.6 8701 41521.8 8699.1 41540.1 8698.6 41541.8 8698.4 41543.5 8692.7 41561 8687.3 41578.6 8686.5 41580.1 8685.9 41581.8 8676.9 41597.8 8668.1 41614 8667 41615.3 8666.1 41616.9 8654.1 41630.8 8642.4 41644.9 8641 41646 8639.8 41647.4 8625.3 41658.6 8611 41670.1 8609.4 41670.9 8608 41672 8591.5 41680.2 8575.3 41688.7 8573.6 41689.2 8572 41690 8554.1 41694.7 8536.6 41699.8 8534.8 41700 8533.1 41700.4 8500 41703.1 5500 41703.1 5498.2 41702.9 5496.4 41703.1 5478.2 41701 5459.9 41699.1 5458.2 41698.6 5456.5 41698.4 5439 41692.7 5421.4 41687.3 5419.9 41686.5 5418.2 41685.9 5402.2 41676.9 5386 41668.1 5384.7 41667 5383.1 41666.1 5369.2 41654.1 5355.1 41642.4 5354 41641 5352.7 41639.8 5341.4 41625.3 5329.9 41611 5329.1 41609.4 5328 41608 5319.8 41591.5 5311.3 41575.3 5310.8 41573.6 5310 41572 5305.3 41554.1 5300.2 41536.6 5300 41534.8 5299.6 41533.1 5296.9 41500 5296.9 9500 5298.8 9480.5 5300.7 9460.6 5300.8 9460.2 5300.9 9459.9 5301.6 9457.5 5309.8 9428.7 6809.8 5428.7 6813.3 5421.7 6815.8 5414.3 6822.1 5403.7 6827.6 5392.6 6832.4 5386.4 6836.3 5379.7 6844.6 5370.5 6852.2 5360.7 6858.1 5355.6 6863.3 5349.8 6873.2 5342.4 6882.6 5334.3 6889.3 5330.4 6895.6 5325.8 6906.8 5320.5 6917.6 5314.4 6925 5311.9 6932 5308.6 6944 5305.6 6955.8 5301.7 6963.6 5300.8 6971.1 5298.9 6983.5 5298.4 6995.8 5296.9 7003.5 5297.5"/><path d="M 55003.5 5297.5 55003.5 5297.5 55011.3 5297.2 55023.6 5299.1 55035.9 5300.1 55043.4 5302.2 55051.1 5303.4 55062.7 5307.7 55074.6 5311.1 55081.6 5314.7 55088.9 5317.4 55099.4 5323.8 55110.4 5329.5 55116.5 5334.4 55123.2 5338.5 55132.2 5346.9 55141.9 5354.6 55146.9 5360.6 55152.6 5365.9 55159.8 5376 55167.8 5385.5 55171.5 5392.3 55176 5398.7 55182.9 5413.2 55187.1 5420.8 55188.2 5424.4 55190.2 5428.7 56690.2 9428.7 56695.1 9447.2 56700.4 9466.9 56700.4 9467.3 56700.5 9467.6 56700.7 9470.1 56703.1 9500 56703.1 41500 56702.9 41501.8 56703.1 41503.6 56701 41521.8 56699.1 41540.1 56698.6 41541.8 56698.4 41543.5 56692.7 41561 56687.3 41578.6 56686.5 41580.1 56685.9 41581.8 56676.9 41597.8 56668.1 41614 56667 41615.3 56666.1 41616.9 56654.1 41630.8 56642.4 41644.9 56641 41646 56639.8 41647.4 56625.3 41658.6 56611 41670.1 56609.4 41670.9 56608 41672 56591.5 41680.2 56575.3 41688.7 56573.6 41689.2 56572 41690 56554.1 41694.7 56536.6 41699.8 56534.8 41700 56533.1 41700.4 56500 41703.1 53500 41703.1 53498.2 41702.9 53496.4 41703.1 53478.2 41701 53459.9 41699.1 53458.2 41698.6 53456.5 41698.4 53439 41692.7 53421.4 41687.3 53419.9 41686.5 53418.2 41685.9 53402.2 41676.9 53386 41668.1 53384.7 41667 53383.1 41666.1 53369.2 41654.1 53355.1 41642.4 53354 41641 53352.7 41639.8 53341.4 41625.3 53329.9 41611 53329.1 41609.4 53328 41608 53319.8 41591.5 53311.3 41575.3 53310.8 41573.6 53310 41572 53305.3 41554.1 53300.2 41536.6 53300 41534.8 53299.6 41533.1 53296.9 41500 53296.9 9500 53298.8 9480.5 53300.7 9460.6 53300.8 9460.2 53300.9 9459.9 53301.6 9457.5 53309.8 9428.7 54809.8 5428.7 54813.3 5421.7 54815.8 5414.3 54822.1 5403.7 54827.6 5392.6 54832.4 5386.4 54836.3 5379.7 54844.6 5370.5 54852.2 5360.7 54858.1 5355.6 54863.3 5349.8 54873.2 5342.4 54882.6 5334.3 54889.3 5330.4 54895.6 5325.8 54906.8 5320.5 54917.6 5314.4 54925 5311.9 54932 5308.6 54944 5305.6 54955.8 5301.7 54963.6 5300.8 54971.1 5298.9 54983.5 5298.4 54995.8 5296.9 55003.5 5297.5"/><path d="M 39003.5 5297.5 39003.5 5297.5 39011.3 5297.2 39023.6 5299.1 39035.9 5300.1 39043.4 5302.2 39051.1 5303.4 39062.7 5307.7 39074.6 5311.1 39081.6 5314.7 39088.9 5317.4 39099.4 5323.8 39110.4 5329.5 39116.5 5334.4 39123.2 5338.5 39132.2 5346.9 39141.9 5354.6 39146.9 5360.6 39152.6 5365.9 39159.8 5376 39167.8 5385.5 39171.5 5392.3 39176 5398.7 39182.9 5413.2 39187.1 5420.8 39188.2 5424.4 39190.2 5428.7 40690.2 9428.7 40695.1 9447.2 40700.4 9466.9 40700.4 9467.3 40700.5 9467.6 40700.7 9470.1 40703.1 9500 40703.1 41500 40702.9 41501.8 40703.1 41503.6 40701 41521.8 40699.1 41540.1 40698.6 41541.8 40698.4 41543.5 40692.7 41561 40687.3 41578.6 40686.5 41580.1 40685.9 41581.8 40676.9 41597.8 40668.1 41614 40667 41615.3 40666.1 41616.9 40654.1 41630.8 40642.4 41644.9 40641 41646 40639.8 41647.4 40625.3 41658.6 40611 41670.1 40609.4 41670.9 40608 41672 40591.5 41680.2 40575.3 41688.7 40573.6 41689.2 40572 41690 40554.1 41694.7 40536.6 41699.8 40534.8 41700 40533.1 41700.4 40500 41703.1 37500 41703.1 37498.2 41702.9 37496.4 41703.1 37478.2 41701 37459.9 41699.1 37458.2 41698.6 37456.5 41698.4 37439 41692.7 37421.4 41687.3 37419.9 41686.5 37418.2 41685.9 37402.2 41676.9 37386 41668.1 37384.7 41667 37383.1 41666.1 37369.2 41654.1 37355.1 41642.4 37354 41641 37352.7 41639.8 37341.4 41625.3 37329.9 41611 37329.1 41609.4 37328 41608 37319.8 41591.5 37311.3 41575.3 37310.8 41573.6 37310 41572 37305.3 41554.1 37300.2 41536.6 37300 41534.8 37299.6 41533.1 37296.9 41500 37296.9 9500 37298.8 9480.5 37300.7 9460.6 37300.8 9460.2 37300.9 9459.9 37301.6 9457.5 37309.8 9428.7 38809.8 5428.7 38813.3 5421.7 38815.8 5414.3 38822.1 5403.7 38827.6 5392.6 38832.4 5386.4 38836.3 5379.7 38844.6 5370.5 38852.2 5360.7 38858.1 5355.6 38863.3 5349.8 38873.2 5342.4 38882.6 5334.3 38889.3 5330.4 38895.6 5325.8 38906.8 5320.5 38917.6 5314.4 38925 5311.9 38932 5308.6 38944 5305.6 38955.8 5301.7 38963.6 5300.8 38971.1 5298.9 38983.5 5298.4 38995.8 5296.9 39003.5 5297.5"/><path d="M 63003.5 5297.5 63003.5 5297.5 63011.3 5297.2 63023.6 5299.1 63035.9 5300.1 63043.4 5302.2 63051.1 5303.4 63062.7 5307.7 63074.6 5311.1 63081.6 5314.7 63088.9 5317.4 63099.4 5323.8 63110.4 5329.5 63116.5 5334.4 63123.2 5338.5 63132.2 5346.9 63141.9 5354.6 63146.9 5360.6 63152.6 5365.9 63159.8 5376 63167.8 5385.5 63171.5 5392.3 63176 5398.7 63182.9 5413.2 63187.1 5420.8 63188.2 5424.4 63190.2 5428.7 64690.2 9428.7 64695.1 9447.2 64700.4 9466.9 64700.4 9467.3 64700.5 9467.6 64700.7 9470.1 64703.1 9500 64703.1 41500 64702.9 41501.8 64703.1 41503.6 64701 41521.8 64699.1 41540.1 64698.6 41541.8 64698.4 41543.5 64692.7 41561 64687.3 41578.6 64686.5 41580.1 64685.9 41581.8 64676.9 41597.8 64668.1 41614 64667 41615.3 64666.1 41616.9 64654.1 41630.8 64642.4 41644.9 64641 41646 64639.8 41647.4 64625.3 41658.6 64611 41670.1 64609.4 41670.9 64608 41672 64591.5 41680.2 64575.3 41688.7 64573.6 41689.2 64572 41690 64554.1 41694.7 64536.6 41699.8 64534.8 41700 64533.1 41700.4 64500 41703.1 61500 41703.1 61498.2 41702.9 61496.4 41703.1 61478.2 41701 61459.9 41699.1 61458.2 41698.6 61456.5 41698.4 61439 41692.7 61421.4 41687.3 61419.9 41686.5 61418.2 41685.9 61402.2 41676.9 61386 41668.1 61384.7 41667 61383.1 41666.1 61369.2 41654.1 61355.1 41642.4 61354 41641 61352.7 41639.8 61341.4 41625.3 61329.9 41611 61329.1 41609.4 61328 41608 61319.8 41591.5 61311.3 41575.3 61310.8 41573.6 61310 41572 61305.3 41554.1 61300.2 41536.6 61300 41534.8 61299.6 41533.1 61296.9 41500 61296.9 9500 61298.8 9480.5 61300.7 9460.6 61300.8 9460.2 61300.9 9459.9 61301.6 9457.5 61309.8 9428.7 62809.8 5428.7 62813.3 5421.7 62815.8 5414.3 62822.1 5403.7 62827.6 5392.6 62832.4 5386.4 62836.3 5379.7 62844.6 5370.5 62852.2 5360.7 62858.1 5355.6 62863.3 5349.8 62873.2 5342.4 62882.6 5334.3 62889.3 5330.4 62895.6 5325.8 62906.8 5320.5 62917.6 5314.4 62925 5311.9 62932 5308.6 62944 5305.6 62955.8 5301.7 62963.6 5300.8 62971.1 5298.9 62983.5 5298.4 62995.8 5296.9 63003.5 5297.5"/><path d="M 31003.5 5297.5 31003.5 5297.5 31011.3 5297.2 31023.6 5299.1 31035.9 5300.1 31043.4 5302.2 31051.1 5303.4 31062.7 5307.7 31074.6 5311.1 31081.6 5314.7 31088.9 5317.4 31099.4 5323.8 31110.4 5329.5 31116.5 5334.4 31123.2 5338.5 31132.2 5346.9 31141.9 5354.6 31146.9 5360.6 31152.6 5365.9 31159.8 5376 31167.8 5385.5 31171.5 5392.3 31176 5398.7 31182.9 5413.2 31187.1 5420.8 31188.2 5424.4 31190.2 5428.7 32690.2 9428.7 32695.1 9447.2 32700.4 9466.9 32700.4 9467.3 32700.5 9467.6 32700.7 9470.1 32703.1 9500 32703.1 41500 32702.9 41501.8 32703.1 41503.6 32701 41521.8 32699.1 41540.1 32698.6 41541.8 32698.4 41543.5 32692.7 41561 32687.3 41578.6 32686.5 41580.1 32685.9 41581.8 32676.9 41597.8 32668.1 41614 32667 41615.3 32666.1 41616.9 32654.1 41630.8 32642.4 41644.9 32641 41646 32639.8 41647.4 32625.3 41658.6 32611 41670.1 32609.4 41670.9 32608 41672 32591.5 41680.2 32575.3 41688.7 32573.6 41689.2 32572 41690 32554.1 41694.7 32536.6 41699.8 32534.8 41700 32533.1 41700.4 32500 41703.1 29500 41703.1 29498.2 41702.9 29496.4 41703.1 29478.2 41701 29459.9 41699.1 29458.2 41698.6 29456.5 41698.4 29439 41692.7 29421.4 41687.3 29419.9 41686.5 29418.2 41685.9 29402.2 41676.9 29386 41668.1 29384.7 41667 29383.1 41666.1 29369.2 41654.1 29355.1 41642.4 29354 41641 29352.7 41639.8 29341.4 41625.3 29329.9 41611 29329.1 41609.4 29328 41608 29319.8 41591.5 29311.3 41575.3 29310.8 41573.6 29310 41572 29305.3 41554.1 29300.2 41536.6 29300 41534.8 29299.6 41533.1 29296.9 41500 29296.9 9500 29298.8 9480.5 29300.7 9460.6 29300.8 9460.2 29300.9 9459.9 29301.6 9457.5 29309.8 9428.7 30809.8 5428.7 30813.3 5421.7 30815.8 5414.3 30822.1 5403.7 30827.6 5392.6 30832.4 5386.4 30836.3 5379.7 30844.6 5370.5 30852.2 5360.7 30858.1 5355.6 30863.3 5349.8 30873.2 5342.4 30882.6 5334.3 30889.3 5330.4 30895.6 5325.8 30906.8 5320.5 30917.6 5314.4 30925 5311.9 30932 5308.6 30944 5305.6 30955.8 5301.7 30963.6 5300.8 30971.1 5298.9 30983.5 5298.4 30995.8 5296.9 31003.5 5297.5"/><path d="M 47003.5 5297.5 47003.5 5297.5 47011.3 5297.2 47023.6 5299.1 47035.9 5300.1 47043.4 5302.2 47051.1 5303.4 47062.7 5307.7 47074.6 5311.1 47081.6 5314.7 47088.9 5317.4 47099.4 5323.8 47110.4 5329.5 47116.5 5334.4 47123.2 5338.5 47132.2 5346.9 47141.9 5354.6 47146.9 5360.6 47152.6 5365.9 47159.8 5376 47167.8 5385.5 47171.5 5392.3 47176 5398.7 47182.9 5413.2 47187.1 5420.8 47188.2 5424.4 47190.2 5428.7 48690.2 9428.7 48695.1 9447.2 48700.4 9466.9 48700.4 9467.3 48700.5 9467.6 48700.7 9470.1 48703.1 9500 48703.1 41500 48702.9 41501.8 48703.1 41503.6 48701 41521.8 48699.1 41540.1 48698.6 41541.8 48698.4 41543.5 48692.7 41561 48687.3 41578.6 48686.5 41580.1 48685.9 41581.8 48676.9 41597.8 48668.1 41614 48667 41615.3 48666.1 41616.9 48654.1 41630.8 48642.4 41644.9 48641 41646 48639.8 41647.4 48625.3 41658.6 48611 41670.1 48609.4 41670.9 48608 41672 48591.5 41680.2 48575.3 41688.7 48573.6 41689.2 48572 41690 48554.1 41694.7 48536.6 41699.8 48534.8 41700 48533.1 41700.4 48500 41703.1 45500 41703.1 45498.2 41702.9 45496.4 41703.1 45478.2 41701 45459.9 41699.1 45458.2 41698.6 45456.5 41698.4 45439 41692.7 45421.4 41687.3 45419.9 41686.5 45418.2 41685.9 45402.2 41676.9 45386 41668.1 45384.7 41667 45383.1 41666.1 45369.2 41654.1 45355.1 41642.4 45354 41641 45352.7 41639.8 45341.4 41625.3 45329.9 41611 45329.1 41609.4 45328 41608 45319.8 41591.5 45311.3 41575.3 45310.8 41573.6 45310 41572 45305.3 41554.1 45300.2 41536.6 45300 41534.8 45299.6 41533.1 45296.9 41500 45296.9 9500 45298.8 9480.5 45300.7 9460.6 45300.8 9460.2 45300.9 9459.9 45301.6 9457.5 45309.8 9428.7 46809.8 5428.7 46813.3 5421.7 46815.8 5414.3 46822.1 5403.7 46827.6 5392.6 46832.4 5386.4 46836.3 5379.7 46844.6 5370.5 46852.2 5360.7 46858.1 5355.6 46863.3 5349.8 46873.2 5342.4 46882.6 5334.3 46889.3 5330.4 46895.6 5325.8 46906.8 5320.5 46917.6 5314.4 46925 5311.9 46932 5308.6 46944 5305.6 46955.8 5301.7 46963.6 5300.8 46971.1 5298.9 46983.5 5298.4 46995.8 5296.9 47003.5 5297.5"/><path d="M 23003.5 5297.5 23003.5 5297.5 23011.3 5297.2 23023.6 5299.1 23035.9 5300.1 23043.4 5302.2 23051.1 5303.4 23062.7 5307.7 23074.6 5311.1 23081.6 5314.7 23088.9 5317.4 23099.4 5323.8 23110.4 5329.5 23116.5 5334.4 23123.2 5338.5 23132.2 5346.9 23141.9 5354.6 23146.9 5360.6 23152.6 5365.9 23159.8 5376 23167.8 5385.5 23171.5 5392.3 23176 5398.7 23182.9 5413.2 23187.1 5420.8 23188.2 5424.4 23190.2 5428.7 24690.2 9428.7 24695.1 9447.2 24700.4 9466.9 24700.4 9467.3 24700.5 9467.6 24700.7 9470.1 24703.1 9500 24703.1 41500 24702.9 41501.8 24703.1 41503.6 24701 41521.8 24699.1 41540.1 24698.6 41541.8 24698.4 41543.5 24692.7 41561 24687.3 41578.6 24686.5 41580.1 24685.9 41581.8 24676.9 41597.8 24668.1 41614 24667 41615.3 24666.1 41616.9 24654.1 41630.8 24642.4 41644.9 24641 41646 24639.8 41647.4 24625.3 41658.6 24611 41670.1 24609.4 41670.9 24608 41672 24591.5 41680.2 24575.3 41688.7 24573.6 41689.2 24572 41690 24554.1 41694.7 24536.6 41699.8 24534.8 41700 24533.1 41700.4 24500 41703.1 21500 41703.1 21498.2 41702.9 21496.4 41703.1 21478.2 41701 21459.9 41699.1 21458.2 41698.6 21456.5 41698.4 21439 41692.7 21421.4 41687.3 21419.9 41686.5 21418.2 41685.9 21402.2 41676.9 21386 41668.1 21384.7 41667 21383.1 41666.1 21369.2 41654.1 21355.1 41642.4 21354 41641 21352.7 41639.8 21341.4 41625.3 21329.9 41611 21329.1 41609.4 21328 41608 21319.8 41591.5 21311.3 41575.3 21310.8 41573.6 21310 41572 21305.3 41554.1 21300.2 41536.6 21300 41534.8 21299.6 41533.1 21296.9 41500 21296.9 9500 21298.8 9480.5 21300.7 9460.6 21300.8 9460.2 21300.9 9459.9 21301.6 9457.5 21309.8 9428.7 22809.8 5428.7 22813.3 5421.7 22815.8 5414.3 22822.1 5403.7 22827.6 5392.6 22832.4 5386.4 22836.3 5379.7 22844.6 5370.5 22852.2 5360.7 22858.1 5355.6 22863.3 5349.8 22873.2 5342.4 22882.6 5334.3 22889.3 5330.4 22895.6 5325.8 22906.8 5320.5 22917.6 5314.4 22925 5311.9 22932 5308.6 22944 5305.6 22955.8 5301.7 22963.6 5300.8 22971.1 5298.9 22983.5 5298.4 22995.8 5296.9 23003.5 5297.5"/><path d="M 15003.5 5297.5 15003.5 5297.5 15011.3 5297.2 15023.6 5299.1 15035.9 5300.1 15043.4 5302.2 15051.1 5303.4 15062.7 5307.7 15074.6 5311.1 15081.6 5314.7 15088.9 5317.4 15099.4 5323.8 15110.4 5329.5 15116.5 5334.4 15123.2 5338.5 15132.2 5346.9 15141.9 5354.6 15146.9 5360.6 15152.6 5365.9 15159.8 5376 15167.8 5385.5 15171.5 5392.3 15176 5398.7 15182.9 5413.2 15187.1 5420.8 15188.2 5424.4 15190.2 5428.7 16690.2 9428.7 16695.1 9447.2 16700.4 9466.9 16700.4 9467.3 16700.5 9467.6 16700.7 9470.1 16703.1 9500 16703.1 41500 16702.9 41501.8 16703.1 41503.6 16701 41521.8 16699.1 41540.1 16698.6 41541.8 16698.4 41543.5 16692.7 41561 16687.3 41578.6 16686.5 41580.1 16685.9 41581.8 16676.9 41597.8 16668.1 41614 16667 41615.3 16666.1 41616.9 16654.1 41630.8 16642.4 41644.9 16641 41646 16639.8 41647.4 16625.3 41658.6 16611 41670.1 16609.4 41670.9 16608 41672 16591.5 41680.2 16575.3 41688.7 16573.6 41689.2 16572 41690 16554.1 41694.7 16536.6 41699.8 16534.8 41700 16533.1 41700.4 16500 41703.1 13500 41703.1 13498.2 41702.9 13496.4 41703.1 13478.2 41701 13459.9 41699.1 13458.2 41698.6 13456.5 41698.4 13439 41692.7 13421.4 41687.3 13419.9 41686.5 13418.2 41685.9 13402.2 41676.9 13386 41668.1 13384.7 41667 13383.1 41666.1 13369.2 41654.1 13355.1 41642.4 13354 41641 13352.7 41639.8 13341.4 41625.3 13329.9 41611 13329.1 41609.4 13328 41608 13319.8 41591.5 13311.3 41575.3 13310.8 41573.6 13310 41572 13305.3 41554.1 13300.2 41536.6 13300 41534.8 13299.6 41533.1 13296.9 41500 13296.9 9500 13298.8 9480.5 13300.7 9460.6 13300.8 9460.2 13300.9 9459.9 13301.6 9457.5 13309.8 9428.7 14809.8 5428.7 14813.3 5421.7 14815.8 5414.3 14822.1 5403.7 14827.6 5392.6 14832.4 5386.4 14836.3 5379.7 14844.6 5370.5 14852.2 5360.7 14858.1 5355.6 14863.3 5349.8 14873.2 5342.4 14882.6 5334.3 14889.3 5330.4 14895.6 5325.8 14906.8 5320.5 14917.6 5314.4 14925 5311.9 14932 5308.6 14944 5305.6 14955.8 5301.7 14963.6 5300.8 14971.1 5298.9 14983.5 5298.4 14995.8 5296.9 15003.5 5297.5"/><path d="M 19007.9 7373.6 19007.9 7373.6 19010.2 7373.5 19023.5 7376.3 19036.9 7378.6 19039 7379.5 19041.3 7380 19053.5 7386 19066 7391.6 19067.8 7393 19069.8 7394 19080.2 7402.9 19090.9 7411.4 19092.2 7413.2 19094 7414.7 19101.8 7425.9 19110 7436.7 19110.9 7438.9 19112.2 7440.7 19118.8 7455.4 20618.8 11455.4 20622.2 11469.7 20625.9 11483.9 20626 11485.6 20626.2 11486.4 20626.2 11488 20626.9 11500 20626.9 41500 20625.4 41511.8 20624.7 41523.7 20623.4 41527.5 20622.9 41531.6 20618.6 41542.6 20614.9 41553.9 20612.7 41557.4 20611.2 41561.1 20604.3 41570.7 20597.9 41580.8 20594.9 41583.6 20592.6 41586.9 20583.4 41594.5 20574.7 41602.6 20571.2 41604.6 20568.1 41607.1 20557.3 41612.2 20546.9 41618 20542.9 41619 20539.3 41620.7 20527.6 41622.9 20516.1 41625.9 20510.1 41626.3 20508.1 41626.7 20506 41626.5 20500 41626.9 17500 41626.9 17488.2 41625.4 17476.3 41624.7 17472.5 41623.4 17468.4 41622.9 17457.4 41618.6 17446.1 41614.9 17442.6 41612.7 17438.9 41611.2 17429.3 41604.3 17419.2 41597.9 17416.4 41594.9 17413.1 41592.6 17405.6 41583.4 17397.4 41574.7 17395.4 41571.2 17392.9 41568.1 17387.8 41557.3 17382 41546.9 17381 41542.9 17379.3 41539.3 17377.1 41527.6 17374.1 41516.1 17373.7 41510.1 17373.3 41508.1 17373.5 41506 17373.1 41500 17373.1 11500 17374.9 11485.4 17376.5 11470.8 17377 11469.2 17377.1 11468.4 17377.7 11466.9 17381.2 11455.4 18881.2 7455.4 18882.2 7453.4 18882.8 7451.2 18889.6 7439.4 18896 7427.3 18897.5 7425.6 18898.7 7423.6 18908.1 7413.8 18917.3 7403.7 18919.2 7402.4 18920.8 7400.8 18932.4 7393.7 18943.8 7386.2 18946 7385.4 18948 7384.2 18961 7380.2 18973.9 7375.8 18976.2 7375.6 18978.4 7374.9 18992 7374.3 19005.6 7373.2 19007.9 7373.6"/><path d="M 51007.9 7373.6 51007.9 7373.6 51010.2 7373.5 51023.5 7376.3 51036.9 7378.6 51039 7379.5 51041.3 7380 51053.5 7386 51066 7391.6 51067.8 7393 51069.8 7394 51080.2 7402.9 51090.9 7411.4 51092.2 7413.2 51094 7414.7 51101.8 7425.9 51110 7436.7 51110.9 7438.9 51112.2 7440.7 51118.8 7455.4 52618.8 11455.4 52622.2 11469.7 52625.9 11483.9 52626 11485.6 52626.2 11486.4 52626.2 11488 52626.9 11500 52626.9 41500 52625.4 41511.8 52624.7 41523.7 52623.4 41527.5 52622.9 41531.6 52618.6 41542.6 52614.9 41553.9 52612.7 41557.4 52611.2 41561.1 52604.3 41570.7 52597.9 41580.8 52594.9 41583.6 52592.6 41586.9 52583.4 41594.5 52574.7 41602.6 52571.2 41604.6 52568.1 41607.1 52557.3 41612.2 52546.9 41618 52542.9 41619 52539.3 41620.7 52527.6 41622.9 52516.1 41625.9 52510.1 41626.3 52508.1 41626.7 52506 41626.5 52500 41626.9 49500 41626.9 49488.2 41625.4 49476.3 41624.7 49472.5 41623.4 49468.4 41622.9 49457.4 41618.6 49446.1 41614.9 49442.6 41612.7 49438.9 41611.2 49429.3 41604.3 49419.2 41597.9 49416.4 41594.9 49413.1 41592.6 49405.6 41583.4 49397.4 41574.7 49395.4 41571.2 49392.9 41568.1 49387.8 41557.3 49382 41546.9 49381 41542.9 49379.3 41539.3 49377.1 41527.6 49374.1 41516.1 49373.7 41510.1 49373.3 41508.1 49373.5 41506 49373.1 41500 49373.1 11500 49374.9 11485.4 49376.5 11470.8 49377 11469.2 49377.1 11468.4 49377.7 11466.9 49381.2 11455.4 50881.2 7455.4 50882.2 7453.4 50882.8 7451.2 50889.6 7439.4 50896 7427.3 50897.5 7425.6 50898.7 7423.6 50908.1 7413.8 50917.3 7403.7 50919.2 7402.4 50920.8 7400.8 50932.4 7393.7 50943.8 7386.2 50946 7385.4 50948 7384.2 50961 7380.2 50973.9 7375.8 50976.2 7375.6 50978.4 7374.9 50992 7374.3 51005.6 7373.2 51007.9 7373.6"/><path d="M 35007.9 7373.6 35007.9 7373.6 35010.2 7373.5 35023.5 7376.3 35036.9 7378.6 35039 7379.5 35041.3 7380 35053.5 7386 35066 7391.6 35067.8 7393 35069.8 7394 35080.2 7402.9 35090.9 7411.4 35092.2 7413.2 35094 7414.7 35101.8 7425.9 35110 7436.7 35110.9 7438.9 35112.2 7440.7 35118.8 7455.4 36618.8 11455.4 36622.2 11469.7 36625.9 11483.9 36626 11485.6 36626.2 11486.4 36626.2 11488 36626.9 11500 36626.9 41500 36625.4 41511.8 36624.7 41523.7 36623.4 41527.5 36622.9 41531.6 36618.6 41542.6 36614.9 41553.9 36612.7 41557.4 36611.2 41561.1 36604.3 41570.7 36597.9 41580.8 36594.9 41583.6 36592.6 41586.9 36583.4 41594.5 36574.7 41602.6 36571.2 41604.6 36568.1 41607.1 36557.3 41612.2 36546.9 41618 36542.9 41619 36539.3 41620.7 36527.6 41622.9 36516.1 41625.9 36510.1 41626.3 36508.1 41626.7 36506 41626.5 36500 41626.9 33500 41626.9 33488.2 41625.4 33476.3 41624.7 33472.5 41623.4 33468.4 41622.9 33457.4 41618.6 33446.1 41614.9 33442.6 41612.7 33438.9 41611.2 33429.3 41604.3 33419.2 41597.9 33416.4 41594.9 33413.1 41592.6 33405.6 41583.4 33397.4 41574.7 33395.4 41571.2 33392.9 41568.1 33387.8 41557.3 33382 41546.9 33381 41542.9 33379.3 41539.3 33377.1 41527.6 33374.1 41516.1 33373.7 41510.1 33373.3 41508.1 33373.5 41506 33373.1 41500 33373.1 11500 33374.9 11485.4 33376.5 11470.8 33377 11469.2 33377.1 11468.4 33377.7 11466.9 33381.2 11455.4 34881.2 7455.4 34882.2 7453.4 34882.8 7451.2 34889.6 7439.4 34896 7427.3 34897.5 7425.6 34898.7 7423.6 34908.1 7413.8 34917.3 7403.7 34919.2 7402.4 34920.8 7400.8 34932.4 7393.7 34943.8 7386.2 34946 7385.4 34948 7384.2 34961 7380.2 34973.9 7375.8 34976.2 7375.6 34978.4 7374.9 34992 7374.3 35005.6 7373.2 35007.9 7373.6"/><path d="M 43007.9 7373.6 43007.9 7373.6 43010.2 7373.5 43023.5 7376.3 43036.9 7378.6 43039 7379.5 43041.3 7380 43053.5 7386 43066 7391.6 43067.8 7393 43069.8 7394 43080.2 7402.9 43090.9 7411.4 43092.2 7413.2 43094 7414.7 43101.8 7425.9 43110 7436.7 43110.9 7438.9 43112.2 7440.7 43118.8 7455.4 44618.8 11455.4 44622.2 11469.7 44625.9 11483.9 44626 11485.6 44626.2 11486.4 44626.2 11488 44626.9 11500 44626.9 41500 44625.4 41511.8 44624.7 41523.7 44623.4 41527.5 44622.9 41531.6 44618.6 41542.6 44614.9 41553.9 44612.7 41557.4 44611.2 41561.1 44604.3 41570.7 44597.9 41580.8 44594.9 41583.6 44592.6 41586.9 44583.4 41594.5 44574.7 41602.6 44571.2 41604.6 44568.1 41607.1 44557.3 41612.2 44546.9 41618 44542.9 41619 44539.3 41620.7 44527.6 41622.9 44516.1 41625.9 44510.1 41626.3 44508.1 41626.7 44506 41626.5 44500 41626.9 41500 41626.9 41488.2 41625.4 41476.3 41624.7 41472.5 41623.4 41468.4 41622.9 41457.4 41618.6 41446.1 41614.9 41442.6 41612.7 41438.9 41611.2 41429.3 41604.3 41419.2 41597.9 41416.4 41594.9 41413.1 41592.6 41405.6 41583.4 41397.4 41574.7 41395.4 41571.2 41392.9 41568.1 41387.8 41557.3 41382 41546.9 41381 41542.9 41379.3 41539.3 41377.1 41527.6 41374.1 41516.1 41373.7 41510.1 41373.3 41508.1 41373.5 41506 41373.1 41500 41373.1 11500 41374.9 11485.4 41376.5 11470.8 41377 11469.2 41377.1 11468.4 41377.7 11466.9 41381.2 11455.4 42881.2 7455.4 42882.2 7453.4 42882.8 7451.2 42889.6 7439.4 42896 7427.3 42897.5 7425.6 42898.7 7423.6 42908.1 7413.8 42917.3 7403.7 42919.2 7402.4 42920.8 7400.8 42932.4 7393.7 42943.8 7386.2 42946 7385.4 42948 7384.2 42961 7380.2 42973.9 7375.8 42976.2 7375.6 42978.4 7374.9 42992 7374.3 43005.6 7373.2 43007.9 7373.6"/><path d="M 27007.9 7373.6 27007.9 7373.6 27010.2 7373.5 27023.5 7376.3 27036.9 7378.6 27039 7379.5 27041.3 7380 27053.5 7386 27066 7391.6 27067.8 7393 27069.8 7394 27080.2 7402.9 27090.9 7411.4 27092.2 7413.2 27094 7414.7 27101.8 7425.9 27110 7436.7 27110.9 7438.9 27112.2 7440.7 27118.8 7455.4 28618.8 11455.4 28622.2 11469.7 28625.9 11483.9 28626 11485.6 28626.2 11486.4 28626.2 11488 28626.9 11500 28626.9 41500 28625.4 41511.8 28624.7 41523.7 28623.4 41527.5 28622.9 41531.6 28618.6 41542.6 28614.9 41553.9 28612.7 41557.4 28611.2 41561.1 28604.3 41570.7 28597.9 41580.8 28594.9 41583.6 28592.6 41586.9 28583.4 41594.5 28574.7 41602.6 28571.2 41604.6 28568.1 41607.1 28557.3 41612.2 28546.9 41618 28542.9 41619 28539.3 41620.7 28527.6 41622.9 28516.1 41625.9 28510.1 41626.3 28508.1 41626.7 28506 41626.5 28500 41626.9 25500 41626.9 25488.2 41625.4 25476.3 41624.7 25472.5 41623.4 25468.4 41622.9 25457.4 41618.6 25446.1 41614.9 25442.6 41612.7 25438.9 41611.2 25429.3 41604.3 25419.2 41597.9 25416.4 41594.9 25413.1 41592.6 25405.6 41583.4 25397.4 41574.7 25395.4 41571.2 25392.9 41568.1 25387.8 41557.3 25382 41546.9 25381 41542.9 25379.3 41539.3 25377.1 41527.6 25374.1 41516.1 25373.7 41510.1 25373.3 41508.1 25373.5 41506 25373.1 41500 25373.1 11500 25374.9 11485.4 25376.5 11470.8 25377 11469.2 25377.1 11468.4 25377.7 11466.9 25381.2 11455.4 26881.2 7455.4 26882.2 7453.4 26882.8 7451.2 26889.6 7439.4 26896 7427.3 26897.5 7425.6 26898.7 7423.6 26908.1 7413.8 26917.3 7403.7 26919.2 7402.4 26920.8 7400.8 26932.4 7393.7 26943.8 7386.2 26946 7385.4 26948 7384.2 26961 7380.2 26973.9 7375.8 26976.2 7375.6 26978.4 7374.9 26992 7374.3 27005.6 7373.2 27007.9 7373.6"/><path d="M 67007.9 7373.6 67007.9 7373.6 67010.2 7373.5 67023.5 7376.3 67036.9 7378.6 67039 7379.5 67041.3 7380 67053.5 7386 67066 7391.6 67067.8 7393 67069.8 7394 67080.2 7402.9 67090.9 7411.4 67092.2 7413.2 67094 7414.7 67101.8 7425.9 67110 7436.7 67110.9 7438.9 67112.2 7440.7 67118.8 7455.4 68618.8 11455.4 68622.2 11469.7 68625.9 11483.9 68626 11485.6 68626.2 11486.4 68626.2 11488 68626.9 11500 68626.9 41500 68625.4 41511.8 68624.7 41523.7 68623.4 41527.5 68622.9 41531.6 68618.6 41542.6 68614.9 41553.9 68612.7 41557.4 68611.2 41561.1 68604.3 41570.7 68597.9 41580.8 68594.9 41583.6 68592.6 41586.9 68583.4 41594.5 68574.7 41602.6 68571.2 41604.6 68568.1 41607.1 68557.3 41612.2 68546.9 41618 68542.9 41619 68539.3 41620.7 68527.6 41622.9 68516.1 41625.9 68510.1 41626.3 68508.1 41626.7 68506 41626.5 68500 41626.9 65500 41626.9 65488.2 41625.4 65476.3 41624.7 65472.5 41623.4 65468.4 41622.9 65457.4 41618.6 65446.1 41614.9 65442.6 41612.7 65438.9 41611.2 65429.3 41604.3 65419.2 41597.9 65416.4 41594.9 65413.1 41592.6 65405.6 41583.4 65397.4 41574.7 65395.4 41571.2 65392.9 41568.1 65387.8 41557.3 65382 41546.9 65381 41542.9 65379.3 41539.3 65377.1 41527.6 65374.1 41516.1 65373.7 41510.1 65373.3 41508.1 65373.5 41506 65373.1 41500 65373.1 11500 65374.9 11485.4 65376.5 11470.8 65377 11469.2 65377.1 11468.4 65377.7 11466.9 65381.2 11455.4 66881.2 7455.4 66882.2 7453.4 66882.8 7451.2 66889.6 7439.4 66896 7427.3 66897.5 7425.6 66898.7 7423.6 66908.1 7413.8 66917.3 7403.7 66919.2 7402.4 66920.8 7400.8 66932.4 7393.7 66943.8 7386.2 66946 7385.4 66948 7384.2 66961 7380.2 66973.9 7375.8 66976.2 7375.6 66978.4 7374.9 66992 7374.3 67005.6 7373.2 67007.9 7373.6"/><path d="M 3007.9 7373.6 3007.9 7373.6 3010.2 7373.5 3023.5 7376.3 3036.9 7378.6 3039 7379.5 3041.3 7380 3053.5 7386 3066 7391.6 3067.8 7393 3069.8 7394 3080.2 7402.9 3090.9 7411.4 3092.2 7413.2 3094 7414.7 3101.8 7425.9 3110 7436.7 3110.9 7438.9 3112.2 7440.7 3118.8 7455.4 4618.8 11455.4 4622.2 11469.7 4625.9 11483.9 4626 11485.6 4626.2 11486.4 4626.2 11488 4626.9 11500 4626.9 41500 4625.4 41511.8 4624.7 41523.7 4623.4 41527.5 4622.9 41531.6 4618.6 41542.6 4614.9 41553.9 4612.7 41557.4 4611.2 41561.1 4604.3 41570.7 4597.9 41580.8 4594.9 41583.6 4592.6 41586.9 4583.4 41594.5 4574.7 41602.6 4571.2 41604.6 4568.1 41607.1 4557.3 41612.2 4546.9 41618 4542.9 41619 4539.3 41620.7 4527.6 41622.9 4516.1 41625.9 4510.1 41626.3 4508.1 41626.7 4506 41626.5 4500 41626.9 1500 41626.9 1488.2 41625.4 1476.3 41624.7 1472.5 41623.4 1468.4 41622.9 1457.4 41618.6 1446.1 41614.9 1442.6 41612.7 1438.9 41611.2 1429.3 41604.3 1419.2 41597.9 1416.4 41594.9 1413.1 41592.6 1405.6 41583.4 1397.4 41574.7 1395.4 41571.2 1392.9 41568.1 1387.8 41557.3 1382 41546.9 1381 41542.9 1379.3 41539.3 1377.1 41527.6 1374.1 41516.1 1373.7 41510.1 1373.3 41508.1 1373.5 41506 1373.1 41500 1373.1 11500 1374.9 11485.4 1376.5 11470.8 1377 11469.2 1377.1 11468.4 1377.7 11466.9 1381.2 11455.4 2881.2 7455.4 2882.2 7453.4 2882.8 7451.2 2889.6 7439.4 2896 7427.3 2897.5 7425.6 2898.7 7423.6 2908.1 7413.8 2917.3 7403.7 2919.2 7402.4 2920.8 7400.8 2932.4 7393.7 2943.8 7386.2 2946 7385.4 2948 7384.2 2961 7380.2 2973.9 7375.8 2976.2 7375.6 2978.4 7374.9 2992 7374.3 3005.6 7373.2 3007.9 7373.6"/><path d="M 59007.9 7373.6 59007.9 7373.6 59010.2 7373.5 59023.5 7376.3 59036.9 7378.6 59039 7379.5 59041.3 7380 59053.5 7386 59066 7391.6 59067.8 7393 59069.8 7394 59080.2 7402.9 59090.9 7411.4 59092.2 7413.2 59094 7414.7 59101.8 7425.9 59110 7436.7 59110.9 7438.9 59112.2 7440.7 59118.8 7455.4 60618.8 11455.4 60622.2 11469.7 60625.9 11483.9 60626 11485.6 60626.2 11486.4 60626.2 11488 60626.9 11500 60626.9 41500 60625.4 41511.8 60624.7 41523.7 60623.4 41527.5 60622.9 41531.6 60618.6 41542.6 60614.9 41553.9 60612.7 41557.4 60611.2 41561.1 60604.3 41570.7 60597.9 41580.8 60594.9 41583.6 60592.6 41586.9 60583.4 41594.5 60574.7 41602.6 60571.2 41604.6 60568.1 41607.1 60557.3 41612.2 60546.9 41618 60542.9 41619 60539.3 41620.7 60527.6 41622.9 60516.1 41625.9 60510.1 41626.3 60508.1 41626.7 60506 41626.5 60500 41626.9 57500 41626.9 57488.2 41625.4 57476.3 41624.7 57472.5 41623.4 57468.4 41622.9 57457.4 41618.6 57446.1 41614.9 57442.6 41612.7 57438.9 41611.2 57429.3 41604.3 57419.2 41597.9 57416.4 41594.9 57413.1 41592.6 57405.6 41583.4 57397.4 41574.7 57395.4 41571.2 57392.9 41568.1 57387.8 41557.3 57382 41546.9 57381 41542.9 57379.3 41539.3 57377.1 41527.6 57374.1 41516.1 57373.7 41510.1 57373.3 41508.1 57373.5 41506 57373.1 41500 57373.1 11500 57374.9 11485.4 57376.5 11470.8 57377 11469.2 57377.1 11468.4 57377.7 11466.9 57381.2 11455.4 58881.2 7455.4 58882.2 7453.4 58882.8 7451.2 58889.6 7439.4 58896 7427.3 58897.5 7425.6 58898.7 7423.6 58908.1 7413.8 58917.3 7403.7 58919.2 7402.4 58920.8 7400.8 58932.4 7393.7 58943.8 7386.2 58946 7385.4 58948 7384.2 58961 7380.2 58973.9 7375.8 58976.2 7375.6 58978.4 7374.9 58992 7374.3 59005.6 7373.2 59007.9 7373.6"/><path d="M 11007.9 7373.6 11007.9 7373.6 11010.2 7373.5 11023.5 7376.3 11036.9 7378.6 11039 7379.5 11041.3 7380 11053.5 7386 11066 7391.6 11067.8 7393 11069.8 7394 11080.2 7402.9 11090.9 7411.4 11092.2 7413.2 11094 7414.7 11101.8 7425.9 11110 7436.7 11110.9 7438.9 11112.2 7440.7 11118.8 7455.4 12618.8 11455.4 12622.2 11469.7 12625.9 11483.9 12626 11485.6 12626.2 11486.4 12626.2 11488 12626.9 11500 12626.9 41500 12625.4 41511.8 12624.7 41523.7 12623.4 41527.5 12622.9 41531.6 12618.6 41542.6 12614.9 41553.9 12612.7 41557.4 12611.2 41561.1 12604.3 41570.7 12597.9 41580.8 12594.9 41583.6 12592.6 41586.9 12583.4 41594.5 12574.7 41602.6 12571.2 41604.6 12568.1 41607.1 12557.3 41612.2 12546.9 41618 12542.9 41619 12539.3 41620.7 12527.6 41622.9 12516.1 41625.9 12510.1 41626.3 12508.1 41626.7 12506 41626.5 12500 41626.9 9500 41626.9 9488.2 41625.4 9476.3 41624.7 9472.5 41623.4 9468.4 41622.9 9457.4 41618.6 9446.1 41614.9 9442.6 41612.7 9438.9 41611.2 9429.3 41604.3 9419.2 41597.9 9416.4 41594.9 9413.1 41592.6 9405.6 41583.4 9397.4 41574.7 9395.4 41571.2 9392.9 41568.1 9387.8 41557.3 9382 41546.9 9381 41542.9 9379.3 41539.3 9377.1 41527.6 9374.1 41516.1 9373.7 41510.1 9373.3 41508.1 9373.5 41506 9373.1 41500 9373.1 11500 9374.9 11485.4 9376.5 11470.8 9377 11469.2 9377.1 11468.4 9377.7 11466.9 9381.2 11455.4 10881.2 7455.4 10882.2 7453.4 10882.8 7451.2 10889.6 7439.4 10896 7427.3 10897.5 7425.6 10898.7 7423.6 10908.1 7413.8 10917.3 7403.7 10919.2 7402.4 10920.8 7400.8 10932.4 7393.7 10943.8 7386.2 10946 7385.4 10948 7384.2 10961 7380.2 10973.9 7375.8 10976.2 7375.6 10978.4 7374.9 10992 7374.3 11005.6 7373.2 11007.9 7373.6"/><path d="M 0 0 0 50000 70000 50000 70000 0 0 0" fill="none" stroke-width="0"/></g><g id="fEr5CGI8bJjzhow03Kdi_top_silkscreen"><path d="M 0 0 0 3181.8 M 0 4681.8 0 7863.6 M 0 9363.6 0 12545.5 M 0 14045.5 0 17227.3 M 0 18727.3 0 21909.1 M 0 23409.1 0 26590.9 M 0 28090.9 0 31272.7 M 0 32772.7 0 35954.5 M 0 37454.5 0 40636.4 M 0 42136.4 0 45318.2 M 0 46818.2 0 50000 M 67031.3 0 70000 0 M 65531.3 0 62562.5 0 M 61062.5 0 58093.8 0 M 56593.8 0 53625 0 M 52125 0 49156.3 0 M 47656.3 0 44687.5 0 M 43187.5 0 40218.8 0 M 38718.8 0 35750 0 M 34250 0 31281.3 0 M 29781.3 0 26812.5 0 M 25312.5 0 22343.8 0 M 20843.8 0 17875 0 M 16375 0 13406.3 0 M 11906.3 0 8937.5 0 M 7437.5 0 4468.8 0 M 2968.8 0 0 0 M 70000 0 70000 3181.8 M 70000 4681.8 70000 7863.6 M 70000 9363.6 70000 12545.5 M 70000 14045.5 70000 17227.3 M 70000 18727.3 70000 21909.1 M 70000 23409.1 70000 26590.9 M 70000 28090.9 70000 31272.7 M 70000 32772.7 70000 35954.5 M 70000 37454.5 70000 40636.4 M 70000 42136.4 70000 45318.2 M 70000 46818.2 70000 50000 M 2587.7 50000 0 50000 M 3339.5 50000 3461.4 50000 M 4213.3 50000 6800.9 50000 M 7552.8 50000 7674.7 50000 M 8426.5 50000 11014.2 50000 M 11766.1 50000 11888 50000 M 12639.8 50000 15227.5 50000 M 15979.3 50000 16101.2 50000 M 16853.1 50000 19440.8 50000 M 20192.6 50000 20314.5 50000 M 21066.4 50000 23654 50000 M 24405.9 50000 24527.8 50000 M 25279.6 50000 27867.3 50000 M 28619.1 50000 28741.1 50000 M 29492.9 50000 32080.6 50000 M 32832.4 50000 32954.3 50000 M 33706.2 50000 36293.8 50000 M 37045.7 50000 37167.6 50000 M 37919.4 50000 40507.1 50000 M 41258.9 50000 41380.9 50000 M 42132.7 50000 44720.4 50000 M 45472.2 50000 45594.1 50000 M 46346 50000 48933.6 50000 M 49685.5 50000 49807.4 50000 M 50559.2 50000 53146.9 50000 M 53898.8 50000 54020.7 50000 M 54772.5 50000 57360.2 50000 M 58112 50000 58233.9 50000 M 58985.8 50000 61573.5 50000 M 62325.3 50000 62447.2 50000 M 63199.1 50000 65786.7 50000 M 66538.6 50000 66660.5 50000 M 67412.3 50000 70000 50000" fill="none" stroke-width="406.4"/><path d="M 0 50000 0 0 M 0 50000 70000 50000 70000 0 0 0" fill="none" stroke-width="0"/></g><g id="fEr5CGI8bJjzhow03Kdi_top_drill1"><use xlink:href="#QRlejNlnyMomAYxAfl0D_pad-1" x="3500" y="47500"/><use xlink:href="#QRlejNlnyMomAYxAfl0D_pad-1" x="66500" y="47500"/><use xlink:href="#QRlejNlnyMomAYxAfl0D_pad-1" x="35000" y="46000"/><use xlink:href="#QRlejNlnyMomAYxAfl0D_pad-1" x="7000" y="43000"/><use xlink:href="#QRlejNlnyMomAYxAfl0D_pad-1" x="15000" y="43000"/><use xlink:href="#QRlejNlnyMomAYxAfl0D_pad-1" x="23000" y="43000"/><use xlink:href="#QRlejNlnyMomAYxAfl0D_pad-1" x="31000" y="43000"/><use xlink:href="#QRlejNlnyMomAYxAfl0D_pad-1" x="39000" y="43000"/><use xlink:href="#QRlejNlnyMomAYxAfl0D_pad-1" x="47000" y="43000"/><use xlink:href="#QRlejNlnyMomAYxAfl0D_pad-1" x="55000" y="43000"/><use xlink:href="#QRlejNlnyMomAYxAfl0D_pad-1" x="63000" y="43000"/></g><clipPath id="fEr5CGI8bJjzhow03Kdi_top_outline"><path d="M 0 0 0 50000 70000 50000 70000 0 0 0" fill="none" stroke-width="0"/></clipPath><mask id="fEr5CGI8bJjzhow03Kdi_top_mech-mask"><g fill="#000" stroke="#000"><rect x="0" y="0" width="70000" height="50000" fill="#fff"/><use xlink:href="#fEr5CGI8bJjzhow03Kdi_top_drill1"/></g></mask><mask id="fEr5CGI8bJjzhow03Kdi_top_cf-mask"><g fill="#fff" stroke="#fff"><use xlink:href="#fEr5CGI8bJjzhow03Kdi_top_soldermask"/></g></mask><mask id="fEr5CGI8bJjzhow03Kdi_top_sm-mask"><g fill="#000" stroke="#000"><rect x="0" y="0" width="70000" height="50000" fill="#fff"/><use xlink:href="#fEr5CGI8bJjzhow03Kdi_top_soldermask"/></g></mask></defs><g transform="translate(0,50000) scale(1,-1)"><g mask="url(#fEr5CGI8bJjzhow03Kdi_top_mech-mask)" clip-path="url(#fEr5CGI8bJjzhow03Kdi_top_outline)"><rect x="0" y="0" width="70000" height="50000" fill="currentColor" class="fEr5CGI8bJjzhow03Kdi_fr4"/><use xlink:href="#fEr5CGI8bJjzhow03Kdi_top_copper" fill="currentColor" stroke="currentColor" class="fEr5CGI8bJjzhow03Kdi_cu"/><use xlink:href="#fEr5CGI8bJjzhow03Kdi_top_copper" fill="currentColor" stroke="currentColor" class="fEr5CGI8bJjzhow03Kdi_cf" mask="url(#fEr5CGI8bJjzhow03Kdi_top_cf-mask)"/><g mask="url(#fEr5CGI8bJjzhow03Kdi_top_sm-mask)"><rect x="0" y="0" width="70000" height="50000" fill="currentColor" class="fEr5CGI8bJjzhow03Kdi_sm"/><use xlink:href="#fEr5CGI8bJjzhow03Kdi_top_silkscreen" fill="currentColor" stroke="currentColor" class="fEr5CGI8bJjzhow03Kdi_ss"/></g><use xlink:href="#fEr5CGI8bJjzhow03Kdi_top_solderpaste" fill="currentColor" stroke="currentColor" class="fEr5CGI8bJjzhow03Kdi_sp"/></g></g></svg>