<svg version="1.1" xmlns="http://www.w3.org/2000/svg" xmlns:xlink="http://www.w3.org/1999/xlink" stroke-linecap="round" stroke-linejoin="round" stroke-width="0" fill-rule="evenodd" clip-rule="evenodd" id="fEr5CGI8bJjzhow03Kdi_bottom" viewBox="0 0 70000 50000" width="70mm" height="50mm" class="w-100 h-100"><defs><style>.fEr5CGI8bJjzhow03Kdi_fr4 {color: #666666;}
.fEr5CGI8bJjzhow03Kdi_cu {color: #cccccc;}
.fEr5CGI8bJjzhow03Kdi_cf {color: #cc9933;}
.fEr5CGI8bJjzhow03Kdi_sm {color: #004200; opacity: 0.75;}
.fEr5CGI8bJjzhow03Kdi_ss {color: #ffffff;}
.fEr5CGI8bJjzhow03Kdi_sp {color: #999999;}
.fEr5CGI8bJjzhow03Kdi_out {color: #000000;}</style><mask id="L-TQzqr0U6FVOnNA-2Qq_clear-1" fill="#000" stroke="#000"><g><rect x="508.1" y="4873.1" width="68983.8" height="44618.8" fill="#fff"/><path d="M 29822.4 25057.5 29822.4 25057.5 29733.1 25146.8 29733.1 30353.2 29822.4 30442.5 30317.4 30442.5 30329.2 30444 30341.1 30444.7 30344.9 30446 30349 30446.5 30360 30450.8 30371.3 30454.5 30374.8 30456.7 30378.5 30458.2 30388.1 30465.1 30398.2 30471.5 30401 30474.5 30404.3 30476.8 30411.9 30486 30420 30494.7 30422 30498.2 30424.5 30501.3 30429.6 30512.1 30435.4 30522.5 30436.4 30526.5 30438.1 30530.1 30440.3 30541.8 30443.3 30553.3 30443.7 30559.3 30444.1 30561.3 30443.9 30563.4 30444.3 30569.4 30444.3 32447.3 34607.2 36610.1 34613.2 36618 34620 36625.2 34622.9 36630.5 34626.6 36635.3 34630.6 36644.4 34635.4 36653 34636.9 36658.9 34639.3 36664.5 34640.8 36674.3 34643.3 36683.8 34643.9 36693.8 34644.3 36695.9 34644.1 36697.1 34644.3 36699.9 34644.3 40893.7 34643.1 40903.5 34642.8 40913.4 34641.1 40919.2 34640.3 40925.3 34636.7 40934.5 34633.9 40944 34630.9 40949.2 34628.6 40954.8 34622.8 40962.8 34617.8 40971.4 34611.2 40978.9 34610 40980.6 34609 40981.3 34607.2 40983.5 34585.1 41005.6 34577.2 41011.6 34570 41018.4 34564.7 41021.3 34559.9 41025 34550.8 41029 34542.2 41033.8 34536.3 41035.3 34530.7 41037.7 34520.9 41039.2 34511.4 41041.7 34501.4 41042.3 34499.3 41042.7 34498.1 41042.5 34495.3 41042.7 5310.6 41042.7 5042.7 41310.6 5042.7 44689.4 5310.6 44957.3 64689.4 44957.3 64957.3 44689.4 64957.3 41310.6 64689.4 41042.7 35504.7 41042.7 35494.9 41041.5 35485 41041.2 35479.2 41039.5 35473.1 41038.7 35463.9 41035.1 35454.4 41032.3 35449.2 41029.3 35443.6 41027 35435.6 41021.2 35427 41016.2 35419.5 41009.6 35417.8 41008.4 35417.1 41007.4 35414.9 41005.5 35392.8 40983.4 35386.8 40975.6 35380 40968.4 35377.1 40963.1 35373.4 40958.3 35369.4 40949.2 35364.6 40940.6 35363.1 40934.7 35360.7 40929.1 35359.2 40919.3 35356.7 40909.8 35356.1 40899.8 35355.7 40897.7 35355.9 40896.5 35355.7 40893.7 35355.7 36352.7 31192.8 32189.9 31186.8 32182 31180 32174.8 31177.1 32169.5 31173.4 32164.7 31169.4 32155.6 31164.6 32147 31163.1 32141.1 31160.7 32135.5 31159.2 32125.7 31156.7 32116.2 31156.1 32106.2 31155.7 32104.1 31155.9 32102.9 31155.7 32100.1 31155.7 30569.4 31157.2 30557.6 31157.9 30545.7 31159.2 30541.9 31159.7 30537.8 31164 30526.8 31167.7 30515.5 31169.9 30512 31171.4 30508.3 31178.3 30498.7 31184.7 30488.6 31187.7 30485.8 31190 30482.5 31199.2 30474.9 31207.9 30466.8 31211.4 30464.8 31214.5 30462.3 31225.3 30457.2 31235.7 30451.4 31239.7 30450.4 31243.3 30448.7 31255 30446.5 31266.5 30443.5 31272.5 30443.1 31274.5 30442.7 31276.6 30442.9 31282.6 30442.5 31777.6 30442.5 31866.9 30353.2 31866.9 25146.8 31777.6 25057.5 29822.4 25057.5"/></g></mask><mask id="L-TQzqr0U6FVOnNA-2Qq_clear-2" fill="#000" stroke="#000"><g><rect x="508.1" y="4873.1" width="68983.8" height="44618.8" fill="#fff"/><path d="M 29936.8 14847.5 29936.8 14847.5 29847.5 14936.8 29847.5 17063.2 29936.8 17152.5 31663.2 17152.5 31752.5 17063.2 31752.5 16584.2 31754 16572.4 31754.7 16560.5 31756 16556.7 31756.5 16552.6 31760.8 16541.6 31764.5 16530.3 31766.7 16526.8 31768.2 16523.1 31775.1 16513.5 31781.5 16503.4 31784.5 16500.6 31786.8 16497.3 31796 16489.7 31804.7 16481.6 31808.2 16479.6 31811.3 16477.1 31822.1 16472 31832.5 16466.2 31836.5 16465.2 31840.1 16463.5 31851.8 16461.3 31863.3 16458.3 31869.3 16457.9 31871.3 16457.5 31873.4 16457.7 31879.4 16457.3 34148.4 16457.3 34158.2 16458.5 34168.1 16458.8 34174 16460.5 34180 16461.3 34189.2 16464.9 34198.7 16467.7 34203.9 16470.7 34209.5 16473 34217.5 16478.8 34226.1 16483.8 34233.6 16490.4 34235.3 16491.6 34236.1 16492.6 34238.2 16494.4 34505.6 16761.8 34511.6 16769.7 34518.4 16776.9 34521.3 16782.2 34525 16787 34529 16796.1 34533.8 16804.7 34535.3 16810.6 34537.7 16816.1 34539.2 16825.9 34541.7 16835.5 34542.3 16845.5 34542.7 16847.6 34542.5 16848.8 34542.7 16851.6 34542.7 17989.4 38705.6 22152.2 38711.6 22160.1 38718.4 22167.3 38721.3 22172.6 38725 22177.4 38729 22186.5 38733.8 22195.1 38735.3 22201 38737.7 22206.5 38739.2 22216.3 38741.7 22225.9 38742.3 22235.9 38742.7 22238 38742.5 22239.2 38742.7 22242 38742.7 24930.6 38741.2 24942.4 38740.5 24954.3 38739.2 24958.1 38738.7 24962.2 38734.4 24973.2 38730.7 24984.5 38728.5 24988 38727 24991.7 38720.1 25001.3 38713.7 25011.4 38710.7 25014.2 38708.4 25017.5 38699.2 25025.1 38690.5 25033.2 38687 25035.2 38683.9 25037.7 38673.1 25042.8 38662.7 25048.6 38658.7 25049.6 38655.1 25051.3 38643.4 25053.5 38631.9 25056.5 38625.9 25056.9 38623.9 25057.3 38621.8 25057.1 38615.8 25057.5 38222.4 25057.5 38133.1 25146.8 38133.1 30353.2 38222.4 30442.5 40177.6 30442.5 40266.9 30353.2 40266.9 25146.8 40177.6 25057.5 39784.2 25057.5 39772.4 25056 39760.5 25055.3 39756.7 25054 39752.6 25053.5 39741.6 25049.2 39730.3 25045.5 39726.8 25043.3 39723.1 25041.8 39713.5 25034.9 39703.4 25028.5 39700.6 25025.5 39697.3 25023.2 39689.7 25014 39681.6 25005.3 39679.6 25001.8 39677.1 24998.7 39672 24987.9 39666.2 24977.5 39665.2 24973.5 39663.5 24969.9 39661.3 24958.2 39658.3 24946.7 39657.9 24940.7 39657.5 24938.7 39657.7 24936.6 39657.6 24935.6 39657.5 24935.3 39657.5 24934.9 39657.3 24930.6 39657.3 21810.6 35494.4 17647.8 35488.4 17639.9 35481.6 17632.7 35478.7 17627.4 35475 17622.6 35471 17613.5 35466.2 17604.9 35464.7 17599 35462.3 17593.5 35460.8 17583.7 35458.3 17574.1 35457.7 17564.1 35457.3 17562 35457.5 17560.8 35457.3 17558 35457.3 16851.6 35458.5 16841.8 35458.8 16831.9 35460.5 16826 35461.3 16820 35464.9 16810.8 35467.7 16801.3 35470.7 16796.1 35473 16790.5 35478.8 16782.5 35483.8 16773.9 35490.4 16766.4 35491.6 16764.7 35492.6 16763.9 35494.4 16761.8 35761.8 16494.4 35769.7 16488.4 35776.9 16481.6 35782.2 16478.7 35787 16475 35796.1 16471 35804.7 16466.2 35810.6 16464.7 35816.1 16462.3 35825.9 16460.8 35835.5 16458.3 35845.5 16457.7 35847.6 16457.3 35848.8 16457.5 35851.6 16457.3 38120.6 16457.3 38132.4 16458.8 38144.3 16459.5 38148.1 16460.8 38152.2 16461.3 38163.2 16465.6 38174.5 16469.3 38178 16471.5 38181.7 16473 38191.3 16479.9 38201.4 16486.3 38204.2 16489.3 38207.5 16491.6 38215.1 16500.8 38223.2 16509.5 38225.2 16513 38227.7 16516.1 38232.8 16526.9 38238.6 16537.3 38239.6 16541.3 38241.3 16544.9 38243.5 16556.6 38246.5 16568.1 38246.9 16574.1 38247.3 16576.1 38247.1 16578.2 38247.5 16584.2 38247.5 17063.2 38336.8 17152.5 40063.2 17152.5 40152.5 17063.2 40152.5 14936.8 40063.2 14847.5 38336.8 14847.5 38247.5 14936.8 38247.5 15415.8 38246 15427.6 38245.3 15439.5 38244 15443.3 38243.5 15447.4 38239.2 15458.4 38235.5 15469.7 38233.3 15473.2 38231.8 15476.9 38224.9 15486.5 38218.5 15496.6 38215.5 15499.4 38213.2 15502.7 38204 15510.3 38195.3 15518.4 38191.8 15520.4 38188.7 15522.9 38177.9 15528 38167.5 15533.8 38163.5 15534.8 38159.9 15536.5 38148.2 15538.7 38136.7 15541.7 38130.7 15542.1 38128.7 15542.5 38126.6 15542.3 38120.6 15542.7 31879.4 15542.7 31867.6 15541.2 31855.7 15540.5 31851.9 15539.2 31847.8 15538.7 31836.8 15534.4 31825.5 15530.7 31822 15528.5 31818.3 15527 31808.7 15520.1 31798.6 15513.7 31795.8 15510.7 31792.5 15508.4 31784.9 15499.2 31776.8 15490.5 31774.8 15487 31772.3 15483.9 31767.2 15473.1 31761.4 15462.7 31760.4 15458.7 31758.7 15455.1 31756.5 15443.4 31753.5 15431.9 31753.1 15425.9 31752.7 15423.9 31752.9 15421.8 31752.5 15415.8 31752.5 14936.8 31663.2 14847.5 29936.8 14847.5"/></g></mask><mask id="L-TQzqr0U6FVOnNA-2Qq_clear-3" fill="#000" stroke="#000"><g><rect x="508.1" y="4873.1" width="68983.8" height="44618.8" fill="#fff"/><path d="M 63536.8 14847.5 63536.8 14847.5 63447.5 14936.8 63447.5 17063.2 63536.8 17152.5 63815.8 17152.5 63827.6 17154 63839.5 17154.7 63843.3 17156 63847.4 17156.5 63858.4 17160.8 63869.7 17164.5 63873.2 17166.7 63876.9 17168.2 63886.5 17175.1 63896.6 17181.5 63899.4 17184.5 63902.7 17186.8 63910.3 17196 63918.4 17204.7 63920.4 17208.2 63922.9 17211.3 63928 17222.1 63933.8 17232.5 63934.8 17236.5 63936.5 17240.1 63938.7 17251.8 63941.7 17263.3 63942.1 17269.3 63942.5 17271.3 63942.3 17273.4 63942.7 17279.4 63942.7 36720.6 63941.2 36732.4 63940.5 36744.3 63939.2 36748.1 63938.7 36752.2 63934.4 36763.2 63930.7 36774.5 63928.5 36778 63927 36781.7 63920.1 36791.3 63913.7 36801.4 63910.7 36804.2 63908.4 36807.5 63899.2 36815.1 63890.5 36823.2 63887 36825.2 63883.9 36827.7 63873.1 36832.8 63862.7 36838.6 63858.7 36839.6 63855.1 36841.3 63843.4 36843.5 63831.9 36846.5 63825.9 36846.9 63823.9 36847.3 63821.8 36847.1 63815.8 36847.5 63536.8 36847.5 63447.5 36936.8 63447.5 39063.2 63536.8 39152.5 65263.2 39152.5 65352.5 39063.2 65352.5 36936.8 65263.2 36847.5 64984.2 36847.5 64972.4 36846 64960.5 36845.3 64956.7 36844 64952.6 36843.5 64941.6 36839.2 64930.3 36835.5 64926.8 36833.3 64923.1 36831.8 64913.5 36824.9 64903.4 36818.5 64900.6 36815.5 64897.3 36813.2 64889.7 36804 64881.6 36795.3 64879.6 36791.8 64877.1 36788.7 64872 36777.9 64866.2 36767.5 64865.2 36763.5 64863.5 36759.9 64861.3 36748.2 64858.3 36736.7 64857.9 36730.7 64857.5 36728.7 64857.7 36726.6 64857.3 36720.6 64857.3 17279.4 64858.8 17267.6 64859.5 17255.7 64860.8 17251.9 64861.3 17247.8 64865.6 17236.8 64869.3 17225.5 64871.5 17222 64873 17218.3 64879.9 17208.7 64886.3 17198.6 64889.3 17195.8 64891.6 17192.5 64900.8 17184.9 64909.5 17176.8 64913 17174.8 64916.1 17172.3 64926.9 17167.2 64937.3 17161.4 64941.3 17160.4 64944.9 17158.7 64956.6 17156.5 64968.1 17153.5 64974.1 17153.1 64976.1 17152.7 64978.2 17152.9 64984.2 17152.5 65263.2 17152.5 65352.5 17063.2 65352.5 14936.8 65263.2 14847.5 63536.8 14847.5"/></g></mask><mask id="L-TQzqr0U6FVOnNA-2Qq_clear-4" fill="#000" stroke="#000"><g><rect x="508.1" y="4873.1" width="68983.8" height="44618.8" fill="#fff"/><path d="M 4736.8 14847.5 4736.8 14847.5 4647.5 14936.8 4647.5 17063.2 4736.8 17152.5 5015.8 17152.5 5027.6 17154 5039.5 17154.7 5043.3 17156 5047.4 17156.5 5058.4 17160.8 5069.7 17164.5 5073.2 17166.7 5076.9 17168.2 5086.5 17175.1 5096.6 17181.5 5099.4 17184.5 5102.7 17186.8 5110.3 17196 5118.4 17204.7 5120.4 17208.2 5122.9 17211.3 5128 17222.1 5133.8 17232.5 5134.8 17236.5 5136.5 17240.1 5138.7 17251.8 5141.7 17263.3 5142.1 17269.3 5142.5 17271.3 5142.3 17273.4 5142.7 17279.4 5142.7 36720.6 5141.2 36732.4 5140.5 36744.3 5139.2 36748.1 5138.7 36752.2 5134.4 36763.2 5130.7 36774.5 5128.5 36778 5127 36781.7 5120.1 36791.3 5113.7 36801.4 5110.7 36804.2 5108.4 36807.5 5099.2 36815.1 5090.5 36823.2 5087 36825.2 5083.9 36827.7 5073.1 36832.8 5062.7 36838.6 5058.7 36839.6 5055.1 36841.3 5043.4 36843.5 5031.9 36846.5 5025.9 36846.9 5023.9 36847.3 5021.8 36847.1 5015.8 36847.5 4736.8 36847.5 4647.5 36936.8 4647.5 39063.2 4736.8 39152.5 6463.2 39152.5 6552.5 39063.2 6552.5 36936.8 6463.2 36847.5 6184.2 36847.5 6172.4 36846 6160.5 36845.3 6156.7 36844 6152.6 36843.5 6141.6 36839.2 6130.3 36835.5 6126.8 36833.3 6123.1 36831.8 6113.5 36824.9 6103.4 36818.5 6100.6 36815.5 6097.3 36813.2 6089.7 36804 6081.6 36795.3 6079.6 36791.8 6077.1 36788.7 6072 36777.9 6066.2 36767.5 6065.2 36763.5 6063.5 36759.9 6061.3 36748.2 6058.3 36736.7 6057.9 36730.7 6057.5 36728.7 6057.7 36726.6 6057.3 36720.6 6057.3 17279.4 6058.8 17267.6 6059.5 17255.7 6060.8 17251.9 6061.3 17247.8 6065.6 17236.8 6069.3 17225.5 6071.5 17222 6073 17218.3 6079.9 17208.7 6086.3 17198.6 6089.3 17195.8 6091.6 17192.5 6100.8 17184.9 6109.5 17176.8 6113 17174.8 6116.1 17172.3 6126.9 17167.2 6137.3 17161.4 6141.3 17160.4 6144.9 17158.7 6156.6 17156.5 6168.1 17153.5 6174.1 17153.1 6176.1 17152.7 6178.2 17152.9 6184.2 17152.5 6463.2 17152.5 6552.5 17063.2 6552.5 14936.8 6463.2 14847.5 4736.8 14847.5"/></g></mask><mask id="L-TQzqr0U6FVOnNA-2Qq_clear-5" fill="#000" stroke="#000"><g><rect x="508.1" y="4873.1" width="68983.8" height="44618.8" fill="#fff"/><path d="M 27136.8 14847.5 27136.8 14847.5 27047.5 14936.8 27047.5 17063.2 27136.8 17152.5 27415.8 17152.5 27427.6 17154 27439.5 17154.7 27443.3 17156 27447.4 17156.5 27458.4 17160.8 27469.7 17164.5 27473.2 17166.7 27476.9 17168.2 27486.5 17175.1 27496.6 17181.5 27499.4 17184.5 27502.7 17186.8 27510.3 17196 27518.4 17204.7 27520.4 17208.2 27522.9 17211.3 27528 17222.1 27533.8 17232.5 27534.8 17236.5 27536.5 17240.1 27538.7 17251.8 27541.7 17263.3 27542.1 17269.3 27542.5 17271.3 27542.3 17273.4 27542.7 17279.4 27542.7 18958 27541.5 18967.8 27541.2 18977.7 27539.5 18983.6 27538.7 18989.6 27535.1 18998.8 27532.3 19008.3 27529.3 19013.5 27527 19019.1 27521.2 19027.1 27516.2 19035.7 27509.6 19043.2 27508.4 19044.9 27507.4 19045.7 27505.6 19047.8 24742.7 21810.6 24742.7 25720.6 24741.2 25732.4 24740.5 25744.3 24739.2 25748.1 24738.7 25752.2 24734.4 25763.2 24730.7 25774.5 24728.5 25778 24727 25781.7 24720.1 25791.3 24713.7 25801.4 24710.7 25804.2 24708.4 25807.5 24699.2 25815.1 24690.5 25823.2 24687 25825.2 24683.9 25827.7 24673.1 25832.8 24662.7 25838.6 24658.7 25839.6 24655.1 25841.3 24643.4 25843.5 24631.9 25846.5 24625.9 25846.9 24623.9 25847.3 24621.8 25847.1 24615.8 25847.5 24336.8 25847.5 24247.5 25936.8 24247.5 28063.2 24336.8 28152.5 26063.2 28152.5 26152.5 28063.2 26152.5 25936.8 26063.2 25847.5 25784.2 25847.5 25772.4 25846 25760.5 25845.3 25756.7 25844 25752.6 25843.5 25741.6 25839.2 25730.3 25835.5 25726.8 25833.3 25723.1 25831.8 25713.5 25824.9 25703.4 25818.5 25700.6 25815.5 25697.3 25813.2 25689.7 25804 25681.6 25795.3 25679.6 25791.8 25677.1 25788.7 25672 25777.9 25666.2 25767.5 25665.2 25763.5 25663.5 25759.9 25661.3 25748.2 25658.3 25736.7 25657.9 25730.7 25657.5 25728.7 25657.7 25726.6 25657.3 25720.6 25657.3 22242 25658.5 22232.2 25658.8 22222.3 25660.5 22216.4 25661.3 22210.4 25664.9 22201.2 25667.7 22191.7 25670.7 22186.5 25673 22180.9 25678.8 22172.9 25683.8 22164.3 25690.4 22156.8 25691.6 22155.1 25692.6 22154.3 25694.4 22152.2 28457.3 19389.4 28457.3 17279.4 28458.8 17267.6 28459.5 17255.7 28460.8 17251.9 28461.3 17247.8 28465.6 17236.8 28469.3 17225.5 28471.5 17222 28473 17218.3 28479.9 17208.7 28486.3 17198.6 28489.3 17195.8 28491.6 17192.5 28500.8 17184.9 28509.5 17176.8 28513 17174.8 28516.1 17172.3 28526.9 17167.2 28537.3 17161.4 28541.3 17160.4 28544.9 17158.7 28556.6 17156.5 28568.1 17153.5 28574.1 17153.1 28576.1 17152.7 28578.2 17152.9 28584.2 17152.5 28863.2 17152.5 28952.5 17063.2 28952.5 14936.8 28863.2 14847.5 27136.8 14847.5"/></g></mask><mask id="L-TQzqr0U6FVOnNA-2Qq_clear-6" fill="#000" stroke="#000"><g><rect x="508.1" y="4873.1" width="68983.8" height="44618.8" fill="#fff"/><path d="M 15936.8 14847.5 15936.8 14847.5 15847.5 14936.8 15847.5 17063.2 15936.8 17152.5 16215.8 17152.5 16227.6 17154 16239.5 17154.7 16243.3 17156 16247.4 17156.5 16258.4 17160.8 16269.7 17164.5 16273.2 17166.7 16276.9 17168.2 16286.5 17175.1 16296.6 17181.5 16299.4 17184.5 16302.7 17186.8 16310.3 17196 16318.4 17204.7 16320.4 17208.2 16322.9 17211.3 16328 17222.1 16333.8 17232.5 16334.8 17236.5 16336.5 17240.1 16338.7 17251.8 16341.7 17263.3 16342.1 17269.3 16342.5 17271.3 16342.3 17273.4 16342.7 17279.4 16342.7 18958 16341.5 18967.8 16341.2 18977.7 16339.5 18983.6 16338.7 18989.6 16335.1 18998.8 16332.3 19008.3 16329.3 19013.5 16327 19019.1 16321.2 19027.1 16316.2 19035.7 16309.6 19043.2 16308.4 19044.9 16307.4 19045.7 16305.6 19047.8 13542.7 21810.6 13542.7 25720.6 13541.2 25732.4 13540.5 25744.3 13539.2 25748.1 13538.7 25752.2 13534.4 25763.2 13530.7 25774.5 13528.5 25778 13527 25781.7 13520.1 25791.3 13513.7 25801.4 13510.7 25804.2 13508.4 25807.5 13499.2 25815.1 13490.5 25823.2 13487 25825.2 13483.9 25827.7 13473.1 25832.8 13462.7 25838.6 13458.7 25839.6 13455.1 25841.3 13443.4 25843.5 13431.9 25846.5 13425.9 25846.9 13423.9 25847.3 13421.8 25847.1 13415.8 25847.5 13136.8 25847.5 13047.5 25936.8 13047.5 28063.2 13136.8 28152.5 14863.2 28152.5 14952.5 28063.2 14952.5 25936.8 14863.2 25847.5 14584.2 25847.5 14572.4 25846 14560.5 25845.3 14556.7 25844 14552.6 25843.5 14541.6 25839.2 14530.3 25835.5 14526.8 25833.3 14523.1 25831.8 14513.5 25824.9 14503.4 25818.5 14500.6 25815.5 14497.3 25813.2 14489.7 25804 14481.6 25795.3 14479.6 25791.8 14477.1 25788.7 14472 25777.9 14466.2 25767.5 14465.2 25763.5 14463.5 25759.9 14461.3 25748.2 14458.3 25736.7 14457.9 25730.7 14457.5 25728.7 14457.7 25726.6 14457.3 25720.6 14457.3 22242 14458.5 22232.2 14458.8 22222.3 14460.5 22216.4 14461.3 22210.4 14464.9 22201.2 14467.7 22191.7 14470.7 22186.5 14473 22180.9 14478.8 22172.9 14483.8 22164.3 14490.4 22156.8 14491.6 22155.1 14492.6 22154.3 14494.4 22152.2 17257.3 19389.4 17257.3 17279.4 17258.8 17267.6 17259.5 17255.7 17260.8 17251.9 17261.3 17247.8 17265.6 17236.8 17269.3 17225.5 17271.5 17222 17273 17218.3 17279.9 17208.7 17286.3 17198.6 17289.3 17195.8 17291.6 17192.5 17300.8 17184.9 17309.5 17176.8 17313 17174.8 17316.1 17172.3 17326.9 17167.2 17337.3 17161.4 17341.3 17160.4 17344.9 17158.7 17356.6 17156.5 17368.1 17153.5 17374.1 17153.1 17376.1 17152.7 17378.2 17152.9 17384.2 17152.5 17663.2 17152.5 17752.5 17063.2 17752.5 14936.8 17663.2 14847.5 15936.8 14847.5"/></g></mask><mask id="L-TQzqr0U6FVOnNA-2Qq_clear-7" fill="#000" stroke="#000"><g><rect x="508.1" y="4873.1" width="68983.8" height="44618.8" fill="#fff"/><path d="M 60736.8 14847.5 60736.8 14847.5 60647.5 14936.8 60647.5 17063.2 60736.8 17152.5 61015.8 17152.5 61027.6 17154 61039.5 17154.7 61043.3 17156 61047.4 17156.5 61058.4 17160.8 61069.7 17164.5 61073.2 17166.7 61076.9 17168.2 61086.5 17175.1 61096.6 17181.5 61099.4 17184.5 61102.7 17186.8 61110.3 17196 61118.4 17204.7 61120.4 17208.2 61122.9 17211.3 61128 17222.1 61133.8 17232.5 61134.8 17236.5 61136.5 17240.1 61138.7 17251.8 61141.7 17263.3 61142.1 17269.3 61142.5 17271.3 61142.3 17273.4 61142.7 17279.4 61142.7 18958 61141.5 18967.8 61141.2 18977.7 61139.5 18983.6 61138.7 18989.6 61135.1 18998.8 61132.3 19008.3 61129.3 19013.5 61127 19019.1 61121.2 19027.1 61116.2 19035.7 61109.6 19043.2 61108.4 19044.9 61107.4 19045.7 61105.6 19047.8 58342.7 21810.6 58342.7 25720.6 58341.2 25732.4 58340.5 25744.3 58339.2 25748.1 58338.7 25752.2 58334.4 25763.2 58330.7 25774.5 58328.5 25778 58327 25781.7 58320.1 25791.3 58313.7 25801.4 58310.7 25804.2 58308.4 25807.5 58299.2 25815.1 58290.5 25823.2 58287 25825.2 58283.9 25827.7 58273.1 25832.8 58262.7 25838.6 58258.7 25839.6 58255.1 25841.3 58243.4 25843.5 58231.9 25846.5 58225.9 25846.9 58223.9 25847.3 58221.8 25847.1 58215.8 25847.5 57936.8 25847.5 57847.5 25936.8 57847.5 28063.2 57936.8 28152.5 59663.2 28152.5 59752.5 28063.2 59752.5 25936.8 59663.2 25847.5 59384.2 25847.5 59372.4 25846 59360.5 25845.3 59356.7 25844 59352.6 25843.5 59341.6 25839.2 59330.3 25835.5 59326.8 25833.3 59323.1 25831.8 59313.5 25824.9 59303.4 25818.5 59300.6 25815.5 59297.3 25813.2 59289.7 25804 59281.6 25795.3 59279.6 25791.8 59277.1 25788.7 59272 25777.9 59266.2 25767.5 59265.2 25763.5 59263.5 25759.9 59261.3 25748.2 59258.3 25736.7 59257.9 25730.7 59257.5 25728.7 59257.7 25726.6 59257.3 25720.6 59257.3 22242 59258.5 22232.2 59258.8 22222.3 59260.5 22216.4 59261.3 22210.4 59264.9 22201.2 59267.7 22191.7 59270.7 22186.5 59273 22180.9 59278.8 22172.9 59283.8 22164.3 59290.4 22156.8 59291.6 22155.1 59292.6 22154.3 59294.4 22152.2 62057.3 19389.4 62057.3 17279.4 62058.8 17267.6 62059.5 17255.7 62060.8 17251.9 62061.3 17247.8 62065.6 17236.8 62069.3 17225.5 62071.5 17222 62073 17218.3 62079.9 17208.7 62086.3 17198.6 62089.3 17195.8 62091.6 17192.5 62100.8 17184.9 62109.5 17176.8 62113 17174.8 62116.1 17172.3 62126.9 17167.2 62137.3 17161.4 62141.3 17160.4 62144.9 17158.7 62156.6 17156.5 62168.1 17153.5 62174.1 17153.1 62176.1 17152.7 62178.2 17152.9 62184.2 17152.5 62463.2 17152.5 62552.5 17063.2 62552.5 14936.8 62463.2 14847.5 60736.8 14847.5"/></g></mask><mask id="L-TQzqr0U6FVOnNA-2Qq_clear-8" fill="#000" stroke="#000"><g><rect x="508.1" y="4873.1" width="68983.8" height="44618.8" fill="#fff"/><path d="M 49536.8 14847.5 49536.8 14847.5 49447.5 14936.8 49447.5 17063.2 49536.8 17152.5 49815.8 17152.5 49827.6 17154 49839.5 17154.7 49843.3 17156 49847.4 17156.5 49858.4 17160.8 49869.7 17164.5 49873.2 17166.7 49876.9 17168.2 49886.5 17175.1 49896.6 17181.5 49899.4 17184.5 49902.7 17186.8 49910.3 17196 49918.4 17204.7 49920.4 17208.2 49922.9 17211.3 49928 17222.1 49933.8 17232.5 49934.8 17236.5 49936.5 17240.1 49938.7 17251.8 49941.7 17263.3 49942.1 17269.3 49942.5 17271.3 49942.3 17273.4 49942.7 17279.4 49942.7 18958 49941.5 18967.8 49941.2 18977.7 49939.5 18983.6 49938.7 18989.6 49935.1 18998.8 49932.3 19008.3 49929.3 19013.5 49927 19019.1 49921.2 19027.1 49916.2 19035.7 49909.6 19043.2 49908.4 19044.9 49907.4 19045.7 49905.6 19047.8 47142.7 21810.6 47142.7 25720.6 47141.2 25732.4 47140.5 25744.3 47139.2 25748.1 47138.7 25752.2 47134.4 25763.2 47130.7 25774.5 47128.5 25778 47127 25781.7 47120.1 25791.3 47113.7 25801.4 47110.7 25804.2 47108.4 25807.5 47099.2 25815.1 47090.5 25823.2 47087 25825.2 47083.9 25827.7 47073.1 25832.8 47062.7 25838.6 47058.7 25839.6 47055.1 25841.3 47043.4 25843.5 47031.9 25846.5 47025.9 25846.9 47023.9 25847.3 47021.8 25847.1 47015.8 25847.5 46736.8 25847.5 46647.5 25936.8 46647.5 28063.2 46736.8 28152.5 48463.2 28152.5 48552.5 28063.2 48552.5 25936.8 48463.2 25847.5 48184.2 25847.5 48172.4 25846 48160.5 25845.3 48156.7 25844 48152.6 25843.5 48141.6 25839.2 48130.3 25835.5 48126.8 25833.3 48123.1 25831.8 48113.5 25824.9 48103.4 25818.5 48100.6 25815.5 48097.3 25813.2 48089.7 25804 48081.6 25795.3 48079.6 25791.8 48077.1 25788.7 48072 25777.9 48066.2 25767.5 48065.2 25763.5 48063.5 25759.9 48061.3 25748.2 48058.3 25736.7 48057.9 25730.7 48057.5 25728.7 48057.7 25726.6 48057.3 25720.6 48057.3 22242 48058.5 22232.2 48058.8 22222.3 48060.5 22216.4 48061.3 22210.4 48064.9 22201.2 48067.7 22191.7 48070.7 22186.5 48073 22180.9 48078.8 22172.9 48083.8 22164.3 48090.4 22156.8 48091.6 22155.1 48092.6 22154.3 48094.4 22152.2 50857.3 19389.4 50857.3 17279.4 50858.8 17267.6 50859.5 17255.7 50860.8 17251.9 50861.3 17247.8 50865.6 17236.8 50869.3 17225.5 50871.5 17222 50873 17218.3 50879.9 17208.7 50886.3 17198.6 50889.3 17195.8 50891.6 17192.5 50900.8 17184.9 50909.5 17176.8 50913 17174.8 50916.1 17172.3 50926.9 17167.2 50937.3 17161.4 50941.3 17160.4 50944.9 17158.7 50956.6 17156.5 50968.1 17153.5 50974.1 17153.1 50976.1 17152.7 50978.2 17152.9 50984.2 17152.5 51263.2 17152.5 51352.5 17063.2 51352.5 14936.8 51263.2 14847.5 49536.8 14847.5"/></g></mask><mask id="L-TQzqr0U6FVOnNA-2Qq_clear-9" fill="#000" stroke="#000"><g><rect x="508.1" y="4873.1" width="68983.8" height="44618.8" fill="#fff"/><path d="M 18736.8 14847.5 18736.8 14847.5 18647.5 14936.8 18647.5 17063.2 18736.8 17152.5 19015.8 17152.5 19027.6 17154 19039.5 17154.7 19043.3 17156 19047.4 17156.5 19058.4 17160.8 19069.7 17164.5 19073.2 17166.7 19076.9 17168.2 19086.5 17175.1 19096.6 17181.5 19099.4 17184.5 19102.7 17186.8 19110.3 17196 19118.4 17204.7 19120.4 17208.2 19122.9 17211.3 19128 17222.1 19133.8 17232.5 19134.8 17236.5 19136.5 17240.1 19138.7 17251.8 19141.7 17263.3 19142.1 17269.3 19142.5 17271.3 19142.3 17273.4 19142.7 17279.4 19142.7 19389.4 21905.6 22152.2 21911.6 22160.1 21918.4 22167.3 21921.3 22172.6 21925 22177.4 21929 22186.5 21933.8 22195.1 21935.3 22201 21937.7 22206.5 21939.2 22216.3 21941.7 22225.9 21942.3 22235.9 21942.7 22238 21942.5 22239.2 21942.7 22242 21942.7 25720.6 21941.2 25732.4 21940.5 25744.3 21939.2 25748.1 21938.7 25752.2 21934.4 25763.2 21930.7 25774.5 21928.5 25778 21927 25781.7 21920.1 25791.3 21913.7 25801.4 21910.7 25804.2 21908.4 25807.5 21899.2 25815.1 21890.5 25823.2 21887 25825.2 21883.9 25827.7 21873.1 25832.8 21862.7 25838.6 21858.7 25839.6 21855.1 25841.3 21843.4 25843.5 21831.9 25846.5 21825.9 25846.9 21823.9 25847.3 21821.8 25847.1 21815.8 25847.5 21536.8 25847.5 21447.5 25936.8 21447.5 28063.2 21536.8 28152.5 23263.2 28152.5 23352.5 28063.2 23352.5 25936.8 23263.2 25847.5 22984.2 25847.5 22972.4 25846 22960.5 25845.3 22956.7 25844 22952.6 25843.5 22941.6 25839.2 22930.3 25835.5 22926.8 25833.3 22923.1 25831.8 22913.5 25824.9 22903.4 25818.5 22900.6 25815.5 22897.3 25813.2 22889.7 25804 22881.6 25795.3 22879.6 25791.8 22877.1 25788.7 22872 25777.9 22866.2 25767.5 22865.2 25763.5 22863.5 25759.9 22861.3 25748.2 22858.3 25736.7 22857.9 25730.7 22857.5 25728.7 22857.7 25726.6 22857.3 25720.6 22857.3 21810.6 20094.4 19047.8 20088.4 19039.9 20081.6 19032.7 20078.7 19027.4 20075 19022.6 20071 19013.5 20066.2 19004.9 20064.7 18999 20062.3 18993.5 20060.8 18983.7 20058.3 18974.1 20057.7 18964.1 20057.3 18962 20057.5 18960.8 20057.3 18958 20057.3 17279.4 20058.8 17267.6 20059.5 17255.7 20060.8 17251.9 20061.3 17247.8 20065.6 17236.8 20069.3 17225.5 20071.5 17222 20073 17218.3 20079.9 17208.7 20086.3 17198.6 20089.3 17195.8 20091.6 17192.5 20100.8 17184.9 20109.5 17176.8 20113 17174.8 20116.1 17172.3 20126.9 17167.2 20137.3 17161.4 20141.3 17160.4 20144.9 17158.7 20156.6 17156.5 20168.1 17153.5 20174.1 17153.1 20176.1 17152.7 20178.2 17152.9 20184.2 17152.5 20463.2 17152.5 20552.5 17063.2 20552.5 14936.8 20463.2 14847.5 18736.8 14847.5"/></g></mask><mask id="L-TQzqr0U6FVOnNA-2Qq_clear-10" fill="#000" stroke="#000"><g><rect x="508.1" y="4873.1" width="68983.8" height="44618.8" fill="#fff"/><path d="M 41136.8 14847.5 41136.8 14847.5 41047.5 14936.8 41047.5 17063.2 41136.8 17152.5 41415.8 17152.5 41427.6 17154 41439.5 17154.7 41443.3 17156 41447.4 17156.5 41458.4 17160.8 41469.7 17164.5 41473.2 17166.7 41476.9 17168.2 41486.5 17175.1 41496.6 17181.5 41499.4 17184.5 41502.7 17186.8 41510.3 17196 41518.4 17204.7 41520.4 17208.2 41522.9 17211.3 41528 17222.1 41533.8 17232.5 41534.8 17236.5 41536.5 17240.1 41538.7 17251.8 41541.7 17263.3 41542.1 17269.3 41542.5 17271.3 41542.3 17273.4 41542.7 17279.4 41542.7 19389.4 44305.6 22152.2 44311.6 22160.1 44318.4 22167.3 44321.3 22172.6 44325 22177.4 44329 22186.5 44333.8 22195.1 44335.3 22201 44337.7 22206.5 44339.2 22216.3 44341.7 22225.9 44342.3 22235.9 44342.7 22238 44342.5 22239.2 44342.7 22242 44342.7 25720.6 44341.2 25732.4 44340.5 25744.3 44339.2 25748.1 44338.7 25752.2 44334.4 25763.2 44330.7 25774.5 44328.5 25778 44327 25781.7 44320.1 25791.3 44313.7 25801.4 44310.7 25804.2 44308.4 25807.5 44299.2 25815.1 44290.5 25823.2 44287 25825.2 44283.9 25827.7 44273.1 25832.8 44262.7 25838.6 44258.7 25839.6 44255.1 25841.3 44243.4 25843.5 44231.9 25846.5 44225.9 25846.9 44223.9 25847.3 44221.8 25847.1 44215.8 25847.5 43936.8 25847.5 43847.5 25936.8 43847.5 28063.2 43936.8 28152.5 45663.2 28152.5 45752.5 28063.2 45752.5 25936.8 45663.2 25847.5 45384.2 25847.5 45372.4 25846 45360.5 25845.3 45356.7 25844 45352.6 25843.5 45341.6 25839.2 45330.3 25835.5 45326.8 25833.3 45323.1 25831.8 45313.5 25824.9 45303.4 25818.5 45300.6 25815.5 45297.3 25813.2 45289.7 25804 45281.6 25795.3 45279.6 25791.8 45277.1 25788.7 45272 25777.9 45266.2 25767.5 45265.2 25763.5 45263.5 25759.9 45261.3 25748.2 45258.3 25736.7 45257.9 25730.7 45257.5 25728.7 45257.7 25726.6 45257.3 25720.6 45257.3 21810.6 42494.4 19047.8 42488.4 19039.9 42481.6 19032.7 42478.7 19027.4 42475 19022.6 42471 19013.5 42466.2 19004.9 42464.7 18999 42462.3 18993.5 42460.8 18983.7 42458.3 18974.1 42457.7 18964.1 42457.3 18962 42457.5 18960.8 42457.3 18958 42457.3 17279.4 42458.8 17267.6 42459.5 17255.7 42460.8 17251.9 42461.3 17247.8 42465.6 17236.8 42469.3 17225.5 42471.5 17222 42473 17218.3 42479.9 17208.7 42486.3 17198.6 42489.3 17195.8 42491.6 17192.5 42500.8 17184.9 42509.5 17176.8 42513 17174.8 42516.1 17172.3 42526.9 17167.2 42537.3 17161.4 42541.3 17160.4 42544.9 17158.7 42556.6 17156.5 42568.1 17153.5 42574.1 17153.1 42576.1 17152.7 42578.2 17152.9 42584.2 17152.5 42863.2 17152.5 42952.5 17063.2 42952.5 14936.8 42863.2 14847.5 41136.8 14847.5"/></g></mask><mask id="L-TQzqr0U6FVOnNA-2Qq_clear-11" fill="#000" stroke="#000"><g><rect x="508.1" y="4873.1" width="68983.8" height="44618.8" fill="#fff"/><path d="M 52336.8 14847.5 52336.8 14847.5 52247.5 14936.8 52247.5 17063.2 52336.8 17152.5 52615.8 17152.5 52627.6 17154 52639.5 17154.7 52643.3 17156 52647.4 17156.5 52658.4 17160.8 52669.7 17164.5 52673.2 17166.7 52676.9 17168.2 52686.5 17175.1 52696.6 17181.5 52699.4 17184.5 52702.7 17186.8 52710.3 17196 52718.4 17204.7 52720.4 17208.2 52722.9 17211.3 52728 17222.1 52733.8 17232.5 52734.8 17236.5 52736.5 17240.1 52738.7 17251.8 52741.7 17263.3 52742.1 17269.3 52742.5 17271.3 52742.3 17273.4 52742.7 17279.4 52742.7 19389.4 55505.6 22152.2 55511.6 22160.1 55518.4 22167.3 55521.3 22172.6 55525 22177.4 55529 22186.5 55533.8 22195.1 55535.3 22201 55537.7 22206.5 55539.2 22216.3 55541.7 22225.9 55542.3 22235.9 55542.7 22238 55542.5 22239.2 55542.7 22242 55542.7 25720.6 55541.2 25732.4 55540.5 25744.3 55539.2 25748.1 55538.7 25752.2 55534.4 25763.2 55530.7 25774.5 55528.5 25778 55527 25781.7 55520.1 25791.3 55513.7 25801.4 55510.7 25804.2 55508.4 25807.5 55499.2 25815.1 55490.5 25823.2 55487 25825.2 55483.9 25827.7 55473.1 25832.8 55462.7 25838.6 55458.7 25839.6 55455.1 25841.3 55443.4 25843.5 55431.9 25846.5 55425.9 25846.9 55423.9 25847.3 55421.8 25847.1 55415.8 25847.5 55136.8 25847.5 55047.5 25936.8 55047.5 28063.2 55136.8 28152.5 56863.2 28152.5 56952.5 28063.2 56952.5 25936.8 56863.2 25847.5 56584.2 25847.5 56572.4 25846 56560.5 25845.3 56556.7 25844 56552.6 25843.5 56541.6 25839.2 56530.3 25835.5 56526.8 25833.3 56523.1 25831.8 56513.5 25824.9 56503.4 25818.5 56500.6 25815.5 56497.3 25813.2 56489.7 25804 56481.6 25795.3 56479.6 25791.8 56477.1 25788.7 56472 25777.9 56466.2 25767.5 56465.2 25763.5 56463.5 25759.9 56461.3 25748.2 56458.3 25736.7 56457.9 25730.7 56457.5 25728.7 56457.7 25726.6 56457.3 25720.6 56457.3 21810.6 53694.4 19047.8 53688.4 19039.9 53681.6 19032.7 53678.7 19027.4 53675 19022.6 53671 19013.5 53666.2 19004.9 53664.7 18999 53662.3 18993.5 53660.8 18983.7 53658.3 18974.1 53657.7 18964.1 53657.3 18962 53657.5 18960.8 53657.3 18958 53657.3 17279.4 53658.8 17267.6 53659.5 17255.7 53660.8 17251.9 53661.3 17247.8 53665.6 17236.8 53669.3 17225.5 53671.5 17222 53673 17218.3 53679.9 17208.7 53686.3 17198.6 53689.3 17195.8 53691.6 17192.5 53700.8 17184.9 53709.5 17176.8 53713 17174.8 53716.1 17172.3 53726.9 17167.2 53737.3 17161.4 53741.3 17160.4 53744.9 17158.7 53756.6 17156.5 53768.1 17153.5 53774.1 17153.1 53776.1 17152.7 53778.2 17152.9 53784.2 17152.5 54063.2 17152.5 54152.5 17063.2 54152.5 14936.8 54063.2 14847.5 52336.8 14847.5"/></g></mask><mask id="L-TQzqr0U6FVOnNA-2Qq_clear-12" fill="#000" stroke="#000"><g><rect x="508.1" y="4873.1" width="68983.8" height="44618.8" fill="#fff"/><path d="M 7536.8 14847.5 7536.8 14847.5 7447.5 14936.8 7447.5 17063.2 7536.8 17152.5 7815.8 17152.5 7827.6 17154 7839.5 17154.7 7843.3 17156 7847.4 17156.5 7858.4 17160.8 7869.7 17164.5 7873.2 17166.7 7876.9 17168.2 7886.5 17175.1 7896.6 17181.5 7899.4 17184.5 7902.7 17186.8 7910.3 17196 7918.4 17204.7 7920.4 17208.2 7922.9 17211.3 7928 17222.1 7933.8 17232.5 7934.8 17236.5 7936.5 17240.1 7938.7 17251.8 7941.7 17263.3 7942.1 17269.3 7942.5 17271.3 7942.3 17273.4 7942.7 17279.4 7942.7 19389.4 10705.6 22152.2 10711.6 22160.1 10718.4 22167.3 10721.3 22172.6 10725 22177.4 10729 22186.5 10733.8 22195.1 10735.3 22201 10737.7 22206.5 10739.2 22216.3 10741.7 22225.9 10742.3 22235.9 10742.7 22238 10742.5 22239.2 10742.7 22242 10742.7 25720.6 10741.2 25732.4 10740.5 25744.3 10739.2 25748.1 10738.7 25752.2 10734.4 25763.2 10730.7 25774.5 10728.5 25778 10727 25781.7 10720.1 25791.3 10713.7 25801.4 10710.7 25804.2 10708.4 25807.5 10699.2 25815.1 10690.5 25823.2 10687 25825.2 10683.9 25827.7 10673.1 25832.8 10662.7 25838.6 10658.7 25839.6 10655.1 25841.3 10643.4 25843.5 10631.9 25846.5 10625.9 25846.9 10623.9 25847.3 10621.8 25847.1 10615.8 25847.5 10336.8 25847.5 10247.5 25936.8 10247.5 28063.2 10336.8 28152.5 12063.2 28152.5 12152.5 28063.2 12152.5 25936.8 12063.2 25847.5 11784.2 25847.5 11772.4 25846 11760.5 25845.3 11756.7 25844 11752.6 25843.5 11741.6 25839.2 11730.3 25835.5 11726.8 25833.3 11723.1 25831.8 11713.5 25824.9 11703.4 25818.5 11700.6 25815.5 11697.3 25813.2 11689.7 25804 11681.6 25795.3 11679.6 25791.8 11677.1 25788.7 11672 25777.9 11666.2 25767.5 11665.2 25763.5 11663.5 25759.9 11661.3 25748.2 11658.3 25736.7 11657.9 25730.7 11657.5 25728.7 11657.7 25726.6 11657.3 25720.6 11657.3 21810.6 8894.4 19047.8 8888.4 19039.9 8881.6 19032.7 8878.7 19027.4 8875 19022.6 8871 19013.5 8866.2 19004.9 8864.7 18999 8862.3 18993.5 8860.8 18983.7 8858.3 18974.1 8857.7 18964.1 8857.3 18962 8857.5 18960.8 8857.3 18958 8857.3 17279.4 8858.8 17267.6 8859.5 17255.7 8860.8 17251.9 8861.3 17247.8 8865.6 17236.8 8869.3 17225.5 8871.5 17222 8873 17218.3 8879.9 17208.7 8886.3 17198.6 8889.3 17195.8 8891.6 17192.5 8900.8 17184.9 8909.5 17176.8 8913 17174.8 8916.1 17172.3 8926.9 17167.2 8937.3 17161.4 8941.3 17160.4 8944.9 17158.7 8956.6 17156.5 8968.1 17153.5 8974.1 17153.1 8976.1 17152.7 8978.2 17152.9 8984.2 17152.5 9263.2 17152.5 9352.5 17063.2 9352.5 14936.8 9263.2 14847.5 7536.8 14847.5"/></g></mask><mask id="L-TQzqr0U6FVOnNA-2Qq_clear-13" fill="#000" stroke="#000"><g><rect x="508.1" y="4873.1" width="68983.8" height="44618.8" fill="#fff"/><path d="M 52336.8 36847.5 52336.8 36847.5 52247.5 36936.8 52247.5 39063.2 52336.8 39152.5 54063.2 39152.5 54152.5 39063.2 54152.5 38584.2 54154 38572.4 54154.7 38560.5 54156 38556.7 54156.5 38552.6 54160.8 38541.6 54164.5 38530.3 54166.7 38526.8 54168.2 38523.1 54175.1 38513.5 54181.5 38503.4 54184.5 38500.6 54186.8 38497.3 54196 38489.7 54204.7 38481.6 54208.2 38479.6 54211.3 38477.1 54222.1 38472 54232.5 38466.2 54236.5 38465.2 54240.1 38463.5 54251.8 38461.3 54263.3 38458.3 54269.3 38457.9 54271.3 38457.5 54273.4 38457.7 54279.4 38457.3 60520.6 38457.3 60532.4 38458.8 60544.3 38459.5 60548.1 38460.8 60552.2 38461.3 60563.2 38465.6 60574.5 38469.3 60578 38471.5 60581.7 38473 60591.3 38479.9 60601.4 38486.3 60604.2 38489.3 60607.5 38491.6 60615.1 38500.8 60623.2 38509.5 60625.2 38513 60627.7 38516.1 60632.8 38526.9 60638.6 38537.3 60639.6 38541.3 60641.3 38544.9 60643.5 38556.6 60646.5 38568.1 60646.9 38574.1 60647.3 38576.1 60647.1 38578.2 60647.5 38584.2 60647.5 39063.2 60736.8 39152.5 62463.2 39152.5 62552.5 39063.2 62552.5 36936.8 62463.2 36847.5 60736.8 36847.5 60647.5 36936.8 60647.5 37415.8 60646 37427.6 60645.3 37439.5 60644 37443.3 60643.5 37447.4 60639.2 37458.4 60635.5 37469.7 60633.3 37473.2 60631.8 37476.9 60624.9 37486.5 60618.5 37496.6 60615.5 37499.4 60613.2 37502.7 60604 37510.3 60595.3 37518.4 60591.8 37520.4 60588.7 37522.9 60577.9 37528 60567.5 37533.8 60563.5 37534.8 60559.9 37536.5 60548.2 37538.7 60536.7 37541.7 60530.7 37542.1 60528.7 37542.5 60526.6 37542.3 60520.6 37542.7 54279.4 37542.7 54267.6 37541.2 54255.7 37540.5 54251.9 37539.2 54247.8 37538.7 54236.8 37534.4 54225.5 37530.7 54222 37528.5 54218.3 37527 54208.7 37520.1 54198.6 37513.7 54195.8 37510.7 54192.5 37508.4 54184.9 37499.2 54176.8 37490.5 54174.8 37487 54172.3 37483.9 54167.2 37473.1 54161.4 37462.7 54160.4 37458.7 54158.7 37455.1 54156.5 37443.4 54153.5 37431.9 54153.1 37425.9 54152.7 37423.9 54152.9 37421.8 54152.5 37415.8 54152.5 36936.8 54063.2 36847.5 52336.8 36847.5"/></g></mask><mask id="L-TQzqr0U6FVOnNA-2Qq_clear-14" fill="#000" stroke="#000"><g><rect x="508.1" y="4873.1" width="68983.8" height="44618.8" fill="#fff"/><path d="M 18736.8 36847.5 18736.8 36847.5 18647.5 36936.8 18647.5 39063.2 18736.8 39152.5 20463.2 39152.5 20552.5 39063.2 20552.5 38584.2 20554 38572.4 20554.7 38560.5 20556 38556.7 20556.5 38552.6 20560.8 38541.6 20564.5 38530.3 20566.7 38526.8 20568.2 38523.1 20575.1 38513.5 20581.5 38503.4 20584.5 38500.6 20586.8 38497.3 20596 38489.7 20604.7 38481.6 20608.2 38479.6 20611.3 38477.1 20622.1 38472 20632.5 38466.2 20636.5 38465.2 20640.1 38463.5 20651.8 38461.3 20663.3 38458.3 20669.3 38457.9 20671.3 38457.5 20673.4 38457.7 20679.4 38457.3 26920.6 38457.3 26932.4 38458.8 26944.3 38459.5 26948.1 38460.8 26952.2 38461.3 26963.2 38465.6 26974.5 38469.3 26978 38471.5 26981.7 38473 26991.3 38479.9 27001.4 38486.3 27004.2 38489.3 27007.5 38491.6 27015.1 38500.8 27023.2 38509.5 27025.2 38513 27027.7 38516.1 27032.8 38526.9 27038.6 38537.3 27039.6 38541.3 27041.3 38544.9 27043.5 38556.6 27046.5 38568.1 27046.9 38574.1 27047.3 38576.1 27047.1 38578.2 27047.5 38584.2 27047.5 39063.2 27136.8 39152.5 28863.2 39152.5 28952.5 39063.2 28952.5 36936.8 28863.2 36847.5 27136.8 36847.5 27047.5 36936.8 27047.5 37415.8 27046 37427.6 27045.3 37439.5 27044 37443.3 27043.5 37447.4 27039.2 37458.4 27035.5 37469.7 27033.3 37473.2 27031.8 37476.9 27024.9 37486.5 27018.5 37496.6 27015.5 37499.4 27013.2 37502.7 27004 37510.3 26995.3 37518.4 26991.8 37520.4 26988.7 37522.9 26977.9 37528 26967.5 37533.8 26963.5 37534.8 26959.9 37536.5 26948.2 37538.7 26936.7 37541.7 26930.7 37542.1 26928.7 37542.5 26926.6 37542.3 26920.6 37542.7 20679.4 37542.7 20667.6 37541.2 20655.7 37540.5 20651.9 37539.2 20647.8 37538.7 20636.8 37534.4 20625.5 37530.7 20622 37528.5 20618.3 37527 20608.7 37520.1 20598.6 37513.7 20595.8 37510.7 20592.5 37508.4 20584.9 37499.2 20576.8 37490.5 20574.8 37487 20572.3 37483.9 20567.2 37473.1 20561.4 37462.7 20560.4 37458.7 20558.7 37455.1 20556.5 37443.4 20553.5 37431.9 20553.1 37425.9 20552.7 37423.9 20552.9 37421.8 20552.5 37415.8 20552.5 36936.8 20463.2 36847.5 18736.8 36847.5"/></g></mask><mask id="L-TQzqr0U6FVOnNA-2Qq_clear-15" fill="#000" stroke="#000"><g><rect x="508.1" y="4873.1" width="68983.8" height="44618.8" fill="#fff"/><path d="M 41136.8 36847.5 41136.8 36847.5 41047.5 36936.8 41047.5 39063.2 41136.8 39152.5 42863.2 39152.5 42952.5 39063.2 42952.5 38584.2 42954 38572.4 42954.7 38560.5 42956 38556.7 42956.5 38552.6 42960.8 38541.6 42964.5 38530.3 42966.7 38526.8 42968.2 38523.1 42975.1 38513.5 42981.5 38503.4 42984.5 38500.6 42986.8 38497.3 42996 38489.7 43004.7 38481.6 43008.2 38479.6 43011.3 38477.1 43022.1 38472 43032.5 38466.2 43036.5 38465.2 43040.1 38463.5 43051.8 38461.3 43063.3 38458.3 43069.3 38457.9 43071.3 38457.5 43073.4 38457.7 43079.4 38457.3 49320.6 38457.3 49332.4 38458.8 49344.3 38459.5 49348.1 38460.8 49352.2 38461.3 49363.2 38465.6 49374.5 38469.3 49378 38471.5 49381.7 38473 49391.3 38479.9 49401.4 38486.3 49404.2 38489.3 49407.5 38491.6 49415.1 38500.8 49423.2 38509.5 49425.2 38513 49427.7 38516.1 49432.8 38526.9 49438.6 38537.3 49439.6 38541.3 49441.3 38544.9 49443.5 38556.6 49446.5 38568.1 49446.9 38574.1 49447.3 38576.1 49447.1 38578.2 49447.5 38584.2 49447.5 39063.2 49536.8 39152.5 51263.2 39152.5 51352.5 39063.2 51352.5 36936.8 51263.2 36847.5 49536.8 36847.5 49447.5 36936.8 49447.5 37415.8 49446 37427.6 49445.3 37439.5 49444 37443.3 49443.5 37447.4 49439.2 37458.4 49435.5 37469.7 49433.3 37473.2 49431.8 37476.9 49424.9 37486.5 49418.5 37496.6 49415.5 37499.4 49413.2 37502.7 49404 37510.3 49395.3 37518.4 49391.8 37520.4 49388.7 37522.9 49377.9 37528 49367.5 37533.8 49363.5 37534.8 49359.9 37536.5 49348.2 37538.7 49336.7 37541.7 49330.7 37542.1 49328.7 37542.5 49326.6 37542.3 49320.6 37542.7 43079.4 37542.7 43067.6 37541.2 43055.7 37540.5 43051.9 37539.2 43047.8 37538.7 43036.8 37534.4 43025.5 37530.7 43022 37528.5 43018.3 37527 43008.7 37520.1 42998.6 37513.7 42995.8 37510.7 42992.5 37508.4 42984.9 37499.2 42976.8 37490.5 42974.8 37487 42972.3 37483.9 42967.2 37473.1 42961.4 37462.7 42960.4 37458.7 42958.7 37455.1 42956.5 37443.4 42953.5 37431.9 42953.1 37425.9 42952.7 37423.9 42952.9 37421.8 42952.5 37415.8 42952.5 36936.8 42863.2 36847.5 41136.8 36847.5"/></g></mask><mask id="L-TQzqr0U6FVOnNA-2Qq_clear-16" fill="#000" stroke="#000"><g><rect x="508.1" y="4873.1" width="68983.8" height="44618.8" fill="#fff"/><path d="M 7536.8 36847.5 7536.8 36847.5 7447.5 36936.8 7447.5 39063.2 7536.8 39152.5 9263.2 39152.5 9352.5 39063.2 9352.5 38584.2 9354 38572.4 9354.7 38560.5 9356 38556.7 9356.5 38552.6 9360.8 38541.6 9364.5 38530.3 9366.7 38526.8 9368.2 38523.1 9375.1 38513.5 9381.5 38503.4 9384.5 38500.6 9386.8 38497.3 9396 38489.7 9404.7 38481.6 9408.2 38479.6 9411.3 38477.1 9422.1 38472 9432.5 38466.2 9436.5 38465.2 9440.1 38463.5 9451.8 38461.3 9463.3 38458.3 9469.3 38457.9 9471.3 38457.5 9473.4 38457.7 9479.4 38457.3 15720.6 38457.3 15732.4 38458.8 15744.3 38459.5 15748.1 38460.8 15752.2 38461.3 15763.2 38465.6 15774.5 38469.3 15778 38471.5 15781.7 38473 15791.3 38479.9 15801.4 38486.3 15804.2 38489.3 15807.5 38491.6 15815.1 38500.8 15823.2 38509.5 15825.2 38513 15827.7 38516.1 15832.8 38526.9 15838.6 38537.3 15839.6 38541.3 15841.3 38544.9 15843.5 38556.6 15846.5 38568.1 15846.9 38574.1 15847.3 38576.1 15847.1 38578.2 15847.5 38584.2 15847.5 39063.2 15936.8 39152.5 17663.2 39152.5 17752.5 39063.2 17752.5 36936.8 17663.2 36847.5 15936.8 36847.5 15847.5 36936.8 15847.5 37415.8 15846 37427.6 15845.3 37439.5 15844 37443.3 15843.5 37447.4 15839.2 37458.4 15835.5 37469.7 15833.3 37473.2 15831.8 37476.9 15824.9 37486.5 15818.5 37496.6 15815.5 37499.4 15813.2 37502.7 15804 37510.3 15795.3 37518.4 15791.8 37520.4 15788.7 37522.9 15777.9 37528 15767.5 37533.8 15763.5 37534.8 15759.9 37536.5 15748.2 37538.7 15736.7 37541.7 15730.7 37542.1 15728.7 37542.5 15726.6 37542.3 15720.6 37542.7 9479.4 37542.7 9467.6 37541.2 9455.7 37540.5 9451.9 37539.2 9447.8 37538.7 9436.8 37534.4 9425.5 37530.7 9422 37528.5 9418.3 37527 9408.7 37520.1 9398.6 37513.7 9395.8 37510.7 9392.5 37508.4 9384.9 37499.2 9376.8 37490.5 9374.8 37487 9372.3 37483.9 9367.2 37473.1 9361.4 37462.7 9360.4 37458.7 9358.7 37455.1 9356.5 37443.4 9353.5 37431.9 9353.1 37425.9 9352.7 37423.9 9352.9 37421.8 9352.5 37415.8 9352.5 36936.8 9263.2 36847.5 7536.8 36847.5"/></g></mask><mask id="L-TQzqr0U6FVOnNA-2Qq_clear-17" fill="#000" stroke="#000"><g><rect x="508.1" y="4873.1" width="68983.8" height="44618.8" fill="#fff"/><path d="M 35253.9 28003.9 35253.9 28003.9 35253.9 30544.1 35947.8 30544.1 36012.5 30526.8 36070.4 30493.3 36117.7 30446 36151.2 30388.1 36168.5 30323.4 36168.5 28003.9 35253.9 28003.9"/></g></mask><mask id="L-TQzqr0U6FVOnNA-2Qq_clear-18" fill="#000" stroke="#000"><g><rect x="508.1" y="4873.1" width="68983.8" height="44618.8" fill="#fff"/><path d="M 35253.9 24955.9 35253.9 24955.9 35253.9 27496.1 36168.5 27496.1 36168.5 25176.6 36151.2 25111.9 36117.7 25054 36070.4 25006.7 36012.5 24973.2 35947.8 24955.9 35253.9 24955.9"/></g></mask><mask id="L-TQzqr0U6FVOnNA-2Qq_clear-19" fill="#000" stroke="#000"><g><rect x="508.1" y="4873.1" width="68983.8" height="44618.8" fill="#fff"/><path d="M 33831.5 28003.9 33831.5 28003.9 33831.5 30323.4 33848.8 30388.1 33882.3 30446 33929.6 30493.3 33987.5 30526.8 34052.2 30544.1 34746.1 30544.1 34746.1 28003.9 33831.5 28003.9"/></g></mask><mask id="L-TQzqr0U6FVOnNA-2Qq_clear-20" fill="#000" stroke="#000"><g><rect x="508.1" y="4873.1" width="68983.8" height="44618.8" fill="#fff"/><path d="M 34052.2 24955.9 34052.2 24955.9 33987.5 24973.2 33929.6 25006.7 33882.3 25054 33848.8 25111.9 33831.5 25176.6 33831.5 27496.1 34746.1 27496.1 34746.1 24955.9 34052.2 24955.9"/></g></mask><mask id="L-TQzqr0U6FVOnNA-2Qq_clear-21" fill="#000" stroke="#000"><g><rect x="508.1" y="4873.1" width="68983.8" height="44618.8" fill="#fff"/><path d="M 39453.9 38253.9 39453.9 38253.9 39453.9 39254.1 40033.4 39254.1 40098.1 39236.8 40156 39203.3 40203.3 39156 40236.8 39098.1 40254.1 39033.4 40254.1 38253.9 39453.9 38253.9"/></g></mask><mask id="L-TQzqr0U6FVOnNA-2Qq_clear-22" fill="#000" stroke="#000"><g><rect x="508.1" y="4873.1" width="68983.8" height="44618.8" fill="#fff"/><path d="M 31053.9 38253.9 31053.9 38253.9 31053.9 39254.1 31633.4 39254.1 31698.1 39236.8 31756 39203.3 31803.3 39156 31836.8 39098.1 31854.1 39033.4 31854.1 38253.9 31053.9 38253.9"/></g></mask><mask id="L-TQzqr0U6FVOnNA-2Qq_clear-23" fill="#000" stroke="#000"><g><rect x="508.1" y="4873.1" width="68983.8" height="44618.8" fill="#fff"/><path d="M 29745.9 38253.9 29745.9 38253.9 29745.9 39033.4 29763.2 39098.1 29796.7 39156 29844 39203.3 29901.9 39236.8 29966.6 39254.1 30546.1 39254.1 30546.1 38253.9 29745.9 38253.9"/></g></mask><mask id="L-TQzqr0U6FVOnNA-2Qq_clear-24" fill="#000" stroke="#000"><g><rect x="508.1" y="4873.1" width="68983.8" height="44618.8" fill="#fff"/><path d="M 38145.9 38253.9 38145.9 38253.9 38145.9 39033.4 38163.2 39098.1 38196.7 39156 38244 39203.3 38301.9 39236.8 38366.6 39254.1 38946.1 39254.1 38946.1 38253.9 38145.9 38253.9"/></g></mask><mask id="L-TQzqr0U6FVOnNA-2Qq_clear-25" fill="#000" stroke="#000"><g><rect x="508.1" y="4873.1" width="68983.8" height="44618.8" fill="#fff"/><path d="M 31053.9 36745.9 31053.9 36745.9 31053.9 37746.1 31854.1 37746.1 31854.1 36966.6 31836.8 36901.9 31803.3 36844 31756 36796.7 31698.1 36763.2 31633.4 36745.9 31053.9 36745.9"/></g></mask><mask id="L-TQzqr0U6FVOnNA-2Qq_clear-26" fill="#000" stroke="#000"><g><rect x="508.1" y="4873.1" width="68983.8" height="44618.8" fill="#fff"/><path d="M 39453.9 36745.9 39453.9 36745.9 39453.9 37746.1 40254.1 37746.1 40254.1 36966.6 40236.8 36901.9 40203.3 36844 40156 36796.7 40098.1 36763.2 40033.4 36745.9 39453.9 36745.9"/></g></mask><mask id="L-TQzqr0U6FVOnNA-2Qq_clear-27" fill="#000" stroke="#000"><g><rect x="508.1" y="4873.1" width="68983.8" height="44618.8" fill="#fff"/><path d="M 29966.6 36745.9 29966.6 36745.9 29901.9 36763.2 29844 36796.7 29796.7 36844 29763.2 36901.9 29745.9 36966.6 29745.9 37746.1 30546.1 37746.1 30546.1 36745.9 29966.6 36745.9"/></g></mask><mask id="L-TQzqr0U6FVOnNA-2Qq_clear-28" fill="#000" stroke="#000"><g><rect x="508.1" y="4873.1" width="68983.8" height="44618.8" fill="#fff"/><path d="M 38366.6 36745.9 38366.6 36745.9 38301.9 36763.2 38244 36796.7 38196.7 36844 38163.2 36901.9 38145.9 36966.6 38145.9 37746.1 38946.1 37746.1 38946.1 36745.9 38366.6 36745.9"/></g></mask><mask id="L-TQzqr0U6FVOnNA-2Qq_clear-29" fill="#000" stroke="#000"><g><rect x="508.1" y="4873.1" width="68983.8" height="44618.8" fill="#fff"/><path d="M 30799.9 37999.9 30799.9 37999.9 30799.9 38000.1 30800.1 38000.1 30800.1 37999.9 30799.9 37999.9"/></g></mask><mask id="L-TQzqr0U6FVOnNA-2Qq_clear-30" fill="#000" stroke="#000"><g><rect x="508.1" y="4873.1" width="68983.8" height="44618.8" fill="#fff"/><path d="M 34999.9 27749.9 34999.9 27749.9 34999.9 27750.1 35000.1 27750.1 35000.1 27749.9 34999.9 27749.9"/></g></mask><mask id="L-TQzqr0U6FVOnNA-2Qq_clear-31" fill="#000" stroke="#000"><g><rect x="508.1" y="4873.1" width="68983.8" height="44618.8" fill="#fff"/><path d="M 39199.9 37999.9 39199.9 37999.9 39199.9 38000.1 39200.1 38000.1 39200.1 37999.9 39199.9 37999.9"/></g></mask><rect x="-800" y="-1000" width="1600" height="2000" id="L-TQzqr0U6FVOnNA-2Qq_pad-11"/><rect x="-914.4" y="-2540" width="1828.8" height="5080" id="L-TQzqr0U6FVOnNA-2Qq_pad-12"/><polygon points="304.79941,126.25205 126.25205,304.79941 -126.25205,304.79941 -304.79941,126.25205 -304.79941,-126.25205 -126.25205,-304.79941 126.25205,-304.79941 304.79941,-126.25205" id="L-TQzqr0U6FVOnNA-2Qq_pad-14"/><rect x="-800" y="-1000" width="1600" height="2000" id="UL43LkHVUG3xK7tuB24Q_pad-11"/><rect x="-914.4" y="-2540" width="1828.8" height="5080" id="UL43LkHVUG3xK7tuB24Q_pad-12"/><rect x="-800" y="-1000" width="1600" height="2000" id="XCCfNZNOx48-wrBuQS8u_pad-11"/><rect x="-914.4" y="-2540" width="1828.8" height="5080" id="XCCfNZNOx48-wrBuQS8u_pad-12"/><circle cx="0" cy="0" r="150" id="QRlejNlnyMomAYxAfl0D_pad-1"/><g id="fEr5CGI8bJjzhow03Kdi_bottom_copper"><g mask="url(#L-TQzqr0U6FVOnNA-2Qq_clear-31)"><g mask="url(#L-TQzqr0U6FVOnNA-2Qq_clear-30)"><g mask="url(#L-TQzqr0U6FVOnNA-2Qq_clear-29)"><g mask="url(#L-TQzqr0U6FVOnNA-2Qq_clear-28)"><g mask="url(#L-TQzqr0U6FVOnNA-2Qq_clear-27)"><g mask="url(#L-TQzqr0U6FVOnNA-2Qq_clear-26)"><g mask="url(#L-TQzqr0U6FVOnNA-2Qq_clear-25)"><g mask="url(#L-TQzqr0U6FVOnNA-2Qq_clear-24)"><g mask="url(#L-TQzqr0U6FVOnNA-2Qq_clear-23)"><g mask="url(#L-TQzqr0U6FVOnNA-2Qq_clear-22)"><g mask="url(#L-TQzqr0U6FVOnNA-2Qq_clear-21)"><g mask="url(#L-TQzqr0U6FVOnNA-2Qq_clear-20)"><g mask="url(#L-TQzqr0U6FVOnNA-2Qq_clear-19)"><g mask="url(#L-TQzqr0U6FVOnNA-2Qq_clear-18)"><g mask="url(#L-TQzqr0U6FVOnNA-2Qq_clear-17)"><g mask="url(#L-TQzqr0U6FVOnNA-2Qq_clear-16)"><g mask="url(#L-TQzqr0U6FVOnNA-2Qq_clear-15)"><g mask="url(#L-TQzqr0U6FVOnNA-2Qq_clear-14)"><g mask="url(#L-TQzqr0U6FVOnNA-2Qq_clear-13)"><g mask="url(#L-TQzqr0U6FVOnNA-2Qq_clear-12)"><g mask="url(#L-TQzqr0U6FVOnNA-2Qq_clear-11)"><g mask="url(#L-TQzqr0U6FVOnNA-2Qq_clear-10)"><g mask="url(#L-TQzqr0U6FVOnNA-2Qq_clear-9)"><g mask="url(#L-TQzqr0U6FVOnNA-2Qq_clear-8)"><g mask="url(#L-TQzqr0U6FVOnNA-2Qq_clear-7)"><g mask="url(#L-TQzqr0U6FVOnNA-2Qq_clear-6)"><g mask="url(#L-TQzqr0U6FVOnNA-2Qq_clear-5)"><g mask="url(#L-TQzqr0U6FVOnNA-2Qq_clear-4)"><g mask="url(#L-TQzqr0U6FVOnNA-2Qq_clear-3)"><g mask="url(#L-TQzqr0U6FVOnNA-2Qq_clear-2)"><g mask="url(#L-TQzqr0U6FVOnNA-2Qq_clear-1)"><path d="M 69376.8 4874.6 69376.8 4874.6 69388.7 4875.3 69392.5 4876.6 69396.6 4877.1 69407.6 4881.4 69418.9 4885.1 69422.4 4887.3 69426.1 4888.8 69435.7 4895.7 69445.8 4902.1 69448.6 4905.1 69451.9 4907.4 69459.5 4916.6 69467.6 4925.3 69469.6 4928.8 69472.1 4931.9 69477.2 4942.7 69483 4953.1 69484 4957.1 69485.7 4960.7 69487.9 4972.4 69490.9 4983.9 69491.3 4989.9 69491.7 4991.9 69491.5 4994 69491.9 5000 69491.9 49365 69490.4 49376.8 69489.7 49388.7 69488.4 49392.5 69487.9 49396.6 69483.6 49407.6 69479.9 49418.9 69477.7 49422.4 69476.2 49426.1 69469.3 49435.7 69462.9 49445.8 69459.9 49448.6 69457.6 49451.9 69448.4 49459.5 69439.7 49467.6 69436.2 49469.6 69433.1 49472.1 69422.3 49477.2 69411.9 49483 69407.9 49484 69404.3 49485.7 69392.6 49487.9 69381.1 49490.9 69375.1 49491.3 69373.1 49491.7 69371 49491.5 69365 49491.9 635 49491.9 623.2 49490.4 611.3 49489.7 607.5 49488.4 603.4 49487.9 592.4 49483.6 581.1 49479.9 577.6 49477.7 573.9 49476.2 564.3 49469.3 554.2 49462.9 551.4 49459.9 548.1 49457.6 540.5 49448.4 532.4 49439.7 530.4 49436.2 527.9 49433.1 522.8 49422.3 517 49411.9 516 49407.9 514.3 49404.3 512.1 49392.6 509.1 49381.1 508.7 49375.1 508.3 49373.1 508.5 49371 508.1 49365 508.1 5000 509.6 4988.2 510.3 4976.3 511.6 4972.5 512.1 4968.4 516.4 4957.4 520.1 4946.1 522.3 4942.6 523.8 4938.9 530.7 4929.3 537.1 4919.2 540.1 4916.4 542.4 4913.1 551.6 4905.6 560.3 4897.4 563.8 4895.4 566.9 4892.9 577.7 4887.8 588.1 4882 592.1 4881 595.7 4879.3 607.4 4877.1 618.9 4874.1 624.9 4873.7 626.9 4873.3 629 4873.5 635 4873.1 69365 4873.1 69376.8 4874.6"/></g><path d="M 64501.8 41297.1 64501.8 41297.1 64503.6 41296.9 64521.8 41299 64540.1 41300.9 64541.8 41301.4 64543.5 41301.6 64561 41307.3 64578.6 41312.7 64580.1 41313.5 64581.8 41314.1 64597.8 41323.1 64614 41331.9 64615.3 41333 64616.9 41333.9 64630.8 41345.9 64644.9 41357.6 64646 41359 64647.4 41360.2 64658.6 41374.7 64670.1 41389 64670.9 41390.6 64672 41392 64680.2 41408.5 64688.7 41424.7 64689.2 41426.4 64690 41428.1 64694.7 41445.9 64699.8 41463.4 64700 41465.2 64700.4 41466.9 64703.1 41500 64703.1 44500 64702.9 44501.8 64703.1 44503.6 64701 44521.8 64699.1 44540.1 64698.6 44541.8 64698.4 44543.5 64692.7 44561 64687.3 44578.6 64686.5 44580.1 64685.9 44581.8 64676.9 44597.8 64668.1 44614 64667 44615.3 64666.1 44616.9 64654.1 44630.8 64642.4 44644.9 64641 44646 64639.8 44647.4 64625.3 44658.6 64611 44670.1 64609.4 44670.9 64608 44672 64591.5 44680.2 64575.3 44688.7 64573.6 44689.2 64572 44690 64554.1 44694.7 64536.6 44699.8 64534.8 44700 64533.1 44700.4 64500 44703.1 5500 44703.1 5498.2 44702.9 5496.4 44703.1 5478.2 44701 5459.9 44699.1 5458.2 44698.6 5456.5 44698.4 5439 44692.7 5421.4 44687.3 5419.9 44686.5 5418.2 44685.9 5402.2 44676.9 5386 44668.1 5384.7 44667 5383.1 44666.1 5369.2 44654.1 5355.1 44642.4 5354 44641 5352.7 44639.8 5341.4 44625.3 5329.9 44611 5329.1 44609.4 5328 44608 5319.8 44591.5 5311.3 44575.3 5310.8 44573.6 5310 44572 5305.3 44554.1 5300.2 44536.6 5300 44534.8 5299.6 44533.1 5296.9 44500 5296.9 41500 5297.1 41498.2 5296.9 41496.4 5299 41478.2 5300.9 41459.9 5301.4 41458.2 5301.6 41456.5 5307.3 41439 5312.7 41421.4 5313.5 41419.9 5314.1 41418.2 5323.1 41402.2 5331.9 41386 5333 41384.7 5333.9 41383.1 5345.9 41369.2 5357.6 41355.1 5359 41354 5360.2 41352.7 5374.7 41341.4 5389 41329.9 5390.6 41329.1 5392 41328 5408.5 41319.8 5424.7 41311.3 5426.4 41310.8 5428.1 41310 5445.9 41305.3 5463.4 41300.2 5465.2 41300 5466.9 41299.6 5500 41296.9 64500 41296.9 64501.8 41297.1"/></g></g></g></g></g></g></g></g></g></g></g></g></g></g></g></g></g></g></g></g></g></g></g></g></g></g></g></g></g></g><path d="M 0 0 0 50000 70000 50000 70000 0 0 0" fill="none" stroke-width="0"/><use xlink:href="#L-TQzqr0U6FVOnNA-2Qq_pad-11" x="39200" y="38000"/><use xlink:href="#L-TQzqr0U6FVOnNA-2Qq_pad-11" x="42000" y="38000"/><use xlink:href="#L-TQzqr0U6FVOnNA-2Qq_pad-11" x="50400" y="38000"/><use xlink:href="#L-TQzqr0U6FVOnNA-2Qq_pad-11" x="53200" y="38000"/><use xlink:href="#L-TQzqr0U6FVOnNA-2Qq_pad-11" x="61600" y="38000"/><use xlink:href="#L-TQzqr0U6FVOnNA-2Qq_pad-11" x="64400" y="38000"/><use xlink:href="#L-TQzqr0U6FVOnNA-2Qq_pad-11" x="64400" y="16000"/><use xlink:href="#L-TQzqr0U6FVOnNA-2Qq_pad-11" x="61600" y="16000"/><use xlink:href="#L-TQzqr0U6FVOnNA-2Qq_pad-11" x="58800" y="27000"/><use xlink:href="#L-TQzqr0U6FVOnNA-2Qq_pad-11" x="56000" y="27000"/><use xlink:href="#L-TQzqr0U6FVOnNA-2Qq_pad-11" x="53200" y="16000"/><use xlink:href="#L-TQzqr0U6FVOnNA-2Qq_pad-11" x="50400" y="16000"/><use xlink:href="#L-TQzqr0U6FVOnNA-2Qq_pad-11" x="47600" y="27000"/><use xlink:href="#L-TQzqr0U6FVOnNA-2Qq_pad-11" x="44800" y="27000"/><use xlink:href="#L-TQzqr0U6FVOnNA-2Qq_pad-11" x="42000" y="16000"/><use xlink:href="#L-TQzqr0U6FVOnNA-2Qq_pad-11" x="39200" y="16000"/><use xlink:href="#L-TQzqr0U6FVOnNA-2Qq_pad-11" x="28000" y="16000"/><use xlink:href="#L-TQzqr0U6FVOnNA-2Qq_pad-11" x="30800" y="16000"/><use xlink:href="#L-TQzqr0U6FVOnNA-2Qq_pad-11" x="11200" y="27000"/><use xlink:href="#L-TQzqr0U6FVOnNA-2Qq_pad-11" x="14000" y="27000"/><use xlink:href="#L-TQzqr0U6FVOnNA-2Qq_pad-11" x="16800" y="16000"/><use xlink:href="#L-TQzqr0U6FVOnNA-2Qq_pad-11" x="19600" y="16000"/><use xlink:href="#L-TQzqr0U6FVOnNA-2Qq_pad-11" x="22400" y="27000"/><use xlink:href="#L-TQzqr0U6FVOnNA-2Qq_pad-11" x="25200" y="27000"/><use xlink:href="#L-TQzqr0U6FVOnNA-2Qq_pad-12" x="30800" y="27750"/><use xlink:href="#L-TQzqr0U6FVOnNA-2Qq_pad-12" x="35000" y="27750"/><use xlink:href="#L-TQzqr0U6FVOnNA-2Qq_pad-12" x="39200" y="27750"/><use xlink:href="#L-TQzqr0U6FVOnNA-2Qq_pad-11" x="5600" y="16000"/><use xlink:href="#L-TQzqr0U6FVOnNA-2Qq_pad-11" x="8400" y="16000"/><use xlink:href="#L-TQzqr0U6FVOnNA-2Qq_pad-11" x="8400" y="38000"/><use xlink:href="#L-TQzqr0U6FVOnNA-2Qq_pad-11" x="5600" y="38000"/><use xlink:href="#L-TQzqr0U6FVOnNA-2Qq_pad-11" x="19600" y="38000"/><use xlink:href="#L-TQzqr0U6FVOnNA-2Qq_pad-11" x="16800" y="38000"/><use xlink:href="#L-TQzqr0U6FVOnNA-2Qq_pad-11" x="30800" y="38000"/><use xlink:href="#L-TQzqr0U6FVOnNA-2Qq_pad-11" x="28000" y="38000"/><path d="M 53200 38000 61600 38000 M 50400 38000 42000 38000 M 39200 27750 39200 22000 M 34390.4 16000 30800 16000 M 34390.4 16000 35609.6 16000 39200 16000 M 35000 17800 39200 22000 M 35000 16609.6 35609.6 16000 M 35000 16609.6 35000 17800 M 35000 16609.6 34390.4 16000" fill="none" stroke-width="609.6"/><use xlink:href="#L-TQzqr0U6FVOnNA-2Qq_pad-14" x="3500" y="47500"/><use xlink:href="#L-TQzqr0U6FVOnNA-2Qq_pad-14" x="66500" y="47500"/><use xlink:href="#L-TQzqr0U6FVOnNA-2Qq_pad-14" x="35000" y="46000"/><use xlink:href="#L-TQzqr0U6FVOnNA-2Qq_pad-14" x="7000" y="43000"/><use xlink:href="#L-TQzqr0U6FVOnNA-2Qq_pad-14" x="15000" y="43000"/><use xlink:href="#L-TQzqr0U6FVOnNA-2Qq_pad-14" x="23000" y="43000"/><use xlink:href="#L-TQzqr0U6FVOnNA-2Qq_pad-14" x="31000" y="43000"/><use xlink:href="#L-TQzqr0U6FVOnNA-2Qq_pad-14" x="39000" y="43000"/><use xlink:href="#L-TQzqr0U6FVOnNA-2Qq_pad-14" x="47000" y="43000"/><use xlink:href="#L-TQzqr0U6FVOnNA-2Qq_pad-14" x="55000" y="43000"/><use xlink:href="#L-TQzqr0U6FVOnNA-2Qq_pad-14" x="63000" y="43000"/><path d="M 35000 41093.6 34593.6 41500 M 35000 41093.6 35000 36500 M 35000 41093.6 35406.4 41500 M 30800 32300 30800 27750 M 30800 32300 35000 36500" fill="none" stroke-width="406.4"/><path d="M 16800 38000 8400 38000 M 64400 38000 64400 16000 M 58800 22000 58800 27000 M 61600 19200 61600 16000 M 61600 19200 58800 22000 M 56000 22000 56000 27000 M 53200 19200 53200 16000 M 53200 19200 56000 22000 M 47600 22000 47600 27000 M 50400 19200 50400 16000 M 50400 19200 47600 22000 M 44800 22000 44800 27000 M 42000 19200 42000 16000 M 42000 19200 44800 22000 M 22400 22000 22400 27000 M 19600 19200 19600 16000 M 19600 19200 22400 22000 M 14000 22000 14000 27000 M 16800 19200 16800 16000 M 16800 19200 14000 22000 M 11200 22000 11200 27000 M 8400 19200 8400 16000 M 8400 19200 11200 22000 M 5600 16000 5600 38000 M 19600 38000 28000 38000 M 25200 27000 25200 22000 28000 19200 28000 16000" fill="none" stroke-width="609.6"/></g><g id="fEr5CGI8bJjzhow03Kdi_bottom_silkscreen"><path d="M 0 0 0 50000 70000 50000 70000 0 0 0" fill="none" stroke-width="0"/><path d="M 41705.9 35293.5 41705.9 36437.5 41133.9 36437.5 40943.3 36246.8 40943.3 35865.5 41133.9 35674.8 41705.9 35674.8 M 41324.6 35674.8 40943.3 35293.5 M 40536.5 36056.2 40155.2 36437.5 40155.2 35293.5 M 40536.5 35293.5 39773.9 35293.5 M 52905.9 35293.5 52905.9 36437.5 52333.9 36437.5 52143.3 36246.8 52143.3 35865.5 52333.9 35674.8 52905.9 35674.8 M 52524.6 35674.8 52143.3 35293.5 M 51736.5 35293.5 50973.9 35293.5 M 51736.5 35293.5 50973.9 36056.2 50973.9 36246.8 51164.5 36437.5 51545.8 36437.5 51736.5 36246.8 M 64105.9 36437.5 64105.9 35293.5 M 64105.9 36437.5 63533.9 36437.5 63343.3 36246.8 63343.3 35865.5 63533.9 35674.8 64105.9 35674.8 M 63724.6 35674.8 63343.3 35293.5 M 62936.5 36246.8 62745.8 36437.5 62364.5 36437.5 62173.9 36246.8 62173.9 36056.2 62364.5 35865.5 62555.2 35865.5 M 62364.5 35865.5 62173.9 35674.8 62173.9 35484.2 62364.5 35293.5 62745.8 35293.5 62936.5 35484.2 M 64105.9 18707.5 64105.9 17563.5 M 64105.9 18707.5 63533.9 18707.5 63343.2 18516.8 63343.2 18135.5 63533.9 17944.8 64105.9 17944.8 M 63724.6 17944.8 63343.2 17563.5 M 62364.5 17563.5 62364.5 18707.5 62936.5 18135.5 62173.9 18135.5 M 58505.9 28563.5 58505.9 29707.5 57933.9 29707.5 57743.2 29516.8 57743.2 29135.5 57933.9 28944.8 58505.9 28944.8 M 58124.6 28944.8 57743.2 28563.5 M 57336.5 29707.5 56573.9 29707.5 M 57336.5 29707.5 57336.5 29135.5 56955.2 29326.2 56764.5 29326.2 56573.9 29135.5 56573.9 28754.2 56764.5 28563.5 57145.8 28563.5 57336.5 28754.2 M 52905.9 18707.5 52905.9 17563.5 M 52905.9 18707.5 52333.9 18707.5 52143.2 18516.8 52143.2 18135.5 52333.9 17944.8 52905.9 17944.8 M 52524.6 17944.8 52143.2 17563.5 M 51355.2 18516.8 50973.9 18707.5 M 51355.2 18516.8 51736.5 18135.5 51736.5 17754.2 51545.8 17563.5 51164.5 17563.5 50973.9 17754.2 50973.9 17944.8 51164.5 18135.5 51736.5 18135.5 M 47305.9 28563.5 47305.9 29707.5 46733.9 29707.5 46543.2 29516.8 46543.2 29135.5 46733.9 28944.8 47305.9 28944.8 M 46924.6 28944.8 46543.2 28563.5 M 46136.5 29707.5 45373.9 29707.5 45373.9 29516.8 46136.5 28754.2 46136.5 28563.5 M 41705.9 18707.5 41705.9 17563.5 M 41705.9 18707.5 41133.9 18707.5 40943.2 18516.8 40943.2 18135.5 41133.9 17944.8 41705.9 17944.8 M 41324.6 17944.8 40943.2 17563.5 M 40536.5 18516.8 40345.8 18707.5 39964.5 18707.5 39773.9 18516.8 39773.9 18326.2 39964.5 18135.5 39773.9 17944.8 39773.9 17754.2 39964.5 17563.5 40345.8 17563.5 40536.5 17754.2 40536.5 17944.8 40345.8 18135.5 40536.5 18326.2 40536.5 18516.8 M 40345.8 18135.5 39964.5 18135.5 M 30505.9 17563.5 30505.9 18707.5 29933.9 18707.5 29743.3 18516.8 29743.3 18135.5 29933.9 17944.8 30505.9 17944.8 M 30124.6 17944.8 29743.3 17563.5 M 29336.5 17754.2 29145.8 17563.5 28764.5 17563.5 28573.9 17754.2 28573.9 18516.8 28764.5 18707.5 29145.8 18707.5 29336.5 18516.8 29336.5 18326.2 29145.8 18135.5 28573.9 18135.5 M 14290.6 28563.5 14290.6 29707.5 13718.6 29707.5 13528 29516.8 13528 29135.5 13718.6 28944.8 14290.6 28944.8 M 13909.3 28944.8 13528 28563.5 M 13121.2 29326.2 12739.9 29707.5 12739.9 28563.5 M 13121.2 28563.5 12358.6 28563.5 M 11951.8 28563.5 11189.2 28563.5 M 11951.8 28563.5 11189.2 29326.2 11189.2 29516.8 11379.8 29707.5 11761.1 29707.5 11951.8 29516.8 M 19890.6 18707.5 19890.6 17563.5 M 19890.6 18707.5 19318.6 18707.5 19128 18516.8 19128 18135.5 19318.6 17944.8 19890.6 17944.8 M 19509.3 17944.8 19128 17563.5 M 18721.2 18326.2 18339.9 18707.5 18339.9 17563.5 M 18721.2 17563.5 17958.6 17563.5 M 17551.8 18326.2 17170.5 18707.5 17170.5 17563.5 M 17551.8 17563.5 16789.2 17563.5 M 25490.6 28563.5 25490.6 29707.5 24918.6 29707.5 24728 29516.8 24728 29135.5 24918.6 28944.8 25490.6 28944.8 M 25109.3 28944.8 24728 28563.5 M 24321.2 29326.2 23939.9 29707.5 23939.9 28563.5 M 24321.2 28563.5 23558.6 28563.5 M 23151.8 28754.2 23151.8 29516.8 22961.1 29707.5 22579.8 29707.5 22389.2 29516.8 22389.2 28754.2 22579.8 28563.5 22961.1 28563.5 23151.8 28754.2 22389.2 29516.8" fill="none" stroke-width="127"/><path d="M 29631.6 30544 31968.4 30544 31968.4 24956 29631.6 24956 29631.6 30544" fill="none" stroke-width="152.4"/><path d="M 33166.8 25068 33357.5 24877.3 33357.5 24496 33166.8 24305.3 32976.2 24305.3 32785.5 24496 32785.5 24877.3 32594.8 25068 32404.2 25068 32213.5 24877.3 32213.5 24496 32404.2 24305.3 M 33357.5 25474.7 33357.5 26237.4 M 33357.5 25474.7 32213.5 25474.7 32213.5 26237.4 M 32785.5 25856 32785.5 25474.7 M 32213.5 26644.1 33357.5 26644.1 32213.5 27406.7 33357.5 27406.7 M 33357.5 28385.5 33166.8 28576.1 M 33357.5 28385.5 33357.5 28004.2 33166.8 27813.5 32976.2 27813.5 32785.5 28004.2 32785.5 28385.5 32594.8 28576.1 32404.2 28576.1 32213.5 28385.5 32213.5 28004.2 32404.2 27813.5 M 33357.5 29173.6 33357.5 29554.9 M 33357.5 29173.6 33166.8 28982.9 32404.2 28982.9 32213.5 29173.6 32213.5 29554.9 32404.2 29745.5 33166.8 29745.5 33357.5 29554.9 M 33357.5 30152.3 32213.5 30152.3 M 33357.5 30152.3 33357.5 30724.3 33166.8 30914.9 32785.5 30914.9 32594.8 30724.3 32594.8 30152.3 M 32594.8 30533.6 32213.5 30914.9" fill="none" stroke-width="127"/><path d="M 33831.6 30544 36168.4 30544 36168.4 24956 33831.6 24956 33831.6 30544" fill="none" stroke-width="152.4"/><path d="M 37366.8 26822.1 37557.5 26631.4 37557.5 26250.1 37366.8 26059.4 36604.2 26059.4 36413.5 26250.1 36413.5 26631.4 36604.2 26822.1 36985.5 26822.1 36985.5 26440.7 M 36413.5 27228.8 37557.5 27228.8 36413.5 27991.5 37557.5 27991.5 M 37557.5 28398.2 36413.5 28398.2 36413.5 28970.2 36604.2 29160.8 37366.8 29160.8 37557.5 28970.2 37557.5 28398.2" fill="none" stroke-width="127"/><path d="M 38031.6 30544 40368.4 30544 40368.4 24956 38031.6 24956 38031.6 30544" fill="none" stroke-width="152.4"/><path d="M 40613.5 25474.7 41757.5 25474.7 M 41185.5 25474.7 41185.5 26237.4 M 41757.5 26237.4 40613.5 26237.4 M 41757.5 26644.1 41757.5 27406.8 M 41757.5 26644.1 40613.5 26644.1 40613.5 27406.8 M 41185.5 27025.4 41185.5 26644.1 M 41376.2 27813.5 40613.5 27813.5 M 41376.2 27813.5 41757.5 28194.8 41376.2 28576.1 40613.5 28576.1 M 41185.5 28576.1 41185.5 27813.5 M 40613.5 29364.2 41757.5 29364.2 M 41757.5 28982.9 41757.5 29745.5 M 8690.6 18707.5 8690.6 17563.5 M 8690.6 18707.5 8118.6 18707.5 7928 18516.8 7928 18135.5 8118.6 17944.8 8690.6 17944.8 M 8309.3 17944.8 7928 17563.5 M 7521.2 18326.2 7139.9 18707.5 7139.9 17563.5 M 7521.2 17563.5 6758.6 17563.5 M 6351.8 18516.8 6161.1 18707.5 5779.8 18707.5 5589.2 18516.8 5589.2 18326.2 5779.8 18135.5 5970.5 18135.5 M 5779.8 18135.5 5589.2 17944.8 5589.2 17754.2 5779.8 17563.5 6161.1 17563.5 6351.8 17754.2 M 8690.6 35293.5 8690.6 36437.5 8118.6 36437.5 7927.9 36246.8 7927.9 35865.5 8118.6 35674.8 8690.6 35674.8 M 8309.3 35674.8 7927.9 35293.5 M 7521.2 36056.2 7139.9 36437.5 7139.9 35293.5 M 7521.2 35293.5 6758.6 35293.5 M 5779.8 35293.5 5779.8 36437.5 6351.8 35865.5 5589.2 35865.5 M 19890.6 35293.5 19890.6 36437.5 19318.6 36437.5 19127.9 36246.8 19127.9 35865.5 19318.6 35674.8 19890.6 35674.8 M 19509.3 35674.8 19127.9 35293.5 M 18721.2 36056.2 18339.9 36437.5 18339.9 35293.5 M 18721.2 35293.5 17958.6 35293.5 M 17551.8 36437.5 16789.2 36437.5 M 17551.8 36437.5 17551.8 35865.5 17170.5 36056.2 16979.8 36056.2 16789.2 35865.5 16789.2 35484.2 16979.8 35293.5 17361.1 35293.5 17551.8 35484.2 M 31090.6 35293.5 31090.6 36437.5 30518.6 36437.5 30327.9 36246.8 30327.9 35865.5 30518.6 35674.8 31090.6 35674.8 M 30709.3 35674.8 30327.9 35293.5 M 29921.2 36056.2 29539.9 36437.5 29539.9 35293.5 M 29921.2 35293.5 29158.6 35293.5 M 28370.5 36246.8 27989.2 36437.5 M 28370.5 36246.8 28751.8 35865.5 28751.8 35484.2 28561.1 35293.5 28179.8 35293.5 27989.2 35484.2 27989.2 35674.8 28179.8 35865.5 28751.8 35865.5" fill="none" stroke-width="127"/></g><g id="fEr5CGI8bJjzhow03Kdi_bottom_solderpaste"><path d="M 0 0 0 50000 70000 50000 70000 0 0 0" fill="none" stroke-width="0"/><use xlink:href="#UL43LkHVUG3xK7tuB24Q_pad-11" x="39200" y="38000"/><use xlink:href="#UL43LkHVUG3xK7tuB24Q_pad-11" x="42000" y="38000"/><use xlink:href="#UL43LkHVUG3xK7tuB24Q_pad-11" x="50400" y="38000"/><use xlink:href="#UL43LkHVUG3xK7tuB24Q_pad-11" x="53200" y="38000"/><use xlink:href="#UL43LkHVUG3xK7tuB24Q_pad-11" x="61600" y="38000"/><use xlink:href="#UL43LkHVUG3xK7tuB24Q_pad-11" x="64400" y="38000"/><use xlink:href="#UL43LkHVUG3xK7tuB24Q_pad-11" x="64400" y="16000"/><use xlink:href="#UL43LkHVUG3xK7tuB24Q_pad-11" x="61600" y="16000"/><use xlink:href="#UL43LkHVUG3xK7tuB24Q_pad-11" x="58800" y="27000"/><use xlink:href="#UL43LkHVUG3xK7tuB24Q_pad-11" x="56000" y="27000"/><use xlink:href="#UL43LkHVUG3xK7tuB24Q_pad-11" x="53200" y="16000"/><use xlink:href="#UL43LkHVUG3xK7tuB24Q_pad-11" x="50400" y="16000"/><use xlink:href="#UL43LkHVUG3xK7tuB24Q_pad-11" x="47600" y="27000"/><use xlink:href="#UL43LkHVUG3xK7tuB24Q_pad-11" x="44800" y="27000"/><use xlink:href="#UL43LkHVUG3xK7tuB24Q_pad-11" x="42000" y="16000"/><use xlink:href="#UL43LkHVUG3xK7tuB24Q_pad-11" x="39200" y="16000"/><use xlink:href="#UL43LkHVUG3xK7tuB24Q_pad-11" x="28000" y="16000"/><use xlink:href="#UL43LkHVUG3xK7tuB24Q_pad-11" x="30800" y="16000"/><use xlink:href="#UL43LkHVUG3xK7tuB24Q_pad-11" x="11200" y="27000"/><use xlink:href="#UL43LkHVUG3xK7tuB24Q_pad-11" x="14000" y="27000"/><use xlink:href="#UL43LkHVUG3xK7tuB24Q_pad-11" x="16800" y="16000"/><use xlink:href="#UL43LkHVUG3xK7tuB24Q_pad-11" x="19600" y="16000"/><use xlink:href="#UL43LkHVUG3xK7tuB24Q_pad-11" x="22400" y="27000"/><use xlink:href="#UL43LkHVUG3xK7tuB24Q_pad-11" x="25200" y="27000"/><use xlink:href="#UL43LkHVUG3xK7tuB24Q_pad-12" x="30800" y="27750"/><use xlink:href="#UL43LkHVUG3xK7tuB24Q_pad-12" x="35000" y="27750"/><use xlink:href="#UL43LkHVUG3xK7tuB24Q_pad-12" x="39200" y="27750"/><use xlink:href="#UL43LkHVUG3xK7tuB24Q_pad-11" x="5600" y="16000"/><use xlink:href="#UL43LkHVUG3xK7tuB24Q_pad-11" x="8400" y="16000"/><use xlink:href="#UL43LkHVUG3xK7tuB24Q_pad-11" x="8400" y="38000"/><use xlink:href="#UL43LkHVUG3xK7tuB24Q_pad-11" x="5600" y="38000"/><use xlink:href="#UL43LkHVUG3xK7tuB24Q_pad-11" x="19600" y="38000"/><use xlink:href="#UL43LkHVUG3xK7tuB24Q_pad-11" x="16800" y="38000"/><use xlink:href="#UL43LkHVUG3xK7tuB24Q_pad-11" x="30800" y="38000"/><use xlink:href="#UL43LkHVUG3xK7tuB24Q_pad-11" x="28000" y="38000"/></g><g id="fEr5CGI8bJjzhow03Kdi_bottom_soldermask"><path d="M 0 0 0 50000 70000 50000 70000 0 0 0" fill="none" stroke-width="0"/><use xlink:href="#XCCfNZNOx48-wrBuQS8u_pad-11" x="39200" y="38000"/><use xlink:href="#XCCfNZNOx48-wrBuQS8u_pad-11" x="42000" y="38000"/><use xlink:href="#XCCfNZNOx48-wrBuQS8u_pad-11" x="50400" y="38000"/><use xlink:href="#XCCfNZNOx48-wrBuQS8u_pad-11" x="53200" y="38000"/><use xlink:href="#XCCfNZNOx48-wrBuQS8u_pad-11" x="61600" y="38000"/><use xlink:href="#XCCfNZNOx48-wrBuQS8u_pad-11" x="64400" y="38000"/><use xlink:href="#XCCfNZNOx48-wrBuQS8u_pad-11" x="64400" y="16000"/><use xlink:href="#XCCfNZNOx48-wrBuQS8u_pad-11" x="61600" y="16000"/><use xlink:href="#XCCfNZNOx48-wrBuQS8u_pad-11" x="58800" y="27000"/><use xlink:href="#XCCfNZNOx48-wrBuQS8u_pad-11" x="56000" y="27000"/><use xlink:href="#XCCfNZNOx48-wrBuQS8u_pad-11" x="53200" y="16000"/><use xlink:href="#XCCfNZNOx48-wrBuQS8u_pad-11" x="50400" y="16000"/><use xlink:href="#XCCfNZNOx48-wrBuQS8u_pad-11" x="47600" y="27000"/><use xlink:href="#XCCfNZNOx48-wrBuQS8u_pad-11" x="44800" y="27000"/><use xlink:href="#XCCfNZNOx48-wrBuQS8u_pad-11" x="42000" y="16000"/><use xlink:href="#XCCfNZNOx48-wrBuQS8u_pad-11" x="39200" y="16000"/><use xlink:href="#XCCfNZNOx48-wrBuQS8u_pad-11" x="28000" y="16000"/><use xlink:href="#XCCfNZNOx48-wrBuQS8u_pad-11" x="30800" y="16000"/><use xlink:href="#XCCfNZNOx48-wrBuQS8u_pad-11" x="11200" y="27000"/><use xlink:href="#XCCfNZNOx48-wrBuQS8u_pad-11" x="14000" y="27000"/><use xlink:href="#XCCfNZNOx48-wrBuQS8u_pad-11" x="16800" y="16000"/><use xlink:href="#XCCfNZNOx48-wrBuQS8u_pad-11" x="19600" y="16000"/><use xlink:href="#XCCfNZNOx48-wrBuQS8u_pad-11" x="22400" y="27000"/><use xlink:href="#XCCfNZNOx48-wrBuQS8u_pad-11" x="25200" y="27000"/><use xlink:href="#XCCfNZNOx48-wrBuQS8u_pad-12" x="30800" y="27750"/><use xlink:href="#XCCfNZNOx48-wrBuQS8u_pad-12" x="35000" y="27750"/><use xlink:href="#XCCfNZNOx48-wrBuQS8u_pad-12" x="39200" y="27750"/><use xlink:href="#XCCfNZNOx48-wrBuQS8u_pad-11" x="5600" y="16000"/><use xlink:href="#XCCfNZNOx48-wrBuQS8u_pad-11" x="8400" y="16000"/><use xlink:href="#XCCfNZNOx48-wrBuQS8u_pad-11" x="8400" y="38000"/><use xlink:href="#XCCfNZNOx48-wrBuQS8u_pad-11" x="5600" y="38000"/><use xlink:href="#XCCfNZNOx48-wrBuQS8u_pad-11" x="19600" y="38000"/><use xlink:href="#XCCfNZNOx48-wrBuQS8u_pad-11" x="16800" y="38000"/><use xlink:href="#XCCfNZNOx48-wrBuQS8u_pad-11" x="30800" y="38000"/><use xlink:href="#XCCfNZNOx48-wrBuQS8u_pad-11" x="28000" y="38000"/></g><g id="fEr5CGI8bJjzhow03Kdi_bottom_drill1"><use xlink:href="#QRlejNlnyMomAYxAfl0D_pad-1" x="3500" y="47500"/><use xlink:href="#QRlejNlnyMomAYxAfl0D_pad-1" x="66500" y="47500"/><use xlink:href="#QRlejNlnyMomAYxAfl0D_pad-1" x="35000" y="46000"/><use xlink:href="#QRlejNlnyMomAYxAfl0D_pad-1" x="7000" y="43000"/><use xlink:href="#QRlejNlnyMomAYxAfl0D_pad-1" x="15000" y="43000"/><use xlink:href="#QRlejNlnyMomAYxAfl0D_pad-1" x="23000" y="43000"/><use xlink:href="#QRlejNlnyMomAYxAfl0D_pad-1" x="31000" y="43000"/><use xlink:href="#QRlejNlnyMomAYxAfl0D_pad-1" x="39000" y="43000"/><use xlink:href="#QRlejNlnyMomAYxAfl0D_pad-1" x="47000" y="43000"/><use xlink:href="#QRlejNlnyMomAYxAfl0D_pad-1" x="55000" y="43000"/><use xlink:href="#QRlejNlnyMomAYxAfl0D_pad-1" x="63000" y="43000"/></g><clipPath id="fEr5CGI8bJjzhow03Kdi_bottom_outline"><path d="M 0 0 0 50000 70000 50000 70000 0 0 0" fill="none" stroke-width="0"/></clipPath><mask id="fEr5CGI8bJjzhow03Kdi_bottom_mech-mask"><g fill="#000" stroke="#000"><rect x="0" y="0" width="70000" height="50000" fill="#fff"/><use xlink:href="#fEr5CGI8bJjzhow03Kdi_bottom_drill1"/></g></mask><mask id="fEr5CGI8bJjzhow03Kdi_bottom_cf-mask"><g fill="#fff" stroke="#fff"><use xlink:href="#fEr5CGI8bJjzhow03Kdi_bottom_soldermask"/></g></mask><mask id="fEr5CGI8bJjzhow03Kdi_bottom_sm-mask"><g fill="#000" stroke="#000"><rect x="0" y="0" width="70000" height="50000" fill="#fff"/><use xlink:href="#fEr5CGI8bJjzhow03Kdi_bottom_soldermask"/></g></mask></defs><g transform="translate(0,50000) scale(1,-1)"><g mask="url(#fEr5CGI8bJjzhow03Kdi_bottom_mech-mask)" clip-path="url(#fEr5CGI8bJjzhow03Kdi_bottom_outline)" transform="translate(70000,0) scale(-1,1)"><rect x="0" y="0" width="70000" height="50000" fill="currentColor" class="fEr5CGI8bJjzhow03Kdi_fr4"/><use xlink:href="#fEr5CGI8bJjzhow03Kdi_bottom_copper" fill="currentColor" stroke="currentColor" class="fEr5CGI8bJjzhow03Kdi_cu"/><use xlink:href="#fEr5CGI8bJjzhow03Kdi_bottom_copper" fill="currentColor" stroke="currentColor" class="fEr5CGI8bJjzhow03Kdi_cf" mask="url(#fEr5CGI8bJjzhow03Kdi_bottom_cf-mask)"/><g mask="url(#fEr5CGI8bJjzhow03Kdi_bottom_sm-mask)"><rect x="0" y="0" width="70000" height="50000" fill="currentColor" class="fEr5CGI8bJjzhow03Kdi_sm"/><use xlink:href="#fEr5CGI8bJjzhow03Kdi_bottom_silkscreen" fill="currentColor" stroke="currentColor" class="fEr5CGI8bJjzhow03Kdi_ss"/></g><use xlink:href="#fEr5CGI8bJjzhow03Kdi_bottom_solderpaste" fill="currentColor" stroke="currentColor" class="fEr5CGI8bJjzhow03Kdi_sp"/></g></g></svg>