G04 This is an RS-274x file exported by *
G04 gerbv version 2.6A *
G04 More information is available about gerbv at *
G04 http://gerbv.geda-project.org/ *
G04 --End of header info--*
%MOIN*%
%FSLAX34Y34*%
%IPPOS*%
G04 --Define apertures--*
%ADD10C,0.0000*%
%ADD11C,0.0100*%
%ADD12C,0.0030*%
%ADD13C,0.0040*%
%ADD14C,0.0080*%
%ADD15C,0.0050*%
%ADD16R,0.0492X0.2441*%
%ADD17R,0.2441X0.0492*%
%ADD18C,0.0028*%
%ADD19R,0.0236X0.0709*%
%ADD20R,0.0236X0.0433*%
G04 --Start main section--*
G54D10*
G01X0001330Y0002719D02*
G01X0001330Y0017286D01*
G01X0001330Y0017286D02*
G01X0001723Y0017286D01*
G01X0001723Y0017286D02*
G01X0001723Y0021616D01*
G01X0001723Y0021616D02*
G01X0001330Y0021616D01*
G01X0001330Y0021616D02*
G01X0001330Y0036183D01*
G01X0001330Y0036183D02*
G01X0040385Y0036183D01*
G01X0040385Y0036183D02*
G01X0040385Y0021616D01*
G01X0040385Y0021616D02*
G01X0039991Y0021616D01*
G01X0039991Y0021616D02*
G01X0039991Y0017286D01*
G01X0039991Y0017286D02*
G01X0040385Y0017286D01*
G01X0040385Y0017286D02*
G01X0040385Y0008703D01*
G01X0040385Y0008703D02*
G01X0024560Y0008703D01*
G01X0024560Y0008703D02*
G01X0024560Y0010140D01*
G01X0024560Y0010140D02*
G01X0018023Y0010140D01*
G01X0018023Y0010140D02*
G01X0018023Y0002719D01*
G01X0018023Y0002719D02*
G01X0001330Y0002719D01*
G01X0003633Y0009609D02*
G01X0003633Y0009623D01*
G01X0003633Y0009623D02*
G01X0003634Y0009637D01*
G01X0003634Y0009637D02*
G01X0003635Y0009650D01*
G01X0003635Y0009650D02*
G01X0003636Y0009664D01*
G01X0003636Y0009664D02*
G01X0003638Y0009678D01*
G01X0003638Y0009678D02*
G01X0003640Y0009692D01*
G01X0003640Y0009692D02*
G01X0003643Y0009706D01*
G01X0003643Y0009706D02*
G01X0003646Y0009720D01*
G01X0003646Y0009720D02*
G01X0003649Y0009733D01*
G01X0003649Y0009733D02*
G01X0003653Y0009747D01*
G01X0003653Y0009747D02*
G01X0003657Y0009760D01*
G01X0003657Y0009760D02*
G01X0003661Y0009773D01*
G01X0003661Y0009773D02*
G01X0003666Y0009786D01*
G01X0003666Y0009786D02*
G01X0003671Y0009799D01*
G01X0003671Y0009799D02*
G01X0003677Y0009812D01*
G01X0003677Y0009812D02*
G01X0003683Y0009825D01*
G01X0003683Y0009825D02*
G01X0003689Y0009837D01*
G01X0003689Y0009837D02*
G01X0003696Y0009850D01*
G01X0003696Y0009850D02*
G01X0003703Y0009862D01*
G01X0003703Y0009862D02*
G01X0003710Y0009874D01*
G01X0003710Y0009874D02*
G01X0003718Y0009885D01*
G01X0003718Y0009885D02*
G01X0003726Y0009897D01*
G01X0003726Y0009897D02*
G01X0003734Y0009908D01*
G01X0003734Y0009908D02*
G01X0003743Y0009919D01*
G01X0003743Y0009919D02*
G01X0003752Y0009930D01*
G01X0003752Y0009930D02*
G01X0003761Y0009940D01*
G01X0003761Y0009940D02*
G01X0003771Y0009950D01*
G01X0003771Y0009950D02*
G01X0003781Y0009960D01*
G01X0003781Y0009960D02*
G01X0003791Y0009970D01*
G01X0003791Y0009970D02*
G01X0003801Y0009979D01*
G01X0003801Y0009979D02*
G01X0003812Y0009988D01*
G01X0003812Y0009988D02*
G01X0003823Y0009997D01*
G01X0003823Y0009997D02*
G01X0003834Y0010005D01*
G01X0003834Y0010005D02*
G01X0003845Y0010014D01*
G01X0003845Y0010014D02*
G01X0003857Y0010021D01*
G01X0003857Y0010021D02*
G01X0003869Y0010029D01*
G01X0003869Y0010029D02*
G01X0003881Y0010036D01*
G01X0003881Y0010036D02*
G01X0003893Y0010043D01*
G01X0003893Y0010043D02*
G01X0003906Y0010049D01*
G01X0003906Y0010049D02*
G01X0003918Y0010055D01*
G01X0003918Y0010055D02*
G01X0003931Y0010061D01*
G01X0003931Y0010061D02*
G01X0003944Y0010066D01*
G01X0003944Y0010066D02*
G01X0003957Y0010071D01*
G01X0003957Y0010071D02*
G01X0003970Y0010076D01*
G01X0003970Y0010076D02*
G01X0003984Y0010080D01*
G01X0003984Y0010080D02*
G01X0003997Y0010084D01*
G01X0003997Y0010084D02*
G01X0004011Y0010087D01*
G01X0004011Y0010087D02*
G01X0004024Y0010090D01*
G01X0004024Y0010090D02*
G01X0004038Y0010093D01*
G01X0004038Y0010093D02*
G01X0004052Y0010095D01*
G01X0004052Y0010095D02*
G01X0004066Y0010097D01*
G01X0004066Y0010097D02*
G01X0004080Y0010099D01*
G01X0004080Y0010099D02*
G01X0004093Y0010100D01*
G01X0004093Y0010100D02*
G01X0004107Y0010100D01*
G01X0004107Y0010100D02*
G01X0004121Y0010101D01*
G01X0004121Y0010101D02*
G01X0004135Y0010100D01*
G01X0004135Y0010100D02*
G01X0004149Y0010100D01*
G01X0004149Y0010100D02*
G01X0004163Y0010099D01*
G01X0004163Y0010099D02*
G01X0004177Y0010098D01*
G01X0004177Y0010098D02*
G01X0004191Y0010096D01*
G01X0004191Y0010096D02*
G01X0004205Y0010094D01*
G01X0004205Y0010094D02*
G01X0004219Y0010092D01*
G01X0004219Y0010092D02*
G01X0004233Y0010089D01*
G01X0004233Y0010089D02*
G01X0004246Y0010086D01*
G01X0004246Y0010086D02*
G01X0004260Y0010082D01*
G01X0004260Y0010082D02*
G01X0004273Y0010078D01*
G01X0004273Y0010078D02*
G01X0004286Y0010073D01*
G01X0004286Y0010073D02*
G01X0004299Y0010069D01*
G01X0004299Y0010069D02*
G01X0004312Y0010064D01*
G01X0004312Y0010064D02*
G01X0004325Y0010058D01*
G01X0004325Y0010058D02*
G01X0004338Y0010052D01*
G01X0004338Y0010052D02*
G01X0004351Y0010046D01*
G01X0004351Y0010046D02*
G01X0004363Y0010039D01*
G01X0004363Y0010039D02*
G01X0004375Y0010032D01*
G01X0004375Y0010032D02*
G01X0004387Y0010025D01*
G01X0004387Y0010025D02*
G01X0004399Y0010017D01*
G01X0004399Y0010017D02*
G01X0004410Y0010010D01*
G01X0004410Y0010010D02*
G01X0004422Y0010001D01*
G01X0004422Y0010001D02*
G01X0004433Y0009993D01*
G01X0004433Y0009993D02*
G01X0004443Y0009984D01*
G01X0004443Y0009984D02*
G01X0004454Y0009975D01*
G01X0004454Y0009975D02*
G01X0004464Y0009965D01*
G01X0004464Y0009965D02*
G01X0004474Y0009955D01*
G01X0004474Y0009955D02*
G01X0004484Y0009945D01*
G01X0004484Y0009945D02*
G01X0004493Y0009935D01*
G01X0004493Y0009935D02*
G01X0004502Y0009924D01*
G01X0004502Y0009924D02*
G01X0004511Y0009913D01*
G01X0004511Y0009913D02*
G01X0004520Y0009902D01*
G01X0004520Y0009902D02*
G01X0004528Y0009891D01*
G01X0004528Y0009891D02*
G01X0004536Y0009879D01*
G01X0004536Y0009879D02*
G01X0004543Y0009868D01*
G01X0004543Y0009868D02*
G01X0004551Y0009856D01*
G01X0004551Y0009856D02*
G01X0004557Y0009843D01*
G01X0004557Y0009843D02*
G01X0004564Y0009831D01*
G01X0004564Y0009831D02*
G01X0004570Y0009818D01*
G01X0004570Y0009818D02*
G01X0004576Y0009806D01*
G01X0004576Y0009806D02*
G01X0004581Y0009793D01*
G01X0004581Y0009793D02*
G01X0004586Y0009780D01*
G01X0004586Y0009780D02*
G01X0004591Y0009767D01*
G01X0004591Y0009767D02*
G01X0004595Y0009753D01*
G01X0004595Y0009753D02*
G01X0004599Y0009740D01*
G01X0004599Y0009740D02*
G01X0004603Y0009726D01*
G01X0004603Y0009726D02*
G01X0004606Y0009713D01*
G01X0004606Y0009713D02*
G01X0004609Y0009699D01*
G01X0004609Y0009699D02*
G01X0004611Y0009685D01*
G01X0004611Y0009685D02*
G01X0004613Y0009671D01*
G01X0004613Y0009671D02*
G01X0004615Y0009657D01*
G01X0004615Y0009657D02*
G01X0004616Y0009643D01*
G01X0004616Y0009643D02*
G01X0004617Y0009630D01*
G01X0004617Y0009630D02*
G01X0004617Y0009616D01*
G01X0004617Y0009616D02*
G01X0004617Y0009602D01*
G01X0004617Y0009602D02*
G01X0004617Y0009588D01*
G01X0004617Y0009588D02*
G01X0004616Y0009574D01*
G01X0004616Y0009574D02*
G01X0004615Y0009560D01*
G01X0004615Y0009560D02*
G01X0004613Y0009546D01*
G01X0004613Y0009546D02*
G01X0004611Y0009532D01*
G01X0004611Y0009532D02*
G01X0004609Y0009518D01*
G01X0004609Y0009518D02*
G01X0004606Y0009504D01*
G01X0004606Y0009504D02*
G01X0004603Y0009491D01*
G01X0004603Y0009491D02*
G01X0004599Y0009477D01*
G01X0004599Y0009477D02*
G01X0004595Y0009464D01*
G01X0004595Y0009464D02*
G01X0004591Y0009451D01*
G01X0004591Y0009451D02*
G01X0004586Y0009437D01*
G01X0004586Y0009437D02*
G01X0004581Y0009424D01*
G01X0004581Y0009424D02*
G01X0004576Y0009411D01*
G01X0004576Y0009411D02*
G01X0004570Y0009399D01*
G01X0004570Y0009399D02*
G01X0004564Y0009386D01*
G01X0004564Y0009386D02*
G01X0004557Y0009374D01*
G01X0004557Y0009374D02*
G01X0004551Y0009361D01*
G01X0004551Y0009361D02*
G01X0004543Y0009349D01*
G01X0004543Y0009349D02*
G01X0004536Y0009338D01*
G01X0004536Y0009338D02*
G01X0004528Y0009326D01*
G01X0004528Y0009326D02*
G01X0004520Y0009315D01*
G01X0004520Y0009315D02*
G01X0004511Y0009304D01*
G01X0004511Y0009304D02*
G01X0004502Y0009293D01*
G01X0004502Y0009293D02*
G01X0004493Y0009282D01*
G01X0004493Y0009282D02*
G01X0004484Y0009272D01*
G01X0004484Y0009272D02*
G01X0004474Y0009262D01*
G01X0004474Y0009262D02*
G01X0004464Y0009252D01*
G01X0004464Y0009252D02*
G01X0004454Y0009243D01*
G01X0004454Y0009243D02*
G01X0004443Y0009233D01*
G01X0004443Y0009233D02*
G01X0004433Y0009224D01*
G01X0004433Y0009224D02*
G01X0004422Y0009216D01*
G01X0004422Y0009216D02*
G01X0004410Y0009208D01*
G01X0004410Y0009208D02*
G01X0004399Y0009200D01*
G01X0004399Y0009200D02*
G01X0004387Y0009192D01*
G01X0004387Y0009192D02*
G01X0004375Y0009185D01*
G01X0004375Y0009185D02*
G01X0004363Y0009178D01*
G01X0004363Y0009178D02*
G01X0004351Y0009171D01*
G01X0004351Y0009171D02*
G01X0004338Y0009165D01*
G01X0004338Y0009165D02*
G01X0004325Y0009159D01*
G01X0004325Y0009159D02*
G01X0004312Y0009154D01*
G01X0004312Y0009154D02*
G01X0004299Y0009148D01*
G01X0004299Y0009148D02*
G01X0004286Y0009144D01*
G01X0004286Y0009144D02*
G01X0004273Y0009139D01*
G01X0004273Y0009139D02*
G01X0004260Y0009135D01*
G01X0004260Y0009135D02*
G01X0004246Y0009132D01*
G01X0004246Y0009132D02*
G01X0004233Y0009128D01*
G01X0004233Y0009128D02*
G01X0004219Y0009125D01*
G01X0004219Y0009125D02*
G01X0004205Y0009123D01*
G01X0004205Y0009123D02*
G01X0004191Y0009121D01*
G01X0004191Y0009121D02*
G01X0004177Y0009119D01*
G01X0004177Y0009119D02*
G01X0004163Y0009118D01*
G01X0004163Y0009118D02*
G01X0004149Y0009117D01*
G01X0004149Y0009117D02*
G01X0004135Y0009117D01*
G01X0004135Y0009117D02*
G01X0004121Y0009116D01*
G01X0004121Y0009116D02*
G01X0004107Y0009117D01*
G01X0004107Y0009117D02*
G01X0004093Y0009117D01*
G01X0004093Y0009117D02*
G01X0004080Y0009119D01*
G01X0004080Y0009119D02*
G01X0004066Y0009120D01*
G01X0004066Y0009120D02*
G01X0004052Y0009122D01*
G01X0004052Y0009122D02*
G01X0004038Y0009124D01*
G01X0004038Y0009124D02*
G01X0004024Y0009127D01*
G01X0004024Y0009127D02*
G01X0004011Y0009130D01*
G01X0004011Y0009130D02*
G01X0003997Y0009133D01*
G01X0003997Y0009133D02*
G01X0003984Y0009137D01*
G01X0003984Y0009137D02*
G01X0003970Y0009141D01*
G01X0003970Y0009141D02*
G01X0003957Y0009146D01*
G01X0003957Y0009146D02*
G01X0003944Y0009151D01*
G01X0003944Y0009151D02*
G01X0003931Y0009156D01*
G01X0003931Y0009156D02*
G01X0003918Y0009162D01*
G01X0003918Y0009162D02*
G01X0003906Y0009168D01*
G01X0003906Y0009168D02*
G01X0003893Y0009174D01*
G01X0003893Y0009174D02*
G01X0003881Y0009181D01*
G01X0003881Y0009181D02*
G01X0003869Y0009188D01*
G01X0003869Y0009188D02*
G01X0003857Y0009196D01*
G01X0003857Y0009196D02*
G01X0003845Y0009204D01*
G01X0003845Y0009204D02*
G01X0003834Y0009212D01*
G01X0003834Y0009212D02*
G01X0003823Y0009220D01*
G01X0003823Y0009220D02*
G01X0003812Y0009229D01*
G01X0003812Y0009229D02*
G01X0003801Y0009238D01*
G01X0003801Y0009238D02*
G01X0003791Y0009247D01*
G01X0003791Y0009247D02*
G01X0003781Y0009257D01*
G01X0003781Y0009257D02*
G01X0003771Y0009267D01*
G01X0003771Y0009267D02*
G01X0003761Y0009277D01*
G01X0003761Y0009277D02*
G01X0003752Y0009287D01*
G01X0003752Y0009287D02*
G01X0003743Y0009298D01*
G01X0003743Y0009298D02*
G01X0003734Y0009309D01*
G01X0003734Y0009309D02*
G01X0003726Y0009320D01*
G01X0003726Y0009320D02*
G01X0003718Y0009332D01*
G01X0003718Y0009332D02*
G01X0003710Y0009344D01*
G01X0003710Y0009344D02*
G01X0003703Y0009355D01*
G01X0003703Y0009355D02*
G01X0003696Y0009368D01*
G01X0003696Y0009368D02*
G01X0003689Y0009380D01*
G01X0003689Y0009380D02*
G01X0003683Y0009392D01*
G01X0003683Y0009392D02*
G01X0003677Y0009405D01*
G01X0003677Y0009405D02*
G01X0003671Y0009418D01*
G01X0003671Y0009418D02*
G01X0003666Y0009431D01*
G01X0003666Y0009431D02*
G01X0003661Y0009444D01*
G01X0003661Y0009444D02*
G01X0003657Y0009457D01*
G01X0003657Y0009457D02*
G01X0003653Y0009471D01*
G01X0003653Y0009471D02*
G01X0003649Y0009484D01*
G01X0003649Y0009484D02*
G01X0003646Y0009498D01*
G01X0003646Y0009498D02*
G01X0003643Y0009511D01*
G01X0003643Y0009511D02*
G01X0003640Y0009525D01*
G01X0003640Y0009525D02*
G01X0003638Y0009539D01*
G01X0003638Y0009539D02*
G01X0003636Y0009553D01*
G01X0003636Y0009553D02*
G01X0003635Y0009567D01*
G01X0003635Y0009567D02*
G01X0003634Y0009581D01*
G01X0003634Y0009581D02*
G01X0003633Y0009595D01*
G01X0003633Y0009595D02*
G01X0003633Y0009609D01*
G01X0018121Y0011971D02*
G01X0018121Y0011985D01*
G01X0018121Y0011985D02*
G01X0018122Y0012000D01*
G01X0018122Y0012000D02*
G01X0018123Y0012014D01*
G01X0018123Y0012014D02*
G01X0018124Y0012029D01*
G01X0018124Y0012029D02*
G01X0018126Y0012043D01*
G01X0018126Y0012043D02*
G01X0018128Y0012057D01*
G01X0018128Y0012057D02*
G01X0018131Y0012072D01*
G01X0018131Y0012072D02*
G01X0018134Y0012086D01*
G01X0018134Y0012086D02*
G01X0018137Y0012100D01*
G01X0018137Y0012100D02*
G01X0018141Y0012114D01*
G01X0018141Y0012114D02*
G01X0018145Y0012128D01*
G01X0018145Y0012128D02*
G01X0018149Y0012142D01*
G01X0018149Y0012142D02*
G01X0018154Y0012155D01*
G01X0018154Y0012155D02*
G01X0018159Y0012169D01*
G01X0018159Y0012169D02*
G01X0018165Y0012183D01*
G01X0018165Y0012183D02*
G01X0018171Y0012196D01*
G01X0018171Y0012196D02*
G01X0018177Y0012209D01*
G01X0018177Y0012209D02*
G01X0018184Y0012222D01*
G01X0018184Y0012222D02*
G01X0018191Y0012234D01*
G01X0018191Y0012234D02*
G01X0018198Y0012247D01*
G01X0018198Y0012247D02*
G01X0018206Y0012259D01*
G01X0018206Y0012259D02*
G01X0018214Y0012271D01*
G01X0018214Y0012271D02*
G01X0018223Y0012283D01*
G01X0018223Y0012283D02*
G01X0018231Y0012295D01*
G01X0018231Y0012295D02*
G01X0018240Y0012306D01*
G01X0018240Y0012306D02*
G01X0018250Y0012317D01*
G01X0018250Y0012317D02*
G01X0018259Y0012328D01*
G01X0018259Y0012328D02*
G01X0018269Y0012339D01*
G01X0018269Y0012339D02*
G01X0018279Y0012349D01*
G01X0018279Y0012349D02*
G01X0018290Y0012359D01*
G01X0018290Y0012359D02*
G01X0018301Y0012369D01*
G01X0018301Y0012369D02*
G01X0018312Y0012378D01*
G01X0018312Y0012378D02*
G01X0018323Y0012388D01*
G01X0018323Y0012388D02*
G01X0018334Y0012396D01*
G01X0018334Y0012396D02*
G01X0018346Y0012405D01*
G01X0018346Y0012405D02*
G01X0018358Y0012413D01*
G01X0018358Y0012413D02*
G01X0018370Y0012421D01*
G01X0018370Y0012421D02*
G01X0018383Y0012429D01*
G01X0018383Y0012429D02*
G01X0018395Y0012436D01*
G01X0018395Y0012436D02*
G01X0018408Y0012443D01*
G01X0018408Y0012443D02*
G01X0018421Y0012449D01*
G01X0018421Y0012449D02*
G01X0018434Y0012455D01*
G01X0018434Y0012455D02*
G01X0018447Y0012461D01*
G01X0018447Y0012461D02*
G01X0018461Y0012467D01*
G01X0018461Y0012467D02*
G01X0018475Y0012472D01*
G01X0018475Y0012472D02*
G01X0018488Y0012476D01*
G01X0018488Y0012476D02*
G01X0018502Y0012481D01*
G01X0018502Y0012481D02*
G01X0018516Y0012484D01*
G01X0018516Y0012484D02*
G01X0018530Y0012488D01*
G01X0018530Y0012488D02*
G01X0018544Y0012491D01*
G01X0018544Y0012491D02*
G01X0018559Y0012494D01*
G01X0018559Y0012494D02*
G01X0018573Y0012496D01*
G01X0018573Y0012496D02*
G01X0018587Y0012498D01*
G01X0018587Y0012498D02*
G01X0018602Y0012500D01*
G01X0018602Y0012500D02*
G01X0018616Y0012501D01*
G01X0018616Y0012501D02*
G01X0018631Y0012502D01*
G01X0018631Y0012502D02*
G01X0018645Y0012502D01*
G01X0018645Y0012502D02*
G01X0018660Y0012502D01*
G01X0018660Y0012502D02*
G01X0018674Y0012502D01*
G01X0018674Y0012502D02*
G01X0018689Y0012501D01*
G01X0018689Y0012501D02*
G01X0018703Y0012500D01*
G01X0018703Y0012500D02*
G01X0018718Y0012498D01*
G01X0018718Y0012498D02*
G01X0018732Y0012496D01*
G01X0018732Y0012496D02*
G01X0018746Y0012494D01*
G01X0018746Y0012494D02*
G01X0018761Y0012491D01*
G01X0018761Y0012491D02*
G01X0018775Y0012488D01*
G01X0018775Y0012488D02*
G01X0018789Y0012484D01*
G01X0018789Y0012484D02*
G01X0018803Y0012481D01*
G01X0018803Y0012481D02*
G01X0018817Y0012476D01*
G01X0018817Y0012476D02*
G01X0018831Y0012472D01*
G01X0018831Y0012472D02*
G01X0018844Y0012467D01*
G01X0018844Y0012467D02*
G01X0018858Y0012461D01*
G01X0018858Y0012461D02*
G01X0018871Y0012455D01*
G01X0018871Y0012455D02*
G01X0018884Y0012449D01*
G01X0018884Y0012449D02*
G01X0018897Y0012443D01*
G01X0018897Y0012443D02*
G01X0018910Y0012436D01*
G01X0018910Y0012436D02*
G01X0018922Y0012429D01*
G01X0018922Y0012429D02*
G01X0018935Y0012421D01*
G01X0018935Y0012421D02*
G01X0018947Y0012413D01*
G01X0018947Y0012413D02*
G01X0018959Y0012405D01*
G01X0018959Y0012405D02*
G01X0018971Y0012396D01*
G01X0018971Y0012396D02*
G01X0018982Y0012388D01*
G01X0018982Y0012388D02*
G01X0018994Y0012378D01*
G01X0018994Y0012378D02*
G01X0019005Y0012369D01*
G01X0019005Y0012369D02*
G01X0019015Y0012359D01*
G01X0019015Y0012359D02*
G01X0019026Y0012349D01*
G01X0019026Y0012349D02*
G01X0019036Y0012339D01*
G01X0019036Y0012339D02*
G01X0019046Y0012328D01*
G01X0019046Y0012328D02*
G01X0019056Y0012317D01*
G01X0019056Y0012317D02*
G01X0019065Y0012306D01*
G01X0019065Y0012306D02*
G01X0019074Y0012295D01*
G01X0019074Y0012295D02*
G01X0019083Y0012283D01*
G01X0019083Y0012283D02*
G01X0019091Y0012271D01*
G01X0019091Y0012271D02*
G01X0019099Y0012259D01*
G01X0019099Y0012259D02*
G01X0019107Y0012247D01*
G01X0019107Y0012247D02*
G01X0019114Y0012234D01*
G01X0019114Y0012234D02*
G01X0019121Y0012222D01*
G01X0019121Y0012222D02*
G01X0019128Y0012209D01*
G01X0019128Y0012209D02*
G01X0019134Y0012196D01*
G01X0019134Y0012196D02*
G01X0019140Y0012183D01*
G01X0019140Y0012183D02*
G01X0019146Y0012169D01*
G01X0019146Y0012169D02*
G01X0019151Y0012155D01*
G01X0019151Y0012155D02*
G01X0019156Y0012142D01*
G01X0019156Y0012142D02*
G01X0019160Y0012128D01*
G01X0019160Y0012128D02*
G01X0019164Y0012114D01*
G01X0019164Y0012114D02*
G01X0019168Y0012100D01*
G01X0019168Y0012100D02*
G01X0019171Y0012086D01*
G01X0019171Y0012086D02*
G01X0019174Y0012072D01*
G01X0019174Y0012072D02*
G01X0019177Y0012057D01*
G01X0019177Y0012057D02*
G01X0019179Y0012043D01*
G01X0019179Y0012043D02*
G01X0019181Y0012029D01*
G01X0019181Y0012029D02*
G01X0019182Y0012014D01*
G01X0019182Y0012014D02*
G01X0019183Y0012000D01*
G01X0019183Y0012000D02*
G01X0019184Y0011985D01*
G01X0019184Y0011985D02*
G01X0019184Y0011971D01*
G01X0019184Y0011971D02*
G01X0019184Y0011956D01*
G01X0019184Y0011956D02*
G01X0019183Y0011942D01*
G01X0019183Y0011942D02*
G01X0019182Y0011927D01*
G01X0019182Y0011927D02*
G01X0019181Y0011913D01*
G01X0019181Y0011913D02*
G01X0019179Y0011898D01*
G01X0019179Y0011898D02*
G01X0019177Y0011884D01*
G01X0019177Y0011884D02*
G01X0019174Y0011870D01*
G01X0019174Y0011870D02*
G01X0019171Y0011856D01*
G01X0019171Y0011856D02*
G01X0019168Y0011841D01*
G01X0019168Y0011841D02*
G01X0019164Y0011827D01*
G01X0019164Y0011827D02*
G01X0019160Y0011813D01*
G01X0019160Y0011813D02*
G01X0019156Y0011800D01*
G01X0019156Y0011800D02*
G01X0019151Y0011786D01*
G01X0019151Y0011786D02*
G01X0019146Y0011772D01*
G01X0019146Y0011772D02*
G01X0019140Y0011759D01*
G01X0019140Y0011759D02*
G01X0019134Y0011746D01*
G01X0019134Y0011746D02*
G01X0019128Y0011733D01*
G01X0019128Y0011733D02*
G01X0019121Y0011720D01*
G01X0019121Y0011720D02*
G01X0019114Y0011707D01*
G01X0019114Y0011707D02*
G01X0019107Y0011695D01*
G01X0019107Y0011695D02*
G01X0019099Y0011682D01*
G01X0019099Y0011682D02*
G01X0019091Y0011670D01*
G01X0019091Y0011670D02*
G01X0019083Y0011658D01*
G01X0019083Y0011658D02*
G01X0019074Y0011647D01*
G01X0019074Y0011647D02*
G01X0019065Y0011635D01*
G01X0019065Y0011635D02*
G01X0019056Y0011624D01*
G01X0019056Y0011624D02*
G01X0019046Y0011613D01*
G01X0019046Y0011613D02*
G01X0019036Y0011603D01*
G01X0019036Y0011603D02*
G01X0019026Y0011592D01*
G01X0019026Y0011592D02*
G01X0019015Y0011582D01*
G01X0019015Y0011582D02*
G01X0019005Y0011572D01*
G01X0019005Y0011572D02*
G01X0018994Y0011563D01*
G01X0018994Y0011563D02*
G01X0018982Y0011554D01*
G01X0018982Y0011554D02*
G01X0018971Y0011545D01*
G01X0018971Y0011545D02*
G01X0018959Y0011537D01*
G01X0018959Y0011537D02*
G01X0018947Y0011528D01*
G01X0018947Y0011528D02*
G01X0018935Y0011520D01*
G01X0018935Y0011520D02*
G01X0018922Y0011513D01*
G01X0018922Y0011513D02*
G01X0018910Y0011506D01*
G01X0018910Y0011506D02*
G01X0018897Y0011499D01*
G01X0018897Y0011499D02*
G01X0018884Y0011492D01*
G01X0018884Y0011492D02*
G01X0018871Y0011486D01*
G01X0018871Y0011486D02*
G01X0018858Y0011480D01*
G01X0018858Y0011480D02*
G01X0018844Y0011475D01*
G01X0018844Y0011475D02*
G01X0018831Y0011470D01*
G01X0018831Y0011470D02*
G01X0018817Y0011465D01*
G01X0018817Y0011465D02*
G01X0018803Y0011461D01*
G01X0018803Y0011461D02*
G01X0018789Y0011457D01*
G01X0018789Y0011457D02*
G01X0018775Y0011454D01*
G01X0018775Y0011454D02*
G01X0018761Y0011450D01*
G01X0018761Y0011450D02*
G01X0018746Y0011448D01*
G01X0018746Y0011448D02*
G01X0018732Y0011445D01*
G01X0018732Y0011445D02*
G01X0018718Y0011443D01*
G01X0018718Y0011443D02*
G01X0018703Y0011442D01*
G01X0018703Y0011442D02*
G01X0018689Y0011440D01*
G01X0018689Y0011440D02*
G01X0018674Y0011440D01*
G01X0018674Y0011440D02*
G01X0018660Y0011439D01*
G01X0018660Y0011439D02*
G01X0018645Y0011439D01*
G01X0018645Y0011439D02*
G01X0018631Y0011440D01*
G01X0018631Y0011440D02*
G01X0018616Y0011440D01*
G01X0018616Y0011440D02*
G01X0018602Y0011442D01*
G01X0018602Y0011442D02*
G01X0018587Y0011443D01*
G01X0018587Y0011443D02*
G01X0018573Y0011445D01*
G01X0018573Y0011445D02*
G01X0018559Y0011448D01*
G01X0018559Y0011448D02*
G01X0018544Y0011450D01*
G01X0018544Y0011450D02*
G01X0018530Y0011454D01*
G01X0018530Y0011454D02*
G01X0018516Y0011457D01*
G01X0018516Y0011457D02*
G01X0018502Y0011461D01*
G01X0018502Y0011461D02*
G01X0018488Y0011465D01*
G01X0018488Y0011465D02*
G01X0018475Y0011470D01*
G01X0018475Y0011470D02*
G01X0018461Y0011475D01*
G01X0018461Y0011475D02*
G01X0018447Y0011480D01*
G01X0018447Y0011480D02*
G01X0018434Y0011486D01*
G01X0018434Y0011486D02*
G01X0018421Y0011492D01*
G01X0018421Y0011492D02*
G01X0018408Y0011499D01*
G01X0018408Y0011499D02*
G01X0018395Y0011506D01*
G01X0018395Y0011506D02*
G01X0018383Y0011513D01*
G01X0018383Y0011513D02*
G01X0018370Y0011520D01*
G01X0018370Y0011520D02*
G01X0018358Y0011528D01*
G01X0018358Y0011528D02*
G01X0018346Y0011537D01*
G01X0018346Y0011537D02*
G01X0018334Y0011545D01*
G01X0018334Y0011545D02*
G01X0018323Y0011554D01*
G01X0018323Y0011554D02*
G01X0018312Y0011563D01*
G01X0018312Y0011563D02*
G01X0018301Y0011572D01*
G01X0018301Y0011572D02*
G01X0018290Y0011582D01*
G01X0018290Y0011582D02*
G01X0018279Y0011592D01*
G01X0018279Y0011592D02*
G01X0018269Y0011603D01*
G01X0018269Y0011603D02*
G01X0018259Y0011613D01*
G01X0018259Y0011613D02*
G01X0018250Y0011624D01*
G01X0018250Y0011624D02*
G01X0018240Y0011635D01*
G01X0018240Y0011635D02*
G01X0018231Y0011647D01*
G01X0018231Y0011647D02*
G01X0018223Y0011658D01*
G01X0018223Y0011658D02*
G01X0018214Y0011670D01*
G01X0018214Y0011670D02*
G01X0018206Y0011682D01*
G01X0018206Y0011682D02*
G01X0018198Y0011695D01*
G01X0018198Y0011695D02*
G01X0018191Y0011707D01*
G01X0018191Y0011707D02*
G01X0018184Y0011720D01*
G01X0018184Y0011720D02*
G01X0018177Y0011733D01*
G01X0018177Y0011733D02*
G01X0018171Y0011746D01*
G01X0018171Y0011746D02*
G01X0018165Y0011759D01*
G01X0018165Y0011759D02*
G01X0018159Y0011772D01*
G01X0018159Y0011772D02*
G01X0018154Y0011786D01*
G01X0018154Y0011786D02*
G01X0018149Y0011800D01*
G01X0018149Y0011800D02*
G01X0018145Y0011813D01*
G01X0018145Y0011813D02*
G01X0018141Y0011827D01*
G01X0018141Y0011827D02*
G01X0018137Y0011841D01*
G01X0018137Y0011841D02*
G01X0018134Y0011856D01*
G01X0018134Y0011856D02*
G01X0018131Y0011870D01*
G01X0018131Y0011870D02*
G01X0018128Y0011884D01*
G01X0018128Y0011884D02*
G01X0018126Y0011898D01*
G01X0018126Y0011898D02*
G01X0018124Y0011913D01*
G01X0018124Y0011913D02*
G01X0018123Y0011927D01*
G01X0018123Y0011927D02*
G01X0018122Y0011942D01*
G01X0018122Y0011942D02*
G01X0018121Y0011956D01*
G01X0018121Y0011956D02*
G01X0018121Y0011971D01*
G01X0037097Y0029294D02*
G01X0037098Y0029308D01*
G01X0037098Y0029308D02*
G01X0037098Y0029322D01*
G01X0037098Y0029322D02*
G01X0037099Y0029335D01*
G01X0037099Y0029335D02*
G01X0037101Y0029349D01*
G01X0037101Y0029349D02*
G01X0037102Y0029363D01*
G01X0037102Y0029363D02*
G01X0037105Y0029377D01*
G01X0037105Y0029377D02*
G01X0037107Y0029391D01*
G01X0037107Y0029391D02*
G01X0037110Y0029404D01*
G01X0037110Y0029404D02*
G01X0037113Y0029418D01*
G01X0037113Y0029418D02*
G01X0037117Y0029432D01*
G01X0037117Y0029432D02*
G01X0037121Y0029445D01*
G01X0037121Y0029445D02*
G01X0037126Y0029458D01*
G01X0037126Y0029458D02*
G01X0037131Y0029471D01*
G01X0037131Y0029471D02*
G01X0037136Y0029484D01*
G01X0037136Y0029484D02*
G01X0037142Y0029497D01*
G01X0037142Y0029497D02*
G01X0037147Y0029510D01*
G01X0037147Y0029510D02*
G01X0037154Y0029522D01*
G01X0037154Y0029522D02*
G01X0037160Y0029535D01*
G01X0037160Y0029535D02*
G01X0037168Y0029547D01*
G01X0037168Y0029547D02*
G01X0037175Y0029559D01*
G01X0037175Y0029559D02*
G01X0037183Y0029570D01*
G01X0037183Y0029570D02*
G01X0037191Y0029582D01*
G01X0037191Y0029582D02*
G01X0037199Y0029593D01*
G01X0037199Y0029593D02*
G01X0037208Y0029604D01*
G01X0037208Y0029604D02*
G01X0037217Y0029615D01*
G01X0037217Y0029615D02*
G01X0037226Y0029625D01*
G01X0037226Y0029625D02*
G01X0037235Y0029635D01*
G01X0037235Y0029635D02*
G01X0037245Y0029645D01*
G01X0037245Y0029645D02*
G01X0037255Y0029655D01*
G01X0037255Y0029655D02*
G01X0037266Y0029664D01*
G01X0037266Y0029664D02*
G01X0037277Y0029673D01*
G01X0037277Y0029673D02*
G01X0037287Y0029682D01*
G01X0037287Y0029682D02*
G01X0037299Y0029690D01*
G01X0037299Y0029690D02*
G01X0037310Y0029699D01*
G01X0037310Y0029699D02*
G01X0037322Y0029706D01*
G01X0037322Y0029706D02*
G01X0037333Y0029714D01*
G01X0037333Y0029714D02*
G01X0037346Y0029721D01*
G01X0037346Y0029721D02*
G01X0037358Y0029728D01*
G01X0037358Y0029728D02*
G01X0037370Y0029734D01*
G01X0037370Y0029734D02*
G01X0037383Y0029740D01*
G01X0037383Y0029740D02*
G01X0037396Y0029746D01*
G01X0037396Y0029746D02*
G01X0037409Y0029751D01*
G01X0037409Y0029751D02*
G01X0037422Y0029756D01*
G01X0037422Y0029756D02*
G01X0037435Y0029761D01*
G01X0037435Y0029761D02*
G01X0037448Y0029765D01*
G01X0037448Y0029765D02*
G01X0037462Y0029769D01*
G01X0037462Y0029769D02*
G01X0037475Y0029772D01*
G01X0037475Y0029772D02*
G01X0037489Y0029775D01*
G01X0037489Y0029775D02*
G01X0037503Y0029778D01*
G01X0037503Y0029778D02*
G01X0037516Y0029780D01*
G01X0037516Y0029780D02*
G01X0037530Y0029782D01*
G01X0037530Y0029782D02*
G01X0037544Y0029784D01*
G01X0037544Y0029784D02*
G01X0037558Y0029785D01*
G01X0037558Y0029785D02*
G01X0037572Y0029785D01*
G01X0037572Y0029785D02*
G01X0037586Y0029786D01*
G01X0037586Y0029786D02*
G01X0037600Y0029785D01*
G01X0037600Y0029785D02*
G01X0037614Y0029785D01*
G01X0037614Y0029785D02*
G01X0037628Y0029784D01*
G01X0037628Y0029784D02*
G01X0037642Y0029783D01*
G01X0037642Y0029783D02*
G01X0037656Y0029781D01*
G01X0037656Y0029781D02*
G01X0037670Y0029779D01*
G01X0037670Y0029779D02*
G01X0037683Y0029777D01*
G01X0037683Y0029777D02*
G01X0037697Y0029774D01*
G01X0037697Y0029774D02*
G01X0037711Y0029771D01*
G01X0037711Y0029771D02*
G01X0037724Y0029767D01*
G01X0037724Y0029767D02*
G01X0037738Y0029763D01*
G01X0037738Y0029763D02*
G01X0037751Y0029758D01*
G01X0037751Y0029758D02*
G01X0037764Y0029754D01*
G01X0037764Y0029754D02*
G01X0037777Y0029749D01*
G01X0037777Y0029749D02*
G01X0037790Y0029743D01*
G01X0037790Y0029743D02*
G01X0037803Y0029737D01*
G01X0037803Y0029737D02*
G01X0037815Y0029731D01*
G01X0037815Y0029731D02*
G01X0037827Y0029724D01*
G01X0037827Y0029724D02*
G01X0037840Y0029717D01*
G01X0037840Y0029717D02*
G01X0037852Y0029710D01*
G01X0037852Y0029710D02*
G01X0037863Y0029702D01*
G01X0037863Y0029702D02*
G01X0037875Y0029695D01*
G01X0037875Y0029695D02*
G01X0037886Y0029686D01*
G01X0037886Y0029686D02*
G01X0037897Y0029678D01*
G01X0037897Y0029678D02*
G01X0037908Y0029669D01*
G01X0037908Y0029669D02*
G01X0037918Y0029660D01*
G01X0037918Y0029660D02*
G01X0037929Y0029650D01*
G01X0037929Y0029650D02*
G01X0037939Y0029640D01*
G01X0037939Y0029640D02*
G01X0037948Y0029630D01*
G01X0037948Y0029630D02*
G01X0037958Y0029620D01*
G01X0037958Y0029620D02*
G01X0037967Y0029609D01*
G01X0037967Y0029609D02*
G01X0037976Y0029598D01*
G01X0037976Y0029598D02*
G01X0037984Y0029587D01*
G01X0037984Y0029587D02*
G01X0037993Y0029576D01*
G01X0037993Y0029576D02*
G01X0038000Y0029564D01*
G01X0038000Y0029564D02*
G01X0038008Y0029553D01*
G01X0038008Y0029553D02*
G01X0038015Y0029541D01*
G01X0038015Y0029541D02*
G01X0038022Y0029528D01*
G01X0038022Y0029528D02*
G01X0038028Y0029516D01*
G01X0038028Y0029516D02*
G01X0038035Y0029503D01*
G01X0038035Y0029503D02*
G01X0038040Y0029491D01*
G01X0038040Y0029491D02*
G01X0038046Y0029478D01*
G01X0038046Y0029478D02*
G01X0038051Y0029465D01*
G01X0038051Y0029465D02*
G01X0038056Y0029452D01*
G01X0038056Y0029452D02*
G01X0038060Y0029438D01*
G01X0038060Y0029438D02*
G01X0038064Y0029425D01*
G01X0038064Y0029425D02*
G01X0038067Y0029411D01*
G01X0038067Y0029411D02*
G01X0038071Y0029398D01*
G01X0038071Y0029398D02*
G01X0038073Y0029384D01*
G01X0038073Y0029384D02*
G01X0038076Y0029370D01*
G01X0038076Y0029370D02*
G01X0038078Y0029356D01*
G01X0038078Y0029356D02*
G01X0038079Y0029342D01*
G01X0038079Y0029342D02*
G01X0038080Y0029328D01*
G01X0038080Y0029328D02*
G01X0038081Y0029315D01*
G01X0038081Y0029315D02*
G01X0038082Y0029301D01*
G01X0038082Y0029301D02*
G01X0038082Y0029287D01*
G01X0038082Y0029287D02*
G01X0038081Y0029273D01*
G01X0038081Y0029273D02*
G01X0038080Y0029259D01*
G01X0038080Y0029259D02*
G01X0038079Y0029245D01*
G01X0038079Y0029245D02*
G01X0038078Y0029231D01*
G01X0038078Y0029231D02*
G01X0038076Y0029217D01*
G01X0038076Y0029217D02*
G01X0038073Y0029203D01*
G01X0038073Y0029203D02*
G01X0038071Y0029189D01*
G01X0038071Y0029189D02*
G01X0038067Y0029176D01*
G01X0038067Y0029176D02*
G01X0038064Y0029162D01*
G01X0038064Y0029162D02*
G01X0038060Y0029149D01*
G01X0038060Y0029149D02*
G01X0038056Y0029136D01*
G01X0038056Y0029136D02*
G01X0038051Y0029122D01*
G01X0038051Y0029122D02*
G01X0038046Y0029109D01*
G01X0038046Y0029109D02*
G01X0038040Y0029096D01*
G01X0038040Y0029096D02*
G01X0038035Y0029084D01*
G01X0038035Y0029084D02*
G01X0038028Y0029071D01*
G01X0038028Y0029071D02*
G01X0038022Y0029059D01*
G01X0038022Y0029059D02*
G01X0038015Y0029046D01*
G01X0038015Y0029046D02*
G01X0038008Y0029034D01*
G01X0038008Y0029034D02*
G01X0038000Y0029023D01*
G01X0038000Y0029023D02*
G01X0037993Y0029011D01*
G01X0037993Y0029011D02*
G01X0037984Y0029000D01*
G01X0037984Y0029000D02*
G01X0037976Y0028989D01*
G01X0037976Y0028989D02*
G01X0037967Y0028978D01*
G01X0037967Y0028978D02*
G01X0037958Y0028967D01*
G01X0037958Y0028967D02*
G01X0037948Y0028957D01*
G01X0037948Y0028957D02*
G01X0037939Y0028947D01*
G01X0037939Y0028947D02*
G01X0037929Y0028937D01*
G01X0037929Y0028937D02*
G01X0037918Y0028928D01*
G01X0037918Y0028928D02*
G01X0037908Y0028918D01*
G01X0037908Y0028918D02*
G01X0037897Y0028909D01*
G01X0037897Y0028909D02*
G01X0037886Y0028901D01*
G01X0037886Y0028901D02*
G01X0037875Y0028893D01*
G01X0037875Y0028893D02*
G01X0037863Y0028885D01*
G01X0037863Y0028885D02*
G01X0037852Y0028877D01*
G01X0037852Y0028877D02*
G01X0037840Y0028870D01*
G01X0037840Y0028870D02*
G01X0037827Y0028863D01*
G01X0037827Y0028863D02*
G01X0037815Y0028856D01*
G01X0037815Y0028856D02*
G01X0037803Y0028850D01*
G01X0037803Y0028850D02*
G01X0037790Y0028844D01*
G01X0037790Y0028844D02*
G01X0037777Y0028838D01*
G01X0037777Y0028838D02*
G01X0037764Y0028833D01*
G01X0037764Y0028833D02*
G01X0037751Y0028829D01*
G01X0037751Y0028829D02*
G01X0037738Y0028824D01*
G01X0037738Y0028824D02*
G01X0037724Y0028820D01*
G01X0037724Y0028820D02*
G01X0037711Y0028817D01*
G01X0037711Y0028817D02*
G01X0037697Y0028813D01*
G01X0037697Y0028813D02*
G01X0037683Y0028810D01*
G01X0037683Y0028810D02*
G01X0037670Y0028808D01*
G01X0037670Y0028808D02*
G01X0037656Y0028806D01*
G01X0037656Y0028806D02*
G01X0037642Y0028804D01*
G01X0037642Y0028804D02*
G01X0037628Y0028803D01*
G01X0037628Y0028803D02*
G01X0037614Y0028802D01*
G01X0037614Y0028802D02*
G01X0037600Y0028802D01*
G01X0037600Y0028802D02*
G01X0037586Y0028801D01*
G01X0037586Y0028801D02*
G01X0037572Y0028802D01*
G01X0037572Y0028802D02*
G01X0037558Y0028802D01*
G01X0037558Y0028802D02*
G01X0037544Y0028804D01*
G01X0037544Y0028804D02*
G01X0037530Y0028805D01*
G01X0037530Y0028805D02*
G01X0037516Y0028807D01*
G01X0037516Y0028807D02*
G01X0037503Y0028809D01*
G01X0037503Y0028809D02*
G01X0037489Y0028812D01*
G01X0037489Y0028812D02*
G01X0037475Y0028815D01*
G01X0037475Y0028815D02*
G01X0037462Y0028818D01*
G01X0037462Y0028818D02*
G01X0037448Y0028822D01*
G01X0037448Y0028822D02*
G01X0037435Y0028826D01*
G01X0037435Y0028826D02*
G01X0037422Y0028831D01*
G01X0037422Y0028831D02*
G01X0037409Y0028836D01*
G01X0037409Y0028836D02*
G01X0037396Y0028841D01*
G01X0037396Y0028841D02*
G01X0037383Y0028847D01*
G01X0037383Y0028847D02*
G01X0037370Y0028853D01*
G01X0037370Y0028853D02*
G01X0037358Y0028859D01*
G01X0037358Y0028859D02*
G01X0037346Y0028866D01*
G01X0037346Y0028866D02*
G01X0037333Y0028873D01*
G01X0037333Y0028873D02*
G01X0037322Y0028881D01*
G01X0037322Y0028881D02*
G01X0037310Y0028889D01*
G01X0037310Y0028889D02*
G01X0037299Y0028897D01*
G01X0037299Y0028897D02*
G01X0037287Y0028905D01*
G01X0037287Y0028905D02*
G01X0037277Y0028914D01*
G01X0037277Y0028914D02*
G01X0037266Y0028923D01*
G01X0037266Y0028923D02*
G01X0037255Y0028932D01*
G01X0037255Y0028932D02*
G01X0037245Y0028942D01*
G01X0037245Y0028942D02*
G01X0037235Y0028952D01*
G01X0037235Y0028952D02*
G01X0037226Y0028962D01*
G01X0037226Y0028962D02*
G01X0037217Y0028972D01*
G01X0037217Y0028972D02*
G01X0037208Y0028983D01*
G01X0037208Y0028983D02*
G01X0037199Y0028994D01*
G01X0037199Y0028994D02*
G01X0037191Y0029005D01*
G01X0037191Y0029005D02*
G01X0037183Y0029017D01*
G01X0037183Y0029017D02*
G01X0037175Y0029029D01*
G01X0037175Y0029029D02*
G01X0037168Y0029040D01*
G01X0037168Y0029040D02*
G01X0037160Y0029053D01*
G01X0037160Y0029053D02*
G01X0037154Y0029065D01*
G01X0037154Y0029065D02*
G01X0037147Y0029077D01*
G01X0037147Y0029077D02*
G01X0037142Y0029090D01*
G01X0037142Y0029090D02*
G01X0037136Y0029103D01*
G01X0037136Y0029103D02*
G01X0037131Y0029116D01*
G01X0037131Y0029116D02*
G01X0037126Y0029129D01*
G01X0037126Y0029129D02*
G01X0037121Y0029142D01*
G01X0037121Y0029142D02*
G01X0037117Y0029156D01*
G01X0037117Y0029156D02*
G01X0037113Y0029169D01*
G01X0037113Y0029169D02*
G01X0037110Y0029183D01*
G01X0037110Y0029183D02*
G01X0037107Y0029196D01*
G01X0037107Y0029196D02*
G01X0037105Y0029210D01*
G01X0037105Y0029210D02*
G01X0037102Y0029224D01*
G01X0037102Y0029224D02*
G01X0037101Y0029238D01*
G01X0037101Y0029238D02*
G01X0037099Y0029252D01*
G01X0037099Y0029252D02*
G01X0037098Y0029266D01*
G01X0037098Y0029266D02*
G01X0037098Y0029280D01*
G01X0037098Y0029280D02*
G01X0037097Y0029294D01*
G01X0037412Y0034805D02*
G01X0037413Y0034820D01*
G01X0037413Y0034820D02*
G01X0037413Y0034834D01*
G01X0037413Y0034834D02*
G01X0037414Y0034849D01*
G01X0037414Y0034849D02*
G01X0037416Y0034863D01*
G01X0037416Y0034863D02*
G01X0037417Y0034878D01*
G01X0037417Y0034878D02*
G01X0037419Y0034892D01*
G01X0037419Y0034892D02*
G01X0037422Y0034906D01*
G01X0037422Y0034906D02*
G01X0037425Y0034921D01*
G01X0037425Y0034921D02*
G01X0037428Y0034935D01*
G01X0037428Y0034935D02*
G01X0037432Y0034949D01*
G01X0037432Y0034949D02*
G01X0037436Y0034963D01*
G01X0037436Y0034963D02*
G01X0037441Y0034977D01*
G01X0037441Y0034977D02*
G01X0037446Y0034990D01*
G01X0037446Y0034990D02*
G01X0037451Y0035004D01*
G01X0037451Y0035004D02*
G01X0037456Y0035017D01*
G01X0037456Y0035017D02*
G01X0037462Y0035030D01*
G01X0037462Y0035030D02*
G01X0037469Y0035044D01*
G01X0037469Y0035044D02*
G01X0037475Y0035056D01*
G01X0037475Y0035056D02*
G01X0037482Y0035069D01*
G01X0037482Y0035069D02*
G01X0037490Y0035082D01*
G01X0037490Y0035082D02*
G01X0037497Y0035094D01*
G01X0037497Y0035094D02*
G01X0037505Y0035106D01*
G01X0037505Y0035106D02*
G01X0037514Y0035118D01*
G01X0037514Y0035118D02*
G01X0037523Y0035129D01*
G01X0037523Y0035129D02*
G01X0037532Y0035141D01*
G01X0037532Y0035141D02*
G01X0037541Y0035152D01*
G01X0037541Y0035152D02*
G01X0037550Y0035163D01*
G01X0037550Y0035163D02*
G01X0037560Y0035173D01*
G01X0037560Y0035173D02*
G01X0037571Y0035184D01*
G01X0037571Y0035184D02*
G01X0037581Y0035194D01*
G01X0037581Y0035194D02*
G01X0037592Y0035204D01*
G01X0037592Y0035204D02*
G01X0037603Y0035213D01*
G01X0037603Y0035213D02*
G01X0037614Y0035222D01*
G01X0037614Y0035222D02*
G01X0037626Y0035231D01*
G01X0037626Y0035231D02*
G01X0037637Y0035240D01*
G01X0037637Y0035240D02*
G01X0037649Y0035248D01*
G01X0037649Y0035248D02*
G01X0037662Y0035256D01*
G01X0037662Y0035256D02*
G01X0037674Y0035263D01*
G01X0037674Y0035263D02*
G01X0037687Y0035271D01*
G01X0037687Y0035271D02*
G01X0037699Y0035277D01*
G01X0037699Y0035277D02*
G01X0037712Y0035284D01*
G01X0037712Y0035284D02*
G01X0037725Y0035290D01*
G01X0037725Y0035290D02*
G01X0037739Y0035296D01*
G01X0037739Y0035296D02*
G01X0037752Y0035301D01*
G01X0037752Y0035301D02*
G01X0037766Y0035306D01*
G01X0037766Y0035306D02*
G01X0037780Y0035311D01*
G01X0037780Y0035311D02*
G01X0037793Y0035315D01*
G01X0037793Y0035315D02*
G01X0037807Y0035319D01*
G01X0037807Y0035319D02*
G01X0037822Y0035323D01*
G01X0037822Y0035323D02*
G01X0037836Y0035326D01*
G01X0037836Y0035326D02*
G01X0037850Y0035329D01*
G01X0037850Y0035329D02*
G01X0037864Y0035331D01*
G01X0037864Y0035331D02*
G01X0037879Y0035333D01*
G01X0037879Y0035333D02*
G01X0037893Y0035335D01*
G01X0037893Y0035335D02*
G01X0037908Y0035336D01*
G01X0037908Y0035336D02*
G01X0037922Y0035337D01*
G01X0037922Y0035337D02*
G01X0037937Y0035337D01*
G01X0037937Y0035337D02*
G01X0037951Y0035337D01*
G01X0037951Y0035337D02*
G01X0037966Y0035337D01*
G01X0037966Y0035337D02*
G01X0037980Y0035336D01*
G01X0037980Y0035336D02*
G01X0037995Y0035335D01*
G01X0037995Y0035335D02*
G01X0038009Y0035333D01*
G01X0038009Y0035333D02*
G01X0038023Y0035331D01*
G01X0038023Y0035331D02*
G01X0038038Y0035329D01*
G01X0038038Y0035329D02*
G01X0038052Y0035326D01*
G01X0038052Y0035326D02*
G01X0038066Y0035323D01*
G01X0038066Y0035323D02*
G01X0038080Y0035319D01*
G01X0038080Y0035319D02*
G01X0038094Y0035315D01*
G01X0038094Y0035315D02*
G01X0038108Y0035311D01*
G01X0038108Y0035311D02*
G01X0038122Y0035306D01*
G01X0038122Y0035306D02*
G01X0038135Y0035301D01*
G01X0038135Y0035301D02*
G01X0038149Y0035296D01*
G01X0038149Y0035296D02*
G01X0038162Y0035290D01*
G01X0038162Y0035290D02*
G01X0038175Y0035284D01*
G01X0038175Y0035284D02*
G01X0038188Y0035277D01*
G01X0038188Y0035277D02*
G01X0038201Y0035271D01*
G01X0038201Y0035271D02*
G01X0038214Y0035263D01*
G01X0038214Y0035263D02*
G01X0038226Y0035256D01*
G01X0038226Y0035256D02*
G01X0038238Y0035248D01*
G01X0038238Y0035248D02*
G01X0038250Y0035240D01*
G01X0038250Y0035240D02*
G01X0038262Y0035231D01*
G01X0038262Y0035231D02*
G01X0038274Y0035222D01*
G01X0038274Y0035222D02*
G01X0038285Y0035213D01*
G01X0038285Y0035213D02*
G01X0038296Y0035204D01*
G01X0038296Y0035204D02*
G01X0038307Y0035194D01*
G01X0038307Y0035194D02*
G01X0038317Y0035184D01*
G01X0038317Y0035184D02*
G01X0038327Y0035173D01*
G01X0038327Y0035173D02*
G01X0038337Y0035163D01*
G01X0038337Y0035163D02*
G01X0038347Y0035152D01*
G01X0038347Y0035152D02*
G01X0038356Y0035141D01*
G01X0038356Y0035141D02*
G01X0038365Y0035129D01*
G01X0038365Y0035129D02*
G01X0038374Y0035118D01*
G01X0038374Y0035118D02*
G01X0038382Y0035106D01*
G01X0038382Y0035106D02*
G01X0038390Y0035094D01*
G01X0038390Y0035094D02*
G01X0038398Y0035082D01*
G01X0038398Y0035082D02*
G01X0038405Y0035069D01*
G01X0038405Y0035069D02*
G01X0038412Y0035056D01*
G01X0038412Y0035056D02*
G01X0038419Y0035044D01*
G01X0038419Y0035044D02*
G01X0038425Y0035030D01*
G01X0038425Y0035030D02*
G01X0038431Y0035017D01*
G01X0038431Y0035017D02*
G01X0038437Y0035004D01*
G01X0038437Y0035004D02*
G01X0038442Y0034990D01*
G01X0038442Y0034990D02*
G01X0038447Y0034977D01*
G01X0038447Y0034977D02*
G01X0038452Y0034963D01*
G01X0038452Y0034963D02*
G01X0038456Y0034949D01*
G01X0038456Y0034949D02*
G01X0038459Y0034935D01*
G01X0038459Y0034935D02*
G01X0038463Y0034921D01*
G01X0038463Y0034921D02*
G01X0038466Y0034906D01*
G01X0038466Y0034906D02*
G01X0038468Y0034892D01*
G01X0038468Y0034892D02*
G01X0038470Y0034878D01*
G01X0038470Y0034878D02*
G01X0038472Y0034863D01*
G01X0038472Y0034863D02*
G01X0038474Y0034849D01*
G01X0038474Y0034849D02*
G01X0038475Y0034834D01*
G01X0038475Y0034834D02*
G01X0038475Y0034820D01*
G01X0038475Y0034820D02*
G01X0038475Y0034805D01*
G01X0038475Y0034805D02*
G01X0038475Y0034791D01*
G01X0038475Y0034791D02*
G01X0038475Y0034776D01*
G01X0038475Y0034776D02*
G01X0038474Y0034762D01*
G01X0038474Y0034762D02*
G01X0038472Y0034747D01*
G01X0038472Y0034747D02*
G01X0038470Y0034733D01*
G01X0038470Y0034733D02*
G01X0038468Y0034719D01*
G01X0038468Y0034719D02*
G01X0038466Y0034704D01*
G01X0038466Y0034704D02*
G01X0038463Y0034690D01*
G01X0038463Y0034690D02*
G01X0038459Y0034676D01*
G01X0038459Y0034676D02*
G01X0038456Y0034662D01*
G01X0038456Y0034662D02*
G01X0038452Y0034648D01*
G01X0038452Y0034648D02*
G01X0038447Y0034634D01*
G01X0038447Y0034634D02*
G01X0038442Y0034621D01*
G01X0038442Y0034621D02*
G01X0038437Y0034607D01*
G01X0038437Y0034607D02*
G01X0038431Y0034594D01*
G01X0038431Y0034594D02*
G01X0038425Y0034580D01*
G01X0038425Y0034580D02*
G01X0038419Y0034567D01*
G01X0038419Y0034567D02*
G01X0038412Y0034555D01*
G01X0038412Y0034555D02*
G01X0038405Y0034542D01*
G01X0038405Y0034542D02*
G01X0038398Y0034529D01*
G01X0038398Y0034529D02*
G01X0038390Y0034517D01*
G01X0038390Y0034517D02*
G01X0038382Y0034505D01*
G01X0038382Y0034505D02*
G01X0038374Y0034493D01*
G01X0038374Y0034493D02*
G01X0038365Y0034481D01*
G01X0038365Y0034481D02*
G01X0038356Y0034470D01*
G01X0038356Y0034470D02*
G01X0038347Y0034459D01*
G01X0038347Y0034459D02*
G01X0038337Y0034448D01*
G01X0038337Y0034448D02*
G01X0038327Y0034437D01*
G01X0038327Y0034437D02*
G01X0038317Y0034427D01*
G01X0038317Y0034427D02*
G01X0038307Y0034417D01*
G01X0038307Y0034417D02*
G01X0038296Y0034407D01*
G01X0038296Y0034407D02*
G01X0038285Y0034398D01*
G01X0038285Y0034398D02*
G01X0038274Y0034389D01*
G01X0038274Y0034389D02*
G01X0038262Y0034380D01*
G01X0038262Y0034380D02*
G01X0038250Y0034371D01*
G01X0038250Y0034371D02*
G01X0038238Y0034363D01*
G01X0038238Y0034363D02*
G01X0038226Y0034355D01*
G01X0038226Y0034355D02*
G01X0038214Y0034348D01*
G01X0038214Y0034348D02*
G01X0038201Y0034340D01*
G01X0038201Y0034340D02*
G01X0038188Y0034334D01*
G01X0038188Y0034334D02*
G01X0038175Y0034327D01*
G01X0038175Y0034327D02*
G01X0038162Y0034321D01*
G01X0038162Y0034321D02*
G01X0038149Y0034315D01*
G01X0038149Y0034315D02*
G01X0038135Y0034310D01*
G01X0038135Y0034310D02*
G01X0038122Y0034305D01*
G01X0038122Y0034305D02*
G01X0038108Y0034300D01*
G01X0038108Y0034300D02*
G01X0038094Y0034296D01*
G01X0038094Y0034296D02*
G01X0038080Y0034292D01*
G01X0038080Y0034292D02*
G01X0038066Y0034288D01*
G01X0038066Y0034288D02*
G01X0038052Y0034285D01*
G01X0038052Y0034285D02*
G01X0038038Y0034282D01*
G01X0038038Y0034282D02*
G01X0038023Y0034280D01*
G01X0038023Y0034280D02*
G01X0038009Y0034278D01*
G01X0038009Y0034278D02*
G01X0037995Y0034276D01*
G01X0037995Y0034276D02*
G01X0037980Y0034275D01*
G01X0037980Y0034275D02*
G01X0037966Y0034274D01*
G01X0037966Y0034274D02*
G01X0037951Y0034274D01*
G01X0037951Y0034274D02*
G01X0037937Y0034274D01*
G01X0037937Y0034274D02*
G01X0037922Y0034274D01*
G01X0037922Y0034274D02*
G01X0037908Y0034275D01*
G01X0037908Y0034275D02*
G01X0037893Y0034276D01*
G01X0037893Y0034276D02*
G01X0037879Y0034278D01*
G01X0037879Y0034278D02*
G01X0037864Y0034280D01*
G01X0037864Y0034280D02*
G01X0037850Y0034282D01*
G01X0037850Y0034282D02*
G01X0037836Y0034285D01*
G01X0037836Y0034285D02*
G01X0037822Y0034288D01*
G01X0037822Y0034288D02*
G01X0037807Y0034292D01*
G01X0037807Y0034292D02*
G01X0037793Y0034296D01*
G01X0037793Y0034296D02*
G01X0037780Y0034300D01*
G01X0037780Y0034300D02*
G01X0037766Y0034305D01*
G01X0037766Y0034305D02*
G01X0037752Y0034310D01*
G01X0037752Y0034310D02*
G01X0037739Y0034315D01*
G01X0037739Y0034315D02*
G01X0037725Y0034321D01*
G01X0037725Y0034321D02*
G01X0037712Y0034327D01*
G01X0037712Y0034327D02*
G01X0037699Y0034334D01*
G01X0037699Y0034334D02*
G01X0037687Y0034340D01*
G01X0037687Y0034340D02*
G01X0037674Y0034348D01*
G01X0037674Y0034348D02*
G01X0037662Y0034355D01*
G01X0037662Y0034355D02*
G01X0037649Y0034363D01*
G01X0037649Y0034363D02*
G01X0037637Y0034371D01*
G01X0037637Y0034371D02*
G01X0037626Y0034380D01*
G01X0037626Y0034380D02*
G01X0037614Y0034389D01*
G01X0037614Y0034389D02*
G01X0037603Y0034398D01*
G01X0037603Y0034398D02*
G01X0037592Y0034407D01*
G01X0037592Y0034407D02*
G01X0037581Y0034417D01*
G01X0037581Y0034417D02*
G01X0037571Y0034427D01*
G01X0037571Y0034427D02*
G01X0037560Y0034437D01*
G01X0037560Y0034437D02*
G01X0037550Y0034448D01*
G01X0037550Y0034448D02*
G01X0037541Y0034459D01*
G01X0037541Y0034459D02*
G01X0037532Y0034470D01*
G01X0037532Y0034470D02*
G01X0037523Y0034481D01*
G01X0037523Y0034481D02*
G01X0037514Y0034493D01*
G01X0037514Y0034493D02*
G01X0037505Y0034505D01*
G01X0037505Y0034505D02*
G01X0037497Y0034517D01*
G01X0037497Y0034517D02*
G01X0037490Y0034529D01*
G01X0037490Y0034529D02*
G01X0037482Y0034542D01*
G01X0037482Y0034542D02*
G01X0037475Y0034555D01*
G01X0037475Y0034555D02*
G01X0037469Y0034567D01*
G01X0037469Y0034567D02*
G01X0037462Y0034580D01*
G01X0037462Y0034580D02*
G01X0037456Y0034594D01*
G01X0037456Y0034594D02*
G01X0037451Y0034607D01*
G01X0037451Y0034607D02*
G01X0037446Y0034621D01*
G01X0037446Y0034621D02*
G01X0037441Y0034634D01*
G01X0037441Y0034634D02*
G01X0037436Y0034648D01*
G01X0037436Y0034648D02*
G01X0037432Y0034662D01*
G01X0037432Y0034662D02*
G01X0037428Y0034676D01*
G01X0037428Y0034676D02*
G01X0037425Y0034690D01*
G01X0037425Y0034690D02*
G01X0037422Y0034704D01*
G01X0037422Y0034704D02*
G01X0037419Y0034719D01*
G01X0037419Y0034719D02*
G01X0037417Y0034733D01*
G01X0037417Y0034733D02*
G01X0037416Y0034747D01*
G01X0037416Y0034747D02*
G01X0037414Y0034762D01*
G01X0037414Y0034762D02*
G01X0037413Y0034776D01*
G01X0037413Y0034776D02*
G01X0037413Y0034791D01*
G01X0037413Y0034791D02*
G01X0037412Y0034805D01*
G01X0018121Y0034805D02*
G01X0018121Y0034820D01*
G01X0018121Y0034820D02*
G01X0018122Y0034834D01*
G01X0018122Y0034834D02*
G01X0018123Y0034849D01*
G01X0018123Y0034849D02*
G01X0018124Y0034863D01*
G01X0018124Y0034863D02*
G01X0018126Y0034878D01*
G01X0018126Y0034878D02*
G01X0018128Y0034892D01*
G01X0018128Y0034892D02*
G01X0018131Y0034906D01*
G01X0018131Y0034906D02*
G01X0018134Y0034921D01*
G01X0018134Y0034921D02*
G01X0018137Y0034935D01*
G01X0018137Y0034935D02*
G01X0018141Y0034949D01*
G01X0018141Y0034949D02*
G01X0018145Y0034963D01*
G01X0018145Y0034963D02*
G01X0018149Y0034977D01*
G01X0018149Y0034977D02*
G01X0018154Y0034990D01*
G01X0018154Y0034990D02*
G01X0018159Y0035004D01*
G01X0018159Y0035004D02*
G01X0018165Y0035017D01*
G01X0018165Y0035017D02*
G01X0018171Y0035030D01*
G01X0018171Y0035030D02*
G01X0018177Y0035044D01*
G01X0018177Y0035044D02*
G01X0018184Y0035056D01*
G01X0018184Y0035056D02*
G01X0018191Y0035069D01*
G01X0018191Y0035069D02*
G01X0018198Y0035082D01*
G01X0018198Y0035082D02*
G01X0018206Y0035094D01*
G01X0018206Y0035094D02*
G01X0018214Y0035106D01*
G01X0018214Y0035106D02*
G01X0018223Y0035118D01*
G01X0018223Y0035118D02*
G01X0018231Y0035129D01*
G01X0018231Y0035129D02*
G01X0018240Y0035141D01*
G01X0018240Y0035141D02*
G01X0018250Y0035152D01*
G01X0018250Y0035152D02*
G01X0018259Y0035163D01*
G01X0018259Y0035163D02*
G01X0018269Y0035173D01*
G01X0018269Y0035173D02*
G01X0018279Y0035184D01*
G01X0018279Y0035184D02*
G01X0018290Y0035194D01*
G01X0018290Y0035194D02*
G01X0018301Y0035204D01*
G01X0018301Y0035204D02*
G01X0018312Y0035213D01*
G01X0018312Y0035213D02*
G01X0018323Y0035222D01*
G01X0018323Y0035222D02*
G01X0018334Y0035231D01*
G01X0018334Y0035231D02*
G01X0018346Y0035240D01*
G01X0018346Y0035240D02*
G01X0018358Y0035248D01*
G01X0018358Y0035248D02*
G01X0018370Y0035256D01*
G01X0018370Y0035256D02*
G01X0018383Y0035263D01*
G01X0018383Y0035263D02*
G01X0018395Y0035271D01*
G01X0018395Y0035271D02*
G01X0018408Y0035277D01*
G01X0018408Y0035277D02*
G01X0018421Y0035284D01*
G01X0018421Y0035284D02*
G01X0018434Y0035290D01*
G01X0018434Y0035290D02*
G01X0018447Y0035296D01*
G01X0018447Y0035296D02*
G01X0018461Y0035301D01*
G01X0018461Y0035301D02*
G01X0018475Y0035306D01*
G01X0018475Y0035306D02*
G01X0018488Y0035311D01*
G01X0018488Y0035311D02*
G01X0018502Y0035315D01*
G01X0018502Y0035315D02*
G01X0018516Y0035319D01*
G01X0018516Y0035319D02*
G01X0018530Y0035323D01*
G01X0018530Y0035323D02*
G01X0018544Y0035326D01*
G01X0018544Y0035326D02*
G01X0018559Y0035329D01*
G01X0018559Y0035329D02*
G01X0018573Y0035331D01*
G01X0018573Y0035331D02*
G01X0018587Y0035333D01*
G01X0018587Y0035333D02*
G01X0018602Y0035335D01*
G01X0018602Y0035335D02*
G01X0018616Y0035336D01*
G01X0018616Y0035336D02*
G01X0018631Y0035337D01*
G01X0018631Y0035337D02*
G01X0018645Y0035337D01*
G01X0018645Y0035337D02*
G01X0018660Y0035337D01*
G01X0018660Y0035337D02*
G01X0018674Y0035337D01*
G01X0018674Y0035337D02*
G01X0018689Y0035336D01*
G01X0018689Y0035336D02*
G01X0018703Y0035335D01*
G01X0018703Y0035335D02*
G01X0018718Y0035333D01*
G01X0018718Y0035333D02*
G01X0018732Y0035331D01*
G01X0018732Y0035331D02*
G01X0018746Y0035329D01*
G01X0018746Y0035329D02*
G01X0018761Y0035326D01*
G01X0018761Y0035326D02*
G01X0018775Y0035323D01*
G01X0018775Y0035323D02*
G01X0018789Y0035319D01*
G01X0018789Y0035319D02*
G01X0018803Y0035315D01*
G01X0018803Y0035315D02*
G01X0018817Y0035311D01*
G01X0018817Y0035311D02*
G01X0018831Y0035306D01*
G01X0018831Y0035306D02*
G01X0018844Y0035301D01*
G01X0018844Y0035301D02*
G01X0018858Y0035296D01*
G01X0018858Y0035296D02*
G01X0018871Y0035290D01*
G01X0018871Y0035290D02*
G01X0018884Y0035284D01*
G01X0018884Y0035284D02*
G01X0018897Y0035277D01*
G01X0018897Y0035277D02*
G01X0018910Y0035271D01*
G01X0018910Y0035271D02*
G01X0018922Y0035263D01*
G01X0018922Y0035263D02*
G01X0018935Y0035256D01*
G01X0018935Y0035256D02*
G01X0018947Y0035248D01*
G01X0018947Y0035248D02*
G01X0018959Y0035240D01*
G01X0018959Y0035240D02*
G01X0018971Y0035231D01*
G01X0018971Y0035231D02*
G01X0018982Y0035222D01*
G01X0018982Y0035222D02*
G01X0018994Y0035213D01*
G01X0018994Y0035213D02*
G01X0019005Y0035204D01*
G01X0019005Y0035204D02*
G01X0019015Y0035194D01*
G01X0019015Y0035194D02*
G01X0019026Y0035184D01*
G01X0019026Y0035184D02*
G01X0019036Y0035173D01*
G01X0019036Y0035173D02*
G01X0019046Y0035163D01*
G01X0019046Y0035163D02*
G01X0019056Y0035152D01*
G01X0019056Y0035152D02*
G01X0019065Y0035141D01*
G01X0019065Y0035141D02*
G01X0019074Y0035129D01*
G01X0019074Y0035129D02*
G01X0019083Y0035118D01*
G01X0019083Y0035118D02*
G01X0019091Y0035106D01*
G01X0019091Y0035106D02*
G01X0019099Y0035094D01*
G01X0019099Y0035094D02*
G01X0019107Y0035082D01*
G01X0019107Y0035082D02*
G01X0019114Y0035069D01*
G01X0019114Y0035069D02*
G01X0019121Y0035056D01*
G01X0019121Y0035056D02*
G01X0019128Y0035044D01*
G01X0019128Y0035044D02*
G01X0019134Y0035030D01*
G01X0019134Y0035030D02*
G01X0019140Y0035017D01*
G01X0019140Y0035017D02*
G01X0019146Y0035004D01*
G01X0019146Y0035004D02*
G01X0019151Y0034990D01*
G01X0019151Y0034990D02*
G01X0019156Y0034977D01*
G01X0019156Y0034977D02*
G01X0019160Y0034963D01*
G01X0019160Y0034963D02*
G01X0019164Y0034949D01*
G01X0019164Y0034949D02*
G01X0019168Y0034935D01*
G01X0019168Y0034935D02*
G01X0019171Y0034921D01*
G01X0019171Y0034921D02*
G01X0019174Y0034906D01*
G01X0019174Y0034906D02*
G01X0019177Y0034892D01*
G01X0019177Y0034892D02*
G01X0019179Y0034878D01*
G01X0019179Y0034878D02*
G01X0019181Y0034863D01*
G01X0019181Y0034863D02*
G01X0019182Y0034849D01*
G01X0019182Y0034849D02*
G01X0019183Y0034834D01*
G01X0019183Y0034834D02*
G01X0019184Y0034820D01*
G01X0019184Y0034820D02*
G01X0019184Y0034805D01*
G01X0019184Y0034805D02*
G01X0019184Y0034791D01*
G01X0019184Y0034791D02*
G01X0019183Y0034776D01*
G01X0019183Y0034776D02*
G01X0019182Y0034762D01*
G01X0019182Y0034762D02*
G01X0019181Y0034747D01*
G01X0019181Y0034747D02*
G01X0019179Y0034733D01*
G01X0019179Y0034733D02*
G01X0019177Y0034719D01*
G01X0019177Y0034719D02*
G01X0019174Y0034704D01*
G01X0019174Y0034704D02*
G01X0019171Y0034690D01*
G01X0019171Y0034690D02*
G01X0019168Y0034676D01*
G01X0019168Y0034676D02*
G01X0019164Y0034662D01*
G01X0019164Y0034662D02*
G01X0019160Y0034648D01*
G01X0019160Y0034648D02*
G01X0019156Y0034634D01*
G01X0019156Y0034634D02*
G01X0019151Y0034621D01*
G01X0019151Y0034621D02*
G01X0019146Y0034607D01*
G01X0019146Y0034607D02*
G01X0019140Y0034594D01*
G01X0019140Y0034594D02*
G01X0019134Y0034580D01*
G01X0019134Y0034580D02*
G01X0019128Y0034567D01*
G01X0019128Y0034567D02*
G01X0019121Y0034555D01*
G01X0019121Y0034555D02*
G01X0019114Y0034542D01*
G01X0019114Y0034542D02*
G01X0019107Y0034529D01*
G01X0019107Y0034529D02*
G01X0019099Y0034517D01*
G01X0019099Y0034517D02*
G01X0019091Y0034505D01*
G01X0019091Y0034505D02*
G01X0019083Y0034493D01*
G01X0019083Y0034493D02*
G01X0019074Y0034481D01*
G01X0019074Y0034481D02*
G01X0019065Y0034470D01*
G01X0019065Y0034470D02*
G01X0019056Y0034459D01*
G01X0019056Y0034459D02*
G01X0019046Y0034448D01*
G01X0019046Y0034448D02*
G01X0019036Y0034437D01*
G01X0019036Y0034437D02*
G01X0019026Y0034427D01*
G01X0019026Y0034427D02*
G01X0019015Y0034417D01*
G01X0019015Y0034417D02*
G01X0019005Y0034407D01*
G01X0019005Y0034407D02*
G01X0018994Y0034398D01*
G01X0018994Y0034398D02*
G01X0018982Y0034389D01*
G01X0018982Y0034389D02*
G01X0018971Y0034380D01*
G01X0018971Y0034380D02*
G01X0018959Y0034371D01*
G01X0018959Y0034371D02*
G01X0018947Y0034363D01*
G01X0018947Y0034363D02*
G01X0018935Y0034355D01*
G01X0018935Y0034355D02*
G01X0018922Y0034348D01*
G01X0018922Y0034348D02*
G01X0018910Y0034340D01*
G01X0018910Y0034340D02*
G01X0018897Y0034334D01*
G01X0018897Y0034334D02*
G01X0018884Y0034327D01*
G01X0018884Y0034327D02*
G01X0018871Y0034321D01*
G01X0018871Y0034321D02*
G01X0018858Y0034315D01*
G01X0018858Y0034315D02*
G01X0018844Y0034310D01*
G01X0018844Y0034310D02*
G01X0018831Y0034305D01*
G01X0018831Y0034305D02*
G01X0018817Y0034300D01*
G01X0018817Y0034300D02*
G01X0018803Y0034296D01*
G01X0018803Y0034296D02*
G01X0018789Y0034292D01*
G01X0018789Y0034292D02*
G01X0018775Y0034288D01*
G01X0018775Y0034288D02*
G01X0018761Y0034285D01*
G01X0018761Y0034285D02*
G01X0018746Y0034282D01*
G01X0018746Y0034282D02*
G01X0018732Y0034280D01*
G01X0018732Y0034280D02*
G01X0018718Y0034278D01*
G01X0018718Y0034278D02*
G01X0018703Y0034276D01*
G01X0018703Y0034276D02*
G01X0018689Y0034275D01*
G01X0018689Y0034275D02*
G01X0018674Y0034274D01*
G01X0018674Y0034274D02*
G01X0018660Y0034274D01*
G01X0018660Y0034274D02*
G01X0018645Y0034274D01*
G01X0018645Y0034274D02*
G01X0018631Y0034274D01*
G01X0018631Y0034274D02*
G01X0018616Y0034275D01*
G01X0018616Y0034275D02*
G01X0018602Y0034276D01*
G01X0018602Y0034276D02*
G01X0018587Y0034278D01*
G01X0018587Y0034278D02*
G01X0018573Y0034280D01*
G01X0018573Y0034280D02*
G01X0018559Y0034282D01*
G01X0018559Y0034282D02*
G01X0018544Y0034285D01*
G01X0018544Y0034285D02*
G01X0018530Y0034288D01*
G01X0018530Y0034288D02*
G01X0018516Y0034292D01*
G01X0018516Y0034292D02*
G01X0018502Y0034296D01*
G01X0018502Y0034296D02*
G01X0018488Y0034300D01*
G01X0018488Y0034300D02*
G01X0018475Y0034305D01*
G01X0018475Y0034305D02*
G01X0018461Y0034310D01*
G01X0018461Y0034310D02*
G01X0018447Y0034315D01*
G01X0018447Y0034315D02*
G01X0018434Y0034321D01*
G01X0018434Y0034321D02*
G01X0018421Y0034327D01*
G01X0018421Y0034327D02*
G01X0018408Y0034334D01*
G01X0018408Y0034334D02*
G01X0018395Y0034340D01*
G01X0018395Y0034340D02*
G01X0018383Y0034348D01*
G01X0018383Y0034348D02*
G01X0018370Y0034355D01*
G01X0018370Y0034355D02*
G01X0018358Y0034363D01*
G01X0018358Y0034363D02*
G01X0018346Y0034371D01*
G01X0018346Y0034371D02*
G01X0018334Y0034380D01*
G01X0018334Y0034380D02*
G01X0018323Y0034389D01*
G01X0018323Y0034389D02*
G01X0018312Y0034398D01*
G01X0018312Y0034398D02*
G01X0018301Y0034407D01*
G01X0018301Y0034407D02*
G01X0018290Y0034417D01*
G01X0018290Y0034417D02*
G01X0018279Y0034427D01*
G01X0018279Y0034427D02*
G01X0018269Y0034437D01*
G01X0018269Y0034437D02*
G01X0018259Y0034448D01*
G01X0018259Y0034448D02*
G01X0018250Y0034459D01*
G01X0018250Y0034459D02*
G01X0018240Y0034470D01*
G01X0018240Y0034470D02*
G01X0018231Y0034481D01*
G01X0018231Y0034481D02*
G01X0018223Y0034493D01*
G01X0018223Y0034493D02*
G01X0018214Y0034505D01*
G01X0018214Y0034505D02*
G01X0018206Y0034517D01*
G01X0018206Y0034517D02*
G01X0018198Y0034529D01*
G01X0018198Y0034529D02*
G01X0018191Y0034542D01*
G01X0018191Y0034542D02*
G01X0018184Y0034555D01*
G01X0018184Y0034555D02*
G01X0018177Y0034567D01*
G01X0018177Y0034567D02*
G01X0018171Y0034580D01*
G01X0018171Y0034580D02*
G01X0018165Y0034594D01*
G01X0018165Y0034594D02*
G01X0018159Y0034607D01*
G01X0018159Y0034607D02*
G01X0018154Y0034621D01*
G01X0018154Y0034621D02*
G01X0018149Y0034634D01*
G01X0018149Y0034634D02*
G01X0018145Y0034648D01*
G01X0018145Y0034648D02*
G01X0018141Y0034662D01*
G01X0018141Y0034662D02*
G01X0018137Y0034676D01*
G01X0018137Y0034676D02*
G01X0018134Y0034690D01*
G01X0018134Y0034690D02*
G01X0018131Y0034704D01*
G01X0018131Y0034704D02*
G01X0018128Y0034719D01*
G01X0018128Y0034719D02*
G01X0018126Y0034733D01*
G01X0018126Y0034733D02*
G01X0018124Y0034747D01*
G01X0018124Y0034747D02*
G01X0018123Y0034762D01*
G01X0018123Y0034762D02*
G01X0018122Y0034776D01*
G01X0018122Y0034776D02*
G01X0018121Y0034791D01*
G01X0018121Y0034791D02*
G01X0018121Y0034805D01*
G01X0037412Y0011971D02*
G01X0037413Y0011985D01*
G01X0037413Y0011985D02*
G01X0037413Y0012000D01*
G01X0037413Y0012000D02*
G01X0037414Y0012014D01*
G01X0037414Y0012014D02*
G01X0037416Y0012029D01*
G01X0037416Y0012029D02*
G01X0037417Y0012043D01*
G01X0037417Y0012043D02*
G01X0037419Y0012057D01*
G01X0037419Y0012057D02*
G01X0037422Y0012072D01*
G01X0037422Y0012072D02*
G01X0037425Y0012086D01*
G01X0037425Y0012086D02*
G01X0037428Y0012100D01*
G01X0037428Y0012100D02*
G01X0037432Y0012114D01*
G01X0037432Y0012114D02*
G01X0037436Y0012128D01*
G01X0037436Y0012128D02*
G01X0037441Y0012142D01*
G01X0037441Y0012142D02*
G01X0037446Y0012155D01*
G01X0037446Y0012155D02*
G01X0037451Y0012169D01*
G01X0037451Y0012169D02*
G01X0037456Y0012183D01*
G01X0037456Y0012183D02*
G01X0037462Y0012196D01*
G01X0037462Y0012196D02*
G01X0037469Y0012209D01*
G01X0037469Y0012209D02*
G01X0037475Y0012222D01*
G01X0037475Y0012222D02*
G01X0037482Y0012234D01*
G01X0037482Y0012234D02*
G01X0037490Y0012247D01*
G01X0037490Y0012247D02*
G01X0037497Y0012259D01*
G01X0037497Y0012259D02*
G01X0037505Y0012271D01*
G01X0037505Y0012271D02*
G01X0037514Y0012283D01*
G01X0037514Y0012283D02*
G01X0037523Y0012295D01*
G01X0037523Y0012295D02*
G01X0037532Y0012306D01*
G01X0037532Y0012306D02*
G01X0037541Y0012317D01*
G01X0037541Y0012317D02*
G01X0037550Y0012328D01*
G01X0037550Y0012328D02*
G01X0037560Y0012339D01*
G01X0037560Y0012339D02*
G01X0037571Y0012349D01*
G01X0037571Y0012349D02*
G01X0037581Y0012359D01*
G01X0037581Y0012359D02*
G01X0037592Y0012369D01*
G01X0037592Y0012369D02*
G01X0037603Y0012378D01*
G01X0037603Y0012378D02*
G01X0037614Y0012388D01*
G01X0037614Y0012388D02*
G01X0037626Y0012396D01*
G01X0037626Y0012396D02*
G01X0037637Y0012405D01*
G01X0037637Y0012405D02*
G01X0037649Y0012413D01*
G01X0037649Y0012413D02*
G01X0037662Y0012421D01*
G01X0037662Y0012421D02*
G01X0037674Y0012429D01*
G01X0037674Y0012429D02*
G01X0037687Y0012436D01*
G01X0037687Y0012436D02*
G01X0037699Y0012443D01*
G01X0037699Y0012443D02*
G01X0037712Y0012449D01*
G01X0037712Y0012449D02*
G01X0037725Y0012455D01*
G01X0037725Y0012455D02*
G01X0037739Y0012461D01*
G01X0037739Y0012461D02*
G01X0037752Y0012467D01*
G01X0037752Y0012467D02*
G01X0037766Y0012472D01*
G01X0037766Y0012472D02*
G01X0037780Y0012476D01*
G01X0037780Y0012476D02*
G01X0037793Y0012481D01*
G01X0037793Y0012481D02*
G01X0037807Y0012484D01*
G01X0037807Y0012484D02*
G01X0037822Y0012488D01*
G01X0037822Y0012488D02*
G01X0037836Y0012491D01*
G01X0037836Y0012491D02*
G01X0037850Y0012494D01*
G01X0037850Y0012494D02*
G01X0037864Y0012496D01*
G01X0037864Y0012496D02*
G01X0037879Y0012498D01*
G01X0037879Y0012498D02*
G01X0037893Y0012500D01*
G01X0037893Y0012500D02*
G01X0037908Y0012501D01*
G01X0037908Y0012501D02*
G01X0037922Y0012502D01*
G01X0037922Y0012502D02*
G01X0037937Y0012502D01*
G01X0037937Y0012502D02*
G01X0037951Y0012502D01*
G01X0037951Y0012502D02*
G01X0037966Y0012502D01*
G01X0037966Y0012502D02*
G01X0037980Y0012501D01*
G01X0037980Y0012501D02*
G01X0037995Y0012500D01*
G01X0037995Y0012500D02*
G01X0038009Y0012498D01*
G01X0038009Y0012498D02*
G01X0038023Y0012496D01*
G01X0038023Y0012496D02*
G01X0038038Y0012494D01*
G01X0038038Y0012494D02*
G01X0038052Y0012491D01*
G01X0038052Y0012491D02*
G01X0038066Y0012488D01*
G01X0038066Y0012488D02*
G01X0038080Y0012484D01*
G01X0038080Y0012484D02*
G01X0038094Y0012481D01*
G01X0038094Y0012481D02*
G01X0038108Y0012476D01*
G01X0038108Y0012476D02*
G01X0038122Y0012472D01*
G01X0038122Y0012472D02*
G01X0038135Y0012467D01*
G01X0038135Y0012467D02*
G01X0038149Y0012461D01*
G01X0038149Y0012461D02*
G01X0038162Y0012455D01*
G01X0038162Y0012455D02*
G01X0038175Y0012449D01*
G01X0038175Y0012449D02*
G01X0038188Y0012443D01*
G01X0038188Y0012443D02*
G01X0038201Y0012436D01*
G01X0038201Y0012436D02*
G01X0038214Y0012429D01*
G01X0038214Y0012429D02*
G01X0038226Y0012421D01*
G01X0038226Y0012421D02*
G01X0038238Y0012413D01*
G01X0038238Y0012413D02*
G01X0038250Y0012405D01*
G01X0038250Y0012405D02*
G01X0038262Y0012396D01*
G01X0038262Y0012396D02*
G01X0038274Y0012388D01*
G01X0038274Y0012388D02*
G01X0038285Y0012378D01*
G01X0038285Y0012378D02*
G01X0038296Y0012369D01*
G01X0038296Y0012369D02*
G01X0038307Y0012359D01*
G01X0038307Y0012359D02*
G01X0038317Y0012349D01*
G01X0038317Y0012349D02*
G01X0038327Y0012339D01*
G01X0038327Y0012339D02*
G01X0038337Y0012328D01*
G01X0038337Y0012328D02*
G01X0038347Y0012317D01*
G01X0038347Y0012317D02*
G01X0038356Y0012306D01*
G01X0038356Y0012306D02*
G01X0038365Y0012295D01*
G01X0038365Y0012295D02*
G01X0038374Y0012283D01*
G01X0038374Y0012283D02*
G01X0038382Y0012271D01*
G01X0038382Y0012271D02*
G01X0038390Y0012259D01*
G01X0038390Y0012259D02*
G01X0038398Y0012247D01*
G01X0038398Y0012247D02*
G01X0038405Y0012234D01*
G01X0038405Y0012234D02*
G01X0038412Y0012222D01*
G01X0038412Y0012222D02*
G01X0038419Y0012209D01*
G01X0038419Y0012209D02*
G01X0038425Y0012196D01*
G01X0038425Y0012196D02*
G01X0038431Y0012183D01*
G01X0038431Y0012183D02*
G01X0038437Y0012169D01*
G01X0038437Y0012169D02*
G01X0038442Y0012155D01*
G01X0038442Y0012155D02*
G01X0038447Y0012142D01*
G01X0038447Y0012142D02*
G01X0038452Y0012128D01*
G01X0038452Y0012128D02*
G01X0038456Y0012114D01*
G01X0038456Y0012114D02*
G01X0038459Y0012100D01*
G01X0038459Y0012100D02*
G01X0038463Y0012086D01*
G01X0038463Y0012086D02*
G01X0038466Y0012072D01*
G01X0038466Y0012072D02*
G01X0038468Y0012057D01*
G01X0038468Y0012057D02*
G01X0038470Y0012043D01*
G01X0038470Y0012043D02*
G01X0038472Y0012029D01*
G01X0038472Y0012029D02*
G01X0038474Y0012014D01*
G01X0038474Y0012014D02*
G01X0038475Y0012000D01*
G01X0038475Y0012000D02*
G01X0038475Y0011985D01*
G01X0038475Y0011985D02*
G01X0038475Y0011971D01*
G01X0038475Y0011971D02*
G01X0038475Y0011956D01*
G01X0038475Y0011956D02*
G01X0038475Y0011942D01*
G01X0038475Y0011942D02*
G01X0038474Y0011927D01*
G01X0038474Y0011927D02*
G01X0038472Y0011913D01*
G01X0038472Y0011913D02*
G01X0038470Y0011898D01*
G01X0038470Y0011898D02*
G01X0038468Y0011884D01*
G01X0038468Y0011884D02*
G01X0038466Y0011870D01*
G01X0038466Y0011870D02*
G01X0038463Y0011856D01*
G01X0038463Y0011856D02*
G01X0038459Y0011841D01*
G01X0038459Y0011841D02*
G01X0038456Y0011827D01*
G01X0038456Y0011827D02*
G01X0038452Y0011813D01*
G01X0038452Y0011813D02*
G01X0038447Y0011800D01*
G01X0038447Y0011800D02*
G01X0038442Y0011786D01*
G01X0038442Y0011786D02*
G01X0038437Y0011772D01*
G01X0038437Y0011772D02*
G01X0038431Y0011759D01*
G01X0038431Y0011759D02*
G01X0038425Y0011746D01*
G01X0038425Y0011746D02*
G01X0038419Y0011733D01*
G01X0038419Y0011733D02*
G01X0038412Y0011720D01*
G01X0038412Y0011720D02*
G01X0038405Y0011707D01*
G01X0038405Y0011707D02*
G01X0038398Y0011695D01*
G01X0038398Y0011695D02*
G01X0038390Y0011682D01*
G01X0038390Y0011682D02*
G01X0038382Y0011670D01*
G01X0038382Y0011670D02*
G01X0038374Y0011658D01*
G01X0038374Y0011658D02*
G01X0038365Y0011647D01*
G01X0038365Y0011647D02*
G01X0038356Y0011635D01*
G01X0038356Y0011635D02*
G01X0038347Y0011624D01*
G01X0038347Y0011624D02*
G01X0038337Y0011613D01*
G01X0038337Y0011613D02*
G01X0038327Y0011603D01*
G01X0038327Y0011603D02*
G01X0038317Y0011592D01*
G01X0038317Y0011592D02*
G01X0038307Y0011582D01*
G01X0038307Y0011582D02*
G01X0038296Y0011572D01*
G01X0038296Y0011572D02*
G01X0038285Y0011563D01*
G01X0038285Y0011563D02*
G01X0038274Y0011554D01*
G01X0038274Y0011554D02*
G01X0038262Y0011545D01*
G01X0038262Y0011545D02*
G01X0038250Y0011537D01*
G01X0038250Y0011537D02*
G01X0038238Y0011528D01*
G01X0038238Y0011528D02*
G01X0038226Y0011520D01*
G01X0038226Y0011520D02*
G01X0038214Y0011513D01*
G01X0038214Y0011513D02*
G01X0038201Y0011506D01*
G01X0038201Y0011506D02*
G01X0038188Y0011499D01*
G01X0038188Y0011499D02*
G01X0038175Y0011492D01*
G01X0038175Y0011492D02*
G01X0038162Y0011486D01*
G01X0038162Y0011486D02*
G01X0038149Y0011480D01*
G01X0038149Y0011480D02*
G01X0038135Y0011475D01*
G01X0038135Y0011475D02*
G01X0038122Y0011470D01*
G01X0038122Y0011470D02*
G01X0038108Y0011465D01*
G01X0038108Y0011465D02*
G01X0038094Y0011461D01*
G01X0038094Y0011461D02*
G01X0038080Y0011457D01*
G01X0038080Y0011457D02*
G01X0038066Y0011454D01*
G01X0038066Y0011454D02*
G01X0038052Y0011450D01*
G01X0038052Y0011450D02*
G01X0038038Y0011448D01*
G01X0038038Y0011448D02*
G01X0038023Y0011445D01*
G01X0038023Y0011445D02*
G01X0038009Y0011443D01*
G01X0038009Y0011443D02*
G01X0037995Y0011442D01*
G01X0037995Y0011442D02*
G01X0037980Y0011440D01*
G01X0037980Y0011440D02*
G01X0037966Y0011440D01*
G01X0037966Y0011440D02*
G01X0037951Y0011439D01*
G01X0037951Y0011439D02*
G01X0037937Y0011439D01*
G01X0037937Y0011439D02*
G01X0037922Y0011440D01*
G01X0037922Y0011440D02*
G01X0037908Y0011440D01*
G01X0037908Y0011440D02*
G01X0037893Y0011442D01*
G01X0037893Y0011442D02*
G01X0037879Y0011443D01*
G01X0037879Y0011443D02*
G01X0037864Y0011445D01*
G01X0037864Y0011445D02*
G01X0037850Y0011448D01*
G01X0037850Y0011448D02*
G01X0037836Y0011450D01*
G01X0037836Y0011450D02*
G01X0037822Y0011454D01*
G01X0037822Y0011454D02*
G01X0037807Y0011457D01*
G01X0037807Y0011457D02*
G01X0037793Y0011461D01*
G01X0037793Y0011461D02*
G01X0037780Y0011465D01*
G01X0037780Y0011465D02*
G01X0037766Y0011470D01*
G01X0037766Y0011470D02*
G01X0037752Y0011475D01*
G01X0037752Y0011475D02*
G01X0037739Y0011480D01*
G01X0037739Y0011480D02*
G01X0037725Y0011486D01*
G01X0037725Y0011486D02*
G01X0037712Y0011492D01*
G01X0037712Y0011492D02*
G01X0037699Y0011499D01*
G01X0037699Y0011499D02*
G01X0037687Y0011506D01*
G01X0037687Y0011506D02*
G01X0037674Y0011513D01*
G01X0037674Y0011513D02*
G01X0037662Y0011520D01*
G01X0037662Y0011520D02*
G01X0037649Y0011528D01*
G01X0037649Y0011528D02*
G01X0037637Y0011537D01*
G01X0037637Y0011537D02*
G01X0037626Y0011545D01*
G01X0037626Y0011545D02*
G01X0037614Y0011554D01*
G01X0037614Y0011554D02*
G01X0037603Y0011563D01*
G01X0037603Y0011563D02*
G01X0037592Y0011572D01*
G01X0037592Y0011572D02*
G01X0037581Y0011582D01*
G01X0037581Y0011582D02*
G01X0037571Y0011592D01*
G01X0037571Y0011592D02*
G01X0037560Y0011603D01*
G01X0037560Y0011603D02*
G01X0037550Y0011613D01*
G01X0037550Y0011613D02*
G01X0037541Y0011624D01*
G01X0037541Y0011624D02*
G01X0037532Y0011635D01*
G01X0037532Y0011635D02*
G01X0037523Y0011647D01*
G01X0037523Y0011647D02*
G01X0037514Y0011658D01*
G01X0037514Y0011658D02*
G01X0037505Y0011670D01*
G01X0037505Y0011670D02*
G01X0037497Y0011682D01*
G01X0037497Y0011682D02*
G01X0037490Y0011695D01*
G01X0037490Y0011695D02*
G01X0037482Y0011707D01*
G01X0037482Y0011707D02*
G01X0037475Y0011720D01*
G01X0037475Y0011720D02*
G01X0037469Y0011733D01*
G01X0037469Y0011733D02*
G01X0037462Y0011746D01*
G01X0037462Y0011746D02*
G01X0037456Y0011759D01*
G01X0037456Y0011759D02*
G01X0037451Y0011772D01*
G01X0037451Y0011772D02*
G01X0037446Y0011786D01*
G01X0037446Y0011786D02*
G01X0037441Y0011800D01*
G01X0037441Y0011800D02*
G01X0037436Y0011813D01*
G01X0037436Y0011813D02*
G01X0037432Y0011827D01*
G01X0037432Y0011827D02*
G01X0037428Y0011841D01*
G01X0037428Y0011841D02*
G01X0037425Y0011856D01*
G01X0037425Y0011856D02*
G01X0037422Y0011870D01*
G01X0037422Y0011870D02*
G01X0037419Y0011884D01*
G01X0037419Y0011884D02*
G01X0037417Y0011898D01*
G01X0037417Y0011898D02*
G01X0037416Y0011913D01*
G01X0037416Y0011913D02*
G01X0037414Y0011927D01*
G01X0037414Y0011927D02*
G01X0037413Y0011942D01*
G01X0037413Y0011942D02*
G01X0037413Y0011956D01*
G01X0037413Y0011956D02*
G01X0037412Y0011971D01*
G54D11*
G01X0010357Y0033589D02*
G01X0010357Y0034691D01*
G01X0010357Y0034691D02*
G01X0008373Y0034691D01*
G01X0008373Y0034691D02*
G01X0008373Y0033589D01*
G01X0008373Y0033589D02*
G01X0010357Y0033589D01*
G01X0010003Y0033766D02*
G01X0010003Y0033963D01*
G01X0010003Y0033963D02*
G01X0009806Y0033963D01*
G01X0009806Y0033963D02*
G01X0009806Y0033766D01*
G01X0009806Y0033766D02*
G01X0010003Y0033766D01*
G01X0009267Y0033864D02*
G01X0009267Y0033871D01*
G01X0009267Y0033871D02*
G01X0009268Y0033877D01*
G01X0009268Y0033877D02*
G01X0009269Y0033883D01*
G01X0009269Y0033883D02*
G01X0009270Y0033889D01*
G01X0009270Y0033889D02*
G01X0009272Y0033895D01*
G01X0009272Y0033895D02*
G01X0009274Y0033901D01*
G01X0009274Y0033901D02*
G01X0009276Y0033907D01*
G01X0009276Y0033907D02*
G01X0009279Y0033912D01*
G01X0009279Y0033912D02*
G01X0009282Y0033918D01*
G01X0009282Y0033918D02*
G01X0009286Y0033923D01*
G01X0009286Y0033923D02*
G01X0009290Y0033928D01*
G01X0009290Y0033928D02*
G01X0009294Y0033932D01*
G01X0009294Y0033932D02*
G01X0009298Y0033937D01*
G01X0009298Y0033937D02*
G01X0009303Y0033941D01*
G01X0009303Y0033941D02*
G01X0009308Y0033945D01*
G01X0009308Y0033945D02*
G01X0009313Y0033948D01*
G01X0009313Y0033948D02*
G01X0009319Y0033951D01*
G01X0009319Y0033951D02*
G01X0009324Y0033954D01*
G01X0009324Y0033954D02*
G01X0009330Y0033956D01*
G01X0009330Y0033956D02*
G01X0009336Y0033958D01*
G01X0009336Y0033958D02*
G01X0009342Y0033960D01*
G01X0009342Y0033960D02*
G01X0009348Y0033961D01*
G01X0009348Y0033961D02*
G01X0009354Y0033962D01*
G01X0009354Y0033962D02*
G01X0009360Y0033963D01*
G01X0009360Y0033963D02*
G01X0009367Y0033963D01*
G01X0009367Y0033963D02*
G01X0009373Y0033963D01*
G01X0009373Y0033963D02*
G01X0009379Y0033962D01*
G01X0009379Y0033962D02*
G01X0009385Y0033961D01*
G01X0009385Y0033961D02*
G01X0009391Y0033959D01*
G01X0009391Y0033959D02*
G01X0009397Y0033957D01*
G01X0009397Y0033957D02*
G01X0009403Y0033955D01*
G01X0009403Y0033955D02*
G01X0009409Y0033953D01*
G01X0009409Y0033953D02*
G01X0009414Y0033950D01*
G01X0009414Y0033950D02*
G01X0009420Y0033946D01*
G01X0009420Y0033946D02*
G01X0009425Y0033943D01*
G01X0009425Y0033943D02*
G01X0009430Y0033939D01*
G01X0009430Y0033939D02*
G01X0009434Y0033935D01*
G01X0009434Y0033935D02*
G01X0009438Y0033930D01*
G01X0009438Y0033930D02*
G01X0009442Y0033925D01*
G01X0009442Y0033925D02*
G01X0009446Y0033920D01*
G01X0009446Y0033920D02*
G01X0009450Y0033915D01*
G01X0009450Y0033915D02*
G01X0009453Y0033910D01*
G01X0009453Y0033910D02*
G01X0009455Y0033904D01*
G01X0009455Y0033904D02*
G01X0009458Y0033898D01*
G01X0009458Y0033898D02*
G01X0009460Y0033892D01*
G01X0009460Y0033892D02*
G01X0009461Y0033886D01*
G01X0009461Y0033886D02*
G01X0009462Y0033880D01*
G01X0009462Y0033880D02*
G01X0009463Y0033874D01*
G01X0009463Y0033874D02*
G01X0009464Y0033868D01*
G01X0009464Y0033868D02*
G01X0009464Y0033861D01*
G01X0009464Y0033861D02*
G01X0009463Y0033855D01*
G01X0009463Y0033855D02*
G01X0009462Y0033849D01*
G01X0009462Y0033849D02*
G01X0009461Y0033843D01*
G01X0009461Y0033843D02*
G01X0009460Y0033837D01*
G01X0009460Y0033837D02*
G01X0009458Y0033831D01*
G01X0009458Y0033831D02*
G01X0009455Y0033825D01*
G01X0009455Y0033825D02*
G01X0009453Y0033819D01*
G01X0009453Y0033819D02*
G01X0009450Y0033814D01*
G01X0009450Y0033814D02*
G01X0009446Y0033809D01*
G01X0009446Y0033809D02*
G01X0009442Y0033804D01*
G01X0009442Y0033804D02*
G01X0009438Y0033799D01*
G01X0009438Y0033799D02*
G01X0009434Y0033794D01*
G01X0009434Y0033794D02*
G01X0009430Y0033790D01*
G01X0009430Y0033790D02*
G01X0009425Y0033786D01*
G01X0009425Y0033786D02*
G01X0009420Y0033783D01*
G01X0009420Y0033783D02*
G01X0009414Y0033779D01*
G01X0009414Y0033779D02*
G01X0009409Y0033776D01*
G01X0009409Y0033776D02*
G01X0009403Y0033774D01*
G01X0009403Y0033774D02*
G01X0009397Y0033771D01*
G01X0009397Y0033771D02*
G01X0009391Y0033770D01*
G01X0009391Y0033770D02*
G01X0009385Y0033768D01*
G01X0009385Y0033768D02*
G01X0009379Y0033767D01*
G01X0009379Y0033767D02*
G01X0009373Y0033766D01*
G01X0009373Y0033766D02*
G01X0009367Y0033766D01*
G01X0009367Y0033766D02*
G01X0009360Y0033766D01*
G01X0009360Y0033766D02*
G01X0009354Y0033767D01*
G01X0009354Y0033767D02*
G01X0009348Y0033768D01*
G01X0009348Y0033768D02*
G01X0009342Y0033769D01*
G01X0009342Y0033769D02*
G01X0009336Y0033770D01*
G01X0009336Y0033770D02*
G01X0009330Y0033773D01*
G01X0009330Y0033773D02*
G01X0009324Y0033775D01*
G01X0009324Y0033775D02*
G01X0009319Y0033778D01*
G01X0009319Y0033778D02*
G01X0009313Y0033781D01*
G01X0009313Y0033781D02*
G01X0009308Y0033784D01*
G01X0009308Y0033784D02*
G01X0009303Y0033788D01*
G01X0009303Y0033788D02*
G01X0009298Y0033792D01*
G01X0009298Y0033792D02*
G01X0009294Y0033797D01*
G01X0009294Y0033797D02*
G01X0009290Y0033801D01*
G01X0009290Y0033801D02*
G01X0009286Y0033806D01*
G01X0009286Y0033806D02*
G01X0009282Y0033811D01*
G01X0009282Y0033811D02*
G01X0009279Y0033817D01*
G01X0009279Y0033817D02*
G01X0009276Y0033822D01*
G01X0009276Y0033822D02*
G01X0009274Y0033828D01*
G01X0009274Y0033828D02*
G01X0009272Y0033834D01*
G01X0009272Y0033834D02*
G01X0009270Y0033840D01*
G01X0009270Y0033840D02*
G01X0009269Y0033846D01*
G01X0009269Y0033846D02*
G01X0009268Y0033852D01*
G01X0009268Y0033852D02*
G01X0009267Y0033858D01*
G01X0009267Y0033858D02*
G01X0009267Y0033864D01*
G01X0008727Y0033864D02*
G01X0008728Y0033871D01*
G01X0008728Y0033871D02*
G01X0008728Y0033877D01*
G01X0008728Y0033877D02*
G01X0008729Y0033883D01*
G01X0008729Y0033883D02*
G01X0008731Y0033889D01*
G01X0008731Y0033889D02*
G01X0008732Y0033895D01*
G01X0008732Y0033895D02*
G01X0008734Y0033901D01*
G01X0008734Y0033901D02*
G01X0008737Y0033907D01*
G01X0008737Y0033907D02*
G01X0008740Y0033912D01*
G01X0008740Y0033912D02*
G01X0008743Y0033918D01*
G01X0008743Y0033918D02*
G01X0008747Y0033923D01*
G01X0008747Y0033923D02*
G01X0008750Y0033928D01*
G01X0008750Y0033928D02*
G01X0008755Y0033932D01*
G01X0008755Y0033932D02*
G01X0008759Y0033937D01*
G01X0008759Y0033937D02*
G01X0008764Y0033941D01*
G01X0008764Y0033941D02*
G01X0008769Y0033945D01*
G01X0008769Y0033945D02*
G01X0008774Y0033948D01*
G01X0008774Y0033948D02*
G01X0008779Y0033951D01*
G01X0008779Y0033951D02*
G01X0008785Y0033954D01*
G01X0008785Y0033954D02*
G01X0008791Y0033956D01*
G01X0008791Y0033956D02*
G01X0008797Y0033958D01*
G01X0008797Y0033958D02*
G01X0008803Y0033960D01*
G01X0008803Y0033960D02*
G01X0008809Y0033961D01*
G01X0008809Y0033961D02*
G01X0008815Y0033962D01*
G01X0008815Y0033962D02*
G01X0008821Y0033963D01*
G01X0008821Y0033963D02*
G01X0008827Y0033963D01*
G01X0008827Y0033963D02*
G01X0008834Y0033963D01*
G01X0008834Y0033963D02*
G01X0008840Y0033962D01*
G01X0008840Y0033962D02*
G01X0008846Y0033961D01*
G01X0008846Y0033961D02*
G01X0008852Y0033959D01*
G01X0008852Y0033959D02*
G01X0008858Y0033957D01*
G01X0008858Y0033957D02*
G01X0008864Y0033955D01*
G01X0008864Y0033955D02*
G01X0008869Y0033953D01*
G01X0008869Y0033953D02*
G01X0008875Y0033950D01*
G01X0008875Y0033950D02*
G01X0008880Y0033946D01*
G01X0008880Y0033946D02*
G01X0008885Y0033943D01*
G01X0008885Y0033943D02*
G01X0008890Y0033939D01*
G01X0008890Y0033939D02*
G01X0008895Y0033935D01*
G01X0008895Y0033935D02*
G01X0008899Y0033930D01*
G01X0008899Y0033930D02*
G01X0008903Y0033925D01*
G01X0008903Y0033925D02*
G01X0008907Y0033920D01*
G01X0008907Y0033920D02*
G01X0008910Y0033915D01*
G01X0008910Y0033915D02*
G01X0008913Y0033910D01*
G01X0008913Y0033910D02*
G01X0008916Y0033904D01*
G01X0008916Y0033904D02*
G01X0008918Y0033898D01*
G01X0008918Y0033898D02*
G01X0008920Y0033892D01*
G01X0008920Y0033892D02*
G01X0008922Y0033886D01*
G01X0008922Y0033886D02*
G01X0008923Y0033880D01*
G01X0008923Y0033880D02*
G01X0008924Y0033874D01*
G01X0008924Y0033874D02*
G01X0008924Y0033868D01*
G01X0008924Y0033868D02*
G01X0008924Y0033861D01*
G01X0008924Y0033861D02*
G01X0008924Y0033855D01*
G01X0008924Y0033855D02*
G01X0008923Y0033849D01*
G01X0008923Y0033849D02*
G01X0008922Y0033843D01*
G01X0008922Y0033843D02*
G01X0008920Y0033837D01*
G01X0008920Y0033837D02*
G01X0008918Y0033831D01*
G01X0008918Y0033831D02*
G01X0008916Y0033825D01*
G01X0008916Y0033825D02*
G01X0008913Y0033819D01*
G01X0008913Y0033819D02*
G01X0008910Y0033814D01*
G01X0008910Y0033814D02*
G01X0008907Y0033809D01*
G01X0008907Y0033809D02*
G01X0008903Y0033804D01*
G01X0008903Y0033804D02*
G01X0008899Y0033799D01*
G01X0008899Y0033799D02*
G01X0008895Y0033794D01*
G01X0008895Y0033794D02*
G01X0008890Y0033790D01*
G01X0008890Y0033790D02*
G01X0008885Y0033786D01*
G01X0008885Y0033786D02*
G01X0008880Y0033783D01*
G01X0008880Y0033783D02*
G01X0008875Y0033779D01*
G01X0008875Y0033779D02*
G01X0008869Y0033776D01*
G01X0008869Y0033776D02*
G01X0008864Y0033774D01*
G01X0008864Y0033774D02*
G01X0008858Y0033771D01*
G01X0008858Y0033771D02*
G01X0008852Y0033770D01*
G01X0008852Y0033770D02*
G01X0008846Y0033768D01*
G01X0008846Y0033768D02*
G01X0008840Y0033767D01*
G01X0008840Y0033767D02*
G01X0008834Y0033766D01*
G01X0008834Y0033766D02*
G01X0008827Y0033766D01*
G01X0008827Y0033766D02*
G01X0008821Y0033766D01*
G01X0008821Y0033766D02*
G01X0008815Y0033767D01*
G01X0008815Y0033767D02*
G01X0008809Y0033768D01*
G01X0008809Y0033768D02*
G01X0008803Y0033769D01*
G01X0008803Y0033769D02*
G01X0008797Y0033770D01*
G01X0008797Y0033770D02*
G01X0008791Y0033773D01*
G01X0008791Y0033773D02*
G01X0008785Y0033775D01*
G01X0008785Y0033775D02*
G01X0008779Y0033778D01*
G01X0008779Y0033778D02*
G01X0008774Y0033781D01*
G01X0008774Y0033781D02*
G01X0008769Y0033784D01*
G01X0008769Y0033784D02*
G01X0008764Y0033788D01*
G01X0008764Y0033788D02*
G01X0008759Y0033792D01*
G01X0008759Y0033792D02*
G01X0008755Y0033797D01*
G01X0008755Y0033797D02*
G01X0008750Y0033801D01*
G01X0008750Y0033801D02*
G01X0008747Y0033806D01*
G01X0008747Y0033806D02*
G01X0008743Y0033811D01*
G01X0008743Y0033811D02*
G01X0008740Y0033817D01*
G01X0008740Y0033817D02*
G01X0008737Y0033822D01*
G01X0008737Y0033822D02*
G01X0008734Y0033828D01*
G01X0008734Y0033828D02*
G01X0008732Y0033834D01*
G01X0008732Y0033834D02*
G01X0008731Y0033840D01*
G01X0008731Y0033840D02*
G01X0008729Y0033846D01*
G01X0008729Y0033846D02*
G01X0008728Y0033852D01*
G01X0008728Y0033852D02*
G01X0008728Y0033858D01*
G01X0008728Y0033858D02*
G01X0008727Y0033864D01*
G01X0008727Y0034416D02*
G01X0008728Y0034422D01*
G01X0008728Y0034422D02*
G01X0008728Y0034428D01*
G01X0008728Y0034428D02*
G01X0008729Y0034434D01*
G01X0008729Y0034434D02*
G01X0008731Y0034440D01*
G01X0008731Y0034440D02*
G01X0008732Y0034446D01*
G01X0008732Y0034446D02*
G01X0008734Y0034452D01*
G01X0008734Y0034452D02*
G01X0008737Y0034458D01*
G01X0008737Y0034458D02*
G01X0008740Y0034463D01*
G01X0008740Y0034463D02*
G01X0008743Y0034469D01*
G01X0008743Y0034469D02*
G01X0008747Y0034474D01*
G01X0008747Y0034474D02*
G01X0008750Y0034479D01*
G01X0008750Y0034479D02*
G01X0008755Y0034484D01*
G01X0008755Y0034484D02*
G01X0008759Y0034488D01*
G01X0008759Y0034488D02*
G01X0008764Y0034492D01*
G01X0008764Y0034492D02*
G01X0008769Y0034496D01*
G01X0008769Y0034496D02*
G01X0008774Y0034499D01*
G01X0008774Y0034499D02*
G01X0008779Y0034502D01*
G01X0008779Y0034502D02*
G01X0008785Y0034505D01*
G01X0008785Y0034505D02*
G01X0008791Y0034508D01*
G01X0008791Y0034508D02*
G01X0008797Y0034510D01*
G01X0008797Y0034510D02*
G01X0008803Y0034511D01*
G01X0008803Y0034511D02*
G01X0008809Y0034513D01*
G01X0008809Y0034513D02*
G01X0008815Y0034513D01*
G01X0008815Y0034513D02*
G01X0008821Y0034514D01*
G01X0008821Y0034514D02*
G01X0008827Y0034514D01*
G01X0008827Y0034514D02*
G01X0008834Y0034514D01*
G01X0008834Y0034514D02*
G01X0008840Y0034513D01*
G01X0008840Y0034513D02*
G01X0008846Y0034512D01*
G01X0008846Y0034512D02*
G01X0008852Y0034510D01*
G01X0008852Y0034510D02*
G01X0008858Y0034509D01*
G01X0008858Y0034509D02*
G01X0008864Y0034506D01*
G01X0008864Y0034506D02*
G01X0008869Y0034504D01*
G01X0008869Y0034504D02*
G01X0008875Y0034501D01*
G01X0008875Y0034501D02*
G01X0008880Y0034498D01*
G01X0008880Y0034498D02*
G01X0008885Y0034494D01*
G01X0008885Y0034494D02*
G01X0008890Y0034490D01*
G01X0008890Y0034490D02*
G01X0008895Y0034486D01*
G01X0008895Y0034486D02*
G01X0008899Y0034481D01*
G01X0008899Y0034481D02*
G01X0008903Y0034476D01*
G01X0008903Y0034476D02*
G01X0008907Y0034471D01*
G01X0008907Y0034471D02*
G01X0008910Y0034466D01*
G01X0008910Y0034466D02*
G01X0008913Y0034461D01*
G01X0008913Y0034461D02*
G01X0008916Y0034455D01*
G01X0008916Y0034455D02*
G01X0008918Y0034449D01*
G01X0008918Y0034449D02*
G01X0008920Y0034443D01*
G01X0008920Y0034443D02*
G01X0008922Y0034437D01*
G01X0008922Y0034437D02*
G01X0008923Y0034431D01*
G01X0008923Y0034431D02*
G01X0008924Y0034425D01*
G01X0008924Y0034425D02*
G01X0008924Y0034419D01*
G01X0008924Y0034419D02*
G01X0008924Y0034413D01*
G01X0008924Y0034413D02*
G01X0008924Y0034406D01*
G01X0008924Y0034406D02*
G01X0008923Y0034400D01*
G01X0008923Y0034400D02*
G01X0008922Y0034394D01*
G01X0008922Y0034394D02*
G01X0008920Y0034388D01*
G01X0008920Y0034388D02*
G01X0008918Y0034382D01*
G01X0008918Y0034382D02*
G01X0008916Y0034376D01*
G01X0008916Y0034376D02*
G01X0008913Y0034371D01*
G01X0008913Y0034371D02*
G01X0008910Y0034365D01*
G01X0008910Y0034365D02*
G01X0008907Y0034360D01*
G01X0008907Y0034360D02*
G01X0008903Y0034355D01*
G01X0008903Y0034355D02*
G01X0008899Y0034350D01*
G01X0008899Y0034350D02*
G01X0008895Y0034346D01*
G01X0008895Y0034346D02*
G01X0008890Y0034341D01*
G01X0008890Y0034341D02*
G01X0008885Y0034337D01*
G01X0008885Y0034337D02*
G01X0008880Y0034334D01*
G01X0008880Y0034334D02*
G01X0008875Y0034330D01*
G01X0008875Y0034330D02*
G01X0008869Y0034327D01*
G01X0008869Y0034327D02*
G01X0008864Y0034325D01*
G01X0008864Y0034325D02*
G01X0008858Y0034323D01*
G01X0008858Y0034323D02*
G01X0008852Y0034321D01*
G01X0008852Y0034321D02*
G01X0008846Y0034319D01*
G01X0008846Y0034319D02*
G01X0008840Y0034318D01*
G01X0008840Y0034318D02*
G01X0008834Y0034318D01*
G01X0008834Y0034318D02*
G01X0008827Y0034317D01*
G01X0008827Y0034317D02*
G01X0008821Y0034317D01*
G01X0008821Y0034317D02*
G01X0008815Y0034318D01*
G01X0008815Y0034318D02*
G01X0008809Y0034319D01*
G01X0008809Y0034319D02*
G01X0008803Y0034320D01*
G01X0008803Y0034320D02*
G01X0008797Y0034322D01*
G01X0008797Y0034322D02*
G01X0008791Y0034324D01*
G01X0008791Y0034324D02*
G01X0008785Y0034326D01*
G01X0008785Y0034326D02*
G01X0008779Y0034329D01*
G01X0008779Y0034329D02*
G01X0008774Y0034332D01*
G01X0008774Y0034332D02*
G01X0008769Y0034335D01*
G01X0008769Y0034335D02*
G01X0008764Y0034339D01*
G01X0008764Y0034339D02*
G01X0008759Y0034343D01*
G01X0008759Y0034343D02*
G01X0008755Y0034348D01*
G01X0008755Y0034348D02*
G01X0008750Y0034352D01*
G01X0008750Y0034352D02*
G01X0008747Y0034357D01*
G01X0008747Y0034357D02*
G01X0008743Y0034362D01*
G01X0008743Y0034362D02*
G01X0008740Y0034368D01*
G01X0008740Y0034368D02*
G01X0008737Y0034373D01*
G01X0008737Y0034373D02*
G01X0008734Y0034379D01*
G01X0008734Y0034379D02*
G01X0008732Y0034385D01*
G01X0008732Y0034385D02*
G01X0008731Y0034391D01*
G01X0008731Y0034391D02*
G01X0008729Y0034397D01*
G01X0008729Y0034397D02*
G01X0008728Y0034403D01*
G01X0008728Y0034403D02*
G01X0008728Y0034409D01*
G01X0008728Y0034409D02*
G01X0008727Y0034416D01*
G01X0009267Y0034416D02*
G01X0009267Y0034422D01*
G01X0009267Y0034422D02*
G01X0009268Y0034428D01*
G01X0009268Y0034428D02*
G01X0009269Y0034434D01*
G01X0009269Y0034434D02*
G01X0009270Y0034440D01*
G01X0009270Y0034440D02*
G01X0009272Y0034446D01*
G01X0009272Y0034446D02*
G01X0009274Y0034452D01*
G01X0009274Y0034452D02*
G01X0009276Y0034458D01*
G01X0009276Y0034458D02*
G01X0009279Y0034463D01*
G01X0009279Y0034463D02*
G01X0009282Y0034469D01*
G01X0009282Y0034469D02*
G01X0009286Y0034474D01*
G01X0009286Y0034474D02*
G01X0009290Y0034479D01*
G01X0009290Y0034479D02*
G01X0009294Y0034484D01*
G01X0009294Y0034484D02*
G01X0009298Y0034488D01*
G01X0009298Y0034488D02*
G01X0009303Y0034492D01*
G01X0009303Y0034492D02*
G01X0009308Y0034496D01*
G01X0009308Y0034496D02*
G01X0009313Y0034499D01*
G01X0009313Y0034499D02*
G01X0009319Y0034502D01*
G01X0009319Y0034502D02*
G01X0009324Y0034505D01*
G01X0009324Y0034505D02*
G01X0009330Y0034508D01*
G01X0009330Y0034508D02*
G01X0009336Y0034510D01*
G01X0009336Y0034510D02*
G01X0009342Y0034511D01*
G01X0009342Y0034511D02*
G01X0009348Y0034513D01*
G01X0009348Y0034513D02*
G01X0009354Y0034513D01*
G01X0009354Y0034513D02*
G01X0009360Y0034514D01*
G01X0009360Y0034514D02*
G01X0009367Y0034514D01*
G01X0009367Y0034514D02*
G01X0009373Y0034514D01*
G01X0009373Y0034514D02*
G01X0009379Y0034513D01*
G01X0009379Y0034513D02*
G01X0009385Y0034512D01*
G01X0009385Y0034512D02*
G01X0009391Y0034510D01*
G01X0009391Y0034510D02*
G01X0009397Y0034509D01*
G01X0009397Y0034509D02*
G01X0009403Y0034506D01*
G01X0009403Y0034506D02*
G01X0009409Y0034504D01*
G01X0009409Y0034504D02*
G01X0009414Y0034501D01*
G01X0009414Y0034501D02*
G01X0009420Y0034498D01*
G01X0009420Y0034498D02*
G01X0009425Y0034494D01*
G01X0009425Y0034494D02*
G01X0009430Y0034490D01*
G01X0009430Y0034490D02*
G01X0009434Y0034486D01*
G01X0009434Y0034486D02*
G01X0009438Y0034481D01*
G01X0009438Y0034481D02*
G01X0009442Y0034476D01*
G01X0009442Y0034476D02*
G01X0009446Y0034471D01*
G01X0009446Y0034471D02*
G01X0009450Y0034466D01*
G01X0009450Y0034466D02*
G01X0009453Y0034461D01*
G01X0009453Y0034461D02*
G01X0009455Y0034455D01*
G01X0009455Y0034455D02*
G01X0009458Y0034449D01*
G01X0009458Y0034449D02*
G01X0009460Y0034443D01*
G01X0009460Y0034443D02*
G01X0009461Y0034437D01*
G01X0009461Y0034437D02*
G01X0009462Y0034431D01*
G01X0009462Y0034431D02*
G01X0009463Y0034425D01*
G01X0009463Y0034425D02*
G01X0009464Y0034419D01*
G01X0009464Y0034419D02*
G01X0009464Y0034413D01*
G01X0009464Y0034413D02*
G01X0009463Y0034406D01*
G01X0009463Y0034406D02*
G01X0009462Y0034400D01*
G01X0009462Y0034400D02*
G01X0009461Y0034394D01*
G01X0009461Y0034394D02*
G01X0009460Y0034388D01*
G01X0009460Y0034388D02*
G01X0009458Y0034382D01*
G01X0009458Y0034382D02*
G01X0009455Y0034376D01*
G01X0009455Y0034376D02*
G01X0009453Y0034371D01*
G01X0009453Y0034371D02*
G01X0009450Y0034365D01*
G01X0009450Y0034365D02*
G01X0009446Y0034360D01*
G01X0009446Y0034360D02*
G01X0009442Y0034355D01*
G01X0009442Y0034355D02*
G01X0009438Y0034350D01*
G01X0009438Y0034350D02*
G01X0009434Y0034346D01*
G01X0009434Y0034346D02*
G01X0009430Y0034341D01*
G01X0009430Y0034341D02*
G01X0009425Y0034337D01*
G01X0009425Y0034337D02*
G01X0009420Y0034334D01*
G01X0009420Y0034334D02*
G01X0009414Y0034330D01*
G01X0009414Y0034330D02*
G01X0009409Y0034327D01*
G01X0009409Y0034327D02*
G01X0009403Y0034325D01*
G01X0009403Y0034325D02*
G01X0009397Y0034323D01*
G01X0009397Y0034323D02*
G01X0009391Y0034321D01*
G01X0009391Y0034321D02*
G01X0009385Y0034319D01*
G01X0009385Y0034319D02*
G01X0009379Y0034318D01*
G01X0009379Y0034318D02*
G01X0009373Y0034318D01*
G01X0009373Y0034318D02*
G01X0009367Y0034317D01*
G01X0009367Y0034317D02*
G01X0009360Y0034317D01*
G01X0009360Y0034317D02*
G01X0009354Y0034318D01*
G01X0009354Y0034318D02*
G01X0009348Y0034319D01*
G01X0009348Y0034319D02*
G01X0009342Y0034320D01*
G01X0009342Y0034320D02*
G01X0009336Y0034322D01*
G01X0009336Y0034322D02*
G01X0009330Y0034324D01*
G01X0009330Y0034324D02*
G01X0009324Y0034326D01*
G01X0009324Y0034326D02*
G01X0009319Y0034329D01*
G01X0009319Y0034329D02*
G01X0009313Y0034332D01*
G01X0009313Y0034332D02*
G01X0009308Y0034335D01*
G01X0009308Y0034335D02*
G01X0009303Y0034339D01*
G01X0009303Y0034339D02*
G01X0009298Y0034343D01*
G01X0009298Y0034343D02*
G01X0009294Y0034348D01*
G01X0009294Y0034348D02*
G01X0009290Y0034352D01*
G01X0009290Y0034352D02*
G01X0009286Y0034357D01*
G01X0009286Y0034357D02*
G01X0009282Y0034362D01*
G01X0009282Y0034362D02*
G01X0009279Y0034368D01*
G01X0009279Y0034368D02*
G01X0009276Y0034373D01*
G01X0009276Y0034373D02*
G01X0009274Y0034379D01*
G01X0009274Y0034379D02*
G01X0009272Y0034385D01*
G01X0009272Y0034385D02*
G01X0009270Y0034391D01*
G01X0009270Y0034391D02*
G01X0009269Y0034397D01*
G01X0009269Y0034397D02*
G01X0009268Y0034403D01*
G01X0009268Y0034403D02*
G01X0009267Y0034409D01*
G01X0009267Y0034409D02*
G01X0009267Y0034416D01*
G01X0009806Y0034416D02*
G01X0009806Y0034422D01*
G01X0009806Y0034422D02*
G01X0009807Y0034428D01*
G01X0009807Y0034428D02*
G01X0009808Y0034434D01*
G01X0009808Y0034434D02*
G01X0009809Y0034440D01*
G01X0009809Y0034440D02*
G01X0009811Y0034446D01*
G01X0009811Y0034446D02*
G01X0009813Y0034452D01*
G01X0009813Y0034452D02*
G01X0009816Y0034458D01*
G01X0009816Y0034458D02*
G01X0009819Y0034463D01*
G01X0009819Y0034463D02*
G01X0009822Y0034469D01*
G01X0009822Y0034469D02*
G01X0009825Y0034474D01*
G01X0009825Y0034474D02*
G01X0009829Y0034479D01*
G01X0009829Y0034479D02*
G01X0009833Y0034484D01*
G01X0009833Y0034484D02*
G01X0009838Y0034488D01*
G01X0009838Y0034488D02*
G01X0009843Y0034492D01*
G01X0009843Y0034492D02*
G01X0009847Y0034496D01*
G01X0009847Y0034496D02*
G01X0009853Y0034499D01*
G01X0009853Y0034499D02*
G01X0009858Y0034502D01*
G01X0009858Y0034502D02*
G01X0009864Y0034505D01*
G01X0009864Y0034505D02*
G01X0009869Y0034508D01*
G01X0009869Y0034508D02*
G01X0009875Y0034510D01*
G01X0009875Y0034510D02*
G01X0009881Y0034511D01*
G01X0009881Y0034511D02*
G01X0009887Y0034513D01*
G01X0009887Y0034513D02*
G01X0009894Y0034513D01*
G01X0009894Y0034513D02*
G01X0009900Y0034514D01*
G01X0009900Y0034514D02*
G01X0009906Y0034514D01*
G01X0009906Y0034514D02*
G01X0009912Y0034514D01*
G01X0009912Y0034514D02*
G01X0009919Y0034513D01*
G01X0009919Y0034513D02*
G01X0009925Y0034512D01*
G01X0009925Y0034512D02*
G01X0009931Y0034510D01*
G01X0009931Y0034510D02*
G01X0009937Y0034509D01*
G01X0009937Y0034509D02*
G01X0009943Y0034506D01*
G01X0009943Y0034506D02*
G01X0009948Y0034504D01*
G01X0009948Y0034504D02*
G01X0009954Y0034501D01*
G01X0009954Y0034501D02*
G01X0009959Y0034498D01*
G01X0009959Y0034498D02*
G01X0009964Y0034494D01*
G01X0009964Y0034494D02*
G01X0009969Y0034490D01*
G01X0009969Y0034490D02*
G01X0009974Y0034486D01*
G01X0009974Y0034486D02*
G01X0009978Y0034481D01*
G01X0009978Y0034481D02*
G01X0009982Y0034476D01*
G01X0009982Y0034476D02*
G01X0009986Y0034471D01*
G01X0009986Y0034471D02*
G01X0009989Y0034466D01*
G01X0009989Y0034466D02*
G01X0009992Y0034461D01*
G01X0009992Y0034461D02*
G01X0009995Y0034455D01*
G01X0009995Y0034455D02*
G01X0009997Y0034449D01*
G01X0009997Y0034449D02*
G01X0009999Y0034443D01*
G01X0009999Y0034443D02*
G01X0010001Y0034437D01*
G01X0010001Y0034437D02*
G01X0010002Y0034431D01*
G01X0010002Y0034431D02*
G01X0010003Y0034425D01*
G01X0010003Y0034425D02*
G01X0010003Y0034419D01*
G01X0010003Y0034419D02*
G01X0010003Y0034413D01*
G01X0010003Y0034413D02*
G01X0010003Y0034406D01*
G01X0010003Y0034406D02*
G01X0010002Y0034400D01*
G01X0010002Y0034400D02*
G01X0010001Y0034394D01*
G01X0010001Y0034394D02*
G01X0009999Y0034388D01*
G01X0009999Y0034388D02*
G01X0009997Y0034382D01*
G01X0009997Y0034382D02*
G01X0009995Y0034376D01*
G01X0009995Y0034376D02*
G01X0009992Y0034371D01*
G01X0009992Y0034371D02*
G01X0009989Y0034365D01*
G01X0009989Y0034365D02*
G01X0009986Y0034360D01*
G01X0009986Y0034360D02*
G01X0009982Y0034355D01*
G01X0009982Y0034355D02*
G01X0009978Y0034350D01*
G01X0009978Y0034350D02*
G01X0009974Y0034346D01*
G01X0009974Y0034346D02*
G01X0009969Y0034341D01*
G01X0009969Y0034341D02*
G01X0009964Y0034337D01*
G01X0009964Y0034337D02*
G01X0009959Y0034334D01*
G01X0009959Y0034334D02*
G01X0009954Y0034330D01*
G01X0009954Y0034330D02*
G01X0009948Y0034327D01*
G01X0009948Y0034327D02*
G01X0009943Y0034325D01*
G01X0009943Y0034325D02*
G01X0009937Y0034323D01*
G01X0009937Y0034323D02*
G01X0009931Y0034321D01*
G01X0009931Y0034321D02*
G01X0009925Y0034319D01*
G01X0009925Y0034319D02*
G01X0009919Y0034318D01*
G01X0009919Y0034318D02*
G01X0009912Y0034318D01*
G01X0009912Y0034318D02*
G01X0009906Y0034317D01*
G01X0009906Y0034317D02*
G01X0009900Y0034317D01*
G01X0009900Y0034317D02*
G01X0009894Y0034318D01*
G01X0009894Y0034318D02*
G01X0009887Y0034319D01*
G01X0009887Y0034319D02*
G01X0009881Y0034320D01*
G01X0009881Y0034320D02*
G01X0009875Y0034322D01*
G01X0009875Y0034322D02*
G01X0009869Y0034324D01*
G01X0009869Y0034324D02*
G01X0009864Y0034326D01*
G01X0009864Y0034326D02*
G01X0009858Y0034329D01*
G01X0009858Y0034329D02*
G01X0009853Y0034332D01*
G01X0009853Y0034332D02*
G01X0009847Y0034335D01*
G01X0009847Y0034335D02*
G01X0009843Y0034339D01*
G01X0009843Y0034339D02*
G01X0009838Y0034343D01*
G01X0009838Y0034343D02*
G01X0009833Y0034348D01*
G01X0009833Y0034348D02*
G01X0009829Y0034352D01*
G01X0009829Y0034352D02*
G01X0009825Y0034357D01*
G01X0009825Y0034357D02*
G01X0009822Y0034362D01*
G01X0009822Y0034362D02*
G01X0009819Y0034368D01*
G01X0009819Y0034368D02*
G01X0009816Y0034373D01*
G01X0009816Y0034373D02*
G01X0009813Y0034379D01*
G01X0009813Y0034379D02*
G01X0009811Y0034385D01*
G01X0009811Y0034385D02*
G01X0009809Y0034391D01*
G01X0009809Y0034391D02*
G01X0009808Y0034397D01*
G01X0009808Y0034397D02*
G01X0009807Y0034403D01*
G01X0009807Y0034403D02*
G01X0009806Y0034409D01*
G01X0009806Y0034409D02*
G01X0009806Y0034416D01*
G54D12*
G01X0009808Y0034903D02*
G01X0009760Y0034951D01*
G01X0009760Y0034951D02*
G01X0009760Y0035048D01*
G01X0009760Y0035048D02*
G01X0009808Y0035097D01*
G01X0009808Y0035097D02*
G01X0009905Y0035097D01*
G01X0009905Y0035097D02*
G01X0009905Y0035000D01*
G01X0010001Y0035097D02*
G01X0010050Y0035048D01*
G01X0010050Y0035048D02*
G01X0010050Y0034951D01*
G01X0010050Y0034951D02*
G01X0010001Y0034903D01*
G01X0010001Y0034903D02*
G01X0009808Y0034903D01*
G01X0009760Y0035198D02*
G01X0010050Y0035198D01*
G01X0010050Y0035198D02*
G01X0009760Y0035391D01*
G01X0009760Y0035391D02*
G01X0010050Y0035391D01*
G01X0010050Y0035492D02*
G01X0010050Y0035638D01*
G01X0010050Y0035638D02*
G01X0010001Y0035686D01*
G01X0010001Y0035686D02*
G01X0009808Y0035686D01*
G01X0009808Y0035686D02*
G01X0009760Y0035638D01*
G01X0009760Y0035638D02*
G01X0009760Y0035492D01*
G01X0009760Y0035492D02*
G01X0010050Y0035492D01*
G01X0009510Y0035589D02*
G01X0009414Y0035686D01*
G01X0009414Y0035686D02*
G01X0009220Y0035686D01*
G01X0009365Y0035686D02*
G01X0009365Y0035492D01*
G01X0009414Y0035492D02*
G01X0009510Y0035589D01*
G01X0009414Y0035492D02*
G01X0009220Y0035492D01*
G01X0009269Y0035391D02*
G01X0009462Y0035391D01*
G01X0009462Y0035391D02*
G01X0009510Y0035343D01*
G01X0009510Y0035343D02*
G01X0009510Y0035198D01*
G01X0009510Y0035198D02*
G01X0009220Y0035198D01*
G01X0009220Y0035198D02*
G01X0009220Y0035343D01*
G01X0009220Y0035343D02*
G01X0009269Y0035391D01*
G01X0009269Y0035097D02*
G01X0009220Y0035048D01*
G01X0009220Y0035048D02*
G01X0009220Y0034951D01*
G01X0009220Y0034951D02*
G01X0009269Y0034903D01*
G01X0009365Y0034951D02*
G01X0009365Y0035048D01*
G01X0009365Y0035048D02*
G01X0009317Y0035097D01*
G01X0009317Y0035097D02*
G01X0009269Y0035097D01*
G01X0009365Y0034951D02*
G01X0009414Y0034903D01*
G01X0009414Y0034903D02*
G01X0009462Y0034903D01*
G01X0009462Y0034903D02*
G01X0009510Y0034951D01*
G01X0009510Y0034951D02*
G01X0009510Y0035048D01*
G01X0009510Y0035048D02*
G01X0009462Y0035097D01*
G01X0008971Y0035097D02*
G01X0008971Y0034903D01*
G01X0008971Y0034903D02*
G01X0008826Y0034903D01*
G01X0008826Y0034903D02*
G01X0008874Y0035000D01*
G01X0008874Y0035000D02*
G01X0008874Y0035048D01*
G01X0008874Y0035048D02*
G01X0008826Y0035097D01*
G01X0008826Y0035097D02*
G01X0008729Y0035097D01*
G01X0008729Y0035097D02*
G01X0008681Y0035048D01*
G01X0008681Y0035048D02*
G01X0008681Y0034951D01*
G01X0008681Y0034951D02*
G01X0008729Y0034903D01*
G01X0008729Y0035198D02*
G01X0008729Y0035246D01*
G01X0008729Y0035246D02*
G01X0008681Y0035246D01*
G01X0008681Y0035246D02*
G01X0008681Y0035198D01*
G01X0008681Y0035198D02*
G01X0008729Y0035198D01*
G01X0008729Y0035345D02*
G01X0008923Y0035539D01*
G01X0008923Y0035539D02*
G01X0008729Y0035539D01*
G01X0008729Y0035539D02*
G01X0008681Y0035490D01*
G01X0008681Y0035490D02*
G01X0008681Y0035393D01*
G01X0008681Y0035393D02*
G01X0008729Y0035345D01*
G01X0008729Y0035345D02*
G01X0008923Y0035345D01*
G01X0008923Y0035345D02*
G01X0008971Y0035393D01*
G01X0008971Y0035393D02*
G01X0008971Y0035490D01*
G01X0008971Y0035490D02*
G01X0008923Y0035539D01*
G01X0008971Y0035640D02*
G01X0008778Y0035640D01*
G01X0008778Y0035640D02*
G01X0008681Y0035736D01*
G01X0008681Y0035736D02*
G01X0008778Y0035833D01*
G01X0008778Y0035833D02*
G01X0008971Y0035833D01*
G01X0008971Y0033306D02*
G01X0008778Y0033306D01*
G01X0008778Y0033306D02*
G01X0008681Y0033209D01*
G01X0008681Y0033209D02*
G01X0008778Y0033112D01*
G01X0008778Y0033112D02*
G01X0008971Y0033112D01*
G01X0008923Y0033011D02*
G01X0008874Y0033011D01*
G01X0008874Y0033011D02*
G01X0008826Y0032963D01*
G01X0008826Y0032963D02*
G01X0008778Y0033011D01*
G01X0008778Y0033011D02*
G01X0008729Y0033011D01*
G01X0008729Y0033011D02*
G01X0008681Y0032963D01*
G01X0008681Y0032963D02*
G01X0008681Y0032866D01*
G01X0008681Y0032866D02*
G01X0008729Y0032818D01*
G01X0008729Y0032719D02*
G01X0008681Y0032719D01*
G01X0008681Y0032719D02*
G01X0008681Y0032670D01*
G01X0008681Y0032670D02*
G01X0008729Y0032670D01*
G01X0008729Y0032670D02*
G01X0008729Y0032719D01*
G01X0008729Y0032569D02*
G01X0008681Y0032521D01*
G01X0008681Y0032521D02*
G01X0008681Y0032424D01*
G01X0008681Y0032424D02*
G01X0008729Y0032376D01*
G01X0008826Y0032472D02*
G01X0008826Y0032521D01*
G01X0008826Y0032521D02*
G01X0008778Y0032569D01*
G01X0008778Y0032569D02*
G01X0008729Y0032569D01*
G01X0008826Y0032521D02*
G01X0008874Y0032569D01*
G01X0008874Y0032569D02*
G01X0008923Y0032569D01*
G01X0008923Y0032569D02*
G01X0008971Y0032521D01*
G01X0008971Y0032521D02*
G01X0008971Y0032424D01*
G01X0008971Y0032424D02*
G01X0008923Y0032376D01*
G01X0009220Y0032571D02*
G01X0009269Y0032523D01*
G01X0009220Y0032571D02*
G01X0009220Y0032668D01*
G01X0009220Y0032668D02*
G01X0009269Y0032717D01*
G01X0009269Y0032717D02*
G01X0009317Y0032717D01*
G01X0009317Y0032717D02*
G01X0009365Y0032668D01*
G01X0009365Y0032668D02*
G01X0009365Y0032571D01*
G01X0009365Y0032571D02*
G01X0009414Y0032523D01*
G01X0009414Y0032523D02*
G01X0009462Y0032523D01*
G01X0009462Y0032523D02*
G01X0009510Y0032571D01*
G01X0009510Y0032571D02*
G01X0009510Y0032668D01*
G01X0009510Y0032668D02*
G01X0009462Y0032717D01*
G01X0009462Y0032818D02*
G01X0009269Y0032818D01*
G01X0009269Y0032818D02*
G01X0009220Y0032866D01*
G01X0009220Y0032866D02*
G01X0009220Y0032963D01*
G01X0009220Y0032963D02*
G01X0009269Y0033011D01*
G01X0009220Y0033112D02*
G01X0009220Y0033306D01*
G01X0009220Y0033112D02*
G01X0009510Y0033112D01*
G01X0009462Y0033011D02*
G01X0009510Y0032963D01*
G01X0009510Y0032963D02*
G01X0009510Y0032866D01*
G01X0009510Y0032866D02*
G01X0009462Y0032818D01*
G01X0009760Y0032818D02*
G01X0010050Y0032818D01*
G01X0010050Y0032818D02*
G01X0009760Y0033011D01*
G01X0009760Y0033011D02*
G01X0010050Y0033011D01*
G01X0010050Y0033112D02*
G01X0010050Y0033306D01*
G01X0010050Y0033209D02*
G01X0009760Y0033209D01*
G01X0009760Y0032718D02*
G01X0009760Y0032621D01*
G01X0009760Y0032670D02*
G01X0010050Y0032670D01*
G01X0010050Y0032621D02*
G01X0010050Y0032718D01*
G01X0008971Y0032866D02*
G01X0008971Y0032963D01*
G01X0008971Y0032963D02*
G01X0008923Y0033011D01*
G01X0008826Y0032963D02*
G01X0008826Y0032914D01*
G01X0008923Y0032818D02*
G01X0008971Y0032866D01*
G54D13*
G01X0008206Y0033792D02*
G01X0007846Y0033792D01*
G01X0007966Y0033792D02*
G01X0007966Y0033972D01*
G01X0007966Y0033972D02*
G01X0008026Y0034032D01*
G01X0008026Y0034032D02*
G01X0008146Y0034032D01*
G01X0008146Y0034032D02*
G01X0008206Y0033972D01*
G01X0008206Y0033972D02*
G01X0008206Y0033792D01*
G01X0008086Y0034160D02*
G01X0008206Y0034280D01*
G01X0008206Y0034280D02*
G01X0007846Y0034280D01*
G01X0007846Y0034160D02*
G01X0007846Y0034400D01*
G01X0007653Y0032898D02*
G01X0004849Y0032898D01*
G01X0004849Y0030453D02*
G01X0007653Y0030453D01*
G01X0012133Y0029729D02*
G01X0014936Y0029729D01*
G01X0014936Y0027284D02*
G01X0012133Y0027284D01*
G01X0007670Y0025971D02*
G01X0007670Y0023167D01*
G01X0005225Y0023167D02*
G01X0005225Y0025971D01*
G01X0019898Y0032665D02*
G01X0019898Y0032905D01*
G01X0019898Y0032785D02*
G01X0020258Y0032785D01*
G01X0020258Y0032785D02*
G01X0020138Y0032665D01*
G01X0005542Y0008688D02*
G01X0005466Y0008688D01*
G01X0005466Y0008688D02*
G01X0005159Y0008381D01*
G01X0005159Y0008381D02*
G01X0005082Y0008381D01*
G01X0005082Y0008381D02*
G01X0005082Y0008688D01*
G01X0005082Y0008227D02*
G01X0005542Y0008227D01*
G01X0005542Y0008381D02*
G01X0005542Y0008688D01*
G01X0005312Y0008227D02*
G01X0005312Y0007920D01*
G01X0005082Y0007920D02*
G01X0005542Y0007920D01*
G01X0005542Y0007767D02*
G01X0005082Y0007767D01*
G01X0005082Y0007460D02*
G01X0005542Y0007460D01*
G01X0005542Y0007460D02*
G01X0005389Y0007613D01*
G01X0005389Y0007613D02*
G01X0005542Y0007767D01*
G01X0005466Y0007307D02*
G01X0005389Y0007307D01*
G01X0005389Y0007307D02*
G01X0005312Y0007230D01*
G01X0005312Y0007230D02*
G01X0005235Y0007307D01*
G01X0005235Y0007307D02*
G01X0005159Y0007307D01*
G01X0005159Y0007307D02*
G01X0005082Y0007230D01*
G01X0005082Y0007230D02*
G01X0005082Y0007076D01*
G01X0005082Y0007076D02*
G01X0005159Y0007000D01*
G01X0005159Y0006846D02*
G01X0005082Y0006769D01*
G01X0005082Y0006769D02*
G01X0005082Y0006616D01*
G01X0005082Y0006616D02*
G01X0005159Y0006539D01*
G01X0005312Y0006386D02*
G01X0005312Y0006079D01*
G01X0005312Y0006079D02*
G01X0005542Y0006309D01*
G01X0005542Y0006309D02*
G01X0005082Y0006309D01*
G01X0005312Y0006693D02*
G01X0005312Y0006769D01*
G01X0005312Y0006769D02*
G01X0005235Y0006846D01*
G01X0005235Y0006846D02*
G01X0005159Y0006846D01*
G01X0005312Y0006769D02*
G01X0005389Y0006846D01*
G01X0005389Y0006846D02*
G01X0005466Y0006846D01*
G01X0005466Y0006846D02*
G01X0005542Y0006769D01*
G01X0005542Y0006769D02*
G01X0005542Y0006616D01*
G01X0005542Y0006616D02*
G01X0005466Y0006539D01*
G01X0005466Y0007000D02*
G01X0005542Y0007076D01*
G01X0005542Y0007076D02*
G01X0005542Y0007230D01*
G01X0005542Y0007230D02*
G01X0005466Y0007307D01*
G01X0005312Y0007230D02*
G01X0005312Y0007153D01*
G54D14*
G01X0006054Y0024355D02*
G01X0006842Y0024355D01*
G01X0006842Y0024355D02*
G01X0006448Y0024896D01*
G01X0006448Y0024896D02*
G01X0006054Y0024355D01*
G01X0013208Y0028506D02*
G01X0013748Y0028900D01*
G01X0013748Y0028900D02*
G01X0013748Y0028112D01*
G01X0013748Y0028112D02*
G01X0013208Y0028506D01*
G01X0006578Y0031675D02*
G01X0006037Y0031282D01*
G01X0006037Y0031282D02*
G01X0006037Y0032069D01*
G01X0006037Y0032069D02*
G01X0006578Y0031675D01*
G01X0029716Y0031672D02*
G01X0030397Y0031672D01*
G01X0030397Y0031672D02*
G01X0030170Y0031445D01*
G01X0029716Y0031445D02*
G01X0029716Y0031899D01*
G01X0029716Y0032145D02*
G01X0029716Y0032258D01*
G01X0029716Y0032258D02*
G01X0029830Y0032258D01*
G01X0029830Y0032258D02*
G01X0029830Y0032145D01*
G01X0029830Y0032145D02*
G01X0029716Y0032145D01*
G01X0029830Y0032495D02*
G01X0029716Y0032608D01*
G01X0029716Y0032608D02*
G01X0029716Y0032835D01*
G01X0029716Y0032835D02*
G01X0029830Y0032949D01*
G01X0029830Y0032949D02*
G01X0030056Y0032949D01*
G01X0030056Y0032949D02*
G01X0030170Y0032835D01*
G01X0030170Y0032835D02*
G01X0030170Y0032722D01*
G01X0030170Y0032722D02*
G01X0030056Y0032495D01*
G01X0030056Y0032495D02*
G01X0030397Y0032495D01*
G01X0030397Y0032495D02*
G01X0030397Y0032949D01*
G01X0030056Y0030499D02*
G01X0029716Y0030499D01*
G01X0030056Y0030499D02*
G01X0030170Y0030386D01*
G01X0030170Y0030386D02*
G01X0030170Y0030046D01*
G01X0030170Y0030046D02*
G01X0029716Y0030046D01*
G01X0029830Y0029799D02*
G01X0030056Y0029799D01*
G01X0030056Y0029799D02*
G01X0030170Y0029686D01*
G01X0030170Y0029686D02*
G01X0030170Y0029459D01*
G01X0030170Y0029459D02*
G01X0030056Y0029346D01*
G01X0030056Y0029346D02*
G01X0029830Y0029346D01*
G01X0029830Y0029346D02*
G01X0029716Y0029459D01*
G01X0029716Y0029459D02*
G01X0029716Y0029686D01*
G01X0029716Y0029686D02*
G01X0029830Y0029799D01*
G01X0029716Y0029106D02*
G01X0029716Y0028879D01*
G01X0029716Y0028993D02*
G01X0030170Y0028993D01*
G01X0030170Y0028993D02*
G01X0030170Y0028879D01*
G01X0030170Y0028633D02*
G01X0030170Y0028293D01*
G01X0030170Y0028293D02*
G01X0030056Y0028179D01*
G01X0030056Y0028179D02*
G01X0029943Y0028293D01*
G01X0029943Y0028293D02*
G01X0029943Y0028520D01*
G01X0029943Y0028520D02*
G01X0029830Y0028633D01*
G01X0029830Y0028633D02*
G01X0029716Y0028520D01*
G01X0029716Y0028520D02*
G01X0029716Y0028179D01*
G01X0030170Y0027937D02*
G01X0030170Y0027823D01*
G01X0030170Y0027823D02*
G01X0029943Y0027596D01*
G01X0030170Y0027596D02*
G01X0029716Y0027596D01*
G01X0029943Y0027350D02*
G01X0029943Y0026896D01*
G01X0030056Y0026896D02*
G01X0029830Y0026896D01*
G01X0029830Y0026896D02*
G01X0029716Y0027010D01*
G01X0029716Y0027010D02*
G01X0029716Y0027237D01*
G01X0029943Y0027350D02*
G01X0030056Y0027350D01*
G01X0030056Y0027350D02*
G01X0030170Y0027237D01*
G01X0030170Y0027237D02*
G01X0030170Y0027010D01*
G01X0030170Y0027010D02*
G01X0030056Y0026896D01*
G01X0029943Y0026650D02*
G01X0030397Y0026650D01*
G01X0030397Y0026197D02*
G01X0029943Y0026197D01*
G01X0029943Y0026197D02*
G01X0029716Y0026424D01*
G01X0029716Y0026424D02*
G01X0029943Y0026650D01*
G01X0029830Y0025260D02*
G01X0029716Y0025260D01*
G01X0029716Y0025260D02*
G01X0029716Y0025147D01*
G01X0029716Y0025147D02*
G01X0029830Y0025147D01*
G01X0029830Y0025147D02*
G01X0029830Y0025260D01*
G01X0029716Y0024901D02*
G01X0029716Y0024561D01*
G01X0029716Y0024561D02*
G01X0029830Y0024447D01*
G01X0029830Y0024447D02*
G01X0030056Y0024447D01*
G01X0030056Y0024447D02*
G01X0030170Y0024561D01*
G01X0030170Y0024561D02*
G01X0030170Y0024901D01*
G01X0030397Y0024901D02*
G01X0029716Y0024901D01*
G01X0030170Y0024204D02*
G01X0030170Y0024091D01*
G01X0030170Y0024091D02*
G01X0029943Y0023864D01*
G01X0030170Y0023864D02*
G01X0029716Y0023864D01*
G01X0029716Y0023618D02*
G01X0029716Y0023278D01*
G01X0029716Y0023278D02*
G01X0029830Y0023164D01*
G01X0029830Y0023164D02*
G01X0029943Y0023278D01*
G01X0029943Y0023278D02*
G01X0029943Y0023618D01*
G01X0030056Y0023618D02*
G01X0029716Y0023618D01*
G01X0030056Y0023618D02*
G01X0030170Y0023505D01*
G01X0030170Y0023505D02*
G01X0030170Y0023278D01*
G01X0030056Y0022918D02*
G01X0029830Y0022918D01*
G01X0029830Y0022918D02*
G01X0029716Y0022805D01*
G01X0029716Y0022805D02*
G01X0029716Y0022578D01*
G01X0029716Y0022578D02*
G01X0029830Y0022464D01*
G01X0029830Y0022464D02*
G01X0030056Y0022464D01*
G01X0030056Y0022464D02*
G01X0030170Y0022578D01*
G01X0030170Y0022578D02*
G01X0030170Y0022805D01*
G01X0030170Y0022805D02*
G01X0030056Y0022918D01*
G01X0030056Y0022218D02*
G01X0029830Y0022218D01*
G01X0029830Y0022218D02*
G01X0029716Y0022105D01*
G01X0029716Y0022105D02*
G01X0029716Y0021765D01*
G01X0029716Y0021765D02*
G01X0030397Y0021765D01*
G01X0030170Y0021765D02*
G01X0030170Y0022105D01*
G01X0030170Y0022105D02*
G01X0030056Y0022218D01*
G01X0030056Y0020819D02*
G01X0029716Y0020819D01*
G01X0030056Y0020819D02*
G01X0030170Y0020705D01*
G01X0030170Y0020705D02*
G01X0030170Y0020365D01*
G01X0030170Y0020365D02*
G01X0029716Y0020365D01*
G01X0029830Y0020119D02*
G01X0030056Y0020119D01*
G01X0030056Y0020119D02*
G01X0030170Y0020006D01*
G01X0030170Y0020006D02*
G01X0030170Y0019779D01*
G01X0030170Y0019779D02*
G01X0030056Y0019665D01*
G01X0030056Y0019665D02*
G01X0029830Y0019665D01*
G01X0029830Y0019665D02*
G01X0029716Y0019779D01*
G01X0029716Y0019779D02*
G01X0029716Y0020006D01*
G01X0029716Y0020006D02*
G01X0029830Y0020119D01*
G01X0029716Y0019426D02*
G01X0029716Y0019199D01*
G01X0029716Y0019312D02*
G01X0030170Y0019312D01*
G01X0030170Y0019312D02*
G01X0030170Y0019199D01*
G01X0030170Y0018959D02*
G01X0030170Y0018732D01*
G01X0030283Y0018846D02*
G01X0029830Y0018846D01*
G01X0029830Y0018846D02*
G01X0029716Y0018959D01*
G01X0029716Y0018486D02*
G01X0029716Y0018146D01*
G01X0029716Y0018146D02*
G01X0029830Y0018032D01*
G01X0029830Y0018032D02*
G01X0029943Y0018146D01*
G01X0029943Y0018146D02*
G01X0029943Y0018486D01*
G01X0030056Y0018486D02*
G01X0029716Y0018486D01*
G01X0030056Y0018486D02*
G01X0030170Y0018373D01*
G01X0030170Y0018373D02*
G01X0030170Y0018146D01*
G01X0030056Y0017786D02*
G01X0029716Y0017786D01*
G01X0029716Y0017559D02*
G01X0030056Y0017559D01*
G01X0030056Y0017559D02*
G01X0030170Y0017673D01*
G01X0030170Y0017673D02*
G01X0030056Y0017786D01*
G01X0030056Y0017559D02*
G01X0030170Y0017446D01*
G01X0030170Y0017446D02*
G01X0030170Y0017333D01*
G01X0030170Y0017333D02*
G01X0029716Y0017333D01*
G01X0029830Y0017087D02*
G01X0030056Y0017087D01*
G01X0030056Y0017087D02*
G01X0030170Y0016973D01*
G01X0030170Y0016973D02*
G01X0030170Y0016746D01*
G01X0030170Y0016746D02*
G01X0030056Y0016633D01*
G01X0030056Y0016633D02*
G01X0029830Y0016633D01*
G01X0029830Y0016633D02*
G01X0029716Y0016746D01*
G01X0029716Y0016746D02*
G01X0029716Y0016973D01*
G01X0029716Y0016973D02*
G01X0029830Y0017087D01*
G01X0029716Y0016393D02*
G01X0029830Y0016280D01*
G01X0029830Y0016280D02*
G01X0030283Y0016280D01*
G01X0030170Y0016166D02*
G01X0030170Y0016393D01*
G01X0030170Y0015920D02*
G01X0029716Y0015920D01*
G01X0029716Y0015920D02*
G01X0029716Y0015580D01*
G01X0029716Y0015580D02*
G01X0029830Y0015466D01*
G01X0029830Y0015466D02*
G01X0030170Y0015466D01*
G01X0030170Y0015220D02*
G01X0029716Y0015220D01*
G01X0030056Y0015220D02*
G01X0030056Y0014767D01*
G01X0030170Y0014767D02*
G01X0030397Y0014994D01*
G01X0030397Y0014994D02*
G01X0030170Y0015220D01*
G01X0030170Y0014767D02*
G01X0029716Y0014767D01*
G01X0030397Y0019312D02*
G01X0030510Y0019312D01*
G01X0030510Y0028993D02*
G01X0030397Y0028993D01*
G54D15*
G01X0019653Y0032388D02*
G01X0018653Y0032388D01*
G01X0018653Y0032388D02*
G01X0018653Y0033388D01*
G01X0018653Y0033388D02*
G01X0019653Y0033388D01*
G01X0019653Y0033388D02*
G01X0019653Y0033013D01*
G01X0019653Y0033013D02*
G01X0019778Y0033013D01*
G01X0019778Y0033013D02*
G01X0019778Y0032763D01*
G01X0019778Y0032763D02*
G01X0019653Y0032763D01*
G01X0019653Y0032763D02*
G01X0019653Y0032388D01*
G01X0019653Y0032388D02*
G01X0019653Y0013388D01*
G01X0019653Y0013388D02*
G01X0017653Y0013388D01*
G01X0017653Y0013388D02*
G01X0017653Y0033388D01*
G01X0017653Y0033388D02*
G01X0018653Y0033388D01*
G01X0019653Y0033013D02*
G01X0019653Y0032763D01*
G01X0016175Y0028681D02*
G01X0015725Y0028681D01*
G01X0015725Y0028831D02*
G01X0015725Y0028531D01*
G01X0015800Y0028371D02*
G01X0016100Y0028371D01*
G01X0016100Y0028371D02*
G01X0016175Y0028296D01*
G01X0016175Y0028296D02*
G01X0016175Y0028071D01*
G01X0016175Y0028071D02*
G01X0015725Y0028071D01*
G01X0015725Y0028071D02*
G01X0015725Y0028296D01*
G01X0015725Y0028296D02*
G01X0015800Y0028371D01*
G01X0016025Y0028531D02*
G01X0016175Y0028681D01*
G01X0012141Y0027050D02*
G01X0012141Y0024845D01*
G01X0010794Y0024845D02*
G01X0010794Y0027050D01*
G01X0010580Y0026422D02*
G01X0010505Y0026422D01*
G01X0010505Y0026422D02*
G01X0010205Y0026122D01*
G01X0010205Y0026122D02*
G01X0010205Y0026422D01*
G01X0010580Y0026422D02*
G01X0010655Y0026347D01*
G01X0010655Y0026347D02*
G01X0010655Y0026197D01*
G01X0010655Y0026197D02*
G01X0010580Y0026122D01*
G01X0010655Y0025962D02*
G01X0010655Y0025661D01*
G01X0010655Y0025661D02*
G01X0010205Y0025661D01*
G01X0010430Y0025661D02*
G01X0010430Y0025811D01*
G01X0008301Y0024819D02*
G01X0008301Y0024669D01*
G01X0008301Y0024669D02*
G01X0008226Y0024594D01*
G01X0008226Y0024434D02*
G01X0008301Y0024359D01*
G01X0008301Y0024359D02*
G01X0008301Y0024134D01*
G01X0008301Y0024134D02*
G01X0007851Y0024134D01*
G01X0007851Y0024134D02*
G01X0007851Y0024359D01*
G01X0007851Y0024359D02*
G01X0007926Y0024434D01*
G01X0007926Y0024434D02*
G01X0008226Y0024434D01*
G01X0008301Y0024819D02*
G01X0008226Y0024894D01*
G01X0008226Y0024894D02*
G01X0008151Y0024894D01*
G01X0008151Y0024894D02*
G01X0007851Y0024594D01*
G01X0007851Y0024594D02*
G01X0007851Y0024894D01*
G01X0004267Y0025553D02*
G01X0004267Y0023349D01*
G01X0002920Y0023349D02*
G01X0002920Y0025553D01*
G01X0003368Y0025876D02*
G01X0003819Y0025876D01*
G01X0003819Y0025876D02*
G01X0003819Y0026176D01*
G01X0003744Y0026336D02*
G01X0003819Y0026412D01*
G01X0003819Y0026412D02*
G01X0003819Y0026562D01*
G01X0003819Y0026562D02*
G01X0003744Y0026637D01*
G01X0003744Y0026637D02*
G01X0003669Y0026637D01*
G01X0003669Y0026637D02*
G01X0003594Y0026562D01*
G01X0003594Y0026562D02*
G01X0003519Y0026637D01*
G01X0003519Y0026637D02*
G01X0003444Y0026637D01*
G01X0003444Y0026637D02*
G01X0003368Y0026562D01*
G01X0003368Y0026562D02*
G01X0003368Y0026412D01*
G01X0003368Y0026412D02*
G01X0003444Y0026336D01*
G01X0003594Y0026487D02*
G01X0003594Y0026562D01*
G01X0003594Y0026026D02*
G01X0003594Y0025876D01*
G01X0008849Y0021347D02*
G01X0008849Y0021047D01*
G01X0008849Y0021047D02*
G01X0009149Y0021347D01*
G01X0009149Y0021347D02*
G01X0009224Y0021347D01*
G01X0009224Y0021347D02*
G01X0009299Y0021272D01*
G01X0009299Y0021272D02*
G01X0009299Y0021122D01*
G01X0009299Y0021122D02*
G01X0009224Y0021047D01*
G01X0009224Y0020887D02*
G01X0009299Y0020812D01*
G01X0009299Y0020812D02*
G01X0009299Y0020662D01*
G01X0009299Y0020662D02*
G01X0009224Y0020587D01*
G01X0009224Y0020587D02*
G01X0008924Y0020587D01*
G01X0008924Y0020587D02*
G01X0008849Y0020662D01*
G01X0008849Y0020662D02*
G01X0008849Y0020812D01*
G01X0008849Y0020812D02*
G01X0008924Y0020887D01*
G01X0009910Y0018815D02*
G01X0010360Y0018815D01*
G01X0010360Y0018815D02*
G01X0010135Y0018590D01*
G01X0010135Y0018590D02*
G01X0010135Y0018891D01*
G01X0010285Y0018430D02*
G01X0010360Y0018355D01*
G01X0010360Y0018355D02*
G01X0010360Y0018205D01*
G01X0010360Y0018205D02*
G01X0010285Y0018130D01*
G01X0010285Y0018130D02*
G01X0009985Y0018130D01*
G01X0009985Y0018130D02*
G01X0009910Y0018205D01*
G01X0009910Y0018205D02*
G01X0009910Y0018355D01*
G01X0009910Y0018355D02*
G01X0009985Y0018430D01*
G01X0011634Y0017958D02*
G01X0011935Y0017958D01*
G01X0011935Y0017958D02*
G01X0011935Y0017733D01*
G01X0011935Y0017733D02*
G01X0011785Y0017808D01*
G01X0011785Y0017808D02*
G01X0011709Y0017808D01*
G01X0011709Y0017808D02*
G01X0011634Y0017733D01*
G01X0011634Y0017733D02*
G01X0011634Y0017583D01*
G01X0011634Y0017583D02*
G01X0011709Y0017508D01*
G01X0011709Y0017508D02*
G01X0011860Y0017508D01*
G01X0011860Y0017508D02*
G01X0011935Y0017583D01*
G01X0012095Y0017583D02*
G01X0012170Y0017508D01*
G01X0012170Y0017508D02*
G01X0012320Y0017508D01*
G01X0012320Y0017508D02*
G01X0012395Y0017583D01*
G01X0012395Y0017583D02*
G01X0012395Y0017883D01*
G01X0012395Y0017883D02*
G01X0012320Y0017958D01*
G01X0012320Y0017958D02*
G01X0012170Y0017958D01*
G01X0012170Y0017958D02*
G01X0012095Y0017883D01*
G01X0011521Y0014586D02*
G01X0011596Y0014511D01*
G01X0011596Y0014511D02*
G01X0011596Y0014211D01*
G01X0011596Y0014211D02*
G01X0011521Y0014136D01*
G01X0011521Y0014136D02*
G01X0011370Y0014136D01*
G01X0011370Y0014136D02*
G01X0011295Y0014211D01*
G01X0011135Y0014211D02*
G01X0011060Y0014136D01*
G01X0011060Y0014136D02*
G01X0010910Y0014136D01*
G01X0010910Y0014136D02*
G01X0010835Y0014211D01*
G01X0010835Y0014211D02*
G01X0010835Y0014286D01*
G01X0010835Y0014286D02*
G01X0010910Y0014361D01*
G01X0010910Y0014361D02*
G01X0011135Y0014361D01*
G01X0011135Y0014361D02*
G01X0011135Y0014211D01*
G01X0011135Y0014361D02*
G01X0010985Y0014511D01*
G01X0010985Y0014511D02*
G01X0010835Y0014586D01*
G01X0011295Y0014511D02*
G01X0011370Y0014586D01*
G01X0011370Y0014586D02*
G01X0011521Y0014586D01*
G01X0011763Y0014057D02*
G01X0011153Y0014057D01*
G01X0011153Y0014057D02*
G01X0011153Y0006538D01*
G01X0011153Y0006538D02*
G01X0014538Y0006538D01*
G01X0015247Y0006538D02*
G01X0015463Y0006538D01*
G01X0016172Y0006538D02*
G01X0016310Y0006538D01*
G01X0016310Y0006538D02*
G01X0016310Y0014057D01*
G01X0016310Y0014057D02*
G01X0015700Y0014057D01*
G01X0010877Y0014057D02*
G01X0010267Y0014057D01*
G01X0010877Y0014057D02*
G01X0010877Y0006538D01*
G01X0010877Y0006538D02*
G01X0010739Y0006538D01*
G01X0010030Y0006538D02*
G01X0009814Y0006538D01*
G01X0009105Y0006538D02*
G01X0005719Y0006538D01*
G01X0005719Y0006538D02*
G01X0005719Y0014057D01*
G01X0005719Y0014057D02*
G01X0006330Y0014057D01*
G01X0006163Y0014211D02*
G01X0006087Y0014136D01*
G01X0006087Y0014136D02*
G01X0005937Y0014136D01*
G01X0005937Y0014136D02*
G01X0005862Y0014211D01*
G01X0005702Y0014136D02*
G01X0005402Y0014136D01*
G01X0005552Y0014136D02*
G01X0005552Y0014586D01*
G01X0005552Y0014586D02*
G01X0005702Y0014436D01*
G01X0005862Y0014511D02*
G01X0005937Y0014586D01*
G01X0005937Y0014586D02*
G01X0006087Y0014586D01*
G01X0006087Y0014586D02*
G01X0006163Y0014511D01*
G01X0006163Y0014511D02*
G01X0006163Y0014211D01*
G01X0011947Y0022260D02*
G01X0011872Y0022335D01*
G01X0011872Y0022335D02*
G01X0011872Y0022485D01*
G01X0011872Y0022485D02*
G01X0011947Y0022560D01*
G01X0011947Y0022720D02*
G01X0011872Y0022795D01*
G01X0011872Y0022795D02*
G01X0011872Y0022945D01*
G01X0011872Y0022945D02*
G01X0011947Y0023020D01*
G01X0011947Y0023020D02*
G01X0012023Y0023020D01*
G01X0012023Y0023020D02*
G01X0012098Y0022945D01*
G01X0012098Y0022945D02*
G01X0012098Y0022870D01*
G01X0012098Y0022945D02*
G01X0012173Y0023020D01*
G01X0012173Y0023020D02*
G01X0012248Y0023020D01*
G01X0012248Y0023020D02*
G01X0012323Y0022945D01*
G01X0012323Y0022945D02*
G01X0012323Y0022795D01*
G01X0012323Y0022795D02*
G01X0012248Y0022720D01*
G01X0012248Y0022560D02*
G01X0012323Y0022485D01*
G01X0012323Y0022485D02*
G01X0012323Y0022335D01*
G01X0012323Y0022335D02*
G01X0012248Y0022260D01*
G01X0012248Y0022260D02*
G01X0011947Y0022260D01*
G01X0006686Y0033078D02*
G01X0006461Y0033078D01*
G01X0006461Y0033078D02*
G01X0006386Y0033153D01*
G01X0006386Y0033153D02*
G01X0006386Y0033454D01*
G01X0006386Y0033454D02*
G01X0006461Y0033529D01*
G01X0006461Y0033529D02*
G01X0006686Y0033529D01*
G01X0006686Y0033529D02*
G01X0006686Y0033078D01*
G01X0006226Y0033153D02*
G01X0006151Y0033078D01*
G01X0006151Y0033078D02*
G01X0006001Y0033078D01*
G01X0006001Y0033078D02*
G01X0005926Y0033153D01*
G01X0005926Y0033153D02*
G01X0005926Y0033229D01*
G01X0005926Y0033229D02*
G01X0006001Y0033304D01*
G01X0006001Y0033304D02*
G01X0006076Y0033304D01*
G01X0006001Y0033304D02*
G01X0005926Y0033379D01*
G01X0005926Y0033379D02*
G01X0005926Y0033454D01*
G01X0005926Y0033454D02*
G01X0006001Y0033529D01*
G01X0006001Y0033529D02*
G01X0006151Y0033529D01*
G01X0006151Y0033529D02*
G01X0006226Y0033454D01*
G01X0016512Y0008686D02*
G01X0016512Y0008386D01*
G01X0016512Y0008386D02*
G01X0016587Y0008386D01*
G01X0016587Y0008386D02*
G01X0016888Y0008686D01*
G01X0016888Y0008686D02*
G01X0016963Y0008686D01*
G01X0016963Y0008686D02*
G01X0016963Y0008386D01*
G01X0016963Y0008226D02*
G01X0016512Y0008226D01*
G01X0016737Y0008226D02*
G01X0016737Y0007925D01*
G01X0016512Y0007925D02*
G01X0016963Y0007925D01*
G01X0016963Y0007765D02*
G01X0016512Y0007765D01*
G01X0016512Y0007465D02*
G01X0016963Y0007465D01*
G01X0016963Y0007465D02*
G01X0016812Y0007615D01*
G01X0016812Y0007615D02*
G01X0016963Y0007765D01*
G01X0016888Y0007305D02*
G01X0016812Y0007305D01*
G01X0016812Y0007305D02*
G01X0016737Y0007230D01*
G01X0016737Y0007230D02*
G01X0016737Y0007080D01*
G01X0016737Y0007080D02*
G01X0016812Y0007005D01*
G01X0016812Y0007005D02*
G01X0016888Y0007005D01*
G01X0016888Y0007005D02*
G01X0016963Y0007080D01*
G01X0016963Y0007080D02*
G01X0016963Y0007230D01*
G01X0016963Y0007230D02*
G01X0016888Y0007305D01*
G01X0016737Y0007230D02*
G01X0016662Y0007305D01*
G01X0016662Y0007305D02*
G01X0016587Y0007305D01*
G01X0016587Y0007305D02*
G01X0016512Y0007230D01*
G01X0016512Y0007230D02*
G01X0016512Y0007080D01*
G01X0016512Y0007080D02*
G01X0016587Y0007005D01*
G01X0016587Y0007005D02*
G01X0016662Y0007005D01*
G01X0016662Y0007005D02*
G01X0016737Y0007080D01*
G01X0016662Y0006844D02*
G01X0016587Y0006844D01*
G01X0016587Y0006844D02*
G01X0016512Y0006769D01*
G01X0016512Y0006769D02*
G01X0016512Y0006619D01*
G01X0016512Y0006619D02*
G01X0016587Y0006544D01*
G01X0016587Y0006544D02*
G01X0016737Y0006544D01*
G01X0016737Y0006544D02*
G01X0016737Y0006769D01*
G01X0016737Y0006769D02*
G01X0016662Y0006844D01*
G01X0016888Y0006694D02*
G01X0016737Y0006544D01*
G01X0016662Y0006384D02*
G01X0016587Y0006384D01*
G01X0016587Y0006384D02*
G01X0016512Y0006309D01*
G01X0016512Y0006309D02*
G01X0016512Y0006159D01*
G01X0016512Y0006159D02*
G01X0016587Y0006084D01*
G01X0016587Y0006084D02*
G01X0016662Y0006084D01*
G01X0016662Y0006084D02*
G01X0016737Y0006159D01*
G01X0016737Y0006159D02*
G01X0016737Y0006309D01*
G01X0016737Y0006309D02*
G01X0016662Y0006384D01*
G01X0016737Y0006309D02*
G01X0016812Y0006384D01*
G01X0016812Y0006384D02*
G01X0016888Y0006384D01*
G01X0016888Y0006384D02*
G01X0016963Y0006309D01*
G01X0016963Y0006309D02*
G01X0016963Y0006159D01*
G01X0016963Y0006159D02*
G01X0016888Y0006084D01*
G01X0016888Y0006084D02*
G01X0016812Y0006084D01*
G01X0016812Y0006084D02*
G01X0016737Y0006159D01*
G01X0016888Y0006694D02*
G01X0016963Y0006844D01*
G54D16*
G01X0012954Y0028506D03*
G01X0006832Y0031675D03*
G54D17*
G01X0006448Y0025150D03*
G54D19*
G01X0011468Y0025947D03*
G01X0003593Y0024451D03*
G54D20*
G01X0003593Y0024431D03*
G01X0011468Y0025967D03*
M02*
