G75*
%MOIN*%
%OFA0B0*%
%FSLAX25Y25*%
%IPPOS*%
%LPD*%
%AMOC8*
5,1,8,0,0,1.08239X$1,22.5*
%
%ADD10C,0.00000*%
D10*
X0013297Y0027187D02*
X0013297Y0172857D01*
X0017234Y0172857D01*
X0017234Y0216164D01*
X0013297Y0216164D01*
X0013297Y0361833D01*
X0392037Y0361833D01*
X0392322Y0361830D01*
X0392608Y0361819D01*
X0392893Y0361802D01*
X0393177Y0361778D01*
X0393461Y0361747D01*
X0393744Y0361709D01*
X0394025Y0361664D01*
X0394306Y0361613D01*
X0394586Y0361555D01*
X0394864Y0361490D01*
X0395140Y0361418D01*
X0395414Y0361340D01*
X0395687Y0361255D01*
X0395957Y0361163D01*
X0396225Y0361065D01*
X0396491Y0360961D01*
X0396754Y0360850D01*
X0397014Y0360733D01*
X0397272Y0360610D01*
X0397526Y0360480D01*
X0397777Y0360344D01*
X0398025Y0360203D01*
X0398269Y0360055D01*
X0398510Y0359902D01*
X0398746Y0359742D01*
X0398979Y0359577D01*
X0399208Y0359407D01*
X0399433Y0359231D01*
X0399653Y0359049D01*
X0399869Y0358863D01*
X0400080Y0358671D01*
X0400287Y0358474D01*
X0400489Y0358272D01*
X0400686Y0358065D01*
X0400878Y0357854D01*
X0401064Y0357638D01*
X0401246Y0357418D01*
X0401422Y0357193D01*
X0401592Y0356964D01*
X0401757Y0356731D01*
X0401917Y0356495D01*
X0402070Y0356254D01*
X0402218Y0356010D01*
X0402359Y0355762D01*
X0402495Y0355511D01*
X0402625Y0355257D01*
X0402748Y0354999D01*
X0402865Y0354739D01*
X0402976Y0354476D01*
X0403080Y0354210D01*
X0403178Y0353942D01*
X0403270Y0353672D01*
X0403355Y0353399D01*
X0403433Y0353125D01*
X0403505Y0352849D01*
X0403570Y0352571D01*
X0403628Y0352291D01*
X0403679Y0352010D01*
X0403724Y0351729D01*
X0403762Y0351446D01*
X0403793Y0351162D01*
X0403817Y0350878D01*
X0403834Y0350593D01*
X0403845Y0350307D01*
X0403848Y0350022D01*
X0403848Y0216164D01*
X0399911Y0216164D01*
X0399911Y0172857D01*
X0403848Y0172857D01*
X0403848Y0119117D01*
X0403845Y0118832D01*
X0403834Y0118546D01*
X0403817Y0118261D01*
X0403793Y0117977D01*
X0403762Y0117693D01*
X0403724Y0117410D01*
X0403679Y0117129D01*
X0403628Y0116848D01*
X0403570Y0116568D01*
X0403505Y0116290D01*
X0403433Y0116014D01*
X0403355Y0115740D01*
X0403270Y0115467D01*
X0403178Y0115197D01*
X0403080Y0114929D01*
X0402976Y0114663D01*
X0402865Y0114400D01*
X0402748Y0114140D01*
X0402625Y0113882D01*
X0402495Y0113628D01*
X0402359Y0113377D01*
X0402218Y0113129D01*
X0402070Y0112885D01*
X0401917Y0112644D01*
X0401757Y0112408D01*
X0401592Y0112175D01*
X0401422Y0111946D01*
X0401246Y0111721D01*
X0401064Y0111501D01*
X0400878Y0111285D01*
X0400686Y0111074D01*
X0400489Y0110867D01*
X0400287Y0110665D01*
X0400080Y0110468D01*
X0399869Y0110276D01*
X0399653Y0110090D01*
X0399433Y0109908D01*
X0399208Y0109732D01*
X0398979Y0109562D01*
X0398746Y0109397D01*
X0398510Y0109237D01*
X0398269Y0109084D01*
X0398025Y0108936D01*
X0397777Y0108795D01*
X0397526Y0108659D01*
X0397272Y0108529D01*
X0397014Y0108406D01*
X0396754Y0108289D01*
X0396491Y0108178D01*
X0396225Y0108074D01*
X0395957Y0107976D01*
X0395687Y0107884D01*
X0395414Y0107799D01*
X0395140Y0107721D01*
X0394864Y0107649D01*
X0394586Y0107584D01*
X0394306Y0107526D01*
X0394025Y0107475D01*
X0393744Y0107430D01*
X0393461Y0107392D01*
X0393177Y0107361D01*
X0392893Y0107337D01*
X0392608Y0107320D01*
X0392322Y0107309D01*
X0392037Y0107306D01*
X0330029Y0107306D01*
X0330029Y0092542D01*
X0190856Y0092542D01*
X0190856Y0027187D01*
X0013297Y0027187D01*
X0035934Y0096085D02*
X0035936Y0096230D01*
X0035942Y0096375D01*
X0035952Y0096520D01*
X0035966Y0096665D01*
X0035984Y0096809D01*
X0036005Y0096952D01*
X0036031Y0097095D01*
X0036060Y0097237D01*
X0036094Y0097379D01*
X0036131Y0097519D01*
X0036172Y0097658D01*
X0036217Y0097796D01*
X0036266Y0097933D01*
X0036318Y0098069D01*
X0036374Y0098203D01*
X0036434Y0098335D01*
X0036497Y0098466D01*
X0036564Y0098594D01*
X0036634Y0098722D01*
X0036708Y0098847D01*
X0036785Y0098970D01*
X0036865Y0099090D01*
X0036949Y0099209D01*
X0037036Y0099325D01*
X0037126Y0099439D01*
X0037219Y0099551D01*
X0037315Y0099659D01*
X0037415Y0099765D01*
X0037516Y0099869D01*
X0037621Y0099969D01*
X0037729Y0100067D01*
X0037839Y0100162D01*
X0037951Y0100253D01*
X0038066Y0100342D01*
X0038184Y0100427D01*
X0038304Y0100509D01*
X0038426Y0100588D01*
X0038550Y0100664D01*
X0038676Y0100736D01*
X0038804Y0100804D01*
X0038934Y0100869D01*
X0039065Y0100931D01*
X0039198Y0100988D01*
X0039333Y0101043D01*
X0039469Y0101093D01*
X0039607Y0101140D01*
X0039745Y0101183D01*
X0039885Y0101222D01*
X0040026Y0101257D01*
X0040168Y0101289D01*
X0040310Y0101316D01*
X0040453Y0101340D01*
X0040597Y0101360D01*
X0040742Y0101376D01*
X0040886Y0101388D01*
X0041031Y0101396D01*
X0041176Y0101400D01*
X0041322Y0101400D01*
X0041467Y0101396D01*
X0041612Y0101388D01*
X0041756Y0101376D01*
X0041901Y0101360D01*
X0042045Y0101340D01*
X0042188Y0101316D01*
X0042330Y0101289D01*
X0042472Y0101257D01*
X0042613Y0101222D01*
X0042753Y0101183D01*
X0042891Y0101140D01*
X0043029Y0101093D01*
X0043165Y0101043D01*
X0043300Y0100988D01*
X0043433Y0100931D01*
X0043564Y0100869D01*
X0043694Y0100804D01*
X0043822Y0100736D01*
X0043948Y0100664D01*
X0044072Y0100588D01*
X0044194Y0100509D01*
X0044314Y0100427D01*
X0044432Y0100342D01*
X0044547Y0100253D01*
X0044659Y0100162D01*
X0044769Y0100067D01*
X0044877Y0099969D01*
X0044982Y0099869D01*
X0045083Y0099765D01*
X0045183Y0099659D01*
X0045279Y0099551D01*
X0045372Y0099439D01*
X0045462Y0099325D01*
X0045549Y0099209D01*
X0045633Y0099090D01*
X0045713Y0098970D01*
X0045790Y0098847D01*
X0045864Y0098722D01*
X0045934Y0098594D01*
X0046001Y0098466D01*
X0046064Y0098335D01*
X0046124Y0098203D01*
X0046180Y0098069D01*
X0046232Y0097933D01*
X0046281Y0097796D01*
X0046326Y0097658D01*
X0046367Y0097519D01*
X0046404Y0097379D01*
X0046438Y0097237D01*
X0046467Y0097095D01*
X0046493Y0096952D01*
X0046514Y0096809D01*
X0046532Y0096665D01*
X0046546Y0096520D01*
X0046556Y0096375D01*
X0046562Y0096230D01*
X0046564Y0096085D01*
X0046562Y0095940D01*
X0046556Y0095795D01*
X0046546Y0095650D01*
X0046532Y0095505D01*
X0046514Y0095361D01*
X0046493Y0095218D01*
X0046467Y0095075D01*
X0046438Y0094933D01*
X0046404Y0094791D01*
X0046367Y0094651D01*
X0046326Y0094512D01*
X0046281Y0094374D01*
X0046232Y0094237D01*
X0046180Y0094101D01*
X0046124Y0093967D01*
X0046064Y0093835D01*
X0046001Y0093704D01*
X0045934Y0093576D01*
X0045864Y0093448D01*
X0045790Y0093323D01*
X0045713Y0093200D01*
X0045633Y0093080D01*
X0045549Y0092961D01*
X0045462Y0092845D01*
X0045372Y0092731D01*
X0045279Y0092619D01*
X0045183Y0092511D01*
X0045083Y0092405D01*
X0044982Y0092301D01*
X0044877Y0092201D01*
X0044769Y0092103D01*
X0044659Y0092008D01*
X0044547Y0091917D01*
X0044432Y0091828D01*
X0044314Y0091743D01*
X0044194Y0091661D01*
X0044072Y0091582D01*
X0043948Y0091506D01*
X0043822Y0091434D01*
X0043694Y0091366D01*
X0043564Y0091301D01*
X0043433Y0091239D01*
X0043300Y0091182D01*
X0043165Y0091127D01*
X0043029Y0091077D01*
X0042891Y0091030D01*
X0042753Y0090987D01*
X0042613Y0090948D01*
X0042472Y0090913D01*
X0042330Y0090881D01*
X0042188Y0090854D01*
X0042045Y0090830D01*
X0041901Y0090810D01*
X0041756Y0090794D01*
X0041612Y0090782D01*
X0041467Y0090774D01*
X0041322Y0090770D01*
X0041176Y0090770D01*
X0041031Y0090774D01*
X0040886Y0090782D01*
X0040742Y0090794D01*
X0040597Y0090810D01*
X0040453Y0090830D01*
X0040310Y0090854D01*
X0040168Y0090881D01*
X0040026Y0090913D01*
X0039885Y0090948D01*
X0039745Y0090987D01*
X0039607Y0091030D01*
X0039469Y0091077D01*
X0039333Y0091127D01*
X0039198Y0091182D01*
X0039065Y0091239D01*
X0038934Y0091301D01*
X0038804Y0091366D01*
X0038676Y0091434D01*
X0038550Y0091506D01*
X0038426Y0091582D01*
X0038304Y0091661D01*
X0038184Y0091743D01*
X0038066Y0091828D01*
X0037951Y0091917D01*
X0037839Y0092008D01*
X0037729Y0092103D01*
X0037621Y0092201D01*
X0037516Y0092301D01*
X0037415Y0092405D01*
X0037315Y0092511D01*
X0037219Y0092619D01*
X0037126Y0092731D01*
X0037036Y0092845D01*
X0036949Y0092961D01*
X0036865Y0093080D01*
X0036785Y0093200D01*
X0036708Y0093323D01*
X0036634Y0093448D01*
X0036564Y0093576D01*
X0036497Y0093704D01*
X0036434Y0093835D01*
X0036374Y0093967D01*
X0036318Y0094101D01*
X0036266Y0094237D01*
X0036217Y0094374D01*
X0036172Y0094512D01*
X0036131Y0094651D01*
X0036094Y0094791D01*
X0036060Y0094933D01*
X0036031Y0095075D01*
X0036005Y0095218D01*
X0035984Y0095361D01*
X0035966Y0095505D01*
X0035952Y0095650D01*
X0035942Y0095795D01*
X0035936Y0095940D01*
X0035934Y0096085D01*
X0191742Y0119707D02*
X0191744Y0119854D01*
X0191750Y0120000D01*
X0191760Y0120146D01*
X0191774Y0120292D01*
X0191792Y0120438D01*
X0191813Y0120583D01*
X0191839Y0120727D01*
X0191869Y0120871D01*
X0191902Y0121013D01*
X0191939Y0121155D01*
X0191980Y0121296D01*
X0192025Y0121435D01*
X0192074Y0121574D01*
X0192126Y0121711D01*
X0192183Y0121846D01*
X0192242Y0121980D01*
X0192306Y0122112D01*
X0192373Y0122242D01*
X0192443Y0122371D01*
X0192517Y0122498D01*
X0192594Y0122622D01*
X0192675Y0122745D01*
X0192759Y0122865D01*
X0192846Y0122983D01*
X0192936Y0123098D01*
X0193029Y0123211D01*
X0193126Y0123322D01*
X0193225Y0123430D01*
X0193327Y0123535D01*
X0193432Y0123637D01*
X0193540Y0123736D01*
X0193651Y0123833D01*
X0193764Y0123926D01*
X0193879Y0124016D01*
X0193997Y0124103D01*
X0194117Y0124187D01*
X0194240Y0124268D01*
X0194364Y0124345D01*
X0194491Y0124419D01*
X0194620Y0124489D01*
X0194750Y0124556D01*
X0194882Y0124620D01*
X0195016Y0124679D01*
X0195151Y0124736D01*
X0195288Y0124788D01*
X0195427Y0124837D01*
X0195566Y0124882D01*
X0195707Y0124923D01*
X0195849Y0124960D01*
X0195991Y0124993D01*
X0196135Y0125023D01*
X0196279Y0125049D01*
X0196424Y0125070D01*
X0196570Y0125088D01*
X0196716Y0125102D01*
X0196862Y0125112D01*
X0197008Y0125118D01*
X0197155Y0125120D01*
X0197302Y0125118D01*
X0197448Y0125112D01*
X0197594Y0125102D01*
X0197740Y0125088D01*
X0197886Y0125070D01*
X0198031Y0125049D01*
X0198175Y0125023D01*
X0198319Y0124993D01*
X0198461Y0124960D01*
X0198603Y0124923D01*
X0198744Y0124882D01*
X0198883Y0124837D01*
X0199022Y0124788D01*
X0199159Y0124736D01*
X0199294Y0124679D01*
X0199428Y0124620D01*
X0199560Y0124556D01*
X0199690Y0124489D01*
X0199819Y0124419D01*
X0199946Y0124345D01*
X0200070Y0124268D01*
X0200193Y0124187D01*
X0200313Y0124103D01*
X0200431Y0124016D01*
X0200546Y0123926D01*
X0200659Y0123833D01*
X0200770Y0123736D01*
X0200878Y0123637D01*
X0200983Y0123535D01*
X0201085Y0123430D01*
X0201184Y0123322D01*
X0201281Y0123211D01*
X0201374Y0123098D01*
X0201464Y0122983D01*
X0201551Y0122865D01*
X0201635Y0122745D01*
X0201716Y0122622D01*
X0201793Y0122498D01*
X0201867Y0122371D01*
X0201937Y0122242D01*
X0202004Y0122112D01*
X0202068Y0121980D01*
X0202127Y0121846D01*
X0202184Y0121711D01*
X0202236Y0121574D01*
X0202285Y0121435D01*
X0202330Y0121296D01*
X0202371Y0121155D01*
X0202408Y0121013D01*
X0202441Y0120871D01*
X0202471Y0120727D01*
X0202497Y0120583D01*
X0202518Y0120438D01*
X0202536Y0120292D01*
X0202550Y0120146D01*
X0202560Y0120000D01*
X0202566Y0119854D01*
X0202568Y0119707D01*
X0202566Y0119560D01*
X0202560Y0119414D01*
X0202550Y0119268D01*
X0202536Y0119122D01*
X0202518Y0118976D01*
X0202497Y0118831D01*
X0202471Y0118687D01*
X0202441Y0118543D01*
X0202408Y0118401D01*
X0202371Y0118259D01*
X0202330Y0118118D01*
X0202285Y0117979D01*
X0202236Y0117840D01*
X0202184Y0117703D01*
X0202127Y0117568D01*
X0202068Y0117434D01*
X0202004Y0117302D01*
X0201937Y0117172D01*
X0201867Y0117043D01*
X0201793Y0116916D01*
X0201716Y0116792D01*
X0201635Y0116669D01*
X0201551Y0116549D01*
X0201464Y0116431D01*
X0201374Y0116316D01*
X0201281Y0116203D01*
X0201184Y0116092D01*
X0201085Y0115984D01*
X0200983Y0115879D01*
X0200878Y0115777D01*
X0200770Y0115678D01*
X0200659Y0115581D01*
X0200546Y0115488D01*
X0200431Y0115398D01*
X0200313Y0115311D01*
X0200193Y0115227D01*
X0200070Y0115146D01*
X0199946Y0115069D01*
X0199819Y0114995D01*
X0199690Y0114925D01*
X0199560Y0114858D01*
X0199428Y0114794D01*
X0199294Y0114735D01*
X0199159Y0114678D01*
X0199022Y0114626D01*
X0198883Y0114577D01*
X0198744Y0114532D01*
X0198603Y0114491D01*
X0198461Y0114454D01*
X0198319Y0114421D01*
X0198175Y0114391D01*
X0198031Y0114365D01*
X0197886Y0114344D01*
X0197740Y0114326D01*
X0197594Y0114312D01*
X0197448Y0114302D01*
X0197302Y0114296D01*
X0197155Y0114294D01*
X0197008Y0114296D01*
X0196862Y0114302D01*
X0196716Y0114312D01*
X0196570Y0114326D01*
X0196424Y0114344D01*
X0196279Y0114365D01*
X0196135Y0114391D01*
X0195991Y0114421D01*
X0195849Y0114454D01*
X0195707Y0114491D01*
X0195566Y0114532D01*
X0195427Y0114577D01*
X0195288Y0114626D01*
X0195151Y0114678D01*
X0195016Y0114735D01*
X0194882Y0114794D01*
X0194750Y0114858D01*
X0194620Y0114925D01*
X0194491Y0114995D01*
X0194364Y0115069D01*
X0194240Y0115146D01*
X0194117Y0115227D01*
X0193997Y0115311D01*
X0193879Y0115398D01*
X0193764Y0115488D01*
X0193651Y0115581D01*
X0193540Y0115678D01*
X0193432Y0115777D01*
X0193327Y0115879D01*
X0193225Y0115984D01*
X0193126Y0116092D01*
X0193029Y0116203D01*
X0192936Y0116316D01*
X0192846Y0116431D01*
X0192759Y0116549D01*
X0192675Y0116669D01*
X0192594Y0116792D01*
X0192517Y0116916D01*
X0192443Y0117043D01*
X0192373Y0117172D01*
X0192306Y0117302D01*
X0192242Y0117434D01*
X0192183Y0117568D01*
X0192126Y0117703D01*
X0192074Y0117840D01*
X0192025Y0117979D01*
X0191980Y0118118D01*
X0191939Y0118259D01*
X0191902Y0118401D01*
X0191869Y0118543D01*
X0191839Y0118687D01*
X0191813Y0118831D01*
X0191792Y0118976D01*
X0191774Y0119122D01*
X0191760Y0119268D01*
X0191750Y0119414D01*
X0191744Y0119560D01*
X0191742Y0119707D01*
X0370580Y0292935D02*
X0370582Y0293080D01*
X0370588Y0293225D01*
X0370598Y0293370D01*
X0370612Y0293515D01*
X0370630Y0293659D01*
X0370651Y0293802D01*
X0370677Y0293945D01*
X0370706Y0294087D01*
X0370740Y0294229D01*
X0370777Y0294369D01*
X0370818Y0294508D01*
X0370863Y0294646D01*
X0370912Y0294783D01*
X0370964Y0294919D01*
X0371020Y0295053D01*
X0371080Y0295185D01*
X0371143Y0295316D01*
X0371210Y0295444D01*
X0371280Y0295572D01*
X0371354Y0295697D01*
X0371431Y0295820D01*
X0371511Y0295940D01*
X0371595Y0296059D01*
X0371682Y0296175D01*
X0371772Y0296289D01*
X0371865Y0296401D01*
X0371961Y0296509D01*
X0372061Y0296615D01*
X0372162Y0296719D01*
X0372267Y0296819D01*
X0372375Y0296917D01*
X0372485Y0297012D01*
X0372597Y0297103D01*
X0372712Y0297192D01*
X0372830Y0297277D01*
X0372950Y0297359D01*
X0373072Y0297438D01*
X0373196Y0297514D01*
X0373322Y0297586D01*
X0373450Y0297654D01*
X0373580Y0297719D01*
X0373711Y0297781D01*
X0373844Y0297838D01*
X0373979Y0297893D01*
X0374115Y0297943D01*
X0374253Y0297990D01*
X0374391Y0298033D01*
X0374531Y0298072D01*
X0374672Y0298107D01*
X0374814Y0298139D01*
X0374956Y0298166D01*
X0375099Y0298190D01*
X0375243Y0298210D01*
X0375388Y0298226D01*
X0375532Y0298238D01*
X0375677Y0298246D01*
X0375822Y0298250D01*
X0375968Y0298250D01*
X0376113Y0298246D01*
X0376258Y0298238D01*
X0376402Y0298226D01*
X0376547Y0298210D01*
X0376691Y0298190D01*
X0376834Y0298166D01*
X0376976Y0298139D01*
X0377118Y0298107D01*
X0377259Y0298072D01*
X0377399Y0298033D01*
X0377537Y0297990D01*
X0377675Y0297943D01*
X0377811Y0297893D01*
X0377946Y0297838D01*
X0378079Y0297781D01*
X0378210Y0297719D01*
X0378340Y0297654D01*
X0378468Y0297586D01*
X0378594Y0297514D01*
X0378718Y0297438D01*
X0378840Y0297359D01*
X0378960Y0297277D01*
X0379078Y0297192D01*
X0379193Y0297103D01*
X0379305Y0297012D01*
X0379415Y0296917D01*
X0379523Y0296819D01*
X0379628Y0296719D01*
X0379729Y0296615D01*
X0379829Y0296509D01*
X0379925Y0296401D01*
X0380018Y0296289D01*
X0380108Y0296175D01*
X0380195Y0296059D01*
X0380279Y0295940D01*
X0380359Y0295820D01*
X0380436Y0295697D01*
X0380510Y0295572D01*
X0380580Y0295444D01*
X0380647Y0295316D01*
X0380710Y0295185D01*
X0380770Y0295053D01*
X0380826Y0294919D01*
X0380878Y0294783D01*
X0380927Y0294646D01*
X0380972Y0294508D01*
X0381013Y0294369D01*
X0381050Y0294229D01*
X0381084Y0294087D01*
X0381113Y0293945D01*
X0381139Y0293802D01*
X0381160Y0293659D01*
X0381178Y0293515D01*
X0381192Y0293370D01*
X0381202Y0293225D01*
X0381208Y0293080D01*
X0381210Y0292935D01*
X0381208Y0292790D01*
X0381202Y0292645D01*
X0381192Y0292500D01*
X0381178Y0292355D01*
X0381160Y0292211D01*
X0381139Y0292068D01*
X0381113Y0291925D01*
X0381084Y0291783D01*
X0381050Y0291641D01*
X0381013Y0291501D01*
X0380972Y0291362D01*
X0380927Y0291224D01*
X0380878Y0291087D01*
X0380826Y0290951D01*
X0380770Y0290817D01*
X0380710Y0290685D01*
X0380647Y0290554D01*
X0380580Y0290426D01*
X0380510Y0290298D01*
X0380436Y0290173D01*
X0380359Y0290050D01*
X0380279Y0289930D01*
X0380195Y0289811D01*
X0380108Y0289695D01*
X0380018Y0289581D01*
X0379925Y0289469D01*
X0379829Y0289361D01*
X0379729Y0289255D01*
X0379628Y0289151D01*
X0379523Y0289051D01*
X0379415Y0288953D01*
X0379305Y0288858D01*
X0379193Y0288767D01*
X0379078Y0288678D01*
X0378960Y0288593D01*
X0378840Y0288511D01*
X0378718Y0288432D01*
X0378594Y0288356D01*
X0378468Y0288284D01*
X0378340Y0288216D01*
X0378210Y0288151D01*
X0378079Y0288089D01*
X0377946Y0288032D01*
X0377811Y0287977D01*
X0377675Y0287927D01*
X0377537Y0287880D01*
X0377399Y0287837D01*
X0377259Y0287798D01*
X0377118Y0287763D01*
X0376976Y0287731D01*
X0376834Y0287704D01*
X0376691Y0287680D01*
X0376547Y0287660D01*
X0376402Y0287644D01*
X0376258Y0287632D01*
X0376113Y0287624D01*
X0375968Y0287620D01*
X0375822Y0287620D01*
X0375677Y0287624D01*
X0375532Y0287632D01*
X0375388Y0287644D01*
X0375243Y0287660D01*
X0375099Y0287680D01*
X0374956Y0287704D01*
X0374814Y0287731D01*
X0374672Y0287763D01*
X0374531Y0287798D01*
X0374391Y0287837D01*
X0374253Y0287880D01*
X0374115Y0287927D01*
X0373979Y0287977D01*
X0373844Y0288032D01*
X0373711Y0288089D01*
X0373580Y0288151D01*
X0373450Y0288216D01*
X0373322Y0288284D01*
X0373196Y0288356D01*
X0373072Y0288432D01*
X0372950Y0288511D01*
X0372830Y0288593D01*
X0372712Y0288678D01*
X0372597Y0288767D01*
X0372485Y0288858D01*
X0372375Y0288953D01*
X0372267Y0289051D01*
X0372162Y0289151D01*
X0372061Y0289255D01*
X0371961Y0289361D01*
X0371865Y0289469D01*
X0371772Y0289581D01*
X0371682Y0289695D01*
X0371595Y0289811D01*
X0371511Y0289930D01*
X0371431Y0290050D01*
X0371354Y0290173D01*
X0371280Y0290298D01*
X0371210Y0290426D01*
X0371143Y0290554D01*
X0371080Y0290685D01*
X0371020Y0290817D01*
X0370964Y0290951D01*
X0370912Y0291087D01*
X0370863Y0291224D01*
X0370818Y0291362D01*
X0370777Y0291501D01*
X0370740Y0291641D01*
X0370706Y0291783D01*
X0370677Y0291925D01*
X0370651Y0292068D01*
X0370630Y0292211D01*
X0370612Y0292355D01*
X0370598Y0292500D01*
X0370588Y0292645D01*
X0370582Y0292790D01*
X0370580Y0292935D01*
X0384655Y0348054D02*
X0384657Y0348201D01*
X0384663Y0348347D01*
X0384673Y0348493D01*
X0384687Y0348639D01*
X0384705Y0348785D01*
X0384726Y0348930D01*
X0384752Y0349074D01*
X0384782Y0349218D01*
X0384815Y0349360D01*
X0384852Y0349502D01*
X0384893Y0349643D01*
X0384938Y0349782D01*
X0384987Y0349921D01*
X0385039Y0350058D01*
X0385096Y0350193D01*
X0385155Y0350327D01*
X0385219Y0350459D01*
X0385286Y0350589D01*
X0385356Y0350718D01*
X0385430Y0350845D01*
X0385507Y0350969D01*
X0385588Y0351092D01*
X0385672Y0351212D01*
X0385759Y0351330D01*
X0385849Y0351445D01*
X0385942Y0351558D01*
X0386039Y0351669D01*
X0386138Y0351777D01*
X0386240Y0351882D01*
X0386345Y0351984D01*
X0386453Y0352083D01*
X0386564Y0352180D01*
X0386677Y0352273D01*
X0386792Y0352363D01*
X0386910Y0352450D01*
X0387030Y0352534D01*
X0387153Y0352615D01*
X0387277Y0352692D01*
X0387404Y0352766D01*
X0387533Y0352836D01*
X0387663Y0352903D01*
X0387795Y0352967D01*
X0387929Y0353026D01*
X0388064Y0353083D01*
X0388201Y0353135D01*
X0388340Y0353184D01*
X0388479Y0353229D01*
X0388620Y0353270D01*
X0388762Y0353307D01*
X0388904Y0353340D01*
X0389048Y0353370D01*
X0389192Y0353396D01*
X0389337Y0353417D01*
X0389483Y0353435D01*
X0389629Y0353449D01*
X0389775Y0353459D01*
X0389921Y0353465D01*
X0390068Y0353467D01*
X0390215Y0353465D01*
X0390361Y0353459D01*
X0390507Y0353449D01*
X0390653Y0353435D01*
X0390799Y0353417D01*
X0390944Y0353396D01*
X0391088Y0353370D01*
X0391232Y0353340D01*
X0391374Y0353307D01*
X0391516Y0353270D01*
X0391657Y0353229D01*
X0391796Y0353184D01*
X0391935Y0353135D01*
X0392072Y0353083D01*
X0392207Y0353026D01*
X0392341Y0352967D01*
X0392473Y0352903D01*
X0392603Y0352836D01*
X0392732Y0352766D01*
X0392859Y0352692D01*
X0392983Y0352615D01*
X0393106Y0352534D01*
X0393226Y0352450D01*
X0393344Y0352363D01*
X0393459Y0352273D01*
X0393572Y0352180D01*
X0393683Y0352083D01*
X0393791Y0351984D01*
X0393896Y0351882D01*
X0393998Y0351777D01*
X0394097Y0351669D01*
X0394194Y0351558D01*
X0394287Y0351445D01*
X0394377Y0351330D01*
X0394464Y0351212D01*
X0394548Y0351092D01*
X0394629Y0350969D01*
X0394706Y0350845D01*
X0394780Y0350718D01*
X0394850Y0350589D01*
X0394917Y0350459D01*
X0394981Y0350327D01*
X0395040Y0350193D01*
X0395097Y0350058D01*
X0395149Y0349921D01*
X0395198Y0349782D01*
X0395243Y0349643D01*
X0395284Y0349502D01*
X0395321Y0349360D01*
X0395354Y0349218D01*
X0395384Y0349074D01*
X0395410Y0348930D01*
X0395431Y0348785D01*
X0395449Y0348639D01*
X0395463Y0348493D01*
X0395473Y0348347D01*
X0395479Y0348201D01*
X0395481Y0348054D01*
X0395479Y0347907D01*
X0395473Y0347761D01*
X0395463Y0347615D01*
X0395449Y0347469D01*
X0395431Y0347323D01*
X0395410Y0347178D01*
X0395384Y0347034D01*
X0395354Y0346890D01*
X0395321Y0346748D01*
X0395284Y0346606D01*
X0395243Y0346465D01*
X0395198Y0346326D01*
X0395149Y0346187D01*
X0395097Y0346050D01*
X0395040Y0345915D01*
X0394981Y0345781D01*
X0394917Y0345649D01*
X0394850Y0345519D01*
X0394780Y0345390D01*
X0394706Y0345263D01*
X0394629Y0345139D01*
X0394548Y0345016D01*
X0394464Y0344896D01*
X0394377Y0344778D01*
X0394287Y0344663D01*
X0394194Y0344550D01*
X0394097Y0344439D01*
X0393998Y0344331D01*
X0393896Y0344226D01*
X0393791Y0344124D01*
X0393683Y0344025D01*
X0393572Y0343928D01*
X0393459Y0343835D01*
X0393344Y0343745D01*
X0393226Y0343658D01*
X0393106Y0343574D01*
X0392983Y0343493D01*
X0392859Y0343416D01*
X0392732Y0343342D01*
X0392603Y0343272D01*
X0392473Y0343205D01*
X0392341Y0343141D01*
X0392207Y0343082D01*
X0392072Y0343025D01*
X0391935Y0342973D01*
X0391796Y0342924D01*
X0391657Y0342879D01*
X0391516Y0342838D01*
X0391374Y0342801D01*
X0391232Y0342768D01*
X0391088Y0342738D01*
X0390944Y0342712D01*
X0390799Y0342691D01*
X0390653Y0342673D01*
X0390507Y0342659D01*
X0390361Y0342649D01*
X0390215Y0342643D01*
X0390068Y0342641D01*
X0389921Y0342643D01*
X0389775Y0342649D01*
X0389629Y0342659D01*
X0389483Y0342673D01*
X0389337Y0342691D01*
X0389192Y0342712D01*
X0389048Y0342738D01*
X0388904Y0342768D01*
X0388762Y0342801D01*
X0388620Y0342838D01*
X0388479Y0342879D01*
X0388340Y0342924D01*
X0388201Y0342973D01*
X0388064Y0343025D01*
X0387929Y0343082D01*
X0387795Y0343141D01*
X0387663Y0343205D01*
X0387533Y0343272D01*
X0387404Y0343342D01*
X0387277Y0343416D01*
X0387153Y0343493D01*
X0387030Y0343574D01*
X0386910Y0343658D01*
X0386792Y0343745D01*
X0386677Y0343835D01*
X0386564Y0343928D01*
X0386453Y0344025D01*
X0386345Y0344124D01*
X0386240Y0344226D01*
X0386138Y0344331D01*
X0386039Y0344439D01*
X0385942Y0344550D01*
X0385849Y0344663D01*
X0385759Y0344778D01*
X0385672Y0344896D01*
X0385588Y0345016D01*
X0385507Y0345139D01*
X0385430Y0345263D01*
X0385356Y0345390D01*
X0385286Y0345519D01*
X0385219Y0345649D01*
X0385155Y0345781D01*
X0385096Y0345915D01*
X0385039Y0346050D01*
X0384987Y0346187D01*
X0384938Y0346326D01*
X0384893Y0346465D01*
X0384852Y0346606D01*
X0384815Y0346748D01*
X0384782Y0346890D01*
X0384752Y0347034D01*
X0384726Y0347178D01*
X0384705Y0347323D01*
X0384687Y0347469D01*
X0384673Y0347615D01*
X0384663Y0347761D01*
X0384657Y0347907D01*
X0384655Y0348054D01*
X0191742Y0348054D02*
X0191744Y0348201D01*
X0191750Y0348347D01*
X0191760Y0348493D01*
X0191774Y0348639D01*
X0191792Y0348785D01*
X0191813Y0348930D01*
X0191839Y0349074D01*
X0191869Y0349218D01*
X0191902Y0349360D01*
X0191939Y0349502D01*
X0191980Y0349643D01*
X0192025Y0349782D01*
X0192074Y0349921D01*
X0192126Y0350058D01*
X0192183Y0350193D01*
X0192242Y0350327D01*
X0192306Y0350459D01*
X0192373Y0350589D01*
X0192443Y0350718D01*
X0192517Y0350845D01*
X0192594Y0350969D01*
X0192675Y0351092D01*
X0192759Y0351212D01*
X0192846Y0351330D01*
X0192936Y0351445D01*
X0193029Y0351558D01*
X0193126Y0351669D01*
X0193225Y0351777D01*
X0193327Y0351882D01*
X0193432Y0351984D01*
X0193540Y0352083D01*
X0193651Y0352180D01*
X0193764Y0352273D01*
X0193879Y0352363D01*
X0193997Y0352450D01*
X0194117Y0352534D01*
X0194240Y0352615D01*
X0194364Y0352692D01*
X0194491Y0352766D01*
X0194620Y0352836D01*
X0194750Y0352903D01*
X0194882Y0352967D01*
X0195016Y0353026D01*
X0195151Y0353083D01*
X0195288Y0353135D01*
X0195427Y0353184D01*
X0195566Y0353229D01*
X0195707Y0353270D01*
X0195849Y0353307D01*
X0195991Y0353340D01*
X0196135Y0353370D01*
X0196279Y0353396D01*
X0196424Y0353417D01*
X0196570Y0353435D01*
X0196716Y0353449D01*
X0196862Y0353459D01*
X0197008Y0353465D01*
X0197155Y0353467D01*
X0197302Y0353465D01*
X0197448Y0353459D01*
X0197594Y0353449D01*
X0197740Y0353435D01*
X0197886Y0353417D01*
X0198031Y0353396D01*
X0198175Y0353370D01*
X0198319Y0353340D01*
X0198461Y0353307D01*
X0198603Y0353270D01*
X0198744Y0353229D01*
X0198883Y0353184D01*
X0199022Y0353135D01*
X0199159Y0353083D01*
X0199294Y0353026D01*
X0199428Y0352967D01*
X0199560Y0352903D01*
X0199690Y0352836D01*
X0199819Y0352766D01*
X0199946Y0352692D01*
X0200070Y0352615D01*
X0200193Y0352534D01*
X0200313Y0352450D01*
X0200431Y0352363D01*
X0200546Y0352273D01*
X0200659Y0352180D01*
X0200770Y0352083D01*
X0200878Y0351984D01*
X0200983Y0351882D01*
X0201085Y0351777D01*
X0201184Y0351669D01*
X0201281Y0351558D01*
X0201374Y0351445D01*
X0201464Y0351330D01*
X0201551Y0351212D01*
X0201635Y0351092D01*
X0201716Y0350969D01*
X0201793Y0350845D01*
X0201867Y0350718D01*
X0201937Y0350589D01*
X0202004Y0350459D01*
X0202068Y0350327D01*
X0202127Y0350193D01*
X0202184Y0350058D01*
X0202236Y0349921D01*
X0202285Y0349782D01*
X0202330Y0349643D01*
X0202371Y0349502D01*
X0202408Y0349360D01*
X0202441Y0349218D01*
X0202471Y0349074D01*
X0202497Y0348930D01*
X0202518Y0348785D01*
X0202536Y0348639D01*
X0202550Y0348493D01*
X0202560Y0348347D01*
X0202566Y0348201D01*
X0202568Y0348054D01*
X0202566Y0347907D01*
X0202560Y0347761D01*
X0202550Y0347615D01*
X0202536Y0347469D01*
X0202518Y0347323D01*
X0202497Y0347178D01*
X0202471Y0347034D01*
X0202441Y0346890D01*
X0202408Y0346748D01*
X0202371Y0346606D01*
X0202330Y0346465D01*
X0202285Y0346326D01*
X0202236Y0346187D01*
X0202184Y0346050D01*
X0202127Y0345915D01*
X0202068Y0345781D01*
X0202004Y0345649D01*
X0201937Y0345519D01*
X0201867Y0345390D01*
X0201793Y0345263D01*
X0201716Y0345139D01*
X0201635Y0345016D01*
X0201551Y0344896D01*
X0201464Y0344778D01*
X0201374Y0344663D01*
X0201281Y0344550D01*
X0201184Y0344439D01*
X0201085Y0344331D01*
X0200983Y0344226D01*
X0200878Y0344124D01*
X0200770Y0344025D01*
X0200659Y0343928D01*
X0200546Y0343835D01*
X0200431Y0343745D01*
X0200313Y0343658D01*
X0200193Y0343574D01*
X0200070Y0343493D01*
X0199946Y0343416D01*
X0199819Y0343342D01*
X0199690Y0343272D01*
X0199560Y0343205D01*
X0199428Y0343141D01*
X0199294Y0343082D01*
X0199159Y0343025D01*
X0199022Y0342973D01*
X0198883Y0342924D01*
X0198744Y0342879D01*
X0198603Y0342838D01*
X0198461Y0342801D01*
X0198319Y0342768D01*
X0198175Y0342738D01*
X0198031Y0342712D01*
X0197886Y0342691D01*
X0197740Y0342673D01*
X0197594Y0342659D01*
X0197448Y0342649D01*
X0197302Y0342643D01*
X0197155Y0342641D01*
X0197008Y0342643D01*
X0196862Y0342649D01*
X0196716Y0342659D01*
X0196570Y0342673D01*
X0196424Y0342691D01*
X0196279Y0342712D01*
X0196135Y0342738D01*
X0195991Y0342768D01*
X0195849Y0342801D01*
X0195707Y0342838D01*
X0195566Y0342879D01*
X0195427Y0342924D01*
X0195288Y0342973D01*
X0195151Y0343025D01*
X0195016Y0343082D01*
X0194882Y0343141D01*
X0194750Y0343205D01*
X0194620Y0343272D01*
X0194491Y0343342D01*
X0194364Y0343416D01*
X0194240Y0343493D01*
X0194117Y0343574D01*
X0193997Y0343658D01*
X0193879Y0343745D01*
X0193764Y0343835D01*
X0193651Y0343928D01*
X0193540Y0344025D01*
X0193432Y0344124D01*
X0193327Y0344226D01*
X0193225Y0344331D01*
X0193126Y0344439D01*
X0193029Y0344550D01*
X0192936Y0344663D01*
X0192846Y0344778D01*
X0192759Y0344896D01*
X0192675Y0345016D01*
X0192594Y0345139D01*
X0192517Y0345263D01*
X0192443Y0345390D01*
X0192373Y0345519D01*
X0192306Y0345649D01*
X0192242Y0345781D01*
X0192183Y0345915D01*
X0192126Y0346050D01*
X0192074Y0346187D01*
X0192025Y0346326D01*
X0191980Y0346465D01*
X0191939Y0346606D01*
X0191902Y0346748D01*
X0191869Y0346890D01*
X0191839Y0347034D01*
X0191813Y0347178D01*
X0191792Y0347323D01*
X0191774Y0347469D01*
X0191760Y0347615D01*
X0191750Y0347761D01*
X0191744Y0347907D01*
X0191742Y0348054D01*
X0384655Y0119707D02*
X0384657Y0119854D01*
X0384663Y0120000D01*
X0384673Y0120146D01*
X0384687Y0120292D01*
X0384705Y0120438D01*
X0384726Y0120583D01*
X0384752Y0120727D01*
X0384782Y0120871D01*
X0384815Y0121013D01*
X0384852Y0121155D01*
X0384893Y0121296D01*
X0384938Y0121435D01*
X0384987Y0121574D01*
X0385039Y0121711D01*
X0385096Y0121846D01*
X0385155Y0121980D01*
X0385219Y0122112D01*
X0385286Y0122242D01*
X0385356Y0122371D01*
X0385430Y0122498D01*
X0385507Y0122622D01*
X0385588Y0122745D01*
X0385672Y0122865D01*
X0385759Y0122983D01*
X0385849Y0123098D01*
X0385942Y0123211D01*
X0386039Y0123322D01*
X0386138Y0123430D01*
X0386240Y0123535D01*
X0386345Y0123637D01*
X0386453Y0123736D01*
X0386564Y0123833D01*
X0386677Y0123926D01*
X0386792Y0124016D01*
X0386910Y0124103D01*
X0387030Y0124187D01*
X0387153Y0124268D01*
X0387277Y0124345D01*
X0387404Y0124419D01*
X0387533Y0124489D01*
X0387663Y0124556D01*
X0387795Y0124620D01*
X0387929Y0124679D01*
X0388064Y0124736D01*
X0388201Y0124788D01*
X0388340Y0124837D01*
X0388479Y0124882D01*
X0388620Y0124923D01*
X0388762Y0124960D01*
X0388904Y0124993D01*
X0389048Y0125023D01*
X0389192Y0125049D01*
X0389337Y0125070D01*
X0389483Y0125088D01*
X0389629Y0125102D01*
X0389775Y0125112D01*
X0389921Y0125118D01*
X0390068Y0125120D01*
X0390215Y0125118D01*
X0390361Y0125112D01*
X0390507Y0125102D01*
X0390653Y0125088D01*
X0390799Y0125070D01*
X0390944Y0125049D01*
X0391088Y0125023D01*
X0391232Y0124993D01*
X0391374Y0124960D01*
X0391516Y0124923D01*
X0391657Y0124882D01*
X0391796Y0124837D01*
X0391935Y0124788D01*
X0392072Y0124736D01*
X0392207Y0124679D01*
X0392341Y0124620D01*
X0392473Y0124556D01*
X0392603Y0124489D01*
X0392732Y0124419D01*
X0392859Y0124345D01*
X0392983Y0124268D01*
X0393106Y0124187D01*
X0393226Y0124103D01*
X0393344Y0124016D01*
X0393459Y0123926D01*
X0393572Y0123833D01*
X0393683Y0123736D01*
X0393791Y0123637D01*
X0393896Y0123535D01*
X0393998Y0123430D01*
X0394097Y0123322D01*
X0394194Y0123211D01*
X0394287Y0123098D01*
X0394377Y0122983D01*
X0394464Y0122865D01*
X0394548Y0122745D01*
X0394629Y0122622D01*
X0394706Y0122498D01*
X0394780Y0122371D01*
X0394850Y0122242D01*
X0394917Y0122112D01*
X0394981Y0121980D01*
X0395040Y0121846D01*
X0395097Y0121711D01*
X0395149Y0121574D01*
X0395198Y0121435D01*
X0395243Y0121296D01*
X0395284Y0121155D01*
X0395321Y0121013D01*
X0395354Y0120871D01*
X0395384Y0120727D01*
X0395410Y0120583D01*
X0395431Y0120438D01*
X0395449Y0120292D01*
X0395463Y0120146D01*
X0395473Y0120000D01*
X0395479Y0119854D01*
X0395481Y0119707D01*
X0395479Y0119560D01*
X0395473Y0119414D01*
X0395463Y0119268D01*
X0395449Y0119122D01*
X0395431Y0118976D01*
X0395410Y0118831D01*
X0395384Y0118687D01*
X0395354Y0118543D01*
X0395321Y0118401D01*
X0395284Y0118259D01*
X0395243Y0118118D01*
X0395198Y0117979D01*
X0395149Y0117840D01*
X0395097Y0117703D01*
X0395040Y0117568D01*
X0394981Y0117434D01*
X0394917Y0117302D01*
X0394850Y0117172D01*
X0394780Y0117043D01*
X0394706Y0116916D01*
X0394629Y0116792D01*
X0394548Y0116669D01*
X0394464Y0116549D01*
X0394377Y0116431D01*
X0394287Y0116316D01*
X0394194Y0116203D01*
X0394097Y0116092D01*
X0393998Y0115984D01*
X0393896Y0115879D01*
X0393791Y0115777D01*
X0393683Y0115678D01*
X0393572Y0115581D01*
X0393459Y0115488D01*
X0393344Y0115398D01*
X0393226Y0115311D01*
X0393106Y0115227D01*
X0392983Y0115146D01*
X0392859Y0115069D01*
X0392732Y0114995D01*
X0392603Y0114925D01*
X0392473Y0114858D01*
X0392341Y0114794D01*
X0392207Y0114735D01*
X0392072Y0114678D01*
X0391935Y0114626D01*
X0391796Y0114577D01*
X0391657Y0114532D01*
X0391516Y0114491D01*
X0391374Y0114454D01*
X0391232Y0114421D01*
X0391088Y0114391D01*
X0390944Y0114365D01*
X0390799Y0114344D01*
X0390653Y0114326D01*
X0390507Y0114312D01*
X0390361Y0114302D01*
X0390215Y0114296D01*
X0390068Y0114294D01*
X0389921Y0114296D01*
X0389775Y0114302D01*
X0389629Y0114312D01*
X0389483Y0114326D01*
X0389337Y0114344D01*
X0389192Y0114365D01*
X0389048Y0114391D01*
X0388904Y0114421D01*
X0388762Y0114454D01*
X0388620Y0114491D01*
X0388479Y0114532D01*
X0388340Y0114577D01*
X0388201Y0114626D01*
X0388064Y0114678D01*
X0387929Y0114735D01*
X0387795Y0114794D01*
X0387663Y0114858D01*
X0387533Y0114925D01*
X0387404Y0114995D01*
X0387277Y0115069D01*
X0387153Y0115146D01*
X0387030Y0115227D01*
X0386910Y0115311D01*
X0386792Y0115398D01*
X0386677Y0115488D01*
X0386564Y0115581D01*
X0386453Y0115678D01*
X0386345Y0115777D01*
X0386240Y0115879D01*
X0386138Y0115984D01*
X0386039Y0116092D01*
X0385942Y0116203D01*
X0385849Y0116316D01*
X0385759Y0116431D01*
X0385672Y0116549D01*
X0385588Y0116669D01*
X0385507Y0116792D01*
X0385430Y0116916D01*
X0385356Y0117043D01*
X0385286Y0117172D01*
X0385219Y0117302D01*
X0385155Y0117434D01*
X0385096Y0117568D01*
X0385039Y0117703D01*
X0384987Y0117840D01*
X0384938Y0117979D01*
X0384893Y0118118D01*
X0384852Y0118259D01*
X0384815Y0118401D01*
X0384782Y0118543D01*
X0384752Y0118687D01*
X0384726Y0118831D01*
X0384705Y0118976D01*
X0384687Y0119122D01*
X0384673Y0119268D01*
X0384663Y0119414D01*
X0384657Y0119560D01*
X0384655Y0119707D01*
M02*
