G75*
%MOIN*%
%OFA0B0*%
%FSLAX25Y25*%
%IPPOS*%
%LPD*%
%AMOC8*
5,1,8,0,0,1.08239X$1,22.5*
%
%ADD10C,0.00000*%
%ADD11C,0.07677*%
%ADD12OC8,0.06300*%
%ADD13C,0.08850*%
%ADD14C,0.06693*%
%ADD15C,0.07400*%
%ADD16OC8,0.04800*%
%ADD17C,0.09843*%
%ADD18C,0.06496*%
%ADD19R,0.05400X0.05400*%
%ADD20C,0.05400*%
%ADD21C,0.05315*%
%ADD22C,0.07600*%
%ADD23C,0.10000*%
%ADD24R,0.07000X0.07000*%
%ADD25C,0.07000*%
%ADD26C,0.05315*%
%ADD27C,0.01378*%
%ADD28C,0.04000*%
%ADD29C,0.01000*%
%ADD30C,0.05000*%
%ADD31C,0.00800*%
%ADD32C,0.07600*%
%ADD33C,0.06600*%
%ADD34C,0.01600*%
D10*
X0013297Y0027187D02*
X0013297Y0172857D01*
X0017234Y0172857D01*
X0017234Y0216164D01*
X0013297Y0216164D01*
X0013297Y0361833D01*
X0392037Y0361833D01*
X0392322Y0361830D01*
X0392608Y0361819D01*
X0392893Y0361802D01*
X0393177Y0361778D01*
X0393461Y0361747D01*
X0393744Y0361709D01*
X0394025Y0361664D01*
X0394306Y0361613D01*
X0394586Y0361555D01*
X0394864Y0361490D01*
X0395140Y0361418D01*
X0395414Y0361340D01*
X0395687Y0361255D01*
X0395957Y0361163D01*
X0396225Y0361065D01*
X0396491Y0360961D01*
X0396754Y0360850D01*
X0397014Y0360733D01*
X0397272Y0360610D01*
X0397526Y0360480D01*
X0397777Y0360344D01*
X0398025Y0360203D01*
X0398269Y0360055D01*
X0398510Y0359902D01*
X0398746Y0359742D01*
X0398979Y0359577D01*
X0399208Y0359407D01*
X0399433Y0359231D01*
X0399653Y0359049D01*
X0399869Y0358863D01*
X0400080Y0358671D01*
X0400287Y0358474D01*
X0400489Y0358272D01*
X0400686Y0358065D01*
X0400878Y0357854D01*
X0401064Y0357638D01*
X0401246Y0357418D01*
X0401422Y0357193D01*
X0401592Y0356964D01*
X0401757Y0356731D01*
X0401917Y0356495D01*
X0402070Y0356254D01*
X0402218Y0356010D01*
X0402359Y0355762D01*
X0402495Y0355511D01*
X0402625Y0355257D01*
X0402748Y0354999D01*
X0402865Y0354739D01*
X0402976Y0354476D01*
X0403080Y0354210D01*
X0403178Y0353942D01*
X0403270Y0353672D01*
X0403355Y0353399D01*
X0403433Y0353125D01*
X0403505Y0352849D01*
X0403570Y0352571D01*
X0403628Y0352291D01*
X0403679Y0352010D01*
X0403724Y0351729D01*
X0403762Y0351446D01*
X0403793Y0351162D01*
X0403817Y0350878D01*
X0403834Y0350593D01*
X0403845Y0350307D01*
X0403848Y0350022D01*
X0403848Y0216164D01*
X0399911Y0216164D01*
X0399911Y0172857D01*
X0403848Y0172857D01*
X0403848Y0119117D01*
X0403845Y0118832D01*
X0403834Y0118546D01*
X0403817Y0118261D01*
X0403793Y0117977D01*
X0403762Y0117693D01*
X0403724Y0117410D01*
X0403679Y0117129D01*
X0403628Y0116848D01*
X0403570Y0116568D01*
X0403505Y0116290D01*
X0403433Y0116014D01*
X0403355Y0115740D01*
X0403270Y0115467D01*
X0403178Y0115197D01*
X0403080Y0114929D01*
X0402976Y0114663D01*
X0402865Y0114400D01*
X0402748Y0114140D01*
X0402625Y0113882D01*
X0402495Y0113628D01*
X0402359Y0113377D01*
X0402218Y0113129D01*
X0402070Y0112885D01*
X0401917Y0112644D01*
X0401757Y0112408D01*
X0401592Y0112175D01*
X0401422Y0111946D01*
X0401246Y0111721D01*
X0401064Y0111501D01*
X0400878Y0111285D01*
X0400686Y0111074D01*
X0400489Y0110867D01*
X0400287Y0110665D01*
X0400080Y0110468D01*
X0399869Y0110276D01*
X0399653Y0110090D01*
X0399433Y0109908D01*
X0399208Y0109732D01*
X0398979Y0109562D01*
X0398746Y0109397D01*
X0398510Y0109237D01*
X0398269Y0109084D01*
X0398025Y0108936D01*
X0397777Y0108795D01*
X0397526Y0108659D01*
X0397272Y0108529D01*
X0397014Y0108406D01*
X0396754Y0108289D01*
X0396491Y0108178D01*
X0396225Y0108074D01*
X0395957Y0107976D01*
X0395687Y0107884D01*
X0395414Y0107799D01*
X0395140Y0107721D01*
X0394864Y0107649D01*
X0394586Y0107584D01*
X0394306Y0107526D01*
X0394025Y0107475D01*
X0393744Y0107430D01*
X0393461Y0107392D01*
X0393177Y0107361D01*
X0392893Y0107337D01*
X0392608Y0107320D01*
X0392322Y0107309D01*
X0392037Y0107306D01*
X0330029Y0107306D01*
X0330029Y0092542D01*
X0190856Y0092542D01*
X0190856Y0027187D01*
X0013297Y0027187D01*
X0036328Y0096085D02*
X0036330Y0096225D01*
X0036336Y0096365D01*
X0036346Y0096504D01*
X0036360Y0096643D01*
X0036378Y0096782D01*
X0036399Y0096920D01*
X0036425Y0097058D01*
X0036455Y0097195D01*
X0036488Y0097330D01*
X0036526Y0097465D01*
X0036567Y0097599D01*
X0036612Y0097732D01*
X0036660Y0097863D01*
X0036713Y0097992D01*
X0036769Y0098121D01*
X0036828Y0098247D01*
X0036892Y0098372D01*
X0036958Y0098495D01*
X0037029Y0098616D01*
X0037102Y0098735D01*
X0037179Y0098852D01*
X0037260Y0098966D01*
X0037343Y0099078D01*
X0037430Y0099188D01*
X0037520Y0099296D01*
X0037612Y0099400D01*
X0037708Y0099502D01*
X0037807Y0099602D01*
X0037908Y0099698D01*
X0038012Y0099792D01*
X0038119Y0099882D01*
X0038228Y0099969D01*
X0038340Y0100054D01*
X0038454Y0100135D01*
X0038570Y0100213D01*
X0038688Y0100287D01*
X0038809Y0100358D01*
X0038931Y0100426D01*
X0039056Y0100490D01*
X0039182Y0100551D01*
X0039309Y0100608D01*
X0039439Y0100661D01*
X0039570Y0100711D01*
X0039702Y0100756D01*
X0039835Y0100799D01*
X0039970Y0100837D01*
X0040105Y0100871D01*
X0040242Y0100902D01*
X0040379Y0100929D01*
X0040517Y0100951D01*
X0040656Y0100970D01*
X0040795Y0100985D01*
X0040934Y0100996D01*
X0041074Y0101003D01*
X0041214Y0101006D01*
X0041354Y0101005D01*
X0041494Y0101000D01*
X0041633Y0100991D01*
X0041773Y0100978D01*
X0041912Y0100961D01*
X0042050Y0100940D01*
X0042188Y0100916D01*
X0042325Y0100887D01*
X0042461Y0100855D01*
X0042596Y0100818D01*
X0042730Y0100778D01*
X0042863Y0100734D01*
X0042994Y0100686D01*
X0043124Y0100635D01*
X0043253Y0100580D01*
X0043380Y0100521D01*
X0043505Y0100458D01*
X0043628Y0100393D01*
X0043750Y0100323D01*
X0043869Y0100250D01*
X0043987Y0100174D01*
X0044102Y0100095D01*
X0044215Y0100012D01*
X0044325Y0099926D01*
X0044433Y0099837D01*
X0044538Y0099745D01*
X0044641Y0099650D01*
X0044741Y0099552D01*
X0044838Y0099452D01*
X0044932Y0099348D01*
X0045024Y0099242D01*
X0045112Y0099134D01*
X0045197Y0099023D01*
X0045279Y0098909D01*
X0045358Y0098793D01*
X0045433Y0098676D01*
X0045505Y0098556D01*
X0045573Y0098434D01*
X0045638Y0098310D01*
X0045700Y0098184D01*
X0045758Y0098057D01*
X0045812Y0097928D01*
X0045863Y0097797D01*
X0045909Y0097665D01*
X0045952Y0097532D01*
X0045992Y0097398D01*
X0046027Y0097263D01*
X0046059Y0097126D01*
X0046086Y0096989D01*
X0046110Y0096851D01*
X0046130Y0096713D01*
X0046146Y0096574D01*
X0046158Y0096434D01*
X0046166Y0096295D01*
X0046170Y0096155D01*
X0046170Y0096015D01*
X0046166Y0095875D01*
X0046158Y0095736D01*
X0046146Y0095596D01*
X0046130Y0095457D01*
X0046110Y0095319D01*
X0046086Y0095181D01*
X0046059Y0095044D01*
X0046027Y0094907D01*
X0045992Y0094772D01*
X0045952Y0094638D01*
X0045909Y0094505D01*
X0045863Y0094373D01*
X0045812Y0094242D01*
X0045758Y0094113D01*
X0045700Y0093986D01*
X0045638Y0093860D01*
X0045573Y0093736D01*
X0045505Y0093614D01*
X0045433Y0093494D01*
X0045358Y0093377D01*
X0045279Y0093261D01*
X0045197Y0093147D01*
X0045112Y0093036D01*
X0045024Y0092928D01*
X0044932Y0092822D01*
X0044838Y0092718D01*
X0044741Y0092618D01*
X0044641Y0092520D01*
X0044538Y0092425D01*
X0044433Y0092333D01*
X0044325Y0092244D01*
X0044215Y0092158D01*
X0044102Y0092075D01*
X0043987Y0091996D01*
X0043869Y0091920D01*
X0043750Y0091847D01*
X0043628Y0091777D01*
X0043505Y0091712D01*
X0043380Y0091649D01*
X0043253Y0091590D01*
X0043124Y0091535D01*
X0042994Y0091484D01*
X0042863Y0091436D01*
X0042730Y0091392D01*
X0042596Y0091352D01*
X0042461Y0091315D01*
X0042325Y0091283D01*
X0042188Y0091254D01*
X0042050Y0091230D01*
X0041912Y0091209D01*
X0041773Y0091192D01*
X0041633Y0091179D01*
X0041494Y0091170D01*
X0041354Y0091165D01*
X0041214Y0091164D01*
X0041074Y0091167D01*
X0040934Y0091174D01*
X0040795Y0091185D01*
X0040656Y0091200D01*
X0040517Y0091219D01*
X0040379Y0091241D01*
X0040242Y0091268D01*
X0040105Y0091299D01*
X0039970Y0091333D01*
X0039835Y0091371D01*
X0039702Y0091414D01*
X0039570Y0091459D01*
X0039439Y0091509D01*
X0039309Y0091562D01*
X0039182Y0091619D01*
X0039056Y0091680D01*
X0038931Y0091744D01*
X0038809Y0091812D01*
X0038688Y0091883D01*
X0038570Y0091957D01*
X0038454Y0092035D01*
X0038340Y0092116D01*
X0038228Y0092201D01*
X0038119Y0092288D01*
X0038012Y0092378D01*
X0037908Y0092472D01*
X0037807Y0092568D01*
X0037708Y0092668D01*
X0037612Y0092770D01*
X0037520Y0092874D01*
X0037430Y0092982D01*
X0037343Y0093092D01*
X0037260Y0093204D01*
X0037179Y0093318D01*
X0037102Y0093435D01*
X0037029Y0093554D01*
X0036958Y0093675D01*
X0036892Y0093798D01*
X0036828Y0093923D01*
X0036769Y0094049D01*
X0036713Y0094178D01*
X0036660Y0094307D01*
X0036612Y0094438D01*
X0036567Y0094571D01*
X0036526Y0094705D01*
X0036488Y0094840D01*
X0036455Y0094975D01*
X0036425Y0095112D01*
X0036399Y0095250D01*
X0036378Y0095388D01*
X0036360Y0095527D01*
X0036346Y0095666D01*
X0036336Y0095805D01*
X0036330Y0095945D01*
X0036328Y0096085D01*
X0191742Y0119707D02*
X0191744Y0119854D01*
X0191750Y0120000D01*
X0191760Y0120146D01*
X0191774Y0120292D01*
X0191792Y0120438D01*
X0191813Y0120583D01*
X0191839Y0120727D01*
X0191869Y0120871D01*
X0191902Y0121013D01*
X0191939Y0121155D01*
X0191980Y0121296D01*
X0192025Y0121435D01*
X0192074Y0121574D01*
X0192126Y0121711D01*
X0192183Y0121846D01*
X0192242Y0121980D01*
X0192306Y0122112D01*
X0192373Y0122242D01*
X0192443Y0122371D01*
X0192517Y0122498D01*
X0192594Y0122622D01*
X0192675Y0122745D01*
X0192759Y0122865D01*
X0192846Y0122983D01*
X0192936Y0123098D01*
X0193029Y0123211D01*
X0193126Y0123322D01*
X0193225Y0123430D01*
X0193327Y0123535D01*
X0193432Y0123637D01*
X0193540Y0123736D01*
X0193651Y0123833D01*
X0193764Y0123926D01*
X0193879Y0124016D01*
X0193997Y0124103D01*
X0194117Y0124187D01*
X0194240Y0124268D01*
X0194364Y0124345D01*
X0194491Y0124419D01*
X0194620Y0124489D01*
X0194750Y0124556D01*
X0194882Y0124620D01*
X0195016Y0124679D01*
X0195151Y0124736D01*
X0195288Y0124788D01*
X0195427Y0124837D01*
X0195566Y0124882D01*
X0195707Y0124923D01*
X0195849Y0124960D01*
X0195991Y0124993D01*
X0196135Y0125023D01*
X0196279Y0125049D01*
X0196424Y0125070D01*
X0196570Y0125088D01*
X0196716Y0125102D01*
X0196862Y0125112D01*
X0197008Y0125118D01*
X0197155Y0125120D01*
X0197302Y0125118D01*
X0197448Y0125112D01*
X0197594Y0125102D01*
X0197740Y0125088D01*
X0197886Y0125070D01*
X0198031Y0125049D01*
X0198175Y0125023D01*
X0198319Y0124993D01*
X0198461Y0124960D01*
X0198603Y0124923D01*
X0198744Y0124882D01*
X0198883Y0124837D01*
X0199022Y0124788D01*
X0199159Y0124736D01*
X0199294Y0124679D01*
X0199428Y0124620D01*
X0199560Y0124556D01*
X0199690Y0124489D01*
X0199819Y0124419D01*
X0199946Y0124345D01*
X0200070Y0124268D01*
X0200193Y0124187D01*
X0200313Y0124103D01*
X0200431Y0124016D01*
X0200546Y0123926D01*
X0200659Y0123833D01*
X0200770Y0123736D01*
X0200878Y0123637D01*
X0200983Y0123535D01*
X0201085Y0123430D01*
X0201184Y0123322D01*
X0201281Y0123211D01*
X0201374Y0123098D01*
X0201464Y0122983D01*
X0201551Y0122865D01*
X0201635Y0122745D01*
X0201716Y0122622D01*
X0201793Y0122498D01*
X0201867Y0122371D01*
X0201937Y0122242D01*
X0202004Y0122112D01*
X0202068Y0121980D01*
X0202127Y0121846D01*
X0202184Y0121711D01*
X0202236Y0121574D01*
X0202285Y0121435D01*
X0202330Y0121296D01*
X0202371Y0121155D01*
X0202408Y0121013D01*
X0202441Y0120871D01*
X0202471Y0120727D01*
X0202497Y0120583D01*
X0202518Y0120438D01*
X0202536Y0120292D01*
X0202550Y0120146D01*
X0202560Y0120000D01*
X0202566Y0119854D01*
X0202568Y0119707D01*
X0202566Y0119560D01*
X0202560Y0119414D01*
X0202550Y0119268D01*
X0202536Y0119122D01*
X0202518Y0118976D01*
X0202497Y0118831D01*
X0202471Y0118687D01*
X0202441Y0118543D01*
X0202408Y0118401D01*
X0202371Y0118259D01*
X0202330Y0118118D01*
X0202285Y0117979D01*
X0202236Y0117840D01*
X0202184Y0117703D01*
X0202127Y0117568D01*
X0202068Y0117434D01*
X0202004Y0117302D01*
X0201937Y0117172D01*
X0201867Y0117043D01*
X0201793Y0116916D01*
X0201716Y0116792D01*
X0201635Y0116669D01*
X0201551Y0116549D01*
X0201464Y0116431D01*
X0201374Y0116316D01*
X0201281Y0116203D01*
X0201184Y0116092D01*
X0201085Y0115984D01*
X0200983Y0115879D01*
X0200878Y0115777D01*
X0200770Y0115678D01*
X0200659Y0115581D01*
X0200546Y0115488D01*
X0200431Y0115398D01*
X0200313Y0115311D01*
X0200193Y0115227D01*
X0200070Y0115146D01*
X0199946Y0115069D01*
X0199819Y0114995D01*
X0199690Y0114925D01*
X0199560Y0114858D01*
X0199428Y0114794D01*
X0199294Y0114735D01*
X0199159Y0114678D01*
X0199022Y0114626D01*
X0198883Y0114577D01*
X0198744Y0114532D01*
X0198603Y0114491D01*
X0198461Y0114454D01*
X0198319Y0114421D01*
X0198175Y0114391D01*
X0198031Y0114365D01*
X0197886Y0114344D01*
X0197740Y0114326D01*
X0197594Y0114312D01*
X0197448Y0114302D01*
X0197302Y0114296D01*
X0197155Y0114294D01*
X0197008Y0114296D01*
X0196862Y0114302D01*
X0196716Y0114312D01*
X0196570Y0114326D01*
X0196424Y0114344D01*
X0196279Y0114365D01*
X0196135Y0114391D01*
X0195991Y0114421D01*
X0195849Y0114454D01*
X0195707Y0114491D01*
X0195566Y0114532D01*
X0195427Y0114577D01*
X0195288Y0114626D01*
X0195151Y0114678D01*
X0195016Y0114735D01*
X0194882Y0114794D01*
X0194750Y0114858D01*
X0194620Y0114925D01*
X0194491Y0114995D01*
X0194364Y0115069D01*
X0194240Y0115146D01*
X0194117Y0115227D01*
X0193997Y0115311D01*
X0193879Y0115398D01*
X0193764Y0115488D01*
X0193651Y0115581D01*
X0193540Y0115678D01*
X0193432Y0115777D01*
X0193327Y0115879D01*
X0193225Y0115984D01*
X0193126Y0116092D01*
X0193029Y0116203D01*
X0192936Y0116316D01*
X0192846Y0116431D01*
X0192759Y0116549D01*
X0192675Y0116669D01*
X0192594Y0116792D01*
X0192517Y0116916D01*
X0192443Y0117043D01*
X0192373Y0117172D01*
X0192306Y0117302D01*
X0192242Y0117434D01*
X0192183Y0117568D01*
X0192126Y0117703D01*
X0192074Y0117840D01*
X0192025Y0117979D01*
X0191980Y0118118D01*
X0191939Y0118259D01*
X0191902Y0118401D01*
X0191869Y0118543D01*
X0191839Y0118687D01*
X0191813Y0118831D01*
X0191792Y0118976D01*
X0191774Y0119122D01*
X0191760Y0119268D01*
X0191750Y0119414D01*
X0191744Y0119560D01*
X0191742Y0119707D01*
X0370974Y0292935D02*
X0370976Y0293075D01*
X0370982Y0293215D01*
X0370992Y0293354D01*
X0371006Y0293493D01*
X0371024Y0293632D01*
X0371045Y0293770D01*
X0371071Y0293908D01*
X0371101Y0294045D01*
X0371134Y0294180D01*
X0371172Y0294315D01*
X0371213Y0294449D01*
X0371258Y0294582D01*
X0371306Y0294713D01*
X0371359Y0294842D01*
X0371415Y0294971D01*
X0371474Y0295097D01*
X0371538Y0295222D01*
X0371604Y0295345D01*
X0371675Y0295466D01*
X0371748Y0295585D01*
X0371825Y0295702D01*
X0371906Y0295816D01*
X0371989Y0295928D01*
X0372076Y0296038D01*
X0372166Y0296146D01*
X0372258Y0296250D01*
X0372354Y0296352D01*
X0372453Y0296452D01*
X0372554Y0296548D01*
X0372658Y0296642D01*
X0372765Y0296732D01*
X0372874Y0296819D01*
X0372986Y0296904D01*
X0373100Y0296985D01*
X0373216Y0297063D01*
X0373334Y0297137D01*
X0373455Y0297208D01*
X0373577Y0297276D01*
X0373702Y0297340D01*
X0373828Y0297401D01*
X0373955Y0297458D01*
X0374085Y0297511D01*
X0374216Y0297561D01*
X0374348Y0297606D01*
X0374481Y0297649D01*
X0374616Y0297687D01*
X0374751Y0297721D01*
X0374888Y0297752D01*
X0375025Y0297779D01*
X0375163Y0297801D01*
X0375302Y0297820D01*
X0375441Y0297835D01*
X0375580Y0297846D01*
X0375720Y0297853D01*
X0375860Y0297856D01*
X0376000Y0297855D01*
X0376140Y0297850D01*
X0376279Y0297841D01*
X0376419Y0297828D01*
X0376558Y0297811D01*
X0376696Y0297790D01*
X0376834Y0297766D01*
X0376971Y0297737D01*
X0377107Y0297705D01*
X0377242Y0297668D01*
X0377376Y0297628D01*
X0377509Y0297584D01*
X0377640Y0297536D01*
X0377770Y0297485D01*
X0377899Y0297430D01*
X0378026Y0297371D01*
X0378151Y0297308D01*
X0378274Y0297243D01*
X0378396Y0297173D01*
X0378515Y0297100D01*
X0378633Y0297024D01*
X0378748Y0296945D01*
X0378861Y0296862D01*
X0378971Y0296776D01*
X0379079Y0296687D01*
X0379184Y0296595D01*
X0379287Y0296500D01*
X0379387Y0296402D01*
X0379484Y0296302D01*
X0379578Y0296198D01*
X0379670Y0296092D01*
X0379758Y0295984D01*
X0379843Y0295873D01*
X0379925Y0295759D01*
X0380004Y0295643D01*
X0380079Y0295526D01*
X0380151Y0295406D01*
X0380219Y0295284D01*
X0380284Y0295160D01*
X0380346Y0295034D01*
X0380404Y0294907D01*
X0380458Y0294778D01*
X0380509Y0294647D01*
X0380555Y0294515D01*
X0380598Y0294382D01*
X0380638Y0294248D01*
X0380673Y0294113D01*
X0380705Y0293976D01*
X0380732Y0293839D01*
X0380756Y0293701D01*
X0380776Y0293563D01*
X0380792Y0293424D01*
X0380804Y0293284D01*
X0380812Y0293145D01*
X0380816Y0293005D01*
X0380816Y0292865D01*
X0380812Y0292725D01*
X0380804Y0292586D01*
X0380792Y0292446D01*
X0380776Y0292307D01*
X0380756Y0292169D01*
X0380732Y0292031D01*
X0380705Y0291894D01*
X0380673Y0291757D01*
X0380638Y0291622D01*
X0380598Y0291488D01*
X0380555Y0291355D01*
X0380509Y0291223D01*
X0380458Y0291092D01*
X0380404Y0290963D01*
X0380346Y0290836D01*
X0380284Y0290710D01*
X0380219Y0290586D01*
X0380151Y0290464D01*
X0380079Y0290344D01*
X0380004Y0290227D01*
X0379925Y0290111D01*
X0379843Y0289997D01*
X0379758Y0289886D01*
X0379670Y0289778D01*
X0379578Y0289672D01*
X0379484Y0289568D01*
X0379387Y0289468D01*
X0379287Y0289370D01*
X0379184Y0289275D01*
X0379079Y0289183D01*
X0378971Y0289094D01*
X0378861Y0289008D01*
X0378748Y0288925D01*
X0378633Y0288846D01*
X0378515Y0288770D01*
X0378396Y0288697D01*
X0378274Y0288627D01*
X0378151Y0288562D01*
X0378026Y0288499D01*
X0377899Y0288440D01*
X0377770Y0288385D01*
X0377640Y0288334D01*
X0377509Y0288286D01*
X0377376Y0288242D01*
X0377242Y0288202D01*
X0377107Y0288165D01*
X0376971Y0288133D01*
X0376834Y0288104D01*
X0376696Y0288080D01*
X0376558Y0288059D01*
X0376419Y0288042D01*
X0376279Y0288029D01*
X0376140Y0288020D01*
X0376000Y0288015D01*
X0375860Y0288014D01*
X0375720Y0288017D01*
X0375580Y0288024D01*
X0375441Y0288035D01*
X0375302Y0288050D01*
X0375163Y0288069D01*
X0375025Y0288091D01*
X0374888Y0288118D01*
X0374751Y0288149D01*
X0374616Y0288183D01*
X0374481Y0288221D01*
X0374348Y0288264D01*
X0374216Y0288309D01*
X0374085Y0288359D01*
X0373955Y0288412D01*
X0373828Y0288469D01*
X0373702Y0288530D01*
X0373577Y0288594D01*
X0373455Y0288662D01*
X0373334Y0288733D01*
X0373216Y0288807D01*
X0373100Y0288885D01*
X0372986Y0288966D01*
X0372874Y0289051D01*
X0372765Y0289138D01*
X0372658Y0289228D01*
X0372554Y0289322D01*
X0372453Y0289418D01*
X0372354Y0289518D01*
X0372258Y0289620D01*
X0372166Y0289724D01*
X0372076Y0289832D01*
X0371989Y0289942D01*
X0371906Y0290054D01*
X0371825Y0290168D01*
X0371748Y0290285D01*
X0371675Y0290404D01*
X0371604Y0290525D01*
X0371538Y0290648D01*
X0371474Y0290773D01*
X0371415Y0290899D01*
X0371359Y0291028D01*
X0371306Y0291157D01*
X0371258Y0291288D01*
X0371213Y0291421D01*
X0371172Y0291555D01*
X0371134Y0291690D01*
X0371101Y0291825D01*
X0371071Y0291962D01*
X0371045Y0292100D01*
X0371024Y0292238D01*
X0371006Y0292377D01*
X0370992Y0292516D01*
X0370982Y0292655D01*
X0370976Y0292795D01*
X0370974Y0292935D01*
X0384655Y0348054D02*
X0384657Y0348201D01*
X0384663Y0348347D01*
X0384673Y0348493D01*
X0384687Y0348639D01*
X0384705Y0348785D01*
X0384726Y0348930D01*
X0384752Y0349074D01*
X0384782Y0349218D01*
X0384815Y0349360D01*
X0384852Y0349502D01*
X0384893Y0349643D01*
X0384938Y0349782D01*
X0384987Y0349921D01*
X0385039Y0350058D01*
X0385096Y0350193D01*
X0385155Y0350327D01*
X0385219Y0350459D01*
X0385286Y0350589D01*
X0385356Y0350718D01*
X0385430Y0350845D01*
X0385507Y0350969D01*
X0385588Y0351092D01*
X0385672Y0351212D01*
X0385759Y0351330D01*
X0385849Y0351445D01*
X0385942Y0351558D01*
X0386039Y0351669D01*
X0386138Y0351777D01*
X0386240Y0351882D01*
X0386345Y0351984D01*
X0386453Y0352083D01*
X0386564Y0352180D01*
X0386677Y0352273D01*
X0386792Y0352363D01*
X0386910Y0352450D01*
X0387030Y0352534D01*
X0387153Y0352615D01*
X0387277Y0352692D01*
X0387404Y0352766D01*
X0387533Y0352836D01*
X0387663Y0352903D01*
X0387795Y0352967D01*
X0387929Y0353026D01*
X0388064Y0353083D01*
X0388201Y0353135D01*
X0388340Y0353184D01*
X0388479Y0353229D01*
X0388620Y0353270D01*
X0388762Y0353307D01*
X0388904Y0353340D01*
X0389048Y0353370D01*
X0389192Y0353396D01*
X0389337Y0353417D01*
X0389483Y0353435D01*
X0389629Y0353449D01*
X0389775Y0353459D01*
X0389921Y0353465D01*
X0390068Y0353467D01*
X0390215Y0353465D01*
X0390361Y0353459D01*
X0390507Y0353449D01*
X0390653Y0353435D01*
X0390799Y0353417D01*
X0390944Y0353396D01*
X0391088Y0353370D01*
X0391232Y0353340D01*
X0391374Y0353307D01*
X0391516Y0353270D01*
X0391657Y0353229D01*
X0391796Y0353184D01*
X0391935Y0353135D01*
X0392072Y0353083D01*
X0392207Y0353026D01*
X0392341Y0352967D01*
X0392473Y0352903D01*
X0392603Y0352836D01*
X0392732Y0352766D01*
X0392859Y0352692D01*
X0392983Y0352615D01*
X0393106Y0352534D01*
X0393226Y0352450D01*
X0393344Y0352363D01*
X0393459Y0352273D01*
X0393572Y0352180D01*
X0393683Y0352083D01*
X0393791Y0351984D01*
X0393896Y0351882D01*
X0393998Y0351777D01*
X0394097Y0351669D01*
X0394194Y0351558D01*
X0394287Y0351445D01*
X0394377Y0351330D01*
X0394464Y0351212D01*
X0394548Y0351092D01*
X0394629Y0350969D01*
X0394706Y0350845D01*
X0394780Y0350718D01*
X0394850Y0350589D01*
X0394917Y0350459D01*
X0394981Y0350327D01*
X0395040Y0350193D01*
X0395097Y0350058D01*
X0395149Y0349921D01*
X0395198Y0349782D01*
X0395243Y0349643D01*
X0395284Y0349502D01*
X0395321Y0349360D01*
X0395354Y0349218D01*
X0395384Y0349074D01*
X0395410Y0348930D01*
X0395431Y0348785D01*
X0395449Y0348639D01*
X0395463Y0348493D01*
X0395473Y0348347D01*
X0395479Y0348201D01*
X0395481Y0348054D01*
X0395479Y0347907D01*
X0395473Y0347761D01*
X0395463Y0347615D01*
X0395449Y0347469D01*
X0395431Y0347323D01*
X0395410Y0347178D01*
X0395384Y0347034D01*
X0395354Y0346890D01*
X0395321Y0346748D01*
X0395284Y0346606D01*
X0395243Y0346465D01*
X0395198Y0346326D01*
X0395149Y0346187D01*
X0395097Y0346050D01*
X0395040Y0345915D01*
X0394981Y0345781D01*
X0394917Y0345649D01*
X0394850Y0345519D01*
X0394780Y0345390D01*
X0394706Y0345263D01*
X0394629Y0345139D01*
X0394548Y0345016D01*
X0394464Y0344896D01*
X0394377Y0344778D01*
X0394287Y0344663D01*
X0394194Y0344550D01*
X0394097Y0344439D01*
X0393998Y0344331D01*
X0393896Y0344226D01*
X0393791Y0344124D01*
X0393683Y0344025D01*
X0393572Y0343928D01*
X0393459Y0343835D01*
X0393344Y0343745D01*
X0393226Y0343658D01*
X0393106Y0343574D01*
X0392983Y0343493D01*
X0392859Y0343416D01*
X0392732Y0343342D01*
X0392603Y0343272D01*
X0392473Y0343205D01*
X0392341Y0343141D01*
X0392207Y0343082D01*
X0392072Y0343025D01*
X0391935Y0342973D01*
X0391796Y0342924D01*
X0391657Y0342879D01*
X0391516Y0342838D01*
X0391374Y0342801D01*
X0391232Y0342768D01*
X0391088Y0342738D01*
X0390944Y0342712D01*
X0390799Y0342691D01*
X0390653Y0342673D01*
X0390507Y0342659D01*
X0390361Y0342649D01*
X0390215Y0342643D01*
X0390068Y0342641D01*
X0389921Y0342643D01*
X0389775Y0342649D01*
X0389629Y0342659D01*
X0389483Y0342673D01*
X0389337Y0342691D01*
X0389192Y0342712D01*
X0389048Y0342738D01*
X0388904Y0342768D01*
X0388762Y0342801D01*
X0388620Y0342838D01*
X0388479Y0342879D01*
X0388340Y0342924D01*
X0388201Y0342973D01*
X0388064Y0343025D01*
X0387929Y0343082D01*
X0387795Y0343141D01*
X0387663Y0343205D01*
X0387533Y0343272D01*
X0387404Y0343342D01*
X0387277Y0343416D01*
X0387153Y0343493D01*
X0387030Y0343574D01*
X0386910Y0343658D01*
X0386792Y0343745D01*
X0386677Y0343835D01*
X0386564Y0343928D01*
X0386453Y0344025D01*
X0386345Y0344124D01*
X0386240Y0344226D01*
X0386138Y0344331D01*
X0386039Y0344439D01*
X0385942Y0344550D01*
X0385849Y0344663D01*
X0385759Y0344778D01*
X0385672Y0344896D01*
X0385588Y0345016D01*
X0385507Y0345139D01*
X0385430Y0345263D01*
X0385356Y0345390D01*
X0385286Y0345519D01*
X0385219Y0345649D01*
X0385155Y0345781D01*
X0385096Y0345915D01*
X0385039Y0346050D01*
X0384987Y0346187D01*
X0384938Y0346326D01*
X0384893Y0346465D01*
X0384852Y0346606D01*
X0384815Y0346748D01*
X0384782Y0346890D01*
X0384752Y0347034D01*
X0384726Y0347178D01*
X0384705Y0347323D01*
X0384687Y0347469D01*
X0384673Y0347615D01*
X0384663Y0347761D01*
X0384657Y0347907D01*
X0384655Y0348054D01*
X0191742Y0348054D02*
X0191744Y0348201D01*
X0191750Y0348347D01*
X0191760Y0348493D01*
X0191774Y0348639D01*
X0191792Y0348785D01*
X0191813Y0348930D01*
X0191839Y0349074D01*
X0191869Y0349218D01*
X0191902Y0349360D01*
X0191939Y0349502D01*
X0191980Y0349643D01*
X0192025Y0349782D01*
X0192074Y0349921D01*
X0192126Y0350058D01*
X0192183Y0350193D01*
X0192242Y0350327D01*
X0192306Y0350459D01*
X0192373Y0350589D01*
X0192443Y0350718D01*
X0192517Y0350845D01*
X0192594Y0350969D01*
X0192675Y0351092D01*
X0192759Y0351212D01*
X0192846Y0351330D01*
X0192936Y0351445D01*
X0193029Y0351558D01*
X0193126Y0351669D01*
X0193225Y0351777D01*
X0193327Y0351882D01*
X0193432Y0351984D01*
X0193540Y0352083D01*
X0193651Y0352180D01*
X0193764Y0352273D01*
X0193879Y0352363D01*
X0193997Y0352450D01*
X0194117Y0352534D01*
X0194240Y0352615D01*
X0194364Y0352692D01*
X0194491Y0352766D01*
X0194620Y0352836D01*
X0194750Y0352903D01*
X0194882Y0352967D01*
X0195016Y0353026D01*
X0195151Y0353083D01*
X0195288Y0353135D01*
X0195427Y0353184D01*
X0195566Y0353229D01*
X0195707Y0353270D01*
X0195849Y0353307D01*
X0195991Y0353340D01*
X0196135Y0353370D01*
X0196279Y0353396D01*
X0196424Y0353417D01*
X0196570Y0353435D01*
X0196716Y0353449D01*
X0196862Y0353459D01*
X0197008Y0353465D01*
X0197155Y0353467D01*
X0197302Y0353465D01*
X0197448Y0353459D01*
X0197594Y0353449D01*
X0197740Y0353435D01*
X0197886Y0353417D01*
X0198031Y0353396D01*
X0198175Y0353370D01*
X0198319Y0353340D01*
X0198461Y0353307D01*
X0198603Y0353270D01*
X0198744Y0353229D01*
X0198883Y0353184D01*
X0199022Y0353135D01*
X0199159Y0353083D01*
X0199294Y0353026D01*
X0199428Y0352967D01*
X0199560Y0352903D01*
X0199690Y0352836D01*
X0199819Y0352766D01*
X0199946Y0352692D01*
X0200070Y0352615D01*
X0200193Y0352534D01*
X0200313Y0352450D01*
X0200431Y0352363D01*
X0200546Y0352273D01*
X0200659Y0352180D01*
X0200770Y0352083D01*
X0200878Y0351984D01*
X0200983Y0351882D01*
X0201085Y0351777D01*
X0201184Y0351669D01*
X0201281Y0351558D01*
X0201374Y0351445D01*
X0201464Y0351330D01*
X0201551Y0351212D01*
X0201635Y0351092D01*
X0201716Y0350969D01*
X0201793Y0350845D01*
X0201867Y0350718D01*
X0201937Y0350589D01*
X0202004Y0350459D01*
X0202068Y0350327D01*
X0202127Y0350193D01*
X0202184Y0350058D01*
X0202236Y0349921D01*
X0202285Y0349782D01*
X0202330Y0349643D01*
X0202371Y0349502D01*
X0202408Y0349360D01*
X0202441Y0349218D01*
X0202471Y0349074D01*
X0202497Y0348930D01*
X0202518Y0348785D01*
X0202536Y0348639D01*
X0202550Y0348493D01*
X0202560Y0348347D01*
X0202566Y0348201D01*
X0202568Y0348054D01*
X0202566Y0347907D01*
X0202560Y0347761D01*
X0202550Y0347615D01*
X0202536Y0347469D01*
X0202518Y0347323D01*
X0202497Y0347178D01*
X0202471Y0347034D01*
X0202441Y0346890D01*
X0202408Y0346748D01*
X0202371Y0346606D01*
X0202330Y0346465D01*
X0202285Y0346326D01*
X0202236Y0346187D01*
X0202184Y0346050D01*
X0202127Y0345915D01*
X0202068Y0345781D01*
X0202004Y0345649D01*
X0201937Y0345519D01*
X0201867Y0345390D01*
X0201793Y0345263D01*
X0201716Y0345139D01*
X0201635Y0345016D01*
X0201551Y0344896D01*
X0201464Y0344778D01*
X0201374Y0344663D01*
X0201281Y0344550D01*
X0201184Y0344439D01*
X0201085Y0344331D01*
X0200983Y0344226D01*
X0200878Y0344124D01*
X0200770Y0344025D01*
X0200659Y0343928D01*
X0200546Y0343835D01*
X0200431Y0343745D01*
X0200313Y0343658D01*
X0200193Y0343574D01*
X0200070Y0343493D01*
X0199946Y0343416D01*
X0199819Y0343342D01*
X0199690Y0343272D01*
X0199560Y0343205D01*
X0199428Y0343141D01*
X0199294Y0343082D01*
X0199159Y0343025D01*
X0199022Y0342973D01*
X0198883Y0342924D01*
X0198744Y0342879D01*
X0198603Y0342838D01*
X0198461Y0342801D01*
X0198319Y0342768D01*
X0198175Y0342738D01*
X0198031Y0342712D01*
X0197886Y0342691D01*
X0197740Y0342673D01*
X0197594Y0342659D01*
X0197448Y0342649D01*
X0197302Y0342643D01*
X0197155Y0342641D01*
X0197008Y0342643D01*
X0196862Y0342649D01*
X0196716Y0342659D01*
X0196570Y0342673D01*
X0196424Y0342691D01*
X0196279Y0342712D01*
X0196135Y0342738D01*
X0195991Y0342768D01*
X0195849Y0342801D01*
X0195707Y0342838D01*
X0195566Y0342879D01*
X0195427Y0342924D01*
X0195288Y0342973D01*
X0195151Y0343025D01*
X0195016Y0343082D01*
X0194882Y0343141D01*
X0194750Y0343205D01*
X0194620Y0343272D01*
X0194491Y0343342D01*
X0194364Y0343416D01*
X0194240Y0343493D01*
X0194117Y0343574D01*
X0193997Y0343658D01*
X0193879Y0343745D01*
X0193764Y0343835D01*
X0193651Y0343928D01*
X0193540Y0344025D01*
X0193432Y0344124D01*
X0193327Y0344226D01*
X0193225Y0344331D01*
X0193126Y0344439D01*
X0193029Y0344550D01*
X0192936Y0344663D01*
X0192846Y0344778D01*
X0192759Y0344896D01*
X0192675Y0345016D01*
X0192594Y0345139D01*
X0192517Y0345263D01*
X0192443Y0345390D01*
X0192373Y0345519D01*
X0192306Y0345649D01*
X0192242Y0345781D01*
X0192183Y0345915D01*
X0192126Y0346050D01*
X0192074Y0346187D01*
X0192025Y0346326D01*
X0191980Y0346465D01*
X0191939Y0346606D01*
X0191902Y0346748D01*
X0191869Y0346890D01*
X0191839Y0347034D01*
X0191813Y0347178D01*
X0191792Y0347323D01*
X0191774Y0347469D01*
X0191760Y0347615D01*
X0191750Y0347761D01*
X0191744Y0347907D01*
X0191742Y0348054D01*
X0384655Y0119707D02*
X0384657Y0119854D01*
X0384663Y0120000D01*
X0384673Y0120146D01*
X0384687Y0120292D01*
X0384705Y0120438D01*
X0384726Y0120583D01*
X0384752Y0120727D01*
X0384782Y0120871D01*
X0384815Y0121013D01*
X0384852Y0121155D01*
X0384893Y0121296D01*
X0384938Y0121435D01*
X0384987Y0121574D01*
X0385039Y0121711D01*
X0385096Y0121846D01*
X0385155Y0121980D01*
X0385219Y0122112D01*
X0385286Y0122242D01*
X0385356Y0122371D01*
X0385430Y0122498D01*
X0385507Y0122622D01*
X0385588Y0122745D01*
X0385672Y0122865D01*
X0385759Y0122983D01*
X0385849Y0123098D01*
X0385942Y0123211D01*
X0386039Y0123322D01*
X0386138Y0123430D01*
X0386240Y0123535D01*
X0386345Y0123637D01*
X0386453Y0123736D01*
X0386564Y0123833D01*
X0386677Y0123926D01*
X0386792Y0124016D01*
X0386910Y0124103D01*
X0387030Y0124187D01*
X0387153Y0124268D01*
X0387277Y0124345D01*
X0387404Y0124419D01*
X0387533Y0124489D01*
X0387663Y0124556D01*
X0387795Y0124620D01*
X0387929Y0124679D01*
X0388064Y0124736D01*
X0388201Y0124788D01*
X0388340Y0124837D01*
X0388479Y0124882D01*
X0388620Y0124923D01*
X0388762Y0124960D01*
X0388904Y0124993D01*
X0389048Y0125023D01*
X0389192Y0125049D01*
X0389337Y0125070D01*
X0389483Y0125088D01*
X0389629Y0125102D01*
X0389775Y0125112D01*
X0389921Y0125118D01*
X0390068Y0125120D01*
X0390215Y0125118D01*
X0390361Y0125112D01*
X0390507Y0125102D01*
X0390653Y0125088D01*
X0390799Y0125070D01*
X0390944Y0125049D01*
X0391088Y0125023D01*
X0391232Y0124993D01*
X0391374Y0124960D01*
X0391516Y0124923D01*
X0391657Y0124882D01*
X0391796Y0124837D01*
X0391935Y0124788D01*
X0392072Y0124736D01*
X0392207Y0124679D01*
X0392341Y0124620D01*
X0392473Y0124556D01*
X0392603Y0124489D01*
X0392732Y0124419D01*
X0392859Y0124345D01*
X0392983Y0124268D01*
X0393106Y0124187D01*
X0393226Y0124103D01*
X0393344Y0124016D01*
X0393459Y0123926D01*
X0393572Y0123833D01*
X0393683Y0123736D01*
X0393791Y0123637D01*
X0393896Y0123535D01*
X0393998Y0123430D01*
X0394097Y0123322D01*
X0394194Y0123211D01*
X0394287Y0123098D01*
X0394377Y0122983D01*
X0394464Y0122865D01*
X0394548Y0122745D01*
X0394629Y0122622D01*
X0394706Y0122498D01*
X0394780Y0122371D01*
X0394850Y0122242D01*
X0394917Y0122112D01*
X0394981Y0121980D01*
X0395040Y0121846D01*
X0395097Y0121711D01*
X0395149Y0121574D01*
X0395198Y0121435D01*
X0395243Y0121296D01*
X0395284Y0121155D01*
X0395321Y0121013D01*
X0395354Y0120871D01*
X0395384Y0120727D01*
X0395410Y0120583D01*
X0395431Y0120438D01*
X0395449Y0120292D01*
X0395463Y0120146D01*
X0395473Y0120000D01*
X0395479Y0119854D01*
X0395481Y0119707D01*
X0395479Y0119560D01*
X0395473Y0119414D01*
X0395463Y0119268D01*
X0395449Y0119122D01*
X0395431Y0118976D01*
X0395410Y0118831D01*
X0395384Y0118687D01*
X0395354Y0118543D01*
X0395321Y0118401D01*
X0395284Y0118259D01*
X0395243Y0118118D01*
X0395198Y0117979D01*
X0395149Y0117840D01*
X0395097Y0117703D01*
X0395040Y0117568D01*
X0394981Y0117434D01*
X0394917Y0117302D01*
X0394850Y0117172D01*
X0394780Y0117043D01*
X0394706Y0116916D01*
X0394629Y0116792D01*
X0394548Y0116669D01*
X0394464Y0116549D01*
X0394377Y0116431D01*
X0394287Y0116316D01*
X0394194Y0116203D01*
X0394097Y0116092D01*
X0393998Y0115984D01*
X0393896Y0115879D01*
X0393791Y0115777D01*
X0393683Y0115678D01*
X0393572Y0115581D01*
X0393459Y0115488D01*
X0393344Y0115398D01*
X0393226Y0115311D01*
X0393106Y0115227D01*
X0392983Y0115146D01*
X0392859Y0115069D01*
X0392732Y0114995D01*
X0392603Y0114925D01*
X0392473Y0114858D01*
X0392341Y0114794D01*
X0392207Y0114735D01*
X0392072Y0114678D01*
X0391935Y0114626D01*
X0391796Y0114577D01*
X0391657Y0114532D01*
X0391516Y0114491D01*
X0391374Y0114454D01*
X0391232Y0114421D01*
X0391088Y0114391D01*
X0390944Y0114365D01*
X0390799Y0114344D01*
X0390653Y0114326D01*
X0390507Y0114312D01*
X0390361Y0114302D01*
X0390215Y0114296D01*
X0390068Y0114294D01*
X0389921Y0114296D01*
X0389775Y0114302D01*
X0389629Y0114312D01*
X0389483Y0114326D01*
X0389337Y0114344D01*
X0389192Y0114365D01*
X0389048Y0114391D01*
X0388904Y0114421D01*
X0388762Y0114454D01*
X0388620Y0114491D01*
X0388479Y0114532D01*
X0388340Y0114577D01*
X0388201Y0114626D01*
X0388064Y0114678D01*
X0387929Y0114735D01*
X0387795Y0114794D01*
X0387663Y0114858D01*
X0387533Y0114925D01*
X0387404Y0114995D01*
X0387277Y0115069D01*
X0387153Y0115146D01*
X0387030Y0115227D01*
X0386910Y0115311D01*
X0386792Y0115398D01*
X0386677Y0115488D01*
X0386564Y0115581D01*
X0386453Y0115678D01*
X0386345Y0115777D01*
X0386240Y0115879D01*
X0386138Y0115984D01*
X0386039Y0116092D01*
X0385942Y0116203D01*
X0385849Y0116316D01*
X0385759Y0116431D01*
X0385672Y0116549D01*
X0385588Y0116669D01*
X0385507Y0116792D01*
X0385430Y0116916D01*
X0385356Y0117043D01*
X0385286Y0117172D01*
X0385219Y0117302D01*
X0385155Y0117434D01*
X0385096Y0117568D01*
X0385039Y0117703D01*
X0384987Y0117840D01*
X0384938Y0117979D01*
X0384893Y0118118D01*
X0384852Y0118259D01*
X0384815Y0118401D01*
X0384782Y0118543D01*
X0384752Y0118687D01*
X0384726Y0118831D01*
X0384705Y0118976D01*
X0384687Y0119122D01*
X0384673Y0119268D01*
X0384663Y0119414D01*
X0384657Y0119560D01*
X0384655Y0119707D01*
D11*
X0075698Y0346872D03*
X0056013Y0346872D03*
D12*
X0089911Y0204353D03*
X0109911Y0204353D03*
X0117470Y0180731D03*
X0137470Y0180731D03*
X0164399Y0147266D03*
X0174399Y0147266D03*
X0104202Y0140376D03*
X0105226Y0125770D03*
X0084202Y0140376D03*
X0048730Y0175731D03*
X0048730Y0185731D03*
X0105226Y0105770D03*
D13*
X0036919Y0114810D02*
X0036919Y0123660D01*
X0036919Y0174810D02*
X0036919Y0183660D01*
X0099911Y0262841D02*
X0099911Y0271691D01*
X0099911Y0322841D02*
X0099911Y0331691D01*
D14*
X0131210Y0317306D03*
X0131210Y0347306D03*
X0036801Y0347306D03*
X0036801Y0317306D03*
D15*
X0099911Y0248998D03*
X0099911Y0228998D03*
X0036919Y0217502D03*
X0036919Y0197502D03*
D16*
X0084084Y0159077D03*
X0089084Y0166577D03*
X0094084Y0159077D03*
X0103848Y0156636D03*
X0103848Y0166636D03*
X0104911Y0180731D03*
X0099911Y0188231D03*
X0094911Y0180731D03*
X0122155Y0154983D03*
X0122155Y0144983D03*
X0087706Y0113231D03*
X0082706Y0105731D03*
X0092706Y0105731D03*
D17*
X0078509Y0232813D02*
X0068667Y0232813D01*
X0036667Y0232813D02*
X0026824Y0232813D01*
X0026824Y0305813D02*
X0036667Y0305813D01*
X0068667Y0305813D02*
X0078509Y0305813D01*
X0121312Y0305813D02*
X0131155Y0305813D01*
X0163155Y0305813D02*
X0172997Y0305813D01*
X0172997Y0232813D02*
X0163155Y0232813D01*
X0131155Y0232813D02*
X0121312Y0232813D01*
D18*
X0121155Y0232813D03*
X0078667Y0232813D03*
X0026667Y0232813D03*
X0026667Y0305813D03*
X0078667Y0305813D03*
X0121155Y0305813D03*
X0173155Y0305813D03*
X0173155Y0232813D03*
X0151682Y0066557D03*
X0141840Y0066557D03*
X0131997Y0066557D03*
D19*
X0172155Y0325416D03*
D20*
X0172155Y0333290D03*
X0164281Y0333290D03*
X0156407Y0333290D03*
X0156407Y0325416D03*
X0164281Y0325416D03*
D21*
X0068316Y0209550D02*
X0063001Y0209550D01*
X0063001Y0199550D02*
X0068316Y0199550D01*
X0068316Y0189550D02*
X0063001Y0189550D01*
X0063001Y0179550D02*
X0068316Y0179550D01*
X0068316Y0079550D02*
X0063001Y0079550D01*
X0063001Y0069550D02*
X0068316Y0069550D01*
X0068316Y0059550D02*
X0063001Y0059550D01*
D22*
X0065659Y0049550D03*
D23*
X0084005Y0054904D03*
X0094005Y0044904D03*
X0084005Y0034904D03*
X0104005Y0034904D03*
X0104005Y0054904D03*
X0131249Y0054904D03*
X0141249Y0044904D03*
X0151249Y0054904D03*
X0151249Y0034904D03*
X0131249Y0034904D03*
D24*
X0202155Y0328880D03*
D25*
X0192155Y0328880D03*
X0192155Y0318880D03*
X0192155Y0308880D03*
X0202155Y0308880D03*
X0202155Y0318880D03*
X0202155Y0298880D03*
X0192155Y0298880D03*
X0192155Y0288880D03*
X0202155Y0288880D03*
X0202155Y0278880D03*
X0202155Y0268880D03*
X0192155Y0268880D03*
X0192155Y0278880D03*
X0192155Y0258880D03*
X0202155Y0258880D03*
X0202155Y0248880D03*
X0202155Y0238880D03*
X0192155Y0238880D03*
X0192155Y0248880D03*
X0192155Y0228880D03*
X0202155Y0228880D03*
X0202155Y0218880D03*
X0192155Y0218880D03*
X0192155Y0208880D03*
X0192155Y0198880D03*
X0202155Y0198880D03*
X0202155Y0208880D03*
X0202155Y0188880D03*
X0192155Y0188880D03*
X0192155Y0178880D03*
X0202155Y0178880D03*
X0202155Y0168880D03*
X0202155Y0158880D03*
X0192155Y0158880D03*
X0192155Y0168880D03*
X0192155Y0148880D03*
X0202155Y0148880D03*
X0202155Y0138880D03*
X0192155Y0138880D03*
D26*
X0173336Y0137424D03*
X0165462Y0137424D03*
X0157588Y0137424D03*
X0149714Y0137424D03*
X0141840Y0137424D03*
X0133966Y0137424D03*
X0126092Y0137424D03*
X0118218Y0137424D03*
D27*
X0077274Y0340651D02*
X0076228Y0340477D01*
X0075168Y0340477D01*
X0074123Y0340651D01*
X0073120Y0340996D01*
X0072188Y0341500D01*
X0071352Y0342151D01*
X0070634Y0342931D01*
X0070054Y0343818D01*
X0069629Y0344789D01*
X0069368Y0345816D01*
X0069281Y0346872D01*
X0069368Y0347929D01*
X0069629Y0348956D01*
X0070054Y0349927D01*
X0070634Y0350814D01*
X0071352Y0351594D01*
X0072188Y0352245D01*
X0073120Y0352749D01*
X0074123Y0353093D01*
X0075168Y0353268D01*
X0076228Y0353268D01*
X0077274Y0353093D01*
X0078276Y0352749D01*
X0079208Y0352245D01*
X0080044Y0351594D01*
X0080762Y0350814D01*
X0081342Y0349927D01*
X0081768Y0348956D01*
X0082028Y0347929D01*
X0082115Y0346872D01*
X0082028Y0345816D01*
X0081768Y0344789D01*
X0081342Y0343818D01*
X0080762Y0342931D01*
X0080044Y0342151D01*
X0079208Y0341500D01*
X0078276Y0340996D01*
X0077274Y0340651D01*
X0079062Y0341421D02*
X0072335Y0341421D01*
X0070757Y0342797D02*
X0080639Y0342797D01*
X0081498Y0344174D02*
X0069898Y0344174D01*
X0069436Y0345550D02*
X0081961Y0345550D01*
X0082111Y0346927D02*
X0069285Y0346927D01*
X0069463Y0348303D02*
X0081933Y0348303D01*
X0081450Y0349680D02*
X0069946Y0349680D01*
X0070857Y0351056D02*
X0080539Y0351056D01*
X0078861Y0352433D02*
X0072535Y0352433D01*
X0062083Y0348956D02*
X0062343Y0347929D01*
X0062430Y0346872D01*
X0062343Y0345816D01*
X0062083Y0344789D01*
X0061657Y0343818D01*
X0061077Y0342931D01*
X0060359Y0342151D01*
X0059523Y0341500D01*
X0058591Y0340996D01*
X0057588Y0340651D01*
X0056543Y0340477D01*
X0055483Y0340477D01*
X0054438Y0340651D01*
X0053435Y0340996D01*
X0052503Y0341500D01*
X0051667Y0342151D01*
X0050949Y0342931D01*
X0050369Y0343818D01*
X0049944Y0344789D01*
X0049683Y0345816D01*
X0049596Y0346872D01*
X0049683Y0347929D01*
X0049944Y0348956D01*
X0050369Y0349927D01*
X0050949Y0350814D01*
X0051667Y0351594D01*
X0052503Y0352245D01*
X0053435Y0352749D01*
X0054438Y0353093D01*
X0055483Y0353268D01*
X0056543Y0353268D01*
X0057588Y0353093D01*
X0058591Y0352749D01*
X0059523Y0352245D01*
X0060359Y0351594D01*
X0061077Y0350814D01*
X0061657Y0349927D01*
X0062083Y0348956D01*
X0062248Y0348303D02*
X0049778Y0348303D01*
X0049600Y0346927D02*
X0062426Y0346927D01*
X0062276Y0345550D02*
X0049751Y0345550D01*
X0050213Y0344174D02*
X0061813Y0344174D01*
X0060954Y0342797D02*
X0051072Y0342797D01*
X0052650Y0341421D02*
X0059377Y0341421D01*
X0061765Y0349680D02*
X0050261Y0349680D01*
X0051172Y0351056D02*
X0060854Y0351056D01*
X0059176Y0352433D02*
X0052850Y0352433D01*
D28*
X0055580Y0347306D02*
X0056013Y0346872D01*
X0066840Y0357699D01*
X0120974Y0357699D01*
X0131210Y0347463D01*
X0131210Y0347306D01*
X0142824Y0335455D02*
X0152273Y0344904D01*
X0178454Y0344904D01*
X0192037Y0331321D01*
X0192037Y0328998D01*
X0192155Y0328880D01*
X0156407Y0333290D02*
X0148533Y0325416D01*
X0148533Y0233880D01*
X0132785Y0218132D01*
X0125698Y0218132D01*
X0062234Y0218132D01*
X0041604Y0197502D01*
X0036919Y0197502D01*
X0100029Y0267148D02*
X0119005Y0267148D01*
X0142824Y0290967D01*
X0142824Y0335455D01*
X0099911Y0267266D02*
X0100029Y0267148D01*
X0055580Y0347306D02*
X0036801Y0347306D01*
D29*
X0038703Y0342631D02*
X0048281Y0342631D01*
X0048261Y0342677D02*
X0048523Y0342080D01*
X0048521Y0342041D01*
X0048557Y0342001D01*
X0048579Y0341952D01*
X0048616Y0341938D01*
X0049057Y0341458D01*
X0049414Y0340913D01*
X0049419Y0340874D01*
X0049461Y0340841D01*
X0049490Y0340796D01*
X0049529Y0340788D01*
X0050043Y0340387D01*
X0050485Y0339908D01*
X0050496Y0339870D01*
X0050543Y0339844D01*
X0050579Y0339805D01*
X0050619Y0339803D01*
X0051192Y0339493D01*
X0051706Y0339093D01*
X0051724Y0339057D01*
X0051774Y0339040D01*
X0051817Y0339007D01*
X0051856Y0339012D01*
X0052472Y0338800D01*
X0053045Y0338490D01*
X0053069Y0338458D01*
X0053121Y0338449D01*
X0053169Y0338424D01*
X0053207Y0338435D01*
X0053849Y0338328D01*
X0054466Y0338116D01*
X0054494Y0338088D01*
X0054547Y0338088D01*
X0054598Y0338071D01*
X0054634Y0338088D01*
X0055285Y0338088D01*
X0055928Y0337981D01*
X0055960Y0337958D01*
X0056013Y0337967D01*
X0056066Y0337958D01*
X0056098Y0337981D01*
X0056741Y0338088D01*
X0057393Y0338088D01*
X0057428Y0338071D01*
X0057479Y0338088D01*
X0057533Y0338088D01*
X0057561Y0338116D01*
X0058177Y0338328D01*
X0058820Y0338435D01*
X0058858Y0338424D01*
X0058905Y0338449D01*
X0058958Y0338458D01*
X0058981Y0338490D01*
X0059554Y0338800D01*
X0060170Y0339012D01*
X0060209Y0339007D01*
X0060252Y0339040D01*
X0060303Y0339057D01*
X0060320Y0339093D01*
X0060834Y0339493D01*
X0061407Y0339803D01*
X0061447Y0339805D01*
X0061483Y0339844D01*
X0061530Y0339870D01*
X0061542Y0339908D01*
X0061983Y0340387D01*
X0062497Y0340788D01*
X0062536Y0340796D01*
X0062565Y0340841D01*
X0062608Y0340874D01*
X0062613Y0340913D01*
X0062969Y0341458D01*
X0063410Y0341938D01*
X0063447Y0341952D01*
X0063469Y0342001D01*
X0063505Y0342041D01*
X0063503Y0342080D01*
X0063765Y0342677D01*
X0064122Y0343223D01*
X0064156Y0343243D01*
X0064169Y0343295D01*
X0064198Y0343340D01*
X0064190Y0343379D01*
X0064350Y0344010D01*
X0064612Y0344607D01*
X0064642Y0344633D01*
X0064646Y0344686D01*
X0064668Y0344735D01*
X0064654Y0344772D01*
X0064707Y0345422D01*
X0064867Y0346053D01*
X0064893Y0346084D01*
X0064889Y0346137D01*
X0064902Y0346189D01*
X0064881Y0346223D01*
X0064828Y0346872D01*
X0064881Y0347522D01*
X0064902Y0347556D01*
X0064889Y0347608D01*
X0064893Y0347661D01*
X0064867Y0347692D01*
X0064707Y0348323D01*
X0064654Y0348973D01*
X0064668Y0349010D01*
X0064646Y0349059D01*
X0064642Y0349112D01*
X0064612Y0349138D01*
X0064350Y0349735D01*
X0064301Y0349928D01*
X0068372Y0353999D01*
X0119441Y0353999D01*
X0126164Y0347277D01*
X0126164Y0346302D01*
X0126932Y0344447D01*
X0128351Y0343027D01*
X0130206Y0342259D01*
X0132214Y0342259D01*
X0134069Y0343027D01*
X0135488Y0344447D01*
X0136256Y0346302D01*
X0136256Y0348309D01*
X0135488Y0350164D01*
X0134069Y0351584D01*
X0132214Y0352352D01*
X0131554Y0352352D01*
X0124572Y0359333D01*
X0189670Y0359333D01*
X0188859Y0358865D01*
X0186343Y0356349D01*
X0184565Y0353269D01*
X0183644Y0349832D01*
X0183644Y0346275D01*
X0184130Y0344461D01*
X0180550Y0348041D01*
X0179190Y0348604D01*
X0151537Y0348604D01*
X0150177Y0348041D01*
X0149136Y0347000D01*
X0139687Y0337551D01*
X0139124Y0336191D01*
X0139124Y0292500D01*
X0117473Y0270848D01*
X0106036Y0270848D01*
X0106036Y0272909D01*
X0105103Y0275161D01*
X0103380Y0276884D01*
X0101129Y0277816D01*
X0098692Y0277816D01*
X0096441Y0276884D01*
X0094718Y0275161D01*
X0093786Y0272909D01*
X0093786Y0261623D01*
X0094411Y0260114D01*
X0094411Y0247904D01*
X0095248Y0245883D01*
X0096795Y0244336D01*
X0098817Y0243498D01*
X0101005Y0243498D01*
X0103026Y0244336D01*
X0104573Y0245883D01*
X0105411Y0247904D01*
X0105411Y0260114D01*
X0106036Y0261623D01*
X0106036Y0263448D01*
X0119741Y0263448D01*
X0121101Y0264011D01*
X0144833Y0287743D01*
X0144833Y0235413D01*
X0131252Y0221832D01*
X0061498Y0221832D01*
X0060138Y0221269D01*
X0040534Y0201665D01*
X0040034Y0202165D01*
X0038013Y0203002D01*
X0035825Y0203002D01*
X0033803Y0202165D01*
X0032256Y0200618D01*
X0031419Y0198596D01*
X0031419Y0186387D01*
X0030794Y0184878D01*
X0030794Y0173591D01*
X0031726Y0171340D01*
X0033449Y0169617D01*
X0034419Y0169216D01*
X0034419Y0165863D01*
X0034799Y0164944D01*
X0060783Y0138960D01*
X0061487Y0138257D01*
X0062406Y0137876D01*
X0079843Y0137876D01*
X0082193Y0135526D01*
X0085206Y0135526D01*
X0085206Y0116529D01*
X0083606Y0114929D01*
X0083606Y0111532D01*
X0086008Y0109131D01*
X0086876Y0109131D01*
X0086836Y0109091D01*
X0085606Y0107860D01*
X0085606Y0102262D01*
X0086836Y0101032D01*
X0086836Y0101032D01*
X0089464Y0098404D01*
X0090694Y0097174D01*
X0107788Y0097174D01*
X0132788Y0122174D01*
X0176647Y0122174D01*
X0177877Y0123404D01*
X0187011Y0132538D01*
X0187011Y0137711D01*
X0187746Y0135935D01*
X0189209Y0134472D01*
X0191120Y0133680D01*
X0193189Y0133680D01*
X0195100Y0134472D01*
X0196563Y0135935D01*
X0197355Y0137846D01*
X0197355Y0139915D01*
X0196582Y0141780D01*
X0198025Y0141780D01*
X0200275Y0144031D01*
X0201120Y0143680D01*
X0203189Y0143680D01*
X0205100Y0144472D01*
X0206563Y0145935D01*
X0207355Y0147846D01*
X0207355Y0149915D01*
X0206563Y0151826D01*
X0205100Y0153289D01*
X0203672Y0153880D01*
X0205100Y0154472D01*
X0206563Y0155935D01*
X0207355Y0157846D01*
X0207355Y0159915D01*
X0206563Y0161826D01*
X0205100Y0163289D01*
X0203672Y0163880D01*
X0205100Y0164472D01*
X0206563Y0165935D01*
X0207355Y0167846D01*
X0207355Y0169915D01*
X0206563Y0171826D01*
X0205100Y0173289D01*
X0203672Y0173880D01*
X0205100Y0174472D01*
X0206563Y0175935D01*
X0207355Y0177846D01*
X0207355Y0179915D01*
X0206563Y0181826D01*
X0205100Y0183289D01*
X0203672Y0183880D01*
X0205100Y0184472D01*
X0206563Y0185935D01*
X0207355Y0187846D01*
X0207355Y0189915D01*
X0206582Y0191780D01*
X0207513Y0191780D01*
X0208743Y0193010D01*
X0213034Y0197302D01*
X0213034Y0231010D01*
X0211804Y0232240D01*
X0207016Y0237028D01*
X0207355Y0237846D01*
X0207355Y0239915D01*
X0206563Y0241826D01*
X0205100Y0243289D01*
X0203672Y0243880D01*
X0205100Y0244472D01*
X0206563Y0245935D01*
X0207355Y0247846D01*
X0207355Y0249915D01*
X0206563Y0251826D01*
X0205100Y0253289D01*
X0203672Y0253880D01*
X0205100Y0254472D01*
X0206563Y0255935D01*
X0207355Y0257846D01*
X0207355Y0259915D01*
X0206563Y0261826D01*
X0205100Y0263289D01*
X0203672Y0263880D01*
X0205100Y0264472D01*
X0206563Y0265935D01*
X0207355Y0267846D01*
X0207355Y0269915D01*
X0206563Y0271826D01*
X0205100Y0273289D01*
X0203672Y0273880D01*
X0205100Y0274472D01*
X0206563Y0275935D01*
X0207355Y0277846D01*
X0207355Y0279915D01*
X0206563Y0281826D01*
X0205100Y0283289D01*
X0203189Y0284080D01*
X0201120Y0284080D01*
X0199209Y0283289D01*
X0197746Y0281826D01*
X0197155Y0280397D01*
X0196563Y0281826D01*
X0195100Y0283289D01*
X0193672Y0283880D01*
X0195100Y0284472D01*
X0196563Y0285935D01*
X0197355Y0287846D01*
X0197355Y0289915D01*
X0196563Y0291826D01*
X0195100Y0293289D01*
X0193672Y0293880D01*
X0195100Y0294472D01*
X0196563Y0295935D01*
X0197155Y0297363D01*
X0197746Y0295935D01*
X0199209Y0294472D01*
X0201120Y0293680D01*
X0203189Y0293680D01*
X0205100Y0294472D01*
X0206563Y0295935D01*
X0207355Y0297846D01*
X0207355Y0299915D01*
X0206563Y0301826D01*
X0205100Y0303289D01*
X0203672Y0303880D01*
X0205100Y0304472D01*
X0206563Y0305935D01*
X0207355Y0307846D01*
X0207355Y0309915D01*
X0206563Y0311826D01*
X0205100Y0313289D01*
X0203672Y0313880D01*
X0205100Y0314472D01*
X0206563Y0315935D01*
X0207355Y0317846D01*
X0207355Y0319915D01*
X0206563Y0321826D01*
X0205100Y0323289D01*
X0204155Y0323680D01*
X0206359Y0323680D01*
X0207355Y0324676D01*
X0207355Y0333084D01*
X0206359Y0334080D01*
X0197951Y0334080D01*
X0196955Y0333084D01*
X0196955Y0330880D01*
X0196563Y0331826D01*
X0195316Y0333073D01*
X0195173Y0333417D01*
X0194133Y0334458D01*
X0193562Y0335029D01*
X0195376Y0334543D01*
X0198934Y0334543D01*
X0202370Y0335463D01*
X0205451Y0337242D01*
X0207966Y0339758D01*
X0209745Y0342838D01*
X0210666Y0346275D01*
X0210666Y0349832D01*
X0209745Y0353269D01*
X0207966Y0356349D01*
X0205451Y0358865D01*
X0204640Y0359333D01*
X0382583Y0359333D01*
X0381772Y0358865D01*
X0379257Y0356349D01*
X0377478Y0353269D01*
X0376557Y0349832D01*
X0376557Y0346275D01*
X0377478Y0342838D01*
X0379257Y0339758D01*
X0381772Y0337242D01*
X0384853Y0335463D01*
X0388289Y0334543D01*
X0391847Y0334543D01*
X0395283Y0335463D01*
X0398364Y0337242D01*
X0400880Y0339758D01*
X0401348Y0340568D01*
X0401348Y0218664D01*
X0399413Y0218664D01*
X0398495Y0218283D01*
X0397791Y0217580D01*
X0397411Y0216661D01*
X0397411Y0172359D01*
X0397791Y0171441D01*
X0398495Y0170737D01*
X0399413Y0170357D01*
X0401348Y0170357D01*
X0401348Y0127192D01*
X0400880Y0128003D01*
X0398364Y0130519D01*
X0395283Y0132297D01*
X0391847Y0133218D01*
X0388289Y0133218D01*
X0384853Y0132297D01*
X0381772Y0130519D01*
X0379257Y0128003D01*
X0377478Y0124922D01*
X0376557Y0121486D01*
X0376557Y0117928D01*
X0377478Y0114492D01*
X0379257Y0111411D01*
X0380862Y0109805D01*
X0329532Y0109805D01*
X0328613Y0109425D01*
X0327909Y0108722D01*
X0327529Y0107803D01*
X0327529Y0095042D01*
X0190358Y0095042D01*
X0189439Y0094661D01*
X0188736Y0093958D01*
X0188356Y0093039D01*
X0188356Y0029687D01*
X0015797Y0029687D01*
X0015797Y0170357D01*
X0017731Y0170357D01*
X0018650Y0170737D01*
X0019353Y0171441D01*
X0019734Y0172359D01*
X0019734Y0216661D01*
X0019353Y0217580D01*
X0018650Y0218283D01*
X0017731Y0218664D01*
X0015797Y0218664D01*
X0015797Y0359333D01*
X0063241Y0359333D01*
X0059099Y0355191D01*
X0058981Y0355255D01*
X0058958Y0355287D01*
X0058905Y0355296D01*
X0058858Y0355321D01*
X0058820Y0355310D01*
X0058177Y0355417D01*
X0057561Y0355629D01*
X0057533Y0355657D01*
X0057479Y0355657D01*
X0057428Y0355674D01*
X0057393Y0355657D01*
X0056741Y0355657D01*
X0056098Y0355764D01*
X0056066Y0355787D01*
X0056013Y0355778D01*
X0055960Y0355787D01*
X0055928Y0355764D01*
X0055285Y0355657D01*
X0054634Y0355657D01*
X0054598Y0355674D01*
X0054547Y0355657D01*
X0054494Y0355657D01*
X0054466Y0355629D01*
X0053849Y0355417D01*
X0053207Y0355310D01*
X0053169Y0355321D01*
X0053121Y0355296D01*
X0053069Y0355287D01*
X0053045Y0355255D01*
X0052472Y0354945D01*
X0051856Y0354733D01*
X0051817Y0354738D01*
X0051774Y0354705D01*
X0051724Y0354687D01*
X0051706Y0354652D01*
X0051192Y0354252D01*
X0050619Y0353941D01*
X0050579Y0353940D01*
X0050543Y0353900D01*
X0050496Y0353875D01*
X0050485Y0353837D01*
X0050043Y0353357D01*
X0049529Y0352957D01*
X0049490Y0352949D01*
X0049461Y0352904D01*
X0049419Y0352871D01*
X0049414Y0352832D01*
X0049057Y0352286D01*
X0048616Y0351807D01*
X0048579Y0351793D01*
X0048557Y0351743D01*
X0048521Y0351704D01*
X0048523Y0351664D01*
X0048261Y0351068D01*
X0048220Y0351005D01*
X0040237Y0351005D01*
X0039659Y0351584D01*
X0037804Y0352352D01*
X0035797Y0352352D01*
X0033942Y0351584D01*
X0032522Y0350164D01*
X0031754Y0348309D01*
X0031754Y0346302D01*
X0032522Y0344447D01*
X0033942Y0343027D01*
X0035797Y0342259D01*
X0037804Y0342259D01*
X0039659Y0343027D01*
X0040237Y0343606D01*
X0047779Y0343606D01*
X0047836Y0343379D01*
X0047828Y0343340D01*
X0047857Y0343295D01*
X0047871Y0343243D01*
X0047905Y0343223D01*
X0048261Y0342677D01*
X0048897Y0341633D02*
X0015797Y0341633D01*
X0015797Y0342631D02*
X0034898Y0342631D01*
X0033339Y0343630D02*
X0015797Y0343630D01*
X0015797Y0344628D02*
X0032447Y0344628D01*
X0032034Y0345627D02*
X0015797Y0345627D01*
X0015797Y0346625D02*
X0031754Y0346625D01*
X0031754Y0347624D02*
X0015797Y0347624D01*
X0015797Y0348622D02*
X0031884Y0348622D01*
X0032297Y0349621D02*
X0015797Y0349621D01*
X0015797Y0350620D02*
X0032978Y0350620D01*
X0034025Y0351618D02*
X0015797Y0351618D01*
X0015797Y0352617D02*
X0049273Y0352617D01*
X0048502Y0351618D02*
X0039576Y0351618D01*
X0050280Y0353615D02*
X0015797Y0353615D01*
X0015797Y0354614D02*
X0051657Y0354614D01*
X0054417Y0355612D02*
X0015797Y0355612D01*
X0015797Y0356611D02*
X0060519Y0356611D01*
X0061517Y0357609D02*
X0015797Y0357609D01*
X0015797Y0358608D02*
X0062516Y0358608D01*
X0059520Y0355612D02*
X0057609Y0355612D01*
X0064993Y0350620D02*
X0122821Y0350620D01*
X0121822Y0351618D02*
X0065991Y0351618D01*
X0066990Y0352617D02*
X0120824Y0352617D01*
X0119825Y0353615D02*
X0067988Y0353615D01*
X0064400Y0349621D02*
X0123819Y0349621D01*
X0124818Y0348622D02*
X0064683Y0348622D01*
X0064890Y0347624D02*
X0125816Y0347624D01*
X0126164Y0346625D02*
X0064848Y0346625D01*
X0064759Y0345627D02*
X0126443Y0345627D01*
X0126857Y0344628D02*
X0064637Y0344628D01*
X0064254Y0343630D02*
X0127749Y0343630D01*
X0129307Y0342631D02*
X0063745Y0342631D01*
X0063130Y0341633D02*
X0143769Y0341633D01*
X0142771Y0340634D02*
X0062300Y0340634D01*
X0061098Y0339636D02*
X0141772Y0339636D01*
X0140774Y0338637D02*
X0059253Y0338637D01*
X0052774Y0338637D02*
X0015797Y0338637D01*
X0015797Y0337639D02*
X0139775Y0337639D01*
X0139310Y0336640D02*
X0015797Y0336640D01*
X0015797Y0335642D02*
X0139124Y0335642D01*
X0139124Y0334643D02*
X0015797Y0334643D01*
X0015797Y0333645D02*
X0139124Y0333645D01*
X0139124Y0332646D02*
X0015797Y0332646D01*
X0015797Y0331648D02*
X0139124Y0331648D01*
X0139124Y0330649D02*
X0015797Y0330649D01*
X0015797Y0329651D02*
X0139124Y0329651D01*
X0139124Y0328652D02*
X0015797Y0328652D01*
X0015797Y0327654D02*
X0139124Y0327654D01*
X0139124Y0326655D02*
X0015797Y0326655D01*
X0015797Y0325657D02*
X0139124Y0325657D01*
X0139124Y0324658D02*
X0015797Y0324658D01*
X0015797Y0323660D02*
X0139124Y0323660D01*
X0139124Y0322661D02*
X0015797Y0322661D01*
X0015797Y0321663D02*
X0034133Y0321663D01*
X0033942Y0321584D02*
X0032522Y0320164D01*
X0032476Y0320052D01*
X0032428Y0320004D01*
X0031667Y0318166D01*
X0031667Y0312435D01*
X0025507Y0312435D01*
X0023073Y0311427D01*
X0021211Y0309564D01*
X0020203Y0307130D01*
X0020203Y0304496D01*
X0021211Y0302063D01*
X0023073Y0300200D01*
X0025507Y0299192D01*
X0037984Y0299192D01*
X0040417Y0300200D01*
X0042280Y0302063D01*
X0043288Y0304496D01*
X0043288Y0307130D01*
X0042280Y0309564D01*
X0041667Y0310177D01*
X0041667Y0315866D01*
X0041847Y0316302D01*
X0041847Y0318309D01*
X0041079Y0320164D01*
X0039659Y0321584D01*
X0037804Y0322352D01*
X0035797Y0322352D01*
X0033942Y0321584D01*
X0033022Y0320664D02*
X0015797Y0320664D01*
X0015797Y0319666D02*
X0032288Y0319666D01*
X0031874Y0318667D02*
X0015797Y0318667D01*
X0015797Y0317669D02*
X0031667Y0317669D01*
X0031667Y0316670D02*
X0015797Y0316670D01*
X0015797Y0315672D02*
X0031667Y0315672D01*
X0031667Y0314673D02*
X0015797Y0314673D01*
X0015797Y0313675D02*
X0031667Y0313675D01*
X0031667Y0312676D02*
X0015797Y0312676D01*
X0015797Y0311678D02*
X0023679Y0311678D01*
X0022326Y0310679D02*
X0015797Y0310679D01*
X0015797Y0309681D02*
X0021327Y0309681D01*
X0020846Y0308682D02*
X0015797Y0308682D01*
X0015797Y0307684D02*
X0020432Y0307684D01*
X0020203Y0306685D02*
X0015797Y0306685D01*
X0015797Y0305687D02*
X0020203Y0305687D01*
X0020203Y0304688D02*
X0015797Y0304688D01*
X0015797Y0303689D02*
X0020537Y0303689D01*
X0020951Y0302691D02*
X0015797Y0302691D01*
X0015797Y0301692D02*
X0021581Y0301692D01*
X0022580Y0300694D02*
X0015797Y0300694D01*
X0015797Y0299695D02*
X0024292Y0299695D01*
X0015797Y0298697D02*
X0139124Y0298697D01*
X0139124Y0299695D02*
X0133687Y0299695D01*
X0132472Y0299192D02*
X0134905Y0300200D01*
X0136768Y0302063D01*
X0137776Y0304496D01*
X0137776Y0307130D01*
X0136768Y0309564D01*
X0136155Y0310177D01*
X0136155Y0316056D01*
X0136256Y0316302D01*
X0136256Y0318309D01*
X0135488Y0320164D01*
X0134069Y0321584D01*
X0132214Y0322352D01*
X0130206Y0322352D01*
X0128351Y0321584D01*
X0126932Y0320164D01*
X0126164Y0318309D01*
X0126164Y0318266D01*
X0126155Y0318245D01*
X0126155Y0312435D01*
X0119995Y0312435D01*
X0117562Y0311427D01*
X0115699Y0309564D01*
X0114691Y0307130D01*
X0114691Y0304496D01*
X0115699Y0302063D01*
X0117562Y0300200D01*
X0119995Y0299192D01*
X0132472Y0299192D01*
X0135399Y0300694D02*
X0139124Y0300694D01*
X0139124Y0301692D02*
X0136398Y0301692D01*
X0137028Y0302691D02*
X0139124Y0302691D01*
X0139124Y0303689D02*
X0137442Y0303689D01*
X0137776Y0304688D02*
X0139124Y0304688D01*
X0139124Y0305687D02*
X0137776Y0305687D01*
X0137776Y0306685D02*
X0139124Y0306685D01*
X0139124Y0307684D02*
X0137547Y0307684D01*
X0137133Y0308682D02*
X0139124Y0308682D01*
X0139124Y0309681D02*
X0136652Y0309681D01*
X0136155Y0310679D02*
X0139124Y0310679D01*
X0139124Y0311678D02*
X0136155Y0311678D01*
X0136155Y0312676D02*
X0139124Y0312676D01*
X0139124Y0313675D02*
X0136155Y0313675D01*
X0136155Y0314673D02*
X0139124Y0314673D01*
X0139124Y0315672D02*
X0136155Y0315672D01*
X0136256Y0316670D02*
X0139124Y0316670D01*
X0139124Y0317669D02*
X0136256Y0317669D01*
X0136108Y0318667D02*
X0139124Y0318667D01*
X0139124Y0319666D02*
X0135695Y0319666D01*
X0134988Y0320664D02*
X0139124Y0320664D01*
X0139124Y0321663D02*
X0133878Y0321663D01*
X0128542Y0321663D02*
X0039468Y0321663D01*
X0040579Y0320664D02*
X0127432Y0320664D01*
X0126725Y0319666D02*
X0041285Y0319666D01*
X0041699Y0318667D02*
X0126312Y0318667D01*
X0126155Y0317669D02*
X0041847Y0317669D01*
X0041847Y0316670D02*
X0126155Y0316670D01*
X0126155Y0315672D02*
X0041667Y0315672D01*
X0041667Y0314673D02*
X0126155Y0314673D01*
X0126155Y0313675D02*
X0041667Y0313675D01*
X0041667Y0312676D02*
X0126155Y0312676D01*
X0118168Y0311678D02*
X0041667Y0311678D01*
X0041667Y0310679D02*
X0116814Y0310679D01*
X0115816Y0309681D02*
X0042163Y0309681D01*
X0042645Y0308682D02*
X0115334Y0308682D01*
X0114920Y0307684D02*
X0043059Y0307684D01*
X0043288Y0306685D02*
X0114691Y0306685D01*
X0114691Y0305687D02*
X0043288Y0305687D01*
X0043288Y0304688D02*
X0114691Y0304688D01*
X0115025Y0303689D02*
X0042954Y0303689D01*
X0042540Y0302691D02*
X0115439Y0302691D01*
X0116069Y0301692D02*
X0041910Y0301692D01*
X0040911Y0300694D02*
X0117068Y0300694D01*
X0118780Y0299695D02*
X0039199Y0299695D01*
X0015797Y0297698D02*
X0139124Y0297698D01*
X0139124Y0296700D02*
X0015797Y0296700D01*
X0015797Y0295701D02*
X0139124Y0295701D01*
X0139124Y0294703D02*
X0015797Y0294703D01*
X0015797Y0293704D02*
X0139124Y0293704D01*
X0139124Y0292706D02*
X0015797Y0292706D01*
X0015797Y0291707D02*
X0138332Y0291707D01*
X0137333Y0290709D02*
X0015797Y0290709D01*
X0015797Y0289710D02*
X0136335Y0289710D01*
X0135336Y0288712D02*
X0015797Y0288712D01*
X0015797Y0287713D02*
X0134338Y0287713D01*
X0133339Y0286715D02*
X0015797Y0286715D01*
X0015797Y0285716D02*
X0132341Y0285716D01*
X0131342Y0284718D02*
X0015797Y0284718D01*
X0015797Y0283719D02*
X0130344Y0283719D01*
X0129345Y0282721D02*
X0015797Y0282721D01*
X0015797Y0281722D02*
X0128347Y0281722D01*
X0127348Y0280724D02*
X0015797Y0280724D01*
X0015797Y0279725D02*
X0126350Y0279725D01*
X0125351Y0278727D02*
X0015797Y0278727D01*
X0015797Y0277728D02*
X0098480Y0277728D01*
X0096287Y0276730D02*
X0015797Y0276730D01*
X0015797Y0275731D02*
X0095289Y0275731D01*
X0094541Y0274733D02*
X0015797Y0274733D01*
X0015797Y0273734D02*
X0094127Y0273734D01*
X0093786Y0272736D02*
X0015797Y0272736D01*
X0015797Y0271737D02*
X0093786Y0271737D01*
X0093786Y0270739D02*
X0015797Y0270739D01*
X0015797Y0269740D02*
X0093786Y0269740D01*
X0093786Y0268742D02*
X0015797Y0268742D01*
X0015797Y0267743D02*
X0093786Y0267743D01*
X0093786Y0266745D02*
X0015797Y0266745D01*
X0015797Y0265746D02*
X0093786Y0265746D01*
X0093786Y0264748D02*
X0015797Y0264748D01*
X0015797Y0263749D02*
X0093786Y0263749D01*
X0093786Y0262751D02*
X0015797Y0262751D01*
X0015797Y0261752D02*
X0093786Y0261752D01*
X0094146Y0260753D02*
X0015797Y0260753D01*
X0015797Y0259755D02*
X0094411Y0259755D01*
X0094411Y0258756D02*
X0015797Y0258756D01*
X0015797Y0257758D02*
X0094411Y0257758D01*
X0094411Y0256759D02*
X0015797Y0256759D01*
X0015797Y0255761D02*
X0094411Y0255761D01*
X0094411Y0254762D02*
X0015797Y0254762D01*
X0015797Y0253764D02*
X0094411Y0253764D01*
X0094411Y0252765D02*
X0015797Y0252765D01*
X0015797Y0251767D02*
X0094411Y0251767D01*
X0094411Y0250768D02*
X0015797Y0250768D01*
X0015797Y0249770D02*
X0094411Y0249770D01*
X0094411Y0248771D02*
X0015797Y0248771D01*
X0015797Y0247773D02*
X0094465Y0247773D01*
X0094879Y0246774D02*
X0015797Y0246774D01*
X0015797Y0245776D02*
X0095355Y0245776D01*
X0096354Y0244777D02*
X0015797Y0244777D01*
X0015797Y0243779D02*
X0098140Y0243779D01*
X0101682Y0243779D02*
X0144833Y0243779D01*
X0144833Y0244777D02*
X0103468Y0244777D01*
X0104466Y0245776D02*
X0144833Y0245776D01*
X0144833Y0246774D02*
X0104943Y0246774D01*
X0105356Y0247773D02*
X0144833Y0247773D01*
X0144833Y0248771D02*
X0105411Y0248771D01*
X0105411Y0249770D02*
X0144833Y0249770D01*
X0144833Y0250768D02*
X0105411Y0250768D01*
X0105411Y0251767D02*
X0144833Y0251767D01*
X0144833Y0252765D02*
X0105411Y0252765D01*
X0105411Y0253764D02*
X0144833Y0253764D01*
X0144833Y0254762D02*
X0105411Y0254762D01*
X0105411Y0255761D02*
X0144833Y0255761D01*
X0144833Y0256759D02*
X0105411Y0256759D01*
X0105411Y0257758D02*
X0144833Y0257758D01*
X0144833Y0258756D02*
X0105411Y0258756D01*
X0105411Y0259755D02*
X0144833Y0259755D01*
X0144833Y0260753D02*
X0105676Y0260753D01*
X0106036Y0261752D02*
X0144833Y0261752D01*
X0144833Y0262751D02*
X0106036Y0262751D01*
X0106036Y0271737D02*
X0118362Y0271737D01*
X0119360Y0272736D02*
X0106036Y0272736D01*
X0105694Y0273734D02*
X0120359Y0273734D01*
X0121357Y0274733D02*
X0105281Y0274733D01*
X0104533Y0275731D02*
X0122356Y0275731D01*
X0123354Y0276730D02*
X0103534Y0276730D01*
X0101341Y0277728D02*
X0124353Y0277728D01*
X0129825Y0272736D02*
X0144833Y0272736D01*
X0144833Y0273734D02*
X0130824Y0273734D01*
X0131822Y0274733D02*
X0144833Y0274733D01*
X0144833Y0275731D02*
X0132821Y0275731D01*
X0133819Y0276730D02*
X0144833Y0276730D01*
X0144833Y0277728D02*
X0134818Y0277728D01*
X0135816Y0278727D02*
X0144833Y0278727D01*
X0144833Y0279725D02*
X0136815Y0279725D01*
X0137814Y0280724D02*
X0144833Y0280724D01*
X0144833Y0281722D02*
X0138812Y0281722D01*
X0139811Y0282721D02*
X0144833Y0282721D01*
X0144833Y0283719D02*
X0140809Y0283719D01*
X0141808Y0284718D02*
X0144833Y0284718D01*
X0144833Y0285716D02*
X0142806Y0285716D01*
X0143805Y0286715D02*
X0144833Y0286715D01*
X0144803Y0287713D02*
X0144833Y0287713D01*
X0155757Y0287713D02*
X0187010Y0287713D01*
X0186955Y0287846D02*
X0187746Y0285935D01*
X0189209Y0284472D01*
X0190638Y0283880D01*
X0189209Y0283289D01*
X0187746Y0281826D01*
X0186955Y0279915D01*
X0186955Y0277846D01*
X0187746Y0275935D01*
X0189209Y0274472D01*
X0191120Y0273680D01*
X0193189Y0273680D01*
X0195100Y0274472D01*
X0196563Y0275935D01*
X0197155Y0277363D01*
X0197746Y0275935D01*
X0199209Y0274472D01*
X0200638Y0273880D01*
X0199209Y0273289D01*
X0197746Y0271826D01*
X0196955Y0269915D01*
X0196955Y0267846D01*
X0197746Y0265935D01*
X0199209Y0264472D01*
X0200638Y0263880D01*
X0199209Y0263289D01*
X0197746Y0261826D01*
X0197155Y0260397D01*
X0196563Y0261826D01*
X0195100Y0263289D01*
X0193189Y0264080D01*
X0191120Y0264080D01*
X0189209Y0263289D01*
X0187746Y0261826D01*
X0186955Y0259915D01*
X0186955Y0257846D01*
X0187746Y0255935D01*
X0189209Y0254472D01*
X0190638Y0253880D01*
X0189209Y0253289D01*
X0187746Y0251826D01*
X0186955Y0249915D01*
X0186955Y0247846D01*
X0187746Y0245935D01*
X0189209Y0244472D01*
X0191120Y0243680D01*
X0193189Y0243680D01*
X0195100Y0244472D01*
X0196563Y0245935D01*
X0197155Y0247363D01*
X0197746Y0245935D01*
X0199209Y0244472D01*
X0200638Y0243880D01*
X0199209Y0243289D01*
X0197746Y0241826D01*
X0196955Y0239915D01*
X0196955Y0237846D01*
X0197746Y0235935D01*
X0199209Y0234472D01*
X0200638Y0233880D01*
X0199209Y0233289D01*
X0197746Y0231826D01*
X0197155Y0230397D01*
X0196563Y0231826D01*
X0195100Y0233289D01*
X0193189Y0234080D01*
X0191120Y0234080D01*
X0189209Y0233289D01*
X0187746Y0231826D01*
X0186955Y0229915D01*
X0186955Y0227846D01*
X0187746Y0225935D01*
X0189209Y0224472D01*
X0190638Y0223880D01*
X0189209Y0223289D01*
X0187746Y0221826D01*
X0187429Y0221059D01*
X0187072Y0221059D01*
X0185842Y0219829D01*
X0176039Y0210026D01*
X0176039Y0200380D01*
X0132742Y0157083D01*
X0125853Y0157083D01*
X0123853Y0159083D01*
X0120457Y0159083D01*
X0118055Y0156681D01*
X0118055Y0153853D01*
X0116118Y0151916D01*
X0096184Y0151916D01*
X0096184Y0152914D02*
X0101771Y0152914D01*
X0102149Y0152536D02*
X0105546Y0152536D01*
X0107948Y0154938D01*
X0107948Y0158334D01*
X0105546Y0160736D01*
X0102149Y0160736D01*
X0100149Y0158736D01*
X0098184Y0158736D01*
X0098184Y0160775D01*
X0095782Y0163177D01*
X0092386Y0163177D01*
X0089984Y0160775D01*
X0089984Y0157379D01*
X0091984Y0155379D01*
X0091984Y0114238D01*
X0091806Y0114060D01*
X0091806Y0114929D01*
X0090206Y0116529D01*
X0090206Y0137370D01*
X0089825Y0138289D01*
X0089122Y0138992D01*
X0089052Y0139062D01*
X0089052Y0142385D01*
X0086211Y0145226D01*
X0082193Y0145226D01*
X0079843Y0142876D01*
X0063938Y0142876D01*
X0039419Y0167396D01*
X0039419Y0169216D01*
X0040388Y0169617D01*
X0042111Y0171340D01*
X0042894Y0173231D01*
X0044371Y0173231D01*
X0046721Y0170881D01*
X0050739Y0170881D01*
X0053580Y0173722D01*
X0053580Y0177045D01*
X0053584Y0177050D01*
X0059339Y0177050D01*
X0060533Y0175856D01*
X0062135Y0175192D01*
X0069183Y0175192D01*
X0070785Y0175856D01*
X0072010Y0177081D01*
X0072674Y0178683D01*
X0072674Y0180416D01*
X0072010Y0182018D01*
X0070785Y0183244D01*
X0069183Y0183907D01*
X0062135Y0183907D01*
X0060533Y0183244D01*
X0059339Y0182050D01*
X0052051Y0182050D01*
X0051132Y0181669D01*
X0050429Y0180966D01*
X0050044Y0180581D01*
X0046721Y0180581D01*
X0044371Y0178231D01*
X0043044Y0178231D01*
X0043044Y0184878D01*
X0042419Y0186387D01*
X0042419Y0193835D01*
X0043700Y0194366D01*
X0044740Y0195406D01*
X0063766Y0214432D01*
X0107411Y0214432D01*
X0107411Y0208712D01*
X0105061Y0206362D01*
X0105061Y0203038D01*
X0098495Y0196472D01*
X0097791Y0195769D01*
X0097411Y0194850D01*
X0097411Y0191529D01*
X0095811Y0189929D01*
X0095811Y0186532D01*
X0098212Y0184131D01*
X0101609Y0184131D01*
X0104011Y0186532D01*
X0104011Y0189929D01*
X0102411Y0191529D01*
X0102411Y0193317D01*
X0108596Y0199503D01*
X0111920Y0199503D01*
X0114761Y0202344D01*
X0114761Y0206362D01*
X0112411Y0208712D01*
X0112411Y0214432D01*
X0133521Y0214432D01*
X0134026Y0214642D01*
X0115350Y0195966D01*
X0114970Y0195047D01*
X0114970Y0185090D01*
X0113111Y0183231D01*
X0108209Y0183231D01*
X0106609Y0184831D01*
X0103212Y0184831D01*
X0100811Y0182429D01*
X0100811Y0179032D01*
X0101748Y0178095D01*
X0101748Y0170334D01*
X0100090Y0168677D01*
X0092782Y0168677D01*
X0090782Y0170677D01*
X0087386Y0170677D01*
X0086184Y0169475D01*
X0086184Y0188412D01*
X0074215Y0200380D01*
X0072985Y0201610D01*
X0072179Y0201610D01*
X0072010Y0202018D01*
X0070785Y0203244D01*
X0069183Y0203907D01*
X0062135Y0203907D01*
X0060533Y0203244D01*
X0059307Y0202018D01*
X0058644Y0200416D01*
X0058644Y0198683D01*
X0059307Y0197081D01*
X0060533Y0195856D01*
X0062135Y0195192D01*
X0069183Y0195192D01*
X0070785Y0195856D01*
X0071792Y0196863D01*
X0081984Y0186672D01*
X0081984Y0162775D01*
X0079984Y0160775D01*
X0079984Y0157379D01*
X0082386Y0154977D01*
X0085782Y0154977D01*
X0088184Y0157379D01*
X0088184Y0160775D01*
X0086184Y0162775D01*
X0086184Y0163679D01*
X0087386Y0162477D01*
X0090782Y0162477D01*
X0092782Y0164477D01*
X0100209Y0164477D01*
X0102149Y0162536D01*
X0105546Y0162536D01*
X0107948Y0164938D01*
X0107948Y0168334D01*
X0105948Y0170334D01*
X0105948Y0176631D01*
X0106609Y0176631D01*
X0108209Y0178231D01*
X0113111Y0178231D01*
X0115461Y0175881D01*
X0119479Y0175881D01*
X0122320Y0178722D01*
X0122320Y0182740D01*
X0119970Y0185090D01*
X0119970Y0193514D01*
X0155377Y0228921D01*
X0155757Y0229840D01*
X0155757Y0321016D01*
X0157282Y0321016D01*
X0158899Y0321686D01*
X0160137Y0322923D01*
X0160344Y0323423D01*
X0160551Y0322923D01*
X0161788Y0321686D01*
X0163406Y0321016D01*
X0165156Y0321016D01*
X0166773Y0321686D01*
X0167755Y0322667D01*
X0167755Y0322012D01*
X0168751Y0321016D01*
X0175559Y0321016D01*
X0176555Y0322012D01*
X0176555Y0328820D01*
X0175559Y0329816D01*
X0170318Y0329816D01*
X0170318Y0336554D01*
X0171056Y0337292D01*
X0174828Y0337292D01*
X0183047Y0329073D01*
X0183047Y0316318D01*
X0187584Y0311780D01*
X0196285Y0311780D01*
X0197305Y0310760D01*
X0196955Y0309915D01*
X0196955Y0307846D01*
X0197746Y0305935D01*
X0199209Y0304472D01*
X0200638Y0303880D01*
X0199209Y0303289D01*
X0197746Y0301826D01*
X0197155Y0300397D01*
X0196563Y0301826D01*
X0195100Y0303289D01*
X0193189Y0304080D01*
X0191120Y0304080D01*
X0189209Y0303289D01*
X0187746Y0301826D01*
X0186955Y0299915D01*
X0186955Y0297846D01*
X0187746Y0295935D01*
X0189209Y0294472D01*
X0190638Y0293880D01*
X0189209Y0293289D01*
X0187746Y0291826D01*
X0186955Y0289915D01*
X0186955Y0287846D01*
X0186955Y0288712D02*
X0155757Y0288712D01*
X0155757Y0289710D02*
X0186955Y0289710D01*
X0187284Y0290709D02*
X0155757Y0290709D01*
X0155757Y0291707D02*
X0187697Y0291707D01*
X0188626Y0292706D02*
X0155757Y0292706D01*
X0155757Y0293704D02*
X0190213Y0293704D01*
X0188978Y0294703D02*
X0155757Y0294703D01*
X0155757Y0295701D02*
X0187980Y0295701D01*
X0187430Y0296700D02*
X0155757Y0296700D01*
X0155757Y0297698D02*
X0187016Y0297698D01*
X0186955Y0298697D02*
X0155757Y0298697D01*
X0155757Y0299695D02*
X0186955Y0299695D01*
X0187278Y0300694D02*
X0155757Y0300694D01*
X0155757Y0301692D02*
X0187691Y0301692D01*
X0188612Y0302691D02*
X0155757Y0302691D01*
X0155757Y0303689D02*
X0190177Y0303689D01*
X0194133Y0303689D02*
X0200177Y0303689D01*
X0198993Y0304688D02*
X0155757Y0304688D01*
X0155757Y0305687D02*
X0197995Y0305687D01*
X0197436Y0306685D02*
X0155757Y0306685D01*
X0155757Y0307684D02*
X0197022Y0307684D01*
X0196955Y0308682D02*
X0155757Y0308682D01*
X0155757Y0309681D02*
X0196955Y0309681D01*
X0197271Y0310679D02*
X0155757Y0310679D01*
X0155757Y0311678D02*
X0196388Y0311678D01*
X0204169Y0313675D02*
X0401348Y0313675D01*
X0401348Y0314673D02*
X0205302Y0314673D01*
X0206300Y0315672D02*
X0401348Y0315672D01*
X0401348Y0316670D02*
X0206868Y0316670D01*
X0207281Y0317669D02*
X0401348Y0317669D01*
X0401348Y0318667D02*
X0207355Y0318667D01*
X0207355Y0319666D02*
X0401348Y0319666D01*
X0401348Y0320664D02*
X0207044Y0320664D01*
X0206631Y0321663D02*
X0401348Y0321663D01*
X0401348Y0322661D02*
X0205728Y0322661D01*
X0204205Y0323660D02*
X0401348Y0323660D01*
X0401348Y0324658D02*
X0207337Y0324658D01*
X0207355Y0325657D02*
X0401348Y0325657D01*
X0401348Y0326655D02*
X0207355Y0326655D01*
X0207355Y0327654D02*
X0401348Y0327654D01*
X0401348Y0328652D02*
X0207355Y0328652D01*
X0207355Y0329651D02*
X0401348Y0329651D01*
X0401348Y0330649D02*
X0207355Y0330649D01*
X0207355Y0331648D02*
X0401348Y0331648D01*
X0401348Y0332646D02*
X0207355Y0332646D01*
X0206794Y0333645D02*
X0401348Y0333645D01*
X0401348Y0334643D02*
X0392223Y0334643D01*
X0395593Y0335642D02*
X0401348Y0335642D01*
X0401348Y0336640D02*
X0397322Y0336640D01*
X0398761Y0337639D02*
X0401348Y0337639D01*
X0401348Y0338637D02*
X0399760Y0338637D01*
X0400758Y0339636D02*
X0401348Y0339636D01*
X0387913Y0334643D02*
X0199310Y0334643D01*
X0197515Y0333645D02*
X0194946Y0333645D01*
X0195000Y0334643D02*
X0193947Y0334643D01*
X0195743Y0332646D02*
X0196955Y0332646D01*
X0196955Y0331648D02*
X0196637Y0331648D01*
X0202679Y0335642D02*
X0384544Y0335642D01*
X0382814Y0336640D02*
X0204409Y0336640D01*
X0205848Y0337639D02*
X0381375Y0337639D01*
X0380377Y0338637D02*
X0206846Y0338637D01*
X0207845Y0339636D02*
X0379378Y0339636D01*
X0378750Y0340634D02*
X0208473Y0340634D01*
X0209049Y0341633D02*
X0378174Y0341633D01*
X0377598Y0342631D02*
X0209626Y0342631D01*
X0209957Y0343630D02*
X0377266Y0343630D01*
X0376998Y0344628D02*
X0210225Y0344628D01*
X0210492Y0345627D02*
X0376731Y0345627D01*
X0376557Y0346625D02*
X0210666Y0346625D01*
X0210666Y0347624D02*
X0376557Y0347624D01*
X0376557Y0348622D02*
X0210666Y0348622D01*
X0210666Y0349621D02*
X0376557Y0349621D01*
X0376768Y0350620D02*
X0210455Y0350620D01*
X0210187Y0351618D02*
X0377036Y0351618D01*
X0377303Y0352617D02*
X0209920Y0352617D01*
X0209545Y0353615D02*
X0377678Y0353615D01*
X0378254Y0354614D02*
X0208969Y0354614D01*
X0208392Y0355612D02*
X0378831Y0355612D01*
X0379518Y0356611D02*
X0207705Y0356611D01*
X0206707Y0357609D02*
X0380516Y0357609D01*
X0381515Y0358608D02*
X0205708Y0358608D01*
X0188601Y0358608D02*
X0125298Y0358608D01*
X0126296Y0357609D02*
X0187603Y0357609D01*
X0186604Y0356611D02*
X0127295Y0356611D01*
X0128293Y0355612D02*
X0185918Y0355612D01*
X0185341Y0354614D02*
X0129292Y0354614D01*
X0130290Y0353615D02*
X0184765Y0353615D01*
X0184390Y0352617D02*
X0131289Y0352617D01*
X0133986Y0351618D02*
X0184122Y0351618D01*
X0183855Y0350620D02*
X0135033Y0350620D01*
X0135713Y0349621D02*
X0183644Y0349621D01*
X0183644Y0348622D02*
X0136127Y0348622D01*
X0136256Y0347624D02*
X0149760Y0347624D01*
X0148762Y0346625D02*
X0136256Y0346625D01*
X0135977Y0345627D02*
X0147763Y0345627D01*
X0146765Y0344628D02*
X0135563Y0344628D01*
X0134671Y0343630D02*
X0145766Y0343630D01*
X0144768Y0342631D02*
X0133113Y0342631D01*
X0155757Y0320664D02*
X0183047Y0320664D01*
X0183047Y0319666D02*
X0155757Y0319666D01*
X0155757Y0318667D02*
X0183047Y0318667D01*
X0183047Y0317669D02*
X0155757Y0317669D01*
X0155757Y0316670D02*
X0183047Y0316670D01*
X0183693Y0315672D02*
X0155757Y0315672D01*
X0155757Y0314673D02*
X0184691Y0314673D01*
X0185690Y0313675D02*
X0155757Y0313675D01*
X0155757Y0312676D02*
X0186688Y0312676D01*
X0183047Y0321663D02*
X0176206Y0321663D01*
X0176555Y0322661D02*
X0183047Y0322661D01*
X0183047Y0323660D02*
X0176555Y0323660D01*
X0176555Y0324658D02*
X0183047Y0324658D01*
X0183047Y0325657D02*
X0176555Y0325657D01*
X0176555Y0326655D02*
X0183047Y0326655D01*
X0183047Y0327654D02*
X0176555Y0327654D01*
X0176555Y0328652D02*
X0183047Y0328652D01*
X0182470Y0329651D02*
X0175724Y0329651D01*
X0179474Y0332646D02*
X0170318Y0332646D01*
X0170318Y0331648D02*
X0180473Y0331648D01*
X0181471Y0330649D02*
X0170318Y0330649D01*
X0170318Y0333645D02*
X0178476Y0333645D01*
X0177477Y0334643D02*
X0170318Y0334643D01*
X0170318Y0335642D02*
X0176479Y0335642D01*
X0175480Y0336640D02*
X0170404Y0336640D01*
X0180967Y0347624D02*
X0183644Y0347624D01*
X0183644Y0346625D02*
X0181965Y0346625D01*
X0182964Y0345627D02*
X0183817Y0345627D01*
X0183962Y0344628D02*
X0184085Y0344628D01*
X0167755Y0322661D02*
X0167749Y0322661D01*
X0168104Y0321663D02*
X0166718Y0321663D01*
X0161844Y0321663D02*
X0158844Y0321663D01*
X0159875Y0322661D02*
X0160813Y0322661D01*
X0155757Y0286715D02*
X0187423Y0286715D01*
X0187965Y0285716D02*
X0155757Y0285716D01*
X0155757Y0284718D02*
X0188963Y0284718D01*
X0190249Y0283719D02*
X0155757Y0283719D01*
X0155757Y0282721D02*
X0188641Y0282721D01*
X0187704Y0281722D02*
X0155757Y0281722D01*
X0155757Y0280724D02*
X0187290Y0280724D01*
X0186955Y0279725D02*
X0155757Y0279725D01*
X0155757Y0278727D02*
X0186955Y0278727D01*
X0187004Y0277728D02*
X0155757Y0277728D01*
X0155757Y0276730D02*
X0187417Y0276730D01*
X0187950Y0275731D02*
X0155757Y0275731D01*
X0155757Y0274733D02*
X0188949Y0274733D01*
X0190991Y0273734D02*
X0155757Y0273734D01*
X0155757Y0272736D02*
X0198656Y0272736D01*
X0197710Y0271737D02*
X0155757Y0271737D01*
X0155757Y0270739D02*
X0197296Y0270739D01*
X0196955Y0269740D02*
X0155757Y0269740D01*
X0155757Y0268742D02*
X0196955Y0268742D01*
X0196997Y0267743D02*
X0155757Y0267743D01*
X0155757Y0266745D02*
X0197411Y0266745D01*
X0197935Y0265746D02*
X0155757Y0265746D01*
X0155757Y0264748D02*
X0198934Y0264748D01*
X0200321Y0263749D02*
X0193989Y0263749D01*
X0195639Y0262751D02*
X0198671Y0262751D01*
X0197716Y0261752D02*
X0196594Y0261752D01*
X0197007Y0260753D02*
X0197302Y0260753D01*
X0190321Y0263749D02*
X0155757Y0263749D01*
X0155757Y0262751D02*
X0188671Y0262751D01*
X0187716Y0261752D02*
X0155757Y0261752D01*
X0155757Y0260753D02*
X0187302Y0260753D01*
X0186955Y0259755D02*
X0155757Y0259755D01*
X0155757Y0258756D02*
X0186955Y0258756D01*
X0186991Y0257758D02*
X0155757Y0257758D01*
X0155757Y0256759D02*
X0187405Y0256759D01*
X0187920Y0255761D02*
X0155757Y0255761D01*
X0155757Y0254762D02*
X0188919Y0254762D01*
X0190357Y0253764D02*
X0155757Y0253764D01*
X0155757Y0252765D02*
X0188686Y0252765D01*
X0187722Y0251767D02*
X0155757Y0251767D01*
X0155757Y0250768D02*
X0187308Y0250768D01*
X0186955Y0249770D02*
X0155757Y0249770D01*
X0155757Y0248771D02*
X0186955Y0248771D01*
X0186985Y0247773D02*
X0155757Y0247773D01*
X0155757Y0246774D02*
X0187399Y0246774D01*
X0187905Y0245776D02*
X0155757Y0245776D01*
X0155757Y0244777D02*
X0188904Y0244777D01*
X0190883Y0243779D02*
X0155757Y0243779D01*
X0155757Y0242780D02*
X0198701Y0242780D01*
X0197728Y0241782D02*
X0155757Y0241782D01*
X0155757Y0240783D02*
X0197315Y0240783D01*
X0196955Y0239785D02*
X0155757Y0239785D01*
X0155757Y0238786D02*
X0196955Y0238786D01*
X0196979Y0237788D02*
X0155757Y0237788D01*
X0155757Y0236789D02*
X0197393Y0236789D01*
X0197891Y0235791D02*
X0155757Y0235791D01*
X0155757Y0234792D02*
X0198889Y0234792D01*
X0200429Y0233794D02*
X0193881Y0233794D01*
X0195594Y0232795D02*
X0198716Y0232795D01*
X0197734Y0231797D02*
X0196575Y0231797D01*
X0196989Y0230798D02*
X0197321Y0230798D01*
X0190429Y0233794D02*
X0155757Y0233794D01*
X0155757Y0232795D02*
X0188716Y0232795D01*
X0187734Y0231797D02*
X0155757Y0231797D01*
X0155757Y0230798D02*
X0187321Y0230798D01*
X0186955Y0229800D02*
X0155741Y0229800D01*
X0155257Y0228801D02*
X0186955Y0228801D01*
X0186973Y0227803D02*
X0154258Y0227803D01*
X0153260Y0226804D02*
X0187386Y0226804D01*
X0187876Y0225806D02*
X0152261Y0225806D01*
X0151263Y0224807D02*
X0188874Y0224807D01*
X0190464Y0223809D02*
X0150264Y0223809D01*
X0149266Y0222810D02*
X0188731Y0222810D01*
X0187741Y0221812D02*
X0148267Y0221812D01*
X0147269Y0220813D02*
X0186826Y0220813D01*
X0185828Y0219815D02*
X0146270Y0219815D01*
X0145272Y0218816D02*
X0184829Y0218816D01*
X0183831Y0217818D02*
X0144273Y0217818D01*
X0143275Y0216819D02*
X0182832Y0216819D01*
X0181834Y0215820D02*
X0142276Y0215820D01*
X0141278Y0214822D02*
X0180835Y0214822D01*
X0179837Y0213823D02*
X0140279Y0213823D01*
X0139281Y0212825D02*
X0178838Y0212825D01*
X0177840Y0211826D02*
X0138282Y0211826D01*
X0137284Y0210828D02*
X0176841Y0210828D01*
X0176039Y0209829D02*
X0136285Y0209829D01*
X0135287Y0208831D02*
X0176039Y0208831D01*
X0176039Y0207832D02*
X0134288Y0207832D01*
X0133290Y0206834D02*
X0176039Y0206834D01*
X0176039Y0205835D02*
X0132291Y0205835D01*
X0131293Y0204837D02*
X0176039Y0204837D01*
X0176039Y0203838D02*
X0130294Y0203838D01*
X0129296Y0202840D02*
X0176039Y0202840D01*
X0176039Y0201841D02*
X0128297Y0201841D01*
X0127299Y0200843D02*
X0176039Y0200843D01*
X0175503Y0199844D02*
X0126300Y0199844D01*
X0125302Y0198846D02*
X0174505Y0198846D01*
X0173506Y0197847D02*
X0124303Y0197847D01*
X0123305Y0196849D02*
X0172508Y0196849D01*
X0171509Y0195850D02*
X0122306Y0195850D01*
X0121307Y0194852D02*
X0170511Y0194852D01*
X0169512Y0193853D02*
X0120309Y0193853D01*
X0119970Y0192855D02*
X0168514Y0192855D01*
X0167515Y0191856D02*
X0119970Y0191856D01*
X0119970Y0190858D02*
X0166517Y0190858D01*
X0165518Y0189859D02*
X0119970Y0189859D01*
X0119970Y0188861D02*
X0164520Y0188861D01*
X0163521Y0187862D02*
X0119970Y0187862D01*
X0119970Y0186864D02*
X0162523Y0186864D01*
X0161524Y0185865D02*
X0119970Y0185865D01*
X0120193Y0184867D02*
X0160526Y0184867D01*
X0159527Y0183868D02*
X0121191Y0183868D01*
X0122190Y0182870D02*
X0158529Y0182870D01*
X0157530Y0181871D02*
X0122320Y0181871D01*
X0122320Y0180873D02*
X0156532Y0180873D01*
X0155533Y0179874D02*
X0122320Y0179874D01*
X0122320Y0178876D02*
X0154535Y0178876D01*
X0153536Y0177877D02*
X0121475Y0177877D01*
X0120477Y0176879D02*
X0152538Y0176879D01*
X0151539Y0175880D02*
X0105948Y0175880D01*
X0105948Y0174882D02*
X0150541Y0174882D01*
X0149542Y0173883D02*
X0105948Y0173883D01*
X0105948Y0172884D02*
X0148544Y0172884D01*
X0147545Y0171886D02*
X0105948Y0171886D01*
X0105948Y0170887D02*
X0146547Y0170887D01*
X0145548Y0169889D02*
X0106393Y0169889D01*
X0107392Y0168890D02*
X0144549Y0168890D01*
X0143551Y0167892D02*
X0107948Y0167892D01*
X0107948Y0166893D02*
X0142552Y0166893D01*
X0141554Y0165895D02*
X0107948Y0165895D01*
X0107906Y0164896D02*
X0140555Y0164896D01*
X0139557Y0163898D02*
X0106908Y0163898D01*
X0105909Y0162899D02*
X0138558Y0162899D01*
X0137560Y0161901D02*
X0097059Y0161901D01*
X0098057Y0160902D02*
X0136561Y0160902D01*
X0135563Y0159904D02*
X0106378Y0159904D01*
X0107377Y0158905D02*
X0120279Y0158905D01*
X0119281Y0157907D02*
X0107948Y0157907D01*
X0107948Y0156908D02*
X0118282Y0156908D01*
X0118055Y0155910D02*
X0107948Y0155910D01*
X0107921Y0154911D02*
X0118055Y0154911D01*
X0118055Y0153913D02*
X0106923Y0153913D01*
X0105924Y0152914D02*
X0117117Y0152914D01*
X0116118Y0151916D02*
X0116118Y0141270D01*
X0115750Y0141118D01*
X0114524Y0139892D01*
X0113860Y0138290D01*
X0113860Y0136557D01*
X0114524Y0134955D01*
X0115750Y0133730D01*
X0117351Y0133066D01*
X0119085Y0133066D01*
X0120055Y0133468D01*
X0120055Y0132695D01*
X0124335Y0128415D01*
X0106540Y0110620D01*
X0103217Y0110620D01*
X0100827Y0108231D01*
X0096004Y0108231D01*
X0094404Y0109831D01*
X0093516Y0109831D01*
X0096184Y0112499D01*
X0096184Y0154536D01*
X0100149Y0154536D01*
X0102149Y0152536D01*
X0100773Y0153913D02*
X0096184Y0153913D01*
X0096184Y0150917D02*
X0116118Y0150917D01*
X0116118Y0149919D02*
X0096184Y0149919D01*
X0096184Y0148920D02*
X0116118Y0148920D01*
X0116118Y0147922D02*
X0096184Y0147922D01*
X0096184Y0146923D02*
X0116118Y0146923D01*
X0116118Y0145925D02*
X0096184Y0145925D01*
X0096184Y0144926D02*
X0116118Y0144926D01*
X0116118Y0143928D02*
X0096184Y0143928D01*
X0096184Y0142929D02*
X0116118Y0142929D01*
X0116118Y0141931D02*
X0096184Y0141931D01*
X0096184Y0140932D02*
X0115564Y0140932D01*
X0114565Y0139934D02*
X0096184Y0139934D01*
X0096184Y0138935D02*
X0114127Y0138935D01*
X0113860Y0137937D02*
X0096184Y0137937D01*
X0096184Y0136938D02*
X0113860Y0136938D01*
X0114116Y0135940D02*
X0096184Y0135940D01*
X0096184Y0134941D02*
X0114538Y0134941D01*
X0115536Y0133943D02*
X0096184Y0133943D01*
X0096184Y0132944D02*
X0120055Y0132944D01*
X0120805Y0131946D02*
X0096184Y0131946D01*
X0096184Y0130947D02*
X0121803Y0130947D01*
X0122802Y0129949D02*
X0096184Y0129949D01*
X0096184Y0128950D02*
X0123800Y0128950D01*
X0123872Y0127951D02*
X0096184Y0127951D01*
X0096184Y0126953D02*
X0122873Y0126953D01*
X0121875Y0125954D02*
X0096184Y0125954D01*
X0096184Y0124956D02*
X0120876Y0124956D01*
X0119878Y0123957D02*
X0096184Y0123957D01*
X0096184Y0122959D02*
X0118879Y0122959D01*
X0117881Y0121960D02*
X0096184Y0121960D01*
X0096184Y0120962D02*
X0116882Y0120962D01*
X0115884Y0119963D02*
X0096184Y0119963D01*
X0096184Y0118965D02*
X0114885Y0118965D01*
X0113886Y0117966D02*
X0096184Y0117966D01*
X0096184Y0116968D02*
X0112888Y0116968D01*
X0111889Y0115969D02*
X0096184Y0115969D01*
X0096184Y0114971D02*
X0110891Y0114971D01*
X0109892Y0113972D02*
X0096184Y0113972D01*
X0096184Y0112974D02*
X0108894Y0112974D01*
X0107895Y0111975D02*
X0095661Y0111975D01*
X0094662Y0110977D02*
X0106897Y0110977D01*
X0102575Y0109978D02*
X0093664Y0109978D01*
X0095255Y0108980D02*
X0101576Y0108980D01*
X0091984Y0114971D02*
X0091764Y0114971D01*
X0091984Y0115969D02*
X0090766Y0115969D01*
X0090206Y0116968D02*
X0091984Y0116968D01*
X0091984Y0117966D02*
X0090206Y0117966D01*
X0090206Y0118965D02*
X0091984Y0118965D01*
X0091984Y0119963D02*
X0090206Y0119963D01*
X0090206Y0120962D02*
X0091984Y0120962D01*
X0091984Y0121960D02*
X0090206Y0121960D01*
X0090206Y0122959D02*
X0091984Y0122959D01*
X0091984Y0123957D02*
X0090206Y0123957D01*
X0090206Y0124956D02*
X0091984Y0124956D01*
X0091984Y0125954D02*
X0090206Y0125954D01*
X0090206Y0126953D02*
X0091984Y0126953D01*
X0091984Y0127951D02*
X0090206Y0127951D01*
X0090206Y0128950D02*
X0091984Y0128950D01*
X0091984Y0129949D02*
X0090206Y0129949D01*
X0090206Y0130947D02*
X0091984Y0130947D01*
X0091984Y0131946D02*
X0090206Y0131946D01*
X0090206Y0132944D02*
X0091984Y0132944D01*
X0091984Y0133943D02*
X0090206Y0133943D01*
X0090206Y0134941D02*
X0091984Y0134941D01*
X0091984Y0135940D02*
X0090206Y0135940D01*
X0090206Y0136938D02*
X0091984Y0136938D01*
X0091984Y0137937D02*
X0089971Y0137937D01*
X0089179Y0138935D02*
X0091984Y0138935D01*
X0091984Y0139934D02*
X0089052Y0139934D01*
X0089052Y0140932D02*
X0091984Y0140932D01*
X0091984Y0141931D02*
X0089052Y0141931D01*
X0088508Y0142929D02*
X0091984Y0142929D01*
X0091984Y0143928D02*
X0087510Y0143928D01*
X0086511Y0144926D02*
X0091984Y0144926D01*
X0091984Y0145925D02*
X0060890Y0145925D01*
X0059892Y0146923D02*
X0091984Y0146923D01*
X0091984Y0147922D02*
X0058893Y0147922D01*
X0057895Y0148920D02*
X0091984Y0148920D01*
X0091984Y0149919D02*
X0056896Y0149919D01*
X0055898Y0150917D02*
X0091984Y0150917D01*
X0091984Y0151916D02*
X0054899Y0151916D01*
X0053901Y0152914D02*
X0091984Y0152914D01*
X0091984Y0153913D02*
X0052902Y0153913D01*
X0051903Y0154911D02*
X0091984Y0154911D01*
X0091453Y0155910D02*
X0086715Y0155910D01*
X0087713Y0156908D02*
X0090455Y0156908D01*
X0089984Y0157907D02*
X0088184Y0157907D01*
X0088184Y0158905D02*
X0089984Y0158905D01*
X0089984Y0159904D02*
X0088184Y0159904D01*
X0088057Y0160902D02*
X0090111Y0160902D01*
X0091109Y0161901D02*
X0087059Y0161901D01*
X0086963Y0162899D02*
X0086184Y0162899D01*
X0081984Y0162899D02*
X0043915Y0162899D01*
X0042917Y0163898D02*
X0081984Y0163898D01*
X0081984Y0164896D02*
X0041918Y0164896D01*
X0040920Y0165895D02*
X0081984Y0165895D01*
X0081984Y0166893D02*
X0039921Y0166893D01*
X0039419Y0167892D02*
X0081984Y0167892D01*
X0081984Y0168890D02*
X0039419Y0168890D01*
X0040660Y0169889D02*
X0081984Y0169889D01*
X0081984Y0170887D02*
X0050745Y0170887D01*
X0051744Y0171886D02*
X0081984Y0171886D01*
X0081984Y0172884D02*
X0052742Y0172884D01*
X0053580Y0173883D02*
X0081984Y0173883D01*
X0081984Y0174882D02*
X0053580Y0174882D01*
X0053580Y0175880D02*
X0060508Y0175880D01*
X0059510Y0176879D02*
X0053580Y0176879D01*
X0050336Y0180873D02*
X0043044Y0180873D01*
X0043044Y0181871D02*
X0051620Y0181871D01*
X0046014Y0179874D02*
X0043044Y0179874D01*
X0043044Y0178876D02*
X0045016Y0178876D01*
X0043044Y0182870D02*
X0060159Y0182870D01*
X0062041Y0183868D02*
X0043044Y0183868D01*
X0043044Y0184867D02*
X0081984Y0184867D01*
X0081984Y0185865D02*
X0070794Y0185865D01*
X0070785Y0185856D02*
X0072010Y0187081D01*
X0072674Y0188683D01*
X0072674Y0190416D01*
X0072010Y0192018D01*
X0070785Y0193244D01*
X0069183Y0193907D01*
X0062135Y0193907D01*
X0060533Y0193244D01*
X0059307Y0192018D01*
X0058644Y0190416D01*
X0058644Y0188683D01*
X0059307Y0187081D01*
X0060533Y0185856D01*
X0062135Y0185192D01*
X0069183Y0185192D01*
X0070785Y0185856D01*
X0071793Y0186864D02*
X0081792Y0186864D01*
X0080794Y0187862D02*
X0072334Y0187862D01*
X0072674Y0188861D02*
X0079795Y0188861D01*
X0078797Y0189859D02*
X0072674Y0189859D01*
X0072491Y0190858D02*
X0077798Y0190858D01*
X0076800Y0191856D02*
X0072077Y0191856D01*
X0071174Y0192855D02*
X0075801Y0192855D01*
X0074803Y0193853D02*
X0069313Y0193853D01*
X0070772Y0195850D02*
X0072806Y0195850D01*
X0073804Y0194852D02*
X0044186Y0194852D01*
X0045184Y0195850D02*
X0060546Y0195850D01*
X0059540Y0196849D02*
X0046183Y0196849D01*
X0047181Y0197847D02*
X0058990Y0197847D01*
X0058644Y0198846D02*
X0048180Y0198846D01*
X0049178Y0199844D02*
X0058644Y0199844D01*
X0058820Y0200843D02*
X0050177Y0200843D01*
X0051175Y0201841D02*
X0059234Y0201841D01*
X0060129Y0202840D02*
X0052174Y0202840D01*
X0053172Y0203838D02*
X0061969Y0203838D01*
X0058165Y0208831D02*
X0107411Y0208831D01*
X0107411Y0209829D02*
X0059163Y0209829D01*
X0060162Y0210828D02*
X0107411Y0210828D01*
X0107411Y0211826D02*
X0061160Y0211826D01*
X0062159Y0212825D02*
X0107411Y0212825D01*
X0107411Y0213823D02*
X0063157Y0213823D01*
X0058683Y0219815D02*
X0042419Y0219815D01*
X0042419Y0220813D02*
X0059682Y0220813D01*
X0061448Y0221812D02*
X0042419Y0221812D01*
X0042419Y0222810D02*
X0132230Y0222810D01*
X0133228Y0223809D02*
X0101754Y0223809D01*
X0101005Y0223498D02*
X0103026Y0224336D01*
X0106004Y0227313D01*
X0117448Y0227313D01*
X0117562Y0227200D01*
X0119995Y0226192D01*
X0132472Y0226192D01*
X0134905Y0227200D01*
X0136768Y0229063D01*
X0137776Y0231496D01*
X0137776Y0234130D01*
X0136768Y0236564D01*
X0134905Y0238427D01*
X0132472Y0239435D01*
X0119995Y0239435D01*
X0117562Y0238427D01*
X0117448Y0238313D01*
X0102632Y0238313D01*
X0100610Y0237476D01*
X0099063Y0235929D01*
X0095248Y0232114D01*
X0094411Y0230092D01*
X0094411Y0227904D01*
X0095248Y0225883D01*
X0096795Y0224336D01*
X0098817Y0223498D01*
X0101005Y0223498D01*
X0103498Y0224807D02*
X0134227Y0224807D01*
X0135225Y0225806D02*
X0104496Y0225806D01*
X0105495Y0226804D02*
X0118518Y0226804D01*
X0112411Y0213823D02*
X0133208Y0213823D01*
X0132210Y0212825D02*
X0112411Y0212825D01*
X0112411Y0211826D02*
X0131211Y0211826D01*
X0130213Y0210828D02*
X0112411Y0210828D01*
X0112411Y0209829D02*
X0129214Y0209829D01*
X0128216Y0208831D02*
X0112411Y0208831D01*
X0113290Y0207832D02*
X0127217Y0207832D01*
X0126219Y0206834D02*
X0114289Y0206834D01*
X0114761Y0205835D02*
X0125220Y0205835D01*
X0124222Y0204837D02*
X0114761Y0204837D01*
X0114761Y0203838D02*
X0123223Y0203838D01*
X0122225Y0202840D02*
X0114761Y0202840D01*
X0114258Y0201841D02*
X0121226Y0201841D01*
X0120227Y0200843D02*
X0113260Y0200843D01*
X0112261Y0199844D02*
X0119229Y0199844D01*
X0118230Y0198846D02*
X0107939Y0198846D01*
X0106941Y0197847D02*
X0117232Y0197847D01*
X0116233Y0196849D02*
X0105942Y0196849D01*
X0104944Y0195850D02*
X0115303Y0195850D01*
X0114970Y0194852D02*
X0103945Y0194852D01*
X0102947Y0193853D02*
X0114970Y0193853D01*
X0114970Y0192855D02*
X0102411Y0192855D01*
X0102411Y0191856D02*
X0114970Y0191856D01*
X0114970Y0190858D02*
X0103082Y0190858D01*
X0104011Y0189859D02*
X0114970Y0189859D01*
X0114970Y0188861D02*
X0104011Y0188861D01*
X0104011Y0187862D02*
X0114970Y0187862D01*
X0114970Y0186864D02*
X0104011Y0186864D01*
X0103343Y0185865D02*
X0114970Y0185865D01*
X0114747Y0184867D02*
X0102345Y0184867D01*
X0102250Y0183868D02*
X0086184Y0183868D01*
X0086184Y0182870D02*
X0101251Y0182870D01*
X0100811Y0181871D02*
X0086184Y0181871D01*
X0086184Y0180873D02*
X0100811Y0180873D01*
X0100811Y0179874D02*
X0086184Y0179874D01*
X0086184Y0178876D02*
X0100968Y0178876D01*
X0101748Y0177877D02*
X0086184Y0177877D01*
X0086184Y0176879D02*
X0101748Y0176879D01*
X0101748Y0175880D02*
X0086184Y0175880D01*
X0086184Y0174882D02*
X0101748Y0174882D01*
X0101748Y0173883D02*
X0086184Y0173883D01*
X0086184Y0172884D02*
X0101748Y0172884D01*
X0101748Y0171886D02*
X0086184Y0171886D01*
X0086184Y0170887D02*
X0101748Y0170887D01*
X0101302Y0169889D02*
X0091570Y0169889D01*
X0092569Y0168890D02*
X0100304Y0168890D01*
X0100788Y0163898D02*
X0092203Y0163898D01*
X0092108Y0162899D02*
X0091204Y0162899D01*
X0096060Y0162899D02*
X0101786Y0162899D01*
X0101317Y0159904D02*
X0098184Y0159904D01*
X0098184Y0158905D02*
X0100319Y0158905D01*
X0086598Y0169889D02*
X0086184Y0169889D01*
X0081984Y0175880D02*
X0070809Y0175880D01*
X0071808Y0176879D02*
X0081984Y0176879D01*
X0081984Y0177877D02*
X0072340Y0177877D01*
X0072674Y0178876D02*
X0081984Y0178876D01*
X0081984Y0179874D02*
X0072674Y0179874D01*
X0072485Y0180873D02*
X0081984Y0180873D01*
X0081984Y0181871D02*
X0072071Y0181871D01*
X0071159Y0182870D02*
X0081984Y0182870D01*
X0081984Y0183868D02*
X0069277Y0183868D01*
X0060523Y0185865D02*
X0042635Y0185865D01*
X0042419Y0186864D02*
X0059525Y0186864D01*
X0058984Y0187862D02*
X0042419Y0187862D01*
X0042419Y0188861D02*
X0058644Y0188861D01*
X0058644Y0189859D02*
X0042419Y0189859D01*
X0042419Y0190858D02*
X0058827Y0190858D01*
X0059240Y0191856D02*
X0042419Y0191856D01*
X0042419Y0192855D02*
X0060144Y0192855D01*
X0062005Y0193853D02*
X0042462Y0193853D01*
X0040710Y0201841D02*
X0040358Y0201841D01*
X0041709Y0202840D02*
X0038405Y0202840D01*
X0035432Y0202840D02*
X0019734Y0202840D01*
X0019734Y0203838D02*
X0042707Y0203838D01*
X0043706Y0204837D02*
X0019734Y0204837D01*
X0019734Y0205835D02*
X0044704Y0205835D01*
X0045703Y0206834D02*
X0019734Y0206834D01*
X0019734Y0207832D02*
X0046701Y0207832D01*
X0047700Y0208831D02*
X0019734Y0208831D01*
X0019734Y0209829D02*
X0048698Y0209829D01*
X0049697Y0210828D02*
X0019734Y0210828D01*
X0019734Y0211826D02*
X0050695Y0211826D01*
X0051694Y0212825D02*
X0039999Y0212825D01*
X0040034Y0212840D02*
X0041581Y0214387D01*
X0042419Y0216408D01*
X0042419Y0227701D01*
X0042474Y0227863D01*
X0042419Y0228790D01*
X0042419Y0229398D01*
X0043288Y0231496D01*
X0043288Y0234130D01*
X0042280Y0236564D01*
X0040417Y0238427D01*
X0037984Y0239435D01*
X0025507Y0239435D01*
X0023073Y0238427D01*
X0021211Y0236564D01*
X0020203Y0234130D01*
X0020203Y0231496D01*
X0021211Y0229063D01*
X0023073Y0227200D01*
X0025507Y0226192D01*
X0031419Y0226192D01*
X0031419Y0216408D01*
X0032256Y0214387D01*
X0033803Y0212840D01*
X0035825Y0212002D01*
X0038013Y0212002D01*
X0040034Y0212840D01*
X0041018Y0213823D02*
X0052692Y0213823D01*
X0053691Y0214822D02*
X0041762Y0214822D01*
X0042175Y0215820D02*
X0054689Y0215820D01*
X0055688Y0216819D02*
X0042419Y0216819D01*
X0042419Y0217818D02*
X0056686Y0217818D01*
X0057685Y0218816D02*
X0042419Y0218816D01*
X0042419Y0223809D02*
X0098068Y0223809D01*
X0096324Y0224807D02*
X0042419Y0224807D01*
X0042419Y0225806D02*
X0095325Y0225806D01*
X0094866Y0226804D02*
X0042419Y0226804D01*
X0042454Y0227803D02*
X0094453Y0227803D01*
X0094411Y0228801D02*
X0042419Y0228801D01*
X0042585Y0229800D02*
X0094411Y0229800D01*
X0094703Y0230798D02*
X0042999Y0230798D01*
X0043288Y0231797D02*
X0095117Y0231797D01*
X0095929Y0232795D02*
X0043288Y0232795D01*
X0043288Y0233794D02*
X0096928Y0233794D01*
X0097926Y0234792D02*
X0043014Y0234792D01*
X0042600Y0235791D02*
X0098925Y0235791D01*
X0099923Y0236789D02*
X0042055Y0236789D01*
X0041056Y0237788D02*
X0101363Y0237788D01*
X0118430Y0238786D02*
X0039549Y0238786D01*
X0031419Y0225806D02*
X0015797Y0225806D01*
X0015797Y0226804D02*
X0024030Y0226804D01*
X0022471Y0227803D02*
X0015797Y0227803D01*
X0015797Y0228801D02*
X0021473Y0228801D01*
X0020906Y0229800D02*
X0015797Y0229800D01*
X0015797Y0230798D02*
X0020492Y0230798D01*
X0020203Y0231797D02*
X0015797Y0231797D01*
X0015797Y0232795D02*
X0020203Y0232795D01*
X0020203Y0233794D02*
X0015797Y0233794D01*
X0015797Y0234792D02*
X0020477Y0234792D01*
X0020891Y0235791D02*
X0015797Y0235791D01*
X0015797Y0236789D02*
X0021436Y0236789D01*
X0022435Y0237788D02*
X0015797Y0237788D01*
X0015797Y0238786D02*
X0023942Y0238786D01*
X0015797Y0239785D02*
X0144833Y0239785D01*
X0144833Y0240783D02*
X0015797Y0240783D01*
X0015797Y0241782D02*
X0144833Y0241782D01*
X0144833Y0242780D02*
X0015797Y0242780D01*
X0015797Y0224807D02*
X0031419Y0224807D01*
X0031419Y0223809D02*
X0015797Y0223809D01*
X0015797Y0222810D02*
X0031419Y0222810D01*
X0031419Y0221812D02*
X0015797Y0221812D01*
X0015797Y0220813D02*
X0031419Y0220813D01*
X0031419Y0219815D02*
X0015797Y0219815D01*
X0015797Y0218816D02*
X0031419Y0218816D01*
X0031419Y0217818D02*
X0019115Y0217818D01*
X0019668Y0216819D02*
X0031419Y0216819D01*
X0031662Y0215820D02*
X0019734Y0215820D01*
X0019734Y0214822D02*
X0032076Y0214822D01*
X0032819Y0213823D02*
X0019734Y0213823D01*
X0019734Y0212825D02*
X0033839Y0212825D01*
X0033479Y0201841D02*
X0019734Y0201841D01*
X0019734Y0200843D02*
X0032481Y0200843D01*
X0031936Y0199844D02*
X0019734Y0199844D01*
X0019734Y0198846D02*
X0031522Y0198846D01*
X0031419Y0197847D02*
X0019734Y0197847D01*
X0019734Y0196849D02*
X0031419Y0196849D01*
X0031419Y0195850D02*
X0019734Y0195850D01*
X0019734Y0194852D02*
X0031419Y0194852D01*
X0031419Y0193853D02*
X0019734Y0193853D01*
X0019734Y0192855D02*
X0031419Y0192855D01*
X0031419Y0191856D02*
X0019734Y0191856D01*
X0019734Y0190858D02*
X0031419Y0190858D01*
X0031419Y0189859D02*
X0019734Y0189859D01*
X0019734Y0188861D02*
X0031419Y0188861D01*
X0031419Y0187862D02*
X0019734Y0187862D01*
X0019734Y0186864D02*
X0031419Y0186864D01*
X0031203Y0185865D02*
X0019734Y0185865D01*
X0019734Y0184867D02*
X0030794Y0184867D01*
X0030794Y0183868D02*
X0019734Y0183868D01*
X0019734Y0182870D02*
X0030794Y0182870D01*
X0030794Y0181871D02*
X0019734Y0181871D01*
X0019734Y0180873D02*
X0030794Y0180873D01*
X0030794Y0179874D02*
X0019734Y0179874D01*
X0019734Y0178876D02*
X0030794Y0178876D01*
X0030794Y0177877D02*
X0019734Y0177877D01*
X0019734Y0176879D02*
X0030794Y0176879D01*
X0030794Y0175880D02*
X0019734Y0175880D01*
X0019734Y0174882D02*
X0030794Y0174882D01*
X0030794Y0173883D02*
X0019734Y0173883D01*
X0019734Y0172884D02*
X0031086Y0172884D01*
X0031500Y0171886D02*
X0019537Y0171886D01*
X0018800Y0170887D02*
X0032179Y0170887D01*
X0033177Y0169889D02*
X0015797Y0169889D01*
X0015797Y0168890D02*
X0034419Y0168890D01*
X0034419Y0167892D02*
X0015797Y0167892D01*
X0015797Y0166893D02*
X0034419Y0166893D01*
X0034419Y0165895D02*
X0015797Y0165895D01*
X0015797Y0164896D02*
X0034847Y0164896D01*
X0035846Y0163898D02*
X0015797Y0163898D01*
X0015797Y0162899D02*
X0036844Y0162899D01*
X0037843Y0161901D02*
X0015797Y0161901D01*
X0015797Y0160902D02*
X0038841Y0160902D01*
X0039840Y0159904D02*
X0015797Y0159904D01*
X0015797Y0158905D02*
X0040838Y0158905D01*
X0041837Y0157907D02*
X0015797Y0157907D01*
X0015797Y0156908D02*
X0042835Y0156908D01*
X0043834Y0155910D02*
X0015797Y0155910D01*
X0015797Y0154911D02*
X0044832Y0154911D01*
X0045831Y0153913D02*
X0015797Y0153913D01*
X0015797Y0152914D02*
X0046829Y0152914D01*
X0047828Y0151916D02*
X0015797Y0151916D01*
X0015797Y0150917D02*
X0048826Y0150917D01*
X0049825Y0149919D02*
X0015797Y0149919D01*
X0015797Y0148920D02*
X0050823Y0148920D01*
X0051822Y0147922D02*
X0015797Y0147922D01*
X0015797Y0146923D02*
X0052821Y0146923D01*
X0053819Y0145925D02*
X0015797Y0145925D01*
X0015797Y0144926D02*
X0054818Y0144926D01*
X0055816Y0143928D02*
X0015797Y0143928D01*
X0015797Y0142929D02*
X0056815Y0142929D01*
X0057813Y0141931D02*
X0015797Y0141931D01*
X0015797Y0140932D02*
X0058812Y0140932D01*
X0059810Y0139934D02*
X0015797Y0139934D01*
X0015797Y0138935D02*
X0060809Y0138935D01*
X0062260Y0137937D02*
X0015797Y0137937D01*
X0015797Y0136938D02*
X0080781Y0136938D01*
X0081780Y0135940D02*
X0015797Y0135940D01*
X0015797Y0134941D02*
X0085206Y0134941D01*
X0085206Y0133943D02*
X0015797Y0133943D01*
X0015797Y0132944D02*
X0085206Y0132944D01*
X0085206Y0131946D02*
X0015797Y0131946D01*
X0015797Y0130947D02*
X0085206Y0130947D01*
X0085206Y0129949D02*
X0015797Y0129949D01*
X0015797Y0128950D02*
X0085206Y0128950D01*
X0085206Y0127951D02*
X0015797Y0127951D01*
X0015797Y0126953D02*
X0085206Y0126953D01*
X0085206Y0125954D02*
X0015797Y0125954D01*
X0015797Y0124956D02*
X0085206Y0124956D01*
X0085206Y0123957D02*
X0015797Y0123957D01*
X0015797Y0122959D02*
X0085206Y0122959D01*
X0085206Y0121960D02*
X0015797Y0121960D01*
X0015797Y0120962D02*
X0085206Y0120962D01*
X0085206Y0119963D02*
X0015797Y0119963D01*
X0015797Y0118965D02*
X0085206Y0118965D01*
X0085206Y0117966D02*
X0015797Y0117966D01*
X0015797Y0116968D02*
X0085206Y0116968D01*
X0084646Y0115969D02*
X0015797Y0115969D01*
X0015797Y0114971D02*
X0083648Y0114971D01*
X0083606Y0113972D02*
X0015797Y0113972D01*
X0015797Y0112974D02*
X0083606Y0112974D01*
X0083606Y0111975D02*
X0015797Y0111975D01*
X0015797Y0110977D02*
X0084162Y0110977D01*
X0085160Y0109978D02*
X0043123Y0109978D01*
X0043080Y0109990D02*
X0039419Y0109990D01*
X0035882Y0109042D01*
X0032712Y0107212D01*
X0030123Y0104623D01*
X0028292Y0101452D01*
X0027345Y0097916D01*
X0027345Y0094254D01*
X0028292Y0090718D01*
X0030123Y0087547D01*
X0032712Y0084958D01*
X0035882Y0083128D01*
X0039419Y0082180D01*
X0043080Y0082180D01*
X0046616Y0083128D01*
X0049787Y0084958D01*
X0052376Y0087547D01*
X0054206Y0090718D01*
X0055154Y0094254D01*
X0055154Y0097916D01*
X0054206Y0101452D01*
X0052376Y0104623D01*
X0049787Y0107212D01*
X0046616Y0109042D01*
X0043080Y0109990D01*
X0039376Y0109978D02*
X0015797Y0109978D01*
X0015797Y0108980D02*
X0035774Y0108980D01*
X0034045Y0107981D02*
X0015797Y0107981D01*
X0015797Y0106983D02*
X0032483Y0106983D01*
X0031484Y0105984D02*
X0015797Y0105984D01*
X0015797Y0104986D02*
X0030486Y0104986D01*
X0029756Y0103987D02*
X0015797Y0103987D01*
X0015797Y0102989D02*
X0029179Y0102989D01*
X0028603Y0101990D02*
X0015797Y0101990D01*
X0015797Y0100992D02*
X0028169Y0100992D01*
X0027901Y0099993D02*
X0015797Y0099993D01*
X0015797Y0098995D02*
X0027634Y0098995D01*
X0027366Y0097996D02*
X0015797Y0097996D01*
X0015797Y0096998D02*
X0027345Y0096998D01*
X0027345Y0095999D02*
X0015797Y0095999D01*
X0015797Y0095001D02*
X0027345Y0095001D01*
X0027412Y0094002D02*
X0015797Y0094002D01*
X0015797Y0093004D02*
X0027680Y0093004D01*
X0027947Y0092005D02*
X0015797Y0092005D01*
X0015797Y0091007D02*
X0028215Y0091007D01*
X0028702Y0090008D02*
X0015797Y0090008D01*
X0015797Y0089010D02*
X0029279Y0089010D01*
X0029855Y0088011D02*
X0015797Y0088011D01*
X0015797Y0087013D02*
X0030658Y0087013D01*
X0031656Y0086014D02*
X0015797Y0086014D01*
X0015797Y0085016D02*
X0032655Y0085016D01*
X0034342Y0084017D02*
X0015797Y0084017D01*
X0015797Y0083018D02*
X0036291Y0083018D01*
X0046208Y0083018D02*
X0060308Y0083018D01*
X0060533Y0083244D02*
X0059307Y0082018D01*
X0058644Y0080416D01*
X0058644Y0078683D01*
X0059307Y0077081D01*
X0060533Y0075856D01*
X0062135Y0075192D01*
X0069183Y0075192D01*
X0070785Y0075856D01*
X0072010Y0077081D01*
X0072674Y0078683D01*
X0072674Y0080416D01*
X0072010Y0082018D01*
X0070785Y0083244D01*
X0069183Y0083907D01*
X0062135Y0083907D01*
X0060533Y0083244D01*
X0059309Y0082020D02*
X0015797Y0082020D01*
X0015797Y0081021D02*
X0058894Y0081021D01*
X0058644Y0080023D02*
X0015797Y0080023D01*
X0015797Y0079024D02*
X0058644Y0079024D01*
X0058916Y0078026D02*
X0015797Y0078026D01*
X0015797Y0077027D02*
X0059361Y0077027D01*
X0060360Y0076029D02*
X0015797Y0076029D01*
X0015797Y0075030D02*
X0188356Y0075030D01*
X0188356Y0074032D02*
X0015797Y0074032D01*
X0015797Y0073033D02*
X0188356Y0073033D01*
X0188356Y0072035D02*
X0015797Y0072035D01*
X0015797Y0071036D02*
X0139723Y0071036D01*
X0139037Y0070752D02*
X0137645Y0069360D01*
X0136892Y0067542D01*
X0136892Y0065573D01*
X0137645Y0063755D01*
X0139037Y0062363D01*
X0139740Y0062072D01*
X0139740Y0051531D01*
X0137454Y0050584D01*
X0135569Y0048699D01*
X0134549Y0046237D01*
X0134549Y0043571D01*
X0135569Y0041109D01*
X0137454Y0039224D01*
X0139917Y0038204D01*
X0142582Y0038204D01*
X0145045Y0039224D01*
X0146929Y0041109D01*
X0147949Y0043571D01*
X0147949Y0046237D01*
X0146929Y0048699D01*
X0145045Y0050584D01*
X0143940Y0051041D01*
X0143940Y0062072D01*
X0144643Y0062363D01*
X0146035Y0063755D01*
X0146788Y0065573D01*
X0146788Y0067542D01*
X0146035Y0069360D01*
X0144643Y0070752D01*
X0142824Y0071505D01*
X0140856Y0071505D01*
X0139037Y0070752D01*
X0138323Y0070038D02*
X0015797Y0070038D01*
X0015797Y0069039D02*
X0137512Y0069039D01*
X0137099Y0068041D02*
X0015797Y0068041D01*
X0015797Y0067042D02*
X0136892Y0067042D01*
X0136892Y0066044D02*
X0015797Y0066044D01*
X0015797Y0065045D02*
X0137111Y0065045D01*
X0137524Y0064047D02*
X0015797Y0064047D01*
X0015797Y0063048D02*
X0138352Y0063048D01*
X0139740Y0062050D02*
X0015797Y0062050D01*
X0015797Y0061051D02*
X0139740Y0061051D01*
X0139740Y0060053D02*
X0015797Y0060053D01*
X0015797Y0059054D02*
X0139740Y0059054D01*
X0139740Y0058056D02*
X0015797Y0058056D01*
X0015797Y0057057D02*
X0139740Y0057057D01*
X0139740Y0056059D02*
X0015797Y0056059D01*
X0015797Y0055060D02*
X0139740Y0055060D01*
X0139740Y0054062D02*
X0068925Y0054062D01*
X0068774Y0054212D02*
X0066753Y0055050D01*
X0064565Y0055050D01*
X0062543Y0054212D01*
X0060996Y0052665D01*
X0060159Y0050644D01*
X0060159Y0048456D01*
X0060996Y0046434D01*
X0062543Y0044887D01*
X0064565Y0044050D01*
X0066753Y0044050D01*
X0067768Y0044470D01*
X0068204Y0044034D01*
X0069435Y0042804D01*
X0087623Y0042804D01*
X0088325Y0041109D01*
X0090210Y0039224D01*
X0092673Y0038204D01*
X0095338Y0038204D01*
X0097800Y0039224D01*
X0099685Y0041109D01*
X0100705Y0043571D01*
X0100705Y0046237D01*
X0099685Y0048699D01*
X0097800Y0050584D01*
X0095338Y0051604D01*
X0092673Y0051604D01*
X0090210Y0050584D01*
X0088325Y0048699D01*
X0087623Y0047004D01*
X0071174Y0047004D01*
X0070738Y0047440D01*
X0071159Y0048456D01*
X0071159Y0050644D01*
X0070321Y0052665D01*
X0068774Y0054212D01*
X0069923Y0053063D02*
X0139740Y0053063D01*
X0139740Y0052065D02*
X0070570Y0052065D01*
X0070984Y0051066D02*
X0091374Y0051066D01*
X0089694Y0050068D02*
X0071159Y0050068D01*
X0071159Y0049069D02*
X0088695Y0049069D01*
X0088065Y0048071D02*
X0070999Y0048071D01*
X0071106Y0047072D02*
X0087651Y0047072D01*
X0087923Y0042080D02*
X0015797Y0042080D01*
X0015797Y0043078D02*
X0069161Y0043078D01*
X0068162Y0044077D02*
X0066818Y0044077D01*
X0064500Y0044077D02*
X0015797Y0044077D01*
X0015797Y0045075D02*
X0062355Y0045075D01*
X0061357Y0046074D02*
X0015797Y0046074D01*
X0015797Y0047072D02*
X0060732Y0047072D01*
X0060318Y0048071D02*
X0015797Y0048071D01*
X0015797Y0049069D02*
X0060159Y0049069D01*
X0060159Y0050068D02*
X0015797Y0050068D01*
X0015797Y0051066D02*
X0060334Y0051066D01*
X0060747Y0052065D02*
X0015797Y0052065D01*
X0015797Y0053063D02*
X0061394Y0053063D01*
X0062393Y0054062D02*
X0015797Y0054062D01*
X0015797Y0041081D02*
X0088353Y0041081D01*
X0089351Y0040082D02*
X0015797Y0040082D01*
X0015797Y0039084D02*
X0090548Y0039084D01*
X0097463Y0039084D02*
X0137792Y0039084D01*
X0136596Y0040082D02*
X0098659Y0040082D01*
X0099658Y0041081D02*
X0135597Y0041081D01*
X0135167Y0042080D02*
X0100087Y0042080D01*
X0100501Y0043078D02*
X0134754Y0043078D01*
X0134549Y0044077D02*
X0100705Y0044077D01*
X0100705Y0045075D02*
X0134549Y0045075D01*
X0134549Y0046074D02*
X0100705Y0046074D01*
X0100359Y0047072D02*
X0134895Y0047072D01*
X0135309Y0048071D02*
X0099946Y0048071D01*
X0099315Y0049069D02*
X0135939Y0049069D01*
X0136938Y0050068D02*
X0098317Y0050068D01*
X0096636Y0051066D02*
X0138618Y0051066D01*
X0143940Y0051066D02*
X0188356Y0051066D01*
X0188356Y0050068D02*
X0145561Y0050068D01*
X0146559Y0049069D02*
X0188356Y0049069D01*
X0188356Y0048071D02*
X0147190Y0048071D01*
X0147603Y0047072D02*
X0188356Y0047072D01*
X0188356Y0046074D02*
X0147949Y0046074D01*
X0147949Y0045075D02*
X0188356Y0045075D01*
X0188356Y0044077D02*
X0147949Y0044077D01*
X0147745Y0043078D02*
X0188356Y0043078D01*
X0188356Y0042080D02*
X0147331Y0042080D01*
X0146902Y0041081D02*
X0188356Y0041081D01*
X0188356Y0040082D02*
X0145903Y0040082D01*
X0144707Y0039084D02*
X0188356Y0039084D01*
X0188356Y0038085D02*
X0015797Y0038085D01*
X0015797Y0037087D02*
X0188356Y0037087D01*
X0188356Y0036088D02*
X0015797Y0036088D01*
X0015797Y0035090D02*
X0188356Y0035090D01*
X0188356Y0034091D02*
X0015797Y0034091D01*
X0015797Y0033093D02*
X0188356Y0033093D01*
X0188356Y0032094D02*
X0015797Y0032094D01*
X0015797Y0031096D02*
X0188356Y0031096D01*
X0188356Y0030097D02*
X0015797Y0030097D01*
X0048156Y0084017D02*
X0188356Y0084017D01*
X0188356Y0085016D02*
X0049844Y0085016D01*
X0050843Y0086014D02*
X0188356Y0086014D01*
X0188356Y0087013D02*
X0051841Y0087013D01*
X0052644Y0088011D02*
X0188356Y0088011D01*
X0188356Y0089010D02*
X0053220Y0089010D01*
X0053797Y0090008D02*
X0188356Y0090008D01*
X0188356Y0091007D02*
X0054284Y0091007D01*
X0054551Y0092005D02*
X0188356Y0092005D01*
X0188356Y0093004D02*
X0054819Y0093004D01*
X0055086Y0094002D02*
X0188780Y0094002D01*
X0190259Y0095001D02*
X0055154Y0095001D01*
X0055154Y0095999D02*
X0327529Y0095999D01*
X0327529Y0096998D02*
X0055154Y0096998D01*
X0055132Y0097996D02*
X0089872Y0097996D01*
X0088874Y0098995D02*
X0054865Y0098995D01*
X0054597Y0099993D02*
X0087875Y0099993D01*
X0086877Y0100992D02*
X0054330Y0100992D01*
X0053896Y0101990D02*
X0085878Y0101990D01*
X0085606Y0102989D02*
X0053319Y0102989D01*
X0052743Y0103987D02*
X0085606Y0103987D01*
X0085606Y0104986D02*
X0052013Y0104986D01*
X0051014Y0105984D02*
X0085606Y0105984D01*
X0085606Y0106983D02*
X0050016Y0106983D01*
X0048454Y0107981D02*
X0085727Y0107981D01*
X0086725Y0108980D02*
X0046724Y0108980D01*
X0071010Y0083018D02*
X0188356Y0083018D01*
X0188356Y0082020D02*
X0072008Y0082020D01*
X0072423Y0081021D02*
X0188356Y0081021D01*
X0188356Y0080023D02*
X0072674Y0080023D01*
X0072674Y0079024D02*
X0188356Y0079024D01*
X0188356Y0078026D02*
X0072402Y0078026D01*
X0071956Y0077027D02*
X0188356Y0077027D01*
X0188356Y0076029D02*
X0070958Y0076029D01*
X0108611Y0097996D02*
X0327529Y0097996D01*
X0327529Y0098995D02*
X0109609Y0098995D01*
X0110608Y0099993D02*
X0327529Y0099993D01*
X0327529Y0100992D02*
X0111606Y0100992D01*
X0112605Y0101990D02*
X0327529Y0101990D01*
X0327529Y0102989D02*
X0113603Y0102989D01*
X0114602Y0103987D02*
X0327529Y0103987D01*
X0327529Y0104986D02*
X0115600Y0104986D01*
X0116599Y0105984D02*
X0327529Y0105984D01*
X0327529Y0106983D02*
X0201870Y0106983D01*
X0202370Y0107117D02*
X0198934Y0106196D01*
X0195376Y0106196D01*
X0191940Y0107117D01*
X0188859Y0108896D01*
X0186343Y0111411D01*
X0184565Y0114492D01*
X0183644Y0117928D01*
X0183644Y0121486D01*
X0184565Y0124922D01*
X0186343Y0128003D01*
X0188859Y0130519D01*
X0191940Y0132297D01*
X0195376Y0133218D01*
X0198934Y0133218D01*
X0202370Y0132297D01*
X0205451Y0130519D01*
X0207966Y0128003D01*
X0209745Y0124922D01*
X0210666Y0121486D01*
X0210666Y0117928D01*
X0209745Y0114492D01*
X0207966Y0111411D01*
X0205451Y0108896D01*
X0202370Y0107117D01*
X0203867Y0107981D02*
X0327603Y0107981D01*
X0328168Y0108980D02*
X0205535Y0108980D01*
X0206534Y0109978D02*
X0380690Y0109978D01*
X0379691Y0110977D02*
X0207532Y0110977D01*
X0208292Y0111975D02*
X0378931Y0111975D01*
X0378354Y0112974D02*
X0208869Y0112974D01*
X0209445Y0113972D02*
X0377778Y0113972D01*
X0377350Y0114971D02*
X0209873Y0114971D01*
X0210141Y0115969D02*
X0377082Y0115969D01*
X0376815Y0116968D02*
X0210409Y0116968D01*
X0210666Y0117966D02*
X0376557Y0117966D01*
X0376557Y0118965D02*
X0210666Y0118965D01*
X0210666Y0119963D02*
X0376557Y0119963D01*
X0376557Y0120962D02*
X0210666Y0120962D01*
X0210539Y0121960D02*
X0376684Y0121960D01*
X0376952Y0122959D02*
X0210271Y0122959D01*
X0210004Y0123957D02*
X0377219Y0123957D01*
X0377497Y0124956D02*
X0209726Y0124956D01*
X0209149Y0125954D02*
X0378074Y0125954D01*
X0378650Y0126953D02*
X0208573Y0126953D01*
X0207996Y0127951D02*
X0379227Y0127951D01*
X0380204Y0128950D02*
X0207019Y0128950D01*
X0206021Y0129949D02*
X0381202Y0129949D01*
X0382514Y0130947D02*
X0204709Y0130947D01*
X0202979Y0131946D02*
X0384244Y0131946D01*
X0387267Y0132944D02*
X0199956Y0132944D01*
X0196565Y0135940D02*
X0401348Y0135940D01*
X0401348Y0136938D02*
X0196979Y0136938D01*
X0197355Y0137937D02*
X0401348Y0137937D01*
X0401348Y0138935D02*
X0197355Y0138935D01*
X0197347Y0139934D02*
X0401348Y0139934D01*
X0401348Y0140932D02*
X0196933Y0140932D01*
X0198175Y0141931D02*
X0401348Y0141931D01*
X0401348Y0142929D02*
X0199174Y0142929D01*
X0200172Y0143928D02*
X0200523Y0143928D01*
X0203786Y0143928D02*
X0401348Y0143928D01*
X0401348Y0144926D02*
X0205555Y0144926D01*
X0206553Y0145925D02*
X0401348Y0145925D01*
X0401348Y0146923D02*
X0206973Y0146923D01*
X0207355Y0147922D02*
X0401348Y0147922D01*
X0401348Y0148920D02*
X0207355Y0148920D01*
X0207353Y0149919D02*
X0401348Y0149919D01*
X0401348Y0150917D02*
X0206940Y0150917D01*
X0206473Y0151916D02*
X0401348Y0151916D01*
X0401348Y0152914D02*
X0205475Y0152914D01*
X0203750Y0153913D02*
X0401348Y0153913D01*
X0401348Y0154911D02*
X0205540Y0154911D01*
X0206538Y0155910D02*
X0401348Y0155910D01*
X0401348Y0156908D02*
X0206966Y0156908D01*
X0207355Y0157907D02*
X0401348Y0157907D01*
X0401348Y0158905D02*
X0207355Y0158905D01*
X0207355Y0159904D02*
X0401348Y0159904D01*
X0401348Y0160902D02*
X0206946Y0160902D01*
X0206488Y0161901D02*
X0401348Y0161901D01*
X0401348Y0162899D02*
X0205490Y0162899D01*
X0205525Y0164896D02*
X0401348Y0164896D01*
X0401348Y0163898D02*
X0203714Y0163898D01*
X0200638Y0163880D02*
X0199209Y0163289D01*
X0197746Y0161826D01*
X0197155Y0160397D01*
X0196563Y0161826D01*
X0195100Y0163289D01*
X0193189Y0164080D01*
X0191120Y0164080D01*
X0189209Y0163289D01*
X0187746Y0161826D01*
X0186955Y0159915D01*
X0186955Y0157846D01*
X0187565Y0156374D01*
X0172230Y0156374D01*
X0168529Y0152673D01*
X0167299Y0151443D01*
X0167299Y0134986D01*
X0166797Y0134484D01*
X0160811Y0134484D01*
X0161282Y0134955D01*
X0161945Y0136557D01*
X0161945Y0138290D01*
X0161282Y0139892D01*
X0160056Y0141118D01*
X0159688Y0141270D01*
X0159688Y0162774D01*
X0188694Y0191780D01*
X0197728Y0191780D01*
X0196955Y0189915D01*
X0196955Y0187846D01*
X0197746Y0185935D01*
X0199209Y0184472D01*
X0200638Y0183880D01*
X0199209Y0183289D01*
X0197746Y0181826D01*
X0197155Y0180397D01*
X0196563Y0181826D01*
X0195100Y0183289D01*
X0193189Y0184080D01*
X0191120Y0184080D01*
X0189209Y0183289D01*
X0187746Y0181826D01*
X0186955Y0179915D01*
X0186955Y0177846D01*
X0187746Y0175935D01*
X0189209Y0174472D01*
X0191120Y0173680D01*
X0193189Y0173680D01*
X0195100Y0174472D01*
X0196563Y0175935D01*
X0197155Y0177363D01*
X0197746Y0175935D01*
X0199209Y0174472D01*
X0200638Y0173880D01*
X0199209Y0173289D01*
X0197746Y0171826D01*
X0196955Y0169915D01*
X0196955Y0167846D01*
X0197746Y0165935D01*
X0199209Y0164472D01*
X0200638Y0163880D01*
X0200595Y0163898D02*
X0193630Y0163898D01*
X0195490Y0162899D02*
X0198820Y0162899D01*
X0197821Y0161901D02*
X0196488Y0161901D01*
X0196946Y0160902D02*
X0197364Y0160902D01*
X0198785Y0164896D02*
X0161810Y0164896D01*
X0160812Y0163898D02*
X0190680Y0163898D01*
X0188820Y0162899D02*
X0159813Y0162899D01*
X0159688Y0161901D02*
X0187821Y0161901D01*
X0187364Y0160902D02*
X0159688Y0160902D01*
X0159688Y0159904D02*
X0186955Y0159904D01*
X0186955Y0158905D02*
X0159688Y0158905D01*
X0159688Y0157907D02*
X0186955Y0157907D01*
X0187343Y0156908D02*
X0159688Y0156908D01*
X0159688Y0155910D02*
X0171766Y0155910D01*
X0170767Y0154911D02*
X0159688Y0154911D01*
X0159688Y0153913D02*
X0169769Y0153913D01*
X0168770Y0152914D02*
X0159688Y0152914D01*
X0159688Y0151916D02*
X0167772Y0151916D01*
X0167299Y0150917D02*
X0159688Y0150917D01*
X0159688Y0149919D02*
X0167299Y0149919D01*
X0167299Y0148920D02*
X0159688Y0148920D01*
X0159688Y0147922D02*
X0167299Y0147922D01*
X0167299Y0146923D02*
X0159688Y0146923D01*
X0159688Y0145925D02*
X0167299Y0145925D01*
X0167299Y0144926D02*
X0159688Y0144926D01*
X0159688Y0143928D02*
X0167299Y0143928D01*
X0167299Y0142929D02*
X0159688Y0142929D01*
X0159688Y0141931D02*
X0167299Y0141931D01*
X0167299Y0140932D02*
X0160242Y0140932D01*
X0161240Y0139934D02*
X0167299Y0139934D01*
X0167299Y0138935D02*
X0161678Y0138935D01*
X0161945Y0137937D02*
X0167299Y0137937D01*
X0167299Y0136938D02*
X0161945Y0136938D01*
X0161690Y0135940D02*
X0167299Y0135940D01*
X0167254Y0134941D02*
X0161268Y0134941D01*
X0177432Y0122959D02*
X0184039Y0122959D01*
X0184306Y0123957D02*
X0178430Y0123957D01*
X0179429Y0124956D02*
X0184584Y0124956D01*
X0185161Y0125954D02*
X0180427Y0125954D01*
X0181426Y0126953D02*
X0185737Y0126953D01*
X0186314Y0127951D02*
X0182424Y0127951D01*
X0183423Y0128950D02*
X0187290Y0128950D01*
X0188289Y0129949D02*
X0184421Y0129949D01*
X0185420Y0130947D02*
X0189601Y0130947D01*
X0191330Y0131946D02*
X0186418Y0131946D01*
X0187011Y0132944D02*
X0194353Y0132944D01*
X0193822Y0133943D02*
X0401348Y0133943D01*
X0401348Y0134941D02*
X0195570Y0134941D01*
X0190487Y0133943D02*
X0187011Y0133943D01*
X0187011Y0134941D02*
X0188740Y0134941D01*
X0187744Y0135940D02*
X0187011Y0135940D01*
X0187011Y0136938D02*
X0187331Y0136938D01*
X0183771Y0121960D02*
X0132575Y0121960D01*
X0131576Y0120962D02*
X0183644Y0120962D01*
X0183644Y0119963D02*
X0130578Y0119963D01*
X0129579Y0118965D02*
X0183644Y0118965D01*
X0183644Y0117966D02*
X0128581Y0117966D01*
X0127582Y0116968D02*
X0183901Y0116968D01*
X0184169Y0115969D02*
X0126584Y0115969D01*
X0125585Y0114971D02*
X0184436Y0114971D01*
X0184865Y0113972D02*
X0124587Y0113972D01*
X0123588Y0112974D02*
X0185441Y0112974D01*
X0186018Y0111975D02*
X0122590Y0111975D01*
X0121591Y0110977D02*
X0186778Y0110977D01*
X0187776Y0109978D02*
X0120593Y0109978D01*
X0119594Y0108980D02*
X0188775Y0108980D01*
X0190443Y0107981D02*
X0118596Y0107981D01*
X0117597Y0106983D02*
X0192440Y0106983D01*
X0188356Y0071036D02*
X0143957Y0071036D01*
X0145357Y0070038D02*
X0188356Y0070038D01*
X0188356Y0069039D02*
X0146168Y0069039D01*
X0146581Y0068041D02*
X0188356Y0068041D01*
X0188356Y0067042D02*
X0146788Y0067042D01*
X0146788Y0066044D02*
X0188356Y0066044D01*
X0188356Y0065045D02*
X0146569Y0065045D01*
X0146156Y0064047D02*
X0188356Y0064047D01*
X0188356Y0063048D02*
X0145328Y0063048D01*
X0143940Y0062050D02*
X0188356Y0062050D01*
X0188356Y0061051D02*
X0143940Y0061051D01*
X0143940Y0060053D02*
X0188356Y0060053D01*
X0188356Y0059054D02*
X0143940Y0059054D01*
X0143940Y0058056D02*
X0188356Y0058056D01*
X0188356Y0057057D02*
X0143940Y0057057D01*
X0143940Y0056059D02*
X0188356Y0056059D01*
X0188356Y0055060D02*
X0143940Y0055060D01*
X0143940Y0054062D02*
X0188356Y0054062D01*
X0188356Y0053063D02*
X0143940Y0053063D01*
X0143940Y0052065D02*
X0188356Y0052065D01*
X0081893Y0144926D02*
X0061889Y0144926D01*
X0062887Y0143928D02*
X0080894Y0143928D01*
X0079896Y0142929D02*
X0063886Y0142929D01*
X0050905Y0155910D02*
X0081453Y0155910D01*
X0080455Y0156908D02*
X0049906Y0156908D01*
X0048908Y0157907D02*
X0079984Y0157907D01*
X0079984Y0158905D02*
X0047909Y0158905D01*
X0046911Y0159904D02*
X0079984Y0159904D01*
X0080111Y0160902D02*
X0045912Y0160902D01*
X0044914Y0161901D02*
X0081109Y0161901D01*
X0086184Y0184867D02*
X0097477Y0184867D01*
X0096478Y0185865D02*
X0086184Y0185865D01*
X0086184Y0186864D02*
X0095811Y0186864D01*
X0095811Y0187862D02*
X0086184Y0187862D01*
X0085735Y0188861D02*
X0095811Y0188861D01*
X0095811Y0189859D02*
X0084736Y0189859D01*
X0083738Y0190858D02*
X0096739Y0190858D01*
X0097411Y0191856D02*
X0082739Y0191856D01*
X0081741Y0192855D02*
X0097411Y0192855D01*
X0097411Y0193853D02*
X0080742Y0193853D01*
X0079744Y0194852D02*
X0097411Y0194852D01*
X0097873Y0195850D02*
X0078745Y0195850D01*
X0077747Y0196849D02*
X0098871Y0196849D01*
X0099870Y0197847D02*
X0076748Y0197847D01*
X0075750Y0198846D02*
X0100868Y0198846D01*
X0101867Y0199844D02*
X0074751Y0199844D01*
X0073753Y0200843D02*
X0102865Y0200843D01*
X0103864Y0201841D02*
X0072083Y0201841D01*
X0071188Y0202840D02*
X0104862Y0202840D01*
X0105061Y0203838D02*
X0069349Y0203838D01*
X0071778Y0196849D02*
X0071807Y0196849D01*
X0057166Y0207832D02*
X0106531Y0207832D01*
X0105533Y0206834D02*
X0056168Y0206834D01*
X0055169Y0205835D02*
X0105061Y0205835D01*
X0105061Y0204837D02*
X0054171Y0204837D01*
X0044717Y0172884D02*
X0042751Y0172884D01*
X0042337Y0171886D02*
X0045715Y0171886D01*
X0046714Y0170887D02*
X0041659Y0170887D01*
X0106857Y0176879D02*
X0114463Y0176879D01*
X0113465Y0177877D02*
X0107855Y0177877D01*
X0107572Y0183868D02*
X0113748Y0183868D01*
X0124030Y0158905D02*
X0134564Y0158905D01*
X0133566Y0157907D02*
X0125029Y0157907D01*
X0162809Y0165895D02*
X0197786Y0165895D01*
X0197349Y0166893D02*
X0163807Y0166893D01*
X0164806Y0167892D02*
X0196955Y0167892D01*
X0196955Y0168890D02*
X0165804Y0168890D01*
X0166803Y0169889D02*
X0196955Y0169889D01*
X0197358Y0170887D02*
X0167801Y0170887D01*
X0168800Y0171886D02*
X0197807Y0171886D01*
X0198805Y0172884D02*
X0169798Y0172884D01*
X0170797Y0173883D02*
X0190631Y0173883D01*
X0188800Y0174882D02*
X0171795Y0174882D01*
X0172794Y0175880D02*
X0187801Y0175880D01*
X0187356Y0176879D02*
X0173792Y0176879D01*
X0174791Y0177877D02*
X0186955Y0177877D01*
X0186955Y0178876D02*
X0175789Y0178876D01*
X0176788Y0179874D02*
X0186955Y0179874D01*
X0187352Y0180873D02*
X0177786Y0180873D01*
X0178785Y0181871D02*
X0187792Y0181871D01*
X0188790Y0182870D02*
X0179783Y0182870D01*
X0180782Y0183868D02*
X0190608Y0183868D01*
X0193701Y0183868D02*
X0200608Y0183868D01*
X0198815Y0184867D02*
X0181780Y0184867D01*
X0182779Y0185865D02*
X0197816Y0185865D01*
X0197362Y0186864D02*
X0183777Y0186864D01*
X0184776Y0187862D02*
X0196955Y0187862D01*
X0196955Y0188861D02*
X0185774Y0188861D01*
X0186773Y0189859D02*
X0196955Y0189859D01*
X0197345Y0190858D02*
X0187771Y0190858D01*
X0195519Y0182870D02*
X0198790Y0182870D01*
X0197792Y0181871D02*
X0196518Y0181871D01*
X0196958Y0180873D02*
X0197352Y0180873D01*
X0197356Y0176879D02*
X0196954Y0176879D01*
X0196508Y0175880D02*
X0197801Y0175880D01*
X0198800Y0174882D02*
X0195510Y0174882D01*
X0193679Y0173883D02*
X0200631Y0173883D01*
X0203678Y0173883D02*
X0397411Y0173883D01*
X0397411Y0172884D02*
X0205505Y0172884D01*
X0206503Y0171886D02*
X0397607Y0171886D01*
X0398344Y0170887D02*
X0206952Y0170887D01*
X0207355Y0169889D02*
X0401348Y0169889D01*
X0401348Y0168890D02*
X0207355Y0168890D01*
X0207355Y0167892D02*
X0401348Y0167892D01*
X0401348Y0166893D02*
X0206960Y0166893D01*
X0206523Y0165895D02*
X0401348Y0165895D01*
X0397411Y0174882D02*
X0205510Y0174882D01*
X0206508Y0175880D02*
X0397411Y0175880D01*
X0397411Y0176879D02*
X0206954Y0176879D01*
X0207355Y0177877D02*
X0397411Y0177877D01*
X0397411Y0178876D02*
X0207355Y0178876D01*
X0207355Y0179874D02*
X0397411Y0179874D01*
X0397411Y0180873D02*
X0206958Y0180873D01*
X0206518Y0181871D02*
X0397411Y0181871D01*
X0397411Y0182870D02*
X0205519Y0182870D01*
X0205495Y0184867D02*
X0397411Y0184867D01*
X0397411Y0185865D02*
X0206494Y0185865D01*
X0206948Y0186864D02*
X0397411Y0186864D01*
X0397411Y0187862D02*
X0207355Y0187862D01*
X0207355Y0188861D02*
X0397411Y0188861D01*
X0397411Y0189859D02*
X0207355Y0189859D01*
X0206964Y0190858D02*
X0397411Y0190858D01*
X0397411Y0191856D02*
X0207589Y0191856D01*
X0208587Y0192855D02*
X0397411Y0192855D01*
X0397411Y0193853D02*
X0209586Y0193853D01*
X0210584Y0194852D02*
X0397411Y0194852D01*
X0397411Y0195850D02*
X0211583Y0195850D01*
X0212581Y0196849D02*
X0397411Y0196849D01*
X0397411Y0197847D02*
X0213034Y0197847D01*
X0213034Y0198846D02*
X0397411Y0198846D01*
X0397411Y0199844D02*
X0213034Y0199844D01*
X0213034Y0200843D02*
X0397411Y0200843D01*
X0397411Y0201841D02*
X0213034Y0201841D01*
X0213034Y0202840D02*
X0397411Y0202840D01*
X0397411Y0203838D02*
X0213034Y0203838D01*
X0213034Y0204837D02*
X0397411Y0204837D01*
X0397411Y0205835D02*
X0213034Y0205835D01*
X0213034Y0206834D02*
X0397411Y0206834D01*
X0397411Y0207832D02*
X0213034Y0207832D01*
X0213034Y0208831D02*
X0397411Y0208831D01*
X0397411Y0209829D02*
X0213034Y0209829D01*
X0213034Y0210828D02*
X0397411Y0210828D01*
X0397411Y0211826D02*
X0213034Y0211826D01*
X0213034Y0212825D02*
X0397411Y0212825D01*
X0397411Y0213823D02*
X0213034Y0213823D01*
X0213034Y0214822D02*
X0397411Y0214822D01*
X0397411Y0215820D02*
X0213034Y0215820D01*
X0213034Y0216819D02*
X0397476Y0216819D01*
X0398029Y0217818D02*
X0213034Y0217818D01*
X0213034Y0218816D02*
X0401348Y0218816D01*
X0401348Y0219815D02*
X0213034Y0219815D01*
X0213034Y0220813D02*
X0401348Y0220813D01*
X0401348Y0221812D02*
X0213034Y0221812D01*
X0213034Y0222810D02*
X0401348Y0222810D01*
X0401348Y0223809D02*
X0213034Y0223809D01*
X0213034Y0224807D02*
X0401348Y0224807D01*
X0401348Y0225806D02*
X0213034Y0225806D01*
X0213034Y0226804D02*
X0401348Y0226804D01*
X0401348Y0227803D02*
X0213034Y0227803D01*
X0213034Y0228801D02*
X0401348Y0228801D01*
X0401348Y0229800D02*
X0213034Y0229800D01*
X0213034Y0230798D02*
X0401348Y0230798D01*
X0401348Y0231797D02*
X0212248Y0231797D01*
X0211249Y0232795D02*
X0401348Y0232795D01*
X0401348Y0233794D02*
X0210251Y0233794D01*
X0209252Y0234792D02*
X0401348Y0234792D01*
X0401348Y0235791D02*
X0208254Y0235791D01*
X0207255Y0236789D02*
X0401348Y0236789D01*
X0401348Y0237788D02*
X0207331Y0237788D01*
X0207355Y0238786D02*
X0401348Y0238786D01*
X0401348Y0239785D02*
X0207355Y0239785D01*
X0206995Y0240783D02*
X0401348Y0240783D01*
X0401348Y0241782D02*
X0206581Y0241782D01*
X0205609Y0242780D02*
X0401348Y0242780D01*
X0401348Y0243779D02*
X0203917Y0243779D01*
X0205406Y0244777D02*
X0401348Y0244777D01*
X0401348Y0245776D02*
X0206404Y0245776D01*
X0206911Y0246774D02*
X0401348Y0246774D01*
X0401348Y0247773D02*
X0207325Y0247773D01*
X0207355Y0248771D02*
X0401348Y0248771D01*
X0401348Y0249770D02*
X0207355Y0249770D01*
X0207001Y0250768D02*
X0401348Y0250768D01*
X0401348Y0251767D02*
X0206588Y0251767D01*
X0205624Y0252765D02*
X0401348Y0252765D01*
X0401348Y0253764D02*
X0203953Y0253764D01*
X0205391Y0254762D02*
X0401348Y0254762D01*
X0401348Y0255761D02*
X0206389Y0255761D01*
X0206905Y0256759D02*
X0401348Y0256759D01*
X0401348Y0257758D02*
X0207318Y0257758D01*
X0207355Y0258756D02*
X0401348Y0258756D01*
X0401348Y0259755D02*
X0207355Y0259755D01*
X0207007Y0260753D02*
X0401348Y0260753D01*
X0401348Y0261752D02*
X0206594Y0261752D01*
X0205639Y0262751D02*
X0401348Y0262751D01*
X0401348Y0263749D02*
X0203989Y0263749D01*
X0205376Y0264748D02*
X0401348Y0264748D01*
X0401348Y0265746D02*
X0206374Y0265746D01*
X0206899Y0266745D02*
X0401348Y0266745D01*
X0401348Y0267743D02*
X0207312Y0267743D01*
X0207355Y0268742D02*
X0401348Y0268742D01*
X0401348Y0269740D02*
X0207355Y0269740D01*
X0207014Y0270739D02*
X0401348Y0270739D01*
X0401348Y0271737D02*
X0206600Y0271737D01*
X0205653Y0272736D02*
X0401348Y0272736D01*
X0401348Y0273734D02*
X0204025Y0273734D01*
X0205361Y0274733D02*
X0401348Y0274733D01*
X0401348Y0275731D02*
X0206360Y0275731D01*
X0206892Y0276730D02*
X0401348Y0276730D01*
X0401348Y0277728D02*
X0207306Y0277728D01*
X0207355Y0278727D02*
X0401348Y0278727D01*
X0401348Y0279725D02*
X0380317Y0279725D01*
X0381262Y0279978D02*
X0384433Y0281809D01*
X0387022Y0284398D01*
X0388852Y0287568D01*
X0389800Y0291105D01*
X0389800Y0294766D01*
X0388852Y0298302D01*
X0387022Y0301473D01*
X0384433Y0304062D01*
X0381262Y0305893D01*
X0377726Y0306840D01*
X0374064Y0306840D01*
X0370528Y0305893D01*
X0367357Y0304062D01*
X0364768Y0301473D01*
X0362938Y0298302D01*
X0361990Y0294766D01*
X0361990Y0291105D01*
X0362938Y0287568D01*
X0364768Y0284398D01*
X0367357Y0281809D01*
X0370528Y0279978D01*
X0374064Y0279031D01*
X0377726Y0279031D01*
X0381262Y0279978D01*
X0382553Y0280724D02*
X0401348Y0280724D01*
X0401348Y0281722D02*
X0384283Y0281722D01*
X0385345Y0282721D02*
X0401348Y0282721D01*
X0401348Y0283719D02*
X0386343Y0283719D01*
X0387206Y0284718D02*
X0401348Y0284718D01*
X0401348Y0285716D02*
X0387783Y0285716D01*
X0388359Y0286715D02*
X0401348Y0286715D01*
X0401348Y0287713D02*
X0388891Y0287713D01*
X0389159Y0288712D02*
X0401348Y0288712D01*
X0401348Y0289710D02*
X0389426Y0289710D01*
X0389694Y0290709D02*
X0401348Y0290709D01*
X0401348Y0291707D02*
X0389800Y0291707D01*
X0389800Y0292706D02*
X0401348Y0292706D01*
X0401348Y0293704D02*
X0389800Y0293704D01*
X0389800Y0294703D02*
X0401348Y0294703D01*
X0401348Y0295701D02*
X0389549Y0295701D01*
X0389282Y0296700D02*
X0401348Y0296700D01*
X0401348Y0297698D02*
X0389014Y0297698D01*
X0388624Y0298697D02*
X0401348Y0298697D01*
X0401348Y0299695D02*
X0388048Y0299695D01*
X0387471Y0300694D02*
X0401348Y0300694D01*
X0401348Y0301692D02*
X0386802Y0301692D01*
X0385804Y0302691D02*
X0401348Y0302691D01*
X0401348Y0303689D02*
X0384805Y0303689D01*
X0383348Y0304688D02*
X0401348Y0304688D01*
X0401348Y0305687D02*
X0381619Y0305687D01*
X0378305Y0306685D02*
X0401348Y0306685D01*
X0401348Y0307684D02*
X0207288Y0307684D01*
X0207355Y0308682D02*
X0401348Y0308682D01*
X0401348Y0309681D02*
X0207355Y0309681D01*
X0207038Y0310679D02*
X0401348Y0310679D01*
X0401348Y0311678D02*
X0206625Y0311678D01*
X0205713Y0312676D02*
X0401348Y0312676D01*
X0373485Y0306685D02*
X0206874Y0306685D01*
X0206315Y0305687D02*
X0370171Y0305687D01*
X0368442Y0304688D02*
X0205316Y0304688D01*
X0204133Y0303689D02*
X0366985Y0303689D01*
X0365986Y0302691D02*
X0205698Y0302691D01*
X0206618Y0301692D02*
X0364988Y0301692D01*
X0364319Y0300694D02*
X0207032Y0300694D01*
X0207355Y0299695D02*
X0363742Y0299695D01*
X0363166Y0298697D02*
X0207355Y0298697D01*
X0207294Y0297698D02*
X0362776Y0297698D01*
X0362508Y0296700D02*
X0206880Y0296700D01*
X0206330Y0295701D02*
X0362241Y0295701D01*
X0361990Y0294703D02*
X0205331Y0294703D01*
X0203247Y0293704D02*
X0361990Y0293704D01*
X0361990Y0292706D02*
X0195683Y0292706D01*
X0196612Y0291707D02*
X0361990Y0291707D01*
X0362096Y0290709D02*
X0197026Y0290709D01*
X0197355Y0289710D02*
X0362364Y0289710D01*
X0362631Y0288712D02*
X0197355Y0288712D01*
X0197300Y0287713D02*
X0362899Y0287713D01*
X0363431Y0286715D02*
X0196886Y0286715D01*
X0196345Y0285716D02*
X0364007Y0285716D01*
X0364584Y0284718D02*
X0195346Y0284718D01*
X0194061Y0283719D02*
X0200249Y0283719D01*
X0198641Y0282721D02*
X0195668Y0282721D01*
X0196606Y0281722D02*
X0197704Y0281722D01*
X0197290Y0280724D02*
X0197020Y0280724D01*
X0196892Y0276730D02*
X0197417Y0276730D01*
X0197950Y0275731D02*
X0196360Y0275731D01*
X0195361Y0274733D02*
X0198949Y0274733D01*
X0200285Y0273734D02*
X0193319Y0273734D01*
X0204061Y0283719D02*
X0365447Y0283719D01*
X0366445Y0282721D02*
X0205668Y0282721D01*
X0206606Y0281722D02*
X0367507Y0281722D01*
X0369237Y0280724D02*
X0207020Y0280724D01*
X0207355Y0279725D02*
X0371473Y0279725D01*
X0397411Y0183868D02*
X0203701Y0183868D01*
X0204474Y0205980D02*
X0196582Y0205980D01*
X0197355Y0207846D01*
X0197355Y0209915D01*
X0196563Y0211826D01*
X0196273Y0212116D01*
X0197168Y0213010D01*
X0198920Y0214762D01*
X0199209Y0214472D01*
X0201120Y0213680D01*
X0203189Y0213680D01*
X0204007Y0214019D01*
X0205882Y0212144D01*
X0205882Y0207388D01*
X0204474Y0205980D01*
X0205328Y0206834D02*
X0196936Y0206834D01*
X0197349Y0207832D02*
X0205882Y0207832D01*
X0205882Y0208831D02*
X0197355Y0208831D01*
X0197355Y0209829D02*
X0205882Y0209829D01*
X0205882Y0210828D02*
X0196977Y0210828D01*
X0196563Y0211826D02*
X0205882Y0211826D01*
X0205201Y0212825D02*
X0196983Y0212825D01*
X0197981Y0213823D02*
X0200775Y0213823D01*
X0203535Y0213823D02*
X0204202Y0213823D01*
X0200393Y0243779D02*
X0193427Y0243779D01*
X0195406Y0244777D02*
X0198904Y0244777D01*
X0197905Y0245776D02*
X0196404Y0245776D01*
X0196911Y0246774D02*
X0197399Y0246774D01*
X0194097Y0293704D02*
X0201062Y0293704D01*
X0198978Y0294703D02*
X0195331Y0294703D01*
X0196330Y0295701D02*
X0197980Y0295701D01*
X0197430Y0296700D02*
X0196880Y0296700D01*
X0197032Y0300694D02*
X0197278Y0300694D01*
X0197691Y0301692D02*
X0196618Y0301692D01*
X0195698Y0302691D02*
X0198612Y0302691D01*
X0144833Y0271737D02*
X0128827Y0271737D01*
X0127828Y0270739D02*
X0144833Y0270739D01*
X0144833Y0269740D02*
X0126830Y0269740D01*
X0125831Y0268742D02*
X0144833Y0268742D01*
X0144833Y0267743D02*
X0124833Y0267743D01*
X0123834Y0266745D02*
X0144833Y0266745D01*
X0144833Y0265746D02*
X0122836Y0265746D01*
X0121837Y0264748D02*
X0144833Y0264748D01*
X0144833Y0263749D02*
X0120468Y0263749D01*
X0134037Y0238786D02*
X0144833Y0238786D01*
X0144833Y0237788D02*
X0135544Y0237788D01*
X0136543Y0236789D02*
X0144833Y0236789D01*
X0144833Y0235791D02*
X0137088Y0235791D01*
X0137502Y0234792D02*
X0144212Y0234792D01*
X0143214Y0233794D02*
X0137776Y0233794D01*
X0137776Y0232795D02*
X0142215Y0232795D01*
X0141217Y0231797D02*
X0137776Y0231797D01*
X0137487Y0230798D02*
X0140218Y0230798D01*
X0139220Y0229800D02*
X0137073Y0229800D01*
X0136506Y0228801D02*
X0138221Y0228801D01*
X0137223Y0227803D02*
X0135508Y0227803D01*
X0136224Y0226804D02*
X0133949Y0226804D01*
X0050928Y0339636D02*
X0015797Y0339636D01*
X0015797Y0340634D02*
X0049726Y0340634D01*
X0392870Y0132944D02*
X0401348Y0132944D01*
X0401348Y0131946D02*
X0395893Y0131946D01*
X0397622Y0130947D02*
X0401348Y0130947D01*
X0401348Y0129949D02*
X0398934Y0129949D01*
X0399933Y0128950D02*
X0401348Y0128950D01*
X0401348Y0127951D02*
X0400910Y0127951D01*
D30*
X0192155Y0238880D02*
X0179222Y0238880D01*
X0173155Y0232813D01*
X0094911Y0180731D02*
X0089911Y0185731D01*
X0089911Y0204353D01*
X0084714Y0209550D01*
X0065659Y0209550D01*
X0104202Y0140376D02*
X0104202Y0126794D01*
X0105226Y0125770D01*
X0082745Y0105691D02*
X0082706Y0105731D01*
X0069202Y0119235D01*
X0036919Y0119235D01*
X0082745Y0105691D02*
X0082745Y0078605D01*
X0078080Y0073939D01*
X0084005Y0068014D01*
X0084005Y0054904D01*
X0104005Y0054904D01*
X0104005Y0034904D01*
X0084005Y0034904D01*
X0073690Y0069550D02*
X0065659Y0069550D01*
X0073690Y0069550D02*
X0078080Y0073939D01*
X0131249Y0054904D02*
X0131249Y0034904D01*
X0131249Y0054904D02*
X0131997Y0055652D01*
X0151249Y0054904D02*
X0151249Y0034904D01*
X0151249Y0054904D02*
X0151682Y0055337D01*
X0173155Y0305813D02*
X0176222Y0308880D01*
X0192155Y0308880D01*
X0099911Y0327057D02*
X0099911Y0327266D01*
X0095304Y0327266D01*
X0075698Y0346872D01*
X0099911Y0327057D02*
X0078667Y0305813D01*
D31*
X0164281Y0325416D02*
X0168218Y0329353D01*
X0168218Y0337424D01*
X0170186Y0339392D01*
X0175698Y0339392D01*
X0185147Y0329943D01*
X0185147Y0317187D01*
X0188454Y0313880D01*
X0197155Y0313880D01*
X0202155Y0308880D01*
X0202155Y0318880D02*
X0197155Y0323880D01*
X0189123Y0323880D01*
X0187115Y0325888D01*
X0187115Y0330928D01*
X0176682Y0341361D01*
X0167824Y0341361D01*
X0164281Y0337817D01*
X0164281Y0333290D01*
X0202155Y0238880D02*
X0202194Y0238880D01*
X0210934Y0230140D01*
X0210934Y0198172D01*
X0206643Y0193880D01*
X0187824Y0193880D01*
X0157588Y0163644D01*
X0157588Y0137424D01*
X0154675Y0142384D02*
X0154675Y0165219D01*
X0185423Y0195967D01*
X0185423Y0199668D01*
X0189635Y0203880D01*
X0205344Y0203880D01*
X0207982Y0206518D01*
X0207982Y0213014D01*
X0202155Y0218841D01*
X0202155Y0218880D01*
X0197155Y0215967D02*
X0195068Y0213880D01*
X0188927Y0213880D01*
X0181604Y0206557D01*
X0181604Y0197424D01*
X0151564Y0167384D01*
X0151564Y0147148D01*
X0141840Y0137424D01*
X0149714Y0137424D02*
X0154675Y0142384D01*
X0167667Y0132384D02*
X0169399Y0134117D01*
X0169399Y0150573D01*
X0173100Y0154274D01*
X0186761Y0154274D01*
X0192155Y0148880D01*
X0187982Y0143880D02*
X0184911Y0140809D01*
X0184911Y0133408D01*
X0175777Y0124274D01*
X0131919Y0124274D01*
X0106919Y0099274D01*
X0091564Y0099274D01*
X0087706Y0103132D01*
X0087706Y0106991D01*
X0094084Y0113369D01*
X0094084Y0159077D01*
X0096525Y0156636D01*
X0103848Y0156636D01*
X0103848Y0166577D02*
X0103848Y0166636D01*
X0103848Y0179668D01*
X0104911Y0180731D01*
X0103848Y0166577D02*
X0089084Y0166577D01*
X0084084Y0159077D02*
X0084084Y0187542D01*
X0072115Y0199510D01*
X0065698Y0199510D01*
X0065659Y0199550D01*
X0118218Y0151046D02*
X0122155Y0154983D01*
X0133612Y0154983D01*
X0178139Y0199510D01*
X0178139Y0209156D01*
X0187942Y0218959D01*
X0192076Y0218959D01*
X0192155Y0218880D01*
X0197155Y0215967D02*
X0197155Y0223880D01*
X0202155Y0228880D01*
X0118218Y0151046D02*
X0118218Y0137424D01*
X0122155Y0133565D02*
X0127588Y0128132D01*
X0131131Y0132384D02*
X0126092Y0137424D01*
X0122155Y0133565D02*
X0122155Y0144983D01*
X0131131Y0132384D02*
X0167667Y0132384D01*
X0173336Y0137424D02*
X0173336Y0146203D01*
X0174399Y0147266D01*
X0187982Y0143880D02*
X0197155Y0143880D01*
X0202155Y0148880D01*
X0141840Y0066557D02*
X0141840Y0045494D01*
X0141249Y0044904D01*
X0094005Y0044904D02*
X0070304Y0044904D01*
X0065659Y0049550D01*
D32*
X0036919Y0179235D02*
X0036919Y0197502D01*
X0036919Y0217502D02*
X0036919Y0228624D01*
X0036667Y0232813D01*
X0099911Y0228998D02*
X0103726Y0232813D01*
X0121155Y0232813D01*
X0099911Y0248998D02*
X0099911Y0267266D01*
D33*
X0131155Y0305813D02*
X0131155Y0317250D01*
X0131210Y0317306D01*
X0036801Y0317306D02*
X0036667Y0317172D01*
X0036667Y0305813D01*
D34*
X0109911Y0218132D02*
X0125698Y0218132D01*
X0109911Y0218132D02*
X0109911Y0204353D01*
X0099911Y0194353D01*
X0099911Y0188231D01*
X0104911Y0180731D02*
X0117470Y0180731D01*
X0117470Y0194550D01*
X0153257Y0230337D01*
X0153257Y0322266D01*
X0156407Y0325416D01*
X0065659Y0179550D02*
X0052549Y0179550D01*
X0048730Y0175731D01*
X0040423Y0175731D01*
X0036919Y0179235D01*
X0036919Y0166361D01*
X0062903Y0140376D01*
X0084202Y0140376D01*
X0087706Y0136872D01*
X0087706Y0113231D01*
X0092706Y0105731D02*
X0105186Y0105731D01*
X0105226Y0105770D01*
X0127588Y0128132D01*
X0173887Y0128132D01*
X0179241Y0133487D01*
X0179241Y0142424D01*
X0174399Y0147266D01*
M02*
