%
M48
M72
T01C0.03543
T02C0.03150
T03C0.03937
T04C0.04331
T05C0.05118
T06C0.01969
T07C0.02362
T08C0.02756
T09C0.10827
T10C0.01181
%
T01
X26667Y217065
X36667Y217065
X68667Y217065
X78667Y217065
X26667Y290065
X36667Y290065
X68667Y290065
X78667Y290065
X121155Y236750
X131155Y236750
X163155Y236750
X173155Y236750
X121155Y309750
X131155Y309750
X173155Y309750
X163155Y309750
X192155Y328880
X192155Y318880
X192155Y308880
X192155Y298880
X192155Y288880
X192155Y278880
X192155Y268880
X192155Y258880
X192155Y248880
X192155Y238880
X192155Y228880
X192155Y218880
X192155Y208880
X192155Y198880
X192155Y188880
X192155Y178880
X192155Y168880
X192155Y158880
X192155Y148880
X192155Y138880
X202155Y328880
X202155Y318880
X202155Y308880
X202155Y298880
X202155Y288880
X202155Y278880
X202155Y268880
X202155Y258880
X202155Y248880
X202155Y238880
X202155Y228880
X202155Y218880
X202155Y208880
X202155Y198880
X202155Y188880
X202155Y178880
X202155Y168880
X202155Y158880
X202155Y148880
X202155Y138880
X158848Y214195
X148848Y214195
X138848Y214195
T02
X101879Y296518
X101879Y316518
T03
X103828Y44904
X158159Y44904
T04
X99911Y273723
X99911Y213723
X114163Y191951
X54163Y191951
T05
X168159Y54904
X168159Y34904
X148159Y34904
X148159Y54904
X113828Y54904
X113828Y34904
X93828Y54904
X93828Y34904
X65856Y346872
X46171Y346872
T06
X119163Y202424
X129163Y202424
X138848Y196479
X148848Y196479
X169399Y150770
X169399Y130770
X167745Y165573
X177745Y165573
X167745Y156912
X177745Y156912
X174714Y204195
X174714Y214195
T07
X138848Y183487
X133848Y175987
X128848Y183487
X167844Y175731
X160344Y180731
X167844Y185731
X95462Y166951
X90462Y174451
X85462Y166951
T08
X156407Y325416
X164281Y325416
X172155Y325416
X156407Y333290
X164281Y333290
X172155Y333290
T09
X41249Y96085
X375895Y292935
X390068Y348054
X197155Y348054
X197155Y119707
X390068Y119707
T10
X156505Y114825
X25895Y38998
X52175Y38998
X78257Y38998
X130423Y38998
X180619Y38998
X391249Y140613
X339084Y140613
X286919Y140613
X26092Y140613
X234753Y140613
X313001Y100258
X286919Y100258
X260836Y100258
X234753Y100258
X208671Y100258
X260836Y120435
X313001Y120435
X339084Y120435
X365167Y120435
X391249Y166498
X365167Y166498
X313001Y166498
X260836Y166498
X391249Y192424
X339084Y192424
X286919Y192424
X25895Y192424
X234753Y192424
X391249Y218349
X365167Y218349
X313001Y218349
X260836Y218349
X157588Y223250
X181604Y223250
X391249Y244274
X339084Y244274
X286919Y244274
X234753Y244274
X181604Y244274
X107588Y209274
X123336Y209274
X104340Y114825
X90068Y299825
X52175Y114825
X25895Y114825
X391249Y269117
X365167Y269117
X313001Y269117
X260836Y269117
X52175Y167896
X25895Y167896
X52175Y294904
X25895Y240337
X52175Y240337
X157588Y266243
X25895Y266243
X130423Y282109
X391249Y296085
X339084Y296085
X286919Y296085
X234753Y296085
X181604Y296085
X391249Y323054
X365167Y323054
X313001Y323054
X260836Y323054
X130423Y323054
X25895Y323054
X365167Y350022
X339084Y350022
X313001Y350022
X286919Y350022
X260836Y350022
X234753Y350022
X182194Y350022
X156505Y350022
X130423Y350022
X104340Y350022
X78257Y350022
X25895Y350022
X52175Y63900
X25895Y63900
X180619Y63900
X80482Y148250
X85482Y135298
X101367Y130928
X110147Y143329
X144812Y136912
X126505Y156912
X101289Y156912
X90482Y136912
X72175Y156912
X134812Y148250
X139812Y135298
X121466Y130928
X156505Y71676
X104340Y71676
X159714Y141951
X180619Y88802
X130423Y88802
X78257Y88802
X26092Y88802
X78257Y327975
X56210Y143329
X25895Y297857
X111328Y176597
X161919Y161833
X165068Y208290
X185541Y208290
X104340Y249628
X101879Y187030
M30
