M48
;GenerationSoftware,Autodesk,EAGLE,9.6.2*%
;CreationDate,2025-01-07T20:55:55Z*%
FMAT,2
ICI,OFF
METRIC,TZ,000.000
T01C2.700
T02C2.500
T03C0.450
T04C0.500
T05C0.600
T06C0.700
T07C0.800
T08C0.900
T09C1.000
T10C1.100
T11C1.200
T12C1.300
T13C0.300
%
G90
M71
T01
X93000Y80000
X44000Y80000
X93000Y22000
X44000Y22000
T02
X92100Y66000
X7100Y16000
T03
T04
X51800Y75130
X51800Y70050
X49600Y75130
X49600Y70050
X49600Y59540
X49600Y54460
X57440Y68000
X52360Y68000
X54000Y75130
X54000Y70050
X38470Y56080
X38470Y53540
X38470Y51270
X38470Y48730
X38950Y45350
X38950Y42810
X38470Y61100
X35930Y61100
X38950Y39000
X33870Y39000
X38950Y36500
X33870Y36500
X33500Y67020
X33500Y64480
X31070Y61100
X28530Y61100
X38470Y59000
X35930Y59000
X38100Y70830
X38100Y68290
X28900Y70830
X28900Y68290
X31070Y59000
X28530Y59000
X29060Y49540
X26520Y49540
X25670Y46500
X23130Y46500
X25670Y44130
X23130Y44130
X25970Y64700
X23430Y64700
X25970Y62350
X23430Y62350
X25170Y36000
X22630Y36000
X9450Y67500
X4370Y67500
T05
X38770Y65250
X37500Y63345
X36230Y65250
X30000Y38480
X28095Y39750
X30000Y41020
X30770Y65250
X29500Y63345
X28230Y65250
X29060Y46670
X30965Y45400
X29060Y44130
X26370Y69560
X25100Y67655
X23830Y69560
X20270Y39400
X19000Y41305
X17730Y39400
T06
X11610Y71250
X3990Y71250
X4370Y44040
X4370Y38960
T07
X35520Y54050
X32980Y54050
X36020Y44250
X33480Y44250
T08
X29060Y54050
X26520Y54050
X23980Y54050
X21440Y54050
X45270Y75130
X45270Y72590
X45270Y70050
X45270Y67510
X45270Y64970
X45270Y62430
X45270Y59890
X45270Y57350
X45270Y54810
X45270Y52270
X45270Y49730
X45270Y47190
X45270Y44650
X45270Y42110
X45270Y39570
X45270Y37030
X45270Y34490
X45270Y31950
X45270Y29410
X45270Y26870
X42730Y75130
X42730Y72590
X42730Y70050
X42730Y67510
X42730Y64970
X42730Y62430
X42730Y59890
X42730Y57350
X42730Y54810
X42730Y52270
X42730Y49730
X42730Y47190
X42730Y44650
X42730Y42110
X42730Y39570
X42730Y37030
X42730Y34490
X42730Y31950
X42730Y29410
X42730Y26870
T09
X27100Y4800
X14540Y30000
X9460Y30000
T10
X17100Y61000
X14560Y61000
X5640Y61000
X3100Y61000
X17100Y50000
X14560Y50000
X5640Y50000
X3100Y50000
T11
X12100Y78200
X7100Y78200
T12
X24560Y7340
X29640Y2260
X24560Y2260
X29640Y7340
T13
X41500Y1000
X9100Y81000
X1000Y1000
X1000Y7800
X1000Y16100
X1000Y24400
X1000Y32700
X1000Y49300
X1000Y57600
X1000Y65900
X1000Y74200
X1000Y81000
X2000Y41000
X25300Y16100
X17200Y23500
X33400Y24400
X41100Y24500
X9100Y65900
X9100Y1000
X10900Y16100
X73900Y82500
X73900Y72495
X32880Y68310
X34120Y68310
X53030Y60590
X56150Y61570
X25680Y56900
X19736Y56790
X15740Y45180
X37825Y45570
X11456Y45180
X19155Y42495
X27500Y46018
X24620Y50180
X30182Y46674
X19956Y74200
X27785Y52267
X28090Y44768
X73900Y44010
X82000Y31180
X73900Y18350
X33400Y7800
X65800Y82500
X65800Y56840
X50070Y63650
X49630Y71280
X49630Y68780
X40560Y49350
X40560Y48110
X41380Y67050
X41380Y26260
X46660Y74435
X9100Y32950
X26230Y31700
X57550Y62730
X17200Y1000
X40550Y56750
X65800Y18350
X57700Y82500
X57700Y72495
X57700Y44010
X46620Y56040
X65800Y31180
X57700Y18350
X49600Y82500
X17200Y7800
X33400Y1000
X41030Y75345
X49600Y31180
X37440Y43440
X39700Y40125
X34300Y75135
X32700Y75135
X31930Y39130
X24250Y37160
X49600Y18350
X41250Y82500
X41500Y16100
X41500Y7800
X33400Y81000
X25300Y81000
X17200Y81000
X23910Y41000
X82000Y82500
X82000Y56840
X82000Y18350
X90100Y82500
X90100Y69670
X90100Y44010
X90100Y18350
X98200Y81000
X28870Y38620
X98200Y69670
X98200Y56840
X98200Y31180
X98200Y18350
X97200Y44010
X58640Y63650
X52980Y58890
X53350Y66840
X51530Y63650
X46610Y52380
X46610Y50560
M30