G04 This is an RS-274x file exported by *
G04 gerbv version 2.6A *
G04 More information is available about gerbv at *
G04 http://gerbv.geda-project.org/ *
G04 --End of header info--*
%MOIN*%
%FSLAX34Y34*%
%IPPOS*%
G04 --Define apertures--*
%ADD10C,0.0000*%
%ADD11C,0.0768*%
%AMMACRO12*
5,1,8,0.000000,0.000000,0.051955,22.500000*
%
%ADD12MACRO12*%
%ADD13C,0.0885*%
%ADD14C,0.0669*%
%ADD15C,0.0740*%
%AMMACRO16*
5,1,8,0.000000,0.000000,0.057529,22.500000*
%
%ADD16MACRO16*%
%ADD17C,0.0984*%
%ADD18C,0.0650*%
%ADD19R,0.0540X0.0540*%
%ADD20C,0.0540*%
%ADD21C,0.0532*%
%ADD22C,0.0760*%
%ADD23C,0.1000*%
%ADD24R,0.0650X0.0650*%
%ADD25C,0.0100*%
%ADD26C,0.0317*%
G04 --Start main section--*
G54D10*
G01X0001330Y0002719D02*
G01X0001330Y0017286D01*
G01X0001330Y0017286D02*
G01X0001723Y0017286D01*
G01X0001723Y0017286D02*
G01X0001723Y0021616D01*
G01X0001723Y0021616D02*
G01X0001330Y0021616D01*
G01X0001330Y0021616D02*
G01X0001330Y0036183D01*
G01X0001330Y0036183D02*
G01X0039204Y0036183D01*
G01X0039204Y0036183D02*
G01X0039232Y0036183D01*
G01X0039232Y0036183D02*
G01X0039261Y0036182D01*
G01X0039261Y0036182D02*
G01X0039289Y0036180D01*
G01X0039289Y0036180D02*
G01X0039318Y0036178D01*
G01X0039318Y0036178D02*
G01X0039346Y0036175D01*
G01X0039346Y0036175D02*
G01X0039374Y0036171D01*
G01X0039374Y0036171D02*
G01X0039403Y0036166D01*
G01X0039403Y0036166D02*
G01X0039431Y0036161D01*
G01X0039431Y0036161D02*
G01X0039459Y0036156D01*
G01X0039459Y0036156D02*
G01X0039486Y0036149D01*
G01X0039486Y0036149D02*
G01X0039514Y0036142D01*
G01X0039514Y0036142D02*
G01X0039541Y0036134D01*
G01X0039541Y0036134D02*
G01X0039569Y0036126D01*
G01X0039569Y0036126D02*
G01X0039596Y0036116D01*
G01X0039596Y0036116D02*
G01X0039623Y0036107D01*
G01X0039623Y0036107D02*
G01X0039649Y0036096D01*
G01X0039649Y0036096D02*
G01X0039675Y0036085D01*
G01X0039675Y0036085D02*
G01X0039701Y0036073D01*
G01X0039701Y0036073D02*
G01X0039727Y0036061D01*
G01X0039727Y0036061D02*
G01X0039753Y0036048D01*
G01X0039753Y0036048D02*
G01X0039778Y0036034D01*
G01X0039778Y0036034D02*
G01X0039803Y0036020D01*
G01X0039803Y0036020D02*
G01X0039827Y0036006D01*
G01X0039827Y0036006D02*
G01X0039851Y0035990D01*
G01X0039851Y0035990D02*
G01X0039875Y0035974D01*
G01X0039875Y0035974D02*
G01X0039898Y0035958D01*
G01X0039898Y0035958D02*
G01X0039921Y0035941D01*
G01X0039921Y0035941D02*
G01X0039943Y0035923D01*
G01X0039943Y0035923D02*
G01X0039965Y0035905D01*
G01X0039965Y0035905D02*
G01X0039987Y0035886D01*
G01X0039987Y0035886D02*
G01X0040008Y0035867D01*
G01X0040008Y0035867D02*
G01X0040029Y0035847D01*
G01X0040029Y0035847D02*
G01X0040049Y0035827D01*
G01X0040049Y0035827D02*
G01X0040069Y0035807D01*
G01X0040069Y0035807D02*
G01X0040088Y0035785D01*
G01X0040088Y0035785D02*
G01X0040106Y0035764D01*
G01X0040106Y0035764D02*
G01X0040125Y0035742D01*
G01X0040125Y0035742D02*
G01X0040142Y0035719D01*
G01X0040142Y0035719D02*
G01X0040159Y0035696D01*
G01X0040159Y0035696D02*
G01X0040176Y0035673D01*
G01X0040176Y0035673D02*
G01X0040192Y0035650D01*
G01X0040192Y0035650D02*
G01X0040207Y0035625D01*
G01X0040207Y0035625D02*
G01X0040222Y0035601D01*
G01X0040222Y0035601D02*
G01X0040236Y0035576D01*
G01X0040236Y0035576D02*
G01X0040249Y0035551D01*
G01X0040249Y0035551D02*
G01X0040263Y0035526D01*
G01X0040263Y0035526D02*
G01X0040275Y0035500D01*
G01X0040275Y0035500D02*
G01X0040287Y0035474D01*
G01X0040287Y0035474D02*
G01X0040298Y0035448D01*
G01X0040298Y0035448D02*
G01X0040308Y0035421D01*
G01X0040308Y0035421D02*
G01X0040318Y0035394D01*
G01X0040318Y0035394D02*
G01X0040327Y0035367D01*
G01X0040327Y0035367D02*
G01X0040336Y0035340D01*
G01X0040336Y0035340D02*
G01X0040343Y0035313D01*
G01X0040343Y0035313D02*
G01X0040351Y0035285D01*
G01X0040351Y0035285D02*
G01X0040357Y0035257D01*
G01X0040357Y0035257D02*
G01X0040363Y0035229D01*
G01X0040363Y0035229D02*
G01X0040368Y0035201D01*
G01X0040368Y0035201D02*
G01X0040372Y0035173D01*
G01X0040372Y0035173D02*
G01X0040376Y0035145D01*
G01X0040376Y0035145D02*
G01X0040379Y0035116D01*
G01X0040379Y0035116D02*
G01X0040382Y0035088D01*
G01X0040382Y0035088D02*
G01X0040383Y0035059D01*
G01X0040383Y0035059D02*
G01X0040385Y0035031D01*
G01X0040385Y0035031D02*
G01X0040385Y0035002D01*
G01X0040385Y0035002D02*
G01X0040385Y0021616D01*
G01X0040385Y0021616D02*
G01X0039991Y0021616D01*
G01X0039991Y0021616D02*
G01X0039991Y0017286D01*
G01X0039991Y0017286D02*
G01X0040385Y0017286D01*
G01X0040385Y0017286D02*
G01X0040385Y0011912D01*
G01X0040385Y0011912D02*
G01X0040385Y0011883D01*
G01X0040385Y0011883D02*
G01X0040383Y0011855D01*
G01X0040383Y0011855D02*
G01X0040382Y0011826D01*
G01X0040382Y0011826D02*
G01X0040379Y0011798D01*
G01X0040379Y0011798D02*
G01X0040376Y0011769D01*
G01X0040376Y0011769D02*
G01X0040372Y0011741D01*
G01X0040372Y0011741D02*
G01X0040368Y0011713D01*
G01X0040368Y0011713D02*
G01X0040363Y0011685D01*
G01X0040363Y0011685D02*
G01X0040357Y0011657D01*
G01X0040357Y0011657D02*
G01X0040351Y0011629D01*
G01X0040351Y0011629D02*
G01X0040343Y0011601D01*
G01X0040343Y0011601D02*
G01X0040336Y0011574D01*
G01X0040336Y0011574D02*
G01X0040327Y0011547D01*
G01X0040327Y0011547D02*
G01X0040318Y0011520D01*
G01X0040318Y0011520D02*
G01X0040308Y0011493D01*
G01X0040308Y0011493D02*
G01X0040298Y0011466D01*
G01X0040298Y0011466D02*
G01X0040287Y0011440D01*
G01X0040287Y0011440D02*
G01X0040275Y0011414D01*
G01X0040275Y0011414D02*
G01X0040263Y0011388D01*
G01X0040263Y0011388D02*
G01X0040249Y0011363D01*
G01X0040249Y0011363D02*
G01X0040236Y0011338D01*
G01X0040236Y0011338D02*
G01X0040222Y0011313D01*
G01X0040222Y0011313D02*
G01X0040207Y0011289D01*
G01X0040207Y0011289D02*
G01X0040192Y0011264D01*
G01X0040192Y0011264D02*
G01X0040176Y0011241D01*
G01X0040176Y0011241D02*
G01X0040159Y0011218D01*
G01X0040159Y0011218D02*
G01X0040142Y0011195D01*
G01X0040142Y0011195D02*
G01X0040125Y0011172D01*
G01X0040125Y0011172D02*
G01X0040106Y0011150D01*
G01X0040106Y0011150D02*
G01X0040088Y0011128D01*
G01X0040088Y0011128D02*
G01X0040069Y0011107D01*
G01X0040069Y0011107D02*
G01X0040049Y0011087D01*
G01X0040049Y0011087D02*
G01X0040029Y0011067D01*
G01X0040029Y0011067D02*
G01X0040008Y0011047D01*
G01X0040008Y0011047D02*
G01X0039987Y0011028D01*
G01X0039987Y0011028D02*
G01X0039965Y0011009D01*
G01X0039965Y0011009D02*
G01X0039943Y0010991D01*
G01X0039943Y0010991D02*
G01X0039921Y0010973D01*
G01X0039921Y0010973D02*
G01X0039898Y0010956D01*
G01X0039898Y0010956D02*
G01X0039875Y0010940D01*
G01X0039875Y0010940D02*
G01X0039851Y0010924D01*
G01X0039851Y0010924D02*
G01X0039827Y0010908D01*
G01X0039827Y0010908D02*
G01X0039803Y0010894D01*
G01X0039803Y0010894D02*
G01X0039778Y0010880D01*
G01X0039778Y0010880D02*
G01X0039753Y0010866D01*
G01X0039753Y0010866D02*
G01X0039727Y0010853D01*
G01X0039727Y0010853D02*
G01X0039701Y0010841D01*
G01X0039701Y0010841D02*
G01X0039675Y0010829D01*
G01X0039675Y0010829D02*
G01X0039649Y0010818D01*
G01X0039649Y0010818D02*
G01X0039623Y0010807D01*
G01X0039623Y0010807D02*
G01X0039596Y0010798D01*
G01X0039596Y0010798D02*
G01X0039569Y0010788D01*
G01X0039569Y0010788D02*
G01X0039541Y0010780D01*
G01X0039541Y0010780D02*
G01X0039514Y0010772D01*
G01X0039514Y0010772D02*
G01X0039486Y0010765D01*
G01X0039486Y0010765D02*
G01X0039459Y0010758D01*
G01X0039459Y0010758D02*
G01X0039431Y0010753D01*
G01X0039431Y0010753D02*
G01X0039403Y0010748D01*
G01X0039403Y0010748D02*
G01X0039374Y0010743D01*
G01X0039374Y0010743D02*
G01X0039346Y0010739D01*
G01X0039346Y0010739D02*
G01X0039318Y0010736D01*
G01X0039318Y0010736D02*
G01X0039289Y0010734D01*
G01X0039289Y0010734D02*
G01X0039261Y0010732D01*
G01X0039261Y0010732D02*
G01X0039232Y0010731D01*
G01X0039232Y0010731D02*
G01X0039204Y0010731D01*
G01X0039204Y0010731D02*
G01X0033003Y0010731D01*
G01X0033003Y0010731D02*
G01X0033003Y0009254D01*
G01X0033003Y0009254D02*
G01X0019086Y0009254D01*
G01X0019086Y0009254D02*
G01X0019086Y0002719D01*
G01X0019086Y0002719D02*
G01X0001330Y0002719D01*
G54D11*
G01X0007570Y0034687D03*
G54D12*
G01X0017349Y0021715D03*
G01X0013042Y0018845D03*
G01X0010385Y0017963D03*
G01X0012656Y0014825D03*
G01X0010523Y0012577D03*
G01X0008869Y0010577D03*
G01X0004853Y0017652D03*
G54D13*
G01X0004974Y0020770D02*
G01X0005859Y0020770D01*
G01X0009991Y0032284D02*
G01X0009991Y0033169D01*
G54D16*
G01X0014361Y0019817D03*
G01X0009235Y0008703D03*
G54D17*
G01X0007851Y0023281D02*
G01X0006867Y0023281D01*
G01X0006867Y0030581D02*
G01X0007851Y0030581D01*
G01X0016316Y0030581D02*
G01X0017300Y0030581D01*
G01X0017300Y0023281D02*
G01X0016316Y0023281D01*
G54D18*
G01X0007867Y0023281D03*
G01X0007867Y0030581D03*
G01X0017316Y0030581D03*
G01X0019216Y0030888D03*
G01X0020216Y0028888D03*
G01X0019216Y0026888D03*
G01X0019216Y0023888D03*
G01X0020216Y0020888D03*
G01X0019216Y0018888D03*
G01X0019216Y0016888D03*
G01X0020216Y0013888D03*
G01X0017316Y0023281D03*
G54D20*
G01X0017216Y0033329D03*
G54D21*
G01X0006359Y0016695D02*
G01X0005828Y0016695D01*
G01X0005828Y0008231D02*
G01X0006359Y0008231D01*
G54D23*
G01X0007054Y0005490D03*
G01X0005054Y0005490D03*
G01X0005054Y0003490D03*
G01X0007054Y0003490D03*
G01X0013971Y0003490D03*
G01X0015971Y0005490D03*
G01X0015971Y0003490D03*
G01X0013971Y0005490D03*
G54D25*
G01X0019721Y0032865D02*
G01X0019710Y0032865D01*
G01X0019710Y0032790D02*
G01X0019635Y0032608D01*
G01X0019635Y0032608D02*
G01X0019496Y0032469D01*
G01X0019496Y0032469D02*
G01X0019314Y0032393D01*
G01X0019314Y0032393D02*
G01X0019117Y0032393D01*
G01X0019117Y0032393D02*
G01X0018935Y0032469D01*
G01X0018935Y0032469D02*
G01X0018796Y0032608D01*
G01X0018796Y0032608D02*
G01X0018721Y0032790D01*
G01X0018721Y0032790D02*
G01X0018721Y0032987D01*
G01X0018721Y0032987D02*
G01X0018796Y0033168D01*
G01X0018796Y0033168D02*
G01X0018935Y0033308D01*
G01X0018935Y0033308D02*
G01X0019117Y0033383D01*
G01X0019117Y0033383D02*
G01X0019314Y0033383D01*
G01X0019314Y0033383D02*
G01X0019496Y0033308D01*
G01X0019496Y0033308D02*
G01X0019635Y0033168D01*
G01X0019635Y0033168D02*
G01X0019710Y0032987D01*
G01X0019710Y0032987D02*
G01X0019710Y0032790D01*
G01X0019700Y0032765D02*
G01X0019721Y0032765D01*
G01X0019721Y0032666D02*
G01X0019659Y0032666D01*
G01X0019721Y0032566D02*
G01X0019593Y0032566D01*
G01X0019489Y0032466D02*
G01X0019748Y0032466D01*
G01X0019721Y0032493D02*
G01X0019820Y0032393D01*
G01X0019820Y0032393D02*
G01X0020611Y0032393D01*
G01X0020611Y0032393D02*
G01X0020710Y0032493D01*
G01X0020710Y0032493D02*
G01X0020710Y0033283D01*
G01X0020710Y0033283D02*
G01X0020611Y0033383D01*
G01X0020611Y0033383D02*
G01X0019820Y0033383D01*
G01X0019820Y0033383D02*
G01X0019721Y0033283D01*
G01X0019721Y0033283D02*
G01X0019721Y0032493D01*
G01X0019935Y0032308D02*
G01X0019796Y0032168D01*
G01X0019796Y0032168D02*
G01X0019721Y0031987D01*
G01X0019721Y0031987D02*
G01X0019721Y0031790D01*
G01X0019721Y0031790D02*
G01X0019796Y0031608D01*
G01X0019796Y0031608D02*
G01X0019935Y0031469D01*
G01X0019935Y0031469D02*
G01X0020117Y0031393D01*
G01X0020117Y0031393D02*
G01X0020314Y0031393D01*
G01X0020314Y0031393D02*
G01X0020496Y0031469D01*
G01X0020496Y0031469D02*
G01X0020635Y0031608D01*
G01X0020635Y0031608D02*
G01X0020710Y0031790D01*
G01X0020710Y0031790D02*
G01X0020710Y0031987D01*
G01X0020710Y0031987D02*
G01X0020635Y0032168D01*
G01X0020635Y0032168D02*
G01X0020496Y0032308D01*
G01X0020496Y0032308D02*
G01X0020314Y0032383D01*
G01X0020314Y0032383D02*
G01X0020117Y0032383D01*
G01X0020117Y0032383D02*
G01X0019935Y0032308D01*
G01X0019894Y0032266D02*
G01X0019537Y0032266D01*
G01X0019496Y0032308D02*
G01X0019314Y0032383D01*
G01X0019314Y0032383D02*
G01X0019117Y0032383D01*
G01X0019117Y0032383D02*
G01X0018935Y0032308D01*
G01X0018935Y0032308D02*
G01X0018796Y0032168D01*
G01X0018796Y0032168D02*
G01X0018721Y0031987D01*
G01X0018721Y0031987D02*
G01X0018721Y0031790D01*
G01X0018721Y0031790D02*
G01X0018796Y0031608D01*
G01X0018796Y0031608D02*
G01X0018935Y0031469D01*
G01X0018935Y0031469D02*
G01X0019117Y0031393D01*
G01X0019117Y0031393D02*
G01X0019314Y0031393D01*
G01X0019314Y0031393D02*
G01X0019496Y0031469D01*
G01X0019496Y0031469D02*
G01X0019635Y0031608D01*
G01X0019635Y0031608D02*
G01X0019710Y0031790D01*
G01X0019710Y0031790D02*
G01X0019710Y0031987D01*
G01X0019710Y0031987D02*
G01X0019635Y0032168D01*
G01X0019635Y0032168D02*
G01X0019496Y0032308D01*
G01X0019355Y0032366D02*
G01X0020076Y0032366D01*
G01X0020355Y0032366D02*
G01X0040135Y0032366D01*
G01X0040135Y0032466D02*
G01X0020683Y0032466D01*
G01X0020710Y0032566D02*
G01X0040135Y0032566D01*
G01X0040135Y0032666D02*
G01X0020710Y0032666D01*
G01X0020710Y0032765D02*
G01X0040135Y0032765D01*
G01X0040135Y0032865D02*
G01X0020710Y0032865D01*
G01X0020710Y0032965D02*
G01X0040135Y0032965D01*
G01X0040135Y0033065D02*
G01X0020710Y0033065D01*
G01X0020710Y0033165D02*
G01X0040135Y0033165D01*
G01X0040135Y0033265D02*
G01X0020710Y0033265D01*
G01X0020629Y0033365D02*
G01X0040135Y0033365D01*
G01X0040135Y0033464D02*
G01X0039222Y0033464D01*
G01X0039185Y0033454D02*
G01X0039528Y0033546D01*
G01X0039528Y0033546D02*
G01X0039836Y0033724D01*
G01X0039836Y0033724D02*
G01X0040088Y0033976D01*
G01X0040088Y0033976D02*
G01X0040135Y0034057D01*
G01X0040135Y0034057D02*
G01X0040135Y0021866D01*
G01X0040135Y0021866D02*
G01X0039941Y0021866D01*
G01X0039941Y0021866D02*
G01X0039850Y0021828D01*
G01X0039850Y0021828D02*
G01X0039779Y0021758D01*
G01X0039779Y0021758D02*
G01X0039741Y0021666D01*
G01X0039741Y0021666D02*
G01X0039741Y0017236D01*
G01X0039741Y0017236D02*
G01X0039779Y0017144D01*
G01X0039779Y0017144D02*
G01X0039850Y0017074D01*
G01X0039850Y0017074D02*
G01X0039941Y0017036D01*
G01X0039941Y0017036D02*
G01X0040135Y0017036D01*
G01X0040135Y0017036D02*
G01X0040135Y0012719D01*
G01X0040135Y0012719D02*
G01X0040088Y0012800D01*
G01X0040088Y0012800D02*
G01X0039836Y0013052D01*
G01X0039836Y0013052D02*
G01X0039528Y0013230D01*
G01X0039528Y0013230D02*
G01X0039185Y0013322D01*
G01X0039185Y0013322D02*
G01X0038829Y0013322D01*
G01X0038829Y0013322D02*
G01X0038485Y0013230D01*
G01X0038485Y0013230D02*
G01X0038177Y0013052D01*
G01X0038177Y0013052D02*
G01X0037926Y0012800D01*
G01X0037926Y0012800D02*
G01X0037748Y0012492D01*
G01X0037748Y0012492D02*
G01X0037656Y0012149D01*
G01X0037656Y0012149D02*
G01X0037656Y0011793D01*
G01X0037656Y0011793D02*
G01X0037748Y0011449D01*
G01X0037748Y0011449D02*
G01X0037926Y0011141D01*
G01X0037926Y0011141D02*
G01X0038086Y0010981D01*
G01X0038086Y0010981D02*
G01X0032953Y0010981D01*
G01X0032953Y0010981D02*
G01X0032861Y0010943D01*
G01X0032861Y0010943D02*
G01X0032791Y0010872D01*
G01X0032791Y0010872D02*
G01X0032753Y0010780D01*
G01X0032753Y0010780D02*
G01X0032753Y0009504D01*
G01X0032753Y0009504D02*
G01X0019036Y0009504D01*
G01X0019036Y0009504D02*
G01X0018944Y0009466D01*
G01X0018944Y0009466D02*
G01X0018874Y0009396D01*
G01X0018874Y0009396D02*
G01X0018836Y0009304D01*
G01X0018836Y0009304D02*
G01X0018836Y0002969D01*
G01X0018836Y0002969D02*
G01X0001580Y0002969D01*
G01X0001580Y0002969D02*
G01X0001580Y0017036D01*
G01X0001580Y0017036D02*
G01X0001773Y0017036D01*
G01X0001773Y0017036D02*
G01X0001865Y0017074D01*
G01X0001865Y0017074D02*
G01X0001935Y0017144D01*
G01X0001935Y0017144D02*
G01X0001973Y0017236D01*
G01X0001973Y0017236D02*
G01X0001973Y0021666D01*
G01X0001973Y0021666D02*
G01X0001935Y0021758D01*
G01X0001935Y0021758D02*
G01X0001865Y0021828D01*
G01X0001865Y0021828D02*
G01X0001773Y0021866D01*
G01X0001773Y0021866D02*
G01X0001580Y0021866D01*
G01X0001580Y0021866D02*
G01X0001580Y0035933D01*
G01X0001580Y0035933D02*
G01X0018967Y0035933D01*
G01X0018967Y0035933D02*
G01X0018886Y0035887D01*
G01X0018886Y0035887D02*
G01X0018634Y0035635D01*
G01X0018634Y0035635D02*
G01X0018457Y0035327D01*
G01X0018457Y0035327D02*
G01X0018364Y0034983D01*
G01X0018364Y0034983D02*
G01X0018364Y0034628D01*
G01X0018364Y0034628D02*
G01X0018457Y0034284D01*
G01X0018457Y0034284D02*
G01X0018634Y0033976D01*
G01X0018634Y0033976D02*
G01X0018886Y0033724D01*
G01X0018886Y0033724D02*
G01X0019194Y0033546D01*
G01X0019194Y0033546D02*
G01X0019538Y0033454D01*
G01X0019538Y0033454D02*
G01X0019893Y0033454D01*
G01X0019893Y0033454D02*
G01X0020237Y0033546D01*
G01X0020237Y0033546D02*
G01X0020545Y0033724D01*
G01X0020545Y0033724D02*
G01X0020797Y0033976D01*
G01X0020797Y0033976D02*
G01X0020974Y0034284D01*
G01X0020974Y0034284D02*
G01X0021067Y0034628D01*
G01X0021067Y0034628D02*
G01X0021067Y0034983D01*
G01X0021067Y0034983D02*
G01X0020974Y0035327D01*
G01X0020974Y0035327D02*
G01X0020797Y0035635D01*
G01X0020797Y0035635D02*
G01X0020545Y0035887D01*
G01X0020545Y0035887D02*
G01X0020464Y0035933D01*
G01X0020464Y0035933D02*
G01X0038258Y0035933D01*
G01X0038258Y0035933D02*
G01X0038177Y0035887D01*
G01X0038177Y0035887D02*
G01X0037926Y0035635D01*
G01X0037926Y0035635D02*
G01X0037748Y0035327D01*
G01X0037748Y0035327D02*
G01X0037656Y0034983D01*
G01X0037656Y0034983D02*
G01X0037656Y0034628D01*
G01X0037656Y0034628D02*
G01X0037748Y0034284D01*
G01X0037748Y0034284D02*
G01X0037926Y0033976D01*
G01X0037926Y0033976D02*
G01X0038177Y0033724D01*
G01X0038177Y0033724D02*
G01X0038485Y0033546D01*
G01X0038485Y0033546D02*
G01X0038829Y0033454D01*
G01X0038829Y0033454D02*
G01X0039185Y0033454D01*
G01X0039559Y0033564D02*
G01X0040135Y0033564D01*
G01X0040135Y0033664D02*
G01X0039732Y0033664D01*
G01X0039876Y0033764D02*
G01X0040135Y0033764D01*
G01X0040135Y0033864D02*
G01X0039976Y0033864D01*
G01X0040076Y0033964D02*
G01X0040135Y0033964D01*
G01X0038791Y0033464D02*
G01X0019931Y0033464D01*
G01X0019802Y0033365D02*
G01X0019358Y0033365D01*
G01X0019500Y0033464D02*
G01X0016848Y0033464D01*
G01X0016868Y0033417D02*
G01X0016801Y0033578D01*
G01X0016801Y0033578D02*
G01X0016677Y0033702D01*
G01X0016677Y0033702D02*
G01X0016516Y0033769D01*
G01X0016516Y0033769D02*
G01X0016341Y0033769D01*
G01X0016341Y0033769D02*
G01X0016179Y0033702D01*
G01X0016179Y0033702D02*
G01X0016055Y0033578D01*
G01X0016055Y0033578D02*
G01X0016034Y0033528D01*
G01X0016034Y0033528D02*
G01X0016014Y0033578D01*
G01X0016014Y0033578D02*
G01X0015890Y0033702D01*
G01X0015890Y0033702D02*
G01X0015728Y0033769D01*
G01X0015728Y0033769D02*
G01X0015553Y0033769D01*
G01X0015553Y0033769D02*
G01X0015391Y0033702D01*
G01X0015391Y0033702D02*
G01X0015268Y0033578D01*
G01X0015268Y0033578D02*
G01X0015201Y0033417D01*
G01X0015201Y0033417D02*
G01X0015201Y0033242D01*
G01X0015201Y0033242D02*
G01X0015268Y0033080D01*
G01X0015268Y0033080D02*
G01X0015391Y0032956D01*
G01X0015391Y0032956D02*
G01X0015441Y0032935D01*
G01X0015441Y0032935D02*
G01X0015391Y0032915D01*
G01X0015391Y0032915D02*
G01X0015268Y0032791D01*
G01X0015268Y0032791D02*
G01X0015201Y0032629D01*
G01X0015201Y0032629D02*
G01X0015201Y0032454D01*
G01X0015201Y0032454D02*
G01X0015268Y0032292D01*
G01X0015268Y0032292D02*
G01X0015391Y0032169D01*
G01X0015391Y0032169D02*
G01X0015553Y0032102D01*
G01X0015553Y0032102D02*
G01X0015728Y0032102D01*
G01X0015728Y0032102D02*
G01X0015890Y0032169D01*
G01X0015890Y0032169D02*
G01X0016014Y0032292D01*
G01X0016014Y0032292D02*
G01X0016034Y0032342D01*
G01X0016034Y0032342D02*
G01X0016055Y0032292D01*
G01X0016055Y0032292D02*
G01X0016179Y0032169D01*
G01X0016179Y0032169D02*
G01X0016341Y0032102D01*
G01X0016341Y0032102D02*
G01X0016516Y0032102D01*
G01X0016516Y0032102D02*
G01X0016677Y0032169D01*
G01X0016677Y0032169D02*
G01X0016776Y0032267D01*
G01X0016776Y0032267D02*
G01X0016776Y0032201D01*
G01X0016776Y0032201D02*
G01X0016875Y0032102D01*
G01X0016875Y0032102D02*
G01X0017556Y0032102D01*
G01X0017556Y0032102D02*
G01X0017656Y0032201D01*
G01X0017656Y0032201D02*
G01X0017656Y0032882D01*
G01X0017656Y0032882D02*
G01X0017556Y0032982D01*
G01X0017556Y0032982D02*
G01X0016875Y0032982D01*
G01X0016875Y0032982D02*
G01X0016776Y0032882D01*
G01X0016776Y0032882D02*
G01X0016776Y0032816D01*
G01X0016776Y0032816D02*
G01X0016677Y0032915D01*
G01X0016677Y0032915D02*
G01X0016627Y0032935D01*
G01X0016627Y0032935D02*
G01X0016677Y0032956D01*
G01X0016677Y0032956D02*
G01X0016801Y0033080D01*
G01X0016801Y0033080D02*
G01X0016868Y0033242D01*
G01X0016868Y0033242D02*
G01X0016868Y0033417D01*
G01X0016868Y0033365D02*
G01X0019073Y0033365D01*
G01X0018892Y0033265D02*
G01X0016868Y0033265D01*
G01X0016836Y0033165D02*
G01X0018795Y0033165D01*
G01X0018753Y0033065D02*
G01X0016786Y0033065D01*
G01X0016859Y0032965D02*
G01X0016686Y0032965D01*
G01X0016727Y0032865D02*
G01X0016776Y0032865D01*
G01X0016775Y0032266D02*
G01X0016776Y0032266D01*
G01X0016810Y0032166D02*
G01X0016672Y0032166D01*
G01X0016184Y0032166D02*
G01X0015884Y0032166D01*
G01X0015987Y0032266D02*
G01X0016081Y0032266D01*
G01X0015397Y0032166D02*
G01X0005848Y0032166D01*
G01X0005876Y0032139D02*
G01X0005734Y0032280D01*
G01X0005734Y0032280D02*
G01X0005548Y0032357D01*
G01X0005548Y0032357D02*
G01X0005347Y0032357D01*
G01X0005347Y0032357D02*
G01X0005162Y0032280D01*
G01X0005162Y0032280D02*
G01X0005020Y0032139D01*
G01X0005020Y0032139D02*
G01X0004943Y0031953D01*
G01X0004943Y0031953D02*
G01X0004943Y0031752D01*
G01X0004943Y0031752D02*
G01X0005020Y0031567D01*
G01X0005020Y0031567D02*
G01X0005162Y0031425D01*
G01X0005162Y0031425D02*
G01X0005347Y0031348D01*
G01X0005347Y0031348D02*
G01X0005548Y0031348D01*
G01X0005548Y0031348D02*
G01X0005734Y0031425D01*
G01X0005734Y0031425D02*
G01X0005876Y0031567D01*
G01X0005876Y0031567D02*
G01X0005952Y0031752D01*
G01X0005952Y0031752D02*
G01X0005952Y0031953D01*
G01X0005952Y0031953D02*
G01X0005876Y0032139D01*
G01X0005905Y0032066D02*
G01X0018754Y0032066D01*
G01X0018721Y0031967D02*
G01X0005947Y0031967D01*
G01X0005952Y0031867D02*
G01X0018721Y0031867D01*
G01X0018730Y0031767D02*
G01X0005952Y0031767D01*
G01X0005917Y0031667D02*
G01X0018772Y0031667D01*
G01X0018837Y0031567D02*
G01X0005876Y0031567D01*
G01X0005776Y0031467D02*
G01X0018938Y0031467D01*
G01X0019493Y0031467D02*
G01X0019938Y0031467D01*
G01X0019837Y0031567D02*
G01X0019594Y0031567D01*
G01X0019660Y0031667D02*
G01X0019772Y0031667D01*
G01X0019730Y0031767D02*
G01X0019701Y0031767D01*
G01X0019710Y0031867D02*
G01X0019721Y0031867D01*
G01X0019721Y0031967D02*
G01X0019710Y0031967D01*
G01X0019677Y0032066D02*
G01X0019754Y0032066D01*
G01X0019795Y0032166D02*
G01X0019636Y0032166D01*
G01X0019076Y0032366D02*
G01X0017656Y0032366D01*
G01X0017656Y0032466D02*
G01X0018942Y0032466D01*
G01X0018838Y0032566D02*
G01X0017656Y0032566D01*
G01X0017656Y0032666D02*
G01X0018772Y0032666D01*
G01X0018731Y0032765D02*
G01X0017656Y0032765D01*
G01X0017656Y0032865D02*
G01X0018721Y0032865D01*
G01X0018721Y0032965D02*
G01X0017572Y0032965D01*
G01X0017656Y0032266D02*
G01X0018894Y0032266D01*
G01X0018795Y0032166D02*
G01X0017621Y0032166D01*
G01X0016807Y0033564D02*
G01X0019163Y0033564D01*
G01X0018990Y0033664D02*
G01X0016715Y0033664D01*
G01X0016528Y0033764D02*
G01X0018846Y0033764D01*
G01X0018746Y0033864D02*
G01X0001580Y0033864D01*
G01X0001580Y0033764D02*
G01X0015541Y0033764D01*
G01X0015741Y0033764D02*
G01X0016328Y0033764D01*
G01X0016141Y0033664D02*
G01X0015928Y0033664D01*
G01X0016020Y0033564D02*
G01X0016049Y0033564D01*
G01X0015354Y0033664D02*
G01X0001580Y0033664D01*
G01X0001580Y0033564D02*
G01X0015262Y0033564D01*
G01X0015220Y0033464D02*
G01X0001580Y0033464D01*
G01X0001580Y0033365D02*
G01X0015201Y0033365D01*
G01X0015201Y0033265D02*
G01X0001580Y0033265D01*
G01X0001580Y0033165D02*
G01X0015232Y0033165D01*
G01X0015283Y0033065D02*
G01X0001580Y0033065D01*
G01X0001580Y0032965D02*
G01X0015382Y0032965D01*
G01X0015342Y0032865D02*
G01X0001580Y0032865D01*
G01X0001580Y0032765D02*
G01X0015257Y0032765D01*
G01X0015216Y0032666D02*
G01X0001580Y0032666D01*
G01X0001580Y0032566D02*
G01X0015201Y0032566D01*
G01X0015201Y0032466D02*
G01X0001580Y0032466D01*
G01X0001580Y0032366D02*
G01X0015237Y0032366D01*
G01X0015294Y0032266D02*
G01X0005748Y0032266D01*
G01X0005148Y0032266D02*
G01X0002748Y0032266D01*
G01X0002734Y0032280D02*
G01X0002548Y0032357D01*
G01X0002548Y0032357D02*
G01X0002347Y0032357D01*
G01X0002347Y0032357D02*
G01X0002162Y0032280D01*
G01X0002162Y0032280D02*
G01X0002020Y0032139D01*
G01X0002020Y0032139D02*
G01X0001943Y0031953D01*
G01X0001943Y0031953D02*
G01X0001943Y0031752D01*
G01X0001943Y0031752D02*
G01X0002020Y0031567D01*
G01X0002020Y0031567D02*
G01X0002162Y0031425D01*
G01X0002162Y0031425D02*
G01X0002347Y0031348D01*
G01X0002347Y0031348D02*
G01X0002548Y0031348D01*
G01X0002548Y0031348D02*
G01X0002734Y0031425D01*
G01X0002734Y0031425D02*
G01X0002876Y0031567D01*
G01X0002876Y0031567D02*
G01X0002952Y0031752D01*
G01X0002952Y0031752D02*
G01X0002952Y0031953D01*
G01X0002952Y0031953D02*
G01X0002876Y0032139D01*
G01X0002876Y0032139D02*
G01X0002734Y0032280D01*
G01X0002848Y0032166D02*
G01X0005048Y0032166D01*
G01X0004990Y0032066D02*
G01X0002905Y0032066D01*
G01X0002947Y0031967D02*
G01X0004949Y0031967D01*
G01X0004943Y0031867D02*
G01X0002952Y0031867D01*
G01X0002952Y0031767D02*
G01X0004943Y0031767D01*
G01X0004978Y0031667D02*
G01X0002917Y0031667D01*
G01X0002876Y0031567D02*
G01X0005020Y0031567D01*
G01X0005119Y0031467D02*
G01X0002776Y0031467D01*
G01X0002595Y0031368D02*
G01X0005300Y0031368D01*
G01X0005595Y0031368D02*
G01X0020080Y0031368D01*
G01X0020117Y0031383D02*
G01X0019935Y0031308D01*
G01X0019935Y0031308D02*
G01X0019796Y0031168D01*
G01X0019796Y0031168D02*
G01X0019721Y0030987D01*
G01X0019721Y0030987D02*
G01X0019721Y0030790D01*
G01X0019721Y0030790D02*
G01X0019796Y0030608D01*
G01X0019796Y0030608D02*
G01X0019935Y0030469D01*
G01X0019935Y0030469D02*
G01X0020117Y0030393D01*
G01X0020117Y0030393D02*
G01X0020314Y0030393D01*
G01X0020314Y0030393D02*
G01X0020496Y0030469D01*
G01X0020496Y0030469D02*
G01X0020635Y0030608D01*
G01X0020635Y0030608D02*
G01X0020710Y0030790D01*
G01X0020710Y0030790D02*
G01X0020710Y0030987D01*
G01X0020710Y0030987D02*
G01X0020635Y0031168D01*
G01X0020635Y0031168D02*
G01X0020496Y0031308D01*
G01X0020496Y0031308D02*
G01X0020314Y0031383D01*
G01X0020314Y0031383D02*
G01X0020117Y0031383D01*
G01X0020351Y0031368D02*
G01X0040135Y0031368D01*
G01X0040135Y0031467D02*
G01X0020493Y0031467D01*
G01X0020594Y0031567D02*
G01X0040135Y0031567D01*
G01X0040135Y0031667D02*
G01X0020660Y0031667D01*
G01X0020701Y0031767D02*
G01X0040135Y0031767D01*
G01X0040135Y0031867D02*
G01X0020710Y0031867D01*
G01X0020710Y0031967D02*
G01X0040135Y0031967D01*
G01X0040135Y0032066D02*
G01X0020677Y0032066D01*
G01X0020636Y0032166D02*
G01X0040135Y0032166D01*
G01X0040135Y0032266D02*
G01X0020537Y0032266D01*
G01X0020536Y0031268D02*
G01X0040135Y0031268D01*
G01X0040135Y0031168D02*
G01X0020635Y0031168D01*
G01X0020677Y0031068D02*
G01X0040135Y0031068D01*
G01X0040135Y0030968D02*
G01X0020710Y0030968D01*
G01X0020710Y0030868D02*
G01X0040135Y0030868D01*
G01X0040135Y0030768D02*
G01X0020702Y0030768D01*
G01X0020660Y0030669D02*
G01X0037349Y0030669D01*
G01X0037406Y0030684D02*
G01X0037053Y0030589D01*
G01X0037053Y0030589D02*
G01X0036736Y0030406D01*
G01X0036736Y0030406D02*
G01X0036477Y0030147D01*
G01X0036477Y0030147D02*
G01X0036294Y0029830D01*
G01X0036294Y0029830D02*
G01X0036199Y0029477D01*
G01X0036199Y0029477D02*
G01X0036199Y0029111D01*
G01X0036199Y0029111D02*
G01X0036294Y0028757D01*
G01X0036294Y0028757D02*
G01X0036477Y0028440D01*
G01X0036477Y0028440D02*
G01X0036736Y0028181D01*
G01X0036736Y0028181D02*
G01X0037053Y0027998D01*
G01X0037053Y0027998D02*
G01X0037406Y0027903D01*
G01X0037406Y0027903D02*
G01X0037773Y0027903D01*
G01X0037773Y0027903D02*
G01X0038126Y0027998D01*
G01X0038126Y0027998D02*
G01X0038443Y0028181D01*
G01X0038443Y0028181D02*
G01X0038702Y0028440D01*
G01X0038702Y0028440D02*
G01X0038885Y0028757D01*
G01X0038885Y0028757D02*
G01X0038980Y0029111D01*
G01X0038980Y0029111D02*
G01X0038980Y0029477D01*
G01X0038980Y0029477D02*
G01X0038885Y0029830D01*
G01X0038885Y0029830D02*
G01X0038702Y0030147D01*
G01X0038702Y0030147D02*
G01X0038443Y0030406D01*
G01X0038443Y0030406D02*
G01X0038126Y0030589D01*
G01X0038126Y0030589D02*
G01X0037773Y0030684D01*
G01X0037773Y0030684D02*
G01X0037406Y0030684D01*
G01X0037017Y0030569D02*
G01X0020596Y0030569D01*
G01X0020496Y0030469D02*
G01X0036844Y0030469D01*
G01X0036699Y0030369D02*
G01X0020347Y0030369D01*
G01X0020314Y0030383D02*
G01X0020117Y0030383D01*
G01X0020117Y0030383D02*
G01X0019935Y0030308D01*
G01X0019935Y0030308D02*
G01X0019796Y0030168D01*
G01X0019796Y0030168D02*
G01X0019721Y0029987D01*
G01X0019721Y0029987D02*
G01X0019721Y0029790D01*
G01X0019721Y0029790D02*
G01X0019796Y0029608D01*
G01X0019796Y0029608D02*
G01X0019935Y0029469D01*
G01X0019935Y0029469D02*
G01X0020117Y0029393D01*
G01X0020117Y0029393D02*
G01X0020314Y0029393D01*
G01X0020314Y0029393D02*
G01X0020496Y0029469D01*
G01X0020496Y0029469D02*
G01X0020635Y0029608D01*
G01X0020635Y0029608D02*
G01X0020710Y0029790D01*
G01X0020710Y0029790D02*
G01X0020710Y0029987D01*
G01X0020710Y0029987D02*
G01X0020635Y0030168D01*
G01X0020635Y0030168D02*
G01X0020496Y0030308D01*
G01X0020496Y0030308D02*
G01X0020314Y0030383D01*
G01X0020084Y0030369D02*
G01X0019347Y0030369D01*
G01X0019314Y0030383D02*
G01X0019117Y0030383D01*
G01X0019117Y0030383D02*
G01X0018935Y0030308D01*
G01X0018935Y0030308D02*
G01X0018796Y0030168D01*
G01X0018796Y0030168D02*
G01X0018721Y0029987D01*
G01X0018721Y0029987D02*
G01X0018721Y0029790D01*
G01X0018721Y0029790D02*
G01X0018796Y0029608D01*
G01X0018796Y0029608D02*
G01X0018935Y0029469D01*
G01X0018935Y0029469D02*
G01X0019117Y0029393D01*
G01X0019117Y0029393D02*
G01X0019314Y0029393D01*
G01X0019314Y0029393D02*
G01X0019496Y0029469D01*
G01X0019496Y0029469D02*
G01X0019635Y0029608D01*
G01X0019635Y0029608D02*
G01X0019710Y0029790D01*
G01X0019710Y0029790D02*
G01X0019710Y0029987D01*
G01X0019710Y0029987D02*
G01X0019635Y0030168D01*
G01X0019635Y0030168D02*
G01X0019496Y0030308D01*
G01X0019496Y0030308D02*
G01X0019314Y0030383D01*
G01X0019084Y0030369D02*
G01X0013744Y0030369D01*
G01X0013778Y0030450D02*
G01X0013778Y0030713D01*
G01X0013778Y0030713D02*
G01X0013677Y0030956D01*
G01X0013677Y0030956D02*
G01X0013491Y0031143D01*
G01X0013491Y0031143D02*
G01X0013247Y0031244D01*
G01X0013247Y0031244D02*
G01X0012000Y0031244D01*
G01X0012000Y0031244D02*
G01X0011756Y0031143D01*
G01X0011756Y0031143D02*
G01X0011570Y0030956D01*
G01X0011570Y0030956D02*
G01X0011469Y0030713D01*
G01X0011469Y0030713D02*
G01X0011469Y0030450D01*
G01X0011469Y0030450D02*
G01X0011570Y0030206D01*
G01X0011570Y0030206D02*
G01X0011756Y0030020D01*
G01X0011756Y0030020D02*
G01X0012000Y0029919D01*
G01X0012000Y0029919D02*
G01X0013247Y0029919D01*
G01X0013247Y0029919D02*
G01X0013491Y0030020D01*
G01X0013491Y0030020D02*
G01X0013677Y0030206D01*
G01X0013677Y0030206D02*
G01X0013778Y0030450D01*
G01X0013778Y0030469D02*
G01X0019935Y0030469D01*
G01X0019835Y0030569D02*
G01X0013778Y0030569D01*
G01X0013778Y0030669D02*
G01X0019771Y0030669D01*
G01X0019730Y0030768D02*
G01X0013755Y0030768D01*
G01X0013713Y0030868D02*
G01X0019721Y0030868D01*
G01X0019721Y0030968D02*
G01X0013665Y0030968D01*
G01X0013565Y0031068D02*
G01X0019754Y0031068D01*
G01X0019796Y0031168D02*
G01X0013430Y0031168D01*
G01X0013703Y0030269D02*
G01X0018897Y0030269D01*
G01X0018797Y0030169D02*
G01X0013640Y0030169D01*
G01X0013540Y0030069D02*
G01X0018755Y0030069D01*
G01X0018721Y0029970D02*
G01X0013369Y0029970D01*
G01X0011878Y0029970D02*
G01X0003920Y0029970D01*
G01X0003798Y0029919D02*
G01X0004042Y0030020D01*
G01X0004042Y0030020D02*
G01X0004228Y0030206D01*
G01X0004228Y0030206D02*
G01X0004329Y0030450D01*
G01X0004329Y0030450D02*
G01X0004329Y0030713D01*
G01X0004329Y0030713D02*
G01X0004228Y0030956D01*
G01X0004228Y0030956D02*
G01X0004042Y0031143D01*
G01X0004042Y0031143D02*
G01X0003798Y0031244D01*
G01X0003798Y0031244D02*
G01X0002551Y0031244D01*
G01X0002551Y0031244D02*
G01X0002307Y0031143D01*
G01X0002307Y0031143D02*
G01X0002121Y0030956D01*
G01X0002121Y0030956D02*
G01X0002020Y0030713D01*
G01X0002020Y0030713D02*
G01X0002020Y0030450D01*
G01X0002020Y0030450D02*
G01X0002121Y0030206D01*
G01X0002121Y0030206D02*
G01X0002307Y0030020D01*
G01X0002307Y0030020D02*
G01X0002551Y0029919D01*
G01X0002551Y0029919D02*
G01X0003798Y0029919D01*
G01X0004091Y0030069D02*
G01X0011707Y0030069D01*
G01X0011607Y0030169D02*
G01X0004191Y0030169D01*
G01X0004254Y0030269D02*
G01X0011544Y0030269D01*
G01X0011503Y0030369D02*
G01X0004295Y0030369D01*
G01X0004329Y0030469D02*
G01X0011469Y0030469D01*
G01X0011469Y0030569D02*
G01X0004329Y0030569D01*
G01X0004329Y0030669D02*
G01X0011469Y0030669D01*
G01X0011492Y0030768D02*
G01X0004306Y0030768D01*
G01X0004265Y0030868D02*
G01X0011533Y0030868D01*
G01X0011582Y0030968D02*
G01X0004216Y0030968D01*
G01X0004117Y0031068D02*
G01X0011681Y0031068D01*
G01X0011817Y0031168D02*
G01X0003981Y0031168D01*
G01X0002368Y0031168D02*
G01X0001580Y0031168D01*
G01X0001580Y0031268D02*
G01X0019895Y0031268D01*
G01X0019897Y0030269D02*
G01X0019534Y0030269D01*
G01X0019634Y0030169D02*
G01X0019797Y0030169D01*
G01X0019755Y0030069D02*
G01X0019676Y0030069D01*
G01X0019710Y0029970D02*
G01X0019721Y0029970D01*
G01X0019721Y0029870D02*
G01X0019710Y0029870D01*
G01X0019702Y0029770D02*
G01X0019729Y0029770D01*
G01X0019770Y0029670D02*
G01X0019661Y0029670D01*
G01X0019597Y0029570D02*
G01X0019834Y0029570D01*
G01X0019934Y0029470D02*
G01X0019498Y0029470D01*
G01X0019496Y0029308D02*
G01X0019314Y0029383D01*
G01X0019314Y0029383D02*
G01X0019117Y0029383D01*
G01X0019117Y0029383D02*
G01X0018935Y0029308D01*
G01X0018935Y0029308D02*
G01X0018796Y0029168D01*
G01X0018796Y0029168D02*
G01X0018721Y0028987D01*
G01X0018721Y0028987D02*
G01X0018721Y0028790D01*
G01X0018721Y0028790D02*
G01X0018796Y0028608D01*
G01X0018796Y0028608D02*
G01X0018935Y0028469D01*
G01X0018935Y0028469D02*
G01X0019117Y0028393D01*
G01X0019117Y0028393D02*
G01X0019314Y0028393D01*
G01X0019314Y0028393D02*
G01X0019496Y0028469D01*
G01X0019496Y0028469D02*
G01X0019635Y0028608D01*
G01X0019635Y0028608D02*
G01X0019710Y0028790D01*
G01X0019710Y0028790D02*
G01X0019710Y0028987D01*
G01X0019710Y0028987D02*
G01X0019635Y0029168D01*
G01X0019635Y0029168D02*
G01X0019496Y0029308D01*
G01X0019533Y0029271D02*
G01X0036199Y0029271D01*
G01X0036199Y0029370D02*
G01X0019344Y0029370D01*
G01X0019087Y0029370D02*
G01X0001580Y0029370D01*
G01X0001580Y0029271D02*
G01X0018898Y0029271D01*
G01X0018798Y0029171D02*
G01X0001580Y0029171D01*
G01X0001580Y0029071D02*
G01X0018756Y0029071D01*
G01X0018721Y0028971D02*
G01X0001580Y0028971D01*
G01X0001580Y0028871D02*
G01X0018721Y0028871D01*
G01X0018728Y0028771D02*
G01X0001580Y0028771D01*
G01X0001580Y0028672D02*
G01X0018770Y0028672D01*
G01X0018832Y0028572D02*
G01X0001580Y0028572D01*
G01X0001580Y0028472D02*
G01X0018932Y0028472D01*
G01X0018935Y0028308D02*
G01X0018796Y0028168D01*
G01X0018796Y0028168D02*
G01X0018721Y0027987D01*
G01X0018721Y0027987D02*
G01X0018721Y0027790D01*
G01X0018721Y0027790D02*
G01X0018796Y0027608D01*
G01X0018796Y0027608D02*
G01X0018935Y0027469D01*
G01X0018935Y0027469D02*
G01X0019117Y0027393D01*
G01X0019117Y0027393D02*
G01X0019314Y0027393D01*
G01X0019314Y0027393D02*
G01X0019496Y0027469D01*
G01X0019496Y0027469D02*
G01X0019635Y0027608D01*
G01X0019635Y0027608D02*
G01X0019710Y0027790D01*
G01X0019710Y0027790D02*
G01X0019710Y0027987D01*
G01X0019710Y0027987D02*
G01X0019635Y0028168D01*
G01X0019635Y0028168D02*
G01X0019496Y0028308D01*
G01X0019496Y0028308D02*
G01X0019314Y0028383D01*
G01X0019314Y0028383D02*
G01X0019117Y0028383D01*
G01X0019117Y0028383D02*
G01X0018935Y0028308D01*
G01X0018900Y0028272D02*
G01X0001580Y0028272D01*
G01X0001580Y0028372D02*
G01X0019091Y0028372D01*
G01X0019340Y0028372D02*
G01X0020091Y0028372D01*
G01X0020117Y0028383D02*
G01X0019935Y0028308D01*
G01X0019935Y0028308D02*
G01X0019796Y0028168D01*
G01X0019796Y0028168D02*
G01X0019721Y0027987D01*
G01X0019721Y0027987D02*
G01X0019721Y0027790D01*
G01X0019721Y0027790D02*
G01X0019796Y0027608D01*
G01X0019796Y0027608D02*
G01X0019935Y0027469D01*
G01X0019935Y0027469D02*
G01X0020117Y0027393D01*
G01X0020117Y0027393D02*
G01X0020314Y0027393D01*
G01X0020314Y0027393D02*
G01X0020496Y0027469D01*
G01X0020496Y0027469D02*
G01X0020635Y0027608D01*
G01X0020635Y0027608D02*
G01X0020710Y0027790D01*
G01X0020710Y0027790D02*
G01X0020710Y0027987D01*
G01X0020710Y0027987D02*
G01X0020635Y0028168D01*
G01X0020635Y0028168D02*
G01X0020496Y0028308D01*
G01X0020496Y0028308D02*
G01X0020314Y0028383D01*
G01X0020314Y0028383D02*
G01X0020117Y0028383D01*
G01X0020340Y0028372D02*
G01X0036545Y0028372D01*
G01X0036458Y0028472D02*
G01X0019499Y0028472D01*
G01X0019599Y0028572D02*
G01X0036401Y0028572D01*
G01X0036343Y0028672D02*
G01X0019661Y0028672D01*
G01X0019703Y0028771D02*
G01X0036290Y0028771D01*
G01X0036263Y0028871D02*
G01X0019710Y0028871D01*
G01X0019710Y0028971D02*
G01X0036236Y0028971D01*
G01X0036210Y0029071D02*
G01X0019675Y0029071D01*
G01X0019633Y0029171D02*
G01X0036199Y0029171D01*
G01X0036199Y0029470D02*
G01X0020498Y0029470D01*
G01X0020597Y0029570D02*
G01X0036224Y0029570D01*
G01X0036251Y0029670D02*
G01X0020661Y0029670D01*
G01X0020702Y0029770D02*
G01X0036278Y0029770D01*
G01X0036317Y0029870D02*
G01X0020710Y0029870D01*
G01X0020710Y0029970D02*
G01X0036374Y0029970D01*
G01X0036432Y0030069D02*
G01X0020676Y0030069D01*
G01X0020634Y0030169D02*
G01X0036499Y0030169D01*
G01X0036599Y0030269D02*
G01X0020534Y0030269D01*
G01X0018934Y0029470D02*
G01X0001580Y0029470D01*
G01X0001580Y0029570D02*
G01X0018834Y0029570D01*
G01X0018770Y0029670D02*
G01X0001580Y0029670D01*
G01X0001580Y0029770D02*
G01X0018729Y0029770D01*
G01X0018721Y0029870D02*
G01X0001580Y0029870D01*
G01X0001580Y0029970D02*
G01X0002429Y0029970D01*
G01X0002258Y0030069D02*
G01X0001580Y0030069D01*
G01X0001580Y0030169D02*
G01X0002158Y0030169D01*
G01X0002095Y0030269D02*
G01X0001580Y0030269D01*
G01X0001580Y0030369D02*
G01X0002054Y0030369D01*
G01X0002020Y0030469D02*
G01X0001580Y0030469D01*
G01X0001580Y0030569D02*
G01X0002020Y0030569D01*
G01X0002020Y0030669D02*
G01X0001580Y0030669D01*
G01X0001580Y0030768D02*
G01X0002043Y0030768D01*
G01X0002085Y0030868D02*
G01X0001580Y0030868D01*
G01X0001580Y0030968D02*
G01X0002133Y0030968D01*
G01X0002233Y0031068D02*
G01X0001580Y0031068D01*
G01X0001580Y0031368D02*
G01X0002300Y0031368D01*
G01X0002119Y0031467D02*
G01X0001580Y0031467D01*
G01X0001580Y0031567D02*
G01X0002020Y0031567D01*
G01X0001978Y0031667D02*
G01X0001580Y0031667D01*
G01X0001580Y0031767D02*
G01X0001943Y0031767D01*
G01X0001943Y0031867D02*
G01X0001580Y0031867D01*
G01X0001580Y0031967D02*
G01X0001949Y0031967D01*
G01X0001990Y0032066D02*
G01X0001580Y0032066D01*
G01X0001580Y0032166D02*
G01X0002048Y0032166D01*
G01X0002148Y0032266D02*
G01X0001580Y0032266D01*
G01X0001580Y0033964D02*
G01X0018647Y0033964D01*
G01X0018584Y0034063D02*
G01X0001580Y0034063D01*
G01X0001580Y0034163D02*
G01X0005419Y0034163D01*
G01X0005491Y0034133D02*
G01X0005712Y0034133D01*
G01X0005712Y0034133D02*
G01X0005915Y0034218D01*
G01X0005915Y0034218D02*
G01X0006071Y0034374D01*
G01X0006071Y0034374D02*
G01X0006155Y0034577D01*
G01X0006155Y0034577D02*
G01X0006155Y0034797D01*
G01X0006155Y0034797D02*
G01X0006071Y0035001D01*
G01X0006071Y0035001D02*
G01X0005915Y0035157D01*
G01X0005915Y0035157D02*
G01X0005712Y0035241D01*
G01X0005712Y0035241D02*
G01X0005491Y0035241D01*
G01X0005491Y0035241D02*
G01X0005288Y0035157D01*
G01X0005288Y0035157D02*
G01X0005132Y0035001D01*
G01X0005132Y0035001D02*
G01X0005048Y0034797D01*
G01X0005048Y0034797D02*
G01X0005048Y0034577D01*
G01X0005048Y0034577D02*
G01X0005132Y0034374D01*
G01X0005132Y0034374D02*
G01X0005288Y0034218D01*
G01X0005288Y0034218D02*
G01X0005491Y0034133D01*
G01X0005242Y0034263D02*
G01X0001580Y0034263D01*
G01X0001580Y0034363D02*
G01X0005142Y0034363D01*
G01X0005095Y0034463D02*
G01X0001580Y0034463D01*
G01X0001580Y0034563D02*
G01X0005053Y0034563D01*
G01X0005048Y0034663D02*
G01X0001580Y0034663D01*
G01X0001580Y0034762D02*
G01X0005048Y0034762D01*
G01X0005074Y0034862D02*
G01X0001580Y0034862D01*
G01X0001580Y0034962D02*
G01X0005116Y0034962D01*
G01X0005193Y0035062D02*
G01X0001580Y0035062D01*
G01X0001580Y0035162D02*
G01X0005300Y0035162D01*
G01X0005903Y0035162D02*
G01X0018412Y0035162D01*
G01X0018386Y0035062D02*
G01X0006010Y0035062D01*
G01X0006087Y0034962D02*
G01X0018364Y0034962D01*
G01X0018364Y0034862D02*
G01X0006128Y0034862D01*
G01X0006155Y0034762D02*
G01X0018364Y0034762D01*
G01X0018364Y0034663D02*
G01X0006155Y0034663D01*
G01X0006149Y0034563D02*
G01X0018382Y0034563D01*
G01X0018409Y0034463D02*
G01X0006108Y0034463D01*
G01X0006060Y0034363D02*
G01X0018435Y0034363D01*
G01X0018468Y0034263D02*
G01X0005961Y0034263D01*
G01X0005784Y0034163D02*
G01X0018526Y0034163D01*
G01X0018439Y0035262D02*
G01X0001580Y0035262D01*
G01X0001580Y0035362D02*
G01X0018477Y0035362D01*
G01X0018534Y0035461D02*
G01X0001580Y0035461D01*
G01X0001580Y0035561D02*
G01X0018592Y0035561D01*
G01X0018660Y0035661D02*
G01X0001580Y0035661D01*
G01X0001580Y0035761D02*
G01X0018760Y0035761D01*
G01X0018860Y0035861D02*
G01X0001580Y0035861D01*
G01X0001580Y0028172D02*
G01X0018800Y0028172D01*
G01X0018756Y0028072D02*
G01X0001580Y0028072D01*
G01X0001580Y0027973D02*
G01X0018721Y0027973D01*
G01X0018721Y0027873D02*
G01X0001580Y0027873D01*
G01X0001580Y0027773D02*
G01X0009848Y0027773D01*
G01X0009869Y0027782D02*
G01X0009644Y0027688D01*
G01X0009644Y0027688D02*
G01X0009472Y0027516D01*
G01X0009472Y0027516D02*
G01X0009379Y0027291D01*
G01X0009379Y0027291D02*
G01X0009379Y0026162D01*
G01X0009379Y0026162D02*
G01X0009472Y0025937D01*
G01X0009472Y0025937D02*
G01X0009644Y0025765D01*
G01X0009644Y0025765D02*
G01X0009869Y0025672D01*
G01X0009869Y0025672D02*
G01X0010113Y0025672D01*
G01X0010113Y0025672D02*
G01X0010338Y0025765D01*
G01X0010338Y0025765D02*
G01X0010510Y0025937D01*
G01X0010510Y0025937D02*
G01X0010604Y0026162D01*
G01X0010604Y0026162D02*
G01X0010604Y0027291D01*
G01X0010604Y0027291D02*
G01X0010510Y0027516D01*
G01X0010510Y0027516D02*
G01X0010338Y0027688D01*
G01X0010338Y0027688D02*
G01X0010113Y0027782D01*
G01X0010113Y0027782D02*
G01X0009869Y0027782D01*
G01X0009629Y0027673D02*
G01X0001580Y0027673D01*
G01X0001580Y0027573D02*
G01X0009529Y0027573D01*
G01X0009454Y0027473D02*
G01X0001580Y0027473D01*
G01X0001580Y0027373D02*
G01X0009413Y0027373D01*
G01X0009379Y0027274D02*
G01X0001580Y0027274D01*
G01X0001580Y0027174D02*
G01X0009379Y0027174D01*
G01X0009379Y0027074D02*
G01X0001580Y0027074D01*
G01X0001580Y0026974D02*
G01X0009379Y0026974D01*
G01X0009379Y0026874D02*
G01X0001580Y0026874D01*
G01X0001580Y0026774D02*
G01X0009379Y0026774D01*
G01X0009379Y0026675D02*
G01X0001580Y0026675D01*
G01X0001580Y0026575D02*
G01X0009379Y0026575D01*
G01X0009379Y0026475D02*
G01X0001580Y0026475D01*
G01X0001580Y0026375D02*
G01X0009379Y0026375D01*
G01X0009379Y0026275D02*
G01X0001580Y0026275D01*
G01X0001580Y0026175D02*
G01X0009379Y0026175D01*
G01X0009415Y0026075D02*
G01X0001580Y0026075D01*
G01X0001580Y0025976D02*
G01X0009456Y0025976D01*
G01X0009533Y0025876D02*
G01X0001580Y0025876D01*
G01X0001580Y0025776D02*
G01X0009633Y0025776D01*
G01X0009859Y0025676D02*
G01X0001580Y0025676D01*
G01X0001580Y0025576D02*
G01X0018828Y0025576D01*
G01X0018796Y0025608D02*
G01X0018935Y0025469D01*
G01X0018935Y0025469D02*
G01X0019117Y0025393D01*
G01X0019117Y0025393D02*
G01X0019314Y0025393D01*
G01X0019314Y0025393D02*
G01X0019496Y0025469D01*
G01X0019496Y0025469D02*
G01X0019635Y0025608D01*
G01X0019635Y0025608D02*
G01X0019710Y0025790D01*
G01X0019710Y0025790D02*
G01X0019710Y0025987D01*
G01X0019710Y0025987D02*
G01X0019635Y0026168D01*
G01X0019635Y0026168D02*
G01X0019496Y0026308D01*
G01X0019496Y0026308D02*
G01X0019314Y0026383D01*
G01X0019314Y0026383D02*
G01X0019117Y0026383D01*
G01X0019117Y0026383D02*
G01X0018935Y0026308D01*
G01X0018935Y0026308D02*
G01X0018796Y0026168D01*
G01X0018796Y0026168D02*
G01X0018721Y0025987D01*
G01X0018721Y0025987D02*
G01X0018721Y0025790D01*
G01X0018721Y0025790D02*
G01X0018796Y0025608D01*
G01X0018768Y0025676D02*
G01X0010123Y0025676D01*
G01X0010099Y0025440D02*
G01X0009884Y0025440D01*
G01X0009884Y0025440D02*
G01X0009685Y0025358D01*
G01X0009685Y0025358D02*
G01X0009533Y0025206D01*
G01X0009533Y0025206D02*
G01X0009451Y0025007D01*
G01X0009451Y0025007D02*
G01X0009451Y0024792D01*
G01X0009451Y0024792D02*
G01X0009533Y0024594D01*
G01X0009533Y0024594D02*
G01X0009685Y0024442D01*
G01X0009685Y0024442D02*
G01X0009884Y0024360D01*
G01X0009884Y0024360D02*
G01X0010099Y0024360D01*
G01X0010099Y0024360D02*
G01X0010297Y0024442D01*
G01X0010297Y0024442D02*
G01X0010449Y0024594D01*
G01X0010449Y0024594D02*
G01X0010531Y0024792D01*
G01X0010531Y0024792D02*
G01X0010531Y0025007D01*
G01X0010531Y0025007D02*
G01X0010449Y0025206D01*
G01X0010449Y0025206D02*
G01X0010297Y0025358D01*
G01X0010297Y0025358D02*
G01X0010099Y0025440D01*
G01X0010252Y0025376D02*
G01X0019102Y0025376D01*
G01X0019117Y0025383D02*
G01X0018935Y0025308D01*
G01X0018935Y0025308D02*
G01X0018796Y0025168D01*
G01X0018796Y0025168D02*
G01X0018721Y0024987D01*
G01X0018721Y0024987D02*
G01X0018721Y0024790D01*
G01X0018721Y0024790D02*
G01X0018796Y0024608D01*
G01X0018796Y0024608D02*
G01X0018935Y0024469D01*
G01X0018935Y0024469D02*
G01X0019117Y0024393D01*
G01X0019117Y0024393D02*
G01X0019314Y0024393D01*
G01X0019314Y0024393D02*
G01X0019496Y0024469D01*
G01X0019496Y0024469D02*
G01X0019635Y0024608D01*
G01X0019635Y0024608D02*
G01X0019710Y0024790D01*
G01X0019710Y0024790D02*
G01X0019710Y0024987D01*
G01X0019710Y0024987D02*
G01X0019635Y0025168D01*
G01X0019635Y0025168D02*
G01X0019496Y0025308D01*
G01X0019496Y0025308D02*
G01X0019314Y0025383D01*
G01X0019314Y0025383D02*
G01X0019117Y0025383D01*
G01X0018928Y0025476D02*
G01X0001580Y0025476D01*
G01X0001580Y0025376D02*
G01X0009731Y0025376D01*
G01X0009604Y0025277D02*
G01X0001580Y0025277D01*
G01X0001580Y0025177D02*
G01X0009521Y0025177D01*
G01X0009480Y0025077D02*
G01X0001580Y0025077D01*
G01X0001580Y0024977D02*
G01X0009451Y0024977D01*
G01X0009451Y0024877D02*
G01X0001580Y0024877D01*
G01X0001580Y0024777D02*
G01X0009457Y0024777D01*
G01X0009499Y0024677D02*
G01X0001580Y0024677D01*
G01X0001580Y0024578D02*
G01X0009550Y0024578D01*
G01X0009650Y0024478D02*
G01X0001580Y0024478D01*
G01X0001580Y0024378D02*
G01X0009840Y0024378D01*
G01X0010142Y0024378D02*
G01X0020105Y0024378D01*
G01X0020117Y0024383D02*
G01X0019935Y0024308D01*
G01X0019935Y0024308D02*
G01X0019796Y0024168D01*
G01X0019796Y0024168D02*
G01X0019721Y0023987D01*
G01X0019721Y0023987D02*
G01X0019721Y0023790D01*
G01X0019721Y0023790D02*
G01X0019796Y0023608D01*
G01X0019796Y0023608D02*
G01X0019935Y0023469D01*
G01X0019935Y0023469D02*
G01X0020117Y0023393D01*
G01X0020117Y0023393D02*
G01X0020314Y0023393D01*
G01X0020314Y0023393D02*
G01X0020496Y0023469D01*
G01X0020496Y0023469D02*
G01X0020635Y0023608D01*
G01X0020635Y0023608D02*
G01X0020710Y0023790D01*
G01X0020710Y0023790D02*
G01X0020710Y0023987D01*
G01X0020710Y0023987D02*
G01X0020635Y0024168D01*
G01X0020635Y0024168D02*
G01X0020496Y0024308D01*
G01X0020496Y0024308D02*
G01X0020314Y0024383D01*
G01X0020314Y0024383D02*
G01X0020117Y0024383D01*
G01X0020117Y0024393D02*
G01X0020314Y0024393D01*
G01X0020314Y0024393D02*
G01X0020496Y0024469D01*
G01X0020496Y0024469D02*
G01X0020635Y0024608D01*
G01X0020635Y0024608D02*
G01X0020710Y0024790D01*
G01X0020710Y0024790D02*
G01X0020710Y0024987D01*
G01X0020710Y0024987D02*
G01X0020635Y0025168D01*
G01X0020635Y0025168D02*
G01X0020496Y0025308D01*
G01X0020496Y0025308D02*
G01X0020314Y0025383D01*
G01X0020314Y0025383D02*
G01X0020117Y0025383D01*
G01X0020117Y0025383D02*
G01X0019935Y0025308D01*
G01X0019935Y0025308D02*
G01X0019796Y0025168D01*
G01X0019796Y0025168D02*
G01X0019721Y0024987D01*
G01X0019721Y0024987D02*
G01X0019721Y0024790D01*
G01X0019721Y0024790D02*
G01X0019796Y0024608D01*
G01X0019796Y0024608D02*
G01X0019935Y0024469D01*
G01X0019935Y0024469D02*
G01X0020117Y0024393D01*
G01X0019926Y0024478D02*
G01X0019505Y0024478D01*
G01X0019605Y0024578D02*
G01X0019826Y0024578D01*
G01X0019767Y0024677D02*
G01X0019664Y0024677D01*
G01X0019705Y0024777D02*
G01X0019726Y0024777D01*
G01X0019721Y0024877D02*
G01X0019710Y0024877D01*
G01X0019710Y0024977D02*
G01X0019721Y0024977D01*
G01X0019758Y0025077D02*
G01X0019673Y0025077D01*
G01X0019627Y0025177D02*
G01X0019804Y0025177D01*
G01X0019904Y0025277D02*
G01X0019527Y0025277D01*
G01X0019504Y0025476D02*
G01X0019928Y0025476D01*
G01X0019935Y0025469D02*
G01X0020117Y0025393D01*
G01X0020117Y0025393D02*
G01X0020314Y0025393D01*
G01X0020314Y0025393D02*
G01X0020496Y0025469D01*
G01X0020496Y0025469D02*
G01X0020635Y0025608D01*
G01X0020635Y0025608D02*
G01X0020710Y0025790D01*
G01X0020710Y0025790D02*
G01X0020710Y0025987D01*
G01X0020710Y0025987D02*
G01X0020635Y0026168D01*
G01X0020635Y0026168D02*
G01X0020496Y0026308D01*
G01X0020496Y0026308D02*
G01X0020314Y0026383D01*
G01X0020314Y0026383D02*
G01X0020117Y0026383D01*
G01X0020117Y0026383D02*
G01X0019935Y0026308D01*
G01X0019935Y0026308D02*
G01X0019796Y0026168D01*
G01X0019796Y0026168D02*
G01X0019721Y0025987D01*
G01X0019721Y0025987D02*
G01X0019721Y0025790D01*
G01X0019721Y0025790D02*
G01X0019796Y0025608D01*
G01X0019796Y0025608D02*
G01X0019935Y0025469D01*
G01X0019828Y0025576D02*
G01X0019603Y0025576D01*
G01X0019663Y0025676D02*
G01X0019768Y0025676D01*
G01X0019726Y0025776D02*
G01X0019705Y0025776D01*
G01X0019710Y0025876D02*
G01X0019721Y0025876D01*
G01X0019721Y0025976D02*
G01X0019710Y0025976D01*
G01X0019674Y0026075D02*
G01X0019758Y0026075D01*
G01X0019803Y0026175D02*
G01X0019628Y0026175D01*
G01X0019528Y0026275D02*
G01X0019903Y0026275D01*
G01X0019935Y0026469D02*
G01X0020117Y0026393D01*
G01X0020117Y0026393D02*
G01X0020314Y0026393D01*
G01X0020314Y0026393D02*
G01X0020496Y0026469D01*
G01X0020496Y0026469D02*
G01X0020635Y0026608D01*
G01X0020635Y0026608D02*
G01X0020710Y0026790D01*
G01X0020710Y0026790D02*
G01X0020710Y0026987D01*
G01X0020710Y0026987D02*
G01X0020635Y0027168D01*
G01X0020635Y0027168D02*
G01X0020496Y0027308D01*
G01X0020496Y0027308D02*
G01X0020314Y0027383D01*
G01X0020314Y0027383D02*
G01X0020117Y0027383D01*
G01X0020117Y0027383D02*
G01X0019935Y0027308D01*
G01X0019935Y0027308D02*
G01X0019796Y0027168D01*
G01X0019796Y0027168D02*
G01X0019721Y0026987D01*
G01X0019721Y0026987D02*
G01X0019721Y0026790D01*
G01X0019721Y0026790D02*
G01X0019796Y0026608D01*
G01X0019796Y0026608D02*
G01X0019935Y0026469D01*
G01X0019929Y0026475D02*
G01X0010604Y0026475D01*
G01X0010604Y0026575D02*
G01X0019829Y0026575D01*
G01X0019768Y0026675D02*
G01X0010604Y0026675D01*
G01X0010604Y0026774D02*
G01X0019727Y0026774D01*
G01X0019721Y0026874D02*
G01X0010604Y0026874D01*
G01X0010604Y0026974D02*
G01X0019721Y0026974D01*
G01X0019757Y0027074D02*
G01X0010604Y0027074D01*
G01X0010604Y0027174D02*
G01X0019801Y0027174D01*
G01X0019901Y0027274D02*
G01X0010604Y0027274D01*
G01X0010569Y0027373D02*
G01X0020094Y0027373D01*
G01X0019931Y0027473D02*
G01X0019501Y0027473D01*
G01X0019600Y0027573D02*
G01X0019831Y0027573D01*
G01X0019769Y0027673D02*
G01X0019662Y0027673D01*
G01X0019703Y0027773D02*
G01X0019728Y0027773D01*
G01X0019721Y0027873D02*
G01X0019710Y0027873D01*
G01X0019710Y0027973D02*
G01X0019721Y0027973D01*
G01X0019756Y0028072D02*
G01X0019675Y0028072D01*
G01X0019631Y0028172D02*
G01X0019800Y0028172D01*
G01X0019900Y0028272D02*
G01X0019531Y0028272D01*
G01X0018728Y0027773D02*
G01X0010134Y0027773D01*
G01X0010353Y0027673D02*
G01X0018769Y0027673D01*
G01X0018831Y0027573D02*
G01X0010453Y0027573D01*
G01X0010528Y0027473D02*
G01X0018931Y0027473D01*
G01X0019098Y0026375D02*
G01X0010604Y0026375D01*
G01X0010604Y0026275D02*
G01X0018903Y0026275D01*
G01X0018803Y0026175D02*
G01X0010604Y0026175D01*
G01X0010568Y0026075D02*
G01X0018758Y0026075D01*
G01X0018721Y0025976D02*
G01X0010526Y0025976D01*
G01X0010449Y0025876D02*
G01X0018721Y0025876D01*
G01X0018726Y0025776D02*
G01X0010349Y0025776D01*
G01X0010378Y0025277D02*
G01X0018904Y0025277D01*
G01X0018804Y0025177D02*
G01X0010461Y0025177D01*
G01X0010502Y0025077D02*
G01X0018758Y0025077D01*
G01X0018721Y0024977D02*
G01X0010531Y0024977D01*
G01X0010531Y0024877D02*
G01X0018721Y0024877D01*
G01X0018726Y0024777D02*
G01X0010525Y0024777D01*
G01X0010483Y0024677D02*
G01X0018767Y0024677D01*
G01X0018826Y0024578D02*
G01X0010433Y0024578D01*
G01X0010333Y0024478D02*
G01X0018926Y0024478D01*
G01X0019759Y0024078D02*
G01X0001580Y0024078D01*
G01X0001580Y0023979D02*
G01X0019721Y0023979D01*
G01X0019721Y0023879D02*
G01X0013404Y0023879D01*
G01X0013491Y0023843D02*
G01X0013247Y0023944D01*
G01X0013247Y0023944D02*
G01X0012000Y0023944D01*
G01X0012000Y0023944D02*
G01X0011756Y0023843D01*
G01X0011756Y0023843D02*
G01X0011570Y0023656D01*
G01X0011570Y0023656D02*
G01X0011469Y0023413D01*
G01X0011469Y0023413D02*
G01X0011469Y0023150D01*
G01X0011469Y0023150D02*
G01X0011570Y0022906D01*
G01X0011570Y0022906D02*
G01X0011756Y0022720D01*
G01X0011756Y0022720D02*
G01X0012000Y0022619D01*
G01X0012000Y0022619D02*
G01X0013247Y0022619D01*
G01X0013247Y0022619D02*
G01X0013491Y0022720D01*
G01X0013491Y0022720D02*
G01X0013677Y0022906D01*
G01X0013677Y0022906D02*
G01X0013778Y0023150D01*
G01X0013778Y0023150D02*
G01X0013778Y0023413D01*
G01X0013778Y0023413D02*
G01X0013677Y0023656D01*
G01X0013677Y0023656D02*
G01X0013491Y0023843D01*
G01X0013554Y0023779D02*
G01X0019725Y0023779D01*
G01X0019767Y0023679D02*
G01X0013654Y0023679D01*
G01X0013709Y0023579D02*
G01X0019825Y0023579D01*
G01X0019925Y0023479D02*
G01X0013750Y0023479D01*
G01X0013778Y0023379D02*
G01X0019109Y0023379D01*
G01X0019117Y0023383D02*
G01X0018935Y0023308D01*
G01X0018935Y0023308D02*
G01X0018796Y0023168D01*
G01X0018796Y0023168D02*
G01X0018721Y0022987D01*
G01X0018721Y0022987D02*
G01X0018721Y0022790D01*
G01X0018721Y0022790D02*
G01X0018796Y0022608D01*
G01X0018796Y0022608D02*
G01X0018935Y0022469D01*
G01X0018935Y0022469D02*
G01X0019117Y0022393D01*
G01X0019117Y0022393D02*
G01X0019314Y0022393D01*
G01X0019314Y0022393D02*
G01X0019496Y0022469D01*
G01X0019496Y0022469D02*
G01X0019635Y0022608D01*
G01X0019635Y0022608D02*
G01X0019710Y0022790D01*
G01X0019710Y0022790D02*
G01X0019710Y0022987D01*
G01X0019710Y0022987D02*
G01X0019635Y0023168D01*
G01X0019635Y0023168D02*
G01X0019496Y0023308D01*
G01X0019496Y0023308D02*
G01X0019314Y0023383D01*
G01X0019314Y0023383D02*
G01X0019117Y0023383D01*
G01X0019322Y0023379D02*
G01X0020109Y0023379D01*
G01X0020117Y0023383D02*
G01X0019935Y0023308D01*
G01X0019935Y0023308D02*
G01X0019796Y0023168D01*
G01X0019796Y0023168D02*
G01X0019721Y0022987D01*
G01X0019721Y0022987D02*
G01X0019721Y0022790D01*
G01X0019721Y0022790D02*
G01X0019796Y0022608D01*
G01X0019796Y0022608D02*
G01X0019935Y0022469D01*
G01X0019935Y0022469D02*
G01X0020117Y0022393D01*
G01X0020117Y0022393D02*
G01X0020314Y0022393D01*
G01X0020314Y0022393D02*
G01X0020496Y0022469D01*
G01X0020496Y0022469D02*
G01X0020635Y0022608D01*
G01X0020635Y0022608D02*
G01X0020710Y0022790D01*
G01X0020710Y0022790D02*
G01X0020710Y0022987D01*
G01X0020710Y0022987D02*
G01X0020635Y0023168D01*
G01X0020635Y0023168D02*
G01X0020496Y0023308D01*
G01X0020496Y0023308D02*
G01X0020314Y0023383D01*
G01X0020314Y0023383D02*
G01X0020117Y0023383D01*
G01X0020322Y0023379D02*
G01X0040135Y0023379D01*
G01X0040135Y0023479D02*
G01X0020506Y0023479D01*
G01X0020606Y0023579D02*
G01X0040135Y0023579D01*
G01X0040135Y0023679D02*
G01X0020664Y0023679D01*
G01X0020706Y0023779D02*
G01X0040135Y0023779D01*
G01X0040135Y0023879D02*
G01X0020710Y0023879D01*
G01X0020710Y0023979D02*
G01X0040135Y0023979D01*
G01X0040135Y0024078D02*
G01X0020672Y0024078D01*
G01X0020625Y0024178D02*
G01X0040135Y0024178D01*
G01X0040135Y0024278D02*
G01X0020525Y0024278D01*
G01X0020505Y0024478D02*
G01X0040135Y0024478D01*
G01X0040135Y0024378D02*
G01X0020326Y0024378D01*
G01X0020605Y0024578D02*
G01X0040135Y0024578D01*
G01X0040135Y0024677D02*
G01X0020664Y0024677D01*
G01X0020705Y0024777D02*
G01X0040135Y0024777D01*
G01X0040135Y0024877D02*
G01X0020710Y0024877D01*
G01X0020710Y0024977D02*
G01X0040135Y0024977D01*
G01X0040135Y0025077D02*
G01X0020673Y0025077D01*
G01X0020627Y0025177D02*
G01X0040135Y0025177D01*
G01X0040135Y0025277D02*
G01X0020527Y0025277D01*
G01X0020504Y0025476D02*
G01X0040135Y0025476D01*
G01X0040135Y0025376D02*
G01X0020330Y0025376D01*
G01X0020102Y0025376D02*
G01X0019330Y0025376D01*
G01X0019333Y0026375D02*
G01X0020098Y0026375D01*
G01X0020333Y0026375D02*
G01X0040135Y0026375D01*
G01X0040135Y0026275D02*
G01X0020528Y0026275D01*
G01X0020628Y0026175D02*
G01X0040135Y0026175D01*
G01X0040135Y0026075D02*
G01X0020673Y0026075D01*
G01X0020710Y0025976D02*
G01X0040135Y0025976D01*
G01X0040135Y0025876D02*
G01X0020710Y0025876D01*
G01X0020705Y0025776D02*
G01X0040135Y0025776D01*
G01X0040135Y0025676D02*
G01X0020663Y0025676D01*
G01X0020603Y0025576D02*
G01X0040135Y0025576D01*
G01X0040135Y0026475D02*
G01X0020502Y0026475D01*
G01X0020602Y0026575D02*
G01X0040135Y0026575D01*
G01X0040135Y0026675D02*
G01X0020663Y0026675D01*
G01X0020704Y0026774D02*
G01X0040135Y0026774D01*
G01X0040135Y0026874D02*
G01X0020710Y0026874D01*
G01X0020710Y0026974D02*
G01X0040135Y0026974D01*
G01X0040135Y0027074D02*
G01X0020674Y0027074D01*
G01X0020630Y0027174D02*
G01X0040135Y0027174D01*
G01X0040135Y0027274D02*
G01X0020530Y0027274D01*
G01X0020501Y0027473D02*
G01X0040135Y0027473D01*
G01X0040135Y0027573D02*
G01X0020600Y0027573D01*
G01X0020662Y0027673D02*
G01X0040135Y0027673D01*
G01X0040135Y0027773D02*
G01X0020703Y0027773D01*
G01X0020710Y0027873D02*
G01X0040135Y0027873D01*
G01X0040135Y0027973D02*
G01X0038032Y0027973D01*
G01X0038255Y0028072D02*
G01X0040135Y0028072D01*
G01X0040135Y0028172D02*
G01X0038428Y0028172D01*
G01X0038535Y0028272D02*
G01X0040135Y0028272D01*
G01X0040135Y0028372D02*
G01X0038634Y0028372D01*
G01X0038721Y0028472D02*
G01X0040135Y0028472D01*
G01X0040135Y0028572D02*
G01X0038778Y0028572D01*
G01X0038836Y0028672D02*
G01X0040135Y0028672D01*
G01X0040135Y0028771D02*
G01X0038889Y0028771D01*
G01X0038916Y0028871D02*
G01X0040135Y0028871D01*
G01X0040135Y0028971D02*
G01X0038943Y0028971D01*
G01X0038969Y0029071D02*
G01X0040135Y0029071D01*
G01X0040135Y0029171D02*
G01X0038980Y0029171D01*
G01X0038980Y0029271D02*
G01X0040135Y0029271D01*
G01X0040135Y0029370D02*
G01X0038980Y0029370D01*
G01X0038980Y0029470D02*
G01X0040135Y0029470D01*
G01X0040135Y0029570D02*
G01X0038955Y0029570D01*
G01X0038928Y0029670D02*
G01X0040135Y0029670D01*
G01X0040135Y0029770D02*
G01X0038901Y0029770D01*
G01X0038862Y0029870D02*
G01X0040135Y0029870D01*
G01X0040135Y0029970D02*
G01X0038805Y0029970D01*
G01X0038747Y0030069D02*
G01X0040135Y0030069D01*
G01X0040135Y0030169D02*
G01X0038680Y0030169D01*
G01X0038580Y0030269D02*
G01X0040135Y0030269D01*
G01X0040135Y0030369D02*
G01X0038481Y0030369D01*
G01X0038335Y0030469D02*
G01X0040135Y0030469D01*
G01X0040135Y0030569D02*
G01X0038162Y0030569D01*
G01X0037831Y0030669D02*
G01X0040135Y0030669D01*
G01X0038454Y0033564D02*
G01X0020268Y0033564D01*
G01X0020441Y0033664D02*
G01X0038281Y0033664D01*
G01X0038138Y0033764D02*
G01X0020585Y0033764D01*
G01X0020685Y0033864D02*
G01X0038038Y0033864D01*
G01X0037938Y0033964D02*
G01X0020785Y0033964D01*
G01X0020847Y0034063D02*
G01X0037875Y0034063D01*
G01X0037817Y0034163D02*
G01X0020905Y0034163D01*
G01X0020963Y0034263D02*
G01X0037760Y0034263D01*
G01X0037727Y0034363D02*
G01X0020996Y0034363D01*
G01X0021023Y0034463D02*
G01X0037700Y0034463D01*
G01X0037673Y0034563D02*
G01X0021049Y0034563D01*
G01X0021067Y0034663D02*
G01X0037656Y0034663D01*
G01X0037656Y0034762D02*
G01X0021067Y0034762D01*
G01X0021067Y0034862D02*
G01X0037656Y0034862D01*
G01X0037656Y0034962D02*
G01X0021067Y0034962D01*
G01X0021046Y0035062D02*
G01X0037677Y0035062D01*
G01X0037704Y0035162D02*
G01X0021019Y0035162D01*
G01X0020992Y0035262D02*
G01X0037730Y0035262D01*
G01X0037768Y0035362D02*
G01X0020955Y0035362D01*
G01X0020897Y0035461D02*
G01X0037825Y0035461D01*
G01X0037883Y0035561D02*
G01X0020839Y0035561D01*
G01X0020771Y0035661D02*
G01X0037952Y0035661D01*
G01X0038052Y0035761D02*
G01X0020671Y0035761D01*
G01X0020571Y0035861D02*
G01X0038152Y0035861D01*
G01X0036645Y0028272D02*
G01X0020531Y0028272D01*
G01X0020631Y0028172D02*
G01X0036751Y0028172D01*
G01X0036924Y0028072D02*
G01X0020675Y0028072D01*
G01X0020710Y0027973D02*
G01X0037147Y0027973D01*
G01X0040135Y0027373D02*
G01X0020337Y0027373D01*
G01X0019906Y0024278D02*
G01X0001580Y0024278D01*
G01X0001580Y0024178D02*
G01X0019806Y0024178D01*
G01X0019907Y0023280D02*
G01X0019524Y0023280D01*
G01X0019624Y0023180D02*
G01X0019807Y0023180D01*
G01X0019759Y0023080D02*
G01X0019672Y0023080D01*
G01X0019710Y0022980D02*
G01X0019721Y0022980D01*
G01X0019721Y0022880D02*
G01X0019710Y0022880D01*
G01X0019706Y0022780D02*
G01X0019725Y0022780D01*
G01X0019766Y0022680D02*
G01X0019665Y0022680D01*
G01X0019608Y0022581D02*
G01X0019823Y0022581D01*
G01X0019923Y0022481D02*
G01X0019508Y0022481D01*
G01X0019496Y0022308D02*
G01X0019314Y0022383D01*
G01X0019314Y0022383D02*
G01X0019117Y0022383D01*
G01X0019117Y0022383D02*
G01X0018935Y0022308D01*
G01X0018935Y0022308D02*
G01X0018796Y0022168D01*
G01X0018796Y0022168D02*
G01X0018721Y0021987D01*
G01X0018721Y0021987D02*
G01X0018721Y0021790D01*
G01X0018721Y0021790D02*
G01X0018796Y0021608D01*
G01X0018796Y0021608D02*
G01X0018935Y0021469D01*
G01X0018935Y0021469D02*
G01X0019117Y0021393D01*
G01X0019117Y0021393D02*
G01X0019314Y0021393D01*
G01X0019314Y0021393D02*
G01X0019496Y0021469D01*
G01X0019496Y0021469D02*
G01X0019635Y0021608D01*
G01X0019635Y0021608D02*
G01X0019710Y0021790D01*
G01X0019710Y0021790D02*
G01X0019710Y0021987D01*
G01X0019710Y0021987D02*
G01X0019635Y0022168D01*
G01X0019635Y0022168D02*
G01X0019496Y0022308D01*
G01X0019522Y0022281D02*
G01X0019909Y0022281D01*
G01X0019935Y0022308D02*
G01X0019796Y0022168D01*
G01X0019796Y0022168D02*
G01X0019721Y0021987D01*
G01X0019721Y0021987D02*
G01X0019721Y0021790D01*
G01X0019721Y0021790D02*
G01X0019796Y0021608D01*
G01X0019796Y0021608D02*
G01X0019935Y0021469D01*
G01X0019935Y0021469D02*
G01X0020117Y0021393D01*
G01X0020117Y0021393D02*
G01X0020314Y0021393D01*
G01X0020314Y0021393D02*
G01X0020496Y0021469D01*
G01X0020496Y0021469D02*
G01X0020635Y0021608D01*
G01X0020635Y0021608D02*
G01X0020710Y0021790D01*
G01X0020710Y0021790D02*
G01X0020710Y0021987D01*
G01X0020710Y0021987D02*
G01X0020635Y0022168D01*
G01X0020635Y0022168D02*
G01X0020496Y0022308D01*
G01X0020496Y0022308D02*
G01X0020314Y0022383D01*
G01X0020314Y0022383D02*
G01X0020117Y0022383D01*
G01X0020117Y0022383D02*
G01X0019935Y0022308D01*
G01X0019809Y0022181D02*
G01X0019622Y0022181D01*
G01X0019671Y0022081D02*
G01X0019760Y0022081D01*
G01X0019721Y0021982D02*
G01X0019710Y0021982D01*
G01X0019710Y0021882D02*
G01X0019721Y0021882D01*
G01X0019724Y0021782D02*
G01X0019707Y0021782D01*
G01X0019666Y0021682D02*
G01X0019765Y0021682D01*
G01X0019822Y0021582D02*
G01X0019609Y0021582D01*
G01X0019509Y0021482D02*
G01X0019922Y0021482D01*
G01X0019621Y0021183D02*
G01X0039741Y0021183D01*
G01X0039741Y0021083D02*
G01X0019670Y0021083D01*
G01X0019635Y0021168D02*
G01X0019496Y0021308D01*
G01X0019496Y0021308D02*
G01X0019314Y0021383D01*
G01X0019314Y0021383D02*
G01X0019117Y0021383D01*
G01X0019117Y0021383D02*
G01X0018935Y0021308D01*
G01X0018935Y0021308D02*
G01X0018796Y0021168D01*
G01X0018796Y0021168D02*
G01X0018721Y0020987D01*
G01X0018721Y0020987D02*
G01X0018721Y0020790D01*
G01X0018721Y0020790D02*
G01X0018796Y0020608D01*
G01X0018796Y0020608D02*
G01X0018935Y0020469D01*
G01X0018935Y0020469D02*
G01X0019117Y0020393D01*
G01X0019117Y0020393D02*
G01X0019314Y0020393D01*
G01X0019314Y0020393D02*
G01X0019496Y0020469D01*
G01X0019496Y0020469D02*
G01X0019635Y0020608D01*
G01X0019635Y0020608D02*
G01X0019710Y0020790D01*
G01X0019710Y0020790D02*
G01X0019710Y0020987D01*
G01X0019710Y0020987D02*
G01X0019635Y0021168D01*
G01X0019521Y0021283D02*
G01X0039741Y0021283D01*
G01X0039741Y0021382D02*
G01X0019315Y0021382D01*
G01X0019116Y0021382D02*
G01X0015597Y0021382D01*
G01X0015519Y0021305D02*
G01X0015759Y0021545D01*
G01X0015759Y0021545D02*
G01X0015759Y0021885D01*
G01X0015759Y0021885D02*
G01X0015519Y0022125D01*
G01X0015519Y0022125D02*
G01X0015180Y0022125D01*
G01X0015180Y0022125D02*
G01X0014939Y0021885D01*
G01X0014939Y0021885D02*
G01X0014939Y0021545D01*
G01X0014939Y0021545D02*
G01X0015180Y0021305D01*
G01X0015180Y0021305D02*
G01X0015519Y0021305D01*
G01X0015697Y0021482D02*
G01X0018922Y0021482D01*
G01X0018822Y0021582D02*
G01X0015759Y0021582D01*
G01X0015759Y0021682D02*
G01X0018765Y0021682D01*
G01X0018724Y0021782D02*
G01X0015759Y0021782D01*
G01X0015759Y0021882D02*
G01X0018721Y0021882D01*
G01X0018721Y0021982D02*
G01X0015663Y0021982D01*
G01X0015563Y0022081D02*
G01X0018760Y0022081D01*
G01X0018809Y0022181D02*
G01X0004025Y0022181D01*
G01X0003998Y0022208D02*
G01X0003799Y0022290D01*
G01X0003799Y0022290D02*
G01X0003584Y0022290D01*
G01X0003584Y0022290D02*
G01X0003386Y0022208D01*
G01X0003386Y0022208D02*
G01X0003234Y0022056D01*
G01X0003234Y0022056D02*
G01X0003152Y0021858D01*
G01X0003152Y0021858D02*
G01X0003152Y0021643D01*
G01X0003152Y0021643D02*
G01X0003234Y0021444D01*
G01X0003234Y0021444D02*
G01X0003386Y0021292D01*
G01X0003386Y0021292D02*
G01X0003584Y0021210D01*
G01X0003584Y0021210D02*
G01X0003799Y0021210D01*
G01X0003799Y0021210D02*
G01X0003998Y0021292D01*
G01X0003998Y0021292D02*
G01X0004150Y0021444D01*
G01X0004150Y0021444D02*
G01X0004232Y0021643D01*
G01X0004232Y0021643D02*
G01X0004232Y0021858D01*
G01X0004232Y0021858D02*
G01X0004150Y0022056D01*
G01X0004150Y0022056D02*
G01X0003998Y0022208D01*
G01X0004125Y0022081D02*
G01X0015136Y0022081D01*
G01X0015036Y0021982D02*
G01X0004181Y0021982D01*
G01X0004222Y0021882D02*
G01X0014939Y0021882D01*
G01X0014939Y0021782D02*
G01X0004232Y0021782D01*
G01X0004232Y0021682D02*
G01X0014939Y0021682D01*
G01X0014939Y0021582D02*
G01X0004207Y0021582D01*
G01X0004165Y0021482D02*
G01X0015002Y0021482D01*
G01X0015102Y0021382D02*
G01X0011981Y0021382D01*
G01X0011981Y0021382D02*
G01X0010852Y0021382D01*
G01X0010852Y0021382D02*
G01X0010627Y0021289D01*
G01X0010627Y0021289D02*
G01X0010455Y0021117D01*
G01X0010455Y0021117D02*
G01X0010361Y0020892D01*
G01X0010361Y0020892D02*
G01X0010361Y0020648D01*
G01X0010361Y0020648D02*
G01X0010455Y0020423D01*
G01X0010455Y0020423D02*
G01X0010627Y0020251D01*
G01X0010627Y0020251D02*
G01X0010852Y0020157D01*
G01X0010852Y0020157D02*
G01X0011981Y0020157D01*
G01X0011981Y0020157D02*
G01X0012206Y0020251D01*
G01X0012206Y0020251D02*
G01X0012378Y0020423D01*
G01X0012378Y0020423D02*
G01X0012471Y0020648D01*
G01X0012471Y0020648D02*
G01X0012471Y0020892D01*
G01X0012471Y0020892D02*
G01X0012378Y0021117D01*
G01X0012378Y0021117D02*
G01X0012206Y0021289D01*
G01X0012206Y0021289D02*
G01X0011981Y0021382D01*
G01X0012212Y0021283D02*
G01X0018910Y0021283D01*
G01X0018810Y0021183D02*
G01X0013284Y0021183D01*
G01X0013212Y0021255D02*
G01X0013452Y0021015D01*
G01X0013452Y0021015D02*
G01X0013452Y0020675D01*
G01X0013452Y0020675D02*
G01X0013212Y0020435D01*
G01X0013212Y0020435D02*
G01X0012872Y0020435D01*
G01X0012872Y0020435D02*
G01X0012632Y0020675D01*
G01X0012632Y0020675D02*
G01X0012632Y0021015D01*
G01X0012632Y0021015D02*
G01X0012872Y0021255D01*
G01X0012872Y0021255D02*
G01X0013212Y0021255D01*
G01X0013384Y0021083D02*
G01X0018761Y0021083D01*
G01X0018721Y0020983D02*
G01X0015062Y0020983D01*
G01X0015042Y0021003D02*
G01X0014681Y0021003D01*
G01X0014681Y0021003D02*
G01X0014425Y0020748D01*
G01X0014425Y0020748D02*
G01X0014425Y0020387D01*
G01X0014425Y0020387D02*
G01X0014681Y0020131D01*
G01X0014681Y0020131D02*
G01X0015042Y0020131D01*
G01X0015042Y0020131D02*
G01X0015297Y0020387D01*
G01X0015297Y0020387D02*
G01X0015297Y0020748D01*
G01X0015297Y0020748D02*
G01X0015042Y0021003D01*
G01X0015162Y0020883D02*
G01X0018721Y0020883D01*
G01X0018723Y0020783D02*
G01X0015261Y0020783D01*
G01X0015297Y0020683D02*
G01X0018765Y0020683D01*
G01X0018820Y0020584D02*
G01X0015297Y0020584D01*
G01X0015297Y0020484D02*
G01X0018920Y0020484D01*
G01X0018935Y0020308D02*
G01X0018796Y0020168D01*
G01X0018796Y0020168D02*
G01X0018721Y0019987D01*
G01X0018721Y0019987D02*
G01X0018721Y0019790D01*
G01X0018721Y0019790D02*
G01X0018796Y0019608D01*
G01X0018796Y0019608D02*
G01X0018935Y0019469D01*
G01X0018935Y0019469D02*
G01X0019117Y0019393D01*
G01X0019117Y0019393D02*
G01X0019314Y0019393D01*
G01X0019314Y0019393D02*
G01X0019496Y0019469D01*
G01X0019496Y0019469D02*
G01X0019635Y0019608D01*
G01X0019635Y0019608D02*
G01X0019710Y0019790D01*
G01X0019710Y0019790D02*
G01X0019710Y0019987D01*
G01X0019710Y0019987D02*
G01X0019635Y0020168D01*
G01X0019635Y0020168D02*
G01X0019496Y0020308D01*
G01X0019496Y0020308D02*
G01X0019314Y0020383D01*
G01X0019314Y0020383D02*
G01X0019117Y0020383D01*
G01X0019117Y0020383D02*
G01X0018935Y0020308D01*
G01X0018912Y0020284D02*
G01X0015194Y0020284D01*
G01X0015181Y0020253D02*
G01X0014925Y0019998D01*
G01X0014925Y0019998D02*
G01X0014925Y0019637D01*
G01X0014925Y0019637D02*
G01X0015181Y0019381D01*
G01X0015181Y0019381D02*
G01X0015542Y0019381D01*
G01X0015542Y0019381D02*
G01X0015797Y0019637D01*
G01X0015797Y0019637D02*
G01X0015797Y0019998D01*
G01X0015797Y0019998D02*
G01X0015542Y0020253D01*
G01X0015542Y0020253D02*
G01X0015181Y0020253D01*
G01X0015112Y0020184D02*
G01X0015094Y0020184D01*
G01X0015012Y0020084D02*
G01X0004122Y0020084D01*
G01X0004150Y0020056D02*
G01X0003998Y0020208D01*
G01X0003998Y0020208D02*
G01X0003799Y0020290D01*
G01X0003799Y0020290D02*
G01X0003584Y0020290D01*
G01X0003584Y0020290D02*
G01X0003386Y0020208D01*
G01X0003386Y0020208D02*
G01X0003234Y0020056D01*
G01X0003234Y0020056D02*
G01X0003152Y0019858D01*
G01X0003152Y0019858D02*
G01X0003152Y0019643D01*
G01X0003152Y0019643D02*
G01X0003234Y0019444D01*
G01X0003234Y0019444D02*
G01X0003386Y0019292D01*
G01X0003386Y0019292D02*
G01X0003584Y0019210D01*
G01X0003584Y0019210D02*
G01X0003799Y0019210D01*
G01X0003799Y0019210D02*
G01X0003998Y0019292D01*
G01X0003998Y0019292D02*
G01X0004150Y0019444D01*
G01X0004150Y0019444D02*
G01X0004232Y0019643D01*
G01X0004232Y0019643D02*
G01X0004232Y0019858D01*
G01X0004232Y0019858D02*
G01X0004150Y0020056D01*
G01X0004179Y0019984D02*
G01X0014925Y0019984D01*
G01X0014925Y0019885D02*
G01X0004221Y0019885D01*
G01X0004232Y0019785D02*
G01X0014925Y0019785D01*
G01X0014925Y0019685D02*
G01X0004232Y0019685D01*
G01X0004208Y0019585D02*
G01X0014977Y0019585D01*
G01X0015077Y0019485D02*
G01X0004167Y0019485D01*
G01X0004091Y0019385D02*
G01X0015177Y0019385D01*
G01X0015546Y0019385D02*
G01X0039741Y0019385D01*
G01X0039741Y0019286D02*
G01X0020518Y0019286D01*
G01X0020496Y0019308D02*
G01X0020314Y0019383D01*
G01X0020314Y0019383D02*
G01X0020117Y0019383D01*
G01X0020117Y0019383D02*
G01X0019935Y0019308D01*
G01X0019935Y0019308D02*
G01X0019796Y0019168D01*
G01X0019796Y0019168D02*
G01X0019721Y0018987D01*
G01X0019721Y0018987D02*
G01X0019721Y0018790D01*
G01X0019721Y0018790D02*
G01X0019796Y0018608D01*
G01X0019796Y0018608D02*
G01X0019935Y0018469D01*
G01X0019935Y0018469D02*
G01X0020117Y0018393D01*
G01X0020117Y0018393D02*
G01X0020314Y0018393D01*
G01X0020314Y0018393D02*
G01X0020496Y0018469D01*
G01X0020496Y0018469D02*
G01X0020635Y0018608D01*
G01X0020635Y0018608D02*
G01X0020710Y0018790D01*
G01X0020710Y0018790D02*
G01X0020710Y0018987D01*
G01X0020710Y0018987D02*
G01X0020635Y0019168D01*
G01X0020635Y0019168D02*
G01X0020496Y0019308D01*
G01X0020496Y0019469D02*
G01X0020314Y0019393D01*
G01X0020314Y0019393D02*
G01X0020117Y0019393D01*
G01X0020117Y0019393D02*
G01X0019935Y0019469D01*
G01X0019935Y0019469D02*
G01X0019796Y0019608D01*
G01X0019796Y0019608D02*
G01X0019721Y0019790D01*
G01X0019721Y0019790D02*
G01X0019721Y0019987D01*
G01X0019721Y0019987D02*
G01X0019796Y0020168D01*
G01X0019796Y0020168D02*
G01X0019935Y0020308D01*
G01X0019935Y0020308D02*
G01X0020117Y0020383D01*
G01X0020117Y0020383D02*
G01X0020314Y0020383D01*
G01X0020314Y0020383D02*
G01X0020496Y0020308D01*
G01X0020496Y0020308D02*
G01X0020635Y0020168D01*
G01X0020635Y0020168D02*
G01X0020710Y0019987D01*
G01X0020710Y0019987D02*
G01X0020710Y0019790D01*
G01X0020710Y0019790D02*
G01X0020635Y0019608D01*
G01X0020635Y0019608D02*
G01X0020496Y0019469D01*
G01X0020512Y0019485D02*
G01X0039741Y0019485D01*
G01X0039741Y0019585D02*
G01X0020612Y0019585D01*
G01X0020667Y0019685D02*
G01X0039741Y0019685D01*
G01X0039741Y0019785D02*
G01X0020708Y0019785D01*
G01X0020710Y0019885D02*
G01X0039741Y0019885D01*
G01X0039741Y0019984D02*
G01X0020710Y0019984D01*
G01X0020670Y0020084D02*
G01X0039741Y0020084D01*
G01X0039741Y0020184D02*
G01X0020619Y0020184D01*
G01X0020519Y0020284D02*
G01X0039741Y0020284D01*
G01X0039741Y0020384D02*
G01X0015294Y0020384D01*
G01X0015610Y0020184D02*
G01X0018812Y0020184D01*
G01X0018761Y0020084D02*
G01X0015710Y0020084D01*
G01X0015797Y0019984D02*
G01X0018721Y0019984D01*
G01X0018721Y0019885D02*
G01X0015797Y0019885D01*
G01X0015797Y0019785D02*
G01X0018723Y0019785D01*
G01X0018764Y0019685D02*
G01X0015797Y0019685D01*
G01X0015745Y0019585D02*
G01X0018819Y0019585D01*
G01X0018919Y0019485D02*
G01X0015645Y0019485D01*
G01X0014628Y0020184D02*
G01X0012045Y0020184D01*
G01X0012239Y0020284D02*
G01X0014528Y0020284D01*
G01X0014428Y0020384D02*
G01X0012339Y0020384D01*
G01X0012403Y0020484D02*
G01X0012824Y0020484D01*
G01X0012724Y0020584D02*
G01X0012445Y0020584D01*
G01X0012471Y0020683D02*
G01X0012632Y0020683D01*
G01X0012632Y0020783D02*
G01X0012471Y0020783D01*
G01X0012471Y0020883D02*
G01X0012632Y0020883D01*
G01X0012632Y0020983D02*
G01X0012434Y0020983D01*
G01X0012392Y0021083D02*
G01X0012700Y0021083D01*
G01X0012800Y0021183D02*
G01X0012312Y0021183D01*
G01X0013452Y0020983D02*
G01X0014661Y0020983D01*
G01X0014561Y0020883D02*
G01X0013452Y0020883D01*
G01X0013452Y0020783D02*
G01X0014461Y0020783D01*
G01X0014425Y0020683D02*
G01X0013452Y0020683D01*
G01X0013361Y0020584D02*
G01X0014425Y0020584D01*
G01X0014425Y0020484D02*
G01X0013261Y0020484D01*
G01X0013395Y0022680D02*
G01X0018766Y0022680D01*
G01X0018725Y0022780D02*
G01X0013551Y0022780D01*
G01X0013651Y0022880D02*
G01X0018721Y0022880D01*
G01X0018721Y0022980D02*
G01X0013707Y0022980D01*
G01X0013749Y0023080D02*
G01X0018759Y0023080D01*
G01X0018807Y0023180D02*
G01X0013778Y0023180D01*
G01X0013778Y0023280D02*
G01X0018907Y0023280D01*
G01X0018823Y0022581D02*
G01X0010436Y0022581D01*
G01X0010449Y0022594D02*
G01X0010531Y0022792D01*
G01X0010531Y0022792D02*
G01X0010531Y0023007D01*
G01X0010531Y0023007D02*
G01X0010449Y0023206D01*
G01X0010449Y0023206D02*
G01X0010297Y0023358D01*
G01X0010297Y0023358D02*
G01X0010099Y0023440D01*
G01X0010099Y0023440D02*
G01X0009884Y0023440D01*
G01X0009884Y0023440D02*
G01X0009685Y0023358D01*
G01X0009685Y0023358D02*
G01X0009533Y0023206D01*
G01X0009533Y0023206D02*
G01X0009451Y0023007D01*
G01X0009451Y0023007D02*
G01X0009451Y0022792D01*
G01X0009451Y0022792D02*
G01X0009533Y0022594D01*
G01X0009533Y0022594D02*
G01X0009685Y0022442D01*
G01X0009685Y0022442D02*
G01X0009884Y0022360D01*
G01X0009884Y0022360D02*
G01X0010099Y0022360D01*
G01X0010099Y0022360D02*
G01X0010297Y0022442D01*
G01X0010297Y0022442D02*
G01X0010449Y0022594D01*
G01X0010485Y0022680D02*
G01X0011852Y0022680D01*
G01X0011696Y0022780D02*
G01X0010526Y0022780D01*
G01X0010531Y0022880D02*
G01X0011596Y0022880D01*
G01X0011539Y0022980D02*
G01X0010531Y0022980D01*
G01X0010501Y0023080D02*
G01X0011498Y0023080D01*
G01X0011469Y0023180D02*
G01X0010460Y0023180D01*
G01X0010375Y0023280D02*
G01X0011469Y0023280D01*
G01X0011469Y0023379D02*
G01X0010245Y0023379D01*
G01X0009738Y0023379D02*
G01X0004329Y0023379D01*
G01X0004329Y0023413D02*
G01X0004228Y0023656D01*
G01X0004228Y0023656D02*
G01X0004042Y0023843D01*
G01X0004042Y0023843D02*
G01X0003798Y0023944D01*
G01X0003798Y0023944D02*
G01X0002551Y0023944D01*
G01X0002551Y0023944D02*
G01X0002307Y0023843D01*
G01X0002307Y0023843D02*
G01X0002121Y0023656D01*
G01X0002121Y0023656D02*
G01X0002020Y0023413D01*
G01X0002020Y0023413D02*
G01X0002020Y0023150D01*
G01X0002020Y0023150D02*
G01X0002121Y0022906D01*
G01X0002121Y0022906D02*
G01X0002307Y0022720D01*
G01X0002307Y0022720D02*
G01X0002551Y0022619D01*
G01X0002551Y0022619D02*
G01X0003798Y0022619D01*
G01X0003798Y0022619D02*
G01X0004042Y0022720D01*
G01X0004042Y0022720D02*
G01X0004228Y0022906D01*
G01X0004228Y0022906D02*
G01X0004329Y0023150D01*
G01X0004329Y0023150D02*
G01X0004329Y0023413D01*
G01X0004301Y0023479D02*
G01X0011497Y0023479D01*
G01X0011538Y0023579D02*
G01X0004260Y0023579D01*
G01X0004206Y0023679D02*
G01X0011592Y0023679D01*
G01X0011692Y0023779D02*
G01X0004106Y0023779D01*
G01X0003955Y0023879D02*
G01X0011843Y0023879D01*
G01X0010336Y0022481D02*
G01X0018923Y0022481D01*
G01X0018909Y0022281D02*
G01X0003822Y0022281D01*
G01X0003562Y0022281D02*
G01X0001580Y0022281D01*
G01X0001580Y0022181D02*
G01X0003359Y0022181D01*
G01X0003259Y0022081D02*
G01X0001580Y0022081D01*
G01X0001580Y0021982D02*
G01X0003203Y0021982D01*
G01X0003162Y0021882D02*
G01X0001580Y0021882D01*
G01X0001911Y0021782D02*
G01X0003152Y0021782D01*
G01X0003152Y0021682D02*
G01X0001967Y0021682D01*
G01X0001973Y0021582D02*
G01X0003177Y0021582D01*
G01X0003218Y0021482D02*
G01X0001973Y0021482D01*
G01X0001973Y0021382D02*
G01X0003296Y0021382D01*
G01X0003410Y0021283D02*
G01X0001973Y0021283D01*
G01X0001973Y0021183D02*
G01X0010520Y0021183D01*
G01X0010440Y0021083D02*
G01X0001973Y0021083D01*
G01X0001973Y0020983D02*
G01X0010399Y0020983D01*
G01X0010361Y0020883D02*
G01X0001973Y0020883D01*
G01X0001973Y0020783D02*
G01X0010361Y0020783D01*
G01X0010361Y0020683D02*
G01X0001973Y0020683D01*
G01X0001973Y0020584D02*
G01X0010388Y0020584D01*
G01X0010429Y0020484D02*
G01X0001973Y0020484D01*
G01X0001973Y0020384D02*
G01X0010494Y0020384D01*
G01X0010594Y0020284D02*
G01X0003814Y0020284D01*
G01X0004022Y0020184D02*
G01X0010787Y0020184D01*
G01X0010620Y0021283D02*
G01X0003974Y0021283D01*
G01X0004088Y0021382D02*
G01X0010852Y0021382D01*
G01X0010149Y0022381D02*
G01X0019112Y0022381D01*
G01X0019319Y0022381D02*
G01X0020112Y0022381D01*
G01X0020319Y0022381D02*
G01X0040135Y0022381D01*
G01X0040135Y0022481D02*
G01X0020508Y0022481D01*
G01X0020608Y0022581D02*
G01X0040135Y0022581D01*
G01X0040135Y0022680D02*
G01X0020665Y0022680D01*
G01X0020706Y0022780D02*
G01X0040135Y0022780D01*
G01X0040135Y0022880D02*
G01X0020710Y0022880D01*
G01X0020710Y0022980D02*
G01X0040135Y0022980D01*
G01X0040135Y0023080D02*
G01X0020672Y0023080D01*
G01X0020624Y0023180D02*
G01X0040135Y0023180D01*
G01X0040135Y0023280D02*
G01X0020524Y0023280D01*
G01X0020522Y0022281D02*
G01X0040135Y0022281D01*
G01X0040135Y0022181D02*
G01X0020622Y0022181D01*
G01X0020671Y0022081D02*
G01X0040135Y0022081D01*
G01X0040135Y0021982D02*
G01X0020710Y0021982D01*
G01X0020710Y0021882D02*
G01X0040135Y0021882D01*
G01X0039803Y0021782D02*
G01X0020707Y0021782D01*
G01X0020666Y0021682D02*
G01X0039748Y0021682D01*
G01X0039741Y0021582D02*
G01X0020609Y0021582D01*
G01X0020509Y0021482D02*
G01X0039741Y0021482D01*
G01X0039741Y0020983D02*
G01X0019710Y0020983D01*
G01X0019710Y0020883D02*
G01X0039741Y0020883D01*
G01X0039741Y0020783D02*
G01X0019708Y0020783D01*
G01X0019666Y0020683D02*
G01X0039741Y0020683D01*
G01X0039741Y0020584D02*
G01X0019611Y0020584D01*
G01X0019511Y0020484D02*
G01X0039741Y0020484D01*
G01X0039741Y0019186D02*
G01X0020618Y0019186D01*
G01X0020669Y0019086D02*
G01X0039741Y0019086D01*
G01X0039741Y0018986D02*
G01X0020710Y0018986D01*
G01X0020710Y0018886D02*
G01X0039741Y0018886D01*
G01X0039741Y0018786D02*
G01X0020709Y0018786D01*
G01X0020668Y0018686D02*
G01X0039741Y0018686D01*
G01X0039741Y0018587D02*
G01X0020614Y0018587D01*
G01X0020514Y0018487D02*
G01X0039741Y0018487D01*
G01X0039741Y0018387D02*
G01X0006699Y0018387D01*
G01X0006729Y0018417D02*
G01X0006795Y0018577D01*
G01X0006795Y0018577D02*
G01X0006795Y0018750D01*
G01X0006795Y0018750D02*
G01X0006729Y0018911D01*
G01X0006729Y0018911D02*
G01X0006606Y0019033D01*
G01X0006606Y0019033D02*
G01X0006446Y0019099D01*
G01X0006446Y0019099D02*
G01X0005741Y0019099D01*
G01X0005741Y0019099D02*
G01X0005581Y0019033D01*
G01X0005581Y0019033D02*
G01X0005458Y0018911D01*
G01X0005458Y0018911D02*
G01X0005392Y0018750D01*
G01X0005392Y0018750D02*
G01X0005392Y0018577D01*
G01X0005392Y0018577D02*
G01X0005458Y0018417D01*
G01X0005458Y0018417D02*
G01X0005581Y0018294D01*
G01X0005581Y0018294D02*
G01X0005741Y0018228D01*
G01X0005741Y0018228D02*
G01X0006446Y0018228D01*
G01X0006446Y0018228D02*
G01X0006606Y0018294D01*
G01X0006606Y0018294D02*
G01X0006729Y0018417D01*
G01X0006758Y0018487D02*
G01X0019917Y0018487D01*
G01X0019817Y0018587D02*
G01X0006795Y0018587D01*
G01X0006795Y0018686D02*
G01X0019763Y0018686D01*
G01X0019722Y0018786D02*
G01X0006780Y0018786D01*
G01X0006739Y0018886D02*
G01X0019721Y0018886D01*
G01X0019721Y0018986D02*
G01X0006653Y0018986D01*
G01X0006479Y0019086D02*
G01X0019762Y0019086D01*
G01X0019813Y0019186D02*
G01X0001973Y0019186D01*
G01X0001973Y0019086D02*
G01X0005708Y0019086D01*
G01X0005534Y0018986D02*
G01X0005099Y0018986D01*
G01X0005023Y0019062D02*
G01X0004684Y0019062D01*
G01X0004684Y0019062D02*
G01X0004443Y0018822D01*
G01X0004443Y0018822D02*
G01X0004443Y0018482D01*
G01X0004443Y0018482D02*
G01X0004684Y0018242D01*
G01X0004684Y0018242D02*
G01X0005023Y0018242D01*
G01X0005023Y0018242D02*
G01X0005263Y0018482D01*
G01X0005263Y0018482D02*
G01X0005263Y0018822D01*
G01X0005263Y0018822D02*
G01X0005023Y0019062D01*
G01X0005199Y0018886D02*
G01X0005448Y0018886D01*
G01X0005407Y0018786D02*
G01X0005263Y0018786D01*
G01X0005263Y0018686D02*
G01X0005392Y0018686D01*
G01X0005392Y0018587D02*
G01X0005263Y0018587D01*
G01X0005263Y0018487D02*
G01X0005429Y0018487D01*
G01X0005488Y0018387D02*
G01X0005168Y0018387D01*
G01X0005068Y0018287D02*
G01X0005598Y0018287D01*
G01X0005674Y0018087D02*
G01X0001973Y0018087D01*
G01X0001973Y0018187D02*
G01X0008789Y0018187D01*
G01X0008735Y0018133D02*
G01X0008735Y0017793D01*
G01X0008735Y0017793D02*
G01X0008975Y0017553D01*
G01X0008975Y0017553D02*
G01X0009314Y0017553D01*
G01X0009314Y0017553D02*
G01X0009555Y0017793D01*
G01X0009555Y0017793D02*
G01X0009555Y0018133D01*
G01X0009555Y0018133D02*
G01X0009314Y0018373D01*
G01X0009314Y0018373D02*
G01X0008975Y0018373D01*
G01X0008975Y0018373D02*
G01X0008735Y0018133D01*
G01X0008735Y0018087D02*
G01X0006513Y0018087D01*
G01X0006446Y0018115D02*
G01X0005741Y0018115D01*
G01X0005741Y0018115D02*
G01X0005581Y0018049D01*
G01X0005581Y0018049D02*
G01X0005458Y0017926D01*
G01X0005458Y0017926D02*
G01X0005392Y0017766D01*
G01X0005392Y0017766D02*
G01X0005392Y0017593D01*
G01X0005392Y0017593D02*
G01X0005458Y0017433D01*
G01X0005458Y0017433D02*
G01X0005581Y0017310D01*
G01X0005581Y0017310D02*
G01X0005741Y0017244D01*
G01X0005741Y0017244D02*
G01X0006446Y0017244D01*
G01X0006446Y0017244D02*
G01X0006606Y0017310D01*
G01X0006606Y0017310D02*
G01X0006729Y0017433D01*
G01X0006729Y0017433D02*
G01X0006795Y0017593D01*
G01X0006795Y0017593D02*
G01X0006795Y0017766D01*
G01X0006795Y0017766D02*
G01X0006729Y0017926D01*
G01X0006729Y0017926D02*
G01X0006606Y0018049D01*
G01X0006606Y0018049D02*
G01X0006446Y0018115D01*
G01X0006589Y0018287D02*
G01X0008889Y0018287D01*
G01X0008735Y0017987D02*
G01X0006667Y0017987D01*
G01X0006745Y0017888D02*
G01X0008735Y0017888D01*
G01X0008740Y0017788D02*
G01X0006786Y0017788D01*
G01X0006795Y0017688D02*
G01X0008840Y0017688D01*
G01X0008940Y0017588D02*
G01X0006793Y0017588D01*
G01X0006752Y0017488D02*
G01X0018916Y0017488D01*
G01X0018935Y0017469D02*
G01X0019117Y0017393D01*
G01X0019117Y0017393D02*
G01X0019314Y0017393D01*
G01X0019314Y0017393D02*
G01X0019496Y0017469D01*
G01X0019496Y0017469D02*
G01X0019635Y0017608D01*
G01X0019635Y0017608D02*
G01X0019710Y0017790D01*
G01X0019710Y0017790D02*
G01X0019710Y0017987D01*
G01X0019710Y0017987D02*
G01X0019635Y0018168D01*
G01X0019635Y0018168D02*
G01X0019496Y0018308D01*
G01X0019496Y0018308D02*
G01X0019314Y0018383D01*
G01X0019314Y0018383D02*
G01X0019117Y0018383D01*
G01X0019117Y0018383D02*
G01X0018935Y0018308D01*
G01X0018935Y0018308D02*
G01X0018796Y0018168D01*
G01X0018796Y0018168D02*
G01X0018721Y0017987D01*
G01X0018721Y0017987D02*
G01X0018721Y0017790D01*
G01X0018721Y0017790D02*
G01X0018796Y0017608D01*
G01X0018796Y0017608D02*
G01X0018935Y0017469D01*
G01X0018816Y0017588D02*
G01X0009350Y0017588D01*
G01X0009450Y0017688D02*
G01X0018763Y0017688D01*
G01X0018722Y0017788D02*
G01X0009549Y0017788D01*
G01X0009555Y0017888D02*
G01X0018721Y0017888D01*
G01X0018721Y0017987D02*
G01X0009555Y0017987D01*
G01X0009555Y0018087D02*
G01X0018762Y0018087D01*
G01X0018815Y0018187D02*
G01X0009500Y0018187D01*
G01X0009400Y0018287D02*
G01X0018915Y0018287D01*
G01X0019516Y0018287D02*
G01X0019915Y0018287D01*
G01X0019935Y0018308D02*
G01X0019796Y0018168D01*
G01X0019796Y0018168D02*
G01X0019721Y0017987D01*
G01X0019721Y0017987D02*
G01X0019721Y0017790D01*
G01X0019721Y0017790D02*
G01X0019796Y0017608D01*
G01X0019796Y0017608D02*
G01X0019935Y0017469D01*
G01X0019935Y0017469D02*
G01X0020117Y0017393D01*
G01X0020117Y0017393D02*
G01X0020314Y0017393D01*
G01X0020314Y0017393D02*
G01X0020496Y0017469D01*
G01X0020496Y0017469D02*
G01X0020635Y0017608D01*
G01X0020635Y0017608D02*
G01X0020710Y0017790D01*
G01X0020710Y0017790D02*
G01X0020710Y0017987D01*
G01X0020710Y0017987D02*
G01X0020635Y0018168D01*
G01X0020635Y0018168D02*
G01X0020496Y0018308D01*
G01X0020496Y0018308D02*
G01X0020314Y0018383D01*
G01X0020314Y0018383D02*
G01X0020117Y0018383D01*
G01X0020117Y0018383D02*
G01X0019935Y0018308D01*
G01X0019815Y0018187D02*
G01X0019616Y0018187D01*
G01X0019669Y0018087D02*
G01X0019762Y0018087D01*
G01X0019721Y0017987D02*
G01X0019710Y0017987D01*
G01X0019710Y0017888D02*
G01X0019721Y0017888D01*
G01X0019722Y0017788D02*
G01X0019710Y0017788D01*
G01X0019668Y0017688D02*
G01X0019763Y0017688D01*
G01X0019816Y0017588D02*
G01X0019615Y0017588D01*
G01X0019515Y0017488D02*
G01X0019916Y0017488D01*
G01X0019935Y0017308D02*
G01X0019796Y0017168D01*
G01X0019796Y0017168D02*
G01X0019721Y0016987D01*
G01X0019721Y0016987D02*
G01X0019721Y0016790D01*
G01X0019721Y0016790D02*
G01X0019796Y0016608D01*
G01X0019796Y0016608D02*
G01X0019935Y0016469D01*
G01X0019935Y0016469D02*
G01X0020117Y0016393D01*
G01X0020117Y0016393D02*
G01X0020314Y0016393D01*
G01X0020314Y0016393D02*
G01X0020496Y0016469D01*
G01X0020496Y0016469D02*
G01X0020635Y0016608D01*
G01X0020635Y0016608D02*
G01X0020710Y0016790D01*
G01X0020710Y0016790D02*
G01X0020710Y0016987D01*
G01X0020710Y0016987D02*
G01X0020635Y0017168D01*
G01X0020635Y0017168D02*
G01X0020496Y0017308D01*
G01X0020496Y0017308D02*
G01X0020314Y0017383D01*
G01X0020314Y0017383D02*
G01X0020117Y0017383D01*
G01X0020117Y0017383D02*
G01X0019935Y0017308D01*
G01X0019916Y0017288D02*
G01X0010639Y0017288D01*
G01X0010555Y0017373D02*
G01X0010215Y0017373D01*
G01X0010215Y0017373D02*
G01X0009975Y0017133D01*
G01X0009975Y0017133D02*
G01X0009975Y0016793D01*
G01X0009975Y0016793D02*
G01X0010215Y0016553D01*
G01X0010215Y0016553D02*
G01X0010555Y0016553D01*
G01X0010555Y0016553D02*
G01X0010795Y0016793D01*
G01X0010795Y0016793D02*
G01X0010795Y0017133D01*
G01X0010795Y0017133D02*
G01X0010555Y0017373D01*
G01X0010739Y0017189D02*
G01X0019816Y0017189D01*
G01X0019763Y0017089D02*
G01X0010795Y0017089D01*
G01X0010795Y0016989D02*
G01X0019722Y0016989D01*
G01X0019721Y0016889D02*
G01X0010795Y0016889D01*
G01X0010791Y0016789D02*
G01X0019721Y0016789D01*
G01X0019762Y0016689D02*
G01X0010691Y0016689D01*
G01X0010591Y0016590D02*
G01X0019814Y0016590D01*
G01X0019914Y0016490D02*
G01X0009384Y0016490D01*
G01X0009325Y0016548D02*
G01X0008964Y0016548D01*
G01X0008964Y0016548D02*
G01X0008709Y0016293D01*
G01X0008709Y0016293D02*
G01X0008709Y0015932D01*
G01X0008709Y0015932D02*
G01X0008964Y0015677D01*
G01X0008964Y0015677D02*
G01X0009325Y0015677D01*
G01X0009325Y0015677D02*
G01X0009580Y0015932D01*
G01X0009580Y0015932D02*
G01X0009580Y0016293D01*
G01X0009580Y0016293D02*
G01X0009325Y0016548D01*
G01X0009314Y0016553D02*
G01X0009555Y0016793D01*
G01X0009555Y0016793D02*
G01X0009555Y0017133D01*
G01X0009555Y0017133D02*
G01X0009314Y0017373D01*
G01X0009314Y0017373D02*
G01X0008975Y0017373D01*
G01X0008975Y0017373D02*
G01X0008735Y0017133D01*
G01X0008735Y0017133D02*
G01X0008735Y0016793D01*
G01X0008735Y0016793D02*
G01X0008975Y0016553D01*
G01X0008975Y0016553D02*
G01X0009314Y0016553D01*
G01X0009351Y0016590D02*
G01X0010178Y0016590D01*
G01X0010078Y0016689D02*
G01X0009451Y0016689D01*
G01X0009551Y0016789D02*
G01X0009979Y0016789D01*
G01X0009975Y0016889D02*
G01X0009555Y0016889D01*
G01X0009555Y0016989D02*
G01X0009975Y0016989D01*
G01X0009975Y0017089D02*
G01X0009555Y0017089D01*
G01X0009499Y0017189D02*
G01X0010031Y0017189D01*
G01X0010131Y0017288D02*
G01X0009399Y0017288D01*
G01X0008890Y0017288D02*
G01X0006554Y0017288D01*
G01X0006684Y0017388D02*
G01X0039741Y0017388D01*
G01X0039741Y0017288D02*
G01X0020515Y0017288D01*
G01X0020615Y0017189D02*
G01X0039761Y0017189D01*
G01X0039834Y0017089D02*
G01X0020668Y0017089D01*
G01X0020709Y0016989D02*
G01X0040135Y0016989D01*
G01X0040135Y0016889D02*
G01X0020710Y0016889D01*
G01X0020710Y0016789D02*
G01X0040135Y0016789D01*
G01X0040135Y0016689D02*
G01X0020669Y0016689D01*
G01X0020617Y0016590D02*
G01X0040135Y0016590D01*
G01X0040135Y0016490D02*
G01X0020517Y0016490D01*
G01X0020496Y0016308D02*
G01X0020314Y0016383D01*
G01X0020314Y0016383D02*
G01X0020117Y0016383D01*
G01X0020117Y0016383D02*
G01X0019935Y0016308D01*
G01X0019935Y0016308D02*
G01X0019796Y0016168D01*
G01X0019796Y0016168D02*
G01X0019721Y0015986D01*
G01X0019721Y0015986D02*
G01X0019721Y0015790D01*
G01X0019721Y0015790D02*
G01X0019796Y0015608D01*
G01X0019796Y0015608D02*
G01X0019935Y0015469D01*
G01X0019935Y0015469D02*
G01X0020117Y0015393D01*
G01X0020117Y0015393D02*
G01X0020314Y0015393D01*
G01X0020314Y0015393D02*
G01X0020496Y0015469D01*
G01X0020496Y0015469D02*
G01X0020635Y0015608D01*
G01X0020635Y0015608D02*
G01X0020710Y0015790D01*
G01X0020710Y0015790D02*
G01X0020710Y0015986D01*
G01X0020710Y0015986D02*
G01X0020635Y0016168D01*
G01X0020635Y0016168D02*
G01X0020496Y0016308D01*
G01X0020513Y0016290D02*
G01X0040135Y0016290D01*
G01X0040135Y0016190D02*
G01X0020613Y0016190D01*
G01X0020667Y0016090D02*
G01X0040135Y0016090D01*
G01X0040135Y0015990D02*
G01X0020709Y0015990D01*
G01X0020710Y0015891D02*
G01X0040135Y0015891D01*
G01X0040135Y0015791D02*
G01X0020710Y0015791D01*
G01X0020669Y0015691D02*
G01X0040135Y0015691D01*
G01X0040135Y0015591D02*
G01X0020618Y0015591D01*
G01X0020518Y0015491D02*
G01X0040135Y0015491D01*
G01X0040135Y0015391D02*
G01X0010290Y0015391D01*
G01X0010330Y0015432D02*
G01X0010075Y0015177D01*
G01X0010075Y0015177D02*
G01X0009714Y0015177D01*
G01X0009714Y0015177D02*
G01X0009459Y0015432D01*
G01X0009459Y0015432D02*
G01X0009459Y0015793D01*
G01X0009459Y0015793D02*
G01X0009714Y0016048D01*
G01X0009714Y0016048D02*
G01X0010075Y0016048D01*
G01X0010075Y0016048D02*
G01X0010330Y0015793D01*
G01X0010330Y0015793D02*
G01X0010330Y0015432D01*
G01X0010330Y0015491D02*
G01X0018913Y0015491D01*
G01X0018935Y0015469D02*
G01X0019117Y0015393D01*
G01X0019117Y0015393D02*
G01X0019314Y0015393D01*
G01X0019314Y0015393D02*
G01X0019496Y0015469D01*
G01X0019496Y0015469D02*
G01X0019635Y0015608D01*
G01X0019635Y0015608D02*
G01X0019710Y0015790D01*
G01X0019710Y0015790D02*
G01X0019710Y0015986D01*
G01X0019710Y0015986D02*
G01X0019635Y0016168D01*
G01X0019635Y0016168D02*
G01X0019496Y0016308D01*
G01X0019496Y0016308D02*
G01X0019314Y0016383D01*
G01X0019314Y0016383D02*
G01X0019117Y0016383D01*
G01X0019117Y0016383D02*
G01X0018935Y0016308D01*
G01X0018935Y0016308D02*
G01X0018796Y0016168D01*
G01X0018796Y0016168D02*
G01X0018721Y0015986D01*
G01X0018721Y0015986D02*
G01X0018721Y0015790D01*
G01X0018721Y0015790D02*
G01X0018796Y0015608D01*
G01X0018796Y0015608D02*
G01X0018935Y0015469D01*
G01X0018935Y0015308D02*
G01X0018796Y0015168D01*
G01X0018796Y0015168D02*
G01X0018721Y0014987D01*
G01X0018721Y0014987D02*
G01X0018721Y0014790D01*
G01X0018721Y0014790D02*
G01X0018796Y0014608D01*
G01X0018796Y0014608D02*
G01X0018935Y0014469D01*
G01X0018935Y0014469D02*
G01X0019117Y0014393D01*
G01X0019117Y0014393D02*
G01X0019314Y0014393D01*
G01X0019314Y0014393D02*
G01X0019496Y0014469D01*
G01X0019496Y0014469D02*
G01X0019635Y0014608D01*
G01X0019635Y0014608D02*
G01X0019710Y0014790D01*
G01X0019710Y0014790D02*
G01X0019710Y0014987D01*
G01X0019710Y0014987D02*
G01X0019635Y0015168D01*
G01X0019635Y0015168D02*
G01X0019496Y0015308D01*
G01X0019496Y0015308D02*
G01X0019314Y0015383D01*
G01X0019314Y0015383D02*
G01X0019117Y0015383D01*
G01X0019117Y0015383D02*
G01X0018935Y0015308D01*
G01X0018919Y0015291D02*
G01X0010190Y0015291D01*
G01X0010090Y0015192D02*
G01X0011443Y0015192D01*
G01X0011487Y0015235D02*
G01X0011246Y0014995D01*
G01X0011246Y0014995D02*
G01X0011246Y0014655D01*
G01X0011246Y0014655D02*
G01X0011487Y0014415D01*
G01X0011487Y0014415D02*
G01X0011826Y0014415D01*
G01X0011826Y0014415D02*
G01X0012066Y0014655D01*
G01X0012066Y0014655D02*
G01X0012066Y0014995D01*
G01X0012066Y0014995D02*
G01X0011826Y0015235D01*
G01X0011826Y0015235D02*
G01X0011487Y0015235D01*
G01X0011343Y0015092D02*
G01X0009580Y0015092D01*
G01X0009580Y0014992D02*
G01X0011246Y0014992D01*
G01X0011246Y0014892D02*
G01X0009540Y0014892D01*
G01X0009580Y0014932D02*
G01X0009325Y0014677D01*
G01X0009325Y0014677D02*
G01X0008964Y0014677D01*
G01X0008964Y0014677D02*
G01X0008709Y0014932D01*
G01X0008709Y0014932D02*
G01X0008709Y0015293D01*
G01X0008709Y0015293D02*
G01X0008964Y0015548D01*
G01X0008964Y0015548D02*
G01X0009325Y0015548D01*
G01X0009325Y0015548D02*
G01X0009580Y0015293D01*
G01X0009580Y0015293D02*
G01X0009580Y0014932D01*
G01X0009441Y0014792D02*
G01X0011246Y0014792D01*
G01X0011246Y0014692D02*
G01X0009341Y0014692D01*
G01X0009124Y0014493D02*
G01X0009677Y0014493D01*
G01X0009731Y0014546D02*
G01X0009491Y0014306D01*
G01X0009491Y0014306D02*
G01X0009491Y0013966D01*
G01X0009491Y0013966D02*
G01X0009731Y0013726D01*
G01X0009731Y0013726D02*
G01X0010070Y0013726D01*
G01X0010070Y0013726D02*
G01X0010311Y0013966D01*
G01X0010311Y0013966D02*
G01X0010311Y0014306D01*
G01X0010311Y0014306D02*
G01X0010070Y0014546D01*
G01X0010070Y0014546D02*
G01X0009731Y0014546D01*
G01X0009577Y0014393D02*
G01X0009224Y0014393D01*
G01X0009311Y0014306D02*
G01X0009070Y0014546D01*
G01X0009070Y0014546D02*
G01X0008731Y0014546D01*
G01X0008731Y0014546D02*
G01X0008491Y0014306D01*
G01X0008491Y0014306D02*
G01X0008491Y0013966D01*
G01X0008491Y0013966D02*
G01X0008731Y0013726D01*
G01X0008731Y0013726D02*
G01X0009070Y0013726D01*
G01X0009070Y0013726D02*
G01X0009311Y0013966D01*
G01X0009311Y0013966D02*
G01X0009311Y0014306D01*
G01X0009311Y0014293D02*
G01X0009491Y0014293D01*
G01X0009491Y0014193D02*
G01X0009311Y0014193D01*
G01X0009311Y0014093D02*
G01X0009491Y0014093D01*
G01X0009491Y0013993D02*
G01X0009311Y0013993D01*
G01X0009238Y0013894D02*
G01X0009563Y0013894D01*
G01X0009663Y0013794D02*
G01X0009138Y0013794D01*
G01X0008663Y0013794D02*
G01X0001580Y0013794D01*
G01X0001580Y0013894D02*
G01X0008563Y0013894D01*
G01X0008491Y0013993D02*
G01X0001580Y0013993D01*
G01X0001580Y0014093D02*
G01X0008491Y0014093D01*
G01X0008491Y0014193D02*
G01X0001580Y0014193D01*
G01X0001580Y0014293D02*
G01X0008491Y0014293D01*
G01X0008577Y0014393D02*
G01X0001580Y0014393D01*
G01X0001580Y0014493D02*
G01X0008677Y0014493D01*
G01X0008949Y0014692D02*
G01X0001580Y0014692D01*
G01X0001580Y0014593D02*
G01X0011309Y0014593D01*
G01X0011409Y0014493D02*
G01X0010124Y0014493D01*
G01X0010224Y0014393D02*
G01X0040135Y0014393D01*
G01X0040135Y0014493D02*
G01X0020520Y0014493D01*
G01X0020496Y0014469D02*
G01X0020635Y0014608D01*
G01X0020635Y0014608D02*
G01X0020710Y0014790D01*
G01X0020710Y0014790D02*
G01X0020710Y0014987D01*
G01X0020710Y0014987D02*
G01X0020635Y0015168D01*
G01X0020635Y0015168D02*
G01X0020496Y0015308D01*
G01X0020496Y0015308D02*
G01X0020314Y0015383D01*
G01X0020314Y0015383D02*
G01X0020117Y0015383D01*
G01X0020117Y0015383D02*
G01X0019935Y0015308D01*
G01X0019935Y0015308D02*
G01X0019796Y0015168D01*
G01X0019796Y0015168D02*
G01X0019721Y0014987D01*
G01X0019721Y0014987D02*
G01X0019721Y0014790D01*
G01X0019721Y0014790D02*
G01X0019796Y0014608D01*
G01X0019796Y0014608D02*
G01X0019935Y0014469D01*
G01X0019935Y0014469D02*
G01X0020117Y0014393D01*
G01X0020117Y0014393D02*
G01X0020314Y0014393D01*
G01X0020314Y0014393D02*
G01X0020496Y0014469D01*
G01X0020620Y0014593D02*
G01X0040135Y0014593D01*
G01X0040135Y0014692D02*
G01X0020670Y0014692D01*
G01X0020710Y0014792D02*
G01X0040135Y0014792D01*
G01X0040135Y0014892D02*
G01X0020710Y0014892D01*
G01X0020708Y0014992D02*
G01X0040135Y0014992D01*
G01X0040135Y0015092D02*
G01X0020667Y0015092D01*
G01X0020612Y0015192D02*
G01X0040135Y0015192D01*
G01X0040135Y0015291D02*
G01X0020512Y0015291D01*
G01X0019919Y0015291D02*
G01X0019512Y0015291D01*
G01X0019612Y0015192D02*
G01X0019819Y0015192D01*
G01X0019764Y0015092D02*
G01X0019667Y0015092D01*
G01X0019708Y0014992D02*
G01X0019723Y0014992D01*
G01X0019721Y0014892D02*
G01X0019710Y0014892D01*
G01X0019710Y0014792D02*
G01X0019721Y0014792D01*
G01X0019761Y0014692D02*
G01X0019670Y0014692D01*
G01X0019620Y0014593D02*
G01X0019811Y0014593D01*
G01X0019911Y0014493D02*
G01X0019520Y0014493D01*
G01X0019496Y0014308D02*
G01X0019314Y0014383D01*
G01X0019314Y0014383D02*
G01X0019117Y0014383D01*
G01X0019117Y0014383D02*
G01X0018935Y0014308D01*
G01X0018935Y0014308D02*
G01X0018796Y0014168D01*
G01X0018796Y0014168D02*
G01X0018721Y0013987D01*
G01X0018721Y0013987D02*
G01X0018721Y0013790D01*
G01X0018721Y0013790D02*
G01X0018796Y0013608D01*
G01X0018796Y0013608D02*
G01X0018935Y0013469D01*
G01X0018935Y0013469D02*
G01X0019117Y0013393D01*
G01X0019117Y0013393D02*
G01X0019314Y0013393D01*
G01X0019314Y0013393D02*
G01X0019496Y0013469D01*
G01X0019496Y0013469D02*
G01X0019635Y0013608D01*
G01X0019635Y0013608D02*
G01X0019710Y0013790D01*
G01X0019710Y0013790D02*
G01X0019710Y0013987D01*
G01X0019710Y0013987D02*
G01X0019635Y0014168D01*
G01X0019635Y0014168D02*
G01X0019496Y0014308D01*
G01X0019510Y0014293D02*
G01X0040135Y0014293D01*
G01X0040135Y0014193D02*
G01X0019610Y0014193D01*
G01X0019666Y0014093D02*
G01X0040135Y0014093D01*
G01X0040135Y0013993D02*
G01X0019707Y0013993D01*
G01X0019710Y0013894D02*
G01X0040135Y0013894D01*
G01X0040135Y0013794D02*
G01X0019710Y0013794D01*
G01X0019671Y0013694D02*
G01X0040135Y0013694D01*
G01X0040135Y0013594D02*
G01X0019621Y0013594D01*
G01X0019521Y0013494D02*
G01X0040135Y0013494D01*
G01X0040135Y0013394D02*
G01X0019316Y0013394D01*
G01X0019435Y0013294D02*
G01X0001580Y0013294D01*
G01X0001580Y0013195D02*
G01X0019133Y0013195D01*
G01X0019194Y0013230D02*
G01X0018886Y0013052D01*
G01X0018886Y0013052D02*
G01X0018634Y0012800D01*
G01X0018634Y0012800D02*
G01X0018457Y0012492D01*
G01X0018457Y0012492D02*
G01X0018364Y0012149D01*
G01X0018364Y0012149D02*
G01X0018364Y0011793D01*
G01X0018364Y0011793D02*
G01X0018457Y0011449D01*
G01X0018457Y0011449D02*
G01X0018634Y0011141D01*
G01X0018634Y0011141D02*
G01X0018886Y0010890D01*
G01X0018886Y0010890D02*
G01X0019194Y0010712D01*
G01X0019194Y0010712D02*
G01X0019538Y0010620D01*
G01X0019538Y0010620D02*
G01X0019893Y0010620D01*
G01X0019893Y0010620D02*
G01X0020237Y0010712D01*
G01X0020237Y0010712D02*
G01X0020545Y0010890D01*
G01X0020545Y0010890D02*
G01X0020797Y0011141D01*
G01X0020797Y0011141D02*
G01X0020974Y0011449D01*
G01X0020974Y0011449D02*
G01X0021067Y0011793D01*
G01X0021067Y0011793D02*
G01X0021067Y0012149D01*
G01X0021067Y0012149D02*
G01X0020974Y0012492D01*
G01X0020974Y0012492D02*
G01X0020797Y0012800D01*
G01X0020797Y0012800D02*
G01X0020545Y0013052D01*
G01X0020545Y0013052D02*
G01X0020237Y0013230D01*
G01X0020237Y0013230D02*
G01X0019893Y0013322D01*
G01X0019893Y0013322D02*
G01X0019538Y0013322D01*
G01X0019538Y0013322D02*
G01X0019194Y0013230D01*
G01X0019115Y0013394D02*
G01X0001580Y0013394D01*
G01X0001580Y0013494D02*
G01X0018910Y0013494D01*
G01X0018810Y0013594D02*
G01X0001580Y0013594D01*
G01X0001580Y0013694D02*
G01X0018760Y0013694D01*
G01X0018721Y0013794D02*
G01X0010138Y0013794D01*
G01X0010238Y0013894D02*
G01X0018721Y0013894D01*
G01X0018724Y0013993D02*
G01X0010311Y0013993D01*
G01X0010311Y0014093D02*
G01X0018765Y0014093D01*
G01X0018821Y0014193D02*
G01X0010311Y0014193D01*
G01X0010311Y0014293D02*
G01X0018921Y0014293D01*
G01X0018911Y0014493D02*
G01X0011904Y0014493D01*
G01X0012004Y0014593D02*
G01X0018811Y0014593D01*
G01X0018761Y0014692D02*
G01X0012066Y0014692D01*
G01X0012066Y0014792D02*
G01X0018721Y0014792D01*
G01X0018721Y0014892D02*
G01X0012066Y0014892D01*
G01X0012066Y0014992D02*
G01X0018723Y0014992D01*
G01X0018764Y0015092D02*
G01X0011970Y0015092D01*
G01X0011870Y0015192D02*
G01X0018819Y0015192D01*
G01X0018813Y0015591D02*
G01X0017612Y0015591D01*
G01X0017519Y0015498D02*
G01X0017759Y0015738D01*
G01X0017759Y0015738D02*
G01X0017759Y0016078D01*
G01X0017759Y0016078D02*
G01X0017519Y0016318D01*
G01X0017519Y0016318D02*
G01X0017180Y0016318D01*
G01X0017180Y0016318D02*
G01X0016939Y0016078D01*
G01X0016939Y0016078D02*
G01X0016939Y0015738D01*
G01X0016939Y0015738D02*
G01X0017180Y0015498D01*
G01X0017180Y0015498D02*
G01X0017519Y0015498D01*
G01X0017712Y0015691D02*
G01X0018762Y0015691D01*
G01X0018721Y0015791D02*
G01X0017759Y0015791D01*
G01X0017759Y0015891D02*
G01X0018721Y0015891D01*
G01X0018722Y0015990D02*
G01X0017759Y0015990D01*
G01X0017747Y0016090D02*
G01X0018764Y0016090D01*
G01X0018818Y0016190D02*
G01X0017647Y0016190D01*
G01X0017547Y0016290D02*
G01X0018918Y0016290D01*
G01X0019513Y0016290D02*
G01X0019918Y0016290D01*
G01X0019818Y0016190D02*
G01X0019613Y0016190D01*
G01X0019667Y0016090D02*
G01X0019764Y0016090D01*
G01X0019722Y0015990D02*
G01X0019709Y0015990D01*
G01X0019710Y0015891D02*
G01X0019721Y0015891D01*
G01X0019721Y0015791D02*
G01X0019710Y0015791D01*
G01X0019669Y0015691D02*
G01X0019762Y0015691D01*
G01X0019813Y0015591D02*
G01X0019618Y0015591D01*
G01X0019518Y0015491D02*
G01X0019913Y0015491D01*
G01X0020515Y0017488D02*
G01X0039741Y0017488D01*
G01X0039741Y0017588D02*
G01X0020615Y0017588D01*
G01X0020668Y0017688D02*
G01X0039741Y0017688D01*
G01X0039741Y0017788D02*
G01X0020710Y0017788D01*
G01X0020710Y0017888D02*
G01X0039741Y0017888D01*
G01X0039741Y0017987D02*
G01X0020710Y0017987D01*
G01X0020669Y0018087D02*
G01X0039741Y0018087D01*
G01X0039741Y0018187D02*
G01X0020616Y0018187D01*
G01X0020516Y0018287D02*
G01X0039741Y0018287D01*
G01X0040135Y0016390D02*
G01X0009484Y0016390D01*
G01X0009580Y0016290D02*
G01X0014152Y0016290D01*
G01X0014180Y0016318D02*
G01X0013939Y0016078D01*
G01X0013939Y0016078D02*
G01X0013939Y0015738D01*
G01X0013939Y0015738D02*
G01X0014180Y0015498D01*
G01X0014180Y0015498D02*
G01X0014519Y0015498D01*
G01X0014519Y0015498D02*
G01X0014759Y0015738D01*
G01X0014759Y0015738D02*
G01X0014759Y0016078D01*
G01X0014759Y0016078D02*
G01X0014519Y0016318D01*
G01X0014519Y0016318D02*
G01X0014180Y0016318D01*
G01X0014052Y0016190D02*
G01X0009580Y0016190D01*
G01X0009580Y0016090D02*
G01X0013952Y0016090D01*
G01X0013939Y0015990D02*
G01X0010133Y0015990D01*
G01X0010233Y0015891D02*
G01X0013939Y0015891D01*
G01X0013939Y0015791D02*
G01X0010330Y0015791D01*
G01X0010330Y0015691D02*
G01X0013986Y0015691D01*
G01X0014086Y0015591D02*
G01X0010330Y0015591D01*
G01X0009699Y0015192D02*
G01X0009580Y0015192D01*
G01X0009580Y0015291D02*
G01X0009599Y0015291D01*
G01X0009500Y0015391D02*
G01X0009482Y0015391D01*
G01X0009459Y0015491D02*
G01X0009382Y0015491D01*
G01X0009459Y0015591D02*
G01X0001580Y0015591D01*
G01X0001580Y0015691D02*
G01X0008950Y0015691D01*
G01X0008850Y0015791D02*
G01X0001580Y0015791D01*
G01X0001580Y0015891D02*
G01X0008750Y0015891D01*
G01X0008709Y0015990D02*
G01X0001580Y0015990D01*
G01X0001580Y0016090D02*
G01X0008709Y0016090D01*
G01X0008709Y0016190D02*
G01X0001580Y0016190D01*
G01X0001580Y0016290D02*
G01X0008709Y0016290D01*
G01X0008806Y0016390D02*
G01X0001580Y0016390D01*
G01X0001580Y0016490D02*
G01X0008906Y0016490D01*
G01X0008938Y0016590D02*
G01X0001580Y0016590D01*
G01X0001580Y0016689D02*
G01X0008838Y0016689D01*
G01X0008738Y0016789D02*
G01X0001580Y0016789D01*
G01X0001580Y0016889D02*
G01X0008735Y0016889D01*
G01X0008735Y0016989D02*
G01X0001580Y0016989D01*
G01X0001880Y0017089D02*
G01X0008735Y0017089D01*
G01X0008791Y0017189D02*
G01X0001954Y0017189D01*
G01X0001973Y0017288D02*
G01X0005633Y0017288D01*
G01X0005503Y0017388D02*
G01X0001973Y0017388D01*
G01X0001973Y0017488D02*
G01X0005435Y0017488D01*
G01X0005394Y0017588D02*
G01X0001973Y0017588D01*
G01X0001973Y0017688D02*
G01X0005392Y0017688D01*
G01X0005401Y0017788D02*
G01X0001973Y0017788D01*
G01X0001973Y0017888D02*
G01X0005442Y0017888D01*
G01X0005520Y0017987D02*
G01X0001973Y0017987D01*
G01X0001973Y0018287D02*
G01X0004638Y0018287D01*
G01X0004539Y0018387D02*
G01X0001973Y0018387D01*
G01X0001973Y0018487D02*
G01X0004443Y0018487D01*
G01X0004443Y0018587D02*
G01X0001973Y0018587D01*
G01X0001973Y0018686D02*
G01X0004443Y0018686D01*
G01X0004443Y0018786D02*
G01X0001973Y0018786D01*
G01X0001973Y0018886D02*
G01X0004508Y0018886D01*
G01X0004608Y0018986D02*
G01X0001973Y0018986D01*
G01X0001973Y0019286D02*
G01X0003403Y0019286D01*
G01X0003293Y0019385D02*
G01X0001973Y0019385D01*
G01X0001973Y0019485D02*
G01X0003217Y0019485D01*
G01X0003176Y0019585D02*
G01X0001973Y0019585D01*
G01X0001973Y0019685D02*
G01X0003152Y0019685D01*
G01X0003152Y0019785D02*
G01X0001973Y0019785D01*
G01X0001973Y0019885D02*
G01X0003163Y0019885D01*
G01X0003204Y0019984D02*
G01X0001973Y0019984D01*
G01X0001973Y0020084D02*
G01X0003262Y0020084D01*
G01X0003362Y0020184D02*
G01X0001973Y0020184D01*
G01X0001973Y0020284D02*
G01X0003569Y0020284D01*
G01X0003981Y0019286D02*
G01X0019913Y0019286D01*
G01X0019919Y0019485D02*
G01X0019512Y0019485D01*
G01X0019612Y0019585D02*
G01X0019819Y0019585D01*
G01X0019764Y0019685D02*
G01X0019667Y0019685D01*
G01X0019708Y0019785D02*
G01X0019723Y0019785D01*
G01X0019721Y0019885D02*
G01X0019710Y0019885D01*
G01X0019710Y0019984D02*
G01X0019721Y0019984D01*
G01X0019761Y0020084D02*
G01X0019670Y0020084D01*
G01X0019619Y0020184D02*
G01X0019812Y0020184D01*
G01X0019912Y0020284D02*
G01X0019519Y0020284D01*
G01X0017152Y0016290D02*
G01X0014547Y0016290D01*
G01X0014647Y0016190D02*
G01X0017052Y0016190D01*
G01X0016952Y0016090D02*
G01X0014747Y0016090D01*
G01X0014759Y0015990D02*
G01X0016939Y0015990D01*
G01X0016939Y0015891D02*
G01X0014759Y0015891D01*
G01X0014759Y0015791D02*
G01X0016939Y0015791D01*
G01X0016986Y0015691D02*
G01X0014712Y0015691D01*
G01X0014612Y0015591D02*
G01X0017086Y0015591D01*
G01X0018960Y0013095D02*
G01X0001580Y0013095D01*
G01X0001580Y0012995D02*
G01X0018829Y0012995D01*
G01X0018729Y0012895D02*
G01X0009131Y0012895D01*
G01X0009039Y0012987D02*
G01X0009279Y0012747D01*
G01X0009279Y0012747D02*
G01X0009279Y0012407D01*
G01X0009279Y0012407D02*
G01X0009039Y0012167D01*
G01X0009039Y0012167D02*
G01X0008699Y0012167D01*
G01X0008699Y0012167D02*
G01X0008459Y0012407D01*
G01X0008459Y0012407D02*
G01X0008459Y0012747D01*
G01X0008459Y0012747D02*
G01X0008699Y0012987D01*
G01X0008699Y0012987D02*
G01X0009039Y0012987D01*
G01X0009231Y0012795D02*
G01X0018631Y0012795D01*
G01X0018574Y0012695D02*
G01X0009279Y0012695D01*
G01X0009279Y0012595D02*
G01X0018516Y0012595D01*
G01X0018458Y0012496D02*
G01X0009279Y0012496D01*
G01X0009268Y0012396D02*
G01X0018431Y0012396D01*
G01X0018404Y0012296D02*
G01X0009168Y0012296D01*
G01X0009068Y0012196D02*
G01X0018377Y0012196D01*
G01X0018364Y0012096D02*
G01X0001580Y0012096D01*
G01X0001580Y0012196D02*
G01X0008670Y0012196D01*
G01X0008570Y0012296D02*
G01X0001580Y0012296D01*
G01X0001580Y0012396D02*
G01X0008471Y0012396D01*
G01X0008459Y0012496D02*
G01X0001580Y0012496D01*
G01X0001580Y0012595D02*
G01X0008459Y0012595D01*
G01X0008459Y0012695D02*
G01X0001580Y0012695D01*
G01X0001580Y0012795D02*
G01X0008507Y0012795D01*
G01X0008607Y0012895D02*
G01X0001580Y0012895D01*
G01X0001580Y0011996D02*
G01X0018364Y0011996D01*
G01X0018364Y0011897D02*
G01X0001580Y0011897D01*
G01X0001580Y0011797D02*
G01X0018364Y0011797D01*
G01X0018390Y0011697D02*
G01X0001580Y0011697D01*
G01X0001580Y0011597D02*
G01X0018417Y0011597D01*
G01X0018444Y0011497D02*
G01X0001580Y0011497D01*
G01X0001580Y0011397D02*
G01X0018487Y0011397D01*
G01X0018544Y0011297D02*
G01X0001580Y0011297D01*
G01X0001580Y0011198D02*
G01X0018602Y0011198D01*
G01X0018678Y0011098D02*
G01X0001580Y0011098D01*
G01X0001580Y0010998D02*
G01X0003938Y0010998D01*
G01X0003942Y0010999D02*
G01X0003588Y0010904D01*
G01X0003588Y0010904D02*
G01X0003271Y0010721D01*
G01X0003271Y0010721D02*
G01X0003012Y0010462D01*
G01X0003012Y0010462D02*
G01X0002829Y0010145D01*
G01X0002829Y0010145D02*
G01X0002735Y0009792D01*
G01X0002735Y0009792D02*
G01X0002735Y0009425D01*
G01X0002735Y0009425D02*
G01X0002829Y0009072D01*
G01X0002829Y0009072D02*
G01X0003012Y0008755D01*
G01X0003012Y0008755D02*
G01X0003271Y0008496D01*
G01X0003271Y0008496D02*
G01X0003588Y0008313D01*
G01X0003588Y0008313D02*
G01X0003942Y0008218D01*
G01X0003942Y0008218D02*
G01X0004308Y0008218D01*
G01X0004308Y0008218D02*
G01X0004662Y0008313D01*
G01X0004662Y0008313D02*
G01X0004979Y0008496D01*
G01X0004979Y0008496D02*
G01X0005238Y0008755D01*
G01X0005238Y0008755D02*
G01X0005421Y0009072D01*
G01X0005421Y0009072D02*
G01X0005515Y0009425D01*
G01X0005515Y0009425D02*
G01X0005515Y0009792D01*
G01X0005515Y0009792D02*
G01X0005421Y0010145D01*
G01X0005421Y0010145D02*
G01X0005238Y0010462D01*
G01X0005238Y0010462D02*
G01X0004979Y0010721D01*
G01X0004979Y0010721D02*
G01X0004662Y0010904D01*
G01X0004662Y0010904D02*
G01X0004308Y0010999D01*
G01X0004308Y0010999D02*
G01X0003942Y0010999D01*
G01X0004312Y0010998D02*
G01X0018778Y0010998D01*
G01X0018878Y0010898D02*
G01X0010781Y0010898D01*
G01X0010692Y0010987D02*
G01X0010933Y0010747D01*
G01X0010933Y0010747D02*
G01X0010933Y0010407D01*
G01X0010933Y0010407D02*
G01X0010692Y0010167D01*
G01X0010692Y0010167D02*
G01X0010353Y0010167D01*
G01X0010353Y0010167D02*
G01X0010113Y0010407D01*
G01X0010113Y0010407D02*
G01X0010113Y0010747D01*
G01X0010113Y0010747D02*
G01X0010353Y0010987D01*
G01X0010353Y0010987D02*
G01X0010692Y0010987D01*
G01X0010881Y0010798D02*
G01X0019044Y0010798D01*
G01X0019244Y0010698D02*
G01X0010933Y0010698D01*
G01X0010933Y0010598D02*
G01X0032753Y0010598D01*
G01X0032753Y0010499D02*
G01X0010933Y0010499D01*
G01X0010924Y0010399D02*
G01X0032753Y0010399D01*
G01X0032753Y0010299D02*
G01X0010824Y0010299D01*
G01X0010724Y0010199D02*
G01X0032753Y0010199D01*
G01X0032753Y0010099D02*
G01X0005433Y0010099D01*
G01X0005460Y0009999D02*
G01X0032753Y0009999D01*
G01X0032753Y0009900D02*
G01X0005487Y0009900D01*
G01X0005513Y0009800D02*
G01X0009466Y0009800D01*
G01X0009555Y0009889D02*
G01X0009299Y0009634D01*
G01X0009299Y0009634D02*
G01X0009299Y0009273D01*
G01X0009299Y0009273D02*
G01X0009555Y0009017D01*
G01X0009555Y0009017D02*
G01X0009916Y0009017D01*
G01X0009916Y0009017D02*
G01X0010171Y0009273D01*
G01X0010171Y0009273D02*
G01X0010171Y0009634D01*
G01X0010171Y0009634D02*
G01X0009916Y0009889D01*
G01X0009916Y0009889D02*
G01X0009555Y0009889D01*
G01X0009366Y0009700D02*
G01X0005515Y0009700D01*
G01X0005515Y0009600D02*
G01X0009299Y0009600D01*
G01X0009299Y0009500D02*
G01X0005515Y0009500D01*
G01X0005509Y0009400D02*
G01X0009299Y0009400D01*
G01X0009299Y0009300D02*
G01X0005482Y0009300D01*
G01X0005455Y0009201D02*
G01X0009371Y0009201D01*
G01X0009471Y0009101D02*
G01X0005428Y0009101D01*
G01X0005380Y0009001D02*
G01X0009917Y0009001D01*
G01X0009999Y0009101D02*
G01X0010017Y0009101D01*
G01X0010055Y0009139D02*
G01X0009799Y0008884D01*
G01X0009799Y0008884D02*
G01X0009799Y0008523D01*
G01X0009799Y0008523D02*
G01X0010055Y0008267D01*
G01X0010055Y0008267D02*
G01X0010416Y0008267D01*
G01X0010416Y0008267D02*
G01X0010671Y0008523D01*
G01X0010671Y0008523D02*
G01X0010671Y0008884D01*
G01X0010671Y0008884D02*
G01X0010416Y0009139D01*
G01X0010416Y0009139D02*
G01X0010055Y0009139D01*
G01X0010099Y0009201D02*
G01X0018836Y0009201D01*
G01X0018836Y0009101D02*
G01X0010454Y0009101D01*
G01X0010554Y0009001D02*
G01X0018836Y0009001D01*
G01X0018836Y0008901D02*
G01X0010653Y0008901D01*
G01X0010671Y0008801D02*
G01X0018836Y0008801D01*
G01X0018836Y0008701D02*
G01X0010671Y0008701D01*
G01X0010671Y0008601D02*
G01X0018836Y0008601D01*
G01X0018836Y0008502D02*
G01X0010650Y0008502D01*
G01X0010550Y0008402D02*
G01X0018836Y0008402D01*
G01X0018836Y0008302D02*
G01X0010450Y0008302D01*
G01X0010020Y0008302D02*
G01X0004621Y0008302D01*
G01X0004816Y0008402D02*
G01X0009920Y0008402D01*
G01X0009820Y0008502D02*
G01X0004984Y0008502D01*
G01X0005084Y0008601D02*
G01X0009799Y0008601D01*
G01X0009799Y0008701D02*
G01X0005184Y0008701D01*
G01X0005264Y0008801D02*
G01X0009799Y0008801D01*
G01X0009817Y0008901D02*
G01X0005322Y0008901D01*
G01X0005782Y0007713D02*
G01X0005627Y0007558D01*
G01X0005627Y0007558D02*
G01X0005543Y0007356D01*
G01X0005543Y0007356D02*
G01X0005543Y0007137D01*
G01X0005543Y0007137D02*
G01X0005627Y0006935D01*
G01X0005627Y0006935D02*
G01X0005782Y0006780D01*
G01X0005782Y0006780D02*
G01X0005984Y0006696D01*
G01X0005984Y0006696D02*
G01X0006203Y0006696D01*
G01X0006203Y0006696D02*
G01X0006405Y0006780D01*
G01X0006405Y0006780D02*
G01X0006560Y0006935D01*
G01X0006560Y0006935D02*
G01X0006643Y0007137D01*
G01X0006643Y0007137D02*
G01X0006643Y0007356D01*
G01X0006643Y0007356D02*
G01X0006560Y0007558D01*
G01X0006560Y0007558D02*
G01X0006405Y0007713D01*
G01X0006405Y0007713D02*
G01X0006203Y0007796D01*
G01X0006203Y0007796D02*
G01X0005984Y0007796D01*
G01X0005984Y0007796D02*
G01X0005782Y0007713D01*
G01X0005772Y0007703D02*
G01X0001580Y0007703D01*
G01X0001580Y0007603D02*
G01X0005672Y0007603D01*
G01X0005605Y0007503D02*
G01X0001580Y0007503D01*
G01X0001580Y0007403D02*
G01X0005563Y0007403D01*
G01X0005543Y0007303D02*
G01X0001580Y0007303D01*
G01X0001580Y0007204D02*
G01X0005543Y0007204D01*
G01X0005557Y0007104D02*
G01X0001580Y0007104D01*
G01X0001580Y0007004D02*
G01X0005599Y0007004D01*
G01X0005658Y0006904D02*
G01X0001580Y0006904D01*
G01X0001580Y0006804D02*
G01X0005758Y0006804D01*
G01X0005965Y0006704D02*
G01X0001580Y0006704D01*
G01X0001580Y0006604D02*
G01X0018836Y0006604D01*
G01X0018836Y0006704D02*
G01X0006222Y0006704D01*
G01X0006429Y0006804D02*
G01X0018836Y0006804D01*
G01X0018836Y0006904D02*
G01X0006529Y0006904D01*
G01X0006588Y0007004D02*
G01X0018836Y0007004D01*
G01X0018836Y0007104D02*
G01X0006630Y0007104D01*
G01X0006643Y0007204D02*
G01X0018836Y0007204D01*
G01X0018836Y0007303D02*
G01X0006643Y0007303D01*
G01X0006624Y0007403D02*
G01X0018836Y0007403D01*
G01X0018836Y0007503D02*
G01X0006582Y0007503D01*
G01X0006515Y0007603D02*
G01X0018836Y0007603D01*
G01X0018836Y0007703D02*
G01X0006415Y0007703D01*
G01X0006187Y0005160D02*
G01X0005921Y0005160D01*
G01X0005921Y0005160D02*
G01X0005675Y0005058D01*
G01X0005675Y0005058D02*
G01X0005486Y0004870D01*
G01X0005486Y0004870D02*
G01X0005384Y0004624D01*
G01X0005384Y0004624D02*
G01X0005384Y0004357D01*
G01X0005384Y0004357D02*
G01X0005486Y0004111D01*
G01X0005486Y0004111D02*
G01X0005675Y0003922D01*
G01X0005675Y0003922D02*
G01X0005921Y0003820D01*
G01X0005921Y0003820D02*
G01X0006187Y0003820D01*
G01X0006187Y0003820D02*
G01X0006434Y0003922D01*
G01X0006434Y0003922D02*
G01X0006622Y0004111D01*
G01X0006622Y0004111D02*
G01X0006724Y0004357D01*
G01X0006724Y0004357D02*
G01X0006724Y0004624D01*
G01X0006724Y0004624D02*
G01X0006622Y0004870D01*
G01X0006622Y0004870D02*
G01X0006434Y0005058D01*
G01X0006434Y0005058D02*
G01X0006187Y0005160D01*
G01X0006317Y0005107D02*
G01X0014708Y0005107D01*
G01X0014592Y0005058D02*
G01X0014403Y0004870D01*
G01X0014403Y0004870D02*
G01X0014301Y0004624D01*
G01X0014301Y0004624D02*
G01X0014301Y0004357D01*
G01X0014301Y0004357D02*
G01X0014403Y0004111D01*
G01X0014403Y0004111D02*
G01X0014592Y0003922D01*
G01X0014592Y0003922D02*
G01X0014838Y0003820D01*
G01X0014838Y0003820D02*
G01X0015105Y0003820D01*
G01X0015105Y0003820D02*
G01X0015351Y0003922D01*
G01X0015351Y0003922D02*
G01X0015539Y0004111D01*
G01X0015539Y0004111D02*
G01X0015641Y0004357D01*
G01X0015641Y0004357D02*
G01X0015641Y0004624D01*
G01X0015641Y0004624D02*
G01X0015539Y0004870D01*
G01X0015539Y0004870D02*
G01X0015351Y0005058D01*
G01X0015351Y0005058D02*
G01X0015105Y0005160D01*
G01X0015105Y0005160D02*
G01X0014838Y0005160D01*
G01X0014838Y0005160D02*
G01X0014592Y0005058D01*
G01X0014540Y0005007D02*
G01X0006485Y0005007D01*
G01X0006585Y0004907D02*
G01X0014440Y0004907D01*
G01X0014377Y0004807D02*
G01X0006648Y0004807D01*
G01X0006690Y0004707D02*
G01X0014336Y0004707D01*
G01X0014301Y0004607D02*
G01X0006724Y0004607D01*
G01X0006724Y0004508D02*
G01X0014301Y0004508D01*
G01X0014301Y0004408D02*
G01X0006724Y0004408D01*
G01X0006704Y0004308D02*
G01X0014322Y0004308D01*
G01X0014363Y0004208D02*
G01X0006662Y0004208D01*
G01X0006619Y0004108D02*
G01X0014406Y0004108D01*
G01X0014506Y0004008D02*
G01X0006519Y0004008D01*
G01X0006400Y0003908D02*
G01X0014626Y0003908D01*
G01X0015317Y0003908D02*
G01X0018836Y0003908D01*
G01X0018836Y0004008D02*
G01X0015437Y0004008D01*
G01X0015537Y0004108D02*
G01X0018836Y0004108D01*
G01X0018836Y0004208D02*
G01X0015580Y0004208D01*
G01X0015621Y0004308D02*
G01X0018836Y0004308D01*
G01X0018836Y0004408D02*
G01X0015641Y0004408D01*
G01X0015641Y0004508D02*
G01X0018836Y0004508D01*
G01X0018836Y0004607D02*
G01X0015641Y0004607D01*
G01X0015607Y0004707D02*
G01X0018836Y0004707D01*
G01X0018836Y0004807D02*
G01X0015565Y0004807D01*
G01X0015502Y0004907D02*
G01X0018836Y0004907D01*
G01X0018836Y0005007D02*
G01X0015402Y0005007D01*
G01X0015235Y0005107D02*
G01X0018836Y0005107D01*
G01X0018836Y0005206D02*
G01X0001580Y0005206D01*
G01X0001580Y0005306D02*
G01X0018836Y0005306D01*
G01X0018836Y0005406D02*
G01X0001580Y0005406D01*
G01X0001580Y0005506D02*
G01X0018836Y0005506D01*
G01X0018836Y0005606D02*
G01X0001580Y0005606D01*
G01X0001580Y0005706D02*
G01X0018836Y0005706D01*
G01X0018836Y0005806D02*
G01X0001580Y0005806D01*
G01X0001580Y0005905D02*
G01X0018836Y0005905D01*
G01X0018836Y0006005D02*
G01X0001580Y0006005D01*
G01X0001580Y0006105D02*
G01X0018836Y0006105D01*
G01X0018836Y0006205D02*
G01X0001580Y0006205D01*
G01X0001580Y0006305D02*
G01X0018836Y0006305D01*
G01X0018836Y0006405D02*
G01X0001580Y0006405D01*
G01X0001580Y0006505D02*
G01X0018836Y0006505D01*
G01X0018836Y0007803D02*
G01X0001580Y0007803D01*
G01X0001580Y0007902D02*
G01X0018836Y0007902D01*
G01X0018836Y0008002D02*
G01X0001580Y0008002D01*
G01X0001580Y0008102D02*
G01X0018836Y0008102D01*
G01X0018836Y0008202D02*
G01X0001580Y0008202D01*
G01X0001580Y0008302D02*
G01X0003629Y0008302D01*
G01X0003434Y0008402D02*
G01X0001580Y0008402D01*
G01X0001580Y0008502D02*
G01X0003266Y0008502D01*
G01X0003166Y0008601D02*
G01X0001580Y0008601D01*
G01X0001580Y0008701D02*
G01X0003066Y0008701D01*
G01X0002986Y0008801D02*
G01X0001580Y0008801D01*
G01X0001580Y0008901D02*
G01X0002928Y0008901D01*
G01X0002870Y0009001D02*
G01X0001580Y0009001D01*
G01X0001580Y0009101D02*
G01X0002822Y0009101D01*
G01X0002795Y0009201D02*
G01X0001580Y0009201D01*
G01X0001580Y0009300D02*
G01X0002768Y0009300D01*
G01X0002741Y0009400D02*
G01X0001580Y0009400D01*
G01X0001580Y0009500D02*
G01X0002735Y0009500D01*
G01X0002735Y0009600D02*
G01X0001580Y0009600D01*
G01X0001580Y0009700D02*
G01X0002735Y0009700D01*
G01X0002737Y0009800D02*
G01X0001580Y0009800D01*
G01X0001580Y0009900D02*
G01X0002763Y0009900D01*
G01X0002790Y0009999D02*
G01X0001580Y0009999D01*
G01X0001580Y0010099D02*
G01X0002817Y0010099D01*
G01X0002860Y0010199D02*
G01X0001580Y0010199D01*
G01X0001580Y0010299D02*
G01X0002918Y0010299D01*
G01X0002976Y0010399D02*
G01X0001580Y0010399D01*
G01X0001580Y0010499D02*
G01X0003049Y0010499D01*
G01X0003148Y0010598D02*
G01X0001580Y0010598D01*
G01X0001580Y0010698D02*
G01X0003248Y0010698D01*
G01X0003404Y0010798D02*
G01X0001580Y0010798D01*
G01X0001580Y0010898D02*
G01X0003577Y0010898D01*
G01X0004672Y0010898D02*
G01X0010264Y0010898D01*
G01X0010164Y0010798D02*
G01X0004845Y0010798D01*
G01X0005002Y0010698D02*
G01X0010113Y0010698D01*
G01X0010113Y0010598D02*
G01X0005101Y0010598D01*
G01X0005201Y0010499D02*
G01X0010113Y0010499D01*
G01X0010121Y0010399D02*
G01X0005274Y0010399D01*
G01X0005332Y0010299D02*
G01X0010221Y0010299D01*
G01X0010321Y0010199D02*
G01X0005390Y0010199D01*
G01X0010005Y0009800D02*
G01X0032753Y0009800D01*
G01X0032753Y0009700D02*
G01X0010105Y0009700D01*
G01X0010171Y0009600D02*
G01X0032753Y0009600D01*
G01X0032753Y0010698D02*
G01X0020187Y0010698D01*
G01X0020387Y0010798D02*
G01X0032760Y0010798D01*
G01X0032817Y0010898D02*
G01X0020553Y0010898D01*
G01X0020653Y0010998D02*
G01X0038069Y0010998D01*
G01X0037969Y0011098D02*
G01X0020753Y0011098D01*
G01X0020829Y0011198D02*
G01X0037893Y0011198D01*
G01X0037835Y0011297D02*
G01X0020887Y0011297D01*
G01X0020945Y0011397D02*
G01X0037778Y0011397D01*
G01X0037735Y0011497D02*
G01X0020987Y0011497D01*
G01X0021014Y0011597D02*
G01X0037708Y0011597D01*
G01X0037682Y0011697D02*
G01X0021041Y0011697D01*
G01X0021067Y0011797D02*
G01X0037656Y0011797D01*
G01X0037656Y0011897D02*
G01X0021067Y0011897D01*
G01X0021067Y0011996D02*
G01X0037656Y0011996D01*
G01X0037656Y0012096D02*
G01X0021067Y0012096D01*
G01X0021054Y0012196D02*
G01X0037668Y0012196D01*
G01X0037695Y0012296D02*
G01X0021027Y0012296D01*
G01X0021000Y0012396D02*
G01X0037722Y0012396D01*
G01X0037750Y0012496D02*
G01X0020973Y0012496D01*
G01X0020915Y0012595D02*
G01X0037807Y0012595D01*
G01X0037865Y0012695D02*
G01X0020857Y0012695D01*
G01X0020800Y0012795D02*
G01X0037923Y0012795D01*
G01X0038020Y0012895D02*
G01X0020702Y0012895D01*
G01X0020602Y0012995D02*
G01X0038120Y0012995D01*
G01X0038251Y0013095D02*
G01X0020471Y0013095D01*
G01X0020298Y0013195D02*
G01X0038424Y0013195D01*
G01X0038727Y0013294D02*
G01X0019996Y0013294D01*
G01X0019026Y0009500D02*
G01X0010171Y0009500D01*
G01X0010171Y0009400D02*
G01X0018878Y0009400D01*
G01X0018836Y0009300D02*
G01X0010171Y0009300D01*
G01X0005791Y0005107D02*
G01X0001580Y0005107D01*
G01X0001580Y0005007D02*
G01X0005623Y0005007D01*
G01X0005523Y0004907D02*
G01X0001580Y0004907D01*
G01X0001580Y0004807D02*
G01X0005460Y0004807D01*
G01X0005419Y0004707D02*
G01X0001580Y0004707D01*
G01X0001580Y0004607D02*
G01X0005384Y0004607D01*
G01X0005384Y0004508D02*
G01X0001580Y0004508D01*
G01X0001580Y0004408D02*
G01X0005384Y0004408D01*
G01X0005405Y0004308D02*
G01X0001580Y0004308D01*
G01X0001580Y0004208D02*
G01X0005446Y0004208D01*
G01X0005489Y0004108D02*
G01X0001580Y0004108D01*
G01X0001580Y0004008D02*
G01X0005589Y0004008D01*
G01X0005708Y0003908D02*
G01X0001580Y0003908D01*
G01X0001580Y0003809D02*
G01X0018836Y0003809D01*
G01X0018836Y0003709D02*
G01X0001580Y0003709D01*
G01X0001580Y0003609D02*
G01X0018836Y0003609D01*
G01X0018836Y0003509D02*
G01X0001580Y0003509D01*
G01X0001580Y0003409D02*
G01X0018836Y0003409D01*
G01X0018836Y0003309D02*
G01X0001580Y0003309D01*
G01X0001580Y0003209D02*
G01X0018836Y0003209D01*
G01X0018836Y0003110D02*
G01X0001580Y0003110D01*
G01X0001580Y0003010D02*
G01X0018836Y0003010D01*
G01X0008849Y0014792D02*
G01X0001580Y0014792D01*
G01X0001580Y0014892D02*
G01X0008749Y0014892D01*
G01X0008709Y0014992D02*
G01X0001580Y0014992D01*
G01X0001580Y0015092D02*
G01X0008709Y0015092D01*
G01X0008709Y0015192D02*
G01X0001580Y0015192D01*
G01X0001580Y0015291D02*
G01X0008709Y0015291D01*
G01X0008807Y0015391D02*
G01X0001580Y0015391D01*
G01X0001580Y0015491D02*
G01X0008907Y0015491D01*
G01X0009339Y0015691D02*
G01X0009459Y0015691D01*
G01X0009459Y0015791D02*
G01X0009439Y0015791D01*
G01X0009539Y0015891D02*
G01X0009557Y0015891D01*
G01X0009580Y0015990D02*
G01X0009656Y0015990D01*
G01X0009833Y0022381D02*
G01X0001580Y0022381D01*
G01X0001580Y0022481D02*
G01X0009647Y0022481D01*
G01X0009547Y0022581D02*
G01X0001580Y0022581D01*
G01X0001580Y0022680D02*
G01X0002403Y0022680D01*
G01X0002247Y0022780D02*
G01X0001580Y0022780D01*
G01X0001580Y0022880D02*
G01X0002147Y0022880D01*
G01X0002091Y0022980D02*
G01X0001580Y0022980D01*
G01X0001580Y0023080D02*
G01X0002049Y0023080D01*
G01X0002020Y0023180D02*
G01X0001580Y0023180D01*
G01X0001580Y0023280D02*
G01X0002020Y0023280D01*
G01X0002020Y0023379D02*
G01X0001580Y0023379D01*
G01X0001580Y0023479D02*
G01X0002048Y0023479D01*
G01X0002089Y0023579D02*
G01X0001580Y0023579D01*
G01X0001580Y0023679D02*
G01X0002144Y0023679D01*
G01X0002244Y0023779D02*
G01X0001580Y0023779D01*
G01X0001580Y0023879D02*
G01X0002394Y0023879D01*
G01X0003946Y0022680D02*
G01X0009498Y0022680D01*
G01X0009456Y0022780D02*
G01X0004102Y0022780D01*
G01X0004202Y0022880D02*
G01X0009451Y0022880D01*
G01X0009451Y0022980D02*
G01X0004259Y0022980D01*
G01X0004300Y0023080D02*
G01X0009481Y0023080D01*
G01X0009523Y0023180D02*
G01X0004329Y0023180D01*
G01X0004329Y0023280D02*
G01X0009607Y0023280D01*
G01X0019710Y0032965D02*
G01X0019721Y0032965D01*
G01X0019721Y0033065D02*
G01X0019678Y0033065D01*
G01X0019636Y0033165D02*
G01X0019721Y0033165D01*
G01X0019721Y0033265D02*
G01X0019539Y0033265D01*
G01X0039287Y0013294D02*
G01X0040135Y0013294D01*
G01X0040135Y0013195D02*
G01X0039589Y0013195D01*
G01X0039762Y0013095D02*
G01X0040135Y0013095D01*
G01X0040135Y0012995D02*
G01X0039893Y0012995D01*
G01X0039993Y0012895D02*
G01X0040135Y0012895D01*
G01X0040135Y0012795D02*
G01X0040091Y0012795D01*
G54D26*
G01X0039125Y0014061D03*
G01X0033908Y0014061D03*
G01X0028692Y0014061D03*
G01X0028692Y0010026D03*
G01X0023475Y0010026D03*
G01X0023475Y0014061D03*
G01X0023475Y0019242D03*
G01X0018259Y0019242D03*
G01X0013042Y0019400D03*
G01X0013042Y0014612D03*
G01X0007826Y0014061D03*
G01X0002609Y0014061D03*
G01X0002590Y0019242D03*
G01X0007826Y0020278D03*
G01X0007826Y0024427D03*
G01X0007826Y0028447D03*
G01X0007826Y0029825D03*
G01X0007826Y0033821D03*
G01X0002590Y0035002D03*
G01X0002590Y0029609D03*
G01X0002590Y0024427D03*
G01X0013042Y0024427D03*
G01X0018259Y0024427D03*
G01X0023475Y0024427D03*
G01X0028692Y0024427D03*
G01X0033908Y0024427D03*
G01X0039125Y0024427D03*
G01X0039125Y0029609D03*
G01X0033908Y0029609D03*
G01X0028692Y0029609D03*
G01X0023475Y0029609D03*
G01X0018259Y0029609D03*
G01X0013042Y0029609D03*
G01X0013042Y0035002D03*
G01X0018259Y0035002D03*
G01X0023475Y0035002D03*
G01X0028692Y0035002D03*
G01X0033908Y0035002D03*
G01X0033908Y0019242D03*
G01X0039125Y0019242D03*
G01X0028692Y0019242D03*
G01X0018259Y0008880D03*
G01X0013042Y0008880D03*
G01X0007826Y0008880D03*
G01X0002609Y0008880D03*
G01X0002590Y0003900D03*
G01X0007826Y0003900D03*
G01X0013042Y0003900D03*
G01X0018259Y0003900D03*
M02*
