M48
;GenerationSoftware,Autodesk,EAGLE,9.6.2*%
;CreationDate,2022-12-23T22:10:53Z*%
FMAT,2
ICI,OFF
METRIC,TZ,000.000
T01C2.700
T02C2.500
T03C0.450
T04C0.500
T05C0.600
T06C0.700
T07C0.800
T08C0.900
T09C1.000
T10C1.200
T11C1.300
T12C0.300
%
G90
M71
T01
X44000Y22000
X93000Y22000
X44000Y80000
X93000Y80000
T02
X92100Y66000
X7100Y16000
T03
X10180Y38700
X7640Y38700
T04
X54600Y58620
X54600Y56080
X52400Y58620
X52400Y56080
X50200Y58620
X50200Y56080
X48000Y58620
X48000Y56080
X38770Y70640
X38770Y68100
X38770Y65540
X38770Y63000
X36230Y70640
X36230Y68100
X36230Y65540
X36230Y63000
X32700Y32470
X32700Y29930
X30495Y32470
X30495Y29930
X27370Y70640
X27370Y68100
X27370Y65540
X27370Y63000
X24830Y70640
X24830Y68100
X24830Y65540
X24830Y63000
X19270Y40150
X16730Y40150
X15270Y40150
X12730Y40150
X17700Y32470
X17700Y29930
X15495Y32470
X15495Y29930
T05
X33000Y70640
X31095Y69370
X33000Y68100
X33000Y65540
X31095Y64270
X33000Y63000
X31650Y37370
X29745Y36100
X31650Y34830
X21300Y37370
X23205Y36100
X21300Y34830
X16390Y37370
X18295Y36100
X16390Y34830
T06
X32600Y76250
X32600Y74250
X34600Y76250
X34600Y74250
X36600Y76250
X36600Y74250
T07
X25040Y74350
X19960Y74350
X37840Y35730
X35300Y35730
X12720Y33440
X10180Y33440
X7640Y33440
T08
X45270Y75130
X45270Y72590
X45270Y70050
X45270Y67510
X45270Y64970
X45270Y62430
X45270Y59890
X45270Y57350
X45270Y54810
X45270Y52270
X45270Y49730
X45270Y47190
X45270Y44650
X45270Y42110
X45270Y39570
X45270Y37030
X45270Y34490
X45270Y31950
X45270Y29410
X45270Y26870
X42730Y75130
X42730Y72590
X42730Y70050
X42730Y67510
X42730Y64970
X42730Y62430
X42730Y59890
X42730Y57350
X42730Y54810
X42730Y52270
X42730Y49730
X42730Y47190
X42730Y44650
X42730Y42110
X42730Y39570
X42730Y37030
X42730Y34490
X42730Y31950
X42730Y29410
X42730Y26870
X37304Y59801
X34764Y59801
X26636Y59801
X24096Y59801
X37304Y41259
X34764Y41259
X26636Y41259
X24096Y41259
X19166Y69632
X4434Y69632
X19166Y43908
X4434Y43908
T09
X32100Y3300
X17100Y3300
T10
X12100Y78200
X7100Y78200
T11
X34640Y5840
X29560Y5840
X19640Y5840
X14560Y5840
X34640Y760
X29560Y760
X19640Y760
X14560Y760
T12
X41500Y1000
X25300Y1000
X9100Y81000
X1000Y1000
X1000Y7800
X1000Y16100
X1000Y24400
X1000Y32700
X1000Y49300
X1000Y57600
X1000Y65900
X1000Y74200
X1000Y81000
X2000Y41000
X40000Y34300
X9100Y49300
X9100Y65900
X9100Y1000
X17200Y7800
X10900Y16100
X73900Y82500
X73900Y72495
X73900Y44010
X82000Y31180
X73900Y18350
X65800Y82500
X65800Y56840
X65800Y18350
X57700Y82500
X57700Y72495
X57700Y44010
X65800Y31180
X57700Y18350
X49600Y82500
X46810Y56760
X49600Y31180
X23750Y6210
X38750Y6210
X38230Y2860
X49600Y18350
X41250Y82500
X41250Y49350
X38130Y28170
X36950Y66730
X34140Y66910
X41100Y24400
X41500Y16100
X41500Y7800
X39500Y33448
X39500Y38900
X33035Y25050
X29225Y26710
X19305Y26710
X14225Y26710
X25790Y37780
X46810Y55400
X28020Y61230
X25500Y64150
X33400Y82500
X33400Y57600
X41000Y56760
X41000Y55400
X28020Y64150
X33400Y23600
X34305Y26710
X31640Y40430
X32200Y7800
X18035Y25050
X16765Y29010
X31765Y29010
X22050Y30250
X8300Y37110
X23120Y2860
X27160Y37780
X14330Y32780
X39920Y66910
X10180Y31380
X24750Y30250
X25300Y81000
X17200Y23600
X24900Y27500
X17200Y81000
X17200Y58540
X23700Y49300
X21500Y74200
X82000Y82500
X82000Y56840
X82000Y18350
X90100Y82500
X90100Y69670
X90100Y44010
X90100Y18350
X97200Y44010
X98200Y81000
X98200Y69670
X98200Y56840
X98200Y31180
X98200Y18350
X24900Y16100
X7260Y54350
X26940Y50940
M30