G75*
%MOIN*%
%OFA0B0*%
%FSLAX25Y25*%
%IPPOS*%
%LPD*%
%AMOC8*
5,1,8,0,0,1.08239X$1,22.5*
%
%ADD10C,0.00000*%
%ADD11C,0.00500*%
%ADD12C,0.01200*%
%ADD13C,0.00600*%
%ADD14R,0.05000X0.03500*%
%ADD15R,0.21000X0.04000*%
%ADD16R,0.03500X0.05000*%
%ADD17R,0.04000X0.21000*%
%ADD18C,0.00800*%
%ADD19C,0.00060*%
%ADD20C,0.01000*%
%ADD21C,0.02000*%
%ADD22R,0.01500X0.02000*%
D10*
X0013297Y0027187D02*
X0013297Y0172857D01*
X0017234Y0172857D01*
X0017234Y0216164D01*
X0013297Y0216164D01*
X0013297Y0361833D01*
X0392037Y0361833D01*
X0392322Y0361830D01*
X0392608Y0361819D01*
X0392893Y0361802D01*
X0393177Y0361778D01*
X0393461Y0361747D01*
X0393744Y0361709D01*
X0394025Y0361664D01*
X0394306Y0361613D01*
X0394586Y0361555D01*
X0394864Y0361490D01*
X0395140Y0361418D01*
X0395414Y0361340D01*
X0395687Y0361255D01*
X0395957Y0361163D01*
X0396225Y0361065D01*
X0396491Y0360961D01*
X0396754Y0360850D01*
X0397014Y0360733D01*
X0397272Y0360610D01*
X0397526Y0360480D01*
X0397777Y0360344D01*
X0398025Y0360203D01*
X0398269Y0360055D01*
X0398510Y0359902D01*
X0398746Y0359742D01*
X0398979Y0359577D01*
X0399208Y0359407D01*
X0399433Y0359231D01*
X0399653Y0359049D01*
X0399869Y0358863D01*
X0400080Y0358671D01*
X0400287Y0358474D01*
X0400489Y0358272D01*
X0400686Y0358065D01*
X0400878Y0357854D01*
X0401064Y0357638D01*
X0401246Y0357418D01*
X0401422Y0357193D01*
X0401592Y0356964D01*
X0401757Y0356731D01*
X0401917Y0356495D01*
X0402070Y0356254D01*
X0402218Y0356010D01*
X0402359Y0355762D01*
X0402495Y0355511D01*
X0402625Y0355257D01*
X0402748Y0354999D01*
X0402865Y0354739D01*
X0402976Y0354476D01*
X0403080Y0354210D01*
X0403178Y0353942D01*
X0403270Y0353672D01*
X0403355Y0353399D01*
X0403433Y0353125D01*
X0403505Y0352849D01*
X0403570Y0352571D01*
X0403628Y0352291D01*
X0403679Y0352010D01*
X0403724Y0351729D01*
X0403762Y0351446D01*
X0403793Y0351162D01*
X0403817Y0350878D01*
X0403834Y0350593D01*
X0403845Y0350307D01*
X0403848Y0350022D01*
X0403848Y0216164D01*
X0399911Y0216164D01*
X0399911Y0172857D01*
X0403848Y0172857D01*
X0403848Y0119117D01*
X0403845Y0118832D01*
X0403834Y0118546D01*
X0403817Y0118261D01*
X0403793Y0117977D01*
X0403762Y0117693D01*
X0403724Y0117410D01*
X0403679Y0117129D01*
X0403628Y0116848D01*
X0403570Y0116568D01*
X0403505Y0116290D01*
X0403433Y0116014D01*
X0403355Y0115740D01*
X0403270Y0115467D01*
X0403178Y0115197D01*
X0403080Y0114929D01*
X0402976Y0114663D01*
X0402865Y0114400D01*
X0402748Y0114140D01*
X0402625Y0113882D01*
X0402495Y0113628D01*
X0402359Y0113377D01*
X0402218Y0113129D01*
X0402070Y0112885D01*
X0401917Y0112644D01*
X0401757Y0112408D01*
X0401592Y0112175D01*
X0401422Y0111946D01*
X0401246Y0111721D01*
X0401064Y0111501D01*
X0400878Y0111285D01*
X0400686Y0111074D01*
X0400489Y0110867D01*
X0400287Y0110665D01*
X0400080Y0110468D01*
X0399869Y0110276D01*
X0399653Y0110090D01*
X0399433Y0109908D01*
X0399208Y0109732D01*
X0398979Y0109562D01*
X0398746Y0109397D01*
X0398510Y0109237D01*
X0398269Y0109084D01*
X0398025Y0108936D01*
X0397777Y0108795D01*
X0397526Y0108659D01*
X0397272Y0108529D01*
X0397014Y0108406D01*
X0396754Y0108289D01*
X0396491Y0108178D01*
X0396225Y0108074D01*
X0395957Y0107976D01*
X0395687Y0107884D01*
X0395414Y0107799D01*
X0395140Y0107721D01*
X0394864Y0107649D01*
X0394586Y0107584D01*
X0394306Y0107526D01*
X0394025Y0107475D01*
X0393744Y0107430D01*
X0393461Y0107392D01*
X0393177Y0107361D01*
X0392893Y0107337D01*
X0392608Y0107320D01*
X0392322Y0107309D01*
X0392037Y0107306D01*
X0330029Y0107306D01*
X0330029Y0092542D01*
X0190856Y0092542D01*
X0190856Y0027187D01*
X0013297Y0027187D01*
X0036328Y0096085D02*
X0036330Y0096225D01*
X0036336Y0096365D01*
X0036346Y0096504D01*
X0036360Y0096643D01*
X0036378Y0096782D01*
X0036399Y0096920D01*
X0036425Y0097058D01*
X0036455Y0097195D01*
X0036488Y0097330D01*
X0036526Y0097465D01*
X0036567Y0097599D01*
X0036612Y0097732D01*
X0036660Y0097863D01*
X0036713Y0097992D01*
X0036769Y0098121D01*
X0036828Y0098247D01*
X0036892Y0098372D01*
X0036958Y0098495D01*
X0037029Y0098616D01*
X0037102Y0098735D01*
X0037179Y0098852D01*
X0037260Y0098966D01*
X0037343Y0099078D01*
X0037430Y0099188D01*
X0037520Y0099296D01*
X0037612Y0099400D01*
X0037708Y0099502D01*
X0037807Y0099602D01*
X0037908Y0099698D01*
X0038012Y0099792D01*
X0038119Y0099882D01*
X0038228Y0099969D01*
X0038340Y0100054D01*
X0038454Y0100135D01*
X0038570Y0100213D01*
X0038688Y0100287D01*
X0038809Y0100358D01*
X0038931Y0100426D01*
X0039056Y0100490D01*
X0039182Y0100551D01*
X0039309Y0100608D01*
X0039439Y0100661D01*
X0039570Y0100711D01*
X0039702Y0100756D01*
X0039835Y0100799D01*
X0039970Y0100837D01*
X0040105Y0100871D01*
X0040242Y0100902D01*
X0040379Y0100929D01*
X0040517Y0100951D01*
X0040656Y0100970D01*
X0040795Y0100985D01*
X0040934Y0100996D01*
X0041074Y0101003D01*
X0041214Y0101006D01*
X0041354Y0101005D01*
X0041494Y0101000D01*
X0041633Y0100991D01*
X0041773Y0100978D01*
X0041912Y0100961D01*
X0042050Y0100940D01*
X0042188Y0100916D01*
X0042325Y0100887D01*
X0042461Y0100855D01*
X0042596Y0100818D01*
X0042730Y0100778D01*
X0042863Y0100734D01*
X0042994Y0100686D01*
X0043124Y0100635D01*
X0043253Y0100580D01*
X0043380Y0100521D01*
X0043505Y0100458D01*
X0043628Y0100393D01*
X0043750Y0100323D01*
X0043869Y0100250D01*
X0043987Y0100174D01*
X0044102Y0100095D01*
X0044215Y0100012D01*
X0044325Y0099926D01*
X0044433Y0099837D01*
X0044538Y0099745D01*
X0044641Y0099650D01*
X0044741Y0099552D01*
X0044838Y0099452D01*
X0044932Y0099348D01*
X0045024Y0099242D01*
X0045112Y0099134D01*
X0045197Y0099023D01*
X0045279Y0098909D01*
X0045358Y0098793D01*
X0045433Y0098676D01*
X0045505Y0098556D01*
X0045573Y0098434D01*
X0045638Y0098310D01*
X0045700Y0098184D01*
X0045758Y0098057D01*
X0045812Y0097928D01*
X0045863Y0097797D01*
X0045909Y0097665D01*
X0045952Y0097532D01*
X0045992Y0097398D01*
X0046027Y0097263D01*
X0046059Y0097126D01*
X0046086Y0096989D01*
X0046110Y0096851D01*
X0046130Y0096713D01*
X0046146Y0096574D01*
X0046158Y0096434D01*
X0046166Y0096295D01*
X0046170Y0096155D01*
X0046170Y0096015D01*
X0046166Y0095875D01*
X0046158Y0095736D01*
X0046146Y0095596D01*
X0046130Y0095457D01*
X0046110Y0095319D01*
X0046086Y0095181D01*
X0046059Y0095044D01*
X0046027Y0094907D01*
X0045992Y0094772D01*
X0045952Y0094638D01*
X0045909Y0094505D01*
X0045863Y0094373D01*
X0045812Y0094242D01*
X0045758Y0094113D01*
X0045700Y0093986D01*
X0045638Y0093860D01*
X0045573Y0093736D01*
X0045505Y0093614D01*
X0045433Y0093494D01*
X0045358Y0093377D01*
X0045279Y0093261D01*
X0045197Y0093147D01*
X0045112Y0093036D01*
X0045024Y0092928D01*
X0044932Y0092822D01*
X0044838Y0092718D01*
X0044741Y0092618D01*
X0044641Y0092520D01*
X0044538Y0092425D01*
X0044433Y0092333D01*
X0044325Y0092244D01*
X0044215Y0092158D01*
X0044102Y0092075D01*
X0043987Y0091996D01*
X0043869Y0091920D01*
X0043750Y0091847D01*
X0043628Y0091777D01*
X0043505Y0091712D01*
X0043380Y0091649D01*
X0043253Y0091590D01*
X0043124Y0091535D01*
X0042994Y0091484D01*
X0042863Y0091436D01*
X0042730Y0091392D01*
X0042596Y0091352D01*
X0042461Y0091315D01*
X0042325Y0091283D01*
X0042188Y0091254D01*
X0042050Y0091230D01*
X0041912Y0091209D01*
X0041773Y0091192D01*
X0041633Y0091179D01*
X0041494Y0091170D01*
X0041354Y0091165D01*
X0041214Y0091164D01*
X0041074Y0091167D01*
X0040934Y0091174D01*
X0040795Y0091185D01*
X0040656Y0091200D01*
X0040517Y0091219D01*
X0040379Y0091241D01*
X0040242Y0091268D01*
X0040105Y0091299D01*
X0039970Y0091333D01*
X0039835Y0091371D01*
X0039702Y0091414D01*
X0039570Y0091459D01*
X0039439Y0091509D01*
X0039309Y0091562D01*
X0039182Y0091619D01*
X0039056Y0091680D01*
X0038931Y0091744D01*
X0038809Y0091812D01*
X0038688Y0091883D01*
X0038570Y0091957D01*
X0038454Y0092035D01*
X0038340Y0092116D01*
X0038228Y0092201D01*
X0038119Y0092288D01*
X0038012Y0092378D01*
X0037908Y0092472D01*
X0037807Y0092568D01*
X0037708Y0092668D01*
X0037612Y0092770D01*
X0037520Y0092874D01*
X0037430Y0092982D01*
X0037343Y0093092D01*
X0037260Y0093204D01*
X0037179Y0093318D01*
X0037102Y0093435D01*
X0037029Y0093554D01*
X0036958Y0093675D01*
X0036892Y0093798D01*
X0036828Y0093923D01*
X0036769Y0094049D01*
X0036713Y0094178D01*
X0036660Y0094307D01*
X0036612Y0094438D01*
X0036567Y0094571D01*
X0036526Y0094705D01*
X0036488Y0094840D01*
X0036455Y0094975D01*
X0036425Y0095112D01*
X0036399Y0095250D01*
X0036378Y0095388D01*
X0036360Y0095527D01*
X0036346Y0095666D01*
X0036336Y0095805D01*
X0036330Y0095945D01*
X0036328Y0096085D01*
X0191742Y0119707D02*
X0191744Y0119854D01*
X0191750Y0120000D01*
X0191760Y0120146D01*
X0191774Y0120292D01*
X0191792Y0120438D01*
X0191813Y0120583D01*
X0191839Y0120727D01*
X0191869Y0120871D01*
X0191902Y0121013D01*
X0191939Y0121155D01*
X0191980Y0121296D01*
X0192025Y0121435D01*
X0192074Y0121574D01*
X0192126Y0121711D01*
X0192183Y0121846D01*
X0192242Y0121980D01*
X0192306Y0122112D01*
X0192373Y0122242D01*
X0192443Y0122371D01*
X0192517Y0122498D01*
X0192594Y0122622D01*
X0192675Y0122745D01*
X0192759Y0122865D01*
X0192846Y0122983D01*
X0192936Y0123098D01*
X0193029Y0123211D01*
X0193126Y0123322D01*
X0193225Y0123430D01*
X0193327Y0123535D01*
X0193432Y0123637D01*
X0193540Y0123736D01*
X0193651Y0123833D01*
X0193764Y0123926D01*
X0193879Y0124016D01*
X0193997Y0124103D01*
X0194117Y0124187D01*
X0194240Y0124268D01*
X0194364Y0124345D01*
X0194491Y0124419D01*
X0194620Y0124489D01*
X0194750Y0124556D01*
X0194882Y0124620D01*
X0195016Y0124679D01*
X0195151Y0124736D01*
X0195288Y0124788D01*
X0195427Y0124837D01*
X0195566Y0124882D01*
X0195707Y0124923D01*
X0195849Y0124960D01*
X0195991Y0124993D01*
X0196135Y0125023D01*
X0196279Y0125049D01*
X0196424Y0125070D01*
X0196570Y0125088D01*
X0196716Y0125102D01*
X0196862Y0125112D01*
X0197008Y0125118D01*
X0197155Y0125120D01*
X0197302Y0125118D01*
X0197448Y0125112D01*
X0197594Y0125102D01*
X0197740Y0125088D01*
X0197886Y0125070D01*
X0198031Y0125049D01*
X0198175Y0125023D01*
X0198319Y0124993D01*
X0198461Y0124960D01*
X0198603Y0124923D01*
X0198744Y0124882D01*
X0198883Y0124837D01*
X0199022Y0124788D01*
X0199159Y0124736D01*
X0199294Y0124679D01*
X0199428Y0124620D01*
X0199560Y0124556D01*
X0199690Y0124489D01*
X0199819Y0124419D01*
X0199946Y0124345D01*
X0200070Y0124268D01*
X0200193Y0124187D01*
X0200313Y0124103D01*
X0200431Y0124016D01*
X0200546Y0123926D01*
X0200659Y0123833D01*
X0200770Y0123736D01*
X0200878Y0123637D01*
X0200983Y0123535D01*
X0201085Y0123430D01*
X0201184Y0123322D01*
X0201281Y0123211D01*
X0201374Y0123098D01*
X0201464Y0122983D01*
X0201551Y0122865D01*
X0201635Y0122745D01*
X0201716Y0122622D01*
X0201793Y0122498D01*
X0201867Y0122371D01*
X0201937Y0122242D01*
X0202004Y0122112D01*
X0202068Y0121980D01*
X0202127Y0121846D01*
X0202184Y0121711D01*
X0202236Y0121574D01*
X0202285Y0121435D01*
X0202330Y0121296D01*
X0202371Y0121155D01*
X0202408Y0121013D01*
X0202441Y0120871D01*
X0202471Y0120727D01*
X0202497Y0120583D01*
X0202518Y0120438D01*
X0202536Y0120292D01*
X0202550Y0120146D01*
X0202560Y0120000D01*
X0202566Y0119854D01*
X0202568Y0119707D01*
X0202566Y0119560D01*
X0202560Y0119414D01*
X0202550Y0119268D01*
X0202536Y0119122D01*
X0202518Y0118976D01*
X0202497Y0118831D01*
X0202471Y0118687D01*
X0202441Y0118543D01*
X0202408Y0118401D01*
X0202371Y0118259D01*
X0202330Y0118118D01*
X0202285Y0117979D01*
X0202236Y0117840D01*
X0202184Y0117703D01*
X0202127Y0117568D01*
X0202068Y0117434D01*
X0202004Y0117302D01*
X0201937Y0117172D01*
X0201867Y0117043D01*
X0201793Y0116916D01*
X0201716Y0116792D01*
X0201635Y0116669D01*
X0201551Y0116549D01*
X0201464Y0116431D01*
X0201374Y0116316D01*
X0201281Y0116203D01*
X0201184Y0116092D01*
X0201085Y0115984D01*
X0200983Y0115879D01*
X0200878Y0115777D01*
X0200770Y0115678D01*
X0200659Y0115581D01*
X0200546Y0115488D01*
X0200431Y0115398D01*
X0200313Y0115311D01*
X0200193Y0115227D01*
X0200070Y0115146D01*
X0199946Y0115069D01*
X0199819Y0114995D01*
X0199690Y0114925D01*
X0199560Y0114858D01*
X0199428Y0114794D01*
X0199294Y0114735D01*
X0199159Y0114678D01*
X0199022Y0114626D01*
X0198883Y0114577D01*
X0198744Y0114532D01*
X0198603Y0114491D01*
X0198461Y0114454D01*
X0198319Y0114421D01*
X0198175Y0114391D01*
X0198031Y0114365D01*
X0197886Y0114344D01*
X0197740Y0114326D01*
X0197594Y0114312D01*
X0197448Y0114302D01*
X0197302Y0114296D01*
X0197155Y0114294D01*
X0197008Y0114296D01*
X0196862Y0114302D01*
X0196716Y0114312D01*
X0196570Y0114326D01*
X0196424Y0114344D01*
X0196279Y0114365D01*
X0196135Y0114391D01*
X0195991Y0114421D01*
X0195849Y0114454D01*
X0195707Y0114491D01*
X0195566Y0114532D01*
X0195427Y0114577D01*
X0195288Y0114626D01*
X0195151Y0114678D01*
X0195016Y0114735D01*
X0194882Y0114794D01*
X0194750Y0114858D01*
X0194620Y0114925D01*
X0194491Y0114995D01*
X0194364Y0115069D01*
X0194240Y0115146D01*
X0194117Y0115227D01*
X0193997Y0115311D01*
X0193879Y0115398D01*
X0193764Y0115488D01*
X0193651Y0115581D01*
X0193540Y0115678D01*
X0193432Y0115777D01*
X0193327Y0115879D01*
X0193225Y0115984D01*
X0193126Y0116092D01*
X0193029Y0116203D01*
X0192936Y0116316D01*
X0192846Y0116431D01*
X0192759Y0116549D01*
X0192675Y0116669D01*
X0192594Y0116792D01*
X0192517Y0116916D01*
X0192443Y0117043D01*
X0192373Y0117172D01*
X0192306Y0117302D01*
X0192242Y0117434D01*
X0192183Y0117568D01*
X0192126Y0117703D01*
X0192074Y0117840D01*
X0192025Y0117979D01*
X0191980Y0118118D01*
X0191939Y0118259D01*
X0191902Y0118401D01*
X0191869Y0118543D01*
X0191839Y0118687D01*
X0191813Y0118831D01*
X0191792Y0118976D01*
X0191774Y0119122D01*
X0191760Y0119268D01*
X0191750Y0119414D01*
X0191744Y0119560D01*
X0191742Y0119707D01*
X0370974Y0292935D02*
X0370976Y0293075D01*
X0370982Y0293215D01*
X0370992Y0293354D01*
X0371006Y0293493D01*
X0371024Y0293632D01*
X0371045Y0293770D01*
X0371071Y0293908D01*
X0371101Y0294045D01*
X0371134Y0294180D01*
X0371172Y0294315D01*
X0371213Y0294449D01*
X0371258Y0294582D01*
X0371306Y0294713D01*
X0371359Y0294842D01*
X0371415Y0294971D01*
X0371474Y0295097D01*
X0371538Y0295222D01*
X0371604Y0295345D01*
X0371675Y0295466D01*
X0371748Y0295585D01*
X0371825Y0295702D01*
X0371906Y0295816D01*
X0371989Y0295928D01*
X0372076Y0296038D01*
X0372166Y0296146D01*
X0372258Y0296250D01*
X0372354Y0296352D01*
X0372453Y0296452D01*
X0372554Y0296548D01*
X0372658Y0296642D01*
X0372765Y0296732D01*
X0372874Y0296819D01*
X0372986Y0296904D01*
X0373100Y0296985D01*
X0373216Y0297063D01*
X0373334Y0297137D01*
X0373455Y0297208D01*
X0373577Y0297276D01*
X0373702Y0297340D01*
X0373828Y0297401D01*
X0373955Y0297458D01*
X0374085Y0297511D01*
X0374216Y0297561D01*
X0374348Y0297606D01*
X0374481Y0297649D01*
X0374616Y0297687D01*
X0374751Y0297721D01*
X0374888Y0297752D01*
X0375025Y0297779D01*
X0375163Y0297801D01*
X0375302Y0297820D01*
X0375441Y0297835D01*
X0375580Y0297846D01*
X0375720Y0297853D01*
X0375860Y0297856D01*
X0376000Y0297855D01*
X0376140Y0297850D01*
X0376279Y0297841D01*
X0376419Y0297828D01*
X0376558Y0297811D01*
X0376696Y0297790D01*
X0376834Y0297766D01*
X0376971Y0297737D01*
X0377107Y0297705D01*
X0377242Y0297668D01*
X0377376Y0297628D01*
X0377509Y0297584D01*
X0377640Y0297536D01*
X0377770Y0297485D01*
X0377899Y0297430D01*
X0378026Y0297371D01*
X0378151Y0297308D01*
X0378274Y0297243D01*
X0378396Y0297173D01*
X0378515Y0297100D01*
X0378633Y0297024D01*
X0378748Y0296945D01*
X0378861Y0296862D01*
X0378971Y0296776D01*
X0379079Y0296687D01*
X0379184Y0296595D01*
X0379287Y0296500D01*
X0379387Y0296402D01*
X0379484Y0296302D01*
X0379578Y0296198D01*
X0379670Y0296092D01*
X0379758Y0295984D01*
X0379843Y0295873D01*
X0379925Y0295759D01*
X0380004Y0295643D01*
X0380079Y0295526D01*
X0380151Y0295406D01*
X0380219Y0295284D01*
X0380284Y0295160D01*
X0380346Y0295034D01*
X0380404Y0294907D01*
X0380458Y0294778D01*
X0380509Y0294647D01*
X0380555Y0294515D01*
X0380598Y0294382D01*
X0380638Y0294248D01*
X0380673Y0294113D01*
X0380705Y0293976D01*
X0380732Y0293839D01*
X0380756Y0293701D01*
X0380776Y0293563D01*
X0380792Y0293424D01*
X0380804Y0293284D01*
X0380812Y0293145D01*
X0380816Y0293005D01*
X0380816Y0292865D01*
X0380812Y0292725D01*
X0380804Y0292586D01*
X0380792Y0292446D01*
X0380776Y0292307D01*
X0380756Y0292169D01*
X0380732Y0292031D01*
X0380705Y0291894D01*
X0380673Y0291757D01*
X0380638Y0291622D01*
X0380598Y0291488D01*
X0380555Y0291355D01*
X0380509Y0291223D01*
X0380458Y0291092D01*
X0380404Y0290963D01*
X0380346Y0290836D01*
X0380284Y0290710D01*
X0380219Y0290586D01*
X0380151Y0290464D01*
X0380079Y0290344D01*
X0380004Y0290227D01*
X0379925Y0290111D01*
X0379843Y0289997D01*
X0379758Y0289886D01*
X0379670Y0289778D01*
X0379578Y0289672D01*
X0379484Y0289568D01*
X0379387Y0289468D01*
X0379287Y0289370D01*
X0379184Y0289275D01*
X0379079Y0289183D01*
X0378971Y0289094D01*
X0378861Y0289008D01*
X0378748Y0288925D01*
X0378633Y0288846D01*
X0378515Y0288770D01*
X0378396Y0288697D01*
X0378274Y0288627D01*
X0378151Y0288562D01*
X0378026Y0288499D01*
X0377899Y0288440D01*
X0377770Y0288385D01*
X0377640Y0288334D01*
X0377509Y0288286D01*
X0377376Y0288242D01*
X0377242Y0288202D01*
X0377107Y0288165D01*
X0376971Y0288133D01*
X0376834Y0288104D01*
X0376696Y0288080D01*
X0376558Y0288059D01*
X0376419Y0288042D01*
X0376279Y0288029D01*
X0376140Y0288020D01*
X0376000Y0288015D01*
X0375860Y0288014D01*
X0375720Y0288017D01*
X0375580Y0288024D01*
X0375441Y0288035D01*
X0375302Y0288050D01*
X0375163Y0288069D01*
X0375025Y0288091D01*
X0374888Y0288118D01*
X0374751Y0288149D01*
X0374616Y0288183D01*
X0374481Y0288221D01*
X0374348Y0288264D01*
X0374216Y0288309D01*
X0374085Y0288359D01*
X0373955Y0288412D01*
X0373828Y0288469D01*
X0373702Y0288530D01*
X0373577Y0288594D01*
X0373455Y0288662D01*
X0373334Y0288733D01*
X0373216Y0288807D01*
X0373100Y0288885D01*
X0372986Y0288966D01*
X0372874Y0289051D01*
X0372765Y0289138D01*
X0372658Y0289228D01*
X0372554Y0289322D01*
X0372453Y0289418D01*
X0372354Y0289518D01*
X0372258Y0289620D01*
X0372166Y0289724D01*
X0372076Y0289832D01*
X0371989Y0289942D01*
X0371906Y0290054D01*
X0371825Y0290168D01*
X0371748Y0290285D01*
X0371675Y0290404D01*
X0371604Y0290525D01*
X0371538Y0290648D01*
X0371474Y0290773D01*
X0371415Y0290899D01*
X0371359Y0291028D01*
X0371306Y0291157D01*
X0371258Y0291288D01*
X0371213Y0291421D01*
X0371172Y0291555D01*
X0371134Y0291690D01*
X0371101Y0291825D01*
X0371071Y0291962D01*
X0371045Y0292100D01*
X0371024Y0292238D01*
X0371006Y0292377D01*
X0370992Y0292516D01*
X0370982Y0292655D01*
X0370976Y0292795D01*
X0370974Y0292935D01*
X0384655Y0348054D02*
X0384657Y0348201D01*
X0384663Y0348347D01*
X0384673Y0348493D01*
X0384687Y0348639D01*
X0384705Y0348785D01*
X0384726Y0348930D01*
X0384752Y0349074D01*
X0384782Y0349218D01*
X0384815Y0349360D01*
X0384852Y0349502D01*
X0384893Y0349643D01*
X0384938Y0349782D01*
X0384987Y0349921D01*
X0385039Y0350058D01*
X0385096Y0350193D01*
X0385155Y0350327D01*
X0385219Y0350459D01*
X0385286Y0350589D01*
X0385356Y0350718D01*
X0385430Y0350845D01*
X0385507Y0350969D01*
X0385588Y0351092D01*
X0385672Y0351212D01*
X0385759Y0351330D01*
X0385849Y0351445D01*
X0385942Y0351558D01*
X0386039Y0351669D01*
X0386138Y0351777D01*
X0386240Y0351882D01*
X0386345Y0351984D01*
X0386453Y0352083D01*
X0386564Y0352180D01*
X0386677Y0352273D01*
X0386792Y0352363D01*
X0386910Y0352450D01*
X0387030Y0352534D01*
X0387153Y0352615D01*
X0387277Y0352692D01*
X0387404Y0352766D01*
X0387533Y0352836D01*
X0387663Y0352903D01*
X0387795Y0352967D01*
X0387929Y0353026D01*
X0388064Y0353083D01*
X0388201Y0353135D01*
X0388340Y0353184D01*
X0388479Y0353229D01*
X0388620Y0353270D01*
X0388762Y0353307D01*
X0388904Y0353340D01*
X0389048Y0353370D01*
X0389192Y0353396D01*
X0389337Y0353417D01*
X0389483Y0353435D01*
X0389629Y0353449D01*
X0389775Y0353459D01*
X0389921Y0353465D01*
X0390068Y0353467D01*
X0390215Y0353465D01*
X0390361Y0353459D01*
X0390507Y0353449D01*
X0390653Y0353435D01*
X0390799Y0353417D01*
X0390944Y0353396D01*
X0391088Y0353370D01*
X0391232Y0353340D01*
X0391374Y0353307D01*
X0391516Y0353270D01*
X0391657Y0353229D01*
X0391796Y0353184D01*
X0391935Y0353135D01*
X0392072Y0353083D01*
X0392207Y0353026D01*
X0392341Y0352967D01*
X0392473Y0352903D01*
X0392603Y0352836D01*
X0392732Y0352766D01*
X0392859Y0352692D01*
X0392983Y0352615D01*
X0393106Y0352534D01*
X0393226Y0352450D01*
X0393344Y0352363D01*
X0393459Y0352273D01*
X0393572Y0352180D01*
X0393683Y0352083D01*
X0393791Y0351984D01*
X0393896Y0351882D01*
X0393998Y0351777D01*
X0394097Y0351669D01*
X0394194Y0351558D01*
X0394287Y0351445D01*
X0394377Y0351330D01*
X0394464Y0351212D01*
X0394548Y0351092D01*
X0394629Y0350969D01*
X0394706Y0350845D01*
X0394780Y0350718D01*
X0394850Y0350589D01*
X0394917Y0350459D01*
X0394981Y0350327D01*
X0395040Y0350193D01*
X0395097Y0350058D01*
X0395149Y0349921D01*
X0395198Y0349782D01*
X0395243Y0349643D01*
X0395284Y0349502D01*
X0395321Y0349360D01*
X0395354Y0349218D01*
X0395384Y0349074D01*
X0395410Y0348930D01*
X0395431Y0348785D01*
X0395449Y0348639D01*
X0395463Y0348493D01*
X0395473Y0348347D01*
X0395479Y0348201D01*
X0395481Y0348054D01*
X0395479Y0347907D01*
X0395473Y0347761D01*
X0395463Y0347615D01*
X0395449Y0347469D01*
X0395431Y0347323D01*
X0395410Y0347178D01*
X0395384Y0347034D01*
X0395354Y0346890D01*
X0395321Y0346748D01*
X0395284Y0346606D01*
X0395243Y0346465D01*
X0395198Y0346326D01*
X0395149Y0346187D01*
X0395097Y0346050D01*
X0395040Y0345915D01*
X0394981Y0345781D01*
X0394917Y0345649D01*
X0394850Y0345519D01*
X0394780Y0345390D01*
X0394706Y0345263D01*
X0394629Y0345139D01*
X0394548Y0345016D01*
X0394464Y0344896D01*
X0394377Y0344778D01*
X0394287Y0344663D01*
X0394194Y0344550D01*
X0394097Y0344439D01*
X0393998Y0344331D01*
X0393896Y0344226D01*
X0393791Y0344124D01*
X0393683Y0344025D01*
X0393572Y0343928D01*
X0393459Y0343835D01*
X0393344Y0343745D01*
X0393226Y0343658D01*
X0393106Y0343574D01*
X0392983Y0343493D01*
X0392859Y0343416D01*
X0392732Y0343342D01*
X0392603Y0343272D01*
X0392473Y0343205D01*
X0392341Y0343141D01*
X0392207Y0343082D01*
X0392072Y0343025D01*
X0391935Y0342973D01*
X0391796Y0342924D01*
X0391657Y0342879D01*
X0391516Y0342838D01*
X0391374Y0342801D01*
X0391232Y0342768D01*
X0391088Y0342738D01*
X0390944Y0342712D01*
X0390799Y0342691D01*
X0390653Y0342673D01*
X0390507Y0342659D01*
X0390361Y0342649D01*
X0390215Y0342643D01*
X0390068Y0342641D01*
X0389921Y0342643D01*
X0389775Y0342649D01*
X0389629Y0342659D01*
X0389483Y0342673D01*
X0389337Y0342691D01*
X0389192Y0342712D01*
X0389048Y0342738D01*
X0388904Y0342768D01*
X0388762Y0342801D01*
X0388620Y0342838D01*
X0388479Y0342879D01*
X0388340Y0342924D01*
X0388201Y0342973D01*
X0388064Y0343025D01*
X0387929Y0343082D01*
X0387795Y0343141D01*
X0387663Y0343205D01*
X0387533Y0343272D01*
X0387404Y0343342D01*
X0387277Y0343416D01*
X0387153Y0343493D01*
X0387030Y0343574D01*
X0386910Y0343658D01*
X0386792Y0343745D01*
X0386677Y0343835D01*
X0386564Y0343928D01*
X0386453Y0344025D01*
X0386345Y0344124D01*
X0386240Y0344226D01*
X0386138Y0344331D01*
X0386039Y0344439D01*
X0385942Y0344550D01*
X0385849Y0344663D01*
X0385759Y0344778D01*
X0385672Y0344896D01*
X0385588Y0345016D01*
X0385507Y0345139D01*
X0385430Y0345263D01*
X0385356Y0345390D01*
X0385286Y0345519D01*
X0385219Y0345649D01*
X0385155Y0345781D01*
X0385096Y0345915D01*
X0385039Y0346050D01*
X0384987Y0346187D01*
X0384938Y0346326D01*
X0384893Y0346465D01*
X0384852Y0346606D01*
X0384815Y0346748D01*
X0384782Y0346890D01*
X0384752Y0347034D01*
X0384726Y0347178D01*
X0384705Y0347323D01*
X0384687Y0347469D01*
X0384673Y0347615D01*
X0384663Y0347761D01*
X0384657Y0347907D01*
X0384655Y0348054D01*
X0191742Y0348054D02*
X0191744Y0348201D01*
X0191750Y0348347D01*
X0191760Y0348493D01*
X0191774Y0348639D01*
X0191792Y0348785D01*
X0191813Y0348930D01*
X0191839Y0349074D01*
X0191869Y0349218D01*
X0191902Y0349360D01*
X0191939Y0349502D01*
X0191980Y0349643D01*
X0192025Y0349782D01*
X0192074Y0349921D01*
X0192126Y0350058D01*
X0192183Y0350193D01*
X0192242Y0350327D01*
X0192306Y0350459D01*
X0192373Y0350589D01*
X0192443Y0350718D01*
X0192517Y0350845D01*
X0192594Y0350969D01*
X0192675Y0351092D01*
X0192759Y0351212D01*
X0192846Y0351330D01*
X0192936Y0351445D01*
X0193029Y0351558D01*
X0193126Y0351669D01*
X0193225Y0351777D01*
X0193327Y0351882D01*
X0193432Y0351984D01*
X0193540Y0352083D01*
X0193651Y0352180D01*
X0193764Y0352273D01*
X0193879Y0352363D01*
X0193997Y0352450D01*
X0194117Y0352534D01*
X0194240Y0352615D01*
X0194364Y0352692D01*
X0194491Y0352766D01*
X0194620Y0352836D01*
X0194750Y0352903D01*
X0194882Y0352967D01*
X0195016Y0353026D01*
X0195151Y0353083D01*
X0195288Y0353135D01*
X0195427Y0353184D01*
X0195566Y0353229D01*
X0195707Y0353270D01*
X0195849Y0353307D01*
X0195991Y0353340D01*
X0196135Y0353370D01*
X0196279Y0353396D01*
X0196424Y0353417D01*
X0196570Y0353435D01*
X0196716Y0353449D01*
X0196862Y0353459D01*
X0197008Y0353465D01*
X0197155Y0353467D01*
X0197302Y0353465D01*
X0197448Y0353459D01*
X0197594Y0353449D01*
X0197740Y0353435D01*
X0197886Y0353417D01*
X0198031Y0353396D01*
X0198175Y0353370D01*
X0198319Y0353340D01*
X0198461Y0353307D01*
X0198603Y0353270D01*
X0198744Y0353229D01*
X0198883Y0353184D01*
X0199022Y0353135D01*
X0199159Y0353083D01*
X0199294Y0353026D01*
X0199428Y0352967D01*
X0199560Y0352903D01*
X0199690Y0352836D01*
X0199819Y0352766D01*
X0199946Y0352692D01*
X0200070Y0352615D01*
X0200193Y0352534D01*
X0200313Y0352450D01*
X0200431Y0352363D01*
X0200546Y0352273D01*
X0200659Y0352180D01*
X0200770Y0352083D01*
X0200878Y0351984D01*
X0200983Y0351882D01*
X0201085Y0351777D01*
X0201184Y0351669D01*
X0201281Y0351558D01*
X0201374Y0351445D01*
X0201464Y0351330D01*
X0201551Y0351212D01*
X0201635Y0351092D01*
X0201716Y0350969D01*
X0201793Y0350845D01*
X0201867Y0350718D01*
X0201937Y0350589D01*
X0202004Y0350459D01*
X0202068Y0350327D01*
X0202127Y0350193D01*
X0202184Y0350058D01*
X0202236Y0349921D01*
X0202285Y0349782D01*
X0202330Y0349643D01*
X0202371Y0349502D01*
X0202408Y0349360D01*
X0202441Y0349218D01*
X0202471Y0349074D01*
X0202497Y0348930D01*
X0202518Y0348785D01*
X0202536Y0348639D01*
X0202550Y0348493D01*
X0202560Y0348347D01*
X0202566Y0348201D01*
X0202568Y0348054D01*
X0202566Y0347907D01*
X0202560Y0347761D01*
X0202550Y0347615D01*
X0202536Y0347469D01*
X0202518Y0347323D01*
X0202497Y0347178D01*
X0202471Y0347034D01*
X0202441Y0346890D01*
X0202408Y0346748D01*
X0202371Y0346606D01*
X0202330Y0346465D01*
X0202285Y0346326D01*
X0202236Y0346187D01*
X0202184Y0346050D01*
X0202127Y0345915D01*
X0202068Y0345781D01*
X0202004Y0345649D01*
X0201937Y0345519D01*
X0201867Y0345390D01*
X0201793Y0345263D01*
X0201716Y0345139D01*
X0201635Y0345016D01*
X0201551Y0344896D01*
X0201464Y0344778D01*
X0201374Y0344663D01*
X0201281Y0344550D01*
X0201184Y0344439D01*
X0201085Y0344331D01*
X0200983Y0344226D01*
X0200878Y0344124D01*
X0200770Y0344025D01*
X0200659Y0343928D01*
X0200546Y0343835D01*
X0200431Y0343745D01*
X0200313Y0343658D01*
X0200193Y0343574D01*
X0200070Y0343493D01*
X0199946Y0343416D01*
X0199819Y0343342D01*
X0199690Y0343272D01*
X0199560Y0343205D01*
X0199428Y0343141D01*
X0199294Y0343082D01*
X0199159Y0343025D01*
X0199022Y0342973D01*
X0198883Y0342924D01*
X0198744Y0342879D01*
X0198603Y0342838D01*
X0198461Y0342801D01*
X0198319Y0342768D01*
X0198175Y0342738D01*
X0198031Y0342712D01*
X0197886Y0342691D01*
X0197740Y0342673D01*
X0197594Y0342659D01*
X0197448Y0342649D01*
X0197302Y0342643D01*
X0197155Y0342641D01*
X0197008Y0342643D01*
X0196862Y0342649D01*
X0196716Y0342659D01*
X0196570Y0342673D01*
X0196424Y0342691D01*
X0196279Y0342712D01*
X0196135Y0342738D01*
X0195991Y0342768D01*
X0195849Y0342801D01*
X0195707Y0342838D01*
X0195566Y0342879D01*
X0195427Y0342924D01*
X0195288Y0342973D01*
X0195151Y0343025D01*
X0195016Y0343082D01*
X0194882Y0343141D01*
X0194750Y0343205D01*
X0194620Y0343272D01*
X0194491Y0343342D01*
X0194364Y0343416D01*
X0194240Y0343493D01*
X0194117Y0343574D01*
X0193997Y0343658D01*
X0193879Y0343745D01*
X0193764Y0343835D01*
X0193651Y0343928D01*
X0193540Y0344025D01*
X0193432Y0344124D01*
X0193327Y0344226D01*
X0193225Y0344331D01*
X0193126Y0344439D01*
X0193029Y0344550D01*
X0192936Y0344663D01*
X0192846Y0344778D01*
X0192759Y0344896D01*
X0192675Y0345016D01*
X0192594Y0345139D01*
X0192517Y0345263D01*
X0192443Y0345390D01*
X0192373Y0345519D01*
X0192306Y0345649D01*
X0192242Y0345781D01*
X0192183Y0345915D01*
X0192126Y0346050D01*
X0192074Y0346187D01*
X0192025Y0346326D01*
X0191980Y0346465D01*
X0191939Y0346606D01*
X0191902Y0346748D01*
X0191869Y0346890D01*
X0191839Y0347034D01*
X0191813Y0347178D01*
X0191792Y0347323D01*
X0191774Y0347469D01*
X0191760Y0347615D01*
X0191750Y0347761D01*
X0191744Y0347907D01*
X0191742Y0348054D01*
X0384655Y0119707D02*
X0384657Y0119854D01*
X0384663Y0120000D01*
X0384673Y0120146D01*
X0384687Y0120292D01*
X0384705Y0120438D01*
X0384726Y0120583D01*
X0384752Y0120727D01*
X0384782Y0120871D01*
X0384815Y0121013D01*
X0384852Y0121155D01*
X0384893Y0121296D01*
X0384938Y0121435D01*
X0384987Y0121574D01*
X0385039Y0121711D01*
X0385096Y0121846D01*
X0385155Y0121980D01*
X0385219Y0122112D01*
X0385286Y0122242D01*
X0385356Y0122371D01*
X0385430Y0122498D01*
X0385507Y0122622D01*
X0385588Y0122745D01*
X0385672Y0122865D01*
X0385759Y0122983D01*
X0385849Y0123098D01*
X0385942Y0123211D01*
X0386039Y0123322D01*
X0386138Y0123430D01*
X0386240Y0123535D01*
X0386345Y0123637D01*
X0386453Y0123736D01*
X0386564Y0123833D01*
X0386677Y0123926D01*
X0386792Y0124016D01*
X0386910Y0124103D01*
X0387030Y0124187D01*
X0387153Y0124268D01*
X0387277Y0124345D01*
X0387404Y0124419D01*
X0387533Y0124489D01*
X0387663Y0124556D01*
X0387795Y0124620D01*
X0387929Y0124679D01*
X0388064Y0124736D01*
X0388201Y0124788D01*
X0388340Y0124837D01*
X0388479Y0124882D01*
X0388620Y0124923D01*
X0388762Y0124960D01*
X0388904Y0124993D01*
X0389048Y0125023D01*
X0389192Y0125049D01*
X0389337Y0125070D01*
X0389483Y0125088D01*
X0389629Y0125102D01*
X0389775Y0125112D01*
X0389921Y0125118D01*
X0390068Y0125120D01*
X0390215Y0125118D01*
X0390361Y0125112D01*
X0390507Y0125102D01*
X0390653Y0125088D01*
X0390799Y0125070D01*
X0390944Y0125049D01*
X0391088Y0125023D01*
X0391232Y0124993D01*
X0391374Y0124960D01*
X0391516Y0124923D01*
X0391657Y0124882D01*
X0391796Y0124837D01*
X0391935Y0124788D01*
X0392072Y0124736D01*
X0392207Y0124679D01*
X0392341Y0124620D01*
X0392473Y0124556D01*
X0392603Y0124489D01*
X0392732Y0124419D01*
X0392859Y0124345D01*
X0392983Y0124268D01*
X0393106Y0124187D01*
X0393226Y0124103D01*
X0393344Y0124016D01*
X0393459Y0123926D01*
X0393572Y0123833D01*
X0393683Y0123736D01*
X0393791Y0123637D01*
X0393896Y0123535D01*
X0393998Y0123430D01*
X0394097Y0123322D01*
X0394194Y0123211D01*
X0394287Y0123098D01*
X0394377Y0122983D01*
X0394464Y0122865D01*
X0394548Y0122745D01*
X0394629Y0122622D01*
X0394706Y0122498D01*
X0394780Y0122371D01*
X0394850Y0122242D01*
X0394917Y0122112D01*
X0394981Y0121980D01*
X0395040Y0121846D01*
X0395097Y0121711D01*
X0395149Y0121574D01*
X0395198Y0121435D01*
X0395243Y0121296D01*
X0395284Y0121155D01*
X0395321Y0121013D01*
X0395354Y0120871D01*
X0395384Y0120727D01*
X0395410Y0120583D01*
X0395431Y0120438D01*
X0395449Y0120292D01*
X0395463Y0120146D01*
X0395473Y0120000D01*
X0395479Y0119854D01*
X0395481Y0119707D01*
X0395479Y0119560D01*
X0395473Y0119414D01*
X0395463Y0119268D01*
X0395449Y0119122D01*
X0395431Y0118976D01*
X0395410Y0118831D01*
X0395384Y0118687D01*
X0395354Y0118543D01*
X0395321Y0118401D01*
X0395284Y0118259D01*
X0395243Y0118118D01*
X0395198Y0117979D01*
X0395149Y0117840D01*
X0395097Y0117703D01*
X0395040Y0117568D01*
X0394981Y0117434D01*
X0394917Y0117302D01*
X0394850Y0117172D01*
X0394780Y0117043D01*
X0394706Y0116916D01*
X0394629Y0116792D01*
X0394548Y0116669D01*
X0394464Y0116549D01*
X0394377Y0116431D01*
X0394287Y0116316D01*
X0394194Y0116203D01*
X0394097Y0116092D01*
X0393998Y0115984D01*
X0393896Y0115879D01*
X0393791Y0115777D01*
X0393683Y0115678D01*
X0393572Y0115581D01*
X0393459Y0115488D01*
X0393344Y0115398D01*
X0393226Y0115311D01*
X0393106Y0115227D01*
X0392983Y0115146D01*
X0392859Y0115069D01*
X0392732Y0114995D01*
X0392603Y0114925D01*
X0392473Y0114858D01*
X0392341Y0114794D01*
X0392207Y0114735D01*
X0392072Y0114678D01*
X0391935Y0114626D01*
X0391796Y0114577D01*
X0391657Y0114532D01*
X0391516Y0114491D01*
X0391374Y0114454D01*
X0391232Y0114421D01*
X0391088Y0114391D01*
X0390944Y0114365D01*
X0390799Y0114344D01*
X0390653Y0114326D01*
X0390507Y0114312D01*
X0390361Y0114302D01*
X0390215Y0114296D01*
X0390068Y0114294D01*
X0389921Y0114296D01*
X0389775Y0114302D01*
X0389629Y0114312D01*
X0389483Y0114326D01*
X0389337Y0114344D01*
X0389192Y0114365D01*
X0389048Y0114391D01*
X0388904Y0114421D01*
X0388762Y0114454D01*
X0388620Y0114491D01*
X0388479Y0114532D01*
X0388340Y0114577D01*
X0388201Y0114626D01*
X0388064Y0114678D01*
X0387929Y0114735D01*
X0387795Y0114794D01*
X0387663Y0114858D01*
X0387533Y0114925D01*
X0387404Y0114995D01*
X0387277Y0115069D01*
X0387153Y0115146D01*
X0387030Y0115227D01*
X0386910Y0115311D01*
X0386792Y0115398D01*
X0386677Y0115488D01*
X0386564Y0115581D01*
X0386453Y0115678D01*
X0386345Y0115777D01*
X0386240Y0115879D01*
X0386138Y0115984D01*
X0386039Y0116092D01*
X0385942Y0116203D01*
X0385849Y0116316D01*
X0385759Y0116431D01*
X0385672Y0116549D01*
X0385588Y0116669D01*
X0385507Y0116792D01*
X0385430Y0116916D01*
X0385356Y0117043D01*
X0385286Y0117172D01*
X0385219Y0117302D01*
X0385155Y0117434D01*
X0385096Y0117568D01*
X0385039Y0117703D01*
X0384987Y0117840D01*
X0384938Y0117979D01*
X0384893Y0118118D01*
X0384852Y0118259D01*
X0384815Y0118401D01*
X0384782Y0118543D01*
X0384752Y0118687D01*
X0384726Y0118831D01*
X0384705Y0118976D01*
X0384687Y0119122D01*
X0384673Y0119268D01*
X0384663Y0119414D01*
X0384657Y0119560D01*
X0384655Y0119707D01*
D11*
X0180155Y0225813D02*
X0114155Y0225813D01*
X0114155Y0312813D01*
X0180155Y0312813D01*
X0180155Y0225813D01*
X0165995Y0209618D02*
X0164494Y0209618D01*
X0163743Y0208868D01*
X0162142Y0208868D02*
X0161391Y0209618D01*
X0159890Y0209618D01*
X0159140Y0208868D01*
X0159140Y0205865D01*
X0159890Y0205115D01*
X0161391Y0205115D01*
X0162142Y0205865D01*
X0163743Y0205865D02*
X0164494Y0205115D01*
X0165995Y0205115D01*
X0166746Y0205865D01*
X0166746Y0206616D01*
X0165995Y0207366D01*
X0165245Y0207366D01*
X0165995Y0207366D02*
X0166746Y0208117D01*
X0166746Y0208868D01*
X0165995Y0209618D01*
X0151897Y0190130D02*
X0151897Y0185626D01*
X0150396Y0185626D02*
X0153399Y0185626D01*
X0154930Y0181784D02*
X0154179Y0181033D01*
X0154930Y0181784D02*
X0156431Y0181784D01*
X0157181Y0181033D01*
X0157181Y0180282D01*
X0154179Y0177280D01*
X0157181Y0177280D01*
X0152577Y0177280D02*
X0151076Y0178781D01*
X0151827Y0178781D02*
X0149575Y0178781D01*
X0149575Y0177280D02*
X0149575Y0181784D01*
X0151827Y0181784D01*
X0152577Y0181033D01*
X0152577Y0179532D01*
X0151827Y0178781D01*
X0148044Y0185626D02*
X0148795Y0186377D01*
X0148044Y0185626D02*
X0146543Y0185626D01*
X0145792Y0186377D01*
X0145792Y0189380D01*
X0146543Y0190130D01*
X0148044Y0190130D01*
X0148795Y0189380D01*
X0150396Y0188629D02*
X0151897Y0190130D01*
X0144224Y0190130D02*
X0142723Y0190130D01*
X0143474Y0190130D02*
X0143474Y0185626D01*
X0144224Y0185626D02*
X0142723Y0185626D01*
X0140291Y0185751D02*
X0140291Y0182748D01*
X0137288Y0185751D01*
X0136537Y0185751D01*
X0135787Y0185000D01*
X0135787Y0183499D01*
X0136537Y0182748D01*
X0136537Y0181147D02*
X0135787Y0180396D01*
X0135787Y0178895D01*
X0136537Y0178144D01*
X0139540Y0178144D01*
X0140291Y0178895D01*
X0140291Y0180396D01*
X0139540Y0181147D01*
X0140291Y0176576D02*
X0140291Y0175075D01*
X0140291Y0175826D02*
X0135787Y0175826D01*
X0135787Y0176576D02*
X0135787Y0175075D01*
X0122138Y0192048D02*
X0119136Y0192048D01*
X0118385Y0192799D01*
X0118385Y0194300D01*
X0119136Y0195051D01*
X0119136Y0196652D02*
X0118385Y0197403D01*
X0118385Y0198904D01*
X0119136Y0199655D01*
X0119887Y0199655D01*
X0122889Y0196652D01*
X0122889Y0199655D01*
X0122138Y0195051D02*
X0122889Y0194300D01*
X0122889Y0192799D01*
X0122138Y0192048D01*
X0114224Y0193776D02*
X0114224Y0198280D01*
X0111972Y0196028D01*
X0114974Y0196028D01*
X0110370Y0197529D02*
X0109620Y0198280D01*
X0108118Y0198280D01*
X0107368Y0197529D01*
X0107368Y0194527D01*
X0108118Y0193776D01*
X0109620Y0193776D01*
X0110370Y0194527D01*
X0108985Y0174126D02*
X0109736Y0173376D01*
X0109736Y0172625D01*
X0108985Y0171874D01*
X0109736Y0171124D01*
X0109736Y0170373D01*
X0108985Y0169622D01*
X0107484Y0169622D01*
X0106733Y0170373D01*
X0105132Y0169622D02*
X0103631Y0171124D01*
X0104381Y0171124D02*
X0102129Y0171124D01*
X0102129Y0169622D02*
X0102129Y0174126D01*
X0104381Y0174126D01*
X0105132Y0173376D01*
X0105132Y0171874D01*
X0104381Y0171124D01*
X0106733Y0173376D02*
X0107484Y0174126D01*
X0108985Y0174126D01*
X0108985Y0171874D02*
X0108234Y0171874D01*
X0108702Y0163496D02*
X0111704Y0163496D01*
X0111704Y0162746D01*
X0108702Y0159743D01*
X0108702Y0158993D01*
X0107100Y0159743D02*
X0106350Y0158993D01*
X0104848Y0158993D01*
X0104098Y0159743D01*
X0104098Y0162746D01*
X0104848Y0163496D01*
X0106350Y0163496D01*
X0107100Y0162746D01*
X0106423Y0146567D02*
X0107924Y0146567D01*
X0108675Y0145817D01*
X0108675Y0142814D01*
X0107924Y0142063D01*
X0106423Y0142063D01*
X0105673Y0142814D01*
X0105673Y0145817D01*
X0106423Y0146567D01*
X0107174Y0143565D02*
X0108675Y0142063D01*
X0110276Y0142063D02*
X0113279Y0142063D01*
X0111778Y0142063D02*
X0111778Y0146567D01*
X0110276Y0145066D01*
X0100757Y0125760D02*
X0100757Y0121256D01*
X0102258Y0121256D02*
X0099255Y0121256D01*
X0097654Y0121256D02*
X0096153Y0122758D01*
X0096903Y0122758D02*
X0094651Y0122758D01*
X0094651Y0121256D02*
X0094651Y0125760D01*
X0096903Y0125760D01*
X0097654Y0125009D01*
X0097654Y0123508D01*
X0096903Y0122758D01*
X0099255Y0124259D02*
X0100757Y0125760D01*
X0053598Y0129800D02*
X0049094Y0129800D01*
X0049094Y0132052D01*
X0049845Y0132802D01*
X0051346Y0132802D01*
X0052096Y0132052D01*
X0052096Y0129800D01*
X0052096Y0131301D02*
X0053598Y0132802D01*
X0053598Y0134404D02*
X0049094Y0137406D01*
X0049094Y0139007D02*
X0049094Y0141259D01*
X0049845Y0142010D01*
X0050595Y0142010D01*
X0051346Y0141259D01*
X0051346Y0139007D01*
X0053598Y0139007D02*
X0053598Y0141259D01*
X0052847Y0142010D01*
X0052096Y0142010D01*
X0051346Y0141259D01*
X0052096Y0143611D02*
X0051346Y0144362D01*
X0051346Y0145863D01*
X0052096Y0146614D01*
X0052847Y0146614D01*
X0053598Y0145863D01*
X0053598Y0144362D01*
X0052847Y0143611D01*
X0052096Y0143611D01*
X0051346Y0144362D02*
X0050595Y0143611D01*
X0049845Y0143611D01*
X0049094Y0144362D01*
X0049094Y0145863D01*
X0049845Y0146614D01*
X0050595Y0146614D01*
X0051346Y0145863D01*
X0053598Y0139007D02*
X0049094Y0139007D01*
X0049094Y0134404D02*
X0053598Y0137406D01*
X0055029Y0190967D02*
X0081801Y0190967D01*
X0081801Y0068132D01*
X0055029Y0068132D01*
X0055029Y0190967D01*
X0048381Y0213545D02*
X0043877Y0213545D01*
X0043877Y0216547D01*
X0044628Y0218148D02*
X0043877Y0218899D01*
X0043877Y0220400D01*
X0044628Y0221151D01*
X0045379Y0221151D01*
X0048381Y0218148D01*
X0048381Y0221151D01*
X0046129Y0215046D02*
X0046129Y0213545D01*
X0063940Y0219367D02*
X0066192Y0219367D01*
X0066943Y0220117D01*
X0066943Y0223120D01*
X0066192Y0223870D01*
X0063940Y0223870D01*
X0063940Y0219367D01*
X0068544Y0219367D02*
X0071547Y0222369D01*
X0071547Y0223120D01*
X0070796Y0223870D01*
X0069295Y0223870D01*
X0068544Y0223120D01*
X0068544Y0219367D02*
X0071547Y0219367D01*
X0085667Y0225813D02*
X0019667Y0225813D01*
X0019667Y0312813D01*
X0085667Y0312813D01*
X0085667Y0225813D01*
X0106870Y0245041D02*
X0106870Y0248043D01*
X0108371Y0249644D02*
X0106870Y0251146D01*
X0111373Y0251146D01*
X0111373Y0252647D02*
X0111373Y0249644D01*
X0109121Y0246542D02*
X0109121Y0245041D01*
X0106870Y0245041D02*
X0111373Y0245041D01*
X0069228Y0251148D02*
X0064724Y0251148D01*
X0066225Y0252649D01*
X0064724Y0254150D01*
X0069228Y0254150D01*
X0069228Y0255752D02*
X0064724Y0255752D01*
X0064724Y0258003D01*
X0065474Y0258754D01*
X0066976Y0258754D01*
X0067726Y0258003D01*
X0067726Y0255752D01*
X0066225Y0260355D02*
X0064724Y0261857D01*
X0069228Y0261857D01*
X0069228Y0263358D02*
X0069228Y0260355D01*
X0068477Y0264959D02*
X0069228Y0265710D01*
X0069228Y0267211D01*
X0068477Y0267962D01*
X0066976Y0267962D01*
X0066225Y0267211D01*
X0066225Y0266461D01*
X0066976Y0264959D01*
X0064724Y0264959D01*
X0064724Y0267962D01*
X0065474Y0269563D02*
X0066225Y0269563D01*
X0066976Y0270314D01*
X0066976Y0271815D01*
X0067726Y0272566D01*
X0068477Y0272566D01*
X0069228Y0271815D01*
X0069228Y0270314D01*
X0068477Y0269563D01*
X0067726Y0269563D01*
X0066976Y0270314D01*
X0066976Y0271815D02*
X0066225Y0272566D01*
X0065474Y0272566D01*
X0064724Y0271815D01*
X0064724Y0270314D01*
X0065474Y0269563D01*
X0066976Y0274167D02*
X0066976Y0277170D01*
X0066976Y0278771D02*
X0066976Y0281774D01*
X0066225Y0283375D02*
X0064724Y0284876D01*
X0069228Y0284876D01*
X0069228Y0283375D02*
X0069228Y0286378D01*
X0069228Y0276419D02*
X0064724Y0276419D01*
X0066976Y0274167D01*
X0081460Y0319229D02*
X0081460Y0323733D01*
X0084463Y0323733D01*
X0086064Y0322982D02*
X0086815Y0323733D01*
X0088316Y0323733D01*
X0089066Y0322982D01*
X0089066Y0322231D01*
X0088316Y0321481D01*
X0089066Y0320730D01*
X0089066Y0319979D01*
X0088316Y0319229D01*
X0086815Y0319229D01*
X0086064Y0319979D01*
X0087565Y0321481D02*
X0088316Y0321481D01*
X0082961Y0321481D02*
X0081460Y0321481D01*
X0085541Y0330140D02*
X0046171Y0330140D01*
X0046171Y0363605D01*
X0085541Y0363605D01*
X0085541Y0330140D01*
X0088707Y0344622D02*
X0090208Y0344622D01*
X0090959Y0345373D01*
X0090959Y0346874D01*
X0089457Y0346874D01*
X0087956Y0345373D02*
X0088707Y0344622D01*
X0087956Y0345373D02*
X0087956Y0348376D01*
X0088707Y0349126D01*
X0090208Y0349126D01*
X0090959Y0348376D01*
X0092560Y0349126D02*
X0092560Y0344622D01*
X0095563Y0344622D02*
X0095563Y0349126D01*
X0097164Y0349126D02*
X0099416Y0349126D01*
X0100166Y0348376D01*
X0100166Y0345373D01*
X0099416Y0344622D01*
X0097164Y0344622D01*
X0097164Y0349126D01*
X0092560Y0349126D02*
X0095563Y0344622D01*
X0108035Y0324264D02*
X0110287Y0324264D01*
X0111037Y0323513D01*
X0111037Y0320511D01*
X0110287Y0319760D01*
X0108035Y0319760D01*
X0108035Y0324264D01*
X0112639Y0322763D02*
X0114140Y0324264D01*
X0114140Y0319760D01*
X0112639Y0319760D02*
X0115641Y0319760D01*
X0140777Y0342519D02*
X0140777Y0344770D01*
X0141528Y0345521D01*
X0143029Y0345521D01*
X0143780Y0344770D01*
X0143780Y0342519D01*
X0145281Y0342519D02*
X0140777Y0342519D01*
X0142278Y0347122D02*
X0140777Y0348624D01*
X0145281Y0348624D01*
X0145281Y0350125D02*
X0145281Y0347122D01*
X0159963Y0286378D02*
X0159212Y0285627D01*
X0159212Y0284126D01*
X0159963Y0283375D01*
X0161464Y0281774D02*
X0161464Y0278771D01*
X0161464Y0277170D02*
X0161464Y0274167D01*
X0159212Y0276419D01*
X0163716Y0276419D01*
X0162965Y0272566D02*
X0163716Y0271815D01*
X0163716Y0270314D01*
X0162965Y0269563D01*
X0162215Y0269563D01*
X0161464Y0270314D01*
X0161464Y0271815D01*
X0162215Y0272566D01*
X0162965Y0272566D01*
X0161464Y0271815D02*
X0160713Y0272566D01*
X0159963Y0272566D01*
X0159212Y0271815D01*
X0159212Y0270314D01*
X0159963Y0269563D01*
X0160713Y0269563D01*
X0161464Y0270314D01*
X0161464Y0267962D02*
X0160713Y0267211D01*
X0160713Y0266461D01*
X0161464Y0264959D01*
X0159212Y0264959D01*
X0159212Y0267962D01*
X0161464Y0267962D02*
X0162965Y0267962D01*
X0163716Y0267211D01*
X0163716Y0265710D01*
X0162965Y0264959D01*
X0163716Y0263358D02*
X0163716Y0260355D01*
X0163716Y0261857D02*
X0159212Y0261857D01*
X0160713Y0260355D01*
X0159963Y0258754D02*
X0161464Y0258754D01*
X0162215Y0258003D01*
X0162215Y0255752D01*
X0163716Y0255752D02*
X0159212Y0255752D01*
X0159212Y0258003D01*
X0159963Y0258754D01*
X0159212Y0254150D02*
X0163716Y0254150D01*
X0163716Y0251148D02*
X0159212Y0251148D01*
X0160713Y0252649D01*
X0159212Y0254150D01*
X0163716Y0283375D02*
X0160713Y0286378D01*
X0159963Y0286378D01*
X0163716Y0286378D02*
X0163716Y0283375D01*
X0042457Y0346124D02*
X0042457Y0349126D01*
X0042457Y0346124D02*
X0040956Y0344622D01*
X0039454Y0346124D01*
X0039454Y0349126D01*
X0037102Y0349126D02*
X0034851Y0346874D01*
X0037853Y0346874D01*
X0037102Y0344622D02*
X0037102Y0349126D01*
X0033249Y0348376D02*
X0032499Y0349126D01*
X0030997Y0349126D01*
X0030247Y0348376D01*
X0033249Y0348376D02*
X0033249Y0347625D01*
X0030247Y0344622D01*
X0033249Y0344622D01*
X0155275Y0162133D02*
X0155275Y0159130D01*
X0157527Y0159130D01*
X0156776Y0160632D01*
X0156776Y0161382D01*
X0157527Y0162133D01*
X0159028Y0162133D01*
X0159779Y0161382D01*
X0159779Y0159881D01*
X0159028Y0159130D01*
X0159028Y0157529D02*
X0159779Y0156778D01*
X0159779Y0155277D01*
X0159028Y0154526D01*
X0156026Y0154526D01*
X0155275Y0155277D01*
X0155275Y0156778D01*
X0156026Y0157529D01*
X0163743Y0047158D02*
X0166746Y0042654D01*
X0168347Y0042654D02*
X0171350Y0045656D01*
X0171350Y0046407D01*
X0170599Y0047158D01*
X0169098Y0047158D01*
X0168347Y0046407D01*
X0166746Y0047158D02*
X0163743Y0042654D01*
X0168347Y0042654D02*
X0171350Y0042654D01*
X0082177Y0042654D02*
X0079174Y0042654D01*
X0080675Y0042654D02*
X0080675Y0047158D01*
X0079174Y0045656D01*
X0077573Y0047158D02*
X0074570Y0042654D01*
X0077573Y0042654D02*
X0074570Y0047158D01*
D12*
X0138081Y0156380D02*
X0138081Y0158880D01*
X0138081Y0161380D01*
X0140581Y0161380D02*
X0140581Y0158880D01*
X0140581Y0156380D01*
X0100048Y0183900D02*
X0100048Y0186400D01*
X0100048Y0188900D01*
X0097548Y0188900D02*
X0097548Y0186400D01*
X0097548Y0183900D01*
X0127923Y0201675D02*
X0130423Y0201675D01*
X0132923Y0201675D01*
X0132923Y0204175D02*
X0130423Y0204175D01*
X0127923Y0204175D01*
X0162293Y0214648D02*
X0162293Y0217148D01*
X0162293Y0219648D01*
X0164793Y0219648D02*
X0164793Y0217148D01*
X0164793Y0214648D01*
D13*
X0164793Y0217148D02*
X0169493Y0217148D01*
X0176993Y0223148D02*
X0177053Y0223146D01*
X0177114Y0223141D01*
X0177173Y0223132D01*
X0177232Y0223119D01*
X0177291Y0223103D01*
X0177348Y0223083D01*
X0177403Y0223060D01*
X0177458Y0223033D01*
X0177510Y0223004D01*
X0177561Y0222971D01*
X0177610Y0222935D01*
X0177656Y0222897D01*
X0177700Y0222855D01*
X0177742Y0222811D01*
X0177780Y0222765D01*
X0177816Y0222716D01*
X0177849Y0222665D01*
X0177878Y0222613D01*
X0177905Y0222558D01*
X0177928Y0222503D01*
X0177948Y0222446D01*
X0177964Y0222387D01*
X0177977Y0222328D01*
X0177986Y0222269D01*
X0177991Y0222208D01*
X0177993Y0222148D01*
X0177993Y0212148D01*
X0177991Y0212088D01*
X0177986Y0212027D01*
X0177977Y0211968D01*
X0177964Y0211909D01*
X0177948Y0211850D01*
X0177928Y0211793D01*
X0177905Y0211738D01*
X0177878Y0211683D01*
X0177849Y0211631D01*
X0177816Y0211580D01*
X0177780Y0211531D01*
X0177742Y0211485D01*
X0177700Y0211441D01*
X0177656Y0211399D01*
X0177610Y0211361D01*
X0177561Y0211325D01*
X0177510Y0211292D01*
X0177458Y0211263D01*
X0177403Y0211236D01*
X0177348Y0211213D01*
X0177291Y0211193D01*
X0177232Y0211177D01*
X0177173Y0211164D01*
X0177114Y0211155D01*
X0177053Y0211150D01*
X0176993Y0211148D01*
X0149993Y0211148D01*
X0149933Y0211150D01*
X0149872Y0211155D01*
X0149813Y0211164D01*
X0149754Y0211177D01*
X0149695Y0211193D01*
X0149638Y0211213D01*
X0149583Y0211236D01*
X0149528Y0211263D01*
X0149476Y0211292D01*
X0149425Y0211325D01*
X0149376Y0211361D01*
X0149330Y0211399D01*
X0149286Y0211441D01*
X0149244Y0211485D01*
X0149206Y0211531D01*
X0149170Y0211580D01*
X0149137Y0211631D01*
X0149108Y0211683D01*
X0149081Y0211738D01*
X0149058Y0211793D01*
X0149038Y0211850D01*
X0149022Y0211909D01*
X0149009Y0211968D01*
X0149000Y0212027D01*
X0148995Y0212088D01*
X0148993Y0212148D01*
X0148993Y0222148D01*
X0148995Y0222208D01*
X0149000Y0222269D01*
X0149009Y0222328D01*
X0149022Y0222387D01*
X0149038Y0222446D01*
X0149058Y0222503D01*
X0149081Y0222558D01*
X0149108Y0222613D01*
X0149137Y0222665D01*
X0149170Y0222716D01*
X0149206Y0222765D01*
X0149244Y0222811D01*
X0149286Y0222855D01*
X0149330Y0222897D01*
X0149376Y0222935D01*
X0149425Y0222971D01*
X0149476Y0223004D01*
X0149528Y0223033D01*
X0149583Y0223060D01*
X0149638Y0223083D01*
X0149695Y0223103D01*
X0149754Y0223119D01*
X0149813Y0223132D01*
X0149872Y0223141D01*
X0149933Y0223146D01*
X0149993Y0223148D01*
X0176993Y0223148D01*
X0162293Y0217148D02*
X0157493Y0217148D01*
X0136423Y0216475D02*
X0136423Y0189475D01*
X0136421Y0189415D01*
X0136416Y0189354D01*
X0136407Y0189295D01*
X0136394Y0189236D01*
X0136378Y0189177D01*
X0136358Y0189120D01*
X0136335Y0189065D01*
X0136308Y0189010D01*
X0136279Y0188958D01*
X0136246Y0188907D01*
X0136210Y0188858D01*
X0136172Y0188812D01*
X0136130Y0188768D01*
X0136086Y0188726D01*
X0136040Y0188688D01*
X0135991Y0188652D01*
X0135940Y0188619D01*
X0135888Y0188590D01*
X0135833Y0188563D01*
X0135778Y0188540D01*
X0135721Y0188520D01*
X0135662Y0188504D01*
X0135603Y0188491D01*
X0135544Y0188482D01*
X0135483Y0188477D01*
X0135423Y0188475D01*
X0125423Y0188475D01*
X0125363Y0188477D01*
X0125302Y0188482D01*
X0125243Y0188491D01*
X0125184Y0188504D01*
X0125125Y0188520D01*
X0125068Y0188540D01*
X0125013Y0188563D01*
X0124958Y0188590D01*
X0124906Y0188619D01*
X0124855Y0188652D01*
X0124806Y0188688D01*
X0124760Y0188726D01*
X0124716Y0188768D01*
X0124674Y0188812D01*
X0124636Y0188858D01*
X0124600Y0188907D01*
X0124567Y0188958D01*
X0124538Y0189010D01*
X0124511Y0189065D01*
X0124488Y0189120D01*
X0124468Y0189177D01*
X0124452Y0189236D01*
X0124439Y0189295D01*
X0124430Y0189354D01*
X0124425Y0189415D01*
X0124423Y0189475D01*
X0124423Y0216475D01*
X0124425Y0216535D01*
X0124430Y0216596D01*
X0124439Y0216655D01*
X0124452Y0216714D01*
X0124468Y0216773D01*
X0124488Y0216830D01*
X0124511Y0216885D01*
X0124538Y0216940D01*
X0124567Y0216992D01*
X0124600Y0217043D01*
X0124636Y0217092D01*
X0124674Y0217138D01*
X0124716Y0217182D01*
X0124760Y0217224D01*
X0124806Y0217262D01*
X0124855Y0217298D01*
X0124906Y0217331D01*
X0124958Y0217360D01*
X0125013Y0217387D01*
X0125068Y0217410D01*
X0125125Y0217430D01*
X0125184Y0217446D01*
X0125243Y0217459D01*
X0125302Y0217468D01*
X0125363Y0217473D01*
X0125423Y0217475D01*
X0135423Y0217475D01*
X0135483Y0217473D01*
X0135544Y0217468D01*
X0135603Y0217459D01*
X0135662Y0217446D01*
X0135721Y0217430D01*
X0135778Y0217410D01*
X0135833Y0217387D01*
X0135888Y0217360D01*
X0135940Y0217331D01*
X0135991Y0217298D01*
X0136040Y0217262D01*
X0136086Y0217224D01*
X0136130Y0217182D01*
X0136172Y0217138D01*
X0136210Y0217092D01*
X0136246Y0217043D01*
X0136279Y0216992D01*
X0136308Y0216940D01*
X0136335Y0216885D01*
X0136358Y0216830D01*
X0136378Y0216773D01*
X0136394Y0216714D01*
X0136407Y0216655D01*
X0136416Y0216596D01*
X0136421Y0216535D01*
X0136423Y0216475D01*
X0130423Y0208975D02*
X0130423Y0204175D01*
X0130423Y0201675D02*
X0130423Y0196975D01*
X0138159Y0197172D02*
X0139738Y0197172D01*
X0140364Y0191672D02*
X0156860Y0191672D01*
X0157486Y0197172D02*
X0159064Y0197172D01*
X0149738Y0197172D02*
X0147486Y0197172D01*
X0149533Y0175479D02*
X0151033Y0175479D01*
X0151533Y0174979D01*
X0165533Y0174979D01*
X0166033Y0175479D01*
X0167533Y0175479D01*
X0167593Y0175477D01*
X0167654Y0175472D01*
X0167713Y0175463D01*
X0167772Y0175450D01*
X0167831Y0175434D01*
X0167888Y0175414D01*
X0167943Y0175391D01*
X0167998Y0175364D01*
X0168050Y0175335D01*
X0168101Y0175302D01*
X0168150Y0175266D01*
X0168196Y0175228D01*
X0168240Y0175186D01*
X0168282Y0175142D01*
X0168320Y0175096D01*
X0168356Y0175047D01*
X0168389Y0174996D01*
X0168418Y0174944D01*
X0168445Y0174889D01*
X0168468Y0174834D01*
X0168488Y0174777D01*
X0168504Y0174718D01*
X0168517Y0174659D01*
X0168526Y0174600D01*
X0168531Y0174539D01*
X0168533Y0174479D01*
X0168533Y0168479D01*
X0168531Y0168419D01*
X0168526Y0168358D01*
X0168517Y0168299D01*
X0168504Y0168240D01*
X0168488Y0168181D01*
X0168468Y0168124D01*
X0168445Y0168069D01*
X0168418Y0168014D01*
X0168389Y0167962D01*
X0168356Y0167911D01*
X0168320Y0167862D01*
X0168282Y0167816D01*
X0168240Y0167772D01*
X0168196Y0167730D01*
X0168150Y0167692D01*
X0168101Y0167656D01*
X0168050Y0167623D01*
X0167998Y0167594D01*
X0167943Y0167567D01*
X0167888Y0167544D01*
X0167831Y0167524D01*
X0167772Y0167508D01*
X0167713Y0167495D01*
X0167654Y0167486D01*
X0167593Y0167481D01*
X0167533Y0167479D01*
X0166033Y0167479D01*
X0165533Y0167979D01*
X0151533Y0167979D01*
X0151033Y0167479D01*
X0149533Y0167479D01*
X0149473Y0167481D01*
X0149412Y0167486D01*
X0149353Y0167495D01*
X0149294Y0167508D01*
X0149235Y0167524D01*
X0149178Y0167544D01*
X0149123Y0167567D01*
X0149068Y0167594D01*
X0149016Y0167623D01*
X0148965Y0167656D01*
X0148916Y0167692D01*
X0148870Y0167730D01*
X0148826Y0167772D01*
X0148784Y0167816D01*
X0148746Y0167862D01*
X0148710Y0167911D01*
X0148677Y0167962D01*
X0148648Y0168014D01*
X0148621Y0168069D01*
X0148598Y0168124D01*
X0148578Y0168181D01*
X0148562Y0168240D01*
X0148549Y0168299D01*
X0148540Y0168358D01*
X0148535Y0168419D01*
X0148533Y0168479D01*
X0148533Y0174479D01*
X0148535Y0174539D01*
X0148540Y0174600D01*
X0148549Y0174659D01*
X0148562Y0174718D01*
X0148578Y0174777D01*
X0148598Y0174834D01*
X0148621Y0174889D01*
X0148648Y0174944D01*
X0148677Y0174996D01*
X0148710Y0175047D01*
X0148746Y0175096D01*
X0148784Y0175142D01*
X0148826Y0175186D01*
X0148870Y0175228D01*
X0148916Y0175266D01*
X0148965Y0175302D01*
X0149016Y0175335D01*
X0149068Y0175364D01*
X0149123Y0175391D01*
X0149178Y0175414D01*
X0149235Y0175434D01*
X0149294Y0175450D01*
X0149353Y0175463D01*
X0149412Y0175472D01*
X0149473Y0175477D01*
X0149533Y0175479D01*
X0152781Y0164880D02*
X0125781Y0164880D01*
X0125721Y0164878D01*
X0125660Y0164873D01*
X0125601Y0164864D01*
X0125542Y0164851D01*
X0125483Y0164835D01*
X0125426Y0164815D01*
X0125371Y0164792D01*
X0125316Y0164765D01*
X0125264Y0164736D01*
X0125213Y0164703D01*
X0125164Y0164667D01*
X0125118Y0164629D01*
X0125074Y0164587D01*
X0125032Y0164543D01*
X0124994Y0164497D01*
X0124958Y0164448D01*
X0124925Y0164397D01*
X0124896Y0164345D01*
X0124869Y0164290D01*
X0124846Y0164235D01*
X0124826Y0164178D01*
X0124810Y0164119D01*
X0124797Y0164060D01*
X0124788Y0164001D01*
X0124783Y0163940D01*
X0124781Y0163880D01*
X0124781Y0153880D01*
X0124783Y0153820D01*
X0124788Y0153759D01*
X0124797Y0153700D01*
X0124810Y0153641D01*
X0124826Y0153582D01*
X0124846Y0153525D01*
X0124869Y0153470D01*
X0124896Y0153415D01*
X0124925Y0153363D01*
X0124958Y0153312D01*
X0124994Y0153263D01*
X0125032Y0153217D01*
X0125074Y0153173D01*
X0125118Y0153131D01*
X0125164Y0153093D01*
X0125213Y0153057D01*
X0125264Y0153024D01*
X0125316Y0152995D01*
X0125371Y0152968D01*
X0125426Y0152945D01*
X0125483Y0152925D01*
X0125542Y0152909D01*
X0125601Y0152896D01*
X0125660Y0152887D01*
X0125721Y0152882D01*
X0125781Y0152880D01*
X0152781Y0152880D01*
X0152841Y0152882D01*
X0152902Y0152887D01*
X0152961Y0152896D01*
X0153020Y0152909D01*
X0153079Y0152925D01*
X0153136Y0152945D01*
X0153191Y0152968D01*
X0153246Y0152995D01*
X0153298Y0153024D01*
X0153349Y0153057D01*
X0153398Y0153093D01*
X0153444Y0153131D01*
X0153488Y0153173D01*
X0153530Y0153217D01*
X0153568Y0153263D01*
X0153604Y0153312D01*
X0153637Y0153363D01*
X0153666Y0153415D01*
X0153693Y0153470D01*
X0153716Y0153525D01*
X0153736Y0153582D01*
X0153752Y0153641D01*
X0153765Y0153700D01*
X0153774Y0153759D01*
X0153779Y0153820D01*
X0153781Y0153880D01*
X0153781Y0163880D01*
X0153779Y0163940D01*
X0153774Y0164001D01*
X0153765Y0164060D01*
X0153752Y0164119D01*
X0153736Y0164178D01*
X0153716Y0164235D01*
X0153693Y0164290D01*
X0153666Y0164345D01*
X0153637Y0164397D01*
X0153604Y0164448D01*
X0153568Y0164497D01*
X0153530Y0164543D01*
X0153488Y0164587D01*
X0153444Y0164629D01*
X0153398Y0164667D01*
X0153349Y0164703D01*
X0153298Y0164736D01*
X0153246Y0164765D01*
X0153191Y0164792D01*
X0153136Y0164815D01*
X0153079Y0164835D01*
X0153020Y0164851D01*
X0152961Y0164864D01*
X0152902Y0164873D01*
X0152841Y0164878D01*
X0152781Y0164880D01*
X0145281Y0158880D02*
X0140581Y0158880D01*
X0138081Y0158880D02*
X0133281Y0158880D01*
X0122533Y0166341D02*
X0122533Y0167920D01*
X0117033Y0168546D02*
X0117033Y0185042D01*
X0113348Y0181400D02*
X0113348Y0191400D01*
X0113346Y0191460D01*
X0113341Y0191521D01*
X0113332Y0191580D01*
X0113319Y0191639D01*
X0113303Y0191698D01*
X0113283Y0191755D01*
X0113260Y0191810D01*
X0113233Y0191865D01*
X0113204Y0191917D01*
X0113171Y0191968D01*
X0113135Y0192017D01*
X0113097Y0192063D01*
X0113055Y0192107D01*
X0113011Y0192149D01*
X0112965Y0192187D01*
X0112916Y0192223D01*
X0112865Y0192256D01*
X0112813Y0192285D01*
X0112758Y0192312D01*
X0112703Y0192335D01*
X0112646Y0192355D01*
X0112587Y0192371D01*
X0112528Y0192384D01*
X0112469Y0192393D01*
X0112408Y0192398D01*
X0112348Y0192400D01*
X0085348Y0192400D01*
X0085288Y0192398D01*
X0085227Y0192393D01*
X0085168Y0192384D01*
X0085109Y0192371D01*
X0085050Y0192355D01*
X0084993Y0192335D01*
X0084938Y0192312D01*
X0084883Y0192285D01*
X0084831Y0192256D01*
X0084780Y0192223D01*
X0084731Y0192187D01*
X0084685Y0192149D01*
X0084641Y0192107D01*
X0084599Y0192063D01*
X0084561Y0192017D01*
X0084525Y0191968D01*
X0084492Y0191917D01*
X0084463Y0191865D01*
X0084436Y0191810D01*
X0084413Y0191755D01*
X0084393Y0191698D01*
X0084377Y0191639D01*
X0084364Y0191580D01*
X0084355Y0191521D01*
X0084350Y0191460D01*
X0084348Y0191400D01*
X0084348Y0181400D01*
X0084350Y0181340D01*
X0084355Y0181279D01*
X0084364Y0181220D01*
X0084377Y0181161D01*
X0084393Y0181102D01*
X0084413Y0181045D01*
X0084436Y0180990D01*
X0084463Y0180935D01*
X0084492Y0180883D01*
X0084525Y0180832D01*
X0084561Y0180783D01*
X0084599Y0180737D01*
X0084641Y0180693D01*
X0084685Y0180651D01*
X0084731Y0180613D01*
X0084780Y0180577D01*
X0084831Y0180544D01*
X0084883Y0180515D01*
X0084938Y0180488D01*
X0084993Y0180465D01*
X0085050Y0180445D01*
X0085109Y0180429D01*
X0085168Y0180416D01*
X0085227Y0180407D01*
X0085288Y0180402D01*
X0085348Y0180400D01*
X0112348Y0180400D01*
X0112408Y0180402D01*
X0112469Y0180407D01*
X0112528Y0180416D01*
X0112587Y0180429D01*
X0112646Y0180445D01*
X0112703Y0180465D01*
X0112758Y0180488D01*
X0112813Y0180515D01*
X0112865Y0180544D01*
X0112916Y0180577D01*
X0112965Y0180613D01*
X0113011Y0180651D01*
X0113055Y0180693D01*
X0113097Y0180737D01*
X0113135Y0180783D01*
X0113171Y0180832D01*
X0113204Y0180883D01*
X0113233Y0180935D01*
X0113260Y0180990D01*
X0113283Y0181045D01*
X0113303Y0181102D01*
X0113319Y0181161D01*
X0113332Y0181220D01*
X0113341Y0181279D01*
X0113346Y0181340D01*
X0113348Y0181400D01*
X0122533Y0177920D02*
X0122533Y0175668D01*
X0122533Y0185668D02*
X0122533Y0187246D01*
X0104848Y0186400D02*
X0100048Y0186400D01*
X0097548Y0186400D02*
X0092848Y0186400D01*
X0104163Y0197199D02*
X0064163Y0197199D01*
X0064163Y0218199D01*
X0104163Y0218199D01*
X0104163Y0197199D01*
X0089163Y0207699D02*
X0084163Y0207699D01*
X0084163Y0205399D01*
X0085663Y0205399D01*
X0084163Y0207699D02*
X0084163Y0209999D01*
X0082663Y0209999D01*
X0084163Y0207699D02*
X0074163Y0207699D01*
X0079163Y0205399D02*
X0079163Y0209999D01*
X0084163Y0207699D01*
X0079163Y0205399D01*
X0060293Y0238554D02*
X0060293Y0244960D01*
X0058158Y0244960D02*
X0062428Y0244960D01*
X0055983Y0244960D02*
X0055983Y0239622D01*
X0054915Y0238554D01*
X0052780Y0238554D01*
X0051712Y0239622D01*
X0051712Y0244960D01*
X0049537Y0243892D02*
X0049537Y0239622D01*
X0048470Y0238554D01*
X0046334Y0238554D01*
X0045267Y0239622D01*
X0045267Y0243892D01*
X0046334Y0244960D01*
X0048470Y0244960D01*
X0049537Y0243892D01*
X0089411Y0277266D02*
X0089411Y0317266D01*
X0110411Y0317266D01*
X0110411Y0277266D01*
X0089411Y0277266D01*
X0099911Y0292266D02*
X0099911Y0297266D01*
X0097611Y0297266D01*
X0097611Y0295766D01*
X0099911Y0297266D02*
X0102211Y0297266D01*
X0102211Y0298766D01*
X0099911Y0297266D02*
X0097611Y0302266D01*
X0102211Y0302266D01*
X0099911Y0297266D01*
X0099911Y0307266D01*
X0143068Y0300078D02*
X0145203Y0300078D01*
X0144135Y0300078D02*
X0144135Y0293672D01*
X0143068Y0293672D02*
X0145203Y0293672D01*
X0147365Y0293672D02*
X0147365Y0300078D01*
X0151635Y0293672D01*
X0151635Y0300078D01*
X0152646Y0244960D02*
X0156916Y0244960D01*
X0154781Y0244960D02*
X0154781Y0238554D01*
X0150471Y0239622D02*
X0150471Y0244960D01*
X0146201Y0244960D02*
X0146201Y0239622D01*
X0147268Y0238554D01*
X0149403Y0238554D01*
X0150471Y0239622D01*
X0144025Y0239622D02*
X0142958Y0238554D01*
X0140823Y0238554D01*
X0139755Y0239622D01*
X0139755Y0243892D01*
X0140823Y0244960D01*
X0142958Y0244960D01*
X0144025Y0243892D01*
X0144025Y0239622D01*
X0101324Y0167243D02*
X0084324Y0167243D01*
X0084264Y0167241D01*
X0084203Y0167236D01*
X0084144Y0167227D01*
X0084085Y0167214D01*
X0084026Y0167198D01*
X0083969Y0167178D01*
X0083914Y0167155D01*
X0083859Y0167128D01*
X0083807Y0167099D01*
X0083756Y0167066D01*
X0083707Y0167030D01*
X0083661Y0166992D01*
X0083617Y0166950D01*
X0083575Y0166906D01*
X0083537Y0166860D01*
X0083501Y0166811D01*
X0083468Y0166760D01*
X0083439Y0166708D01*
X0083412Y0166653D01*
X0083389Y0166598D01*
X0083369Y0166541D01*
X0083353Y0166482D01*
X0083340Y0166423D01*
X0083331Y0166364D01*
X0083326Y0166303D01*
X0083324Y0166243D01*
X0083324Y0156243D01*
X0083326Y0156183D01*
X0083331Y0156122D01*
X0083340Y0156063D01*
X0083353Y0156004D01*
X0083369Y0155945D01*
X0083389Y0155888D01*
X0083412Y0155833D01*
X0083439Y0155778D01*
X0083468Y0155726D01*
X0083501Y0155675D01*
X0083537Y0155626D01*
X0083575Y0155580D01*
X0083617Y0155536D01*
X0083661Y0155494D01*
X0083707Y0155456D01*
X0083756Y0155420D01*
X0083807Y0155387D01*
X0083859Y0155358D01*
X0083914Y0155331D01*
X0083969Y0155308D01*
X0084026Y0155288D01*
X0084085Y0155272D01*
X0084144Y0155259D01*
X0084203Y0155250D01*
X0084264Y0155245D01*
X0084324Y0155243D01*
X0101324Y0155243D01*
X0101384Y0155245D01*
X0101445Y0155250D01*
X0101504Y0155259D01*
X0101563Y0155272D01*
X0101622Y0155288D01*
X0101679Y0155308D01*
X0101734Y0155331D01*
X0101789Y0155358D01*
X0101841Y0155387D01*
X0101892Y0155420D01*
X0101941Y0155456D01*
X0101987Y0155494D01*
X0102031Y0155536D01*
X0102073Y0155580D01*
X0102111Y0155626D01*
X0102147Y0155675D01*
X0102180Y0155726D01*
X0102209Y0155778D01*
X0102236Y0155833D01*
X0102259Y0155888D01*
X0102279Y0155945D01*
X0102295Y0156004D01*
X0102308Y0156063D01*
X0102317Y0156122D01*
X0102322Y0156183D01*
X0102324Y0156243D01*
X0102324Y0166243D01*
X0102322Y0166303D01*
X0102317Y0166364D01*
X0102308Y0166423D01*
X0102295Y0166482D01*
X0102279Y0166541D01*
X0102259Y0166598D01*
X0102236Y0166653D01*
X0102209Y0166708D01*
X0102180Y0166760D01*
X0102147Y0166811D01*
X0102111Y0166860D01*
X0102073Y0166906D01*
X0102031Y0166950D01*
X0101987Y0166992D01*
X0101941Y0167030D01*
X0101892Y0167066D01*
X0101841Y0167099D01*
X0101789Y0167128D01*
X0101734Y0167155D01*
X0101679Y0167178D01*
X0101622Y0167198D01*
X0101563Y0167214D01*
X0101504Y0167227D01*
X0101445Y0167236D01*
X0101384Y0167241D01*
X0101324Y0167243D01*
X0094324Y0161243D02*
X0093824Y0161243D01*
X0091824Y0161243D02*
X0091324Y0161243D01*
X0087005Y0150735D02*
X0087005Y0137892D01*
X0087005Y0150734D02*
X0087164Y0150904D01*
X0087328Y0151070D01*
X0087496Y0151232D01*
X0087667Y0151389D01*
X0087843Y0151542D01*
X0088022Y0151691D01*
X0088205Y0151836D01*
X0088391Y0151976D01*
X0088580Y0152111D01*
X0088773Y0152242D01*
X0088969Y0152367D01*
X0089168Y0152488D01*
X0089370Y0152605D01*
X0089575Y0152716D01*
X0089782Y0152822D01*
X0089992Y0152923D01*
X0090204Y0153019D01*
X0090419Y0153109D01*
X0090635Y0153194D01*
X0090854Y0153274D01*
X0091075Y0153349D01*
X0091297Y0153418D01*
X0091521Y0153482D01*
X0091747Y0153540D01*
X0091974Y0153592D01*
X0092202Y0153639D01*
X0092431Y0153681D01*
X0092661Y0153716D01*
X0092892Y0153747D01*
X0093124Y0153771D01*
X0093356Y0153790D01*
X0093588Y0153803D01*
X0093821Y0153810D01*
X0094054Y0153812D01*
X0094287Y0153808D01*
X0094520Y0153798D01*
X0094752Y0153783D01*
X0094984Y0153761D01*
X0095215Y0153735D01*
X0095446Y0153702D01*
X0095676Y0153664D01*
X0095905Y0153620D01*
X0096132Y0153571D01*
X0096358Y0153516D01*
X0096583Y0153455D01*
X0096807Y0153389D01*
X0097028Y0153318D01*
X0097248Y0153241D01*
X0097466Y0153159D01*
X0097682Y0153072D01*
X0097896Y0152979D01*
X0098107Y0152881D01*
X0098316Y0152778D01*
X0098522Y0152669D01*
X0098726Y0152556D01*
X0098926Y0152438D01*
X0099124Y0152315D01*
X0099319Y0152187D01*
X0099510Y0152054D01*
X0099698Y0151917D01*
X0099883Y0151775D01*
X0100064Y0151629D01*
X0100242Y0151478D01*
X0100415Y0151323D01*
X0100585Y0151164D01*
X0100751Y0151000D01*
X0100913Y0150833D01*
X0101071Y0150662D01*
X0101225Y0150487D01*
X0101374Y0150308D01*
X0101519Y0150125D01*
X0101659Y0149939D01*
X0101795Y0149750D01*
X0101926Y0149557D01*
X0102052Y0149362D01*
X0102173Y0149163D01*
X0102290Y0148961D01*
X0102401Y0148757D01*
X0102508Y0148550D01*
X0102609Y0148340D01*
X0102705Y0148128D01*
X0102705Y0140499D02*
X0102609Y0140287D01*
X0102508Y0140077D01*
X0102401Y0139870D01*
X0102290Y0139666D01*
X0102173Y0139464D01*
X0102052Y0139265D01*
X0101926Y0139070D01*
X0101795Y0138877D01*
X0101659Y0138688D01*
X0101519Y0138502D01*
X0101374Y0138319D01*
X0101225Y0138140D01*
X0101071Y0137965D01*
X0100913Y0137794D01*
X0100751Y0137627D01*
X0100585Y0137463D01*
X0100415Y0137304D01*
X0100242Y0137149D01*
X0100064Y0136998D01*
X0099883Y0136852D01*
X0099698Y0136710D01*
X0099510Y0136573D01*
X0099319Y0136440D01*
X0099124Y0136312D01*
X0098926Y0136189D01*
X0098726Y0136071D01*
X0098522Y0135958D01*
X0098316Y0135849D01*
X0098107Y0135746D01*
X0097896Y0135648D01*
X0097682Y0135555D01*
X0097466Y0135468D01*
X0097248Y0135386D01*
X0097028Y0135309D01*
X0096807Y0135238D01*
X0096583Y0135172D01*
X0096358Y0135111D01*
X0096132Y0135056D01*
X0095905Y0135007D01*
X0095676Y0134963D01*
X0095446Y0134925D01*
X0095215Y0134892D01*
X0094984Y0134866D01*
X0094752Y0134844D01*
X0094520Y0134829D01*
X0094287Y0134819D01*
X0094054Y0134815D01*
X0093821Y0134817D01*
X0093588Y0134824D01*
X0093356Y0134837D01*
X0093124Y0134856D01*
X0092892Y0134880D01*
X0092661Y0134911D01*
X0092431Y0134946D01*
X0092202Y0134988D01*
X0091974Y0135035D01*
X0091747Y0135087D01*
X0091521Y0135145D01*
X0091297Y0135209D01*
X0091075Y0135278D01*
X0090854Y0135353D01*
X0090635Y0135433D01*
X0090419Y0135518D01*
X0090204Y0135608D01*
X0089992Y0135704D01*
X0089782Y0135805D01*
X0089575Y0135911D01*
X0089370Y0136022D01*
X0089168Y0136139D01*
X0088969Y0136260D01*
X0088773Y0136385D01*
X0088580Y0136516D01*
X0088391Y0136651D01*
X0088205Y0136791D01*
X0088022Y0136936D01*
X0087843Y0137085D01*
X0087667Y0137238D01*
X0087496Y0137395D01*
X0087328Y0137557D01*
X0087164Y0137723D01*
X0087005Y0137893D01*
X0057147Y0293672D02*
X0057147Y0300078D01*
X0052877Y0300078D02*
X0057147Y0293672D01*
X0052877Y0293672D02*
X0052877Y0300078D01*
X0050715Y0300078D02*
X0048580Y0300078D01*
X0049647Y0300078D02*
X0049647Y0293672D01*
X0048580Y0293672D02*
X0050715Y0293672D01*
D14*
X0099911Y0275516D03*
X0099911Y0319016D03*
D15*
X0099911Y0282266D03*
D16*
X0105913Y0207699D03*
X0062413Y0207699D03*
D17*
X0099163Y0207699D03*
D18*
X0093911Y0223998D02*
X0093911Y0253998D01*
X0105911Y0253998D01*
X0105911Y0223998D01*
X0093911Y0223998D01*
X0042919Y0222502D02*
X0042919Y0192502D01*
X0030919Y0192502D01*
X0030919Y0222502D01*
X0042919Y0222502D01*
X0034714Y0315479D02*
X0034714Y0327479D01*
X0080462Y0327479D01*
X0080462Y0315479D01*
X0034714Y0315479D01*
D19*
X0145406Y0208454D02*
X0145565Y0207938D01*
X0145327Y0207861D01*
X0145091Y0207778D01*
X0144857Y0207689D01*
X0144625Y0207594D01*
X0144396Y0207494D01*
X0144169Y0207388D01*
X0143945Y0207276D01*
X0143723Y0207159D01*
X0143505Y0207037D01*
X0143290Y0206910D01*
X0143077Y0206777D01*
X0142868Y0206639D01*
X0142663Y0206496D01*
X0142461Y0206348D01*
X0142263Y0206195D01*
X0142069Y0206037D01*
X0141878Y0205875D01*
X0141692Y0205708D01*
X0141509Y0205536D01*
X0141331Y0205360D01*
X0141157Y0205180D01*
X0140988Y0204996D01*
X0140824Y0204807D01*
X0140664Y0204615D01*
X0140508Y0204418D01*
X0140358Y0204218D01*
X0140212Y0204014D01*
X0140072Y0203807D01*
X0139937Y0203597D01*
X0139807Y0203383D01*
X0139682Y0203166D01*
X0139562Y0202946D01*
X0139448Y0202723D01*
X0139339Y0202497D01*
X0139236Y0202269D01*
X0139139Y0202039D01*
X0139047Y0201806D01*
X0138961Y0201571D01*
X0138881Y0201334D01*
X0138806Y0201095D01*
X0138738Y0200854D01*
X0138675Y0200612D01*
X0138618Y0200368D01*
X0138568Y0200123D01*
X0138523Y0199876D01*
X0138484Y0199629D01*
X0138452Y0199381D01*
X0138425Y0199132D01*
X0138405Y0198882D01*
X0138390Y0198633D01*
X0138382Y0198382D01*
X0138380Y0198132D01*
X0138384Y0197882D01*
X0138394Y0197632D01*
X0138411Y0197382D01*
X0138433Y0197132D01*
X0138461Y0196884D01*
X0138496Y0196636D01*
X0138537Y0196389D01*
X0138583Y0196143D01*
X0138636Y0195898D01*
X0138695Y0195655D01*
X0138759Y0195413D01*
X0138830Y0195173D01*
X0138906Y0194934D01*
X0138988Y0194698D01*
X0139076Y0194463D01*
X0139169Y0194231D01*
X0139269Y0194002D01*
X0139374Y0193774D01*
X0139484Y0193550D01*
X0139600Y0193328D01*
X0139721Y0193109D01*
X0139848Y0192893D01*
X0139979Y0192680D01*
X0140116Y0192470D01*
X0140258Y0192264D01*
X0140405Y0192062D01*
X0140557Y0191863D01*
X0140134Y0191529D01*
X0140133Y0191528D01*
X0139973Y0191738D01*
X0139818Y0191951D01*
X0139669Y0192168D01*
X0139525Y0192389D01*
X0139386Y0192613D01*
X0139252Y0192840D01*
X0139125Y0193071D01*
X0139003Y0193304D01*
X0138887Y0193541D01*
X0138776Y0193780D01*
X0138672Y0194022D01*
X0138573Y0194267D01*
X0138480Y0194513D01*
X0138394Y0194762D01*
X0138314Y0195014D01*
X0138239Y0195266D01*
X0138171Y0195521D01*
X0138110Y0195777D01*
X0138054Y0196035D01*
X0138005Y0196294D01*
X0137962Y0196554D01*
X0137926Y0196815D01*
X0137896Y0197077D01*
X0137872Y0197339D01*
X0137855Y0197603D01*
X0137844Y0197866D01*
X0137840Y0198129D01*
X0137842Y0198393D01*
X0137851Y0198656D01*
X0137866Y0198920D01*
X0137887Y0199182D01*
X0137915Y0199444D01*
X0137950Y0199706D01*
X0137990Y0199966D01*
X0138038Y0200225D01*
X0138091Y0200484D01*
X0138151Y0200740D01*
X0138217Y0200995D01*
X0138289Y0201249D01*
X0138367Y0201501D01*
X0138452Y0201750D01*
X0138542Y0201998D01*
X0138639Y0202243D01*
X0138742Y0202486D01*
X0138850Y0202726D01*
X0138965Y0202963D01*
X0139085Y0203198D01*
X0139211Y0203430D01*
X0139342Y0203658D01*
X0139479Y0203883D01*
X0139622Y0204105D01*
X0139769Y0204323D01*
X0139923Y0204538D01*
X0140081Y0204748D01*
X0140244Y0204955D01*
X0140413Y0205158D01*
X0140586Y0205356D01*
X0140765Y0205551D01*
X0140948Y0205740D01*
X0141135Y0205926D01*
X0141327Y0206106D01*
X0141523Y0206282D01*
X0141724Y0206453D01*
X0141929Y0206619D01*
X0142137Y0206780D01*
X0142350Y0206936D01*
X0142566Y0207086D01*
X0142786Y0207232D01*
X0143010Y0207371D01*
X0143236Y0207506D01*
X0143467Y0207634D01*
X0143700Y0207757D01*
X0143936Y0207875D01*
X0144174Y0207986D01*
X0144416Y0208092D01*
X0144660Y0208192D01*
X0144906Y0208285D01*
X0145155Y0208373D01*
X0145406Y0208454D01*
X0145422Y0208401D01*
X0145173Y0208320D01*
X0144925Y0208233D01*
X0144680Y0208139D01*
X0144438Y0208040D01*
X0144197Y0207935D01*
X0143960Y0207824D01*
X0143725Y0207708D01*
X0143493Y0207585D01*
X0143264Y0207457D01*
X0143039Y0207324D01*
X0142816Y0207184D01*
X0142598Y0207040D01*
X0142382Y0206890D01*
X0142171Y0206735D01*
X0141963Y0206575D01*
X0141760Y0206410D01*
X0141560Y0206240D01*
X0141365Y0206065D01*
X0141174Y0205885D01*
X0140987Y0205701D01*
X0140805Y0205512D01*
X0140628Y0205319D01*
X0140456Y0205121D01*
X0140288Y0204920D01*
X0140125Y0204714D01*
X0139968Y0204505D01*
X0139815Y0204291D01*
X0139668Y0204074D01*
X0139527Y0203854D01*
X0139390Y0203630D01*
X0139259Y0203402D01*
X0139134Y0203172D01*
X0139015Y0202939D01*
X0138901Y0202702D01*
X0138793Y0202463D01*
X0138691Y0202222D01*
X0138595Y0201978D01*
X0138505Y0201732D01*
X0138421Y0201483D01*
X0138343Y0201233D01*
X0138271Y0200981D01*
X0138205Y0200727D01*
X0138146Y0200472D01*
X0138093Y0200215D01*
X0138046Y0199957D01*
X0138005Y0199698D01*
X0137971Y0199438D01*
X0137943Y0199177D01*
X0137922Y0198916D01*
X0137907Y0198654D01*
X0137898Y0198392D01*
X0137896Y0198130D01*
X0137900Y0197868D01*
X0137911Y0197606D01*
X0137928Y0197344D01*
X0137952Y0197083D01*
X0137981Y0196822D01*
X0138018Y0196563D01*
X0138060Y0196304D01*
X0138109Y0196046D01*
X0138164Y0195790D01*
X0138226Y0195535D01*
X0138293Y0195282D01*
X0138367Y0195030D01*
X0138447Y0194780D01*
X0138533Y0194533D01*
X0138625Y0194287D01*
X0138723Y0194044D01*
X0138827Y0193803D01*
X0138937Y0193565D01*
X0139053Y0193330D01*
X0139174Y0193097D01*
X0139301Y0192868D01*
X0139434Y0192642D01*
X0139572Y0192419D01*
X0139715Y0192199D01*
X0139864Y0191984D01*
X0140018Y0191771D01*
X0140177Y0191563D01*
X0140221Y0191598D01*
X0140063Y0191805D01*
X0139910Y0192016D01*
X0139762Y0192231D01*
X0139619Y0192449D01*
X0139481Y0192671D01*
X0139350Y0192896D01*
X0139223Y0193124D01*
X0139103Y0193355D01*
X0138988Y0193589D01*
X0138878Y0193826D01*
X0138775Y0194066D01*
X0138677Y0194308D01*
X0138586Y0194552D01*
X0138500Y0194798D01*
X0138421Y0195047D01*
X0138347Y0195297D01*
X0138280Y0195549D01*
X0138219Y0195802D01*
X0138164Y0196057D01*
X0138115Y0196314D01*
X0138073Y0196571D01*
X0138037Y0196829D01*
X0138007Y0197088D01*
X0137984Y0197348D01*
X0137967Y0197609D01*
X0137956Y0197869D01*
X0137952Y0198130D01*
X0137954Y0198391D01*
X0137963Y0198651D01*
X0137978Y0198912D01*
X0137999Y0199172D01*
X0138027Y0199431D01*
X0138061Y0199690D01*
X0138101Y0199947D01*
X0138148Y0200204D01*
X0138200Y0200460D01*
X0138259Y0200714D01*
X0138325Y0200966D01*
X0138396Y0201217D01*
X0138474Y0201466D01*
X0138557Y0201713D01*
X0138647Y0201958D01*
X0138743Y0202201D01*
X0138844Y0202441D01*
X0138952Y0202679D01*
X0139065Y0202914D01*
X0139184Y0203146D01*
X0139308Y0203375D01*
X0139438Y0203601D01*
X0139574Y0203824D01*
X0139715Y0204043D01*
X0139861Y0204259D01*
X0140013Y0204471D01*
X0140170Y0204680D01*
X0140331Y0204885D01*
X0140498Y0205085D01*
X0140670Y0205282D01*
X0140846Y0205474D01*
X0141027Y0205661D01*
X0141213Y0205845D01*
X0141403Y0206024D01*
X0141597Y0206198D01*
X0141795Y0206367D01*
X0141998Y0206531D01*
X0142205Y0206690D01*
X0142415Y0206845D01*
X0142629Y0206994D01*
X0142847Y0207137D01*
X0143068Y0207276D01*
X0143292Y0207409D01*
X0143520Y0207536D01*
X0143750Y0207658D01*
X0143984Y0207774D01*
X0144220Y0207884D01*
X0144459Y0207989D01*
X0144701Y0208087D01*
X0144945Y0208180D01*
X0145191Y0208267D01*
X0145439Y0208347D01*
X0145455Y0208294D01*
X0145208Y0208214D01*
X0144964Y0208127D01*
X0144721Y0208035D01*
X0144481Y0207937D01*
X0144243Y0207833D01*
X0144008Y0207723D01*
X0143776Y0207608D01*
X0143546Y0207487D01*
X0143320Y0207360D01*
X0143097Y0207228D01*
X0142877Y0207090D01*
X0142660Y0206947D01*
X0142447Y0206799D01*
X0142238Y0206646D01*
X0142033Y0206487D01*
X0141831Y0206324D01*
X0141634Y0206155D01*
X0141440Y0205982D01*
X0141251Y0205804D01*
X0141067Y0205622D01*
X0140887Y0205435D01*
X0140711Y0205244D01*
X0140541Y0205049D01*
X0140375Y0204849D01*
X0140214Y0204646D01*
X0140058Y0204438D01*
X0139907Y0204227D01*
X0139762Y0204012D01*
X0139621Y0203794D01*
X0139487Y0203572D01*
X0139357Y0203348D01*
X0139233Y0203120D01*
X0139115Y0202889D01*
X0139002Y0202655D01*
X0138896Y0202418D01*
X0138795Y0202179D01*
X0138699Y0201938D01*
X0138610Y0201694D01*
X0138527Y0201449D01*
X0138450Y0201201D01*
X0138379Y0200951D01*
X0138314Y0200700D01*
X0138255Y0200448D01*
X0138202Y0200193D01*
X0138156Y0199938D01*
X0138116Y0199682D01*
X0138082Y0199425D01*
X0138055Y0199167D01*
X0138034Y0198908D01*
X0138019Y0198649D01*
X0138010Y0198390D01*
X0138008Y0198130D01*
X0138012Y0197871D01*
X0138023Y0197612D01*
X0138040Y0197353D01*
X0138063Y0197094D01*
X0138092Y0196836D01*
X0138128Y0196579D01*
X0138170Y0196323D01*
X0138219Y0196069D01*
X0138273Y0195815D01*
X0138334Y0195563D01*
X0138401Y0195312D01*
X0138474Y0195063D01*
X0138553Y0194816D01*
X0138638Y0194571D01*
X0138729Y0194328D01*
X0138826Y0194087D01*
X0138929Y0193849D01*
X0139038Y0193614D01*
X0139152Y0193381D01*
X0139273Y0193151D01*
X0139398Y0192924D01*
X0139529Y0192700D01*
X0139666Y0192479D01*
X0139808Y0192262D01*
X0139955Y0192048D01*
X0140108Y0191839D01*
X0140265Y0191632D01*
X0140309Y0191667D01*
X0140152Y0191872D01*
X0140001Y0192081D01*
X0139854Y0192293D01*
X0139713Y0192509D01*
X0139577Y0192729D01*
X0139447Y0192952D01*
X0139322Y0193177D01*
X0139202Y0193406D01*
X0139089Y0193638D01*
X0138980Y0193872D01*
X0138878Y0194109D01*
X0138782Y0194348D01*
X0138691Y0194590D01*
X0138606Y0194834D01*
X0138528Y0195080D01*
X0138455Y0195327D01*
X0138388Y0195577D01*
X0138328Y0195827D01*
X0138274Y0196080D01*
X0138226Y0196333D01*
X0138184Y0196588D01*
X0138148Y0196844D01*
X0138119Y0197100D01*
X0138096Y0197357D01*
X0138079Y0197615D01*
X0138068Y0197872D01*
X0138064Y0198130D01*
X0138066Y0198389D01*
X0138075Y0198647D01*
X0138089Y0198904D01*
X0138111Y0199161D01*
X0138138Y0199418D01*
X0138171Y0199674D01*
X0138211Y0199929D01*
X0138257Y0200183D01*
X0138310Y0200436D01*
X0138368Y0200687D01*
X0138433Y0200937D01*
X0138504Y0201185D01*
X0138580Y0201431D01*
X0138663Y0201676D01*
X0138752Y0201918D01*
X0138846Y0202158D01*
X0138947Y0202396D01*
X0139053Y0202631D01*
X0139165Y0202864D01*
X0139283Y0203093D01*
X0139406Y0203320D01*
X0139535Y0203544D01*
X0139669Y0203764D01*
X0139808Y0203981D01*
X0139953Y0204195D01*
X0140103Y0204405D01*
X0140258Y0204611D01*
X0140418Y0204814D01*
X0140583Y0205012D01*
X0140753Y0205207D01*
X0140928Y0205397D01*
X0141107Y0205583D01*
X0141290Y0205764D01*
X0141478Y0205941D01*
X0141670Y0206113D01*
X0141867Y0206281D01*
X0142067Y0206443D01*
X0142272Y0206601D01*
X0142480Y0206753D01*
X0142692Y0206901D01*
X0142907Y0207043D01*
X0143126Y0207180D01*
X0143348Y0207311D01*
X0143573Y0207437D01*
X0143801Y0207558D01*
X0144032Y0207673D01*
X0144266Y0207782D01*
X0144503Y0207885D01*
X0144742Y0207983D01*
X0144983Y0208075D01*
X0145226Y0208160D01*
X0145472Y0208240D01*
X0145488Y0208187D01*
X0145244Y0208107D01*
X0145002Y0208022D01*
X0144762Y0207931D01*
X0144524Y0207834D01*
X0144289Y0207731D01*
X0144057Y0207622D01*
X0143827Y0207508D01*
X0143600Y0207388D01*
X0143376Y0207263D01*
X0143155Y0207132D01*
X0142937Y0206996D01*
X0142723Y0206854D01*
X0142512Y0206708D01*
X0142305Y0206556D01*
X0142102Y0206399D01*
X0141903Y0206237D01*
X0141707Y0206071D01*
X0141516Y0205900D01*
X0141329Y0205724D01*
X0141146Y0205543D01*
X0140968Y0205358D01*
X0140795Y0205169D01*
X0140626Y0204976D01*
X0140462Y0204779D01*
X0140303Y0204577D01*
X0140148Y0204372D01*
X0139999Y0204163D01*
X0139855Y0203951D01*
X0139716Y0203735D01*
X0139583Y0203515D01*
X0139455Y0203293D01*
X0139332Y0203067D01*
X0139215Y0202839D01*
X0139104Y0202608D01*
X0138998Y0202374D01*
X0138898Y0202137D01*
X0138804Y0201898D01*
X0138716Y0201657D01*
X0138634Y0201414D01*
X0138557Y0201169D01*
X0138487Y0200922D01*
X0138423Y0200674D01*
X0138364Y0200424D01*
X0138312Y0200172D01*
X0138267Y0199920D01*
X0138227Y0199666D01*
X0138193Y0199411D01*
X0138166Y0199156D01*
X0138145Y0198900D01*
X0138131Y0198644D01*
X0138122Y0198387D01*
X0138120Y0198131D01*
X0138124Y0197874D01*
X0138135Y0197618D01*
X0138151Y0197361D01*
X0138174Y0197106D01*
X0138204Y0196851D01*
X0138239Y0196596D01*
X0138281Y0196343D01*
X0138328Y0196091D01*
X0138382Y0195840D01*
X0138443Y0195590D01*
X0138509Y0195342D01*
X0138581Y0195096D01*
X0138659Y0194852D01*
X0138744Y0194609D01*
X0138834Y0194369D01*
X0138930Y0194131D01*
X0139032Y0193895D01*
X0139139Y0193662D01*
X0139252Y0193431D01*
X0139371Y0193204D01*
X0139495Y0192979D01*
X0139625Y0192758D01*
X0139760Y0192540D01*
X0139901Y0192325D01*
X0140046Y0192113D01*
X0140197Y0191906D01*
X0140353Y0191702D01*
X0140397Y0191736D01*
X0140242Y0191939D01*
X0140092Y0192146D01*
X0139947Y0192356D01*
X0139808Y0192570D01*
X0139673Y0192787D01*
X0139544Y0193007D01*
X0139420Y0193231D01*
X0139302Y0193457D01*
X0139190Y0193686D01*
X0139083Y0193918D01*
X0138981Y0194152D01*
X0138886Y0194389D01*
X0138796Y0194628D01*
X0138712Y0194869D01*
X0138635Y0195113D01*
X0138563Y0195358D01*
X0138497Y0195604D01*
X0138437Y0195853D01*
X0138383Y0196102D01*
X0138336Y0196353D01*
X0138294Y0196605D01*
X0138259Y0196858D01*
X0138230Y0197112D01*
X0138207Y0197366D01*
X0138191Y0197621D01*
X0138180Y0197876D01*
X0138176Y0198131D01*
X0138178Y0198386D01*
X0138187Y0198642D01*
X0138201Y0198896D01*
X0138222Y0199151D01*
X0138249Y0199405D01*
X0138282Y0199658D01*
X0138322Y0199910D01*
X0138367Y0200161D01*
X0138419Y0200412D01*
X0138477Y0200660D01*
X0138541Y0200907D01*
X0138611Y0201153D01*
X0138687Y0201397D01*
X0138769Y0201639D01*
X0138856Y0201878D01*
X0138950Y0202116D01*
X0139049Y0202351D01*
X0139155Y0202584D01*
X0139265Y0202814D01*
X0139382Y0203041D01*
X0139504Y0203265D01*
X0139631Y0203487D01*
X0139764Y0203705D01*
X0139902Y0203920D01*
X0140045Y0204131D01*
X0140193Y0204339D01*
X0140347Y0204543D01*
X0140505Y0204743D01*
X0140668Y0204940D01*
X0140836Y0205132D01*
X0141009Y0205320D01*
X0141186Y0205504D01*
X0141368Y0205683D01*
X0141554Y0205858D01*
X0141744Y0206029D01*
X0141938Y0206194D01*
X0142137Y0206355D01*
X0142339Y0206511D01*
X0142545Y0206662D01*
X0142754Y0206808D01*
X0142967Y0206949D01*
X0143184Y0207084D01*
X0143404Y0207214D01*
X0143626Y0207339D01*
X0143852Y0207458D01*
X0144081Y0207572D01*
X0144312Y0207680D01*
X0144546Y0207782D01*
X0144782Y0207879D01*
X0145021Y0207969D01*
X0145262Y0208054D01*
X0145505Y0208133D01*
X0145521Y0208080D01*
X0145280Y0208001D01*
X0145040Y0207917D01*
X0144803Y0207826D01*
X0144568Y0207730D01*
X0144335Y0207629D01*
X0144105Y0207521D01*
X0143878Y0207408D01*
X0143653Y0207290D01*
X0143431Y0207166D01*
X0143213Y0207036D01*
X0142998Y0206901D01*
X0142786Y0206762D01*
X0142577Y0206616D01*
X0142372Y0206466D01*
X0142171Y0206311D01*
X0141974Y0206151D01*
X0141781Y0205986D01*
X0141592Y0205817D01*
X0141407Y0205643D01*
X0141226Y0205464D01*
X0141050Y0205282D01*
X0140878Y0205094D01*
X0140711Y0204903D01*
X0140549Y0204708D01*
X0140391Y0204509D01*
X0140239Y0204306D01*
X0140091Y0204099D01*
X0139949Y0203889D01*
X0139811Y0203675D01*
X0139679Y0203458D01*
X0139553Y0203238D01*
X0139431Y0203015D01*
X0139316Y0202789D01*
X0139205Y0202560D01*
X0139101Y0202329D01*
X0139002Y0202095D01*
X0138909Y0201858D01*
X0138822Y0201620D01*
X0138740Y0201379D01*
X0138665Y0201137D01*
X0138595Y0200893D01*
X0138531Y0200647D01*
X0138474Y0200400D01*
X0138422Y0200151D01*
X0138377Y0199901D01*
X0138338Y0199650D01*
X0138305Y0199398D01*
X0138278Y0199146D01*
X0138257Y0198893D01*
X0138243Y0198639D01*
X0138234Y0198385D01*
X0138232Y0198131D01*
X0138236Y0197877D01*
X0138246Y0197624D01*
X0138263Y0197370D01*
X0138286Y0197117D01*
X0138315Y0196865D01*
X0138350Y0196613D01*
X0138391Y0196363D01*
X0138438Y0196113D01*
X0138492Y0195865D01*
X0138551Y0195618D01*
X0138617Y0195373D01*
X0138688Y0195129D01*
X0138766Y0194887D01*
X0138849Y0194647D01*
X0138938Y0194410D01*
X0139033Y0194174D01*
X0139134Y0193941D01*
X0139240Y0193710D01*
X0139352Y0193482D01*
X0139470Y0193257D01*
X0139593Y0193035D01*
X0139721Y0192816D01*
X0139855Y0192600D01*
X0139994Y0192387D01*
X0140138Y0192178D01*
X0140287Y0191973D01*
X0140441Y0191771D01*
X0140485Y0191806D01*
X0140332Y0192006D01*
X0140183Y0192211D01*
X0140040Y0192419D01*
X0139902Y0192630D01*
X0139769Y0192845D01*
X0139641Y0193063D01*
X0139519Y0193284D01*
X0139402Y0193508D01*
X0139291Y0193734D01*
X0139185Y0193964D01*
X0139085Y0194196D01*
X0138990Y0194430D01*
X0138902Y0194666D01*
X0138819Y0194905D01*
X0138742Y0195146D01*
X0138671Y0195388D01*
X0138605Y0195632D01*
X0138546Y0195878D01*
X0138493Y0196125D01*
X0138446Y0196373D01*
X0138405Y0196622D01*
X0138370Y0196872D01*
X0138341Y0197123D01*
X0138319Y0197375D01*
X0138302Y0197627D01*
X0138292Y0197879D01*
X0138288Y0198132D01*
X0138290Y0198384D01*
X0138298Y0198637D01*
X0138313Y0198889D01*
X0138334Y0199141D01*
X0138360Y0199392D01*
X0138393Y0199642D01*
X0138432Y0199892D01*
X0138477Y0200140D01*
X0138529Y0200388D01*
X0138586Y0200634D01*
X0138649Y0200878D01*
X0138718Y0201121D01*
X0138793Y0201362D01*
X0138874Y0201601D01*
X0138961Y0201839D01*
X0139054Y0202074D01*
X0139152Y0202306D01*
X0139256Y0202536D01*
X0139366Y0202764D01*
X0139481Y0202989D01*
X0139601Y0203211D01*
X0139727Y0203430D01*
X0139859Y0203645D01*
X0139995Y0203858D01*
X0140137Y0204067D01*
X0140284Y0204273D01*
X0140435Y0204474D01*
X0140592Y0204673D01*
X0140754Y0204867D01*
X0140920Y0205057D01*
X0141091Y0205243D01*
X0141266Y0205425D01*
X0141445Y0205603D01*
X0141629Y0205776D01*
X0141818Y0205944D01*
X0142010Y0206108D01*
X0142206Y0206267D01*
X0142406Y0206421D01*
X0142610Y0206571D01*
X0142817Y0206715D01*
X0143028Y0206854D01*
X0143242Y0206988D01*
X0143459Y0207117D01*
X0143680Y0207240D01*
X0143903Y0207358D01*
X0144129Y0207471D01*
X0144358Y0207578D01*
X0144589Y0207679D01*
X0144823Y0207774D01*
X0145059Y0207864D01*
X0145298Y0207948D01*
X0145538Y0208026D01*
X0145554Y0207973D01*
X0145315Y0207895D01*
X0145078Y0207811D01*
X0144844Y0207722D01*
X0144611Y0207627D01*
X0144381Y0207526D01*
X0144153Y0207420D01*
X0143928Y0207308D01*
X0143706Y0207191D01*
X0143487Y0207068D01*
X0143271Y0206940D01*
X0143058Y0206807D01*
X0142848Y0206669D01*
X0142642Y0206525D01*
X0142440Y0206377D01*
X0142241Y0206223D01*
X0142046Y0206065D01*
X0141854Y0205902D01*
X0141667Y0205734D01*
X0141484Y0205562D01*
X0141306Y0205386D01*
X0141131Y0205205D01*
X0140961Y0205020D01*
X0140796Y0204830D01*
X0140636Y0204637D01*
X0140480Y0204440D01*
X0140329Y0204239D01*
X0140183Y0204035D01*
X0140042Y0203827D01*
X0139906Y0203616D01*
X0139776Y0203401D01*
X0139650Y0203183D01*
X0139530Y0202963D01*
X0139416Y0202739D01*
X0139307Y0202513D01*
X0139203Y0202284D01*
X0139106Y0202052D01*
X0139014Y0201819D01*
X0138927Y0201583D01*
X0138847Y0201345D01*
X0138772Y0201105D01*
X0138703Y0200863D01*
X0138640Y0200620D01*
X0138583Y0200375D01*
X0138532Y0200130D01*
X0138487Y0199882D01*
X0138449Y0199634D01*
X0138416Y0199385D01*
X0138389Y0199135D01*
X0138369Y0198885D01*
X0138354Y0198634D01*
X0138346Y0198383D01*
X0138344Y0198132D01*
X0138348Y0197881D01*
X0138358Y0197630D01*
X0138375Y0197379D01*
X0138397Y0197129D01*
X0138426Y0196879D01*
X0138460Y0196630D01*
X0138501Y0196383D01*
X0138548Y0196136D01*
X0138601Y0195890D01*
X0138660Y0195646D01*
X0138724Y0195403D01*
X0138795Y0195162D01*
X0138872Y0194923D01*
X0138954Y0194686D01*
X0139042Y0194450D01*
X0139136Y0194217D01*
X0139236Y0193987D01*
X0139341Y0193759D01*
X0139452Y0193533D01*
X0139568Y0193310D01*
X0139690Y0193091D01*
X0139817Y0192874D01*
X0139949Y0192660D01*
X0140086Y0192450D01*
X0140229Y0192243D01*
X0140377Y0192040D01*
X0140529Y0191840D01*
X0157089Y0191529D02*
X0156665Y0191863D01*
X0156666Y0191863D02*
X0156818Y0192062D01*
X0156965Y0192264D01*
X0157107Y0192470D01*
X0157244Y0192680D01*
X0157375Y0192893D01*
X0157502Y0193109D01*
X0157623Y0193328D01*
X0157739Y0193550D01*
X0157849Y0193774D01*
X0157954Y0194002D01*
X0158054Y0194231D01*
X0158147Y0194463D01*
X0158235Y0194698D01*
X0158317Y0194934D01*
X0158393Y0195173D01*
X0158464Y0195413D01*
X0158528Y0195655D01*
X0158587Y0195898D01*
X0158640Y0196143D01*
X0158686Y0196389D01*
X0158727Y0196636D01*
X0158762Y0196884D01*
X0158790Y0197132D01*
X0158812Y0197382D01*
X0158829Y0197632D01*
X0158839Y0197882D01*
X0158843Y0198132D01*
X0158841Y0198382D01*
X0158833Y0198633D01*
X0158818Y0198882D01*
X0158798Y0199132D01*
X0158771Y0199381D01*
X0158739Y0199629D01*
X0158700Y0199876D01*
X0158655Y0200123D01*
X0158605Y0200368D01*
X0158548Y0200612D01*
X0158485Y0200854D01*
X0158417Y0201095D01*
X0158342Y0201334D01*
X0158262Y0201571D01*
X0158176Y0201806D01*
X0158084Y0202039D01*
X0157987Y0202269D01*
X0157884Y0202497D01*
X0157775Y0202723D01*
X0157661Y0202946D01*
X0157541Y0203166D01*
X0157416Y0203383D01*
X0157286Y0203597D01*
X0157151Y0203807D01*
X0157011Y0204014D01*
X0156865Y0204218D01*
X0156715Y0204418D01*
X0156559Y0204615D01*
X0156399Y0204807D01*
X0156235Y0204996D01*
X0156066Y0205180D01*
X0155892Y0205360D01*
X0155714Y0205536D01*
X0155531Y0205708D01*
X0155345Y0205875D01*
X0155154Y0206037D01*
X0154960Y0206195D01*
X0154762Y0206348D01*
X0154560Y0206496D01*
X0154355Y0206639D01*
X0154146Y0206777D01*
X0153933Y0206910D01*
X0153718Y0207037D01*
X0153500Y0207159D01*
X0153278Y0207276D01*
X0153054Y0207388D01*
X0152827Y0207494D01*
X0152598Y0207594D01*
X0152366Y0207689D01*
X0152132Y0207778D01*
X0151896Y0207861D01*
X0151658Y0207938D01*
X0151817Y0208454D01*
X0152068Y0208373D01*
X0152317Y0208285D01*
X0152563Y0208192D01*
X0152807Y0208092D01*
X0153049Y0207986D01*
X0153287Y0207875D01*
X0153523Y0207757D01*
X0153756Y0207634D01*
X0153987Y0207506D01*
X0154213Y0207371D01*
X0154437Y0207232D01*
X0154657Y0207086D01*
X0154873Y0206936D01*
X0155086Y0206780D01*
X0155294Y0206619D01*
X0155499Y0206453D01*
X0155700Y0206282D01*
X0155896Y0206106D01*
X0156088Y0205926D01*
X0156275Y0205740D01*
X0156458Y0205551D01*
X0156637Y0205356D01*
X0156810Y0205158D01*
X0156979Y0204955D01*
X0157142Y0204748D01*
X0157300Y0204538D01*
X0157454Y0204323D01*
X0157601Y0204105D01*
X0157744Y0203883D01*
X0157881Y0203658D01*
X0158012Y0203430D01*
X0158138Y0203198D01*
X0158258Y0202963D01*
X0158373Y0202726D01*
X0158481Y0202486D01*
X0158584Y0202243D01*
X0158681Y0201998D01*
X0158771Y0201750D01*
X0158856Y0201501D01*
X0158934Y0201249D01*
X0159006Y0200995D01*
X0159072Y0200740D01*
X0159132Y0200484D01*
X0159185Y0200225D01*
X0159233Y0199966D01*
X0159273Y0199706D01*
X0159308Y0199444D01*
X0159336Y0199182D01*
X0159357Y0198920D01*
X0159372Y0198656D01*
X0159381Y0198393D01*
X0159383Y0198129D01*
X0159379Y0197866D01*
X0159368Y0197603D01*
X0159351Y0197339D01*
X0159327Y0197077D01*
X0159297Y0196815D01*
X0159261Y0196554D01*
X0159218Y0196294D01*
X0159169Y0196035D01*
X0159113Y0195777D01*
X0159052Y0195521D01*
X0158984Y0195266D01*
X0158909Y0195014D01*
X0158829Y0194762D01*
X0158743Y0194513D01*
X0158650Y0194267D01*
X0158551Y0194022D01*
X0158447Y0193780D01*
X0158336Y0193541D01*
X0158220Y0193304D01*
X0158098Y0193071D01*
X0157971Y0192840D01*
X0157837Y0192613D01*
X0157698Y0192389D01*
X0157554Y0192168D01*
X0157405Y0191951D01*
X0157250Y0191738D01*
X0157090Y0191528D01*
X0157046Y0191563D01*
X0157205Y0191771D01*
X0157359Y0191984D01*
X0157508Y0192199D01*
X0157651Y0192419D01*
X0157789Y0192642D01*
X0157922Y0192868D01*
X0158049Y0193097D01*
X0158170Y0193330D01*
X0158286Y0193565D01*
X0158396Y0193803D01*
X0158500Y0194044D01*
X0158598Y0194287D01*
X0158690Y0194533D01*
X0158776Y0194780D01*
X0158856Y0195030D01*
X0158930Y0195282D01*
X0158997Y0195535D01*
X0159059Y0195790D01*
X0159114Y0196046D01*
X0159163Y0196304D01*
X0159205Y0196563D01*
X0159242Y0196822D01*
X0159271Y0197083D01*
X0159295Y0197344D01*
X0159312Y0197606D01*
X0159323Y0197868D01*
X0159327Y0198130D01*
X0159325Y0198392D01*
X0159316Y0198654D01*
X0159301Y0198916D01*
X0159280Y0199177D01*
X0159252Y0199438D01*
X0159218Y0199698D01*
X0159177Y0199957D01*
X0159130Y0200215D01*
X0159077Y0200472D01*
X0159018Y0200727D01*
X0158952Y0200981D01*
X0158880Y0201233D01*
X0158802Y0201483D01*
X0158718Y0201732D01*
X0158628Y0201978D01*
X0158532Y0202222D01*
X0158430Y0202463D01*
X0158322Y0202702D01*
X0158208Y0202939D01*
X0158089Y0203172D01*
X0157964Y0203402D01*
X0157833Y0203630D01*
X0157696Y0203854D01*
X0157555Y0204074D01*
X0157408Y0204291D01*
X0157255Y0204505D01*
X0157098Y0204714D01*
X0156935Y0204920D01*
X0156767Y0205121D01*
X0156595Y0205319D01*
X0156418Y0205512D01*
X0156236Y0205701D01*
X0156049Y0205885D01*
X0155858Y0206065D01*
X0155663Y0206240D01*
X0155463Y0206410D01*
X0155260Y0206575D01*
X0155052Y0206735D01*
X0154841Y0206890D01*
X0154625Y0207040D01*
X0154407Y0207184D01*
X0154184Y0207324D01*
X0153959Y0207457D01*
X0153730Y0207585D01*
X0153498Y0207708D01*
X0153263Y0207824D01*
X0153026Y0207935D01*
X0152785Y0208040D01*
X0152543Y0208139D01*
X0152298Y0208233D01*
X0152050Y0208320D01*
X0151801Y0208401D01*
X0151784Y0208347D01*
X0152032Y0208267D01*
X0152278Y0208180D01*
X0152522Y0208087D01*
X0152764Y0207989D01*
X0153003Y0207884D01*
X0153239Y0207774D01*
X0153473Y0207658D01*
X0153703Y0207536D01*
X0153931Y0207409D01*
X0154155Y0207276D01*
X0154376Y0207137D01*
X0154594Y0206994D01*
X0154808Y0206845D01*
X0155018Y0206690D01*
X0155225Y0206531D01*
X0155428Y0206367D01*
X0155626Y0206198D01*
X0155820Y0206024D01*
X0156010Y0205845D01*
X0156196Y0205661D01*
X0156377Y0205474D01*
X0156553Y0205282D01*
X0156725Y0205085D01*
X0156892Y0204885D01*
X0157053Y0204680D01*
X0157210Y0204471D01*
X0157362Y0204259D01*
X0157508Y0204043D01*
X0157649Y0203824D01*
X0157785Y0203601D01*
X0157915Y0203375D01*
X0158039Y0203146D01*
X0158158Y0202914D01*
X0158271Y0202679D01*
X0158379Y0202441D01*
X0158480Y0202201D01*
X0158576Y0201958D01*
X0158666Y0201713D01*
X0158749Y0201466D01*
X0158827Y0201217D01*
X0158898Y0200966D01*
X0158964Y0200714D01*
X0159023Y0200460D01*
X0159075Y0200204D01*
X0159122Y0199947D01*
X0159162Y0199690D01*
X0159196Y0199431D01*
X0159224Y0199172D01*
X0159245Y0198912D01*
X0159260Y0198651D01*
X0159269Y0198391D01*
X0159271Y0198130D01*
X0159267Y0197869D01*
X0159256Y0197609D01*
X0159239Y0197348D01*
X0159216Y0197088D01*
X0159186Y0196829D01*
X0159150Y0196571D01*
X0159108Y0196314D01*
X0159059Y0196057D01*
X0159004Y0195802D01*
X0158943Y0195549D01*
X0158876Y0195297D01*
X0158802Y0195047D01*
X0158723Y0194798D01*
X0158637Y0194552D01*
X0158546Y0194308D01*
X0158448Y0194066D01*
X0158345Y0193826D01*
X0158235Y0193589D01*
X0158120Y0193355D01*
X0158000Y0193124D01*
X0157873Y0192896D01*
X0157742Y0192671D01*
X0157604Y0192449D01*
X0157461Y0192231D01*
X0157313Y0192016D01*
X0157160Y0191805D01*
X0157002Y0191598D01*
X0156958Y0191632D01*
X0157115Y0191839D01*
X0157268Y0192048D01*
X0157415Y0192262D01*
X0157557Y0192479D01*
X0157694Y0192700D01*
X0157825Y0192924D01*
X0157950Y0193151D01*
X0158071Y0193381D01*
X0158185Y0193614D01*
X0158294Y0193849D01*
X0158397Y0194087D01*
X0158494Y0194328D01*
X0158585Y0194571D01*
X0158670Y0194816D01*
X0158749Y0195063D01*
X0158822Y0195312D01*
X0158889Y0195563D01*
X0158950Y0195815D01*
X0159004Y0196069D01*
X0159053Y0196323D01*
X0159095Y0196579D01*
X0159131Y0196836D01*
X0159160Y0197094D01*
X0159183Y0197353D01*
X0159200Y0197612D01*
X0159211Y0197871D01*
X0159215Y0198130D01*
X0159213Y0198390D01*
X0159204Y0198649D01*
X0159189Y0198908D01*
X0159168Y0199167D01*
X0159141Y0199425D01*
X0159107Y0199682D01*
X0159067Y0199938D01*
X0159021Y0200193D01*
X0158968Y0200448D01*
X0158909Y0200700D01*
X0158844Y0200951D01*
X0158773Y0201201D01*
X0158696Y0201449D01*
X0158613Y0201694D01*
X0158524Y0201938D01*
X0158428Y0202179D01*
X0158327Y0202418D01*
X0158221Y0202655D01*
X0158108Y0202889D01*
X0157990Y0203120D01*
X0157866Y0203348D01*
X0157736Y0203572D01*
X0157602Y0203794D01*
X0157461Y0204012D01*
X0157316Y0204227D01*
X0157165Y0204438D01*
X0157009Y0204646D01*
X0156848Y0204849D01*
X0156682Y0205049D01*
X0156512Y0205244D01*
X0156336Y0205435D01*
X0156156Y0205622D01*
X0155972Y0205804D01*
X0155783Y0205982D01*
X0155589Y0206155D01*
X0155392Y0206324D01*
X0155190Y0206487D01*
X0154985Y0206646D01*
X0154776Y0206799D01*
X0154563Y0206947D01*
X0154346Y0207090D01*
X0154126Y0207228D01*
X0153903Y0207360D01*
X0153677Y0207487D01*
X0153447Y0207608D01*
X0153215Y0207723D01*
X0152980Y0207833D01*
X0152742Y0207937D01*
X0152502Y0208035D01*
X0152259Y0208127D01*
X0152015Y0208214D01*
X0151768Y0208294D01*
X0151751Y0208240D01*
X0151997Y0208160D01*
X0152240Y0208075D01*
X0152481Y0207983D01*
X0152720Y0207885D01*
X0152957Y0207782D01*
X0153191Y0207673D01*
X0153422Y0207558D01*
X0153650Y0207437D01*
X0153875Y0207311D01*
X0154097Y0207180D01*
X0154316Y0207043D01*
X0154531Y0206901D01*
X0154743Y0206753D01*
X0154951Y0206601D01*
X0155156Y0206443D01*
X0155356Y0206281D01*
X0155553Y0206113D01*
X0155745Y0205941D01*
X0155933Y0205764D01*
X0156116Y0205583D01*
X0156295Y0205397D01*
X0156470Y0205207D01*
X0156640Y0205012D01*
X0156805Y0204814D01*
X0156965Y0204611D01*
X0157120Y0204405D01*
X0157270Y0204195D01*
X0157415Y0203981D01*
X0157554Y0203764D01*
X0157688Y0203544D01*
X0157817Y0203320D01*
X0157940Y0203093D01*
X0158058Y0202864D01*
X0158170Y0202631D01*
X0158276Y0202396D01*
X0158377Y0202158D01*
X0158471Y0201918D01*
X0158560Y0201676D01*
X0158643Y0201431D01*
X0158719Y0201185D01*
X0158790Y0200937D01*
X0158855Y0200687D01*
X0158913Y0200436D01*
X0158966Y0200183D01*
X0159012Y0199929D01*
X0159052Y0199674D01*
X0159085Y0199418D01*
X0159112Y0199161D01*
X0159134Y0198904D01*
X0159148Y0198647D01*
X0159157Y0198389D01*
X0159159Y0198130D01*
X0159155Y0197872D01*
X0159144Y0197615D01*
X0159127Y0197357D01*
X0159104Y0197100D01*
X0159075Y0196844D01*
X0159039Y0196588D01*
X0158997Y0196333D01*
X0158949Y0196080D01*
X0158895Y0195827D01*
X0158835Y0195577D01*
X0158768Y0195327D01*
X0158695Y0195080D01*
X0158617Y0194834D01*
X0158532Y0194590D01*
X0158441Y0194348D01*
X0158345Y0194109D01*
X0158243Y0193872D01*
X0158134Y0193638D01*
X0158021Y0193406D01*
X0157901Y0193177D01*
X0157776Y0192952D01*
X0157646Y0192729D01*
X0157510Y0192509D01*
X0157369Y0192293D01*
X0157222Y0192081D01*
X0157071Y0191872D01*
X0156914Y0191667D01*
X0156870Y0191702D01*
X0157026Y0191906D01*
X0157177Y0192113D01*
X0157322Y0192325D01*
X0157463Y0192540D01*
X0157598Y0192758D01*
X0157728Y0192979D01*
X0157852Y0193204D01*
X0157971Y0193431D01*
X0158084Y0193662D01*
X0158191Y0193895D01*
X0158293Y0194131D01*
X0158389Y0194369D01*
X0158479Y0194609D01*
X0158564Y0194852D01*
X0158642Y0195096D01*
X0158714Y0195342D01*
X0158780Y0195590D01*
X0158841Y0195840D01*
X0158895Y0196091D01*
X0158942Y0196343D01*
X0158984Y0196596D01*
X0159019Y0196851D01*
X0159049Y0197106D01*
X0159072Y0197361D01*
X0159088Y0197618D01*
X0159099Y0197874D01*
X0159103Y0198131D01*
X0159101Y0198387D01*
X0159092Y0198644D01*
X0159078Y0198900D01*
X0159057Y0199156D01*
X0159030Y0199411D01*
X0158996Y0199666D01*
X0158956Y0199920D01*
X0158911Y0200172D01*
X0158859Y0200424D01*
X0158800Y0200674D01*
X0158736Y0200922D01*
X0158666Y0201169D01*
X0158589Y0201414D01*
X0158507Y0201657D01*
X0158419Y0201898D01*
X0158325Y0202137D01*
X0158225Y0202374D01*
X0158119Y0202608D01*
X0158008Y0202839D01*
X0157891Y0203067D01*
X0157768Y0203293D01*
X0157640Y0203515D01*
X0157507Y0203735D01*
X0157368Y0203951D01*
X0157224Y0204163D01*
X0157075Y0204372D01*
X0156920Y0204577D01*
X0156761Y0204779D01*
X0156597Y0204976D01*
X0156428Y0205169D01*
X0156255Y0205358D01*
X0156077Y0205543D01*
X0155894Y0205724D01*
X0155707Y0205900D01*
X0155516Y0206071D01*
X0155320Y0206237D01*
X0155121Y0206399D01*
X0154918Y0206556D01*
X0154711Y0206708D01*
X0154500Y0206854D01*
X0154286Y0206996D01*
X0154068Y0207132D01*
X0153847Y0207263D01*
X0153623Y0207388D01*
X0153396Y0207508D01*
X0153166Y0207622D01*
X0152934Y0207731D01*
X0152699Y0207834D01*
X0152461Y0207931D01*
X0152221Y0208022D01*
X0151979Y0208107D01*
X0151735Y0208187D01*
X0151718Y0208133D01*
X0151961Y0208054D01*
X0152202Y0207969D01*
X0152441Y0207879D01*
X0152677Y0207782D01*
X0152911Y0207680D01*
X0153142Y0207572D01*
X0153371Y0207458D01*
X0153597Y0207339D01*
X0153819Y0207214D01*
X0154039Y0207084D01*
X0154256Y0206949D01*
X0154469Y0206808D01*
X0154678Y0206662D01*
X0154884Y0206511D01*
X0155086Y0206355D01*
X0155285Y0206194D01*
X0155479Y0206029D01*
X0155669Y0205858D01*
X0155855Y0205683D01*
X0156037Y0205504D01*
X0156214Y0205320D01*
X0156387Y0205132D01*
X0156555Y0204940D01*
X0156718Y0204743D01*
X0156876Y0204543D01*
X0157030Y0204339D01*
X0157178Y0204131D01*
X0157321Y0203920D01*
X0157459Y0203705D01*
X0157592Y0203487D01*
X0157719Y0203265D01*
X0157841Y0203041D01*
X0157958Y0202814D01*
X0158068Y0202584D01*
X0158174Y0202351D01*
X0158273Y0202116D01*
X0158367Y0201878D01*
X0158454Y0201639D01*
X0158536Y0201397D01*
X0158612Y0201153D01*
X0158682Y0200907D01*
X0158746Y0200660D01*
X0158804Y0200412D01*
X0158856Y0200161D01*
X0158901Y0199910D01*
X0158941Y0199658D01*
X0158974Y0199405D01*
X0159001Y0199151D01*
X0159022Y0198896D01*
X0159036Y0198642D01*
X0159045Y0198386D01*
X0159047Y0198131D01*
X0159043Y0197876D01*
X0159032Y0197621D01*
X0159016Y0197366D01*
X0158993Y0197112D01*
X0158964Y0196858D01*
X0158929Y0196605D01*
X0158887Y0196353D01*
X0158840Y0196102D01*
X0158786Y0195853D01*
X0158726Y0195604D01*
X0158660Y0195358D01*
X0158588Y0195113D01*
X0158511Y0194869D01*
X0158427Y0194628D01*
X0158337Y0194389D01*
X0158242Y0194152D01*
X0158140Y0193918D01*
X0158033Y0193686D01*
X0157921Y0193457D01*
X0157803Y0193231D01*
X0157679Y0193007D01*
X0157550Y0192787D01*
X0157415Y0192570D01*
X0157276Y0192356D01*
X0157131Y0192146D01*
X0156981Y0191939D01*
X0156826Y0191736D01*
X0156782Y0191771D01*
X0156936Y0191973D01*
X0157085Y0192178D01*
X0157229Y0192387D01*
X0157368Y0192600D01*
X0157502Y0192816D01*
X0157630Y0193035D01*
X0157753Y0193257D01*
X0157871Y0193482D01*
X0157983Y0193710D01*
X0158089Y0193941D01*
X0158190Y0194174D01*
X0158285Y0194410D01*
X0158374Y0194647D01*
X0158457Y0194887D01*
X0158535Y0195129D01*
X0158606Y0195373D01*
X0158672Y0195618D01*
X0158731Y0195865D01*
X0158785Y0196113D01*
X0158832Y0196363D01*
X0158873Y0196613D01*
X0158908Y0196865D01*
X0158937Y0197117D01*
X0158960Y0197370D01*
X0158977Y0197624D01*
X0158987Y0197877D01*
X0158991Y0198131D01*
X0158989Y0198385D01*
X0158980Y0198639D01*
X0158966Y0198893D01*
X0158945Y0199146D01*
X0158918Y0199398D01*
X0158885Y0199650D01*
X0158846Y0199901D01*
X0158801Y0200151D01*
X0158749Y0200400D01*
X0158692Y0200647D01*
X0158628Y0200893D01*
X0158558Y0201137D01*
X0158483Y0201379D01*
X0158401Y0201620D01*
X0158314Y0201858D01*
X0158221Y0202095D01*
X0158122Y0202329D01*
X0158018Y0202560D01*
X0157907Y0202789D01*
X0157792Y0203015D01*
X0157670Y0203238D01*
X0157544Y0203458D01*
X0157412Y0203675D01*
X0157274Y0203889D01*
X0157132Y0204099D01*
X0156984Y0204306D01*
X0156832Y0204509D01*
X0156674Y0204708D01*
X0156512Y0204903D01*
X0156345Y0205094D01*
X0156173Y0205282D01*
X0155997Y0205464D01*
X0155816Y0205643D01*
X0155631Y0205817D01*
X0155442Y0205986D01*
X0155249Y0206151D01*
X0155052Y0206311D01*
X0154851Y0206466D01*
X0154646Y0206616D01*
X0154437Y0206762D01*
X0154225Y0206901D01*
X0154010Y0207036D01*
X0153792Y0207166D01*
X0153570Y0207290D01*
X0153345Y0207408D01*
X0153118Y0207521D01*
X0152888Y0207629D01*
X0152655Y0207730D01*
X0152420Y0207826D01*
X0152183Y0207917D01*
X0151943Y0208001D01*
X0151702Y0208080D01*
X0151685Y0208026D01*
X0151925Y0207948D01*
X0152164Y0207864D01*
X0152400Y0207774D01*
X0152634Y0207679D01*
X0152865Y0207578D01*
X0153094Y0207471D01*
X0153320Y0207358D01*
X0153543Y0207240D01*
X0153764Y0207117D01*
X0153981Y0206988D01*
X0154195Y0206854D01*
X0154406Y0206715D01*
X0154613Y0206571D01*
X0154817Y0206421D01*
X0155017Y0206267D01*
X0155213Y0206108D01*
X0155405Y0205944D01*
X0155594Y0205776D01*
X0155778Y0205603D01*
X0155957Y0205425D01*
X0156132Y0205243D01*
X0156303Y0205057D01*
X0156469Y0204867D01*
X0156631Y0204673D01*
X0156788Y0204474D01*
X0156939Y0204273D01*
X0157086Y0204067D01*
X0157228Y0203858D01*
X0157364Y0203645D01*
X0157496Y0203430D01*
X0157622Y0203211D01*
X0157742Y0202989D01*
X0157857Y0202764D01*
X0157967Y0202536D01*
X0158071Y0202306D01*
X0158169Y0202074D01*
X0158262Y0201839D01*
X0158349Y0201601D01*
X0158430Y0201362D01*
X0158505Y0201121D01*
X0158574Y0200878D01*
X0158637Y0200634D01*
X0158694Y0200388D01*
X0158746Y0200140D01*
X0158791Y0199892D01*
X0158830Y0199642D01*
X0158863Y0199392D01*
X0158889Y0199141D01*
X0158910Y0198889D01*
X0158925Y0198637D01*
X0158933Y0198384D01*
X0158935Y0198132D01*
X0158931Y0197879D01*
X0158921Y0197627D01*
X0158904Y0197375D01*
X0158882Y0197123D01*
X0158853Y0196872D01*
X0158818Y0196622D01*
X0158777Y0196373D01*
X0158730Y0196125D01*
X0158677Y0195878D01*
X0158618Y0195632D01*
X0158552Y0195388D01*
X0158481Y0195146D01*
X0158404Y0194905D01*
X0158321Y0194666D01*
X0158233Y0194430D01*
X0158138Y0194196D01*
X0158038Y0193964D01*
X0157932Y0193734D01*
X0157821Y0193508D01*
X0157704Y0193284D01*
X0157582Y0193063D01*
X0157454Y0192845D01*
X0157321Y0192630D01*
X0157183Y0192419D01*
X0157040Y0192211D01*
X0156891Y0192006D01*
X0156738Y0191806D01*
X0156694Y0191840D01*
X0156846Y0192040D01*
X0156994Y0192243D01*
X0157137Y0192450D01*
X0157274Y0192660D01*
X0157406Y0192874D01*
X0157533Y0193091D01*
X0157655Y0193310D01*
X0157771Y0193533D01*
X0157882Y0193759D01*
X0157987Y0193987D01*
X0158087Y0194217D01*
X0158181Y0194450D01*
X0158269Y0194686D01*
X0158351Y0194923D01*
X0158428Y0195162D01*
X0158499Y0195403D01*
X0158563Y0195646D01*
X0158622Y0195890D01*
X0158675Y0196136D01*
X0158722Y0196383D01*
X0158763Y0196630D01*
X0158797Y0196879D01*
X0158826Y0197129D01*
X0158848Y0197379D01*
X0158865Y0197630D01*
X0158875Y0197881D01*
X0158879Y0198132D01*
X0158877Y0198383D01*
X0158869Y0198634D01*
X0158854Y0198885D01*
X0158834Y0199135D01*
X0158807Y0199385D01*
X0158774Y0199634D01*
X0158736Y0199882D01*
X0158691Y0200130D01*
X0158640Y0200375D01*
X0158583Y0200620D01*
X0158520Y0200863D01*
X0158451Y0201105D01*
X0158376Y0201345D01*
X0158296Y0201583D01*
X0158209Y0201819D01*
X0158117Y0202052D01*
X0158020Y0202284D01*
X0157916Y0202513D01*
X0157807Y0202739D01*
X0157693Y0202963D01*
X0157573Y0203183D01*
X0157447Y0203401D01*
X0157317Y0203616D01*
X0157181Y0203827D01*
X0157040Y0204035D01*
X0156894Y0204239D01*
X0156743Y0204440D01*
X0156587Y0204637D01*
X0156427Y0204830D01*
X0156262Y0205020D01*
X0156092Y0205205D01*
X0155917Y0205386D01*
X0155739Y0205562D01*
X0155556Y0205734D01*
X0155369Y0205902D01*
X0155177Y0206065D01*
X0154982Y0206223D01*
X0154783Y0206377D01*
X0154581Y0206525D01*
X0154375Y0206669D01*
X0154165Y0206807D01*
X0153952Y0206940D01*
X0153736Y0207068D01*
X0153517Y0207191D01*
X0153295Y0207308D01*
X0153070Y0207420D01*
X0152842Y0207526D01*
X0152612Y0207627D01*
X0152379Y0207722D01*
X0152145Y0207811D01*
X0151908Y0207895D01*
X0151669Y0207973D01*
X0133815Y0180000D02*
X0133299Y0179841D01*
X0133222Y0180079D01*
X0133139Y0180315D01*
X0133050Y0180549D01*
X0132955Y0180781D01*
X0132855Y0181010D01*
X0132749Y0181237D01*
X0132637Y0181461D01*
X0132520Y0181683D01*
X0132398Y0181901D01*
X0132271Y0182116D01*
X0132138Y0182329D01*
X0132000Y0182538D01*
X0131857Y0182743D01*
X0131709Y0182945D01*
X0131556Y0183143D01*
X0131398Y0183337D01*
X0131236Y0183528D01*
X0131069Y0183714D01*
X0130897Y0183897D01*
X0130721Y0184075D01*
X0130541Y0184249D01*
X0130357Y0184418D01*
X0130168Y0184582D01*
X0129976Y0184742D01*
X0129779Y0184898D01*
X0129579Y0185048D01*
X0129375Y0185194D01*
X0129168Y0185334D01*
X0128958Y0185469D01*
X0128744Y0185599D01*
X0128527Y0185724D01*
X0128307Y0185844D01*
X0128084Y0185958D01*
X0127858Y0186067D01*
X0127630Y0186170D01*
X0127400Y0186267D01*
X0127167Y0186359D01*
X0126932Y0186445D01*
X0126695Y0186525D01*
X0126456Y0186600D01*
X0126215Y0186668D01*
X0125973Y0186731D01*
X0125729Y0186788D01*
X0125484Y0186838D01*
X0125237Y0186883D01*
X0124990Y0186922D01*
X0124742Y0186954D01*
X0124493Y0186981D01*
X0124243Y0187001D01*
X0123994Y0187016D01*
X0123743Y0187024D01*
X0123493Y0187026D01*
X0123243Y0187022D01*
X0122993Y0187012D01*
X0122743Y0186995D01*
X0122493Y0186973D01*
X0122245Y0186945D01*
X0121997Y0186910D01*
X0121750Y0186869D01*
X0121504Y0186823D01*
X0121259Y0186770D01*
X0121016Y0186711D01*
X0120774Y0186647D01*
X0120534Y0186576D01*
X0120295Y0186500D01*
X0120059Y0186418D01*
X0119824Y0186330D01*
X0119592Y0186237D01*
X0119363Y0186137D01*
X0119135Y0186032D01*
X0118911Y0185922D01*
X0118689Y0185806D01*
X0118470Y0185685D01*
X0118254Y0185558D01*
X0118041Y0185427D01*
X0117831Y0185290D01*
X0117625Y0185148D01*
X0117423Y0185001D01*
X0117224Y0184849D01*
X0116890Y0185272D01*
X0116889Y0185273D01*
X0117099Y0185433D01*
X0117312Y0185588D01*
X0117529Y0185737D01*
X0117750Y0185881D01*
X0117974Y0186020D01*
X0118201Y0186154D01*
X0118432Y0186281D01*
X0118665Y0186403D01*
X0118902Y0186519D01*
X0119141Y0186630D01*
X0119383Y0186734D01*
X0119628Y0186833D01*
X0119874Y0186926D01*
X0120123Y0187012D01*
X0120375Y0187092D01*
X0120627Y0187167D01*
X0120882Y0187235D01*
X0121138Y0187296D01*
X0121396Y0187352D01*
X0121655Y0187401D01*
X0121915Y0187444D01*
X0122176Y0187480D01*
X0122438Y0187510D01*
X0122700Y0187534D01*
X0122964Y0187551D01*
X0123227Y0187562D01*
X0123490Y0187566D01*
X0123754Y0187564D01*
X0124017Y0187555D01*
X0124281Y0187540D01*
X0124543Y0187519D01*
X0124805Y0187491D01*
X0125067Y0187456D01*
X0125327Y0187416D01*
X0125586Y0187368D01*
X0125845Y0187315D01*
X0126101Y0187255D01*
X0126356Y0187189D01*
X0126610Y0187117D01*
X0126862Y0187039D01*
X0127111Y0186954D01*
X0127359Y0186864D01*
X0127604Y0186767D01*
X0127847Y0186664D01*
X0128087Y0186556D01*
X0128324Y0186441D01*
X0128559Y0186321D01*
X0128791Y0186195D01*
X0129019Y0186064D01*
X0129244Y0185927D01*
X0129466Y0185784D01*
X0129684Y0185637D01*
X0129899Y0185483D01*
X0130109Y0185325D01*
X0130316Y0185162D01*
X0130519Y0184993D01*
X0130717Y0184820D01*
X0130912Y0184641D01*
X0131101Y0184458D01*
X0131287Y0184271D01*
X0131467Y0184079D01*
X0131643Y0183883D01*
X0131814Y0183682D01*
X0131980Y0183477D01*
X0132141Y0183269D01*
X0132297Y0183056D01*
X0132447Y0182840D01*
X0132593Y0182620D01*
X0132732Y0182396D01*
X0132867Y0182170D01*
X0132995Y0181939D01*
X0133118Y0181706D01*
X0133236Y0181470D01*
X0133347Y0181232D01*
X0133453Y0180990D01*
X0133553Y0180746D01*
X0133646Y0180500D01*
X0133734Y0180251D01*
X0133815Y0180000D01*
X0133762Y0179984D01*
X0133681Y0180233D01*
X0133594Y0180481D01*
X0133500Y0180726D01*
X0133401Y0180968D01*
X0133296Y0181209D01*
X0133185Y0181446D01*
X0133069Y0181681D01*
X0132946Y0181913D01*
X0132818Y0182142D01*
X0132685Y0182367D01*
X0132545Y0182590D01*
X0132401Y0182808D01*
X0132251Y0183024D01*
X0132096Y0183235D01*
X0131936Y0183443D01*
X0131771Y0183646D01*
X0131601Y0183846D01*
X0131426Y0184041D01*
X0131246Y0184232D01*
X0131062Y0184419D01*
X0130873Y0184601D01*
X0130680Y0184778D01*
X0130482Y0184950D01*
X0130281Y0185118D01*
X0130075Y0185281D01*
X0129866Y0185438D01*
X0129652Y0185591D01*
X0129435Y0185738D01*
X0129215Y0185879D01*
X0128991Y0186016D01*
X0128763Y0186147D01*
X0128533Y0186272D01*
X0128300Y0186391D01*
X0128063Y0186505D01*
X0127824Y0186613D01*
X0127583Y0186715D01*
X0127339Y0186811D01*
X0127093Y0186901D01*
X0126844Y0186985D01*
X0126594Y0187063D01*
X0126342Y0187135D01*
X0126088Y0187201D01*
X0125833Y0187260D01*
X0125576Y0187313D01*
X0125318Y0187360D01*
X0125059Y0187401D01*
X0124799Y0187435D01*
X0124538Y0187463D01*
X0124277Y0187484D01*
X0124015Y0187499D01*
X0123753Y0187508D01*
X0123491Y0187510D01*
X0123229Y0187506D01*
X0122967Y0187495D01*
X0122705Y0187478D01*
X0122444Y0187454D01*
X0122183Y0187425D01*
X0121924Y0187388D01*
X0121665Y0187346D01*
X0121407Y0187297D01*
X0121151Y0187242D01*
X0120896Y0187180D01*
X0120643Y0187113D01*
X0120391Y0187039D01*
X0120141Y0186959D01*
X0119894Y0186873D01*
X0119648Y0186781D01*
X0119405Y0186683D01*
X0119164Y0186579D01*
X0118926Y0186469D01*
X0118691Y0186353D01*
X0118458Y0186232D01*
X0118229Y0186105D01*
X0118003Y0185972D01*
X0117780Y0185834D01*
X0117560Y0185691D01*
X0117345Y0185542D01*
X0117132Y0185388D01*
X0116924Y0185229D01*
X0116959Y0185185D01*
X0117166Y0185343D01*
X0117377Y0185496D01*
X0117592Y0185644D01*
X0117810Y0185787D01*
X0118032Y0185925D01*
X0118257Y0186056D01*
X0118485Y0186183D01*
X0118716Y0186303D01*
X0118950Y0186418D01*
X0119187Y0186528D01*
X0119427Y0186631D01*
X0119669Y0186729D01*
X0119913Y0186820D01*
X0120159Y0186906D01*
X0120408Y0186985D01*
X0120658Y0187059D01*
X0120910Y0187126D01*
X0121163Y0187187D01*
X0121418Y0187242D01*
X0121675Y0187291D01*
X0121932Y0187333D01*
X0122190Y0187369D01*
X0122449Y0187399D01*
X0122709Y0187422D01*
X0122970Y0187439D01*
X0123230Y0187450D01*
X0123491Y0187454D01*
X0123752Y0187452D01*
X0124012Y0187443D01*
X0124273Y0187428D01*
X0124533Y0187407D01*
X0124792Y0187379D01*
X0125051Y0187345D01*
X0125308Y0187305D01*
X0125565Y0187258D01*
X0125821Y0187206D01*
X0126075Y0187147D01*
X0126327Y0187081D01*
X0126578Y0187010D01*
X0126827Y0186932D01*
X0127074Y0186849D01*
X0127319Y0186759D01*
X0127562Y0186663D01*
X0127802Y0186562D01*
X0128040Y0186454D01*
X0128275Y0186341D01*
X0128507Y0186222D01*
X0128736Y0186098D01*
X0128962Y0185968D01*
X0129185Y0185832D01*
X0129404Y0185691D01*
X0129620Y0185545D01*
X0129832Y0185393D01*
X0130041Y0185236D01*
X0130246Y0185075D01*
X0130446Y0184908D01*
X0130643Y0184736D01*
X0130835Y0184560D01*
X0131022Y0184379D01*
X0131206Y0184193D01*
X0131385Y0184003D01*
X0131559Y0183809D01*
X0131728Y0183611D01*
X0131892Y0183408D01*
X0132051Y0183201D01*
X0132206Y0182991D01*
X0132355Y0182777D01*
X0132498Y0182559D01*
X0132637Y0182338D01*
X0132770Y0182114D01*
X0132897Y0181886D01*
X0133019Y0181656D01*
X0133135Y0181422D01*
X0133245Y0181186D01*
X0133350Y0180947D01*
X0133448Y0180705D01*
X0133541Y0180461D01*
X0133628Y0180215D01*
X0133708Y0179967D01*
X0133655Y0179951D01*
X0133575Y0180198D01*
X0133488Y0180442D01*
X0133396Y0180685D01*
X0133298Y0180925D01*
X0133194Y0181163D01*
X0133084Y0181398D01*
X0132969Y0181630D01*
X0132848Y0181860D01*
X0132721Y0182086D01*
X0132589Y0182309D01*
X0132451Y0182529D01*
X0132308Y0182746D01*
X0132160Y0182959D01*
X0132007Y0183168D01*
X0131848Y0183373D01*
X0131685Y0183575D01*
X0131516Y0183772D01*
X0131343Y0183966D01*
X0131165Y0184155D01*
X0130983Y0184339D01*
X0130796Y0184519D01*
X0130605Y0184695D01*
X0130410Y0184865D01*
X0130210Y0185031D01*
X0130007Y0185192D01*
X0129799Y0185348D01*
X0129588Y0185499D01*
X0129373Y0185644D01*
X0129155Y0185785D01*
X0128933Y0185919D01*
X0128709Y0186049D01*
X0128481Y0186173D01*
X0128250Y0186291D01*
X0128016Y0186404D01*
X0127779Y0186510D01*
X0127540Y0186611D01*
X0127299Y0186707D01*
X0127055Y0186796D01*
X0126810Y0186879D01*
X0126562Y0186956D01*
X0126312Y0187027D01*
X0126061Y0187092D01*
X0125809Y0187151D01*
X0125554Y0187204D01*
X0125299Y0187250D01*
X0125043Y0187290D01*
X0124786Y0187324D01*
X0124528Y0187351D01*
X0124269Y0187372D01*
X0124010Y0187387D01*
X0123751Y0187396D01*
X0123491Y0187398D01*
X0123232Y0187394D01*
X0122973Y0187383D01*
X0122714Y0187366D01*
X0122455Y0187343D01*
X0122197Y0187314D01*
X0121940Y0187278D01*
X0121684Y0187236D01*
X0121430Y0187187D01*
X0121176Y0187133D01*
X0120924Y0187072D01*
X0120673Y0187005D01*
X0120424Y0186932D01*
X0120177Y0186853D01*
X0119932Y0186768D01*
X0119689Y0186677D01*
X0119448Y0186580D01*
X0119210Y0186477D01*
X0118975Y0186368D01*
X0118742Y0186254D01*
X0118512Y0186133D01*
X0118285Y0186008D01*
X0118061Y0185877D01*
X0117840Y0185740D01*
X0117623Y0185598D01*
X0117409Y0185451D01*
X0117200Y0185298D01*
X0116993Y0185141D01*
X0117028Y0185097D01*
X0117233Y0185254D01*
X0117442Y0185405D01*
X0117654Y0185552D01*
X0117870Y0185693D01*
X0118090Y0185829D01*
X0118313Y0185959D01*
X0118538Y0186084D01*
X0118767Y0186204D01*
X0118999Y0186317D01*
X0119233Y0186426D01*
X0119470Y0186528D01*
X0119709Y0186624D01*
X0119951Y0186715D01*
X0120195Y0186800D01*
X0120441Y0186878D01*
X0120688Y0186951D01*
X0120938Y0187018D01*
X0121188Y0187078D01*
X0121441Y0187132D01*
X0121694Y0187180D01*
X0121949Y0187222D01*
X0122205Y0187258D01*
X0122461Y0187287D01*
X0122718Y0187310D01*
X0122976Y0187327D01*
X0123233Y0187338D01*
X0123491Y0187342D01*
X0123750Y0187340D01*
X0124008Y0187331D01*
X0124265Y0187317D01*
X0124522Y0187295D01*
X0124779Y0187268D01*
X0125035Y0187235D01*
X0125290Y0187195D01*
X0125544Y0187149D01*
X0125797Y0187096D01*
X0126048Y0187038D01*
X0126298Y0186973D01*
X0126546Y0186902D01*
X0126792Y0186826D01*
X0127037Y0186743D01*
X0127279Y0186654D01*
X0127519Y0186560D01*
X0127757Y0186459D01*
X0127992Y0186353D01*
X0128225Y0186241D01*
X0128454Y0186123D01*
X0128681Y0186000D01*
X0128905Y0185871D01*
X0129125Y0185737D01*
X0129342Y0185598D01*
X0129556Y0185453D01*
X0129766Y0185303D01*
X0129972Y0185148D01*
X0130175Y0184988D01*
X0130373Y0184823D01*
X0130568Y0184653D01*
X0130758Y0184478D01*
X0130944Y0184299D01*
X0131125Y0184116D01*
X0131302Y0183928D01*
X0131474Y0183736D01*
X0131642Y0183539D01*
X0131804Y0183339D01*
X0131962Y0183134D01*
X0132114Y0182926D01*
X0132262Y0182714D01*
X0132404Y0182499D01*
X0132541Y0182280D01*
X0132672Y0182058D01*
X0132798Y0181833D01*
X0132919Y0181605D01*
X0133034Y0181374D01*
X0133143Y0181140D01*
X0133246Y0180903D01*
X0133344Y0180664D01*
X0133436Y0180423D01*
X0133521Y0180180D01*
X0133601Y0179934D01*
X0133548Y0179918D01*
X0133468Y0180162D01*
X0133383Y0180404D01*
X0133292Y0180644D01*
X0133195Y0180882D01*
X0133092Y0181117D01*
X0132983Y0181349D01*
X0132869Y0181579D01*
X0132749Y0181806D01*
X0132624Y0182030D01*
X0132493Y0182251D01*
X0132357Y0182469D01*
X0132215Y0182683D01*
X0132069Y0182894D01*
X0131917Y0183101D01*
X0131760Y0183304D01*
X0131598Y0183503D01*
X0131432Y0183699D01*
X0131261Y0183890D01*
X0131085Y0184077D01*
X0130904Y0184260D01*
X0130719Y0184438D01*
X0130530Y0184611D01*
X0130337Y0184780D01*
X0130140Y0184944D01*
X0129938Y0185103D01*
X0129733Y0185258D01*
X0129524Y0185407D01*
X0129312Y0185551D01*
X0129096Y0185690D01*
X0128876Y0185823D01*
X0128654Y0185951D01*
X0128428Y0186074D01*
X0128200Y0186191D01*
X0127969Y0186302D01*
X0127735Y0186408D01*
X0127498Y0186508D01*
X0127259Y0186602D01*
X0127018Y0186690D01*
X0126775Y0186772D01*
X0126530Y0186849D01*
X0126283Y0186919D01*
X0126035Y0186983D01*
X0125785Y0187042D01*
X0125533Y0187094D01*
X0125281Y0187139D01*
X0125027Y0187179D01*
X0124772Y0187213D01*
X0124517Y0187240D01*
X0124261Y0187261D01*
X0124005Y0187275D01*
X0123748Y0187284D01*
X0123492Y0187286D01*
X0123235Y0187282D01*
X0122979Y0187271D01*
X0122722Y0187255D01*
X0122467Y0187232D01*
X0122212Y0187202D01*
X0121957Y0187167D01*
X0121704Y0187125D01*
X0121452Y0187078D01*
X0121201Y0187024D01*
X0120951Y0186963D01*
X0120703Y0186897D01*
X0120457Y0186825D01*
X0120213Y0186747D01*
X0119970Y0186662D01*
X0119730Y0186572D01*
X0119492Y0186476D01*
X0119256Y0186374D01*
X0119023Y0186267D01*
X0118792Y0186154D01*
X0118565Y0186035D01*
X0118340Y0185911D01*
X0118119Y0185781D01*
X0117901Y0185646D01*
X0117686Y0185505D01*
X0117474Y0185360D01*
X0117267Y0185209D01*
X0117063Y0185053D01*
X0117097Y0185009D01*
X0117300Y0185164D01*
X0117507Y0185314D01*
X0117717Y0185459D01*
X0117931Y0185598D01*
X0118148Y0185733D01*
X0118368Y0185862D01*
X0118592Y0185986D01*
X0118818Y0186104D01*
X0119047Y0186216D01*
X0119279Y0186323D01*
X0119513Y0186425D01*
X0119750Y0186520D01*
X0119989Y0186610D01*
X0120230Y0186694D01*
X0120474Y0186771D01*
X0120719Y0186843D01*
X0120965Y0186909D01*
X0121214Y0186969D01*
X0121463Y0187023D01*
X0121714Y0187070D01*
X0121966Y0187112D01*
X0122219Y0187147D01*
X0122473Y0187176D01*
X0122727Y0187199D01*
X0122982Y0187215D01*
X0123237Y0187226D01*
X0123492Y0187230D01*
X0123747Y0187228D01*
X0124003Y0187219D01*
X0124257Y0187205D01*
X0124512Y0187184D01*
X0124766Y0187157D01*
X0125019Y0187124D01*
X0125271Y0187084D01*
X0125522Y0187039D01*
X0125773Y0186987D01*
X0126021Y0186929D01*
X0126268Y0186865D01*
X0126514Y0186795D01*
X0126758Y0186719D01*
X0127000Y0186637D01*
X0127239Y0186550D01*
X0127477Y0186456D01*
X0127712Y0186357D01*
X0127945Y0186251D01*
X0128175Y0186141D01*
X0128402Y0186024D01*
X0128626Y0185902D01*
X0128848Y0185775D01*
X0129066Y0185642D01*
X0129281Y0185504D01*
X0129492Y0185361D01*
X0129700Y0185213D01*
X0129904Y0185059D01*
X0130104Y0184901D01*
X0130301Y0184738D01*
X0130493Y0184570D01*
X0130681Y0184397D01*
X0130865Y0184220D01*
X0131044Y0184038D01*
X0131219Y0183852D01*
X0131390Y0183662D01*
X0131555Y0183468D01*
X0131716Y0183269D01*
X0131872Y0183067D01*
X0132023Y0182861D01*
X0132169Y0182652D01*
X0132310Y0182439D01*
X0132445Y0182222D01*
X0132575Y0182002D01*
X0132700Y0181780D01*
X0132819Y0181554D01*
X0132933Y0181325D01*
X0133041Y0181094D01*
X0133143Y0180860D01*
X0133240Y0180624D01*
X0133330Y0180385D01*
X0133415Y0180144D01*
X0133494Y0179901D01*
X0133441Y0179885D01*
X0133362Y0180126D01*
X0133278Y0180366D01*
X0133187Y0180603D01*
X0133091Y0180838D01*
X0132990Y0181071D01*
X0132882Y0181301D01*
X0132769Y0181528D01*
X0132651Y0181753D01*
X0132527Y0181975D01*
X0132397Y0182193D01*
X0132262Y0182408D01*
X0132123Y0182620D01*
X0131977Y0182829D01*
X0131827Y0183034D01*
X0131672Y0183235D01*
X0131512Y0183432D01*
X0131347Y0183625D01*
X0131178Y0183814D01*
X0131004Y0183999D01*
X0130825Y0184180D01*
X0130643Y0184356D01*
X0130455Y0184528D01*
X0130264Y0184695D01*
X0130069Y0184857D01*
X0129870Y0185015D01*
X0129667Y0185167D01*
X0129460Y0185315D01*
X0129250Y0185457D01*
X0129036Y0185595D01*
X0128819Y0185727D01*
X0128599Y0185853D01*
X0128376Y0185975D01*
X0128150Y0186090D01*
X0127921Y0186201D01*
X0127690Y0186305D01*
X0127456Y0186404D01*
X0127219Y0186497D01*
X0126981Y0186584D01*
X0126740Y0186666D01*
X0126498Y0186741D01*
X0126254Y0186811D01*
X0126008Y0186875D01*
X0125761Y0186932D01*
X0125512Y0186984D01*
X0125262Y0187029D01*
X0125011Y0187068D01*
X0124759Y0187101D01*
X0124507Y0187128D01*
X0124254Y0187149D01*
X0124000Y0187163D01*
X0123746Y0187172D01*
X0123492Y0187174D01*
X0123238Y0187170D01*
X0122985Y0187160D01*
X0122731Y0187143D01*
X0122478Y0187120D01*
X0122226Y0187091D01*
X0121974Y0187056D01*
X0121724Y0187015D01*
X0121474Y0186968D01*
X0121226Y0186914D01*
X0120979Y0186855D01*
X0120734Y0186789D01*
X0120490Y0186718D01*
X0120248Y0186640D01*
X0120008Y0186557D01*
X0119771Y0186468D01*
X0119535Y0186373D01*
X0119302Y0186272D01*
X0119071Y0186166D01*
X0118843Y0186054D01*
X0118618Y0185936D01*
X0118396Y0185813D01*
X0118177Y0185685D01*
X0117961Y0185551D01*
X0117748Y0185412D01*
X0117539Y0185268D01*
X0117334Y0185119D01*
X0117132Y0184965D01*
X0117167Y0184921D01*
X0117367Y0185074D01*
X0117572Y0185223D01*
X0117780Y0185366D01*
X0117991Y0185504D01*
X0118206Y0185637D01*
X0118424Y0185765D01*
X0118645Y0185887D01*
X0118869Y0186004D01*
X0119095Y0186115D01*
X0119325Y0186221D01*
X0119557Y0186321D01*
X0119791Y0186416D01*
X0120027Y0186504D01*
X0120266Y0186587D01*
X0120507Y0186664D01*
X0120749Y0186735D01*
X0120993Y0186801D01*
X0121239Y0186860D01*
X0121486Y0186913D01*
X0121734Y0186960D01*
X0121983Y0187001D01*
X0122233Y0187036D01*
X0122484Y0187065D01*
X0122736Y0187087D01*
X0122988Y0187104D01*
X0123240Y0187114D01*
X0123493Y0187118D01*
X0123745Y0187116D01*
X0123998Y0187108D01*
X0124250Y0187093D01*
X0124502Y0187072D01*
X0124753Y0187046D01*
X0125003Y0187013D01*
X0125253Y0186974D01*
X0125501Y0186929D01*
X0125749Y0186877D01*
X0125995Y0186820D01*
X0126239Y0186757D01*
X0126482Y0186688D01*
X0126723Y0186613D01*
X0126962Y0186532D01*
X0127200Y0186445D01*
X0127435Y0186352D01*
X0127667Y0186254D01*
X0127897Y0186150D01*
X0128125Y0186040D01*
X0128350Y0185925D01*
X0128572Y0185805D01*
X0128791Y0185679D01*
X0129006Y0185547D01*
X0129219Y0185411D01*
X0129428Y0185269D01*
X0129634Y0185122D01*
X0129835Y0184971D01*
X0130034Y0184814D01*
X0130228Y0184652D01*
X0130418Y0184486D01*
X0130604Y0184315D01*
X0130786Y0184140D01*
X0130964Y0183961D01*
X0131137Y0183777D01*
X0131305Y0183588D01*
X0131469Y0183396D01*
X0131628Y0183200D01*
X0131782Y0183000D01*
X0131932Y0182796D01*
X0132076Y0182589D01*
X0132215Y0182378D01*
X0132349Y0182164D01*
X0132478Y0181947D01*
X0132601Y0181726D01*
X0132719Y0181503D01*
X0132832Y0181277D01*
X0132939Y0181048D01*
X0133040Y0180817D01*
X0133135Y0180583D01*
X0133225Y0180347D01*
X0133309Y0180108D01*
X0133387Y0179868D01*
X0133334Y0179852D01*
X0133256Y0180091D01*
X0133172Y0180328D01*
X0133083Y0180562D01*
X0132988Y0180795D01*
X0132887Y0181025D01*
X0132781Y0181253D01*
X0132669Y0181478D01*
X0132552Y0181700D01*
X0132429Y0181919D01*
X0132301Y0182135D01*
X0132168Y0182348D01*
X0132030Y0182558D01*
X0131886Y0182764D01*
X0131738Y0182966D01*
X0131584Y0183165D01*
X0131426Y0183360D01*
X0131263Y0183552D01*
X0131095Y0183739D01*
X0130923Y0183922D01*
X0130747Y0184100D01*
X0130566Y0184275D01*
X0130381Y0184445D01*
X0130191Y0184610D01*
X0129998Y0184770D01*
X0129801Y0184926D01*
X0129600Y0185077D01*
X0129396Y0185223D01*
X0129188Y0185364D01*
X0128977Y0185500D01*
X0128762Y0185630D01*
X0128544Y0185756D01*
X0128324Y0185876D01*
X0128100Y0185990D01*
X0127874Y0186099D01*
X0127645Y0186203D01*
X0127413Y0186300D01*
X0127180Y0186392D01*
X0126944Y0186479D01*
X0126706Y0186559D01*
X0126466Y0186634D01*
X0126224Y0186703D01*
X0125981Y0186766D01*
X0125736Y0186823D01*
X0125491Y0186874D01*
X0125243Y0186919D01*
X0124995Y0186957D01*
X0124746Y0186990D01*
X0124496Y0187017D01*
X0124246Y0187037D01*
X0123995Y0187052D01*
X0123744Y0187060D01*
X0123493Y0187062D01*
X0123242Y0187058D01*
X0122991Y0187048D01*
X0122740Y0187031D01*
X0122490Y0187009D01*
X0122240Y0186980D01*
X0121991Y0186946D01*
X0121744Y0186905D01*
X0121497Y0186858D01*
X0121251Y0186805D01*
X0121007Y0186746D01*
X0120764Y0186682D01*
X0120523Y0186611D01*
X0120284Y0186534D01*
X0120047Y0186452D01*
X0119811Y0186364D01*
X0119578Y0186270D01*
X0119348Y0186170D01*
X0119120Y0186065D01*
X0118894Y0185954D01*
X0118671Y0185838D01*
X0118452Y0185716D01*
X0118235Y0185589D01*
X0118021Y0185457D01*
X0117811Y0185320D01*
X0117604Y0185177D01*
X0117401Y0185029D01*
X0117201Y0184877D01*
X0116890Y0168316D02*
X0117224Y0168740D01*
X0117224Y0168739D02*
X0117423Y0168587D01*
X0117625Y0168440D01*
X0117831Y0168298D01*
X0118041Y0168161D01*
X0118254Y0168030D01*
X0118470Y0167903D01*
X0118689Y0167782D01*
X0118911Y0167666D01*
X0119135Y0167556D01*
X0119363Y0167451D01*
X0119592Y0167351D01*
X0119824Y0167258D01*
X0120059Y0167170D01*
X0120295Y0167088D01*
X0120534Y0167012D01*
X0120774Y0166941D01*
X0121016Y0166877D01*
X0121259Y0166818D01*
X0121504Y0166765D01*
X0121750Y0166719D01*
X0121997Y0166678D01*
X0122245Y0166643D01*
X0122493Y0166615D01*
X0122743Y0166593D01*
X0122993Y0166576D01*
X0123243Y0166566D01*
X0123493Y0166562D01*
X0123743Y0166564D01*
X0123994Y0166572D01*
X0124243Y0166587D01*
X0124493Y0166607D01*
X0124742Y0166634D01*
X0124990Y0166666D01*
X0125237Y0166705D01*
X0125484Y0166750D01*
X0125729Y0166800D01*
X0125973Y0166857D01*
X0126215Y0166920D01*
X0126456Y0166988D01*
X0126695Y0167063D01*
X0126932Y0167143D01*
X0127167Y0167229D01*
X0127400Y0167321D01*
X0127630Y0167418D01*
X0127858Y0167521D01*
X0128084Y0167630D01*
X0128307Y0167744D01*
X0128527Y0167864D01*
X0128744Y0167989D01*
X0128958Y0168119D01*
X0129168Y0168254D01*
X0129375Y0168394D01*
X0129579Y0168540D01*
X0129779Y0168690D01*
X0129976Y0168846D01*
X0130168Y0169006D01*
X0130357Y0169170D01*
X0130541Y0169339D01*
X0130721Y0169513D01*
X0130897Y0169691D01*
X0131069Y0169874D01*
X0131236Y0170060D01*
X0131398Y0170251D01*
X0131556Y0170445D01*
X0131709Y0170643D01*
X0131857Y0170845D01*
X0132000Y0171050D01*
X0132138Y0171259D01*
X0132271Y0171472D01*
X0132398Y0171687D01*
X0132520Y0171905D01*
X0132637Y0172127D01*
X0132749Y0172351D01*
X0132855Y0172578D01*
X0132955Y0172807D01*
X0133050Y0173039D01*
X0133139Y0173273D01*
X0133222Y0173509D01*
X0133299Y0173747D01*
X0133815Y0173588D01*
X0133734Y0173337D01*
X0133646Y0173088D01*
X0133553Y0172842D01*
X0133453Y0172598D01*
X0133347Y0172356D01*
X0133236Y0172118D01*
X0133118Y0171882D01*
X0132995Y0171649D01*
X0132867Y0171418D01*
X0132732Y0171192D01*
X0132593Y0170968D01*
X0132447Y0170748D01*
X0132297Y0170532D01*
X0132141Y0170319D01*
X0131980Y0170111D01*
X0131814Y0169906D01*
X0131643Y0169705D01*
X0131467Y0169509D01*
X0131287Y0169317D01*
X0131101Y0169130D01*
X0130912Y0168947D01*
X0130717Y0168768D01*
X0130519Y0168595D01*
X0130316Y0168426D01*
X0130109Y0168263D01*
X0129899Y0168105D01*
X0129684Y0167951D01*
X0129466Y0167804D01*
X0129244Y0167661D01*
X0129019Y0167524D01*
X0128791Y0167393D01*
X0128559Y0167267D01*
X0128324Y0167147D01*
X0128087Y0167032D01*
X0127847Y0166924D01*
X0127604Y0166821D01*
X0127359Y0166724D01*
X0127111Y0166634D01*
X0126862Y0166549D01*
X0126610Y0166471D01*
X0126356Y0166399D01*
X0126101Y0166333D01*
X0125845Y0166273D01*
X0125586Y0166220D01*
X0125327Y0166172D01*
X0125067Y0166132D01*
X0124805Y0166097D01*
X0124543Y0166069D01*
X0124281Y0166048D01*
X0124017Y0166033D01*
X0123754Y0166024D01*
X0123490Y0166022D01*
X0123227Y0166026D01*
X0122964Y0166037D01*
X0122700Y0166054D01*
X0122438Y0166078D01*
X0122176Y0166108D01*
X0121915Y0166144D01*
X0121655Y0166187D01*
X0121396Y0166236D01*
X0121138Y0166292D01*
X0120882Y0166353D01*
X0120627Y0166421D01*
X0120375Y0166496D01*
X0120123Y0166576D01*
X0119874Y0166662D01*
X0119628Y0166755D01*
X0119383Y0166854D01*
X0119141Y0166958D01*
X0118902Y0167069D01*
X0118665Y0167185D01*
X0118432Y0167307D01*
X0118201Y0167434D01*
X0117974Y0167568D01*
X0117750Y0167707D01*
X0117529Y0167851D01*
X0117312Y0168000D01*
X0117099Y0168155D01*
X0116889Y0168315D01*
X0116924Y0168359D01*
X0117132Y0168200D01*
X0117345Y0168046D01*
X0117560Y0167897D01*
X0117780Y0167754D01*
X0118003Y0167616D01*
X0118229Y0167483D01*
X0118458Y0167356D01*
X0118691Y0167235D01*
X0118926Y0167119D01*
X0119164Y0167009D01*
X0119405Y0166905D01*
X0119648Y0166807D01*
X0119894Y0166715D01*
X0120141Y0166629D01*
X0120391Y0166549D01*
X0120643Y0166475D01*
X0120896Y0166408D01*
X0121151Y0166346D01*
X0121407Y0166291D01*
X0121665Y0166242D01*
X0121924Y0166200D01*
X0122183Y0166163D01*
X0122444Y0166134D01*
X0122705Y0166110D01*
X0122967Y0166093D01*
X0123229Y0166082D01*
X0123491Y0166078D01*
X0123753Y0166080D01*
X0124015Y0166089D01*
X0124277Y0166104D01*
X0124538Y0166125D01*
X0124799Y0166153D01*
X0125059Y0166187D01*
X0125318Y0166228D01*
X0125576Y0166275D01*
X0125833Y0166328D01*
X0126088Y0166387D01*
X0126342Y0166453D01*
X0126594Y0166525D01*
X0126844Y0166603D01*
X0127093Y0166687D01*
X0127339Y0166777D01*
X0127583Y0166873D01*
X0127824Y0166975D01*
X0128063Y0167083D01*
X0128300Y0167197D01*
X0128533Y0167316D01*
X0128763Y0167441D01*
X0128991Y0167572D01*
X0129215Y0167709D01*
X0129435Y0167850D01*
X0129652Y0167997D01*
X0129866Y0168150D01*
X0130075Y0168307D01*
X0130281Y0168470D01*
X0130482Y0168638D01*
X0130680Y0168810D01*
X0130873Y0168987D01*
X0131062Y0169169D01*
X0131246Y0169356D01*
X0131426Y0169547D01*
X0131601Y0169742D01*
X0131771Y0169942D01*
X0131936Y0170145D01*
X0132096Y0170353D01*
X0132251Y0170564D01*
X0132401Y0170780D01*
X0132545Y0170998D01*
X0132685Y0171221D01*
X0132818Y0171446D01*
X0132946Y0171675D01*
X0133069Y0171907D01*
X0133185Y0172142D01*
X0133296Y0172379D01*
X0133401Y0172620D01*
X0133500Y0172862D01*
X0133594Y0173107D01*
X0133681Y0173355D01*
X0133762Y0173604D01*
X0133708Y0173621D01*
X0133628Y0173373D01*
X0133541Y0173127D01*
X0133448Y0172883D01*
X0133350Y0172641D01*
X0133245Y0172402D01*
X0133135Y0172166D01*
X0133019Y0171932D01*
X0132897Y0171702D01*
X0132770Y0171474D01*
X0132637Y0171250D01*
X0132498Y0171029D01*
X0132355Y0170811D01*
X0132206Y0170597D01*
X0132051Y0170387D01*
X0131892Y0170180D01*
X0131728Y0169977D01*
X0131559Y0169779D01*
X0131385Y0169585D01*
X0131206Y0169395D01*
X0131022Y0169209D01*
X0130835Y0169028D01*
X0130643Y0168852D01*
X0130446Y0168680D01*
X0130246Y0168513D01*
X0130041Y0168352D01*
X0129832Y0168195D01*
X0129620Y0168043D01*
X0129404Y0167897D01*
X0129185Y0167756D01*
X0128962Y0167620D01*
X0128736Y0167490D01*
X0128507Y0167366D01*
X0128275Y0167247D01*
X0128040Y0167134D01*
X0127802Y0167026D01*
X0127562Y0166925D01*
X0127319Y0166829D01*
X0127074Y0166739D01*
X0126827Y0166656D01*
X0126578Y0166578D01*
X0126327Y0166507D01*
X0126075Y0166441D01*
X0125821Y0166382D01*
X0125565Y0166330D01*
X0125308Y0166283D01*
X0125051Y0166243D01*
X0124792Y0166209D01*
X0124533Y0166181D01*
X0124273Y0166160D01*
X0124012Y0166145D01*
X0123752Y0166136D01*
X0123491Y0166134D01*
X0123230Y0166138D01*
X0122970Y0166149D01*
X0122709Y0166166D01*
X0122449Y0166189D01*
X0122190Y0166219D01*
X0121932Y0166255D01*
X0121675Y0166297D01*
X0121418Y0166346D01*
X0121163Y0166401D01*
X0120910Y0166462D01*
X0120658Y0166529D01*
X0120408Y0166603D01*
X0120159Y0166682D01*
X0119913Y0166768D01*
X0119669Y0166859D01*
X0119427Y0166957D01*
X0119187Y0167060D01*
X0118950Y0167170D01*
X0118716Y0167285D01*
X0118485Y0167405D01*
X0118257Y0167532D01*
X0118032Y0167663D01*
X0117810Y0167801D01*
X0117592Y0167944D01*
X0117377Y0168092D01*
X0117166Y0168245D01*
X0116959Y0168403D01*
X0116993Y0168447D01*
X0117200Y0168290D01*
X0117409Y0168137D01*
X0117623Y0167990D01*
X0117840Y0167848D01*
X0118061Y0167711D01*
X0118285Y0167580D01*
X0118512Y0167455D01*
X0118742Y0167334D01*
X0118975Y0167220D01*
X0119210Y0167111D01*
X0119448Y0167008D01*
X0119689Y0166911D01*
X0119932Y0166820D01*
X0120177Y0166735D01*
X0120424Y0166656D01*
X0120673Y0166583D01*
X0120924Y0166516D01*
X0121176Y0166455D01*
X0121430Y0166401D01*
X0121684Y0166352D01*
X0121940Y0166310D01*
X0122197Y0166274D01*
X0122455Y0166245D01*
X0122714Y0166222D01*
X0122973Y0166205D01*
X0123232Y0166194D01*
X0123491Y0166190D01*
X0123751Y0166192D01*
X0124010Y0166201D01*
X0124269Y0166216D01*
X0124528Y0166237D01*
X0124786Y0166264D01*
X0125043Y0166298D01*
X0125299Y0166338D01*
X0125554Y0166384D01*
X0125809Y0166437D01*
X0126061Y0166496D01*
X0126312Y0166561D01*
X0126562Y0166632D01*
X0126810Y0166709D01*
X0127055Y0166792D01*
X0127299Y0166881D01*
X0127540Y0166977D01*
X0127779Y0167078D01*
X0128016Y0167184D01*
X0128250Y0167297D01*
X0128481Y0167415D01*
X0128709Y0167539D01*
X0128933Y0167669D01*
X0129155Y0167803D01*
X0129373Y0167944D01*
X0129588Y0168089D01*
X0129799Y0168240D01*
X0130007Y0168396D01*
X0130210Y0168557D01*
X0130410Y0168723D01*
X0130605Y0168893D01*
X0130796Y0169069D01*
X0130983Y0169249D01*
X0131165Y0169433D01*
X0131343Y0169622D01*
X0131516Y0169816D01*
X0131685Y0170013D01*
X0131848Y0170215D01*
X0132007Y0170420D01*
X0132160Y0170629D01*
X0132308Y0170842D01*
X0132451Y0171059D01*
X0132589Y0171279D01*
X0132721Y0171502D01*
X0132848Y0171728D01*
X0132969Y0171958D01*
X0133084Y0172190D01*
X0133194Y0172425D01*
X0133298Y0172663D01*
X0133396Y0172903D01*
X0133488Y0173146D01*
X0133575Y0173390D01*
X0133655Y0173637D01*
X0133601Y0173654D01*
X0133521Y0173408D01*
X0133436Y0173165D01*
X0133344Y0172924D01*
X0133246Y0172685D01*
X0133143Y0172448D01*
X0133034Y0172214D01*
X0132919Y0171983D01*
X0132798Y0171755D01*
X0132672Y0171530D01*
X0132541Y0171308D01*
X0132404Y0171089D01*
X0132262Y0170874D01*
X0132114Y0170662D01*
X0131962Y0170454D01*
X0131804Y0170249D01*
X0131642Y0170049D01*
X0131474Y0169852D01*
X0131302Y0169660D01*
X0131125Y0169472D01*
X0130944Y0169289D01*
X0130758Y0169110D01*
X0130568Y0168935D01*
X0130373Y0168765D01*
X0130175Y0168600D01*
X0129972Y0168440D01*
X0129766Y0168285D01*
X0129556Y0168135D01*
X0129342Y0167990D01*
X0129125Y0167851D01*
X0128905Y0167717D01*
X0128681Y0167588D01*
X0128454Y0167465D01*
X0128225Y0167347D01*
X0127992Y0167235D01*
X0127757Y0167129D01*
X0127519Y0167028D01*
X0127279Y0166934D01*
X0127037Y0166845D01*
X0126792Y0166762D01*
X0126546Y0166686D01*
X0126298Y0166615D01*
X0126048Y0166550D01*
X0125797Y0166492D01*
X0125544Y0166439D01*
X0125290Y0166393D01*
X0125035Y0166353D01*
X0124779Y0166320D01*
X0124522Y0166293D01*
X0124265Y0166271D01*
X0124008Y0166257D01*
X0123750Y0166248D01*
X0123491Y0166246D01*
X0123233Y0166250D01*
X0122976Y0166261D01*
X0122718Y0166278D01*
X0122461Y0166301D01*
X0122205Y0166330D01*
X0121949Y0166366D01*
X0121694Y0166408D01*
X0121441Y0166456D01*
X0121188Y0166510D01*
X0120938Y0166570D01*
X0120688Y0166637D01*
X0120441Y0166710D01*
X0120195Y0166788D01*
X0119951Y0166873D01*
X0119709Y0166964D01*
X0119470Y0167060D01*
X0119233Y0167162D01*
X0118999Y0167271D01*
X0118767Y0167384D01*
X0118538Y0167504D01*
X0118313Y0167629D01*
X0118090Y0167759D01*
X0117870Y0167895D01*
X0117654Y0168036D01*
X0117442Y0168183D01*
X0117233Y0168334D01*
X0117028Y0168491D01*
X0117063Y0168535D01*
X0117267Y0168379D01*
X0117474Y0168228D01*
X0117686Y0168083D01*
X0117901Y0167942D01*
X0118119Y0167807D01*
X0118340Y0167677D01*
X0118565Y0167553D01*
X0118792Y0167434D01*
X0119023Y0167321D01*
X0119256Y0167214D01*
X0119492Y0167112D01*
X0119730Y0167016D01*
X0119970Y0166926D01*
X0120213Y0166841D01*
X0120457Y0166763D01*
X0120703Y0166691D01*
X0120951Y0166625D01*
X0121201Y0166564D01*
X0121452Y0166510D01*
X0121704Y0166463D01*
X0121957Y0166421D01*
X0122212Y0166386D01*
X0122467Y0166356D01*
X0122722Y0166333D01*
X0122979Y0166317D01*
X0123235Y0166306D01*
X0123492Y0166302D01*
X0123748Y0166304D01*
X0124005Y0166313D01*
X0124261Y0166327D01*
X0124517Y0166348D01*
X0124772Y0166375D01*
X0125027Y0166409D01*
X0125281Y0166449D01*
X0125533Y0166494D01*
X0125785Y0166546D01*
X0126035Y0166605D01*
X0126283Y0166669D01*
X0126530Y0166739D01*
X0126775Y0166816D01*
X0127018Y0166898D01*
X0127259Y0166986D01*
X0127498Y0167080D01*
X0127735Y0167180D01*
X0127969Y0167286D01*
X0128200Y0167397D01*
X0128428Y0167514D01*
X0128654Y0167637D01*
X0128876Y0167765D01*
X0129096Y0167898D01*
X0129312Y0168037D01*
X0129524Y0168181D01*
X0129733Y0168330D01*
X0129938Y0168485D01*
X0130140Y0168644D01*
X0130337Y0168808D01*
X0130530Y0168977D01*
X0130719Y0169150D01*
X0130904Y0169328D01*
X0131085Y0169511D01*
X0131261Y0169698D01*
X0131432Y0169889D01*
X0131598Y0170085D01*
X0131760Y0170284D01*
X0131917Y0170487D01*
X0132069Y0170694D01*
X0132215Y0170905D01*
X0132357Y0171119D01*
X0132493Y0171337D01*
X0132624Y0171558D01*
X0132749Y0171782D01*
X0132869Y0172009D01*
X0132983Y0172239D01*
X0133092Y0172471D01*
X0133195Y0172706D01*
X0133292Y0172944D01*
X0133383Y0173184D01*
X0133468Y0173426D01*
X0133548Y0173670D01*
X0133494Y0173687D01*
X0133415Y0173444D01*
X0133330Y0173203D01*
X0133240Y0172964D01*
X0133143Y0172728D01*
X0133041Y0172494D01*
X0132933Y0172263D01*
X0132819Y0172034D01*
X0132700Y0171808D01*
X0132575Y0171586D01*
X0132445Y0171366D01*
X0132310Y0171149D01*
X0132169Y0170936D01*
X0132023Y0170727D01*
X0131872Y0170521D01*
X0131716Y0170319D01*
X0131555Y0170120D01*
X0131390Y0169926D01*
X0131219Y0169736D01*
X0131044Y0169550D01*
X0130865Y0169368D01*
X0130681Y0169191D01*
X0130493Y0169018D01*
X0130301Y0168850D01*
X0130104Y0168687D01*
X0129904Y0168529D01*
X0129700Y0168375D01*
X0129492Y0168227D01*
X0129281Y0168084D01*
X0129066Y0167946D01*
X0128848Y0167813D01*
X0128626Y0167686D01*
X0128402Y0167564D01*
X0128175Y0167447D01*
X0127945Y0167337D01*
X0127712Y0167231D01*
X0127477Y0167132D01*
X0127239Y0167038D01*
X0127000Y0166951D01*
X0126758Y0166869D01*
X0126514Y0166793D01*
X0126268Y0166723D01*
X0126021Y0166659D01*
X0125773Y0166601D01*
X0125522Y0166549D01*
X0125271Y0166504D01*
X0125019Y0166464D01*
X0124766Y0166431D01*
X0124512Y0166404D01*
X0124257Y0166383D01*
X0124003Y0166369D01*
X0123747Y0166360D01*
X0123492Y0166358D01*
X0123237Y0166362D01*
X0122982Y0166373D01*
X0122727Y0166389D01*
X0122473Y0166412D01*
X0122219Y0166441D01*
X0121966Y0166476D01*
X0121714Y0166518D01*
X0121463Y0166565D01*
X0121214Y0166619D01*
X0120965Y0166679D01*
X0120719Y0166745D01*
X0120474Y0166817D01*
X0120230Y0166894D01*
X0119989Y0166978D01*
X0119750Y0167068D01*
X0119513Y0167163D01*
X0119279Y0167265D01*
X0119047Y0167372D01*
X0118818Y0167484D01*
X0118592Y0167602D01*
X0118368Y0167726D01*
X0118148Y0167855D01*
X0117931Y0167990D01*
X0117717Y0168129D01*
X0117507Y0168274D01*
X0117300Y0168424D01*
X0117097Y0168579D01*
X0117132Y0168623D01*
X0117334Y0168469D01*
X0117539Y0168320D01*
X0117748Y0168176D01*
X0117961Y0168037D01*
X0118177Y0167903D01*
X0118396Y0167775D01*
X0118618Y0167652D01*
X0118843Y0167534D01*
X0119071Y0167422D01*
X0119302Y0167316D01*
X0119535Y0167215D01*
X0119771Y0167120D01*
X0120008Y0167031D01*
X0120248Y0166948D01*
X0120490Y0166870D01*
X0120734Y0166799D01*
X0120979Y0166733D01*
X0121226Y0166674D01*
X0121474Y0166620D01*
X0121724Y0166573D01*
X0121974Y0166532D01*
X0122226Y0166497D01*
X0122478Y0166468D01*
X0122731Y0166445D01*
X0122985Y0166428D01*
X0123238Y0166418D01*
X0123492Y0166414D01*
X0123746Y0166416D01*
X0124000Y0166425D01*
X0124254Y0166439D01*
X0124507Y0166460D01*
X0124759Y0166487D01*
X0125011Y0166520D01*
X0125262Y0166559D01*
X0125512Y0166604D01*
X0125761Y0166656D01*
X0126008Y0166713D01*
X0126254Y0166777D01*
X0126498Y0166847D01*
X0126740Y0166922D01*
X0126981Y0167004D01*
X0127219Y0167091D01*
X0127456Y0167184D01*
X0127690Y0167283D01*
X0127921Y0167387D01*
X0128150Y0167498D01*
X0128376Y0167613D01*
X0128599Y0167735D01*
X0128819Y0167861D01*
X0129036Y0167993D01*
X0129250Y0168131D01*
X0129460Y0168273D01*
X0129667Y0168421D01*
X0129870Y0168573D01*
X0130069Y0168731D01*
X0130264Y0168893D01*
X0130455Y0169060D01*
X0130643Y0169232D01*
X0130825Y0169408D01*
X0131004Y0169589D01*
X0131178Y0169774D01*
X0131347Y0169963D01*
X0131512Y0170156D01*
X0131672Y0170353D01*
X0131827Y0170554D01*
X0131977Y0170759D01*
X0132123Y0170968D01*
X0132262Y0171180D01*
X0132397Y0171395D01*
X0132527Y0171613D01*
X0132651Y0171835D01*
X0132769Y0172060D01*
X0132882Y0172287D01*
X0132990Y0172517D01*
X0133091Y0172750D01*
X0133187Y0172985D01*
X0133278Y0173222D01*
X0133362Y0173462D01*
X0133441Y0173703D01*
X0133387Y0173720D01*
X0133309Y0173480D01*
X0133225Y0173241D01*
X0133135Y0173005D01*
X0133040Y0172771D01*
X0132939Y0172540D01*
X0132832Y0172311D01*
X0132719Y0172085D01*
X0132601Y0171862D01*
X0132478Y0171641D01*
X0132349Y0171424D01*
X0132215Y0171210D01*
X0132076Y0170999D01*
X0131932Y0170792D01*
X0131782Y0170588D01*
X0131628Y0170388D01*
X0131469Y0170192D01*
X0131305Y0170000D01*
X0131137Y0169811D01*
X0130964Y0169627D01*
X0130786Y0169448D01*
X0130604Y0169273D01*
X0130418Y0169102D01*
X0130228Y0168936D01*
X0130034Y0168774D01*
X0129835Y0168617D01*
X0129634Y0168466D01*
X0129428Y0168319D01*
X0129219Y0168177D01*
X0129006Y0168041D01*
X0128791Y0167909D01*
X0128572Y0167783D01*
X0128350Y0167663D01*
X0128125Y0167548D01*
X0127897Y0167438D01*
X0127667Y0167334D01*
X0127435Y0167236D01*
X0127200Y0167143D01*
X0126962Y0167056D01*
X0126723Y0166975D01*
X0126482Y0166900D01*
X0126239Y0166831D01*
X0125995Y0166768D01*
X0125749Y0166711D01*
X0125501Y0166659D01*
X0125253Y0166614D01*
X0125003Y0166575D01*
X0124753Y0166542D01*
X0124502Y0166516D01*
X0124250Y0166495D01*
X0123998Y0166480D01*
X0123745Y0166472D01*
X0123493Y0166470D01*
X0123240Y0166474D01*
X0122988Y0166484D01*
X0122736Y0166501D01*
X0122484Y0166523D01*
X0122233Y0166552D01*
X0121983Y0166587D01*
X0121734Y0166628D01*
X0121486Y0166675D01*
X0121239Y0166728D01*
X0120993Y0166787D01*
X0120749Y0166853D01*
X0120507Y0166924D01*
X0120266Y0167001D01*
X0120027Y0167084D01*
X0119791Y0167172D01*
X0119557Y0167267D01*
X0119325Y0167367D01*
X0119095Y0167473D01*
X0118869Y0167584D01*
X0118645Y0167701D01*
X0118424Y0167823D01*
X0118206Y0167951D01*
X0117991Y0168084D01*
X0117780Y0168222D01*
X0117572Y0168365D01*
X0117367Y0168514D01*
X0117167Y0168667D01*
X0117201Y0168711D01*
X0117401Y0168559D01*
X0117604Y0168411D01*
X0117811Y0168268D01*
X0118021Y0168131D01*
X0118235Y0167999D01*
X0118452Y0167872D01*
X0118671Y0167750D01*
X0118894Y0167634D01*
X0119120Y0167523D01*
X0119348Y0167418D01*
X0119578Y0167318D01*
X0119811Y0167224D01*
X0120047Y0167136D01*
X0120284Y0167054D01*
X0120523Y0166977D01*
X0120764Y0166906D01*
X0121007Y0166842D01*
X0121251Y0166783D01*
X0121497Y0166730D01*
X0121744Y0166683D01*
X0121991Y0166642D01*
X0122240Y0166608D01*
X0122490Y0166579D01*
X0122740Y0166557D01*
X0122991Y0166540D01*
X0123242Y0166530D01*
X0123493Y0166526D01*
X0123744Y0166528D01*
X0123995Y0166536D01*
X0124246Y0166551D01*
X0124496Y0166571D01*
X0124746Y0166598D01*
X0124995Y0166631D01*
X0125243Y0166669D01*
X0125491Y0166714D01*
X0125736Y0166765D01*
X0125981Y0166822D01*
X0126224Y0166885D01*
X0126466Y0166954D01*
X0126706Y0167029D01*
X0126944Y0167109D01*
X0127180Y0167196D01*
X0127413Y0167288D01*
X0127645Y0167385D01*
X0127874Y0167489D01*
X0128100Y0167598D01*
X0128324Y0167712D01*
X0128544Y0167832D01*
X0128762Y0167958D01*
X0128977Y0168088D01*
X0129188Y0168224D01*
X0129396Y0168365D01*
X0129600Y0168511D01*
X0129801Y0168662D01*
X0129998Y0168818D01*
X0130191Y0168978D01*
X0130381Y0169143D01*
X0130566Y0169313D01*
X0130747Y0169488D01*
X0130923Y0169666D01*
X0131095Y0169849D01*
X0131263Y0170036D01*
X0131426Y0170228D01*
X0131584Y0170423D01*
X0131738Y0170622D01*
X0131886Y0170824D01*
X0132030Y0171030D01*
X0132168Y0171240D01*
X0132301Y0171453D01*
X0132429Y0171669D01*
X0132552Y0171888D01*
X0132669Y0172110D01*
X0132781Y0172335D01*
X0132887Y0172563D01*
X0132988Y0172793D01*
X0133083Y0173026D01*
X0133172Y0173260D01*
X0133256Y0173497D01*
X0133334Y0173736D01*
D20*
X0093824Y0164243D02*
X0093824Y0161243D01*
X0093824Y0158243D01*
X0091824Y0158243D02*
X0091824Y0161243D01*
X0091824Y0164243D01*
X0070383Y0241754D02*
X0066446Y0241754D01*
X0038887Y0241754D02*
X0034950Y0241754D01*
X0036919Y0239786D02*
X0036919Y0243723D01*
X0036919Y0294904D02*
X0036919Y0298841D01*
X0038887Y0296872D02*
X0034950Y0296872D01*
X0066446Y0296872D02*
X0070383Y0296872D01*
X0129438Y0296872D02*
X0133375Y0296872D01*
X0131407Y0298841D02*
X0131407Y0294904D01*
X0160934Y0296872D02*
X0164871Y0296872D01*
X0181210Y0321479D02*
X0147352Y0321479D01*
X0147352Y0363605D01*
X0181210Y0363605D01*
X0181210Y0321479D01*
X0178454Y0325809D02*
X0176092Y0325809D01*
X0177273Y0327778D01*
X0178454Y0325809D01*
X0177947Y0326655D02*
X0176599Y0326655D01*
X0177198Y0327654D02*
X0177347Y0327654D01*
X0131407Y0243723D02*
X0131407Y0239786D01*
X0129438Y0241754D02*
X0133375Y0241754D01*
X0160934Y0241754D02*
X0164871Y0241754D01*
D21*
X0093324Y0171872D02*
X0092324Y0171872D01*
X0098505Y0130534D02*
X0099505Y0130534D01*
D22*
X0147783Y0171479D03*
X0169283Y0171479D03*
M02*
