%
M48
M72
T01C0.03150
T02C0.03543
T03C0.03937
T04C0.04331
T05C0.05118
T06C0.01969
T07C0.02362
T08C0.02756
T09C0.09843
T10C0.10827
%
T01
X36801Y317306
X36801Y347306
X131210Y317306
X131210Y347306
T02
X60934Y186636
X60934Y176794
X60934Y166951
X60934Y82306
X60934Y72463
X131997Y66557
X141840Y66557
X151682Y66557
X26667Y305813
X36667Y305813
X68667Y305813
X78667Y305813
X121155Y305813
X131155Y305813
X163155Y305813
X173155Y305813
X26667Y232813
X36667Y232813
X68667Y232813
X78667Y232813
X121155Y232813
X131155Y232813
X163155Y232813
X173155Y232813
X192155Y328880
X192155Y318880
X192155Y308880
X192155Y298880
X192155Y288880
X192155Y278880
X192155Y268880
X192155Y258880
X192155Y248880
X192155Y238880
X192155Y228880
X192155Y218880
X192155Y208880
X192155Y198880
X192155Y188880
X192155Y178880
X192155Y168880
X192155Y158880
X192155Y148880
X192155Y138880
X202155Y328880
X202155Y318880
X202155Y308880
X202155Y298880
X202155Y288880
X202155Y278880
X202155Y268880
X202155Y258880
X202155Y248880
X202155Y238880
X202155Y228880
X202155Y218880
X202155Y208880
X202155Y198880
X202155Y188880
X202155Y178880
X202155Y168880
X202155Y158880
X202155Y148880
X202155Y138880
T03
X60541Y44904
X141249Y44904
T04
X99911Y267266
X99911Y327266
X36919Y119235
X36919Y179235
T05
X131249Y34904
X131249Y54904
X151249Y34904
X151249Y54904
X50541Y34904
X70541Y34904
X70541Y54904
X50541Y54904
X75698Y346872
X56013Y346872
T06
X173493Y217148
X153493Y217148
X130423Y208447
X130423Y188447
X105226Y125770
X105226Y105770
X122155Y144983
X122155Y154983
X103651Y189707
X103651Y179707
X164399Y147266
X174399Y147266
X89005Y141361
X99005Y141361
X91446Y169746
X91446Y189746
X88690Y125770
X88690Y105770
X48533Y186518
X48533Y176518
T07
X91446Y161124
X98946Y156124
X91446Y151124
X153612Y198172
X148612Y205672
X143612Y198172
X102352Y87030
X97352Y94530
X92352Y87030
T08
X118218Y137424
X126092Y137424
X133966Y137424
X141840Y137424
X149714Y137424
X157588Y137424
X165462Y137424
X173336Y137424
X156407Y325416
X164281Y325416
X172155Y325416
X156407Y333290
X164281Y333290
X172155Y333290
X99911Y228998
X99911Y248998
X36919Y197502
X36919Y217502
T09
X41249Y96085
X375895Y292935
T10
X390068Y348054
X197155Y348054
X197155Y119707
X390068Y119707
M30
