G04 EAGLE Gerber RS-274X export*
G75*
%MOMM*%
%FSLAX34Y34*%
%LPD*%
%INCopper Top*%
%IPPOS*%
%AMOC8*
5,1,8,0,0,1.08239X$1,22.5*%
G01*
%ADD10C,0.000000*%
%ADD11C,1.950000*%
%ADD12C,1.700000*%
%ADD13C,1.650000*%
%ADD14C,2.500000*%
%ADD15C,2.540000*%
%ADD16R,1.650000X1.650000*%
%ADD17P,1.461226X8X22.500000*%
%ADD18P,1.319650X8X202.500000*%
%ADD19P,1.319650X8X22.500000*%
%ADD20P,1.319650X8X292.500000*%
%ADD21C,1.500000*%
%ADD22P,1.319650X8X112.500000*%
%ADD23R,1.016000X3.000000*%
%ADD24C,2.740000*%
%ADD25P,2.965749X8X202.500000*%
%ADD26R,1.300000X1.500000*%
%ADD27R,0.900000X0.700000*%
%ADD28R,0.900000X0.400000*%
%ADD29R,1.500000X1.300000*%
%ADD30P,0.659825X8X22.500000*%
%ADD31C,0.203200*%
%ADD32C,0.304800*%
%ADD33C,0.504400*%
%ADD34C,0.609600*%
%ADD35C,0.254000*%

G36*
X418178Y5084D02*
X418178Y5084D01*
X418197Y5082D01*
X418299Y5104D01*
X418401Y5120D01*
X418418Y5130D01*
X418438Y5134D01*
X418527Y5187D01*
X418618Y5236D01*
X418632Y5250D01*
X418649Y5260D01*
X418716Y5339D01*
X418788Y5414D01*
X418796Y5432D01*
X418809Y5447D01*
X418848Y5543D01*
X418891Y5637D01*
X418893Y5657D01*
X418901Y5675D01*
X418919Y5842D01*
X418919Y175605D01*
X421895Y178581D01*
X986158Y178581D01*
X986178Y178584D01*
X986197Y178582D01*
X986299Y178604D01*
X986401Y178620D01*
X986418Y178630D01*
X986438Y178634D01*
X986527Y178687D01*
X986618Y178736D01*
X986632Y178750D01*
X986649Y178760D01*
X986716Y178839D01*
X986788Y178914D01*
X986796Y178932D01*
X986809Y178947D01*
X986848Y179043D01*
X986891Y179137D01*
X986893Y179157D01*
X986901Y179175D01*
X986919Y179342D01*
X986919Y349158D01*
X986916Y349178D01*
X986918Y349197D01*
X986896Y349299D01*
X986880Y349401D01*
X986870Y349418D01*
X986866Y349438D01*
X986813Y349527D01*
X986764Y349618D01*
X986750Y349632D01*
X986740Y349649D01*
X986661Y349716D01*
X986586Y349788D01*
X986568Y349796D01*
X986553Y349809D01*
X986457Y349848D01*
X986363Y349891D01*
X986343Y349893D01*
X986325Y349901D01*
X986158Y349919D01*
X979895Y349919D01*
X976919Y352895D01*
X976919Y467105D01*
X979895Y470081D01*
X986158Y470081D01*
X986178Y470084D01*
X986197Y470082D01*
X986299Y470104D01*
X986401Y470120D01*
X986418Y470130D01*
X986438Y470134D01*
X986527Y470187D01*
X986618Y470236D01*
X986632Y470250D01*
X986649Y470260D01*
X986716Y470339D01*
X986788Y470414D01*
X986796Y470432D01*
X986809Y470447D01*
X986848Y470543D01*
X986891Y470637D01*
X986893Y470657D01*
X986901Y470675D01*
X986919Y470842D01*
X986919Y814158D01*
X986916Y814178D01*
X986918Y814197D01*
X986896Y814299D01*
X986880Y814401D01*
X986870Y814418D01*
X986866Y814438D01*
X986813Y814527D01*
X986764Y814618D01*
X986750Y814632D01*
X986740Y814649D01*
X986661Y814716D01*
X986586Y814788D01*
X986568Y814796D01*
X986553Y814809D01*
X986457Y814848D01*
X986363Y814891D01*
X986343Y814893D01*
X986325Y814901D01*
X986158Y814919D01*
X961954Y814919D01*
X961864Y814905D01*
X961773Y814897D01*
X961744Y814885D01*
X961712Y814880D01*
X961631Y814837D01*
X961547Y814801D01*
X961515Y814775D01*
X961494Y814764D01*
X961472Y814741D01*
X961416Y814696D01*
X959156Y812436D01*
X959117Y812381D01*
X959070Y812333D01*
X959045Y812282D01*
X959013Y812236D01*
X958993Y812172D01*
X958964Y812111D01*
X958957Y812055D01*
X958940Y812001D01*
X958942Y811934D01*
X958934Y811867D01*
X958946Y811788D01*
X958947Y811756D01*
X958954Y811736D01*
X958959Y811701D01*
X961001Y804081D01*
X961001Y795919D01*
X958888Y788034D01*
X954807Y780965D01*
X949035Y775193D01*
X941966Y771112D01*
X934081Y768999D01*
X925919Y768999D01*
X918034Y771112D01*
X910965Y775193D01*
X905193Y780965D01*
X901112Y788034D01*
X898999Y795919D01*
X898999Y804081D01*
X901112Y811966D01*
X905193Y819035D01*
X910965Y824807D01*
X917360Y828499D01*
X917397Y828529D01*
X917439Y828552D01*
X917492Y828607D01*
X917550Y828655D01*
X917576Y828695D01*
X917609Y828730D01*
X917641Y828799D01*
X917681Y828863D01*
X917692Y828910D01*
X917712Y828953D01*
X917721Y829028D01*
X917738Y829102D01*
X917734Y829150D01*
X917739Y829197D01*
X917723Y829272D01*
X917717Y829347D01*
X917697Y829391D01*
X917687Y829438D01*
X917648Y829503D01*
X917618Y829572D01*
X917586Y829608D01*
X917561Y829649D01*
X917504Y829698D01*
X917452Y829754D01*
X917411Y829778D01*
X917374Y829809D01*
X917304Y829837D01*
X917238Y829874D01*
X917191Y829883D01*
X917146Y829901D01*
X917018Y829915D01*
X916996Y829919D01*
X916989Y829918D01*
X916979Y829919D01*
X453021Y829919D01*
X452974Y829912D01*
X452926Y829913D01*
X452853Y829892D01*
X452778Y829880D01*
X452736Y829857D01*
X452690Y829843D01*
X452628Y829800D01*
X452561Y829764D01*
X452528Y829730D01*
X452488Y829702D01*
X452443Y829641D01*
X452391Y829586D01*
X452371Y829543D01*
X452343Y829504D01*
X452320Y829432D01*
X452288Y829363D01*
X452282Y829315D01*
X452268Y829270D01*
X452269Y829194D01*
X452261Y829119D01*
X452271Y829072D01*
X452271Y829024D01*
X452297Y828952D01*
X452313Y828878D01*
X452337Y828837D01*
X452353Y828792D01*
X452400Y828732D01*
X452439Y828667D01*
X452475Y828636D01*
X452505Y828598D01*
X452609Y828522D01*
X452626Y828507D01*
X452632Y828505D01*
X452640Y828499D01*
X459035Y824807D01*
X464807Y819035D01*
X468888Y811966D01*
X471001Y804081D01*
X471001Y795919D01*
X468888Y788034D01*
X464807Y780965D01*
X459035Y775193D01*
X451966Y771112D01*
X444081Y768999D01*
X435919Y768999D01*
X428034Y771112D01*
X420965Y775193D01*
X415193Y780965D01*
X411112Y788034D01*
X408999Y795919D01*
X408999Y804081D01*
X411112Y811966D01*
X415193Y819035D01*
X420965Y824807D01*
X427360Y828499D01*
X427397Y828529D01*
X427439Y828552D01*
X427492Y828607D01*
X427550Y828655D01*
X427576Y828695D01*
X427609Y828730D01*
X427641Y828799D01*
X427681Y828863D01*
X427692Y828910D01*
X427712Y828953D01*
X427721Y829028D01*
X427738Y829102D01*
X427734Y829150D01*
X427739Y829197D01*
X427723Y829272D01*
X427717Y829347D01*
X427697Y829391D01*
X427687Y829438D01*
X427648Y829503D01*
X427618Y829572D01*
X427586Y829608D01*
X427561Y829649D01*
X427504Y829698D01*
X427452Y829754D01*
X427411Y829778D01*
X427374Y829809D01*
X427304Y829837D01*
X427238Y829874D01*
X427191Y829883D01*
X427146Y829901D01*
X427018Y829915D01*
X426996Y829919D01*
X426989Y829918D01*
X426979Y829919D01*
X408842Y829919D01*
X408822Y829916D01*
X408803Y829918D01*
X408701Y829896D01*
X408599Y829880D01*
X408582Y829870D01*
X408562Y829866D01*
X408473Y829813D01*
X408382Y829764D01*
X408368Y829750D01*
X408351Y829740D01*
X408284Y829661D01*
X408212Y829586D01*
X408204Y829568D01*
X408191Y829553D01*
X408152Y829457D01*
X408109Y829363D01*
X408107Y829343D01*
X408099Y829325D01*
X408081Y829158D01*
X408081Y817895D01*
X405105Y814919D01*
X5842Y814919D01*
X5822Y814916D01*
X5803Y814918D01*
X5701Y814896D01*
X5599Y814880D01*
X5582Y814870D01*
X5562Y814866D01*
X5473Y814813D01*
X5382Y814764D01*
X5368Y814750D01*
X5351Y814740D01*
X5284Y814661D01*
X5212Y814586D01*
X5204Y814568D01*
X5191Y814553D01*
X5152Y814457D01*
X5109Y814363D01*
X5107Y814343D01*
X5099Y814325D01*
X5081Y814158D01*
X5081Y470842D01*
X5084Y470822D01*
X5082Y470803D01*
X5104Y470701D01*
X5120Y470599D01*
X5130Y470582D01*
X5134Y470562D01*
X5187Y470473D01*
X5236Y470382D01*
X5250Y470368D01*
X5260Y470351D01*
X5339Y470284D01*
X5414Y470212D01*
X5432Y470204D01*
X5447Y470191D01*
X5543Y470152D01*
X5637Y470109D01*
X5657Y470107D01*
X5675Y470099D01*
X5842Y470081D01*
X12105Y470081D01*
X15081Y467105D01*
X15081Y352895D01*
X12105Y349919D01*
X5842Y349919D01*
X5822Y349916D01*
X5803Y349918D01*
X5701Y349896D01*
X5599Y349880D01*
X5582Y349870D01*
X5562Y349866D01*
X5473Y349813D01*
X5382Y349764D01*
X5368Y349750D01*
X5351Y349740D01*
X5284Y349661D01*
X5212Y349586D01*
X5204Y349568D01*
X5191Y349553D01*
X5152Y349457D01*
X5109Y349363D01*
X5107Y349343D01*
X5099Y349325D01*
X5081Y349158D01*
X5081Y5842D01*
X5084Y5822D01*
X5082Y5803D01*
X5104Y5701D01*
X5120Y5599D01*
X5130Y5582D01*
X5134Y5562D01*
X5187Y5473D01*
X5236Y5382D01*
X5250Y5368D01*
X5260Y5351D01*
X5339Y5284D01*
X5414Y5212D01*
X5432Y5204D01*
X5447Y5191D01*
X5543Y5152D01*
X5637Y5109D01*
X5657Y5107D01*
X5675Y5099D01*
X5842Y5081D01*
X418158Y5081D01*
X418178Y5084D01*
G37*
%LPC*%
G36*
X427299Y522699D02*
X427299Y522699D01*
X427299Y523462D01*
X427296Y523482D01*
X427298Y523501D01*
X427276Y523603D01*
X427259Y523705D01*
X427250Y523722D01*
X427246Y523742D01*
X427193Y523831D01*
X427144Y523922D01*
X427130Y523936D01*
X427120Y523953D01*
X427041Y524020D01*
X426966Y524091D01*
X426948Y524100D01*
X426933Y524113D01*
X426837Y524152D01*
X426743Y524195D01*
X426723Y524197D01*
X426705Y524205D01*
X426538Y524223D01*
X416612Y524223D01*
X416612Y524230D01*
X416621Y524316D01*
X416621Y531318D01*
X416618Y531338D01*
X416620Y531357D01*
X416598Y531459D01*
X416582Y531561D01*
X416572Y531578D01*
X416568Y531598D01*
X416515Y531687D01*
X416466Y531778D01*
X416452Y531792D01*
X416442Y531809D01*
X416363Y531876D01*
X416288Y531948D01*
X416270Y531956D01*
X416255Y531969D01*
X416159Y532008D01*
X416065Y532051D01*
X416045Y532053D01*
X416027Y532061D01*
X415860Y532079D01*
X393216Y532079D01*
X393126Y532065D01*
X393035Y532057D01*
X393005Y532045D01*
X392973Y532040D01*
X392892Y531997D01*
X392808Y531961D01*
X392776Y531935D01*
X392756Y531924D01*
X392733Y531901D01*
X392677Y531856D01*
X388074Y527253D01*
X381326Y527253D01*
X376785Y531794D01*
X376711Y531847D01*
X376641Y531907D01*
X376611Y531919D01*
X376585Y531938D01*
X376498Y531965D01*
X376413Y531999D01*
X376372Y532003D01*
X376350Y532010D01*
X376318Y532009D01*
X376246Y532017D01*
X365512Y532017D01*
X365492Y532014D01*
X365473Y532016D01*
X365371Y531994D01*
X365269Y531978D01*
X365252Y531968D01*
X365232Y531964D01*
X365143Y531911D01*
X365052Y531862D01*
X365038Y531848D01*
X365021Y531838D01*
X364954Y531759D01*
X364882Y531684D01*
X364874Y531666D01*
X364861Y531651D01*
X364822Y531555D01*
X364779Y531461D01*
X364777Y531441D01*
X364769Y531423D01*
X364751Y531256D01*
X364751Y531100D01*
X363297Y527590D01*
X360610Y524903D01*
X357100Y523449D01*
X353300Y523449D01*
X349790Y524903D01*
X347103Y527590D01*
X345649Y531100D01*
X345649Y549900D01*
X347103Y553410D01*
X349790Y556097D01*
X353300Y557551D01*
X375792Y557551D01*
X375812Y557554D01*
X375831Y557552D01*
X375933Y557574D01*
X376035Y557590D01*
X376052Y557600D01*
X376072Y557604D01*
X376161Y557657D01*
X376252Y557706D01*
X376266Y557720D01*
X376283Y557730D01*
X376350Y557809D01*
X376422Y557884D01*
X376430Y557902D01*
X376443Y557917D01*
X376482Y558013D01*
X376525Y558107D01*
X376527Y558127D01*
X376535Y558145D01*
X376553Y558312D01*
X376553Y564174D01*
X381326Y568947D01*
X388074Y568947D01*
X392932Y564090D01*
X393005Y564037D01*
X393075Y563977D01*
X393105Y563965D01*
X393131Y563946D01*
X393218Y563919D01*
X393303Y563885D01*
X393344Y563881D01*
X393366Y563874D01*
X393399Y563875D01*
X393470Y563867D01*
X416238Y563867D01*
X416258Y563870D01*
X416277Y563868D01*
X416379Y563890D01*
X416481Y563906D01*
X416498Y563916D01*
X416518Y563920D01*
X416607Y563973D01*
X416698Y564022D01*
X416712Y564036D01*
X416729Y564046D01*
X416796Y564125D01*
X416868Y564200D01*
X416876Y564218D01*
X416889Y564233D01*
X416928Y564329D01*
X416971Y564423D01*
X416973Y564443D01*
X416981Y564461D01*
X416999Y564628D01*
X416999Y575549D01*
X418567Y579335D01*
X421465Y582233D01*
X425251Y583801D01*
X428064Y583801D01*
X428084Y583804D01*
X428103Y583802D01*
X428205Y583824D01*
X428307Y583840D01*
X428324Y583850D01*
X428344Y583854D01*
X428433Y583907D01*
X428524Y583956D01*
X428538Y583970D01*
X428555Y583980D01*
X428622Y584059D01*
X428694Y584134D01*
X428702Y584152D01*
X428715Y584167D01*
X428754Y584263D01*
X428797Y584357D01*
X428799Y584377D01*
X428807Y584395D01*
X428825Y584562D01*
X428825Y587348D01*
X428823Y587361D01*
X428823Y587378D01*
X428824Y587387D01*
X428823Y587392D01*
X428823Y598138D01*
X428820Y598158D01*
X428822Y598177D01*
X428800Y598279D01*
X428783Y598381D01*
X428774Y598398D01*
X428770Y598418D01*
X428717Y598507D01*
X428668Y598598D01*
X428654Y598612D01*
X428644Y598629D01*
X428565Y598696D01*
X428490Y598767D01*
X428472Y598776D01*
X428457Y598789D01*
X428361Y598827D01*
X428267Y598871D01*
X428247Y598873D01*
X428229Y598881D01*
X428062Y598899D01*
X427299Y598899D01*
X427299Y598901D01*
X428062Y598901D01*
X428082Y598904D01*
X428101Y598902D01*
X428203Y598924D01*
X428305Y598941D01*
X428322Y598950D01*
X428342Y598954D01*
X428431Y599007D01*
X428522Y599056D01*
X428536Y599070D01*
X428553Y599080D01*
X428620Y599159D01*
X428691Y599234D01*
X428700Y599252D01*
X428713Y599267D01*
X428752Y599363D01*
X428795Y599457D01*
X428797Y599477D01*
X428805Y599495D01*
X428823Y599662D01*
X428823Y610433D01*
X428825Y610452D01*
X428825Y613238D01*
X428822Y613258D01*
X428824Y613277D01*
X428802Y613379D01*
X428786Y613481D01*
X428776Y613498D01*
X428772Y613518D01*
X428719Y613607D01*
X428670Y613698D01*
X428656Y613712D01*
X428646Y613729D01*
X428567Y613796D01*
X428492Y613868D01*
X428474Y613876D01*
X428459Y613889D01*
X428363Y613928D01*
X428269Y613971D01*
X428249Y613973D01*
X428231Y613981D01*
X428064Y613999D01*
X425251Y613999D01*
X421465Y615567D01*
X418567Y618465D01*
X416999Y622251D01*
X416999Y626349D01*
X418567Y630135D01*
X421465Y633033D01*
X425251Y634601D01*
X434830Y634601D01*
X434920Y634615D01*
X435011Y634623D01*
X435040Y634635D01*
X435072Y634640D01*
X435153Y634683D01*
X435237Y634719D01*
X435269Y634745D01*
X435290Y634756D01*
X435312Y634779D01*
X435368Y634824D01*
X441794Y641250D01*
X441847Y641324D01*
X441907Y641394D01*
X441919Y641424D01*
X441938Y641450D01*
X441965Y641537D01*
X441999Y641622D01*
X442003Y641663D01*
X442010Y641685D01*
X442009Y641717D01*
X442017Y641788D01*
X442017Y648109D01*
X442012Y648141D01*
X442010Y648177D01*
X451938Y648177D01*
X451958Y648180D01*
X451977Y648178D01*
X452079Y648200D01*
X452181Y648217D01*
X452198Y648226D01*
X452218Y648230D01*
X452307Y648283D01*
X452398Y648332D01*
X452412Y648346D01*
X452429Y648356D01*
X452496Y648435D01*
X452567Y648510D01*
X452576Y648528D01*
X452589Y648543D01*
X452627Y648639D01*
X452671Y648733D01*
X452673Y648753D01*
X452681Y648771D01*
X452699Y648938D01*
X452699Y649701D01*
X453462Y649701D01*
X453482Y649704D01*
X453501Y649702D01*
X453603Y649724D01*
X453705Y649741D01*
X453722Y649750D01*
X453742Y649754D01*
X453831Y649807D01*
X453922Y649856D01*
X453936Y649870D01*
X453953Y649880D01*
X454020Y649959D01*
X454091Y650034D01*
X454100Y650052D01*
X454113Y650067D01*
X454152Y650163D01*
X454195Y650257D01*
X454197Y650277D01*
X454205Y650295D01*
X454223Y650462D01*
X454223Y660390D01*
X454291Y660383D01*
X461172Y660383D01*
X461192Y660386D01*
X461211Y660384D01*
X461313Y660406D01*
X461415Y660422D01*
X461432Y660432D01*
X461452Y660436D01*
X461541Y660489D01*
X461632Y660538D01*
X461646Y660552D01*
X461663Y660562D01*
X461730Y660641D01*
X461802Y660716D01*
X461810Y660734D01*
X461823Y660749D01*
X461862Y660845D01*
X461905Y660939D01*
X461907Y660959D01*
X461915Y660977D01*
X461933Y661144D01*
X461933Y666670D01*
X478330Y683067D01*
X498622Y683067D01*
X498642Y683070D01*
X498661Y683068D01*
X498763Y683090D01*
X498865Y683106D01*
X498882Y683116D01*
X498902Y683120D01*
X498991Y683173D01*
X499082Y683222D01*
X499096Y683236D01*
X499113Y683246D01*
X499180Y683325D01*
X499252Y683400D01*
X499260Y683418D01*
X499273Y683433D01*
X499312Y683529D01*
X499355Y683623D01*
X499357Y683643D01*
X499365Y683661D01*
X499383Y683828D01*
X499383Y691592D01*
X499380Y691612D01*
X499382Y691631D01*
X499360Y691733D01*
X499344Y691835D01*
X499334Y691852D01*
X499330Y691872D01*
X499277Y691961D01*
X499228Y692052D01*
X499214Y692066D01*
X499204Y692083D01*
X499125Y692150D01*
X499050Y692222D01*
X499032Y692230D01*
X499017Y692243D01*
X498921Y692282D01*
X498827Y692325D01*
X498807Y692327D01*
X498789Y692335D01*
X498622Y692353D01*
X492626Y692353D01*
X487769Y697210D01*
X487695Y697263D01*
X487625Y697323D01*
X487595Y697335D01*
X487569Y697354D01*
X487482Y697381D01*
X487397Y697415D01*
X487356Y697419D01*
X487334Y697426D01*
X487302Y697425D01*
X487230Y697433D01*
X463088Y697433D01*
X462973Y697414D01*
X462857Y697397D01*
X462851Y697395D01*
X462845Y697394D01*
X462742Y697339D01*
X462638Y697286D01*
X462633Y697281D01*
X462628Y697278D01*
X462548Y697194D01*
X462465Y697110D01*
X462462Y697104D01*
X462458Y697100D01*
X462450Y697083D01*
X462384Y696963D01*
X461433Y694665D01*
X458535Y691767D01*
X454749Y690199D01*
X450651Y690199D01*
X446865Y691767D01*
X443967Y694665D01*
X442399Y698451D01*
X442399Y702549D01*
X443967Y706335D01*
X446865Y709233D01*
X450651Y710801D01*
X454749Y710801D01*
X458535Y709233D01*
X461433Y706335D01*
X462384Y704037D01*
X462446Y703937D01*
X462506Y703837D01*
X462511Y703833D01*
X462514Y703828D01*
X462604Y703753D01*
X462693Y703677D01*
X462699Y703675D01*
X462704Y703671D01*
X462812Y703629D01*
X462921Y703585D01*
X462929Y703584D01*
X462933Y703583D01*
X462951Y703582D01*
X463088Y703567D01*
X487230Y703567D01*
X487320Y703581D01*
X487411Y703589D01*
X487441Y703601D01*
X487473Y703606D01*
X487554Y703649D01*
X487638Y703685D01*
X487670Y703711D01*
X487690Y703722D01*
X487713Y703745D01*
X487769Y703790D01*
X492626Y708647D01*
X498622Y708647D01*
X498642Y708650D01*
X498661Y708648D01*
X498763Y708670D01*
X498865Y708686D01*
X498882Y708696D01*
X498902Y708700D01*
X498991Y708753D01*
X499082Y708802D01*
X499096Y708816D01*
X499113Y708826D01*
X499180Y708905D01*
X499252Y708980D01*
X499260Y708998D01*
X499273Y709013D01*
X499312Y709109D01*
X499355Y709203D01*
X499357Y709223D01*
X499365Y709241D01*
X499383Y709408D01*
X499383Y714464D01*
X499369Y714555D01*
X499361Y714645D01*
X499349Y714675D01*
X499344Y714707D01*
X499301Y714788D01*
X499265Y714872D01*
X499239Y714904D01*
X499228Y714925D01*
X499205Y714947D01*
X499160Y715003D01*
X491553Y722610D01*
X491479Y722663D01*
X491409Y722723D01*
X491379Y722735D01*
X491353Y722754D01*
X491266Y722781D01*
X491181Y722815D01*
X491140Y722819D01*
X491118Y722826D01*
X491086Y722825D01*
X491014Y722833D01*
X463088Y722833D01*
X462973Y722814D01*
X462857Y722797D01*
X462851Y722795D01*
X462845Y722794D01*
X462742Y722739D01*
X462638Y722686D01*
X462633Y722681D01*
X462628Y722678D01*
X462548Y722594D01*
X462465Y722510D01*
X462462Y722504D01*
X462458Y722500D01*
X462450Y722483D01*
X462384Y722363D01*
X461433Y720065D01*
X458535Y717167D01*
X454749Y715599D01*
X450651Y715599D01*
X446865Y717167D01*
X443967Y720065D01*
X442399Y723851D01*
X442399Y727949D01*
X443967Y731735D01*
X446865Y734633D01*
X450651Y736201D01*
X454749Y736201D01*
X458535Y734633D01*
X461433Y731735D01*
X462384Y729437D01*
X462446Y729337D01*
X462506Y729237D01*
X462511Y729233D01*
X462514Y729228D01*
X462604Y729153D01*
X462693Y729077D01*
X462699Y729075D01*
X462704Y729071D01*
X462812Y729029D01*
X462921Y728985D01*
X462929Y728984D01*
X462933Y728983D01*
X462951Y728982D01*
X463088Y728967D01*
X493870Y728967D01*
X513967Y708870D01*
X514041Y708817D01*
X514111Y708757D01*
X514141Y708745D01*
X514167Y708726D01*
X514254Y708699D01*
X514339Y708665D01*
X514380Y708661D01*
X514402Y708654D01*
X514434Y708655D01*
X514506Y708647D01*
X543374Y708647D01*
X548147Y703874D01*
X548147Y697006D01*
X548161Y696916D01*
X548169Y696825D01*
X548181Y696795D01*
X548186Y696763D01*
X548229Y696682D01*
X548265Y696598D01*
X548291Y696566D01*
X548302Y696545D01*
X548325Y696523D01*
X548370Y696467D01*
X563067Y681770D01*
X563067Y661812D01*
X563070Y661792D01*
X563068Y661773D01*
X563090Y661671D01*
X563106Y661569D01*
X563116Y661552D01*
X563120Y661532D01*
X563173Y661443D01*
X563222Y661352D01*
X563236Y661338D01*
X563246Y661321D01*
X563325Y661254D01*
X563400Y661182D01*
X563418Y661174D01*
X563433Y661161D01*
X563529Y661122D01*
X563623Y661079D01*
X563643Y661077D01*
X563661Y661069D01*
X563828Y661051D01*
X565349Y661051D01*
X566551Y659849D01*
X566551Y650883D01*
X566545Y650829D01*
X566545Y650171D01*
X566551Y650134D01*
X566551Y643883D01*
X566545Y643829D01*
X566545Y643171D01*
X566551Y643134D01*
X566551Y636883D01*
X566545Y636829D01*
X566545Y636171D01*
X566551Y636134D01*
X566551Y629883D01*
X566545Y629829D01*
X566545Y629171D01*
X566551Y629134D01*
X566551Y628582D01*
X566554Y628562D01*
X566552Y628543D01*
X566574Y628441D01*
X566590Y628339D01*
X566600Y628322D01*
X566604Y628302D01*
X566657Y628213D01*
X566706Y628122D01*
X566720Y628108D01*
X566730Y628091D01*
X566809Y628024D01*
X566884Y627952D01*
X566902Y627944D01*
X566917Y627931D01*
X567013Y627892D01*
X567107Y627849D01*
X567127Y627847D01*
X567145Y627839D01*
X567312Y627821D01*
X570376Y627821D01*
X572544Y625653D01*
X573923Y624274D01*
X573997Y624221D01*
X574066Y624161D01*
X574096Y624149D01*
X574122Y624130D01*
X574209Y624103D01*
X574294Y624069D01*
X574335Y624065D01*
X574357Y624058D01*
X574390Y624059D01*
X574461Y624051D01*
X581539Y624051D01*
X581629Y624065D01*
X581720Y624073D01*
X581750Y624085D01*
X581782Y624090D01*
X581863Y624133D01*
X581946Y624169D01*
X581979Y624195D01*
X581999Y624206D01*
X582021Y624229D01*
X582077Y624274D01*
X582856Y625053D01*
X582909Y625126D01*
X582969Y625196D01*
X582981Y625226D01*
X583000Y625252D01*
X583027Y625339D01*
X583061Y625424D01*
X583065Y625465D01*
X583072Y625487D01*
X583071Y625520D01*
X583079Y625591D01*
X583079Y632295D01*
X583065Y632385D01*
X583057Y632476D01*
X583045Y632506D01*
X583040Y632537D01*
X582997Y632618D01*
X582961Y632702D01*
X582935Y632734D01*
X582924Y632755D01*
X582901Y632777D01*
X582856Y632833D01*
X581301Y634388D01*
X581301Y638612D01*
X584288Y641599D01*
X588512Y641599D01*
X591499Y638612D01*
X591499Y634388D01*
X589944Y632833D01*
X589891Y632759D01*
X589831Y632690D01*
X589819Y632660D01*
X589800Y632633D01*
X589773Y632546D01*
X589739Y632461D01*
X589735Y632421D01*
X589728Y632398D01*
X589729Y632366D01*
X589721Y632295D01*
X589721Y625302D01*
X589724Y625282D01*
X589722Y625263D01*
X589744Y625161D01*
X589760Y625059D01*
X589770Y625042D01*
X589774Y625022D01*
X589827Y624933D01*
X589876Y624842D01*
X589890Y624828D01*
X589900Y624811D01*
X589979Y624744D01*
X590054Y624672D01*
X590072Y624664D01*
X590087Y624651D01*
X590183Y624612D01*
X590277Y624569D01*
X590297Y624567D01*
X590315Y624559D01*
X590482Y624541D01*
X595477Y624541D01*
X595477Y615262D01*
X595480Y615242D01*
X595478Y615223D01*
X595500Y615121D01*
X595517Y615019D01*
X595526Y615002D01*
X595530Y614982D01*
X595583Y614893D01*
X595632Y614802D01*
X595646Y614788D01*
X595656Y614771D01*
X595735Y614704D01*
X595810Y614633D01*
X595828Y614624D01*
X595843Y614611D01*
X595939Y614572D01*
X596033Y614529D01*
X596053Y614527D01*
X596071Y614519D01*
X596238Y614501D01*
X597001Y614501D01*
X597001Y614499D01*
X596238Y614499D01*
X596218Y614496D01*
X596199Y614498D01*
X596097Y614476D01*
X595995Y614459D01*
X595978Y614450D01*
X595958Y614446D01*
X595869Y614393D01*
X595778Y614344D01*
X595764Y614330D01*
X595747Y614320D01*
X595680Y614241D01*
X595609Y614166D01*
X595600Y614148D01*
X595587Y614133D01*
X595548Y614037D01*
X595505Y613943D01*
X595503Y613923D01*
X595495Y613905D01*
X595477Y613738D01*
X595477Y604371D01*
X595454Y604361D01*
X570648Y604361D01*
X570647Y604362D01*
X570647Y604637D01*
X570633Y604727D01*
X570625Y604818D01*
X570613Y604848D01*
X570608Y604880D01*
X570565Y604961D01*
X570529Y605045D01*
X570503Y605077D01*
X570492Y605097D01*
X570469Y605120D01*
X570424Y605176D01*
X569449Y606151D01*
X569449Y614516D01*
X569435Y614606D01*
X569427Y614697D01*
X569415Y614726D01*
X569410Y614758D01*
X569367Y614839D01*
X569331Y614923D01*
X569305Y614955D01*
X569294Y614976D01*
X569271Y614998D01*
X569226Y615054D01*
X565554Y618726D01*
X565480Y618779D01*
X565410Y618839D01*
X565380Y618851D01*
X565354Y618870D01*
X565267Y618897D01*
X565182Y618931D01*
X565141Y618935D01*
X565119Y618942D01*
X565087Y618941D01*
X565016Y618949D01*
X557884Y618949D01*
X557794Y618935D01*
X557703Y618927D01*
X557674Y618915D01*
X557642Y618910D01*
X557561Y618867D01*
X557477Y618831D01*
X557445Y618805D01*
X557424Y618794D01*
X557402Y618771D01*
X557346Y618726D01*
X553258Y614638D01*
X553205Y614564D01*
X553145Y614494D01*
X553133Y614464D01*
X553114Y614438D01*
X553087Y614351D01*
X553053Y614266D01*
X553049Y614225D01*
X553042Y614203D01*
X553043Y614171D01*
X553035Y614100D01*
X553035Y593957D01*
X553037Y593941D01*
X553035Y593926D01*
X553041Y593891D01*
X553041Y588523D01*
X543762Y588523D01*
X543742Y588520D01*
X543723Y588522D01*
X543621Y588500D01*
X543519Y588483D01*
X543502Y588474D01*
X543482Y588470D01*
X543393Y588417D01*
X543302Y588368D01*
X543288Y588354D01*
X543271Y588344D01*
X543204Y588265D01*
X543133Y588190D01*
X543124Y588172D01*
X543111Y588157D01*
X543072Y588061D01*
X543029Y587967D01*
X543027Y587947D01*
X543019Y587929D01*
X543001Y587762D01*
X543001Y586999D01*
X542999Y586999D01*
X542999Y587762D01*
X542996Y587782D01*
X542998Y587801D01*
X542976Y587903D01*
X542959Y588005D01*
X542950Y588022D01*
X542946Y588042D01*
X542893Y588131D01*
X542844Y588222D01*
X542830Y588236D01*
X542820Y588253D01*
X542741Y588320D01*
X542666Y588391D01*
X542648Y588400D01*
X542633Y588413D01*
X542537Y588452D01*
X542443Y588495D01*
X542423Y588497D01*
X542405Y588505D01*
X542238Y588523D01*
X532959Y588523D01*
X532959Y591318D01*
X532956Y591338D01*
X532958Y591357D01*
X532936Y591459D01*
X532920Y591561D01*
X532910Y591578D01*
X532906Y591598D01*
X532853Y591687D01*
X532804Y591778D01*
X532790Y591792D01*
X532780Y591809D01*
X532701Y591876D01*
X532626Y591948D01*
X532608Y591956D01*
X532593Y591969D01*
X532497Y592008D01*
X532403Y592051D01*
X532383Y592053D01*
X532365Y592061D01*
X532198Y592079D01*
X504516Y592079D01*
X504426Y592065D01*
X504335Y592057D01*
X504305Y592045D01*
X504273Y592040D01*
X504192Y591997D01*
X504108Y591961D01*
X504076Y591935D01*
X504056Y591924D01*
X504033Y591901D01*
X503978Y591856D01*
X499374Y587253D01*
X492626Y587253D01*
X487853Y592026D01*
X487853Y598774D01*
X492626Y603547D01*
X499374Y603547D01*
X503978Y598944D01*
X504051Y598891D01*
X504121Y598831D01*
X504151Y598819D01*
X504177Y598800D01*
X504264Y598773D01*
X504349Y598739D01*
X504390Y598735D01*
X504412Y598728D01*
X504445Y598729D01*
X504516Y598721D01*
X529709Y598721D01*
X529799Y598735D01*
X529890Y598743D01*
X529920Y598755D01*
X529952Y598760D01*
X530033Y598803D01*
X530116Y598839D01*
X530149Y598865D01*
X530169Y598876D01*
X530191Y598899D01*
X530247Y598944D01*
X533226Y601923D01*
X533279Y601996D01*
X533339Y602066D01*
X533351Y602096D01*
X533370Y602122D01*
X533397Y602209D01*
X533431Y602294D01*
X533435Y602335D01*
X533442Y602357D01*
X533441Y602390D01*
X533449Y602461D01*
X533449Y612200D01*
X533446Y612220D01*
X533448Y612239D01*
X533426Y612341D01*
X533410Y612443D01*
X533400Y612460D01*
X533396Y612480D01*
X533343Y612569D01*
X533294Y612660D01*
X533280Y612674D01*
X533270Y612691D01*
X533191Y612758D01*
X533116Y612830D01*
X533098Y612838D01*
X533083Y612851D01*
X532987Y612890D01*
X532893Y612933D01*
X532873Y612935D01*
X532855Y612943D01*
X532688Y612961D01*
X509942Y612961D01*
X509930Y612959D01*
X509922Y612959D01*
X509911Y612961D01*
X509902Y612959D01*
X504523Y612959D01*
X504523Y622238D01*
X504520Y622258D01*
X504522Y622277D01*
X504500Y622379D01*
X504483Y622481D01*
X504474Y622498D01*
X504470Y622518D01*
X504417Y622607D01*
X504368Y622698D01*
X504354Y622712D01*
X504344Y622729D01*
X504265Y622796D01*
X504190Y622867D01*
X504172Y622876D01*
X504157Y622889D01*
X504061Y622928D01*
X503967Y622971D01*
X503947Y622973D01*
X503929Y622981D01*
X503762Y622999D01*
X502999Y622999D01*
X502999Y623001D01*
X503762Y623001D01*
X503782Y623004D01*
X503801Y623002D01*
X503903Y623024D01*
X504005Y623041D01*
X504022Y623050D01*
X504042Y623054D01*
X504131Y623107D01*
X504222Y623156D01*
X504236Y623170D01*
X504253Y623180D01*
X504320Y623259D01*
X504391Y623334D01*
X504400Y623352D01*
X504413Y623367D01*
X504452Y623463D01*
X504495Y623557D01*
X504497Y623577D01*
X504505Y623595D01*
X504523Y623762D01*
X504523Y633801D01*
X504523Y633802D01*
X504523Y639198D01*
X504523Y639199D01*
X504523Y649238D01*
X504520Y649258D01*
X504522Y649277D01*
X504500Y649379D01*
X504483Y649481D01*
X504474Y649498D01*
X504470Y649518D01*
X504417Y649607D01*
X504368Y649698D01*
X504354Y649712D01*
X504344Y649729D01*
X504265Y649796D01*
X504190Y649867D01*
X504172Y649876D01*
X504157Y649889D01*
X504061Y649928D01*
X503967Y649971D01*
X503947Y649973D01*
X503929Y649981D01*
X503762Y649999D01*
X502999Y649999D01*
X502999Y650001D01*
X503762Y650001D01*
X503782Y650004D01*
X503801Y650002D01*
X503903Y650024D01*
X504005Y650041D01*
X504022Y650050D01*
X504042Y650054D01*
X504131Y650107D01*
X504222Y650156D01*
X504236Y650170D01*
X504253Y650180D01*
X504320Y650259D01*
X504391Y650334D01*
X504400Y650352D01*
X504413Y650367D01*
X504452Y650463D01*
X504495Y650557D01*
X504497Y650577D01*
X504505Y650595D01*
X504523Y650762D01*
X504523Y660041D01*
X509892Y660041D01*
X509965Y660033D01*
X530548Y660033D01*
X530549Y660032D01*
X530549Y658667D01*
X530551Y658655D01*
X530551Y646762D01*
X530554Y646742D01*
X530552Y646723D01*
X530574Y646621D01*
X530590Y646519D01*
X530600Y646502D01*
X530604Y646482D01*
X530657Y646393D01*
X530706Y646302D01*
X530720Y646288D01*
X530730Y646271D01*
X530809Y646204D01*
X530884Y646132D01*
X530902Y646124D01*
X530917Y646111D01*
X531013Y646072D01*
X531107Y646029D01*
X531127Y646027D01*
X531145Y646019D01*
X531312Y646001D01*
X539762Y646001D01*
X539781Y646004D01*
X539801Y646002D01*
X539903Y646024D01*
X540005Y646040D01*
X540022Y646050D01*
X540042Y646054D01*
X540131Y646107D01*
X540222Y646156D01*
X540236Y646170D01*
X540253Y646180D01*
X540320Y646259D01*
X540391Y646334D01*
X540400Y646352D01*
X540413Y646367D01*
X540451Y646463D01*
X540495Y646557D01*
X540497Y646577D01*
X540505Y646595D01*
X540523Y646762D01*
X540523Y647238D01*
X540520Y647258D01*
X540522Y647277D01*
X540500Y647379D01*
X540483Y647481D01*
X540474Y647498D01*
X540470Y647518D01*
X540417Y647607D01*
X540368Y647698D01*
X540354Y647712D01*
X540344Y647729D01*
X540265Y647796D01*
X540190Y647868D01*
X540172Y647876D01*
X540157Y647889D01*
X540060Y647928D01*
X539967Y647971D01*
X539947Y647973D01*
X539929Y647981D01*
X539762Y647999D01*
X532959Y647999D01*
X532959Y659621D01*
X533565Y660227D01*
X533591Y660231D01*
X533682Y660239D01*
X533712Y660251D01*
X533744Y660256D01*
X533825Y660299D01*
X533909Y660335D01*
X533941Y660361D01*
X533961Y660372D01*
X533984Y660395D01*
X534040Y660440D01*
X534651Y661051D01*
X536172Y661051D01*
X536192Y661054D01*
X536211Y661052D01*
X536313Y661074D01*
X536415Y661090D01*
X536432Y661100D01*
X536452Y661104D01*
X536541Y661157D01*
X536632Y661206D01*
X536646Y661220D01*
X536663Y661230D01*
X536730Y661309D01*
X536802Y661384D01*
X536810Y661402D01*
X536823Y661417D01*
X536862Y661513D01*
X536905Y661607D01*
X536907Y661627D01*
X536915Y661645D01*
X536933Y661812D01*
X536933Y669114D01*
X536919Y669204D01*
X536911Y669295D01*
X536899Y669325D01*
X536894Y669357D01*
X536851Y669438D01*
X536815Y669522D01*
X536789Y669554D01*
X536778Y669575D01*
X536755Y669597D01*
X536710Y669653D01*
X534725Y671638D01*
X534651Y671691D01*
X534581Y671751D01*
X534551Y671763D01*
X534525Y671782D01*
X534438Y671809D01*
X534353Y671843D01*
X534312Y671847D01*
X534290Y671854D01*
X534258Y671853D01*
X534186Y671861D01*
X527298Y671861D01*
X527249Y671853D01*
X520226Y671853D01*
X515369Y676710D01*
X515295Y676763D01*
X515225Y676823D01*
X515195Y676835D01*
X515169Y676854D01*
X515082Y676881D01*
X514997Y676915D01*
X514956Y676919D01*
X514934Y676926D01*
X514902Y676925D01*
X514830Y676933D01*
X481186Y676933D01*
X481096Y676919D01*
X481005Y676911D01*
X480975Y676899D01*
X480943Y676894D01*
X480862Y676851D01*
X480778Y676815D01*
X480746Y676789D01*
X480725Y676778D01*
X480703Y676755D01*
X480647Y676710D01*
X468290Y664353D01*
X468237Y664279D01*
X468177Y664209D01*
X468165Y664179D01*
X468146Y664153D01*
X468119Y664066D01*
X468085Y663981D01*
X468081Y663940D01*
X468074Y663918D01*
X468075Y663886D01*
X468067Y663814D01*
X468067Y645446D01*
X468071Y645421D01*
X468071Y593990D01*
X468067Y593954D01*
X468067Y566730D01*
X463214Y561877D01*
X463161Y561803D01*
X463101Y561733D01*
X463089Y561703D01*
X463070Y561677D01*
X463043Y561590D01*
X463009Y561505D01*
X463005Y561464D01*
X462998Y561442D01*
X462999Y561410D01*
X462991Y561338D01*
X462991Y550325D01*
X463001Y550263D01*
X463001Y546051D01*
X461433Y542265D01*
X458535Y539367D01*
X454749Y537799D01*
X450559Y537799D01*
X450532Y537805D01*
X450513Y537804D01*
X450480Y537807D01*
X447442Y537807D01*
X447352Y537793D01*
X447261Y537785D01*
X447232Y537773D01*
X447200Y537768D01*
X447119Y537725D01*
X447035Y537689D01*
X447003Y537663D01*
X446982Y537652D01*
X446960Y537629D01*
X446904Y537584D01*
X438202Y528882D01*
X438149Y528808D01*
X438089Y528738D01*
X438077Y528708D01*
X438058Y528682D01*
X438031Y528595D01*
X437997Y528510D01*
X437993Y528469D01*
X437986Y528447D01*
X437987Y528415D01*
X437979Y528344D01*
X437979Y524316D01*
X437984Y524284D01*
X437987Y524223D01*
X428062Y524223D01*
X428042Y524220D01*
X428023Y524222D01*
X427921Y524200D01*
X427819Y524183D01*
X427802Y524174D01*
X427782Y524170D01*
X427693Y524117D01*
X427602Y524068D01*
X427588Y524054D01*
X427571Y524044D01*
X427504Y523965D01*
X427433Y523890D01*
X427424Y523872D01*
X427411Y523857D01*
X427373Y523761D01*
X427329Y523667D01*
X427327Y523647D01*
X427319Y523629D01*
X427301Y523462D01*
X427301Y522699D01*
X427299Y522699D01*
G37*
%LPD*%
%LPC*%
G36*
X425251Y258399D02*
X425251Y258399D01*
X421465Y259967D01*
X418567Y262865D01*
X416999Y266651D01*
X416999Y274348D01*
X416985Y274438D01*
X416977Y274529D01*
X416965Y274559D01*
X416960Y274591D01*
X416917Y274672D01*
X416881Y274756D01*
X416855Y274788D01*
X416844Y274809D01*
X416821Y274831D01*
X416776Y274887D01*
X412833Y278830D01*
X412833Y298114D01*
X412819Y298204D01*
X412811Y298295D01*
X412799Y298325D01*
X412794Y298357D01*
X412751Y298438D01*
X412715Y298522D01*
X412689Y298554D01*
X412678Y298575D01*
X412655Y298597D01*
X412610Y298653D01*
X356833Y354430D01*
X356833Y392814D01*
X356819Y392904D01*
X356811Y392995D01*
X356799Y393025D01*
X356794Y393057D01*
X356751Y393138D01*
X356715Y393222D01*
X356689Y393254D01*
X356678Y393275D01*
X356655Y393297D01*
X356610Y393353D01*
X341953Y408010D01*
X341879Y408063D01*
X341809Y408123D01*
X341779Y408135D01*
X341753Y408154D01*
X341666Y408181D01*
X341581Y408215D01*
X341540Y408219D01*
X341518Y408226D01*
X341486Y408225D01*
X341414Y408233D01*
X313930Y408233D01*
X310665Y411498D01*
X310591Y411551D01*
X310521Y411611D01*
X310491Y411623D01*
X310465Y411642D01*
X310378Y411669D01*
X310293Y411703D01*
X310252Y411707D01*
X310230Y411714D01*
X310198Y411713D01*
X310126Y411721D01*
X303729Y411721D01*
X303712Y411723D01*
X300762Y411723D01*
X300742Y411720D01*
X300723Y411722D01*
X300621Y411700D01*
X300519Y411683D01*
X300502Y411674D01*
X300482Y411670D01*
X300393Y411617D01*
X300302Y411568D01*
X300288Y411554D01*
X300271Y411544D01*
X300204Y411465D01*
X300133Y411390D01*
X300124Y411372D01*
X300111Y411357D01*
X300073Y411261D01*
X300029Y411167D01*
X300027Y411147D01*
X300019Y411129D01*
X300001Y410962D01*
X300001Y409438D01*
X300004Y409418D01*
X300002Y409399D01*
X300024Y409297D01*
X300041Y409195D01*
X300050Y409178D01*
X300054Y409158D01*
X300107Y409069D01*
X300156Y408978D01*
X300170Y408964D01*
X300180Y408947D01*
X300259Y408880D01*
X300334Y408809D01*
X300352Y408800D01*
X300367Y408787D01*
X300463Y408748D01*
X300557Y408705D01*
X300577Y408703D01*
X300595Y408695D01*
X300762Y408677D01*
X308637Y408677D01*
X308637Y406708D01*
X308651Y406618D01*
X308659Y406527D01*
X308671Y406498D01*
X308676Y406466D01*
X308719Y406385D01*
X308755Y406301D01*
X308781Y406269D01*
X308792Y406248D01*
X308815Y406226D01*
X308860Y406170D01*
X314240Y400790D01*
X314314Y400737D01*
X314384Y400677D01*
X314414Y400665D01*
X314440Y400646D01*
X314527Y400619D01*
X314612Y400585D01*
X314653Y400581D01*
X314675Y400574D01*
X314707Y400575D01*
X314778Y400567D01*
X332470Y400567D01*
X334667Y398370D01*
X334741Y398317D01*
X334811Y398257D01*
X334841Y398245D01*
X334867Y398226D01*
X334954Y398199D01*
X335039Y398165D01*
X335080Y398161D01*
X335102Y398154D01*
X335134Y398155D01*
X335206Y398147D01*
X342074Y398147D01*
X346847Y393374D01*
X346847Y386626D01*
X341990Y381769D01*
X341936Y381694D01*
X341877Y381625D01*
X341865Y381595D01*
X341846Y381569D01*
X341819Y381482D01*
X341785Y381397D01*
X341781Y381356D01*
X341774Y381334D01*
X341775Y381302D01*
X341767Y381230D01*
X341767Y373770D01*
X341781Y373680D01*
X341789Y373589D01*
X341801Y373559D01*
X341806Y373527D01*
X341849Y373446D01*
X341885Y373362D01*
X341911Y373330D01*
X341922Y373310D01*
X341945Y373287D01*
X341990Y373231D01*
X346847Y368374D01*
X346847Y361626D01*
X342074Y356853D01*
X335326Y356853D01*
X330553Y361626D01*
X330553Y368374D01*
X335410Y373231D01*
X335463Y373305D01*
X335523Y373375D01*
X335535Y373405D01*
X335554Y373431D01*
X335581Y373518D01*
X335615Y373603D01*
X335619Y373644D01*
X335626Y373666D01*
X335625Y373698D01*
X335633Y373770D01*
X335633Y381230D01*
X335619Y381320D01*
X335611Y381411D01*
X335599Y381441D01*
X335594Y381473D01*
X335551Y381554D01*
X335515Y381638D01*
X335489Y381670D01*
X335478Y381690D01*
X335455Y381713D01*
X335410Y381769D01*
X330553Y386626D01*
X330553Y393494D01*
X330539Y393584D01*
X330531Y393675D01*
X330519Y393705D01*
X330514Y393737D01*
X330471Y393818D01*
X330435Y393902D01*
X330409Y393934D01*
X330398Y393955D01*
X330375Y393977D01*
X330330Y394033D01*
X330153Y394210D01*
X330079Y394263D01*
X330009Y394323D01*
X329979Y394335D01*
X329953Y394354D01*
X329866Y394381D01*
X329781Y394415D01*
X329740Y394419D01*
X329718Y394426D01*
X329686Y394425D01*
X329614Y394433D01*
X308910Y394433D01*
X308890Y394430D01*
X308871Y394432D01*
X308769Y394410D01*
X308667Y394394D01*
X308650Y394384D01*
X308630Y394380D01*
X308541Y394327D01*
X308450Y394278D01*
X308436Y394264D01*
X308419Y394254D01*
X308352Y394175D01*
X308280Y394100D01*
X308272Y394082D01*
X308259Y394067D01*
X308220Y393971D01*
X308177Y393877D01*
X308175Y393857D01*
X308167Y393839D01*
X308149Y393672D01*
X308149Y384080D01*
X308147Y384062D01*
X308147Y381426D01*
X303374Y376653D01*
X296506Y376653D01*
X296416Y376639D01*
X296325Y376631D01*
X296295Y376619D01*
X296263Y376614D01*
X296182Y376571D01*
X296098Y376535D01*
X296066Y376509D01*
X296045Y376498D01*
X296023Y376475D01*
X295967Y376430D01*
X276470Y356933D01*
X260470Y356933D01*
X260380Y356919D01*
X260289Y356911D01*
X260259Y356899D01*
X260227Y356894D01*
X260146Y356851D01*
X260062Y356815D01*
X260030Y356789D01*
X260010Y356778D01*
X259987Y356755D01*
X259931Y356710D01*
X255074Y351853D01*
X248326Y351853D01*
X243553Y356626D01*
X243553Y363374D01*
X248326Y368147D01*
X255074Y368147D01*
X259931Y363290D01*
X260005Y363237D01*
X260075Y363177D01*
X260105Y363165D01*
X260131Y363146D01*
X260218Y363119D01*
X260303Y363085D01*
X260344Y363081D01*
X260366Y363074D01*
X260398Y363075D01*
X260470Y363067D01*
X273614Y363067D01*
X273704Y363081D01*
X273795Y363089D01*
X273825Y363101D01*
X273857Y363106D01*
X273938Y363149D01*
X274022Y363185D01*
X274054Y363211D01*
X274075Y363222D01*
X274097Y363245D01*
X274153Y363290D01*
X291630Y380767D01*
X291683Y380841D01*
X291743Y380911D01*
X291755Y380941D01*
X291774Y380967D01*
X291801Y381054D01*
X291835Y381139D01*
X291839Y381180D01*
X291846Y381202D01*
X291845Y381234D01*
X291853Y381306D01*
X291853Y387186D01*
X291839Y387276D01*
X291831Y387367D01*
X291819Y387396D01*
X291814Y387428D01*
X291771Y387509D01*
X291735Y387593D01*
X291709Y387625D01*
X291698Y387646D01*
X291675Y387668D01*
X291630Y387724D01*
X290220Y389134D01*
X290146Y389187D01*
X290076Y389247D01*
X290046Y389259D01*
X290020Y389278D01*
X289933Y389305D01*
X289848Y389339D01*
X289807Y389343D01*
X289785Y389350D01*
X289753Y389349D01*
X289682Y389357D01*
X284644Y389357D01*
X284619Y389353D01*
X277576Y389353D01*
X272803Y394126D01*
X272803Y400874D01*
X277576Y405647D01*
X289264Y405647D01*
X289354Y405661D01*
X289445Y405669D01*
X289474Y405681D01*
X289506Y405686D01*
X289587Y405729D01*
X289671Y405765D01*
X289703Y405791D01*
X289724Y405802D01*
X289746Y405825D01*
X289802Y405870D01*
X291140Y407208D01*
X291193Y407282D01*
X291253Y407352D01*
X291265Y407382D01*
X291284Y407408D01*
X291311Y407495D01*
X291345Y407580D01*
X291349Y407621D01*
X291356Y407643D01*
X291355Y407675D01*
X291363Y407746D01*
X291363Y408677D01*
X292294Y408677D01*
X292384Y408692D01*
X292475Y408699D01*
X292504Y408711D01*
X292536Y408717D01*
X292617Y408759D01*
X292701Y408795D01*
X292733Y408821D01*
X292754Y408832D01*
X292776Y408855D01*
X292832Y408900D01*
X293067Y409135D01*
X293909Y409135D01*
X294144Y408900D01*
X294218Y408847D01*
X294288Y408787D01*
X294318Y408775D01*
X294344Y408756D01*
X294431Y408729D01*
X294516Y408695D01*
X294557Y408691D01*
X294579Y408684D01*
X294611Y408685D01*
X294682Y408677D01*
X299238Y408677D01*
X299258Y408680D01*
X299277Y408678D01*
X299379Y408700D01*
X299481Y408717D01*
X299498Y408726D01*
X299518Y408730D01*
X299607Y408783D01*
X299698Y408832D01*
X299712Y408846D01*
X299729Y408856D01*
X299796Y408935D01*
X299867Y409010D01*
X299876Y409028D01*
X299889Y409043D01*
X299927Y409139D01*
X299971Y409233D01*
X299973Y409253D01*
X299981Y409271D01*
X299999Y409438D01*
X299999Y410962D01*
X299996Y410982D01*
X299998Y411001D01*
X299976Y411103D01*
X299959Y411205D01*
X299950Y411222D01*
X299946Y411242D01*
X299893Y411331D01*
X299844Y411422D01*
X299830Y411436D01*
X299820Y411453D01*
X299741Y411520D01*
X299666Y411591D01*
X299648Y411600D01*
X299633Y411613D01*
X299537Y411652D01*
X299443Y411695D01*
X299423Y411697D01*
X299405Y411705D01*
X299238Y411723D01*
X291363Y411723D01*
X291363Y416472D01*
X291360Y416492D01*
X291362Y416511D01*
X291340Y416613D01*
X291324Y416715D01*
X291314Y416732D01*
X291310Y416752D01*
X291257Y416841D01*
X291208Y416932D01*
X291194Y416946D01*
X291184Y416963D01*
X291105Y417030D01*
X291030Y417102D01*
X291012Y417110D01*
X290997Y417123D01*
X290901Y417162D01*
X290807Y417205D01*
X290787Y417207D01*
X290769Y417215D01*
X290602Y417233D01*
X219430Y417233D01*
X188133Y448530D01*
X188133Y605170D01*
X225930Y642967D01*
X225983Y643041D01*
X226043Y643111D01*
X226055Y643141D01*
X226074Y643167D01*
X226101Y643254D01*
X226135Y643339D01*
X226139Y643380D01*
X226146Y643402D01*
X226145Y643434D01*
X226153Y643506D01*
X226153Y650374D01*
X230926Y655147D01*
X237674Y655147D01*
X242447Y650374D01*
X242447Y643626D01*
X237674Y638853D01*
X230806Y638853D01*
X230716Y638839D01*
X230625Y638831D01*
X230595Y638819D01*
X230563Y638814D01*
X230482Y638771D01*
X230398Y638735D01*
X230366Y638709D01*
X230345Y638698D01*
X230323Y638675D01*
X230267Y638630D01*
X194490Y602853D01*
X194437Y602779D01*
X194377Y602709D01*
X194365Y602679D01*
X194346Y602653D01*
X194319Y602566D01*
X194285Y602481D01*
X194281Y602440D01*
X194274Y602418D01*
X194275Y602386D01*
X194267Y602314D01*
X194267Y566804D01*
X194281Y566714D01*
X194289Y566623D01*
X194301Y566594D01*
X194306Y566562D01*
X194349Y566481D01*
X194385Y566397D01*
X194411Y566365D01*
X194422Y566344D01*
X194445Y566322D01*
X194490Y566266D01*
X196771Y563985D01*
X196787Y563973D01*
X196800Y563958D01*
X196887Y563901D01*
X196971Y563841D01*
X196990Y563835D01*
X197007Y563825D01*
X197107Y563799D01*
X197206Y563769D01*
X197226Y563769D01*
X197245Y563764D01*
X197348Y563773D01*
X197452Y563775D01*
X197471Y563782D01*
X197490Y563784D01*
X197585Y563824D01*
X197683Y563860D01*
X197699Y563872D01*
X197717Y563880D01*
X197848Y563985D01*
X217630Y583767D01*
X273996Y583767D01*
X274086Y583781D01*
X274177Y583789D01*
X274206Y583801D01*
X274238Y583806D01*
X274319Y583849D01*
X274403Y583885D01*
X274435Y583911D01*
X274456Y583922D01*
X274478Y583945D01*
X274534Y583990D01*
X276930Y586386D01*
X276983Y586460D01*
X277043Y586530D01*
X277055Y586560D01*
X277074Y586586D01*
X277101Y586673D01*
X277135Y586758D01*
X277139Y586799D01*
X277146Y586821D01*
X277145Y586853D01*
X277153Y586924D01*
X277153Y593374D01*
X282010Y598232D01*
X282063Y598305D01*
X282123Y598375D01*
X282135Y598405D01*
X282154Y598431D01*
X282181Y598518D01*
X282215Y598603D01*
X282219Y598644D01*
X282226Y598666D01*
X282225Y598699D01*
X282233Y598770D01*
X282233Y602230D01*
X282219Y602320D01*
X282211Y602411D01*
X282199Y602441D01*
X282194Y602473D01*
X282151Y602554D01*
X282115Y602638D01*
X282089Y602670D01*
X282078Y602690D01*
X282055Y602713D01*
X282010Y602768D01*
X277153Y607626D01*
X277153Y614374D01*
X281926Y619147D01*
X286094Y619147D01*
X286114Y619150D01*
X286133Y619148D01*
X286235Y619170D01*
X286337Y619186D01*
X286354Y619196D01*
X286374Y619200D01*
X286463Y619253D01*
X286554Y619302D01*
X286568Y619316D01*
X286585Y619326D01*
X286652Y619405D01*
X286724Y619480D01*
X286732Y619498D01*
X286745Y619513D01*
X286784Y619609D01*
X286827Y619703D01*
X286829Y619723D01*
X286837Y619741D01*
X286855Y619908D01*
X286855Y629758D01*
X286853Y629770D01*
X286853Y636824D01*
X291626Y641597D01*
X298374Y641597D01*
X303147Y636824D01*
X303147Y629868D01*
X303142Y629852D01*
X303143Y629819D01*
X303135Y629748D01*
X303135Y623636D01*
X303149Y623546D01*
X303157Y623455D01*
X303169Y623426D01*
X303174Y623394D01*
X303217Y623313D01*
X303253Y623229D01*
X303279Y623197D01*
X303290Y623176D01*
X303313Y623154D01*
X303358Y623098D01*
X307086Y619370D01*
X307160Y619317D01*
X307230Y619257D01*
X307260Y619245D01*
X307286Y619226D01*
X307373Y619199D01*
X307458Y619165D01*
X307499Y619161D01*
X307521Y619154D01*
X307553Y619155D01*
X307624Y619147D01*
X314074Y619147D01*
X318847Y614374D01*
X318847Y607626D01*
X314074Y602853D01*
X309930Y602853D01*
X309910Y602850D01*
X309891Y602852D01*
X309789Y602830D01*
X309687Y602814D01*
X309670Y602804D01*
X309650Y602800D01*
X309561Y602747D01*
X309470Y602698D01*
X309456Y602684D01*
X309439Y602674D01*
X309372Y602595D01*
X309300Y602520D01*
X309292Y602502D01*
X309279Y602487D01*
X309240Y602391D01*
X309197Y602297D01*
X309195Y602277D01*
X309187Y602259D01*
X309169Y602092D01*
X309169Y599398D01*
X309172Y599378D01*
X309170Y599359D01*
X309177Y599326D01*
X309177Y590762D01*
X309180Y590742D01*
X309178Y590723D01*
X309200Y590621D01*
X309217Y590519D01*
X309226Y590502D01*
X309230Y590482D01*
X309283Y590393D01*
X309332Y590302D01*
X309346Y590288D01*
X309356Y590271D01*
X309435Y590204D01*
X309510Y590133D01*
X309528Y590124D01*
X309543Y590111D01*
X309639Y590073D01*
X309733Y590029D01*
X309753Y590027D01*
X309771Y590019D01*
X309938Y590001D01*
X310701Y590001D01*
X310701Y589999D01*
X309938Y589999D01*
X309918Y589996D01*
X309899Y589998D01*
X309797Y589976D01*
X309695Y589959D01*
X309678Y589950D01*
X309658Y589946D01*
X309569Y589893D01*
X309478Y589844D01*
X309464Y589830D01*
X309447Y589820D01*
X309380Y589741D01*
X309309Y589666D01*
X309300Y589648D01*
X309287Y589633D01*
X309248Y589537D01*
X309205Y589443D01*
X309203Y589423D01*
X309195Y589405D01*
X309177Y589238D01*
X309177Y580675D01*
X309169Y580602D01*
X309169Y580328D01*
X309172Y580308D01*
X309170Y580289D01*
X309192Y580187D01*
X309208Y580085D01*
X309218Y580068D01*
X309222Y580048D01*
X309275Y579959D01*
X309324Y579868D01*
X309338Y579854D01*
X309348Y579837D01*
X309427Y579770D01*
X309502Y579698D01*
X309520Y579690D01*
X309535Y579677D01*
X309631Y579638D01*
X309725Y579595D01*
X309745Y579593D01*
X309763Y579585D01*
X309930Y579567D01*
X360058Y579567D01*
X360078Y579570D01*
X360097Y579568D01*
X360199Y579590D01*
X360301Y579606D01*
X360318Y579616D01*
X360338Y579620D01*
X360427Y579673D01*
X360518Y579722D01*
X360532Y579736D01*
X360549Y579746D01*
X360616Y579825D01*
X360688Y579900D01*
X360696Y579918D01*
X360709Y579933D01*
X360748Y580029D01*
X360791Y580123D01*
X360793Y580143D01*
X360801Y580161D01*
X360819Y580328D01*
X360819Y589238D01*
X360816Y589258D01*
X360818Y589277D01*
X360796Y589379D01*
X360780Y589481D01*
X360770Y589498D01*
X360766Y589518D01*
X360713Y589607D01*
X360664Y589698D01*
X360650Y589712D01*
X360640Y589729D01*
X360561Y589796D01*
X360486Y589867D01*
X360468Y589876D01*
X360453Y589889D01*
X360357Y589927D01*
X360263Y589971D01*
X360243Y589973D01*
X360225Y589981D01*
X360058Y589999D01*
X359299Y589999D01*
X359299Y590001D01*
X360058Y590001D01*
X360078Y590004D01*
X360097Y590002D01*
X360199Y590024D01*
X360301Y590041D01*
X360318Y590050D01*
X360338Y590054D01*
X360427Y590107D01*
X360518Y590156D01*
X360532Y590170D01*
X360549Y590180D01*
X360616Y590259D01*
X360688Y590334D01*
X360696Y590352D01*
X360709Y590367D01*
X360748Y590463D01*
X360791Y590557D01*
X360793Y590577D01*
X360801Y590595D01*
X360819Y590762D01*
X360819Y602092D01*
X360816Y602112D01*
X360818Y602131D01*
X360796Y602233D01*
X360780Y602335D01*
X360770Y602352D01*
X360766Y602372D01*
X360713Y602461D01*
X360664Y602552D01*
X360650Y602566D01*
X360640Y602583D01*
X360561Y602650D01*
X360486Y602722D01*
X360468Y602730D01*
X360453Y602743D01*
X360357Y602782D01*
X360263Y602825D01*
X360243Y602827D01*
X360225Y602835D01*
X360058Y602853D01*
X355926Y602853D01*
X351153Y607626D01*
X351153Y614374D01*
X355926Y619147D01*
X362376Y619147D01*
X362466Y619161D01*
X362557Y619169D01*
X362586Y619181D01*
X362618Y619186D01*
X362699Y619229D01*
X362783Y619265D01*
X362815Y619291D01*
X362836Y619302D01*
X362858Y619325D01*
X362914Y619370D01*
X366632Y623088D01*
X366685Y623162D01*
X366745Y623232D01*
X366757Y623262D01*
X366776Y623288D01*
X366803Y623375D01*
X366837Y623460D01*
X366841Y623501D01*
X366848Y623523D01*
X366847Y623555D01*
X366855Y623626D01*
X366855Y629758D01*
X366853Y629770D01*
X366853Y636824D01*
X371626Y641597D01*
X378374Y641597D01*
X383147Y636824D01*
X383147Y629776D01*
X383145Y629758D01*
X383145Y619908D01*
X383148Y619888D01*
X383146Y619869D01*
X383168Y619767D01*
X383184Y619665D01*
X383194Y619648D01*
X383198Y619628D01*
X383251Y619539D01*
X383300Y619448D01*
X383314Y619434D01*
X383324Y619417D01*
X383403Y619350D01*
X383478Y619278D01*
X383496Y619270D01*
X383511Y619257D01*
X383607Y619218D01*
X383701Y619175D01*
X383721Y619173D01*
X383739Y619165D01*
X383906Y619147D01*
X388074Y619147D01*
X392847Y614374D01*
X392847Y607626D01*
X387990Y602769D01*
X387937Y602695D01*
X387877Y602625D01*
X387865Y602595D01*
X387846Y602569D01*
X387819Y602482D01*
X387785Y602397D01*
X387781Y602356D01*
X387774Y602334D01*
X387775Y602302D01*
X387767Y602230D01*
X387767Y598770D01*
X387782Y598680D01*
X387789Y598589D01*
X387801Y598559D01*
X387806Y598527D01*
X387849Y598446D01*
X387885Y598362D01*
X387911Y598330D01*
X387922Y598310D01*
X387945Y598287D01*
X387990Y598231D01*
X392847Y593374D01*
X392847Y586626D01*
X388074Y581853D01*
X381058Y581853D01*
X381004Y581859D01*
X376694Y581859D01*
X376604Y581845D01*
X376513Y581837D01*
X376484Y581825D01*
X376452Y581820D01*
X376371Y581777D01*
X376287Y581741D01*
X376255Y581715D01*
X376234Y581704D01*
X376212Y581681D01*
X376156Y581636D01*
X375290Y580770D01*
X375246Y580709D01*
X367970Y573433D01*
X222086Y573433D01*
X221996Y573419D01*
X221905Y573411D01*
X221875Y573399D01*
X221843Y573394D01*
X221762Y573351D01*
X221678Y573315D01*
X221646Y573289D01*
X221625Y573278D01*
X221603Y573255D01*
X221547Y573210D01*
X202690Y554353D01*
X202637Y554279D01*
X202577Y554209D01*
X202565Y554179D01*
X202546Y554153D01*
X202519Y554066D01*
X202485Y553981D01*
X202481Y553940D01*
X202474Y553918D01*
X202475Y553886D01*
X202467Y553814D01*
X202467Y454786D01*
X202481Y454695D01*
X202489Y454605D01*
X202501Y454575D01*
X202506Y454543D01*
X202549Y454462D01*
X202585Y454378D01*
X202611Y454346D01*
X202622Y454325D01*
X202645Y454303D01*
X202690Y454247D01*
X225147Y431790D01*
X225221Y431737D01*
X225291Y431677D01*
X225321Y431665D01*
X225347Y431646D01*
X225434Y431619D01*
X225519Y431585D01*
X225560Y431581D01*
X225582Y431574D01*
X225614Y431575D01*
X225686Y431567D01*
X310870Y431567D01*
X319447Y422990D01*
X319521Y422937D01*
X319591Y422877D01*
X319621Y422865D01*
X319647Y422846D01*
X319734Y422819D01*
X319819Y422785D01*
X319860Y422781D01*
X319882Y422774D01*
X319914Y422775D01*
X319986Y422767D01*
X347470Y422767D01*
X371367Y398870D01*
X371367Y360686D01*
X371381Y360596D01*
X371389Y360505D01*
X371401Y360475D01*
X371406Y360443D01*
X371449Y360362D01*
X371485Y360278D01*
X371511Y360246D01*
X371522Y360225D01*
X371545Y360203D01*
X371590Y360147D01*
X401713Y330024D01*
X401787Y329971D01*
X401857Y329911D01*
X401887Y329899D01*
X401913Y329880D01*
X402000Y329853D01*
X402085Y329819D01*
X402126Y329815D01*
X402148Y329808D01*
X402180Y329809D01*
X402252Y329801D01*
X429349Y329801D01*
X433135Y328233D01*
X436033Y325335D01*
X437601Y321549D01*
X437601Y317366D01*
X437600Y317360D01*
X437593Y317328D01*
X437594Y317308D01*
X437591Y317275D01*
X437591Y296325D01*
X437601Y296263D01*
X437601Y291966D01*
X437600Y291960D01*
X437593Y291928D01*
X437594Y291908D01*
X437591Y291875D01*
X437591Y270925D01*
X437601Y270863D01*
X437601Y266651D01*
X436033Y262865D01*
X433135Y259967D01*
X429349Y258399D01*
X425251Y258399D01*
G37*
%LPD*%
%LPC*%
G36*
X450651Y309199D02*
X450651Y309199D01*
X446865Y310767D01*
X443967Y313665D01*
X442399Y317451D01*
X442399Y325148D01*
X442385Y325238D01*
X442377Y325329D01*
X442365Y325359D01*
X442360Y325391D01*
X442317Y325472D01*
X442281Y325556D01*
X442255Y325588D01*
X442244Y325609D01*
X442221Y325631D01*
X442176Y325687D01*
X436787Y331076D01*
X436778Y331092D01*
X436755Y331114D01*
X436710Y331170D01*
X433878Y334002D01*
X433804Y334055D01*
X433734Y334115D01*
X433704Y334127D01*
X433678Y334146D01*
X433591Y334173D01*
X433506Y334207D01*
X433465Y334211D01*
X433443Y334218D01*
X433411Y334217D01*
X433340Y334225D01*
X428942Y334225D01*
X428909Y334220D01*
X428823Y334216D01*
X428823Y344138D01*
X428820Y344158D01*
X428822Y344177D01*
X428800Y344279D01*
X428783Y344381D01*
X428774Y344398D01*
X428770Y344418D01*
X428717Y344507D01*
X428668Y344598D01*
X428654Y344612D01*
X428644Y344629D01*
X428565Y344696D01*
X428490Y344767D01*
X428472Y344776D01*
X428457Y344789D01*
X428361Y344827D01*
X428267Y344871D01*
X428247Y344873D01*
X428229Y344881D01*
X428062Y344899D01*
X427299Y344899D01*
X427299Y345662D01*
X427296Y345682D01*
X427298Y345701D01*
X427276Y345803D01*
X427259Y345905D01*
X427250Y345922D01*
X427246Y345942D01*
X427193Y346031D01*
X427144Y346122D01*
X427130Y346136D01*
X427120Y346153D01*
X427041Y346220D01*
X426966Y346291D01*
X426948Y346300D01*
X426933Y346313D01*
X426837Y346352D01*
X426743Y346395D01*
X426723Y346397D01*
X426705Y346405D01*
X426538Y346423D01*
X416612Y346423D01*
X416612Y346430D01*
X416621Y346516D01*
X416621Y358226D01*
X416607Y358316D01*
X416599Y358407D01*
X416587Y358437D01*
X416582Y358469D01*
X416539Y358550D01*
X416503Y358634D01*
X416477Y358666D01*
X416466Y358687D01*
X416443Y358709D01*
X416398Y358765D01*
X393533Y381630D01*
X393459Y381683D01*
X393389Y381743D01*
X393359Y381755D01*
X393333Y381774D01*
X393246Y381801D01*
X393161Y381835D01*
X393120Y381839D01*
X393098Y381846D01*
X393066Y381845D01*
X392994Y381853D01*
X386126Y381853D01*
X381353Y386626D01*
X381353Y393374D01*
X386126Y398147D01*
X398064Y398147D01*
X398154Y398161D01*
X398245Y398169D01*
X398274Y398181D01*
X398306Y398186D01*
X398387Y398229D01*
X398471Y398265D01*
X398503Y398291D01*
X398524Y398302D01*
X398546Y398325D01*
X398602Y398370D01*
X399910Y399678D01*
X399963Y399752D01*
X400023Y399822D01*
X400035Y399852D01*
X400054Y399878D01*
X400081Y399965D01*
X400115Y400050D01*
X400119Y400091D01*
X400126Y400113D01*
X400125Y400145D01*
X400133Y400216D01*
X400133Y412814D01*
X400119Y412904D01*
X400111Y412995D01*
X400099Y413025D01*
X400094Y413057D01*
X400051Y413138D01*
X400015Y413222D01*
X399989Y413254D01*
X399978Y413275D01*
X399955Y413297D01*
X399910Y413353D01*
X393533Y419730D01*
X393459Y419783D01*
X393389Y419843D01*
X393359Y419855D01*
X393333Y419874D01*
X393246Y419901D01*
X393161Y419935D01*
X393120Y419939D01*
X393098Y419946D01*
X393066Y419945D01*
X392994Y419953D01*
X386126Y419953D01*
X381353Y424726D01*
X381353Y431594D01*
X381339Y431685D01*
X381331Y431775D01*
X381319Y431805D01*
X381314Y431837D01*
X381271Y431918D01*
X381235Y432002D01*
X381209Y432034D01*
X381198Y432055D01*
X381175Y432077D01*
X381130Y432133D01*
X375873Y437390D01*
X375799Y437443D01*
X375729Y437503D01*
X375699Y437515D01*
X375673Y437534D01*
X375586Y437561D01*
X375501Y437595D01*
X375460Y437599D01*
X375438Y437606D01*
X375406Y437605D01*
X375334Y437613D01*
X373448Y437613D01*
X373358Y437599D01*
X373267Y437591D01*
X373238Y437579D01*
X373206Y437574D01*
X373125Y437531D01*
X373041Y437495D01*
X373009Y437469D01*
X372988Y437458D01*
X372966Y437435D01*
X372910Y437390D01*
X369974Y434454D01*
X369921Y434380D01*
X369861Y434310D01*
X369849Y434280D01*
X369830Y434254D01*
X369803Y434167D01*
X369769Y434082D01*
X369765Y434041D01*
X369758Y434019D01*
X369759Y433987D01*
X369751Y433916D01*
X369751Y433100D01*
X368297Y429590D01*
X365610Y426903D01*
X362100Y425449D01*
X358300Y425449D01*
X354790Y426903D01*
X352103Y429590D01*
X350649Y433100D01*
X350649Y443262D01*
X350646Y443282D01*
X350648Y443301D01*
X350626Y443403D01*
X350610Y443505D01*
X350600Y443522D01*
X350596Y443542D01*
X350543Y443631D01*
X350494Y443722D01*
X350480Y443736D01*
X350470Y443753D01*
X350391Y443820D01*
X350316Y443892D01*
X350298Y443900D01*
X350283Y443913D01*
X350187Y443952D01*
X350093Y443995D01*
X350073Y443997D01*
X350055Y444005D01*
X349888Y444023D01*
X345602Y444023D01*
X335562Y444023D01*
X335542Y444020D01*
X335523Y444022D01*
X335421Y444000D01*
X335319Y443983D01*
X335302Y443974D01*
X335282Y443970D01*
X335193Y443917D01*
X335102Y443868D01*
X335088Y443854D01*
X335071Y443844D01*
X335004Y443765D01*
X334933Y443690D01*
X334924Y443672D01*
X334911Y443657D01*
X334873Y443561D01*
X334829Y443467D01*
X334827Y443447D01*
X334819Y443429D01*
X334801Y443262D01*
X334801Y442499D01*
X334799Y442499D01*
X334799Y443262D01*
X334796Y443282D01*
X334798Y443301D01*
X334776Y443403D01*
X334759Y443505D01*
X334750Y443522D01*
X334746Y443542D01*
X334693Y443631D01*
X334644Y443722D01*
X334630Y443736D01*
X334620Y443753D01*
X334541Y443820D01*
X334466Y443891D01*
X334448Y443900D01*
X334433Y443913D01*
X334337Y443952D01*
X334243Y443995D01*
X334223Y443997D01*
X334205Y444005D01*
X334038Y444023D01*
X323999Y444023D01*
X323998Y444023D01*
X317376Y444023D01*
X317286Y444009D01*
X317195Y444001D01*
X317165Y443989D01*
X317133Y443984D01*
X317052Y443941D01*
X316968Y443905D01*
X316936Y443879D01*
X316915Y443868D01*
X316893Y443845D01*
X316837Y443800D01*
X311270Y438233D01*
X299370Y438233D01*
X299280Y438219D01*
X299189Y438211D01*
X299159Y438199D01*
X299127Y438194D01*
X299046Y438151D01*
X298962Y438115D01*
X298930Y438089D01*
X298910Y438078D01*
X298908Y438077D01*
X298887Y438055D01*
X298831Y438010D01*
X293974Y433153D01*
X287226Y433153D01*
X282369Y438010D01*
X282295Y438063D01*
X282225Y438123D01*
X282195Y438135D01*
X282169Y438154D01*
X282082Y438181D01*
X281997Y438215D01*
X281956Y438219D01*
X281934Y438226D01*
X281902Y438225D01*
X281830Y438233D01*
X265470Y438233D01*
X265380Y438219D01*
X265289Y438211D01*
X265259Y438199D01*
X265227Y438194D01*
X265146Y438151D01*
X265062Y438115D01*
X265030Y438089D01*
X265010Y438078D01*
X265009Y438077D01*
X265008Y438077D01*
X264987Y438055D01*
X264932Y438010D01*
X260074Y433153D01*
X253326Y433153D01*
X248553Y437926D01*
X248553Y444674D01*
X253326Y449447D01*
X260074Y449447D01*
X264932Y444590D01*
X265005Y444537D01*
X265075Y444477D01*
X265105Y444465D01*
X265131Y444446D01*
X265218Y444419D01*
X265303Y444385D01*
X265344Y444381D01*
X265366Y444374D01*
X265399Y444375D01*
X265470Y444367D01*
X281830Y444367D01*
X281920Y444381D01*
X282011Y444389D01*
X282041Y444401D01*
X282073Y444406D01*
X282154Y444449D01*
X282238Y444485D01*
X282270Y444511D01*
X282290Y444522D01*
X282313Y444545D01*
X282369Y444590D01*
X283820Y446041D01*
X283873Y446115D01*
X283933Y446185D01*
X283945Y446215D01*
X283964Y446241D01*
X283991Y446328D01*
X284025Y446413D01*
X284029Y446454D01*
X284036Y446476D01*
X284035Y446508D01*
X284043Y446580D01*
X284043Y448696D01*
X284029Y448786D01*
X284021Y448877D01*
X284009Y448906D01*
X284004Y448938D01*
X283961Y449019D01*
X283925Y449103D01*
X283899Y449135D01*
X283888Y449156D01*
X283865Y449178D01*
X283820Y449234D01*
X282344Y450710D01*
X282270Y450763D01*
X282200Y450823D01*
X282170Y450835D01*
X282144Y450854D01*
X282057Y450881D01*
X281972Y450915D01*
X281931Y450919D01*
X281909Y450926D01*
X281877Y450925D01*
X281806Y450933D01*
X266430Y450933D01*
X260733Y456630D01*
X260659Y456683D01*
X260589Y456743D01*
X260559Y456755D01*
X260533Y456774D01*
X260446Y456801D01*
X260361Y456835D01*
X260320Y456839D01*
X260298Y456846D01*
X260266Y456845D01*
X260194Y456853D01*
X253326Y456853D01*
X248553Y461626D01*
X248553Y468374D01*
X253326Y473147D01*
X260074Y473147D01*
X264847Y468374D01*
X264847Y461506D01*
X264861Y461416D01*
X264869Y461325D01*
X264881Y461295D01*
X264886Y461263D01*
X264929Y461182D01*
X264965Y461098D01*
X264991Y461066D01*
X265002Y461045D01*
X265025Y461023D01*
X265070Y460967D01*
X268747Y457290D01*
X268821Y457237D01*
X268891Y457177D01*
X268921Y457165D01*
X268947Y457146D01*
X269034Y457119D01*
X269119Y457085D01*
X269160Y457081D01*
X269182Y457074D01*
X269214Y457075D01*
X269286Y457067D01*
X281694Y457067D01*
X281714Y457070D01*
X281733Y457068D01*
X281835Y457090D01*
X281937Y457106D01*
X281954Y457116D01*
X281974Y457120D01*
X282063Y457173D01*
X282154Y457222D01*
X282168Y457236D01*
X282185Y457246D01*
X282252Y457325D01*
X282324Y457400D01*
X282332Y457418D01*
X282345Y457433D01*
X282384Y457529D01*
X282427Y457623D01*
X282429Y457643D01*
X282437Y457661D01*
X282455Y457828D01*
X282455Y463008D01*
X282453Y463020D01*
X282453Y470074D01*
X287310Y474931D01*
X287363Y475005D01*
X287423Y475075D01*
X287435Y475105D01*
X287454Y475131D01*
X287481Y475218D01*
X287515Y475303D01*
X287519Y475344D01*
X287526Y475366D01*
X287525Y475398D01*
X287533Y475470D01*
X287533Y486630D01*
X287519Y486720D01*
X287511Y486811D01*
X287499Y486841D01*
X287494Y486873D01*
X287451Y486954D01*
X287415Y487038D01*
X287389Y487070D01*
X287378Y487090D01*
X287355Y487113D01*
X287310Y487168D01*
X282453Y492026D01*
X282453Y498774D01*
X287226Y503547D01*
X293974Y503547D01*
X298747Y498774D01*
X298747Y492026D01*
X293890Y487168D01*
X293837Y487095D01*
X293777Y487025D01*
X293765Y486995D01*
X293746Y486969D01*
X293719Y486882D01*
X293685Y486797D01*
X293681Y486756D01*
X293674Y486734D01*
X293675Y486701D01*
X293667Y486630D01*
X293667Y475470D01*
X293681Y475380D01*
X293689Y475289D01*
X293701Y475259D01*
X293706Y475227D01*
X293749Y475146D01*
X293785Y475062D01*
X293811Y475030D01*
X293822Y475010D01*
X293845Y474987D01*
X293890Y474931D01*
X298747Y470074D01*
X298747Y464428D01*
X298750Y464408D01*
X298748Y464389D01*
X298770Y464287D01*
X298786Y464185D01*
X298796Y464168D01*
X298800Y464148D01*
X298853Y464059D01*
X298902Y463968D01*
X298916Y463954D01*
X298926Y463937D01*
X299005Y463870D01*
X299080Y463798D01*
X299098Y463790D01*
X299113Y463777D01*
X299209Y463738D01*
X299303Y463695D01*
X299323Y463693D01*
X299341Y463685D01*
X299508Y463667D01*
X365870Y463667D01*
X376767Y452770D01*
X376841Y452717D01*
X376911Y452657D01*
X376941Y452645D01*
X376967Y452626D01*
X377054Y452599D01*
X377139Y452565D01*
X377180Y452561D01*
X377202Y452554D01*
X377234Y452555D01*
X377306Y452547D01*
X380592Y452547D01*
X380612Y452550D01*
X380631Y452548D01*
X380733Y452570D01*
X380835Y452586D01*
X380852Y452596D01*
X380872Y452600D01*
X380961Y452653D01*
X381052Y452702D01*
X381066Y452716D01*
X381083Y452726D01*
X381150Y452805D01*
X381222Y452880D01*
X381230Y452898D01*
X381243Y452913D01*
X381282Y453009D01*
X381325Y453103D01*
X381327Y453123D01*
X381335Y453141D01*
X381353Y453308D01*
X381353Y456874D01*
X386126Y461647D01*
X392874Y461647D01*
X397647Y456874D01*
X397647Y442306D01*
X397661Y442216D01*
X397669Y442125D01*
X397681Y442095D01*
X397686Y442063D01*
X397729Y441982D01*
X397765Y441898D01*
X397791Y441866D01*
X397802Y441845D01*
X397825Y441823D01*
X397870Y441767D01*
X410567Y429070D01*
X410567Y397786D01*
X410581Y397696D01*
X410589Y397605D01*
X410601Y397575D01*
X410606Y397543D01*
X410649Y397462D01*
X410685Y397378D01*
X410711Y397346D01*
X410722Y397325D01*
X410745Y397303D01*
X410790Y397247D01*
X413635Y394402D01*
X413709Y394349D01*
X413779Y394289D01*
X413809Y394277D01*
X413835Y394258D01*
X413922Y394231D01*
X414007Y394197D01*
X414048Y394193D01*
X414070Y394186D01*
X414102Y394187D01*
X414174Y394179D01*
X424221Y394179D01*
X424238Y394177D01*
X426538Y394177D01*
X426558Y394180D01*
X426577Y394178D01*
X426679Y394200D01*
X426781Y394217D01*
X426798Y394226D01*
X426818Y394230D01*
X426907Y394283D01*
X426998Y394332D01*
X427012Y394346D01*
X427029Y394356D01*
X427096Y394435D01*
X427167Y394510D01*
X427176Y394528D01*
X427189Y394543D01*
X427227Y394639D01*
X427271Y394733D01*
X427273Y394753D01*
X427281Y394771D01*
X427299Y394938D01*
X427299Y395701D01*
X427301Y395701D01*
X427301Y394938D01*
X427304Y394918D01*
X427302Y394899D01*
X427324Y394797D01*
X427341Y394695D01*
X427350Y394678D01*
X427354Y394658D01*
X427407Y394569D01*
X427456Y394478D01*
X427470Y394464D01*
X427480Y394447D01*
X427559Y394380D01*
X427634Y394309D01*
X427652Y394300D01*
X427667Y394287D01*
X427763Y394248D01*
X427857Y394205D01*
X427877Y394203D01*
X427895Y394195D01*
X428062Y394177D01*
X437988Y394177D01*
X437988Y394170D01*
X437979Y394084D01*
X437979Y387874D01*
X437993Y387784D01*
X438001Y387693D01*
X438013Y387664D01*
X438018Y387632D01*
X438061Y387551D01*
X438097Y387467D01*
X438123Y387435D01*
X438134Y387414D01*
X438157Y387392D01*
X438202Y387336D01*
X444714Y380824D01*
X444788Y380771D01*
X444858Y380711D01*
X444888Y380699D01*
X444914Y380680D01*
X445001Y380653D01*
X445086Y380619D01*
X445127Y380615D01*
X445149Y380608D01*
X445181Y380609D01*
X445252Y380601D01*
X454749Y380601D01*
X458535Y379033D01*
X461433Y376135D01*
X463001Y372349D01*
X463001Y368166D01*
X463000Y368159D01*
X462992Y368127D01*
X462994Y368108D01*
X462991Y368075D01*
X462991Y347125D01*
X463001Y347063D01*
X463001Y342766D01*
X463000Y342760D01*
X462993Y342728D01*
X462994Y342708D01*
X462991Y342675D01*
X462991Y321725D01*
X463001Y321663D01*
X463001Y317451D01*
X461433Y313665D01*
X458535Y310767D01*
X454749Y309199D01*
X450651Y309199D01*
G37*
%LPD*%
%LPC*%
G36*
X925919Y188999D02*
X925919Y188999D01*
X918034Y191112D01*
X910965Y195193D01*
X905193Y200965D01*
X901112Y208034D01*
X898999Y215919D01*
X898999Y224081D01*
X901112Y231966D01*
X905193Y239035D01*
X910965Y244807D01*
X918034Y248888D01*
X925919Y251001D01*
X934081Y251001D01*
X941966Y248888D01*
X949035Y244807D01*
X954807Y239035D01*
X958888Y231966D01*
X961001Y224081D01*
X961001Y215919D01*
X958888Y208034D01*
X954807Y200965D01*
X949035Y195193D01*
X941966Y191112D01*
X934081Y188999D01*
X925919Y188999D01*
G37*
%LPD*%
%LPC*%
G36*
X435919Y188999D02*
X435919Y188999D01*
X428034Y191112D01*
X420965Y195193D01*
X415193Y200965D01*
X411112Y208034D01*
X408999Y215919D01*
X408999Y224081D01*
X411112Y231966D01*
X415193Y239035D01*
X420965Y244807D01*
X428034Y248888D01*
X435919Y251001D01*
X444081Y251001D01*
X451966Y248888D01*
X459035Y244807D01*
X464807Y239035D01*
X468888Y231966D01*
X471001Y224081D01*
X471001Y215919D01*
X468888Y208034D01*
X464807Y200965D01*
X459035Y195193D01*
X451966Y191112D01*
X444081Y188999D01*
X435919Y188999D01*
G37*
%LPD*%
%LPC*%
G36*
X67314Y131999D02*
X67314Y131999D01*
X60192Y133907D01*
X53807Y137594D01*
X48594Y142807D01*
X44907Y149192D01*
X42999Y156314D01*
X42999Y163686D01*
X44907Y170808D01*
X48594Y177193D01*
X53807Y182406D01*
X60192Y186093D01*
X67314Y188001D01*
X74686Y188001D01*
X81808Y186093D01*
X88193Y182406D01*
X93406Y177193D01*
X97093Y170808D01*
X99001Y163686D01*
X99001Y156314D01*
X97093Y149192D01*
X93406Y142807D01*
X88193Y137594D01*
X81808Y133907D01*
X74686Y131999D01*
X67314Y131999D01*
G37*
%LPD*%
%LPC*%
G36*
X917314Y631999D02*
X917314Y631999D01*
X910192Y633907D01*
X903807Y637594D01*
X898594Y642807D01*
X894907Y649192D01*
X892999Y656314D01*
X892999Y663686D01*
X894907Y670808D01*
X898594Y677193D01*
X903807Y682406D01*
X910192Y686093D01*
X917314Y688001D01*
X924686Y688001D01*
X931808Y686093D01*
X938193Y682406D01*
X943406Y677193D01*
X947093Y670808D01*
X949001Y663686D01*
X949001Y656314D01*
X947093Y649192D01*
X943406Y642807D01*
X938193Y637594D01*
X931808Y633907D01*
X924686Y631999D01*
X917314Y631999D01*
G37*
%LPD*%
%LPC*%
G36*
X381326Y479153D02*
X381326Y479153D01*
X376553Y483926D01*
X376553Y490794D01*
X376539Y490884D01*
X376531Y490975D01*
X376519Y491005D01*
X376514Y491037D01*
X376471Y491118D01*
X376435Y491202D01*
X376409Y491234D01*
X376398Y491255D01*
X376375Y491277D01*
X376330Y491333D01*
X354453Y513210D01*
X354379Y513263D01*
X354309Y513323D01*
X354279Y513335D01*
X354253Y513354D01*
X354166Y513381D01*
X354081Y513415D01*
X354040Y513419D01*
X354018Y513426D01*
X353986Y513425D01*
X353914Y513433D01*
X271230Y513433D01*
X269210Y515453D01*
X264153Y520510D01*
X261986Y522677D01*
X261978Y522692D01*
X261955Y522714D01*
X261910Y522770D01*
X257632Y527048D01*
X257628Y527055D01*
X257605Y527077D01*
X257560Y527133D01*
X257103Y527590D01*
X255649Y531100D01*
X255649Y549900D01*
X257103Y553410D01*
X259790Y556097D01*
X263300Y557551D01*
X267100Y557551D01*
X270610Y556097D01*
X273297Y553410D01*
X274751Y549900D01*
X274751Y531004D01*
X274747Y530986D01*
X274748Y530967D01*
X274745Y530934D01*
X274745Y520328D01*
X274748Y520308D01*
X274746Y520289D01*
X274768Y520187D01*
X274784Y520085D01*
X274794Y520068D01*
X274798Y520048D01*
X274851Y519959D01*
X274900Y519868D01*
X274914Y519854D01*
X274924Y519837D01*
X275003Y519770D01*
X275078Y519698D01*
X275096Y519690D01*
X275111Y519677D01*
X275207Y519638D01*
X275301Y519595D01*
X275321Y519593D01*
X275339Y519585D01*
X275506Y519567D01*
X356770Y519567D01*
X380667Y495670D01*
X380741Y495617D01*
X380811Y495557D01*
X380841Y495545D01*
X380867Y495526D01*
X380954Y495499D01*
X381039Y495465D01*
X381080Y495461D01*
X381102Y495454D01*
X381134Y495455D01*
X381206Y495447D01*
X388074Y495447D01*
X392932Y490590D01*
X393005Y490537D01*
X393075Y490477D01*
X393105Y490465D01*
X393131Y490446D01*
X393218Y490419D01*
X393303Y490385D01*
X393344Y490381D01*
X393366Y490374D01*
X393399Y490375D01*
X393470Y490367D01*
X415714Y490367D01*
X415804Y490381D01*
X415895Y490389D01*
X415925Y490401D01*
X415957Y490406D01*
X416038Y490449D01*
X416122Y490485D01*
X416154Y490511D01*
X416175Y490522D01*
X416197Y490545D01*
X416253Y490590D01*
X416776Y491113D01*
X416829Y491187D01*
X416889Y491257D01*
X416901Y491287D01*
X416920Y491313D01*
X416947Y491400D01*
X416981Y491485D01*
X416985Y491526D01*
X416992Y491548D01*
X416991Y491580D01*
X416999Y491652D01*
X416999Y499349D01*
X418567Y503135D01*
X421465Y506033D01*
X425251Y507601D01*
X429349Y507601D01*
X433135Y506033D01*
X436033Y503135D01*
X437601Y499349D01*
X437601Y495251D01*
X436033Y491465D01*
X433135Y488567D01*
X429349Y486999D01*
X425159Y486999D01*
X425132Y487005D01*
X425113Y487004D01*
X425080Y487007D01*
X421660Y487007D01*
X421570Y486993D01*
X421479Y486985D01*
X421449Y486973D01*
X421417Y486968D01*
X421336Y486925D01*
X421252Y486889D01*
X421220Y486863D01*
X421199Y486852D01*
X421177Y486829D01*
X421121Y486784D01*
X418570Y484233D01*
X393470Y484233D01*
X393380Y484219D01*
X393289Y484211D01*
X393259Y484199D01*
X393227Y484194D01*
X393146Y484151D01*
X393062Y484115D01*
X393030Y484089D01*
X393010Y484078D01*
X392987Y484055D01*
X392932Y484010D01*
X388074Y479153D01*
X381326Y479153D01*
G37*
%LPD*%
%LPC*%
G36*
X313071Y741249D02*
X313071Y741249D01*
X311869Y742451D01*
X311869Y774149D01*
X313071Y775351D01*
X356929Y775351D01*
X358131Y774149D01*
X358131Y742451D01*
X356929Y741249D01*
X344854Y741249D01*
X344851Y741250D01*
X344819Y741249D01*
X344747Y741257D01*
X341253Y741257D01*
X341204Y741249D01*
X328854Y741249D01*
X328851Y741250D01*
X328819Y741249D01*
X328747Y741257D01*
X325253Y741257D01*
X325204Y741249D01*
X313071Y741249D01*
G37*
%LPD*%
%LPC*%
G36*
X28506Y485449D02*
X28506Y485449D01*
X23158Y487664D01*
X19064Y491758D01*
X16849Y497106D01*
X16849Y502894D01*
X19064Y508242D01*
X23158Y512336D01*
X28506Y514551D01*
X59294Y514551D01*
X64642Y512336D01*
X68736Y508242D01*
X70951Y502894D01*
X70951Y497106D01*
X68736Y491758D01*
X64642Y487664D01*
X59294Y485449D01*
X28506Y485449D01*
G37*
%LPD*%
%LPC*%
G36*
X28506Y595449D02*
X28506Y595449D01*
X23158Y597664D01*
X19064Y601758D01*
X16849Y607106D01*
X16849Y612894D01*
X19064Y618242D01*
X23158Y622336D01*
X28506Y624551D01*
X59294Y624551D01*
X64642Y622336D01*
X68736Y618242D01*
X70951Y612894D01*
X70951Y607106D01*
X68736Y601758D01*
X64642Y597664D01*
X59294Y595449D01*
X28506Y595449D01*
G37*
%LPD*%
%LPC*%
G36*
X147123Y594959D02*
X147123Y594959D01*
X147123Y608477D01*
X170238Y608477D01*
X170258Y608480D01*
X170277Y608478D01*
X170379Y608500D01*
X170481Y608517D01*
X170498Y608526D01*
X170518Y608530D01*
X170607Y608583D01*
X170698Y608632D01*
X170712Y608646D01*
X170729Y608656D01*
X170796Y608735D01*
X170867Y608810D01*
X170876Y608828D01*
X170889Y608843D01*
X170927Y608939D01*
X170971Y609033D01*
X170973Y609053D01*
X170981Y609071D01*
X170999Y609238D01*
X170999Y610762D01*
X170996Y610782D01*
X170998Y610801D01*
X170976Y610903D01*
X170959Y611005D01*
X170950Y611022D01*
X170946Y611042D01*
X170893Y611131D01*
X170844Y611222D01*
X170830Y611236D01*
X170820Y611253D01*
X170741Y611320D01*
X170666Y611391D01*
X170648Y611400D01*
X170633Y611413D01*
X170537Y611452D01*
X170443Y611495D01*
X170423Y611497D01*
X170405Y611505D01*
X170238Y611523D01*
X147123Y611523D01*
X147123Y625041D01*
X171784Y625041D01*
X174122Y624670D01*
X176374Y623939D01*
X178483Y622864D01*
X180398Y621472D01*
X182072Y619798D01*
X183464Y617883D01*
X184539Y615774D01*
X185270Y613522D01*
X185587Y611523D01*
X171762Y611523D01*
X171742Y611520D01*
X171723Y611522D01*
X171621Y611500D01*
X171519Y611483D01*
X171502Y611474D01*
X171482Y611470D01*
X171393Y611417D01*
X171302Y611368D01*
X171288Y611354D01*
X171271Y611344D01*
X171204Y611265D01*
X171133Y611190D01*
X171124Y611172D01*
X171111Y611157D01*
X171073Y611061D01*
X171029Y610967D01*
X171027Y610947D01*
X171019Y610929D01*
X171001Y610762D01*
X171001Y609238D01*
X171004Y609218D01*
X171002Y609199D01*
X171024Y609097D01*
X171041Y608995D01*
X171050Y608978D01*
X171054Y608958D01*
X171107Y608869D01*
X171156Y608778D01*
X171170Y608764D01*
X171180Y608747D01*
X171259Y608680D01*
X171334Y608609D01*
X171352Y608600D01*
X171367Y608587D01*
X171463Y608548D01*
X171557Y608505D01*
X171577Y608503D01*
X171595Y608495D01*
X171762Y608477D01*
X185587Y608477D01*
X185270Y606478D01*
X184539Y604226D01*
X183464Y602117D01*
X182072Y600202D01*
X180398Y598528D01*
X178483Y597136D01*
X176374Y596061D01*
X174122Y595330D01*
X171784Y594959D01*
X147123Y594959D01*
G37*
%LPD*%
%LPC*%
G36*
X147123Y484959D02*
X147123Y484959D01*
X147123Y498477D01*
X170238Y498477D01*
X170258Y498480D01*
X170277Y498478D01*
X170379Y498500D01*
X170481Y498517D01*
X170498Y498526D01*
X170518Y498530D01*
X170607Y498583D01*
X170698Y498632D01*
X170712Y498646D01*
X170729Y498656D01*
X170796Y498735D01*
X170867Y498810D01*
X170876Y498828D01*
X170889Y498843D01*
X170927Y498939D01*
X170971Y499033D01*
X170973Y499053D01*
X170981Y499071D01*
X170999Y499238D01*
X170999Y500762D01*
X170996Y500782D01*
X170998Y500801D01*
X170976Y500903D01*
X170959Y501005D01*
X170950Y501022D01*
X170946Y501042D01*
X170893Y501131D01*
X170844Y501222D01*
X170830Y501236D01*
X170820Y501253D01*
X170741Y501320D01*
X170666Y501391D01*
X170648Y501400D01*
X170633Y501413D01*
X170537Y501452D01*
X170443Y501495D01*
X170423Y501497D01*
X170405Y501505D01*
X170238Y501523D01*
X147123Y501523D01*
X147123Y515041D01*
X171784Y515041D01*
X174122Y514670D01*
X176374Y513939D01*
X178483Y512864D01*
X180398Y511472D01*
X182072Y509798D01*
X183464Y507883D01*
X184539Y505774D01*
X185270Y503522D01*
X185587Y501523D01*
X171762Y501523D01*
X171742Y501520D01*
X171723Y501522D01*
X171621Y501500D01*
X171519Y501483D01*
X171502Y501474D01*
X171482Y501470D01*
X171393Y501417D01*
X171302Y501368D01*
X171288Y501354D01*
X171271Y501344D01*
X171204Y501265D01*
X171133Y501190D01*
X171124Y501172D01*
X171111Y501157D01*
X171073Y501061D01*
X171029Y500967D01*
X171027Y500947D01*
X171019Y500929D01*
X171001Y500762D01*
X171001Y499238D01*
X171004Y499218D01*
X171002Y499199D01*
X171024Y499097D01*
X171041Y498995D01*
X171050Y498978D01*
X171054Y498958D01*
X171107Y498869D01*
X171156Y498778D01*
X171170Y498764D01*
X171180Y498747D01*
X171259Y498680D01*
X171334Y498609D01*
X171352Y498600D01*
X171367Y498587D01*
X171463Y498548D01*
X171557Y498505D01*
X171577Y498503D01*
X171595Y498495D01*
X171762Y498477D01*
X185587Y498477D01*
X185270Y496478D01*
X184539Y494226D01*
X183464Y492117D01*
X182072Y490202D01*
X180398Y488528D01*
X178483Y487136D01*
X176374Y486061D01*
X174122Y485330D01*
X171784Y484959D01*
X147123Y484959D01*
G37*
%LPD*%
%LPC*%
G36*
X256326Y615353D02*
X256326Y615353D01*
X251553Y620126D01*
X251553Y626874D01*
X256410Y631732D01*
X256463Y631805D01*
X256523Y631875D01*
X256535Y631905D01*
X256554Y631931D01*
X256581Y632018D01*
X256615Y632103D01*
X256619Y632144D01*
X256626Y632166D01*
X256625Y632199D01*
X256633Y632270D01*
X256633Y638230D01*
X256619Y638320D01*
X256611Y638411D01*
X256599Y638441D01*
X256594Y638473D01*
X256551Y638554D01*
X256515Y638638D01*
X256489Y638670D01*
X256478Y638690D01*
X256455Y638713D01*
X256410Y638768D01*
X251553Y643626D01*
X251553Y650494D01*
X251539Y650585D01*
X251531Y650675D01*
X251519Y650705D01*
X251514Y650737D01*
X251471Y650818D01*
X251435Y650902D01*
X251409Y650934D01*
X251398Y650955D01*
X251375Y650977D01*
X251330Y651033D01*
X249953Y652410D01*
X247933Y654430D01*
X247933Y667780D01*
X247919Y667870D01*
X247911Y667961D01*
X247899Y667991D01*
X247894Y668023D01*
X247851Y668104D01*
X247815Y668188D01*
X247789Y668220D01*
X247778Y668240D01*
X247755Y668263D01*
X247710Y668318D01*
X242853Y673176D01*
X242853Y679924D01*
X247626Y684697D01*
X254374Y684697D01*
X259147Y679924D01*
X259147Y673176D01*
X254290Y668318D01*
X254237Y668245D01*
X254177Y668175D01*
X254165Y668145D01*
X254146Y668119D01*
X254119Y668032D01*
X254085Y667947D01*
X254081Y667906D01*
X254074Y667884D01*
X254075Y667851D01*
X254067Y667780D01*
X254067Y657286D01*
X254081Y657195D01*
X254089Y657105D01*
X254101Y657075D01*
X254106Y657043D01*
X254149Y656962D01*
X254185Y656878D01*
X254211Y656846D01*
X254222Y656825D01*
X254245Y656803D01*
X254290Y656747D01*
X255667Y655370D01*
X255741Y655317D01*
X255811Y655257D01*
X255841Y655245D01*
X255867Y655226D01*
X255954Y655199D01*
X256039Y655165D01*
X256080Y655161D01*
X256102Y655154D01*
X256134Y655155D01*
X256206Y655147D01*
X263074Y655147D01*
X267847Y650374D01*
X267847Y643626D01*
X262990Y638768D01*
X262937Y638695D01*
X262877Y638625D01*
X262865Y638595D01*
X262846Y638569D01*
X262819Y638482D01*
X262785Y638397D01*
X262781Y638356D01*
X262774Y638334D01*
X262775Y638301D01*
X262767Y638230D01*
X262767Y632270D01*
X262781Y632180D01*
X262789Y632089D01*
X262801Y632059D01*
X262806Y632027D01*
X262849Y631946D01*
X262885Y631862D01*
X262911Y631830D01*
X262922Y631810D01*
X262945Y631787D01*
X262990Y631732D01*
X267847Y626874D01*
X267847Y620126D01*
X263074Y615353D01*
X256326Y615353D01*
G37*
%LPD*%
%LPC*%
G36*
X345071Y691249D02*
X345071Y691249D01*
X343869Y692451D01*
X343869Y724149D01*
X345071Y725351D01*
X356929Y725351D01*
X358131Y724149D01*
X358131Y712128D01*
X358134Y712108D01*
X358132Y712089D01*
X358154Y711987D01*
X358170Y711885D01*
X358180Y711868D01*
X358184Y711848D01*
X358237Y711759D01*
X358286Y711668D01*
X358300Y711654D01*
X358310Y711637D01*
X358389Y711570D01*
X358464Y711498D01*
X358482Y711490D01*
X358497Y711477D01*
X358593Y711438D01*
X358687Y711395D01*
X358707Y711393D01*
X358725Y711385D01*
X358892Y711367D01*
X372230Y711367D01*
X372320Y711381D01*
X372411Y711389D01*
X372441Y711401D01*
X372473Y711406D01*
X372554Y711449D01*
X372638Y711485D01*
X372670Y711511D01*
X372690Y711522D01*
X372713Y711545D01*
X372768Y711590D01*
X377626Y716447D01*
X384374Y716447D01*
X389147Y711674D01*
X389147Y704926D01*
X384374Y700153D01*
X377626Y700153D01*
X372768Y705010D01*
X372695Y705063D01*
X372625Y705123D01*
X372595Y705135D01*
X372569Y705154D01*
X372482Y705181D01*
X372397Y705215D01*
X372356Y705219D01*
X372334Y705226D01*
X372301Y705225D01*
X372230Y705233D01*
X358892Y705233D01*
X358872Y705230D01*
X358853Y705232D01*
X358751Y705210D01*
X358649Y705194D01*
X358632Y705184D01*
X358612Y705180D01*
X358523Y705127D01*
X358432Y705078D01*
X358418Y705064D01*
X358401Y705054D01*
X358334Y704975D01*
X358262Y704900D01*
X358254Y704882D01*
X358241Y704867D01*
X358202Y704771D01*
X358159Y704677D01*
X358157Y704657D01*
X358149Y704639D01*
X358131Y704472D01*
X358131Y692451D01*
X356929Y691249D01*
X345071Y691249D01*
G37*
%LPD*%
%LPC*%
G36*
X313071Y691249D02*
X313071Y691249D01*
X311869Y692451D01*
X311869Y704472D01*
X311866Y704492D01*
X311868Y704511D01*
X311846Y704613D01*
X311830Y704715D01*
X311820Y704732D01*
X311816Y704752D01*
X311763Y704841D01*
X311714Y704932D01*
X311700Y704946D01*
X311690Y704963D01*
X311611Y705030D01*
X311536Y705102D01*
X311518Y705110D01*
X311503Y705123D01*
X311407Y705162D01*
X311313Y705205D01*
X311293Y705207D01*
X311275Y705215D01*
X311108Y705233D01*
X297770Y705233D01*
X297680Y705219D01*
X297589Y705211D01*
X297559Y705199D01*
X297527Y705194D01*
X297446Y705151D01*
X297362Y705115D01*
X297330Y705089D01*
X297310Y705078D01*
X297287Y705055D01*
X297232Y705010D01*
X292374Y700153D01*
X285626Y700153D01*
X280853Y704926D01*
X280853Y711674D01*
X285626Y716447D01*
X292374Y716447D01*
X297232Y711590D01*
X297305Y711537D01*
X297375Y711477D01*
X297405Y711465D01*
X297431Y711446D01*
X297518Y711419D01*
X297603Y711385D01*
X297644Y711381D01*
X297666Y711374D01*
X297699Y711375D01*
X297770Y711367D01*
X311108Y711367D01*
X311128Y711370D01*
X311147Y711368D01*
X311249Y711390D01*
X311351Y711406D01*
X311368Y711416D01*
X311388Y711420D01*
X311477Y711473D01*
X311568Y711522D01*
X311582Y711536D01*
X311599Y711546D01*
X311666Y711625D01*
X311738Y711700D01*
X311746Y711718D01*
X311759Y711733D01*
X311798Y711829D01*
X311841Y711923D01*
X311843Y711943D01*
X311851Y711961D01*
X311869Y712128D01*
X311869Y724149D01*
X313071Y725351D01*
X324929Y725351D01*
X326131Y724149D01*
X326131Y692451D01*
X324929Y691249D01*
X313071Y691249D01*
G37*
%LPD*%
%LPC*%
G36*
X142267Y284249D02*
X142267Y284249D01*
X136478Y286647D01*
X132047Y291078D01*
X129649Y296867D01*
X129649Y303133D01*
X132047Y308922D01*
X136478Y313353D01*
X142267Y315751D01*
X148533Y315751D01*
X154322Y313353D01*
X158753Y308922D01*
X161151Y303133D01*
X161151Y296867D01*
X158753Y291078D01*
X154322Y286647D01*
X148533Y284249D01*
X142267Y284249D01*
G37*
%LPD*%
%LPC*%
G36*
X331626Y662053D02*
X331626Y662053D01*
X326853Y666826D01*
X326853Y673574D01*
X331710Y678432D01*
X331763Y678505D01*
X331823Y678575D01*
X331835Y678605D01*
X331854Y678631D01*
X331881Y678718D01*
X331915Y678803D01*
X331919Y678844D01*
X331926Y678866D01*
X331925Y678899D01*
X331933Y678970D01*
X331933Y690488D01*
X331930Y690508D01*
X331932Y690527D01*
X331910Y690629D01*
X331894Y690731D01*
X331884Y690748D01*
X331880Y690768D01*
X331827Y690857D01*
X331778Y690948D01*
X331764Y690962D01*
X331754Y690979D01*
X331675Y691046D01*
X331600Y691118D01*
X331582Y691126D01*
X331567Y691139D01*
X331471Y691178D01*
X331377Y691221D01*
X331357Y691223D01*
X331339Y691231D01*
X331172Y691249D01*
X329071Y691249D01*
X327869Y692451D01*
X327869Y724149D01*
X329071Y725351D01*
X340929Y725351D01*
X342131Y724149D01*
X342131Y692451D01*
X340929Y691249D01*
X338828Y691249D01*
X338808Y691246D01*
X338789Y691248D01*
X338687Y691226D01*
X338585Y691210D01*
X338568Y691200D01*
X338548Y691196D01*
X338459Y691143D01*
X338368Y691094D01*
X338354Y691080D01*
X338337Y691070D01*
X338270Y690991D01*
X338198Y690916D01*
X338190Y690898D01*
X338177Y690883D01*
X338138Y690787D01*
X338095Y690693D01*
X338093Y690673D01*
X338085Y690655D01*
X338067Y690488D01*
X338067Y678970D01*
X338081Y678880D01*
X338089Y678789D01*
X338101Y678759D01*
X338106Y678727D01*
X338149Y678646D01*
X338185Y678562D01*
X338211Y678530D01*
X338222Y678510D01*
X338245Y678487D01*
X338290Y678432D01*
X343147Y673574D01*
X343147Y666826D01*
X338374Y662053D01*
X331626Y662053D01*
G37*
%LPD*%
%LPC*%
G36*
X268066Y33249D02*
X268066Y33249D01*
X262644Y35495D01*
X258495Y39644D01*
X256249Y45066D01*
X256249Y50934D01*
X258495Y56356D01*
X262644Y60505D01*
X268066Y62751D01*
X273934Y62751D01*
X279356Y60505D01*
X283505Y56356D01*
X285751Y50934D01*
X285751Y45066D01*
X283505Y39644D01*
X279356Y35495D01*
X273934Y33249D01*
X268066Y33249D01*
G37*
%LPD*%
%LPC*%
G36*
X237900Y523449D02*
X237900Y523449D01*
X234390Y524903D01*
X231703Y527590D01*
X230249Y531100D01*
X230249Y549900D01*
X231703Y553410D01*
X234390Y556097D01*
X237900Y557551D01*
X241700Y557551D01*
X245210Y556097D01*
X247897Y553410D01*
X249351Y549900D01*
X249351Y531100D01*
X247897Y527590D01*
X245210Y524903D01*
X241700Y523449D01*
X237900Y523449D01*
G37*
%LPD*%
%LPC*%
G36*
X288700Y523449D02*
X288700Y523449D01*
X285190Y524903D01*
X282503Y527590D01*
X281049Y531100D01*
X281049Y549900D01*
X282503Y553410D01*
X285190Y556097D01*
X288700Y557551D01*
X292500Y557551D01*
X296010Y556097D01*
X298697Y553410D01*
X300151Y549900D01*
X300151Y531100D01*
X298697Y527590D01*
X296010Y524903D01*
X292500Y523449D01*
X288700Y523449D01*
G37*
%LPD*%
%LPC*%
G36*
X384326Y644353D02*
X384326Y644353D01*
X379553Y649126D01*
X379553Y655994D01*
X379539Y656085D01*
X379531Y656175D01*
X379519Y656205D01*
X379514Y656237D01*
X379471Y656318D01*
X379435Y656402D01*
X379409Y656434D01*
X379398Y656455D01*
X379375Y656477D01*
X379330Y656533D01*
X377933Y657930D01*
X377933Y674130D01*
X377919Y674220D01*
X377911Y674311D01*
X377899Y674341D01*
X377894Y674373D01*
X377851Y674454D01*
X377815Y674538D01*
X377789Y674570D01*
X377778Y674590D01*
X377755Y674613D01*
X377710Y674668D01*
X372853Y679526D01*
X372853Y686274D01*
X377626Y691047D01*
X384374Y691047D01*
X389147Y686274D01*
X389147Y679526D01*
X384290Y674668D01*
X384237Y674595D01*
X384177Y674525D01*
X384165Y674495D01*
X384146Y674469D01*
X384119Y674382D01*
X384085Y674297D01*
X384081Y674256D01*
X384074Y674234D01*
X384075Y674201D01*
X384067Y674130D01*
X384067Y661408D01*
X384070Y661388D01*
X384068Y661369D01*
X384090Y661267D01*
X384106Y661165D01*
X384116Y661148D01*
X384120Y661128D01*
X384173Y661039D01*
X384222Y660948D01*
X384236Y660934D01*
X384246Y660917D01*
X384325Y660850D01*
X384400Y660778D01*
X384418Y660770D01*
X384433Y660757D01*
X384529Y660718D01*
X384623Y660675D01*
X384643Y660673D01*
X384661Y660665D01*
X384828Y660647D01*
X391074Y660647D01*
X395847Y655874D01*
X395847Y649126D01*
X391074Y644353D01*
X384326Y644353D01*
G37*
%LPD*%
%LPC*%
G36*
X285626Y674753D02*
X285626Y674753D01*
X280853Y679526D01*
X280853Y686394D01*
X280847Y686435D01*
X280847Y686439D01*
X280842Y686461D01*
X280839Y686485D01*
X280831Y686575D01*
X280819Y686605D01*
X280814Y686637D01*
X280797Y686668D01*
X280795Y686679D01*
X280768Y686724D01*
X280735Y686802D01*
X280709Y686834D01*
X280698Y686855D01*
X280679Y686873D01*
X280669Y686890D01*
X280654Y686903D01*
X280630Y686933D01*
X275253Y692310D01*
X275179Y692363D01*
X275109Y692423D01*
X275079Y692435D01*
X275053Y692454D01*
X274966Y692481D01*
X274881Y692515D01*
X274840Y692519D01*
X274818Y692526D01*
X274786Y692525D01*
X274714Y692533D01*
X272470Y692533D01*
X272380Y692519D01*
X272289Y692511D01*
X272259Y692499D01*
X272227Y692494D01*
X272146Y692451D01*
X272062Y692415D01*
X272030Y692389D01*
X272010Y692378D01*
X271987Y692355D01*
X271932Y692310D01*
X267074Y687453D01*
X260326Y687453D01*
X255553Y692226D01*
X255553Y698974D01*
X260326Y703747D01*
X267074Y703747D01*
X271932Y698890D01*
X272005Y698837D01*
X272075Y698777D01*
X272105Y698765D01*
X272131Y698746D01*
X272218Y698719D01*
X272303Y698685D01*
X272344Y698681D01*
X272366Y698674D01*
X272399Y698675D01*
X272470Y698667D01*
X277570Y698667D01*
X284967Y691270D01*
X285041Y691217D01*
X285111Y691157D01*
X285141Y691145D01*
X285167Y691126D01*
X285254Y691099D01*
X285339Y691065D01*
X285380Y691061D01*
X285402Y691054D01*
X285434Y691055D01*
X285506Y691047D01*
X292374Y691047D01*
X297147Y686274D01*
X297147Y679526D01*
X292374Y674753D01*
X285626Y674753D01*
G37*
%LPD*%
%LPC*%
G36*
X331626Y636653D02*
X331626Y636653D01*
X326853Y641426D01*
X326853Y648294D01*
X326839Y648384D01*
X326831Y648475D01*
X326819Y648505D01*
X326814Y648537D01*
X326771Y648618D01*
X326735Y648702D01*
X326709Y648734D01*
X326698Y648755D01*
X326675Y648777D01*
X326630Y648833D01*
X326253Y649210D01*
X326179Y649264D01*
X326109Y649323D01*
X326079Y649335D01*
X326053Y649354D01*
X325966Y649381D01*
X325881Y649415D01*
X325840Y649419D01*
X325818Y649426D01*
X325786Y649425D01*
X325714Y649433D01*
X316470Y649433D01*
X316380Y649419D01*
X316289Y649411D01*
X316259Y649399D01*
X316227Y649394D01*
X316146Y649351D01*
X316062Y649315D01*
X316030Y649289D01*
X316010Y649278D01*
X315987Y649255D01*
X315932Y649210D01*
X311074Y644353D01*
X304326Y644353D01*
X299553Y649126D01*
X299553Y655874D01*
X304326Y660647D01*
X311074Y660647D01*
X315932Y655790D01*
X316005Y655737D01*
X316075Y655677D01*
X316105Y655665D01*
X316131Y655646D01*
X316218Y655619D01*
X316303Y655585D01*
X316344Y655581D01*
X316366Y655574D01*
X316399Y655575D01*
X316470Y655567D01*
X328570Y655567D01*
X330590Y653547D01*
X330967Y653170D01*
X331041Y653117D01*
X331111Y653057D01*
X331141Y653045D01*
X331167Y653026D01*
X331254Y652999D01*
X331339Y652965D01*
X331380Y652961D01*
X331402Y652954D01*
X331434Y652955D01*
X331506Y652947D01*
X338374Y652947D01*
X343147Y648174D01*
X343147Y641426D01*
X338374Y636653D01*
X331626Y636653D01*
G37*
%LPD*%
%LPC*%
G36*
X227926Y433153D02*
X227926Y433153D01*
X223153Y437926D01*
X223153Y444674D01*
X228010Y449532D01*
X228063Y449605D01*
X228123Y449675D01*
X228135Y449705D01*
X228154Y449731D01*
X228181Y449818D01*
X228215Y449903D01*
X228219Y449944D01*
X228226Y449966D01*
X228225Y449999D01*
X228233Y450070D01*
X228233Y456230D01*
X228219Y456320D01*
X228211Y456411D01*
X228199Y456441D01*
X228194Y456473D01*
X228151Y456554D01*
X228115Y456638D01*
X228089Y456670D01*
X228078Y456690D01*
X228055Y456713D01*
X228010Y456769D01*
X223153Y461626D01*
X223153Y468374D01*
X227926Y473147D01*
X234674Y473147D01*
X239447Y468374D01*
X239447Y461626D01*
X234590Y456769D01*
X234537Y456695D01*
X234477Y456625D01*
X234465Y456595D01*
X234446Y456569D01*
X234419Y456482D01*
X234385Y456397D01*
X234381Y456356D01*
X234374Y456334D01*
X234375Y456302D01*
X234367Y456230D01*
X234367Y450070D01*
X234381Y449980D01*
X234389Y449889D01*
X234401Y449859D01*
X234406Y449827D01*
X234449Y449746D01*
X234485Y449662D01*
X234511Y449630D01*
X234522Y449610D01*
X234545Y449587D01*
X234590Y449532D01*
X239447Y444674D01*
X239447Y437926D01*
X234674Y433153D01*
X227926Y433153D01*
G37*
%LPD*%
%LPC*%
G36*
X68653Y770199D02*
X68653Y770199D01*
X64315Y771996D01*
X60996Y775315D01*
X59199Y779653D01*
X59199Y784347D01*
X60996Y788685D01*
X64315Y792004D01*
X68653Y793801D01*
X73347Y793801D01*
X77685Y792004D01*
X81004Y788685D01*
X82801Y784347D01*
X82801Y779653D01*
X81004Y775315D01*
X77685Y771996D01*
X73347Y770199D01*
X68653Y770199D01*
G37*
%LPD*%
%LPC*%
G36*
X443601Y740999D02*
X443601Y740999D01*
X442399Y742201D01*
X442399Y760399D01*
X443601Y761601D01*
X461799Y761601D01*
X463001Y760399D01*
X463001Y742201D01*
X461799Y740999D01*
X443601Y740999D01*
G37*
%LPD*%
%LPC*%
G36*
X37801Y701949D02*
X37801Y701949D01*
X33923Y703556D01*
X30956Y706523D01*
X29349Y710401D01*
X29349Y714599D01*
X30956Y718477D01*
X33923Y721444D01*
X37801Y723051D01*
X41999Y723051D01*
X45877Y721444D01*
X48844Y718477D01*
X50451Y714599D01*
X50451Y710401D01*
X48844Y706523D01*
X45877Y703556D01*
X41999Y701949D01*
X37801Y701949D01*
G37*
%LPD*%
%LPC*%
G36*
X114001Y701949D02*
X114001Y701949D01*
X110123Y703556D01*
X107156Y706523D01*
X105549Y710401D01*
X105549Y714599D01*
X107156Y718477D01*
X110123Y721444D01*
X114001Y723051D01*
X118199Y723051D01*
X122077Y721444D01*
X125044Y718477D01*
X126651Y714599D01*
X126651Y710401D01*
X125044Y706523D01*
X122077Y703556D01*
X118199Y701949D01*
X114001Y701949D01*
G37*
%LPD*%
%LPC*%
G36*
X425251Y715599D02*
X425251Y715599D01*
X421465Y717167D01*
X418567Y720065D01*
X416999Y723851D01*
X416999Y727949D01*
X418567Y731735D01*
X421465Y734633D01*
X425251Y736201D01*
X429349Y736201D01*
X433135Y734633D01*
X436033Y731735D01*
X437601Y727949D01*
X437601Y723851D01*
X436033Y720065D01*
X433135Y717167D01*
X429349Y715599D01*
X425251Y715599D01*
G37*
%LPD*%
%LPC*%
G36*
X41651Y379299D02*
X41651Y379299D01*
X37865Y380867D01*
X34967Y383765D01*
X33399Y387551D01*
X33399Y391649D01*
X34967Y395435D01*
X37865Y398333D01*
X41651Y399901D01*
X45749Y399901D01*
X49535Y398333D01*
X52433Y395435D01*
X54001Y391649D01*
X54001Y387551D01*
X52433Y383765D01*
X49535Y380867D01*
X45749Y379299D01*
X41651Y379299D01*
G37*
%LPD*%
%LPC*%
G36*
X41651Y664699D02*
X41651Y664699D01*
X37865Y666267D01*
X34967Y669165D01*
X33399Y672951D01*
X33399Y677049D01*
X34967Y680835D01*
X37865Y683733D01*
X41651Y685301D01*
X45749Y685301D01*
X49535Y683733D01*
X52433Y680835D01*
X54001Y677049D01*
X54001Y672951D01*
X52433Y669165D01*
X49535Y666267D01*
X45749Y664699D01*
X41651Y664699D01*
G37*
%LPD*%
%LPC*%
G36*
X450651Y385399D02*
X450651Y385399D01*
X446865Y386967D01*
X443967Y389865D01*
X442399Y393651D01*
X442399Y397749D01*
X443967Y401535D01*
X446865Y404433D01*
X450651Y406001D01*
X454749Y406001D01*
X458535Y404433D01*
X461433Y401535D01*
X463001Y397749D01*
X463001Y393651D01*
X461433Y389865D01*
X458535Y386967D01*
X454749Y385399D01*
X450651Y385399D01*
G37*
%LPD*%
%LPC*%
G36*
X450651Y664799D02*
X450651Y664799D01*
X446865Y666367D01*
X443967Y669265D01*
X442399Y673051D01*
X442399Y677149D01*
X443967Y680935D01*
X446865Y683833D01*
X450651Y685401D01*
X454749Y685401D01*
X458535Y683833D01*
X461433Y680935D01*
X463001Y677149D01*
X463001Y673051D01*
X461433Y669265D01*
X458535Y666367D01*
X454749Y664799D01*
X450651Y664799D01*
G37*
%LPD*%
%LPC*%
G36*
X425251Y664799D02*
X425251Y664799D01*
X421465Y666367D01*
X418567Y669265D01*
X416999Y673051D01*
X416999Y677149D01*
X418567Y680935D01*
X421465Y683833D01*
X425251Y685401D01*
X429349Y685401D01*
X433135Y683833D01*
X436033Y680935D01*
X437601Y677149D01*
X437601Y673051D01*
X436033Y669265D01*
X433135Y666367D01*
X429349Y664799D01*
X425251Y664799D01*
G37*
%LPD*%
%LPC*%
G36*
X92451Y664699D02*
X92451Y664699D01*
X88665Y666267D01*
X85767Y669165D01*
X84199Y672951D01*
X84199Y677049D01*
X85767Y680835D01*
X88665Y683733D01*
X92451Y685301D01*
X96549Y685301D01*
X100335Y683733D01*
X103233Y680835D01*
X104801Y677049D01*
X104801Y672951D01*
X103233Y669165D01*
X100335Y666267D01*
X96549Y664699D01*
X92451Y664699D01*
G37*
%LPD*%
%LPC*%
G36*
X425251Y639399D02*
X425251Y639399D01*
X421465Y640967D01*
X418567Y643865D01*
X416999Y647651D01*
X416999Y651749D01*
X418567Y655535D01*
X421465Y658433D01*
X425251Y660001D01*
X429349Y660001D01*
X433135Y658433D01*
X436033Y655535D01*
X437601Y651749D01*
X437601Y647651D01*
X436033Y643865D01*
X433135Y640967D01*
X429349Y639399D01*
X425251Y639399D01*
G37*
%LPD*%
%LPC*%
G36*
X425251Y410799D02*
X425251Y410799D01*
X421465Y412367D01*
X418567Y415265D01*
X416999Y419051D01*
X416999Y423149D01*
X418567Y426935D01*
X421465Y429833D01*
X425251Y431401D01*
X429349Y431401D01*
X433135Y429833D01*
X436033Y426935D01*
X437601Y423149D01*
X437601Y419051D01*
X436033Y415265D01*
X433135Y412367D01*
X429349Y410799D01*
X425251Y410799D01*
G37*
%LPD*%
%LPC*%
G36*
X450651Y410799D02*
X450651Y410799D01*
X446865Y412367D01*
X443967Y415265D01*
X442399Y419051D01*
X442399Y423149D01*
X443967Y426935D01*
X446865Y429833D01*
X450651Y431401D01*
X454749Y431401D01*
X458535Y429833D01*
X461433Y426935D01*
X463001Y423149D01*
X463001Y419051D01*
X461433Y415265D01*
X458535Y412367D01*
X454749Y410799D01*
X450651Y410799D01*
G37*
%LPD*%
%LPC*%
G36*
X450651Y486999D02*
X450651Y486999D01*
X446865Y488567D01*
X443967Y491465D01*
X442399Y495251D01*
X442399Y499349D01*
X443967Y503135D01*
X446865Y506033D01*
X450651Y507601D01*
X454749Y507601D01*
X458535Y506033D01*
X461433Y503135D01*
X463001Y499349D01*
X463001Y495251D01*
X461433Y491465D01*
X458535Y488567D01*
X454749Y486999D01*
X450651Y486999D01*
G37*
%LPD*%
%LPC*%
G36*
X41651Y430099D02*
X41651Y430099D01*
X37865Y431667D01*
X34967Y434565D01*
X33399Y438351D01*
X33399Y442449D01*
X34967Y446235D01*
X37865Y449133D01*
X41651Y450701D01*
X45749Y450701D01*
X49535Y449133D01*
X52433Y446235D01*
X54001Y442449D01*
X54001Y438351D01*
X52433Y434565D01*
X49535Y431667D01*
X45749Y430099D01*
X41651Y430099D01*
G37*
%LPD*%
%LPC*%
G36*
X425251Y436199D02*
X425251Y436199D01*
X421465Y437767D01*
X418567Y440665D01*
X416999Y444451D01*
X416999Y448549D01*
X418567Y452335D01*
X421465Y455233D01*
X425251Y456801D01*
X429349Y456801D01*
X433135Y455233D01*
X436033Y452335D01*
X437601Y448549D01*
X437601Y444451D01*
X436033Y440665D01*
X433135Y437767D01*
X429349Y436199D01*
X425251Y436199D01*
G37*
%LPD*%
%LPC*%
G36*
X450651Y461599D02*
X450651Y461599D01*
X446865Y463167D01*
X443967Y466065D01*
X442399Y469851D01*
X442399Y473949D01*
X443967Y477735D01*
X446865Y480633D01*
X450651Y482201D01*
X454749Y482201D01*
X458535Y480633D01*
X461433Y477735D01*
X463001Y473949D01*
X463001Y469851D01*
X461433Y466065D01*
X458535Y463167D01*
X454749Y461599D01*
X450651Y461599D01*
G37*
%LPD*%
%LPC*%
G36*
X425251Y461599D02*
X425251Y461599D01*
X421465Y463167D01*
X418567Y466065D01*
X416999Y469851D01*
X416999Y473949D01*
X418567Y477735D01*
X421465Y480633D01*
X425251Y482201D01*
X429349Y482201D01*
X433135Y480633D01*
X436033Y477735D01*
X437601Y473949D01*
X437601Y469851D01*
X436033Y466065D01*
X433135Y463167D01*
X429349Y461599D01*
X425251Y461599D01*
G37*
%LPD*%
%LPC*%
G36*
X450651Y512399D02*
X450651Y512399D01*
X446865Y513967D01*
X443967Y516865D01*
X442399Y520651D01*
X442399Y524749D01*
X443967Y528535D01*
X446865Y531433D01*
X450651Y533001D01*
X454749Y533001D01*
X458535Y531433D01*
X461433Y528535D01*
X463001Y524749D01*
X463001Y520651D01*
X461433Y516865D01*
X458535Y513967D01*
X454749Y512399D01*
X450651Y512399D01*
G37*
%LPD*%
%LPC*%
G36*
X450651Y283799D02*
X450651Y283799D01*
X446865Y285367D01*
X443967Y288265D01*
X442399Y292051D01*
X442399Y296149D01*
X443967Y299935D01*
X446865Y302833D01*
X450651Y304401D01*
X454749Y304401D01*
X458535Y302833D01*
X461433Y299935D01*
X463001Y296149D01*
X463001Y292051D01*
X461433Y288265D01*
X458535Y285367D01*
X454749Y283799D01*
X450651Y283799D01*
G37*
%LPD*%
%LPC*%
G36*
X425251Y740999D02*
X425251Y740999D01*
X421465Y742567D01*
X418567Y745465D01*
X416999Y749251D01*
X416999Y753349D01*
X418567Y757135D01*
X421465Y760033D01*
X425251Y761601D01*
X429349Y761601D01*
X433135Y760033D01*
X436033Y757135D01*
X437601Y753349D01*
X437601Y749251D01*
X436033Y745465D01*
X433135Y742567D01*
X429349Y740999D01*
X425251Y740999D01*
G37*
%LPD*%
%LPC*%
G36*
X186355Y404249D02*
X186355Y404249D01*
X181199Y409405D01*
X181199Y416695D01*
X186355Y421851D01*
X193645Y421851D01*
X198801Y416695D01*
X198801Y409405D01*
X193645Y404249D01*
X186355Y404249D01*
G37*
%LPD*%
%LPC*%
G36*
X199055Y385199D02*
X199055Y385199D01*
X193899Y390355D01*
X193899Y397645D01*
X199055Y402801D01*
X206345Y402801D01*
X211501Y397645D01*
X211501Y390355D01*
X206345Y385199D01*
X199055Y385199D01*
G37*
%LPD*%
%LPC*%
G36*
X261826Y487253D02*
X261826Y487253D01*
X257053Y492026D01*
X257053Y498774D01*
X261826Y503547D01*
X268574Y503547D01*
X273347Y498774D01*
X273347Y492026D01*
X268574Y487253D01*
X261826Y487253D01*
G37*
%LPD*%
%LPC*%
G36*
X571026Y671853D02*
X571026Y671853D01*
X566253Y676626D01*
X566253Y683374D01*
X571026Y688147D01*
X577774Y688147D01*
X582547Y683374D01*
X582547Y676626D01*
X577774Y671853D01*
X571026Y671853D01*
G37*
%LPD*%
%LPC*%
G36*
X381326Y504553D02*
X381326Y504553D01*
X376553Y509326D01*
X376553Y516074D01*
X381326Y520847D01*
X388074Y520847D01*
X392847Y516074D01*
X392847Y509326D01*
X388074Y504553D01*
X381326Y504553D01*
G37*
%LPD*%
%LPC*%
G36*
X222926Y351853D02*
X222926Y351853D01*
X218153Y356626D01*
X218153Y363374D01*
X222926Y368147D01*
X229674Y368147D01*
X234447Y363374D01*
X234447Y356626D01*
X229674Y351853D01*
X222926Y351853D01*
G37*
%LPD*%
%LPC*%
G36*
X536626Y743153D02*
X536626Y743153D01*
X531853Y747926D01*
X531853Y754674D01*
X536626Y759447D01*
X543374Y759447D01*
X548147Y754674D01*
X548147Y747926D01*
X543374Y743153D01*
X536626Y743153D01*
G37*
%LPD*%
%LPC*%
G36*
X514626Y743153D02*
X514626Y743153D01*
X509853Y747926D01*
X509853Y754674D01*
X514626Y759447D01*
X521374Y759447D01*
X526147Y754674D01*
X526147Y747926D01*
X521374Y743153D01*
X514626Y743153D01*
G37*
%LPD*%
%LPC*%
G36*
X492626Y743153D02*
X492626Y743153D01*
X487853Y747926D01*
X487853Y754674D01*
X492626Y759447D01*
X499374Y759447D01*
X504147Y754674D01*
X504147Y747926D01*
X499374Y743153D01*
X492626Y743153D01*
G37*
%LPD*%
%LPC*%
G36*
X492626Y536453D02*
X492626Y536453D01*
X487853Y541226D01*
X487853Y547974D01*
X492626Y552747D01*
X499374Y552747D01*
X504147Y547974D01*
X504147Y541226D01*
X499374Y536453D01*
X492626Y536453D01*
G37*
%LPD*%
%LPC*%
G36*
X96123Y301523D02*
X96123Y301523D01*
X96123Y316241D01*
X101327Y316241D01*
X110841Y306727D01*
X110841Y301523D01*
X96123Y301523D01*
G37*
%LPD*%
%LPC*%
G36*
X78359Y301523D02*
X78359Y301523D01*
X78359Y306727D01*
X87873Y316241D01*
X93077Y316241D01*
X93077Y301523D01*
X78359Y301523D01*
G37*
%LPD*%
%LPC*%
G36*
X96123Y283759D02*
X96123Y283759D01*
X96123Y298477D01*
X110841Y298477D01*
X110841Y293273D01*
X101327Y283759D01*
X96123Y283759D01*
G37*
%LPD*%
%LPC*%
G36*
X87873Y283759D02*
X87873Y283759D01*
X78359Y293273D01*
X78359Y298477D01*
X93077Y298477D01*
X93077Y283759D01*
X87873Y283759D01*
G37*
%LPD*%
%LPC*%
G36*
X297923Y74923D02*
X297923Y74923D01*
X297923Y88589D01*
X299969Y88265D01*
X302250Y87524D01*
X304388Y86435D01*
X306329Y85025D01*
X308025Y83329D01*
X309435Y81388D01*
X310524Y79250D01*
X311265Y76969D01*
X311589Y74923D01*
X297923Y74923D01*
G37*
%LPD*%
%LPC*%
G36*
X247123Y74923D02*
X247123Y74923D01*
X247123Y88589D01*
X249169Y88265D01*
X251450Y87524D01*
X253588Y86435D01*
X255529Y85025D01*
X257225Y83329D01*
X258635Y81388D01*
X259724Y79250D01*
X260465Y76969D01*
X260789Y74923D01*
X247123Y74923D01*
G37*
%LPD*%
%LPC*%
G36*
X247123Y24123D02*
X247123Y24123D01*
X247123Y37789D01*
X249169Y37465D01*
X251450Y36724D01*
X253588Y35635D01*
X255529Y34225D01*
X257225Y32529D01*
X258635Y30588D01*
X259724Y28450D01*
X260465Y26169D01*
X260789Y24123D01*
X247123Y24123D01*
G37*
%LPD*%
%LPC*%
G36*
X297923Y24123D02*
X297923Y24123D01*
X297923Y37789D01*
X299969Y37465D01*
X302250Y36724D01*
X304388Y35635D01*
X306329Y34225D01*
X308025Y32529D01*
X309435Y30588D01*
X310524Y28450D01*
X311265Y26169D01*
X311589Y24123D01*
X297923Y24123D01*
G37*
%LPD*%
%LPC*%
G36*
X247123Y21077D02*
X247123Y21077D01*
X260789Y21077D01*
X260465Y19031D01*
X259724Y16750D01*
X258635Y14612D01*
X257225Y12671D01*
X255529Y10975D01*
X253588Y9565D01*
X251450Y8476D01*
X249169Y7735D01*
X247123Y7411D01*
X247123Y21077D01*
G37*
%LPD*%
%LPC*%
G36*
X230411Y74923D02*
X230411Y74923D01*
X230735Y76969D01*
X231476Y79250D01*
X232565Y81388D01*
X233975Y83329D01*
X235671Y85025D01*
X237612Y86435D01*
X239750Y87524D01*
X242031Y88265D01*
X244077Y88589D01*
X244077Y74923D01*
X230411Y74923D01*
G37*
%LPD*%
%LPC*%
G36*
X281211Y74923D02*
X281211Y74923D01*
X281535Y76969D01*
X282276Y79250D01*
X283365Y81388D01*
X284775Y83329D01*
X286471Y85025D01*
X288412Y86435D01*
X290550Y87524D01*
X292831Y88265D01*
X294877Y88589D01*
X294877Y74923D01*
X281211Y74923D01*
G37*
%LPD*%
%LPC*%
G36*
X297923Y71877D02*
X297923Y71877D01*
X311589Y71877D01*
X311265Y69831D01*
X310524Y67550D01*
X309435Y65412D01*
X308025Y63471D01*
X306329Y61775D01*
X304388Y60365D01*
X302250Y59276D01*
X299969Y58535D01*
X297923Y58211D01*
X297923Y71877D01*
G37*
%LPD*%
%LPC*%
G36*
X247123Y71877D02*
X247123Y71877D01*
X260789Y71877D01*
X260465Y69831D01*
X259724Y67550D01*
X258635Y65412D01*
X257225Y63471D01*
X255529Y61775D01*
X253588Y60365D01*
X251450Y59276D01*
X249169Y58535D01*
X247123Y58211D01*
X247123Y71877D01*
G37*
%LPD*%
%LPC*%
G36*
X230411Y24123D02*
X230411Y24123D01*
X230735Y26169D01*
X231476Y28450D01*
X232565Y30588D01*
X233975Y32529D01*
X235671Y34225D01*
X237612Y35635D01*
X239750Y36724D01*
X242031Y37465D01*
X244077Y37789D01*
X244077Y24123D01*
X230411Y24123D01*
G37*
%LPD*%
%LPC*%
G36*
X281211Y24123D02*
X281211Y24123D01*
X281535Y26169D01*
X282276Y28450D01*
X283365Y30588D01*
X284775Y32529D01*
X286471Y34225D01*
X288412Y35635D01*
X290550Y36724D01*
X292831Y37465D01*
X294877Y37789D01*
X294877Y24123D01*
X281211Y24123D01*
G37*
%LPD*%
%LPC*%
G36*
X297923Y21077D02*
X297923Y21077D01*
X311589Y21077D01*
X311265Y19031D01*
X310524Y16750D01*
X309435Y14612D01*
X308025Y12671D01*
X306329Y10975D01*
X304388Y9565D01*
X302250Y8476D01*
X299969Y7735D01*
X297923Y7411D01*
X297923Y21077D01*
G37*
%LPD*%
%LPC*%
G36*
X292831Y58535D02*
X292831Y58535D01*
X290550Y59276D01*
X288412Y60365D01*
X286471Y61775D01*
X284775Y63471D01*
X283365Y65412D01*
X282276Y67550D01*
X281535Y69831D01*
X281211Y71877D01*
X294877Y71877D01*
X294877Y58211D01*
X292831Y58535D01*
G37*
%LPD*%
%LPC*%
G36*
X292831Y7735D02*
X292831Y7735D01*
X290550Y8476D01*
X288412Y9565D01*
X286471Y10975D01*
X284775Y12671D01*
X283365Y14612D01*
X282276Y16750D01*
X281535Y19031D01*
X281211Y21077D01*
X294877Y21077D01*
X294877Y7411D01*
X292831Y7735D01*
G37*
%LPD*%
%LPC*%
G36*
X242031Y7735D02*
X242031Y7735D01*
X239750Y8476D01*
X237612Y9565D01*
X235671Y10975D01*
X233975Y12671D01*
X232565Y14612D01*
X231476Y16750D01*
X230735Y19031D01*
X230411Y21077D01*
X244077Y21077D01*
X244077Y7411D01*
X242031Y7735D01*
G37*
%LPD*%
%LPC*%
G36*
X242031Y58535D02*
X242031Y58535D01*
X239750Y59276D01*
X237612Y60365D01*
X235671Y61775D01*
X233975Y63471D01*
X232565Y65412D01*
X231476Y67550D01*
X230735Y69831D01*
X230411Y71877D01*
X244077Y71877D01*
X244077Y58211D01*
X242031Y58535D01*
G37*
%LPD*%
%LPC*%
G36*
X130613Y611523D02*
X130613Y611523D01*
X130930Y613522D01*
X131661Y615774D01*
X132736Y617883D01*
X134128Y619798D01*
X135802Y621472D01*
X137717Y622864D01*
X139826Y623939D01*
X142078Y624670D01*
X144077Y624987D01*
X144077Y611523D01*
X130613Y611523D01*
G37*
%LPD*%
%LPC*%
G36*
X130613Y501523D02*
X130613Y501523D01*
X130930Y503522D01*
X131661Y505774D01*
X132736Y507883D01*
X134128Y509798D01*
X135802Y511472D01*
X137717Y512864D01*
X139826Y513939D01*
X142078Y514670D01*
X144077Y514987D01*
X144077Y501523D01*
X130613Y501523D01*
G37*
%LPD*%
%LPC*%
G36*
X142078Y485330D02*
X142078Y485330D01*
X139826Y486061D01*
X137717Y487136D01*
X135802Y488528D01*
X134128Y490202D01*
X132736Y492117D01*
X131661Y494226D01*
X130930Y496478D01*
X130613Y498477D01*
X144077Y498477D01*
X144077Y485013D01*
X142078Y485330D01*
G37*
%LPD*%
%LPC*%
G36*
X142078Y595330D02*
X142078Y595330D01*
X139826Y596061D01*
X137717Y597136D01*
X135802Y598528D01*
X134128Y600202D01*
X132736Y602117D01*
X131661Y604226D01*
X130930Y606478D01*
X130613Y608477D01*
X144077Y608477D01*
X144077Y595013D01*
X142078Y595330D01*
G37*
%LPD*%
%LPC*%
G36*
X215923Y542023D02*
X215923Y542023D01*
X215923Y557925D01*
X216751Y557794D01*
X218254Y557305D01*
X219663Y556588D01*
X220941Y555659D01*
X222059Y554541D01*
X222988Y553263D01*
X223705Y551854D01*
X224194Y550351D01*
X224441Y548790D01*
X224441Y542023D01*
X215923Y542023D01*
G37*
%LPD*%
%LPC*%
G36*
X331323Y542023D02*
X331323Y542023D01*
X331323Y557925D01*
X332151Y557794D01*
X333654Y557305D01*
X335063Y556588D01*
X336341Y555659D01*
X337459Y554541D01*
X338388Y553263D01*
X339105Y551854D01*
X339594Y550351D01*
X339841Y548790D01*
X339841Y542023D01*
X331323Y542023D01*
G37*
%LPD*%
%LPC*%
G36*
X215923Y538977D02*
X215923Y538977D01*
X224441Y538977D01*
X224441Y532210D01*
X224194Y530649D01*
X223705Y529146D01*
X222988Y527737D01*
X222059Y526459D01*
X220941Y525341D01*
X219663Y524412D01*
X218254Y523695D01*
X216751Y523206D01*
X215923Y523075D01*
X215923Y538977D01*
G37*
%LPD*%
%LPC*%
G36*
X331323Y538977D02*
X331323Y538977D01*
X339841Y538977D01*
X339841Y532210D01*
X339594Y530649D01*
X339105Y529146D01*
X338388Y527737D01*
X337459Y526459D01*
X336341Y525341D01*
X335063Y524412D01*
X333654Y523695D01*
X332151Y523206D01*
X331323Y523075D01*
X331323Y538977D01*
G37*
%LPD*%
%LPC*%
G36*
X336323Y440977D02*
X336323Y440977D01*
X344841Y440977D01*
X344841Y434210D01*
X344594Y432649D01*
X344105Y431146D01*
X343388Y429737D01*
X342459Y428459D01*
X341341Y427341D01*
X340063Y426412D01*
X338654Y425695D01*
X337151Y425206D01*
X336323Y425075D01*
X336323Y440977D01*
G37*
%LPD*%
%LPC*%
G36*
X204359Y542023D02*
X204359Y542023D01*
X204359Y548790D01*
X204606Y550351D01*
X205095Y551854D01*
X205812Y553263D01*
X206741Y554541D01*
X207859Y555659D01*
X209137Y556588D01*
X210546Y557305D01*
X212049Y557794D01*
X212877Y557925D01*
X212877Y542023D01*
X204359Y542023D01*
G37*
%LPD*%
%LPC*%
G36*
X319759Y542023D02*
X319759Y542023D01*
X319759Y548790D01*
X320006Y550351D01*
X320495Y551854D01*
X321212Y553263D01*
X322141Y554541D01*
X323259Y555659D01*
X324537Y556588D01*
X325946Y557305D01*
X327449Y557794D01*
X328277Y557925D01*
X328277Y542023D01*
X319759Y542023D01*
G37*
%LPD*%
%LPC*%
G36*
X332449Y425206D02*
X332449Y425206D01*
X330946Y425695D01*
X329537Y426412D01*
X328259Y427341D01*
X327141Y428459D01*
X326212Y429737D01*
X325495Y431146D01*
X325006Y432649D01*
X324759Y434210D01*
X324759Y440977D01*
X333277Y440977D01*
X333277Y425075D01*
X332449Y425206D01*
G37*
%LPD*%
%LPC*%
G36*
X212049Y523206D02*
X212049Y523206D01*
X210546Y523695D01*
X209137Y524412D01*
X207859Y525341D01*
X206741Y526459D01*
X205812Y527737D01*
X205095Y529146D01*
X204606Y530649D01*
X204359Y532210D01*
X204359Y538977D01*
X212877Y538977D01*
X212877Y523075D01*
X212049Y523206D01*
G37*
%LPD*%
%LPC*%
G36*
X327449Y523206D02*
X327449Y523206D01*
X325946Y523695D01*
X324537Y524412D01*
X323259Y525341D01*
X322141Y526459D01*
X321212Y527737D01*
X320495Y529146D01*
X320006Y530649D01*
X319759Y532210D01*
X319759Y538977D01*
X328277Y538977D01*
X328277Y523075D01*
X327449Y523206D01*
G37*
%LPD*%
%LPC*%
G36*
X122523Y783523D02*
X122523Y783523D01*
X122523Y794203D01*
X123878Y793988D01*
X125718Y793390D01*
X127442Y792512D01*
X129007Y791375D01*
X130375Y790007D01*
X131512Y788442D01*
X132390Y786718D01*
X132988Y784878D01*
X133203Y783523D01*
X122523Y783523D01*
G37*
%LPD*%
%LPC*%
G36*
X122523Y780477D02*
X122523Y780477D01*
X133203Y780477D01*
X132988Y779122D01*
X132390Y777282D01*
X131512Y775558D01*
X130375Y773993D01*
X129007Y772625D01*
X127442Y771488D01*
X125718Y770610D01*
X123878Y770012D01*
X122523Y769797D01*
X122523Y780477D01*
G37*
%LPD*%
%LPC*%
G36*
X108797Y783523D02*
X108797Y783523D01*
X109012Y784878D01*
X109610Y786718D01*
X110488Y788442D01*
X111625Y790007D01*
X112993Y791375D01*
X114558Y792512D01*
X116282Y793390D01*
X118122Y793988D01*
X119477Y794203D01*
X119477Y783523D01*
X108797Y783523D01*
G37*
%LPD*%
%LPC*%
G36*
X118122Y770012D02*
X118122Y770012D01*
X116282Y770610D01*
X114558Y771488D01*
X112993Y772625D01*
X111625Y773993D01*
X110488Y775558D01*
X109610Y777282D01*
X109012Y779122D01*
X108797Y780477D01*
X119477Y780477D01*
X119477Y769797D01*
X118122Y770012D01*
G37*
%LPD*%
%LPC*%
G36*
X598523Y616023D02*
X598523Y616023D01*
X598523Y624541D01*
X603834Y624541D01*
X604481Y624368D01*
X605060Y624033D01*
X605533Y623560D01*
X605868Y622981D01*
X606041Y622334D01*
X606041Y616023D01*
X598523Y616023D01*
G37*
%LPD*%
%LPC*%
G36*
X598523Y604459D02*
X598523Y604459D01*
X598523Y612977D01*
X606041Y612977D01*
X606041Y606666D01*
X605868Y606019D01*
X605533Y605440D01*
X605060Y604967D01*
X604481Y604632D01*
X603834Y604459D01*
X598523Y604459D01*
G37*
%LPD*%
%LPC*%
G36*
X493959Y651523D02*
X493959Y651523D01*
X493959Y657834D01*
X494132Y658481D01*
X494467Y659060D01*
X494940Y659533D01*
X495519Y659868D01*
X496166Y660041D01*
X501477Y660041D01*
X501477Y651523D01*
X493959Y651523D01*
G37*
%LPD*%
%LPC*%
G36*
X493959Y624523D02*
X493959Y624523D01*
X493959Y630834D01*
X494132Y631481D01*
X494467Y632060D01*
X494940Y632533D01*
X495519Y632868D01*
X496166Y633041D01*
X501477Y633041D01*
X501477Y624523D01*
X493959Y624523D01*
G37*
%LPD*%
%LPC*%
G36*
X544523Y577959D02*
X544523Y577959D01*
X544523Y585477D01*
X553041Y585477D01*
X553041Y580166D01*
X552868Y579519D01*
X552533Y578940D01*
X552060Y578467D01*
X551481Y578132D01*
X550834Y577959D01*
X544523Y577959D01*
G37*
%LPD*%
%LPC*%
G36*
X496166Y612959D02*
X496166Y612959D01*
X495519Y613132D01*
X494940Y613467D01*
X494467Y613940D01*
X494132Y614519D01*
X493959Y615166D01*
X493959Y621477D01*
X501477Y621477D01*
X501477Y612959D01*
X496166Y612959D01*
G37*
%LPD*%
%LPC*%
G36*
X496166Y639959D02*
X496166Y639959D01*
X495519Y640132D01*
X494940Y640467D01*
X494467Y640940D01*
X494132Y641519D01*
X493959Y642166D01*
X493959Y648477D01*
X501477Y648477D01*
X501477Y639959D01*
X496166Y639959D01*
G37*
%LPD*%
%LPC*%
G36*
X535166Y577959D02*
X535166Y577959D01*
X534519Y578132D01*
X533940Y578467D01*
X533467Y578940D01*
X533132Y579519D01*
X532959Y580166D01*
X532959Y585477D01*
X541477Y585477D01*
X541477Y577959D01*
X535166Y577959D01*
G37*
%LPD*%
%LPC*%
G36*
X428823Y702023D02*
X428823Y702023D01*
X428823Y711184D01*
X429827Y711025D01*
X431442Y710500D01*
X432955Y709729D01*
X434330Y708731D01*
X435531Y707530D01*
X436529Y706155D01*
X437300Y704642D01*
X437825Y703027D01*
X437984Y702023D01*
X428823Y702023D01*
G37*
%LPD*%
%LPC*%
G36*
X454223Y270223D02*
X454223Y270223D01*
X454223Y279384D01*
X455227Y279225D01*
X456842Y278700D01*
X458355Y277929D01*
X459730Y276931D01*
X460931Y275730D01*
X461929Y274355D01*
X462700Y272842D01*
X463225Y271227D01*
X463384Y270223D01*
X454223Y270223D01*
G37*
%LPD*%
%LPC*%
G36*
X428823Y397223D02*
X428823Y397223D01*
X428823Y406384D01*
X429827Y406225D01*
X431442Y405700D01*
X432955Y404929D01*
X434330Y403931D01*
X435531Y402730D01*
X436529Y401355D01*
X437300Y399842D01*
X437825Y398227D01*
X437984Y397223D01*
X428823Y397223D01*
G37*
%LPD*%
%LPC*%
G36*
X454223Y448023D02*
X454223Y448023D01*
X454223Y457184D01*
X455227Y457025D01*
X456842Y456500D01*
X458355Y455729D01*
X459730Y454731D01*
X460931Y453530D01*
X461929Y452155D01*
X462700Y450642D01*
X463225Y449027D01*
X463384Y448023D01*
X454223Y448023D01*
G37*
%LPD*%
%LPC*%
G36*
X442016Y651223D02*
X442016Y651223D01*
X442175Y652227D01*
X442700Y653842D01*
X443471Y655355D01*
X444469Y656730D01*
X445670Y657931D01*
X447045Y658929D01*
X448558Y659700D01*
X450173Y660225D01*
X451177Y660384D01*
X451177Y651223D01*
X442016Y651223D01*
G37*
%LPD*%
%LPC*%
G36*
X454223Y444977D02*
X454223Y444977D01*
X463384Y444977D01*
X463225Y443973D01*
X462700Y442358D01*
X461929Y440845D01*
X460931Y439470D01*
X459730Y438269D01*
X458355Y437271D01*
X456842Y436500D01*
X455227Y435975D01*
X454223Y435816D01*
X454223Y444977D01*
G37*
%LPD*%
%LPC*%
G36*
X442016Y270223D02*
X442016Y270223D01*
X442175Y271227D01*
X442700Y272842D01*
X443471Y274355D01*
X444469Y275730D01*
X445670Y276931D01*
X447045Y277929D01*
X448558Y278700D01*
X450173Y279225D01*
X451177Y279384D01*
X451177Y270223D01*
X442016Y270223D01*
G37*
%LPD*%
%LPC*%
G36*
X416616Y397223D02*
X416616Y397223D01*
X416775Y398227D01*
X417300Y399842D01*
X418071Y401355D01*
X419069Y402730D01*
X420270Y403931D01*
X421645Y404929D01*
X423158Y405700D01*
X424773Y406225D01*
X425777Y406384D01*
X425777Y397223D01*
X416616Y397223D01*
G37*
%LPD*%
%LPC*%
G36*
X416616Y600423D02*
X416616Y600423D01*
X416775Y601427D01*
X417300Y603042D01*
X418071Y604555D01*
X419069Y605930D01*
X420270Y607131D01*
X421645Y608129D01*
X423158Y608900D01*
X424773Y609425D01*
X425777Y609584D01*
X425777Y600423D01*
X416616Y600423D01*
G37*
%LPD*%
%LPC*%
G36*
X428823Y521177D02*
X428823Y521177D01*
X437984Y521177D01*
X437825Y520173D01*
X437300Y518558D01*
X436529Y517045D01*
X435531Y515670D01*
X434330Y514469D01*
X432955Y513471D01*
X431442Y512700D01*
X429827Y512175D01*
X428823Y512016D01*
X428823Y521177D01*
G37*
%LPD*%
%LPC*%
G36*
X428823Y698977D02*
X428823Y698977D01*
X437984Y698977D01*
X437825Y697973D01*
X437300Y696358D01*
X436529Y694845D01*
X435531Y693470D01*
X434330Y692269D01*
X432955Y691271D01*
X431442Y690500D01*
X429827Y689975D01*
X428823Y689816D01*
X428823Y698977D01*
G37*
%LPD*%
%LPC*%
G36*
X454223Y267177D02*
X454223Y267177D01*
X463384Y267177D01*
X463225Y266173D01*
X462700Y264558D01*
X461929Y263045D01*
X460931Y261670D01*
X459730Y260469D01*
X458355Y259471D01*
X456842Y258700D01*
X455227Y258175D01*
X454223Y258016D01*
X454223Y267177D01*
G37*
%LPD*%
%LPC*%
G36*
X416616Y702023D02*
X416616Y702023D01*
X416775Y703027D01*
X417300Y704642D01*
X418071Y706155D01*
X419069Y707530D01*
X420270Y708731D01*
X421645Y709729D01*
X423158Y710500D01*
X424773Y711025D01*
X425777Y711184D01*
X425777Y702023D01*
X416616Y702023D01*
G37*
%LPD*%
%LPC*%
G36*
X442016Y448023D02*
X442016Y448023D01*
X442175Y449027D01*
X442700Y450642D01*
X443471Y452155D01*
X444469Y453530D01*
X445670Y454731D01*
X447045Y455729D01*
X448558Y456500D01*
X450173Y457025D01*
X451177Y457184D01*
X451177Y448023D01*
X442016Y448023D01*
G37*
%LPD*%
%LPC*%
G36*
X450173Y435975D02*
X450173Y435975D01*
X448558Y436500D01*
X447045Y437271D01*
X445670Y438269D01*
X444469Y439470D01*
X443471Y440845D01*
X442700Y442358D01*
X442175Y443973D01*
X442016Y444977D01*
X451177Y444977D01*
X451177Y435816D01*
X450173Y435975D01*
G37*
%LPD*%
%LPC*%
G36*
X424773Y512175D02*
X424773Y512175D01*
X423158Y512700D01*
X421645Y513471D01*
X420270Y514469D01*
X419069Y515670D01*
X418071Y517045D01*
X417300Y518558D01*
X416775Y520173D01*
X416616Y521177D01*
X425777Y521177D01*
X425777Y512016D01*
X424773Y512175D01*
G37*
%LPD*%
%LPC*%
G36*
X424773Y689975D02*
X424773Y689975D01*
X423158Y690500D01*
X421645Y691271D01*
X420270Y692269D01*
X419069Y693470D01*
X418071Y694845D01*
X417300Y696358D01*
X416775Y697973D01*
X416616Y698977D01*
X425777Y698977D01*
X425777Y689816D01*
X424773Y689975D01*
G37*
%LPD*%
%LPC*%
G36*
X450173Y258175D02*
X450173Y258175D01*
X448558Y258700D01*
X447045Y259471D01*
X445670Y260469D01*
X444469Y261670D01*
X443471Y263045D01*
X442700Y264558D01*
X442175Y266173D01*
X442016Y267177D01*
X451177Y267177D01*
X451177Y258016D01*
X450173Y258175D01*
G37*
%LPD*%
%LPC*%
G36*
X424773Y588375D02*
X424773Y588375D01*
X423158Y588900D01*
X421645Y589671D01*
X420270Y590669D01*
X419069Y591870D01*
X418071Y593245D01*
X417300Y594758D01*
X416775Y596373D01*
X416616Y597377D01*
X425777Y597377D01*
X425777Y588216D01*
X424773Y588375D01*
G37*
%LPD*%
%LPC*%
G36*
X424773Y334375D02*
X424773Y334375D01*
X423158Y334900D01*
X421645Y335671D01*
X420270Y336669D01*
X419069Y337870D01*
X418071Y339245D01*
X417300Y340758D01*
X416775Y342373D01*
X416616Y343377D01*
X425777Y343377D01*
X425777Y334216D01*
X424773Y334375D01*
G37*
%LPD*%
%LPC*%
G36*
X178823Y395523D02*
X178823Y395523D01*
X178823Y403291D01*
X181148Y403291D01*
X186591Y397848D01*
X186591Y395523D01*
X178823Y395523D01*
G37*
%LPD*%
%LPC*%
G36*
X168009Y395523D02*
X168009Y395523D01*
X168009Y397848D01*
X173452Y403291D01*
X175777Y403291D01*
X175777Y395523D01*
X168009Y395523D01*
G37*
%LPD*%
%LPC*%
G36*
X178823Y384709D02*
X178823Y384709D01*
X178823Y392477D01*
X186591Y392477D01*
X186591Y390152D01*
X181148Y384709D01*
X178823Y384709D01*
G37*
%LPD*%
%LPC*%
G36*
X173452Y384709D02*
X173452Y384709D01*
X168009Y390152D01*
X168009Y392477D01*
X175777Y392477D01*
X175777Y384709D01*
X173452Y384709D01*
G37*
%LPD*%
%LPC*%
G36*
X235823Y625023D02*
X235823Y625023D01*
X235823Y632137D01*
X237877Y632137D01*
X242937Y627077D01*
X242937Y625023D01*
X235823Y625023D01*
G37*
%LPD*%
%LPC*%
G36*
X363823Y654023D02*
X363823Y654023D01*
X363823Y661137D01*
X365877Y661137D01*
X370937Y656077D01*
X370937Y654023D01*
X363823Y654023D01*
G37*
%LPD*%
%LPC*%
G36*
X283823Y654023D02*
X283823Y654023D01*
X283823Y661137D01*
X285877Y661137D01*
X290937Y656077D01*
X290937Y654023D01*
X283823Y654023D01*
G37*
%LPD*%
%LPC*%
G36*
X391023Y366523D02*
X391023Y366523D01*
X391023Y373637D01*
X393077Y373637D01*
X398137Y368577D01*
X398137Y366523D01*
X391023Y366523D01*
G37*
%LPD*%
%LPC*%
G36*
X312223Y591523D02*
X312223Y591523D01*
X312223Y598637D01*
X314277Y598637D01*
X319337Y593577D01*
X319337Y591523D01*
X312223Y591523D01*
G37*
%LPD*%
%LPC*%
G36*
X239823Y697123D02*
X239823Y697123D01*
X239823Y704237D01*
X241877Y704237D01*
X246937Y699177D01*
X246937Y697123D01*
X239823Y697123D01*
G37*
%LPD*%
%LPC*%
G36*
X273663Y654023D02*
X273663Y654023D01*
X273663Y656077D01*
X278723Y661137D01*
X280777Y661137D01*
X280777Y654023D01*
X273663Y654023D01*
G37*
%LPD*%
%LPC*%
G36*
X353663Y654023D02*
X353663Y654023D01*
X353663Y656077D01*
X358723Y661137D01*
X360777Y661137D01*
X360777Y654023D01*
X353663Y654023D01*
G37*
%LPD*%
%LPC*%
G36*
X350663Y591523D02*
X350663Y591523D01*
X350663Y593577D01*
X355723Y598637D01*
X357777Y598637D01*
X357777Y591523D01*
X350663Y591523D01*
G37*
%LPD*%
%LPC*%
G36*
X380863Y366523D02*
X380863Y366523D01*
X380863Y368577D01*
X385923Y373637D01*
X387977Y373637D01*
X387977Y366523D01*
X380863Y366523D01*
G37*
%LPD*%
%LPC*%
G36*
X229663Y697123D02*
X229663Y697123D01*
X229663Y699177D01*
X234723Y704237D01*
X236777Y704237D01*
X236777Y697123D01*
X229663Y697123D01*
G37*
%LPD*%
%LPC*%
G36*
X225663Y625023D02*
X225663Y625023D01*
X225663Y627077D01*
X230723Y632137D01*
X232777Y632137D01*
X232777Y625023D01*
X225663Y625023D01*
G37*
%LPD*%
%LPC*%
G36*
X312223Y581363D02*
X312223Y581363D01*
X312223Y588477D01*
X319337Y588477D01*
X319337Y586423D01*
X314277Y581363D01*
X312223Y581363D01*
G37*
%LPD*%
%LPC*%
G36*
X235823Y614863D02*
X235823Y614863D01*
X235823Y621977D01*
X242937Y621977D01*
X242937Y619923D01*
X237877Y614863D01*
X235823Y614863D01*
G37*
%LPD*%
%LPC*%
G36*
X239823Y686963D02*
X239823Y686963D01*
X239823Y694077D01*
X246937Y694077D01*
X246937Y692023D01*
X241877Y686963D01*
X239823Y686963D01*
G37*
%LPD*%
%LPC*%
G36*
X363823Y643863D02*
X363823Y643863D01*
X363823Y650977D01*
X370937Y650977D01*
X370937Y648923D01*
X365877Y643863D01*
X363823Y643863D01*
G37*
%LPD*%
%LPC*%
G36*
X283823Y643863D02*
X283823Y643863D01*
X283823Y650977D01*
X290937Y650977D01*
X290937Y648923D01*
X285877Y643863D01*
X283823Y643863D01*
G37*
%LPD*%
%LPC*%
G36*
X391023Y356363D02*
X391023Y356363D01*
X391023Y363477D01*
X398137Y363477D01*
X398137Y361423D01*
X393077Y356363D01*
X391023Y356363D01*
G37*
%LPD*%
%LPC*%
G36*
X355723Y581363D02*
X355723Y581363D01*
X350663Y586423D01*
X350663Y588477D01*
X357777Y588477D01*
X357777Y581363D01*
X355723Y581363D01*
G37*
%LPD*%
%LPC*%
G36*
X234723Y686963D02*
X234723Y686963D01*
X229663Y692023D01*
X229663Y694077D01*
X236777Y694077D01*
X236777Y686963D01*
X234723Y686963D01*
G37*
%LPD*%
%LPC*%
G36*
X385923Y356363D02*
X385923Y356363D01*
X380863Y361423D01*
X380863Y363477D01*
X387977Y363477D01*
X387977Y356363D01*
X385923Y356363D01*
G37*
%LPD*%
%LPC*%
G36*
X230723Y614863D02*
X230723Y614863D01*
X225663Y619923D01*
X225663Y621977D01*
X232777Y621977D01*
X232777Y614863D01*
X230723Y614863D01*
G37*
%LPD*%
%LPC*%
G36*
X278723Y643863D02*
X278723Y643863D01*
X273663Y648923D01*
X273663Y650977D01*
X280777Y650977D01*
X280777Y643863D01*
X278723Y643863D01*
G37*
%LPD*%
%LPC*%
G36*
X358723Y643863D02*
X358723Y643863D01*
X353663Y648923D01*
X353663Y650977D01*
X360777Y650977D01*
X360777Y643863D01*
X358723Y643863D01*
G37*
%LPD*%
%LPC*%
G36*
X94599Y299999D02*
X94599Y299999D01*
X94599Y300001D01*
X94601Y300001D01*
X94601Y299999D01*
X94599Y299999D01*
G37*
%LPD*%
%LPC*%
G36*
X427299Y700499D02*
X427299Y700499D01*
X427299Y700501D01*
X427301Y700501D01*
X427301Y700499D01*
X427299Y700499D01*
G37*
%LPD*%
%LPC*%
G36*
X177299Y393999D02*
X177299Y393999D01*
X177299Y394001D01*
X177301Y394001D01*
X177301Y393999D01*
X177299Y393999D01*
G37*
%LPD*%
%LPC*%
G36*
X238299Y695599D02*
X238299Y695599D01*
X238299Y695601D01*
X238301Y695601D01*
X238301Y695599D01*
X238299Y695599D01*
G37*
%LPD*%
%LPC*%
G36*
X362299Y652499D02*
X362299Y652499D01*
X362299Y652501D01*
X362301Y652501D01*
X362301Y652499D01*
X362299Y652499D01*
G37*
%LPD*%
%LPC*%
G36*
X145599Y609999D02*
X145599Y609999D01*
X145599Y610001D01*
X145601Y610001D01*
X145601Y609999D01*
X145599Y609999D01*
G37*
%LPD*%
%LPC*%
G36*
X296399Y73399D02*
X296399Y73399D01*
X296399Y73401D01*
X296401Y73401D01*
X296401Y73399D01*
X296399Y73399D01*
G37*
%LPD*%
%LPC*%
G36*
X245599Y73399D02*
X245599Y73399D01*
X245599Y73401D01*
X245601Y73401D01*
X245601Y73399D01*
X245599Y73399D01*
G37*
%LPD*%
%LPC*%
G36*
X329799Y540499D02*
X329799Y540499D01*
X329799Y540501D01*
X329801Y540501D01*
X329801Y540499D01*
X329799Y540499D01*
G37*
%LPD*%
%LPC*%
G36*
X234299Y623499D02*
X234299Y623499D01*
X234299Y623501D01*
X234301Y623501D01*
X234301Y623499D01*
X234299Y623499D01*
G37*
%LPD*%
%LPC*%
G36*
X452699Y446499D02*
X452699Y446499D01*
X452699Y446501D01*
X452701Y446501D01*
X452701Y446499D01*
X452699Y446499D01*
G37*
%LPD*%
%LPC*%
G36*
X120999Y781999D02*
X120999Y781999D01*
X120999Y782001D01*
X121001Y782001D01*
X121001Y781999D01*
X120999Y781999D01*
G37*
%LPD*%
%LPC*%
G36*
X145599Y499999D02*
X145599Y499999D01*
X145599Y500001D01*
X145601Y500001D01*
X145601Y499999D01*
X145599Y499999D01*
G37*
%LPD*%
%LPC*%
G36*
X452699Y268699D02*
X452699Y268699D01*
X452699Y268701D01*
X452701Y268701D01*
X452701Y268699D01*
X452699Y268699D01*
G37*
%LPD*%
%LPC*%
G36*
X296399Y22599D02*
X296399Y22599D01*
X296399Y22601D01*
X296401Y22601D01*
X296401Y22599D01*
X296399Y22599D01*
G37*
%LPD*%
%LPC*%
G36*
X245599Y22599D02*
X245599Y22599D01*
X245599Y22601D01*
X245601Y22601D01*
X245601Y22599D01*
X245599Y22599D01*
G37*
%LPD*%
%LPC*%
G36*
X282299Y652499D02*
X282299Y652499D01*
X282299Y652501D01*
X282301Y652501D01*
X282301Y652499D01*
X282299Y652499D01*
G37*
%LPD*%
%LPC*%
G36*
X214399Y540499D02*
X214399Y540499D01*
X214399Y540501D01*
X214401Y540501D01*
X214401Y540499D01*
X214399Y540499D01*
G37*
%LPD*%
%LPC*%
G36*
X389499Y364999D02*
X389499Y364999D01*
X389499Y365001D01*
X389501Y365001D01*
X389501Y364999D01*
X389499Y364999D01*
G37*
%LPD*%
D10*
X0Y0D02*
X424000Y0D01*
X424000Y173500D01*
X992000Y173500D01*
X992000Y355000D01*
X982000Y355000D01*
X982000Y465000D01*
X992000Y465000D01*
X992000Y820000D01*
X962000Y820000D01*
X962000Y835000D01*
X403000Y835000D01*
X403000Y820000D01*
X0Y820000D01*
X0Y465000D01*
X10000Y465000D01*
X10000Y355000D01*
X0Y355000D01*
X0Y0D01*
X58500Y160000D02*
X58504Y160307D01*
X58515Y160613D01*
X58534Y160920D01*
X58560Y161225D01*
X58594Y161530D01*
X58635Y161834D01*
X58684Y162137D01*
X58740Y162439D01*
X58804Y162739D01*
X58875Y163037D01*
X58953Y163334D01*
X59038Y163629D01*
X59131Y163921D01*
X59231Y164211D01*
X59338Y164499D01*
X59452Y164784D01*
X59572Y165066D01*
X59700Y165344D01*
X59835Y165620D01*
X59976Y165892D01*
X60124Y166161D01*
X60278Y166426D01*
X60439Y166687D01*
X60607Y166945D01*
X60780Y167198D01*
X60960Y167446D01*
X61146Y167690D01*
X61337Y167930D01*
X61535Y168165D01*
X61738Y168394D01*
X61947Y168619D01*
X62161Y168839D01*
X62381Y169053D01*
X62606Y169262D01*
X62835Y169465D01*
X63070Y169663D01*
X63310Y169854D01*
X63554Y170040D01*
X63802Y170220D01*
X64055Y170393D01*
X64313Y170561D01*
X64574Y170722D01*
X64839Y170876D01*
X65108Y171024D01*
X65380Y171165D01*
X65656Y171300D01*
X65934Y171428D01*
X66216Y171548D01*
X66501Y171662D01*
X66789Y171769D01*
X67079Y171869D01*
X67371Y171962D01*
X67666Y172047D01*
X67963Y172125D01*
X68261Y172196D01*
X68561Y172260D01*
X68863Y172316D01*
X69166Y172365D01*
X69470Y172406D01*
X69775Y172440D01*
X70080Y172466D01*
X70387Y172485D01*
X70693Y172496D01*
X71000Y172500D01*
X71307Y172496D01*
X71613Y172485D01*
X71920Y172466D01*
X72225Y172440D01*
X72530Y172406D01*
X72834Y172365D01*
X73137Y172316D01*
X73439Y172260D01*
X73739Y172196D01*
X74037Y172125D01*
X74334Y172047D01*
X74629Y171962D01*
X74921Y171869D01*
X75211Y171769D01*
X75499Y171662D01*
X75784Y171548D01*
X76066Y171428D01*
X76344Y171300D01*
X76620Y171165D01*
X76892Y171024D01*
X77161Y170876D01*
X77426Y170722D01*
X77687Y170561D01*
X77945Y170393D01*
X78198Y170220D01*
X78446Y170040D01*
X78690Y169854D01*
X78930Y169663D01*
X79165Y169465D01*
X79394Y169262D01*
X79619Y169053D01*
X79839Y168839D01*
X80053Y168619D01*
X80262Y168394D01*
X80465Y168165D01*
X80663Y167930D01*
X80854Y167690D01*
X81040Y167446D01*
X81220Y167198D01*
X81393Y166945D01*
X81561Y166687D01*
X81722Y166426D01*
X81876Y166161D01*
X82024Y165892D01*
X82165Y165620D01*
X82300Y165344D01*
X82428Y165066D01*
X82548Y164784D01*
X82662Y164499D01*
X82769Y164211D01*
X82869Y163921D01*
X82962Y163629D01*
X83047Y163334D01*
X83125Y163037D01*
X83196Y162739D01*
X83260Y162439D01*
X83316Y162137D01*
X83365Y161834D01*
X83406Y161530D01*
X83440Y161225D01*
X83466Y160920D01*
X83485Y160613D01*
X83496Y160307D01*
X83500Y160000D01*
X83496Y159693D01*
X83485Y159387D01*
X83466Y159080D01*
X83440Y158775D01*
X83406Y158470D01*
X83365Y158166D01*
X83316Y157863D01*
X83260Y157561D01*
X83196Y157261D01*
X83125Y156963D01*
X83047Y156666D01*
X82962Y156371D01*
X82869Y156079D01*
X82769Y155789D01*
X82662Y155501D01*
X82548Y155216D01*
X82428Y154934D01*
X82300Y154656D01*
X82165Y154380D01*
X82024Y154108D01*
X81876Y153839D01*
X81722Y153574D01*
X81561Y153313D01*
X81393Y153055D01*
X81220Y152802D01*
X81040Y152554D01*
X80854Y152310D01*
X80663Y152070D01*
X80465Y151835D01*
X80262Y151606D01*
X80053Y151381D01*
X79839Y151161D01*
X79619Y150947D01*
X79394Y150738D01*
X79165Y150535D01*
X78930Y150337D01*
X78690Y150146D01*
X78446Y149960D01*
X78198Y149780D01*
X77945Y149607D01*
X77687Y149439D01*
X77426Y149278D01*
X77161Y149124D01*
X76892Y148976D01*
X76620Y148835D01*
X76344Y148700D01*
X76066Y148572D01*
X75784Y148452D01*
X75499Y148338D01*
X75211Y148231D01*
X74921Y148131D01*
X74629Y148038D01*
X74334Y147953D01*
X74037Y147875D01*
X73739Y147804D01*
X73439Y147740D01*
X73137Y147684D01*
X72834Y147635D01*
X72530Y147594D01*
X72225Y147560D01*
X71920Y147534D01*
X71613Y147515D01*
X71307Y147504D01*
X71000Y147500D01*
X70693Y147504D01*
X70387Y147515D01*
X70080Y147534D01*
X69775Y147560D01*
X69470Y147594D01*
X69166Y147635D01*
X68863Y147684D01*
X68561Y147740D01*
X68261Y147804D01*
X67963Y147875D01*
X67666Y147953D01*
X67371Y148038D01*
X67079Y148131D01*
X66789Y148231D01*
X66501Y148338D01*
X66216Y148452D01*
X65934Y148572D01*
X65656Y148700D01*
X65380Y148835D01*
X65108Y148976D01*
X64839Y149124D01*
X64574Y149278D01*
X64313Y149439D01*
X64055Y149607D01*
X63802Y149780D01*
X63554Y149960D01*
X63310Y150146D01*
X63070Y150337D01*
X62835Y150535D01*
X62606Y150738D01*
X62381Y150947D01*
X62161Y151161D01*
X61947Y151381D01*
X61738Y151606D01*
X61535Y151835D01*
X61337Y152070D01*
X61146Y152310D01*
X60960Y152554D01*
X60780Y152802D01*
X60607Y153055D01*
X60439Y153313D01*
X60278Y153574D01*
X60124Y153839D01*
X59976Y154108D01*
X59835Y154380D01*
X59700Y154656D01*
X59572Y154934D01*
X59452Y155216D01*
X59338Y155501D01*
X59231Y155789D01*
X59131Y156079D01*
X59038Y156371D01*
X58953Y156666D01*
X58875Y156963D01*
X58804Y157261D01*
X58740Y157561D01*
X58684Y157863D01*
X58635Y158166D01*
X58594Y158470D01*
X58560Y158775D01*
X58534Y159080D01*
X58515Y159387D01*
X58504Y159693D01*
X58500Y160000D01*
X908500Y660000D02*
X908504Y660307D01*
X908515Y660613D01*
X908534Y660920D01*
X908560Y661225D01*
X908594Y661530D01*
X908635Y661834D01*
X908684Y662137D01*
X908740Y662439D01*
X908804Y662739D01*
X908875Y663037D01*
X908953Y663334D01*
X909038Y663629D01*
X909131Y663921D01*
X909231Y664211D01*
X909338Y664499D01*
X909452Y664784D01*
X909572Y665066D01*
X909700Y665344D01*
X909835Y665620D01*
X909976Y665892D01*
X910124Y666161D01*
X910278Y666426D01*
X910439Y666687D01*
X910607Y666945D01*
X910780Y667198D01*
X910960Y667446D01*
X911146Y667690D01*
X911337Y667930D01*
X911535Y668165D01*
X911738Y668394D01*
X911947Y668619D01*
X912161Y668839D01*
X912381Y669053D01*
X912606Y669262D01*
X912835Y669465D01*
X913070Y669663D01*
X913310Y669854D01*
X913554Y670040D01*
X913802Y670220D01*
X914055Y670393D01*
X914313Y670561D01*
X914574Y670722D01*
X914839Y670876D01*
X915108Y671024D01*
X915380Y671165D01*
X915656Y671300D01*
X915934Y671428D01*
X916216Y671548D01*
X916501Y671662D01*
X916789Y671769D01*
X917079Y671869D01*
X917371Y671962D01*
X917666Y672047D01*
X917963Y672125D01*
X918261Y672196D01*
X918561Y672260D01*
X918863Y672316D01*
X919166Y672365D01*
X919470Y672406D01*
X919775Y672440D01*
X920080Y672466D01*
X920387Y672485D01*
X920693Y672496D01*
X921000Y672500D01*
X921307Y672496D01*
X921613Y672485D01*
X921920Y672466D01*
X922225Y672440D01*
X922530Y672406D01*
X922834Y672365D01*
X923137Y672316D01*
X923439Y672260D01*
X923739Y672196D01*
X924037Y672125D01*
X924334Y672047D01*
X924629Y671962D01*
X924921Y671869D01*
X925211Y671769D01*
X925499Y671662D01*
X925784Y671548D01*
X926066Y671428D01*
X926344Y671300D01*
X926620Y671165D01*
X926892Y671024D01*
X927161Y670876D01*
X927426Y670722D01*
X927687Y670561D01*
X927945Y670393D01*
X928198Y670220D01*
X928446Y670040D01*
X928690Y669854D01*
X928930Y669663D01*
X929165Y669465D01*
X929394Y669262D01*
X929619Y669053D01*
X929839Y668839D01*
X930053Y668619D01*
X930262Y668394D01*
X930465Y668165D01*
X930663Y667930D01*
X930854Y667690D01*
X931040Y667446D01*
X931220Y667198D01*
X931393Y666945D01*
X931561Y666687D01*
X931722Y666426D01*
X931876Y666161D01*
X932024Y665892D01*
X932165Y665620D01*
X932300Y665344D01*
X932428Y665066D01*
X932548Y664784D01*
X932662Y664499D01*
X932769Y664211D01*
X932869Y663921D01*
X932962Y663629D01*
X933047Y663334D01*
X933125Y663037D01*
X933196Y662739D01*
X933260Y662439D01*
X933316Y662137D01*
X933365Y661834D01*
X933406Y661530D01*
X933440Y661225D01*
X933466Y660920D01*
X933485Y660613D01*
X933496Y660307D01*
X933500Y660000D01*
X933496Y659693D01*
X933485Y659387D01*
X933466Y659080D01*
X933440Y658775D01*
X933406Y658470D01*
X933365Y658166D01*
X933316Y657863D01*
X933260Y657561D01*
X933196Y657261D01*
X933125Y656963D01*
X933047Y656666D01*
X932962Y656371D01*
X932869Y656079D01*
X932769Y655789D01*
X932662Y655501D01*
X932548Y655216D01*
X932428Y654934D01*
X932300Y654656D01*
X932165Y654380D01*
X932024Y654108D01*
X931876Y653839D01*
X931722Y653574D01*
X931561Y653313D01*
X931393Y653055D01*
X931220Y652802D01*
X931040Y652554D01*
X930854Y652310D01*
X930663Y652070D01*
X930465Y651835D01*
X930262Y651606D01*
X930053Y651381D01*
X929839Y651161D01*
X929619Y650947D01*
X929394Y650738D01*
X929165Y650535D01*
X928930Y650337D01*
X928690Y650146D01*
X928446Y649960D01*
X928198Y649780D01*
X927945Y649607D01*
X927687Y649439D01*
X927426Y649278D01*
X927161Y649124D01*
X926892Y648976D01*
X926620Y648835D01*
X926344Y648700D01*
X926066Y648572D01*
X925784Y648452D01*
X925499Y648338D01*
X925211Y648231D01*
X924921Y648131D01*
X924629Y648038D01*
X924334Y647953D01*
X924037Y647875D01*
X923739Y647804D01*
X923439Y647740D01*
X923137Y647684D01*
X922834Y647635D01*
X922530Y647594D01*
X922225Y647560D01*
X921920Y647534D01*
X921613Y647515D01*
X921307Y647504D01*
X921000Y647500D01*
X920693Y647504D01*
X920387Y647515D01*
X920080Y647534D01*
X919775Y647560D01*
X919470Y647594D01*
X919166Y647635D01*
X918863Y647684D01*
X918561Y647740D01*
X918261Y647804D01*
X917963Y647875D01*
X917666Y647953D01*
X917371Y648038D01*
X917079Y648131D01*
X916789Y648231D01*
X916501Y648338D01*
X916216Y648452D01*
X915934Y648572D01*
X915656Y648700D01*
X915380Y648835D01*
X915108Y648976D01*
X914839Y649124D01*
X914574Y649278D01*
X914313Y649439D01*
X914055Y649607D01*
X913802Y649780D01*
X913554Y649960D01*
X913310Y650146D01*
X913070Y650337D01*
X912835Y650535D01*
X912606Y650738D01*
X912381Y650947D01*
X912161Y651161D01*
X911947Y651381D01*
X911738Y651606D01*
X911535Y651835D01*
X911337Y652070D01*
X911146Y652310D01*
X910960Y652554D01*
X910780Y652802D01*
X910607Y653055D01*
X910439Y653313D01*
X910278Y653574D01*
X910124Y653839D01*
X909976Y654108D01*
X909835Y654380D01*
X909700Y654656D01*
X909572Y654934D01*
X909452Y655216D01*
X909338Y655501D01*
X909231Y655789D01*
X909131Y656079D01*
X909038Y656371D01*
X908953Y656666D01*
X908875Y656963D01*
X908804Y657261D01*
X908740Y657561D01*
X908684Y657863D01*
X908635Y658166D01*
X908594Y658470D01*
X908560Y658775D01*
X908534Y659080D01*
X908515Y659387D01*
X908504Y659693D01*
X908500Y660000D01*
D11*
X71000Y782000D03*
X121000Y782000D03*
D12*
X116100Y712500D03*
X39900Y712500D03*
D13*
X43700Y389600D03*
X43700Y440400D03*
D14*
X145600Y610000D02*
X170600Y610000D01*
X56400Y610000D02*
X31400Y610000D01*
X31400Y500000D02*
X56400Y500000D01*
X145600Y500000D02*
X170600Y500000D01*
D13*
X31000Y610000D03*
X171000Y610000D03*
X171000Y500000D03*
X31000Y500000D03*
D15*
X296400Y22600D03*
X245600Y22600D03*
X245600Y73400D03*
X296400Y73400D03*
X271000Y48000D03*
D10*
X916250Y800000D02*
X916254Y800337D01*
X916267Y800675D01*
X916287Y801012D01*
X916316Y801348D01*
X916353Y801683D01*
X916399Y802018D01*
X916452Y802351D01*
X916514Y802682D01*
X916584Y803013D01*
X916662Y803341D01*
X916748Y803667D01*
X916842Y803991D01*
X916944Y804313D01*
X917054Y804632D01*
X917171Y804949D01*
X917297Y805262D01*
X917430Y805572D01*
X917570Y805879D01*
X917718Y806182D01*
X917874Y806482D01*
X918036Y806777D01*
X918206Y807069D01*
X918383Y807356D01*
X918567Y807639D01*
X918758Y807917D01*
X918956Y808191D01*
X919160Y808459D01*
X919371Y808723D01*
X919588Y808981D01*
X919812Y809234D01*
X920042Y809481D01*
X920277Y809723D01*
X920519Y809958D01*
X920766Y810188D01*
X921019Y810412D01*
X921277Y810629D01*
X921541Y810840D01*
X921809Y811044D01*
X922083Y811242D01*
X922361Y811433D01*
X922644Y811617D01*
X922931Y811794D01*
X923223Y811964D01*
X923518Y812126D01*
X923818Y812282D01*
X924121Y812430D01*
X924428Y812570D01*
X924738Y812703D01*
X925051Y812829D01*
X925368Y812946D01*
X925687Y813056D01*
X926009Y813158D01*
X926333Y813252D01*
X926659Y813338D01*
X926987Y813416D01*
X927318Y813486D01*
X927649Y813548D01*
X927982Y813601D01*
X928317Y813647D01*
X928652Y813684D01*
X928988Y813713D01*
X929325Y813733D01*
X929663Y813746D01*
X930000Y813750D01*
X930337Y813746D01*
X930675Y813733D01*
X931012Y813713D01*
X931348Y813684D01*
X931683Y813647D01*
X932018Y813601D01*
X932351Y813548D01*
X932682Y813486D01*
X933013Y813416D01*
X933341Y813338D01*
X933667Y813252D01*
X933991Y813158D01*
X934313Y813056D01*
X934632Y812946D01*
X934949Y812829D01*
X935262Y812703D01*
X935572Y812570D01*
X935879Y812430D01*
X936182Y812282D01*
X936482Y812126D01*
X936777Y811964D01*
X937069Y811794D01*
X937356Y811617D01*
X937639Y811433D01*
X937917Y811242D01*
X938191Y811044D01*
X938459Y810840D01*
X938723Y810629D01*
X938981Y810412D01*
X939234Y810188D01*
X939481Y809958D01*
X939723Y809723D01*
X939958Y809481D01*
X940188Y809234D01*
X940412Y808981D01*
X940629Y808723D01*
X940840Y808459D01*
X941044Y808191D01*
X941242Y807917D01*
X941433Y807639D01*
X941617Y807356D01*
X941794Y807069D01*
X941964Y806777D01*
X942126Y806482D01*
X942282Y806182D01*
X942430Y805879D01*
X942570Y805572D01*
X942703Y805262D01*
X942829Y804949D01*
X942946Y804632D01*
X943056Y804313D01*
X943158Y803991D01*
X943252Y803667D01*
X943338Y803341D01*
X943416Y803013D01*
X943486Y802682D01*
X943548Y802351D01*
X943601Y802018D01*
X943647Y801683D01*
X943684Y801348D01*
X943713Y801012D01*
X943733Y800675D01*
X943746Y800337D01*
X943750Y800000D01*
X943746Y799663D01*
X943733Y799325D01*
X943713Y798988D01*
X943684Y798652D01*
X943647Y798317D01*
X943601Y797982D01*
X943548Y797649D01*
X943486Y797318D01*
X943416Y796987D01*
X943338Y796659D01*
X943252Y796333D01*
X943158Y796009D01*
X943056Y795687D01*
X942946Y795368D01*
X942829Y795051D01*
X942703Y794738D01*
X942570Y794428D01*
X942430Y794121D01*
X942282Y793818D01*
X942126Y793518D01*
X941964Y793223D01*
X941794Y792931D01*
X941617Y792644D01*
X941433Y792361D01*
X941242Y792083D01*
X941044Y791809D01*
X940840Y791541D01*
X940629Y791277D01*
X940412Y791019D01*
X940188Y790766D01*
X939958Y790519D01*
X939723Y790277D01*
X939481Y790042D01*
X939234Y789812D01*
X938981Y789588D01*
X938723Y789371D01*
X938459Y789160D01*
X938191Y788956D01*
X937917Y788758D01*
X937639Y788567D01*
X937356Y788383D01*
X937069Y788206D01*
X936777Y788036D01*
X936482Y787874D01*
X936182Y787718D01*
X935879Y787570D01*
X935572Y787430D01*
X935262Y787297D01*
X934949Y787171D01*
X934632Y787054D01*
X934313Y786944D01*
X933991Y786842D01*
X933667Y786748D01*
X933341Y786662D01*
X933013Y786584D01*
X932682Y786514D01*
X932351Y786452D01*
X932018Y786399D01*
X931683Y786353D01*
X931348Y786316D01*
X931012Y786287D01*
X930675Y786267D01*
X930337Y786254D01*
X930000Y786250D01*
X929663Y786254D01*
X929325Y786267D01*
X928988Y786287D01*
X928652Y786316D01*
X928317Y786353D01*
X927982Y786399D01*
X927649Y786452D01*
X927318Y786514D01*
X926987Y786584D01*
X926659Y786662D01*
X926333Y786748D01*
X926009Y786842D01*
X925687Y786944D01*
X925368Y787054D01*
X925051Y787171D01*
X924738Y787297D01*
X924428Y787430D01*
X924121Y787570D01*
X923818Y787718D01*
X923518Y787874D01*
X923223Y788036D01*
X922931Y788206D01*
X922644Y788383D01*
X922361Y788567D01*
X922083Y788758D01*
X921809Y788956D01*
X921541Y789160D01*
X921277Y789371D01*
X921019Y789588D01*
X920766Y789812D01*
X920519Y790042D01*
X920277Y790277D01*
X920042Y790519D01*
X919812Y790766D01*
X919588Y791019D01*
X919371Y791277D01*
X919160Y791541D01*
X918956Y791809D01*
X918758Y792083D01*
X918567Y792361D01*
X918383Y792644D01*
X918206Y792931D01*
X918036Y793223D01*
X917874Y793518D01*
X917718Y793818D01*
X917570Y794121D01*
X917430Y794428D01*
X917297Y794738D01*
X917171Y795051D01*
X917054Y795368D01*
X916944Y795687D01*
X916842Y796009D01*
X916748Y796333D01*
X916662Y796659D01*
X916584Y796987D01*
X916514Y797318D01*
X916452Y797649D01*
X916399Y797982D01*
X916353Y798317D01*
X916316Y798652D01*
X916287Y798988D01*
X916267Y799325D01*
X916254Y799663D01*
X916250Y800000D01*
X426250Y800000D02*
X426254Y800337D01*
X426267Y800675D01*
X426287Y801012D01*
X426316Y801348D01*
X426353Y801683D01*
X426399Y802018D01*
X426452Y802351D01*
X426514Y802682D01*
X426584Y803013D01*
X426662Y803341D01*
X426748Y803667D01*
X426842Y803991D01*
X426944Y804313D01*
X427054Y804632D01*
X427171Y804949D01*
X427297Y805262D01*
X427430Y805572D01*
X427570Y805879D01*
X427718Y806182D01*
X427874Y806482D01*
X428036Y806777D01*
X428206Y807069D01*
X428383Y807356D01*
X428567Y807639D01*
X428758Y807917D01*
X428956Y808191D01*
X429160Y808459D01*
X429371Y808723D01*
X429588Y808981D01*
X429812Y809234D01*
X430042Y809481D01*
X430277Y809723D01*
X430519Y809958D01*
X430766Y810188D01*
X431019Y810412D01*
X431277Y810629D01*
X431541Y810840D01*
X431809Y811044D01*
X432083Y811242D01*
X432361Y811433D01*
X432644Y811617D01*
X432931Y811794D01*
X433223Y811964D01*
X433518Y812126D01*
X433818Y812282D01*
X434121Y812430D01*
X434428Y812570D01*
X434738Y812703D01*
X435051Y812829D01*
X435368Y812946D01*
X435687Y813056D01*
X436009Y813158D01*
X436333Y813252D01*
X436659Y813338D01*
X436987Y813416D01*
X437318Y813486D01*
X437649Y813548D01*
X437982Y813601D01*
X438317Y813647D01*
X438652Y813684D01*
X438988Y813713D01*
X439325Y813733D01*
X439663Y813746D01*
X440000Y813750D01*
X440337Y813746D01*
X440675Y813733D01*
X441012Y813713D01*
X441348Y813684D01*
X441683Y813647D01*
X442018Y813601D01*
X442351Y813548D01*
X442682Y813486D01*
X443013Y813416D01*
X443341Y813338D01*
X443667Y813252D01*
X443991Y813158D01*
X444313Y813056D01*
X444632Y812946D01*
X444949Y812829D01*
X445262Y812703D01*
X445572Y812570D01*
X445879Y812430D01*
X446182Y812282D01*
X446482Y812126D01*
X446777Y811964D01*
X447069Y811794D01*
X447356Y811617D01*
X447639Y811433D01*
X447917Y811242D01*
X448191Y811044D01*
X448459Y810840D01*
X448723Y810629D01*
X448981Y810412D01*
X449234Y810188D01*
X449481Y809958D01*
X449723Y809723D01*
X449958Y809481D01*
X450188Y809234D01*
X450412Y808981D01*
X450629Y808723D01*
X450840Y808459D01*
X451044Y808191D01*
X451242Y807917D01*
X451433Y807639D01*
X451617Y807356D01*
X451794Y807069D01*
X451964Y806777D01*
X452126Y806482D01*
X452282Y806182D01*
X452430Y805879D01*
X452570Y805572D01*
X452703Y805262D01*
X452829Y804949D01*
X452946Y804632D01*
X453056Y804313D01*
X453158Y803991D01*
X453252Y803667D01*
X453338Y803341D01*
X453416Y803013D01*
X453486Y802682D01*
X453548Y802351D01*
X453601Y802018D01*
X453647Y801683D01*
X453684Y801348D01*
X453713Y801012D01*
X453733Y800675D01*
X453746Y800337D01*
X453750Y800000D01*
X453746Y799663D01*
X453733Y799325D01*
X453713Y798988D01*
X453684Y798652D01*
X453647Y798317D01*
X453601Y797982D01*
X453548Y797649D01*
X453486Y797318D01*
X453416Y796987D01*
X453338Y796659D01*
X453252Y796333D01*
X453158Y796009D01*
X453056Y795687D01*
X452946Y795368D01*
X452829Y795051D01*
X452703Y794738D01*
X452570Y794428D01*
X452430Y794121D01*
X452282Y793818D01*
X452126Y793518D01*
X451964Y793223D01*
X451794Y792931D01*
X451617Y792644D01*
X451433Y792361D01*
X451242Y792083D01*
X451044Y791809D01*
X450840Y791541D01*
X450629Y791277D01*
X450412Y791019D01*
X450188Y790766D01*
X449958Y790519D01*
X449723Y790277D01*
X449481Y790042D01*
X449234Y789812D01*
X448981Y789588D01*
X448723Y789371D01*
X448459Y789160D01*
X448191Y788956D01*
X447917Y788758D01*
X447639Y788567D01*
X447356Y788383D01*
X447069Y788206D01*
X446777Y788036D01*
X446482Y787874D01*
X446182Y787718D01*
X445879Y787570D01*
X445572Y787430D01*
X445262Y787297D01*
X444949Y787171D01*
X444632Y787054D01*
X444313Y786944D01*
X443991Y786842D01*
X443667Y786748D01*
X443341Y786662D01*
X443013Y786584D01*
X442682Y786514D01*
X442351Y786452D01*
X442018Y786399D01*
X441683Y786353D01*
X441348Y786316D01*
X441012Y786287D01*
X440675Y786267D01*
X440337Y786254D01*
X440000Y786250D01*
X439663Y786254D01*
X439325Y786267D01*
X438988Y786287D01*
X438652Y786316D01*
X438317Y786353D01*
X437982Y786399D01*
X437649Y786452D01*
X437318Y786514D01*
X436987Y786584D01*
X436659Y786662D01*
X436333Y786748D01*
X436009Y786842D01*
X435687Y786944D01*
X435368Y787054D01*
X435051Y787171D01*
X434738Y787297D01*
X434428Y787430D01*
X434121Y787570D01*
X433818Y787718D01*
X433518Y787874D01*
X433223Y788036D01*
X432931Y788206D01*
X432644Y788383D01*
X432361Y788567D01*
X432083Y788758D01*
X431809Y788956D01*
X431541Y789160D01*
X431277Y789371D01*
X431019Y789588D01*
X430766Y789812D01*
X430519Y790042D01*
X430277Y790277D01*
X430042Y790519D01*
X429812Y790766D01*
X429588Y791019D01*
X429371Y791277D01*
X429160Y791541D01*
X428956Y791809D01*
X428758Y792083D01*
X428567Y792361D01*
X428383Y792644D01*
X428206Y792931D01*
X428036Y793223D01*
X427874Y793518D01*
X427718Y793818D01*
X427570Y794121D01*
X427430Y794428D01*
X427297Y794738D01*
X427171Y795051D01*
X427054Y795368D01*
X426944Y795687D01*
X426842Y796009D01*
X426748Y796333D01*
X426662Y796659D01*
X426584Y796987D01*
X426514Y797318D01*
X426452Y797649D01*
X426399Y797982D01*
X426353Y798317D01*
X426316Y798652D01*
X426287Y798988D01*
X426267Y799325D01*
X426254Y799663D01*
X426250Y800000D01*
X916250Y220000D02*
X916254Y220337D01*
X916267Y220675D01*
X916287Y221012D01*
X916316Y221348D01*
X916353Y221683D01*
X916399Y222018D01*
X916452Y222351D01*
X916514Y222682D01*
X916584Y223013D01*
X916662Y223341D01*
X916748Y223667D01*
X916842Y223991D01*
X916944Y224313D01*
X917054Y224632D01*
X917171Y224949D01*
X917297Y225262D01*
X917430Y225572D01*
X917570Y225879D01*
X917718Y226182D01*
X917874Y226482D01*
X918036Y226777D01*
X918206Y227069D01*
X918383Y227356D01*
X918567Y227639D01*
X918758Y227917D01*
X918956Y228191D01*
X919160Y228459D01*
X919371Y228723D01*
X919588Y228981D01*
X919812Y229234D01*
X920042Y229481D01*
X920277Y229723D01*
X920519Y229958D01*
X920766Y230188D01*
X921019Y230412D01*
X921277Y230629D01*
X921541Y230840D01*
X921809Y231044D01*
X922083Y231242D01*
X922361Y231433D01*
X922644Y231617D01*
X922931Y231794D01*
X923223Y231964D01*
X923518Y232126D01*
X923818Y232282D01*
X924121Y232430D01*
X924428Y232570D01*
X924738Y232703D01*
X925051Y232829D01*
X925368Y232946D01*
X925687Y233056D01*
X926009Y233158D01*
X926333Y233252D01*
X926659Y233338D01*
X926987Y233416D01*
X927318Y233486D01*
X927649Y233548D01*
X927982Y233601D01*
X928317Y233647D01*
X928652Y233684D01*
X928988Y233713D01*
X929325Y233733D01*
X929663Y233746D01*
X930000Y233750D01*
X930337Y233746D01*
X930675Y233733D01*
X931012Y233713D01*
X931348Y233684D01*
X931683Y233647D01*
X932018Y233601D01*
X932351Y233548D01*
X932682Y233486D01*
X933013Y233416D01*
X933341Y233338D01*
X933667Y233252D01*
X933991Y233158D01*
X934313Y233056D01*
X934632Y232946D01*
X934949Y232829D01*
X935262Y232703D01*
X935572Y232570D01*
X935879Y232430D01*
X936182Y232282D01*
X936482Y232126D01*
X936777Y231964D01*
X937069Y231794D01*
X937356Y231617D01*
X937639Y231433D01*
X937917Y231242D01*
X938191Y231044D01*
X938459Y230840D01*
X938723Y230629D01*
X938981Y230412D01*
X939234Y230188D01*
X939481Y229958D01*
X939723Y229723D01*
X939958Y229481D01*
X940188Y229234D01*
X940412Y228981D01*
X940629Y228723D01*
X940840Y228459D01*
X941044Y228191D01*
X941242Y227917D01*
X941433Y227639D01*
X941617Y227356D01*
X941794Y227069D01*
X941964Y226777D01*
X942126Y226482D01*
X942282Y226182D01*
X942430Y225879D01*
X942570Y225572D01*
X942703Y225262D01*
X942829Y224949D01*
X942946Y224632D01*
X943056Y224313D01*
X943158Y223991D01*
X943252Y223667D01*
X943338Y223341D01*
X943416Y223013D01*
X943486Y222682D01*
X943548Y222351D01*
X943601Y222018D01*
X943647Y221683D01*
X943684Y221348D01*
X943713Y221012D01*
X943733Y220675D01*
X943746Y220337D01*
X943750Y220000D01*
X943746Y219663D01*
X943733Y219325D01*
X943713Y218988D01*
X943684Y218652D01*
X943647Y218317D01*
X943601Y217982D01*
X943548Y217649D01*
X943486Y217318D01*
X943416Y216987D01*
X943338Y216659D01*
X943252Y216333D01*
X943158Y216009D01*
X943056Y215687D01*
X942946Y215368D01*
X942829Y215051D01*
X942703Y214738D01*
X942570Y214428D01*
X942430Y214121D01*
X942282Y213818D01*
X942126Y213518D01*
X941964Y213223D01*
X941794Y212931D01*
X941617Y212644D01*
X941433Y212361D01*
X941242Y212083D01*
X941044Y211809D01*
X940840Y211541D01*
X940629Y211277D01*
X940412Y211019D01*
X940188Y210766D01*
X939958Y210519D01*
X939723Y210277D01*
X939481Y210042D01*
X939234Y209812D01*
X938981Y209588D01*
X938723Y209371D01*
X938459Y209160D01*
X938191Y208956D01*
X937917Y208758D01*
X937639Y208567D01*
X937356Y208383D01*
X937069Y208206D01*
X936777Y208036D01*
X936482Y207874D01*
X936182Y207718D01*
X935879Y207570D01*
X935572Y207430D01*
X935262Y207297D01*
X934949Y207171D01*
X934632Y207054D01*
X934313Y206944D01*
X933991Y206842D01*
X933667Y206748D01*
X933341Y206662D01*
X933013Y206584D01*
X932682Y206514D01*
X932351Y206452D01*
X932018Y206399D01*
X931683Y206353D01*
X931348Y206316D01*
X931012Y206287D01*
X930675Y206267D01*
X930337Y206254D01*
X930000Y206250D01*
X929663Y206254D01*
X929325Y206267D01*
X928988Y206287D01*
X928652Y206316D01*
X928317Y206353D01*
X927982Y206399D01*
X927649Y206452D01*
X927318Y206514D01*
X926987Y206584D01*
X926659Y206662D01*
X926333Y206748D01*
X926009Y206842D01*
X925687Y206944D01*
X925368Y207054D01*
X925051Y207171D01*
X924738Y207297D01*
X924428Y207430D01*
X924121Y207570D01*
X923818Y207718D01*
X923518Y207874D01*
X923223Y208036D01*
X922931Y208206D01*
X922644Y208383D01*
X922361Y208567D01*
X922083Y208758D01*
X921809Y208956D01*
X921541Y209160D01*
X921277Y209371D01*
X921019Y209588D01*
X920766Y209812D01*
X920519Y210042D01*
X920277Y210277D01*
X920042Y210519D01*
X919812Y210766D01*
X919588Y211019D01*
X919371Y211277D01*
X919160Y211541D01*
X918956Y211809D01*
X918758Y212083D01*
X918567Y212361D01*
X918383Y212644D01*
X918206Y212931D01*
X918036Y213223D01*
X917874Y213518D01*
X917718Y213818D01*
X917570Y214121D01*
X917430Y214428D01*
X917297Y214738D01*
X917171Y215051D01*
X917054Y215368D01*
X916944Y215687D01*
X916842Y216009D01*
X916748Y216333D01*
X916662Y216659D01*
X916584Y216987D01*
X916514Y217318D01*
X916452Y217649D01*
X916399Y217982D01*
X916353Y218317D01*
X916316Y218652D01*
X916287Y218988D01*
X916267Y219325D01*
X916254Y219663D01*
X916250Y220000D01*
X426250Y220000D02*
X426254Y220337D01*
X426267Y220675D01*
X426287Y221012D01*
X426316Y221348D01*
X426353Y221683D01*
X426399Y222018D01*
X426452Y222351D01*
X426514Y222682D01*
X426584Y223013D01*
X426662Y223341D01*
X426748Y223667D01*
X426842Y223991D01*
X426944Y224313D01*
X427054Y224632D01*
X427171Y224949D01*
X427297Y225262D01*
X427430Y225572D01*
X427570Y225879D01*
X427718Y226182D01*
X427874Y226482D01*
X428036Y226777D01*
X428206Y227069D01*
X428383Y227356D01*
X428567Y227639D01*
X428758Y227917D01*
X428956Y228191D01*
X429160Y228459D01*
X429371Y228723D01*
X429588Y228981D01*
X429812Y229234D01*
X430042Y229481D01*
X430277Y229723D01*
X430519Y229958D01*
X430766Y230188D01*
X431019Y230412D01*
X431277Y230629D01*
X431541Y230840D01*
X431809Y231044D01*
X432083Y231242D01*
X432361Y231433D01*
X432644Y231617D01*
X432931Y231794D01*
X433223Y231964D01*
X433518Y232126D01*
X433818Y232282D01*
X434121Y232430D01*
X434428Y232570D01*
X434738Y232703D01*
X435051Y232829D01*
X435368Y232946D01*
X435687Y233056D01*
X436009Y233158D01*
X436333Y233252D01*
X436659Y233338D01*
X436987Y233416D01*
X437318Y233486D01*
X437649Y233548D01*
X437982Y233601D01*
X438317Y233647D01*
X438652Y233684D01*
X438988Y233713D01*
X439325Y233733D01*
X439663Y233746D01*
X440000Y233750D01*
X440337Y233746D01*
X440675Y233733D01*
X441012Y233713D01*
X441348Y233684D01*
X441683Y233647D01*
X442018Y233601D01*
X442351Y233548D01*
X442682Y233486D01*
X443013Y233416D01*
X443341Y233338D01*
X443667Y233252D01*
X443991Y233158D01*
X444313Y233056D01*
X444632Y232946D01*
X444949Y232829D01*
X445262Y232703D01*
X445572Y232570D01*
X445879Y232430D01*
X446182Y232282D01*
X446482Y232126D01*
X446777Y231964D01*
X447069Y231794D01*
X447356Y231617D01*
X447639Y231433D01*
X447917Y231242D01*
X448191Y231044D01*
X448459Y230840D01*
X448723Y230629D01*
X448981Y230412D01*
X449234Y230188D01*
X449481Y229958D01*
X449723Y229723D01*
X449958Y229481D01*
X450188Y229234D01*
X450412Y228981D01*
X450629Y228723D01*
X450840Y228459D01*
X451044Y228191D01*
X451242Y227917D01*
X451433Y227639D01*
X451617Y227356D01*
X451794Y227069D01*
X451964Y226777D01*
X452126Y226482D01*
X452282Y226182D01*
X452430Y225879D01*
X452570Y225572D01*
X452703Y225262D01*
X452829Y224949D01*
X452946Y224632D01*
X453056Y224313D01*
X453158Y223991D01*
X453252Y223667D01*
X453338Y223341D01*
X453416Y223013D01*
X453486Y222682D01*
X453548Y222351D01*
X453601Y222018D01*
X453647Y221683D01*
X453684Y221348D01*
X453713Y221012D01*
X453733Y220675D01*
X453746Y220337D01*
X453750Y220000D01*
X453746Y219663D01*
X453733Y219325D01*
X453713Y218988D01*
X453684Y218652D01*
X453647Y218317D01*
X453601Y217982D01*
X453548Y217649D01*
X453486Y217318D01*
X453416Y216987D01*
X453338Y216659D01*
X453252Y216333D01*
X453158Y216009D01*
X453056Y215687D01*
X452946Y215368D01*
X452829Y215051D01*
X452703Y214738D01*
X452570Y214428D01*
X452430Y214121D01*
X452282Y213818D01*
X452126Y213518D01*
X451964Y213223D01*
X451794Y212931D01*
X451617Y212644D01*
X451433Y212361D01*
X451242Y212083D01*
X451044Y211809D01*
X450840Y211541D01*
X450629Y211277D01*
X450412Y211019D01*
X450188Y210766D01*
X449958Y210519D01*
X449723Y210277D01*
X449481Y210042D01*
X449234Y209812D01*
X448981Y209588D01*
X448723Y209371D01*
X448459Y209160D01*
X448191Y208956D01*
X447917Y208758D01*
X447639Y208567D01*
X447356Y208383D01*
X447069Y208206D01*
X446777Y208036D01*
X446482Y207874D01*
X446182Y207718D01*
X445879Y207570D01*
X445572Y207430D01*
X445262Y207297D01*
X444949Y207171D01*
X444632Y207054D01*
X444313Y206944D01*
X443991Y206842D01*
X443667Y206748D01*
X443341Y206662D01*
X443013Y206584D01*
X442682Y206514D01*
X442351Y206452D01*
X442018Y206399D01*
X441683Y206353D01*
X441348Y206316D01*
X441012Y206287D01*
X440675Y206267D01*
X440337Y206254D01*
X440000Y206250D01*
X439663Y206254D01*
X439325Y206267D01*
X438988Y206287D01*
X438652Y206316D01*
X438317Y206353D01*
X437982Y206399D01*
X437649Y206452D01*
X437318Y206514D01*
X436987Y206584D01*
X436659Y206662D01*
X436333Y206748D01*
X436009Y206842D01*
X435687Y206944D01*
X435368Y207054D01*
X435051Y207171D01*
X434738Y207297D01*
X434428Y207430D01*
X434121Y207570D01*
X433818Y207718D01*
X433518Y207874D01*
X433223Y208036D01*
X432931Y208206D01*
X432644Y208383D01*
X432361Y208567D01*
X432083Y208758D01*
X431809Y208956D01*
X431541Y209160D01*
X431277Y209371D01*
X431019Y209588D01*
X430766Y209812D01*
X430519Y210042D01*
X430277Y210277D01*
X430042Y210519D01*
X429812Y210766D01*
X429588Y211019D01*
X429371Y211277D01*
X429160Y211541D01*
X428956Y211809D01*
X428758Y212083D01*
X428567Y212361D01*
X428383Y212644D01*
X428206Y212931D01*
X428036Y213223D01*
X427874Y213518D01*
X427718Y213818D01*
X427570Y214121D01*
X427430Y214428D01*
X427297Y214738D01*
X427171Y215051D01*
X427054Y215368D01*
X426944Y215687D01*
X426842Y216009D01*
X426748Y216333D01*
X426662Y216659D01*
X426584Y216987D01*
X426514Y217318D01*
X426452Y217649D01*
X426399Y217982D01*
X426353Y218317D01*
X426316Y218652D01*
X426287Y218988D01*
X426267Y219325D01*
X426254Y219663D01*
X426250Y220000D01*
D16*
X452700Y751300D03*
D13*
X427300Y751300D03*
X452700Y725900D03*
X427300Y725900D03*
X452700Y700500D03*
X427300Y700500D03*
X452700Y675100D03*
X427300Y675100D03*
X452700Y649700D03*
X427300Y649700D03*
X452700Y624300D03*
X427300Y624300D03*
X452700Y598900D03*
X427300Y598900D03*
X452700Y573500D03*
X427300Y573500D03*
X452700Y548100D03*
X427300Y548100D03*
X452700Y522700D03*
X427300Y522700D03*
X452700Y497300D03*
X427300Y497300D03*
X452700Y471900D03*
X427300Y471900D03*
X452700Y446500D03*
X427300Y446500D03*
X452700Y421100D03*
X427300Y421100D03*
X452700Y395700D03*
X427300Y395700D03*
X452700Y370300D03*
X427300Y370300D03*
X452700Y344900D03*
X427300Y344900D03*
X452700Y319500D03*
X427300Y319500D03*
X452700Y294100D03*
X427300Y294100D03*
X452700Y268700D03*
X427300Y268700D03*
D17*
X177300Y394000D03*
X190000Y413050D03*
X202700Y394000D03*
D13*
X43700Y675000D03*
X94500Y675000D03*
D18*
X256700Y441300D03*
X231300Y441300D03*
D19*
X265200Y495400D03*
X290600Y495400D03*
D20*
X384700Y512700D03*
X384700Y487300D03*
D21*
X355200Y533000D02*
X355200Y548000D01*
X329800Y548000D02*
X329800Y533000D01*
D22*
X384700Y535400D03*
X384700Y560800D03*
X518000Y700500D03*
X518000Y751300D03*
X496000Y700500D03*
X496000Y751300D03*
D18*
X389500Y390000D03*
X338700Y390000D03*
X389500Y365000D03*
X338700Y365000D03*
X251700Y360000D03*
X226300Y360000D03*
X387700Y652500D03*
X375000Y633450D03*
X362300Y652500D03*
X307700Y652500D03*
X295000Y633450D03*
X282300Y652500D03*
X263700Y695600D03*
X251000Y676550D03*
X238300Y695600D03*
X384700Y611000D03*
X359300Y611000D03*
D19*
X285300Y611000D03*
X310700Y611000D03*
D18*
X259700Y647000D03*
X234300Y647000D03*
D19*
X359300Y590000D03*
X384700Y590000D03*
D18*
X310700Y590000D03*
X285300Y590000D03*
X259700Y623500D03*
X234300Y623500D03*
D20*
X381000Y708300D03*
X381000Y682900D03*
X335000Y670200D03*
X335000Y644800D03*
X289000Y708300D03*
X289000Y682900D03*
D23*
X351000Y758300D03*
X335000Y758300D03*
X319000Y758300D03*
X319000Y708300D03*
X335000Y708300D03*
X351000Y708300D03*
D24*
X145400Y300000D03*
D25*
X94600Y300000D03*
D26*
X522000Y623000D03*
X503000Y623000D03*
D27*
X560000Y624500D03*
X560000Y655500D03*
X540000Y655500D03*
X540000Y624500D03*
D28*
X560000Y633000D03*
X560000Y640000D03*
X560000Y647000D03*
X540000Y633000D03*
X540000Y640000D03*
X540000Y647000D03*
D20*
X496000Y595400D03*
X496000Y544600D03*
D26*
X522000Y650000D03*
X503000Y650000D03*
X578000Y614500D03*
X597000Y614500D03*
D29*
X543000Y606000D03*
X543000Y587000D03*
D19*
X523600Y680000D03*
X574400Y680000D03*
D22*
X540000Y700500D03*
X540000Y751300D03*
D21*
X360200Y450000D02*
X360200Y435000D01*
X334800Y435000D02*
X334800Y450000D01*
D20*
X389500Y453500D03*
X389500Y428100D03*
D22*
X300000Y384800D03*
X280950Y397500D03*
X300000Y410200D03*
D21*
X290600Y533000D02*
X290600Y548000D01*
X265200Y548000D02*
X265200Y533000D01*
X239800Y533000D02*
X239800Y548000D01*
X214400Y548000D02*
X214400Y533000D01*
D20*
X290600Y466700D03*
X309650Y454000D03*
X290600Y441300D03*
D18*
X256700Y465000D03*
X231300Y465000D03*
D30*
X10000Y10000D03*
X10000Y78000D03*
X10000Y161000D03*
X10000Y244000D03*
X10000Y327000D03*
X20000Y410000D03*
X10000Y493000D03*
X10000Y576000D03*
X10000Y659000D03*
X10000Y742000D03*
X10000Y810000D03*
X91000Y10000D03*
X91000Y659000D03*
X91000Y810000D03*
X109000Y161000D03*
X172000Y810000D03*
X253000Y161000D03*
X172000Y235000D03*
X253000Y810000D03*
X334000Y244000D03*
X334000Y810000D03*
X415000Y10000D03*
X415000Y78000D03*
X415000Y161000D03*
X411000Y245000D03*
X412500Y825000D03*
X496000Y183500D03*
X496000Y825000D03*
X577000Y183500D03*
X658000Y311800D03*
X577000Y440100D03*
X577000Y825000D03*
X658000Y183500D03*
X658000Y568400D03*
X658000Y825000D03*
X739000Y183500D03*
X820000Y311800D03*
X739000Y440100D03*
X739000Y825000D03*
X820000Y183500D03*
X820000Y568400D03*
X820000Y825000D03*
X901000Y183500D03*
X901000Y440100D03*
X901000Y696700D03*
X901000Y825000D03*
X982000Y183500D03*
X982000Y311800D03*
X972000Y440100D03*
X982000Y568400D03*
X982000Y696700D03*
X982000Y810000D03*
X199560Y742000D03*
X319300Y391300D03*
X496000Y311800D03*
X334000Y10000D03*
X172000Y78000D03*
X246200Y501800D03*
X739000Y724950D03*
X577000Y724950D03*
X466200Y560400D03*
X410300Y753450D03*
X334000Y78000D03*
X405500Y567500D03*
X172000Y10000D03*
X575500Y627300D03*
X239100Y410000D03*
X262300Y317000D03*
X91000Y329500D03*
X496300Y687800D03*
X466600Y744350D03*
X413800Y262600D03*
X413800Y670500D03*
X405600Y481100D03*
X496300Y712800D03*
X500700Y636500D03*
X405600Y493500D03*
X256800Y569000D03*
X561500Y615700D03*
X530300Y605900D03*
D31*
X565500Y608648D02*
X574100Y600048D01*
X531900Y668438D02*
X529600Y670738D01*
D30*
X466100Y505600D03*
X466100Y523800D03*
X341200Y683100D03*
X328800Y683100D03*
X533500Y668400D03*
D31*
X535700Y663528D02*
X531700Y659528D01*
D30*
X529800Y588900D03*
D31*
X531900Y658548D02*
X528400Y662048D01*
D30*
X191550Y424950D03*
X114560Y451800D03*
D32*
X171000Y480000D02*
X171000Y520000D01*
X171000Y590000D02*
X171000Y630000D01*
D30*
X378250Y455700D03*
X288700Y386200D03*
X374400Y434400D03*
X157400Y451800D03*
X397000Y401250D03*
X242500Y371600D03*
D33*
X285000Y410200D02*
X300000Y410200D01*
X308396Y410200D01*
X313936Y404660D01*
D30*
X197360Y567900D03*
X280900Y447680D03*
X277850Y522670D03*
X301820Y466740D03*
X275000Y460180D03*
D34*
X327000Y751348D03*
X343000Y751348D03*
D35*
X319000Y751348D02*
X319000Y758300D01*
X319000Y751348D02*
X327000Y751348D01*
X335000Y751348D01*
X335000Y758300D01*
X335000Y751348D02*
X343000Y751348D01*
X351000Y751348D02*
X351000Y758300D01*
X351000Y751348D02*
X343000Y751348D01*
D31*
X440000Y357600D02*
X452700Y344900D01*
X440000Y357600D02*
X440000Y374400D01*
X431400Y383000D01*
X420700Y383000D01*
X407500Y396200D01*
X290600Y441300D02*
X256700Y441300D01*
X290600Y441300D02*
X310000Y441300D01*
X329300Y460600D01*
X407500Y427800D02*
X407500Y396200D01*
X394500Y440800D02*
X384400Y440800D01*
X364600Y460600D01*
X329300Y460600D01*
X394500Y440800D02*
X407500Y427800D01*
X417300Y487300D02*
X427300Y497300D01*
X417300Y487300D02*
X384700Y487300D01*
X355500Y516500D01*
X272500Y516500D01*
X265200Y523800D02*
X265200Y540500D01*
X265200Y523800D02*
X272500Y516500D01*
X465000Y568000D02*
X465000Y612000D01*
X457800Y560800D02*
X384700Y560800D01*
X452700Y624300D02*
X465000Y612000D01*
X465000Y568000D02*
X457800Y560800D01*
X384700Y560800D02*
X364400Y540500D01*
X355200Y540500D01*
X551800Y633000D02*
X560000Y633000D01*
X551800Y633000D02*
X547600Y637200D01*
X496000Y700500D02*
X452700Y700500D01*
X496000Y700500D02*
X505000Y700500D01*
X516300Y689200D01*
X529700Y689200D01*
X547600Y671300D02*
X547600Y637200D01*
X547600Y671300D02*
X529700Y689200D01*
X552400Y641700D02*
X554100Y640000D01*
X560000Y640000D01*
X492600Y725900D02*
X452700Y725900D01*
X492600Y725900D02*
X518000Y700500D01*
X526900Y700500D01*
X552400Y675000D01*
X552400Y641700D01*
X331200Y397500D02*
X280950Y397500D01*
X338700Y390000D02*
X338700Y365000D01*
X338700Y390000D02*
X331200Y397500D01*
X275200Y360000D02*
X251700Y360000D01*
X275200Y360000D02*
X300000Y384800D01*
X440000Y332200D02*
X452700Y319500D01*
X440000Y332200D02*
X440000Y349000D01*
X431400Y357600D01*
X421900Y357600D02*
X389500Y390000D01*
X421900Y357600D02*
X431400Y357600D01*
X375000Y620700D02*
X375000Y633450D01*
X375000Y620700D02*
X384700Y611000D01*
X384700Y590000D01*
X295000Y620700D02*
X295000Y633450D01*
X295000Y620700D02*
X285300Y611000D01*
X285300Y590000D01*
X381000Y659200D02*
X381000Y682900D01*
X381000Y659200D02*
X387700Y652500D01*
X335000Y644800D02*
X327300Y652500D01*
X307700Y652500D01*
X276300Y695600D02*
X263700Y695600D01*
X276300Y695600D02*
X289000Y682900D01*
X351000Y708300D02*
X381000Y708300D01*
X319000Y708300D02*
X289000Y708300D01*
X335000Y708300D02*
X335000Y670200D01*
X310700Y611000D02*
X298000Y598300D01*
X298000Y588200D01*
X364100Y396000D02*
X364100Y357300D01*
X427300Y294100D01*
X364100Y396000D02*
X344600Y415500D01*
X316800Y415500D01*
X307900Y424400D01*
X290500Y580700D02*
X218900Y580700D01*
X290500Y580700D02*
X298000Y588200D01*
X307900Y424400D02*
X222400Y424400D01*
X195300Y451500D02*
X195300Y557100D01*
X218900Y580700D01*
X195300Y451500D02*
X222400Y424400D01*
X359900Y394400D02*
X359900Y355700D01*
X359900Y394400D02*
X343000Y411300D01*
X306200Y420300D02*
X220700Y420300D01*
X306200Y420300D02*
X315200Y411300D01*
X343000Y411300D01*
X191200Y449800D02*
X191200Y603900D01*
X234300Y647000D01*
X191200Y449800D02*
X220700Y420300D01*
X415900Y280100D02*
X427300Y268700D01*
X415900Y280100D02*
X415900Y299700D01*
X359900Y355700D01*
X372000Y598300D02*
X359300Y611000D01*
X372000Y598300D02*
X372000Y581800D01*
X407900Y319500D02*
X427300Y319500D01*
X407900Y319500D02*
X368300Y359100D01*
X368300Y397600D01*
X346200Y419700D01*
X318400Y419700D01*
X309600Y428500D02*
X224100Y428500D01*
X309600Y428500D02*
X318400Y419700D01*
X366700Y576500D02*
X220500Y576500D01*
X366700Y576500D02*
X372000Y581800D01*
X199400Y555400D02*
X199400Y453200D01*
X199400Y555400D02*
X220500Y576500D01*
X199400Y453200D02*
X224100Y428500D01*
D35*
X522000Y623000D02*
X522000Y623900D01*
X531100Y633000D01*
X540000Y633000D01*
X542000Y606000D02*
X531400Y595400D01*
X542000Y606000D02*
X543000Y606000D01*
X531400Y595400D02*
X496000Y595400D01*
X540000Y608540D02*
X540000Y624500D01*
X540000Y608540D02*
X542540Y606000D01*
X543000Y606000D01*
D31*
X530700Y680000D02*
X523600Y680000D01*
X530700Y680000D02*
X540000Y670700D01*
X540000Y655500D01*
X440000Y629800D02*
X440000Y586200D01*
X427300Y573500D01*
X440000Y629800D02*
X447200Y637000D01*
X465000Y643100D02*
X465000Y665400D01*
X479600Y680000D02*
X523600Y680000D01*
X479600Y680000D02*
X465000Y665400D01*
X458900Y637000D02*
X447200Y637000D01*
X458900Y637000D02*
X465000Y643100D01*
X540000Y700500D02*
X560000Y680500D01*
X560000Y655500D01*
X251000Y655700D02*
X251000Y676550D01*
X251000Y655700D02*
X259700Y647000D01*
X259700Y623500D01*
X360200Y442500D02*
X375100Y442500D01*
X389500Y428100D01*
X403200Y394400D02*
X427300Y370300D01*
X403200Y394400D02*
X403200Y414400D01*
X389500Y428100D01*
X522000Y649000D02*
X522000Y650000D01*
D35*
X522000Y649000D02*
X531000Y640000D01*
X540000Y640000D01*
X569000Y624500D02*
X578000Y615500D01*
D34*
X586400Y636500D03*
X515300Y636500D03*
D35*
X522000Y648900D02*
X522000Y650000D01*
X522000Y648900D02*
X515300Y642200D01*
X515300Y636500D01*
X578000Y615500D02*
X578000Y614500D01*
X569000Y624500D02*
X560000Y624500D01*
X586400Y623900D02*
X586400Y636500D01*
X586400Y623900D02*
X578000Y615500D01*
X440000Y535400D02*
X384700Y535400D01*
X440000Y535400D02*
X452700Y548100D01*
D31*
X309650Y454000D02*
X267700Y454000D01*
X256700Y465000D01*
X290600Y466700D02*
X290600Y495400D01*
X231300Y465000D02*
X231300Y441300D01*
M02*
