G75*
%MOIN*%
%OFA0B0*%
%FSLAX25Y25*%
%IPPOS*%
%LPD*%
%AMOC8*
5,1,8,0,0,1.08239X$1,22.5*
%
%ADD10C,0.00000*%
%ADD11R,0.05906X0.05118*%
%ADD12R,0.11024X0.14961*%
%ADD13R,0.09000X0.11000*%
%ADD14R,0.11000X0.09000*%
%ADD15C,0.03600*%
%ADD16C,0.05900*%
%ADD17R,0.05118X0.05906*%
D10*
X0013297Y0027187D02*
X0013297Y0172857D01*
X0017234Y0172857D01*
X0017234Y0216164D01*
X0013297Y0216164D01*
X0013297Y0361833D01*
X0392037Y0361833D01*
X0392322Y0361830D01*
X0392608Y0361819D01*
X0392893Y0361802D01*
X0393177Y0361778D01*
X0393461Y0361747D01*
X0393744Y0361709D01*
X0394025Y0361664D01*
X0394306Y0361613D01*
X0394586Y0361555D01*
X0394864Y0361490D01*
X0395140Y0361418D01*
X0395414Y0361340D01*
X0395687Y0361255D01*
X0395957Y0361163D01*
X0396225Y0361065D01*
X0396491Y0360961D01*
X0396754Y0360850D01*
X0397014Y0360733D01*
X0397272Y0360610D01*
X0397526Y0360480D01*
X0397777Y0360344D01*
X0398025Y0360203D01*
X0398269Y0360055D01*
X0398510Y0359902D01*
X0398746Y0359742D01*
X0398979Y0359577D01*
X0399208Y0359407D01*
X0399433Y0359231D01*
X0399653Y0359049D01*
X0399869Y0358863D01*
X0400080Y0358671D01*
X0400287Y0358474D01*
X0400489Y0358272D01*
X0400686Y0358065D01*
X0400878Y0357854D01*
X0401064Y0357638D01*
X0401246Y0357418D01*
X0401422Y0357193D01*
X0401592Y0356964D01*
X0401757Y0356731D01*
X0401917Y0356495D01*
X0402070Y0356254D01*
X0402218Y0356010D01*
X0402359Y0355762D01*
X0402495Y0355511D01*
X0402625Y0355257D01*
X0402748Y0354999D01*
X0402865Y0354739D01*
X0402976Y0354476D01*
X0403080Y0354210D01*
X0403178Y0353942D01*
X0403270Y0353672D01*
X0403355Y0353399D01*
X0403433Y0353125D01*
X0403505Y0352849D01*
X0403570Y0352571D01*
X0403628Y0352291D01*
X0403679Y0352010D01*
X0403724Y0351729D01*
X0403762Y0351446D01*
X0403793Y0351162D01*
X0403817Y0350878D01*
X0403834Y0350593D01*
X0403845Y0350307D01*
X0403848Y0350022D01*
X0403848Y0216164D01*
X0399911Y0216164D01*
X0399911Y0172857D01*
X0403848Y0172857D01*
X0403848Y0119117D01*
X0403845Y0118832D01*
X0403834Y0118546D01*
X0403817Y0118261D01*
X0403793Y0117977D01*
X0403762Y0117693D01*
X0403724Y0117410D01*
X0403679Y0117129D01*
X0403628Y0116848D01*
X0403570Y0116568D01*
X0403505Y0116290D01*
X0403433Y0116014D01*
X0403355Y0115740D01*
X0403270Y0115467D01*
X0403178Y0115197D01*
X0403080Y0114929D01*
X0402976Y0114663D01*
X0402865Y0114400D01*
X0402748Y0114140D01*
X0402625Y0113882D01*
X0402495Y0113628D01*
X0402359Y0113377D01*
X0402218Y0113129D01*
X0402070Y0112885D01*
X0401917Y0112644D01*
X0401757Y0112408D01*
X0401592Y0112175D01*
X0401422Y0111946D01*
X0401246Y0111721D01*
X0401064Y0111501D01*
X0400878Y0111285D01*
X0400686Y0111074D01*
X0400489Y0110867D01*
X0400287Y0110665D01*
X0400080Y0110468D01*
X0399869Y0110276D01*
X0399653Y0110090D01*
X0399433Y0109908D01*
X0399208Y0109732D01*
X0398979Y0109562D01*
X0398746Y0109397D01*
X0398510Y0109237D01*
X0398269Y0109084D01*
X0398025Y0108936D01*
X0397777Y0108795D01*
X0397526Y0108659D01*
X0397272Y0108529D01*
X0397014Y0108406D01*
X0396754Y0108289D01*
X0396491Y0108178D01*
X0396225Y0108074D01*
X0395957Y0107976D01*
X0395687Y0107884D01*
X0395414Y0107799D01*
X0395140Y0107721D01*
X0394864Y0107649D01*
X0394586Y0107584D01*
X0394306Y0107526D01*
X0394025Y0107475D01*
X0393744Y0107430D01*
X0393461Y0107392D01*
X0393177Y0107361D01*
X0392893Y0107337D01*
X0392608Y0107320D01*
X0392322Y0107309D01*
X0392037Y0107306D01*
X0330029Y0107306D01*
X0330029Y0092542D01*
X0190856Y0092542D01*
X0190856Y0027187D01*
X0013297Y0027187D01*
X0036328Y0096085D02*
X0036330Y0096225D01*
X0036336Y0096365D01*
X0036346Y0096504D01*
X0036360Y0096643D01*
X0036378Y0096782D01*
X0036399Y0096920D01*
X0036425Y0097058D01*
X0036455Y0097195D01*
X0036488Y0097330D01*
X0036526Y0097465D01*
X0036567Y0097599D01*
X0036612Y0097732D01*
X0036660Y0097863D01*
X0036713Y0097992D01*
X0036769Y0098121D01*
X0036828Y0098247D01*
X0036892Y0098372D01*
X0036958Y0098495D01*
X0037029Y0098616D01*
X0037102Y0098735D01*
X0037179Y0098852D01*
X0037260Y0098966D01*
X0037343Y0099078D01*
X0037430Y0099188D01*
X0037520Y0099296D01*
X0037612Y0099400D01*
X0037708Y0099502D01*
X0037807Y0099602D01*
X0037908Y0099698D01*
X0038012Y0099792D01*
X0038119Y0099882D01*
X0038228Y0099969D01*
X0038340Y0100054D01*
X0038454Y0100135D01*
X0038570Y0100213D01*
X0038688Y0100287D01*
X0038809Y0100358D01*
X0038931Y0100426D01*
X0039056Y0100490D01*
X0039182Y0100551D01*
X0039309Y0100608D01*
X0039439Y0100661D01*
X0039570Y0100711D01*
X0039702Y0100756D01*
X0039835Y0100799D01*
X0039970Y0100837D01*
X0040105Y0100871D01*
X0040242Y0100902D01*
X0040379Y0100929D01*
X0040517Y0100951D01*
X0040656Y0100970D01*
X0040795Y0100985D01*
X0040934Y0100996D01*
X0041074Y0101003D01*
X0041214Y0101006D01*
X0041354Y0101005D01*
X0041494Y0101000D01*
X0041633Y0100991D01*
X0041773Y0100978D01*
X0041912Y0100961D01*
X0042050Y0100940D01*
X0042188Y0100916D01*
X0042325Y0100887D01*
X0042461Y0100855D01*
X0042596Y0100818D01*
X0042730Y0100778D01*
X0042863Y0100734D01*
X0042994Y0100686D01*
X0043124Y0100635D01*
X0043253Y0100580D01*
X0043380Y0100521D01*
X0043505Y0100458D01*
X0043628Y0100393D01*
X0043750Y0100323D01*
X0043869Y0100250D01*
X0043987Y0100174D01*
X0044102Y0100095D01*
X0044215Y0100012D01*
X0044325Y0099926D01*
X0044433Y0099837D01*
X0044538Y0099745D01*
X0044641Y0099650D01*
X0044741Y0099552D01*
X0044838Y0099452D01*
X0044932Y0099348D01*
X0045024Y0099242D01*
X0045112Y0099134D01*
X0045197Y0099023D01*
X0045279Y0098909D01*
X0045358Y0098793D01*
X0045433Y0098676D01*
X0045505Y0098556D01*
X0045573Y0098434D01*
X0045638Y0098310D01*
X0045700Y0098184D01*
X0045758Y0098057D01*
X0045812Y0097928D01*
X0045863Y0097797D01*
X0045909Y0097665D01*
X0045952Y0097532D01*
X0045992Y0097398D01*
X0046027Y0097263D01*
X0046059Y0097126D01*
X0046086Y0096989D01*
X0046110Y0096851D01*
X0046130Y0096713D01*
X0046146Y0096574D01*
X0046158Y0096434D01*
X0046166Y0096295D01*
X0046170Y0096155D01*
X0046170Y0096015D01*
X0046166Y0095875D01*
X0046158Y0095736D01*
X0046146Y0095596D01*
X0046130Y0095457D01*
X0046110Y0095319D01*
X0046086Y0095181D01*
X0046059Y0095044D01*
X0046027Y0094907D01*
X0045992Y0094772D01*
X0045952Y0094638D01*
X0045909Y0094505D01*
X0045863Y0094373D01*
X0045812Y0094242D01*
X0045758Y0094113D01*
X0045700Y0093986D01*
X0045638Y0093860D01*
X0045573Y0093736D01*
X0045505Y0093614D01*
X0045433Y0093494D01*
X0045358Y0093377D01*
X0045279Y0093261D01*
X0045197Y0093147D01*
X0045112Y0093036D01*
X0045024Y0092928D01*
X0044932Y0092822D01*
X0044838Y0092718D01*
X0044741Y0092618D01*
X0044641Y0092520D01*
X0044538Y0092425D01*
X0044433Y0092333D01*
X0044325Y0092244D01*
X0044215Y0092158D01*
X0044102Y0092075D01*
X0043987Y0091996D01*
X0043869Y0091920D01*
X0043750Y0091847D01*
X0043628Y0091777D01*
X0043505Y0091712D01*
X0043380Y0091649D01*
X0043253Y0091590D01*
X0043124Y0091535D01*
X0042994Y0091484D01*
X0042863Y0091436D01*
X0042730Y0091392D01*
X0042596Y0091352D01*
X0042461Y0091315D01*
X0042325Y0091283D01*
X0042188Y0091254D01*
X0042050Y0091230D01*
X0041912Y0091209D01*
X0041773Y0091192D01*
X0041633Y0091179D01*
X0041494Y0091170D01*
X0041354Y0091165D01*
X0041214Y0091164D01*
X0041074Y0091167D01*
X0040934Y0091174D01*
X0040795Y0091185D01*
X0040656Y0091200D01*
X0040517Y0091219D01*
X0040379Y0091241D01*
X0040242Y0091268D01*
X0040105Y0091299D01*
X0039970Y0091333D01*
X0039835Y0091371D01*
X0039702Y0091414D01*
X0039570Y0091459D01*
X0039439Y0091509D01*
X0039309Y0091562D01*
X0039182Y0091619D01*
X0039056Y0091680D01*
X0038931Y0091744D01*
X0038809Y0091812D01*
X0038688Y0091883D01*
X0038570Y0091957D01*
X0038454Y0092035D01*
X0038340Y0092116D01*
X0038228Y0092201D01*
X0038119Y0092288D01*
X0038012Y0092378D01*
X0037908Y0092472D01*
X0037807Y0092568D01*
X0037708Y0092668D01*
X0037612Y0092770D01*
X0037520Y0092874D01*
X0037430Y0092982D01*
X0037343Y0093092D01*
X0037260Y0093204D01*
X0037179Y0093318D01*
X0037102Y0093435D01*
X0037029Y0093554D01*
X0036958Y0093675D01*
X0036892Y0093798D01*
X0036828Y0093923D01*
X0036769Y0094049D01*
X0036713Y0094178D01*
X0036660Y0094307D01*
X0036612Y0094438D01*
X0036567Y0094571D01*
X0036526Y0094705D01*
X0036488Y0094840D01*
X0036455Y0094975D01*
X0036425Y0095112D01*
X0036399Y0095250D01*
X0036378Y0095388D01*
X0036360Y0095527D01*
X0036346Y0095666D01*
X0036336Y0095805D01*
X0036330Y0095945D01*
X0036328Y0096085D01*
X0191742Y0119707D02*
X0191744Y0119854D01*
X0191750Y0120000D01*
X0191760Y0120146D01*
X0191774Y0120292D01*
X0191792Y0120438D01*
X0191813Y0120583D01*
X0191839Y0120727D01*
X0191869Y0120871D01*
X0191902Y0121013D01*
X0191939Y0121155D01*
X0191980Y0121296D01*
X0192025Y0121435D01*
X0192074Y0121574D01*
X0192126Y0121711D01*
X0192183Y0121846D01*
X0192242Y0121980D01*
X0192306Y0122112D01*
X0192373Y0122242D01*
X0192443Y0122371D01*
X0192517Y0122498D01*
X0192594Y0122622D01*
X0192675Y0122745D01*
X0192759Y0122865D01*
X0192846Y0122983D01*
X0192936Y0123098D01*
X0193029Y0123211D01*
X0193126Y0123322D01*
X0193225Y0123430D01*
X0193327Y0123535D01*
X0193432Y0123637D01*
X0193540Y0123736D01*
X0193651Y0123833D01*
X0193764Y0123926D01*
X0193879Y0124016D01*
X0193997Y0124103D01*
X0194117Y0124187D01*
X0194240Y0124268D01*
X0194364Y0124345D01*
X0194491Y0124419D01*
X0194620Y0124489D01*
X0194750Y0124556D01*
X0194882Y0124620D01*
X0195016Y0124679D01*
X0195151Y0124736D01*
X0195288Y0124788D01*
X0195427Y0124837D01*
X0195566Y0124882D01*
X0195707Y0124923D01*
X0195849Y0124960D01*
X0195991Y0124993D01*
X0196135Y0125023D01*
X0196279Y0125049D01*
X0196424Y0125070D01*
X0196570Y0125088D01*
X0196716Y0125102D01*
X0196862Y0125112D01*
X0197008Y0125118D01*
X0197155Y0125120D01*
X0197302Y0125118D01*
X0197448Y0125112D01*
X0197594Y0125102D01*
X0197740Y0125088D01*
X0197886Y0125070D01*
X0198031Y0125049D01*
X0198175Y0125023D01*
X0198319Y0124993D01*
X0198461Y0124960D01*
X0198603Y0124923D01*
X0198744Y0124882D01*
X0198883Y0124837D01*
X0199022Y0124788D01*
X0199159Y0124736D01*
X0199294Y0124679D01*
X0199428Y0124620D01*
X0199560Y0124556D01*
X0199690Y0124489D01*
X0199819Y0124419D01*
X0199946Y0124345D01*
X0200070Y0124268D01*
X0200193Y0124187D01*
X0200313Y0124103D01*
X0200431Y0124016D01*
X0200546Y0123926D01*
X0200659Y0123833D01*
X0200770Y0123736D01*
X0200878Y0123637D01*
X0200983Y0123535D01*
X0201085Y0123430D01*
X0201184Y0123322D01*
X0201281Y0123211D01*
X0201374Y0123098D01*
X0201464Y0122983D01*
X0201551Y0122865D01*
X0201635Y0122745D01*
X0201716Y0122622D01*
X0201793Y0122498D01*
X0201867Y0122371D01*
X0201937Y0122242D01*
X0202004Y0122112D01*
X0202068Y0121980D01*
X0202127Y0121846D01*
X0202184Y0121711D01*
X0202236Y0121574D01*
X0202285Y0121435D01*
X0202330Y0121296D01*
X0202371Y0121155D01*
X0202408Y0121013D01*
X0202441Y0120871D01*
X0202471Y0120727D01*
X0202497Y0120583D01*
X0202518Y0120438D01*
X0202536Y0120292D01*
X0202550Y0120146D01*
X0202560Y0120000D01*
X0202566Y0119854D01*
X0202568Y0119707D01*
X0202566Y0119560D01*
X0202560Y0119414D01*
X0202550Y0119268D01*
X0202536Y0119122D01*
X0202518Y0118976D01*
X0202497Y0118831D01*
X0202471Y0118687D01*
X0202441Y0118543D01*
X0202408Y0118401D01*
X0202371Y0118259D01*
X0202330Y0118118D01*
X0202285Y0117979D01*
X0202236Y0117840D01*
X0202184Y0117703D01*
X0202127Y0117568D01*
X0202068Y0117434D01*
X0202004Y0117302D01*
X0201937Y0117172D01*
X0201867Y0117043D01*
X0201793Y0116916D01*
X0201716Y0116792D01*
X0201635Y0116669D01*
X0201551Y0116549D01*
X0201464Y0116431D01*
X0201374Y0116316D01*
X0201281Y0116203D01*
X0201184Y0116092D01*
X0201085Y0115984D01*
X0200983Y0115879D01*
X0200878Y0115777D01*
X0200770Y0115678D01*
X0200659Y0115581D01*
X0200546Y0115488D01*
X0200431Y0115398D01*
X0200313Y0115311D01*
X0200193Y0115227D01*
X0200070Y0115146D01*
X0199946Y0115069D01*
X0199819Y0114995D01*
X0199690Y0114925D01*
X0199560Y0114858D01*
X0199428Y0114794D01*
X0199294Y0114735D01*
X0199159Y0114678D01*
X0199022Y0114626D01*
X0198883Y0114577D01*
X0198744Y0114532D01*
X0198603Y0114491D01*
X0198461Y0114454D01*
X0198319Y0114421D01*
X0198175Y0114391D01*
X0198031Y0114365D01*
X0197886Y0114344D01*
X0197740Y0114326D01*
X0197594Y0114312D01*
X0197448Y0114302D01*
X0197302Y0114296D01*
X0197155Y0114294D01*
X0197008Y0114296D01*
X0196862Y0114302D01*
X0196716Y0114312D01*
X0196570Y0114326D01*
X0196424Y0114344D01*
X0196279Y0114365D01*
X0196135Y0114391D01*
X0195991Y0114421D01*
X0195849Y0114454D01*
X0195707Y0114491D01*
X0195566Y0114532D01*
X0195427Y0114577D01*
X0195288Y0114626D01*
X0195151Y0114678D01*
X0195016Y0114735D01*
X0194882Y0114794D01*
X0194750Y0114858D01*
X0194620Y0114925D01*
X0194491Y0114995D01*
X0194364Y0115069D01*
X0194240Y0115146D01*
X0194117Y0115227D01*
X0193997Y0115311D01*
X0193879Y0115398D01*
X0193764Y0115488D01*
X0193651Y0115581D01*
X0193540Y0115678D01*
X0193432Y0115777D01*
X0193327Y0115879D01*
X0193225Y0115984D01*
X0193126Y0116092D01*
X0193029Y0116203D01*
X0192936Y0116316D01*
X0192846Y0116431D01*
X0192759Y0116549D01*
X0192675Y0116669D01*
X0192594Y0116792D01*
X0192517Y0116916D01*
X0192443Y0117043D01*
X0192373Y0117172D01*
X0192306Y0117302D01*
X0192242Y0117434D01*
X0192183Y0117568D01*
X0192126Y0117703D01*
X0192074Y0117840D01*
X0192025Y0117979D01*
X0191980Y0118118D01*
X0191939Y0118259D01*
X0191902Y0118401D01*
X0191869Y0118543D01*
X0191839Y0118687D01*
X0191813Y0118831D01*
X0191792Y0118976D01*
X0191774Y0119122D01*
X0191760Y0119268D01*
X0191750Y0119414D01*
X0191744Y0119560D01*
X0191742Y0119707D01*
X0370974Y0292935D02*
X0370976Y0293075D01*
X0370982Y0293215D01*
X0370992Y0293354D01*
X0371006Y0293493D01*
X0371024Y0293632D01*
X0371045Y0293770D01*
X0371071Y0293908D01*
X0371101Y0294045D01*
X0371134Y0294180D01*
X0371172Y0294315D01*
X0371213Y0294449D01*
X0371258Y0294582D01*
X0371306Y0294713D01*
X0371359Y0294842D01*
X0371415Y0294971D01*
X0371474Y0295097D01*
X0371538Y0295222D01*
X0371604Y0295345D01*
X0371675Y0295466D01*
X0371748Y0295585D01*
X0371825Y0295702D01*
X0371906Y0295816D01*
X0371989Y0295928D01*
X0372076Y0296038D01*
X0372166Y0296146D01*
X0372258Y0296250D01*
X0372354Y0296352D01*
X0372453Y0296452D01*
X0372554Y0296548D01*
X0372658Y0296642D01*
X0372765Y0296732D01*
X0372874Y0296819D01*
X0372986Y0296904D01*
X0373100Y0296985D01*
X0373216Y0297063D01*
X0373334Y0297137D01*
X0373455Y0297208D01*
X0373577Y0297276D01*
X0373702Y0297340D01*
X0373828Y0297401D01*
X0373955Y0297458D01*
X0374085Y0297511D01*
X0374216Y0297561D01*
X0374348Y0297606D01*
X0374481Y0297649D01*
X0374616Y0297687D01*
X0374751Y0297721D01*
X0374888Y0297752D01*
X0375025Y0297779D01*
X0375163Y0297801D01*
X0375302Y0297820D01*
X0375441Y0297835D01*
X0375580Y0297846D01*
X0375720Y0297853D01*
X0375860Y0297856D01*
X0376000Y0297855D01*
X0376140Y0297850D01*
X0376279Y0297841D01*
X0376419Y0297828D01*
X0376558Y0297811D01*
X0376696Y0297790D01*
X0376834Y0297766D01*
X0376971Y0297737D01*
X0377107Y0297705D01*
X0377242Y0297668D01*
X0377376Y0297628D01*
X0377509Y0297584D01*
X0377640Y0297536D01*
X0377770Y0297485D01*
X0377899Y0297430D01*
X0378026Y0297371D01*
X0378151Y0297308D01*
X0378274Y0297243D01*
X0378396Y0297173D01*
X0378515Y0297100D01*
X0378633Y0297024D01*
X0378748Y0296945D01*
X0378861Y0296862D01*
X0378971Y0296776D01*
X0379079Y0296687D01*
X0379184Y0296595D01*
X0379287Y0296500D01*
X0379387Y0296402D01*
X0379484Y0296302D01*
X0379578Y0296198D01*
X0379670Y0296092D01*
X0379758Y0295984D01*
X0379843Y0295873D01*
X0379925Y0295759D01*
X0380004Y0295643D01*
X0380079Y0295526D01*
X0380151Y0295406D01*
X0380219Y0295284D01*
X0380284Y0295160D01*
X0380346Y0295034D01*
X0380404Y0294907D01*
X0380458Y0294778D01*
X0380509Y0294647D01*
X0380555Y0294515D01*
X0380598Y0294382D01*
X0380638Y0294248D01*
X0380673Y0294113D01*
X0380705Y0293976D01*
X0380732Y0293839D01*
X0380756Y0293701D01*
X0380776Y0293563D01*
X0380792Y0293424D01*
X0380804Y0293284D01*
X0380812Y0293145D01*
X0380816Y0293005D01*
X0380816Y0292865D01*
X0380812Y0292725D01*
X0380804Y0292586D01*
X0380792Y0292446D01*
X0380776Y0292307D01*
X0380756Y0292169D01*
X0380732Y0292031D01*
X0380705Y0291894D01*
X0380673Y0291757D01*
X0380638Y0291622D01*
X0380598Y0291488D01*
X0380555Y0291355D01*
X0380509Y0291223D01*
X0380458Y0291092D01*
X0380404Y0290963D01*
X0380346Y0290836D01*
X0380284Y0290710D01*
X0380219Y0290586D01*
X0380151Y0290464D01*
X0380079Y0290344D01*
X0380004Y0290227D01*
X0379925Y0290111D01*
X0379843Y0289997D01*
X0379758Y0289886D01*
X0379670Y0289778D01*
X0379578Y0289672D01*
X0379484Y0289568D01*
X0379387Y0289468D01*
X0379287Y0289370D01*
X0379184Y0289275D01*
X0379079Y0289183D01*
X0378971Y0289094D01*
X0378861Y0289008D01*
X0378748Y0288925D01*
X0378633Y0288846D01*
X0378515Y0288770D01*
X0378396Y0288697D01*
X0378274Y0288627D01*
X0378151Y0288562D01*
X0378026Y0288499D01*
X0377899Y0288440D01*
X0377770Y0288385D01*
X0377640Y0288334D01*
X0377509Y0288286D01*
X0377376Y0288242D01*
X0377242Y0288202D01*
X0377107Y0288165D01*
X0376971Y0288133D01*
X0376834Y0288104D01*
X0376696Y0288080D01*
X0376558Y0288059D01*
X0376419Y0288042D01*
X0376279Y0288029D01*
X0376140Y0288020D01*
X0376000Y0288015D01*
X0375860Y0288014D01*
X0375720Y0288017D01*
X0375580Y0288024D01*
X0375441Y0288035D01*
X0375302Y0288050D01*
X0375163Y0288069D01*
X0375025Y0288091D01*
X0374888Y0288118D01*
X0374751Y0288149D01*
X0374616Y0288183D01*
X0374481Y0288221D01*
X0374348Y0288264D01*
X0374216Y0288309D01*
X0374085Y0288359D01*
X0373955Y0288412D01*
X0373828Y0288469D01*
X0373702Y0288530D01*
X0373577Y0288594D01*
X0373455Y0288662D01*
X0373334Y0288733D01*
X0373216Y0288807D01*
X0373100Y0288885D01*
X0372986Y0288966D01*
X0372874Y0289051D01*
X0372765Y0289138D01*
X0372658Y0289228D01*
X0372554Y0289322D01*
X0372453Y0289418D01*
X0372354Y0289518D01*
X0372258Y0289620D01*
X0372166Y0289724D01*
X0372076Y0289832D01*
X0371989Y0289942D01*
X0371906Y0290054D01*
X0371825Y0290168D01*
X0371748Y0290285D01*
X0371675Y0290404D01*
X0371604Y0290525D01*
X0371538Y0290648D01*
X0371474Y0290773D01*
X0371415Y0290899D01*
X0371359Y0291028D01*
X0371306Y0291157D01*
X0371258Y0291288D01*
X0371213Y0291421D01*
X0371172Y0291555D01*
X0371134Y0291690D01*
X0371101Y0291825D01*
X0371071Y0291962D01*
X0371045Y0292100D01*
X0371024Y0292238D01*
X0371006Y0292377D01*
X0370992Y0292516D01*
X0370982Y0292655D01*
X0370976Y0292795D01*
X0370974Y0292935D01*
X0384655Y0348054D02*
X0384657Y0348201D01*
X0384663Y0348347D01*
X0384673Y0348493D01*
X0384687Y0348639D01*
X0384705Y0348785D01*
X0384726Y0348930D01*
X0384752Y0349074D01*
X0384782Y0349218D01*
X0384815Y0349360D01*
X0384852Y0349502D01*
X0384893Y0349643D01*
X0384938Y0349782D01*
X0384987Y0349921D01*
X0385039Y0350058D01*
X0385096Y0350193D01*
X0385155Y0350327D01*
X0385219Y0350459D01*
X0385286Y0350589D01*
X0385356Y0350718D01*
X0385430Y0350845D01*
X0385507Y0350969D01*
X0385588Y0351092D01*
X0385672Y0351212D01*
X0385759Y0351330D01*
X0385849Y0351445D01*
X0385942Y0351558D01*
X0386039Y0351669D01*
X0386138Y0351777D01*
X0386240Y0351882D01*
X0386345Y0351984D01*
X0386453Y0352083D01*
X0386564Y0352180D01*
X0386677Y0352273D01*
X0386792Y0352363D01*
X0386910Y0352450D01*
X0387030Y0352534D01*
X0387153Y0352615D01*
X0387277Y0352692D01*
X0387404Y0352766D01*
X0387533Y0352836D01*
X0387663Y0352903D01*
X0387795Y0352967D01*
X0387929Y0353026D01*
X0388064Y0353083D01*
X0388201Y0353135D01*
X0388340Y0353184D01*
X0388479Y0353229D01*
X0388620Y0353270D01*
X0388762Y0353307D01*
X0388904Y0353340D01*
X0389048Y0353370D01*
X0389192Y0353396D01*
X0389337Y0353417D01*
X0389483Y0353435D01*
X0389629Y0353449D01*
X0389775Y0353459D01*
X0389921Y0353465D01*
X0390068Y0353467D01*
X0390215Y0353465D01*
X0390361Y0353459D01*
X0390507Y0353449D01*
X0390653Y0353435D01*
X0390799Y0353417D01*
X0390944Y0353396D01*
X0391088Y0353370D01*
X0391232Y0353340D01*
X0391374Y0353307D01*
X0391516Y0353270D01*
X0391657Y0353229D01*
X0391796Y0353184D01*
X0391935Y0353135D01*
X0392072Y0353083D01*
X0392207Y0353026D01*
X0392341Y0352967D01*
X0392473Y0352903D01*
X0392603Y0352836D01*
X0392732Y0352766D01*
X0392859Y0352692D01*
X0392983Y0352615D01*
X0393106Y0352534D01*
X0393226Y0352450D01*
X0393344Y0352363D01*
X0393459Y0352273D01*
X0393572Y0352180D01*
X0393683Y0352083D01*
X0393791Y0351984D01*
X0393896Y0351882D01*
X0393998Y0351777D01*
X0394097Y0351669D01*
X0394194Y0351558D01*
X0394287Y0351445D01*
X0394377Y0351330D01*
X0394464Y0351212D01*
X0394548Y0351092D01*
X0394629Y0350969D01*
X0394706Y0350845D01*
X0394780Y0350718D01*
X0394850Y0350589D01*
X0394917Y0350459D01*
X0394981Y0350327D01*
X0395040Y0350193D01*
X0395097Y0350058D01*
X0395149Y0349921D01*
X0395198Y0349782D01*
X0395243Y0349643D01*
X0395284Y0349502D01*
X0395321Y0349360D01*
X0395354Y0349218D01*
X0395384Y0349074D01*
X0395410Y0348930D01*
X0395431Y0348785D01*
X0395449Y0348639D01*
X0395463Y0348493D01*
X0395473Y0348347D01*
X0395479Y0348201D01*
X0395481Y0348054D01*
X0395479Y0347907D01*
X0395473Y0347761D01*
X0395463Y0347615D01*
X0395449Y0347469D01*
X0395431Y0347323D01*
X0395410Y0347178D01*
X0395384Y0347034D01*
X0395354Y0346890D01*
X0395321Y0346748D01*
X0395284Y0346606D01*
X0395243Y0346465D01*
X0395198Y0346326D01*
X0395149Y0346187D01*
X0395097Y0346050D01*
X0395040Y0345915D01*
X0394981Y0345781D01*
X0394917Y0345649D01*
X0394850Y0345519D01*
X0394780Y0345390D01*
X0394706Y0345263D01*
X0394629Y0345139D01*
X0394548Y0345016D01*
X0394464Y0344896D01*
X0394377Y0344778D01*
X0394287Y0344663D01*
X0394194Y0344550D01*
X0394097Y0344439D01*
X0393998Y0344331D01*
X0393896Y0344226D01*
X0393791Y0344124D01*
X0393683Y0344025D01*
X0393572Y0343928D01*
X0393459Y0343835D01*
X0393344Y0343745D01*
X0393226Y0343658D01*
X0393106Y0343574D01*
X0392983Y0343493D01*
X0392859Y0343416D01*
X0392732Y0343342D01*
X0392603Y0343272D01*
X0392473Y0343205D01*
X0392341Y0343141D01*
X0392207Y0343082D01*
X0392072Y0343025D01*
X0391935Y0342973D01*
X0391796Y0342924D01*
X0391657Y0342879D01*
X0391516Y0342838D01*
X0391374Y0342801D01*
X0391232Y0342768D01*
X0391088Y0342738D01*
X0390944Y0342712D01*
X0390799Y0342691D01*
X0390653Y0342673D01*
X0390507Y0342659D01*
X0390361Y0342649D01*
X0390215Y0342643D01*
X0390068Y0342641D01*
X0389921Y0342643D01*
X0389775Y0342649D01*
X0389629Y0342659D01*
X0389483Y0342673D01*
X0389337Y0342691D01*
X0389192Y0342712D01*
X0389048Y0342738D01*
X0388904Y0342768D01*
X0388762Y0342801D01*
X0388620Y0342838D01*
X0388479Y0342879D01*
X0388340Y0342924D01*
X0388201Y0342973D01*
X0388064Y0343025D01*
X0387929Y0343082D01*
X0387795Y0343141D01*
X0387663Y0343205D01*
X0387533Y0343272D01*
X0387404Y0343342D01*
X0387277Y0343416D01*
X0387153Y0343493D01*
X0387030Y0343574D01*
X0386910Y0343658D01*
X0386792Y0343745D01*
X0386677Y0343835D01*
X0386564Y0343928D01*
X0386453Y0344025D01*
X0386345Y0344124D01*
X0386240Y0344226D01*
X0386138Y0344331D01*
X0386039Y0344439D01*
X0385942Y0344550D01*
X0385849Y0344663D01*
X0385759Y0344778D01*
X0385672Y0344896D01*
X0385588Y0345016D01*
X0385507Y0345139D01*
X0385430Y0345263D01*
X0385356Y0345390D01*
X0385286Y0345519D01*
X0385219Y0345649D01*
X0385155Y0345781D01*
X0385096Y0345915D01*
X0385039Y0346050D01*
X0384987Y0346187D01*
X0384938Y0346326D01*
X0384893Y0346465D01*
X0384852Y0346606D01*
X0384815Y0346748D01*
X0384782Y0346890D01*
X0384752Y0347034D01*
X0384726Y0347178D01*
X0384705Y0347323D01*
X0384687Y0347469D01*
X0384673Y0347615D01*
X0384663Y0347761D01*
X0384657Y0347907D01*
X0384655Y0348054D01*
X0191742Y0348054D02*
X0191744Y0348201D01*
X0191750Y0348347D01*
X0191760Y0348493D01*
X0191774Y0348639D01*
X0191792Y0348785D01*
X0191813Y0348930D01*
X0191839Y0349074D01*
X0191869Y0349218D01*
X0191902Y0349360D01*
X0191939Y0349502D01*
X0191980Y0349643D01*
X0192025Y0349782D01*
X0192074Y0349921D01*
X0192126Y0350058D01*
X0192183Y0350193D01*
X0192242Y0350327D01*
X0192306Y0350459D01*
X0192373Y0350589D01*
X0192443Y0350718D01*
X0192517Y0350845D01*
X0192594Y0350969D01*
X0192675Y0351092D01*
X0192759Y0351212D01*
X0192846Y0351330D01*
X0192936Y0351445D01*
X0193029Y0351558D01*
X0193126Y0351669D01*
X0193225Y0351777D01*
X0193327Y0351882D01*
X0193432Y0351984D01*
X0193540Y0352083D01*
X0193651Y0352180D01*
X0193764Y0352273D01*
X0193879Y0352363D01*
X0193997Y0352450D01*
X0194117Y0352534D01*
X0194240Y0352615D01*
X0194364Y0352692D01*
X0194491Y0352766D01*
X0194620Y0352836D01*
X0194750Y0352903D01*
X0194882Y0352967D01*
X0195016Y0353026D01*
X0195151Y0353083D01*
X0195288Y0353135D01*
X0195427Y0353184D01*
X0195566Y0353229D01*
X0195707Y0353270D01*
X0195849Y0353307D01*
X0195991Y0353340D01*
X0196135Y0353370D01*
X0196279Y0353396D01*
X0196424Y0353417D01*
X0196570Y0353435D01*
X0196716Y0353449D01*
X0196862Y0353459D01*
X0197008Y0353465D01*
X0197155Y0353467D01*
X0197302Y0353465D01*
X0197448Y0353459D01*
X0197594Y0353449D01*
X0197740Y0353435D01*
X0197886Y0353417D01*
X0198031Y0353396D01*
X0198175Y0353370D01*
X0198319Y0353340D01*
X0198461Y0353307D01*
X0198603Y0353270D01*
X0198744Y0353229D01*
X0198883Y0353184D01*
X0199022Y0353135D01*
X0199159Y0353083D01*
X0199294Y0353026D01*
X0199428Y0352967D01*
X0199560Y0352903D01*
X0199690Y0352836D01*
X0199819Y0352766D01*
X0199946Y0352692D01*
X0200070Y0352615D01*
X0200193Y0352534D01*
X0200313Y0352450D01*
X0200431Y0352363D01*
X0200546Y0352273D01*
X0200659Y0352180D01*
X0200770Y0352083D01*
X0200878Y0351984D01*
X0200983Y0351882D01*
X0201085Y0351777D01*
X0201184Y0351669D01*
X0201281Y0351558D01*
X0201374Y0351445D01*
X0201464Y0351330D01*
X0201551Y0351212D01*
X0201635Y0351092D01*
X0201716Y0350969D01*
X0201793Y0350845D01*
X0201867Y0350718D01*
X0201937Y0350589D01*
X0202004Y0350459D01*
X0202068Y0350327D01*
X0202127Y0350193D01*
X0202184Y0350058D01*
X0202236Y0349921D01*
X0202285Y0349782D01*
X0202330Y0349643D01*
X0202371Y0349502D01*
X0202408Y0349360D01*
X0202441Y0349218D01*
X0202471Y0349074D01*
X0202497Y0348930D01*
X0202518Y0348785D01*
X0202536Y0348639D01*
X0202550Y0348493D01*
X0202560Y0348347D01*
X0202566Y0348201D01*
X0202568Y0348054D01*
X0202566Y0347907D01*
X0202560Y0347761D01*
X0202550Y0347615D01*
X0202536Y0347469D01*
X0202518Y0347323D01*
X0202497Y0347178D01*
X0202471Y0347034D01*
X0202441Y0346890D01*
X0202408Y0346748D01*
X0202371Y0346606D01*
X0202330Y0346465D01*
X0202285Y0346326D01*
X0202236Y0346187D01*
X0202184Y0346050D01*
X0202127Y0345915D01*
X0202068Y0345781D01*
X0202004Y0345649D01*
X0201937Y0345519D01*
X0201867Y0345390D01*
X0201793Y0345263D01*
X0201716Y0345139D01*
X0201635Y0345016D01*
X0201551Y0344896D01*
X0201464Y0344778D01*
X0201374Y0344663D01*
X0201281Y0344550D01*
X0201184Y0344439D01*
X0201085Y0344331D01*
X0200983Y0344226D01*
X0200878Y0344124D01*
X0200770Y0344025D01*
X0200659Y0343928D01*
X0200546Y0343835D01*
X0200431Y0343745D01*
X0200313Y0343658D01*
X0200193Y0343574D01*
X0200070Y0343493D01*
X0199946Y0343416D01*
X0199819Y0343342D01*
X0199690Y0343272D01*
X0199560Y0343205D01*
X0199428Y0343141D01*
X0199294Y0343082D01*
X0199159Y0343025D01*
X0199022Y0342973D01*
X0198883Y0342924D01*
X0198744Y0342879D01*
X0198603Y0342838D01*
X0198461Y0342801D01*
X0198319Y0342768D01*
X0198175Y0342738D01*
X0198031Y0342712D01*
X0197886Y0342691D01*
X0197740Y0342673D01*
X0197594Y0342659D01*
X0197448Y0342649D01*
X0197302Y0342643D01*
X0197155Y0342641D01*
X0197008Y0342643D01*
X0196862Y0342649D01*
X0196716Y0342659D01*
X0196570Y0342673D01*
X0196424Y0342691D01*
X0196279Y0342712D01*
X0196135Y0342738D01*
X0195991Y0342768D01*
X0195849Y0342801D01*
X0195707Y0342838D01*
X0195566Y0342879D01*
X0195427Y0342924D01*
X0195288Y0342973D01*
X0195151Y0343025D01*
X0195016Y0343082D01*
X0194882Y0343141D01*
X0194750Y0343205D01*
X0194620Y0343272D01*
X0194491Y0343342D01*
X0194364Y0343416D01*
X0194240Y0343493D01*
X0194117Y0343574D01*
X0193997Y0343658D01*
X0193879Y0343745D01*
X0193764Y0343835D01*
X0193651Y0343928D01*
X0193540Y0344025D01*
X0193432Y0344124D01*
X0193327Y0344226D01*
X0193225Y0344331D01*
X0193126Y0344439D01*
X0193029Y0344550D01*
X0192936Y0344663D01*
X0192846Y0344778D01*
X0192759Y0344896D01*
X0192675Y0345016D01*
X0192594Y0345139D01*
X0192517Y0345263D01*
X0192443Y0345390D01*
X0192373Y0345519D01*
X0192306Y0345649D01*
X0192242Y0345781D01*
X0192183Y0345915D01*
X0192126Y0346050D01*
X0192074Y0346187D01*
X0192025Y0346326D01*
X0191980Y0346465D01*
X0191939Y0346606D01*
X0191902Y0346748D01*
X0191869Y0346890D01*
X0191839Y0347034D01*
X0191813Y0347178D01*
X0191792Y0347323D01*
X0191774Y0347469D01*
X0191760Y0347615D01*
X0191750Y0347761D01*
X0191744Y0347907D01*
X0191742Y0348054D01*
X0384655Y0119707D02*
X0384657Y0119854D01*
X0384663Y0120000D01*
X0384673Y0120146D01*
X0384687Y0120292D01*
X0384705Y0120438D01*
X0384726Y0120583D01*
X0384752Y0120727D01*
X0384782Y0120871D01*
X0384815Y0121013D01*
X0384852Y0121155D01*
X0384893Y0121296D01*
X0384938Y0121435D01*
X0384987Y0121574D01*
X0385039Y0121711D01*
X0385096Y0121846D01*
X0385155Y0121980D01*
X0385219Y0122112D01*
X0385286Y0122242D01*
X0385356Y0122371D01*
X0385430Y0122498D01*
X0385507Y0122622D01*
X0385588Y0122745D01*
X0385672Y0122865D01*
X0385759Y0122983D01*
X0385849Y0123098D01*
X0385942Y0123211D01*
X0386039Y0123322D01*
X0386138Y0123430D01*
X0386240Y0123535D01*
X0386345Y0123637D01*
X0386453Y0123736D01*
X0386564Y0123833D01*
X0386677Y0123926D01*
X0386792Y0124016D01*
X0386910Y0124103D01*
X0387030Y0124187D01*
X0387153Y0124268D01*
X0387277Y0124345D01*
X0387404Y0124419D01*
X0387533Y0124489D01*
X0387663Y0124556D01*
X0387795Y0124620D01*
X0387929Y0124679D01*
X0388064Y0124736D01*
X0388201Y0124788D01*
X0388340Y0124837D01*
X0388479Y0124882D01*
X0388620Y0124923D01*
X0388762Y0124960D01*
X0388904Y0124993D01*
X0389048Y0125023D01*
X0389192Y0125049D01*
X0389337Y0125070D01*
X0389483Y0125088D01*
X0389629Y0125102D01*
X0389775Y0125112D01*
X0389921Y0125118D01*
X0390068Y0125120D01*
X0390215Y0125118D01*
X0390361Y0125112D01*
X0390507Y0125102D01*
X0390653Y0125088D01*
X0390799Y0125070D01*
X0390944Y0125049D01*
X0391088Y0125023D01*
X0391232Y0124993D01*
X0391374Y0124960D01*
X0391516Y0124923D01*
X0391657Y0124882D01*
X0391796Y0124837D01*
X0391935Y0124788D01*
X0392072Y0124736D01*
X0392207Y0124679D01*
X0392341Y0124620D01*
X0392473Y0124556D01*
X0392603Y0124489D01*
X0392732Y0124419D01*
X0392859Y0124345D01*
X0392983Y0124268D01*
X0393106Y0124187D01*
X0393226Y0124103D01*
X0393344Y0124016D01*
X0393459Y0123926D01*
X0393572Y0123833D01*
X0393683Y0123736D01*
X0393791Y0123637D01*
X0393896Y0123535D01*
X0393998Y0123430D01*
X0394097Y0123322D01*
X0394194Y0123211D01*
X0394287Y0123098D01*
X0394377Y0122983D01*
X0394464Y0122865D01*
X0394548Y0122745D01*
X0394629Y0122622D01*
X0394706Y0122498D01*
X0394780Y0122371D01*
X0394850Y0122242D01*
X0394917Y0122112D01*
X0394981Y0121980D01*
X0395040Y0121846D01*
X0395097Y0121711D01*
X0395149Y0121574D01*
X0395198Y0121435D01*
X0395243Y0121296D01*
X0395284Y0121155D01*
X0395321Y0121013D01*
X0395354Y0120871D01*
X0395384Y0120727D01*
X0395410Y0120583D01*
X0395431Y0120438D01*
X0395449Y0120292D01*
X0395463Y0120146D01*
X0395473Y0120000D01*
X0395479Y0119854D01*
X0395481Y0119707D01*
X0395479Y0119560D01*
X0395473Y0119414D01*
X0395463Y0119268D01*
X0395449Y0119122D01*
X0395431Y0118976D01*
X0395410Y0118831D01*
X0395384Y0118687D01*
X0395354Y0118543D01*
X0395321Y0118401D01*
X0395284Y0118259D01*
X0395243Y0118118D01*
X0395198Y0117979D01*
X0395149Y0117840D01*
X0395097Y0117703D01*
X0395040Y0117568D01*
X0394981Y0117434D01*
X0394917Y0117302D01*
X0394850Y0117172D01*
X0394780Y0117043D01*
X0394706Y0116916D01*
X0394629Y0116792D01*
X0394548Y0116669D01*
X0394464Y0116549D01*
X0394377Y0116431D01*
X0394287Y0116316D01*
X0394194Y0116203D01*
X0394097Y0116092D01*
X0393998Y0115984D01*
X0393896Y0115879D01*
X0393791Y0115777D01*
X0393683Y0115678D01*
X0393572Y0115581D01*
X0393459Y0115488D01*
X0393344Y0115398D01*
X0393226Y0115311D01*
X0393106Y0115227D01*
X0392983Y0115146D01*
X0392859Y0115069D01*
X0392732Y0114995D01*
X0392603Y0114925D01*
X0392473Y0114858D01*
X0392341Y0114794D01*
X0392207Y0114735D01*
X0392072Y0114678D01*
X0391935Y0114626D01*
X0391796Y0114577D01*
X0391657Y0114532D01*
X0391516Y0114491D01*
X0391374Y0114454D01*
X0391232Y0114421D01*
X0391088Y0114391D01*
X0390944Y0114365D01*
X0390799Y0114344D01*
X0390653Y0114326D01*
X0390507Y0114312D01*
X0390361Y0114302D01*
X0390215Y0114296D01*
X0390068Y0114294D01*
X0389921Y0114296D01*
X0389775Y0114302D01*
X0389629Y0114312D01*
X0389483Y0114326D01*
X0389337Y0114344D01*
X0389192Y0114365D01*
X0389048Y0114391D01*
X0388904Y0114421D01*
X0388762Y0114454D01*
X0388620Y0114491D01*
X0388479Y0114532D01*
X0388340Y0114577D01*
X0388201Y0114626D01*
X0388064Y0114678D01*
X0387929Y0114735D01*
X0387795Y0114794D01*
X0387663Y0114858D01*
X0387533Y0114925D01*
X0387404Y0114995D01*
X0387277Y0115069D01*
X0387153Y0115146D01*
X0387030Y0115227D01*
X0386910Y0115311D01*
X0386792Y0115398D01*
X0386677Y0115488D01*
X0386564Y0115581D01*
X0386453Y0115678D01*
X0386345Y0115777D01*
X0386240Y0115879D01*
X0386138Y0115984D01*
X0386039Y0116092D01*
X0385942Y0116203D01*
X0385849Y0116316D01*
X0385759Y0116431D01*
X0385672Y0116549D01*
X0385588Y0116669D01*
X0385507Y0116792D01*
X0385430Y0116916D01*
X0385356Y0117043D01*
X0385286Y0117172D01*
X0385219Y0117302D01*
X0385155Y0117434D01*
X0385096Y0117568D01*
X0385039Y0117703D01*
X0384987Y0117840D01*
X0384938Y0117979D01*
X0384893Y0118118D01*
X0384852Y0118259D01*
X0384815Y0118401D01*
X0384782Y0118543D01*
X0384752Y0118687D01*
X0384726Y0118831D01*
X0384705Y0118976D01*
X0384687Y0119122D01*
X0384673Y0119268D01*
X0384663Y0119414D01*
X0384657Y0119560D01*
X0384655Y0119707D01*
D11*
X0150698Y0174313D03*
X0150698Y0181794D03*
X0126486Y0177778D03*
X0126486Y0170298D03*
X0104871Y0166991D03*
X0104871Y0174471D03*
D12*
X0086919Y0313605D03*
X0057785Y0313605D03*
D13*
X0110556Y0213723D03*
X0126667Y0213723D03*
D14*
X0035934Y0197865D03*
X0035934Y0181754D03*
D15*
X0065482Y0143651D02*
X0065482Y0140251D01*
X0070482Y0140251D02*
X0070482Y0143651D01*
X0075482Y0143651D02*
X0075482Y0140251D01*
X0080482Y0140251D02*
X0080482Y0143651D01*
X0085482Y0143651D02*
X0085482Y0140251D01*
X0090482Y0140251D02*
X0090482Y0143651D01*
X0095482Y0143651D02*
X0095482Y0140251D01*
X0100482Y0140251D02*
X0100482Y0143651D01*
X0119812Y0143651D02*
X0119812Y0140251D01*
X0124812Y0140251D02*
X0124812Y0143651D01*
X0129812Y0143651D02*
X0129812Y0140251D01*
X0134812Y0140251D02*
X0134812Y0143651D01*
X0139812Y0143651D02*
X0139812Y0140251D01*
X0144812Y0140251D02*
X0144812Y0143651D01*
X0149812Y0143651D02*
X0149812Y0140251D01*
X0154812Y0140251D02*
X0154812Y0143651D01*
D16*
X0158159Y0064670D02*
X0158159Y0060570D01*
X0148907Y0060570D02*
X0148907Y0064670D01*
X0103828Y0064670D02*
X0103828Y0060570D01*
X0094576Y0060570D02*
X0094576Y0064670D01*
D17*
X0112332Y0150219D03*
X0119812Y0150219D03*
X0095482Y0158093D03*
X0088001Y0158093D03*
X0065482Y0150219D03*
X0058001Y0150219D03*
M02*
