%
M48
M72
T01C0.03150
T02C0.03543
T03C0.03937
T04C0.04331
T05C0.05118
T06C0.01969
T07C0.02362
T08C0.02756
T09C0.09843
T10C0.10827
%
T01
X36801Y317306
X36801Y347306
X131210Y317306
X131210Y347306
T02
X65659Y79550
X65659Y69550
X65659Y59550
X65659Y49550
X65659Y179550
X65659Y189550
X65659Y199550
X65659Y209550
X131997Y66557
X141840Y66557
X151682Y66557
X26667Y305813
X36667Y305813
X68667Y305813
X78667Y305813
X121155Y305813
X131155Y305813
X163155Y305813
X173155Y305813
X26667Y232813
X36667Y232813
X68667Y232813
X78667Y232813
X121155Y232813
X131155Y232813
X163155Y232813
X173155Y232813
T03
X192155Y328880
X192155Y308880
X192155Y318880
X192155Y298880
X192155Y288880
X192155Y278880
X192155Y268880
X192155Y258880
X192155Y248880
X192155Y238880
X192155Y228880
X192155Y218880
X192155Y208880
X192155Y198880
X192155Y188880
X192155Y178880
X192155Y168880
X192155Y158880
X192155Y148880
X192155Y138880
X202155Y328880
X202155Y318880
X202155Y308880
X202155Y298880
X202155Y288880
X202155Y278880
X202155Y268880
X202155Y258880
X202155Y248880
X202155Y238880
X202155Y228880
X202155Y218880
X202155Y208880
X202155Y198880
X202155Y188880
X202155Y178880
X202155Y168880
X202155Y158880
X202155Y148880
X202155Y138880
X94005Y44904
X141249Y44904
T04
X99911Y267266
X99911Y327266
X36919Y119235
X36919Y179235
T05
X131249Y34904
X131249Y54904
X151249Y34904
X151249Y54904
X104005Y34904
X104005Y54904
X84005Y34904
X84005Y54904
X75698Y346872
X56013Y346872
T06
X122785Y209668
X92115Y199431
X82115Y199431
X82194Y188880
X82194Y178880
X93848Y178959
X123533Y170731
X113848Y178959
X123533Y190731
X142785Y209668
X48730Y175731
X48730Y185731
X105226Y125770
X105226Y105770
X122155Y144983
X122155Y154983
X164399Y147266
X174399Y147266
X103848Y156636
X103848Y166636
X104202Y140376
X84202Y140376
T07
X87706Y113231
X82706Y105731
X92706Y105731
X84084Y159077
X89084Y166577
X94084Y159077
X113316Y199431
X105816Y194431
X105816Y204431
T08
X118218Y137424
X126092Y137424
X133966Y137424
X141840Y137424
X149714Y137424
X157588Y137424
X165462Y137424
X173336Y137424
X156407Y325416
X164281Y325416
X172155Y325416
X156407Y333290
X164281Y333290
X172155Y333290
X99911Y228998
X99911Y248998
X36919Y197502
X36919Y217502
T09
X41249Y96085
X375895Y292935
T10
X390068Y348054
X197155Y348054
X197155Y119707
X390068Y119707
M30
