%
M48
M72
T01C0.03150
T02C0.03543
T03C0.03937
T04C0.04331
T05C0.05118
T06C0.01969
T07C0.02362
T08C0.02756
T09C0.09843
T10C0.10827
%
T01
X54478Y318526
X24478Y318526
T02
X60934Y186636
X60934Y176794
X60934Y166951
X60934Y82306
X60934Y72463
X26667Y305813
X36667Y305813
X68667Y305813
X78667Y305813
X121155Y305813
X131155Y305813
X163155Y305813
X173155Y305813
X26667Y232813
X36667Y232813
X68667Y232813
X78667Y232813
X121155Y232813
X131155Y232813
X163155Y232813
X173155Y232813
X192155Y328880
X192155Y318880
X192155Y308880
X192155Y298880
X192155Y288880
X192155Y278880
X192155Y268880
X192155Y258880
X192155Y248880
X192155Y238880
X192155Y228880
X192155Y218880
X192155Y208880
X192155Y198880
X192155Y188880
X192155Y178880
X192155Y168880
X192155Y158880
X192155Y148880
X192155Y138880
X202155Y328880
X202155Y318880
X202155Y308880
X202155Y298880
X202155Y288880
X202155Y278880
X202155Y268880
X202155Y258880
X202155Y248880
X202155Y238880
X202155Y228880
X202155Y218880
X202155Y208880
X202155Y198880
X202155Y188880
X202155Y178880
X202155Y168880
X202155Y158880
X202155Y148880
X202155Y138880
T03
X60541Y44904
X149714Y44904
T04
X99911Y267266
X99911Y327266
X114163Y207699
X54163Y207699
T05
X139714Y34904
X139714Y54904
X159714Y34904
X159714Y54904
X50541Y34904
X70541Y34904
X70541Y54904
X50541Y54904
X75698Y346872
X56013Y346872
T06
X173493Y217148
X153493Y217148
X130423Y208447
X130423Y188447
X105226Y125770
X105226Y105770

X103848Y179628
X103848Y169628
X143375Y159865
X173375Y159865
X89005Y141361
X99005Y141361
X91446Y169628
X91446Y179628
X88690Y125770
X88690Y105770
X25895Y38998
X78257Y38998
X130423Y38998
X182588Y38998
X182588Y88802
X234753Y100258
X234753Y140613
X286919Y140613
X286919Y100258
X339084Y140613
X391249Y140613
X391249Y192424
X339084Y192424
X286919Y192424
X234753Y192424
X182588Y192424
X130423Y193998
X134163Y150022
X156505Y120888
X78257Y140613
X26092Y140613
X25895Y192424
X78257Y202778
X78257Y244274
X78257Y284471
X78257Y298250
X78257Y338211
X25895Y350022
X25895Y296085
X25895Y244274
X130423Y244274
X182588Y244274
X234753Y244274
X286919Y244274
X339084Y244274
X391249Y244274
X391249Y296085
X339084Y296085
X286919Y296085
X234753Y296085
X182588Y296085
X130423Y296085
X130423Y350022
X182588Y350022
X234753Y350022
X286919Y350022
X339084Y350022
X130423Y88802
X78257Y88802
X26092Y88802
T07
X91446Y161124
X98946Y156124
X91446Y151124
X153612Y198172
X148612Y205672
X143612Y198172
X102352Y87030
X97352Y94530
X92352Y87030
T08
X156407Y325416
X164281Y325416
X172155Y325416
X156407Y333290
X164281Y333290
X172155Y333290
X99911Y228998
X99911Y248998
X36919Y197502
X36919Y217502
T09
X41249Y96085
X375895Y292935
T10
X390068Y348054
X197155Y348054
X197155Y119707
X390068Y119707
M30
