G75*
%MOIN*%
%OFA0B0*%
%FSLAX25Y25*%
%IPPOS*%
%LPD*%
%AMOC8*
5,1,8,0,0,1.08239X$1,22.5*
%
%ADD10C,0.00000*%
%ADD11C,0.07677*%
%ADD12R,0.05906X0.05118*%
%ADD13R,0.05118X0.05906*%
%ADD14C,0.08850*%
%ADD15R,0.11024X0.14961*%
%ADD16C,0.07600*%
%ADD17OC8,0.05315*%
%ADD18C,0.09843*%
%ADD19C,0.06496*%
%ADD20R,0.05400X0.05400*%
%ADD21C,0.05400*%
%ADD22C,0.10000*%
%ADD23R,0.06496X0.06496*%
%ADD24C,0.03600*%
%ADD25C,0.05900*%
%ADD26OC8,0.04800*%
%ADD27C,0.01378*%
%ADD28C,0.07600*%
%ADD29C,0.00800*%
%ADD30C,0.01000*%
%ADD31OC8,0.03169*%
%ADD32C,0.01194*%
%ADD33C,0.01142*%
%ADD34C,0.01998*%
%ADD35C,0.04000*%
%ADD36C,0.01600*%
%ADD37C,0.03200*%
%ADD38C,0.03177*%
%ADD39C,0.03150*%
D10*
X0013297Y0027187D02*
X0013297Y0172857D01*
X0017234Y0172857D01*
X0017234Y0216164D01*
X0013297Y0216164D01*
X0013297Y0361833D01*
X0392037Y0361833D01*
X0392322Y0361830D01*
X0392608Y0361819D01*
X0392893Y0361802D01*
X0393177Y0361778D01*
X0393461Y0361747D01*
X0393744Y0361709D01*
X0394025Y0361664D01*
X0394306Y0361613D01*
X0394586Y0361555D01*
X0394864Y0361490D01*
X0395140Y0361418D01*
X0395414Y0361340D01*
X0395687Y0361255D01*
X0395957Y0361163D01*
X0396225Y0361065D01*
X0396491Y0360961D01*
X0396754Y0360850D01*
X0397014Y0360733D01*
X0397272Y0360610D01*
X0397526Y0360480D01*
X0397777Y0360344D01*
X0398025Y0360203D01*
X0398269Y0360055D01*
X0398510Y0359902D01*
X0398746Y0359742D01*
X0398979Y0359577D01*
X0399208Y0359407D01*
X0399433Y0359231D01*
X0399653Y0359049D01*
X0399869Y0358863D01*
X0400080Y0358671D01*
X0400287Y0358474D01*
X0400489Y0358272D01*
X0400686Y0358065D01*
X0400878Y0357854D01*
X0401064Y0357638D01*
X0401246Y0357418D01*
X0401422Y0357193D01*
X0401592Y0356964D01*
X0401757Y0356731D01*
X0401917Y0356495D01*
X0402070Y0356254D01*
X0402218Y0356010D01*
X0402359Y0355762D01*
X0402495Y0355511D01*
X0402625Y0355257D01*
X0402748Y0354999D01*
X0402865Y0354739D01*
X0402976Y0354476D01*
X0403080Y0354210D01*
X0403178Y0353942D01*
X0403270Y0353672D01*
X0403355Y0353399D01*
X0403433Y0353125D01*
X0403505Y0352849D01*
X0403570Y0352571D01*
X0403628Y0352291D01*
X0403679Y0352010D01*
X0403724Y0351729D01*
X0403762Y0351446D01*
X0403793Y0351162D01*
X0403817Y0350878D01*
X0403834Y0350593D01*
X0403845Y0350307D01*
X0403848Y0350022D01*
X0403848Y0216164D01*
X0399911Y0216164D01*
X0399911Y0172857D01*
X0403848Y0172857D01*
X0403848Y0119117D01*
X0403845Y0118832D01*
X0403834Y0118546D01*
X0403817Y0118261D01*
X0403793Y0117977D01*
X0403762Y0117693D01*
X0403724Y0117410D01*
X0403679Y0117129D01*
X0403628Y0116848D01*
X0403570Y0116568D01*
X0403505Y0116290D01*
X0403433Y0116014D01*
X0403355Y0115740D01*
X0403270Y0115467D01*
X0403178Y0115197D01*
X0403080Y0114929D01*
X0402976Y0114663D01*
X0402865Y0114400D01*
X0402748Y0114140D01*
X0402625Y0113882D01*
X0402495Y0113628D01*
X0402359Y0113377D01*
X0402218Y0113129D01*
X0402070Y0112885D01*
X0401917Y0112644D01*
X0401757Y0112408D01*
X0401592Y0112175D01*
X0401422Y0111946D01*
X0401246Y0111721D01*
X0401064Y0111501D01*
X0400878Y0111285D01*
X0400686Y0111074D01*
X0400489Y0110867D01*
X0400287Y0110665D01*
X0400080Y0110468D01*
X0399869Y0110276D01*
X0399653Y0110090D01*
X0399433Y0109908D01*
X0399208Y0109732D01*
X0398979Y0109562D01*
X0398746Y0109397D01*
X0398510Y0109237D01*
X0398269Y0109084D01*
X0398025Y0108936D01*
X0397777Y0108795D01*
X0397526Y0108659D01*
X0397272Y0108529D01*
X0397014Y0108406D01*
X0396754Y0108289D01*
X0396491Y0108178D01*
X0396225Y0108074D01*
X0395957Y0107976D01*
X0395687Y0107884D01*
X0395414Y0107799D01*
X0395140Y0107721D01*
X0394864Y0107649D01*
X0394586Y0107584D01*
X0394306Y0107526D01*
X0394025Y0107475D01*
X0393744Y0107430D01*
X0393461Y0107392D01*
X0393177Y0107361D01*
X0392893Y0107337D01*
X0392608Y0107320D01*
X0392322Y0107309D01*
X0392037Y0107306D01*
X0330029Y0107306D01*
X0330029Y0092542D01*
X0190856Y0092542D01*
X0190856Y0027187D01*
X0013297Y0027187D01*
X0036328Y0096085D02*
X0036330Y0096225D01*
X0036336Y0096365D01*
X0036346Y0096504D01*
X0036360Y0096643D01*
X0036378Y0096782D01*
X0036399Y0096920D01*
X0036425Y0097058D01*
X0036455Y0097195D01*
X0036488Y0097330D01*
X0036526Y0097465D01*
X0036567Y0097599D01*
X0036612Y0097732D01*
X0036660Y0097863D01*
X0036713Y0097992D01*
X0036769Y0098121D01*
X0036828Y0098247D01*
X0036892Y0098372D01*
X0036958Y0098495D01*
X0037029Y0098616D01*
X0037102Y0098735D01*
X0037179Y0098852D01*
X0037260Y0098966D01*
X0037343Y0099078D01*
X0037430Y0099188D01*
X0037520Y0099296D01*
X0037612Y0099400D01*
X0037708Y0099502D01*
X0037807Y0099602D01*
X0037908Y0099698D01*
X0038012Y0099792D01*
X0038119Y0099882D01*
X0038228Y0099969D01*
X0038340Y0100054D01*
X0038454Y0100135D01*
X0038570Y0100213D01*
X0038688Y0100287D01*
X0038809Y0100358D01*
X0038931Y0100426D01*
X0039056Y0100490D01*
X0039182Y0100551D01*
X0039309Y0100608D01*
X0039439Y0100661D01*
X0039570Y0100711D01*
X0039702Y0100756D01*
X0039835Y0100799D01*
X0039970Y0100837D01*
X0040105Y0100871D01*
X0040242Y0100902D01*
X0040379Y0100929D01*
X0040517Y0100951D01*
X0040656Y0100970D01*
X0040795Y0100985D01*
X0040934Y0100996D01*
X0041074Y0101003D01*
X0041214Y0101006D01*
X0041354Y0101005D01*
X0041494Y0101000D01*
X0041633Y0100991D01*
X0041773Y0100978D01*
X0041912Y0100961D01*
X0042050Y0100940D01*
X0042188Y0100916D01*
X0042325Y0100887D01*
X0042461Y0100855D01*
X0042596Y0100818D01*
X0042730Y0100778D01*
X0042863Y0100734D01*
X0042994Y0100686D01*
X0043124Y0100635D01*
X0043253Y0100580D01*
X0043380Y0100521D01*
X0043505Y0100458D01*
X0043628Y0100393D01*
X0043750Y0100323D01*
X0043869Y0100250D01*
X0043987Y0100174D01*
X0044102Y0100095D01*
X0044215Y0100012D01*
X0044325Y0099926D01*
X0044433Y0099837D01*
X0044538Y0099745D01*
X0044641Y0099650D01*
X0044741Y0099552D01*
X0044838Y0099452D01*
X0044932Y0099348D01*
X0045024Y0099242D01*
X0045112Y0099134D01*
X0045197Y0099023D01*
X0045279Y0098909D01*
X0045358Y0098793D01*
X0045433Y0098676D01*
X0045505Y0098556D01*
X0045573Y0098434D01*
X0045638Y0098310D01*
X0045700Y0098184D01*
X0045758Y0098057D01*
X0045812Y0097928D01*
X0045863Y0097797D01*
X0045909Y0097665D01*
X0045952Y0097532D01*
X0045992Y0097398D01*
X0046027Y0097263D01*
X0046059Y0097126D01*
X0046086Y0096989D01*
X0046110Y0096851D01*
X0046130Y0096713D01*
X0046146Y0096574D01*
X0046158Y0096434D01*
X0046166Y0096295D01*
X0046170Y0096155D01*
X0046170Y0096015D01*
X0046166Y0095875D01*
X0046158Y0095736D01*
X0046146Y0095596D01*
X0046130Y0095457D01*
X0046110Y0095319D01*
X0046086Y0095181D01*
X0046059Y0095044D01*
X0046027Y0094907D01*
X0045992Y0094772D01*
X0045952Y0094638D01*
X0045909Y0094505D01*
X0045863Y0094373D01*
X0045812Y0094242D01*
X0045758Y0094113D01*
X0045700Y0093986D01*
X0045638Y0093860D01*
X0045573Y0093736D01*
X0045505Y0093614D01*
X0045433Y0093494D01*
X0045358Y0093377D01*
X0045279Y0093261D01*
X0045197Y0093147D01*
X0045112Y0093036D01*
X0045024Y0092928D01*
X0044932Y0092822D01*
X0044838Y0092718D01*
X0044741Y0092618D01*
X0044641Y0092520D01*
X0044538Y0092425D01*
X0044433Y0092333D01*
X0044325Y0092244D01*
X0044215Y0092158D01*
X0044102Y0092075D01*
X0043987Y0091996D01*
X0043869Y0091920D01*
X0043750Y0091847D01*
X0043628Y0091777D01*
X0043505Y0091712D01*
X0043380Y0091649D01*
X0043253Y0091590D01*
X0043124Y0091535D01*
X0042994Y0091484D01*
X0042863Y0091436D01*
X0042730Y0091392D01*
X0042596Y0091352D01*
X0042461Y0091315D01*
X0042325Y0091283D01*
X0042188Y0091254D01*
X0042050Y0091230D01*
X0041912Y0091209D01*
X0041773Y0091192D01*
X0041633Y0091179D01*
X0041494Y0091170D01*
X0041354Y0091165D01*
X0041214Y0091164D01*
X0041074Y0091167D01*
X0040934Y0091174D01*
X0040795Y0091185D01*
X0040656Y0091200D01*
X0040517Y0091219D01*
X0040379Y0091241D01*
X0040242Y0091268D01*
X0040105Y0091299D01*
X0039970Y0091333D01*
X0039835Y0091371D01*
X0039702Y0091414D01*
X0039570Y0091459D01*
X0039439Y0091509D01*
X0039309Y0091562D01*
X0039182Y0091619D01*
X0039056Y0091680D01*
X0038931Y0091744D01*
X0038809Y0091812D01*
X0038688Y0091883D01*
X0038570Y0091957D01*
X0038454Y0092035D01*
X0038340Y0092116D01*
X0038228Y0092201D01*
X0038119Y0092288D01*
X0038012Y0092378D01*
X0037908Y0092472D01*
X0037807Y0092568D01*
X0037708Y0092668D01*
X0037612Y0092770D01*
X0037520Y0092874D01*
X0037430Y0092982D01*
X0037343Y0093092D01*
X0037260Y0093204D01*
X0037179Y0093318D01*
X0037102Y0093435D01*
X0037029Y0093554D01*
X0036958Y0093675D01*
X0036892Y0093798D01*
X0036828Y0093923D01*
X0036769Y0094049D01*
X0036713Y0094178D01*
X0036660Y0094307D01*
X0036612Y0094438D01*
X0036567Y0094571D01*
X0036526Y0094705D01*
X0036488Y0094840D01*
X0036455Y0094975D01*
X0036425Y0095112D01*
X0036399Y0095250D01*
X0036378Y0095388D01*
X0036360Y0095527D01*
X0036346Y0095666D01*
X0036336Y0095805D01*
X0036330Y0095945D01*
X0036328Y0096085D01*
X0191742Y0119707D02*
X0191744Y0119854D01*
X0191750Y0120000D01*
X0191760Y0120146D01*
X0191774Y0120292D01*
X0191792Y0120438D01*
X0191813Y0120583D01*
X0191839Y0120727D01*
X0191869Y0120871D01*
X0191902Y0121013D01*
X0191939Y0121155D01*
X0191980Y0121296D01*
X0192025Y0121435D01*
X0192074Y0121574D01*
X0192126Y0121711D01*
X0192183Y0121846D01*
X0192242Y0121980D01*
X0192306Y0122112D01*
X0192373Y0122242D01*
X0192443Y0122371D01*
X0192517Y0122498D01*
X0192594Y0122622D01*
X0192675Y0122745D01*
X0192759Y0122865D01*
X0192846Y0122983D01*
X0192936Y0123098D01*
X0193029Y0123211D01*
X0193126Y0123322D01*
X0193225Y0123430D01*
X0193327Y0123535D01*
X0193432Y0123637D01*
X0193540Y0123736D01*
X0193651Y0123833D01*
X0193764Y0123926D01*
X0193879Y0124016D01*
X0193997Y0124103D01*
X0194117Y0124187D01*
X0194240Y0124268D01*
X0194364Y0124345D01*
X0194491Y0124419D01*
X0194620Y0124489D01*
X0194750Y0124556D01*
X0194882Y0124620D01*
X0195016Y0124679D01*
X0195151Y0124736D01*
X0195288Y0124788D01*
X0195427Y0124837D01*
X0195566Y0124882D01*
X0195707Y0124923D01*
X0195849Y0124960D01*
X0195991Y0124993D01*
X0196135Y0125023D01*
X0196279Y0125049D01*
X0196424Y0125070D01*
X0196570Y0125088D01*
X0196716Y0125102D01*
X0196862Y0125112D01*
X0197008Y0125118D01*
X0197155Y0125120D01*
X0197302Y0125118D01*
X0197448Y0125112D01*
X0197594Y0125102D01*
X0197740Y0125088D01*
X0197886Y0125070D01*
X0198031Y0125049D01*
X0198175Y0125023D01*
X0198319Y0124993D01*
X0198461Y0124960D01*
X0198603Y0124923D01*
X0198744Y0124882D01*
X0198883Y0124837D01*
X0199022Y0124788D01*
X0199159Y0124736D01*
X0199294Y0124679D01*
X0199428Y0124620D01*
X0199560Y0124556D01*
X0199690Y0124489D01*
X0199819Y0124419D01*
X0199946Y0124345D01*
X0200070Y0124268D01*
X0200193Y0124187D01*
X0200313Y0124103D01*
X0200431Y0124016D01*
X0200546Y0123926D01*
X0200659Y0123833D01*
X0200770Y0123736D01*
X0200878Y0123637D01*
X0200983Y0123535D01*
X0201085Y0123430D01*
X0201184Y0123322D01*
X0201281Y0123211D01*
X0201374Y0123098D01*
X0201464Y0122983D01*
X0201551Y0122865D01*
X0201635Y0122745D01*
X0201716Y0122622D01*
X0201793Y0122498D01*
X0201867Y0122371D01*
X0201937Y0122242D01*
X0202004Y0122112D01*
X0202068Y0121980D01*
X0202127Y0121846D01*
X0202184Y0121711D01*
X0202236Y0121574D01*
X0202285Y0121435D01*
X0202330Y0121296D01*
X0202371Y0121155D01*
X0202408Y0121013D01*
X0202441Y0120871D01*
X0202471Y0120727D01*
X0202497Y0120583D01*
X0202518Y0120438D01*
X0202536Y0120292D01*
X0202550Y0120146D01*
X0202560Y0120000D01*
X0202566Y0119854D01*
X0202568Y0119707D01*
X0202566Y0119560D01*
X0202560Y0119414D01*
X0202550Y0119268D01*
X0202536Y0119122D01*
X0202518Y0118976D01*
X0202497Y0118831D01*
X0202471Y0118687D01*
X0202441Y0118543D01*
X0202408Y0118401D01*
X0202371Y0118259D01*
X0202330Y0118118D01*
X0202285Y0117979D01*
X0202236Y0117840D01*
X0202184Y0117703D01*
X0202127Y0117568D01*
X0202068Y0117434D01*
X0202004Y0117302D01*
X0201937Y0117172D01*
X0201867Y0117043D01*
X0201793Y0116916D01*
X0201716Y0116792D01*
X0201635Y0116669D01*
X0201551Y0116549D01*
X0201464Y0116431D01*
X0201374Y0116316D01*
X0201281Y0116203D01*
X0201184Y0116092D01*
X0201085Y0115984D01*
X0200983Y0115879D01*
X0200878Y0115777D01*
X0200770Y0115678D01*
X0200659Y0115581D01*
X0200546Y0115488D01*
X0200431Y0115398D01*
X0200313Y0115311D01*
X0200193Y0115227D01*
X0200070Y0115146D01*
X0199946Y0115069D01*
X0199819Y0114995D01*
X0199690Y0114925D01*
X0199560Y0114858D01*
X0199428Y0114794D01*
X0199294Y0114735D01*
X0199159Y0114678D01*
X0199022Y0114626D01*
X0198883Y0114577D01*
X0198744Y0114532D01*
X0198603Y0114491D01*
X0198461Y0114454D01*
X0198319Y0114421D01*
X0198175Y0114391D01*
X0198031Y0114365D01*
X0197886Y0114344D01*
X0197740Y0114326D01*
X0197594Y0114312D01*
X0197448Y0114302D01*
X0197302Y0114296D01*
X0197155Y0114294D01*
X0197008Y0114296D01*
X0196862Y0114302D01*
X0196716Y0114312D01*
X0196570Y0114326D01*
X0196424Y0114344D01*
X0196279Y0114365D01*
X0196135Y0114391D01*
X0195991Y0114421D01*
X0195849Y0114454D01*
X0195707Y0114491D01*
X0195566Y0114532D01*
X0195427Y0114577D01*
X0195288Y0114626D01*
X0195151Y0114678D01*
X0195016Y0114735D01*
X0194882Y0114794D01*
X0194750Y0114858D01*
X0194620Y0114925D01*
X0194491Y0114995D01*
X0194364Y0115069D01*
X0194240Y0115146D01*
X0194117Y0115227D01*
X0193997Y0115311D01*
X0193879Y0115398D01*
X0193764Y0115488D01*
X0193651Y0115581D01*
X0193540Y0115678D01*
X0193432Y0115777D01*
X0193327Y0115879D01*
X0193225Y0115984D01*
X0193126Y0116092D01*
X0193029Y0116203D01*
X0192936Y0116316D01*
X0192846Y0116431D01*
X0192759Y0116549D01*
X0192675Y0116669D01*
X0192594Y0116792D01*
X0192517Y0116916D01*
X0192443Y0117043D01*
X0192373Y0117172D01*
X0192306Y0117302D01*
X0192242Y0117434D01*
X0192183Y0117568D01*
X0192126Y0117703D01*
X0192074Y0117840D01*
X0192025Y0117979D01*
X0191980Y0118118D01*
X0191939Y0118259D01*
X0191902Y0118401D01*
X0191869Y0118543D01*
X0191839Y0118687D01*
X0191813Y0118831D01*
X0191792Y0118976D01*
X0191774Y0119122D01*
X0191760Y0119268D01*
X0191750Y0119414D01*
X0191744Y0119560D01*
X0191742Y0119707D01*
X0370974Y0292935D02*
X0370976Y0293075D01*
X0370982Y0293215D01*
X0370992Y0293354D01*
X0371006Y0293493D01*
X0371024Y0293632D01*
X0371045Y0293770D01*
X0371071Y0293908D01*
X0371101Y0294045D01*
X0371134Y0294180D01*
X0371172Y0294315D01*
X0371213Y0294449D01*
X0371258Y0294582D01*
X0371306Y0294713D01*
X0371359Y0294842D01*
X0371415Y0294971D01*
X0371474Y0295097D01*
X0371538Y0295222D01*
X0371604Y0295345D01*
X0371675Y0295466D01*
X0371748Y0295585D01*
X0371825Y0295702D01*
X0371906Y0295816D01*
X0371989Y0295928D01*
X0372076Y0296038D01*
X0372166Y0296146D01*
X0372258Y0296250D01*
X0372354Y0296352D01*
X0372453Y0296452D01*
X0372554Y0296548D01*
X0372658Y0296642D01*
X0372765Y0296732D01*
X0372874Y0296819D01*
X0372986Y0296904D01*
X0373100Y0296985D01*
X0373216Y0297063D01*
X0373334Y0297137D01*
X0373455Y0297208D01*
X0373577Y0297276D01*
X0373702Y0297340D01*
X0373828Y0297401D01*
X0373955Y0297458D01*
X0374085Y0297511D01*
X0374216Y0297561D01*
X0374348Y0297606D01*
X0374481Y0297649D01*
X0374616Y0297687D01*
X0374751Y0297721D01*
X0374888Y0297752D01*
X0375025Y0297779D01*
X0375163Y0297801D01*
X0375302Y0297820D01*
X0375441Y0297835D01*
X0375580Y0297846D01*
X0375720Y0297853D01*
X0375860Y0297856D01*
X0376000Y0297855D01*
X0376140Y0297850D01*
X0376279Y0297841D01*
X0376419Y0297828D01*
X0376558Y0297811D01*
X0376696Y0297790D01*
X0376834Y0297766D01*
X0376971Y0297737D01*
X0377107Y0297705D01*
X0377242Y0297668D01*
X0377376Y0297628D01*
X0377509Y0297584D01*
X0377640Y0297536D01*
X0377770Y0297485D01*
X0377899Y0297430D01*
X0378026Y0297371D01*
X0378151Y0297308D01*
X0378274Y0297243D01*
X0378396Y0297173D01*
X0378515Y0297100D01*
X0378633Y0297024D01*
X0378748Y0296945D01*
X0378861Y0296862D01*
X0378971Y0296776D01*
X0379079Y0296687D01*
X0379184Y0296595D01*
X0379287Y0296500D01*
X0379387Y0296402D01*
X0379484Y0296302D01*
X0379578Y0296198D01*
X0379670Y0296092D01*
X0379758Y0295984D01*
X0379843Y0295873D01*
X0379925Y0295759D01*
X0380004Y0295643D01*
X0380079Y0295526D01*
X0380151Y0295406D01*
X0380219Y0295284D01*
X0380284Y0295160D01*
X0380346Y0295034D01*
X0380404Y0294907D01*
X0380458Y0294778D01*
X0380509Y0294647D01*
X0380555Y0294515D01*
X0380598Y0294382D01*
X0380638Y0294248D01*
X0380673Y0294113D01*
X0380705Y0293976D01*
X0380732Y0293839D01*
X0380756Y0293701D01*
X0380776Y0293563D01*
X0380792Y0293424D01*
X0380804Y0293284D01*
X0380812Y0293145D01*
X0380816Y0293005D01*
X0380816Y0292865D01*
X0380812Y0292725D01*
X0380804Y0292586D01*
X0380792Y0292446D01*
X0380776Y0292307D01*
X0380756Y0292169D01*
X0380732Y0292031D01*
X0380705Y0291894D01*
X0380673Y0291757D01*
X0380638Y0291622D01*
X0380598Y0291488D01*
X0380555Y0291355D01*
X0380509Y0291223D01*
X0380458Y0291092D01*
X0380404Y0290963D01*
X0380346Y0290836D01*
X0380284Y0290710D01*
X0380219Y0290586D01*
X0380151Y0290464D01*
X0380079Y0290344D01*
X0380004Y0290227D01*
X0379925Y0290111D01*
X0379843Y0289997D01*
X0379758Y0289886D01*
X0379670Y0289778D01*
X0379578Y0289672D01*
X0379484Y0289568D01*
X0379387Y0289468D01*
X0379287Y0289370D01*
X0379184Y0289275D01*
X0379079Y0289183D01*
X0378971Y0289094D01*
X0378861Y0289008D01*
X0378748Y0288925D01*
X0378633Y0288846D01*
X0378515Y0288770D01*
X0378396Y0288697D01*
X0378274Y0288627D01*
X0378151Y0288562D01*
X0378026Y0288499D01*
X0377899Y0288440D01*
X0377770Y0288385D01*
X0377640Y0288334D01*
X0377509Y0288286D01*
X0377376Y0288242D01*
X0377242Y0288202D01*
X0377107Y0288165D01*
X0376971Y0288133D01*
X0376834Y0288104D01*
X0376696Y0288080D01*
X0376558Y0288059D01*
X0376419Y0288042D01*
X0376279Y0288029D01*
X0376140Y0288020D01*
X0376000Y0288015D01*
X0375860Y0288014D01*
X0375720Y0288017D01*
X0375580Y0288024D01*
X0375441Y0288035D01*
X0375302Y0288050D01*
X0375163Y0288069D01*
X0375025Y0288091D01*
X0374888Y0288118D01*
X0374751Y0288149D01*
X0374616Y0288183D01*
X0374481Y0288221D01*
X0374348Y0288264D01*
X0374216Y0288309D01*
X0374085Y0288359D01*
X0373955Y0288412D01*
X0373828Y0288469D01*
X0373702Y0288530D01*
X0373577Y0288594D01*
X0373455Y0288662D01*
X0373334Y0288733D01*
X0373216Y0288807D01*
X0373100Y0288885D01*
X0372986Y0288966D01*
X0372874Y0289051D01*
X0372765Y0289138D01*
X0372658Y0289228D01*
X0372554Y0289322D01*
X0372453Y0289418D01*
X0372354Y0289518D01*
X0372258Y0289620D01*
X0372166Y0289724D01*
X0372076Y0289832D01*
X0371989Y0289942D01*
X0371906Y0290054D01*
X0371825Y0290168D01*
X0371748Y0290285D01*
X0371675Y0290404D01*
X0371604Y0290525D01*
X0371538Y0290648D01*
X0371474Y0290773D01*
X0371415Y0290899D01*
X0371359Y0291028D01*
X0371306Y0291157D01*
X0371258Y0291288D01*
X0371213Y0291421D01*
X0371172Y0291555D01*
X0371134Y0291690D01*
X0371101Y0291825D01*
X0371071Y0291962D01*
X0371045Y0292100D01*
X0371024Y0292238D01*
X0371006Y0292377D01*
X0370992Y0292516D01*
X0370982Y0292655D01*
X0370976Y0292795D01*
X0370974Y0292935D01*
X0384655Y0348054D02*
X0384657Y0348201D01*
X0384663Y0348347D01*
X0384673Y0348493D01*
X0384687Y0348639D01*
X0384705Y0348785D01*
X0384726Y0348930D01*
X0384752Y0349074D01*
X0384782Y0349218D01*
X0384815Y0349360D01*
X0384852Y0349502D01*
X0384893Y0349643D01*
X0384938Y0349782D01*
X0384987Y0349921D01*
X0385039Y0350058D01*
X0385096Y0350193D01*
X0385155Y0350327D01*
X0385219Y0350459D01*
X0385286Y0350589D01*
X0385356Y0350718D01*
X0385430Y0350845D01*
X0385507Y0350969D01*
X0385588Y0351092D01*
X0385672Y0351212D01*
X0385759Y0351330D01*
X0385849Y0351445D01*
X0385942Y0351558D01*
X0386039Y0351669D01*
X0386138Y0351777D01*
X0386240Y0351882D01*
X0386345Y0351984D01*
X0386453Y0352083D01*
X0386564Y0352180D01*
X0386677Y0352273D01*
X0386792Y0352363D01*
X0386910Y0352450D01*
X0387030Y0352534D01*
X0387153Y0352615D01*
X0387277Y0352692D01*
X0387404Y0352766D01*
X0387533Y0352836D01*
X0387663Y0352903D01*
X0387795Y0352967D01*
X0387929Y0353026D01*
X0388064Y0353083D01*
X0388201Y0353135D01*
X0388340Y0353184D01*
X0388479Y0353229D01*
X0388620Y0353270D01*
X0388762Y0353307D01*
X0388904Y0353340D01*
X0389048Y0353370D01*
X0389192Y0353396D01*
X0389337Y0353417D01*
X0389483Y0353435D01*
X0389629Y0353449D01*
X0389775Y0353459D01*
X0389921Y0353465D01*
X0390068Y0353467D01*
X0390215Y0353465D01*
X0390361Y0353459D01*
X0390507Y0353449D01*
X0390653Y0353435D01*
X0390799Y0353417D01*
X0390944Y0353396D01*
X0391088Y0353370D01*
X0391232Y0353340D01*
X0391374Y0353307D01*
X0391516Y0353270D01*
X0391657Y0353229D01*
X0391796Y0353184D01*
X0391935Y0353135D01*
X0392072Y0353083D01*
X0392207Y0353026D01*
X0392341Y0352967D01*
X0392473Y0352903D01*
X0392603Y0352836D01*
X0392732Y0352766D01*
X0392859Y0352692D01*
X0392983Y0352615D01*
X0393106Y0352534D01*
X0393226Y0352450D01*
X0393344Y0352363D01*
X0393459Y0352273D01*
X0393572Y0352180D01*
X0393683Y0352083D01*
X0393791Y0351984D01*
X0393896Y0351882D01*
X0393998Y0351777D01*
X0394097Y0351669D01*
X0394194Y0351558D01*
X0394287Y0351445D01*
X0394377Y0351330D01*
X0394464Y0351212D01*
X0394548Y0351092D01*
X0394629Y0350969D01*
X0394706Y0350845D01*
X0394780Y0350718D01*
X0394850Y0350589D01*
X0394917Y0350459D01*
X0394981Y0350327D01*
X0395040Y0350193D01*
X0395097Y0350058D01*
X0395149Y0349921D01*
X0395198Y0349782D01*
X0395243Y0349643D01*
X0395284Y0349502D01*
X0395321Y0349360D01*
X0395354Y0349218D01*
X0395384Y0349074D01*
X0395410Y0348930D01*
X0395431Y0348785D01*
X0395449Y0348639D01*
X0395463Y0348493D01*
X0395473Y0348347D01*
X0395479Y0348201D01*
X0395481Y0348054D01*
X0395479Y0347907D01*
X0395473Y0347761D01*
X0395463Y0347615D01*
X0395449Y0347469D01*
X0395431Y0347323D01*
X0395410Y0347178D01*
X0395384Y0347034D01*
X0395354Y0346890D01*
X0395321Y0346748D01*
X0395284Y0346606D01*
X0395243Y0346465D01*
X0395198Y0346326D01*
X0395149Y0346187D01*
X0395097Y0346050D01*
X0395040Y0345915D01*
X0394981Y0345781D01*
X0394917Y0345649D01*
X0394850Y0345519D01*
X0394780Y0345390D01*
X0394706Y0345263D01*
X0394629Y0345139D01*
X0394548Y0345016D01*
X0394464Y0344896D01*
X0394377Y0344778D01*
X0394287Y0344663D01*
X0394194Y0344550D01*
X0394097Y0344439D01*
X0393998Y0344331D01*
X0393896Y0344226D01*
X0393791Y0344124D01*
X0393683Y0344025D01*
X0393572Y0343928D01*
X0393459Y0343835D01*
X0393344Y0343745D01*
X0393226Y0343658D01*
X0393106Y0343574D01*
X0392983Y0343493D01*
X0392859Y0343416D01*
X0392732Y0343342D01*
X0392603Y0343272D01*
X0392473Y0343205D01*
X0392341Y0343141D01*
X0392207Y0343082D01*
X0392072Y0343025D01*
X0391935Y0342973D01*
X0391796Y0342924D01*
X0391657Y0342879D01*
X0391516Y0342838D01*
X0391374Y0342801D01*
X0391232Y0342768D01*
X0391088Y0342738D01*
X0390944Y0342712D01*
X0390799Y0342691D01*
X0390653Y0342673D01*
X0390507Y0342659D01*
X0390361Y0342649D01*
X0390215Y0342643D01*
X0390068Y0342641D01*
X0389921Y0342643D01*
X0389775Y0342649D01*
X0389629Y0342659D01*
X0389483Y0342673D01*
X0389337Y0342691D01*
X0389192Y0342712D01*
X0389048Y0342738D01*
X0388904Y0342768D01*
X0388762Y0342801D01*
X0388620Y0342838D01*
X0388479Y0342879D01*
X0388340Y0342924D01*
X0388201Y0342973D01*
X0388064Y0343025D01*
X0387929Y0343082D01*
X0387795Y0343141D01*
X0387663Y0343205D01*
X0387533Y0343272D01*
X0387404Y0343342D01*
X0387277Y0343416D01*
X0387153Y0343493D01*
X0387030Y0343574D01*
X0386910Y0343658D01*
X0386792Y0343745D01*
X0386677Y0343835D01*
X0386564Y0343928D01*
X0386453Y0344025D01*
X0386345Y0344124D01*
X0386240Y0344226D01*
X0386138Y0344331D01*
X0386039Y0344439D01*
X0385942Y0344550D01*
X0385849Y0344663D01*
X0385759Y0344778D01*
X0385672Y0344896D01*
X0385588Y0345016D01*
X0385507Y0345139D01*
X0385430Y0345263D01*
X0385356Y0345390D01*
X0385286Y0345519D01*
X0385219Y0345649D01*
X0385155Y0345781D01*
X0385096Y0345915D01*
X0385039Y0346050D01*
X0384987Y0346187D01*
X0384938Y0346326D01*
X0384893Y0346465D01*
X0384852Y0346606D01*
X0384815Y0346748D01*
X0384782Y0346890D01*
X0384752Y0347034D01*
X0384726Y0347178D01*
X0384705Y0347323D01*
X0384687Y0347469D01*
X0384673Y0347615D01*
X0384663Y0347761D01*
X0384657Y0347907D01*
X0384655Y0348054D01*
X0191742Y0348054D02*
X0191744Y0348201D01*
X0191750Y0348347D01*
X0191760Y0348493D01*
X0191774Y0348639D01*
X0191792Y0348785D01*
X0191813Y0348930D01*
X0191839Y0349074D01*
X0191869Y0349218D01*
X0191902Y0349360D01*
X0191939Y0349502D01*
X0191980Y0349643D01*
X0192025Y0349782D01*
X0192074Y0349921D01*
X0192126Y0350058D01*
X0192183Y0350193D01*
X0192242Y0350327D01*
X0192306Y0350459D01*
X0192373Y0350589D01*
X0192443Y0350718D01*
X0192517Y0350845D01*
X0192594Y0350969D01*
X0192675Y0351092D01*
X0192759Y0351212D01*
X0192846Y0351330D01*
X0192936Y0351445D01*
X0193029Y0351558D01*
X0193126Y0351669D01*
X0193225Y0351777D01*
X0193327Y0351882D01*
X0193432Y0351984D01*
X0193540Y0352083D01*
X0193651Y0352180D01*
X0193764Y0352273D01*
X0193879Y0352363D01*
X0193997Y0352450D01*
X0194117Y0352534D01*
X0194240Y0352615D01*
X0194364Y0352692D01*
X0194491Y0352766D01*
X0194620Y0352836D01*
X0194750Y0352903D01*
X0194882Y0352967D01*
X0195016Y0353026D01*
X0195151Y0353083D01*
X0195288Y0353135D01*
X0195427Y0353184D01*
X0195566Y0353229D01*
X0195707Y0353270D01*
X0195849Y0353307D01*
X0195991Y0353340D01*
X0196135Y0353370D01*
X0196279Y0353396D01*
X0196424Y0353417D01*
X0196570Y0353435D01*
X0196716Y0353449D01*
X0196862Y0353459D01*
X0197008Y0353465D01*
X0197155Y0353467D01*
X0197302Y0353465D01*
X0197448Y0353459D01*
X0197594Y0353449D01*
X0197740Y0353435D01*
X0197886Y0353417D01*
X0198031Y0353396D01*
X0198175Y0353370D01*
X0198319Y0353340D01*
X0198461Y0353307D01*
X0198603Y0353270D01*
X0198744Y0353229D01*
X0198883Y0353184D01*
X0199022Y0353135D01*
X0199159Y0353083D01*
X0199294Y0353026D01*
X0199428Y0352967D01*
X0199560Y0352903D01*
X0199690Y0352836D01*
X0199819Y0352766D01*
X0199946Y0352692D01*
X0200070Y0352615D01*
X0200193Y0352534D01*
X0200313Y0352450D01*
X0200431Y0352363D01*
X0200546Y0352273D01*
X0200659Y0352180D01*
X0200770Y0352083D01*
X0200878Y0351984D01*
X0200983Y0351882D01*
X0201085Y0351777D01*
X0201184Y0351669D01*
X0201281Y0351558D01*
X0201374Y0351445D01*
X0201464Y0351330D01*
X0201551Y0351212D01*
X0201635Y0351092D01*
X0201716Y0350969D01*
X0201793Y0350845D01*
X0201867Y0350718D01*
X0201937Y0350589D01*
X0202004Y0350459D01*
X0202068Y0350327D01*
X0202127Y0350193D01*
X0202184Y0350058D01*
X0202236Y0349921D01*
X0202285Y0349782D01*
X0202330Y0349643D01*
X0202371Y0349502D01*
X0202408Y0349360D01*
X0202441Y0349218D01*
X0202471Y0349074D01*
X0202497Y0348930D01*
X0202518Y0348785D01*
X0202536Y0348639D01*
X0202550Y0348493D01*
X0202560Y0348347D01*
X0202566Y0348201D01*
X0202568Y0348054D01*
X0202566Y0347907D01*
X0202560Y0347761D01*
X0202550Y0347615D01*
X0202536Y0347469D01*
X0202518Y0347323D01*
X0202497Y0347178D01*
X0202471Y0347034D01*
X0202441Y0346890D01*
X0202408Y0346748D01*
X0202371Y0346606D01*
X0202330Y0346465D01*
X0202285Y0346326D01*
X0202236Y0346187D01*
X0202184Y0346050D01*
X0202127Y0345915D01*
X0202068Y0345781D01*
X0202004Y0345649D01*
X0201937Y0345519D01*
X0201867Y0345390D01*
X0201793Y0345263D01*
X0201716Y0345139D01*
X0201635Y0345016D01*
X0201551Y0344896D01*
X0201464Y0344778D01*
X0201374Y0344663D01*
X0201281Y0344550D01*
X0201184Y0344439D01*
X0201085Y0344331D01*
X0200983Y0344226D01*
X0200878Y0344124D01*
X0200770Y0344025D01*
X0200659Y0343928D01*
X0200546Y0343835D01*
X0200431Y0343745D01*
X0200313Y0343658D01*
X0200193Y0343574D01*
X0200070Y0343493D01*
X0199946Y0343416D01*
X0199819Y0343342D01*
X0199690Y0343272D01*
X0199560Y0343205D01*
X0199428Y0343141D01*
X0199294Y0343082D01*
X0199159Y0343025D01*
X0199022Y0342973D01*
X0198883Y0342924D01*
X0198744Y0342879D01*
X0198603Y0342838D01*
X0198461Y0342801D01*
X0198319Y0342768D01*
X0198175Y0342738D01*
X0198031Y0342712D01*
X0197886Y0342691D01*
X0197740Y0342673D01*
X0197594Y0342659D01*
X0197448Y0342649D01*
X0197302Y0342643D01*
X0197155Y0342641D01*
X0197008Y0342643D01*
X0196862Y0342649D01*
X0196716Y0342659D01*
X0196570Y0342673D01*
X0196424Y0342691D01*
X0196279Y0342712D01*
X0196135Y0342738D01*
X0195991Y0342768D01*
X0195849Y0342801D01*
X0195707Y0342838D01*
X0195566Y0342879D01*
X0195427Y0342924D01*
X0195288Y0342973D01*
X0195151Y0343025D01*
X0195016Y0343082D01*
X0194882Y0343141D01*
X0194750Y0343205D01*
X0194620Y0343272D01*
X0194491Y0343342D01*
X0194364Y0343416D01*
X0194240Y0343493D01*
X0194117Y0343574D01*
X0193997Y0343658D01*
X0193879Y0343745D01*
X0193764Y0343835D01*
X0193651Y0343928D01*
X0193540Y0344025D01*
X0193432Y0344124D01*
X0193327Y0344226D01*
X0193225Y0344331D01*
X0193126Y0344439D01*
X0193029Y0344550D01*
X0192936Y0344663D01*
X0192846Y0344778D01*
X0192759Y0344896D01*
X0192675Y0345016D01*
X0192594Y0345139D01*
X0192517Y0345263D01*
X0192443Y0345390D01*
X0192373Y0345519D01*
X0192306Y0345649D01*
X0192242Y0345781D01*
X0192183Y0345915D01*
X0192126Y0346050D01*
X0192074Y0346187D01*
X0192025Y0346326D01*
X0191980Y0346465D01*
X0191939Y0346606D01*
X0191902Y0346748D01*
X0191869Y0346890D01*
X0191839Y0347034D01*
X0191813Y0347178D01*
X0191792Y0347323D01*
X0191774Y0347469D01*
X0191760Y0347615D01*
X0191750Y0347761D01*
X0191744Y0347907D01*
X0191742Y0348054D01*
X0384655Y0119707D02*
X0384657Y0119854D01*
X0384663Y0120000D01*
X0384673Y0120146D01*
X0384687Y0120292D01*
X0384705Y0120438D01*
X0384726Y0120583D01*
X0384752Y0120727D01*
X0384782Y0120871D01*
X0384815Y0121013D01*
X0384852Y0121155D01*
X0384893Y0121296D01*
X0384938Y0121435D01*
X0384987Y0121574D01*
X0385039Y0121711D01*
X0385096Y0121846D01*
X0385155Y0121980D01*
X0385219Y0122112D01*
X0385286Y0122242D01*
X0385356Y0122371D01*
X0385430Y0122498D01*
X0385507Y0122622D01*
X0385588Y0122745D01*
X0385672Y0122865D01*
X0385759Y0122983D01*
X0385849Y0123098D01*
X0385942Y0123211D01*
X0386039Y0123322D01*
X0386138Y0123430D01*
X0386240Y0123535D01*
X0386345Y0123637D01*
X0386453Y0123736D01*
X0386564Y0123833D01*
X0386677Y0123926D01*
X0386792Y0124016D01*
X0386910Y0124103D01*
X0387030Y0124187D01*
X0387153Y0124268D01*
X0387277Y0124345D01*
X0387404Y0124419D01*
X0387533Y0124489D01*
X0387663Y0124556D01*
X0387795Y0124620D01*
X0387929Y0124679D01*
X0388064Y0124736D01*
X0388201Y0124788D01*
X0388340Y0124837D01*
X0388479Y0124882D01*
X0388620Y0124923D01*
X0388762Y0124960D01*
X0388904Y0124993D01*
X0389048Y0125023D01*
X0389192Y0125049D01*
X0389337Y0125070D01*
X0389483Y0125088D01*
X0389629Y0125102D01*
X0389775Y0125112D01*
X0389921Y0125118D01*
X0390068Y0125120D01*
X0390215Y0125118D01*
X0390361Y0125112D01*
X0390507Y0125102D01*
X0390653Y0125088D01*
X0390799Y0125070D01*
X0390944Y0125049D01*
X0391088Y0125023D01*
X0391232Y0124993D01*
X0391374Y0124960D01*
X0391516Y0124923D01*
X0391657Y0124882D01*
X0391796Y0124837D01*
X0391935Y0124788D01*
X0392072Y0124736D01*
X0392207Y0124679D01*
X0392341Y0124620D01*
X0392473Y0124556D01*
X0392603Y0124489D01*
X0392732Y0124419D01*
X0392859Y0124345D01*
X0392983Y0124268D01*
X0393106Y0124187D01*
X0393226Y0124103D01*
X0393344Y0124016D01*
X0393459Y0123926D01*
X0393572Y0123833D01*
X0393683Y0123736D01*
X0393791Y0123637D01*
X0393896Y0123535D01*
X0393998Y0123430D01*
X0394097Y0123322D01*
X0394194Y0123211D01*
X0394287Y0123098D01*
X0394377Y0122983D01*
X0394464Y0122865D01*
X0394548Y0122745D01*
X0394629Y0122622D01*
X0394706Y0122498D01*
X0394780Y0122371D01*
X0394850Y0122242D01*
X0394917Y0122112D01*
X0394981Y0121980D01*
X0395040Y0121846D01*
X0395097Y0121711D01*
X0395149Y0121574D01*
X0395198Y0121435D01*
X0395243Y0121296D01*
X0395284Y0121155D01*
X0395321Y0121013D01*
X0395354Y0120871D01*
X0395384Y0120727D01*
X0395410Y0120583D01*
X0395431Y0120438D01*
X0395449Y0120292D01*
X0395463Y0120146D01*
X0395473Y0120000D01*
X0395479Y0119854D01*
X0395481Y0119707D01*
X0395479Y0119560D01*
X0395473Y0119414D01*
X0395463Y0119268D01*
X0395449Y0119122D01*
X0395431Y0118976D01*
X0395410Y0118831D01*
X0395384Y0118687D01*
X0395354Y0118543D01*
X0395321Y0118401D01*
X0395284Y0118259D01*
X0395243Y0118118D01*
X0395198Y0117979D01*
X0395149Y0117840D01*
X0395097Y0117703D01*
X0395040Y0117568D01*
X0394981Y0117434D01*
X0394917Y0117302D01*
X0394850Y0117172D01*
X0394780Y0117043D01*
X0394706Y0116916D01*
X0394629Y0116792D01*
X0394548Y0116669D01*
X0394464Y0116549D01*
X0394377Y0116431D01*
X0394287Y0116316D01*
X0394194Y0116203D01*
X0394097Y0116092D01*
X0393998Y0115984D01*
X0393896Y0115879D01*
X0393791Y0115777D01*
X0393683Y0115678D01*
X0393572Y0115581D01*
X0393459Y0115488D01*
X0393344Y0115398D01*
X0393226Y0115311D01*
X0393106Y0115227D01*
X0392983Y0115146D01*
X0392859Y0115069D01*
X0392732Y0114995D01*
X0392603Y0114925D01*
X0392473Y0114858D01*
X0392341Y0114794D01*
X0392207Y0114735D01*
X0392072Y0114678D01*
X0391935Y0114626D01*
X0391796Y0114577D01*
X0391657Y0114532D01*
X0391516Y0114491D01*
X0391374Y0114454D01*
X0391232Y0114421D01*
X0391088Y0114391D01*
X0390944Y0114365D01*
X0390799Y0114344D01*
X0390653Y0114326D01*
X0390507Y0114312D01*
X0390361Y0114302D01*
X0390215Y0114296D01*
X0390068Y0114294D01*
X0389921Y0114296D01*
X0389775Y0114302D01*
X0389629Y0114312D01*
X0389483Y0114326D01*
X0389337Y0114344D01*
X0389192Y0114365D01*
X0389048Y0114391D01*
X0388904Y0114421D01*
X0388762Y0114454D01*
X0388620Y0114491D01*
X0388479Y0114532D01*
X0388340Y0114577D01*
X0388201Y0114626D01*
X0388064Y0114678D01*
X0387929Y0114735D01*
X0387795Y0114794D01*
X0387663Y0114858D01*
X0387533Y0114925D01*
X0387404Y0114995D01*
X0387277Y0115069D01*
X0387153Y0115146D01*
X0387030Y0115227D01*
X0386910Y0115311D01*
X0386792Y0115398D01*
X0386677Y0115488D01*
X0386564Y0115581D01*
X0386453Y0115678D01*
X0386345Y0115777D01*
X0386240Y0115879D01*
X0386138Y0115984D01*
X0386039Y0116092D01*
X0385942Y0116203D01*
X0385849Y0116316D01*
X0385759Y0116431D01*
X0385672Y0116549D01*
X0385588Y0116669D01*
X0385507Y0116792D01*
X0385430Y0116916D01*
X0385356Y0117043D01*
X0385286Y0117172D01*
X0385219Y0117302D01*
X0385155Y0117434D01*
X0385096Y0117568D01*
X0385039Y0117703D01*
X0384987Y0117840D01*
X0384938Y0117979D01*
X0384893Y0118118D01*
X0384852Y0118259D01*
X0384815Y0118401D01*
X0384782Y0118543D01*
X0384752Y0118687D01*
X0384726Y0118831D01*
X0384705Y0118976D01*
X0384687Y0119122D01*
X0384673Y0119268D01*
X0384663Y0119414D01*
X0384657Y0119560D01*
X0384655Y0119707D01*
D11*
X0075698Y0346872D03*
X0056013Y0346872D03*
D12*
X0130423Y0177778D03*
X0130423Y0170298D03*
X0104871Y0166991D03*
X0104871Y0174471D03*
D13*
X0095482Y0158093D03*
X0088001Y0158093D03*
X0065482Y0150219D03*
X0058001Y0150219D03*
X0112332Y0150219D03*
X0119812Y0150219D03*
X0153454Y0192345D03*
X0160934Y0192345D03*
D14*
X0118588Y0191951D02*
X0109738Y0191951D01*
X0099911Y0209298D02*
X0099911Y0218148D01*
X0058588Y0191951D02*
X0049738Y0191951D01*
X0099911Y0269298D02*
X0099911Y0278148D01*
D15*
X0086919Y0313605D03*
X0057785Y0313605D03*
D16*
X0101879Y0316518D03*
X0101879Y0296518D03*
X0119438Y0206321D03*
X0139438Y0206321D03*
X0036722Y0192699D03*
X0036722Y0172699D03*
D17*
X0085462Y0166951D03*
X0090462Y0174451D03*
X0095462Y0166951D03*
X0140442Y0177778D03*
X0147942Y0182778D03*
X0147942Y0172778D03*
D18*
X0163155Y0228876D02*
X0172997Y0228876D01*
X0131155Y0228876D02*
X0121312Y0228876D01*
X0078509Y0217065D02*
X0068667Y0217065D01*
X0036667Y0217065D02*
X0026824Y0217065D01*
X0026824Y0290065D02*
X0036667Y0290065D01*
X0068667Y0290065D02*
X0078509Y0290065D01*
X0121312Y0301876D02*
X0131155Y0301876D01*
X0163155Y0301876D02*
X0172997Y0301876D01*
D19*
X0173155Y0301876D03*
X0192155Y0298880D03*
X0202155Y0298880D03*
X0202155Y0288880D03*
X0192155Y0288880D03*
X0192155Y0278880D03*
X0192155Y0268880D03*
X0202155Y0268880D03*
X0202155Y0278880D03*
X0202155Y0258880D03*
X0192155Y0258880D03*
X0192155Y0248880D03*
X0192155Y0238880D03*
X0202155Y0238880D03*
X0202155Y0248880D03*
X0202155Y0228880D03*
X0192155Y0228880D03*
X0192155Y0218880D03*
X0202155Y0218880D03*
X0202155Y0208880D03*
X0202155Y0198880D03*
X0192155Y0198880D03*
X0192155Y0208880D03*
X0192155Y0188880D03*
X0202155Y0188880D03*
X0202155Y0178880D03*
X0192155Y0178880D03*
X0192155Y0168880D03*
X0192155Y0158880D03*
X0202155Y0158880D03*
X0202155Y0168880D03*
X0202155Y0148880D03*
X0192155Y0148880D03*
X0192155Y0138880D03*
X0202155Y0138880D03*
X0173155Y0228876D03*
X0121155Y0228876D03*
X0078667Y0217065D03*
X0026667Y0217065D03*
X0026667Y0290065D03*
X0078667Y0290065D03*
X0121155Y0301876D03*
X0192155Y0308880D03*
X0202155Y0308880D03*
X0202155Y0318880D03*
X0192155Y0318880D03*
X0192155Y0328880D03*
D20*
X0172155Y0325416D03*
D21*
X0172155Y0333290D03*
X0164281Y0333290D03*
X0156407Y0333290D03*
X0156407Y0325416D03*
X0164281Y0325416D03*
D22*
X0168159Y0054904D03*
X0158159Y0044904D03*
X0168159Y0034904D03*
X0148159Y0034904D03*
X0148159Y0054904D03*
X0113828Y0054904D03*
X0103828Y0044904D03*
X0093828Y0054904D03*
X0093828Y0034904D03*
X0113828Y0034904D03*
D23*
X0202155Y0328880D03*
D24*
X0154812Y0143651D02*
X0154812Y0140251D01*
X0149812Y0140251D02*
X0149812Y0143651D01*
X0144812Y0143651D02*
X0144812Y0140251D01*
X0139812Y0140251D02*
X0139812Y0143651D01*
X0134812Y0143651D02*
X0134812Y0140251D01*
X0129812Y0140251D02*
X0129812Y0143651D01*
X0124812Y0143651D02*
X0124812Y0140251D01*
X0119812Y0140251D02*
X0119812Y0143651D01*
X0100482Y0143651D02*
X0100482Y0140251D01*
X0095482Y0140251D02*
X0095482Y0143651D01*
X0090482Y0143651D02*
X0090482Y0140251D01*
X0085482Y0140251D02*
X0085482Y0143651D01*
X0080482Y0143651D02*
X0080482Y0140251D01*
X0075482Y0140251D02*
X0075482Y0143651D01*
X0070482Y0143651D02*
X0070482Y0140251D01*
X0065482Y0140251D02*
X0065482Y0143651D01*
D25*
X0094576Y0064670D02*
X0094576Y0060570D01*
X0103828Y0060570D02*
X0103828Y0064670D01*
X0148907Y0064670D02*
X0148907Y0060570D01*
X0158159Y0060570D02*
X0158159Y0064670D01*
D26*
X0169399Y0130770D03*
X0169399Y0150770D03*
X0177824Y0161046D03*
X0157824Y0161046D03*
D27*
X0078276Y0340996D02*
X0077274Y0340651D01*
X0076228Y0340477D01*
X0075168Y0340477D01*
X0074123Y0340651D01*
X0073120Y0340996D01*
X0072188Y0341500D01*
X0071352Y0342151D01*
X0070634Y0342931D01*
X0070054Y0343818D01*
X0069629Y0344789D01*
X0069368Y0345816D01*
X0069281Y0346872D01*
X0069368Y0347929D01*
X0069629Y0348956D01*
X0070054Y0349927D01*
X0070634Y0350814D01*
X0071352Y0351594D01*
X0072188Y0352245D01*
X0073120Y0352749D01*
X0074123Y0353093D01*
X0075168Y0353268D01*
X0076228Y0353268D01*
X0077274Y0353093D01*
X0078276Y0352749D01*
X0079208Y0352245D01*
X0080044Y0351594D01*
X0080762Y0350814D01*
X0081342Y0349927D01*
X0081768Y0348956D01*
X0082028Y0347929D01*
X0082115Y0346872D01*
X0082028Y0345816D01*
X0081768Y0344789D01*
X0081342Y0343818D01*
X0080762Y0342931D01*
X0080044Y0342151D01*
X0079208Y0341500D01*
X0078276Y0340996D01*
X0079062Y0341421D02*
X0072335Y0341421D01*
X0070757Y0342797D02*
X0080639Y0342797D01*
X0081498Y0344174D02*
X0069898Y0344174D01*
X0069436Y0345550D02*
X0081961Y0345550D01*
X0082111Y0346927D02*
X0069285Y0346927D01*
X0069463Y0348303D02*
X0081933Y0348303D01*
X0081450Y0349680D02*
X0069946Y0349680D01*
X0070857Y0351056D02*
X0080539Y0351056D01*
X0078861Y0352433D02*
X0072535Y0352433D01*
X0062083Y0348956D02*
X0062343Y0347929D01*
X0062430Y0346872D01*
X0062343Y0345816D01*
X0062083Y0344789D01*
X0061657Y0343818D01*
X0061077Y0342931D01*
X0060359Y0342151D01*
X0059523Y0341500D01*
X0058591Y0340996D01*
X0057588Y0340651D01*
X0056543Y0340477D01*
X0055483Y0340477D01*
X0054438Y0340651D01*
X0053435Y0340996D01*
X0052503Y0341500D01*
X0051667Y0342151D01*
X0050949Y0342931D01*
X0050369Y0343818D01*
X0049944Y0344789D01*
X0049683Y0345816D01*
X0049596Y0346872D01*
X0049683Y0347929D01*
X0049944Y0348956D01*
X0050369Y0349927D01*
X0050949Y0350814D01*
X0051667Y0351594D01*
X0052503Y0352245D01*
X0053435Y0352749D01*
X0054438Y0353093D01*
X0055483Y0353268D01*
X0056543Y0353268D01*
X0057588Y0353093D01*
X0058591Y0352749D01*
X0059523Y0352245D01*
X0060359Y0351594D01*
X0061077Y0350814D01*
X0061657Y0349927D01*
X0062083Y0348956D01*
X0062248Y0348303D02*
X0049778Y0348303D01*
X0049600Y0346927D02*
X0062426Y0346927D01*
X0062276Y0345550D02*
X0049751Y0345550D01*
X0050213Y0344174D02*
X0061813Y0344174D01*
X0060954Y0342797D02*
X0051072Y0342797D01*
X0052650Y0341421D02*
X0059377Y0341421D01*
X0061765Y0349680D02*
X0050261Y0349680D01*
X0051172Y0351056D02*
X0060854Y0351056D01*
X0059176Y0352433D02*
X0052850Y0352433D01*
D28*
X0056013Y0346872D02*
X0056013Y0315376D01*
X0057785Y0313605D01*
X0036667Y0290065D02*
X0051238Y0275494D01*
X0080856Y0275494D01*
X0101879Y0296518D01*
X0107238Y0301876D01*
X0121155Y0301876D01*
X0101879Y0316518D02*
X0089832Y0316518D01*
X0086919Y0313605D01*
X0131155Y0228876D02*
X0131155Y0214605D01*
X0139438Y0206321D01*
X0119438Y0206321D02*
X0107312Y0206321D01*
X0099911Y0213723D01*
X0036722Y0217010D02*
X0036722Y0192699D01*
X0036722Y0217010D02*
X0036667Y0217065D01*
D29*
X0039045Y0223139D02*
X0066902Y0223139D01*
X0067186Y0223231D02*
X0066240Y0222923D01*
X0065354Y0222472D01*
X0064549Y0221887D01*
X0063845Y0221183D01*
X0063260Y0220378D01*
X0062809Y0219492D01*
X0062501Y0218546D01*
X0062345Y0217563D01*
X0062345Y0217465D01*
X0068267Y0217465D01*
X0068267Y0216665D01*
X0069067Y0216665D01*
X0078267Y0216665D01*
X0078267Y0217465D01*
X0069067Y0217465D01*
X0069067Y0216665D01*
X0069067Y0210744D01*
X0079007Y0210744D01*
X0079989Y0210900D01*
X0080936Y0211207D01*
X0081822Y0211659D01*
X0082627Y0212244D01*
X0083331Y0212947D01*
X0083916Y0213752D01*
X0084367Y0214639D01*
X0084675Y0215585D01*
X0084830Y0216568D01*
X0084830Y0216665D01*
X0079067Y0216665D01*
X0079067Y0217465D01*
X0084830Y0217465D01*
X0084830Y0217563D01*
X0084675Y0218546D01*
X0084367Y0219492D01*
X0083916Y0220378D01*
X0083331Y0221183D01*
X0082627Y0221887D01*
X0081822Y0222472D01*
X0080936Y0222923D01*
X0079989Y0223231D01*
X0079007Y0223387D01*
X0069067Y0223387D01*
X0069067Y0217465D01*
X0068267Y0217465D01*
X0068267Y0223387D01*
X0068169Y0223387D01*
X0067186Y0223231D01*
X0068267Y0223139D02*
X0069067Y0223139D01*
X0069067Y0222340D02*
X0068267Y0222340D01*
X0068267Y0221542D02*
X0069067Y0221542D01*
X0069067Y0220743D02*
X0068267Y0220743D01*
X0068267Y0219945D02*
X0069067Y0219945D01*
X0069067Y0219146D02*
X0068267Y0219146D01*
X0068267Y0218348D02*
X0069067Y0218348D01*
X0069067Y0217549D02*
X0068267Y0217549D01*
X0068267Y0216751D02*
X0043188Y0216751D01*
X0043188Y0217549D02*
X0062345Y0217549D01*
X0062470Y0218348D02*
X0043188Y0218348D01*
X0043188Y0218363D02*
X0042195Y0220759D01*
X0040361Y0222594D01*
X0037964Y0223587D01*
X0025527Y0223587D01*
X0023130Y0222594D01*
X0021296Y0220759D01*
X0020303Y0218363D01*
X0020303Y0215768D01*
X0021296Y0213371D01*
X0023130Y0211537D01*
X0025527Y0210544D01*
X0031322Y0210544D01*
X0031322Y0191625D01*
X0032144Y0189640D01*
X0033663Y0188121D01*
X0035648Y0187299D01*
X0037796Y0187299D01*
X0039781Y0188121D01*
X0041300Y0189640D01*
X0042122Y0191625D01*
X0042122Y0213298D01*
X0042195Y0213371D01*
X0043188Y0215768D01*
X0043188Y0218363D01*
X0042863Y0219146D02*
X0062696Y0219146D01*
X0063039Y0219945D02*
X0042533Y0219945D01*
X0042202Y0220743D02*
X0063525Y0220743D01*
X0064203Y0221542D02*
X0041413Y0221542D01*
X0040614Y0222340D02*
X0065172Y0222340D01*
X0062345Y0216665D02*
X0062345Y0216568D01*
X0062501Y0215585D01*
X0062809Y0214639D01*
X0063260Y0213752D01*
X0063845Y0212947D01*
X0064549Y0212244D01*
X0065354Y0211659D01*
X0066240Y0211207D01*
X0067186Y0210900D01*
X0068169Y0210744D01*
X0068267Y0210744D01*
X0068267Y0216665D01*
X0062345Y0216665D01*
X0062443Y0215952D02*
X0043188Y0215952D01*
X0042933Y0215153D02*
X0062641Y0215153D01*
X0062953Y0214355D02*
X0042603Y0214355D01*
X0042272Y0213556D02*
X0063402Y0213556D01*
X0064034Y0212758D02*
X0042122Y0212758D01*
X0042122Y0211959D02*
X0064940Y0211959D01*
X0066383Y0211161D02*
X0042122Y0211161D01*
X0042122Y0210362D02*
X0093886Y0210362D01*
X0093886Y0209564D02*
X0042122Y0209564D01*
X0042122Y0208765D02*
X0093886Y0208765D01*
X0093886Y0208099D02*
X0094803Y0205885D01*
X0096498Y0204190D01*
X0098712Y0203273D01*
X0101109Y0203273D01*
X0101118Y0203276D01*
X0102720Y0203276D01*
X0102734Y0203262D01*
X0103716Y0202281D01*
X0103716Y0193158D01*
X0103713Y0193150D01*
X0103713Y0190753D01*
X0103716Y0190744D01*
X0103716Y0185354D01*
X0045061Y0185354D01*
X0043738Y0184806D01*
X0042725Y0183794D01*
X0037031Y0178099D01*
X0035648Y0178099D01*
X0033663Y0177277D01*
X0032144Y0175758D01*
X0031322Y0173773D01*
X0031322Y0171625D01*
X0032144Y0169640D01*
X0033663Y0168121D01*
X0035648Y0167299D01*
X0037796Y0167299D01*
X0039781Y0168121D01*
X0041300Y0169640D01*
X0042122Y0171625D01*
X0042122Y0173008D01*
X0047268Y0178154D01*
X0086185Y0178154D01*
X0086185Y0172706D01*
X0087122Y0171769D01*
X0087124Y0171769D01*
X0088698Y0170194D01*
X0091185Y0170194D01*
X0091185Y0162646D01*
X0090618Y0162646D01*
X0090418Y0162446D01*
X0088401Y0162446D01*
X0088401Y0158493D01*
X0087601Y0158493D01*
X0087601Y0157693D01*
X0084042Y0157693D01*
X0084042Y0154956D01*
X0084138Y0154600D01*
X0084322Y0154281D01*
X0084583Y0154020D01*
X0084902Y0153836D01*
X0085258Y0153740D01*
X0087601Y0153740D01*
X0087601Y0157693D01*
X0088401Y0157693D01*
X0088401Y0153740D01*
X0090418Y0153740D01*
X0090618Y0153540D01*
X0098703Y0153540D01*
X0098886Y0153723D01*
X0101923Y0153723D01*
X0101933Y0153728D01*
X0102608Y0153728D01*
X0103084Y0154204D01*
X0103095Y0154209D01*
X0103992Y0155106D01*
X0103996Y0155116D01*
X0104473Y0155593D01*
X0104473Y0156267D01*
X0104477Y0156278D01*
X0104477Y0157546D01*
X0104473Y0157557D01*
X0104473Y0158231D01*
X0103996Y0158708D01*
X0103992Y0158718D01*
X0103095Y0159615D01*
X0103084Y0159619D01*
X0102608Y0160096D01*
X0101933Y0160096D01*
X0101923Y0160100D01*
X0099739Y0160100D01*
X0099739Y0167591D01*
X0100519Y0167591D01*
X0100519Y0167391D01*
X0104471Y0167391D01*
X0104471Y0166591D01*
X0100519Y0166591D01*
X0100519Y0164247D01*
X0100614Y0163891D01*
X0100798Y0163572D01*
X0101059Y0163311D01*
X0101378Y0163127D01*
X0101734Y0163031D01*
X0104471Y0163031D01*
X0104471Y0166591D01*
X0105271Y0166591D01*
X0105271Y0167391D01*
X0109224Y0167391D01*
X0109224Y0169653D01*
X0109432Y0169861D01*
X0109432Y0178154D01*
X0124955Y0178154D01*
X0125870Y0177240D01*
X0125870Y0173178D01*
X0126070Y0172978D01*
X0126070Y0170698D01*
X0130023Y0170698D01*
X0130023Y0169898D01*
X0130823Y0169898D01*
X0130823Y0170698D01*
X0134775Y0170698D01*
X0134775Y0172978D01*
X0134975Y0173178D01*
X0134975Y0173520D01*
X0142206Y0173520D01*
X0142237Y0173552D01*
X0142277Y0173552D01*
X0147245Y0178520D01*
X0149706Y0178520D01*
X0152200Y0181014D01*
X0152200Y0184541D01*
X0152196Y0184545D01*
X0152196Y0186561D01*
X0153427Y0187792D01*
X0158054Y0187792D01*
X0158254Y0187992D01*
X0160534Y0187992D01*
X0160534Y0191945D01*
X0161334Y0191945D01*
X0161334Y0187992D01*
X0163678Y0187992D01*
X0164034Y0188088D01*
X0164353Y0188272D01*
X0164614Y0188533D01*
X0164798Y0188852D01*
X0164893Y0189208D01*
X0164893Y0191945D01*
X0161334Y0191945D01*
X0161334Y0192745D01*
X0160534Y0192745D01*
X0160534Y0196698D01*
X0158254Y0196698D01*
X0158054Y0196898D01*
X0155854Y0196898D01*
X0155854Y0321111D01*
X0174875Y0321111D01*
X0174880Y0321116D01*
X0175518Y0321116D01*
X0176455Y0322053D01*
X0176455Y0328778D01*
X0175518Y0329716D01*
X0174171Y0329716D01*
X0174304Y0329783D01*
X0174826Y0330162D01*
X0175282Y0330619D01*
X0175661Y0331141D01*
X0175954Y0331716D01*
X0176154Y0332330D01*
X0176243Y0332890D01*
X0172555Y0332890D01*
X0172555Y0333690D01*
X0171755Y0333690D01*
X0171755Y0337377D01*
X0171195Y0337289D01*
X0170775Y0337152D01*
X0171015Y0337392D01*
X0174870Y0337392D01*
X0183147Y0329115D01*
X0183147Y0316359D01*
X0187287Y0312219D01*
X0187287Y0310422D01*
X0187651Y0310059D01*
X0187621Y0309969D01*
X0187512Y0309280D01*
X0191755Y0309280D01*
X0191755Y0308480D01*
X0192555Y0308480D01*
X0192555Y0304238D01*
X0193243Y0304347D01*
X0193939Y0304573D01*
X0194591Y0304905D01*
X0195183Y0305335D01*
X0195700Y0305852D01*
X0196130Y0306444D01*
X0196462Y0307096D01*
X0196688Y0307792D01*
X0196797Y0308480D01*
X0192555Y0308480D01*
X0192555Y0309280D01*
X0196797Y0309280D01*
X0196765Y0309485D01*
X0197307Y0309485D01*
X0197307Y0307916D01*
X0198045Y0306134D01*
X0199409Y0304770D01*
X0201191Y0304032D01*
X0203119Y0304032D01*
X0204901Y0304770D01*
X0206265Y0306134D01*
X0207003Y0307916D01*
X0207003Y0308121D01*
X0207011Y0308129D01*
X0207011Y0310410D01*
X0207023Y0310422D01*
X0207023Y0338955D01*
X0207886Y0339819D01*
X0209652Y0342877D01*
X0210566Y0346288D01*
X0210566Y0349819D01*
X0209652Y0353230D01*
X0207886Y0356288D01*
X0205389Y0358785D01*
X0204267Y0359433D01*
X0382956Y0359433D01*
X0381834Y0358785D01*
X0379337Y0356288D01*
X0377571Y0353230D01*
X0376657Y0349819D01*
X0376657Y0346288D01*
X0377571Y0342877D01*
X0379337Y0339819D01*
X0381834Y0337322D01*
X0384892Y0335556D01*
X0388303Y0334643D01*
X0391834Y0334643D01*
X0395245Y0335556D01*
X0398303Y0337322D01*
X0400800Y0339819D01*
X0401448Y0340941D01*
X0401448Y0218564D01*
X0399433Y0218564D01*
X0398551Y0218198D01*
X0397876Y0217523D01*
X0397511Y0216641D01*
X0397511Y0172379D01*
X0397876Y0171497D01*
X0398551Y0170822D01*
X0399433Y0170457D01*
X0401448Y0170457D01*
X0401448Y0126819D01*
X0400800Y0127942D01*
X0398303Y0130439D01*
X0395245Y0132204D01*
X0391834Y0133118D01*
X0388303Y0133118D01*
X0384892Y0132204D01*
X0381834Y0130439D01*
X0379337Y0127942D01*
X0377571Y0124884D01*
X0376657Y0121473D01*
X0376657Y0117941D01*
X0377571Y0114531D01*
X0379337Y0111473D01*
X0381104Y0109705D01*
X0329551Y0109705D01*
X0328669Y0109340D01*
X0327994Y0108665D01*
X0327629Y0107783D01*
X0327629Y0094942D01*
X0190378Y0094942D01*
X0189496Y0094576D01*
X0188821Y0093901D01*
X0188456Y0093019D01*
X0188456Y0029587D01*
X0171743Y0029587D01*
X0172388Y0030082D01*
X0172981Y0030675D01*
X0173492Y0031341D01*
X0173911Y0032067D01*
X0174232Y0032842D01*
X0174449Y0033653D01*
X0174559Y0034484D01*
X0174559Y0034504D01*
X0168559Y0034504D01*
X0168559Y0035304D01*
X0174559Y0035304D01*
X0174559Y0035323D01*
X0174449Y0036155D01*
X0174232Y0036966D01*
X0173911Y0037741D01*
X0173492Y0038467D01*
X0172981Y0039133D01*
X0172388Y0039726D01*
X0171722Y0040237D01*
X0170995Y0040656D01*
X0170220Y0040977D01*
X0169410Y0041194D01*
X0168578Y0041304D01*
X0168559Y0041304D01*
X0168559Y0035304D01*
X0167759Y0035304D01*
X0167759Y0041304D01*
X0167739Y0041304D01*
X0166908Y0041194D01*
X0166097Y0040977D01*
X0165322Y0040656D01*
X0164595Y0040237D01*
X0163930Y0039726D01*
X0163337Y0039133D01*
X0162826Y0038467D01*
X0162406Y0037741D01*
X0162085Y0036966D01*
X0161868Y0036155D01*
X0161759Y0035323D01*
X0161759Y0035304D01*
X0167759Y0035304D01*
X0167759Y0034504D01*
X0161759Y0034504D01*
X0161759Y0034484D01*
X0161868Y0033653D01*
X0162085Y0032842D01*
X0162406Y0032067D01*
X0162826Y0031341D01*
X0163337Y0030675D01*
X0163930Y0030082D01*
X0164574Y0029587D01*
X0151743Y0029587D01*
X0152388Y0030082D01*
X0152981Y0030675D01*
X0153492Y0031341D01*
X0153911Y0032067D01*
X0154232Y0032842D01*
X0154449Y0033653D01*
X0154559Y0034484D01*
X0154559Y0034504D01*
X0148559Y0034504D01*
X0148559Y0035304D01*
X0154559Y0035304D01*
X0154559Y0035323D01*
X0154449Y0036155D01*
X0154232Y0036966D01*
X0153911Y0037741D01*
X0153492Y0038467D01*
X0152981Y0039133D01*
X0152388Y0039726D01*
X0151722Y0040237D01*
X0150995Y0040656D01*
X0150220Y0040977D01*
X0149410Y0041194D01*
X0148578Y0041304D01*
X0148559Y0041304D01*
X0148559Y0035304D01*
X0147759Y0035304D01*
X0147759Y0041304D01*
X0147739Y0041304D01*
X0146908Y0041194D01*
X0146097Y0040977D01*
X0145322Y0040656D01*
X0144595Y0040237D01*
X0143930Y0039726D01*
X0143337Y0039133D01*
X0142826Y0038467D01*
X0142406Y0037741D01*
X0142085Y0036966D01*
X0141868Y0036155D01*
X0141759Y0035323D01*
X0141759Y0035304D01*
X0147759Y0035304D01*
X0147759Y0034504D01*
X0141759Y0034504D01*
X0141759Y0034484D01*
X0141868Y0033653D01*
X0142085Y0032842D01*
X0142406Y0032067D01*
X0142826Y0031341D01*
X0143337Y0030675D01*
X0143930Y0030082D01*
X0144574Y0029587D01*
X0117413Y0029587D01*
X0118057Y0030082D01*
X0118650Y0030675D01*
X0119161Y0031341D01*
X0119580Y0032067D01*
X0119901Y0032842D01*
X0120119Y0033653D01*
X0120228Y0034484D01*
X0120228Y0034504D01*
X0114228Y0034504D01*
X0114228Y0035304D01*
X0113428Y0035304D01*
X0113428Y0041304D01*
X0113409Y0041304D01*
X0112577Y0041194D01*
X0111766Y0040977D01*
X0110991Y0040656D01*
X0110265Y0040237D01*
X0109599Y0039726D01*
X0109006Y0039133D01*
X0108495Y0038467D01*
X0108076Y0037741D01*
X0107755Y0036966D01*
X0107538Y0036155D01*
X0107428Y0035323D01*
X0107428Y0035304D01*
X0113428Y0035304D01*
X0113428Y0034504D01*
X0107428Y0034504D01*
X0107428Y0034484D01*
X0107538Y0033653D01*
X0107755Y0032842D01*
X0108076Y0032067D01*
X0108495Y0031341D01*
X0109006Y0030675D01*
X0109599Y0030082D01*
X0110244Y0029587D01*
X0097413Y0029587D01*
X0098057Y0030082D01*
X0098650Y0030675D01*
X0099161Y0031341D01*
X0099580Y0032067D01*
X0099901Y0032842D01*
X0100119Y0033653D01*
X0100228Y0034484D01*
X0100228Y0034504D01*
X0094228Y0034504D01*
X0094228Y0035304D01*
X0093428Y0035304D01*
X0093428Y0041304D01*
X0093409Y0041304D01*
X0092577Y0041194D01*
X0091766Y0040977D01*
X0090991Y0040656D01*
X0090265Y0040237D01*
X0089599Y0039726D01*
X0089006Y0039133D01*
X0088495Y0038467D01*
X0088076Y0037741D01*
X0087755Y0036966D01*
X0087538Y0036155D01*
X0087428Y0035323D01*
X0087428Y0035304D01*
X0093428Y0035304D01*
X0093428Y0034504D01*
X0087428Y0034504D01*
X0087428Y0034484D01*
X0087538Y0033653D01*
X0087755Y0032842D01*
X0088076Y0032067D01*
X0088495Y0031341D01*
X0089006Y0030675D01*
X0089599Y0030082D01*
X0090244Y0029587D01*
X0015697Y0029587D01*
X0015697Y0170457D01*
X0017711Y0170457D01*
X0018593Y0170822D01*
X0019268Y0171497D01*
X0019634Y0172379D01*
X0019634Y0216641D01*
X0019268Y0217523D01*
X0018593Y0218198D01*
X0017711Y0218564D01*
X0015697Y0218564D01*
X0015697Y0359433D01*
X0190043Y0359433D01*
X0188920Y0358785D01*
X0186423Y0356288D01*
X0184658Y0353230D01*
X0183744Y0349819D01*
X0183744Y0346288D01*
X0184323Y0344126D01*
X0180493Y0347956D01*
X0179170Y0348504D01*
X0151557Y0348504D01*
X0150234Y0347956D01*
X0149221Y0346943D01*
X0140785Y0338507D01*
X0140785Y0338507D01*
X0139772Y0337494D01*
X0139224Y0336171D01*
X0139224Y0267104D01*
X0096859Y0224738D01*
X0096311Y0223415D01*
X0096311Y0223068D01*
X0094803Y0221561D01*
X0093886Y0219346D01*
X0093886Y0208099D01*
X0093941Y0207967D02*
X0042122Y0207967D01*
X0042122Y0207168D02*
X0094271Y0207168D01*
X0094602Y0206370D02*
X0042122Y0206370D01*
X0042122Y0205571D02*
X0095117Y0205571D01*
X0095915Y0204773D02*
X0042122Y0204773D01*
X0042122Y0203974D02*
X0097019Y0203974D01*
X0102821Y0203176D02*
X0042122Y0203176D01*
X0042122Y0202377D02*
X0103620Y0202377D01*
X0103716Y0201579D02*
X0042122Y0201579D01*
X0042122Y0200780D02*
X0103716Y0200780D01*
X0103716Y0199982D02*
X0042122Y0199982D01*
X0042122Y0199183D02*
X0103716Y0199183D01*
X0103716Y0198385D02*
X0042122Y0198385D01*
X0042122Y0197586D02*
X0048231Y0197586D01*
X0048374Y0197633D02*
X0047502Y0197349D01*
X0046685Y0196933D01*
X0045943Y0196394D01*
X0045295Y0195746D01*
X0044756Y0195004D01*
X0044339Y0194187D01*
X0044056Y0193315D01*
X0043913Y0192410D01*
X0043913Y0192351D01*
X0053763Y0192351D01*
X0053763Y0197776D01*
X0049279Y0197776D01*
X0048374Y0197633D01*
X0046485Y0196788D02*
X0042122Y0196788D01*
X0042122Y0195989D02*
X0045538Y0195989D01*
X0044891Y0195191D02*
X0042122Y0195191D01*
X0042122Y0194392D02*
X0044444Y0194392D01*
X0044147Y0193594D02*
X0042122Y0193594D01*
X0042122Y0192795D02*
X0043974Y0192795D01*
X0043913Y0191551D02*
X0043913Y0191493D01*
X0044056Y0190587D01*
X0044339Y0189715D01*
X0044756Y0188898D01*
X0045295Y0188156D01*
X0045943Y0187508D01*
X0046685Y0186969D01*
X0047502Y0186553D01*
X0048374Y0186270D01*
X0049279Y0186126D01*
X0053763Y0186126D01*
X0053763Y0191551D01*
X0054563Y0191551D01*
X0054563Y0192351D01*
X0064413Y0192351D01*
X0064413Y0192410D01*
X0064269Y0193315D01*
X0063986Y0194187D01*
X0063570Y0195004D01*
X0063031Y0195746D01*
X0062382Y0196394D01*
X0061641Y0196933D01*
X0060824Y0197349D01*
X0059952Y0197633D01*
X0059046Y0197776D01*
X0054563Y0197776D01*
X0054563Y0192351D01*
X0053763Y0192351D01*
X0053763Y0191551D01*
X0043913Y0191551D01*
X0043959Y0191198D02*
X0041945Y0191198D01*
X0042122Y0191997D02*
X0053763Y0191997D01*
X0053763Y0192795D02*
X0054563Y0192795D01*
X0054563Y0191997D02*
X0103713Y0191997D01*
X0103713Y0192795D02*
X0064352Y0192795D01*
X0064179Y0193594D02*
X0103716Y0193594D01*
X0103716Y0194392D02*
X0063882Y0194392D01*
X0063434Y0195191D02*
X0103716Y0195191D01*
X0103716Y0195989D02*
X0062787Y0195989D01*
X0061841Y0196788D02*
X0103716Y0196788D01*
X0103716Y0197586D02*
X0060095Y0197586D01*
X0054563Y0197586D02*
X0053763Y0197586D01*
X0053763Y0196788D02*
X0054563Y0196788D01*
X0054563Y0195989D02*
X0053763Y0195989D01*
X0053763Y0195191D02*
X0054563Y0195191D01*
X0054563Y0194392D02*
X0053763Y0194392D01*
X0053763Y0193594D02*
X0054563Y0193594D01*
X0054563Y0191551D02*
X0064413Y0191551D01*
X0064413Y0191493D01*
X0064269Y0190587D01*
X0063986Y0189715D01*
X0063570Y0188898D01*
X0063031Y0188156D01*
X0062382Y0187508D01*
X0061641Y0186969D01*
X0060824Y0186553D01*
X0059952Y0186270D01*
X0059046Y0186126D01*
X0054563Y0186126D01*
X0054563Y0191551D01*
X0054563Y0191198D02*
X0053763Y0191198D01*
X0053763Y0190400D02*
X0054563Y0190400D01*
X0054563Y0189601D02*
X0053763Y0189601D01*
X0053763Y0188803D02*
X0054563Y0188803D01*
X0054563Y0188004D02*
X0053763Y0188004D01*
X0053763Y0187206D02*
X0054563Y0187206D01*
X0054563Y0186407D02*
X0053763Y0186407D01*
X0060375Y0186407D02*
X0103716Y0186407D01*
X0103716Y0185609D02*
X0019634Y0185609D01*
X0019634Y0186407D02*
X0047951Y0186407D01*
X0046359Y0187206D02*
X0019634Y0187206D01*
X0019634Y0188004D02*
X0033946Y0188004D01*
X0032982Y0188803D02*
X0019634Y0188803D01*
X0019634Y0189601D02*
X0032183Y0189601D01*
X0031829Y0190400D02*
X0019634Y0190400D01*
X0019634Y0191198D02*
X0031499Y0191198D01*
X0031322Y0191997D02*
X0019634Y0191997D01*
X0019634Y0192795D02*
X0031322Y0192795D01*
X0031322Y0193594D02*
X0019634Y0193594D01*
X0019634Y0194392D02*
X0031322Y0194392D01*
X0031322Y0195191D02*
X0019634Y0195191D01*
X0019634Y0195989D02*
X0031322Y0195989D01*
X0031322Y0196788D02*
X0019634Y0196788D01*
X0019634Y0197586D02*
X0031322Y0197586D01*
X0031322Y0198385D02*
X0019634Y0198385D01*
X0019634Y0199183D02*
X0031322Y0199183D01*
X0031322Y0199982D02*
X0019634Y0199982D01*
X0019634Y0200780D02*
X0031322Y0200780D01*
X0031322Y0201579D02*
X0019634Y0201579D01*
X0019634Y0202377D02*
X0031322Y0202377D01*
X0031322Y0203176D02*
X0019634Y0203176D01*
X0019634Y0203974D02*
X0031322Y0203974D01*
X0031322Y0204773D02*
X0019634Y0204773D01*
X0019634Y0205571D02*
X0031322Y0205571D01*
X0031322Y0206370D02*
X0019634Y0206370D01*
X0019634Y0207168D02*
X0031322Y0207168D01*
X0031322Y0207967D02*
X0019634Y0207967D01*
X0019634Y0208765D02*
X0031322Y0208765D01*
X0031322Y0209564D02*
X0019634Y0209564D01*
X0019634Y0210362D02*
X0031322Y0210362D01*
X0024038Y0211161D02*
X0019634Y0211161D01*
X0019634Y0211959D02*
X0022708Y0211959D01*
X0021909Y0212758D02*
X0019634Y0212758D01*
X0019634Y0213556D02*
X0021219Y0213556D01*
X0020888Y0214355D02*
X0019634Y0214355D01*
X0019634Y0215153D02*
X0020557Y0215153D01*
X0020303Y0215952D02*
X0019634Y0215952D01*
X0019588Y0216751D02*
X0020303Y0216751D01*
X0020303Y0217549D02*
X0019242Y0217549D01*
X0018233Y0218348D02*
X0020303Y0218348D01*
X0020627Y0219146D02*
X0015697Y0219146D01*
X0015697Y0219945D02*
X0020958Y0219945D01*
X0021289Y0220743D02*
X0015697Y0220743D01*
X0015697Y0221542D02*
X0022078Y0221542D01*
X0022876Y0222340D02*
X0015697Y0222340D01*
X0015697Y0223139D02*
X0024445Y0223139D01*
X0015697Y0223937D02*
X0096527Y0223937D01*
X0096311Y0223139D02*
X0080274Y0223139D01*
X0082003Y0222340D02*
X0095582Y0222340D01*
X0094795Y0221542D02*
X0082973Y0221542D01*
X0083651Y0220743D02*
X0094464Y0220743D01*
X0094134Y0219945D02*
X0084137Y0219945D01*
X0084480Y0219146D02*
X0093886Y0219146D01*
X0093886Y0218348D02*
X0084706Y0218348D01*
X0084830Y0217549D02*
X0093886Y0217549D01*
X0093886Y0216751D02*
X0079067Y0216751D01*
X0078267Y0216751D02*
X0069067Y0216751D01*
X0069067Y0215952D02*
X0068267Y0215952D01*
X0068267Y0215153D02*
X0069067Y0215153D01*
X0069067Y0214355D02*
X0068267Y0214355D01*
X0068267Y0213556D02*
X0069067Y0213556D01*
X0069067Y0212758D02*
X0068267Y0212758D01*
X0068267Y0211959D02*
X0069067Y0211959D01*
X0069067Y0211161D02*
X0068267Y0211161D01*
X0080793Y0211161D02*
X0093886Y0211161D01*
X0093886Y0211959D02*
X0082236Y0211959D01*
X0083141Y0212758D02*
X0093886Y0212758D01*
X0093886Y0213556D02*
X0083773Y0213556D01*
X0084223Y0214355D02*
X0093886Y0214355D01*
X0093886Y0215153D02*
X0084535Y0215153D01*
X0084733Y0215952D02*
X0093886Y0215952D01*
X0096858Y0224736D02*
X0015697Y0224736D01*
X0015697Y0225534D02*
X0097655Y0225534D01*
X0098453Y0226333D02*
X0015697Y0226333D01*
X0015697Y0227131D02*
X0099252Y0227131D01*
X0100050Y0227930D02*
X0015697Y0227930D01*
X0015697Y0228728D02*
X0100849Y0228728D01*
X0101647Y0229527D02*
X0015697Y0229527D01*
X0015697Y0230325D02*
X0102446Y0230325D01*
X0103244Y0231124D02*
X0015697Y0231124D01*
X0015697Y0231922D02*
X0104043Y0231922D01*
X0104841Y0232721D02*
X0015697Y0232721D01*
X0015697Y0233519D02*
X0105640Y0233519D01*
X0106438Y0234318D02*
X0015697Y0234318D01*
X0015697Y0235116D02*
X0107237Y0235116D01*
X0108035Y0235915D02*
X0015697Y0235915D01*
X0015697Y0236713D02*
X0108834Y0236713D01*
X0109632Y0237512D02*
X0015697Y0237512D01*
X0015697Y0238310D02*
X0110431Y0238310D01*
X0111229Y0239109D02*
X0015697Y0239109D01*
X0015697Y0239907D02*
X0112028Y0239907D01*
X0112826Y0240706D02*
X0015697Y0240706D01*
X0015697Y0241504D02*
X0113625Y0241504D01*
X0114423Y0242303D02*
X0015697Y0242303D01*
X0015697Y0243101D02*
X0115222Y0243101D01*
X0116020Y0243900D02*
X0015697Y0243900D01*
X0015697Y0244698D02*
X0116819Y0244698D01*
X0117617Y0245497D02*
X0015697Y0245497D01*
X0015697Y0246295D02*
X0118416Y0246295D01*
X0119214Y0247094D02*
X0015697Y0247094D01*
X0015697Y0247892D02*
X0120013Y0247892D01*
X0120811Y0248691D02*
X0015697Y0248691D01*
X0015697Y0249489D02*
X0121610Y0249489D01*
X0122408Y0250288D02*
X0015697Y0250288D01*
X0015697Y0251087D02*
X0123207Y0251087D01*
X0124005Y0251885D02*
X0015697Y0251885D01*
X0015697Y0252684D02*
X0124804Y0252684D01*
X0125602Y0253482D02*
X0015697Y0253482D01*
X0015697Y0254281D02*
X0126401Y0254281D01*
X0127199Y0255079D02*
X0015697Y0255079D01*
X0015697Y0255878D02*
X0127998Y0255878D01*
X0128796Y0256676D02*
X0015697Y0256676D01*
X0015697Y0257475D02*
X0129595Y0257475D01*
X0130393Y0258273D02*
X0015697Y0258273D01*
X0015697Y0259072D02*
X0131192Y0259072D01*
X0131991Y0259870D02*
X0015697Y0259870D01*
X0015697Y0260669D02*
X0132789Y0260669D01*
X0133588Y0261467D02*
X0015697Y0261467D01*
X0015697Y0262266D02*
X0134386Y0262266D01*
X0135185Y0263064D02*
X0015697Y0263064D01*
X0015697Y0263863D02*
X0097788Y0263863D01*
X0097675Y0263900D02*
X0098547Y0263616D01*
X0099452Y0263473D01*
X0099511Y0263473D01*
X0099511Y0273323D01*
X0100311Y0273323D01*
X0100311Y0274123D01*
X0105736Y0274123D01*
X0105736Y0278606D01*
X0105592Y0279512D01*
X0105309Y0280384D01*
X0104893Y0281201D01*
X0104354Y0281943D01*
X0103705Y0282591D01*
X0102964Y0283130D01*
X0102147Y0283546D01*
X0101275Y0283829D01*
X0100369Y0283973D01*
X0100311Y0283973D01*
X0100311Y0274123D01*
X0099511Y0274123D01*
X0099511Y0283973D01*
X0099452Y0283973D01*
X0098547Y0283829D01*
X0097675Y0283546D01*
X0096858Y0283130D01*
X0096116Y0282591D01*
X0095468Y0281943D01*
X0094929Y0281201D01*
X0094513Y0280384D01*
X0094229Y0279512D01*
X0094086Y0278606D01*
X0094086Y0274123D01*
X0099511Y0274123D01*
X0099511Y0273323D01*
X0094086Y0273323D01*
X0094086Y0268839D01*
X0094229Y0267934D01*
X0094513Y0267062D01*
X0094929Y0266245D01*
X0095468Y0265503D01*
X0096116Y0264855D01*
X0096858Y0264316D01*
X0097675Y0263900D01*
X0096382Y0264661D02*
X0015697Y0264661D01*
X0015697Y0265460D02*
X0095511Y0265460D01*
X0094922Y0266258D02*
X0015697Y0266258D01*
X0015697Y0267057D02*
X0094515Y0267057D01*
X0094255Y0267855D02*
X0015697Y0267855D01*
X0015697Y0268654D02*
X0094115Y0268654D01*
X0094086Y0269452D02*
X0015697Y0269452D01*
X0015697Y0270251D02*
X0049786Y0270251D01*
X0050163Y0270094D02*
X0081930Y0270094D01*
X0083914Y0270917D01*
X0104938Y0291940D01*
X0106457Y0293459D01*
X0106457Y0293459D01*
X0109474Y0296476D01*
X0117490Y0296476D01*
X0117618Y0296348D01*
X0120015Y0295355D01*
X0132452Y0295355D01*
X0134849Y0296348D01*
X0136683Y0298182D01*
X0137676Y0300579D01*
X0137676Y0303174D01*
X0136683Y0305570D01*
X0134849Y0307405D01*
X0132452Y0308398D01*
X0120015Y0308398D01*
X0117618Y0307405D01*
X0117490Y0307276D01*
X0106163Y0307276D01*
X0104179Y0306454D01*
X0098820Y0301096D01*
X0097301Y0299577D01*
X0078619Y0280894D01*
X0053474Y0280894D01*
X0043188Y0291181D01*
X0043188Y0291363D01*
X0042195Y0293759D01*
X0040361Y0295594D01*
X0037964Y0296587D01*
X0025527Y0296587D01*
X0023130Y0295594D01*
X0021296Y0293759D01*
X0020303Y0291363D01*
X0020303Y0288768D01*
X0021296Y0286371D01*
X0023130Y0284537D01*
X0025527Y0283544D01*
X0035551Y0283544D01*
X0046660Y0272436D01*
X0048179Y0270917D01*
X0050163Y0270094D01*
X0048046Y0271049D02*
X0015697Y0271049D01*
X0015697Y0271848D02*
X0047247Y0271848D01*
X0046449Y0272646D02*
X0015697Y0272646D01*
X0015697Y0273445D02*
X0045650Y0273445D01*
X0044852Y0274243D02*
X0015697Y0274243D01*
X0015697Y0275042D02*
X0044053Y0275042D01*
X0043255Y0275840D02*
X0015697Y0275840D01*
X0015697Y0276639D02*
X0042456Y0276639D01*
X0041658Y0277437D02*
X0015697Y0277437D01*
X0015697Y0278236D02*
X0040859Y0278236D01*
X0040061Y0279034D02*
X0015697Y0279034D01*
X0015697Y0279833D02*
X0039262Y0279833D01*
X0038464Y0280631D02*
X0015697Y0280631D01*
X0015697Y0281430D02*
X0037665Y0281430D01*
X0036867Y0282228D02*
X0015697Y0282228D01*
X0015697Y0283027D02*
X0036068Y0283027D01*
X0043357Y0291012D02*
X0062417Y0291012D01*
X0062345Y0290563D02*
X0062345Y0290465D01*
X0068267Y0290465D01*
X0068267Y0289665D01*
X0069067Y0289665D01*
X0069067Y0290465D01*
X0078267Y0290465D01*
X0078267Y0289665D01*
X0074024Y0289665D01*
X0069067Y0289665D01*
X0069067Y0283744D01*
X0079007Y0283744D01*
X0079989Y0283900D01*
X0080936Y0284207D01*
X0081822Y0284659D01*
X0082627Y0285244D01*
X0083331Y0285947D01*
X0083916Y0286752D01*
X0084367Y0287639D01*
X0084675Y0288585D01*
X0084830Y0289568D01*
X0084830Y0289665D01*
X0079067Y0289665D01*
X0079067Y0290465D01*
X0084830Y0290465D01*
X0084830Y0290563D01*
X0084675Y0291546D01*
X0084367Y0292492D01*
X0083916Y0293378D01*
X0083331Y0294183D01*
X0082627Y0294887D01*
X0081822Y0295472D01*
X0080936Y0295923D01*
X0079989Y0296231D01*
X0079007Y0296387D01*
X0069067Y0296387D01*
X0069067Y0290465D01*
X0068267Y0290465D01*
X0068267Y0296387D01*
X0068169Y0296387D01*
X0067186Y0296231D01*
X0066240Y0295923D01*
X0065354Y0295472D01*
X0064549Y0294887D01*
X0063845Y0294183D01*
X0063260Y0293378D01*
X0062809Y0292492D01*
X0062501Y0291546D01*
X0062345Y0290563D01*
X0062345Y0289665D02*
X0062345Y0289568D01*
X0062501Y0288585D01*
X0062809Y0287639D01*
X0063260Y0286752D01*
X0063845Y0285947D01*
X0064549Y0285244D01*
X0065354Y0284659D01*
X0066240Y0284207D01*
X0067186Y0283900D01*
X0068169Y0283744D01*
X0068267Y0283744D01*
X0068267Y0289665D01*
X0062345Y0289665D01*
X0062370Y0289415D02*
X0044954Y0289415D01*
X0045752Y0288617D02*
X0062496Y0288617D01*
X0062750Y0287818D02*
X0046551Y0287818D01*
X0047349Y0287020D02*
X0063124Y0287020D01*
X0063646Y0286221D02*
X0048148Y0286221D01*
X0048946Y0285422D02*
X0064370Y0285422D01*
X0065422Y0284624D02*
X0049745Y0284624D01*
X0050543Y0283825D02*
X0067655Y0283825D01*
X0068267Y0283825D02*
X0069067Y0283825D01*
X0069067Y0284624D02*
X0068267Y0284624D01*
X0068267Y0285422D02*
X0069067Y0285422D01*
X0069067Y0286221D02*
X0068267Y0286221D01*
X0068267Y0287020D02*
X0069067Y0287020D01*
X0069067Y0287818D02*
X0068267Y0287818D01*
X0068267Y0288617D02*
X0069067Y0288617D01*
X0069067Y0289415D02*
X0068267Y0289415D01*
X0068267Y0290214D02*
X0044155Y0290214D01*
X0043002Y0291811D02*
X0062587Y0291811D01*
X0062868Y0292609D02*
X0042672Y0292609D01*
X0042341Y0293408D02*
X0063281Y0293408D01*
X0063868Y0294206D02*
X0041748Y0294206D01*
X0040950Y0295005D02*
X0064711Y0295005D01*
X0066004Y0295803D02*
X0039855Y0295803D01*
X0050673Y0305462D02*
X0051610Y0304524D01*
X0063959Y0304524D01*
X0064897Y0305462D01*
X0064897Y0321748D01*
X0063959Y0322685D01*
X0061413Y0322685D01*
X0061413Y0339916D01*
X0061421Y0339924D01*
X0061446Y0339938D01*
X0061452Y0339959D01*
X0061915Y0340461D01*
X0062454Y0340881D01*
X0062475Y0340885D01*
X0062491Y0340909D01*
X0062514Y0340927D01*
X0062516Y0340948D01*
X0062890Y0341520D01*
X0063352Y0342023D01*
X0063372Y0342030D01*
X0063384Y0342057D01*
X0063403Y0342078D01*
X0063403Y0342099D01*
X0063677Y0342725D01*
X0064051Y0343297D01*
X0064069Y0343308D01*
X0064076Y0343336D01*
X0064092Y0343360D01*
X0064087Y0343381D01*
X0064255Y0344043D01*
X0064529Y0344668D01*
X0064546Y0344682D01*
X0064548Y0344711D01*
X0064560Y0344738D01*
X0064552Y0344757D01*
X0064608Y0345438D01*
X0064776Y0346100D01*
X0064790Y0346117D01*
X0064787Y0346145D01*
X0064795Y0346173D01*
X0064784Y0346192D01*
X0064727Y0346872D01*
X0064784Y0347553D01*
X0064795Y0347572D01*
X0064787Y0347600D01*
X0064790Y0347628D01*
X0064776Y0347645D01*
X0064608Y0348307D01*
X0064552Y0348987D01*
X0064560Y0349007D01*
X0064548Y0349034D01*
X0064546Y0349063D01*
X0064529Y0349076D01*
X0064255Y0349702D01*
X0064087Y0350364D01*
X0064092Y0350385D01*
X0064076Y0350409D01*
X0064069Y0350437D01*
X0064051Y0350448D01*
X0063677Y0351020D01*
X0063403Y0351645D01*
X0063403Y0351667D01*
X0063384Y0351688D01*
X0063372Y0351714D01*
X0063352Y0351722D01*
X0062890Y0352225D01*
X0062516Y0352797D01*
X0062514Y0352818D01*
X0062491Y0352836D01*
X0062475Y0352860D01*
X0062454Y0352864D01*
X0061915Y0353284D01*
X0061452Y0353786D01*
X0061446Y0353807D01*
X0061421Y0353820D01*
X0061401Y0353842D01*
X0061380Y0353843D01*
X0060779Y0354168D01*
X0060240Y0354587D01*
X0060231Y0354606D01*
X0060204Y0354616D01*
X0060181Y0354633D01*
X0060160Y0354631D01*
X0059514Y0354853D01*
X0058913Y0355178D01*
X0058900Y0355195D01*
X0058872Y0355200D01*
X0058846Y0355214D01*
X0058826Y0355208D01*
X0058152Y0355320D01*
X0057506Y0355542D01*
X0057491Y0355557D01*
X0057462Y0355557D01*
X0057435Y0355566D01*
X0057416Y0355557D01*
X0056733Y0355557D01*
X0056059Y0355669D01*
X0056042Y0355682D01*
X0056013Y0355677D01*
X0055985Y0355682D01*
X0055967Y0355669D01*
X0055293Y0355557D01*
X0054610Y0355557D01*
X0054591Y0355566D01*
X0054564Y0355557D01*
X0054535Y0355557D01*
X0054520Y0355542D01*
X0053874Y0355320D01*
X0053200Y0355208D01*
X0053180Y0355214D01*
X0053154Y0355200D01*
X0053126Y0355195D01*
X0053113Y0355178D01*
X0052513Y0354853D01*
X0051867Y0354631D01*
X0051845Y0354633D01*
X0051823Y0354616D01*
X0051795Y0354606D01*
X0051786Y0354587D01*
X0051247Y0354168D01*
X0050646Y0353843D01*
X0050625Y0353842D01*
X0050605Y0353820D01*
X0050580Y0353807D01*
X0050574Y0353786D01*
X0050111Y0353284D01*
X0049572Y0352864D01*
X0049551Y0352860D01*
X0049535Y0352836D01*
X0049513Y0352818D01*
X0049510Y0352797D01*
X0049136Y0352225D01*
X0048674Y0351722D01*
X0048654Y0351714D01*
X0048642Y0351688D01*
X0048623Y0351667D01*
X0048624Y0351645D01*
X0048349Y0351020D01*
X0047976Y0350448D01*
X0047957Y0350437D01*
X0047950Y0350409D01*
X0047934Y0350385D01*
X0047939Y0350364D01*
X0047771Y0349702D01*
X0047497Y0349076D01*
X0047480Y0349063D01*
X0047478Y0349034D01*
X0047466Y0349007D01*
X0047474Y0348987D01*
X0047418Y0348307D01*
X0047250Y0347645D01*
X0047236Y0347628D01*
X0047239Y0347600D01*
X0047232Y0347572D01*
X0047243Y0347553D01*
X0047299Y0346872D01*
X0047243Y0346192D01*
X0047232Y0346173D01*
X0047239Y0346145D01*
X0047236Y0346117D01*
X0047250Y0346100D01*
X0047418Y0345438D01*
X0047474Y0344757D01*
X0047466Y0344738D01*
X0047478Y0344711D01*
X0047480Y0344682D01*
X0047497Y0344668D01*
X0047771Y0344043D01*
X0047939Y0343381D01*
X0047934Y0343360D01*
X0047950Y0343336D01*
X0047957Y0343308D01*
X0047976Y0343297D01*
X0048349Y0342725D01*
X0048624Y0342099D01*
X0048623Y0342078D01*
X0048642Y0342057D01*
X0048654Y0342030D01*
X0048674Y0342023D01*
X0049136Y0341520D01*
X0049510Y0340948D01*
X0049513Y0340927D01*
X0049535Y0340909D01*
X0049551Y0340885D01*
X0049572Y0340881D01*
X0050111Y0340461D01*
X0050574Y0339959D01*
X0050580Y0339938D01*
X0050605Y0339924D01*
X0050613Y0339916D01*
X0050613Y0314302D01*
X0050673Y0314158D01*
X0050673Y0305462D01*
X0050749Y0305385D02*
X0015697Y0305385D01*
X0015697Y0304587D02*
X0051548Y0304587D01*
X0050673Y0306184D02*
X0015697Y0306184D01*
X0015697Y0306982D02*
X0050673Y0306982D01*
X0050673Y0307781D02*
X0015697Y0307781D01*
X0015697Y0308579D02*
X0050673Y0308579D01*
X0050673Y0309378D02*
X0015697Y0309378D01*
X0015697Y0310176D02*
X0050673Y0310176D01*
X0050673Y0310975D02*
X0015697Y0310975D01*
X0015697Y0311773D02*
X0050673Y0311773D01*
X0050673Y0312572D02*
X0015697Y0312572D01*
X0015697Y0313370D02*
X0050673Y0313370D01*
X0050668Y0314169D02*
X0015697Y0314169D01*
X0015697Y0314967D02*
X0050613Y0314967D01*
X0050613Y0315766D02*
X0015697Y0315766D01*
X0015697Y0316564D02*
X0050613Y0316564D01*
X0050613Y0317363D02*
X0015697Y0317363D01*
X0015697Y0318161D02*
X0050613Y0318161D01*
X0050613Y0318960D02*
X0015697Y0318960D01*
X0015697Y0319758D02*
X0050613Y0319758D01*
X0050613Y0320557D02*
X0015697Y0320557D01*
X0015697Y0321355D02*
X0050613Y0321355D01*
X0050613Y0322154D02*
X0015697Y0322154D01*
X0015697Y0322953D02*
X0050613Y0322953D01*
X0050613Y0323751D02*
X0015697Y0323751D01*
X0015697Y0324550D02*
X0050613Y0324550D01*
X0050613Y0325348D02*
X0015697Y0325348D01*
X0015697Y0326147D02*
X0050613Y0326147D01*
X0050613Y0326945D02*
X0015697Y0326945D01*
X0015697Y0327744D02*
X0050613Y0327744D01*
X0050613Y0328542D02*
X0015697Y0328542D01*
X0015697Y0329341D02*
X0050613Y0329341D01*
X0050613Y0330139D02*
X0015697Y0330139D01*
X0015697Y0330938D02*
X0050613Y0330938D01*
X0050613Y0331736D02*
X0015697Y0331736D01*
X0015697Y0332535D02*
X0050613Y0332535D01*
X0050613Y0333333D02*
X0015697Y0333333D01*
X0015697Y0334132D02*
X0050613Y0334132D01*
X0050613Y0334930D02*
X0015697Y0334930D01*
X0015697Y0335729D02*
X0050613Y0335729D01*
X0050613Y0336527D02*
X0015697Y0336527D01*
X0015697Y0337326D02*
X0050613Y0337326D01*
X0050613Y0338124D02*
X0015697Y0338124D01*
X0015697Y0338923D02*
X0050613Y0338923D01*
X0050613Y0339721D02*
X0015697Y0339721D01*
X0015697Y0340520D02*
X0050036Y0340520D01*
X0049268Y0341318D02*
X0015697Y0341318D01*
X0015697Y0342117D02*
X0048616Y0342117D01*
X0048225Y0342915D02*
X0015697Y0342915D01*
X0015697Y0343714D02*
X0047854Y0343714D01*
X0047565Y0344512D02*
X0015697Y0344512D01*
X0015697Y0345311D02*
X0047428Y0345311D01*
X0047242Y0346109D02*
X0015697Y0346109D01*
X0015697Y0346908D02*
X0047296Y0346908D01*
X0047266Y0347706D02*
X0015697Y0347706D01*
X0015697Y0348505D02*
X0047434Y0348505D01*
X0047596Y0349303D02*
X0015697Y0349303D01*
X0015697Y0350102D02*
X0047872Y0350102D01*
X0048271Y0350900D02*
X0015697Y0350900D01*
X0015697Y0351699D02*
X0048647Y0351699D01*
X0049315Y0352497D02*
X0015697Y0352497D01*
X0015697Y0353296D02*
X0050123Y0353296D01*
X0051112Y0354094D02*
X0015697Y0354094D01*
X0015697Y0354893D02*
X0052587Y0354893D01*
X0059439Y0354893D02*
X0185618Y0354893D01*
X0186079Y0355691D02*
X0015697Y0355691D01*
X0015697Y0356490D02*
X0186625Y0356490D01*
X0187424Y0357289D02*
X0015697Y0357289D01*
X0015697Y0358087D02*
X0188222Y0358087D01*
X0189094Y0358886D02*
X0015697Y0358886D01*
X0060914Y0354094D02*
X0185157Y0354094D01*
X0184696Y0353296D02*
X0061904Y0353296D01*
X0062712Y0352497D02*
X0184461Y0352497D01*
X0184248Y0351699D02*
X0077765Y0351699D01*
X0077709Y0351727D02*
X0076925Y0351982D01*
X0076110Y0352111D01*
X0076098Y0352111D01*
X0076098Y0347272D01*
X0080937Y0347272D01*
X0080937Y0347285D01*
X0080808Y0348099D01*
X0080553Y0348883D01*
X0080179Y0349618D01*
X0079694Y0350285D01*
X0079111Y0350868D01*
X0078444Y0351353D01*
X0077709Y0351727D01*
X0079067Y0350900D02*
X0184034Y0350900D01*
X0183820Y0350102D02*
X0079827Y0350102D01*
X0080339Y0349303D02*
X0183744Y0349303D01*
X0183744Y0348505D02*
X0080676Y0348505D01*
X0080870Y0347706D02*
X0149984Y0347706D01*
X0149186Y0346908D02*
X0076098Y0346908D01*
X0076098Y0347272D02*
X0076098Y0346472D01*
X0076098Y0341634D01*
X0076110Y0341634D01*
X0076925Y0341763D01*
X0077709Y0342018D01*
X0078444Y0342392D01*
X0079111Y0342877D01*
X0079694Y0343460D01*
X0080179Y0344127D01*
X0080553Y0344862D01*
X0080808Y0345646D01*
X0080937Y0346460D01*
X0080937Y0346472D01*
X0076098Y0346472D01*
X0075298Y0346472D01*
X0075298Y0341634D01*
X0075286Y0341634D01*
X0074471Y0341763D01*
X0073687Y0342018D01*
X0072953Y0342392D01*
X0072285Y0342877D01*
X0071702Y0343460D01*
X0071218Y0344127D01*
X0070843Y0344862D01*
X0070589Y0345646D01*
X0070460Y0346460D01*
X0070460Y0346472D01*
X0075298Y0346472D01*
X0075298Y0347272D01*
X0070460Y0347272D01*
X0070460Y0347285D01*
X0070589Y0348099D01*
X0070843Y0348883D01*
X0071218Y0349618D01*
X0071702Y0350285D01*
X0072285Y0350868D01*
X0072953Y0351353D01*
X0073687Y0351727D01*
X0074471Y0351982D01*
X0075286Y0352111D01*
X0075298Y0352111D01*
X0075298Y0347272D01*
X0076098Y0347272D01*
X0076098Y0347706D02*
X0075298Y0347706D01*
X0075298Y0346908D02*
X0064730Y0346908D01*
X0064760Y0347706D02*
X0070526Y0347706D01*
X0070720Y0348505D02*
X0064592Y0348505D01*
X0064430Y0349303D02*
X0071057Y0349303D01*
X0071569Y0350102D02*
X0064154Y0350102D01*
X0063755Y0350900D02*
X0072330Y0350900D01*
X0073632Y0351699D02*
X0063379Y0351699D01*
X0064784Y0346109D02*
X0070515Y0346109D01*
X0070697Y0345311D02*
X0064598Y0345311D01*
X0064461Y0344512D02*
X0071021Y0344512D01*
X0071518Y0343714D02*
X0064172Y0343714D01*
X0063801Y0342915D02*
X0072247Y0342915D01*
X0073493Y0342117D02*
X0063410Y0342117D01*
X0062758Y0341318D02*
X0143596Y0341318D01*
X0142798Y0340520D02*
X0061990Y0340520D01*
X0061413Y0339721D02*
X0141999Y0339721D01*
X0141201Y0338923D02*
X0061413Y0338923D01*
X0061413Y0338124D02*
X0140402Y0338124D01*
X0139702Y0337326D02*
X0061413Y0337326D01*
X0061413Y0336527D02*
X0139372Y0336527D01*
X0139224Y0335729D02*
X0061413Y0335729D01*
X0061413Y0334930D02*
X0139224Y0334930D01*
X0139224Y0334132D02*
X0061413Y0334132D01*
X0061413Y0333333D02*
X0139224Y0333333D01*
X0139224Y0332535D02*
X0061413Y0332535D01*
X0061413Y0331736D02*
X0139224Y0331736D01*
X0139224Y0330938D02*
X0061413Y0330938D01*
X0061413Y0330139D02*
X0139224Y0330139D01*
X0139224Y0329341D02*
X0061413Y0329341D01*
X0061413Y0328542D02*
X0139224Y0328542D01*
X0139224Y0327744D02*
X0061413Y0327744D01*
X0061413Y0326945D02*
X0139224Y0326945D01*
X0139224Y0326147D02*
X0061413Y0326147D01*
X0061413Y0325348D02*
X0139224Y0325348D01*
X0139224Y0324550D02*
X0061413Y0324550D01*
X0061413Y0323751D02*
X0139224Y0323751D01*
X0139224Y0322953D02*
X0061413Y0322953D01*
X0064490Y0322154D02*
X0080213Y0322154D01*
X0079807Y0321748D02*
X0080744Y0322685D01*
X0093093Y0322685D01*
X0093860Y0321918D01*
X0102953Y0321918D01*
X0104938Y0321096D01*
X0106457Y0319577D01*
X0107279Y0317592D01*
X0107279Y0315444D01*
X0106457Y0313459D01*
X0104938Y0311940D01*
X0102953Y0311118D01*
X0094030Y0311118D01*
X0094030Y0305462D01*
X0093093Y0304524D01*
X0080744Y0304524D01*
X0079807Y0305462D01*
X0079807Y0321748D01*
X0079807Y0321355D02*
X0064897Y0321355D01*
X0064897Y0320557D02*
X0079807Y0320557D01*
X0079807Y0319758D02*
X0064897Y0319758D01*
X0064897Y0318960D02*
X0079807Y0318960D01*
X0079807Y0318161D02*
X0064897Y0318161D01*
X0064897Y0317363D02*
X0079807Y0317363D01*
X0079807Y0316564D02*
X0064897Y0316564D01*
X0064897Y0315766D02*
X0079807Y0315766D01*
X0079807Y0314967D02*
X0064897Y0314967D01*
X0064897Y0314169D02*
X0079807Y0314169D01*
X0079807Y0313370D02*
X0064897Y0313370D01*
X0064897Y0312572D02*
X0079807Y0312572D01*
X0079807Y0311773D02*
X0064897Y0311773D01*
X0064897Y0310975D02*
X0079807Y0310975D01*
X0079807Y0310176D02*
X0064897Y0310176D01*
X0064897Y0309378D02*
X0079807Y0309378D01*
X0079807Y0308579D02*
X0064897Y0308579D01*
X0064897Y0307781D02*
X0079807Y0307781D01*
X0079807Y0306982D02*
X0064897Y0306982D01*
X0064897Y0306184D02*
X0079807Y0306184D01*
X0079883Y0305385D02*
X0064820Y0305385D01*
X0064022Y0304587D02*
X0080682Y0304587D01*
X0081172Y0295803D02*
X0093528Y0295803D01*
X0094326Y0296602D02*
X0015697Y0296602D01*
X0015697Y0297400D02*
X0095125Y0297400D01*
X0095923Y0298199D02*
X0015697Y0298199D01*
X0015697Y0298997D02*
X0096722Y0298997D01*
X0097301Y0299577D02*
X0097301Y0299577D01*
X0097520Y0299796D02*
X0015697Y0299796D01*
X0015697Y0300594D02*
X0098319Y0300594D01*
X0098820Y0301096D02*
X0098820Y0301096D01*
X0099117Y0301393D02*
X0015697Y0301393D01*
X0015697Y0302191D02*
X0099916Y0302191D01*
X0100714Y0302990D02*
X0015697Y0302990D01*
X0015697Y0303788D02*
X0101513Y0303788D01*
X0102311Y0304587D02*
X0093156Y0304587D01*
X0093954Y0305385D02*
X0103110Y0305385D01*
X0103908Y0306184D02*
X0094030Y0306184D01*
X0094030Y0306982D02*
X0105453Y0306982D01*
X0104535Y0311773D02*
X0139224Y0311773D01*
X0139224Y0310975D02*
X0094030Y0310975D01*
X0094030Y0310176D02*
X0139224Y0310176D01*
X0139224Y0309378D02*
X0094030Y0309378D01*
X0094030Y0308579D02*
X0139224Y0308579D01*
X0139224Y0307781D02*
X0133941Y0307781D01*
X0135271Y0306982D02*
X0139224Y0306982D01*
X0139224Y0306184D02*
X0136070Y0306184D01*
X0136760Y0305385D02*
X0139224Y0305385D01*
X0139224Y0304587D02*
X0137091Y0304587D01*
X0137421Y0303788D02*
X0139224Y0303788D01*
X0139224Y0302990D02*
X0137676Y0302990D01*
X0137676Y0302191D02*
X0139224Y0302191D01*
X0139224Y0301393D02*
X0137676Y0301393D01*
X0137676Y0300594D02*
X0139224Y0300594D01*
X0139224Y0299796D02*
X0137352Y0299796D01*
X0137021Y0298997D02*
X0139224Y0298997D01*
X0139224Y0298199D02*
X0136690Y0298199D01*
X0135901Y0297400D02*
X0139224Y0297400D01*
X0139224Y0296602D02*
X0135103Y0296602D01*
X0133534Y0295803D02*
X0139224Y0295803D01*
X0139224Y0295005D02*
X0108003Y0295005D01*
X0108801Y0295803D02*
X0118934Y0295803D01*
X0107204Y0294206D02*
X0139224Y0294206D01*
X0139224Y0293408D02*
X0106405Y0293408D01*
X0105607Y0292609D02*
X0139224Y0292609D01*
X0139224Y0291811D02*
X0104808Y0291811D01*
X0104938Y0291940D02*
X0104938Y0291940D01*
X0104010Y0291012D02*
X0139224Y0291012D01*
X0139224Y0290214D02*
X0103211Y0290214D01*
X0102413Y0289415D02*
X0139224Y0289415D01*
X0139224Y0288617D02*
X0101614Y0288617D01*
X0100816Y0287818D02*
X0139224Y0287818D01*
X0139224Y0287020D02*
X0100017Y0287020D01*
X0099219Y0286221D02*
X0139224Y0286221D01*
X0139224Y0285422D02*
X0098420Y0285422D01*
X0097622Y0284624D02*
X0139224Y0284624D01*
X0139224Y0283825D02*
X0101287Y0283825D01*
X0100311Y0283825D02*
X0099511Y0283825D01*
X0099511Y0283027D02*
X0100311Y0283027D01*
X0100311Y0282228D02*
X0099511Y0282228D01*
X0099511Y0281430D02*
X0100311Y0281430D01*
X0100311Y0280631D02*
X0099511Y0280631D01*
X0099511Y0279833D02*
X0100311Y0279833D01*
X0100311Y0279034D02*
X0099511Y0279034D01*
X0099511Y0278236D02*
X0100311Y0278236D01*
X0100311Y0277437D02*
X0099511Y0277437D01*
X0099511Y0276639D02*
X0100311Y0276639D01*
X0100311Y0275840D02*
X0099511Y0275840D01*
X0099511Y0275042D02*
X0100311Y0275042D01*
X0100311Y0274243D02*
X0099511Y0274243D01*
X0099511Y0273445D02*
X0086443Y0273445D01*
X0087241Y0274243D02*
X0094086Y0274243D01*
X0094086Y0275042D02*
X0088040Y0275042D01*
X0088838Y0275840D02*
X0094086Y0275840D01*
X0094086Y0276639D02*
X0089637Y0276639D01*
X0090435Y0277437D02*
X0094086Y0277437D01*
X0094086Y0278236D02*
X0091234Y0278236D01*
X0092032Y0279034D02*
X0094154Y0279034D01*
X0094334Y0279833D02*
X0092831Y0279833D01*
X0093629Y0280631D02*
X0094639Y0280631D01*
X0094428Y0281430D02*
X0095095Y0281430D01*
X0095226Y0282228D02*
X0095754Y0282228D01*
X0096025Y0283027D02*
X0096716Y0283027D01*
X0096823Y0283825D02*
X0098535Y0283825D01*
X0103105Y0283027D02*
X0139224Y0283027D01*
X0139224Y0282228D02*
X0104068Y0282228D01*
X0104726Y0281430D02*
X0139224Y0281430D01*
X0139224Y0280631D02*
X0105183Y0280631D01*
X0105488Y0279833D02*
X0139224Y0279833D01*
X0139224Y0279034D02*
X0105668Y0279034D01*
X0105736Y0278236D02*
X0139224Y0278236D01*
X0139224Y0277437D02*
X0105736Y0277437D01*
X0105736Y0276639D02*
X0139224Y0276639D01*
X0139224Y0275840D02*
X0105736Y0275840D01*
X0105736Y0275042D02*
X0139224Y0275042D01*
X0139224Y0274243D02*
X0105736Y0274243D01*
X0105736Y0273323D02*
X0100311Y0273323D01*
X0100311Y0263473D01*
X0100369Y0263473D01*
X0101275Y0263616D01*
X0102147Y0263900D01*
X0102964Y0264316D01*
X0103705Y0264855D01*
X0104354Y0265503D01*
X0104893Y0266245D01*
X0105309Y0267062D01*
X0105592Y0267934D01*
X0105736Y0268839D01*
X0105736Y0273323D01*
X0105736Y0272646D02*
X0139224Y0272646D01*
X0139224Y0271848D02*
X0105736Y0271848D01*
X0105736Y0271049D02*
X0139224Y0271049D01*
X0139224Y0270251D02*
X0105736Y0270251D01*
X0105736Y0269452D02*
X0139224Y0269452D01*
X0139224Y0268654D02*
X0105706Y0268654D01*
X0105567Y0267855D02*
X0139224Y0267855D01*
X0139177Y0267057D02*
X0105306Y0267057D01*
X0104900Y0266258D02*
X0138379Y0266258D01*
X0137580Y0265460D02*
X0104310Y0265460D01*
X0103439Y0264661D02*
X0136782Y0264661D01*
X0135983Y0263863D02*
X0102033Y0263863D01*
X0100311Y0263863D02*
X0099511Y0263863D01*
X0099511Y0264661D02*
X0100311Y0264661D01*
X0100311Y0265460D02*
X0099511Y0265460D01*
X0099511Y0266258D02*
X0100311Y0266258D01*
X0100311Y0267057D02*
X0099511Y0267057D01*
X0099511Y0267855D02*
X0100311Y0267855D01*
X0100311Y0268654D02*
X0099511Y0268654D01*
X0099511Y0269452D02*
X0100311Y0269452D01*
X0100311Y0270251D02*
X0099511Y0270251D01*
X0099511Y0271049D02*
X0100311Y0271049D01*
X0100311Y0271848D02*
X0099511Y0271848D01*
X0099511Y0272646D02*
X0100311Y0272646D01*
X0100311Y0273445D02*
X0139224Y0273445D01*
X0155854Y0273445D02*
X0191262Y0273445D01*
X0191066Y0273414D02*
X0190371Y0273188D01*
X0189719Y0272856D01*
X0189127Y0272426D01*
X0188610Y0271908D01*
X0188179Y0271316D01*
X0187847Y0270665D01*
X0187621Y0269969D01*
X0187512Y0269280D01*
X0191755Y0269280D01*
X0191755Y0268480D01*
X0192555Y0268480D01*
X0192555Y0264238D01*
X0193243Y0264347D01*
X0193939Y0264573D01*
X0194591Y0264905D01*
X0195183Y0265335D01*
X0195700Y0265852D01*
X0196130Y0266444D01*
X0196462Y0267096D01*
X0196688Y0267792D01*
X0196797Y0268480D01*
X0192555Y0268480D01*
X0192555Y0269280D01*
X0196797Y0269280D01*
X0196688Y0269969D01*
X0196462Y0270665D01*
X0196130Y0271316D01*
X0195700Y0271908D01*
X0195183Y0272426D01*
X0194591Y0272856D01*
X0193939Y0273188D01*
X0193243Y0273414D01*
X0192555Y0273523D01*
X0192555Y0269280D01*
X0191755Y0269280D01*
X0191755Y0273523D01*
X0191066Y0273414D01*
X0191191Y0274032D02*
X0193119Y0274032D01*
X0194901Y0274770D01*
X0196265Y0276134D01*
X0197003Y0277916D01*
X0197003Y0279845D01*
X0196265Y0281627D01*
X0194901Y0282990D01*
X0193119Y0283728D01*
X0191191Y0283728D01*
X0189409Y0282990D01*
X0188045Y0281627D01*
X0187307Y0279845D01*
X0187307Y0277916D01*
X0188045Y0276134D01*
X0189409Y0274770D01*
X0191191Y0274032D01*
X0190681Y0274243D02*
X0155854Y0274243D01*
X0155854Y0275042D02*
X0189137Y0275042D01*
X0188339Y0275840D02*
X0155854Y0275840D01*
X0155854Y0276639D02*
X0187836Y0276639D01*
X0187505Y0277437D02*
X0155854Y0277437D01*
X0155854Y0278236D02*
X0187307Y0278236D01*
X0187307Y0279034D02*
X0155854Y0279034D01*
X0155854Y0279833D02*
X0187307Y0279833D01*
X0187633Y0280631D02*
X0155854Y0280631D01*
X0155854Y0281430D02*
X0187963Y0281430D01*
X0188647Y0282228D02*
X0155854Y0282228D01*
X0155854Y0283027D02*
X0189497Y0283027D01*
X0189762Y0284624D02*
X0155854Y0284624D01*
X0155854Y0285422D02*
X0188757Y0285422D01*
X0189409Y0284770D02*
X0191191Y0284032D01*
X0193119Y0284032D01*
X0194901Y0284770D01*
X0196265Y0286134D01*
X0197003Y0287916D01*
X0197003Y0289845D01*
X0196265Y0291627D01*
X0194901Y0292990D01*
X0193119Y0293728D01*
X0191191Y0293728D01*
X0189409Y0292990D01*
X0188045Y0291627D01*
X0187307Y0289845D01*
X0187307Y0287916D01*
X0188045Y0286134D01*
X0189409Y0284770D01*
X0188009Y0286221D02*
X0155854Y0286221D01*
X0155854Y0287020D02*
X0187678Y0287020D01*
X0187347Y0287818D02*
X0155854Y0287818D01*
X0155854Y0288617D02*
X0187307Y0288617D01*
X0187307Y0289415D02*
X0155854Y0289415D01*
X0155854Y0290214D02*
X0187460Y0290214D01*
X0187790Y0291012D02*
X0155854Y0291012D01*
X0155854Y0291811D02*
X0188229Y0291811D01*
X0189027Y0292609D02*
X0155854Y0292609D01*
X0155854Y0293408D02*
X0190416Y0293408D01*
X0190771Y0294206D02*
X0155854Y0294206D01*
X0155854Y0295005D02*
X0189174Y0295005D01*
X0189409Y0294770D02*
X0191191Y0294032D01*
X0193119Y0294032D01*
X0194901Y0294770D01*
X0196265Y0296134D01*
X0197003Y0297916D01*
X0197003Y0299845D01*
X0196265Y0301627D01*
X0194901Y0302990D01*
X0193119Y0303728D01*
X0191191Y0303728D01*
X0189409Y0302990D01*
X0188045Y0301627D01*
X0187307Y0299845D01*
X0187307Y0297916D01*
X0188045Y0296134D01*
X0189409Y0294770D01*
X0188376Y0295803D02*
X0174762Y0295803D01*
X0174478Y0295711D02*
X0175424Y0296018D01*
X0176310Y0296470D01*
X0177115Y0297055D01*
X0177819Y0297758D01*
X0178404Y0298563D01*
X0178855Y0299450D01*
X0179163Y0300396D01*
X0179319Y0301379D01*
X0179319Y0301476D01*
X0173555Y0301476D01*
X0173555Y0302276D01*
X0179319Y0302276D01*
X0179319Y0302374D01*
X0179163Y0303357D01*
X0178855Y0304303D01*
X0178404Y0305189D01*
X0177819Y0305994D01*
X0177115Y0306698D01*
X0176310Y0307283D01*
X0175424Y0307735D01*
X0174478Y0308042D01*
X0173495Y0308198D01*
X0163555Y0308198D01*
X0163555Y0302276D01*
X0172755Y0302276D01*
X0172755Y0301476D01*
X0168512Y0301476D01*
X0163555Y0301476D01*
X0163555Y0295555D01*
X0173495Y0295555D01*
X0174478Y0295711D01*
X0176492Y0296602D02*
X0187851Y0296602D01*
X0187520Y0297400D02*
X0177461Y0297400D01*
X0178139Y0298199D02*
X0187307Y0298199D01*
X0187307Y0298997D02*
X0178625Y0298997D01*
X0178968Y0299796D02*
X0187307Y0299796D01*
X0187617Y0300594D02*
X0179194Y0300594D01*
X0179319Y0301393D02*
X0187948Y0301393D01*
X0188610Y0302191D02*
X0173555Y0302191D01*
X0172755Y0302191D02*
X0163555Y0302191D01*
X0163555Y0302276D02*
X0163555Y0301476D01*
X0162755Y0301476D01*
X0162755Y0295555D01*
X0162657Y0295555D01*
X0161675Y0295711D01*
X0160728Y0296018D01*
X0159842Y0296470D01*
X0159037Y0297055D01*
X0158333Y0297758D01*
X0157748Y0298563D01*
X0157297Y0299450D01*
X0156989Y0300396D01*
X0156834Y0301379D01*
X0156834Y0301476D01*
X0162755Y0301476D01*
X0162755Y0302276D01*
X0156834Y0302276D01*
X0156834Y0302374D01*
X0156989Y0303357D01*
X0157297Y0304303D01*
X0157748Y0305189D01*
X0158333Y0305994D01*
X0159037Y0306698D01*
X0159842Y0307283D01*
X0160728Y0307735D01*
X0161675Y0308042D01*
X0162657Y0308198D01*
X0162755Y0308198D01*
X0162755Y0302276D01*
X0163555Y0302276D01*
X0163555Y0302990D02*
X0162755Y0302990D01*
X0162755Y0303788D02*
X0163555Y0303788D01*
X0163555Y0304587D02*
X0162755Y0304587D01*
X0162755Y0305385D02*
X0163555Y0305385D01*
X0163555Y0306184D02*
X0162755Y0306184D01*
X0162755Y0306982D02*
X0163555Y0306982D01*
X0163555Y0307781D02*
X0162755Y0307781D01*
X0160871Y0307781D02*
X0155854Y0307781D01*
X0155854Y0308579D02*
X0191755Y0308579D01*
X0191755Y0308480D02*
X0187512Y0308480D01*
X0187621Y0307792D01*
X0187847Y0307096D01*
X0188179Y0306444D01*
X0188610Y0305852D01*
X0189127Y0305335D01*
X0189719Y0304905D01*
X0190371Y0304573D01*
X0191066Y0304347D01*
X0191755Y0304238D01*
X0191755Y0308480D01*
X0191755Y0307781D02*
X0192555Y0307781D01*
X0192555Y0308579D02*
X0197307Y0308579D01*
X0197307Y0309378D02*
X0196782Y0309378D01*
X0196685Y0307781D02*
X0197363Y0307781D01*
X0197694Y0306982D02*
X0196404Y0306982D01*
X0195941Y0306184D02*
X0198024Y0306184D01*
X0198794Y0305385D02*
X0195233Y0305385D01*
X0193966Y0304587D02*
X0199852Y0304587D01*
X0201191Y0303728D02*
X0199409Y0302990D01*
X0198045Y0301627D01*
X0197307Y0299845D01*
X0197307Y0297916D01*
X0198045Y0296134D01*
X0199409Y0294770D01*
X0201191Y0294032D01*
X0203119Y0294032D01*
X0204901Y0294770D01*
X0206265Y0296134D01*
X0207003Y0297916D01*
X0207003Y0299845D01*
X0206265Y0301627D01*
X0204901Y0302990D01*
X0203119Y0303728D01*
X0201191Y0303728D01*
X0199408Y0302990D02*
X0194902Y0302990D01*
X0195700Y0302191D02*
X0198610Y0302191D01*
X0197948Y0301393D02*
X0196362Y0301393D01*
X0196692Y0300594D02*
X0197617Y0300594D01*
X0197307Y0299796D02*
X0197003Y0299796D01*
X0197003Y0298997D02*
X0197307Y0298997D01*
X0197307Y0298199D02*
X0197003Y0298199D01*
X0196789Y0297400D02*
X0197520Y0297400D01*
X0197851Y0296602D02*
X0196458Y0296602D01*
X0195934Y0295803D02*
X0198376Y0295803D01*
X0199174Y0295005D02*
X0195135Y0295005D01*
X0193539Y0294206D02*
X0200771Y0294206D01*
X0201047Y0293408D02*
X0193894Y0293408D01*
X0195282Y0292609D02*
X0199379Y0292609D01*
X0199127Y0292426D02*
X0198610Y0291908D01*
X0198179Y0291316D01*
X0197847Y0290665D01*
X0197621Y0289969D01*
X0197512Y0289280D01*
X0201755Y0289280D01*
X0201755Y0288480D01*
X0202555Y0288480D01*
X0202555Y0284238D01*
X0203243Y0284347D01*
X0203939Y0284573D01*
X0204591Y0284905D01*
X0205183Y0285335D01*
X0205700Y0285852D01*
X0206130Y0286444D01*
X0206462Y0287096D01*
X0206688Y0287792D01*
X0206797Y0288480D01*
X0202555Y0288480D01*
X0202555Y0289280D01*
X0206797Y0289280D01*
X0206688Y0289969D01*
X0206462Y0290665D01*
X0206130Y0291316D01*
X0205700Y0291908D01*
X0205183Y0292426D01*
X0204591Y0292856D01*
X0203939Y0293188D01*
X0203243Y0293414D01*
X0202555Y0293523D01*
X0202555Y0289280D01*
X0201755Y0289280D01*
X0201755Y0293523D01*
X0201066Y0293414D01*
X0200371Y0293188D01*
X0199719Y0292856D01*
X0199127Y0292426D01*
X0198539Y0291811D02*
X0196081Y0291811D01*
X0196519Y0291012D02*
X0198024Y0291012D01*
X0197701Y0290214D02*
X0196850Y0290214D01*
X0197003Y0289415D02*
X0197534Y0289415D01*
X0197512Y0288480D02*
X0197621Y0287792D01*
X0197847Y0287096D01*
X0198179Y0286444D01*
X0198610Y0285852D01*
X0199127Y0285335D01*
X0199719Y0284905D01*
X0200371Y0284573D01*
X0201066Y0284347D01*
X0201755Y0284238D01*
X0201755Y0288480D01*
X0197512Y0288480D01*
X0197003Y0288617D02*
X0201755Y0288617D01*
X0201755Y0289415D02*
X0202555Y0289415D01*
X0202555Y0288617D02*
X0362761Y0288617D01*
X0362547Y0289415D02*
X0206776Y0289415D01*
X0206609Y0290214D02*
X0362333Y0290214D01*
X0362119Y0291012D02*
X0206285Y0291012D01*
X0205771Y0291811D02*
X0362090Y0291811D01*
X0362090Y0291118D02*
X0363031Y0287607D01*
X0364848Y0284459D01*
X0367419Y0281889D01*
X0370567Y0280071D01*
X0374078Y0279131D01*
X0377712Y0279131D01*
X0381223Y0280071D01*
X0384371Y0281889D01*
X0386942Y0284459D01*
X0388759Y0287607D01*
X0389700Y0291118D01*
X0389700Y0294753D01*
X0388759Y0298264D01*
X0386942Y0301412D01*
X0384371Y0303982D01*
X0381223Y0305799D01*
X0377712Y0306740D01*
X0374078Y0306740D01*
X0370567Y0305799D01*
X0367419Y0303982D01*
X0364848Y0301412D01*
X0363031Y0298264D01*
X0362090Y0294753D01*
X0362090Y0291118D01*
X0362090Y0292609D02*
X0204930Y0292609D01*
X0203263Y0293408D02*
X0362090Y0293408D01*
X0362090Y0294206D02*
X0203539Y0294206D01*
X0202555Y0293408D02*
X0201755Y0293408D01*
X0201755Y0292609D02*
X0202555Y0292609D01*
X0202555Y0291811D02*
X0201755Y0291811D01*
X0201755Y0291012D02*
X0202555Y0291012D01*
X0202555Y0290214D02*
X0201755Y0290214D01*
X0201755Y0287818D02*
X0202555Y0287818D01*
X0202555Y0287020D02*
X0201755Y0287020D01*
X0201755Y0286221D02*
X0202555Y0286221D01*
X0202555Y0285422D02*
X0201755Y0285422D01*
X0201755Y0284624D02*
X0202555Y0284624D01*
X0203119Y0283728D02*
X0201191Y0283728D01*
X0199409Y0282990D01*
X0198045Y0281627D01*
X0197307Y0279845D01*
X0197307Y0277916D01*
X0198045Y0276134D01*
X0199409Y0274770D01*
X0201191Y0274032D01*
X0203119Y0274032D01*
X0204901Y0274770D01*
X0206265Y0276134D01*
X0207003Y0277916D01*
X0207003Y0279845D01*
X0206265Y0281627D01*
X0204901Y0282990D01*
X0203119Y0283728D01*
X0204039Y0284624D02*
X0364753Y0284624D01*
X0364292Y0285422D02*
X0205270Y0285422D01*
X0205968Y0286221D02*
X0363831Y0286221D01*
X0363370Y0287020D02*
X0206423Y0287020D01*
X0206693Y0287818D02*
X0362975Y0287818D01*
X0365482Y0283825D02*
X0155854Y0283825D01*
X0155854Y0272646D02*
X0189431Y0272646D01*
X0188566Y0271848D02*
X0155854Y0271848D01*
X0155854Y0271049D02*
X0188043Y0271049D01*
X0187713Y0270251D02*
X0155854Y0270251D01*
X0155854Y0269452D02*
X0187539Y0269452D01*
X0187512Y0268480D02*
X0187621Y0267792D01*
X0187847Y0267096D01*
X0188179Y0266444D01*
X0188610Y0265852D01*
X0189127Y0265335D01*
X0189719Y0264905D01*
X0190371Y0264573D01*
X0191066Y0264347D01*
X0191755Y0264238D01*
X0191755Y0268480D01*
X0187512Y0268480D01*
X0187611Y0267855D02*
X0155854Y0267855D01*
X0155854Y0267057D02*
X0187867Y0267057D01*
X0188315Y0266258D02*
X0155854Y0266258D01*
X0155854Y0265460D02*
X0189002Y0265460D01*
X0190197Y0264661D02*
X0155854Y0264661D01*
X0155854Y0263863D02*
X0401448Y0263863D01*
X0401448Y0264661D02*
X0204638Y0264661D01*
X0204901Y0264770D02*
X0206265Y0266134D01*
X0207003Y0267916D01*
X0207003Y0269845D01*
X0206265Y0271627D01*
X0204901Y0272990D01*
X0203119Y0273728D01*
X0201191Y0273728D01*
X0199409Y0272990D01*
X0198045Y0271627D01*
X0197307Y0269845D01*
X0197307Y0267916D01*
X0198045Y0266134D01*
X0199409Y0264770D01*
X0201191Y0264032D01*
X0203119Y0264032D01*
X0204901Y0264770D01*
X0205590Y0265460D02*
X0401448Y0265460D01*
X0401448Y0266258D02*
X0206316Y0266258D01*
X0206647Y0267057D02*
X0401448Y0267057D01*
X0401448Y0267855D02*
X0206978Y0267855D01*
X0207003Y0268654D02*
X0401448Y0268654D01*
X0401448Y0269452D02*
X0207003Y0269452D01*
X0206835Y0270251D02*
X0401448Y0270251D01*
X0401448Y0271049D02*
X0206504Y0271049D01*
X0206044Y0271848D02*
X0401448Y0271848D01*
X0401448Y0272646D02*
X0205245Y0272646D01*
X0203804Y0273445D02*
X0401448Y0273445D01*
X0401448Y0274243D02*
X0203629Y0274243D01*
X0205173Y0275042D02*
X0401448Y0275042D01*
X0401448Y0275840D02*
X0205971Y0275840D01*
X0206474Y0276639D02*
X0401448Y0276639D01*
X0401448Y0277437D02*
X0206805Y0277437D01*
X0207003Y0278236D02*
X0401448Y0278236D01*
X0401448Y0279034D02*
X0207003Y0279034D01*
X0207003Y0279833D02*
X0371457Y0279833D01*
X0369597Y0280631D02*
X0206677Y0280631D01*
X0206346Y0281430D02*
X0368214Y0281430D01*
X0367079Y0282228D02*
X0205663Y0282228D01*
X0204812Y0283027D02*
X0366281Y0283027D01*
X0362158Y0295005D02*
X0205135Y0295005D01*
X0205934Y0295803D02*
X0362372Y0295803D01*
X0362586Y0296602D02*
X0206458Y0296602D01*
X0206789Y0297400D02*
X0362800Y0297400D01*
X0363014Y0298199D02*
X0207003Y0298199D01*
X0207003Y0298997D02*
X0363454Y0298997D01*
X0363915Y0299796D02*
X0207003Y0299796D01*
X0206692Y0300594D02*
X0364376Y0300594D01*
X0364837Y0301393D02*
X0206362Y0301393D01*
X0205700Y0302191D02*
X0365628Y0302191D01*
X0366426Y0302990D02*
X0204902Y0302990D01*
X0204458Y0304587D02*
X0368466Y0304587D01*
X0367225Y0303788D02*
X0179023Y0303788D01*
X0179221Y0302990D02*
X0189408Y0302990D01*
X0190343Y0304587D02*
X0178711Y0304587D01*
X0178262Y0305385D02*
X0189077Y0305385D01*
X0188369Y0306184D02*
X0177630Y0306184D01*
X0176724Y0306982D02*
X0187905Y0306982D01*
X0187625Y0307781D02*
X0175281Y0307781D01*
X0183740Y0315766D02*
X0155854Y0315766D01*
X0155854Y0316564D02*
X0183147Y0316564D01*
X0183147Y0317363D02*
X0155854Y0317363D01*
X0155854Y0318161D02*
X0183147Y0318161D01*
X0183147Y0318960D02*
X0155854Y0318960D01*
X0155854Y0319758D02*
X0183147Y0319758D01*
X0183147Y0320557D02*
X0155854Y0320557D01*
X0155854Y0314967D02*
X0184539Y0314967D01*
X0185337Y0314169D02*
X0155854Y0314169D01*
X0155854Y0313370D02*
X0186136Y0313370D01*
X0186934Y0312572D02*
X0155854Y0312572D01*
X0155854Y0311773D02*
X0187287Y0311773D01*
X0187287Y0310975D02*
X0155854Y0310975D01*
X0155854Y0310176D02*
X0187533Y0310176D01*
X0187528Y0309378D02*
X0155854Y0309378D01*
X0155854Y0306982D02*
X0159428Y0306982D01*
X0158523Y0306184D02*
X0155854Y0306184D01*
X0155854Y0305385D02*
X0157891Y0305385D01*
X0157441Y0304587D02*
X0155854Y0304587D01*
X0155854Y0303788D02*
X0157129Y0303788D01*
X0156931Y0302990D02*
X0155854Y0302990D01*
X0155854Y0302191D02*
X0162755Y0302191D01*
X0162755Y0301393D02*
X0163555Y0301393D01*
X0163555Y0300594D02*
X0162755Y0300594D01*
X0162755Y0299796D02*
X0163555Y0299796D01*
X0163555Y0298997D02*
X0162755Y0298997D01*
X0162755Y0298199D02*
X0163555Y0298199D01*
X0163555Y0297400D02*
X0162755Y0297400D01*
X0162755Y0296602D02*
X0163555Y0296602D01*
X0163555Y0295803D02*
X0162755Y0295803D01*
X0161390Y0295803D02*
X0155854Y0295803D01*
X0155854Y0296602D02*
X0159661Y0296602D01*
X0158691Y0297400D02*
X0155854Y0297400D01*
X0155854Y0298199D02*
X0158013Y0298199D01*
X0157527Y0298997D02*
X0155854Y0298997D01*
X0155854Y0299796D02*
X0157184Y0299796D01*
X0156958Y0300594D02*
X0155854Y0300594D01*
X0155854Y0301393D02*
X0156834Y0301393D01*
X0139224Y0312572D02*
X0105570Y0312572D01*
X0106368Y0313370D02*
X0139224Y0313370D01*
X0139224Y0314169D02*
X0106751Y0314169D01*
X0107082Y0314967D02*
X0139224Y0314967D01*
X0139224Y0315766D02*
X0107279Y0315766D01*
X0107279Y0316564D02*
X0139224Y0316564D01*
X0139224Y0317363D02*
X0107279Y0317363D01*
X0107043Y0318161D02*
X0139224Y0318161D01*
X0139224Y0318960D02*
X0106713Y0318960D01*
X0106276Y0319758D02*
X0139224Y0319758D01*
X0139224Y0320557D02*
X0105477Y0320557D01*
X0104312Y0321355D02*
X0139224Y0321355D01*
X0139224Y0322154D02*
X0093624Y0322154D01*
X0094030Y0307781D02*
X0118526Y0307781D01*
X0092729Y0295005D02*
X0082465Y0295005D01*
X0083308Y0294206D02*
X0091931Y0294206D01*
X0091132Y0293408D02*
X0083894Y0293408D01*
X0084308Y0292609D02*
X0090334Y0292609D01*
X0089535Y0291811D02*
X0084589Y0291811D01*
X0084759Y0291012D02*
X0088736Y0291012D01*
X0087938Y0290214D02*
X0079067Y0290214D01*
X0078267Y0290214D02*
X0069067Y0290214D01*
X0069067Y0291012D02*
X0068267Y0291012D01*
X0068267Y0291811D02*
X0069067Y0291811D01*
X0069067Y0292609D02*
X0068267Y0292609D01*
X0068267Y0293408D02*
X0069067Y0293408D01*
X0069067Y0294206D02*
X0068267Y0294206D01*
X0068267Y0295005D02*
X0069067Y0295005D01*
X0069067Y0295803D02*
X0068267Y0295803D01*
X0079520Y0283825D02*
X0081550Y0283825D01*
X0081754Y0284624D02*
X0082348Y0284624D01*
X0082806Y0285422D02*
X0083147Y0285422D01*
X0083530Y0286221D02*
X0083945Y0286221D01*
X0084052Y0287020D02*
X0084744Y0287020D01*
X0084426Y0287818D02*
X0085542Y0287818D01*
X0086341Y0288617D02*
X0084680Y0288617D01*
X0084806Y0289415D02*
X0087139Y0289415D01*
X0080751Y0283027D02*
X0051342Y0283027D01*
X0052140Y0282228D02*
X0079953Y0282228D01*
X0079154Y0281430D02*
X0052939Y0281430D01*
X0024848Y0283825D02*
X0015697Y0283825D01*
X0015697Y0284624D02*
X0023043Y0284624D01*
X0022245Y0285422D02*
X0015697Y0285422D01*
X0015697Y0286221D02*
X0021446Y0286221D01*
X0021027Y0287020D02*
X0015697Y0287020D01*
X0015697Y0287818D02*
X0020696Y0287818D01*
X0020366Y0288617D02*
X0015697Y0288617D01*
X0015697Y0289415D02*
X0020303Y0289415D01*
X0020303Y0290214D02*
X0015697Y0290214D01*
X0015697Y0291012D02*
X0020303Y0291012D01*
X0020488Y0291811D02*
X0015697Y0291811D01*
X0015697Y0292609D02*
X0020819Y0292609D01*
X0021150Y0293408D02*
X0015697Y0293408D01*
X0015697Y0294206D02*
X0021742Y0294206D01*
X0022541Y0295005D02*
X0015697Y0295005D01*
X0015697Y0295803D02*
X0023636Y0295803D01*
X0075298Y0342117D02*
X0076098Y0342117D01*
X0076098Y0342915D02*
X0075298Y0342915D01*
X0075298Y0343714D02*
X0076098Y0343714D01*
X0076098Y0344512D02*
X0075298Y0344512D01*
X0075298Y0345311D02*
X0076098Y0345311D01*
X0076098Y0346109D02*
X0075298Y0346109D01*
X0075298Y0348505D02*
X0076098Y0348505D01*
X0076098Y0349303D02*
X0075298Y0349303D01*
X0075298Y0350102D02*
X0076098Y0350102D01*
X0076098Y0350900D02*
X0075298Y0350900D01*
X0075298Y0351699D02*
X0076098Y0351699D01*
X0080881Y0346109D02*
X0148387Y0346109D01*
X0147589Y0345311D02*
X0080699Y0345311D01*
X0080375Y0344512D02*
X0146790Y0344512D01*
X0145992Y0343714D02*
X0079879Y0343714D01*
X0079149Y0342915D02*
X0145193Y0342915D01*
X0144395Y0342117D02*
X0077904Y0342117D01*
X0085644Y0272646D02*
X0094086Y0272646D01*
X0094086Y0271848D02*
X0084846Y0271848D01*
X0084047Y0271049D02*
X0094086Y0271049D01*
X0094086Y0270251D02*
X0082307Y0270251D01*
X0155854Y0268654D02*
X0191755Y0268654D01*
X0191755Y0269452D02*
X0192555Y0269452D01*
X0192555Y0268654D02*
X0197307Y0268654D01*
X0197307Y0269452D02*
X0196770Y0269452D01*
X0196597Y0270251D02*
X0197475Y0270251D01*
X0197806Y0271049D02*
X0196266Y0271049D01*
X0195744Y0271848D02*
X0198266Y0271848D01*
X0199065Y0272646D02*
X0194879Y0272646D01*
X0193048Y0273445D02*
X0200506Y0273445D01*
X0200681Y0274243D02*
X0193629Y0274243D01*
X0192555Y0273445D02*
X0191755Y0273445D01*
X0191755Y0272646D02*
X0192555Y0272646D01*
X0192555Y0271848D02*
X0191755Y0271848D01*
X0191755Y0271049D02*
X0192555Y0271049D01*
X0192555Y0270251D02*
X0191755Y0270251D01*
X0191755Y0267855D02*
X0192555Y0267855D01*
X0192555Y0267057D02*
X0191755Y0267057D01*
X0191755Y0266258D02*
X0192555Y0266258D01*
X0192555Y0265460D02*
X0191755Y0265460D01*
X0191755Y0264661D02*
X0192555Y0264661D01*
X0193119Y0263728D02*
X0191191Y0263728D01*
X0189409Y0262990D01*
X0188045Y0261627D01*
X0187307Y0259845D01*
X0187307Y0257916D01*
X0188045Y0256134D01*
X0189409Y0254770D01*
X0191191Y0254032D01*
X0193119Y0254032D01*
X0194901Y0254770D01*
X0196265Y0256134D01*
X0197003Y0257916D01*
X0197003Y0259845D01*
X0196265Y0261627D01*
X0194901Y0262990D01*
X0193119Y0263728D01*
X0194113Y0264661D02*
X0199672Y0264661D01*
X0198719Y0265460D02*
X0195308Y0265460D01*
X0195995Y0266258D02*
X0197993Y0266258D01*
X0197663Y0267057D02*
X0196442Y0267057D01*
X0196698Y0267855D02*
X0197332Y0267855D01*
X0199409Y0262990D02*
X0198045Y0261627D01*
X0197307Y0259845D01*
X0197307Y0257916D01*
X0198045Y0256134D01*
X0199409Y0254770D01*
X0201191Y0254032D01*
X0203119Y0254032D01*
X0204901Y0254770D01*
X0206265Y0256134D01*
X0207003Y0257916D01*
X0207003Y0259845D01*
X0206265Y0261627D01*
X0204901Y0262990D01*
X0203119Y0263728D01*
X0201191Y0263728D01*
X0199409Y0262990D01*
X0199587Y0263064D02*
X0194723Y0263064D01*
X0195626Y0262266D02*
X0198684Y0262266D01*
X0197979Y0261467D02*
X0196331Y0261467D01*
X0196662Y0260669D02*
X0197648Y0260669D01*
X0197317Y0259870D02*
X0196992Y0259870D01*
X0197003Y0259072D02*
X0197307Y0259072D01*
X0197307Y0258273D02*
X0197003Y0258273D01*
X0196820Y0257475D02*
X0197490Y0257475D01*
X0197820Y0256676D02*
X0196489Y0256676D01*
X0196008Y0255878D02*
X0198301Y0255878D01*
X0199100Y0255079D02*
X0195210Y0255079D01*
X0193719Y0254281D02*
X0200591Y0254281D01*
X0200596Y0253482D02*
X0193714Y0253482D01*
X0193119Y0253728D02*
X0191191Y0253728D01*
X0189409Y0252990D01*
X0188045Y0251627D01*
X0187307Y0249845D01*
X0187307Y0247916D01*
X0188045Y0246134D01*
X0189409Y0244770D01*
X0191191Y0244032D01*
X0193119Y0244032D01*
X0194901Y0244770D01*
X0196265Y0246134D01*
X0197003Y0247916D01*
X0197003Y0249845D01*
X0196265Y0251627D01*
X0194901Y0252990D01*
X0193119Y0253728D01*
X0195208Y0252684D02*
X0199102Y0252684D01*
X0199409Y0252990D02*
X0198045Y0251627D01*
X0197307Y0249845D01*
X0197307Y0249738D01*
X0197279Y0249711D01*
X0197279Y0244943D01*
X0196326Y0243991D01*
X0195611Y0243276D01*
X0193689Y0243276D01*
X0193684Y0243271D01*
X0193243Y0243414D01*
X0192555Y0243523D01*
X0192555Y0239280D01*
X0191755Y0239280D01*
X0191755Y0238480D01*
X0192555Y0238480D01*
X0192555Y0234238D01*
X0192752Y0234269D01*
X0192752Y0233728D01*
X0191191Y0233728D01*
X0189409Y0232990D01*
X0188045Y0231627D01*
X0187307Y0229845D01*
X0187307Y0229443D01*
X0187299Y0229435D01*
X0187299Y0198168D01*
X0187307Y0198160D01*
X0187307Y0197916D01*
X0188045Y0196134D01*
X0189409Y0194770D01*
X0191191Y0194032D01*
X0192752Y0194032D01*
X0192752Y0193492D01*
X0192555Y0193523D01*
X0192555Y0189642D01*
X0191836Y0189642D01*
X0191755Y0189560D01*
X0191755Y0193523D01*
X0191066Y0193414D01*
X0190371Y0193188D01*
X0189719Y0192856D01*
X0189127Y0192426D01*
X0188610Y0191908D01*
X0188179Y0191316D01*
X0187847Y0190665D01*
X0187621Y0189969D01*
X0187512Y0189280D01*
X0191475Y0189280D01*
X0190675Y0188480D01*
X0187512Y0188480D01*
X0187621Y0187792D01*
X0187761Y0187363D01*
X0187740Y0187342D01*
X0187740Y0185561D01*
X0186887Y0184709D01*
X0179480Y0177302D01*
X0178308Y0176130D01*
X0178308Y0165047D01*
X0157112Y0165047D01*
X0157110Y0165046D01*
X0156167Y0165046D01*
X0153824Y0162703D01*
X0153824Y0160087D01*
X0127834Y0160087D01*
X0127824Y0160096D01*
X0125186Y0160096D01*
X0123321Y0158231D01*
X0123321Y0158217D01*
X0119875Y0154772D01*
X0115154Y0154772D01*
X0114954Y0154572D01*
X0112732Y0154572D01*
X0112732Y0150619D01*
X0111932Y0150619D01*
X0111932Y0154572D01*
X0109589Y0154572D01*
X0109233Y0154476D01*
X0108913Y0154292D01*
X0108653Y0154031D01*
X0108468Y0153712D01*
X0108373Y0153356D01*
X0108373Y0150619D01*
X0111932Y0150619D01*
X0111932Y0149819D01*
X0108373Y0149819D01*
X0108373Y0147082D01*
X0108468Y0146726D01*
X0108653Y0146407D01*
X0108913Y0146146D01*
X0109233Y0145962D01*
X0109589Y0145866D01*
X0111932Y0145866D01*
X0111932Y0149819D01*
X0112732Y0149819D01*
X0112732Y0145866D01*
X0114954Y0145866D01*
X0115154Y0145666D01*
X0116185Y0145666D01*
X0116185Y0137784D01*
X0117122Y0136847D01*
X0122712Y0136847D01*
X0122712Y0129699D01*
X0099979Y0129699D01*
X0099979Y0137088D01*
X0100082Y0137068D01*
X0100082Y0141551D01*
X0100882Y0141551D01*
X0100882Y0142351D01*
X0103682Y0142351D01*
X0103682Y0143966D01*
X0103559Y0144585D01*
X0103317Y0145167D01*
X0102967Y0145691D01*
X0102521Y0146137D01*
X0101997Y0146487D01*
X0101415Y0146728D01*
X0100882Y0146834D01*
X0100882Y0142351D01*
X0100082Y0142351D01*
X0100082Y0146834D01*
X0099979Y0146814D01*
X0099979Y0150842D01*
X0099042Y0151780D01*
X0075361Y0151780D01*
X0075361Y0157565D01*
X0075359Y0157567D01*
X0075359Y0158231D01*
X0073493Y0160096D01*
X0070856Y0160096D01*
X0068990Y0158231D01*
X0068990Y0158217D01*
X0065545Y0154772D01*
X0060543Y0154772D01*
X0060343Y0154572D01*
X0058401Y0154572D01*
X0058401Y0150619D01*
X0057601Y0150619D01*
X0057601Y0149819D01*
X0054042Y0149819D01*
X0054042Y0147082D01*
X0054138Y0146726D01*
X0054322Y0146407D01*
X0054583Y0146146D01*
X0054902Y0145962D01*
X0055258Y0145866D01*
X0057601Y0145866D01*
X0057601Y0149819D01*
X0058401Y0149819D01*
X0058401Y0145866D01*
X0060343Y0145866D01*
X0060543Y0145666D01*
X0061854Y0145666D01*
X0061854Y0137784D01*
X0062791Y0136847D01*
X0067659Y0136847D01*
X0068482Y0136024D01*
X0080854Y0123652D01*
X0179755Y0123652D01*
X0180926Y0124824D01*
X0190127Y0134024D01*
X0192867Y0134024D01*
X0192875Y0134032D01*
X0193119Y0134032D01*
X0194901Y0134770D01*
X0196265Y0136134D01*
X0197003Y0137916D01*
X0197003Y0139485D01*
X0197545Y0139485D01*
X0197512Y0139280D01*
X0201755Y0139280D01*
X0201755Y0138480D01*
X0202555Y0138480D01*
X0202555Y0134238D01*
X0203243Y0134347D01*
X0203939Y0134573D01*
X0204591Y0134905D01*
X0205183Y0135335D01*
X0205700Y0135852D01*
X0206130Y0136444D01*
X0206462Y0137096D01*
X0206688Y0137792D01*
X0206797Y0138480D01*
X0202555Y0138480D01*
X0202555Y0139280D01*
X0206797Y0139280D01*
X0206688Y0139969D01*
X0206659Y0140059D01*
X0207023Y0140422D01*
X0207023Y0143085D01*
X0214755Y0150817D01*
X0215926Y0151989D01*
X0215926Y0235575D01*
X0214755Y0236746D01*
X0207011Y0244491D01*
X0207011Y0249711D01*
X0207003Y0249719D01*
X0207003Y0249845D01*
X0206265Y0251627D01*
X0204901Y0252990D01*
X0203119Y0253728D01*
X0201191Y0253728D01*
X0199409Y0252990D01*
X0198303Y0251885D02*
X0196006Y0251885D01*
X0196488Y0251087D02*
X0197821Y0251087D01*
X0197490Y0250288D02*
X0196819Y0250288D01*
X0197003Y0249489D02*
X0197279Y0249489D01*
X0197279Y0248691D02*
X0197003Y0248691D01*
X0196993Y0247892D02*
X0197279Y0247892D01*
X0197279Y0247094D02*
X0196662Y0247094D01*
X0196332Y0246295D02*
X0197279Y0246295D01*
X0197279Y0245497D02*
X0195628Y0245497D01*
X0194727Y0244698D02*
X0197034Y0244698D01*
X0196236Y0243900D02*
X0155854Y0243900D01*
X0155854Y0244698D02*
X0189582Y0244698D01*
X0188682Y0245497D02*
X0155854Y0245497D01*
X0155854Y0246295D02*
X0187978Y0246295D01*
X0187647Y0247094D02*
X0155854Y0247094D01*
X0155854Y0247892D02*
X0187317Y0247892D01*
X0187307Y0248691D02*
X0155854Y0248691D01*
X0155854Y0249489D02*
X0187307Y0249489D01*
X0187490Y0250288D02*
X0155854Y0250288D01*
X0155854Y0251087D02*
X0187821Y0251087D01*
X0188303Y0251885D02*
X0155854Y0251885D01*
X0155854Y0252684D02*
X0189102Y0252684D01*
X0190596Y0253482D02*
X0155854Y0253482D01*
X0155854Y0254281D02*
X0190591Y0254281D01*
X0189100Y0255079D02*
X0155854Y0255079D01*
X0155854Y0255878D02*
X0188301Y0255878D01*
X0187820Y0256676D02*
X0155854Y0256676D01*
X0155854Y0257475D02*
X0187490Y0257475D01*
X0187307Y0258273D02*
X0155854Y0258273D01*
X0155854Y0259072D02*
X0187307Y0259072D01*
X0187317Y0259870D02*
X0155854Y0259870D01*
X0155854Y0260669D02*
X0187648Y0260669D01*
X0187979Y0261467D02*
X0155854Y0261467D01*
X0155854Y0262266D02*
X0188684Y0262266D01*
X0189587Y0263064D02*
X0155854Y0263064D01*
X0155854Y0243101D02*
X0190201Y0243101D01*
X0190371Y0243188D02*
X0189719Y0242856D01*
X0189127Y0242426D01*
X0188610Y0241908D01*
X0188179Y0241316D01*
X0187847Y0240665D01*
X0187621Y0239969D01*
X0187512Y0239280D01*
X0191755Y0239280D01*
X0191755Y0243523D01*
X0191066Y0243414D01*
X0190371Y0243188D01*
X0191755Y0243101D02*
X0192555Y0243101D01*
X0192555Y0242303D02*
X0191755Y0242303D01*
X0191755Y0241504D02*
X0192555Y0241504D01*
X0192555Y0240706D02*
X0191755Y0240706D01*
X0191755Y0239907D02*
X0192555Y0239907D01*
X0191755Y0239109D02*
X0155854Y0239109D01*
X0155854Y0239907D02*
X0187612Y0239907D01*
X0187868Y0240706D02*
X0155854Y0240706D01*
X0155854Y0241504D02*
X0188316Y0241504D01*
X0189004Y0242303D02*
X0155854Y0242303D01*
X0155854Y0238310D02*
X0187539Y0238310D01*
X0187512Y0238480D02*
X0187621Y0237792D01*
X0187847Y0237096D01*
X0188179Y0236444D01*
X0188610Y0235852D01*
X0189127Y0235335D01*
X0189719Y0234905D01*
X0190371Y0234573D01*
X0191066Y0234347D01*
X0191755Y0234238D01*
X0191755Y0238480D01*
X0187512Y0238480D01*
X0187712Y0237512D02*
X0155854Y0237512D01*
X0155854Y0236713D02*
X0188042Y0236713D01*
X0188564Y0235915D02*
X0155854Y0235915D01*
X0155854Y0235116D02*
X0162144Y0235116D01*
X0161675Y0235042D02*
X0160728Y0234735D01*
X0159842Y0234283D01*
X0159037Y0233698D01*
X0158333Y0232994D01*
X0157748Y0232189D01*
X0157297Y0231303D01*
X0156989Y0230357D01*
X0156834Y0229374D01*
X0156834Y0229276D01*
X0162755Y0229276D01*
X0162755Y0228476D01*
X0163555Y0228476D01*
X0163555Y0222555D01*
X0173495Y0222555D01*
X0174478Y0222711D01*
X0175424Y0223018D01*
X0176310Y0223470D01*
X0177115Y0224055D01*
X0177819Y0224758D01*
X0178404Y0225563D01*
X0178855Y0226450D01*
X0179163Y0227396D01*
X0179319Y0228379D01*
X0179319Y0228476D01*
X0173555Y0228476D01*
X0173555Y0229276D01*
X0179319Y0229276D01*
X0179319Y0229374D01*
X0179163Y0230357D01*
X0178855Y0231303D01*
X0178404Y0232189D01*
X0177819Y0232994D01*
X0177115Y0233698D01*
X0176310Y0234283D01*
X0175424Y0234735D01*
X0174478Y0235042D01*
X0173495Y0235198D01*
X0163555Y0235198D01*
X0163555Y0229276D01*
X0172755Y0229276D01*
X0172755Y0228476D01*
X0168512Y0228476D01*
X0163555Y0228476D01*
X0163555Y0229276D01*
X0162755Y0229276D01*
X0162755Y0235198D01*
X0162657Y0235198D01*
X0161675Y0235042D01*
X0162755Y0235116D02*
X0163555Y0235116D01*
X0163555Y0234318D02*
X0162755Y0234318D01*
X0162755Y0233519D02*
X0163555Y0233519D01*
X0163555Y0232721D02*
X0162755Y0232721D01*
X0162755Y0231922D02*
X0163555Y0231922D01*
X0163555Y0231124D02*
X0162755Y0231124D01*
X0162755Y0230325D02*
X0163555Y0230325D01*
X0163555Y0229527D02*
X0162755Y0229527D01*
X0162755Y0228728D02*
X0155854Y0228728D01*
X0155854Y0227930D02*
X0156905Y0227930D01*
X0156834Y0228379D02*
X0156989Y0227396D01*
X0157297Y0226450D01*
X0157748Y0225563D01*
X0158333Y0224758D01*
X0159037Y0224055D01*
X0159842Y0223470D01*
X0160728Y0223018D01*
X0161675Y0222711D01*
X0162657Y0222555D01*
X0162755Y0222555D01*
X0162755Y0228476D01*
X0156834Y0228476D01*
X0156834Y0228379D01*
X0156858Y0229527D02*
X0155854Y0229527D01*
X0155854Y0230325D02*
X0156984Y0230325D01*
X0157238Y0231124D02*
X0155854Y0231124D01*
X0155854Y0231922D02*
X0157612Y0231922D01*
X0158134Y0232721D02*
X0155854Y0232721D01*
X0155854Y0233519D02*
X0158858Y0233519D01*
X0159910Y0234318D02*
X0155854Y0234318D01*
X0155854Y0227131D02*
X0157075Y0227131D01*
X0157356Y0226333D02*
X0155854Y0226333D01*
X0155854Y0225534D02*
X0157770Y0225534D01*
X0158356Y0224736D02*
X0155854Y0224736D01*
X0155854Y0223937D02*
X0159199Y0223937D01*
X0160492Y0223139D02*
X0155854Y0223139D01*
X0155854Y0222340D02*
X0187299Y0222340D01*
X0187299Y0221542D02*
X0155854Y0221542D01*
X0155854Y0220743D02*
X0187299Y0220743D01*
X0187299Y0219945D02*
X0155854Y0219945D01*
X0155854Y0219146D02*
X0187299Y0219146D01*
X0187299Y0218348D02*
X0155854Y0218348D01*
X0155854Y0217549D02*
X0187299Y0217549D01*
X0187299Y0216751D02*
X0155854Y0216751D01*
X0155854Y0215952D02*
X0187299Y0215952D01*
X0187299Y0215153D02*
X0155854Y0215153D01*
X0155854Y0214355D02*
X0187299Y0214355D01*
X0187299Y0213556D02*
X0155854Y0213556D01*
X0155854Y0212758D02*
X0187299Y0212758D01*
X0187299Y0211959D02*
X0155854Y0211959D01*
X0155854Y0211161D02*
X0187299Y0211161D01*
X0187299Y0210362D02*
X0155854Y0210362D01*
X0155854Y0209564D02*
X0187299Y0209564D01*
X0187299Y0208765D02*
X0155854Y0208765D01*
X0155854Y0207967D02*
X0187299Y0207967D01*
X0187299Y0207168D02*
X0155854Y0207168D01*
X0155854Y0206370D02*
X0187299Y0206370D01*
X0187299Y0205571D02*
X0155854Y0205571D01*
X0155854Y0204773D02*
X0187299Y0204773D01*
X0187299Y0203974D02*
X0155854Y0203974D01*
X0155854Y0203176D02*
X0187299Y0203176D01*
X0187299Y0202377D02*
X0155854Y0202377D01*
X0155854Y0201579D02*
X0187299Y0201579D01*
X0187299Y0200780D02*
X0155854Y0200780D01*
X0155854Y0199982D02*
X0187299Y0199982D01*
X0187299Y0199183D02*
X0155854Y0199183D01*
X0155854Y0198385D02*
X0187299Y0198385D01*
X0187443Y0197586D02*
X0155854Y0197586D01*
X0158164Y0196788D02*
X0187774Y0196788D01*
X0188190Y0195989D02*
X0164711Y0195989D01*
X0164798Y0195838D02*
X0164614Y0196157D01*
X0164353Y0196418D01*
X0164034Y0196602D01*
X0163678Y0196698D01*
X0161334Y0196698D01*
X0161334Y0192745D01*
X0164893Y0192745D01*
X0164893Y0195482D01*
X0164798Y0195838D01*
X0164893Y0195191D02*
X0188988Y0195191D01*
X0190322Y0194392D02*
X0164893Y0194392D01*
X0164893Y0193594D02*
X0192752Y0193594D01*
X0192555Y0192795D02*
X0191755Y0192795D01*
X0191755Y0191997D02*
X0192555Y0191997D01*
X0192555Y0191198D02*
X0191755Y0191198D01*
X0191755Y0190400D02*
X0192555Y0190400D01*
X0191796Y0189601D02*
X0191755Y0189601D01*
X0190997Y0188803D02*
X0164770Y0188803D01*
X0164893Y0189601D02*
X0187563Y0189601D01*
X0187761Y0190400D02*
X0164893Y0190400D01*
X0164893Y0191198D02*
X0188119Y0191198D01*
X0188698Y0191997D02*
X0161334Y0191997D01*
X0161334Y0192795D02*
X0160534Y0192795D01*
X0160534Y0193594D02*
X0161334Y0193594D01*
X0161334Y0194392D02*
X0160534Y0194392D01*
X0160534Y0195191D02*
X0161334Y0195191D01*
X0161334Y0195989D02*
X0160534Y0195989D01*
X0160534Y0191198D02*
X0161334Y0191198D01*
X0161334Y0190400D02*
X0160534Y0190400D01*
X0160534Y0189601D02*
X0161334Y0189601D01*
X0161334Y0188803D02*
X0160534Y0188803D01*
X0160534Y0188004D02*
X0161334Y0188004D01*
X0163722Y0188004D02*
X0187588Y0188004D01*
X0187740Y0187206D02*
X0152840Y0187206D01*
X0152196Y0186407D02*
X0187740Y0186407D01*
X0187740Y0185609D02*
X0152196Y0185609D01*
X0152196Y0184810D02*
X0186988Y0184810D01*
X0186190Y0184012D02*
X0152200Y0184012D01*
X0152200Y0183213D02*
X0185391Y0183213D01*
X0184593Y0182415D02*
X0152200Y0182415D01*
X0152200Y0181616D02*
X0183794Y0181616D01*
X0182996Y0180818D02*
X0152003Y0180818D01*
X0151204Y0180019D02*
X0182197Y0180019D01*
X0181399Y0179220D02*
X0150406Y0179220D01*
X0149623Y0176835D02*
X0148342Y0176835D01*
X0148342Y0173178D01*
X0147542Y0173178D01*
X0147542Y0172378D01*
X0143885Y0172378D01*
X0143885Y0171097D01*
X0146262Y0168720D01*
X0147542Y0168720D01*
X0147542Y0172378D01*
X0148342Y0172378D01*
X0148342Y0168720D01*
X0149623Y0168720D01*
X0152000Y0171097D01*
X0152000Y0172378D01*
X0148342Y0172378D01*
X0148342Y0173178D01*
X0152000Y0173178D01*
X0152000Y0174459D01*
X0149623Y0176835D01*
X0149633Y0176825D02*
X0179003Y0176825D01*
X0179480Y0177302D02*
X0179480Y0177302D01*
X0179802Y0177623D02*
X0146348Y0177623D01*
X0146262Y0176835D02*
X0143885Y0174459D01*
X0143885Y0173178D01*
X0147542Y0173178D01*
X0147542Y0176835D01*
X0146262Y0176835D01*
X0146251Y0176825D02*
X0145550Y0176825D01*
X0145453Y0176026D02*
X0144751Y0176026D01*
X0144654Y0175228D02*
X0143953Y0175228D01*
X0143885Y0174429D02*
X0143154Y0174429D01*
X0143885Y0173631D02*
X0142356Y0173631D01*
X0143885Y0172034D02*
X0134775Y0172034D01*
X0134775Y0172832D02*
X0147542Y0172832D01*
X0147542Y0172034D02*
X0148342Y0172034D01*
X0148342Y0172832D02*
X0178308Y0172832D01*
X0178308Y0172034D02*
X0152000Y0172034D01*
X0152000Y0171235D02*
X0178308Y0171235D01*
X0178308Y0170437D02*
X0151339Y0170437D01*
X0150541Y0169638D02*
X0178308Y0169638D01*
X0178308Y0168840D02*
X0149742Y0168840D01*
X0148342Y0168840D02*
X0147542Y0168840D01*
X0147542Y0169638D02*
X0148342Y0169638D01*
X0148342Y0170437D02*
X0147542Y0170437D01*
X0147542Y0171235D02*
X0148342Y0171235D01*
X0148342Y0173631D02*
X0147542Y0173631D01*
X0147542Y0174429D02*
X0148342Y0174429D01*
X0148342Y0175228D02*
X0147542Y0175228D01*
X0147542Y0176026D02*
X0148342Y0176026D01*
X0148342Y0176825D02*
X0147542Y0176825D01*
X0147147Y0178422D02*
X0180600Y0178422D01*
X0180308Y0175302D02*
X0180308Y0163530D01*
X0177824Y0161046D01*
X0177824Y0153180D01*
X0171332Y0146687D01*
X0163718Y0146687D01*
X0157864Y0152542D01*
X0133454Y0152542D01*
X0129812Y0148900D01*
X0129812Y0141951D01*
X0124812Y0141951D02*
X0124812Y0138034D01*
X0133021Y0129825D01*
X0161958Y0129825D01*
X0166989Y0134857D01*
X0174462Y0134857D01*
X0188486Y0148880D01*
X0192155Y0148880D01*
X0190324Y0153880D02*
X0173576Y0137132D01*
X0165801Y0137132D01*
X0160501Y0131833D01*
X0143277Y0131833D01*
X0139812Y0135298D01*
X0139812Y0141951D01*
X0134812Y0141951D02*
X0134812Y0148250D01*
X0136978Y0150416D01*
X0156761Y0150416D01*
X0162765Y0144412D01*
X0171639Y0144412D01*
X0182486Y0155258D01*
X0182486Y0167872D01*
X0188493Y0173880D01*
X0205541Y0173880D01*
X0207824Y0176164D01*
X0207824Y0213211D01*
X0202155Y0218880D01*
X0197155Y0223880D02*
X0197155Y0241991D01*
X0199045Y0243880D01*
X0204793Y0243880D01*
X0213927Y0234746D01*
X0213927Y0152817D01*
X0204989Y0143880D01*
X0186367Y0143880D01*
X0173257Y0130770D01*
X0169399Y0130770D01*
X0166328Y0127699D01*
X0085619Y0127699D01*
X0075482Y0137837D01*
X0075482Y0141951D01*
X0080482Y0141951D02*
X0080482Y0148250D01*
X0075361Y0152071D02*
X0108373Y0152071D01*
X0108373Y0151273D02*
X0099549Y0151273D01*
X0099979Y0150474D02*
X0111932Y0150474D01*
X0112332Y0150219D02*
X0112332Y0154569D01*
X0119671Y0154569D01*
X0120371Y0155270D01*
X0120369Y0155265D02*
X0104145Y0155265D01*
X0104473Y0156064D02*
X0121167Y0156064D01*
X0121966Y0156862D02*
X0104477Y0156862D01*
X0104473Y0157661D02*
X0122764Y0157661D01*
X0123549Y0158459D02*
X0104245Y0158459D01*
X0103452Y0159258D02*
X0124348Y0159258D01*
X0125146Y0160056D02*
X0102647Y0160056D01*
X0099739Y0160855D02*
X0153824Y0160855D01*
X0153824Y0161653D02*
X0099739Y0161653D01*
X0099739Y0162452D02*
X0153824Y0162452D01*
X0154372Y0163250D02*
X0108578Y0163250D01*
X0108684Y0163311D02*
X0108944Y0163572D01*
X0109129Y0163891D01*
X0109224Y0164247D01*
X0109224Y0166591D01*
X0105271Y0166591D01*
X0105271Y0163031D01*
X0108008Y0163031D01*
X0108365Y0163127D01*
X0108684Y0163311D01*
X0109171Y0164049D02*
X0155170Y0164049D01*
X0155969Y0164847D02*
X0109224Y0164847D01*
X0109224Y0165646D02*
X0178308Y0165646D01*
X0178308Y0166444D02*
X0133934Y0166444D01*
X0133916Y0166434D02*
X0134235Y0166618D01*
X0134496Y0166879D01*
X0134680Y0167198D01*
X0134775Y0167554D01*
X0134775Y0169898D01*
X0130823Y0169898D01*
X0130823Y0166339D01*
X0133560Y0166339D01*
X0133916Y0166434D01*
X0134692Y0167243D02*
X0178308Y0167243D01*
X0178308Y0168041D02*
X0134775Y0168041D01*
X0134775Y0168840D02*
X0146142Y0168840D01*
X0145344Y0169638D02*
X0134775Y0169638D01*
X0134775Y0171235D02*
X0143885Y0171235D01*
X0144545Y0170437D02*
X0130823Y0170437D01*
X0130823Y0169638D02*
X0130023Y0169638D01*
X0130023Y0169898D02*
X0130023Y0166339D01*
X0127285Y0166339D01*
X0126929Y0166434D01*
X0126610Y0166618D01*
X0126350Y0166879D01*
X0126165Y0167198D01*
X0126070Y0167554D01*
X0126070Y0169898D01*
X0130023Y0169898D01*
X0130023Y0170437D02*
X0109432Y0170437D01*
X0109432Y0171235D02*
X0126070Y0171235D01*
X0126070Y0172034D02*
X0109432Y0172034D01*
X0109432Y0172832D02*
X0126070Y0172832D01*
X0125870Y0173631D02*
X0109432Y0173631D01*
X0109432Y0174429D02*
X0125870Y0174429D01*
X0125870Y0175228D02*
X0109432Y0175228D01*
X0109432Y0176026D02*
X0125870Y0176026D01*
X0125870Y0176825D02*
X0109432Y0176825D01*
X0109432Y0177623D02*
X0125486Y0177623D01*
X0126070Y0169638D02*
X0109224Y0169638D01*
X0109224Y0168840D02*
X0126070Y0168840D01*
X0126070Y0168041D02*
X0109224Y0168041D01*
X0109224Y0166444D02*
X0126912Y0166444D01*
X0126153Y0167243D02*
X0105271Y0167243D01*
X0105271Y0166444D02*
X0104471Y0166444D01*
X0104471Y0165646D02*
X0105271Y0165646D01*
X0105271Y0164847D02*
X0104471Y0164847D01*
X0104471Y0164049D02*
X0105271Y0164049D01*
X0105271Y0163250D02*
X0104471Y0163250D01*
X0101165Y0163250D02*
X0099739Y0163250D01*
X0099739Y0164049D02*
X0100572Y0164049D01*
X0100519Y0164847D02*
X0099739Y0164847D01*
X0099739Y0165646D02*
X0100519Y0165646D01*
X0100519Y0166444D02*
X0099739Y0166444D01*
X0099739Y0167243D02*
X0104471Y0167243D01*
X0103353Y0154467D02*
X0109216Y0154467D01*
X0108457Y0153668D02*
X0098831Y0153668D01*
X0099979Y0149676D02*
X0108373Y0149676D01*
X0108373Y0148877D02*
X0099979Y0148877D01*
X0099979Y0148079D02*
X0108373Y0148079D01*
X0108373Y0147280D02*
X0099979Y0147280D01*
X0100082Y0146482D02*
X0100882Y0146482D01*
X0100882Y0145683D02*
X0100082Y0145683D01*
X0100082Y0144884D02*
X0100882Y0144884D01*
X0100882Y0144086D02*
X0100082Y0144086D01*
X0100082Y0143287D02*
X0100882Y0143287D01*
X0100882Y0142489D02*
X0100082Y0142489D01*
X0100882Y0141690D02*
X0116185Y0141690D01*
X0116185Y0140892D02*
X0103682Y0140892D01*
X0103682Y0141551D02*
X0103682Y0139936D01*
X0103559Y0139318D01*
X0103317Y0138735D01*
X0102967Y0138211D01*
X0102521Y0137766D01*
X0101997Y0137415D01*
X0101415Y0137174D01*
X0100882Y0137068D01*
X0100882Y0141551D01*
X0103682Y0141551D01*
X0103682Y0142489D02*
X0116185Y0142489D01*
X0116185Y0143287D02*
X0103682Y0143287D01*
X0103658Y0144086D02*
X0116185Y0144086D01*
X0116190Y0143369D02*
X0116190Y0145869D01*
X0110147Y0145869D01*
X0110147Y0143329D01*
X0108609Y0146482D02*
X0102006Y0146482D01*
X0102973Y0145683D02*
X0115137Y0145683D01*
X0116185Y0144884D02*
X0103434Y0144884D01*
X0100882Y0140892D02*
X0100082Y0140892D01*
X0100082Y0140093D02*
X0100882Y0140093D01*
X0100882Y0139295D02*
X0100082Y0139295D01*
X0100082Y0138496D02*
X0100882Y0138496D01*
X0100882Y0137698D02*
X0100082Y0137698D01*
X0099979Y0136899D02*
X0117070Y0136899D01*
X0116271Y0137698D02*
X0102420Y0137698D01*
X0103158Y0138496D02*
X0116185Y0138496D01*
X0116185Y0139295D02*
X0103549Y0139295D01*
X0103682Y0140093D02*
X0116185Y0140093D01*
X0112732Y0146482D02*
X0111932Y0146482D01*
X0111932Y0147280D02*
X0112732Y0147280D01*
X0112732Y0148079D02*
X0111932Y0148079D01*
X0111932Y0148877D02*
X0112732Y0148877D01*
X0112732Y0149676D02*
X0111932Y0149676D01*
X0111932Y0151273D02*
X0112732Y0151273D01*
X0112732Y0152071D02*
X0111932Y0152071D01*
X0111932Y0152870D02*
X0112732Y0152870D01*
X0112732Y0153668D02*
X0111932Y0153668D01*
X0111932Y0154467D02*
X0112732Y0154467D01*
X0108373Y0152870D02*
X0075361Y0152870D01*
X0075361Y0153668D02*
X0090490Y0153668D01*
X0088401Y0154467D02*
X0087601Y0154467D01*
X0087601Y0155265D02*
X0088401Y0155265D01*
X0088401Y0156064D02*
X0087601Y0156064D01*
X0087601Y0156862D02*
X0088401Y0156862D01*
X0088401Y0157661D02*
X0087601Y0157661D01*
X0088001Y0158093D02*
X0088001Y0162447D01*
X0091182Y0162447D01*
X0091182Y0164967D01*
X0091185Y0164847D02*
X0089096Y0164847D01*
X0089519Y0165271D02*
X0087143Y0162894D01*
X0085862Y0162894D01*
X0085862Y0166551D01*
X0085062Y0166551D01*
X0085062Y0162894D01*
X0083781Y0162894D01*
X0081404Y0165271D01*
X0081404Y0166551D01*
X0085062Y0166551D01*
X0085062Y0167351D01*
X0081404Y0167351D01*
X0081404Y0168632D01*
X0083781Y0171009D01*
X0085062Y0171009D01*
X0085062Y0167351D01*
X0085862Y0167351D01*
X0089519Y0167351D01*
X0089519Y0168632D01*
X0087143Y0171009D01*
X0085862Y0171009D01*
X0085862Y0167351D01*
X0085862Y0166551D01*
X0089519Y0166551D01*
X0089519Y0165271D01*
X0089519Y0165646D02*
X0091185Y0165646D01*
X0091185Y0166444D02*
X0089519Y0166444D01*
X0089519Y0168041D02*
X0091185Y0168041D01*
X0091185Y0167243D02*
X0085862Y0167243D01*
X0085862Y0168041D02*
X0085062Y0168041D01*
X0085062Y0167243D02*
X0015697Y0167243D01*
X0015697Y0168041D02*
X0033856Y0168041D01*
X0032944Y0168840D02*
X0015697Y0168840D01*
X0015697Y0169638D02*
X0032146Y0169638D01*
X0031814Y0170437D02*
X0015697Y0170437D01*
X0019006Y0171235D02*
X0031483Y0171235D01*
X0031322Y0172034D02*
X0019490Y0172034D01*
X0019634Y0172832D02*
X0031322Y0172832D01*
X0031322Y0173631D02*
X0019634Y0173631D01*
X0019634Y0174429D02*
X0031594Y0174429D01*
X0031924Y0175228D02*
X0019634Y0175228D01*
X0019634Y0176026D02*
X0032412Y0176026D01*
X0033211Y0176825D02*
X0019634Y0176825D01*
X0019634Y0177623D02*
X0034499Y0177623D01*
X0037353Y0178422D02*
X0019634Y0178422D01*
X0019634Y0179220D02*
X0038152Y0179220D01*
X0038950Y0180019D02*
X0019634Y0180019D01*
X0019634Y0180818D02*
X0039749Y0180818D01*
X0040547Y0181616D02*
X0019634Y0181616D01*
X0019634Y0182415D02*
X0041346Y0182415D01*
X0042144Y0183213D02*
X0019634Y0183213D01*
X0019634Y0184012D02*
X0042943Y0184012D01*
X0043747Y0184810D02*
X0019634Y0184810D01*
X0015697Y0166444D02*
X0081404Y0166444D01*
X0081404Y0165646D02*
X0015697Y0165646D01*
X0015697Y0164847D02*
X0081828Y0164847D01*
X0082626Y0164049D02*
X0015697Y0164049D01*
X0015697Y0163250D02*
X0083425Y0163250D01*
X0084583Y0162166D02*
X0084322Y0161905D01*
X0084138Y0161586D01*
X0084042Y0161230D01*
X0084042Y0158493D01*
X0087601Y0158493D01*
X0087601Y0162446D01*
X0085258Y0162446D01*
X0084902Y0162350D01*
X0084583Y0162166D01*
X0084176Y0161653D02*
X0015697Y0161653D01*
X0015697Y0160855D02*
X0084042Y0160855D01*
X0084042Y0160056D02*
X0073533Y0160056D01*
X0074332Y0159258D02*
X0084042Y0159258D01*
X0084042Y0157661D02*
X0075359Y0157661D01*
X0075361Y0156862D02*
X0084042Y0156862D01*
X0084042Y0156064D02*
X0075361Y0156064D01*
X0075361Y0155265D02*
X0084042Y0155265D01*
X0084215Y0154467D02*
X0075361Y0154467D01*
X0075130Y0158459D02*
X0087601Y0158459D01*
X0087601Y0159258D02*
X0088401Y0159258D01*
X0088401Y0160056D02*
X0087601Y0160056D01*
X0087601Y0160855D02*
X0088401Y0160855D01*
X0088401Y0161653D02*
X0087601Y0161653D01*
X0087499Y0163250D02*
X0091185Y0163250D01*
X0091185Y0164049D02*
X0088298Y0164049D01*
X0085862Y0164049D02*
X0085062Y0164049D01*
X0085062Y0164847D02*
X0085862Y0164847D01*
X0085862Y0165646D02*
X0085062Y0165646D01*
X0085062Y0166444D02*
X0085862Y0166444D01*
X0085862Y0168840D02*
X0085062Y0168840D01*
X0085062Y0169638D02*
X0085862Y0169638D01*
X0085862Y0170437D02*
X0085062Y0170437D01*
X0083209Y0170437D02*
X0041630Y0170437D01*
X0041960Y0171235D02*
X0087657Y0171235D01*
X0087714Y0170437D02*
X0088455Y0170437D01*
X0088513Y0169638D02*
X0091185Y0169638D01*
X0091185Y0168840D02*
X0089311Y0168840D01*
X0086857Y0172034D02*
X0042122Y0172034D01*
X0042122Y0172832D02*
X0086185Y0172832D01*
X0086185Y0173631D02*
X0042745Y0173631D01*
X0043543Y0174429D02*
X0086185Y0174429D01*
X0086185Y0175228D02*
X0044342Y0175228D01*
X0045140Y0176026D02*
X0086185Y0176026D01*
X0086185Y0176825D02*
X0045939Y0176825D01*
X0046737Y0177623D02*
X0086185Y0177623D01*
X0082411Y0169638D02*
X0041298Y0169638D01*
X0040499Y0168840D02*
X0081612Y0168840D01*
X0081404Y0168041D02*
X0039588Y0168041D01*
X0054322Y0154031D02*
X0054138Y0153712D01*
X0054042Y0153356D01*
X0054042Y0150619D01*
X0057601Y0150619D01*
X0057601Y0154572D01*
X0055258Y0154572D01*
X0054902Y0154476D01*
X0054583Y0154292D01*
X0054322Y0154031D01*
X0054126Y0153668D02*
X0015697Y0153668D01*
X0015697Y0152870D02*
X0054042Y0152870D01*
X0054042Y0152071D02*
X0015697Y0152071D01*
X0015697Y0151273D02*
X0054042Y0151273D01*
X0054042Y0149676D02*
X0015697Y0149676D01*
X0015697Y0150474D02*
X0057601Y0150474D01*
X0058001Y0150219D02*
X0058001Y0154569D01*
X0065344Y0154569D01*
X0066588Y0155813D01*
X0066837Y0156064D02*
X0015697Y0156064D01*
X0015697Y0156862D02*
X0067635Y0156862D01*
X0068434Y0157661D02*
X0015697Y0157661D01*
X0015697Y0158459D02*
X0069219Y0158459D01*
X0070017Y0159258D02*
X0015697Y0159258D01*
X0015697Y0160056D02*
X0070816Y0160056D01*
X0066038Y0155265D02*
X0015697Y0155265D01*
X0015697Y0154467D02*
X0054885Y0154467D01*
X0057601Y0154467D02*
X0058401Y0154467D01*
X0058401Y0153668D02*
X0057601Y0153668D01*
X0057601Y0152870D02*
X0058401Y0152870D01*
X0058401Y0152071D02*
X0057601Y0152071D01*
X0057601Y0151273D02*
X0058401Y0151273D01*
X0058401Y0149676D02*
X0057601Y0149676D01*
X0057601Y0148877D02*
X0058401Y0148877D01*
X0058401Y0148079D02*
X0057601Y0148079D01*
X0057601Y0147280D02*
X0058401Y0147280D01*
X0058401Y0146482D02*
X0057601Y0146482D01*
X0060526Y0145683D02*
X0015697Y0145683D01*
X0015697Y0144884D02*
X0061854Y0144884D01*
X0061854Y0144086D02*
X0015697Y0144086D01*
X0015697Y0143287D02*
X0061854Y0143287D01*
X0061854Y0142489D02*
X0015697Y0142489D01*
X0015697Y0141690D02*
X0061854Y0141690D01*
X0061854Y0140892D02*
X0015697Y0140892D01*
X0015697Y0140093D02*
X0061854Y0140093D01*
X0061854Y0139295D02*
X0015697Y0139295D01*
X0015697Y0138496D02*
X0061854Y0138496D01*
X0061941Y0137698D02*
X0015697Y0137698D01*
X0015697Y0136899D02*
X0062739Y0136899D01*
X0068405Y0136101D02*
X0015697Y0136101D01*
X0015697Y0135302D02*
X0069204Y0135302D01*
X0068482Y0136024D02*
X0068482Y0136024D01*
X0070002Y0134504D02*
X0015697Y0134504D01*
X0015697Y0133705D02*
X0070801Y0133705D01*
X0071599Y0132907D02*
X0015697Y0132907D01*
X0015697Y0132108D02*
X0072398Y0132108D01*
X0073196Y0131310D02*
X0015697Y0131310D01*
X0015697Y0130511D02*
X0073995Y0130511D01*
X0074793Y0129713D02*
X0015697Y0129713D01*
X0015697Y0128914D02*
X0075592Y0128914D01*
X0076390Y0128116D02*
X0015697Y0128116D01*
X0015697Y0127317D02*
X0077189Y0127317D01*
X0077987Y0126519D02*
X0015697Y0126519D01*
X0015697Y0125720D02*
X0078786Y0125720D01*
X0079584Y0124922D02*
X0015697Y0124922D01*
X0015697Y0124123D02*
X0080383Y0124123D01*
X0081682Y0125652D02*
X0070482Y0136853D01*
X0070482Y0141951D01*
X0085482Y0141951D02*
X0085482Y0135298D01*
X0090482Y0136912D02*
X0090482Y0141951D01*
X0099979Y0136101D02*
X0122712Y0136101D01*
X0122712Y0135302D02*
X0099979Y0135302D01*
X0099979Y0134504D02*
X0122712Y0134504D01*
X0122712Y0133705D02*
X0099979Y0133705D01*
X0099979Y0132907D02*
X0122712Y0132907D01*
X0122712Y0132108D02*
X0099979Y0132108D01*
X0099979Y0131310D02*
X0122712Y0131310D01*
X0122712Y0130511D02*
X0099979Y0130511D01*
X0099979Y0129713D02*
X0122712Y0129713D01*
X0144812Y0136912D02*
X0147844Y0133880D01*
X0157336Y0133880D01*
X0162765Y0139309D01*
X0172556Y0139309D01*
X0186871Y0153624D01*
X0186871Y0161313D01*
X0189438Y0163880D01*
X0205226Y0163880D01*
X0209871Y0168526D01*
X0209871Y0221164D01*
X0202155Y0228880D01*
X0197155Y0223880D02*
X0192155Y0218880D01*
X0187299Y0223139D02*
X0175660Y0223139D01*
X0176953Y0223937D02*
X0187299Y0223937D01*
X0187299Y0224736D02*
X0177796Y0224736D01*
X0178383Y0225534D02*
X0187299Y0225534D01*
X0187299Y0226333D02*
X0178796Y0226333D01*
X0179077Y0227131D02*
X0187299Y0227131D01*
X0187299Y0227930D02*
X0179247Y0227930D01*
X0179294Y0229527D02*
X0187307Y0229527D01*
X0187299Y0228728D02*
X0173555Y0228728D01*
X0172755Y0228728D02*
X0163555Y0228728D01*
X0163555Y0227930D02*
X0162755Y0227930D01*
X0162755Y0227131D02*
X0163555Y0227131D01*
X0163555Y0226333D02*
X0162755Y0226333D01*
X0162755Y0225534D02*
X0163555Y0225534D01*
X0163555Y0224736D02*
X0162755Y0224736D01*
X0162755Y0223937D02*
X0163555Y0223937D01*
X0163555Y0223139D02*
X0162755Y0223139D01*
X0176242Y0234318D02*
X0191249Y0234318D01*
X0191755Y0234318D02*
X0192555Y0234318D01*
X0192555Y0235116D02*
X0191755Y0235116D01*
X0191755Y0235915D02*
X0192555Y0235915D01*
X0192555Y0236713D02*
X0191755Y0236713D01*
X0191755Y0237512D02*
X0192555Y0237512D01*
X0192555Y0238310D02*
X0191755Y0238310D01*
X0189428Y0235116D02*
X0174008Y0235116D01*
X0177294Y0233519D02*
X0190686Y0233519D01*
X0189139Y0232721D02*
X0178018Y0232721D01*
X0178540Y0231922D02*
X0188341Y0231922D01*
X0187837Y0231124D02*
X0178914Y0231124D01*
X0179168Y0230325D02*
X0187506Y0230325D01*
X0202155Y0238880D02*
X0211919Y0229117D01*
X0211919Y0159550D01*
X0206249Y0153880D01*
X0190324Y0153880D01*
X0184858Y0154439D02*
X0171728Y0141309D01*
X0161937Y0141309D01*
X0156508Y0135880D01*
X0154310Y0135880D01*
X0154310Y0137088D01*
X0154412Y0137068D01*
X0154412Y0141551D01*
X0155212Y0141551D01*
X0155212Y0137068D01*
X0155746Y0137174D01*
X0156328Y0137415D01*
X0156852Y0137766D01*
X0157298Y0138211D01*
X0157648Y0138735D01*
X0157889Y0139318D01*
X0158012Y0139936D01*
X0158012Y0141551D01*
X0155212Y0141551D01*
X0155212Y0142351D01*
X0154412Y0142351D01*
X0154412Y0146834D01*
X0154310Y0146814D01*
X0154310Y0148416D01*
X0155933Y0148416D01*
X0160765Y0143583D01*
X0161937Y0142412D01*
X0172468Y0142412D01*
X0173639Y0143583D01*
X0183314Y0153258D01*
X0184486Y0154430D01*
X0184486Y0167044D01*
X0186895Y0169454D01*
X0187540Y0169454D01*
X0187512Y0169280D01*
X0191755Y0169280D01*
X0191755Y0168480D01*
X0187512Y0168480D01*
X0187528Y0168382D01*
X0186088Y0168382D01*
X0184858Y0167152D01*
X0184858Y0154439D01*
X0184858Y0154467D02*
X0184486Y0154467D01*
X0184486Y0155265D02*
X0184858Y0155265D01*
X0184858Y0156064D02*
X0184486Y0156064D01*
X0184486Y0156862D02*
X0184858Y0156862D01*
X0184858Y0157661D02*
X0184486Y0157661D01*
X0184486Y0158459D02*
X0184858Y0158459D01*
X0184858Y0159258D02*
X0184486Y0159258D01*
X0184486Y0160056D02*
X0184858Y0160056D01*
X0184858Y0160855D02*
X0184486Y0160855D01*
X0184486Y0161653D02*
X0184858Y0161653D01*
X0184858Y0162452D02*
X0184486Y0162452D01*
X0184486Y0163250D02*
X0184858Y0163250D01*
X0184858Y0164049D02*
X0184486Y0164049D01*
X0184486Y0164847D02*
X0184858Y0164847D01*
X0184858Y0165646D02*
X0184486Y0165646D01*
X0184486Y0166444D02*
X0184858Y0166444D01*
X0184771Y0167056D02*
X0184678Y0167148D01*
X0184584Y0167148D01*
X0186820Y0169384D01*
X0186281Y0168840D02*
X0191755Y0168840D01*
X0185748Y0168041D02*
X0185483Y0168041D01*
X0184949Y0167243D02*
X0184684Y0167243D01*
X0178308Y0173631D02*
X0152000Y0173631D01*
X0152000Y0174429D02*
X0178308Y0174429D01*
X0178308Y0175228D02*
X0151230Y0175228D01*
X0150432Y0176026D02*
X0178308Y0176026D01*
X0180308Y0175302D02*
X0188887Y0183880D01*
X0194556Y0183880D01*
X0197155Y0186479D01*
X0197155Y0203880D01*
X0192155Y0208880D01*
X0189635Y0192795D02*
X0164893Y0192795D01*
X0130823Y0168840D02*
X0130023Y0168840D01*
X0130023Y0168041D02*
X0130823Y0168041D01*
X0130823Y0167243D02*
X0130023Y0167243D01*
X0130023Y0166444D02*
X0130823Y0166444D01*
X0154310Y0148079D02*
X0156270Y0148079D01*
X0157068Y0147280D02*
X0154310Y0147280D01*
X0154412Y0146482D02*
X0155212Y0146482D01*
X0155212Y0146834D02*
X0155212Y0142351D01*
X0158012Y0142351D01*
X0158012Y0143966D01*
X0157889Y0144585D01*
X0157648Y0145167D01*
X0157298Y0145691D01*
X0156852Y0146137D01*
X0156328Y0146487D01*
X0155746Y0146728D01*
X0155212Y0146834D01*
X0155212Y0145683D02*
X0154412Y0145683D01*
X0154412Y0144884D02*
X0155212Y0144884D01*
X0155212Y0144086D02*
X0154412Y0144086D01*
X0154412Y0143287D02*
X0155212Y0143287D01*
X0155212Y0142489D02*
X0154412Y0142489D01*
X0155212Y0141690D02*
X0172109Y0141690D01*
X0172545Y0142489D02*
X0172908Y0142489D01*
X0173343Y0143287D02*
X0173706Y0143287D01*
X0174142Y0144086D02*
X0174505Y0144086D01*
X0174940Y0144884D02*
X0175303Y0144884D01*
X0175739Y0145683D02*
X0176102Y0145683D01*
X0176537Y0146482D02*
X0176900Y0146482D01*
X0177336Y0147280D02*
X0177699Y0147280D01*
X0178134Y0148079D02*
X0178497Y0148079D01*
X0178933Y0148877D02*
X0179296Y0148877D01*
X0179731Y0149676D02*
X0180094Y0149676D01*
X0180530Y0150474D02*
X0180893Y0150474D01*
X0181328Y0151273D02*
X0181691Y0151273D01*
X0182127Y0152071D02*
X0182490Y0152071D01*
X0182925Y0152870D02*
X0183288Y0152870D01*
X0183724Y0153668D02*
X0184087Y0153668D01*
X0192155Y0138880D02*
X0178927Y0125652D01*
X0081682Y0125652D01*
X0054279Y0146482D02*
X0015697Y0146482D01*
X0015697Y0147280D02*
X0054042Y0147280D01*
X0054042Y0148079D02*
X0015697Y0148079D01*
X0015697Y0148877D02*
X0054042Y0148877D01*
X0085062Y0163250D02*
X0085862Y0163250D01*
X0090424Y0162452D02*
X0015697Y0162452D01*
X0039498Y0188004D02*
X0045447Y0188004D01*
X0044825Y0188803D02*
X0040462Y0188803D01*
X0041260Y0189601D02*
X0044398Y0189601D01*
X0044117Y0190400D02*
X0041614Y0190400D01*
X0061966Y0187206D02*
X0103716Y0187206D01*
X0103716Y0188004D02*
X0062878Y0188004D01*
X0063500Y0188803D02*
X0103716Y0188803D01*
X0103716Y0189601D02*
X0063928Y0189601D01*
X0064208Y0190400D02*
X0103716Y0190400D01*
X0103713Y0191198D02*
X0064366Y0191198D01*
X0015697Y0123325D02*
X0184240Y0123325D01*
X0184454Y0124123D02*
X0180226Y0124123D01*
X0181025Y0124922D02*
X0184680Y0124922D01*
X0184658Y0124884D02*
X0183744Y0121473D01*
X0183744Y0117941D01*
X0184658Y0114531D01*
X0186423Y0111473D01*
X0188920Y0108976D01*
X0191978Y0107210D01*
X0195389Y0106296D01*
X0198920Y0106296D01*
X0202331Y0107210D01*
X0205389Y0108976D01*
X0207886Y0111473D01*
X0209652Y0114531D01*
X0210566Y0117941D01*
X0210566Y0121473D01*
X0209652Y0124884D01*
X0207886Y0127942D01*
X0205389Y0130439D01*
X0202331Y0132204D01*
X0198920Y0133118D01*
X0195389Y0133118D01*
X0191978Y0132204D01*
X0188920Y0130439D01*
X0186423Y0127942D01*
X0184658Y0124884D01*
X0185141Y0125720D02*
X0181823Y0125720D01*
X0182622Y0126519D02*
X0185602Y0126519D01*
X0186063Y0127317D02*
X0183420Y0127317D01*
X0184219Y0128116D02*
X0186597Y0128116D01*
X0187396Y0128914D02*
X0185017Y0128914D01*
X0185816Y0129713D02*
X0188194Y0129713D01*
X0189046Y0130511D02*
X0186614Y0130511D01*
X0187413Y0131310D02*
X0190429Y0131310D01*
X0191812Y0132108D02*
X0188211Y0132108D01*
X0189010Y0132907D02*
X0194601Y0132907D01*
X0194258Y0134504D02*
X0200583Y0134504D01*
X0200371Y0134573D02*
X0201066Y0134347D01*
X0201755Y0134238D01*
X0201755Y0138480D01*
X0197512Y0138480D01*
X0197621Y0137792D01*
X0197847Y0137096D01*
X0198179Y0136444D01*
X0198610Y0135852D01*
X0199127Y0135335D01*
X0199719Y0134905D01*
X0200371Y0134573D01*
X0201755Y0134504D02*
X0202555Y0134504D01*
X0202555Y0135302D02*
X0201755Y0135302D01*
X0201755Y0136101D02*
X0202555Y0136101D01*
X0202555Y0136899D02*
X0201755Y0136899D01*
X0201755Y0137698D02*
X0202555Y0137698D01*
X0202555Y0138496D02*
X0401448Y0138496D01*
X0401448Y0137698D02*
X0206658Y0137698D01*
X0206362Y0136899D02*
X0401448Y0136899D01*
X0401448Y0136101D02*
X0205881Y0136101D01*
X0205138Y0135302D02*
X0401448Y0135302D01*
X0401448Y0134504D02*
X0203727Y0134504D01*
X0202497Y0132108D02*
X0384726Y0132108D01*
X0383343Y0131310D02*
X0203880Y0131310D01*
X0205263Y0130511D02*
X0381960Y0130511D01*
X0381108Y0129713D02*
X0206115Y0129713D01*
X0206914Y0128914D02*
X0380309Y0128914D01*
X0379511Y0128116D02*
X0207712Y0128116D01*
X0208247Y0127317D02*
X0378976Y0127317D01*
X0378515Y0126519D02*
X0208708Y0126519D01*
X0209169Y0125720D02*
X0378054Y0125720D01*
X0377593Y0124922D02*
X0209630Y0124922D01*
X0209856Y0124123D02*
X0377367Y0124123D01*
X0377153Y0123325D02*
X0210070Y0123325D01*
X0210284Y0122526D02*
X0376940Y0122526D01*
X0376726Y0121728D02*
X0210498Y0121728D01*
X0210566Y0120929D02*
X0376657Y0120929D01*
X0376657Y0120131D02*
X0210566Y0120131D01*
X0210566Y0119332D02*
X0376657Y0119332D01*
X0376657Y0118534D02*
X0210566Y0118534D01*
X0210511Y0117735D02*
X0376712Y0117735D01*
X0376926Y0116937D02*
X0210297Y0116937D01*
X0210083Y0116138D02*
X0377140Y0116138D01*
X0377354Y0115340D02*
X0209869Y0115340D01*
X0209655Y0114541D02*
X0377568Y0114541D01*
X0378026Y0113743D02*
X0209197Y0113743D01*
X0208736Y0112944D02*
X0378487Y0112944D01*
X0378948Y0112146D02*
X0208275Y0112146D01*
X0207761Y0111347D02*
X0379462Y0111347D01*
X0380261Y0110549D02*
X0206962Y0110549D01*
X0206164Y0109750D02*
X0381059Y0109750D01*
X0401160Y0127317D02*
X0401448Y0127317D01*
X0401448Y0128116D02*
X0400626Y0128116D01*
X0399827Y0128914D02*
X0401448Y0128914D01*
X0401448Y0129713D02*
X0399029Y0129713D01*
X0398177Y0130511D02*
X0401448Y0130511D01*
X0401448Y0131310D02*
X0396794Y0131310D01*
X0395411Y0132108D02*
X0401448Y0132108D01*
X0401448Y0132907D02*
X0392622Y0132907D01*
X0387514Y0132907D02*
X0199709Y0132907D01*
X0199172Y0135302D02*
X0195433Y0135302D01*
X0196232Y0136101D02*
X0198429Y0136101D01*
X0197948Y0136899D02*
X0196582Y0136899D01*
X0196913Y0137698D02*
X0197652Y0137698D01*
X0197003Y0138496D02*
X0201755Y0138496D01*
X0197515Y0139295D02*
X0197003Y0139295D01*
X0189808Y0133705D02*
X0401448Y0133705D01*
X0401448Y0139295D02*
X0206795Y0139295D01*
X0206694Y0140093D02*
X0401448Y0140093D01*
X0401448Y0140892D02*
X0207023Y0140892D01*
X0207023Y0141690D02*
X0401448Y0141690D01*
X0401448Y0142489D02*
X0207023Y0142489D01*
X0207225Y0143287D02*
X0401448Y0143287D01*
X0401448Y0144086D02*
X0208024Y0144086D01*
X0208822Y0144884D02*
X0401448Y0144884D01*
X0401448Y0145683D02*
X0209621Y0145683D01*
X0210419Y0146482D02*
X0401448Y0146482D01*
X0401448Y0147280D02*
X0211218Y0147280D01*
X0212016Y0148079D02*
X0401448Y0148079D01*
X0401448Y0148877D02*
X0212815Y0148877D01*
X0213613Y0149676D02*
X0401448Y0149676D01*
X0401448Y0150474D02*
X0214412Y0150474D01*
X0215210Y0151273D02*
X0401448Y0151273D01*
X0401448Y0152071D02*
X0215926Y0152071D01*
X0215926Y0152870D02*
X0401448Y0152870D01*
X0401448Y0153668D02*
X0215926Y0153668D01*
X0215926Y0154467D02*
X0401448Y0154467D01*
X0401448Y0155265D02*
X0215926Y0155265D01*
X0215926Y0156064D02*
X0401448Y0156064D01*
X0401448Y0156862D02*
X0215926Y0156862D01*
X0215926Y0157661D02*
X0401448Y0157661D01*
X0401448Y0158459D02*
X0215926Y0158459D01*
X0215926Y0159258D02*
X0401448Y0159258D01*
X0401448Y0160056D02*
X0215926Y0160056D01*
X0215926Y0160855D02*
X0401448Y0160855D01*
X0401448Y0161653D02*
X0215926Y0161653D01*
X0215926Y0162452D02*
X0401448Y0162452D01*
X0401448Y0163250D02*
X0215926Y0163250D01*
X0215926Y0164049D02*
X0401448Y0164049D01*
X0401448Y0164847D02*
X0215926Y0164847D01*
X0215926Y0165646D02*
X0401448Y0165646D01*
X0401448Y0166444D02*
X0215926Y0166444D01*
X0215926Y0167243D02*
X0401448Y0167243D01*
X0401448Y0168041D02*
X0215926Y0168041D01*
X0215926Y0168840D02*
X0401448Y0168840D01*
X0401448Y0169638D02*
X0215926Y0169638D01*
X0215926Y0170437D02*
X0401448Y0170437D01*
X0398138Y0171235D02*
X0215926Y0171235D01*
X0215926Y0172034D02*
X0397654Y0172034D01*
X0397511Y0172832D02*
X0215926Y0172832D01*
X0215926Y0173631D02*
X0397511Y0173631D01*
X0397511Y0174429D02*
X0215926Y0174429D01*
X0215926Y0175228D02*
X0397511Y0175228D01*
X0397511Y0176026D02*
X0215926Y0176026D01*
X0215926Y0176825D02*
X0397511Y0176825D01*
X0397511Y0177623D02*
X0215926Y0177623D01*
X0215926Y0178422D02*
X0397511Y0178422D01*
X0397511Y0179220D02*
X0215926Y0179220D01*
X0215926Y0180019D02*
X0397511Y0180019D01*
X0397511Y0180818D02*
X0215926Y0180818D01*
X0215926Y0181616D02*
X0397511Y0181616D01*
X0397511Y0182415D02*
X0215926Y0182415D01*
X0215926Y0183213D02*
X0397511Y0183213D01*
X0397511Y0184012D02*
X0215926Y0184012D01*
X0215926Y0184810D02*
X0397511Y0184810D01*
X0397511Y0185609D02*
X0215926Y0185609D01*
X0215926Y0186407D02*
X0397511Y0186407D01*
X0397511Y0187206D02*
X0215926Y0187206D01*
X0215926Y0188004D02*
X0397511Y0188004D01*
X0397511Y0188803D02*
X0215926Y0188803D01*
X0215926Y0189601D02*
X0397511Y0189601D01*
X0397511Y0190400D02*
X0215926Y0190400D01*
X0215926Y0191198D02*
X0397511Y0191198D01*
X0397511Y0191997D02*
X0215926Y0191997D01*
X0215926Y0192795D02*
X0397511Y0192795D01*
X0397511Y0193594D02*
X0215926Y0193594D01*
X0215926Y0194392D02*
X0397511Y0194392D01*
X0397511Y0195191D02*
X0215926Y0195191D01*
X0215926Y0195989D02*
X0397511Y0195989D01*
X0397511Y0196788D02*
X0215926Y0196788D01*
X0215926Y0197586D02*
X0397511Y0197586D01*
X0397511Y0198385D02*
X0215926Y0198385D01*
X0215926Y0199183D02*
X0397511Y0199183D01*
X0397511Y0199982D02*
X0215926Y0199982D01*
X0215926Y0200780D02*
X0397511Y0200780D01*
X0397511Y0201579D02*
X0215926Y0201579D01*
X0215926Y0202377D02*
X0397511Y0202377D01*
X0397511Y0203176D02*
X0215926Y0203176D01*
X0215926Y0203974D02*
X0397511Y0203974D01*
X0397511Y0204773D02*
X0215926Y0204773D01*
X0215926Y0205571D02*
X0397511Y0205571D01*
X0397511Y0206370D02*
X0215926Y0206370D01*
X0215926Y0207168D02*
X0397511Y0207168D01*
X0397511Y0207967D02*
X0215926Y0207967D01*
X0215926Y0208765D02*
X0397511Y0208765D01*
X0397511Y0209564D02*
X0215926Y0209564D01*
X0215926Y0210362D02*
X0397511Y0210362D01*
X0397511Y0211161D02*
X0215926Y0211161D01*
X0215926Y0211959D02*
X0397511Y0211959D01*
X0397511Y0212758D02*
X0215926Y0212758D01*
X0215926Y0213556D02*
X0397511Y0213556D01*
X0397511Y0214355D02*
X0215926Y0214355D01*
X0215926Y0215153D02*
X0397511Y0215153D01*
X0397511Y0215952D02*
X0215926Y0215952D01*
X0215926Y0216751D02*
X0397556Y0216751D01*
X0397902Y0217549D02*
X0215926Y0217549D01*
X0215926Y0218348D02*
X0398911Y0218348D01*
X0401448Y0219146D02*
X0215926Y0219146D01*
X0215926Y0219945D02*
X0401448Y0219945D01*
X0401448Y0220743D02*
X0215926Y0220743D01*
X0215926Y0221542D02*
X0401448Y0221542D01*
X0401448Y0222340D02*
X0215926Y0222340D01*
X0215926Y0223139D02*
X0401448Y0223139D01*
X0401448Y0223937D02*
X0215926Y0223937D01*
X0215926Y0224736D02*
X0401448Y0224736D01*
X0401448Y0225534D02*
X0215926Y0225534D01*
X0215926Y0226333D02*
X0401448Y0226333D01*
X0401448Y0227131D02*
X0215926Y0227131D01*
X0215926Y0227930D02*
X0401448Y0227930D01*
X0401448Y0228728D02*
X0215926Y0228728D01*
X0215926Y0229527D02*
X0401448Y0229527D01*
X0401448Y0230325D02*
X0215926Y0230325D01*
X0215926Y0231124D02*
X0401448Y0231124D01*
X0401448Y0231922D02*
X0215926Y0231922D01*
X0215926Y0232721D02*
X0401448Y0232721D01*
X0401448Y0233519D02*
X0215926Y0233519D01*
X0215926Y0234318D02*
X0401448Y0234318D01*
X0401448Y0235116D02*
X0215926Y0235116D01*
X0215587Y0235915D02*
X0401448Y0235915D01*
X0401448Y0236713D02*
X0214788Y0236713D01*
X0213990Y0237512D02*
X0401448Y0237512D01*
X0401448Y0238310D02*
X0213191Y0238310D01*
X0212393Y0239109D02*
X0401448Y0239109D01*
X0401448Y0239907D02*
X0211594Y0239907D01*
X0210796Y0240706D02*
X0401448Y0240706D01*
X0401448Y0241504D02*
X0209997Y0241504D01*
X0209198Y0242303D02*
X0401448Y0242303D01*
X0401448Y0243101D02*
X0208400Y0243101D01*
X0207601Y0243900D02*
X0401448Y0243900D01*
X0401448Y0244698D02*
X0207011Y0244698D01*
X0207011Y0245497D02*
X0401448Y0245497D01*
X0401448Y0246295D02*
X0207011Y0246295D01*
X0207011Y0247094D02*
X0401448Y0247094D01*
X0401448Y0247892D02*
X0207011Y0247892D01*
X0207011Y0248691D02*
X0401448Y0248691D01*
X0401448Y0249489D02*
X0207011Y0249489D01*
X0206819Y0250288D02*
X0401448Y0250288D01*
X0401448Y0251087D02*
X0206488Y0251087D01*
X0206006Y0251885D02*
X0401448Y0251885D01*
X0401448Y0252684D02*
X0205208Y0252684D01*
X0203714Y0253482D02*
X0401448Y0253482D01*
X0401448Y0254281D02*
X0203719Y0254281D01*
X0205210Y0255079D02*
X0401448Y0255079D01*
X0401448Y0255878D02*
X0206008Y0255878D01*
X0206489Y0256676D02*
X0401448Y0256676D01*
X0401448Y0257475D02*
X0206820Y0257475D01*
X0207003Y0258273D02*
X0401448Y0258273D01*
X0401448Y0259072D02*
X0207003Y0259072D01*
X0206992Y0259870D02*
X0401448Y0259870D01*
X0401448Y0260669D02*
X0206662Y0260669D01*
X0206331Y0261467D02*
X0401448Y0261467D01*
X0401448Y0262266D02*
X0205626Y0262266D01*
X0204723Y0263064D02*
X0401448Y0263064D01*
X0401448Y0279833D02*
X0380333Y0279833D01*
X0382193Y0280631D02*
X0401448Y0280631D01*
X0401448Y0281430D02*
X0383576Y0281430D01*
X0384711Y0282228D02*
X0401448Y0282228D01*
X0401448Y0283027D02*
X0385509Y0283027D01*
X0386308Y0283825D02*
X0401448Y0283825D01*
X0401448Y0284624D02*
X0387037Y0284624D01*
X0387498Y0285422D02*
X0401448Y0285422D01*
X0401448Y0286221D02*
X0387959Y0286221D01*
X0388420Y0287020D02*
X0401448Y0287020D01*
X0401448Y0287818D02*
X0388815Y0287818D01*
X0389029Y0288617D02*
X0401448Y0288617D01*
X0401448Y0289415D02*
X0389243Y0289415D01*
X0389457Y0290214D02*
X0401448Y0290214D01*
X0401448Y0291012D02*
X0389671Y0291012D01*
X0389700Y0291811D02*
X0401448Y0291811D01*
X0401448Y0292609D02*
X0389700Y0292609D01*
X0389700Y0293408D02*
X0401448Y0293408D01*
X0401448Y0294206D02*
X0389700Y0294206D01*
X0389632Y0295005D02*
X0401448Y0295005D01*
X0401448Y0295803D02*
X0389418Y0295803D01*
X0389204Y0296602D02*
X0401448Y0296602D01*
X0401448Y0297400D02*
X0388990Y0297400D01*
X0388776Y0298199D02*
X0401448Y0298199D01*
X0401448Y0298997D02*
X0388336Y0298997D01*
X0387875Y0299796D02*
X0401448Y0299796D01*
X0401448Y0300594D02*
X0387414Y0300594D01*
X0386953Y0301393D02*
X0401448Y0301393D01*
X0401448Y0302191D02*
X0386162Y0302191D01*
X0385364Y0302990D02*
X0401448Y0302990D01*
X0401448Y0303788D02*
X0384565Y0303788D01*
X0383324Y0304587D02*
X0401448Y0304587D01*
X0401448Y0305385D02*
X0381941Y0305385D01*
X0379789Y0306184D02*
X0401448Y0306184D01*
X0401448Y0306982D02*
X0206616Y0306982D01*
X0206285Y0306184D02*
X0372001Y0306184D01*
X0369849Y0305385D02*
X0205516Y0305385D01*
X0206947Y0307781D02*
X0401448Y0307781D01*
X0401448Y0308579D02*
X0207011Y0308579D01*
X0207011Y0309378D02*
X0401448Y0309378D01*
X0401448Y0310176D02*
X0207011Y0310176D01*
X0207023Y0310975D02*
X0401448Y0310975D01*
X0401448Y0311773D02*
X0207023Y0311773D01*
X0207023Y0312572D02*
X0401448Y0312572D01*
X0401448Y0313370D02*
X0207023Y0313370D01*
X0207023Y0314169D02*
X0401448Y0314169D01*
X0401448Y0314967D02*
X0207023Y0314967D01*
X0207023Y0315766D02*
X0401448Y0315766D01*
X0401448Y0316564D02*
X0207023Y0316564D01*
X0207023Y0317363D02*
X0401448Y0317363D01*
X0401448Y0318161D02*
X0207023Y0318161D01*
X0207023Y0318960D02*
X0401448Y0318960D01*
X0401448Y0319758D02*
X0207023Y0319758D01*
X0207023Y0320557D02*
X0401448Y0320557D01*
X0401448Y0321355D02*
X0207023Y0321355D01*
X0207023Y0322154D02*
X0401448Y0322154D01*
X0401448Y0322953D02*
X0207023Y0322953D01*
X0207023Y0323751D02*
X0401448Y0323751D01*
X0401448Y0324550D02*
X0207023Y0324550D01*
X0207023Y0325348D02*
X0401448Y0325348D01*
X0401448Y0326147D02*
X0207023Y0326147D01*
X0207023Y0326945D02*
X0401448Y0326945D01*
X0401448Y0327744D02*
X0207023Y0327744D01*
X0207023Y0328542D02*
X0401448Y0328542D01*
X0401448Y0329341D02*
X0207023Y0329341D01*
X0207023Y0330139D02*
X0401448Y0330139D01*
X0401448Y0330938D02*
X0207023Y0330938D01*
X0207023Y0331736D02*
X0401448Y0331736D01*
X0401448Y0332535D02*
X0207023Y0332535D01*
X0207023Y0333333D02*
X0401448Y0333333D01*
X0401448Y0334132D02*
X0207023Y0334132D01*
X0207023Y0334930D02*
X0387229Y0334930D01*
X0384593Y0335729D02*
X0207023Y0335729D01*
X0207023Y0336527D02*
X0383210Y0336527D01*
X0381830Y0337326D02*
X0207023Y0337326D01*
X0207023Y0338124D02*
X0381031Y0338124D01*
X0380233Y0338923D02*
X0207023Y0338923D01*
X0207789Y0339721D02*
X0379434Y0339721D01*
X0378932Y0340520D02*
X0208291Y0340520D01*
X0208752Y0341318D02*
X0378471Y0341318D01*
X0378010Y0342117D02*
X0209213Y0342117D01*
X0209662Y0342915D02*
X0377561Y0342915D01*
X0377347Y0343714D02*
X0209876Y0343714D01*
X0210090Y0344512D02*
X0377133Y0344512D01*
X0376919Y0345311D02*
X0210304Y0345311D01*
X0210518Y0346109D02*
X0376705Y0346109D01*
X0376657Y0346908D02*
X0210566Y0346908D01*
X0210566Y0347706D02*
X0376657Y0347706D01*
X0376657Y0348505D02*
X0210566Y0348505D01*
X0210566Y0349303D02*
X0376657Y0349303D01*
X0376733Y0350102D02*
X0210490Y0350102D01*
X0210276Y0350900D02*
X0376947Y0350900D01*
X0377161Y0351699D02*
X0210062Y0351699D01*
X0209848Y0352497D02*
X0377375Y0352497D01*
X0377609Y0353296D02*
X0209614Y0353296D01*
X0209153Y0354094D02*
X0378070Y0354094D01*
X0378531Y0354893D02*
X0208692Y0354893D01*
X0208231Y0355691D02*
X0378992Y0355691D01*
X0379539Y0356490D02*
X0207684Y0356490D01*
X0206886Y0357289D02*
X0380337Y0357289D01*
X0381136Y0358087D02*
X0206087Y0358087D01*
X0205215Y0358886D02*
X0382008Y0358886D01*
X0401204Y0340520D02*
X0401448Y0340520D01*
X0401448Y0339721D02*
X0400702Y0339721D01*
X0401448Y0338923D02*
X0399903Y0338923D01*
X0399105Y0338124D02*
X0401448Y0338124D01*
X0401448Y0337326D02*
X0398306Y0337326D01*
X0396926Y0336527D02*
X0401448Y0336527D01*
X0401448Y0335729D02*
X0395543Y0335729D01*
X0392907Y0334930D02*
X0401448Y0334930D01*
X0202155Y0318880D02*
X0197155Y0323880D01*
X0189123Y0323880D01*
X0187115Y0325888D01*
X0187115Y0330928D01*
X0176682Y0341361D01*
X0167824Y0341361D01*
X0164281Y0337817D01*
X0164281Y0333290D01*
X0168218Y0329353D02*
X0168218Y0337424D01*
X0170186Y0339392D01*
X0175698Y0339392D01*
X0185147Y0329943D01*
X0185147Y0317187D01*
X0188454Y0313880D01*
X0197155Y0313880D01*
X0202155Y0308880D01*
X0192555Y0306982D02*
X0191755Y0306982D01*
X0191755Y0306184D02*
X0192555Y0306184D01*
X0192555Y0305385D02*
X0191755Y0305385D01*
X0191755Y0304587D02*
X0192555Y0304587D01*
X0196962Y0287818D02*
X0197617Y0287818D01*
X0197886Y0287020D02*
X0196632Y0287020D01*
X0196301Y0286221D02*
X0198342Y0286221D01*
X0199039Y0285422D02*
X0195553Y0285422D01*
X0194548Y0284624D02*
X0200270Y0284624D01*
X0199497Y0283027D02*
X0194812Y0283027D01*
X0195663Y0282228D02*
X0198647Y0282228D01*
X0197963Y0281430D02*
X0196346Y0281430D01*
X0196677Y0280631D02*
X0197633Y0280631D01*
X0197307Y0279833D02*
X0197003Y0279833D01*
X0197003Y0279034D02*
X0197307Y0279034D01*
X0197307Y0278236D02*
X0197003Y0278236D01*
X0196805Y0277437D02*
X0197505Y0277437D01*
X0197836Y0276639D02*
X0196474Y0276639D01*
X0195971Y0275840D02*
X0198339Y0275840D01*
X0199137Y0275042D02*
X0195173Y0275042D01*
X0183147Y0321355D02*
X0175757Y0321355D01*
X0176455Y0322154D02*
X0183147Y0322154D01*
X0183147Y0322953D02*
X0176455Y0322953D01*
X0176455Y0323751D02*
X0183147Y0323751D01*
X0183147Y0324550D02*
X0176455Y0324550D01*
X0176455Y0325348D02*
X0183147Y0325348D01*
X0183147Y0326147D02*
X0176455Y0326147D01*
X0176455Y0326945D02*
X0183147Y0326945D01*
X0183147Y0327744D02*
X0176455Y0327744D01*
X0176455Y0328542D02*
X0183147Y0328542D01*
X0182921Y0329341D02*
X0175893Y0329341D01*
X0174794Y0330139D02*
X0182123Y0330139D01*
X0181324Y0330938D02*
X0175514Y0330938D01*
X0175961Y0331736D02*
X0180526Y0331736D01*
X0179727Y0332535D02*
X0176186Y0332535D01*
X0176243Y0333690D02*
X0176154Y0334250D01*
X0175954Y0334864D01*
X0175661Y0335439D01*
X0175282Y0335961D01*
X0174826Y0336417D01*
X0174304Y0336796D01*
X0173729Y0337089D01*
X0173115Y0337289D01*
X0172555Y0337377D01*
X0172555Y0333690D01*
X0176243Y0333690D01*
X0176173Y0334132D02*
X0178130Y0334132D01*
X0177332Y0334930D02*
X0175921Y0334930D01*
X0175451Y0335729D02*
X0176533Y0335729D01*
X0175735Y0336527D02*
X0174674Y0336527D01*
X0174936Y0337326D02*
X0172882Y0337326D01*
X0172555Y0337326D02*
X0171755Y0337326D01*
X0171428Y0337326D02*
X0170948Y0337326D01*
X0171755Y0336527D02*
X0172555Y0336527D01*
X0172555Y0335729D02*
X0171755Y0335729D01*
X0171755Y0334930D02*
X0172555Y0334930D01*
X0172555Y0334132D02*
X0171755Y0334132D01*
X0172555Y0333333D02*
X0178929Y0333333D01*
X0168218Y0329353D02*
X0164281Y0325416D01*
X0183937Y0344512D02*
X0184220Y0344512D01*
X0184006Y0345311D02*
X0183138Y0345311D01*
X0183792Y0346109D02*
X0182340Y0346109D01*
X0181541Y0346908D02*
X0183744Y0346908D01*
X0183744Y0347706D02*
X0180743Y0347706D01*
X0157867Y0146482D02*
X0156336Y0146482D01*
X0157303Y0145683D02*
X0158665Y0145683D01*
X0159464Y0144884D02*
X0157765Y0144884D01*
X0157989Y0144086D02*
X0160262Y0144086D01*
X0161061Y0143287D02*
X0158012Y0143287D01*
X0158012Y0142489D02*
X0161859Y0142489D01*
X0161519Y0140892D02*
X0158012Y0140892D01*
X0158012Y0140093D02*
X0160721Y0140093D01*
X0159922Y0139295D02*
X0157880Y0139295D01*
X0157488Y0138496D02*
X0159124Y0138496D01*
X0158325Y0137698D02*
X0156751Y0137698D01*
X0157527Y0136899D02*
X0154310Y0136899D01*
X0154310Y0136101D02*
X0156728Y0136101D01*
X0155212Y0137698D02*
X0154412Y0137698D01*
X0154412Y0138496D02*
X0155212Y0138496D01*
X0155212Y0139295D02*
X0154412Y0139295D01*
X0154412Y0140093D02*
X0155212Y0140093D01*
X0155212Y0140892D02*
X0154412Y0140892D01*
X0144812Y0141951D02*
X0144812Y0136912D01*
X0184026Y0122526D02*
X0015697Y0122526D01*
X0015697Y0121728D02*
X0183812Y0121728D01*
X0183744Y0120929D02*
X0015697Y0120929D01*
X0015697Y0120131D02*
X0183744Y0120131D01*
X0183744Y0119332D02*
X0015697Y0119332D01*
X0015697Y0118534D02*
X0183744Y0118534D01*
X0183799Y0117735D02*
X0015697Y0117735D01*
X0015697Y0116937D02*
X0184013Y0116937D01*
X0184227Y0116138D02*
X0015697Y0116138D01*
X0015697Y0115340D02*
X0184441Y0115340D01*
X0184655Y0114541D02*
X0015697Y0114541D01*
X0015697Y0113743D02*
X0185113Y0113743D01*
X0185574Y0112944D02*
X0015697Y0112944D01*
X0015697Y0112146D02*
X0186035Y0112146D01*
X0186549Y0111347D02*
X0015697Y0111347D01*
X0015697Y0110549D02*
X0187347Y0110549D01*
X0188146Y0109750D02*
X0043588Y0109750D01*
X0043067Y0109890D02*
X0039432Y0109890D01*
X0035921Y0108949D01*
X0032773Y0107132D01*
X0030203Y0104561D01*
X0028385Y0101413D01*
X0027445Y0097902D01*
X0027445Y0094268D01*
X0028385Y0090757D01*
X0030203Y0087609D01*
X0032773Y0085039D01*
X0035921Y0083221D01*
X0039432Y0082280D01*
X0043067Y0082280D01*
X0046578Y0083221D01*
X0049726Y0085039D01*
X0052296Y0087609D01*
X0054113Y0090757D01*
X0055054Y0094268D01*
X0055054Y0097902D01*
X0054113Y0101413D01*
X0052296Y0104561D01*
X0049726Y0107132D01*
X0046578Y0108949D01*
X0043067Y0109890D01*
X0046568Y0108951D02*
X0188962Y0108951D01*
X0190345Y0108153D02*
X0047956Y0108153D01*
X0049340Y0107354D02*
X0191728Y0107354D01*
X0194419Y0106556D02*
X0050301Y0106556D01*
X0051100Y0105757D02*
X0327629Y0105757D01*
X0327629Y0104959D02*
X0051898Y0104959D01*
X0052527Y0104160D02*
X0327629Y0104160D01*
X0327629Y0103362D02*
X0052988Y0103362D01*
X0053449Y0102563D02*
X0327629Y0102563D01*
X0327629Y0101765D02*
X0053910Y0101765D01*
X0054233Y0100966D02*
X0327629Y0100966D01*
X0327629Y0100168D02*
X0054447Y0100168D01*
X0054661Y0099369D02*
X0327629Y0099369D01*
X0327629Y0098571D02*
X0054875Y0098571D01*
X0055054Y0097772D02*
X0327629Y0097772D01*
X0327629Y0096974D02*
X0055054Y0096974D01*
X0055054Y0096175D02*
X0327629Y0096175D01*
X0327629Y0095377D02*
X0055054Y0095377D01*
X0055054Y0094578D02*
X0189501Y0094578D01*
X0188771Y0093780D02*
X0054923Y0093780D01*
X0054709Y0092981D02*
X0188456Y0092981D01*
X0188456Y0092183D02*
X0054495Y0092183D01*
X0054281Y0091384D02*
X0188456Y0091384D01*
X0188456Y0090586D02*
X0054015Y0090586D01*
X0053554Y0089787D02*
X0188456Y0089787D01*
X0188456Y0088989D02*
X0053093Y0088989D01*
X0052632Y0088190D02*
X0188456Y0088190D01*
X0188456Y0087392D02*
X0052079Y0087392D01*
X0051280Y0086593D02*
X0188456Y0086593D01*
X0188456Y0085795D02*
X0050482Y0085795D01*
X0049652Y0084996D02*
X0188456Y0084996D01*
X0188456Y0084198D02*
X0048269Y0084198D01*
X0046886Y0083399D02*
X0188456Y0083399D01*
X0188456Y0082601D02*
X0044262Y0082601D01*
X0038237Y0082601D02*
X0015697Y0082601D01*
X0015697Y0083399D02*
X0035613Y0083399D01*
X0034229Y0084198D02*
X0015697Y0084198D01*
X0015697Y0084996D02*
X0032846Y0084996D01*
X0032017Y0085795D02*
X0015697Y0085795D01*
X0015697Y0086593D02*
X0031218Y0086593D01*
X0030420Y0087392D02*
X0015697Y0087392D01*
X0015697Y0088190D02*
X0029867Y0088190D01*
X0029406Y0088989D02*
X0015697Y0088989D01*
X0015697Y0089787D02*
X0028945Y0089787D01*
X0028484Y0090586D02*
X0015697Y0090586D01*
X0015697Y0091384D02*
X0028217Y0091384D01*
X0028003Y0092183D02*
X0015697Y0092183D01*
X0015697Y0092981D02*
X0027789Y0092981D01*
X0027575Y0093780D02*
X0015697Y0093780D01*
X0015697Y0094578D02*
X0027445Y0094578D01*
X0027445Y0095377D02*
X0015697Y0095377D01*
X0015697Y0096175D02*
X0027445Y0096175D01*
X0027445Y0096974D02*
X0015697Y0096974D01*
X0015697Y0097772D02*
X0027445Y0097772D01*
X0027624Y0098571D02*
X0015697Y0098571D01*
X0015697Y0099369D02*
X0027838Y0099369D01*
X0028052Y0100168D02*
X0015697Y0100168D01*
X0015697Y0100966D02*
X0028266Y0100966D01*
X0028588Y0101765D02*
X0015697Y0101765D01*
X0015697Y0102563D02*
X0029049Y0102563D01*
X0029510Y0103362D02*
X0015697Y0103362D01*
X0015697Y0104160D02*
X0029971Y0104160D01*
X0030600Y0104959D02*
X0015697Y0104959D01*
X0015697Y0105757D02*
X0031399Y0105757D01*
X0032197Y0106556D02*
X0015697Y0106556D01*
X0015697Y0107354D02*
X0033159Y0107354D01*
X0034542Y0108153D02*
X0015697Y0108153D01*
X0015697Y0108951D02*
X0035930Y0108951D01*
X0038910Y0109750D02*
X0015697Y0109750D01*
X0015697Y0081802D02*
X0188456Y0081802D01*
X0188456Y0081004D02*
X0015697Y0081004D01*
X0015697Y0080205D02*
X0188456Y0080205D01*
X0188456Y0079407D02*
X0015697Y0079407D01*
X0015697Y0078608D02*
X0188456Y0078608D01*
X0188456Y0077810D02*
X0015697Y0077810D01*
X0015697Y0077011D02*
X0188456Y0077011D01*
X0188456Y0076213D02*
X0015697Y0076213D01*
X0015697Y0075414D02*
X0188456Y0075414D01*
X0188456Y0074616D02*
X0015697Y0074616D01*
X0015697Y0073817D02*
X0188456Y0073817D01*
X0188456Y0073018D02*
X0015697Y0073018D01*
X0015697Y0072220D02*
X0188456Y0072220D01*
X0188456Y0071421D02*
X0015697Y0071421D01*
X0015697Y0070623D02*
X0188456Y0070623D01*
X0188456Y0069824D02*
X0015697Y0069824D01*
X0015697Y0069026D02*
X0095687Y0069026D01*
X0095577Y0068916D02*
X0094976Y0069011D01*
X0094976Y0063021D01*
X0094176Y0063021D01*
X0094176Y0069011D01*
X0093557Y0068913D01*
X0092906Y0068702D01*
X0092296Y0068391D01*
X0091742Y0067988D01*
X0091258Y0067504D01*
X0090856Y0066950D01*
X0090545Y0066340D01*
X0090333Y0065689D01*
X0090226Y0065013D01*
X0090226Y0063020D01*
X0094176Y0063020D01*
X0094176Y0062220D01*
X0094976Y0062220D01*
X0094976Y0061208D01*
X0094248Y0061304D01*
X0094228Y0061304D01*
X0094228Y0055304D01*
X0093428Y0055304D01*
X0093428Y0056370D01*
X0093557Y0056328D01*
X0094176Y0056230D01*
X0094176Y0062220D01*
X0090226Y0062220D01*
X0090226Y0060228D01*
X0090229Y0060209D01*
X0089599Y0059726D01*
X0089006Y0059133D01*
X0088495Y0058467D01*
X0088076Y0057741D01*
X0087755Y0056966D01*
X0087538Y0056155D01*
X0087428Y0055323D01*
X0087428Y0055304D01*
X0093428Y0055304D01*
X0093428Y0054504D01*
X0087428Y0054504D01*
X0087428Y0054484D01*
X0087538Y0053653D01*
X0087755Y0052842D01*
X0088076Y0052067D01*
X0088495Y0051341D01*
X0089006Y0050675D01*
X0089599Y0050082D01*
X0090265Y0049571D01*
X0090991Y0049152D01*
X0091766Y0048831D01*
X0092577Y0048613D01*
X0093409Y0048504D01*
X0093428Y0048504D01*
X0093428Y0054504D01*
X0094228Y0054504D01*
X0094228Y0048504D01*
X0094248Y0048504D01*
X0094984Y0048601D01*
X0094984Y0047627D01*
X0095921Y0046690D01*
X0097228Y0046690D01*
X0097228Y0043591D01*
X0098233Y0041165D01*
X0100089Y0039309D01*
X0102515Y0038304D01*
X0105141Y0038304D01*
X0107567Y0039309D01*
X0109423Y0041165D01*
X0110428Y0043591D01*
X0110428Y0046217D01*
X0110408Y0046264D01*
X0110408Y0046690D01*
X0112294Y0046690D01*
X0113231Y0047627D01*
X0113231Y0048527D01*
X0113409Y0048504D01*
X0113428Y0048504D01*
X0113428Y0054504D01*
X0114228Y0054504D01*
X0114228Y0048504D01*
X0114248Y0048504D01*
X0115079Y0048613D01*
X0115890Y0048831D01*
X0116665Y0049152D01*
X0117391Y0049571D01*
X0118057Y0050082D01*
X0118650Y0050675D01*
X0119161Y0051341D01*
X0119580Y0052067D01*
X0119901Y0052842D01*
X0120119Y0053653D01*
X0120228Y0054484D01*
X0120228Y0054504D01*
X0114228Y0054504D01*
X0114228Y0055304D01*
X0113428Y0055304D01*
X0113428Y0061304D01*
X0113409Y0061304D01*
X0113231Y0061281D01*
X0113231Y0068323D01*
X0112294Y0069260D01*
X0095921Y0069260D01*
X0095577Y0068916D01*
X0094976Y0068227D02*
X0094176Y0068227D01*
X0094176Y0067429D02*
X0094976Y0067429D01*
X0094976Y0066630D02*
X0094176Y0066630D01*
X0094176Y0065832D02*
X0094976Y0065832D01*
X0094976Y0065033D02*
X0094176Y0065033D01*
X0094176Y0064235D02*
X0094976Y0064235D01*
X0094976Y0063436D02*
X0094176Y0063436D01*
X0094176Y0062638D02*
X0015697Y0062638D01*
X0015697Y0063436D02*
X0090226Y0063436D01*
X0090226Y0064235D02*
X0015697Y0064235D01*
X0015697Y0065033D02*
X0090229Y0065033D01*
X0090380Y0065832D02*
X0015697Y0065832D01*
X0015697Y0066630D02*
X0090693Y0066630D01*
X0091203Y0067429D02*
X0015697Y0067429D01*
X0015697Y0068227D02*
X0092071Y0068227D01*
X0090226Y0061839D02*
X0015697Y0061839D01*
X0015697Y0061041D02*
X0090226Y0061041D01*
X0090226Y0060242D02*
X0015697Y0060242D01*
X0015697Y0059444D02*
X0089317Y0059444D01*
X0088632Y0058645D02*
X0015697Y0058645D01*
X0015697Y0057847D02*
X0088137Y0057847D01*
X0087789Y0057048D02*
X0015697Y0057048D01*
X0015697Y0056250D02*
X0087563Y0056250D01*
X0087445Y0055451D02*
X0015697Y0055451D01*
X0015697Y0054653D02*
X0093428Y0054653D01*
X0093428Y0055451D02*
X0094228Y0055451D01*
X0094228Y0056250D02*
X0094176Y0056250D01*
X0094049Y0056250D02*
X0093428Y0056250D01*
X0094176Y0057048D02*
X0094228Y0057048D01*
X0094228Y0057847D02*
X0094176Y0057847D01*
X0094176Y0058645D02*
X0094228Y0058645D01*
X0094228Y0059444D02*
X0094176Y0059444D01*
X0094176Y0060242D02*
X0094228Y0060242D01*
X0094228Y0061041D02*
X0094176Y0061041D01*
X0094176Y0061839D02*
X0094976Y0061839D01*
X0094228Y0053854D02*
X0093428Y0053854D01*
X0093428Y0053056D02*
X0094228Y0053056D01*
X0094228Y0052257D02*
X0093428Y0052257D01*
X0093428Y0051459D02*
X0094228Y0051459D01*
X0094228Y0050660D02*
X0093428Y0050660D01*
X0093428Y0049862D02*
X0094228Y0049862D01*
X0094228Y0049063D02*
X0093428Y0049063D01*
X0094984Y0048265D02*
X0015697Y0048265D01*
X0015697Y0049063D02*
X0091205Y0049063D01*
X0089886Y0049862D02*
X0015697Y0049862D01*
X0015697Y0050660D02*
X0089021Y0050660D01*
X0088427Y0051459D02*
X0015697Y0051459D01*
X0015697Y0052257D02*
X0087997Y0052257D01*
X0087698Y0053056D02*
X0015697Y0053056D01*
X0015697Y0053854D02*
X0087511Y0053854D01*
X0095145Y0047466D02*
X0015697Y0047466D01*
X0015697Y0046668D02*
X0097228Y0046668D01*
X0097228Y0045869D02*
X0015697Y0045869D01*
X0015697Y0045071D02*
X0097228Y0045071D01*
X0097228Y0044272D02*
X0015697Y0044272D01*
X0015697Y0043474D02*
X0097277Y0043474D01*
X0097608Y0042675D02*
X0015697Y0042675D01*
X0015697Y0041877D02*
X0097938Y0041877D01*
X0098320Y0041078D02*
X0095514Y0041078D01*
X0095890Y0040977D02*
X0095079Y0041194D01*
X0094248Y0041304D01*
X0094228Y0041304D01*
X0094228Y0035304D01*
X0100228Y0035304D01*
X0100228Y0035323D01*
X0100119Y0036155D01*
X0099901Y0036966D01*
X0099580Y0037741D01*
X0099161Y0038467D01*
X0098650Y0039133D01*
X0098057Y0039726D01*
X0097391Y0040237D01*
X0096665Y0040656D01*
X0095890Y0040977D01*
X0097317Y0040280D02*
X0099119Y0040280D01*
X0099917Y0039481D02*
X0098302Y0039481D01*
X0098996Y0038682D02*
X0101601Y0038682D01*
X0099498Y0037884D02*
X0108159Y0037884D01*
X0107804Y0037085D02*
X0099852Y0037085D01*
X0100083Y0036287D02*
X0107573Y0036287D01*
X0107450Y0035488D02*
X0100206Y0035488D01*
X0100150Y0033891D02*
X0107506Y0033891D01*
X0107688Y0033093D02*
X0099969Y0033093D01*
X0099674Y0032294D02*
X0107982Y0032294D01*
X0108406Y0031496D02*
X0099251Y0031496D01*
X0098667Y0030697D02*
X0108989Y0030697D01*
X0109838Y0029899D02*
X0097818Y0029899D01*
X0094228Y0034690D02*
X0113428Y0034690D01*
X0113428Y0035488D02*
X0114228Y0035488D01*
X0114228Y0035304D02*
X0114228Y0041304D01*
X0114248Y0041304D01*
X0115079Y0041194D01*
X0115890Y0040977D01*
X0116665Y0040656D01*
X0117391Y0040237D01*
X0118057Y0039726D01*
X0118650Y0039133D01*
X0119161Y0038467D01*
X0119580Y0037741D01*
X0119901Y0036966D01*
X0120119Y0036155D01*
X0120228Y0035323D01*
X0120228Y0035304D01*
X0114228Y0035304D01*
X0114228Y0034690D02*
X0147759Y0034690D01*
X0147759Y0035488D02*
X0148559Y0035488D01*
X0148559Y0034690D02*
X0167759Y0034690D01*
X0167759Y0035488D02*
X0168559Y0035488D01*
X0168559Y0034690D02*
X0188456Y0034690D01*
X0188456Y0035488D02*
X0174537Y0035488D01*
X0174414Y0036287D02*
X0188456Y0036287D01*
X0188456Y0037085D02*
X0174182Y0037085D01*
X0173828Y0037884D02*
X0188456Y0037884D01*
X0188456Y0038682D02*
X0173326Y0038682D01*
X0172633Y0039481D02*
X0188456Y0039481D01*
X0188456Y0040280D02*
X0171648Y0040280D01*
X0169844Y0041078D02*
X0188456Y0041078D01*
X0188456Y0041877D02*
X0164049Y0041877D01*
X0163754Y0041165D02*
X0164759Y0043591D01*
X0164759Y0046217D01*
X0164755Y0046226D01*
X0164755Y0046690D01*
X0166617Y0046690D01*
X0167554Y0047627D01*
X0167554Y0048528D01*
X0167739Y0048504D01*
X0167759Y0048504D01*
X0167759Y0054504D01*
X0168559Y0054504D01*
X0168559Y0055304D01*
X0174559Y0055304D01*
X0174559Y0055323D01*
X0174449Y0056155D01*
X0174232Y0056966D01*
X0173911Y0057741D01*
X0173492Y0058467D01*
X0172981Y0059133D01*
X0172388Y0059726D01*
X0171722Y0060237D01*
X0170995Y0060656D01*
X0170220Y0060977D01*
X0169410Y0061194D01*
X0168578Y0061304D01*
X0168559Y0061304D01*
X0168559Y0055304D01*
X0167759Y0055304D01*
X0167759Y0061304D01*
X0167739Y0061304D01*
X0167554Y0061280D01*
X0167554Y0068323D01*
X0166617Y0069260D01*
X0150134Y0069260D01*
X0149806Y0068932D01*
X0149307Y0069011D01*
X0149307Y0068433D01*
X0149197Y0068323D01*
X0149197Y0063021D01*
X0148507Y0063021D01*
X0148507Y0069011D01*
X0147888Y0068913D01*
X0147237Y0068702D01*
X0146627Y0068391D01*
X0146073Y0067988D01*
X0145589Y0067504D01*
X0145186Y0066950D01*
X0144876Y0066340D01*
X0144664Y0065689D01*
X0144557Y0065013D01*
X0144557Y0063020D01*
X0148507Y0063020D01*
X0148507Y0062220D01*
X0149197Y0062220D01*
X0149197Y0061223D01*
X0148578Y0061304D01*
X0148559Y0061304D01*
X0148559Y0055304D01*
X0147759Y0055304D01*
X0147759Y0056370D01*
X0147888Y0056328D01*
X0148507Y0056230D01*
X0148507Y0062220D01*
X0144557Y0062220D01*
X0144557Y0060228D01*
X0144560Y0060209D01*
X0143930Y0059726D01*
X0143337Y0059133D01*
X0142826Y0058467D01*
X0142406Y0057741D01*
X0142085Y0056966D01*
X0141868Y0056155D01*
X0141759Y0055323D01*
X0141759Y0055304D01*
X0147759Y0055304D01*
X0147759Y0054504D01*
X0148559Y0054504D01*
X0148559Y0048504D01*
X0148578Y0048504D01*
X0149197Y0048585D01*
X0149197Y0047627D01*
X0150134Y0046690D01*
X0151559Y0046690D01*
X0151559Y0043591D01*
X0152564Y0041165D01*
X0154420Y0039309D01*
X0156846Y0038304D01*
X0159472Y0038304D01*
X0161897Y0039309D01*
X0163754Y0041165D01*
X0163667Y0041078D02*
X0166473Y0041078D01*
X0167759Y0041078D02*
X0168559Y0041078D01*
X0168559Y0040280D02*
X0167759Y0040280D01*
X0167759Y0039481D02*
X0168559Y0039481D01*
X0168559Y0038682D02*
X0167759Y0038682D01*
X0167759Y0037884D02*
X0168559Y0037884D01*
X0168559Y0037085D02*
X0167759Y0037085D01*
X0167759Y0036287D02*
X0168559Y0036287D01*
X0164670Y0040280D02*
X0162868Y0040280D01*
X0162070Y0039481D02*
X0163685Y0039481D01*
X0162991Y0038682D02*
X0160386Y0038682D01*
X0162489Y0037884D02*
X0153828Y0037884D01*
X0154182Y0037085D02*
X0162135Y0037085D01*
X0161904Y0036287D02*
X0154414Y0036287D01*
X0154537Y0035488D02*
X0161781Y0035488D01*
X0161837Y0033891D02*
X0154481Y0033891D01*
X0154299Y0033093D02*
X0162018Y0033093D01*
X0162312Y0032294D02*
X0154005Y0032294D01*
X0153581Y0031496D02*
X0162736Y0031496D01*
X0163320Y0030697D02*
X0152998Y0030697D01*
X0152149Y0029899D02*
X0164168Y0029899D01*
X0172149Y0029899D02*
X0188456Y0029899D01*
X0188456Y0030697D02*
X0172998Y0030697D01*
X0173581Y0031496D02*
X0188456Y0031496D01*
X0188456Y0032294D02*
X0174005Y0032294D01*
X0174299Y0033093D02*
X0188456Y0033093D01*
X0188456Y0033891D02*
X0174481Y0033891D01*
X0164379Y0042675D02*
X0188456Y0042675D01*
X0188456Y0043474D02*
X0164710Y0043474D01*
X0164759Y0044272D02*
X0188456Y0044272D01*
X0188456Y0045071D02*
X0164759Y0045071D01*
X0164759Y0045869D02*
X0188456Y0045869D01*
X0188456Y0046668D02*
X0164755Y0046668D01*
X0167393Y0047466D02*
X0188456Y0047466D01*
X0188456Y0048265D02*
X0167554Y0048265D01*
X0167759Y0049063D02*
X0168559Y0049063D01*
X0168559Y0048504D02*
X0168578Y0048504D01*
X0169410Y0048613D01*
X0170220Y0048831D01*
X0170995Y0049152D01*
X0171722Y0049571D01*
X0172388Y0050082D01*
X0172981Y0050675D01*
X0173492Y0051341D01*
X0173911Y0052067D01*
X0174232Y0052842D01*
X0174449Y0053653D01*
X0174559Y0054484D01*
X0174559Y0054504D01*
X0168559Y0054504D01*
X0168559Y0048504D01*
X0168559Y0049862D02*
X0167759Y0049862D01*
X0167759Y0050660D02*
X0168559Y0050660D01*
X0168559Y0051459D02*
X0167759Y0051459D01*
X0167759Y0052257D02*
X0168559Y0052257D01*
X0168559Y0053056D02*
X0167759Y0053056D01*
X0167759Y0053854D02*
X0168559Y0053854D01*
X0168559Y0054653D02*
X0188456Y0054653D01*
X0188456Y0055451D02*
X0174542Y0055451D01*
X0174424Y0056250D02*
X0188456Y0056250D01*
X0188456Y0057048D02*
X0174198Y0057048D01*
X0173850Y0057847D02*
X0188456Y0057847D01*
X0188456Y0058645D02*
X0173355Y0058645D01*
X0172670Y0059444D02*
X0188456Y0059444D01*
X0188456Y0060242D02*
X0171712Y0060242D01*
X0169983Y0061041D02*
X0188456Y0061041D01*
X0188456Y0061839D02*
X0167554Y0061839D01*
X0167554Y0062638D02*
X0188456Y0062638D01*
X0188456Y0063436D02*
X0167554Y0063436D01*
X0167554Y0064235D02*
X0188456Y0064235D01*
X0188456Y0065033D02*
X0167554Y0065033D01*
X0167554Y0065832D02*
X0188456Y0065832D01*
X0188456Y0066630D02*
X0167554Y0066630D01*
X0167554Y0067429D02*
X0188456Y0067429D01*
X0188456Y0068227D02*
X0167554Y0068227D01*
X0166851Y0069026D02*
X0188456Y0069026D01*
X0188456Y0053854D02*
X0174476Y0053854D01*
X0174289Y0053056D02*
X0188456Y0053056D01*
X0188456Y0052257D02*
X0173990Y0052257D01*
X0173560Y0051459D02*
X0188456Y0051459D01*
X0188456Y0050660D02*
X0172966Y0050660D01*
X0172101Y0049862D02*
X0188456Y0049862D01*
X0188456Y0049063D02*
X0170782Y0049063D01*
X0168559Y0055451D02*
X0167759Y0055451D01*
X0167759Y0056250D02*
X0168559Y0056250D01*
X0168559Y0057048D02*
X0167759Y0057048D01*
X0167759Y0057847D02*
X0168559Y0057847D01*
X0168559Y0058645D02*
X0167759Y0058645D01*
X0167759Y0059444D02*
X0168559Y0059444D01*
X0168559Y0060242D02*
X0167759Y0060242D01*
X0167759Y0061041D02*
X0168559Y0061041D01*
X0149197Y0061839D02*
X0148507Y0061839D01*
X0148507Y0061041D02*
X0148559Y0061041D01*
X0148559Y0060242D02*
X0148507Y0060242D01*
X0148507Y0059444D02*
X0148559Y0059444D01*
X0148559Y0058645D02*
X0148507Y0058645D01*
X0148507Y0057847D02*
X0148559Y0057847D01*
X0148559Y0057048D02*
X0148507Y0057048D01*
X0148507Y0056250D02*
X0148559Y0056250D01*
X0148380Y0056250D02*
X0147759Y0056250D01*
X0147759Y0055451D02*
X0148559Y0055451D01*
X0147759Y0054653D02*
X0114228Y0054653D01*
X0114228Y0055304D02*
X0120228Y0055304D01*
X0120228Y0055323D01*
X0120119Y0056155D01*
X0119901Y0056966D01*
X0119580Y0057741D01*
X0119161Y0058467D01*
X0118650Y0059133D01*
X0118057Y0059726D01*
X0117391Y0060237D01*
X0116665Y0060656D01*
X0115890Y0060977D01*
X0115079Y0061194D01*
X0114248Y0061304D01*
X0114228Y0061304D01*
X0114228Y0055304D01*
X0114228Y0055451D02*
X0113428Y0055451D01*
X0113428Y0056250D02*
X0114228Y0056250D01*
X0114228Y0057048D02*
X0113428Y0057048D01*
X0113428Y0057847D02*
X0114228Y0057847D01*
X0114228Y0058645D02*
X0113428Y0058645D01*
X0113428Y0059444D02*
X0114228Y0059444D01*
X0114228Y0060242D02*
X0113428Y0060242D01*
X0113428Y0061041D02*
X0114228Y0061041D01*
X0113231Y0061839D02*
X0144557Y0061839D01*
X0144557Y0061041D02*
X0115653Y0061041D01*
X0117382Y0060242D02*
X0144557Y0060242D01*
X0143648Y0059444D02*
X0118339Y0059444D01*
X0119024Y0058645D02*
X0142963Y0058645D01*
X0142468Y0057847D02*
X0119519Y0057847D01*
X0119867Y0057048D02*
X0142120Y0057048D01*
X0141894Y0056250D02*
X0120093Y0056250D01*
X0120211Y0055451D02*
X0141776Y0055451D01*
X0141759Y0054504D02*
X0141759Y0054484D01*
X0141868Y0053653D01*
X0142085Y0052842D01*
X0142406Y0052067D01*
X0142826Y0051341D01*
X0143337Y0050675D01*
X0143930Y0050082D01*
X0144595Y0049571D01*
X0145322Y0049152D01*
X0146097Y0048831D01*
X0146908Y0048613D01*
X0147739Y0048504D01*
X0147759Y0048504D01*
X0147759Y0054504D01*
X0141759Y0054504D01*
X0141842Y0053854D02*
X0120145Y0053854D01*
X0119959Y0053056D02*
X0142028Y0053056D01*
X0142328Y0052257D02*
X0119659Y0052257D01*
X0119229Y0051459D02*
X0142758Y0051459D01*
X0143352Y0050660D02*
X0118635Y0050660D01*
X0117770Y0049862D02*
X0144217Y0049862D01*
X0145536Y0049063D02*
X0116451Y0049063D01*
X0114228Y0049063D02*
X0113428Y0049063D01*
X0113428Y0049862D02*
X0114228Y0049862D01*
X0114228Y0050660D02*
X0113428Y0050660D01*
X0113428Y0051459D02*
X0114228Y0051459D01*
X0114228Y0052257D02*
X0113428Y0052257D01*
X0113428Y0053056D02*
X0114228Y0053056D01*
X0114228Y0053854D02*
X0113428Y0053854D01*
X0113231Y0048265D02*
X0149197Y0048265D01*
X0149357Y0047466D02*
X0113070Y0047466D01*
X0110408Y0046668D02*
X0151559Y0046668D01*
X0151559Y0045869D02*
X0110428Y0045869D01*
X0110428Y0045071D02*
X0151559Y0045071D01*
X0151559Y0044272D02*
X0110428Y0044272D01*
X0110379Y0043474D02*
X0151607Y0043474D01*
X0151938Y0042675D02*
X0110049Y0042675D01*
X0109718Y0041877D02*
X0152269Y0041877D01*
X0152651Y0041078D02*
X0149844Y0041078D01*
X0148559Y0041078D02*
X0147759Y0041078D01*
X0147759Y0040280D02*
X0148559Y0040280D01*
X0148559Y0039481D02*
X0147759Y0039481D01*
X0147759Y0038682D02*
X0148559Y0038682D01*
X0148559Y0037884D02*
X0147759Y0037884D01*
X0147759Y0037085D02*
X0148559Y0037085D01*
X0148559Y0036287D02*
X0147759Y0036287D01*
X0144670Y0040280D02*
X0117317Y0040280D01*
X0118302Y0039481D02*
X0143685Y0039481D01*
X0142991Y0038682D02*
X0118996Y0038682D01*
X0119498Y0037884D02*
X0142489Y0037884D01*
X0142135Y0037085D02*
X0119852Y0037085D01*
X0120083Y0036287D02*
X0141904Y0036287D01*
X0141781Y0035488D02*
X0120206Y0035488D01*
X0120150Y0033891D02*
X0141837Y0033891D01*
X0142018Y0033093D02*
X0119969Y0033093D01*
X0119674Y0032294D02*
X0142312Y0032294D01*
X0142736Y0031496D02*
X0119251Y0031496D01*
X0118667Y0030697D02*
X0143320Y0030697D01*
X0144168Y0029899D02*
X0117818Y0029899D01*
X0114228Y0036287D02*
X0113428Y0036287D01*
X0113428Y0037085D02*
X0114228Y0037085D01*
X0114228Y0037884D02*
X0113428Y0037884D01*
X0113428Y0038682D02*
X0114228Y0038682D01*
X0114228Y0039481D02*
X0113428Y0039481D01*
X0113428Y0040280D02*
X0114228Y0040280D01*
X0114228Y0041078D02*
X0113428Y0041078D01*
X0112142Y0041078D02*
X0109336Y0041078D01*
X0108537Y0040280D02*
X0110339Y0040280D01*
X0109354Y0039481D02*
X0107739Y0039481D01*
X0108660Y0038682D02*
X0106055Y0038682D01*
X0115514Y0041078D02*
X0146473Y0041078D01*
X0151648Y0040280D02*
X0153449Y0040280D01*
X0154248Y0039481D02*
X0152633Y0039481D01*
X0153326Y0038682D02*
X0155932Y0038682D01*
X0148559Y0049063D02*
X0147759Y0049063D01*
X0147759Y0049862D02*
X0148559Y0049862D01*
X0148559Y0050660D02*
X0147759Y0050660D01*
X0147759Y0051459D02*
X0148559Y0051459D01*
X0148559Y0052257D02*
X0147759Y0052257D01*
X0147759Y0053056D02*
X0148559Y0053056D01*
X0148559Y0053854D02*
X0147759Y0053854D01*
X0148507Y0062638D02*
X0113231Y0062638D01*
X0113231Y0063436D02*
X0144557Y0063436D01*
X0144557Y0064235D02*
X0113231Y0064235D01*
X0113231Y0065033D02*
X0144560Y0065033D01*
X0144710Y0065832D02*
X0113231Y0065832D01*
X0113231Y0066630D02*
X0145023Y0066630D01*
X0145534Y0067429D02*
X0113231Y0067429D01*
X0113231Y0068227D02*
X0146402Y0068227D01*
X0148507Y0068227D02*
X0149197Y0068227D01*
X0149197Y0067429D02*
X0148507Y0067429D01*
X0148507Y0066630D02*
X0149197Y0066630D01*
X0149197Y0065832D02*
X0148507Y0065832D01*
X0148507Y0065033D02*
X0149197Y0065033D01*
X0149197Y0064235D02*
X0148507Y0064235D01*
X0148507Y0063436D02*
X0149197Y0063436D01*
X0149900Y0069026D02*
X0112528Y0069026D01*
X0094228Y0041078D02*
X0093428Y0041078D01*
X0093428Y0040280D02*
X0094228Y0040280D01*
X0094228Y0039481D02*
X0093428Y0039481D01*
X0093428Y0038682D02*
X0094228Y0038682D01*
X0094228Y0037884D02*
X0093428Y0037884D01*
X0093428Y0037085D02*
X0094228Y0037085D01*
X0094228Y0036287D02*
X0093428Y0036287D01*
X0093428Y0035488D02*
X0094228Y0035488D01*
X0093428Y0034690D02*
X0015697Y0034690D01*
X0015697Y0035488D02*
X0087450Y0035488D01*
X0087573Y0036287D02*
X0015697Y0036287D01*
X0015697Y0037085D02*
X0087804Y0037085D01*
X0088159Y0037884D02*
X0015697Y0037884D01*
X0015697Y0038682D02*
X0088660Y0038682D01*
X0089354Y0039481D02*
X0015697Y0039481D01*
X0015697Y0040280D02*
X0090339Y0040280D01*
X0092142Y0041078D02*
X0015697Y0041078D01*
X0015697Y0033891D02*
X0087506Y0033891D01*
X0087688Y0033093D02*
X0015697Y0033093D01*
X0015697Y0032294D02*
X0087982Y0032294D01*
X0088406Y0031496D02*
X0015697Y0031496D01*
X0015697Y0030697D02*
X0088989Y0030697D01*
X0089838Y0029899D02*
X0015697Y0029899D01*
X0199890Y0106556D02*
X0327629Y0106556D01*
X0327629Y0107354D02*
X0202582Y0107354D01*
X0203965Y0108153D02*
X0327782Y0108153D01*
X0328281Y0108951D02*
X0205348Y0108951D01*
D30*
X0207115Y0140928D02*
X0207115Y0141794D01*
X0207116Y0140928D02*
X0207106Y0140847D01*
X0207092Y0140767D01*
X0207075Y0140687D01*
X0207054Y0140609D01*
X0207029Y0140531D01*
X0207001Y0140455D01*
X0206969Y0140380D01*
X0206934Y0140307D01*
X0206895Y0140235D01*
X0206853Y0140165D01*
X0206808Y0140098D01*
X0206760Y0140032D01*
X0206709Y0139969D01*
X0206655Y0139908D01*
X0206599Y0139849D01*
X0206539Y0139794D01*
X0206478Y0139741D01*
X0206413Y0139691D01*
X0206347Y0139644D01*
X0206278Y0139600D01*
X0206208Y0139559D01*
X0206136Y0139522D01*
X0206062Y0139488D01*
X0205986Y0139458D01*
X0205910Y0139431D01*
X0205832Y0139407D01*
X0205753Y0139387D01*
X0205673Y0139371D01*
X0205593Y0139359D01*
X0205512Y0139350D01*
X0205431Y0139345D01*
X0205349Y0139344D01*
X0205268Y0139347D01*
X0205187Y0139353D01*
X0187647Y0185632D02*
X0187647Y0187365D01*
X0187649Y0187428D01*
X0187654Y0187491D01*
X0187663Y0187553D01*
X0187676Y0187615D01*
X0187692Y0187676D01*
X0187712Y0187735D01*
X0187736Y0187794D01*
X0187762Y0187851D01*
X0187792Y0187907D01*
X0187825Y0187960D01*
X0187861Y0188012D01*
X0187900Y0188061D01*
X0187942Y0188108D01*
X0187987Y0188153D01*
X0188034Y0188195D01*
X0188083Y0188234D01*
X0188135Y0188270D01*
X0188189Y0188303D01*
X0188244Y0188333D01*
X0188301Y0188359D01*
X0188360Y0188383D01*
X0188419Y0188403D01*
X0188480Y0188419D01*
X0188542Y0188432D01*
X0188604Y0188441D01*
X0188667Y0188446D01*
X0188730Y0188448D01*
X0137076Y0173422D02*
X0134877Y0173422D01*
X0134877Y0172187D01*
X0192647Y0241912D02*
X0192647Y0242424D01*
X0192653Y0242485D01*
X0192662Y0242547D01*
X0192675Y0242607D01*
X0192692Y0242666D01*
X0192712Y0242725D01*
X0192736Y0242782D01*
X0192763Y0242837D01*
X0192793Y0242891D01*
X0192827Y0242943D01*
X0192863Y0242992D01*
X0192903Y0243040D01*
X0192945Y0243085D01*
X0192990Y0243127D01*
X0193038Y0243166D01*
X0193088Y0243203D01*
X0193139Y0243236D01*
X0193193Y0243267D01*
X0193249Y0243293D01*
X0193306Y0243317D01*
X0193364Y0243337D01*
X0193424Y0243354D01*
X0193484Y0243366D01*
X0193545Y0243376D01*
X0193607Y0243381D01*
X0193668Y0243383D01*
X0193730Y0243381D01*
X0188927Y0309353D02*
X0188844Y0309355D01*
X0188761Y0309360D01*
X0188679Y0309369D01*
X0188597Y0309383D01*
X0188516Y0309400D01*
X0188436Y0309421D01*
X0188357Y0309446D01*
X0188279Y0309474D01*
X0188202Y0309506D01*
X0188128Y0309542D01*
X0188055Y0309581D01*
X0187983Y0309624D01*
X0187915Y0309670D01*
X0187848Y0309720D01*
X0187784Y0309772D01*
X0187722Y0309827D01*
X0187663Y0309886D01*
X0187607Y0309947D01*
X0187554Y0310010D01*
X0187504Y0310077D01*
X0187457Y0310145D01*
X0187413Y0310215D01*
X0187373Y0310288D01*
X0187337Y0310362D01*
X0187303Y0310438D01*
X0187274Y0310516D01*
X0187248Y0310595D01*
X0187226Y0310675D01*
X0187208Y0310756D01*
X0187194Y0310837D01*
X0187184Y0310920D01*
X0187177Y0311002D01*
X0187175Y0311085D01*
X0187175Y0311715D01*
X0179438Y0322345D02*
X0176555Y0322345D01*
X0176555Y0328820D01*
X0175559Y0329816D01*
X0170318Y0329816D01*
X0170318Y0336554D01*
X0171056Y0337292D01*
X0174828Y0337292D01*
X0179438Y0332682D01*
X0179438Y0322345D01*
X0179438Y0322661D02*
X0176555Y0322661D01*
X0176555Y0323660D02*
X0179438Y0323660D01*
X0179438Y0324658D02*
X0176555Y0324658D01*
X0176555Y0325657D02*
X0179438Y0325657D01*
X0179438Y0326655D02*
X0176555Y0326655D01*
X0176555Y0327654D02*
X0179438Y0327654D01*
X0179438Y0328652D02*
X0176555Y0328652D01*
X0175724Y0329651D02*
X0179438Y0329651D01*
X0179438Y0330649D02*
X0170318Y0330649D01*
X0170318Y0331648D02*
X0179438Y0331648D01*
X0179438Y0332646D02*
X0170318Y0332646D01*
X0170318Y0333645D02*
X0178476Y0333645D01*
X0177477Y0334643D02*
X0170318Y0334643D01*
X0170318Y0335642D02*
X0176479Y0335642D01*
X0175480Y0336640D02*
X0170404Y0336640D01*
X0150068Y0069195D02*
X0149005Y0068132D01*
X0148427Y0049668D02*
X0151458Y0046636D01*
X0097127Y0046636D02*
X0094096Y0049668D01*
X0094675Y0068132D02*
X0095738Y0069195D01*
D31*
X0104340Y0071676D03*
X0130423Y0088802D03*
X0156505Y0071676D03*
X0180619Y0063900D03*
X0180619Y0038998D03*
X0130423Y0038998D03*
X0078257Y0038998D03*
X0052175Y0038998D03*
X0025895Y0038998D03*
X0025895Y0063900D03*
X0052175Y0063900D03*
X0078257Y0088802D03*
X0052175Y0114825D03*
X0025895Y0114825D03*
X0026092Y0140613D03*
X0025895Y0167896D03*
X0052175Y0167896D03*
X0072175Y0156912D03*
X0080482Y0148250D03*
X0090482Y0136912D03*
X0085482Y0135298D03*
X0101210Y0130928D03*
X0110147Y0143329D03*
X0101289Y0156912D03*
X0112214Y0167896D03*
X0126505Y0156912D03*
X0134812Y0148250D03*
X0144812Y0136912D03*
X0139812Y0135298D03*
X0121466Y0130928D03*
X0104340Y0114825D03*
X0156505Y0114825D03*
X0159714Y0141951D03*
X0176997Y0166361D03*
X0181604Y0192424D03*
X0157194Y0218349D03*
X0181604Y0244274D03*
X0157194Y0266243D03*
X0130423Y0282109D03*
X0090068Y0299825D03*
X0065856Y0327975D03*
X0052175Y0294904D03*
X0025895Y0297857D03*
X0025895Y0323054D03*
X0025895Y0350022D03*
X0104340Y0350022D03*
X0130423Y0350022D03*
X0156505Y0350022D03*
X0182588Y0350022D03*
X0234753Y0350022D03*
X0260836Y0350022D03*
X0286919Y0350022D03*
X0313001Y0350022D03*
X0339084Y0350022D03*
X0365167Y0350022D03*
X0365167Y0323054D03*
X0391249Y0323054D03*
X0391249Y0296085D03*
X0391249Y0269117D03*
X0365167Y0269117D03*
X0391249Y0244274D03*
X0391249Y0218349D03*
X0365167Y0218349D03*
X0391249Y0192424D03*
X0391249Y0166498D03*
X0365167Y0166498D03*
X0391249Y0140613D03*
X0365167Y0120435D03*
X0339084Y0120435D03*
X0339084Y0140613D03*
X0313001Y0120435D03*
X0313001Y0100258D03*
X0286919Y0100258D03*
X0260836Y0100258D03*
X0260836Y0120435D03*
X0286919Y0140613D03*
X0313001Y0166498D03*
X0286919Y0192424D03*
X0313001Y0218349D03*
X0286919Y0244274D03*
X0313001Y0269117D03*
X0339084Y0244274D03*
X0339084Y0296085D03*
X0313001Y0323054D03*
X0286919Y0296085D03*
X0260836Y0269117D03*
X0234753Y0244274D03*
X0260836Y0218349D03*
X0234753Y0192424D03*
X0260836Y0166498D03*
X0234753Y0140613D03*
X0234753Y0100258D03*
X0208671Y0100258D03*
X0180619Y0088802D03*
X0094005Y0192424D03*
X0104340Y0240337D03*
X0052175Y0240337D03*
X0025895Y0240337D03*
X0025895Y0266243D03*
X0025895Y0192424D03*
X0056210Y0143329D03*
X0026092Y0088802D03*
X0181604Y0296085D03*
X0130423Y0323054D03*
X0234753Y0296085D03*
X0260836Y0323054D03*
X0339084Y0192424D03*
D32*
X0061659Y0145869D02*
X0061659Y0143530D01*
X0061659Y0145869D02*
X0059025Y0145869D01*
D33*
X0184663Y0166947D02*
X0184771Y0167056D01*
X0186879Y0169164D01*
D34*
X0173155Y0222384D02*
X0173155Y0236361D01*
X0173155Y0294510D02*
X0173155Y0308487D01*
X0078667Y0297266D02*
X0078667Y0283290D01*
X0078667Y0224589D02*
X0078667Y0210613D01*
D35*
X0099911Y0213723D02*
X0099911Y0222699D01*
X0142824Y0265613D01*
X0142824Y0335455D01*
X0152273Y0344904D01*
X0178454Y0344904D01*
X0192037Y0331321D01*
X0192037Y0328998D01*
X0192155Y0328880D01*
X0156407Y0333290D02*
X0148533Y0325416D01*
X0148533Y0201006D01*
X0139478Y0191951D01*
X0114163Y0191951D01*
X0114163Y0181754D01*
X0126446Y0181754D01*
X0130423Y0177778D01*
X0114163Y0181754D02*
X0104871Y0181754D01*
X0104871Y0174471D01*
X0104871Y0181754D02*
X0045777Y0181754D01*
X0036722Y0172699D01*
X0103828Y0062620D02*
X0103828Y0044904D01*
X0158159Y0044904D02*
X0158159Y0062620D01*
D36*
X0095482Y0158093D02*
X0095462Y0158113D01*
X0104852Y0174451D02*
X0104871Y0174471D01*
X0153454Y0192345D02*
X0153454Y0322463D01*
X0156407Y0325416D01*
D37*
X0153454Y0192345D02*
X0147942Y0186833D01*
X0147942Y0182778D01*
X0140442Y0177778D02*
X0130423Y0177778D01*
X0104852Y0174451D02*
X0090462Y0174451D01*
X0095462Y0166951D02*
X0095462Y0158113D01*
X0095482Y0158093D02*
X0096663Y0156912D01*
X0119812Y0150219D02*
X0119812Y0141951D01*
X0065482Y0141951D02*
X0065482Y0150219D01*
D38*
X0096663Y0156912D02*
X0101289Y0156912D01*
D39*
X0119812Y0150219D02*
X0126505Y0156912D01*
X0157824Y0156912D01*
X0158690Y0156912D01*
X0163257Y0156912D01*
X0169399Y0150770D01*
X0157824Y0156912D02*
X0157824Y0161046D01*
X0072175Y0156912D02*
X0065482Y0150219D01*
M02*
