<svg version="1.1" xmlns="http://www.w3.org/2000/svg" xmlns:xlink="http://www.w3.org/1999/xlink" stroke-linecap="round" stroke-linejoin="round" stroke-width="0" fill-rule="evenodd" clip-rule="evenodd" id="rZot30QKtMhGP3r5mffl_bottom" viewBox="0 0 69000 68500" width="69mm" height="68.5mm" class="w-100 h-100"><defs><style>.rZot30QKtMhGP3r5mffl_fr4 {color: #666666;}
.rZot30QKtMhGP3r5mffl_cu {color: #cccccc;}
.rZot30QKtMhGP3r5mffl_cf {color: #cc9933;}
.rZot30QKtMhGP3r5mffl_sm {color: #004200; opacity: 0.75;}
.rZot30QKtMhGP3r5mffl_ss {color: #ffffff;}
.rZot30QKtMhGP3r5mffl_sp {color: #999999;}
.rZot30QKtMhGP3r5mffl_out {color: #000000;}</style><mask id="NcuovHd7YYXoq8mDTexX_clear-1" fill="#000" stroke="#000"><g><rect x="508.1" y="508.1" width="67983.8" height="67483.8" fill="#fff"/><path d="M 38222.4 31557.5 38222.4 31557.5 38133.1 31646.8 38133.1 36853.2 38222.4 36942.5 38717.4 36942.5 38729.2 36944 38741.1 36944.7 38744.9 36946 38749 36946.5 38760 36950.8 38771.3 36954.5 38774.8 36956.7 38778.5 36958.2 38788.1 36965.1 38798.2 36971.5 38801 36974.5 38804.3 36976.8 38811.9 36986 38820 36994.7 38822 36998.2 38824.5 37001.3 38829.6 37012.1 38835.4 37022.5 38836.4 37026.5 38838.1 37030.1 38840.3 37041.8 38843.3 37053.3 38843.7 37059.3 38844.1 37061.3 38843.9 37063.4 38844.3 37069.4 38844.3 39800.1 38843.1 39809.9 38842.8 39819.8 38841.1 39825.6 38840.3 39831.7 38836.7 39840.9 38833.9 39850.4 38830.9 39855.6 38828.6 39861.2 38822.8 39869.2 38817.8 39877.8 38811.2 39885.3 38810 39887 38809 39887.7 38807.2 39889.9 34144.3 44552.7 34144.3 50768.7 34143.1 50778.5 34142.8 50788.4 34141.1 50794.2 34140.3 50800.3 34136.7 50809.5 34133.9 50819 34130.9 50824.2 34128.6 50829.8 34122.8 50837.8 34117.8 50846.4 34113.7 50851 34113.6 50851.2 34113.3 50851.5 34111.2 50853.9 34110 50855.6 34109 50856.3 34107.2 50858.5 33983.5 50982.2 33975.6 50988.2 33968.4 50995 33963.1 50997.9 33958.3 51001.6 33949.2 51005.6 33940.6 51010.4 33934.7 51011.9 33929.1 51014.3 33919.3 51015.8 33909.8 51018.3 33899.8 51018.9 33897.7 51019.3 33896.5 51019.1 33893.7 51019.3 31509.4 51019.3 31497.6 51017.8 31485.7 51017.1 31481.9 51015.8 31477.8 51015.3 31466.8 51011 31455.5 51007.3 31452 51005.1 31448.3 51003.6 31438.7 50996.7 31428.6 50990.3 31425.8 50987.3 31422.5 50985 31414.9 50975.8 31406.8 50967.1 31404.8 50963.6 31402.3 50960.5 31397.2 50949.7 31391.4 50939.3 31390.4 50935.3 31388.7 50931.7 31386.5 50920 31383.5 50908.5 31383.1 50902.5 31382.7 50900.5 31382.9 50898.4 31382.5 50892.4 31382.5 50311.8 31293.2 50222.5 29566.8 50222.5 29477.5 50311.8 29477.5 52438.2 29566.8 52527.5 31293.2 52527.5 31382.5 52438.2 31382.5 51857.6 31384 51845.8 31384.7 51833.9 31386 51830.1 31386.5 51826 31390.8 51815 31394.5 51803.7 31396.7 51800.2 31398.2 51796.5 31405.1 51786.9 31411.5 51776.8 31414.5 51774 31416.8 51770.7 31426 51763.1 31434.7 51755 31438.2 51753 31441.3 51750.5 31452.1 51745.4 31462.5 51739.6 31466.5 51738.6 31470.1 51736.9 31481.8 51734.7 31493.3 51731.7 31499.3 51731.3 31501.3 51730.9 31503.4 51731.1 31509.4 51730.7 37490.6 51730.7 37502.4 51732.2 37514.3 51732.9 37518.1 51734.2 37522.2 51734.7 37533.2 51739 37544.5 51742.7 37548 51744.9 37551.7 51746.4 37561.3 51753.3 37571.4 51759.7 37574.2 51762.7 37577.5 51765 37585.1 51774.2 37593.2 51782.9 37595.2 51786.4 37597.7 51789.5 37602.8 51800.3 37608.6 51810.7 37609.6 51814.7 37611.3 51818.3 37613.5 51830 37616.5 51841.5 37616.9 51847.5 37617.3 51849.5 37617.1 51851.6 37617.5 51857.6 37617.5 52438.2 37706.8 52527.5 39433.2 52527.5 39522.5 52438.2 39522.5 50311.8 39433.2 50222.5 37706.8 50222.5 37617.5 50311.8 37617.5 50892.4 37616 50904.2 37615.3 50916.1 37614 50919.9 37613.5 50924 37609.2 50935 37605.5 50946.3 37603.3 50949.8 37601.8 50953.5 37594.9 50963.1 37588.5 50973.2 37585.5 50976 37583.2 50979.3 37574 50986.9 37565.3 50995 37561.8 50997 37558.7 50999.5 37547.9 51004.6 37537.5 51010.4 37533.5 51011.4 37529.9 51013.1 37518.2 51015.3 37506.7 51018.3 37500.7 51018.7 37498.7 51019.1 37496.6 51018.9 37490.6 51019.3 35106.3 51019.3 35096.5 51018.1 35086.6 51017.8 35080.8 51016.1 35074.7 51015.3 35065.5 51011.7 35056 51008.9 35050.8 51005.9 35045.2 51003.6 35037.2 50997.8 35028.6 50992.8 35021.1 50986.2 35019.4 50985 35018.7 50984 35016.5 50982.2 34892.8 50858.5 34886.8 50850.6 34880 50843.4 34877.5 50838.8 34877.1 50838.4 34876.8 50837.8 34873.4 50833.3 34869.4 50824.2 34864.6 50815.6 34863.1 50809.7 34860.7 50804.1 34859.2 50794.3 34856.7 50784.8 34856.1 50774.8 34855.7 50772.7 34855.9 50771.5 34855.7 50768.7 34855.7 44899.9 34856.9 44890.1 34857.2 44880.2 34858.9 44874.4 34859.7 44868.3 34863.3 44859.1 34866.1 44849.6 34869.1 44844.4 34871.4 44838.8 34877.2 44830.8 34882.2 44822.2 34888.8 44814.7 34890 44813 34891 44812.3 34892.8 44810.1 39555.7 40147.3 39555.7 37069.4 39557.2 37057.6 39557.9 37045.7 39559.2 37041.9 39559.7 37037.8 39564 37026.8 39567.7 37015.5 39569.9 37012 39571.4 37008.3 39578.3 36998.7 39584.7 36988.6 39587.7 36985.8 39590 36982.5 39599.2 36974.9 39607.9 36966.8 39611.4 36964.8 39614.5 36962.3 39625.3 36957.2 39635.7 36951.4 39639.7 36950.4 39643.3 36948.7 39655 36946.5 39666.5 36943.5 39672.5 36943.1 39674.5 36942.7 39676.6 36942.9 39682.6 36942.5 40177.6 36942.5 40266.9 36853.2 40266.9 31646.8 40177.6 31557.5 38222.4 31557.5"/></g></mask><mask id="NcuovHd7YYXoq8mDTexX_clear-2" fill="#000" stroke="#000"><g><rect x="508.1" y="508.1" width="67983.8" height="67483.8" fill="#fff"/><path d="M 34379.7 4395.1 34379.7 4395.1 34157.4 4487.2 33987.2 4657.4 33895.1 4879.7 33895.1 5120.3 33987.2 5342.6 34107.2 5462.6 34113.2 5470.4 34120 5477.6 34122.9 5482.9 34126.6 5487.7 34130.6 5496.8 34135.4 5505.5 34136.9 5511.3 34139.3 5516.9 34140.8 5526.7 34143.3 5536.3 34143.9 5546.3 34144.3 5548.3 34144.1 5549.5 34144.3 5552.3 34144.3 22800.1 34143.1 22809.9 34142.8 22819.8 34141.1 22825.6 34140.3 22831.7 34136.7 22840.9 34133.9 22850.4 34130.9 22855.6 34128.6 22861.2 34122.8 22869.2 34117.8 22877.8 34111.2 22885.3 34110 22887 34109 22887.7 34107.2 22889.9 30444.3 26552.7 30444.3 31430.6 30442.8 31442.4 30442.1 31454.3 30440.8 31458.1 30440.3 31462.2 30436 31473.2 30432.3 31484.5 30430.1 31488 30428.6 31491.7 30421.7 31501.3 30415.3 31511.4 30412.3 31514.2 30410 31517.5 30400.8 31525.1 30392.1 31533.2 30388.6 31535.2 30385.5 31537.7 30374.7 31542.8 30364.3 31548.6 30360.3 31549.6 30356.7 31551.3 30345 31553.5 30333.5 31556.5 30327.5 31556.9 30325.5 31557.3 30323.4 31557.1 30317.4 31557.5 29822.4 31557.5 29733.1 31646.8 29733.1 36853.2 29822.4 36942.5 31777.6 36942.5 31866.9 36853.2 31866.9 31646.8 31777.6 31557.5 31282.6 31557.5 31270.8 31556 31258.9 31555.3 31255.1 31554 31251 31553.5 31240 31549.2 31228.7 31545.5 31225.2 31543.3 31221.5 31541.8 31211.9 31534.9 31201.8 31528.5 31199 31525.5 31195.7 31523.2 31188.1 31514 31180 31505.3 31178 31501.8 31175.5 31498.7 31170.4 31487.9 31164.6 31477.5 31163.6 31473.5 31161.9 31469.9 31159.7 31458.2 31156.7 31446.7 31156.3 31440.7 31155.9 31438.7 31156.1 31436.6 31155.7 31430.6 31155.7 26899.9 31156.9 26890.1 31157.2 26880.2 31158.9 26874.4 31159.7 26868.3 31163.3 26859.1 31166.1 26849.6 31169.1 26844.4 31171.4 26838.8 31177.2 26830.8 31182.2 26822.2 31188.8 26814.7 31190 26813 31191 26812.3 31192.8 26810.1 34855.7 23147.3 34855.7 5552.3 34856.9 5542.5 34857.2 5532.6 34858.9 5526.8 34859.7 5520.8 34863.3 5511.6 34866.1 5502 34869.1 5496.8 34871.4 5491.2 34877.2 5483.2 34882.2 5474.7 34888.8 5467.1 34890 5465.5 34891 5464.7 34892.8 5462.6 35012.8 5342.6 35104.9 5120.3 35104.9 4879.7 35012.8 4657.4 34842.6 4487.2 34620.3 4395.1 34379.7 4395.1"/></g></mask><mask id="NcuovHd7YYXoq8mDTexX_clear-3" fill="#000" stroke="#000"><g><rect x="508.1" y="508.1" width="67983.8" height="67483.8" fill="#fff"/><path d="M 4886.8 18472.5 4886.8 18472.5 4797.5 18561.8 4797.5 20688.2 4886.8 20777.5 5267.4 20777.5 5279.2 20779 5291.1 20779.7 5294.9 20781 5299 20781.5 5310 20785.8 5321.3 20789.5 5324.8 20791.7 5328.5 20793.2 5338.1 20800.1 5348.2 20806.5 5351 20809.5 5354.3 20811.8 5361.9 20821 5370 20829.7 5372 20833.2 5374.5 20836.3 5379.6 20847.1 5385.4 20857.5 5386.4 20861.5 5388.1 20865.1 5390.3 20876.8 5393.3 20888.3 5393.7 20894.3 5394.1 20896.3 5393.9 20898.4 5394.3 20904.4 5394.3 50095.6 5392.8 50107.4 5392.1 50119.3 5390.8 50123.1 5390.3 50127.2 5386 50138.2 5382.3 50149.5 5380.1 50153 5378.6 50156.7 5371.7 50166.3 5365.3 50176.4 5362.3 50179.2 5360 50182.5 5350.8 50190.1 5342.1 50198.2 5338.6 50200.2 5335.5 50202.7 5324.7 50207.8 5314.3 50213.6 5310.3 50214.6 5306.7 50216.3 5295 50218.5 5283.5 50221.5 5277.5 50221.9 5275.5 50222.3 5273.4 50222.1 5267.4 50222.5 4886.8 50222.5 4797.5 50311.8 4797.5 52438.2 4886.8 52527.5 6613.2 52527.5 6702.5 52438.2 6702.5 50311.8 6613.2 50222.5 6232.6 50222.5 6220.8 50221 6208.9 50220.3 6205.1 50219 6201 50218.5 6190 50214.2 6178.7 50210.5 6175.2 50208.3 6171.5 50206.8 6161.9 50199.9 6151.8 50193.5 6149 50190.5 6145.7 50188.2 6138.1 50179 6130 50170.3 6128 50166.8 6125.5 50163.7 6120.4 50152.9 6114.6 50142.5 6113.6 50138.5 6111.9 50134.9 6109.7 50123.2 6106.7 50111.7 6106.3 50105.7 6105.9 50103.7 6106.1 50101.6 6105.7 50095.6 6105.7 20904.4 6107.2 20892.6 6107.9 20880.7 6109.2 20876.9 6109.7 20872.8 6114 20861.8 6117.7 20850.5 6119.9 20847 6121.4 20843.3 6128.3 20833.7 6134.7 20823.6 6137.7 20820.8 6140 20817.5 6149.2 20809.9 6157.9 20801.8 6161.4 20799.8 6164.5 20797.3 6175.3 20792.2 6185.7 20786.4 6189.7 20785.4 6193.3 20783.7 6205 20781.5 6216.5 20778.5 6222.5 20778.1 6224.5 20777.7 6226.6 20777.9 6232.6 20777.5 6613.2 20777.5 6702.5 20688.2 6702.5 18561.8 6613.2 18472.5 4886.8 18472.5"/></g></mask><mask id="NcuovHd7YYXoq8mDTexX_clear-4" fill="#000" stroke="#000"><g><rect x="508.1" y="508.1" width="67983.8" height="67483.8" fill="#fff"/><path d="M 62386.8 18472.5 62386.8 18472.5 62297.5 18561.8 62297.5 20688.2 62386.8 20777.5 62767.4 20777.5 62779.2 20779 62791.1 20779.7 62794.9 20781 62799 20781.5 62810 20785.8 62821.3 20789.5 62824.8 20791.7 62828.5 20793.2 62838.1 20800.1 62848.2 20806.5 62851 20809.5 62854.3 20811.8 62861.9 20821 62870 20829.7 62872 20833.2 62874.5 20836.3 62879.6 20847.1 62885.4 20857.5 62886.4 20861.5 62888.1 20865.1 62890.3 20876.8 62893.3 20888.3 62893.7 20894.3 62894.1 20896.3 62893.9 20898.4 62894.3 20904.4 62894.3 50095.6 62892.8 50107.4 62892.1 50119.3 62890.8 50123.1 62890.3 50127.2 62886 50138.2 62882.3 50149.5 62880.1 50153 62878.6 50156.7 62871.7 50166.3 62865.3 50176.4 62862.3 50179.2 62860 50182.5 62850.8 50190.1 62842.1 50198.2 62838.6 50200.2 62835.5 50202.7 62824.7 50207.8 62814.3 50213.6 62810.3 50214.6 62806.7 50216.3 62795 50218.5 62783.5 50221.5 62777.5 50221.9 62775.5 50222.3 62773.4 50222.1 62767.4 50222.5 62386.8 50222.5 62297.5 50311.8 62297.5 52438.2 62386.8 52527.5 64113.2 52527.5 64202.5 52438.2 64202.5 50311.8 64113.2 50222.5 63732.6 50222.5 63720.8 50221 63708.9 50220.3 63705.1 50219 63701 50218.5 63690 50214.2 63678.7 50210.5 63675.2 50208.3 63671.5 50206.8 63661.9 50199.9 63651.8 50193.5 63649 50190.5 63645.7 50188.2 63638.1 50179 63630 50170.3 63628 50166.8 63625.5 50163.7 63620.4 50152.9 63614.6 50142.5 63613.6 50138.5 63611.9 50134.9 63609.7 50123.2 63606.7 50111.7 63606.3 50105.7 63605.9 50103.7 63606.1 50101.6 63605.7 50095.6 63605.7 20904.4 63607.2 20892.6 63607.9 20880.7 63609.2 20876.9 63609.7 20872.8 63614 20861.8 63617.7 20850.5 63619.9 20847 63621.4 20843.3 63628.3 20833.7 63634.7 20823.6 63637.7 20820.8 63640 20817.5 63649.2 20809.9 63657.9 20801.8 63661.4 20799.8 63664.5 20797.3 63675.3 20792.2 63685.7 20786.4 63689.7 20785.4 63693.3 20783.7 63705 20781.5 63716.5 20778.5 63722.5 20778.1 63724.5 20777.7 63726.6 20777.9 63732.6 20777.5 64113.2 20777.5 64202.5 20688.2 64202.5 18561.8 64113.2 18472.5 62386.8 18472.5"/></g></mask><mask id="NcuovHd7YYXoq8mDTexX_clear-5" fill="#000" stroke="#000"><g><rect x="508.1" y="508.1" width="67983.8" height="67483.8" fill="#fff"/><path d="M 21296.8 33097.5 21296.8 33097.5 21207.5 33186.8 21207.5 35313.2 21296.8 35402.5 21677.4 35402.5 21689.2 35404 21701.1 35404.7 21704.9 35406 21709 35406.5 21720 35410.8 21731.3 35414.5 21734.8 35416.7 21738.5 35418.2 21748.1 35425.1 21758.2 35431.5 21761 35434.5 21764.3 35436.8 21771.9 35446 21780 35454.7 21782 35458.2 21784.5 35461.3 21789.6 35472.1 21795.4 35482.5 21796.4 35486.5 21798.1 35490.1 21800.3 35501.8 21803.3 35513.3 21803.7 35519.3 21804.1 35521.3 21803.9 35523.4 21804.3 35529.4 21804.3 41200.1 21803.1 41209.9 21802.8 41219.8 21801.1 41225.6 21800.3 41231.7 21796.7 41240.9 21793.9 41250.4 21790.9 41255.6 21788.6 41261.2 21782.8 41269.2 21777.8 41277.8 21771.2 41285.3 21770 41287 21769 41287.7 21767.2 41289.9 19134.3 43922.7 19134.3 50095.6 19132.8 50107.4 19132.1 50119.3 19130.8 50123.1 19130.3 50127.2 19126 50138.2 19122.3 50149.5 19120.1 50153 19118.6 50156.7 19111.7 50166.3 19105.3 50176.4 19102.3 50179.2 19100 50182.5 19090.8 50190.1 19082.1 50198.2 19078.6 50200.2 19075.5 50202.7 19064.7 50207.8 19054.3 50213.6 19050.3 50214.6 19046.7 50216.3 19035 50218.5 19023.5 50221.5 19017.5 50221.9 19015.5 50222.3 19013.4 50222.1 19007.4 50222.5 18626.8 50222.5 18537.5 50311.8 18537.5 52438.2 18626.8 52527.5 20353.2 52527.5 20442.5 52438.2 20442.5 50311.8 20353.2 50222.5 19972.6 50222.5 19960.8 50221 19948.9 50220.3 19945.1 50219 19941 50218.5 19930 50214.2 19918.7 50210.5 19915.2 50208.3 19911.5 50206.8 19901.9 50199.9 19891.8 50193.5 19889 50190.5 19885.7 50188.2 19878.1 50179 19870 50170.3 19868 50166.8 19865.5 50163.7 19860.4 50152.9 19854.6 50142.5 19853.6 50138.5 19851.9 50134.9 19849.7 50123.2 19846.7 50111.7 19846.3 50105.7 19845.9 50103.7 19846.1 50101.6 19845.7 50095.6 19845.7 44269.9 19846.9 44260.1 19847.2 44250.2 19848.9 44244.4 19849.7 44238.3 19853.3 44229.1 19856.1 44219.6 19859.1 44214.4 19861.4 44208.8 19867.2 44200.8 19872.2 44192.2 19878.8 44184.7 19880 44183 19881 44182.3 19882.8 44180.1 22515.7 41547.3 22515.7 35529.4 22517.2 35517.6 22517.9 35505.7 22519.2 35501.9 22519.7 35497.8 22524 35486.8 22527.7 35475.5 22529.9 35472 22531.4 35468.3 22538.3 35458.7 22544.7 35448.6 22547.7 35445.8 22550 35442.5 22559.2 35434.9 22567.9 35426.8 22571.4 35424.8 22574.5 35422.3 22585.3 35417.2 22595.7 35411.4 22599.7 35410.4 22603.3 35408.7 22615 35406.5 22626.5 35403.5 22632.5 35403.1 22634.5 35402.7 22636.6 35402.9 22642.6 35402.5 23023.2 35402.5 23112.5 35313.2 23112.5 33186.8 23023.2 33097.5 21296.8 33097.5"/></g></mask><mask id="NcuovHd7YYXoq8mDTexX_clear-6" fill="#000" stroke="#000"><g><rect x="508.1" y="508.1" width="67983.8" height="67483.8" fill="#fff"/><path d="M 10356.8 33097.5 10356.8 33097.5 10267.5 33186.8 10267.5 35313.2 10356.8 35402.5 10737.4 35402.5 10749.2 35404 10761.1 35404.7 10764.9 35406 10769 35406.5 10780 35410.8 10791.3 35414.5 10794.8 35416.7 10798.5 35418.2 10808.1 35425.1 10818.2 35431.5 10821 35434.5 10824.3 35436.8 10831.9 35446 10840 35454.7 10842 35458.2 10844.5 35461.3 10849.6 35472.1 10855.4 35482.5 10856.4 35486.5 10858.1 35490.1 10860.3 35501.8 10863.3 35513.3 10863.7 35519.3 10864.1 35521.3 10863.9 35523.4 10864.3 35529.4 10864.3 41200.1 10863.1 41209.9 10862.8 41219.8 10861.1 41225.6 10860.3 41231.7 10856.7 41240.9 10853.9 41250.4 10850.9 41255.6 10848.6 41261.2 10842.8 41269.2 10837.8 41277.8 10831.2 41285.3 10830 41287 10829 41287.7 10827.2 41289.9 8194.3 43922.7 8194.3 50095.6 8192.8 50107.4 8192.1 50119.3 8190.8 50123.1 8190.3 50127.2 8186 50138.2 8182.3 50149.5 8180.1 50153 8178.6 50156.7 8171.7 50166.3 8165.3 50176.4 8162.3 50179.2 8160 50182.5 8150.8 50190.1 8142.1 50198.2 8138.6 50200.2 8135.5 50202.7 8124.7 50207.8 8114.3 50213.6 8110.3 50214.6 8106.7 50216.3 8095 50218.5 8083.5 50221.5 8077.5 50221.9 8075.5 50222.3 8073.4 50222.1 8067.4 50222.5 7686.8 50222.5 7597.5 50311.8 7597.5 52438.2 7686.8 52527.5 9413.2 52527.5 9502.5 52438.2 9502.5 50311.8 9413.2 50222.5 9032.6 50222.5 9020.8 50221 9008.9 50220.3 9005.1 50219 9001 50218.5 8990 50214.2 8978.7 50210.5 8975.2 50208.3 8971.5 50206.8 8961.9 50199.9 8951.8 50193.5 8949 50190.5 8945.7 50188.2 8938.1 50179 8930 50170.3 8928 50166.8 8925.5 50163.7 8920.4 50152.9 8914.6 50142.5 8913.6 50138.5 8911.9 50134.9 8909.7 50123.2 8906.7 50111.7 8906.3 50105.7 8905.9 50103.7 8906.1 50101.6 8905.7 50095.6 8905.7 44269.9 8906.9 44260.1 8907.2 44250.2 8908.9 44244.4 8909.7 44238.3 8913.3 44229.1 8916.1 44219.6 8919.1 44214.4 8921.4 44208.8 8927.2 44200.8 8932.2 44192.2 8938.8 44184.7 8940 44183 8941 44182.3 8942.8 44180.1 11575.7 41547.3 11575.7 35529.4 11577.2 35517.6 11577.9 35505.7 11579.2 35501.9 11579.7 35497.8 11584 35486.8 11587.7 35475.5 11589.9 35472 11591.4 35468.3 11598.3 35458.7 11604.7 35448.6 11607.7 35445.8 11610 35442.5 11619.2 35434.9 11627.9 35426.8 11631.4 35424.8 11634.5 35422.3 11645.3 35417.2 11655.7 35411.4 11659.7 35410.4 11663.3 35408.7 11675 35406.5 11686.5 35403.5 11692.5 35403.1 11694.5 35402.7 11696.6 35402.9 11702.6 35402.5 12083.2 35402.5 12172.5 35313.2 12172.5 33186.8 12083.2 33097.5 10356.8 33097.5"/></g></mask><mask id="NcuovHd7YYXoq8mDTexX_clear-7" fill="#000" stroke="#000"><g><rect x="508.1" y="508.1" width="67983.8" height="67483.8" fill="#fff"/><path d="M 43176.8 33097.5 43176.8 33097.5 43087.5 33186.8 43087.5 35313.2 43176.8 35402.5 43557.4 35402.5 43569.2 35404 43581.1 35404.7 43584.9 35406 43589 35406.5 43600 35410.8 43611.3 35414.5 43614.8 35416.7 43618.5 35418.2 43628.1 35425.1 43638.2 35431.5 43641 35434.5 43644.3 35436.8 43651.9 35446 43660 35454.7 43662 35458.2 43664.5 35461.3 43669.6 35472.1 43675.4 35482.5 43676.4 35486.5 43678.1 35490.1 43680.3 35501.8 43683.3 35513.3 43683.7 35519.3 43684.1 35521.3 43683.9 35523.4 43684.3 35529.4 43684.3 41200.1 43683.1 41209.9 43682.8 41219.8 43681.1 41225.6 43680.3 41231.7 43676.7 41240.9 43673.9 41250.4 43670.9 41255.6 43668.6 41261.2 43662.8 41269.2 43657.8 41277.8 43651.2 41285.3 43650 41287 43649 41287.7 43647.2 41289.9 41014.3 43922.7 41014.3 50095.6 41012.8 50107.4 41012.1 50119.3 41010.8 50123.1 41010.3 50127.2 41006 50138.2 41002.3 50149.5 41000.1 50153 40998.6 50156.7 40991.7 50166.3 40985.3 50176.4 40982.3 50179.2 40980 50182.5 40970.8 50190.1 40962.1 50198.2 40958.6 50200.2 40955.5 50202.7 40944.7 50207.8 40934.3 50213.6 40930.3 50214.6 40926.7 50216.3 40915 50218.5 40903.5 50221.5 40897.5 50221.9 40895.5 50222.3 40893.4 50222.1 40887.4 50222.5 40506.8 50222.5 40417.5 50311.8 40417.5 52438.2 40506.8 52527.5 42233.2 52527.5 42322.5 52438.2 42322.5 50311.8 42233.2 50222.5 41852.6 50222.5 41840.8 50221 41828.9 50220.3 41825.1 50219 41821 50218.5 41810 50214.2 41798.7 50210.5 41795.2 50208.3 41791.5 50206.8 41781.9 50199.9 41771.8 50193.5 41769 50190.5 41765.7 50188.2 41758.1 50179 41750 50170.3 41748 50166.8 41745.5 50163.7 41740.4 50152.9 41734.6 50142.5 41733.6 50138.5 41731.9 50134.9 41729.7 50123.2 41726.7 50111.7 41726.3 50105.7 41725.9 50103.7 41726.1 50101.6 41725.7 50095.6 41725.7 44269.9 41726.9 44260.1 41727.2 44250.2 41728.9 44244.4 41729.7 44238.3 41733.3 44229.1 41736.1 44219.6 41739.1 44214.4 41741.4 44208.8 41747.2 44200.8 41752.2 44192.2 41758.8 44184.7 41760 44183 41761 44182.3 41762.8 44180.1 44395.7 41547.3 44395.7 35529.4 44397.2 35517.6 44397.9 35505.7 44399.2 35501.9 44399.7 35497.8 44404 35486.8 44407.7 35475.5 44409.9 35472 44411.4 35468.3 44418.3 35458.7 44424.7 35448.6 44427.7 35445.8 44430 35442.5 44439.2 35434.9 44447.9 35426.8 44451.4 35424.8 44454.5 35422.3 44465.3 35417.2 44475.7 35411.4 44479.7 35410.4 44483.3 35408.7 44495 35406.5 44506.5 35403.5 44512.5 35403.1 44514.5 35402.7 44516.6 35402.9 44522.6 35402.5 44903.2 35402.5 44992.5 35313.2 44992.5 33186.8 44903.2 33097.5 43176.8 33097.5"/></g></mask><mask id="NcuovHd7YYXoq8mDTexX_clear-8" fill="#000" stroke="#000"><g><rect x="508.1" y="508.1" width="67983.8" height="67483.8" fill="#fff"/><path d="M 54116.8 33097.5 54116.8 33097.5 54027.5 33186.8 54027.5 35313.2 54116.8 35402.5 54497.4 35402.5 54509.2 35404 54521.1 35404.7 54524.9 35406 54529 35406.5 54540 35410.8 54551.3 35414.5 54554.8 35416.7 54558.5 35418.2 54568.1 35425.1 54578.2 35431.5 54581 35434.5 54584.3 35436.8 54591.9 35446 54600 35454.7 54602 35458.2 54604.5 35461.3 54609.6 35472.1 54615.4 35482.5 54616.4 35486.5 54618.1 35490.1 54620.3 35501.8 54623.3 35513.3 54623.7 35519.3 54624.1 35521.3 54623.9 35523.4 54624.3 35529.4 54624.3 41200.1 54623.1 41209.9 54622.8 41219.8 54621.1 41225.6 54620.3 41231.7 54616.7 41240.9 54613.9 41250.4 54610.9 41255.6 54608.6 41261.2 54602.8 41269.2 54597.8 41277.8 54591.2 41285.3 54590 41287 54589 41287.7 54587.2 41289.9 51954.3 43922.7 51954.3 50095.6 51952.8 50107.4 51952.1 50119.3 51950.8 50123.1 51950.3 50127.2 51946 50138.2 51942.3 50149.5 51940.1 50153 51938.6 50156.7 51931.7 50166.3 51925.3 50176.4 51922.3 50179.2 51920 50182.5 51910.8 50190.1 51902.1 50198.2 51898.6 50200.2 51895.5 50202.7 51884.7 50207.8 51874.3 50213.6 51870.3 50214.6 51866.7 50216.3 51855 50218.5 51843.5 50221.5 51837.5 50221.9 51835.5 50222.3 51833.4 50222.1 51827.4 50222.5 51446.8 50222.5 51357.5 50311.8 51357.5 52438.2 51446.8 52527.5 53173.2 52527.5 53262.5 52438.2 53262.5 50311.8 53173.2 50222.5 52792.6 50222.5 52780.8 50221 52768.9 50220.3 52765.1 50219 52761 50218.5 52750 50214.2 52738.7 50210.5 52735.2 50208.3 52731.5 50206.8 52721.9 50199.9 52711.8 50193.5 52709 50190.5 52705.7 50188.2 52698.1 50179 52690 50170.3 52688 50166.8 52685.5 50163.7 52680.4 50152.9 52674.6 50142.5 52673.6 50138.5 52671.9 50134.9 52669.7 50123.2 52666.7 50111.7 52666.3 50105.7 52665.9 50103.7 52666.1 50101.6 52665.7 50095.6 52665.7 44269.9 52666.9 44260.1 52667.2 44250.2 52668.9 44244.4 52669.7 44238.3 52673.3 44229.1 52676.1 44219.6 52679.1 44214.4 52681.4 44208.8 52687.2 44200.8 52692.2 44192.2 52698.8 44184.7 52700 44183 52701 44182.3 52702.8 44180.1 55335.7 41547.3 55335.7 35529.4 55337.2 35517.6 55337.9 35505.7 55339.2 35501.9 55339.7 35497.8 55344 35486.8 55347.7 35475.5 55349.9 35472 55351.4 35468.3 55358.3 35458.7 55364.7 35448.6 55367.7 35445.8 55370 35442.5 55379.2 35434.9 55387.9 35426.8 55391.4 35424.8 55394.5 35422.3 55405.3 35417.2 55415.7 35411.4 55419.7 35410.4 55423.3 35408.7 55435 35406.5 55446.5 35403.5 55452.5 35403.1 55454.5 35402.7 55456.6 35402.9 55462.6 35402.5 55843.2 35402.5 55932.5 35313.2 55932.5 33186.8 55843.2 33097.5 54116.8 33097.5"/></g></mask><mask id="NcuovHd7YYXoq8mDTexX_clear-9" fill="#000" stroke="#000"><g><rect x="508.1" y="508.1" width="67983.8" height="67483.8" fill="#fff"/><path d="M 24096.8 33097.5 24096.8 33097.5 24007.5 33186.8 24007.5 35313.2 24096.8 35402.5 24477.4 35402.5 24489.2 35404 24501.1 35404.7 24504.9 35406 24509 35406.5 24520 35410.8 24531.3 35414.5 24534.8 35416.7 24538.5 35418.2 24548.1 35425.1 24558.2 35431.5 24561 35434.5 24564.3 35436.8 24571.9 35446 24580 35454.7 24582 35458.2 24584.5 35461.3 24589.6 35472.1 24595.4 35482.5 24596.4 35486.5 24598.1 35490.1 24600.3 35501.8 24603.3 35513.3 24603.7 35519.3 24604.1 35521.3 24603.9 35523.4 24604.3 35529.4 24604.3 41547.3 27237.2 44180.1 27243.2 44188 27250 44195.2 27252.9 44200.5 27256.6 44205.3 27260.6 44214.4 27265.4 44223 27266.9 44228.9 27269.3 44234.5 27270.8 44244.3 27273.3 44253.8 27273.9 44263.8 27274.3 44265.9 27274.1 44267.1 27274.3 44269.9 27274.3 50095.6 27272.8 50107.4 27272.1 50119.3 27270.8 50123.1 27270.3 50127.2 27266 50138.2 27262.3 50149.5 27260.1 50153 27258.6 50156.7 27251.7 50166.3 27245.3 50176.4 27242.3 50179.2 27240 50182.5 27230.8 50190.1 27222.1 50198.2 27218.6 50200.2 27215.5 50202.7 27204.7 50207.8 27194.3 50213.6 27190.3 50214.6 27186.7 50216.3 27175 50218.5 27163.5 50221.5 27157.5 50221.9 27155.5 50222.3 27153.4 50222.1 27147.4 50222.5 26766.8 50222.5 26677.5 50311.8 26677.5 52438.2 26766.8 52527.5 28493.2 52527.5 28582.5 52438.2 28582.5 50311.8 28493.2 50222.5 28112.6 50222.5 28100.8 50221 28088.9 50220.3 28085.1 50219 28081 50218.5 28070 50214.2 28058.7 50210.5 28055.2 50208.3 28051.5 50206.8 28041.9 50199.9 28031.8 50193.5 28029 50190.5 28025.7 50188.2 28018.1 50179 28010 50170.3 28008 50166.8 28005.5 50163.7 28000.4 50152.9 27994.6 50142.5 27993.6 50138.5 27991.9 50134.9 27989.7 50123.2 27986.7 50111.7 27986.3 50105.7 27985.9 50103.7 27986.1 50101.6 27985.7 50095.6 27985.7 43922.7 25352.8 41289.9 25346.8 41282 25340 41274.8 25337.1 41269.5 25333.4 41264.7 25329.4 41255.6 25324.6 41247 25323.1 41241.1 25320.7 41235.5 25319.2 41225.7 25316.7 41216.2 25316.1 41206.2 25315.7 41204.1 25315.9 41202.9 25315.7 41200.1 25315.7 35529.4 25317.2 35517.6 25317.9 35505.7 25319.2 35501.9 25319.7 35497.8 25324 35486.8 25327.7 35475.5 25329.9 35472 25331.4 35468.3 25338.3 35458.7 25344.7 35448.6 25347.7 35445.8 25350 35442.5 25359.2 35434.9 25367.9 35426.8 25371.4 35424.8 25374.5 35422.3 25385.3 35417.2 25395.7 35411.4 25399.7 35410.4 25403.3 35408.7 25415 35406.5 25426.5 35403.5 25432.5 35403.1 25434.5 35402.7 25436.6 35402.9 25442.6 35402.5 25823.2 35402.5 25912.5 35313.2 25912.5 33186.8 25823.2 33097.5 24096.8 33097.5"/></g></mask><mask id="NcuovHd7YYXoq8mDTexX_clear-10" fill="#000" stroke="#000"><g><rect x="508.1" y="508.1" width="67983.8" height="67483.8" fill="#fff"/><path d="M 13156.8 33097.5 13156.8 33097.5 13067.5 33186.8 13067.5 35313.2 13156.8 35402.5 13537.4 35402.5 13549.2 35404 13561.1 35404.7 13564.9 35406 13569 35406.5 13580 35410.8 13591.3 35414.5 13594.8 35416.7 13598.5 35418.2 13608.1 35425.1 13618.2 35431.5 13621 35434.5 13624.3 35436.8 13631.9 35446 13640 35454.7 13642 35458.2 13644.5 35461.3 13649.6 35472.1 13655.4 35482.5 13656.4 35486.5 13658.1 35490.1 13660.3 35501.8 13663.3 35513.3 13663.7 35519.3 13664.1 35521.3 13663.9 35523.4 13664.3 35529.4 13664.3 41547.3 16297.2 44180.1 16303.2 44188 16310 44195.2 16312.9 44200.5 16316.6 44205.3 16320.6 44214.4 16325.4 44223 16326.9 44228.9 16329.3 44234.5 16330.8 44244.3 16333.3 44253.8 16333.9 44263.8 16334.3 44265.9 16334.1 44267.1 16334.3 44269.9 16334.3 50095.6 16332.8 50107.4 16332.1 50119.3 16330.8 50123.1 16330.3 50127.2 16326 50138.2 16322.3 50149.5 16320.1 50153 16318.6 50156.7 16311.7 50166.3 16305.3 50176.4 16302.3 50179.2 16300 50182.5 16290.8 50190.1 16282.1 50198.2 16278.6 50200.2 16275.5 50202.7 16264.7 50207.8 16254.3 50213.6 16250.3 50214.6 16246.7 50216.3 16235 50218.5 16223.5 50221.5 16217.5 50221.9 16215.5 50222.3 16213.4 50222.1 16207.4 50222.5 15826.8 50222.5 15737.5 50311.8 15737.5 52438.2 15826.8 52527.5 17553.2 52527.5 17642.5 52438.2 17642.5 50311.8 17553.2 50222.5 17172.6 50222.5 17160.8 50221 17148.9 50220.3 17145.1 50219 17141 50218.5 17130 50214.2 17118.7 50210.5 17115.2 50208.3 17111.5 50206.8 17101.9 50199.9 17091.8 50193.5 17089 50190.5 17085.7 50188.2 17078.1 50179 17070 50170.3 17068 50166.8 17065.5 50163.7 17060.4 50152.9 17054.6 50142.5 17053.6 50138.5 17051.9 50134.9 17049.7 50123.2 17046.7 50111.7 17046.3 50105.7 17045.9 50103.7 17046.1 50101.6 17045.7 50095.6 17045.7 43922.7 14412.8 41289.9 14406.8 41282 14400 41274.8 14397.1 41269.5 14393.4 41264.7 14389.4 41255.6 14384.6 41247 14383.1 41241.1 14380.7 41235.5 14379.2 41225.7 14376.7 41216.2 14376.1 41206.2 14375.7 41204.1 14375.9 41202.9 14375.7 41200.1 14375.7 35529.4 14377.2 35517.6 14377.9 35505.7 14379.2 35501.9 14379.7 35497.8 14384 35486.8 14387.7 35475.5 14389.9 35472 14391.4 35468.3 14398.3 35458.7 14404.7 35448.6 14407.7 35445.8 14410 35442.5 14419.2 35434.9 14427.9 35426.8 14431.4 35424.8 14434.5 35422.3 14445.3 35417.2 14455.7 35411.4 14459.7 35410.4 14463.3 35408.7 14475 35406.5 14486.5 35403.5 14492.5 35403.1 14494.5 35402.7 14496.6 35402.9 14502.6 35402.5 14883.2 35402.5 14972.5 35313.2 14972.5 33186.8 14883.2 33097.5 13156.8 33097.5"/></g></mask><mask id="NcuovHd7YYXoq8mDTexX_clear-11" fill="#000" stroke="#000"><g><rect x="508.1" y="508.1" width="67983.8" height="67483.8" fill="#fff"/><path d="M 56916.8 33097.5 56916.8 33097.5 56827.5 33186.8 56827.5 35313.2 56916.8 35402.5 57297.4 35402.5 57309.2 35404 57321.1 35404.7 57324.9 35406 57329 35406.5 57340 35410.8 57351.3 35414.5 57354.8 35416.7 57358.5 35418.2 57368.1 35425.1 57378.2 35431.5 57381 35434.5 57384.3 35436.8 57391.9 35446 57400 35454.7 57402 35458.2 57404.5 35461.3 57409.6 35472.1 57415.4 35482.5 57416.4 35486.5 57418.1 35490.1 57420.3 35501.8 57423.3 35513.3 57423.7 35519.3 57424.1 35521.3 57423.9 35523.4 57424.3 35529.4 57424.3 41547.3 60057.2 44180.1 60063.2 44188 60070 44195.2 60072.9 44200.5 60076.6 44205.3 60080.6 44214.4 60085.4 44223 60086.9 44228.9 60089.3 44234.5 60090.8 44244.3 60093.3 44253.8 60093.9 44263.8 60094.3 44265.9 60094.1 44267.1 60094.3 44269.9 60094.3 50095.6 60092.8 50107.4 60092.1 50119.3 60090.8 50123.1 60090.3 50127.2 60086 50138.2 60082.3 50149.5 60080.1 50153 60078.6 50156.7 60071.7 50166.3 60065.3 50176.4 60062.3 50179.2 60060 50182.5 60050.8 50190.1 60042.1 50198.2 60038.6 50200.2 60035.5 50202.7 60024.7 50207.8 60014.3 50213.6 60010.3 50214.6 60006.7 50216.3 59995 50218.5 59983.5 50221.5 59977.5 50221.9 59975.5 50222.3 59973.4 50222.1 59967.4 50222.5 59586.8 50222.5 59497.5 50311.8 59497.5 52438.2 59586.8 52527.5 61313.2 52527.5 61402.5 52438.2 61402.5 50311.8 61313.2 50222.5 60932.6 50222.5 60920.8 50221 60908.9 50220.3 60905.1 50219 60901 50218.5 60890 50214.2 60878.7 50210.5 60875.2 50208.3 60871.5 50206.8 60861.9 50199.9 60851.8 50193.5 60849 50190.5 60845.7 50188.2 60838.1 50179 60830 50170.3 60828 50166.8 60825.5 50163.7 60820.4 50152.9 60814.6 50142.5 60813.6 50138.5 60811.9 50134.9 60809.7 50123.2 60806.7 50111.7 60806.3 50105.7 60805.9 50103.7 60806.1 50101.6 60805.7 50095.6 60805.7 43922.7 58172.8 41289.9 58166.8 41282 58160 41274.8 58157.1 41269.5 58153.4 41264.7 58149.4 41255.6 58144.6 41247 58143.1 41241.1 58140.7 41235.5 58139.2 41225.7 58136.7 41216.2 58136.1 41206.2 58135.7 41204.1 58135.9 41202.9 58135.7 41200.1 58135.7 35529.4 58137.2 35517.6 58137.9 35505.7 58139.2 35501.9 58139.7 35497.8 58144 35486.8 58147.7 35475.5 58149.9 35472 58151.4 35468.3 58158.3 35458.7 58164.7 35448.6 58167.7 35445.8 58170 35442.5 58179.2 35434.9 58187.9 35426.8 58191.4 35424.8 58194.5 35422.3 58205.3 35417.2 58215.7 35411.4 58219.7 35410.4 58223.3 35408.7 58235 35406.5 58246.5 35403.5 58252.5 35403.1 58254.5 35402.7 58256.6 35402.9 58262.6 35402.5 58643.2 35402.5 58732.5 35313.2 58732.5 33186.8 58643.2 33097.5 56916.8 33097.5"/></g></mask><mask id="NcuovHd7YYXoq8mDTexX_clear-12" fill="#000" stroke="#000"><g><rect x="508.1" y="508.1" width="67983.8" height="67483.8" fill="#fff"/><path d="M 45976.8 33097.5 45976.8 33097.5 45887.5 33186.8 45887.5 35313.2 45976.8 35402.5 46357.4 35402.5 46369.2 35404 46381.1 35404.7 46384.9 35406 46389 35406.5 46400 35410.8 46411.3 35414.5 46414.8 35416.7 46418.5 35418.2 46428.1 35425.1 46438.2 35431.5 46441 35434.5 46444.3 35436.8 46451.9 35446 46460 35454.7 46462 35458.2 46464.5 35461.3 46469.6 35472.1 46475.4 35482.5 46476.4 35486.5 46478.1 35490.1 46480.3 35501.8 46483.3 35513.3 46483.7 35519.3 46484.1 35521.3 46483.9 35523.4 46484.3 35529.4 46484.3 41547.3 46729.8 41792.8 46729.9 41792.8 49117.2 44180.1 49123.2 44188 49130 44195.2 49132.9 44200.5 49136.6 44205.3 49140.6 44214.4 49145.4 44223 49146.9 44228.9 49149.3 44234.5 49150.8 44244.3 49153.3 44253.8 49153.9 44263.8 49154.3 44265.9 49154.1 44267.1 49154.3 44269.9 49154.3 50095.6 49152.8 50107.4 49152.1 50119.3 49150.8 50123.1 49150.3 50127.2 49146 50138.2 49142.3 50149.5 49140.1 50153 49138.6 50156.7 49131.7 50166.3 49125.3 50176.4 49122.3 50179.2 49120 50182.5 49110.8 50190.1 49102.1 50198.2 49098.6 50200.2 49095.5 50202.7 49084.7 50207.8 49074.3 50213.6 49070.3 50214.6 49066.7 50216.3 49055 50218.5 49043.5 50221.5 49037.5 50221.9 49035.5 50222.3 49033.4 50222.1 49027.4 50222.5 48646.8 50222.5 48557.5 50311.8 48557.5 52438.2 48646.8 52527.5 50373.2 52527.5 50462.5 52438.2 50462.5 50311.8 50373.2 50222.5 49992.6 50222.5 49980.8 50221 49968.9 50220.3 49965.1 50219 49961 50218.5 49950 50214.2 49938.7 50210.5 49935.2 50208.3 49931.5 50206.8 49921.9 50199.9 49911.8 50193.5 49909 50190.5 49905.7 50188.2 49898.1 50179 49890 50170.3 49888 50166.8 49885.5 50163.7 49880.4 50152.9 49874.6 50142.5 49873.6 50138.5 49871.9 50134.9 49869.7 50123.2 49866.7 50111.7 49866.3 50105.7 49865.9 50103.7 49866.1 50101.6 49865.7 50095.6 49865.7 43922.7 49620.2 43677.2 49620.1 43677.2 47232.8 41289.9 47226.8 41282 47220 41274.8 47217.1 41269.5 47213.4 41264.7 47209.4 41255.6 47204.6 41247 47203.1 41241.1 47200.7 41235.5 47199.2 41225.7 47196.7 41216.2 47196.1 41206.2 47195.7 41204.1 47195.9 41202.9 47195.7 41200.1 47195.7 35529.4 47197.2 35517.6 47197.9 35505.7 47199.2 35501.9 47199.7 35497.8 47204 35486.8 47207.7 35475.5 47209.9 35472 47211.4 35468.3 47218.3 35458.7 47224.7 35448.6 47227.7 35445.8 47230 35442.5 47239.2 35434.9 47247.9 35426.8 47251.4 35424.8 47254.5 35422.3 47265.3 35417.2 47275.7 35411.4 47279.7 35410.4 47283.3 35408.7 47295 35406.5 47306.5 35403.5 47312.5 35403.1 47314.5 35402.7 47316.6 35402.9 47322.6 35402.5 47703.2 35402.5 47792.5 35313.2 47792.5 33186.8 47703.2 33097.5 45976.8 33097.5"/></g></mask><mask id="NcuovHd7YYXoq8mDTexX_clear-13" fill="#000" stroke="#000"><g><rect x="508.1" y="508.1" width="67983.8" height="67483.8" fill="#fff"/><path d="M 18626.8 18472.5 18626.8 18472.5 18537.5 18561.8 18537.5 20688.2 18626.8 20777.5 20353.2 20777.5 20442.5 20688.2 20442.5 20107.6 20444 20095.8 20444.7 20083.9 20446 20080.1 20446.5 20076 20450.8 20065 20454.5 20053.7 20456.7 20050.2 20458.2 20046.5 20465.1 20036.9 20471.5 20026.8 20474.5 20024 20476.8 20020.7 20486 20013.1 20494.7 20005 20498.2 20003 20501.3 20000.5 20512.1 19995.4 20522.5 19989.6 20526.5 19988.6 20530.1 19986.9 20541.8 19984.7 20553.3 19981.7 20559.3 19981.3 20561.3 19980.9 20563.4 19981.1 20569.4 19980.7 26550.6 19980.7 26562.4 19982.2 26574.3 19982.9 26578.1 19984.2 26582.2 19984.7 26593.2 19989 26604.5 19992.7 26608 19994.9 26611.7 19996.4 26621.3 20003.3 26631.4 20009.7 26634.2 20012.7 26637.5 20015 26645.1 20024.2 26653.2 20032.9 26655.2 20036.4 26657.7 20039.5 26662.8 20050.3 26668.6 20060.7 26669.6 20064.7 26671.3 20068.3 26673.5 20080 26676.5 20091.5 26676.9 20097.5 26677.3 20099.5 26677.1 20101.6 26677.5 20107.6 26677.5 20688.2 26766.8 20777.5 28493.2 20777.5 28582.5 20688.2 28582.5 18561.8 28493.2 18472.5 26766.8 18472.5 26677.5 18561.8 26677.5 19142.4 26676 19154.2 26675.3 19166.1 26674 19169.9 26673.5 19174 26669.2 19185 26665.5 19196.3 26663.3 19199.8 26661.8 19203.5 26654.9 19213.1 26648.5 19223.2 26645.5 19226 26643.2 19229.3 26634 19236.9 26625.3 19245 26621.8 19247 26618.7 19249.5 26607.9 19254.6 26597.5 19260.4 26593.5 19261.4 26589.9 19263.1 26578.2 19265.3 26566.7 19268.3 26560.7 19268.7 26558.7 19269.1 26556.6 19268.9 26550.6 19269.3 20569.4 19269.3 20557.6 19267.8 20545.7 19267.1 20541.9 19265.8 20537.8 19265.3 20526.8 19261 20515.5 19257.3 20512 19255.1 20508.3 19253.6 20498.7 19246.7 20488.6 19240.3 20485.8 19237.3 20482.5 19235 20474.9 19225.8 20466.8 19217.1 20464.8 19213.6 20462.3 19210.5 20457.2 19199.7 20451.4 19189.3 20450.4 19185.3 20448.7 19181.7 20446.5 19170 20443.5 19158.5 20443.1 19152.5 20442.7 19150.5 20442.9 19148.4 20442.5 19142.4 20442.5 18561.8 20353.2 18472.5 18626.8 18472.5"/></g></mask><mask id="NcuovHd7YYXoq8mDTexX_clear-14" fill="#000" stroke="#000"><g><rect x="508.1" y="508.1" width="67983.8" height="67483.8" fill="#fff"/><path d="M 51446.8 18472.5 51446.8 18472.5 51357.5 18561.8 51357.5 20688.2 51446.8 20777.5 53173.2 20777.5 53262.5 20688.2 53262.5 20107.6 53264 20095.8 53264.7 20083.9 53266 20080.1 53266.5 20076 53270.8 20065 53274.5 20053.7 53276.7 20050.2 53278.2 20046.5 53285.1 20036.9 53291.5 20026.8 53294.5 20024 53296.8 20020.7 53306 20013.1 53314.7 20005 53318.2 20003 53321.3 20000.5 53332.1 19995.4 53342.5 19989.6 53346.5 19988.6 53350.1 19986.9 53361.8 19984.7 53373.3 19981.7 53379.3 19981.3 53381.3 19980.9 53383.4 19981.1 53389.4 19980.7 59370.6 19980.7 59382.4 19982.2 59394.3 19982.9 59398.1 19984.2 59402.2 19984.7 59413.2 19989 59424.5 19992.7 59428 19994.9 59431.7 19996.4 59441.3 20003.3 59451.4 20009.7 59454.2 20012.7 59457.5 20015 59465.1 20024.2 59473.2 20032.9 59475.2 20036.4 59477.7 20039.5 59482.8 20050.3 59488.6 20060.7 59489.6 20064.7 59491.3 20068.3 59493.5 20080 59496.5 20091.5 59496.9 20097.5 59497.3 20099.5 59497.1 20101.6 59497.5 20107.6 59497.5 20688.2 59586.8 20777.5 61313.2 20777.5 61402.5 20688.2 61402.5 18561.8 61313.2 18472.5 59586.8 18472.5 59497.5 18561.8 59497.5 19142.4 59496 19154.2 59495.3 19166.1 59494 19169.9 59493.5 19174 59489.2 19185 59485.5 19196.3 59483.3 19199.8 59481.8 19203.5 59474.9 19213.1 59468.5 19223.2 59465.5 19226 59463.2 19229.3 59454 19236.9 59445.3 19245 59441.8 19247 59438.7 19249.5 59427.9 19254.6 59417.5 19260.4 59413.5 19261.4 59409.9 19263.1 59398.2 19265.3 59386.7 19268.3 59380.7 19268.7 59378.7 19269.1 59376.6 19268.9 59370.6 19269.3 53389.4 19269.3 53377.6 19267.8 53365.7 19267.1 53361.9 19265.8 53357.8 19265.3 53346.8 19261 53335.5 19257.3 53332 19255.1 53328.3 19253.6 53318.7 19246.7 53308.6 19240.3 53305.8 19237.3 53302.5 19235 53294.9 19225.8 53286.8 19217.1 53284.8 19213.6 53282.3 19210.5 53277.2 19199.7 53271.4 19189.3 53270.4 19185.3 53268.7 19181.7 53266.5 19170 53263.5 19158.5 53263.1 19152.5 53262.7 19150.5 53262.9 19148.4 53262.5 19142.4 53262.5 18561.8 53173.2 18472.5 51446.8 18472.5"/></g></mask><mask id="NcuovHd7YYXoq8mDTexX_clear-15" fill="#000" stroke="#000"><g><rect x="508.1" y="508.1" width="67983.8" height="67483.8" fill="#fff"/><path d="M 40506.8 18472.5 40506.8 18472.5 40417.5 18561.8 40417.5 20688.2 40506.8 20777.5 42233.2 20777.5 42322.5 20688.2 42322.5 20107.6 42324 20095.8 42324.7 20083.9 42326 20080.1 42326.5 20076 42330.8 20065 42334.5 20053.7 42336.7 20050.2 42338.2 20046.5 42345.1 20036.9 42351.5 20026.8 42354.5 20024 42356.8 20020.7 42366 20013.1 42374.7 20005 42378.2 20003 42381.3 20000.5 42392.1 19995.4 42402.5 19989.6 42406.5 19988.6 42410.1 19986.9 42421.8 19984.7 42433.3 19981.7 42439.3 19981.3 42441.3 19980.9 42443.4 19981.1 42449.4 19980.7 48430.6 19980.7 48442.4 19982.2 48454.3 19982.9 48458.1 19984.2 48462.2 19984.7 48473.2 19989 48484.5 19992.7 48488 19994.9 48491.7 19996.4 48501.3 20003.3 48511.4 20009.7 48514.2 20012.7 48517.5 20015 48525.1 20024.2 48533.2 20032.9 48535.2 20036.4 48537.7 20039.5 48542.8 20050.3 48548.6 20060.7 48549.6 20064.7 48551.3 20068.3 48553.5 20080 48556.5 20091.5 48556.9 20097.5 48557.3 20099.5 48557.1 20101.6 48557.5 20107.6 48557.5 20688.2 48646.8 20777.5 50373.2 20777.5 50462.5 20688.2 50462.5 18561.8 50373.2 18472.5 48646.8 18472.5 48557.5 18561.8 48557.5 19142.4 48556 19154.2 48555.3 19166.1 48554 19169.9 48553.5 19174 48549.2 19185 48545.5 19196.3 48543.3 19199.8 48541.8 19203.5 48534.9 19213.1 48528.5 19223.2 48525.5 19226 48523.2 19229.3 48514 19236.9 48505.3 19245 48501.8 19247 48498.7 19249.5 48487.9 19254.6 48477.5 19260.4 48473.5 19261.4 48469.9 19263.1 48458.2 19265.3 48446.7 19268.3 48440.7 19268.7 48438.7 19269.1 48436.6 19268.9 48430.6 19269.3 42449.4 19269.3 42437.6 19267.8 42425.7 19267.1 42421.9 19265.8 42417.8 19265.3 42406.8 19261 42395.5 19257.3 42392 19255.1 42388.3 19253.6 42378.7 19246.7 42368.6 19240.3 42365.8 19237.3 42362.5 19235 42354.9 19225.8 42346.8 19217.1 42344.8 19213.6 42342.3 19210.5 42337.2 19199.7 42331.4 19189.3 42330.4 19185.3 42328.7 19181.7 42326.5 19170 42323.5 19158.5 42323.1 19152.5 42322.7 19150.5 42322.9 19148.4 42322.5 19142.4 42322.5 18561.8 42233.2 18472.5 40506.8 18472.5"/></g></mask><mask id="NcuovHd7YYXoq8mDTexX_clear-16" fill="#000" stroke="#000"><g><rect x="508.1" y="508.1" width="67983.8" height="67483.8" fill="#fff"/><path d="M 7686.8 18472.5 7686.8 18472.5 7597.5 18561.8 7597.5 20688.2 7686.8 20777.5 9413.2 20777.5 9502.5 20688.2 9502.5 20107.6 9504 20095.8 9504.7 20083.9 9506 20080.1 9506.5 20076 9510.8 20065 9514.5 20053.7 9516.7 20050.2 9518.2 20046.5 9525.1 20036.9 9531.5 20026.8 9534.5 20024 9536.8 20020.7 9546 20013.1 9554.7 20005 9558.2 20003 9561.3 20000.5 9572.1 19995.4 9582.5 19989.6 9586.5 19988.6 9590.1 19986.9 9601.8 19984.7 9613.3 19981.7 9619.3 19981.3 9621.3 19980.9 9623.4 19981.1 9629.4 19980.7 15610.6 19980.7 15622.4 19982.2 15634.3 19982.9 15638.1 19984.2 15642.2 19984.7 15653.2 19989 15664.5 19992.7 15668 19994.9 15671.7 19996.4 15681.3 20003.3 15691.4 20009.7 15694.2 20012.7 15697.5 20015 15705.1 20024.2 15713.2 20032.9 15715.2 20036.4 15717.7 20039.5 15722.8 20050.3 15728.6 20060.7 15729.6 20064.7 15731.3 20068.3 15733.5 20080 15736.5 20091.5 15736.9 20097.5 15737.3 20099.5 15737.1 20101.6 15737.5 20107.6 15737.5 20688.2 15826.8 20777.5 17553.2 20777.5 17642.5 20688.2 17642.5 18561.8 17553.2 18472.5 15826.8 18472.5 15737.5 18561.8 15737.5 19142.4 15736 19154.2 15735.3 19166.1 15734 19169.9 15733.5 19174 15729.2 19185 15725.5 19196.3 15723.3 19199.8 15721.8 19203.5 15714.9 19213.1 15708.5 19223.2 15705.5 19226 15703.2 19229.3 15694 19236.9 15685.3 19245 15681.8 19247 15678.7 19249.5 15667.9 19254.6 15657.5 19260.4 15653.5 19261.4 15649.9 19263.1 15638.2 19265.3 15626.7 19268.3 15620.7 19268.7 15618.7 19269.1 15616.6 19268.9 15610.6 19269.3 9629.4 19269.3 9617.6 19267.8 9605.7 19267.1 9601.9 19265.8 9597.8 19265.3 9586.8 19261 9575.5 19257.3 9572 19255.1 9568.3 19253.6 9558.7 19246.7 9548.6 19240.3 9545.8 19237.3 9542.5 19235 9534.9 19225.8 9526.8 19217.1 9524.8 19213.6 9522.3 19210.5 9517.2 19199.7 9511.4 19189.3 9510.4 19185.3 9508.7 19181.7 9506.5 19170 9503.5 19158.5 9503.1 19152.5 9502.7 19150.5 9502.9 19148.4 9502.5 19142.4 9502.5 18561.8 9413.2 18472.5 7686.8 18472.5"/></g></mask><mask id="NcuovHd7YYXoq8mDTexX_clear-17" fill="#000" stroke="#000"><g><rect x="508.1" y="508.1" width="67983.8" height="67483.8" fill="#fff"/><path d="M 35253.9 34503.9 35253.9 34503.9 35253.9 37044.1 35947.8 37044.1 36012.5 37026.8 36070.4 36993.3 36117.7 36946 36151.2 36888.1 36168.5 36823.4 36168.5 34503.9 35253.9 34503.9"/></g></mask><mask id="NcuovHd7YYXoq8mDTexX_clear-18" fill="#000" stroke="#000"><g><rect x="508.1" y="508.1" width="67983.8" height="67483.8" fill="#fff"/><path d="M 35253.9 31455.9 35253.9 31455.9 35253.9 33996.1 36168.5 33996.1 36168.5 31676.6 36151.2 31611.9 36117.7 31554 36070.4 31506.7 36012.5 31473.2 35947.8 31455.9 35253.9 31455.9"/></g></mask><mask id="NcuovHd7YYXoq8mDTexX_clear-19" fill="#000" stroke="#000"><g><rect x="508.1" y="508.1" width="67983.8" height="67483.8" fill="#fff"/><path d="M 33831.5 34503.9 33831.5 34503.9 33831.5 36823.4 33848.8 36888.1 33882.3 36946 33929.6 36993.3 33987.5 37026.8 34052.2 37044.1 34746.1 37044.1 34746.1 34503.9 33831.5 34503.9"/></g></mask><mask id="NcuovHd7YYXoq8mDTexX_clear-20" fill="#000" stroke="#000"><g><rect x="508.1" y="508.1" width="67983.8" height="67483.8" fill="#fff"/><path d="M 34052.2 31455.9 34052.2 31455.9 33987.5 31473.2 33929.6 31506.7 33882.3 31554 33848.8 31611.9 33831.5 31676.6 33831.5 33996.1 34746.1 33996.1 34746.1 31455.9 34052.2 31455.9"/></g></mask><mask id="NcuovHd7YYXoq8mDTexX_clear-21" fill="#000" stroke="#000"><g><rect x="508.1" y="508.1" width="67983.8" height="67483.8" fill="#fff"/><path d="M 30683.9 19878.9 30683.9 19878.9 30683.9 20879.1 31263.4 20879.1 31328.1 20861.8 31386 20828.3 31433.3 20781 31466.8 20723.1 31484.1 20658.4 31484.1 19878.9 30683.9 19878.9"/></g></mask><mask id="NcuovHd7YYXoq8mDTexX_clear-22" fill="#000" stroke="#000"><g><rect x="508.1" y="508.1" width="67983.8" height="67483.8" fill="#fff"/><path d="M 38823.9 19878.9 38823.9 19878.9 38823.9 20879.1 39403.4 20879.1 39468.1 20861.8 39526 20828.3 39573.3 20781 39606.8 20723.1 39624.1 20658.4 39624.1 19878.9 38823.9 19878.9"/></g></mask><mask id="NcuovHd7YYXoq8mDTexX_clear-23" fill="#000" stroke="#000"><g><rect x="508.1" y="508.1" width="67983.8" height="67483.8" fill="#fff"/><path d="M 29375.9 19878.9 29375.9 19878.9 29375.9 20658.4 29393.2 20723.1 29426.7 20781 29474 20828.3 29531.9 20861.8 29596.6 20879.1 30176.1 20879.1 30176.1 19878.9 29375.9 19878.9"/></g></mask><mask id="NcuovHd7YYXoq8mDTexX_clear-24" fill="#000" stroke="#000"><g><rect x="508.1" y="508.1" width="67983.8" height="67483.8" fill="#fff"/><path d="M 37515.9 19878.9 37515.9 19878.9 37515.9 20658.4 37533.2 20723.1 37566.7 20781 37614 20828.3 37671.9 20861.8 37736.6 20879.1 38316.1 20879.1 38316.1 19878.9 37515.9 19878.9"/></g></mask><mask id="NcuovHd7YYXoq8mDTexX_clear-25" fill="#000" stroke="#000"><g><rect x="508.1" y="508.1" width="67983.8" height="67483.8" fill="#fff"/><path d="M 30683.9 18370.9 30683.9 18370.9 30683.9 19371.1 31484.1 19371.1 31484.1 18591.6 31466.8 18526.9 31433.3 18469 31386 18421.7 31328.1 18388.2 31263.4 18370.9 30683.9 18370.9"/></g></mask><mask id="NcuovHd7YYXoq8mDTexX_clear-26" fill="#000" stroke="#000"><g><rect x="508.1" y="508.1" width="67983.8" height="67483.8" fill="#fff"/><path d="M 38823.9 18370.9 38823.9 18370.9 38823.9 19371.1 39624.1 19371.1 39624.1 18591.6 39606.8 18526.9 39573.3 18469 39526 18421.7 39468.1 18388.2 39403.4 18370.9 38823.9 18370.9"/></g></mask><mask id="NcuovHd7YYXoq8mDTexX_clear-27" fill="#000" stroke="#000"><g><rect x="508.1" y="508.1" width="67983.8" height="67483.8" fill="#fff"/><path d="M 29596.6 18370.9 29596.6 18370.9 29531.9 18388.2 29474 18421.7 29426.7 18469 29393.2 18526.9 29375.9 18591.6 29375.9 19371.1 30176.1 19371.1 30176.1 18370.9 29596.6 18370.9"/></g></mask><mask id="NcuovHd7YYXoq8mDTexX_clear-28" fill="#000" stroke="#000"><g><rect x="508.1" y="508.1" width="67983.8" height="67483.8" fill="#fff"/><path d="M 37736.6 18370.9 37736.6 18370.9 37671.9 18388.2 37614 18421.7 37566.7 18469 37533.2 18526.9 37515.9 18591.6 37515.9 19371.1 38316.1 19371.1 38316.1 18370.9 37736.6 18370.9"/></g></mask><mask id="NcuovHd7YYXoq8mDTexX_clear-29" fill="#000" stroke="#000"><g><rect x="508.1" y="508.1" width="67983.8" height="67483.8" fill="#fff"/><path d="M 34999.9 34249.9 34999.9 34249.9 34999.9 34250.1 35000.1 34250.1 35000.1 34249.9 34999.9 34249.9"/></g></mask><mask id="NcuovHd7YYXoq8mDTexX_clear-30" fill="#000" stroke="#000"><g><rect x="508.1" y="508.1" width="67983.8" height="67483.8" fill="#fff"/><path d="M 38569.9 19624.9 38569.9 19624.9 38569.9 19625.1 38570.1 19625.1 38570.1 19624.9 38569.9 19624.9"/></g></mask><mask id="NcuovHd7YYXoq8mDTexX_clear-31" fill="#000" stroke="#000"><g><rect x="508.1" y="508.1" width="67983.8" height="67483.8" fill="#fff"/><path d="M 30429.9 19624.9 30429.9 19624.9 30429.9 19625.1 30430.1 19625.1 30430.1 19624.9 30429.9 19624.9"/></g></mask><rect x="-800" y="-1000" width="1600" height="2000" id="NcuovHd7YYXoq8mDTexX_pad-11"/><rect x="-914.4" y="-2540" width="1828.8" height="5080" id="NcuovHd7YYXoq8mDTexX_pad-12"/><circle cx="0" cy="0" r="452.4" id="NcuovHd7YYXoq8mDTexX_pad-14"/><rect x="-800" y="-1000" width="1600" height="2000" id="TUNsQ-LRm3EDSTsMs3Eg_pad-11"/><rect x="-914.4" y="-2540" width="1828.8" height="5080" id="TUNsQ-LRm3EDSTsMs3Eg_pad-12"/><rect x="-800" y="-1000" width="1600" height="2000" id="wcXcssniPVM7069WnXu4_pad-11"/><rect x="-914.4" y="-2540" width="1828.8" height="5080" id="wcXcssniPVM7069WnXu4_pad-12"/><circle cx="0" cy="0" r="300" id="c_9p5hJE0gQdEsvt6N-M_pad-1"/><g id="rZot30QKtMhGP3r5mffl_bottom_copper"><g mask="url(#NcuovHd7YYXoq8mDTexX_clear-31)"><g mask="url(#NcuovHd7YYXoq8mDTexX_clear-30)"><g mask="url(#NcuovHd7YYXoq8mDTexX_clear-29)"><g mask="url(#NcuovHd7YYXoq8mDTexX_clear-28)"><g mask="url(#NcuovHd7YYXoq8mDTexX_clear-27)"><g mask="url(#NcuovHd7YYXoq8mDTexX_clear-26)"><g mask="url(#NcuovHd7YYXoq8mDTexX_clear-25)"><g mask="url(#NcuovHd7YYXoq8mDTexX_clear-24)"><g mask="url(#NcuovHd7YYXoq8mDTexX_clear-23)"><g mask="url(#NcuovHd7YYXoq8mDTexX_clear-22)"><g mask="url(#NcuovHd7YYXoq8mDTexX_clear-21)"><g mask="url(#NcuovHd7YYXoq8mDTexX_clear-20)"><g mask="url(#NcuovHd7YYXoq8mDTexX_clear-19)"><g mask="url(#NcuovHd7YYXoq8mDTexX_clear-18)"><g mask="url(#NcuovHd7YYXoq8mDTexX_clear-17)"><g mask="url(#NcuovHd7YYXoq8mDTexX_clear-16)"><g mask="url(#NcuovHd7YYXoq8mDTexX_clear-15)"><g mask="url(#NcuovHd7YYXoq8mDTexX_clear-14)"><g mask="url(#NcuovHd7YYXoq8mDTexX_clear-13)"><g mask="url(#NcuovHd7YYXoq8mDTexX_clear-12)"><g mask="url(#NcuovHd7YYXoq8mDTexX_clear-11)"><g mask="url(#NcuovHd7YYXoq8mDTexX_clear-10)"><g mask="url(#NcuovHd7YYXoq8mDTexX_clear-9)"><g mask="url(#NcuovHd7YYXoq8mDTexX_clear-8)"><g mask="url(#NcuovHd7YYXoq8mDTexX_clear-7)"><g mask="url(#NcuovHd7YYXoq8mDTexX_clear-6)"><g mask="url(#NcuovHd7YYXoq8mDTexX_clear-5)"><g mask="url(#NcuovHd7YYXoq8mDTexX_clear-4)"><g mask="url(#NcuovHd7YYXoq8mDTexX_clear-3)"><g mask="url(#NcuovHd7YYXoq8mDTexX_clear-2)"><g mask="url(#NcuovHd7YYXoq8mDTexX_clear-1)"><path d="M 68376.8 509.6 68376.8 509.6 68388.7 510.3 68392.5 511.6 68396.6 512.1 68407.6 516.4 68418.9 520.1 68422.4 522.3 68426.1 523.8 68435.7 530.7 68445.8 537.1 68448.6 540.1 68451.9 542.4 68459.5 551.6 68467.6 560.3 68469.6 563.8 68472.1 566.9 68477.2 577.7 68483 588.1 68484 592.1 68485.7 595.7 68487.9 607.4 68490.9 618.9 68491.3 624.9 68491.7 626.9 68491.5 629 68491.9 635 68491.9 67865 68490.4 67876.8 68489.7 67888.7 68488.4 67892.5 68487.9 67896.6 68483.6 67907.6 68479.9 67918.9 68477.7 67922.4 68476.2 67926.1 68469.3 67935.7 68462.9 67945.8 68459.9 67948.6 68457.6 67951.9 68448.4 67959.5 68439.7 67967.6 68436.2 67969.6 68433.1 67972.1 68422.3 67977.2 68411.9 67983 68407.9 67984 68404.3 67985.7 68392.6 67987.9 68381.1 67990.9 68375.1 67991.3 68373.1 67991.7 68371 67991.5 68365 67991.9 635 67991.9 623.2 67990.4 611.3 67989.7 607.5 67988.4 603.4 67987.9 592.4 67983.6 581.1 67979.9 577.6 67977.7 573.9 67976.2 564.3 67969.3 554.2 67962.9 551.4 67959.9 548.1 67957.6 540.5 67948.4 532.4 67939.7 530.4 67936.2 527.9 67933.1 522.8 67922.3 517 67911.9 516 67907.9 514.3 67904.3 512.1 67892.6 509.1 67881.1 508.7 67875.1 508.3 67873.1 508.5 67871 508.1 67865 508.1 635 509.6 623.2 510.3 611.3 511.6 607.5 512.1 603.4 516.4 592.4 520.1 581.1 522.3 577.6 523.8 573.9 530.7 564.3 537.1 554.2 540.1 551.4 542.4 548.1 551.6 540.5 560.3 532.4 563.8 530.4 566.9 527.9 577.7 522.8 588.1 517 592.1 516 595.7 514.3 607.4 512.1 618.9 509.1 624.9 508.7 626.9 508.3 629 508.5 635 508.1 68365 508.1 68376.8 509.6"/></g></g></g></g></g></g></g></g></g></g></g></g></g></g></g></g></g></g></g></g></g></g></g></g></g></g></g></g></g></g></g><path d="M 0 0 0 68500 69000 68500 69000 0 0 0" fill="none" stroke-width="0"/><use xlink:href="#NcuovHd7YYXoq8mDTexX_pad-11" x="38570" y="19625"/><use xlink:href="#NcuovHd7YYXoq8mDTexX_pad-11" x="41370" y="19625"/><use xlink:href="#NcuovHd7YYXoq8mDTexX_pad-11" x="49510" y="19625"/><use xlink:href="#NcuovHd7YYXoq8mDTexX_pad-11" x="52310" y="19625"/><use xlink:href="#NcuovHd7YYXoq8mDTexX_pad-11" x="60450" y="19625"/><use xlink:href="#NcuovHd7YYXoq8mDTexX_pad-11" x="63250" y="19625"/><use xlink:href="#NcuovHd7YYXoq8mDTexX_pad-11" x="63250" y="51375"/><use xlink:href="#NcuovHd7YYXoq8mDTexX_pad-11" x="60450" y="51375"/><use xlink:href="#NcuovHd7YYXoq8mDTexX_pad-11" x="57780" y="34250"/><use xlink:href="#NcuovHd7YYXoq8mDTexX_pad-11" x="54980" y="34250"/><use xlink:href="#NcuovHd7YYXoq8mDTexX_pad-11" x="52310" y="51375"/><use xlink:href="#NcuovHd7YYXoq8mDTexX_pad-11" x="49510" y="51375"/><use xlink:href="#NcuovHd7YYXoq8mDTexX_pad-11" x="46840" y="34250"/><use xlink:href="#NcuovHd7YYXoq8mDTexX_pad-11" x="44040" y="34250"/><use xlink:href="#NcuovHd7YYXoq8mDTexX_pad-11" x="41370" y="51375"/><use xlink:href="#NcuovHd7YYXoq8mDTexX_pad-11" x="38570" y="51375"/><use xlink:href="#NcuovHd7YYXoq8mDTexX_pad-11" x="27630" y="51375"/><use xlink:href="#NcuovHd7YYXoq8mDTexX_pad-11" x="30430" y="51375"/><use xlink:href="#NcuovHd7YYXoq8mDTexX_pad-11" x="11220" y="34250"/><use xlink:href="#NcuovHd7YYXoq8mDTexX_pad-11" x="14020" y="34250"/><use xlink:href="#NcuovHd7YYXoq8mDTexX_pad-11" x="16690" y="51375"/><use xlink:href="#NcuovHd7YYXoq8mDTexX_pad-11" x="19490" y="51375"/><use xlink:href="#NcuovHd7YYXoq8mDTexX_pad-11" x="22160" y="34250"/><use xlink:href="#NcuovHd7YYXoq8mDTexX_pad-11" x="24960" y="34250"/><use xlink:href="#NcuovHd7YYXoq8mDTexX_pad-12" x="30800" y="34250"/><use xlink:href="#NcuovHd7YYXoq8mDTexX_pad-12" x="35000" y="34250"/><use xlink:href="#NcuovHd7YYXoq8mDTexX_pad-12" x="39200" y="34250"/><use xlink:href="#NcuovHd7YYXoq8mDTexX_pad-11" x="5750" y="51375"/><use xlink:href="#NcuovHd7YYXoq8mDTexX_pad-11" x="8550" y="51375"/><use xlink:href="#NcuovHd7YYXoq8mDTexX_pad-11" x="8550" y="19625"/><use xlink:href="#NcuovHd7YYXoq8mDTexX_pad-11" x="5750" y="19625"/><use xlink:href="#NcuovHd7YYXoq8mDTexX_pad-11" x="19490" y="19625"/><use xlink:href="#NcuovHd7YYXoq8mDTexX_pad-11" x="16690" y="19625"/><use xlink:href="#NcuovHd7YYXoq8mDTexX_pad-11" x="30430" y="19625"/><use xlink:href="#NcuovHd7YYXoq8mDTexX_pad-11" x="27630" y="19625"/><path d="M 52310 19625 60450 19625 M 49510 19625 41370 19625 M 34093.6 51375 30430 51375 M 34093.6 51375 34906.4 51375 M 39200 40000 39200 34250 M 39200 40000 34500 44700 M 34500 50968.6 34906.4 51375 38570 51375 M 34500 50968.6 34500 44700 M 34500 50968.6 34093.6 51375" fill="none" stroke-width="406.4"/><use xlink:href="#NcuovHd7YYXoq8mDTexX_pad-14" x="34500" y="63500"/><path d="M 30800 34250 30800 26700" fill="none" stroke-width="406.4"/><use xlink:href="#NcuovHd7YYXoq8mDTexX_pad-14" x="34500" y="5000"/><path d="M 33870 23630 30800 26700 M 34500 23000 34500 5000 M 34500 23000 33870 23630 M 16690 19625 8550 19625 M 63250 19625 63250 51375 M 60450 44070 57780 41400 M 60450 44070 60450 51375 M 57780 41400 57780 34250 M 54980 41400 52310 44070 52310 51375 M 54980 41400 54980 34250 M 46840 41400 49510 44070 49510 51375 M 46840 41400 46840 34250 M 44040 41400 41370 44070 41370 51375 M 44040 41400 44040 34250 M 22160 41400 19490 44070 19490 51375 M 22160 41400 22160 34250 M 14020 41400 16690 44070 16690 51375 M 14020 41400 14020 34250 M 11220 41400 8550 44070 8550 51375 M 11220 41400 11220 34250 M 5750 19625 5750 51375 M 19490 19625 27630 19625 M 24960 41400 27630 44070 27630 51375 M 24960 41400 24960 34250" fill="none" stroke-width="406.4"/></g><g id="rZot30QKtMhGP3r5mffl_bottom_soldermask"><path d="M 0 0 0 68500 69000 68500 69000 0 0 0" fill="none" stroke-width="0"/><use xlink:href="#TUNsQ-LRm3EDSTsMs3Eg_pad-11" x="38570" y="19625"/><use xlink:href="#TUNsQ-LRm3EDSTsMs3Eg_pad-11" x="41370" y="19625"/><use xlink:href="#TUNsQ-LRm3EDSTsMs3Eg_pad-11" x="49510" y="19625"/><use xlink:href="#TUNsQ-LRm3EDSTsMs3Eg_pad-11" x="52310" y="19625"/><use xlink:href="#TUNsQ-LRm3EDSTsMs3Eg_pad-11" x="60450" y="19625"/><use xlink:href="#TUNsQ-LRm3EDSTsMs3Eg_pad-11" x="63250" y="19625"/><use xlink:href="#TUNsQ-LRm3EDSTsMs3Eg_pad-11" x="63250" y="51375"/><use xlink:href="#TUNsQ-LRm3EDSTsMs3Eg_pad-11" x="60450" y="51375"/><use xlink:href="#TUNsQ-LRm3EDSTsMs3Eg_pad-11" x="57780" y="34250"/><use xlink:href="#TUNsQ-LRm3EDSTsMs3Eg_pad-11" x="54980" y="34250"/><use xlink:href="#TUNsQ-LRm3EDSTsMs3Eg_pad-11" x="52310" y="51375"/><use xlink:href="#TUNsQ-LRm3EDSTsMs3Eg_pad-11" x="49510" y="51375"/><use xlink:href="#TUNsQ-LRm3EDSTsMs3Eg_pad-11" x="46840" y="34250"/><use xlink:href="#TUNsQ-LRm3EDSTsMs3Eg_pad-11" x="44040" y="34250"/><use xlink:href="#TUNsQ-LRm3EDSTsMs3Eg_pad-11" x="41370" y="51375"/><use xlink:href="#TUNsQ-LRm3EDSTsMs3Eg_pad-11" x="38570" y="51375"/><use xlink:href="#TUNsQ-LRm3EDSTsMs3Eg_pad-11" x="27630" y="51375"/><use xlink:href="#TUNsQ-LRm3EDSTsMs3Eg_pad-11" x="30430" y="51375"/><use xlink:href="#TUNsQ-LRm3EDSTsMs3Eg_pad-11" x="11220" y="34250"/><use xlink:href="#TUNsQ-LRm3EDSTsMs3Eg_pad-11" x="14020" y="34250"/><use xlink:href="#TUNsQ-LRm3EDSTsMs3Eg_pad-11" x="16690" y="51375"/><use xlink:href="#TUNsQ-LRm3EDSTsMs3Eg_pad-11" x="19490" y="51375"/><use xlink:href="#TUNsQ-LRm3EDSTsMs3Eg_pad-11" x="22160" y="34250"/><use xlink:href="#TUNsQ-LRm3EDSTsMs3Eg_pad-11" x="24960" y="34250"/><use xlink:href="#TUNsQ-LRm3EDSTsMs3Eg_pad-12" x="30800" y="34250"/><use xlink:href="#TUNsQ-LRm3EDSTsMs3Eg_pad-12" x="35000" y="34250"/><use xlink:href="#TUNsQ-LRm3EDSTsMs3Eg_pad-12" x="39200" y="34250"/><use xlink:href="#TUNsQ-LRm3EDSTsMs3Eg_pad-11" x="5750" y="51375"/><use xlink:href="#TUNsQ-LRm3EDSTsMs3Eg_pad-11" x="8550" y="51375"/><use xlink:href="#TUNsQ-LRm3EDSTsMs3Eg_pad-11" x="8550" y="19625"/><use xlink:href="#TUNsQ-LRm3EDSTsMs3Eg_pad-11" x="5750" y="19625"/><use xlink:href="#TUNsQ-LRm3EDSTsMs3Eg_pad-11" x="19490" y="19625"/><use xlink:href="#TUNsQ-LRm3EDSTsMs3Eg_pad-11" x="16690" y="19625"/><use xlink:href="#TUNsQ-LRm3EDSTsMs3Eg_pad-11" x="30430" y="19625"/><use xlink:href="#TUNsQ-LRm3EDSTsMs3Eg_pad-11" x="27630" y="19625"/></g><g id="rZot30QKtMhGP3r5mffl_bottom_silkscreen"><path d="M 0 0 0 68500 69000 68500 69000 0 0 0" fill="none" stroke-width="0"/><path d="M 41075.9 16918.5 41075.9 18062.5 40503.9 18062.5 40313.3 17871.8 40313.3 17490.5 40503.9 17299.8 41075.9 17299.8 M 40694.6 17299.8 40313.3 16918.5 M 39906.5 17681.2 39525.2 18062.5 39525.2 16918.5 M 39906.5 16918.5 39143.9 16918.5 M 52015.9 16918.5 52015.9 18062.5 51443.9 18062.5 51253.3 17871.8 51253.3 17490.5 51443.9 17299.8 52015.9 17299.8 M 51634.6 17299.8 51253.3 16918.5 M 50846.5 16918.5 50083.9 16918.5 M 50846.5 16918.5 50083.9 17681.2 50083.9 17871.8 50274.5 18062.5 50655.8 18062.5 50846.5 17871.8 M 62955.9 18062.5 62955.9 16918.5 M 62955.9 18062.5 62383.9 18062.5 62193.3 17871.8 62193.3 17490.5 62383.9 17299.8 62955.9 17299.8 M 62574.6 17299.8 62193.3 16918.5 M 61786.5 17871.8 61595.8 18062.5 61214.5 18062.5 61023.9 17871.8 61023.9 17681.2 61214.5 17490.5 61405.2 17490.5 M 61214.5 17490.5 61023.9 17299.8 61023.9 17109.2 61214.5 16918.5 61595.8 16918.5 61786.5 17109.2 M 62955.9 52938.5 62955.9 54082.5 62383.9 54082.5 62193.2 53891.8 62193.2 53510.5 62383.9 53319.8 62955.9 53319.8 M 62574.6 53319.8 62193.2 52938.5 M 61214.5 52938.5 61214.5 54082.5 61786.5 53510.5 61023.9 53510.5 M 57485.9 36957.5 57485.9 35813.5 M 57485.9 36957.5 56913.9 36957.5 56723.2 36766.8 56723.2 36385.5 56913.9 36194.8 57485.9 36194.8 M 57104.6 36194.8 56723.2 35813.5 M 56316.5 36957.5 55553.9 36957.5 M 56316.5 36957.5 56316.5 36385.5 55935.2 36576.2 55744.5 36576.2 55553.9 36385.5 55553.9 36004.2 55744.5 35813.5 56125.8 35813.5 56316.5 36004.2 M 52015.9 52938.5 52015.9 54082.5 51443.9 54082.5 51253.2 53891.8 51253.2 53510.5 51443.9 53319.8 52015.9 53319.8 M 51634.6 53319.8 51253.2 52938.5 M 50465.2 53891.8 50083.9 54082.5 M 50465.2 53891.8 50846.5 53510.5 50846.5 53129.2 50655.8 52938.5 50274.5 52938.5 50083.9 53129.2 50083.9 53319.8 50274.5 53510.5 50846.5 53510.5 M 46545.9 36957.5 46545.9 35813.5 M 46545.9 36957.5 45973.9 36957.5 45783.2 36766.8 45783.2 36385.5 45973.9 36194.8 46545.9 36194.8 M 46164.6 36194.8 45783.2 35813.5 M 45376.5 36957.5 44613.9 36957.5 44613.9 36766.8 45376.5 36004.2 45376.5 35813.5 M 41075.9 52938.5 41075.9 54082.5 40503.9 54082.5 40313.2 53891.8 40313.2 53510.5 40503.9 53319.8 41075.9 53319.8 M 40694.6 53319.8 40313.2 52938.5 M 39906.5 53891.8 39715.8 54082.5 39334.5 54082.5 39143.9 53891.8 39143.9 53701.2 39334.5 53510.5 39143.9 53319.8 39143.9 53129.2 39334.5 52938.5 39715.8 52938.5 39906.5 53129.2 39906.5 53319.8 39715.8 53510.5 39906.5 53701.2 39906.5 53891.8 M 39715.8 53510.5 39334.5 53510.5 M 30135.9 52938.5 30135.9 54082.5 29563.9 54082.5 29373.3 53891.8 29373.3 53510.5 29563.9 53319.8 30135.9 53319.8 M 29754.6 53319.8 29373.3 52938.5 M 28966.5 53129.2 28775.8 52938.5 28394.5 52938.5 28203.9 53129.2 28203.9 53891.8 28394.5 54082.5 28775.8 54082.5 28966.5 53891.8 28966.5 53701.2 28775.8 53510.5 28203.9 53510.5 M 14310.6 36957.5 14310.6 35813.5 M 14310.6 36957.5 13738.6 36957.5 13548 36766.8 13548 36385.5 13738.6 36194.8 14310.6 36194.8 M 13929.3 36194.8 13548 35813.5 M 13141.2 36576.2 12759.9 36957.5 12759.9 35813.5 M 13141.2 35813.5 12378.6 35813.5 M 11971.8 35813.5 11209.2 35813.5 M 11971.8 35813.5 11209.2 36576.2 11209.2 36766.8 11399.8 36957.5 11781.1 36957.5 11971.8 36766.8 M 19780.6 52938.5 19780.6 54082.5 19208.6 54082.5 19018 53891.8 19018 53510.5 19208.6 53319.8 19780.6 53319.8 M 19399.3 53319.8 19018 52938.5 M 18611.2 53701.2 18229.9 54082.5 18229.9 52938.5 M 18611.2 52938.5 17848.6 52938.5 M 17441.8 53701.2 17060.5 54082.5 17060.5 52938.5 M 17441.8 52938.5 16679.2 52938.5 M 25250.6 36957.5 25250.6 35813.5 M 25250.6 36957.5 24678.6 36957.5 24488 36766.8 24488 36385.5 24678.6 36194.8 25250.6 36194.8 M 24869.3 36194.8 24488 35813.5 M 24081.2 36576.2 23699.9 36957.5 23699.9 35813.5 M 24081.2 35813.5 23318.6 35813.5 M 22911.8 36004.2 22911.8 36766.8 22721.1 36957.5 22339.8 36957.5 22149.2 36766.8 22149.2 36004.2 22339.8 35813.5 22721.1 35813.5 22911.8 36004.2 22149.2 36766.8" fill="none" stroke-width="127"/><path d="M 29631.6 37044 31968.4 37044 31968.4 31456 29631.6 31456 29631.6 37044" fill="none" stroke-width="152.4"/><path d="M 33166.8 31568 33357.5 31377.3 33357.5 30996 33166.8 30805.3 32976.2 30805.3 32785.5 30996 32785.5 31377.3 32594.8 31568 32404.2 31568 32213.5 31377.3 32213.5 30996 32404.2 30805.3 M 33357.5 31974.7 33357.5 32737.4 M 33357.5 31974.7 32213.5 31974.7 32213.5 32737.4 M 32785.5 32356 32785.5 31974.7 M 32213.5 33144.1 33357.5 33144.1 32213.5 33906.7 33357.5 33906.7 M 33357.5 34885.5 33166.8 35076.1 M 33357.5 34885.5 33357.5 34504.2 33166.8 34313.5 32976.2 34313.5 32785.5 34504.2 32785.5 34885.5 32594.8 35076.1 32404.2 35076.1 32213.5 34885.5 32213.5 34504.2 32404.2 34313.5 M 33357.5 35673.6 33357.5 36054.9 M 33357.5 35673.6 33166.8 35482.9 32404.2 35482.9 32213.5 35673.6 32213.5 36054.9 32404.2 36245.5 33166.8 36245.5 33357.5 36054.9 M 33357.5 36652.3 32213.5 36652.3 M 33357.5 36652.3 33357.5 37224.3 33166.8 37414.9 32785.5 37414.9 32594.8 37224.3 32594.8 36652.3 M 32594.8 37033.6 32213.5 37414.9" fill="none" stroke-width="127"/><path d="M 33831.6 37044 36168.4 37044 36168.4 31456 33831.6 31456 33831.6 37044" fill="none" stroke-width="152.4"/><path d="M 37366.8 33322.1 37557.5 33131.4 37557.5 32750.1 37366.8 32559.4 36604.2 32559.4 36413.5 32750.1 36413.5 33131.4 36604.2 33322.1 36985.5 33322.1 36985.5 32940.7 M 36413.5 33728.8 37557.5 33728.8 36413.5 34491.5 37557.5 34491.5 M 37557.5 34898.2 36413.5 34898.2 36413.5 35470.2 36604.2 35660.8 37366.8 35660.8 37557.5 35470.2 37557.5 34898.2" fill="none" stroke-width="127"/><path d="M 38031.6 37044 40368.4 37044 40368.4 31456 38031.6 31456 38031.6 37044" fill="none" stroke-width="152.4"/><path d="M 40613.5 31974.7 41757.5 31974.7 M 41185.5 31974.7 41185.5 32737.4 M 41757.5 32737.4 40613.5 32737.4 M 41757.5 33144.1 41757.5 33906.8 M 41757.5 33144.1 40613.5 33144.1 40613.5 33906.8 M 41185.5 33525.4 41185.5 33144.1 M 41376.2 34313.5 40613.5 34313.5 M 41376.2 34313.5 41757.5 34694.8 41376.2 35076.1 40613.5 35076.1 M 41185.5 35076.1 41185.5 34313.5 M 40613.5 35864.2 41757.5 35864.2 M 41757.5 35482.9 41757.5 36245.5 M 8840.6 52938.5 8840.6 54082.5 8268.6 54082.5 8078 53891.8 8078 53510.5 8268.6 53319.8 8840.6 53319.8 M 8459.3 53319.8 8078 52938.5 M 7671.2 53701.2 7289.9 54082.5 7289.9 52938.5 M 7671.2 52938.5 6908.6 52938.5 M 6501.8 53891.8 6311.1 54082.5 5929.8 54082.5 5739.2 53891.8 5739.2 53701.2 5929.8 53510.5 6120.5 53510.5 M 5929.8 53510.5 5739.2 53319.8 5739.2 53129.2 5929.8 52938.5 6311.1 52938.5 6501.8 53129.2 M 8840.6 18062.5 8840.6 16918.5 M 8840.6 18062.5 8268.6 18062.5 8077.9 17871.8 8077.9 17490.5 8268.6 17299.8 8840.6 17299.8 M 8459.3 17299.8 8077.9 16918.5 M 7671.2 17681.2 7289.9 18062.5 7289.9 16918.5 M 7671.2 16918.5 6908.6 16918.5 M 5929.8 16918.5 5929.8 18062.5 6501.8 17490.5 5739.2 17490.5 M 19780.6 16918.5 19780.6 18062.5 19208.6 18062.5 19017.9 17871.8 19017.9 17490.5 19208.6 17299.8 19780.6 17299.8 M 19399.3 17299.8 19017.9 16918.5 M 18611.2 17681.2 18229.9 18062.5 18229.9 16918.5 M 18611.2 16918.5 17848.6 16918.5 M 17441.8 18062.5 16679.2 18062.5 M 17441.8 18062.5 17441.8 17490.5 17060.5 17681.2 16869.8 17681.2 16679.2 17490.5 16679.2 17109.2 16869.8 16918.5 17251.1 16918.5 17441.8 17109.2 M 30720.6 16918.5 30720.6 18062.5 30148.6 18062.5 29957.9 17871.8 29957.9 17490.5 30148.6 17299.8 30720.6 17299.8 M 30339.3 17299.8 29957.9 16918.5 M 29551.2 17681.2 29169.9 18062.5 29169.9 16918.5 M 29551.2 16918.5 28788.6 16918.5 M 28000.5 17871.8 27619.2 18062.5 M 28000.5 17871.8 28381.8 17490.5 28381.8 17109.2 28191.1 16918.5 27809.8 16918.5 27619.2 17109.2 27619.2 17299.8 27809.8 17490.5 28381.8 17490.5" fill="none" stroke-width="127"/></g><g id="rZot30QKtMhGP3r5mffl_bottom_solderpaste"><path d="M 0 0 0 68500 69000 68500 69000 0 0 0" fill="none" stroke-width="0"/><use xlink:href="#wcXcssniPVM7069WnXu4_pad-11" x="38570" y="19625"/><use xlink:href="#wcXcssniPVM7069WnXu4_pad-11" x="41370" y="19625"/><use xlink:href="#wcXcssniPVM7069WnXu4_pad-11" x="49510" y="19625"/><use xlink:href="#wcXcssniPVM7069WnXu4_pad-11" x="52310" y="19625"/><use xlink:href="#wcXcssniPVM7069WnXu4_pad-11" x="60450" y="19625"/><use xlink:href="#wcXcssniPVM7069WnXu4_pad-11" x="63250" y="19625"/><use xlink:href="#wcXcssniPVM7069WnXu4_pad-11" x="63250" y="51375"/><use xlink:href="#wcXcssniPVM7069WnXu4_pad-11" x="60450" y="51375"/><use xlink:href="#wcXcssniPVM7069WnXu4_pad-11" x="57780" y="34250"/><use xlink:href="#wcXcssniPVM7069WnXu4_pad-11" x="54980" y="34250"/><use xlink:href="#wcXcssniPVM7069WnXu4_pad-11" x="52310" y="51375"/><use xlink:href="#wcXcssniPVM7069WnXu4_pad-11" x="49510" y="51375"/><use xlink:href="#wcXcssniPVM7069WnXu4_pad-11" x="46840" y="34250"/><use xlink:href="#wcXcssniPVM7069WnXu4_pad-11" x="44040" y="34250"/><use xlink:href="#wcXcssniPVM7069WnXu4_pad-11" x="41370" y="51375"/><use xlink:href="#wcXcssniPVM7069WnXu4_pad-11" x="38570" y="51375"/><use xlink:href="#wcXcssniPVM7069WnXu4_pad-11" x="27630" y="51375"/><use xlink:href="#wcXcssniPVM7069WnXu4_pad-11" x="30430" y="51375"/><use xlink:href="#wcXcssniPVM7069WnXu4_pad-11" x="11220" y="34250"/><use xlink:href="#wcXcssniPVM7069WnXu4_pad-11" x="14020" y="34250"/><use xlink:href="#wcXcssniPVM7069WnXu4_pad-11" x="16690" y="51375"/><use xlink:href="#wcXcssniPVM7069WnXu4_pad-11" x="19490" y="51375"/><use xlink:href="#wcXcssniPVM7069WnXu4_pad-11" x="22160" y="34250"/><use xlink:href="#wcXcssniPVM7069WnXu4_pad-11" x="24960" y="34250"/><use xlink:href="#wcXcssniPVM7069WnXu4_pad-12" x="30800" y="34250"/><use xlink:href="#wcXcssniPVM7069WnXu4_pad-12" x="35000" y="34250"/><use xlink:href="#wcXcssniPVM7069WnXu4_pad-12" x="39200" y="34250"/><use xlink:href="#wcXcssniPVM7069WnXu4_pad-11" x="5750" y="51375"/><use xlink:href="#wcXcssniPVM7069WnXu4_pad-11" x="8550" y="51375"/><use xlink:href="#wcXcssniPVM7069WnXu4_pad-11" x="8550" y="19625"/><use xlink:href="#wcXcssniPVM7069WnXu4_pad-11" x="5750" y="19625"/><use xlink:href="#wcXcssniPVM7069WnXu4_pad-11" x="19490" y="19625"/><use xlink:href="#wcXcssniPVM7069WnXu4_pad-11" x="16690" y="19625"/><use xlink:href="#wcXcssniPVM7069WnXu4_pad-11" x="30430" y="19625"/><use xlink:href="#wcXcssniPVM7069WnXu4_pad-11" x="27630" y="19625"/></g><g id="rZot30QKtMhGP3r5mffl_bottom_drill1"><use xlink:href="#c_9p5hJE0gQdEsvt6N-M_pad-1" x="34500" y="63500"/><use xlink:href="#c_9p5hJE0gQdEsvt6N-M_pad-1" x="34500" y="5000"/></g><clipPath id="rZot30QKtMhGP3r5mffl_bottom_outline"><path d="M 0 0 0 68500 69000 68500 69000 0 0 0" fill="none" stroke-width="0"/></clipPath><mask id="rZot30QKtMhGP3r5mffl_bottom_mech-mask"><g fill="#000" stroke="#000"><rect x="0" y="0" width="69000" height="68500" fill="#fff"/><use xlink:href="#rZot30QKtMhGP3r5mffl_bottom_drill1"/></g></mask><mask id="rZot30QKtMhGP3r5mffl_bottom_cf-mask"><g fill="#fff" stroke="#fff"><use xlink:href="#rZot30QKtMhGP3r5mffl_bottom_soldermask"/></g></mask><mask id="rZot30QKtMhGP3r5mffl_bottom_sm-mask"><g fill="#000" stroke="#000"><rect x="0" y="0" width="69000" height="68500" fill="#fff"/><use xlink:href="#rZot30QKtMhGP3r5mffl_bottom_soldermask"/></g></mask></defs><g transform="translate(0,68500) scale(1,-1)"><g mask="url(#rZot30QKtMhGP3r5mffl_bottom_mech-mask)" clip-path="url(#rZot30QKtMhGP3r5mffl_bottom_outline)" transform="translate(69000,0) scale(-1,1)"><rect x="0" y="0" width="69000" height="68500" fill="currentColor" class="rZot30QKtMhGP3r5mffl_fr4"/><use xlink:href="#rZot30QKtMhGP3r5mffl_bottom_copper" fill="currentColor" stroke="currentColor" class="rZot30QKtMhGP3r5mffl_cu"/><use xlink:href="#rZot30QKtMhGP3r5mffl_bottom_copper" fill="currentColor" stroke="currentColor" class="rZot30QKtMhGP3r5mffl_cf" mask="url(#rZot30QKtMhGP3r5mffl_bottom_cf-mask)"/><g mask="url(#rZot30QKtMhGP3r5mffl_bottom_sm-mask)"><rect x="0" y="0" width="69000" height="68500" fill="currentColor" class="rZot30QKtMhGP3r5mffl_sm"/><use xlink:href="#rZot30QKtMhGP3r5mffl_bottom_silkscreen" fill="currentColor" stroke="currentColor" class="rZot30QKtMhGP3r5mffl_ss"/></g><use xlink:href="#rZot30QKtMhGP3r5mffl_bottom_solderpaste" fill="currentColor" stroke="currentColor" class="rZot30QKtMhGP3r5mffl_sp"/></g></g></svg>