<svg version="1.1" xmlns="http://www.w3.org/2000/svg" xmlns:xlink="http://www.w3.org/1999/xlink" stroke-linecap="round" stroke-linejoin="round" stroke-width="0" fill-rule="evenodd" clip-rule="evenodd" id="rZot30QKtMhGP3r5mffl_top" viewBox="0 0 69000 68500" width="69mm" height="68.5mm" class="w-100 h-100"><defs><style>.rZot30QKtMhGP3r5mffl_fr4 {color: #666666;}
.rZot30QKtMhGP3r5mffl_cu {color: #cccccc;}
.rZot30QKtMhGP3r5mffl_cf {color: #cc9933;}
.rZot30QKtMhGP3r5mffl_sm {color: #004200; opacity: 0.75;}
.rZot30QKtMhGP3r5mffl_ss {color: #ffffff;}
.rZot30QKtMhGP3r5mffl_sp {color: #999999;}
.rZot30QKtMhGP3r5mffl_out {color: #000000;}</style><circle cx="0" cy="0" r="452.4" id="uRfdxfTMsGJApQuxV1i__pad-11"/><circle cx="0" cy="0" r="300" id="c_9p5hJE0gQdEsvt6N-M_pad-1"/><g id="rZot30QKtMhGP3r5mffl_top_solderpaste"><path d="M 0 0 0 68500 69000 68500 69000 0 0 0" fill="none" stroke-width="0"/></g><g id="rZot30QKtMhGP3r5mffl_top_soldermask"><path d="M 34595.9 3877.8 34595.9 3877.8 34599.6 3877.6 34615.6 3879.5 34797 3913.4 34800.5 3914.5 34804.2 3915 34819.5 3919.8 34991.6 3986.5 34994.8 3988.2 34998.4 3989.3 35012.6 3996.9 35169.5 4094.1 35172.3 4096.4 35175.6 4098.1 35188.1 4108.2 35324.5 4232.5 35326.9 4235.3 35329.8 4237.6 35340.3 4249.8 35451.5 4397.1 35453.3 4400.3 35455.8 4403.1 35463.8 4417 35546.1 4582.2 35547.3 4585.7 35549.2 4588.9 35552.3 4597.8 35553.2 4599.6 35553.5 4600.9 35554.6 4604 35605.1 4781.5 35605.6 4785.2 35606.9 4788.6 35609.4 4804.5 35615.7 4873.1 64000 4873.1 64011.8 4874.6 64023.7 4875.3 64027.5 4876.6 64031.6 4877.1 64042.6 4881.4 64053.9 4885.1 64057.4 4887.3 64061.1 4888.8 64070.7 4895.8 64080.8 4902.1 64083.6 4905.1 64086.9 4907.4 64094.5 4916.6 64102.6 4925.3 64104.6 4928.8 64107.1 4931.9 64112.2 4942.7 64118 4953.1 64119 4957.1 64120.7 4960.7 64122.9 4972.4 64125.9 4983.9 64126.3 4990 64126.7 4992 64126.5 4994 64126.9 5000 64126.9 60250 64126.7 60251.7 64126.2 60263.3 64109.8 60419.2 64108.6 60424.3 64108.3 60429.6 64104.3 60445.2 64055.9 60594.3 64053.6 60599 64052.2 60604.1 64045.1 60618.5 63966.7 60754.3 63963.5 60758.5 63961.1 60763.1 63951.1 60775.8 63846.2 60892.3 63842.2 60895.7 63838.9 60899.8 63826.5 60910 63772 60949.6 63699.6 61002.2 63695 61004.7 63690.9 61008 63676.6 61015.5 63533.4 61079.2 63528.4 61080.8 63523.7 61083.1 63508.2 61087.4 63354.8 61120 63349.5 61120.5 63344.5 61121.8 63328.4 61122.8 63171.6 61122.8 63166.4 61122.2 63161.1 61122.4 63145.2 61120 62991.9 61087.4 62986.9 61085.7 62981.7 61084.8 62966.6 61079.2 62823.4 61015.5 62818.9 61012.8 62814 61010.8 62800.4 61002.2 62673.6 60910 62669.7 60906.5 62665.3 60903.5 62653.8 60892.3 62548.9 60775.8 62545.9 60771.5 62542.2 60767.7 62533.3 60754.3 62454.9 60618.5 62452.9 60613.7 62450.1 60609.2 62444.1 60594.3 62395.7 60445.2 62394.7 60440 62392.9 60435.1 62390.2 60419.2 62373.8 60263.3 62373.8 60261.5 62373.1 60250 62373.1 6626.9 59126.9 6626.9 59126.9 60250 59126.7 60251.7 59126.2 60263.3 59109.8 60419.2 59108.6 60424.3 59108.3 60429.6 59104.3 60445.2 59055.9 60594.3 59053.6 60599 59052.2 60604.1 59045.1 60618.5 58966.7 60754.3 58963.5 60758.5 58961.1 60763.1 58951.1 60775.8 58846.2 60892.3 58842.2 60895.7 58838.9 60899.8 58826.5 60910 58772 60949.6 58699.6 61002.2 58695 61004.7 58690.9 61008 58676.6 61015.5 58533.4 61079.2 58528.4 61080.8 58523.7 61083.1 58508.2 61087.4 58354.8 61120 58349.5 61120.5 58344.5 61121.8 58328.4 61122.8 58171.6 61122.8 58166.4 61122.2 58161.1 61122.4 58145.2 61120 57991.9 61087.4 57986.9 61085.7 57981.7 61084.8 57966.6 61079.2 57823.4 61015.5 57818.9 61012.8 57814 61010.8 57800.4 61002.2 57673.6 60910 57669.7 60906.5 57665.3 60903.5 57653.8 60892.3 57548.9 60775.8 57545.9 60771.5 57542.2 60767.7 57533.3 60754.3 57454.9 60618.5 57452.9 60613.7 57450.1 60609.2 57444.1 60594.3 57395.7 60445.2 57394.7 60440 57392.9 60435.1 57390.2 60419.2 57373.8 60263.3 57373.8 60261.5 57373.1 60250 57373.1 6626.9 54126.9 6626.9 54126.9 60250 54126.7 60251.7 54126.2 60263.3 54109.8 60419.2 54108.6 60424.3 54108.3 60429.6 54104.3 60445.2 54055.9 60594.3 54053.6 60599 54052.2 60604.1 54045.1 60618.5 53966.7 60754.3 53963.5 60758.5 53961.1 60763.1 53951.1 60775.8 53846.2 60892.3 53842.2 60895.7 53838.9 60899.8 53826.5 60910 53772 60949.6 53699.6 61002.2 53695 61004.7 53690.9 61008 53676.6 61015.5 53533.4 61079.2 53528.4 61080.8 53523.7 61083.1 53508.2 61087.4 53354.8 61120 53349.5 61120.5 53344.5 61121.8 53328.4 61122.8 53171.6 61122.8 53166.4 61122.2 53161.1 61122.4 53145.2 61120 52991.9 61087.4 52986.9 61085.7 52981.7 61084.8 52966.6 61079.2 52823.4 61015.5 52818.9 61012.8 52814 61010.8 52800.4 61002.2 52673.6 60910 52669.7 60906.5 52665.3 60903.5 52653.8 60892.3 52548.9 60775.8 52545.9 60771.5 52542.2 60767.7 52533.3 60754.3 52454.9 60618.5 52452.9 60613.7 52450.1 60609.2 52444.1 60594.3 52395.7 60445.2 52394.7 60440 52392.9 60435.1 52390.2 60419.2 52373.8 60263.3 52373.8 60261.5 52373.1 60250 52373.1 6626.9 49126.9 6626.9 49126.9 60250 49126.7 60251.7 49126.2 60263.3 49109.8 60419.2 49108.6 60424.3 49108.3 60429.6 49104.3 60445.2 49055.9 60594.3 49053.6 60599 49052.2 60604.1 49045.1 60618.5 48966.7 60754.3 48963.5 60758.5 48961.1 60763.1 48951.1 60775.8 48846.2 60892.3 48842.2 60895.7 48838.9 60899.8 48826.5 60910 48772 60949.6 48699.6 61002.2 48695 61004.7 48690.9 61008 48676.6 61015.5 48533.4 61079.2 48528.4 61080.8 48523.7 61083.1 48508.2 61087.4 48354.8 61120 48349.5 61120.5 48344.5 61121.8 48328.4 61122.8 48171.6 61122.8 48166.4 61122.2 48161.1 61122.4 48145.2 61120 47991.9 61087.4 47986.9 61085.7 47981.7 61084.8 47966.6 61079.2 47823.4 61015.5 47818.9 61012.8 47814 61010.8 47800.4 61002.2 47673.6 60910 47669.7 60906.5 47665.3 60903.5 47653.8 60892.3 47548.9 60775.8 47545.9 60771.5 47542.2 60767.7 47533.3 60754.3 47454.9 60618.5 47452.9 60613.7 47450.1 60609.2 47444.1 60594.3 47395.7 60445.2 47394.7 60440 47392.9 60435.1 47390.2 60419.2 47373.8 60263.3 47373.8 60261.5 47373.1 60250 47373.1 6626.9 44126.9 6626.9 44126.9 60250 44126.7 60251.7 44126.2 60263.3 44109.8 60419.2 44108.6 60424.3 44108.3 60429.6 44104.3 60445.2 44055.9 60594.3 44053.6 60599 44052.2 60604.1 44045.1 60618.5 43966.7 60754.3 43963.5 60758.5 43961.1 60763.1 43951.1 60775.8 43846.2 60892.3 43842.2 60895.7 43838.9 60899.8 43826.5 60910 43772 60949.6 43699.6 61002.2 43695 61004.7 43690.9 61008 43676.6 61015.5 43533.4 61079.2 43528.4 61080.8 43523.7 61083.1 43508.2 61087.4 43354.8 61120 43349.5 61120.5 43344.5 61121.8 43328.4 61122.8 43171.6 61122.8 43166.4 61122.2 43161.1 61122.4 43145.2 61120 42991.9 61087.4 42986.9 61085.7 42981.7 61084.8 42966.6 61079.2 42823.4 61015.5 42818.9 61012.8 42814 61010.8 42800.4 61002.2 42673.6 60910 42669.7 60906.5 42665.3 60903.5 42653.8 60892.3 42548.9 60775.8 42545.9 60771.5 42542.2 60767.7 42533.3 60754.3 42454.9 60618.5 42452.9 60613.7 42450.1 60609.2 42444.1 60594.3 42395.7 60445.2 42394.7 60440 42392.9 60435.1 42390.2 60419.2 42373.8 60263.3 42373.8 60261.5 42373.1 60250 42373.1 6626.9 39126.9 6626.9 39126.9 60250 39126.7 60251.7 39126.2 60263.3 39109.8 60419.2 39108.6 60424.3 39108.3 60429.6 39104.3 60445.2 39055.9 60594.3 39053.6 60599 39052.2 60604.1 39045.1 60618.5 38966.7 60754.3 38963.5 60758.5 38961.1 60763.1 38951.1 60775.8 38846.2 60892.3 38842.2 60895.7 38838.9 60899.8 38826.5 60910 38772 60949.6 38699.6 61002.2 38695 61004.7 38690.9 61008 38676.6 61015.5 38533.4 61079.2 38528.4 61080.8 38523.7 61083.1 38508.2 61087.4 38354.8 61120 38349.5 61120.5 38344.5 61121.8 38328.4 61122.8 38171.6 61122.8 38166.4 61122.2 38161.1 61122.4 38145.2 61120 37991.9 61087.4 37986.9 61085.7 37981.7 61084.8 37966.6 61079.2 37823.4 61015.5 37818.9 61012.8 37814 61010.8 37800.4 61002.2 37673.6 60910 37669.7 60906.5 37665.3 60903.5 37653.8 60892.3 37548.9 60775.8 37545.9 60771.5 37542.2 60767.7 37533.3 60754.3 37454.9 60618.5 37452.9 60613.7 37450.1 60609.2 37444.1 60594.3 37395.7 60445.2 37394.7 60440 37392.9 60435.1 37390.2 60419.2 37373.8 60263.3 37373.8 60261.5 37373.1 60250 37373.1 6626.9 34126.9 6626.9 34126.9 60250 34126.7 60251.7 34126.2 60263.3 34109.8 60419.2 34108.6 60424.3 34108.3 60429.6 34104.3 60445.2 34055.9 60594.3 34053.6 60599 34052.2 60604.1 34045.1 60618.5 33966.7 60754.3 33963.5 60758.5 33961.1 60763.1 33951.1 60775.8 33846.2 60892.3 33842.2 60895.7 33838.9 60899.8 33826.5 60910 33772 60949.6 33699.6 61002.2 33695 61004.7 33690.9 61008 33676.6 61015.5 33533.4 61079.2 33528.4 61080.8 33523.7 61083.1 33508.2 61087.4 33354.8 61120 33349.5 61120.5 33344.5 61121.8 33328.4 61122.8 33171.6 61122.8 33166.4 61122.2 33161.1 61122.4 33145.2 61120 32991.9 61087.4 32986.9 61085.7 32981.7 61084.8 32966.6 61079.2 32823.4 61015.5 32818.9 61012.8 32814 61010.8 32800.4 61002.2 32673.6 60910 32669.7 60906.5 32665.3 60903.5 32653.8 60892.3 32548.9 60775.8 32545.9 60771.5 32542.2 60767.7 32533.3 60754.3 32454.9 60618.5 32452.9 60613.7 32450.1 60609.2 32444.1 60594.3 32395.7 60445.2 32394.7 60440 32392.9 60435.1 32390.2 60419.2 32373.8 60263.3 32373.8 60261.5 32373.1 60250 32373.1 6626.9 29126.9 6626.9 29126.9 60250 29126.7 60251.7 29126.2 60263.3 29109.8 60419.2 29108.6 60424.3 29108.3 60429.6 29104.3 60445.2 29055.9 60594.3 29053.6 60599 29052.2 60604.1 29045.1 60618.5 28966.7 60754.3 28963.5 60758.5 28961.1 60763.1 28951.1 60775.8 28846.2 60892.3 28842.2 60895.7 28838.9 60899.8 28826.5 60910 28772 60949.6 28699.6 61002.2 28695 61004.7 28690.9 61008 28676.6 61015.5 28533.4 61079.2 28528.4 61080.8 28523.7 61083.1 28508.2 61087.4 28354.8 61120 28349.5 61120.5 28344.5 61121.8 28328.4 61122.8 28171.6 61122.8 28166.4 61122.2 28161.1 61122.4 28145.2 61120 27991.9 61087.4 27986.9 61085.7 27981.7 61084.8 27966.6 61079.2 27823.4 61015.5 27818.9 61012.8 27814 61010.8 27800.4 61002.2 27673.6 60910 27669.7 60906.5 27665.3 60903.5 27653.8 60892.3 27548.9 60775.8 27545.9 60771.5 27542.2 60767.7 27533.3 60754.3 27454.9 60618.5 27452.9 60613.7 27450.1 60609.2 27444.1 60594.3 27395.7 60445.2 27394.7 60440 27392.9 60435.1 27390.2 60419.2 27373.8 60263.3 27373.8 60261.5 27373.1 60250 27373.1 6626.9 24126.9 6626.9 24126.9 60250 24126.7 60251.7 24126.2 60263.3 24109.8 60419.2 24108.6 60424.3 24108.3 60429.6 24104.3 60445.2 24055.9 60594.3 24053.6 60599 24052.2 60604.1 24045.1 60618.5 23966.7 60754.3 23963.5 60758.5 23961.1 60763.1 23951.1 60775.8 23846.2 60892.3 23842.2 60895.7 23838.9 60899.8 23826.5 60910 23772 60949.6 23699.6 61002.2 23695 61004.7 23690.9 61008 23676.6 61015.5 23533.4 61079.2 23528.4 61080.8 23523.7 61083.1 23508.2 61087.4 23354.8 61120 23349.5 61120.5 23344.5 61121.8 23328.4 61122.8 23171.6 61122.8 23166.4 61122.2 23161.1 61122.4 23145.2 61120 22991.9 61087.4 22986.9 61085.7 22981.7 61084.8 22966.6 61079.2 22823.4 61015.5 22818.9 61012.8 22814 61010.8 22800.4 61002.2 22673.6 60910 22669.7 60906.5 22665.3 60903.5 22653.8 60892.3 22548.9 60775.8 22545.9 60771.5 22542.2 60767.7 22533.3 60754.3 22454.9 60618.5 22452.9 60613.7 22450.1 60609.2 22444.1 60594.3 22395.7 60445.2 22394.7 60440 22392.9 60435.1 22390.2 60419.2 22373.8 60263.3 22373.8 60261.5 22373.1 60250 22373.1 6626.9 19126.9 6626.9 19126.9 60250 19126.7 60251.7 19126.2 60263.3 19109.8 60419.2 19108.6 60424.3 19108.3 60429.6 19104.3 60445.2 19055.9 60594.3 19053.6 60599 19052.2 60604.1 19045.1 60618.5 18966.7 60754.3 18963.5 60758.5 18961.1 60763.1 18951.1 60775.8 18846.2 60892.3 18842.2 60895.7 18838.9 60899.8 18826.5 60910 18772 60949.6 18699.6 61002.2 18695 61004.7 18690.9 61008 18676.6 61015.5 18533.4 61079.2 18528.4 61080.8 18523.7 61083.1 18508.2 61087.4 18354.8 61120 18349.5 61120.5 18344.5 61121.8 18328.4 61122.8 18171.6 61122.8 18166.4 61122.2 18161.1 61122.4 18145.2 61120 17991.9 61087.4 17986.9 61085.7 17981.7 61084.8 17966.6 61079.2 17823.4 61015.5 17818.9 61012.8 17814 61010.8 17800.4 61002.2 17673.6 60910 17669.7 60906.5 17665.3 60903.5 17653.8 60892.3 17548.9 60775.8 17545.9 60771.5 17542.2 60767.7 17533.3 60754.3 17454.9 60618.5 17452.9 60613.7 17450.1 60609.2 17444.1 60594.3 17395.7 60445.2 17394.7 60440 17392.9 60435.1 17390.2 60419.2 17373.8 60263.3 17373.8 60261.5 17373.1 60250 17373.1 6626.9 14126.9 6626.9 14126.9 60250 14126.7 60251.7 14126.2 60263.3 14109.8 60419.2 14108.6 60424.3 14108.3 60429.6 14104.3 60445.2 14055.9 60594.3 14053.6 60599 14052.2 60604.1 14045.1 60618.5 13966.7 60754.3 13963.5 60758.5 13961.1 60763.1 13951.1 60775.8 13846.2 60892.3 13842.2 60895.7 13838.9 60899.8 13826.5 60910 13772 60949.6 13699.6 61002.2 13695 61004.7 13690.9 61008 13676.6 61015.5 13533.4 61079.2 13528.4 61080.8 13523.7 61083.1 13508.2 61087.4 13354.8 61120 13349.5 61120.5 13344.5 61121.8 13328.4 61122.8 13171.6 61122.8 13166.4 61122.2 13161.1 61122.4 13145.2 61120 12991.9 61087.4 12986.9 61085.7 12981.7 61084.8 12966.6 61079.2 12823.4 61015.5 12818.9 61012.8 12814 61010.8 12800.4 61002.2 12673.6 60910 12669.7 60906.5 12665.3 60903.5 12653.8 60892.3 12548.9 60775.8 12545.9 60771.5 12542.2 60767.7 12533.3 60754.3 12454.9 60618.5 12452.9 60613.7 12450.1 60609.2 12444.1 60594.3 12395.7 60445.2 12394.7 60440 12392.9 60435.1 12390.2 60419.2 12373.8 60263.3 12373.8 60261.5 12373.1 60250 12373.1 6626.9 9126.9 6626.9 9126.9 60250 9126.7 60251.7 9126.2 60263.3 9109.8 60419.2 9108.6 60424.3 9108.3 60429.6 9104.3 60445.2 9055.9 60594.3 9053.6 60599 9052.2 60604.1 9045.1 60618.5 8966.7 60754.3 8963.5 60758.5 8961.1 60763.1 8951.1 60775.8 8846.2 60892.3 8842.2 60895.7 8838.9 60899.8 8826.5 60910 8772 60949.6 8699.6 61002.2 8695 61004.7 8690.9 61008 8676.6 61015.5 8533.4 61079.2 8528.4 61080.8 8523.7 61083.1 8508.2 61087.4 8354.8 61120 8349.5 61120.5 8344.5 61121.8 8328.4 61122.8 8171.6 61122.8 8166.4 61122.2 8161.1 61122.4 8145.2 61120 7991.9 61087.4 7986.9 61085.7 7981.7 61084.8 7966.6 61079.2 7823.4 61015.5 7818.9 61012.8 7814 61010.8 7800.4 61002.2 7673.6 60910 7669.7 60906.5 7665.3 60903.5 7653.8 60892.3 7548.9 60775.8 7545.9 60771.5 7542.2 60767.7 7533.3 60754.3 7454.9 60618.5 7452.9 60613.7 7450.1 60609.2 7444.1 60594.3 7395.7 60445.2 7394.7 60440 7392.9 60435.1 7390.2 60419.2 7373.8 60263.3 7373.8 60261.5 7373.1 60250 7373.1 5000 7374.6 4988.2 7375.3 4976.3 7376.6 4972.5 7377.1 4968.4 7381.4 4957.4 7385.1 4946.1 7387.3 4942.6 7388.8 4938.9 7395.8 4929.3 7402.1 4919.2 7405.1 4916.4 7407.4 4913.1 7416.6 4905.6 7425.3 4897.4 7428.8 4895.4 7431.9 4892.9 7442.7 4887.8 7453.1 4882 7457.1 4881 7460.7 4879.3 7472.4 4877.1 7483.9 4874.1 7490 4873.7 7492 4873.3 7494 4873.5 7500 4873.1 33384.3 4873.1 33390.6 4804.5 33391.4 4800.9 33391.5 4797.3 33394.9 4781.5 33445.4 4604 33446.9 4600.6 33447.7 4597 33452.1 4586.4 33452.6 4584.9 33453 4584.3 33453.9 4582.2 33536.2 4417 33538.2 4413.9 33539.6 4410.5 33548.5 4397.1 33659.7 4249.8 33662.3 4247.2 33664.3 4244.1 33675.5 4232.5 33811.9 4108.2 33814.9 4106.1 33817.4 4103.4 33830.6 4094.1 33987.4 3996.9 33990.8 3995.4 33993.8 3993.2 34008.4 3986.5 34180.5 3919.8 34184.1 3918.9 34187.4 3917.4 34203 3913.4 34384.4 3879.5 34388.1 3879.3 34391.7 3878.4 34407.7 3877.3 34592.3 3877.3 34595.9 3877.8"/><path d="M 5833.6 7377.8 5833.6 7377.8 5838.9 7377.6 5854.8 7380 6008.2 7412.6 6013.1 7414.3 6018.3 7415.2 6033.4 7420.8 6176.6 7484.5 6181.1 7487.2 6186 7489.2 6199.6 7497.8 6326.5 7590 6330.3 7593.6 6334.7 7596.5 6346.2 7607.7 6451.1 7724.2 6454.1 7728.6 6457.8 7732.3 6466.7 7745.7 6545.1 7881.5 6547.1 7886.3 6549.9 7890.8 6555.9 7905.7 6604.3 8054.8 6605.3 8060 6607.1 8064.9 6609.8 8080.8 6626.2 8236.7 6626.2 8238.5 6626.9 8250 6626.9 61873.1 9873.1 61873.1 9873.1 8250 9873.3 8248.3 9873.8 8236.7 9890.2 8080.8 9891.4 8075.7 9891.7 8070.4 9895.7 8054.8 9944.1 7905.7 9946.4 7901 9947.8 7895.9 9954.9 7881.5 10033.3 7745.7 10036.5 7741.5 10038.9 7736.9 10048.9 7724.2 10153.8 7607.7 10157.8 7604.3 10161.2 7600.2 10173.6 7590 10300.4 7497.8 10305 7495.3 10309.1 7492 10323.4 7484.5 10466.6 7420.8 10471.6 7419.2 10476.3 7416.9 10491.9 7412.6 10645.2 7380 10650.5 7379.5 10655.5 7378.2 10671.6 7377.2 10828.4 7377.2 10833.6 7377.8 10838.9 7377.6 10854.8 7380 11008.2 7412.6 11013.1 7414.3 11018.3 7415.2 11033.4 7420.8 11176.6 7484.5 11181.1 7487.2 11186 7489.2 11199.6 7497.8 11326.5 7590 11330.3 7593.6 11334.7 7596.5 11346.2 7607.7 11451.1 7724.2 11454.1 7728.6 11457.8 7732.3 11466.7 7745.7 11545.1 7881.5 11547.1 7886.3 11549.9 7890.8 11555.9 7905.7 11604.3 8054.8 11605.3 8060 11607.1 8064.9 11609.8 8080.8 11626.2 8236.7 11626.2 8238.5 11626.9 8250 11626.9 61873.1 14873.1 61873.1 14873.1 8250 14873.3 8248.3 14873.8 8236.7 14890.2 8080.8 14891.4 8075.7 14891.7 8070.4 14895.7 8054.8 14944.1 7905.7 14946.4 7901 14947.8 7895.9 14954.9 7881.5 15033.3 7745.7 15036.5 7741.5 15038.9 7736.9 15048.9 7724.2 15153.8 7607.7 15157.8 7604.3 15161.2 7600.2 15173.6 7590 15300.4 7497.8 15305 7495.3 15309.1 7492 15323.4 7484.5 15466.6 7420.8 15471.6 7419.2 15476.3 7416.9 15491.9 7412.6 15645.2 7380 15650.5 7379.5 15655.5 7378.2 15671.6 7377.2 15828.4 7377.2 15833.6 7377.8 15838.9 7377.6 15854.8 7380 16008.2 7412.6 16013.1 7414.3 16018.3 7415.2 16033.4 7420.8 16176.6 7484.5 16181.1 7487.2 16186 7489.2 16199.6 7497.8 16326.5 7590 16330.3 7593.6 16334.7 7596.5 16346.2 7607.7 16451.1 7724.2 16454.1 7728.6 16457.8 7732.3 16466.7 7745.7 16545.1 7881.5 16547.1 7886.3 16549.9 7890.8 16555.9 7905.7 16604.3 8054.8 16605.3 8060 16607.1 8064.9 16609.8 8080.8 16626.2 8236.7 16626.2 8238.5 16626.9 8250 16626.9 61873.1 19873.1 61873.1 19873.1 8250 19873.3 8248.3 19873.8 8236.7 19890.2 8080.8 19891.4 8075.7 19891.7 8070.4 19895.7 8054.8 19944.1 7905.7 19946.4 7901 19947.8 7895.9 19954.9 7881.5 20033.3 7745.7 20036.5 7741.5 20038.9 7736.9 20048.9 7724.2 20153.8 7607.7 20157.8 7604.3 20161.2 7600.2 20173.6 7590 20300.4 7497.8 20305 7495.3 20309.1 7492 20323.4 7484.5 20466.6 7420.8 20471.6 7419.2 20476.3 7416.9 20491.9 7412.6 20645.2 7380 20650.5 7379.5 20655.5 7378.2 20671.6 7377.2 20828.4 7377.2 20833.6 7377.8 20838.9 7377.6 20854.8 7380 21008.2 7412.6 21013.1 7414.3 21018.3 7415.2 21033.4 7420.8 21176.6 7484.5 21181.1 7487.2 21186 7489.2 21199.6 7497.8 21326.5 7590 21330.3 7593.6 21334.7 7596.5 21346.2 7607.7 21451.1 7724.2 21454.1 7728.6 21457.8 7732.3 21466.7 7745.7 21545.1 7881.5 21547.1 7886.3 21549.9 7890.8 21555.9 7905.7 21604.3 8054.8 21605.3 8060 21607.1 8064.9 21609.8 8080.8 21626.2 8236.7 21626.2 8238.5 21626.9 8250 21626.9 61873.1 24873.1 61873.1 24873.1 8250 24873.3 8248.3 24873.8 8236.7 24890.2 8080.8 24891.4 8075.7 24891.7 8070.4 24895.7 8054.8 24944.1 7905.7 24946.4 7901 24947.8 7895.9 24954.9 7881.5 25033.3 7745.7 25036.5 7741.5 25038.9 7736.9 25048.9 7724.2 25153.8 7607.7 25157.8 7604.3 25161.2 7600.2 25173.6 7590 25300.4 7497.8 25305 7495.3 25309.1 7492 25323.4 7484.5 25466.6 7420.8 25471.6 7419.2 25476.3 7416.9 25491.9 7412.6 25645.2 7380 25650.5 7379.5 25655.5 7378.2 25671.6 7377.2 25828.4 7377.2 25833.6 7377.8 25838.9 7377.6 25854.8 7380 26008.2 7412.6 26013.1 7414.3 26018.3 7415.2 26033.4 7420.8 26176.6 7484.5 26181.1 7487.2 26186 7489.2 26199.6 7497.8 26326.5 7590 26330.3 7593.6 26334.7 7596.5 26346.2 7607.7 26451.1 7724.2 26454.1 7728.6 26457.8 7732.3 26466.7 7745.7 26545.1 7881.5 26547.1 7886.3 26549.9 7890.8 26555.9 7905.7 26604.3 8054.8 26605.3 8060 26607.1 8064.9 26609.8 8080.8 26626.2 8236.7 26626.2 8238.5 26626.9 8250 26626.9 61873.1 29873.1 61873.1 29873.1 8250 29873.3 8248.3 29873.8 8236.7 29890.2 8080.8 29891.4 8075.7 29891.7 8070.4 29895.7 8054.8 29944.1 7905.7 29946.4 7901 29947.8 7895.9 29954.9 7881.5 30033.3 7745.7 30036.5 7741.5 30038.9 7736.9 30048.9 7724.2 30153.8 7607.7 30157.8 7604.3 30161.2 7600.2 30173.6 7590 30300.4 7497.8 30305 7495.3 30309.1 7492 30323.4 7484.5 30466.6 7420.8 30471.6 7419.2 30476.3 7416.9 30491.9 7412.6 30645.2 7380 30650.5 7379.5 30655.5 7378.2 30671.6 7377.2 30828.4 7377.2 30833.6 7377.8 30838.9 7377.6 30854.8 7380 31008.2 7412.6 31013.1 7414.3 31018.3 7415.2 31033.4 7420.8 31176.6 7484.5 31181.1 7487.2 31186 7489.2 31199.6 7497.8 31326.5 7590 31330.3 7593.6 31334.7 7596.5 31346.2 7607.7 31451.1 7724.2 31454.1 7728.6 31457.8 7732.3 31466.7 7745.7 31545.1 7881.5 31547.1 7886.3 31549.9 7890.8 31555.9 7905.7 31604.3 8054.8 31605.3 8060 31607.1 8064.9 31609.8 8080.8 31626.2 8236.7 31626.2 8238.5 31626.9 8250 31626.9 61873.1 34873.1 61873.1 34873.1 8250 34873.3 8248.3 34873.8 8236.7 34890.2 8080.8 34891.4 8075.7 34891.7 8070.4 34895.7 8054.8 34944.1 7905.7 34946.4 7901 34947.8 7895.9 34954.9 7881.5 35033.3 7745.7 35036.5 7741.5 35038.9 7736.9 35048.9 7724.2 35153.8 7607.7 35157.8 7604.3 35161.2 7600.2 35173.6 7590 35300.4 7497.8 35305 7495.3 35309.1 7492 35323.4 7484.5 35466.6 7420.8 35471.6 7419.2 35476.3 7416.9 35491.9 7412.6 35645.2 7380 35650.5 7379.5 35655.5 7378.2 35671.6 7377.2 35828.4 7377.2 35833.6 7377.8 35838.9 7377.6 35854.8 7380 36008.2 7412.6 36013.1 7414.3 36018.3 7415.2 36033.4 7420.8 36176.6 7484.5 36181.1 7487.2 36186 7489.2 36199.6 7497.8 36326.5 7590 36330.3 7593.6 36334.7 7596.5 36346.2 7607.7 36451.1 7724.2 36454.1 7728.6 36457.8 7732.3 36466.7 7745.7 36545.1 7881.5 36547.1 7886.3 36549.9 7890.8 36555.9 7905.7 36604.3 8054.8 36605.3 8060 36607.1 8064.9 36609.8 8080.8 36626.2 8236.7 36626.2 8238.5 36626.9 8250 36626.9 61873.1 39873.1 61873.1 39873.1 8250 39873.3 8248.3 39873.8 8236.7 39890.2 8080.8 39891.4 8075.7 39891.7 8070.4 39895.7 8054.8 39944.1 7905.7 39946.4 7901 39947.8 7895.9 39954.9 7881.5 40033.3 7745.7 40036.5 7741.5 40038.9 7736.9 40048.9 7724.2 40153.8 7607.7 40157.8 7604.3 40161.2 7600.2 40173.6 7590 40300.4 7497.8 40305 7495.3 40309.1 7492 40323.4 7484.5 40466.6 7420.8 40471.6 7419.2 40476.3 7416.9 40491.9 7412.6 40645.2 7380 40650.5 7379.5 40655.5 7378.2 40671.6 7377.2 40828.4 7377.2 40833.6 7377.8 40838.9 7377.6 40854.8 7380 41008.2 7412.6 41013.1 7414.3 41018.3 7415.2 41033.4 7420.8 41176.6 7484.5 41181.1 7487.2 41186 7489.2 41199.6 7497.8 41326.5 7590 41330.3 7593.6 41334.7 7596.5 41346.2 7607.7 41451.1 7724.2 41454.1 7728.6 41457.8 7732.3 41466.7 7745.7 41545.1 7881.5 41547.1 7886.3 41549.9 7890.8 41555.9 7905.7 41604.3 8054.8 41605.3 8060 41607.1 8064.9 41609.8 8080.8 41626.2 8236.7 41626.2 8238.5 41626.9 8250 41626.9 61873.1 44873.1 61873.1 44873.1 8250 44873.3 8248.3 44873.8 8236.7 44890.2 8080.8 44891.4 8075.7 44891.7 8070.4 44895.7 8054.8 44944.1 7905.7 44946.4 7901 44947.8 7895.9 44954.9 7881.5 45033.3 7745.7 45036.5 7741.5 45038.9 7736.9 45048.9 7724.2 45153.8 7607.7 45157.8 7604.3 45161.2 7600.2 45173.6 7590 45300.4 7497.8 45305 7495.3 45309.1 7492 45323.4 7484.5 45466.6 7420.8 45471.6 7419.2 45476.3 7416.9 45491.9 7412.6 45645.2 7380 45650.5 7379.5 45655.5 7378.2 45671.6 7377.2 45828.4 7377.2 45833.6 7377.8 45838.9 7377.6 45854.8 7380 46008.2 7412.6 46013.1 7414.3 46018.3 7415.2 46033.4 7420.8 46176.6 7484.5 46181.1 7487.2 46186 7489.2 46199.6 7497.8 46326.5 7590 46330.3 7593.6 46334.7 7596.5 46346.2 7607.7 46451.1 7724.2 46454.1 7728.6 46457.8 7732.3 46466.7 7745.7 46545.1 7881.5 46547.1 7886.3 46549.9 7890.8 46555.9 7905.7 46604.3 8054.8 46605.3 8060 46607.1 8064.9 46609.8 8080.8 46626.2 8236.7 46626.2 8238.5 46626.9 8250 46626.9 61873.1 49873.1 61873.1 49873.1 8250 49873.3 8248.3 49873.8 8236.7 49890.2 8080.8 49891.4 8075.7 49891.7 8070.4 49895.7 8054.8 49944.1 7905.7 49946.4 7901 49947.8 7895.9 49954.9 7881.5 50033.3 7745.7 50036.5 7741.5 50038.9 7736.9 50048.9 7724.2 50153.8 7607.7 50157.8 7604.3 50161.2 7600.2 50173.6 7590 50300.4 7497.8 50305 7495.3 50309.1 7492 50323.4 7484.5 50466.6 7420.8 50471.6 7419.2 50476.3 7416.9 50491.9 7412.6 50645.2 7380 50650.5 7379.5 50655.5 7378.2 50671.6 7377.2 50828.4 7377.2 50833.6 7377.8 50838.9 7377.6 50854.8 7380 51008.2 7412.6 51013.1 7414.3 51018.3 7415.2 51033.4 7420.8 51176.6 7484.5 51181.1 7487.2 51186 7489.2 51199.6 7497.8 51326.5 7590 51330.3 7593.6 51334.7 7596.5 51346.2 7607.7 51451.1 7724.2 51454.1 7728.6 51457.8 7732.3 51466.7 7745.7 51545.1 7881.5 51547.1 7886.3 51549.9 7890.8 51555.9 7905.7 51604.3 8054.8 51605.3 8060 51607.1 8064.9 51609.8 8080.8 51626.2 8236.7 51626.2 8238.5 51626.9 8250 51626.9 61873.1 54873.1 61873.1 54873.1 8250 54873.3 8248.3 54873.8 8236.7 54890.2 8080.8 54891.4 8075.7 54891.7 8070.4 54895.7 8054.8 54944.1 7905.7 54946.4 7901 54947.8 7895.9 54954.9 7881.5 55033.3 7745.7 55036.5 7741.5 55038.9 7736.9 55048.9 7724.2 55153.8 7607.7 55157.8 7604.3 55161.2 7600.2 55173.6 7590 55300.4 7497.8 55305 7495.3 55309.1 7492 55323.4 7484.5 55466.6 7420.8 55471.6 7419.2 55476.3 7416.9 55491.9 7412.6 55645.2 7380 55650.5 7379.5 55655.5 7378.2 55671.6 7377.2 55828.4 7377.2 55833.6 7377.8 55838.9 7377.6 55854.8 7380 56008.2 7412.6 56013.1 7414.3 56018.3 7415.2 56033.4 7420.8 56176.6 7484.5 56181.1 7487.2 56186 7489.2 56199.6 7497.8 56326.5 7590 56330.3 7593.6 56334.7 7596.5 56346.2 7607.7 56451.1 7724.2 56454.1 7728.6 56457.8 7732.3 56466.7 7745.7 56545.1 7881.5 56547.1 7886.3 56549.9 7890.8 56555.9 7905.7 56604.3 8054.8 56605.3 8060 56607.1 8064.9 56609.8 8080.8 56626.2 8236.7 56626.2 8238.5 56626.9 8250 56626.9 61873.1 59873.1 61873.1 59873.1 8250 59873.3 8248.3 59873.8 8236.7 59890.2 8080.8 59891.4 8075.7 59891.7 8070.4 59895.7 8054.8 59944.1 7905.7 59946.4 7901 59947.8 7895.9 59954.9 7881.5 60033.3 7745.7 60036.5 7741.5 60038.9 7736.9 60048.9 7724.2 60153.8 7607.7 60157.8 7604.3 60161.2 7600.2 60173.6 7590 60300.4 7497.8 60305 7495.3 60309.1 7492 60323.4 7484.5 60466.6 7420.8 60471.6 7419.2 60476.3 7416.9 60491.9 7412.6 60645.2 7380 60650.5 7379.5 60655.5 7378.2 60671.6 7377.2 60828.4 7377.2 60833.6 7377.8 60838.9 7377.6 60854.8 7380 61008.2 7412.6 61013.1 7414.3 61018.3 7415.2 61033.4 7420.8 61176.6 7484.5 61181.1 7487.2 61186 7489.2 61199.6 7497.8 61326.5 7590 61330.3 7593.6 61334.7 7596.5 61346.2 7607.7 61451.1 7724.2 61454.1 7728.6 61457.8 7732.3 61466.7 7745.7 61545.1 7881.5 61547.1 7886.3 61549.9 7890.8 61555.9 7905.7 61604.3 8054.8 61605.3 8060 61607.1 8064.9 61609.8 8080.8 61626.2 8236.7 61626.2 8238.5 61626.9 8250 61626.9 63500 61625.4 63511.8 61624.7 63523.7 61623.4 63527.5 61622.9 63531.6 61618.6 63542.6 61614.9 63553.9 61612.7 63557.4 61611.2 63561.1 61604.3 63570.7 61597.9 63580.8 61594.9 63583.6 61592.6 63586.9 61583.4 63594.5 61574.7 63602.6 61571.2 63604.6 61568.1 63607.1 61557.3 63612.2 61546.9 63618 61542.9 63619 61539.3 63620.7 61527.6 63622.9 61516.1 63625.9 61510.1 63626.3 61508.1 63626.7 61506 63626.5 61500 63626.9 35615.7 63626.9 35609.4 63695.5 35608.6 63699.1 35608.5 63702.8 35605.1 63718.5 35554.6 63896 35553.1 63899.4 35552.3 63903 35546.1 63917.8 35463.8 64083 35461.8 64086.1 35460.4 64089.5 35451.5 64102.9 35340.3 64250.2 35337.7 64252.8 35335.7 64255.9 35324.5 64267.5 35188.1 64391.8 35185.1 64393.9 35182.6 64396.6 35169.5 64405.9 35012.6 64503.1 35009.2 64504.6 35006.2 64506.8 34991.6 64513.5 34819.5 64580.2 34815.9 64581.1 34812.6 64582.6 34797 64586.6 34615.6 64620.5 34611.9 64620.7 34608.3 64621.6 34592.3 64622.7 34407.7 64622.7 34404.1 64622.2 34400.4 64622.4 34384.4 64620.5 34203 64586.6 34199.5 64585.5 34195.8 64585 34180.5 64580.2 34008.4 64513.5 34005.2 64511.8 34001.6 64510.7 33987.4 64503.1 33830.6 64405.9 33827.7 64403.6 33824.4 64401.9 33811.9 64391.8 33675.5 64267.5 33673.1 64264.7 33670.2 64262.4 33659.7 64250.2 33548.5 64102.9 33546.7 64099.7 33544.2 64096.9 33543.4 64095.5 33543.4 64095.4 33543.3 64095.3 33536.2 64083 33453.9 63917.8 33452.7 63914.3 33450.8 63911.2 33445.4 63896 33394.9 63718.5 33394.4 63714.8 33393.1 63711.4 33390.6 63695.5 33384.3 63626.9 5000 63626.9 4988.2 63625.4 4976.3 63624.7 4972.5 63623.4 4968.4 63622.9 4957.4 63618.6 4946.1 63614.9 4942.6 63612.7 4938.9 63611.2 4929.3 63604.3 4919.2 63597.9 4916.4 63594.9 4913.1 63592.6 4905.6 63583.4 4897.4 63574.7 4895.4 63571.2 4892.9 63568.1 4887.8 63557.3 4882 63546.9 4881 63542.9 4879.3 63539.3 4877.1 63527.6 4874.1 63516.1 4873.7 63510.1 4873.3 63508.1 4873.5 63506 4873.1 63500 4873.1 8250 4873.3 8248.3 4873.8 8236.7 4890.2 8080.8 4891.4 8075.7 4891.7 8070.4 4895.7 8054.8 4944.1 7905.7 4946.4 7901 4947.8 7895.9 4954.9 7881.5 5033.3 7745.7 5036.5 7741.5 5038.9 7736.9 5048.9 7724.2 5153.8 7607.7 5157.8 7604.3 5161.2 7600.2 5173.6 7590 5300.4 7497.8 5305 7495.3 5309.1 7492 5323.4 7484.5 5466.6 7420.8 5471.6 7419.2 5476.3 7416.9 5491.9 7412.6 5645.2 7380 5650.5 7379.5 5655.5 7378.2 5671.6 7377.2 5828.4 7377.2 5833.6 7377.8"/><path d="M 0 0 0 68500 69000 68500 69000 0 0 0" fill="none" stroke-width="0"/></g><g id="rZot30QKtMhGP3r5mffl_top_copper"><path d="M 34595.9 3877.8 34595.9 3877.8 34599.6 3877.6 34615.6 3879.5 34797 3913.4 34800.5 3914.5 34804.2 3915 34819.5 3919.8 34991.6 3986.5 34994.8 3988.2 34998.4 3989.3 35012.6 3996.9 35169.5 4094.1 35172.3 4096.4 35175.6 4098.1 35188.1 4108.2 35324.5 4232.5 35326.9 4235.3 35329.8 4237.6 35340.3 4249.8 35451.5 4397.1 35453.3 4400.3 35455.8 4403.1 35463.8 4417 35546.1 4582.2 35547.3 4585.7 35549.2 4588.9 35552.3 4597.8 35553.2 4599.6 35553.5 4600.9 35554.6 4604 35605.1 4781.5 35605.6 4785.2 35606.9 4788.6 35609.4 4804.5 35615.7 4873.1 64000 4873.1 64011.8 4874.6 64023.7 4875.3 64027.5 4876.6 64031.6 4877.1 64042.6 4881.4 64053.9 4885.1 64057.4 4887.3 64061.1 4888.8 64070.7 4895.8 64080.8 4902.1 64083.6 4905.1 64086.9 4907.4 64094.5 4916.6 64102.6 4925.3 64104.6 4928.8 64107.1 4931.9 64112.2 4942.7 64118 4953.1 64119 4957.1 64120.7 4960.7 64122.9 4972.4 64125.9 4983.9 64126.3 4990 64126.7 4992 64126.5 4994 64126.9 5000 64126.9 60250 64126.7 60251.7 64126.2 60263.3 64109.8 60419.2 64108.6 60424.3 64108.3 60429.6 64104.3 60445.2 64055.9 60594.3 64053.6 60599 64052.2 60604.1 64045.1 60618.5 63966.7 60754.3 63963.5 60758.5 63961.1 60763.1 63951.1 60775.8 63846.2 60892.3 63842.2 60895.7 63838.9 60899.8 63826.5 60910 63699.6 61002.2 63695 61004.7 63690.9 61008 63676.6 61015.5 63533.4 61079.2 63528.4 61080.8 63523.7 61083.1 63508.2 61087.4 63354.8 61120 63349.5 61120.5 63344.5 61121.8 63328.4 61122.8 63171.6 61122.8 63166.4 61122.2 63161.1 61122.4 63145.2 61120 62991.9 61087.4 62986.9 61085.7 62981.7 61084.8 62966.6 61079.2 62823.4 61015.5 62818.9 61012.8 62814 61010.8 62800.4 61002.2 62673.6 60910 62669.7 60906.5 62665.3 60903.5 62653.8 60892.3 62548.9 60775.8 62545.9 60771.5 62542.2 60767.7 62533.3 60754.3 62454.9 60618.5 62452.9 60613.7 62450.1 60609.2 62444.1 60594.3 62395.7 60445.2 62394.7 60440 62392.9 60435.1 62390.2 60419.2 62373.8 60263.3 62373.8 60261.5 62373.1 60250 62373.1 6626.9 59126.9 6626.9 59126.9 60250 59126.7 60251.7 59126.2 60263.3 59109.8 60419.2 59108.6 60424.3 59108.3 60429.6 59104.3 60445.2 59055.9 60594.3 59053.6 60599 59052.2 60604.1 59045.1 60618.5 58966.7 60754.3 58963.5 60758.5 58961.1 60763.1 58951.1 60775.8 58846.2 60892.3 58842.2 60895.7 58838.9 60899.8 58826.5 60910 58699.6 61002.2 58695 61004.7 58690.9 61008 58676.6 61015.5 58533.4 61079.2 58528.4 61080.8 58523.7 61083.1 58508.2 61087.4 58354.8 61120 58349.5 61120.5 58344.5 61121.8 58328.4 61122.8 58171.6 61122.8 58166.4 61122.2 58161.1 61122.4 58145.2 61120 57991.9 61087.4 57986.9 61085.7 57981.7 61084.8 57966.6 61079.2 57823.4 61015.5 57818.9 61012.8 57814 61010.8 57800.4 61002.2 57673.6 60910 57669.7 60906.5 57665.3 60903.5 57653.8 60892.3 57548.9 60775.8 57545.9 60771.5 57542.2 60767.7 57533.3 60754.3 57454.9 60618.5 57452.9 60613.7 57450.1 60609.2 57444.1 60594.3 57395.7 60445.2 57394.7 60440 57392.9 60435.1 57390.2 60419.2 57373.8 60263.3 57373.8 60261.5 57373.1 60250 57373.1 6626.9 54126.9 6626.9 54126.9 60250 54126.7 60251.7 54126.2 60263.3 54109.8 60419.2 54108.6 60424.3 54108.3 60429.6 54104.3 60445.2 54055.9 60594.3 54053.6 60599 54052.2 60604.1 54045.1 60618.5 53966.7 60754.3 53963.5 60758.5 53961.1 60763.1 53951.1 60775.8 53846.2 60892.3 53842.2 60895.7 53838.9 60899.8 53826.5 60910 53699.6 61002.2 53695 61004.7 53690.9 61008 53676.6 61015.5 53533.4 61079.2 53528.4 61080.8 53523.7 61083.1 53508.2 61087.4 53354.8 61120 53349.5 61120.5 53344.5 61121.8 53328.4 61122.8 53171.6 61122.8 53166.4 61122.2 53161.1 61122.4 53145.2 61120 52991.9 61087.4 52986.9 61085.7 52981.7 61084.8 52966.6 61079.2 52823.4 61015.5 52818.9 61012.8 52814 61010.8 52800.4 61002.2 52673.6 60910 52669.7 60906.5 52665.3 60903.5 52653.8 60892.3 52548.9 60775.8 52545.9 60771.5 52542.2 60767.7 52533.3 60754.3 52454.9 60618.5 52452.9 60613.7 52450.1 60609.2 52444.1 60594.3 52395.7 60445.2 52394.7 60440 52392.9 60435.1 52390.2 60419.2 52373.8 60263.3 52373.8 60261.5 52373.1 60250 52373.1 6626.9 49126.9 6626.9 49126.9 60250 49126.7 60251.7 49126.2 60263.3 49109.8 60419.2 49108.6 60424.3 49108.3 60429.6 49104.3 60445.2 49055.9 60594.3 49053.6 60599 49052.2 60604.1 49045.1 60618.5 48966.7 60754.3 48963.5 60758.5 48961.1 60763.1 48951.1 60775.8 48846.2 60892.3 48842.2 60895.7 48838.9 60899.8 48826.5 60910 48699.6 61002.2 48695 61004.7 48690.9 61008 48676.6 61015.5 48533.4 61079.2 48528.4 61080.8 48523.7 61083.1 48508.2 61087.4 48354.8 61120 48349.5 61120.5 48344.5 61121.8 48328.4 61122.8 48171.6 61122.8 48166.4 61122.2 48161.1 61122.4 48145.2 61120 47991.9 61087.4 47986.9 61085.7 47981.7 61084.8 47966.6 61079.2 47823.4 61015.5 47818.9 61012.8 47814 61010.8 47800.4 61002.2 47673.6 60910 47669.7 60906.5 47665.3 60903.5 47653.8 60892.3 47548.9 60775.8 47545.9 60771.5 47542.2 60767.7 47533.3 60754.3 47454.9 60618.5 47452.9 60613.7 47450.1 60609.2 47444.1 60594.3 47395.7 60445.2 47394.7 60440 47392.9 60435.1 47390.2 60419.2 47373.8 60263.3 47373.8 60261.5 47373.1 60250 47373.1 6626.9 44126.9 6626.9 44126.9 60250 44126.7 60251.7 44126.2 60263.3 44109.8 60419.2 44108.6 60424.3 44108.3 60429.6 44104.3 60445.2 44055.9 60594.3 44053.6 60599 44052.2 60604.1 44045.1 60618.5 43966.7 60754.3 43963.5 60758.5 43961.1 60763.1 43951.1 60775.8 43846.2 60892.3 43842.2 60895.7 43838.9 60899.8 43826.5 60910 43699.6 61002.2 43695 61004.7 43690.9 61008 43676.6 61015.5 43533.4 61079.2 43528.4 61080.8 43523.7 61083.1 43508.2 61087.4 43354.8 61120 43349.5 61120.5 43344.5 61121.8 43328.4 61122.8 43171.6 61122.8 43166.4 61122.2 43161.1 61122.4 43145.2 61120 42991.9 61087.4 42986.9 61085.7 42981.7 61084.8 42966.6 61079.2 42823.4 61015.5 42818.9 61012.8 42814 61010.8 42800.4 61002.2 42673.6 60910 42669.7 60906.5 42665.3 60903.5 42653.8 60892.3 42548.9 60775.8 42545.9 60771.5 42542.2 60767.7 42533.3 60754.3 42454.9 60618.5 42452.9 60613.7 42450.1 60609.2 42444.1 60594.3 42395.7 60445.2 42394.7 60440 42392.9 60435.1 42390.2 60419.2 42373.8 60263.3 42373.8 60261.5 42373.1 60250 42373.1 6626.9 39126.9 6626.9 39126.9 60250 39126.7 60251.7 39126.2 60263.3 39109.8 60419.2 39108.6 60424.3 39108.3 60429.6 39104.3 60445.2 39055.9 60594.3 39053.6 60599 39052.2 60604.1 39045.1 60618.5 38966.7 60754.3 38963.5 60758.5 38961.1 60763.1 38951.1 60775.8 38846.2 60892.3 38842.2 60895.7 38838.9 60899.8 38826.5 60910 38699.6 61002.2 38695 61004.7 38690.9 61008 38676.6 61015.5 38533.4 61079.2 38528.4 61080.8 38523.7 61083.1 38508.2 61087.4 38354.8 61120 38349.5 61120.5 38344.5 61121.8 38328.4 61122.8 38171.6 61122.8 38166.4 61122.2 38161.1 61122.4 38145.2 61120 37991.9 61087.4 37986.9 61085.7 37981.7 61084.8 37966.6 61079.2 37823.4 61015.5 37818.9 61012.8 37814 61010.8 37800.4 61002.2 37673.6 60910 37669.7 60906.5 37665.3 60903.5 37653.8 60892.3 37548.9 60775.8 37545.9 60771.5 37542.2 60767.7 37533.3 60754.3 37454.9 60618.5 37452.9 60613.7 37450.1 60609.2 37444.1 60594.3 37395.7 60445.2 37394.7 60440 37392.9 60435.1 37390.2 60419.2 37373.8 60263.3 37373.8 60261.5 37373.1 60250 37373.1 6626.9 34126.9 6626.9 34126.9 60250 34126.7 60251.7 34126.2 60263.3 34109.8 60419.2 34108.6 60424.3 34108.3 60429.6 34104.3 60445.2 34055.9 60594.3 34053.6 60599 34052.2 60604.1 34045.1 60618.5 33966.7 60754.3 33963.5 60758.5 33961.1 60763.1 33951.1 60775.8 33846.2 60892.3 33842.2 60895.7 33838.9 60899.8 33826.5 60910 33699.6 61002.2 33695 61004.7 33690.9 61008 33676.6 61015.5 33533.4 61079.2 33528.4 61080.8 33523.7 61083.1 33508.2 61087.4 33354.8 61120 33349.5 61120.5 33344.5 61121.8 33328.4 61122.8 33171.6 61122.8 33166.4 61122.2 33161.1 61122.4 33145.2 61120 32991.9 61087.4 32986.9 61085.7 32981.7 61084.8 32966.6 61079.2 32823.4 61015.5 32818.9 61012.8 32814 61010.8 32800.4 61002.2 32673.6 60910 32669.7 60906.5 32665.3 60903.5 32653.8 60892.3 32548.9 60775.8 32545.9 60771.5 32542.2 60767.7 32533.3 60754.3 32454.9 60618.5 32452.9 60613.7 32450.1 60609.2 32444.1 60594.3 32395.7 60445.2 32394.7 60440 32392.9 60435.1 32390.2 60419.2 32373.8 60263.3 32373.8 60261.5 32373.1 60250 32373.1 6626.9 29126.9 6626.9 29126.9 60250 29126.7 60251.7 29126.2 60263.3 29109.8 60419.2 29108.6 60424.3 29108.3 60429.6 29104.3 60445.2 29055.9 60594.3 29053.6 60599 29052.2 60604.1 29045.1 60618.5 28966.7 60754.3 28963.5 60758.5 28961.1 60763.1 28951.1 60775.8 28846.2 60892.3 28842.2 60895.7 28838.9 60899.8 28826.5 60910 28699.6 61002.2 28695 61004.7 28690.9 61008 28676.6 61015.5 28533.4 61079.2 28528.4 61080.8 28523.7 61083.1 28508.2 61087.4 28354.8 61120 28349.5 61120.5 28344.5 61121.8 28328.4 61122.8 28171.6 61122.8 28166.4 61122.2 28161.1 61122.4 28145.2 61120 27991.9 61087.4 27986.9 61085.7 27981.7 61084.8 27966.6 61079.2 27823.4 61015.5 27818.9 61012.8 27814 61010.8 27800.4 61002.2 27673.6 60910 27669.7 60906.5 27665.3 60903.5 27653.8 60892.3 27548.9 60775.8 27545.9 60771.5 27542.2 60767.7 27533.3 60754.3 27454.9 60618.5 27452.9 60613.7 27450.1 60609.2 27444.1 60594.3 27395.7 60445.2 27394.7 60440 27392.9 60435.1 27390.2 60419.2 27373.8 60263.3 27373.8 60261.5 27373.1 60250 27373.1 6626.9 24126.9 6626.9 24126.9 60250 24126.7 60251.7 24126.2 60263.3 24109.8 60419.2 24108.6 60424.3 24108.3 60429.6 24104.3 60445.2 24055.9 60594.3 24053.6 60599 24052.2 60604.1 24045.1 60618.5 23966.7 60754.3 23963.5 60758.5 23961.1 60763.1 23951.1 60775.8 23846.2 60892.3 23842.2 60895.7 23838.9 60899.8 23826.5 60910 23699.6 61002.2 23695 61004.7 23690.9 61008 23676.6 61015.5 23533.4 61079.2 23528.4 61080.8 23523.7 61083.1 23508.2 61087.4 23354.8 61120 23349.5 61120.5 23344.5 61121.8 23328.4 61122.8 23171.6 61122.8 23166.4 61122.2 23161.1 61122.4 23145.2 61120 22991.9 61087.4 22986.9 61085.7 22981.7 61084.8 22966.6 61079.2 22823.4 61015.5 22818.9 61012.8 22814 61010.8 22800.4 61002.2 22673.6 60910 22669.7 60906.5 22665.3 60903.5 22653.8 60892.3 22548.9 60775.8 22545.9 60771.5 22542.2 60767.7 22533.3 60754.3 22454.9 60618.5 22452.9 60613.7 22450.1 60609.2 22444.1 60594.3 22395.7 60445.2 22394.7 60440 22392.9 60435.1 22390.2 60419.2 22373.8 60263.3 22373.8 60261.5 22373.1 60250 22373.1 6626.9 19126.9 6626.9 19126.9 60250 19126.7 60251.7 19126.2 60263.3 19109.8 60419.2 19108.6 60424.3 19108.3 60429.6 19104.3 60445.2 19055.9 60594.3 19053.6 60599 19052.2 60604.1 19045.1 60618.5 18966.7 60754.3 18963.5 60758.5 18961.1 60763.1 18951.1 60775.8 18846.2 60892.3 18842.2 60895.7 18838.9 60899.8 18826.5 60910 18699.6 61002.2 18695 61004.7 18690.9 61008 18676.6 61015.5 18533.4 61079.2 18528.4 61080.8 18523.7 61083.1 18508.2 61087.4 18354.8 61120 18349.5 61120.5 18344.5 61121.8 18328.4 61122.8 18171.6 61122.8 18166.4 61122.2 18161.1 61122.4 18145.2 61120 17991.9 61087.4 17986.9 61085.7 17981.7 61084.8 17966.6 61079.2 17823.4 61015.5 17818.9 61012.8 17814 61010.8 17800.4 61002.2 17673.6 60910 17669.7 60906.5 17665.3 60903.5 17653.8 60892.3 17548.9 60775.8 17545.9 60771.5 17542.2 60767.7 17533.3 60754.3 17454.9 60618.5 17452.9 60613.7 17450.1 60609.2 17444.1 60594.3 17395.7 60445.2 17394.7 60440 17392.9 60435.1 17390.2 60419.2 17373.8 60263.3 17373.8 60261.5 17373.1 60250 17373.1 6626.9 14126.9 6626.9 14126.9 60250 14126.7 60251.7 14126.2 60263.3 14109.8 60419.2 14108.6 60424.3 14108.3 60429.6 14104.3 60445.2 14055.9 60594.3 14053.6 60599 14052.2 60604.1 14045.1 60618.5 13966.7 60754.3 13963.5 60758.5 13961.1 60763.1 13951.1 60775.8 13846.2 60892.3 13842.2 60895.7 13838.9 60899.8 13826.5 60910 13699.6 61002.2 13695 61004.7 13690.9 61008 13676.6 61015.5 13533.4 61079.2 13528.4 61080.8 13523.7 61083.1 13508.2 61087.4 13354.8 61120 13349.5 61120.5 13344.5 61121.8 13328.4 61122.8 13171.6 61122.8 13166.4 61122.2 13161.1 61122.4 13145.2 61120 12991.9 61087.4 12986.9 61085.7 12981.7 61084.8 12966.6 61079.2 12823.4 61015.5 12818.9 61012.8 12814 61010.8 12800.4 61002.2 12673.6 60910 12669.7 60906.5 12665.3 60903.5 12653.8 60892.3 12548.9 60775.8 12545.9 60771.5 12542.2 60767.7 12533.3 60754.3 12454.9 60618.5 12452.9 60613.7 12450.1 60609.2 12444.1 60594.3 12395.7 60445.2 12394.7 60440 12392.9 60435.1 12390.2 60419.2 12373.8 60263.3 12373.8 60261.5 12373.1 60250 12373.1 6626.9 9126.9 6626.9 9126.9 60250 9126.7 60251.7 9126.2 60263.3 9109.8 60419.2 9108.6 60424.3 9108.3 60429.6 9104.3 60445.2 9055.9 60594.3 9053.6 60599 9052.2 60604.1 9045.1 60618.5 8966.7 60754.3 8963.5 60758.5 8961.1 60763.1 8951.1 60775.8 8846.2 60892.3 8842.2 60895.7 8838.9 60899.8 8826.5 60910 8699.6 61002.2 8695 61004.7 8690.9 61008 8676.6 61015.5 8533.4 61079.2 8528.4 61080.8 8523.7 61083.1 8508.2 61087.4 8354.8 61120 8349.5 61120.5 8344.5 61121.8 8328.4 61122.8 8171.6 61122.8 8166.4 61122.2 8161.1 61122.4 8145.2 61120 7991.9 61087.4 7986.9 61085.7 7981.7 61084.8 7966.6 61079.2 7823.4 61015.5 7818.9 61012.8 7814 61010.8 7800.4 61002.2 7673.6 60910 7669.7 60906.5 7665.3 60903.5 7653.8 60892.3 7548.9 60775.8 7545.9 60771.5 7542.2 60767.7 7533.3 60754.3 7454.9 60618.5 7452.9 60613.7 7450.1 60609.2 7444.1 60594.3 7395.7 60445.2 7394.7 60440 7392.9 60435.1 7390.2 60419.2 7373.8 60263.3 7373.8 60261.5 7373.1 60250 7373.1 5000 7374.6 4988.2 7375.3 4976.3 7376.6 4972.5 7377.1 4968.4 7381.4 4957.4 7385.1 4946.1 7387.3 4942.6 7388.8 4938.9 7395.8 4929.3 7402.1 4919.2 7405.1 4916.4 7407.4 4913.1 7416.6 4905.6 7425.3 4897.4 7428.8 4895.4 7431.9 4892.9 7442.7 4887.8 7453.1 4882 7457.1 4881 7460.7 4879.3 7472.4 4877.1 7483.9 4874.1 7490 4873.7 7492 4873.3 7494 4873.5 7500 4873.1 33384.3 4873.1 33390.6 4804.5 33391.4 4800.9 33391.5 4797.3 33394.9 4781.5 33445.4 4604 33446.9 4600.6 33447.7 4597 33452.1 4586.4 33452.6 4584.9 33453 4584.3 33453.9 4582.2 33536.2 4417 33538.2 4413.9 33539.6 4410.5 33548.5 4397.1 33659.7 4249.8 33662.3 4247.2 33664.3 4244.1 33675.5 4232.5 33811.9 4108.2 33814.9 4106.1 33817.4 4103.4 33830.6 4094.1 33987.4 3996.9 33990.8 3995.4 33993.8 3993.2 34008.4 3986.5 34180.5 3919.8 34184.1 3918.9 34187.4 3917.4 34203 3913.4 34384.4 3879.5 34388.1 3879.3 34391.7 3878.4 34407.7 3877.3 34592.3 3877.3 34595.9 3877.8"/><path d="M 5833.6 7377.8 5833.6 7377.8 5838.9 7377.6 5854.8 7380 6008.2 7412.6 6013.1 7414.3 6018.3 7415.2 6033.4 7420.8 6176.6 7484.5 6181.1 7487.2 6186 7489.2 6199.6 7497.8 6326.5 7590 6330.3 7593.6 6334.7 7596.5 6346.2 7607.7 6451.1 7724.2 6454.1 7728.6 6457.8 7732.3 6466.7 7745.7 6545.1 7881.5 6547.1 7886.3 6549.9 7890.8 6555.9 7905.7 6604.3 8054.8 6605.3 8060 6607.1 8064.9 6609.8 8080.8 6626.2 8236.7 6626.2 8238.5 6626.9 8250 6626.9 61873.1 9873.1 61873.1 9873.1 8250 9873.3 8248.3 9873.8 8236.7 9890.2 8080.8 9891.4 8075.7 9891.7 8070.4 9895.7 8054.8 9944.1 7905.7 9946.4 7901 9947.8 7895.9 9954.9 7881.5 10033.3 7745.7 10036.5 7741.5 10038.9 7736.9 10048.9 7724.2 10153.8 7607.7 10157.8 7604.3 10161.2 7600.2 10173.6 7590 10300.4 7497.8 10305 7495.3 10309.1 7492 10323.4 7484.5 10466.6 7420.8 10471.6 7419.2 10476.3 7416.9 10491.9 7412.6 10645.2 7380 10650.5 7379.5 10655.5 7378.2 10671.6 7377.2 10828.4 7377.2 10833.6 7377.8 10838.9 7377.6 10854.8 7380 11008.2 7412.6 11013.1 7414.3 11018.3 7415.2 11033.4 7420.8 11176.6 7484.5 11181.1 7487.2 11186 7489.2 11199.6 7497.8 11326.5 7590 11330.3 7593.6 11334.7 7596.5 11346.2 7607.7 11451.1 7724.2 11454.1 7728.6 11457.8 7732.3 11466.7 7745.7 11545.1 7881.5 11547.1 7886.3 11549.9 7890.8 11555.9 7905.7 11604.3 8054.8 11605.3 8060 11607.1 8064.9 11609.8 8080.8 11626.2 8236.7 11626.2 8238.5 11626.9 8250 11626.9 61873.1 14873.1 61873.1 14873.1 8250 14873.3 8248.3 14873.8 8236.7 14890.2 8080.8 14891.4 8075.7 14891.7 8070.4 14895.7 8054.8 14944.1 7905.7 14946.4 7901 14947.8 7895.9 14954.9 7881.5 15033.3 7745.7 15036.5 7741.5 15038.9 7736.9 15048.9 7724.2 15153.8 7607.7 15157.8 7604.3 15161.2 7600.2 15173.6 7590 15300.4 7497.8 15305 7495.3 15309.1 7492 15323.4 7484.5 15466.6 7420.8 15471.6 7419.2 15476.3 7416.9 15491.9 7412.6 15645.2 7380 15650.5 7379.5 15655.5 7378.2 15671.6 7377.2 15828.4 7377.2 15833.6 7377.8 15838.9 7377.6 15854.8 7380 16008.2 7412.6 16013.1 7414.3 16018.3 7415.2 16033.4 7420.8 16176.6 7484.5 16181.1 7487.2 16186 7489.2 16199.6 7497.8 16326.5 7590 16330.3 7593.6 16334.7 7596.5 16346.2 7607.7 16451.1 7724.2 16454.1 7728.6 16457.8 7732.3 16466.7 7745.7 16545.1 7881.5 16547.1 7886.3 16549.9 7890.8 16555.9 7905.7 16604.3 8054.8 16605.3 8060 16607.1 8064.9 16609.8 8080.8 16626.2 8236.7 16626.2 8238.5 16626.9 8250 16626.9 61873.1 19873.1 61873.1 19873.1 8250 19873.3 8248.3 19873.8 8236.7 19890.2 8080.8 19891.4 8075.7 19891.7 8070.4 19895.7 8054.8 19944.1 7905.7 19946.4 7901 19947.8 7895.9 19954.9 7881.5 20033.3 7745.7 20036.5 7741.5 20038.9 7736.9 20048.9 7724.2 20153.8 7607.7 20157.8 7604.3 20161.2 7600.2 20173.6 7590 20300.4 7497.8 20305 7495.3 20309.1 7492 20323.4 7484.5 20466.6 7420.8 20471.6 7419.2 20476.3 7416.9 20491.9 7412.6 20645.2 7380 20650.5 7379.5 20655.5 7378.2 20671.6 7377.2 20828.4 7377.2 20833.6 7377.8 20838.9 7377.6 20854.8 7380 21008.2 7412.6 21013.1 7414.3 21018.3 7415.2 21033.4 7420.8 21176.6 7484.5 21181.1 7487.2 21186 7489.2 21199.6 7497.8 21326.5 7590 21330.3 7593.6 21334.7 7596.5 21346.2 7607.7 21451.1 7724.2 21454.1 7728.6 21457.8 7732.3 21466.7 7745.7 21545.1 7881.5 21547.1 7886.3 21549.9 7890.8 21555.9 7905.7 21604.3 8054.8 21605.3 8060 21607.1 8064.9 21609.8 8080.8 21626.2 8236.7 21626.2 8238.5 21626.9 8250 21626.9 61873.1 24873.1 61873.1 24873.1 8250 24873.3 8248.3 24873.8 8236.7 24890.2 8080.8 24891.4 8075.7 24891.7 8070.4 24895.7 8054.8 24944.1 7905.7 24946.4 7901 24947.8 7895.9 24954.9 7881.5 25033.3 7745.7 25036.5 7741.5 25038.9 7736.9 25048.9 7724.2 25153.8 7607.7 25157.8 7604.3 25161.2 7600.2 25173.6 7590 25300.4 7497.8 25305 7495.3 25309.1 7492 25323.4 7484.5 25466.6 7420.8 25471.6 7419.2 25476.3 7416.9 25491.9 7412.6 25645.2 7380 25650.5 7379.5 25655.5 7378.2 25671.6 7377.2 25828.4 7377.2 25833.6 7377.8 25838.9 7377.6 25854.8 7380 26008.2 7412.6 26013.1 7414.3 26018.3 7415.2 26033.4 7420.8 26176.6 7484.5 26181.1 7487.2 26186 7489.2 26199.6 7497.8 26326.5 7590 26330.3 7593.6 26334.7 7596.5 26346.2 7607.7 26451.1 7724.2 26454.1 7728.6 26457.8 7732.3 26466.7 7745.7 26545.1 7881.5 26547.1 7886.3 26549.9 7890.8 26555.9 7905.7 26604.3 8054.8 26605.3 8060 26607.1 8064.9 26609.8 8080.8 26626.2 8236.7 26626.2 8238.5 26626.9 8250 26626.9 61873.1 29873.1 61873.1 29873.1 8250 29873.3 8248.3 29873.8 8236.7 29890.2 8080.8 29891.4 8075.7 29891.7 8070.4 29895.7 8054.8 29944.1 7905.7 29946.4 7901 29947.8 7895.9 29954.9 7881.5 30033.3 7745.7 30036.5 7741.5 30038.9 7736.9 30048.9 7724.2 30153.8 7607.7 30157.8 7604.3 30161.2 7600.2 30173.6 7590 30300.4 7497.8 30305 7495.3 30309.1 7492 30323.4 7484.5 30466.6 7420.8 30471.6 7419.2 30476.3 7416.9 30491.9 7412.6 30645.2 7380 30650.5 7379.5 30655.5 7378.2 30671.6 7377.2 30828.4 7377.2 30833.6 7377.8 30838.9 7377.6 30854.8 7380 31008.2 7412.6 31013.1 7414.3 31018.3 7415.2 31033.4 7420.8 31176.6 7484.5 31181.1 7487.2 31186 7489.2 31199.6 7497.8 31326.5 7590 31330.3 7593.6 31334.7 7596.5 31346.2 7607.7 31451.1 7724.2 31454.1 7728.6 31457.8 7732.3 31466.7 7745.7 31545.1 7881.5 31547.1 7886.3 31549.9 7890.8 31555.9 7905.7 31604.3 8054.8 31605.3 8060 31607.1 8064.9 31609.8 8080.8 31626.2 8236.7 31626.2 8238.5 31626.9 8250 31626.9 61873.1 34873.1 61873.1 34873.1 8250 34873.3 8248.3 34873.8 8236.7 34890.2 8080.8 34891.4 8075.7 34891.7 8070.4 34895.7 8054.8 34944.1 7905.7 34946.4 7901 34947.8 7895.9 34954.9 7881.5 35033.3 7745.7 35036.5 7741.5 35038.9 7736.9 35048.9 7724.2 35153.8 7607.7 35157.8 7604.3 35161.2 7600.2 35173.6 7590 35300.4 7497.8 35305 7495.3 35309.1 7492 35323.4 7484.5 35466.6 7420.8 35471.6 7419.2 35476.3 7416.9 35491.9 7412.6 35645.2 7380 35650.5 7379.5 35655.5 7378.2 35671.6 7377.2 35828.4 7377.2 35833.6 7377.8 35838.9 7377.6 35854.8 7380 36008.2 7412.6 36013.1 7414.3 36018.3 7415.2 36033.4 7420.8 36176.6 7484.5 36181.1 7487.2 36186 7489.2 36199.6 7497.8 36326.5 7590 36330.3 7593.6 36334.7 7596.5 36346.2 7607.7 36451.1 7724.2 36454.1 7728.6 36457.8 7732.3 36466.7 7745.7 36545.1 7881.5 36547.1 7886.3 36549.9 7890.8 36555.9 7905.7 36604.3 8054.8 36605.3 8060 36607.1 8064.9 36609.8 8080.8 36626.2 8236.7 36626.2 8238.5 36626.9 8250 36626.9 61873.1 39873.1 61873.1 39873.1 8250 39873.3 8248.3 39873.8 8236.7 39890.2 8080.8 39891.4 8075.7 39891.7 8070.4 39895.7 8054.8 39944.1 7905.7 39946.4 7901 39947.8 7895.9 39954.9 7881.5 40033.3 7745.7 40036.5 7741.5 40038.9 7736.9 40048.9 7724.2 40153.8 7607.7 40157.8 7604.3 40161.2 7600.2 40173.6 7590 40300.4 7497.8 40305 7495.3 40309.1 7492 40323.4 7484.5 40466.6 7420.8 40471.6 7419.2 40476.3 7416.9 40491.9 7412.6 40645.2 7380 40650.5 7379.5 40655.5 7378.2 40671.6 7377.2 40828.4 7377.2 40833.6 7377.8 40838.9 7377.6 40854.8 7380 41008.2 7412.6 41013.1 7414.3 41018.3 7415.2 41033.4 7420.8 41176.6 7484.5 41181.1 7487.2 41186 7489.2 41199.6 7497.8 41326.5 7590 41330.3 7593.6 41334.7 7596.5 41346.2 7607.7 41451.1 7724.2 41454.1 7728.6 41457.8 7732.3 41466.7 7745.7 41545.1 7881.5 41547.1 7886.3 41549.9 7890.8 41555.9 7905.7 41604.3 8054.8 41605.3 8060 41607.1 8064.9 41609.8 8080.8 41626.2 8236.7 41626.2 8238.5 41626.9 8250 41626.9 61873.1 44873.1 61873.1 44873.1 8250 44873.3 8248.3 44873.8 8236.7 44890.2 8080.8 44891.4 8075.7 44891.7 8070.4 44895.7 8054.8 44944.1 7905.7 44946.4 7901 44947.8 7895.9 44954.9 7881.5 45033.3 7745.7 45036.5 7741.5 45038.9 7736.9 45048.9 7724.2 45153.8 7607.7 45157.8 7604.3 45161.2 7600.2 45173.6 7590 45300.4 7497.8 45305 7495.3 45309.1 7492 45323.4 7484.5 45466.6 7420.8 45471.6 7419.2 45476.3 7416.9 45491.9 7412.6 45645.2 7380 45650.5 7379.5 45655.5 7378.2 45671.6 7377.2 45828.4 7377.2 45833.6 7377.8 45838.9 7377.6 45854.8 7380 46008.2 7412.6 46013.1 7414.3 46018.3 7415.2 46033.4 7420.8 46176.6 7484.5 46181.1 7487.2 46186 7489.2 46199.6 7497.8 46326.5 7590 46330.3 7593.6 46334.7 7596.5 46346.2 7607.7 46451.1 7724.2 46454.1 7728.6 46457.8 7732.3 46466.7 7745.7 46545.1 7881.5 46547.1 7886.3 46549.9 7890.8 46555.9 7905.7 46604.3 8054.8 46605.3 8060 46607.1 8064.9 46609.8 8080.8 46626.2 8236.7 46626.2 8238.5 46626.9 8250 46626.9 61873.1 49873.1 61873.1 49873.1 8250 49873.3 8248.3 49873.8 8236.7 49890.2 8080.8 49891.4 8075.7 49891.7 8070.4 49895.7 8054.8 49944.1 7905.7 49946.4 7901 49947.8 7895.9 49954.9 7881.5 50033.3 7745.7 50036.5 7741.5 50038.9 7736.9 50048.9 7724.2 50153.8 7607.7 50157.8 7604.3 50161.2 7600.2 50173.6 7590 50300.4 7497.8 50305 7495.3 50309.1 7492 50323.4 7484.5 50466.6 7420.8 50471.6 7419.2 50476.3 7416.9 50491.9 7412.6 50645.2 7380 50650.5 7379.5 50655.5 7378.2 50671.6 7377.2 50828.4 7377.2 50833.6 7377.8 50838.9 7377.6 50854.8 7380 51008.2 7412.6 51013.1 7414.3 51018.3 7415.2 51033.4 7420.8 51176.6 7484.5 51181.1 7487.2 51186 7489.2 51199.6 7497.8 51326.5 7590 51330.3 7593.6 51334.7 7596.5 51346.2 7607.7 51451.1 7724.2 51454.1 7728.6 51457.8 7732.3 51466.7 7745.7 51545.1 7881.5 51547.1 7886.3 51549.9 7890.8 51555.9 7905.7 51604.3 8054.8 51605.3 8060 51607.1 8064.9 51609.8 8080.8 51626.2 8236.7 51626.2 8238.5 51626.9 8250 51626.9 61873.1 54873.1 61873.1 54873.1 8250 54873.3 8248.3 54873.8 8236.7 54890.2 8080.8 54891.4 8075.7 54891.7 8070.4 54895.7 8054.8 54944.1 7905.7 54946.4 7901 54947.8 7895.9 54954.9 7881.5 55033.3 7745.7 55036.5 7741.5 55038.9 7736.9 55048.9 7724.2 55153.8 7607.7 55157.8 7604.3 55161.2 7600.2 55173.6 7590 55300.4 7497.8 55305 7495.3 55309.1 7492 55323.4 7484.5 55466.6 7420.8 55471.6 7419.2 55476.3 7416.9 55491.9 7412.6 55645.2 7380 55650.5 7379.5 55655.5 7378.2 55671.6 7377.2 55828.4 7377.2 55833.6 7377.8 55838.9 7377.6 55854.8 7380 56008.2 7412.6 56013.1 7414.3 56018.3 7415.2 56033.4 7420.8 56176.6 7484.5 56181.1 7487.2 56186 7489.2 56199.6 7497.8 56326.5 7590 56330.3 7593.6 56334.7 7596.5 56346.2 7607.7 56451.1 7724.2 56454.1 7728.6 56457.8 7732.3 56466.7 7745.7 56545.1 7881.5 56547.1 7886.3 56549.9 7890.8 56555.9 7905.7 56604.3 8054.8 56605.3 8060 56607.1 8064.9 56609.8 8080.8 56626.2 8236.7 56626.2 8238.5 56626.9 8250 56626.9 61873.1 59873.1 61873.1 59873.1 8250 59873.3 8248.3 59873.8 8236.7 59890.2 8080.8 59891.4 8075.7 59891.7 8070.4 59895.7 8054.8 59944.1 7905.7 59946.4 7901 59947.8 7895.9 59954.9 7881.5 60033.3 7745.7 60036.5 7741.5 60038.9 7736.9 60048.9 7724.2 60153.8 7607.7 60157.8 7604.3 60161.2 7600.2 60173.6 7590 60300.4 7497.8 60305 7495.3 60309.1 7492 60323.4 7484.5 60466.6 7420.8 60471.6 7419.2 60476.3 7416.9 60491.9 7412.6 60645.2 7380 60650.5 7379.5 60655.5 7378.2 60671.6 7377.2 60828.4 7377.2 60833.6 7377.8 60838.9 7377.6 60854.8 7380 61008.2 7412.6 61013.1 7414.3 61018.3 7415.2 61033.4 7420.8 61176.6 7484.5 61181.1 7487.2 61186 7489.2 61199.6 7497.8 61326.5 7590 61330.3 7593.6 61334.7 7596.5 61346.2 7607.7 61451.1 7724.2 61454.1 7728.6 61457.8 7732.3 61466.7 7745.7 61545.1 7881.5 61547.1 7886.3 61549.9 7890.8 61555.9 7905.7 61604.3 8054.8 61605.3 8060 61607.1 8064.9 61609.8 8080.8 61626.2 8236.7 61626.2 8238.5 61626.9 8250 61626.9 63500 61625.4 63511.8 61624.7 63523.7 61623.4 63527.5 61622.9 63531.6 61618.6 63542.6 61614.9 63553.9 61612.7 63557.4 61611.2 63561.1 61604.3 63570.7 61597.9 63580.8 61594.9 63583.6 61592.6 63586.9 61583.4 63594.5 61574.7 63602.6 61571.2 63604.6 61568.1 63607.1 61557.3 63612.2 61546.9 63618 61542.9 63619 61539.3 63620.7 61527.6 63622.9 61516.1 63625.9 61510.1 63626.3 61508.1 63626.7 61506 63626.5 61500 63626.9 35615.7 63626.9 35609.4 63695.5 35608.6 63699.1 35608.5 63702.8 35605.1 63718.5 35554.6 63896 35553.1 63899.4 35552.3 63903 35546.1 63917.8 35463.8 64083 35461.8 64086.1 35460.4 64089.5 35451.5 64102.9 35340.3 64250.2 35337.7 64252.8 35335.7 64255.9 35324.5 64267.5 35188.1 64391.8 35185.1 64393.9 35182.6 64396.6 35169.5 64405.9 35012.6 64503.1 35009.2 64504.6 35006.2 64506.8 34991.6 64513.5 34819.5 64580.2 34815.9 64581.1 34812.6 64582.6 34797 64586.6 34615.6 64620.5 34611.9 64620.7 34608.3 64621.6 34592.3 64622.7 34407.7 64622.7 34404.1 64622.2 34400.4 64622.4 34384.4 64620.5 34203 64586.6 34199.5 64585.5 34195.8 64585 34180.5 64580.2 34008.4 64513.5 34005.2 64511.8 34001.6 64510.7 33987.4 64503.1 33830.6 64405.9 33827.7 64403.6 33824.4 64401.9 33811.9 64391.8 33675.5 64267.5 33673.1 64264.7 33670.2 64262.4 33659.7 64250.2 33548.5 64102.9 33546.7 64099.7 33544.2 64096.9 33543.4 64095.5 33543.4 64095.4 33543.3 64095.3 33536.2 64083 33453.9 63917.8 33452.7 63914.3 33450.8 63911.2 33445.4 63896 33394.9 63718.5 33394.4 63714.8 33393.1 63711.4 33390.6 63695.5 33384.3 63626.9 5000 63626.9 4988.2 63625.4 4976.3 63624.7 4972.5 63623.4 4968.4 63622.9 4957.4 63618.6 4946.1 63614.9 4942.6 63612.7 4938.9 63611.2 4929.3 63604.3 4919.2 63597.9 4916.4 63594.9 4913.1 63592.6 4905.6 63583.4 4897.4 63574.7 4895.4 63571.2 4892.9 63568.1 4887.8 63557.3 4882 63546.9 4881 63542.9 4879.3 63539.3 4877.1 63527.6 4874.1 63516.1 4873.7 63510.1 4873.3 63508.1 4873.5 63506 4873.1 63500 4873.1 8250 4873.3 8248.3 4873.8 8236.7 4890.2 8080.8 4891.4 8075.7 4891.7 8070.4 4895.7 8054.8 4944.1 7905.7 4946.4 7901 4947.8 7895.9 4954.9 7881.5 5033.3 7745.7 5036.5 7741.5 5038.9 7736.9 5048.9 7724.2 5153.8 7607.7 5157.8 7604.3 5161.2 7600.2 5173.6 7590 5300.4 7497.8 5305 7495.3 5309.1 7492 5323.4 7484.5 5466.6 7420.8 5471.6 7419.2 5476.3 7416.9 5491.9 7412.6 5645.2 7380 5650.5 7379.5 5655.5 7378.2 5671.6 7377.2 5828.4 7377.2 5833.6 7377.8"/><path d="M 0 0 0 68500 69000 68500 69000 0 0 0" fill="none" stroke-width="0"/><use xlink:href="#uRfdxfTMsGJApQuxV1i__pad-11" x="34500" y="63500"/><use xlink:href="#uRfdxfTMsGJApQuxV1i__pad-11" x="34500" y="5000"/></g><g id="rZot30QKtMhGP3r5mffl_top_silkscreen"><path d="M 0 0 0 2875 M 0 4375 0 7250 M 0 8750 0 11625 M 0 13125 0 16000 M 0 17500 0 20375 M 0 21875 0 24750 M 0 26250 0 29125 M 0 30625 0 33500 M 0 35000 0 37875 M 0 39375 0 42250 M 0 43750 0 46625 M 0 48125 0 51000 M 0 52500 0 55375 M 0 56875 0 59750 M 0 61250 0 64125 M 0 65625 0 68500 M 66093.8 0 69000 0 M 64593.8 0 61687.5 0 M 60187.5 0 57281.3 0 M 55781.3 0 52875 0 M 51375 0 48468.8 0 M 46968.8 0 44062.5 0 M 42562.5 0 39656.3 0 M 38156.3 0 35250 0 M 33750 0 30843.8 0 M 29343.8 0 26437.5 0 M 24937.5 0 22031.3 0 M 20531.3 0 17625 0 M 16125 0 13218.8 0 M 11718.8 0 8812.5 0 M 7312.5 0 4406.3 0 M 2906.3 0 0 0 M 69000 0 69000 2875 M 69000 4375 69000 7250 M 69000 8750 69000 11625 M 69000 13125 69000 16000 M 69000 17500 69000 20375 M 69000 21875 69000 24750 M 69000 26250 69000 29125 M 69000 30625 69000 33500 M 69000 35000 69000 37875 M 69000 39375 69000 42250 M 69000 43750 69000 46625 M 69000 48125 69000 51000 M 69000 52500 69000 55375 M 69000 56875 69000 59750 M 69000 61250 69000 64125 M 69000 65625 69000 68500 M 2528.8 68500 0 68500 M 3280.7 68500 3402.6 68500 M 4154.4 68500 6683.3 68500 M 7435.1 68500 7557.1 68500 M 8308.9 68500 10837.7 68500 M 11589.6 68500 11711.5 68500 M 12463.3 68500 14992.2 68500 M 15744 68500 15865.9 68500 M 16617.8 68500 19146.6 68500 M 19898.5 68500 20020.4 68500 M 20772.2 68500 23301.1 68500 M 24052.9 68500 24174.8 68500 M 24926.7 68500 27455.5 68500 M 28207.4 68500 28329.3 68500 M 29081.1 68500 31610 68500 M 32361.8 68500 32483.7 68500 M 33235.6 68500 35764.4 68500 M 36516.3 68500 36638.2 68500 M 37390 68500 39918.9 68500 M 40670.7 68500 40792.6 68500 M 41544.5 68500 44073.3 68500 M 44825.2 68500 44947.1 68500 M 45698.9 68500 48227.8 68500 M 48979.6 68500 49101.5 68500 M 49853.4 68500 52382.2 68500 M 53134.1 68500 53256 68500 M 54007.8 68500 56536.7 68500 M 57288.5 68500 57410.4 68500 M 58162.3 68500 60691.1 68500 M 61442.9 68500 61564.9 68500 M 62316.7 68500 64845.6 68500 M 65597.4 68500 65719.3 68500 M 66471.2 68500 69000 68500" fill="none" stroke-width="406.4"/><path d="M 0 68500 0 0 M 0 68500 69000 68500 69000 0 0 0" fill="none" stroke-width="0"/></g><g id="rZot30QKtMhGP3r5mffl_top_drill1"><use xlink:href="#c_9p5hJE0gQdEsvt6N-M_pad-1" x="34500" y="63500"/><use xlink:href="#c_9p5hJE0gQdEsvt6N-M_pad-1" x="34500" y="5000"/></g><clipPath id="rZot30QKtMhGP3r5mffl_top_outline"><path d="M 0 0 0 68500 69000 68500 69000 0 0 0" fill="none" stroke-width="0"/></clipPath><mask id="rZot30QKtMhGP3r5mffl_top_mech-mask"><g fill="#000" stroke="#000"><rect x="0" y="0" width="69000" height="68500" fill="#fff"/><use xlink:href="#rZot30QKtMhGP3r5mffl_top_drill1"/></g></mask><mask id="rZot30QKtMhGP3r5mffl_top_cf-mask"><g fill="#fff" stroke="#fff"><use xlink:href="#rZot30QKtMhGP3r5mffl_top_soldermask"/></g></mask><mask id="rZot30QKtMhGP3r5mffl_top_sm-mask"><g fill="#000" stroke="#000"><rect x="0" y="0" width="69000" height="68500" fill="#fff"/><use xlink:href="#rZot30QKtMhGP3r5mffl_top_soldermask"/></g></mask></defs><g transform="translate(0,68500) scale(1,-1)"><g mask="url(#rZot30QKtMhGP3r5mffl_top_mech-mask)" clip-path="url(#rZot30QKtMhGP3r5mffl_top_outline)"><rect x="0" y="0" width="69000" height="68500" fill="currentColor" class="rZot30QKtMhGP3r5mffl_fr4"/><use xlink:href="#rZot30QKtMhGP3r5mffl_top_copper" fill="currentColor" stroke="currentColor" class="rZot30QKtMhGP3r5mffl_cu"/><use xlink:href="#rZot30QKtMhGP3r5mffl_top_copper" fill="currentColor" stroke="currentColor" class="rZot30QKtMhGP3r5mffl_cf" mask="url(#rZot30QKtMhGP3r5mffl_top_cf-mask)"/><g mask="url(#rZot30QKtMhGP3r5mffl_top_sm-mask)"><rect x="0" y="0" width="69000" height="68500" fill="currentColor" class="rZot30QKtMhGP3r5mffl_sm"/><use xlink:href="#rZot30QKtMhGP3r5mffl_top_silkscreen" fill="currentColor" stroke="currentColor" class="rZot30QKtMhGP3r5mffl_ss"/></g><use xlink:href="#rZot30QKtMhGP3r5mffl_top_solderpaste" fill="currentColor" stroke="currentColor" class="rZot30QKtMhGP3r5mffl_sp"/></g></g></svg>